G75*
G70*
%OFA0B0*%
%FSLAX24Y24*%
%IPPOS*%
%LPD*%
%AMOC8*
5,1,8,0,0,1.08239X$1,22.5*
%
%ADD10C,0.0000*%
%ADD11R,0.0394X0.0433*%
%ADD12R,0.0433X0.0394*%
%ADD13R,0.0315X0.0315*%
%ADD14R,0.0600X0.0300*%
%ADD15R,0.0984X0.0197*%
%ADD16R,0.0984X0.0787*%
%ADD17R,0.0787X0.0945*%
%ADD18R,0.0551X0.0315*%
%ADD19R,0.0866X0.0709*%
%ADD20R,0.0118X0.0118*%
%ADD21R,0.0512X0.0413*%
D10*
X000150Y000150D02*
X000150Y007150D01*
X020150Y007150D01*
X020150Y000150D01*
X000150Y000150D01*
X017973Y002784D02*
X017975Y002810D01*
X017981Y002836D01*
X017991Y002861D01*
X018004Y002884D01*
X018020Y002904D01*
X018040Y002922D01*
X018062Y002937D01*
X018085Y002949D01*
X018111Y002957D01*
X018137Y002961D01*
X018163Y002961D01*
X018189Y002957D01*
X018215Y002949D01*
X018239Y002937D01*
X018260Y002922D01*
X018280Y002904D01*
X018296Y002884D01*
X018309Y002861D01*
X018319Y002836D01*
X018325Y002810D01*
X018327Y002784D01*
X018325Y002758D01*
X018319Y002732D01*
X018309Y002707D01*
X018296Y002684D01*
X018280Y002664D01*
X018260Y002646D01*
X018238Y002631D01*
X018215Y002619D01*
X018189Y002611D01*
X018163Y002607D01*
X018137Y002607D01*
X018111Y002611D01*
X018085Y002619D01*
X018061Y002631D01*
X018040Y002646D01*
X018020Y002664D01*
X018004Y002684D01*
X017991Y002707D01*
X017981Y002732D01*
X017975Y002758D01*
X017973Y002784D01*
X017973Y004516D02*
X017975Y004542D01*
X017981Y004568D01*
X017991Y004593D01*
X018004Y004616D01*
X018020Y004636D01*
X018040Y004654D01*
X018062Y004669D01*
X018085Y004681D01*
X018111Y004689D01*
X018137Y004693D01*
X018163Y004693D01*
X018189Y004689D01*
X018215Y004681D01*
X018239Y004669D01*
X018260Y004654D01*
X018280Y004636D01*
X018296Y004616D01*
X018309Y004593D01*
X018319Y004568D01*
X018325Y004542D01*
X018327Y004516D01*
X018325Y004490D01*
X018319Y004464D01*
X018309Y004439D01*
X018296Y004416D01*
X018280Y004396D01*
X018260Y004378D01*
X018238Y004363D01*
X018215Y004351D01*
X018189Y004343D01*
X018163Y004339D01*
X018137Y004339D01*
X018111Y004343D01*
X018085Y004351D01*
X018061Y004363D01*
X018040Y004378D01*
X018020Y004396D01*
X018004Y004416D01*
X017991Y004439D01*
X017981Y004464D01*
X017975Y004490D01*
X017973Y004516D01*
D11*
X015150Y003485D03*
X014410Y003485D03*
X013750Y003485D03*
X013150Y003485D03*
X013150Y002815D03*
X013750Y002815D03*
X014410Y002815D03*
X015150Y002815D03*
X011370Y002605D03*
X011370Y001935D03*
D12*
X008193Y001738D03*
X007524Y001738D03*
X003525Y001550D03*
X002855Y001550D03*
X002855Y002930D03*
X003525Y002930D03*
X004375Y003590D03*
X005045Y003590D03*
X005715Y003590D03*
X006385Y003590D03*
X003585Y003650D03*
X002915Y003650D03*
X002305Y003650D03*
X001635Y003650D03*
X005755Y005450D03*
X006425Y005450D03*
X011295Y003930D03*
X011965Y003930D03*
X011995Y004650D03*
X012665Y004650D03*
D13*
X012625Y005150D03*
X012035Y005150D03*
X013155Y002290D03*
X013745Y002290D03*
D14*
X006990Y002880D03*
X004990Y002880D03*
X004990Y001380D03*
X006990Y001380D03*
X003650Y004400D03*
X001650Y004400D03*
X001650Y005900D03*
X003650Y005900D03*
D15*
X017166Y004280D03*
X017166Y003965D03*
X017166Y003650D03*
X017166Y003335D03*
X017166Y003020D03*
D16*
X017166Y001878D03*
X019331Y001878D03*
X017166Y005382D03*
X019331Y005422D03*
D17*
X006377Y004450D03*
X004803Y004450D03*
D18*
X013870Y004650D03*
X013870Y004059D03*
X013870Y005241D03*
D19*
X015083Y004650D03*
D20*
G36*
X010681Y003733D02*
X010764Y003650D01*
X010681Y003567D01*
X010598Y003650D01*
X010681Y003733D01*
G37*
G36*
X010542Y003872D02*
X010625Y003789D01*
X010542Y003706D01*
X010459Y003789D01*
X010542Y003872D01*
G37*
G36*
X010403Y004011D02*
X010486Y003928D01*
X010403Y003845D01*
X010320Y003928D01*
X010403Y004011D01*
G37*
G36*
X010264Y004151D02*
X010347Y004068D01*
X010264Y003985D01*
X010181Y004068D01*
X010264Y004151D01*
G37*
G36*
X010124Y004290D02*
X010207Y004207D01*
X010124Y004124D01*
X010041Y004207D01*
X010124Y004290D01*
G37*
G36*
X009985Y004429D02*
X010068Y004346D01*
X009985Y004263D01*
X009902Y004346D01*
X009985Y004429D01*
G37*
G36*
X009846Y004568D02*
X009929Y004485D01*
X009846Y004402D01*
X009763Y004485D01*
X009846Y004568D01*
G37*
G36*
X009707Y004707D02*
X009790Y004624D01*
X009707Y004541D01*
X009624Y004624D01*
X009707Y004707D01*
G37*
G36*
X009568Y004847D02*
X009651Y004764D01*
X009568Y004681D01*
X009485Y004764D01*
X009568Y004847D01*
G37*
G36*
X009428Y004986D02*
X009511Y004903D01*
X009428Y004820D01*
X009345Y004903D01*
X009428Y004986D01*
G37*
G36*
X009289Y005125D02*
X009372Y005042D01*
X009289Y004959D01*
X009206Y005042D01*
X009289Y005125D01*
G37*
G36*
X009150Y005264D02*
X009233Y005181D01*
X009150Y005098D01*
X009067Y005181D01*
X009150Y005264D01*
G37*
G36*
X009011Y005125D02*
X009094Y005042D01*
X009011Y004959D01*
X008928Y005042D01*
X009011Y005125D01*
G37*
G36*
X008872Y004986D02*
X008955Y004903D01*
X008872Y004820D01*
X008789Y004903D01*
X008872Y004986D01*
G37*
G36*
X008732Y004847D02*
X008815Y004764D01*
X008732Y004681D01*
X008649Y004764D01*
X008732Y004847D01*
G37*
G36*
X008593Y004707D02*
X008676Y004624D01*
X008593Y004541D01*
X008510Y004624D01*
X008593Y004707D01*
G37*
G36*
X008454Y004568D02*
X008537Y004485D01*
X008454Y004402D01*
X008371Y004485D01*
X008454Y004568D01*
G37*
G36*
X008315Y004429D02*
X008398Y004346D01*
X008315Y004263D01*
X008232Y004346D01*
X008315Y004429D01*
G37*
G36*
X008176Y004290D02*
X008259Y004207D01*
X008176Y004124D01*
X008093Y004207D01*
X008176Y004290D01*
G37*
G36*
X008036Y004151D02*
X008119Y004068D01*
X008036Y003985D01*
X007953Y004068D01*
X008036Y004151D01*
G37*
G36*
X007897Y004011D02*
X007980Y003928D01*
X007897Y003845D01*
X007814Y003928D01*
X007897Y004011D01*
G37*
G36*
X007758Y003872D02*
X007841Y003789D01*
X007758Y003706D01*
X007675Y003789D01*
X007758Y003872D01*
G37*
G36*
X007619Y003733D02*
X007702Y003650D01*
X007619Y003567D01*
X007536Y003650D01*
X007619Y003733D01*
G37*
G36*
X007758Y003594D02*
X007841Y003511D01*
X007758Y003428D01*
X007675Y003511D01*
X007758Y003594D01*
G37*
G36*
X007897Y003455D02*
X007980Y003372D01*
X007897Y003289D01*
X007814Y003372D01*
X007897Y003455D01*
G37*
G36*
X008036Y003315D02*
X008119Y003232D01*
X008036Y003149D01*
X007953Y003232D01*
X008036Y003315D01*
G37*
G36*
X008176Y003176D02*
X008259Y003093D01*
X008176Y003010D01*
X008093Y003093D01*
X008176Y003176D01*
G37*
G36*
X008315Y003037D02*
X008398Y002954D01*
X008315Y002871D01*
X008232Y002954D01*
X008315Y003037D01*
G37*
G36*
X008454Y002898D02*
X008537Y002815D01*
X008454Y002732D01*
X008371Y002815D01*
X008454Y002898D01*
G37*
G36*
X008593Y002759D02*
X008676Y002676D01*
X008593Y002593D01*
X008510Y002676D01*
X008593Y002759D01*
G37*
G36*
X008732Y002619D02*
X008815Y002536D01*
X008732Y002453D01*
X008649Y002536D01*
X008732Y002619D01*
G37*
G36*
X008872Y002480D02*
X008955Y002397D01*
X008872Y002314D01*
X008789Y002397D01*
X008872Y002480D01*
G37*
G36*
X009011Y002341D02*
X009094Y002258D01*
X009011Y002175D01*
X008928Y002258D01*
X009011Y002341D01*
G37*
G36*
X009289Y002341D02*
X009372Y002258D01*
X009289Y002175D01*
X009206Y002258D01*
X009289Y002341D01*
G37*
G36*
X009428Y002480D02*
X009511Y002397D01*
X009428Y002314D01*
X009345Y002397D01*
X009428Y002480D01*
G37*
G36*
X009568Y002619D02*
X009651Y002536D01*
X009568Y002453D01*
X009485Y002536D01*
X009568Y002619D01*
G37*
G36*
X009707Y002759D02*
X009790Y002676D01*
X009707Y002593D01*
X009624Y002676D01*
X009707Y002759D01*
G37*
G36*
X009846Y002898D02*
X009929Y002815D01*
X009846Y002732D01*
X009763Y002815D01*
X009846Y002898D01*
G37*
G36*
X009985Y003037D02*
X010068Y002954D01*
X009985Y002871D01*
X009902Y002954D01*
X009985Y003037D01*
G37*
G36*
X010124Y003176D02*
X010207Y003093D01*
X010124Y003010D01*
X010041Y003093D01*
X010124Y003176D01*
G37*
G36*
X010264Y003315D02*
X010347Y003232D01*
X010264Y003149D01*
X010181Y003232D01*
X010264Y003315D01*
G37*
G36*
X010403Y003455D02*
X010486Y003372D01*
X010403Y003289D01*
X010320Y003372D01*
X010403Y003455D01*
G37*
G36*
X010542Y003594D02*
X010625Y003511D01*
X010542Y003428D01*
X010459Y003511D01*
X010542Y003594D01*
G37*
G36*
X009150Y002202D02*
X009233Y002119D01*
X009150Y002036D01*
X009067Y002119D01*
X009150Y002202D01*
G37*
D21*
X012090Y001807D03*
X012090Y002733D03*
M02*
