G75*
G70*
%OFA0B0*%
%FSLAX24Y24*%
%IPPOS*%
%LPD*%
%AMOC8*
5,1,8,0,0,1.08239X$1,22.5*
%
%ADD10C,0.0000*%
%ADD11C,0.0394*%
%ADD12C,0.0700*%
%ADD13C,0.0780*%
D10*
X000150Y000150D02*
X000150Y007150D01*
X020150Y007150D01*
X020150Y000150D01*
X000150Y000150D01*
X017973Y002784D02*
X017975Y002810D01*
X017981Y002836D01*
X017991Y002861D01*
X018004Y002884D01*
X018020Y002904D01*
X018040Y002922D01*
X018062Y002937D01*
X018085Y002949D01*
X018111Y002957D01*
X018137Y002961D01*
X018163Y002961D01*
X018189Y002957D01*
X018215Y002949D01*
X018239Y002937D01*
X018260Y002922D01*
X018280Y002904D01*
X018296Y002884D01*
X018309Y002861D01*
X018319Y002836D01*
X018325Y002810D01*
X018327Y002784D01*
X018325Y002758D01*
X018319Y002732D01*
X018309Y002707D01*
X018296Y002684D01*
X018280Y002664D01*
X018260Y002646D01*
X018238Y002631D01*
X018215Y002619D01*
X018189Y002611D01*
X018163Y002607D01*
X018137Y002607D01*
X018111Y002611D01*
X018085Y002619D01*
X018061Y002631D01*
X018040Y002646D01*
X018020Y002664D01*
X018004Y002684D01*
X017991Y002707D01*
X017981Y002732D01*
X017975Y002758D01*
X017973Y002784D01*
X017973Y004516D02*
X017975Y004542D01*
X017981Y004568D01*
X017991Y004593D01*
X018004Y004616D01*
X018020Y004636D01*
X018040Y004654D01*
X018062Y004669D01*
X018085Y004681D01*
X018111Y004689D01*
X018137Y004693D01*
X018163Y004693D01*
X018189Y004689D01*
X018215Y004681D01*
X018239Y004669D01*
X018260Y004654D01*
X018280Y004636D01*
X018296Y004616D01*
X018309Y004593D01*
X018319Y004568D01*
X018325Y004542D01*
X018327Y004516D01*
X018325Y004490D01*
X018319Y004464D01*
X018309Y004439D01*
X018296Y004416D01*
X018280Y004396D01*
X018260Y004378D01*
X018238Y004363D01*
X018215Y004351D01*
X018189Y004343D01*
X018163Y004339D01*
X018137Y004339D01*
X018111Y004343D01*
X018085Y004351D01*
X018061Y004363D01*
X018040Y004378D01*
X018020Y004396D01*
X018004Y004416D01*
X017991Y004439D01*
X017981Y004464D01*
X017975Y004490D01*
X017973Y004516D01*
D11*
X018150Y004516D03*
X018150Y002784D03*
D12*
X004250Y002750D03*
X004250Y001750D03*
D13*
X004650Y000650D03*
X003650Y000650D03*
X002650Y000650D03*
X001650Y000650D03*
X000650Y000650D03*
X000650Y001650D03*
X000650Y002650D03*
X000650Y003650D03*
X000650Y004650D03*
X000650Y005650D03*
X000650Y006650D03*
X001650Y006650D03*
X002650Y006650D03*
X003650Y006650D03*
X004650Y006650D03*
X005650Y006650D03*
X006650Y006650D03*
X007650Y006650D03*
X008650Y006650D03*
X009650Y006650D03*
X010650Y006650D03*
X011650Y006650D03*
X012650Y006650D03*
X013650Y006650D03*
X014650Y006650D03*
X015650Y006650D03*
X016650Y006650D03*
X017650Y006650D03*
X018650Y006650D03*
X019650Y006650D03*
X019650Y000650D03*
X018650Y000650D03*
X017650Y000650D03*
X016650Y000650D03*
X015650Y000650D03*
X014650Y000650D03*
X013650Y000650D03*
X012650Y000650D03*
X011650Y000650D03*
X010650Y000650D03*
X009650Y000650D03*
X008650Y000650D03*
X007650Y000650D03*
X006650Y000650D03*
X005650Y000650D03*
M02*
