G75*
G70*
%OFA0B0*%
%FSLAX24Y24*%
%IPPOS*%
%LPD*%
%AMOC8*
5,1,8,0,0,1.08239X$1,22.5*
%
%ADD10C,0.0000*%
%ADD11C,0.0100*%
%ADD12C,0.0070*%
%ADD13C,0.0060*%
%ADD14C,0.0080*%
%ADD15C,0.0039*%
%ADD16C,0.0220*%
%ADD17C,0.0020*%
%ADD18R,0.0300X0.0180*%
%ADD19R,0.0180X0.0300*%
%ADD20C,0.0050*%
D10*
X001260Y000950D02*
X001260Y007950D01*
X001260Y014950D01*
X001260Y021950D01*
X001260Y028950D01*
X001260Y035950D01*
X021260Y035950D01*
X021260Y028950D01*
X001260Y028950D01*
X021260Y028950D01*
X021260Y021950D01*
X001260Y021950D01*
X021260Y021950D01*
X021260Y014950D01*
X001260Y014950D01*
X021260Y014950D01*
X021260Y007950D01*
X001260Y007950D01*
X021260Y007950D01*
X021260Y000950D01*
X001260Y000950D01*
X019083Y003761D02*
X019085Y003787D01*
X019091Y003813D01*
X019101Y003838D01*
X019114Y003861D01*
X019130Y003881D01*
X019150Y003899D01*
X019172Y003914D01*
X019195Y003926D01*
X019221Y003934D01*
X019247Y003938D01*
X019273Y003938D01*
X019299Y003934D01*
X019325Y003926D01*
X019349Y003914D01*
X019370Y003899D01*
X019390Y003881D01*
X019406Y003861D01*
X019419Y003838D01*
X019429Y003813D01*
X019435Y003787D01*
X019437Y003761D01*
X019435Y003735D01*
X019429Y003709D01*
X019419Y003684D01*
X019406Y003661D01*
X019390Y003641D01*
X019370Y003623D01*
X019348Y003608D01*
X019325Y003596D01*
X019299Y003588D01*
X019273Y003584D01*
X019247Y003584D01*
X019221Y003588D01*
X019195Y003596D01*
X019171Y003608D01*
X019150Y003623D01*
X019130Y003641D01*
X019114Y003661D01*
X019101Y003684D01*
X019091Y003709D01*
X019085Y003735D01*
X019083Y003761D01*
X019083Y005139D02*
X019085Y005165D01*
X019091Y005191D01*
X019101Y005216D01*
X019114Y005239D01*
X019130Y005259D01*
X019150Y005277D01*
X019172Y005292D01*
X019195Y005304D01*
X019221Y005312D01*
X019247Y005316D01*
X019273Y005316D01*
X019299Y005312D01*
X019325Y005304D01*
X019349Y005292D01*
X019370Y005277D01*
X019390Y005259D01*
X019406Y005239D01*
X019419Y005216D01*
X019429Y005191D01*
X019435Y005165D01*
X019437Y005139D01*
X019435Y005113D01*
X019429Y005087D01*
X019419Y005062D01*
X019406Y005039D01*
X019390Y005019D01*
X019370Y005001D01*
X019348Y004986D01*
X019325Y004974D01*
X019299Y004966D01*
X019273Y004962D01*
X019247Y004962D01*
X019221Y004966D01*
X019195Y004974D01*
X019171Y004986D01*
X019150Y005001D01*
X019130Y005019D01*
X019114Y005039D01*
X019101Y005062D01*
X019091Y005087D01*
X019085Y005113D01*
X019083Y005139D01*
X019083Y010761D02*
X019085Y010787D01*
X019091Y010813D01*
X019101Y010838D01*
X019114Y010861D01*
X019130Y010881D01*
X019150Y010899D01*
X019172Y010914D01*
X019195Y010926D01*
X019221Y010934D01*
X019247Y010938D01*
X019273Y010938D01*
X019299Y010934D01*
X019325Y010926D01*
X019349Y010914D01*
X019370Y010899D01*
X019390Y010881D01*
X019406Y010861D01*
X019419Y010838D01*
X019429Y010813D01*
X019435Y010787D01*
X019437Y010761D01*
X019435Y010735D01*
X019429Y010709D01*
X019419Y010684D01*
X019406Y010661D01*
X019390Y010641D01*
X019370Y010623D01*
X019348Y010608D01*
X019325Y010596D01*
X019299Y010588D01*
X019273Y010584D01*
X019247Y010584D01*
X019221Y010588D01*
X019195Y010596D01*
X019171Y010608D01*
X019150Y010623D01*
X019130Y010641D01*
X019114Y010661D01*
X019101Y010684D01*
X019091Y010709D01*
X019085Y010735D01*
X019083Y010761D01*
X019083Y012139D02*
X019085Y012165D01*
X019091Y012191D01*
X019101Y012216D01*
X019114Y012239D01*
X019130Y012259D01*
X019150Y012277D01*
X019172Y012292D01*
X019195Y012304D01*
X019221Y012312D01*
X019247Y012316D01*
X019273Y012316D01*
X019299Y012312D01*
X019325Y012304D01*
X019349Y012292D01*
X019370Y012277D01*
X019390Y012259D01*
X019406Y012239D01*
X019419Y012216D01*
X019429Y012191D01*
X019435Y012165D01*
X019437Y012139D01*
X019435Y012113D01*
X019429Y012087D01*
X019419Y012062D01*
X019406Y012039D01*
X019390Y012019D01*
X019370Y012001D01*
X019348Y011986D01*
X019325Y011974D01*
X019299Y011966D01*
X019273Y011962D01*
X019247Y011962D01*
X019221Y011966D01*
X019195Y011974D01*
X019171Y011986D01*
X019150Y012001D01*
X019130Y012019D01*
X019114Y012039D01*
X019101Y012062D01*
X019091Y012087D01*
X019085Y012113D01*
X019083Y012139D01*
X019083Y017761D02*
X019085Y017787D01*
X019091Y017813D01*
X019101Y017838D01*
X019114Y017861D01*
X019130Y017881D01*
X019150Y017899D01*
X019172Y017914D01*
X019195Y017926D01*
X019221Y017934D01*
X019247Y017938D01*
X019273Y017938D01*
X019299Y017934D01*
X019325Y017926D01*
X019349Y017914D01*
X019370Y017899D01*
X019390Y017881D01*
X019406Y017861D01*
X019419Y017838D01*
X019429Y017813D01*
X019435Y017787D01*
X019437Y017761D01*
X019435Y017735D01*
X019429Y017709D01*
X019419Y017684D01*
X019406Y017661D01*
X019390Y017641D01*
X019370Y017623D01*
X019348Y017608D01*
X019325Y017596D01*
X019299Y017588D01*
X019273Y017584D01*
X019247Y017584D01*
X019221Y017588D01*
X019195Y017596D01*
X019171Y017608D01*
X019150Y017623D01*
X019130Y017641D01*
X019114Y017661D01*
X019101Y017684D01*
X019091Y017709D01*
X019085Y017735D01*
X019083Y017761D01*
X019083Y019139D02*
X019085Y019165D01*
X019091Y019191D01*
X019101Y019216D01*
X019114Y019239D01*
X019130Y019259D01*
X019150Y019277D01*
X019172Y019292D01*
X019195Y019304D01*
X019221Y019312D01*
X019247Y019316D01*
X019273Y019316D01*
X019299Y019312D01*
X019325Y019304D01*
X019349Y019292D01*
X019370Y019277D01*
X019390Y019259D01*
X019406Y019239D01*
X019419Y019216D01*
X019429Y019191D01*
X019435Y019165D01*
X019437Y019139D01*
X019435Y019113D01*
X019429Y019087D01*
X019419Y019062D01*
X019406Y019039D01*
X019390Y019019D01*
X019370Y019001D01*
X019348Y018986D01*
X019325Y018974D01*
X019299Y018966D01*
X019273Y018962D01*
X019247Y018962D01*
X019221Y018966D01*
X019195Y018974D01*
X019171Y018986D01*
X019150Y019001D01*
X019130Y019019D01*
X019114Y019039D01*
X019101Y019062D01*
X019091Y019087D01*
X019085Y019113D01*
X019083Y019139D01*
X019083Y024761D02*
X019085Y024787D01*
X019091Y024813D01*
X019101Y024838D01*
X019114Y024861D01*
X019130Y024881D01*
X019150Y024899D01*
X019172Y024914D01*
X019195Y024926D01*
X019221Y024934D01*
X019247Y024938D01*
X019273Y024938D01*
X019299Y024934D01*
X019325Y024926D01*
X019349Y024914D01*
X019370Y024899D01*
X019390Y024881D01*
X019406Y024861D01*
X019419Y024838D01*
X019429Y024813D01*
X019435Y024787D01*
X019437Y024761D01*
X019435Y024735D01*
X019429Y024709D01*
X019419Y024684D01*
X019406Y024661D01*
X019390Y024641D01*
X019370Y024623D01*
X019348Y024608D01*
X019325Y024596D01*
X019299Y024588D01*
X019273Y024584D01*
X019247Y024584D01*
X019221Y024588D01*
X019195Y024596D01*
X019171Y024608D01*
X019150Y024623D01*
X019130Y024641D01*
X019114Y024661D01*
X019101Y024684D01*
X019091Y024709D01*
X019085Y024735D01*
X019083Y024761D01*
X019083Y026139D02*
X019085Y026165D01*
X019091Y026191D01*
X019101Y026216D01*
X019114Y026239D01*
X019130Y026259D01*
X019150Y026277D01*
X019172Y026292D01*
X019195Y026304D01*
X019221Y026312D01*
X019247Y026316D01*
X019273Y026316D01*
X019299Y026312D01*
X019325Y026304D01*
X019349Y026292D01*
X019370Y026277D01*
X019390Y026259D01*
X019406Y026239D01*
X019419Y026216D01*
X019429Y026191D01*
X019435Y026165D01*
X019437Y026139D01*
X019435Y026113D01*
X019429Y026087D01*
X019419Y026062D01*
X019406Y026039D01*
X019390Y026019D01*
X019370Y026001D01*
X019348Y025986D01*
X019325Y025974D01*
X019299Y025966D01*
X019273Y025962D01*
X019247Y025962D01*
X019221Y025966D01*
X019195Y025974D01*
X019171Y025986D01*
X019150Y026001D01*
X019130Y026019D01*
X019114Y026039D01*
X019101Y026062D01*
X019091Y026087D01*
X019085Y026113D01*
X019083Y026139D01*
X019083Y031761D02*
X019085Y031787D01*
X019091Y031813D01*
X019101Y031838D01*
X019114Y031861D01*
X019130Y031881D01*
X019150Y031899D01*
X019172Y031914D01*
X019195Y031926D01*
X019221Y031934D01*
X019247Y031938D01*
X019273Y031938D01*
X019299Y031934D01*
X019325Y031926D01*
X019349Y031914D01*
X019370Y031899D01*
X019390Y031881D01*
X019406Y031861D01*
X019419Y031838D01*
X019429Y031813D01*
X019435Y031787D01*
X019437Y031761D01*
X019435Y031735D01*
X019429Y031709D01*
X019419Y031684D01*
X019406Y031661D01*
X019390Y031641D01*
X019370Y031623D01*
X019348Y031608D01*
X019325Y031596D01*
X019299Y031588D01*
X019273Y031584D01*
X019247Y031584D01*
X019221Y031588D01*
X019195Y031596D01*
X019171Y031608D01*
X019150Y031623D01*
X019130Y031641D01*
X019114Y031661D01*
X019101Y031684D01*
X019091Y031709D01*
X019085Y031735D01*
X019083Y031761D01*
X019083Y033139D02*
X019085Y033165D01*
X019091Y033191D01*
X019101Y033216D01*
X019114Y033239D01*
X019130Y033259D01*
X019150Y033277D01*
X019172Y033292D01*
X019195Y033304D01*
X019221Y033312D01*
X019247Y033316D01*
X019273Y033316D01*
X019299Y033312D01*
X019325Y033304D01*
X019349Y033292D01*
X019370Y033277D01*
X019390Y033259D01*
X019406Y033239D01*
X019419Y033216D01*
X019429Y033191D01*
X019435Y033165D01*
X019437Y033139D01*
X019435Y033113D01*
X019429Y033087D01*
X019419Y033062D01*
X019406Y033039D01*
X019390Y033019D01*
X019370Y033001D01*
X019348Y032986D01*
X019325Y032974D01*
X019299Y032966D01*
X019273Y032962D01*
X019247Y032962D01*
X019221Y032966D01*
X019195Y032974D01*
X019171Y032986D01*
X019150Y033001D01*
X019130Y033019D01*
X019114Y033039D01*
X019101Y033062D01*
X019091Y033087D01*
X019085Y033113D01*
X019083Y033139D01*
D11*
X020280Y035190D02*
X020280Y035910D01*
X021220Y035910D01*
X021220Y034950D01*
X020680Y034950D01*
X020280Y028910D02*
X021220Y028910D01*
X021220Y027950D01*
X020680Y027950D01*
X020280Y028190D02*
X020280Y028910D01*
X020280Y021910D02*
X021220Y021910D01*
X021220Y020950D01*
X020680Y020950D01*
X020280Y021190D02*
X020280Y021910D01*
X020280Y014910D02*
X021220Y014910D01*
X021220Y013950D01*
X020680Y013950D01*
X020280Y014190D02*
X020280Y014910D01*
X020280Y007910D02*
X021220Y007910D01*
X021220Y006950D01*
X020680Y006950D01*
X020280Y007190D02*
X020280Y007910D01*
X002260Y006950D02*
X002260Y005950D01*
X001260Y005950D01*
X001260Y006950D01*
X002260Y006950D01*
X002260Y005950D02*
X002260Y001950D01*
X001260Y001950D01*
X001260Y005950D01*
X001260Y008950D02*
X001260Y012950D01*
X001260Y013950D01*
X002260Y013950D01*
X002260Y012950D01*
X001260Y012950D01*
X002260Y012950D02*
X002260Y008950D01*
X001260Y008950D01*
X001260Y015950D02*
X001260Y019950D01*
X001260Y020950D01*
X002260Y020950D01*
X002260Y019950D01*
X001260Y019950D01*
X002260Y019950D02*
X002260Y015950D01*
X001260Y015950D01*
X001260Y022950D02*
X001260Y026950D01*
X001260Y027950D01*
X002260Y027950D01*
X002260Y026950D01*
X001260Y026950D01*
X002260Y026950D02*
X002260Y022950D01*
X001260Y022950D01*
X001260Y029950D02*
X001260Y033950D01*
X001260Y034950D01*
X002260Y034950D01*
X002260Y033950D01*
X001260Y033950D01*
X002260Y033950D02*
X002260Y029950D01*
X001260Y029950D01*
D12*
X002515Y030022D02*
X002515Y030132D01*
X002570Y030187D01*
X002625Y030187D01*
X002680Y030132D01*
X002680Y030022D01*
X002625Y029966D01*
X002570Y029966D01*
X002515Y030022D01*
X002680Y030022D02*
X002735Y029966D01*
X002790Y029966D01*
X002845Y030022D01*
X002845Y030132D01*
X002790Y030187D01*
X002735Y030187D01*
X002680Y030132D01*
X002515Y030335D02*
X002515Y030555D01*
X002515Y030445D02*
X002845Y030445D01*
X002735Y030555D01*
X003155Y030555D02*
X003155Y030335D01*
X003155Y030445D02*
X003485Y030445D01*
X003375Y030555D01*
X003375Y030187D02*
X003320Y030132D01*
X003320Y029966D01*
X003210Y029966D02*
X003430Y029966D01*
X003485Y030022D01*
X003485Y030132D01*
X003430Y030187D01*
X003375Y030187D01*
X003210Y030187D02*
X003155Y030132D01*
X003155Y030022D01*
X003210Y029966D01*
X004356Y029911D02*
X004356Y029755D01*
X004356Y029911D02*
X004512Y029911D01*
X004319Y028182D02*
X004319Y028026D01*
X004475Y028026D01*
X004895Y027415D02*
X004895Y027085D01*
X004895Y027195D02*
X005060Y027195D01*
X005115Y027250D01*
X005115Y027360D01*
X005060Y027415D01*
X004895Y027415D01*
X005005Y027195D02*
X005115Y027085D01*
X005263Y027085D02*
X005263Y027415D01*
X005484Y027415D01*
X005632Y027360D02*
X005632Y027305D01*
X005687Y027250D01*
X005797Y027250D01*
X005852Y027195D01*
X005852Y027140D01*
X005797Y027085D01*
X005687Y027085D01*
X005632Y027140D01*
X005484Y027085D02*
X005263Y027085D01*
X005263Y027250D02*
X005373Y027250D01*
X005475Y027585D02*
X005695Y027585D01*
X005585Y027585D02*
X005585Y027915D01*
X005475Y027805D01*
X005495Y027986D02*
X005339Y027986D01*
X005339Y028142D01*
X005687Y027415D02*
X005632Y027360D01*
X005687Y027415D02*
X005797Y027415D01*
X005852Y027360D01*
X006000Y027415D02*
X006000Y027085D01*
X006220Y027085D01*
X006110Y027250D02*
X006000Y027250D01*
X006000Y027415D02*
X006220Y027415D01*
X006368Y027415D02*
X006588Y027415D01*
X006478Y027415D02*
X006478Y027085D01*
X006475Y027585D02*
X006695Y027585D01*
X006585Y027585D02*
X006585Y027915D01*
X006475Y027805D01*
X006495Y027986D02*
X006339Y027986D01*
X006339Y028142D01*
X006064Y027860D02*
X006008Y027915D01*
X005898Y027915D01*
X005843Y027860D01*
X006064Y027860D02*
X006064Y027805D01*
X005843Y027585D01*
X006064Y027585D01*
X006843Y027585D02*
X007064Y027585D01*
X006953Y027585D02*
X006953Y027915D01*
X006843Y027805D01*
X007359Y027986D02*
X007359Y028142D01*
X007359Y027986D02*
X007515Y027986D01*
X007585Y027915D02*
X007475Y027805D01*
X007585Y027915D02*
X007585Y027585D01*
X007475Y027585D02*
X007695Y027585D01*
X007843Y027640D02*
X007843Y027860D01*
X007898Y027915D01*
X008008Y027915D01*
X008064Y027860D01*
X007843Y027640D01*
X007898Y027585D01*
X008008Y027585D01*
X008064Y027640D01*
X008064Y027860D01*
X008339Y027986D02*
X008339Y028142D01*
X008339Y027986D02*
X008495Y027986D01*
X008635Y027860D02*
X008635Y027805D01*
X008690Y027750D01*
X008855Y027750D01*
X008855Y027640D02*
X008855Y027860D01*
X008800Y027915D01*
X008690Y027915D01*
X008635Y027860D01*
X008635Y027640D02*
X008690Y027585D01*
X008800Y027585D01*
X008855Y027640D01*
X009359Y027986D02*
X009359Y028142D01*
X009359Y027986D02*
X009515Y027986D01*
X009550Y027895D02*
X009660Y027895D01*
X009715Y027840D01*
X009715Y027785D01*
X009660Y027730D01*
X009550Y027730D01*
X009495Y027785D01*
X009495Y027840D01*
X009550Y027895D01*
X009550Y027730D02*
X009495Y027675D01*
X009495Y027620D01*
X009550Y027565D01*
X009660Y027565D01*
X009715Y027620D01*
X009715Y027675D01*
X009660Y027730D01*
X009825Y027493D02*
X009825Y027415D01*
X009903Y027337D01*
X009981Y027337D01*
X010059Y027415D01*
X010059Y027493D01*
X009981Y027571D01*
X009903Y027571D01*
X009825Y027493D01*
X009721Y027310D02*
X009643Y027310D01*
X009526Y027193D01*
X009682Y027038D01*
X009586Y026942D02*
X009508Y026864D01*
X009547Y026903D02*
X009391Y027059D01*
X009352Y027020D01*
X009313Y027137D02*
X009275Y027176D01*
X009252Y026920D02*
X009213Y026881D01*
X009213Y026725D01*
X009291Y026647D02*
X009135Y026803D01*
X009070Y026659D02*
X009186Y026542D01*
X009070Y026426D01*
X008992Y026426D01*
X008992Y026503D01*
X009108Y026620D01*
X009070Y026659D02*
X008992Y026659D01*
X008914Y026581D01*
X008809Y026399D02*
X008887Y026321D01*
X008887Y026243D01*
X008770Y026126D01*
X008537Y026360D01*
X008614Y026282D02*
X008731Y026399D01*
X008809Y026399D01*
X008510Y026177D02*
X008665Y026021D01*
X008549Y025905D01*
X008471Y025905D01*
X008354Y026021D01*
X008171Y025995D02*
X008016Y025839D01*
X008249Y025605D01*
X008133Y025722D02*
X008210Y025800D01*
X008230Y024422D02*
X008175Y024367D01*
X008175Y024257D01*
X008230Y024202D01*
X008450Y024202D01*
X008505Y024257D01*
X008505Y024367D01*
X008450Y024422D01*
X008340Y024422D01*
X008340Y024312D01*
X008340Y024054D02*
X008395Y023998D01*
X008395Y023833D01*
X008505Y023833D02*
X008175Y023833D01*
X008175Y023998D01*
X008230Y024054D01*
X008340Y024054D01*
X008395Y023943D02*
X008505Y024054D01*
X008340Y023685D02*
X008395Y023630D01*
X008395Y023465D01*
X008505Y023465D02*
X008175Y023465D01*
X008175Y023630D01*
X008230Y023685D01*
X008340Y023685D01*
X008530Y023275D02*
X008475Y023220D01*
X008530Y023275D02*
X008640Y023275D01*
X008695Y023220D01*
X008695Y023165D01*
X008475Y022945D01*
X008695Y022945D01*
X008843Y023110D02*
X009064Y023110D01*
X009008Y022945D02*
X009008Y023275D01*
X008843Y023110D01*
X009475Y023220D02*
X009530Y023275D01*
X009640Y023275D01*
X009695Y023220D01*
X009695Y023165D01*
X009475Y022945D01*
X009695Y022945D01*
X009843Y023000D02*
X009898Y022945D01*
X010008Y022945D01*
X010064Y023000D01*
X010064Y023110D01*
X010008Y023165D01*
X009953Y023165D01*
X009843Y023110D01*
X009843Y023275D01*
X010064Y023275D01*
X010295Y023180D02*
X010350Y023235D01*
X010460Y023235D01*
X010515Y023180D01*
X010515Y023125D01*
X010295Y022905D01*
X010515Y022905D01*
X010663Y022960D02*
X010718Y022905D01*
X010828Y022905D01*
X010884Y022960D01*
X010884Y023015D01*
X010828Y023070D01*
X010663Y023070D01*
X010663Y022960D01*
X010663Y023070D02*
X010773Y023180D01*
X010884Y023235D01*
X011475Y023260D02*
X011530Y023315D01*
X011640Y023315D01*
X011695Y023260D01*
X011695Y023205D01*
X011475Y022985D01*
X011695Y022985D01*
X011843Y022985D02*
X011843Y023040D01*
X012064Y023260D01*
X012064Y023315D01*
X011843Y023315D01*
X012046Y023697D02*
X011813Y023775D01*
X011968Y023931D02*
X012046Y023697D01*
X012229Y023880D02*
X012384Y024036D01*
X012307Y023958D02*
X012073Y024191D01*
X012073Y024036D01*
X012450Y024179D02*
X012489Y024218D01*
X012528Y024179D01*
X012489Y024140D01*
X012450Y024179D01*
X012580Y024310D02*
X012503Y024387D01*
X012619Y024504D01*
X012697Y024504D01*
X012736Y024465D01*
X012736Y024387D01*
X012658Y024310D01*
X012580Y024310D01*
X012503Y024387D02*
X012503Y024543D01*
X012542Y024660D01*
X012510Y023315D02*
X012455Y023260D01*
X012510Y023315D02*
X012620Y023315D01*
X012675Y023260D01*
X012675Y023205D01*
X012455Y022985D01*
X012675Y022985D01*
X012823Y023040D02*
X012823Y023095D01*
X012878Y023150D01*
X012988Y023150D01*
X013044Y023095D01*
X013044Y023040D01*
X012988Y022985D01*
X012878Y022985D01*
X012823Y023040D01*
X012878Y023150D02*
X012823Y023205D01*
X012823Y023260D01*
X012878Y023315D01*
X012988Y023315D01*
X013044Y023260D01*
X013044Y023205D01*
X012988Y023150D01*
X013455Y023260D02*
X013510Y023315D01*
X013620Y023315D01*
X013675Y023260D01*
X013675Y023205D01*
X013455Y022985D01*
X013675Y022985D01*
X013823Y023040D02*
X013878Y022985D01*
X013988Y022985D01*
X014044Y023040D01*
X014044Y023260D01*
X013988Y023315D01*
X013878Y023315D01*
X013823Y023260D01*
X013823Y023205D01*
X013878Y023150D01*
X014044Y023150D01*
X014575Y023040D02*
X014630Y022985D01*
X014740Y022985D01*
X014795Y023040D01*
X014795Y023095D01*
X014740Y023150D01*
X014685Y023150D01*
X014740Y023150D02*
X014795Y023205D01*
X014795Y023260D01*
X014740Y023315D01*
X014630Y023315D01*
X014575Y023260D01*
X014635Y023465D02*
X014635Y023795D01*
X014800Y023795D01*
X014855Y023740D01*
X014855Y023630D01*
X014800Y023575D01*
X014635Y023575D01*
X015003Y023465D02*
X015113Y023575D01*
X015224Y023465D01*
X015224Y023795D01*
X015372Y023795D02*
X015372Y023465D01*
X015372Y023575D02*
X015537Y023575D01*
X015592Y023630D01*
X015592Y023740D01*
X015537Y023795D01*
X015372Y023795D01*
X015482Y023575D02*
X015592Y023465D01*
X015620Y023315D02*
X015510Y023315D01*
X015455Y023260D01*
X015565Y023150D02*
X015620Y023150D01*
X015675Y023095D01*
X015675Y023040D01*
X015620Y022985D01*
X015510Y022985D01*
X015455Y023040D01*
X015620Y023150D02*
X015675Y023205D01*
X015675Y023260D01*
X015620Y023315D01*
X015823Y023205D02*
X015933Y023315D01*
X015933Y022985D01*
X015823Y022985D02*
X016044Y022985D01*
X016455Y023040D02*
X016510Y022985D01*
X016620Y022985D01*
X016675Y023040D01*
X016675Y023095D01*
X016620Y023150D01*
X016565Y023150D01*
X016620Y023150D02*
X016675Y023205D01*
X016675Y023260D01*
X016620Y023315D01*
X016510Y023315D01*
X016455Y023260D01*
X016823Y023260D02*
X016878Y023315D01*
X016988Y023315D01*
X017044Y023260D01*
X017044Y023205D01*
X016823Y022985D01*
X017044Y022985D01*
X017415Y022945D02*
X017415Y023275D01*
X017580Y023275D01*
X017635Y023220D01*
X017635Y023110D01*
X017580Y023055D01*
X017415Y023055D01*
X017525Y023055D02*
X017635Y022945D01*
X017783Y023000D02*
X017838Y022945D01*
X017948Y022945D01*
X018004Y023000D01*
X018004Y023055D01*
X017948Y023110D01*
X017838Y023110D01*
X017783Y023165D01*
X017783Y023220D01*
X017838Y023275D01*
X017948Y023275D01*
X018004Y023220D01*
X018375Y023160D02*
X018430Y023215D01*
X018540Y023215D01*
X018595Y023160D01*
X018595Y023105D01*
X018540Y023050D01*
X018595Y022995D01*
X018595Y022940D01*
X018540Y022885D01*
X018430Y022885D01*
X018375Y022940D01*
X018485Y023050D02*
X018540Y023050D01*
X018743Y022995D02*
X018853Y022885D01*
X018964Y022995D01*
X018964Y023215D01*
X018743Y023215D02*
X018743Y022995D01*
X019225Y023385D02*
X019115Y023495D01*
X019115Y023715D01*
X019335Y023715D02*
X019335Y023495D01*
X019225Y023385D01*
X019395Y023200D02*
X019395Y022980D01*
X019450Y022925D01*
X019560Y022925D01*
X019615Y022980D01*
X019615Y023090D01*
X019505Y023090D01*
X019395Y023200D02*
X019450Y023255D01*
X019560Y023255D01*
X019615Y023200D01*
X019593Y023385D02*
X019483Y023385D01*
X019538Y023385D02*
X019538Y023605D01*
X019483Y023605D01*
X019538Y023715D02*
X019538Y023770D01*
X019729Y023605D02*
X019894Y023605D01*
X019949Y023550D01*
X019949Y023385D01*
X019729Y023385D02*
X019729Y023605D01*
X019780Y020955D02*
X019670Y020955D01*
X019615Y020900D01*
X019615Y020680D01*
X019670Y020625D01*
X019780Y020625D01*
X019835Y020680D01*
X019835Y020790D01*
X019725Y020790D01*
X019835Y020900D02*
X019780Y020955D01*
X018944Y020995D02*
X018944Y020775D01*
X018833Y020665D01*
X018723Y020775D01*
X018723Y020995D01*
X018575Y020940D02*
X018575Y020885D01*
X018520Y020830D01*
X018575Y020775D01*
X018575Y020720D01*
X018520Y020665D01*
X018410Y020665D01*
X018355Y020720D01*
X018465Y020830D02*
X018520Y020830D01*
X018575Y020940D02*
X018520Y020995D01*
X018410Y020995D01*
X018355Y020940D01*
X017875Y020860D02*
X017875Y020640D01*
X017820Y020585D01*
X017710Y020585D01*
X017655Y020640D01*
X017875Y020860D01*
X017820Y020915D01*
X017710Y020915D01*
X017655Y020860D01*
X017655Y020640D01*
X017495Y020986D02*
X017339Y020986D01*
X017339Y021142D01*
X016875Y020585D02*
X016655Y020585D01*
X016765Y020585D02*
X016765Y020915D01*
X016655Y020805D01*
X015875Y020805D02*
X015875Y020860D01*
X015820Y020915D01*
X015710Y020915D01*
X015655Y020860D01*
X015875Y020805D02*
X015655Y020585D01*
X015875Y020585D01*
X014875Y020640D02*
X014820Y020585D01*
X014710Y020585D01*
X014655Y020640D01*
X014765Y020750D02*
X014820Y020750D01*
X014875Y020695D01*
X014875Y020640D01*
X014820Y020750D02*
X014875Y020805D01*
X014875Y020860D01*
X014820Y020915D01*
X014710Y020915D01*
X014655Y020860D01*
X014515Y020986D02*
X014359Y020986D01*
X014359Y021142D01*
X013855Y020750D02*
X013635Y020750D01*
X013800Y020915D01*
X013800Y020585D01*
X013515Y020986D02*
X013359Y020986D01*
X013359Y021142D01*
X012855Y020915D02*
X012635Y020915D01*
X012635Y020750D01*
X012745Y020805D01*
X012800Y020805D01*
X012855Y020750D01*
X012855Y020640D01*
X012800Y020585D01*
X012690Y020585D01*
X012635Y020640D01*
X012495Y020986D02*
X012339Y020986D01*
X012339Y021142D01*
X011875Y020915D02*
X011765Y020860D01*
X011655Y020750D01*
X011820Y020750D01*
X011875Y020695D01*
X011875Y020640D01*
X011820Y020585D01*
X011710Y020585D01*
X011655Y020640D01*
X011655Y020750D01*
X011515Y020986D02*
X011359Y020986D01*
X011359Y021142D01*
X011055Y020955D02*
X011055Y020900D01*
X010835Y020680D01*
X010835Y020625D01*
X010835Y020955D02*
X011055Y020955D01*
X010495Y020986D02*
X010339Y020986D01*
X010339Y021142D01*
X009981Y020571D02*
X009903Y020571D01*
X009825Y020493D01*
X009825Y020415D01*
X009903Y020337D01*
X009981Y020337D01*
X010059Y020415D01*
X010059Y020493D01*
X009981Y020571D01*
X009715Y020620D02*
X009660Y020565D01*
X009550Y020565D01*
X009495Y020620D01*
X009495Y020675D01*
X009550Y020730D01*
X009660Y020730D01*
X009715Y020675D01*
X009715Y020620D01*
X009660Y020730D02*
X009715Y020785D01*
X009715Y020840D01*
X009660Y020895D01*
X009550Y020895D01*
X009495Y020840D01*
X009495Y020785D01*
X009550Y020730D01*
X009515Y020986D02*
X009359Y020986D01*
X009359Y021142D01*
X008855Y020860D02*
X008855Y020640D01*
X008800Y020585D01*
X008690Y020585D01*
X008635Y020640D01*
X008690Y020750D02*
X008855Y020750D01*
X008855Y020860D02*
X008800Y020915D01*
X008690Y020915D01*
X008635Y020860D01*
X008635Y020805D01*
X008690Y020750D01*
X008495Y020986D02*
X008339Y020986D01*
X008339Y021142D01*
X008064Y020860D02*
X007843Y020640D01*
X007898Y020585D01*
X008008Y020585D01*
X008064Y020640D01*
X008064Y020860D01*
X008008Y020915D01*
X007898Y020915D01*
X007843Y020860D01*
X007843Y020640D01*
X007695Y020585D02*
X007475Y020585D01*
X007585Y020585D02*
X007585Y020915D01*
X007475Y020805D01*
X007515Y020986D02*
X007359Y020986D01*
X007359Y021142D01*
X006953Y020915D02*
X006953Y020585D01*
X006843Y020585D02*
X007064Y020585D01*
X006843Y020805D02*
X006953Y020915D01*
X006695Y020585D02*
X006475Y020585D01*
X006585Y020585D02*
X006585Y020915D01*
X006475Y020805D01*
X006495Y020986D02*
X006339Y020986D01*
X006339Y021142D01*
X006064Y020860D02*
X006008Y020915D01*
X005898Y020915D01*
X005843Y020860D01*
X006064Y020860D02*
X006064Y020805D01*
X005843Y020585D01*
X006064Y020585D01*
X006000Y020415D02*
X006220Y020415D01*
X006368Y020415D02*
X006588Y020415D01*
X006478Y020415D02*
X006478Y020085D01*
X006220Y020085D02*
X006000Y020085D01*
X006000Y020415D01*
X005852Y020360D02*
X005797Y020415D01*
X005687Y020415D01*
X005632Y020360D01*
X005632Y020305D01*
X005687Y020250D01*
X005797Y020250D01*
X005852Y020195D01*
X005852Y020140D01*
X005797Y020085D01*
X005687Y020085D01*
X005632Y020140D01*
X005484Y020085D02*
X005263Y020085D01*
X005263Y020415D01*
X005484Y020415D01*
X005475Y020585D02*
X005695Y020585D01*
X005585Y020585D02*
X005585Y020915D01*
X005475Y020805D01*
X005495Y020986D02*
X005339Y020986D01*
X005339Y021142D01*
X005060Y020415D02*
X004895Y020415D01*
X004895Y020085D01*
X004895Y020195D02*
X005060Y020195D01*
X005115Y020250D01*
X005115Y020360D01*
X005060Y020415D01*
X005005Y020195D02*
X005115Y020085D01*
X005263Y020250D02*
X005373Y020250D01*
X006000Y020250D02*
X006110Y020250D01*
X004475Y021026D02*
X004319Y021026D01*
X004319Y021182D01*
X004356Y022755D02*
X004356Y022911D01*
X004512Y022911D01*
X003485Y023022D02*
X003485Y023132D01*
X003430Y023187D01*
X003375Y023187D01*
X003320Y023132D01*
X003320Y022966D01*
X003210Y022966D02*
X003430Y022966D01*
X003485Y023022D01*
X003485Y023445D02*
X003375Y023555D01*
X003485Y023445D02*
X003155Y023445D01*
X003155Y023555D02*
X003155Y023335D01*
X003210Y023187D02*
X003155Y023132D01*
X003155Y023022D01*
X003210Y022966D01*
X002845Y023022D02*
X002790Y022966D01*
X002735Y022966D01*
X002680Y023022D01*
X002680Y023132D01*
X002735Y023187D01*
X002790Y023187D01*
X002845Y023132D01*
X002845Y023022D01*
X002680Y023022D02*
X002625Y022966D01*
X002570Y022966D01*
X002515Y023022D01*
X002515Y023132D01*
X002570Y023187D01*
X002625Y023187D01*
X002680Y023132D01*
X002515Y023335D02*
X002515Y023555D01*
X002515Y023445D02*
X002845Y023445D01*
X002735Y023555D01*
X002735Y016555D02*
X002845Y016445D01*
X002515Y016445D01*
X002515Y016555D02*
X002515Y016335D01*
X002570Y016187D02*
X002625Y016187D01*
X002680Y016132D01*
X002680Y016022D01*
X002625Y015966D01*
X002570Y015966D01*
X002515Y016022D01*
X002515Y016132D01*
X002570Y016187D01*
X002680Y016132D02*
X002735Y016187D01*
X002790Y016187D01*
X002845Y016132D01*
X002845Y016022D01*
X002790Y015966D01*
X002735Y015966D01*
X002680Y016022D01*
X003155Y016022D02*
X003210Y015966D01*
X003430Y015966D01*
X003485Y016022D01*
X003485Y016132D01*
X003430Y016187D01*
X003375Y016187D01*
X003320Y016132D01*
X003320Y015966D01*
X003155Y016022D02*
X003155Y016132D01*
X003210Y016187D01*
X003155Y016335D02*
X003155Y016555D01*
X003155Y016445D02*
X003485Y016445D01*
X003375Y016555D01*
X004356Y015911D02*
X004512Y015911D01*
X004356Y015911D02*
X004356Y015755D01*
X004319Y014182D02*
X004319Y014026D01*
X004475Y014026D01*
X004895Y013415D02*
X005060Y013415D01*
X005115Y013360D01*
X005115Y013250D01*
X005060Y013195D01*
X004895Y013195D01*
X004895Y013085D02*
X004895Y013415D01*
X005005Y013195D02*
X005115Y013085D01*
X005263Y013085D02*
X005263Y013415D01*
X005484Y013415D01*
X005632Y013360D02*
X005632Y013305D01*
X005687Y013250D01*
X005797Y013250D01*
X005852Y013195D01*
X005852Y013140D01*
X005797Y013085D01*
X005687Y013085D01*
X005632Y013140D01*
X005484Y013085D02*
X005263Y013085D01*
X005263Y013250D02*
X005373Y013250D01*
X005475Y013585D02*
X005695Y013585D01*
X005585Y013585D02*
X005585Y013915D01*
X005475Y013805D01*
X005495Y013986D02*
X005339Y013986D01*
X005339Y014142D01*
X005687Y013415D02*
X005632Y013360D01*
X005687Y013415D02*
X005797Y013415D01*
X005852Y013360D01*
X006000Y013415D02*
X006000Y013085D01*
X006220Y013085D01*
X006110Y013250D02*
X006000Y013250D01*
X006000Y013415D02*
X006220Y013415D01*
X006368Y013415D02*
X006588Y013415D01*
X006478Y013415D02*
X006478Y013085D01*
X006475Y013585D02*
X006695Y013585D01*
X006585Y013585D02*
X006585Y013915D01*
X006475Y013805D01*
X006495Y013986D02*
X006339Y013986D01*
X006339Y014142D01*
X006064Y013860D02*
X006064Y013805D01*
X005843Y013585D01*
X006064Y013585D01*
X006064Y013860D02*
X006008Y013915D01*
X005898Y013915D01*
X005843Y013860D01*
X006843Y013805D02*
X006953Y013915D01*
X006953Y013585D01*
X006843Y013585D02*
X007064Y013585D01*
X007475Y013585D02*
X007695Y013585D01*
X007585Y013585D02*
X007585Y013915D01*
X007475Y013805D01*
X007515Y013986D02*
X007359Y013986D01*
X007359Y014142D01*
X007843Y013860D02*
X007843Y013640D01*
X008064Y013860D01*
X008064Y013640D01*
X008008Y013585D01*
X007898Y013585D01*
X007843Y013640D01*
X007843Y013860D02*
X007898Y013915D01*
X008008Y013915D01*
X008064Y013860D01*
X008339Y013986D02*
X008339Y014142D01*
X008339Y013986D02*
X008495Y013986D01*
X008635Y013860D02*
X008635Y013805D01*
X008690Y013750D01*
X008855Y013750D01*
X008855Y013640D02*
X008855Y013860D01*
X008800Y013915D01*
X008690Y013915D01*
X008635Y013860D01*
X008635Y013640D02*
X008690Y013585D01*
X008800Y013585D01*
X008855Y013640D01*
X009359Y013986D02*
X009359Y014142D01*
X009359Y013986D02*
X009515Y013986D01*
X009550Y013895D02*
X009660Y013895D01*
X009715Y013840D01*
X009715Y013785D01*
X009660Y013730D01*
X009550Y013730D01*
X009495Y013785D01*
X009495Y013840D01*
X009550Y013895D01*
X009550Y013730D02*
X009495Y013675D01*
X009495Y013620D01*
X009550Y013565D01*
X009660Y013565D01*
X009715Y013620D01*
X009715Y013675D01*
X009660Y013730D01*
X009825Y013493D02*
X009825Y013415D01*
X009903Y013337D01*
X009981Y013337D01*
X010059Y013415D01*
X010059Y013493D01*
X009981Y013571D01*
X009903Y013571D01*
X009825Y013493D01*
X009721Y013310D02*
X009643Y013310D01*
X009526Y013193D01*
X009682Y013038D01*
X009586Y012942D02*
X009508Y012864D01*
X009547Y012903D02*
X009391Y013059D01*
X009352Y013020D01*
X009313Y013137D02*
X009275Y013176D01*
X009252Y012920D02*
X009213Y012881D01*
X009213Y012725D01*
X009291Y012647D02*
X009135Y012803D01*
X009070Y012659D02*
X008992Y012659D01*
X008914Y012581D01*
X008992Y012503D02*
X009108Y012620D01*
X009070Y012659D02*
X009186Y012542D01*
X009070Y012426D01*
X008992Y012426D01*
X008992Y012503D01*
X008887Y012321D02*
X008809Y012399D01*
X008731Y012399D01*
X008614Y012282D01*
X008537Y012360D02*
X008770Y012126D01*
X008887Y012243D01*
X008887Y012321D01*
X008665Y012021D02*
X008510Y012177D01*
X008665Y012021D02*
X008549Y011905D01*
X008471Y011905D01*
X008354Y012021D01*
X008171Y011995D02*
X008016Y011839D01*
X008249Y011605D01*
X008133Y011722D02*
X008210Y011800D01*
X008230Y010422D02*
X008175Y010367D01*
X008175Y010257D01*
X008230Y010202D01*
X008450Y010202D01*
X008505Y010257D01*
X008505Y010367D01*
X008450Y010422D01*
X008340Y010422D01*
X008340Y010312D01*
X008340Y010054D02*
X008395Y009998D01*
X008395Y009833D01*
X008505Y009833D02*
X008175Y009833D01*
X008175Y009998D01*
X008230Y010054D01*
X008340Y010054D01*
X008395Y009943D02*
X008505Y010054D01*
X008340Y009685D02*
X008395Y009630D01*
X008395Y009465D01*
X008505Y009465D02*
X008175Y009465D01*
X008175Y009630D01*
X008230Y009685D01*
X008340Y009685D01*
X008530Y009275D02*
X008475Y009220D01*
X008530Y009275D02*
X008640Y009275D01*
X008695Y009220D01*
X008695Y009165D01*
X008475Y008945D01*
X008695Y008945D01*
X008843Y009110D02*
X009064Y009110D01*
X009008Y008945D02*
X009008Y009275D01*
X008843Y009110D01*
X009475Y009220D02*
X009530Y009275D01*
X009640Y009275D01*
X009695Y009220D01*
X009695Y009165D01*
X009475Y008945D01*
X009695Y008945D01*
X009843Y009000D02*
X009898Y008945D01*
X010008Y008945D01*
X010064Y009000D01*
X010064Y009110D01*
X010008Y009165D01*
X009953Y009165D01*
X009843Y009110D01*
X009843Y009275D01*
X010064Y009275D01*
X010295Y009180D02*
X010350Y009235D01*
X010460Y009235D01*
X010515Y009180D01*
X010515Y009125D01*
X010295Y008905D01*
X010515Y008905D01*
X010663Y008960D02*
X010718Y008905D01*
X010828Y008905D01*
X010884Y008960D01*
X010884Y009015D01*
X010828Y009070D01*
X010663Y009070D01*
X010663Y008960D01*
X010663Y009070D02*
X010773Y009180D01*
X010884Y009235D01*
X011475Y009260D02*
X011530Y009315D01*
X011640Y009315D01*
X011695Y009260D01*
X011695Y009205D01*
X011475Y008985D01*
X011695Y008985D01*
X011843Y008985D02*
X011843Y009040D01*
X012064Y009260D01*
X012064Y009315D01*
X011843Y009315D01*
X012046Y009697D02*
X011813Y009775D01*
X011968Y009931D02*
X012046Y009697D01*
X012229Y009880D02*
X012384Y010036D01*
X012307Y009958D02*
X012073Y010191D01*
X012073Y010036D01*
X012450Y010179D02*
X012489Y010218D01*
X012528Y010179D01*
X012489Y010140D01*
X012450Y010179D01*
X012580Y010310D02*
X012503Y010387D01*
X012619Y010504D01*
X012697Y010504D01*
X012736Y010465D01*
X012736Y010387D01*
X012658Y010310D01*
X012580Y010310D01*
X012503Y010387D02*
X012503Y010543D01*
X012542Y010660D01*
X012510Y009315D02*
X012455Y009260D01*
X012510Y009315D02*
X012620Y009315D01*
X012675Y009260D01*
X012675Y009205D01*
X012455Y008985D01*
X012675Y008985D01*
X012823Y009040D02*
X012823Y009095D01*
X012878Y009150D01*
X012988Y009150D01*
X013044Y009095D01*
X013044Y009040D01*
X012988Y008985D01*
X012878Y008985D01*
X012823Y009040D01*
X012878Y009150D02*
X012823Y009205D01*
X012823Y009260D01*
X012878Y009315D01*
X012988Y009315D01*
X013044Y009260D01*
X013044Y009205D01*
X012988Y009150D01*
X013455Y009260D02*
X013510Y009315D01*
X013620Y009315D01*
X013675Y009260D01*
X013675Y009205D01*
X013455Y008985D01*
X013675Y008985D01*
X013823Y009040D02*
X013878Y008985D01*
X013988Y008985D01*
X014044Y009040D01*
X014044Y009260D01*
X013988Y009315D01*
X013878Y009315D01*
X013823Y009260D01*
X013823Y009205D01*
X013878Y009150D01*
X014044Y009150D01*
X014575Y009040D02*
X014630Y008985D01*
X014740Y008985D01*
X014795Y009040D01*
X014795Y009095D01*
X014740Y009150D01*
X014685Y009150D01*
X014740Y009150D02*
X014795Y009205D01*
X014795Y009260D01*
X014740Y009315D01*
X014630Y009315D01*
X014575Y009260D01*
X014635Y009465D02*
X014635Y009795D01*
X014800Y009795D01*
X014855Y009740D01*
X014855Y009630D01*
X014800Y009575D01*
X014635Y009575D01*
X015003Y009465D02*
X015113Y009575D01*
X015224Y009465D01*
X015224Y009795D01*
X015372Y009795D02*
X015372Y009465D01*
X015372Y009575D02*
X015537Y009575D01*
X015592Y009630D01*
X015592Y009740D01*
X015537Y009795D01*
X015372Y009795D01*
X015482Y009575D02*
X015592Y009465D01*
X015620Y009315D02*
X015675Y009260D01*
X015675Y009205D01*
X015620Y009150D01*
X015675Y009095D01*
X015675Y009040D01*
X015620Y008985D01*
X015510Y008985D01*
X015455Y009040D01*
X015565Y009150D02*
X015620Y009150D01*
X015620Y009315D02*
X015510Y009315D01*
X015455Y009260D01*
X015164Y009260D02*
X015164Y009040D01*
X015108Y008985D01*
X014998Y008985D01*
X014943Y009040D01*
X015164Y009260D01*
X015108Y009315D01*
X014998Y009315D01*
X014943Y009260D01*
X014943Y009040D01*
X015003Y009465D02*
X015003Y009795D01*
X015823Y009205D02*
X015933Y009315D01*
X015933Y008985D01*
X015823Y008985D02*
X016044Y008985D01*
X016455Y009040D02*
X016510Y008985D01*
X016620Y008985D01*
X016675Y009040D01*
X016675Y009095D01*
X016620Y009150D01*
X016565Y009150D01*
X016620Y009150D02*
X016675Y009205D01*
X016675Y009260D01*
X016620Y009315D01*
X016510Y009315D01*
X016455Y009260D01*
X016823Y009260D02*
X016878Y009315D01*
X016988Y009315D01*
X017044Y009260D01*
X017044Y009205D01*
X016823Y008985D01*
X017044Y008985D01*
X017415Y008945D02*
X017415Y009275D01*
X017580Y009275D01*
X017635Y009220D01*
X017635Y009110D01*
X017580Y009055D01*
X017415Y009055D01*
X017525Y009055D02*
X017635Y008945D01*
X017783Y009000D02*
X017838Y008945D01*
X017948Y008945D01*
X018004Y009000D01*
X018004Y009055D01*
X017948Y009110D01*
X017838Y009110D01*
X017783Y009165D01*
X017783Y009220D01*
X017838Y009275D01*
X017948Y009275D01*
X018004Y009220D01*
X018375Y009160D02*
X018430Y009215D01*
X018540Y009215D01*
X018595Y009160D01*
X018595Y009105D01*
X018540Y009050D01*
X018595Y008995D01*
X018595Y008940D01*
X018540Y008885D01*
X018430Y008885D01*
X018375Y008940D01*
X018485Y009050D02*
X018540Y009050D01*
X018743Y008995D02*
X018743Y009215D01*
X018743Y008995D02*
X018853Y008885D01*
X018964Y008995D01*
X018964Y009215D01*
X019225Y009385D02*
X019115Y009495D01*
X019115Y009715D01*
X019335Y009715D02*
X019335Y009495D01*
X019225Y009385D01*
X019395Y009200D02*
X019395Y008980D01*
X019450Y008925D01*
X019560Y008925D01*
X019615Y008980D01*
X019615Y009090D01*
X019505Y009090D01*
X019395Y009200D02*
X019450Y009255D01*
X019560Y009255D01*
X019615Y009200D01*
X019593Y009385D02*
X019483Y009385D01*
X019538Y009385D02*
X019538Y009605D01*
X019483Y009605D01*
X019538Y009715D02*
X019538Y009770D01*
X019729Y009605D02*
X019729Y009385D01*
X019949Y009385D02*
X019949Y009550D01*
X019894Y009605D01*
X019729Y009605D01*
X019780Y006955D02*
X019670Y006955D01*
X019615Y006900D01*
X019615Y006680D01*
X019670Y006625D01*
X019780Y006625D01*
X019835Y006680D01*
X019835Y006790D01*
X019725Y006790D01*
X019835Y006900D02*
X019780Y006955D01*
X018944Y006995D02*
X018944Y006775D01*
X018833Y006665D01*
X018723Y006775D01*
X018723Y006995D01*
X018575Y006940D02*
X018575Y006885D01*
X018520Y006830D01*
X018575Y006775D01*
X018575Y006720D01*
X018520Y006665D01*
X018410Y006665D01*
X018355Y006720D01*
X018465Y006830D02*
X018520Y006830D01*
X018575Y006940D02*
X018520Y006995D01*
X018410Y006995D01*
X018355Y006940D01*
X017875Y006860D02*
X017655Y006640D01*
X017710Y006585D01*
X017820Y006585D01*
X017875Y006640D01*
X017875Y006860D01*
X017820Y006915D01*
X017710Y006915D01*
X017655Y006860D01*
X017655Y006640D01*
X017495Y006986D02*
X017339Y006986D01*
X017339Y007142D01*
X016875Y006585D02*
X016655Y006585D01*
X016765Y006585D02*
X016765Y006915D01*
X016655Y006805D01*
X015875Y006805D02*
X015875Y006860D01*
X015820Y006915D01*
X015710Y006915D01*
X015655Y006860D01*
X015875Y006805D02*
X015655Y006585D01*
X015875Y006585D01*
X014875Y006640D02*
X014820Y006585D01*
X014710Y006585D01*
X014655Y006640D01*
X014765Y006750D02*
X014820Y006750D01*
X014875Y006695D01*
X014875Y006640D01*
X014820Y006750D02*
X014875Y006805D01*
X014875Y006860D01*
X014820Y006915D01*
X014710Y006915D01*
X014655Y006860D01*
X014515Y006986D02*
X014359Y006986D01*
X014359Y007142D01*
X013855Y006750D02*
X013635Y006750D01*
X013800Y006915D01*
X013800Y006585D01*
X013515Y006986D02*
X013359Y006986D01*
X013359Y007142D01*
X012855Y006915D02*
X012635Y006915D01*
X012635Y006750D01*
X012745Y006805D01*
X012800Y006805D01*
X012855Y006750D01*
X012855Y006640D01*
X012800Y006585D01*
X012690Y006585D01*
X012635Y006640D01*
X012495Y006986D02*
X012339Y006986D01*
X012339Y007142D01*
X011875Y006915D02*
X011765Y006860D01*
X011655Y006750D01*
X011820Y006750D01*
X011875Y006695D01*
X011875Y006640D01*
X011820Y006585D01*
X011710Y006585D01*
X011655Y006640D01*
X011655Y006750D01*
X011515Y006986D02*
X011359Y006986D01*
X011359Y007142D01*
X011055Y006955D02*
X011055Y006900D01*
X010835Y006680D01*
X010835Y006625D01*
X010835Y006955D02*
X011055Y006955D01*
X010495Y006986D02*
X010339Y006986D01*
X010339Y007142D01*
X009981Y006571D02*
X009903Y006571D01*
X009825Y006493D01*
X009825Y006415D01*
X009903Y006337D01*
X009981Y006337D01*
X010059Y006415D01*
X010059Y006493D01*
X009981Y006571D01*
X009715Y006620D02*
X009660Y006565D01*
X009550Y006565D01*
X009495Y006620D01*
X009495Y006675D01*
X009550Y006730D01*
X009660Y006730D01*
X009715Y006675D01*
X009715Y006620D01*
X009660Y006730D02*
X009715Y006785D01*
X009715Y006840D01*
X009660Y006895D01*
X009550Y006895D01*
X009495Y006840D01*
X009495Y006785D01*
X009550Y006730D01*
X009515Y006986D02*
X009359Y006986D01*
X009359Y007142D01*
X008855Y006860D02*
X008800Y006915D01*
X008690Y006915D01*
X008635Y006860D01*
X008635Y006805D01*
X008690Y006750D01*
X008855Y006750D01*
X008855Y006640D02*
X008855Y006860D01*
X008855Y006640D02*
X008800Y006585D01*
X008690Y006585D01*
X008635Y006640D01*
X008495Y006986D02*
X008339Y006986D01*
X008339Y007142D01*
X008064Y006860D02*
X007843Y006640D01*
X007898Y006585D01*
X008008Y006585D01*
X008064Y006640D01*
X008064Y006860D01*
X008008Y006915D01*
X007898Y006915D01*
X007843Y006860D01*
X007843Y006640D01*
X007695Y006585D02*
X007475Y006585D01*
X007585Y006585D02*
X007585Y006915D01*
X007475Y006805D01*
X007515Y006986D02*
X007359Y006986D01*
X007359Y007142D01*
X006953Y006915D02*
X006953Y006585D01*
X006843Y006585D02*
X007064Y006585D01*
X006843Y006805D02*
X006953Y006915D01*
X006695Y006585D02*
X006475Y006585D01*
X006585Y006585D02*
X006585Y006915D01*
X006475Y006805D01*
X006495Y006986D02*
X006339Y006986D01*
X006339Y007142D01*
X006064Y006860D02*
X006008Y006915D01*
X005898Y006915D01*
X005843Y006860D01*
X006064Y006860D02*
X006064Y006805D01*
X005843Y006585D01*
X006064Y006585D01*
X006000Y006415D02*
X006000Y006085D01*
X006220Y006085D01*
X006110Y006250D02*
X006000Y006250D01*
X005852Y006195D02*
X005852Y006140D01*
X005797Y006085D01*
X005687Y006085D01*
X005632Y006140D01*
X005687Y006250D02*
X005797Y006250D01*
X005852Y006195D01*
X005852Y006360D02*
X005797Y006415D01*
X005687Y006415D01*
X005632Y006360D01*
X005632Y006305D01*
X005687Y006250D01*
X005484Y006085D02*
X005263Y006085D01*
X005263Y006415D01*
X005484Y006415D01*
X005475Y006585D02*
X005695Y006585D01*
X005585Y006585D02*
X005585Y006915D01*
X005475Y006805D01*
X005495Y006986D02*
X005339Y006986D01*
X005339Y007142D01*
X005060Y006415D02*
X004895Y006415D01*
X004895Y006085D01*
X004895Y006195D02*
X005060Y006195D01*
X005115Y006250D01*
X005115Y006360D01*
X005060Y006415D01*
X005005Y006195D02*
X005115Y006085D01*
X005263Y006250D02*
X005373Y006250D01*
X006000Y006415D02*
X006220Y006415D01*
X006368Y006415D02*
X006588Y006415D01*
X006478Y006415D02*
X006478Y006085D01*
X008016Y004839D02*
X008171Y004995D01*
X008354Y005021D02*
X008471Y004905D01*
X008549Y004905D01*
X008665Y005021D01*
X008510Y005177D01*
X008614Y005282D02*
X008731Y005399D01*
X008809Y005399D01*
X008887Y005321D01*
X008887Y005243D01*
X008770Y005126D01*
X008537Y005360D01*
X008210Y004800D02*
X008133Y004722D01*
X008249Y004605D02*
X008016Y004839D01*
X008992Y005426D02*
X008992Y005503D01*
X009108Y005620D01*
X009070Y005659D02*
X009186Y005542D01*
X009070Y005426D01*
X008992Y005426D01*
X008914Y005581D02*
X008992Y005659D01*
X009070Y005659D01*
X009213Y005725D02*
X009213Y005881D01*
X009252Y005920D01*
X009352Y006020D02*
X009391Y006059D01*
X009547Y005903D01*
X009508Y005864D02*
X009586Y005942D01*
X009682Y006038D02*
X009526Y006193D01*
X009643Y006310D01*
X009721Y006310D01*
X009837Y006193D01*
X009313Y006137D02*
X009275Y006176D01*
X009135Y005803D02*
X009291Y005647D01*
X008450Y003422D02*
X008340Y003422D01*
X008340Y003312D01*
X008450Y003422D02*
X008505Y003367D01*
X008505Y003257D01*
X008450Y003202D01*
X008230Y003202D01*
X008175Y003257D01*
X008175Y003367D01*
X008230Y003422D01*
X008230Y003054D02*
X008175Y002998D01*
X008175Y002833D01*
X008505Y002833D01*
X008395Y002833D02*
X008395Y002998D01*
X008340Y003054D01*
X008230Y003054D01*
X008395Y002943D02*
X008505Y003054D01*
X008340Y002685D02*
X008395Y002630D01*
X008395Y002465D01*
X008505Y002465D02*
X008175Y002465D01*
X008175Y002630D01*
X008230Y002685D01*
X008340Y002685D01*
X008530Y002275D02*
X008475Y002220D01*
X008530Y002275D02*
X008640Y002275D01*
X008695Y002220D01*
X008695Y002165D01*
X008475Y001945D01*
X008695Y001945D01*
X008843Y002110D02*
X009008Y002275D01*
X009008Y001945D01*
X009064Y002110D02*
X008843Y002110D01*
X009475Y002220D02*
X009530Y002275D01*
X009640Y002275D01*
X009695Y002220D01*
X009695Y002165D01*
X009475Y001945D01*
X009695Y001945D01*
X009843Y002000D02*
X009898Y001945D01*
X010008Y001945D01*
X010064Y002000D01*
X010064Y002110D01*
X010008Y002165D01*
X009953Y002165D01*
X009843Y002110D01*
X009843Y002275D01*
X010064Y002275D01*
X010295Y002180D02*
X010350Y002235D01*
X010460Y002235D01*
X010515Y002180D01*
X010515Y002125D01*
X010295Y001905D01*
X010515Y001905D01*
X010663Y001960D02*
X010718Y001905D01*
X010828Y001905D01*
X010884Y001960D01*
X010884Y002015D01*
X010828Y002070D01*
X010663Y002070D01*
X010663Y001960D01*
X010663Y002070D02*
X010773Y002180D01*
X010884Y002235D01*
X011475Y002260D02*
X011530Y002315D01*
X011640Y002315D01*
X011695Y002260D01*
X011695Y002205D01*
X011475Y001985D01*
X011695Y001985D01*
X011843Y001985D02*
X011843Y002040D01*
X012064Y002260D01*
X012064Y002315D01*
X011843Y002315D01*
X012046Y002697D02*
X011813Y002775D01*
X011968Y002931D02*
X012046Y002697D01*
X012229Y002880D02*
X012384Y003036D01*
X012307Y002958D02*
X012073Y003191D01*
X012073Y003036D01*
X012450Y003179D02*
X012489Y003218D01*
X012528Y003179D01*
X012489Y003140D01*
X012450Y003179D01*
X012580Y003310D02*
X012503Y003387D01*
X012619Y003504D01*
X012697Y003504D01*
X012736Y003465D01*
X012736Y003387D01*
X012658Y003310D01*
X012580Y003310D01*
X012503Y003387D02*
X012503Y003543D01*
X012542Y003660D01*
X012510Y002315D02*
X012455Y002260D01*
X012510Y002315D02*
X012620Y002315D01*
X012675Y002260D01*
X012675Y002205D01*
X012455Y001985D01*
X012675Y001985D01*
X012823Y002040D02*
X012823Y002095D01*
X012878Y002150D01*
X012988Y002150D01*
X013044Y002095D01*
X013044Y002040D01*
X012988Y001985D01*
X012878Y001985D01*
X012823Y002040D01*
X012878Y002150D02*
X012823Y002205D01*
X012823Y002260D01*
X012878Y002315D01*
X012988Y002315D01*
X013044Y002260D01*
X013044Y002205D01*
X012988Y002150D01*
X013455Y002260D02*
X013510Y002315D01*
X013620Y002315D01*
X013675Y002260D01*
X013675Y002205D01*
X013455Y001985D01*
X013675Y001985D01*
X013823Y002040D02*
X013878Y001985D01*
X013988Y001985D01*
X014044Y002040D01*
X014044Y002260D01*
X013988Y002315D01*
X013878Y002315D01*
X013823Y002260D01*
X013823Y002205D01*
X013878Y002150D01*
X014044Y002150D01*
X014575Y002040D02*
X014630Y001985D01*
X014740Y001985D01*
X014795Y002040D01*
X014795Y002095D01*
X014740Y002150D01*
X014685Y002150D01*
X014740Y002150D02*
X014795Y002205D01*
X014795Y002260D01*
X014740Y002315D01*
X014630Y002315D01*
X014575Y002260D01*
X014635Y002465D02*
X014635Y002795D01*
X014800Y002795D01*
X014855Y002740D01*
X014855Y002630D01*
X014800Y002575D01*
X014635Y002575D01*
X015003Y002465D02*
X015113Y002575D01*
X015224Y002465D01*
X015224Y002795D01*
X015372Y002795D02*
X015372Y002465D01*
X015372Y002575D02*
X015537Y002575D01*
X015592Y002630D01*
X015592Y002740D01*
X015537Y002795D01*
X015372Y002795D01*
X015482Y002575D02*
X015592Y002465D01*
X015620Y002315D02*
X015675Y002260D01*
X015675Y002205D01*
X015620Y002150D01*
X015675Y002095D01*
X015675Y002040D01*
X015620Y001985D01*
X015510Y001985D01*
X015455Y002040D01*
X015565Y002150D02*
X015620Y002150D01*
X015620Y002315D02*
X015510Y002315D01*
X015455Y002260D01*
X015164Y002260D02*
X015164Y002040D01*
X015108Y001985D01*
X014998Y001985D01*
X014943Y002040D01*
X015164Y002260D01*
X015108Y002315D01*
X014998Y002315D01*
X014943Y002260D01*
X014943Y002040D01*
X015003Y002465D02*
X015003Y002795D01*
X015823Y002205D02*
X015933Y002315D01*
X015933Y001985D01*
X015823Y001985D02*
X016044Y001985D01*
X016455Y002040D02*
X016510Y001985D01*
X016620Y001985D01*
X016675Y002040D01*
X016675Y002095D01*
X016620Y002150D01*
X016565Y002150D01*
X016620Y002150D02*
X016675Y002205D01*
X016675Y002260D01*
X016620Y002315D01*
X016510Y002315D01*
X016455Y002260D01*
X016823Y002260D02*
X016878Y002315D01*
X016988Y002315D01*
X017044Y002260D01*
X017044Y002205D01*
X016823Y001985D01*
X017044Y001985D01*
X017415Y001945D02*
X017415Y002275D01*
X017580Y002275D01*
X017635Y002220D01*
X017635Y002110D01*
X017580Y002055D01*
X017415Y002055D01*
X017525Y002055D02*
X017635Y001945D01*
X017783Y002000D02*
X017838Y001945D01*
X017948Y001945D01*
X018004Y002000D01*
X018004Y002055D01*
X017948Y002110D01*
X017838Y002110D01*
X017783Y002165D01*
X017783Y002220D01*
X017838Y002275D01*
X017948Y002275D01*
X018004Y002220D01*
X018375Y002160D02*
X018430Y002215D01*
X018540Y002215D01*
X018595Y002160D01*
X018595Y002105D01*
X018540Y002050D01*
X018595Y001995D01*
X018595Y001940D01*
X018540Y001885D01*
X018430Y001885D01*
X018375Y001940D01*
X018485Y002050D02*
X018540Y002050D01*
X018743Y001995D02*
X018743Y002215D01*
X018743Y001995D02*
X018853Y001885D01*
X018964Y001995D01*
X018964Y002215D01*
X019225Y002385D02*
X019115Y002495D01*
X019115Y002715D01*
X019335Y002715D02*
X019335Y002495D01*
X019225Y002385D01*
X019395Y002200D02*
X019395Y001980D01*
X019450Y001925D01*
X019560Y001925D01*
X019615Y001980D01*
X019615Y002090D01*
X019505Y002090D01*
X019395Y002200D02*
X019450Y002255D01*
X019560Y002255D01*
X019615Y002200D01*
X019593Y002385D02*
X019483Y002385D01*
X019538Y002385D02*
X019538Y002605D01*
X019483Y002605D01*
X019538Y002715D02*
X019538Y002770D01*
X019729Y002605D02*
X019729Y002385D01*
X019949Y002385D02*
X019949Y002550D01*
X019894Y002605D01*
X019729Y002605D01*
X014715Y005865D02*
X014495Y005865D01*
X014605Y005865D02*
X014605Y006195D01*
X014495Y006085D01*
X013080Y005426D02*
X013041Y005387D01*
X012963Y005309D02*
X012808Y005153D01*
X012769Y005192D02*
X012847Y005114D01*
X012963Y005309D02*
X012925Y005348D01*
X012781Y005414D02*
X012664Y005297D01*
X012781Y005414D02*
X012781Y005491D01*
X012664Y005608D01*
X012508Y005453D01*
X012413Y005548D02*
X012335Y005626D01*
X012374Y005587D02*
X012529Y005743D01*
X012490Y005782D01*
X012607Y005821D02*
X012646Y005860D01*
X012464Y005964D02*
X012230Y005731D01*
X012074Y005887D02*
X012308Y006120D01*
X012308Y005964D01*
X012464Y005964D01*
X012847Y012114D02*
X012769Y012192D01*
X012808Y012153D02*
X012963Y012309D01*
X012925Y012348D01*
X013041Y012387D02*
X013080Y012426D01*
X012781Y012414D02*
X012664Y012297D01*
X012781Y012414D02*
X012781Y012491D01*
X012664Y012608D01*
X012508Y012453D01*
X012413Y012548D02*
X012335Y012626D01*
X012374Y012587D02*
X012529Y012743D01*
X012490Y012782D01*
X012607Y012821D02*
X012646Y012860D01*
X012464Y012964D02*
X012230Y012731D01*
X012074Y012887D02*
X012308Y013120D01*
X012308Y012964D01*
X012464Y012964D01*
X012690Y013585D02*
X012635Y013640D01*
X012690Y013585D02*
X012800Y013585D01*
X012855Y013640D01*
X012855Y013750D01*
X012800Y013805D01*
X012745Y013805D01*
X012635Y013750D01*
X012635Y013915D01*
X012855Y013915D01*
X012495Y013986D02*
X012339Y013986D01*
X012339Y014142D01*
X011875Y013915D02*
X011765Y013860D01*
X011655Y013750D01*
X011820Y013750D01*
X011875Y013695D01*
X011875Y013640D01*
X011820Y013585D01*
X011710Y013585D01*
X011655Y013640D01*
X011655Y013750D01*
X011515Y013986D02*
X011359Y013986D01*
X011359Y014142D01*
X011055Y013955D02*
X011055Y013900D01*
X010835Y013680D01*
X010835Y013625D01*
X010835Y013955D02*
X011055Y013955D01*
X010495Y013986D02*
X010339Y013986D01*
X010339Y014142D01*
X009721Y013310D02*
X009837Y013193D01*
X010295Y015905D02*
X010515Y016125D01*
X010515Y016180D01*
X010460Y016235D01*
X010350Y016235D01*
X010295Y016180D01*
X010064Y016110D02*
X010064Y016000D01*
X010008Y015945D01*
X009898Y015945D01*
X009843Y016000D01*
X009843Y016110D02*
X009953Y016165D01*
X010008Y016165D01*
X010064Y016110D01*
X010064Y016275D02*
X009843Y016275D01*
X009843Y016110D01*
X009695Y016165D02*
X009695Y016220D01*
X009640Y016275D01*
X009530Y016275D01*
X009475Y016220D01*
X009695Y016165D02*
X009475Y015945D01*
X009695Y015945D01*
X009064Y016110D02*
X008843Y016110D01*
X009008Y016275D01*
X009008Y015945D01*
X008695Y015945D02*
X008475Y015945D01*
X008695Y016165D01*
X008695Y016220D01*
X008640Y016275D01*
X008530Y016275D01*
X008475Y016220D01*
X008505Y016465D02*
X008175Y016465D01*
X008175Y016630D01*
X008230Y016685D01*
X008340Y016685D01*
X008395Y016630D01*
X008395Y016465D01*
X008395Y016833D02*
X008395Y016998D01*
X008340Y017054D01*
X008230Y017054D01*
X008175Y016998D01*
X008175Y016833D01*
X008505Y016833D01*
X008395Y016943D02*
X008505Y017054D01*
X008450Y017202D02*
X008230Y017202D01*
X008175Y017257D01*
X008175Y017367D01*
X008230Y017422D01*
X008340Y017422D02*
X008340Y017312D01*
X008340Y017422D02*
X008450Y017422D01*
X008505Y017367D01*
X008505Y017257D01*
X008450Y017202D01*
X008249Y018605D02*
X008016Y018839D01*
X008171Y018995D01*
X008354Y019021D02*
X008471Y018905D01*
X008549Y018905D01*
X008665Y019021D01*
X008510Y019177D01*
X008614Y019282D02*
X008731Y019399D01*
X008809Y019399D01*
X008887Y019321D01*
X008887Y019243D01*
X008770Y019126D01*
X008537Y019360D01*
X008914Y019581D02*
X008992Y019659D01*
X009070Y019659D01*
X009186Y019542D01*
X009070Y019426D01*
X008992Y019426D01*
X008992Y019503D01*
X009108Y019620D01*
X009213Y019725D02*
X009213Y019881D01*
X009252Y019920D01*
X009352Y020020D02*
X009391Y020059D01*
X009547Y019903D01*
X009508Y019864D02*
X009586Y019942D01*
X009682Y020038D02*
X009526Y020193D01*
X009643Y020310D01*
X009721Y020310D01*
X009837Y020193D01*
X009313Y020137D02*
X009275Y020176D01*
X009135Y019803D02*
X009291Y019647D01*
X008210Y018800D02*
X008133Y018722D01*
X010295Y015905D02*
X010515Y015905D01*
X010663Y015960D02*
X010663Y016070D01*
X010828Y016070D01*
X010884Y016015D01*
X010884Y015960D01*
X010828Y015905D01*
X010718Y015905D01*
X010663Y015960D01*
X010663Y016070D02*
X010773Y016180D01*
X010884Y016235D01*
X011475Y016260D02*
X011530Y016315D01*
X011640Y016315D01*
X011695Y016260D01*
X011695Y016205D01*
X011475Y015985D01*
X011695Y015985D01*
X011843Y015985D02*
X011843Y016040D01*
X012064Y016260D01*
X012064Y016315D01*
X011843Y016315D01*
X012046Y016697D02*
X011968Y016931D01*
X012073Y017036D02*
X012073Y017191D01*
X012307Y016958D01*
X012384Y017036D02*
X012229Y016880D01*
X012046Y016697D02*
X011813Y016775D01*
X012450Y017179D02*
X012489Y017218D01*
X012528Y017179D01*
X012489Y017140D01*
X012450Y017179D01*
X012580Y017310D02*
X012503Y017387D01*
X012619Y017504D01*
X012697Y017504D01*
X012736Y017465D01*
X012736Y017387D01*
X012658Y017310D01*
X012580Y017310D01*
X012503Y017387D02*
X012503Y017543D01*
X012542Y017660D01*
X012510Y016315D02*
X012455Y016260D01*
X012510Y016315D02*
X012620Y016315D01*
X012675Y016260D01*
X012675Y016205D01*
X012455Y015985D01*
X012675Y015985D01*
X012823Y016040D02*
X012823Y016095D01*
X012878Y016150D01*
X012988Y016150D01*
X013044Y016095D01*
X013044Y016040D01*
X012988Y015985D01*
X012878Y015985D01*
X012823Y016040D01*
X012878Y016150D02*
X012823Y016205D01*
X012823Y016260D01*
X012878Y016315D01*
X012988Y016315D01*
X013044Y016260D01*
X013044Y016205D01*
X012988Y016150D01*
X013455Y016260D02*
X013510Y016315D01*
X013620Y016315D01*
X013675Y016260D01*
X013675Y016205D01*
X013455Y015985D01*
X013675Y015985D01*
X013823Y016040D02*
X013878Y015985D01*
X013988Y015985D01*
X014044Y016040D01*
X014044Y016260D01*
X013988Y016315D01*
X013878Y016315D01*
X013823Y016260D01*
X013823Y016205D01*
X013878Y016150D01*
X014044Y016150D01*
X014575Y016040D02*
X014630Y015985D01*
X014740Y015985D01*
X014795Y016040D01*
X014795Y016095D01*
X014740Y016150D01*
X014685Y016150D01*
X014740Y016150D02*
X014795Y016205D01*
X014795Y016260D01*
X014740Y016315D01*
X014630Y016315D01*
X014575Y016260D01*
X014635Y016465D02*
X014635Y016795D01*
X014800Y016795D01*
X014855Y016740D01*
X014855Y016630D01*
X014800Y016575D01*
X014635Y016575D01*
X015003Y016465D02*
X015113Y016575D01*
X015224Y016465D01*
X015224Y016795D01*
X015372Y016795D02*
X015372Y016465D01*
X015372Y016575D02*
X015537Y016575D01*
X015592Y016630D01*
X015592Y016740D01*
X015537Y016795D01*
X015372Y016795D01*
X015482Y016575D02*
X015592Y016465D01*
X015620Y016315D02*
X015510Y016315D01*
X015455Y016260D01*
X015565Y016150D02*
X015620Y016150D01*
X015675Y016095D01*
X015675Y016040D01*
X015620Y015985D01*
X015510Y015985D01*
X015455Y016040D01*
X015620Y016150D02*
X015675Y016205D01*
X015675Y016260D01*
X015620Y016315D01*
X015823Y016205D02*
X015933Y016315D01*
X015933Y015985D01*
X015823Y015985D02*
X016044Y015985D01*
X016455Y016040D02*
X016510Y015985D01*
X016620Y015985D01*
X016675Y016040D01*
X016675Y016095D01*
X016620Y016150D01*
X016565Y016150D01*
X016620Y016150D02*
X016675Y016205D01*
X016675Y016260D01*
X016620Y016315D01*
X016510Y016315D01*
X016455Y016260D01*
X016823Y016260D02*
X016878Y016315D01*
X016988Y016315D01*
X017044Y016260D01*
X017044Y016205D01*
X016823Y015985D01*
X017044Y015985D01*
X017415Y015945D02*
X017415Y016275D01*
X017580Y016275D01*
X017635Y016220D01*
X017635Y016110D01*
X017580Y016055D01*
X017415Y016055D01*
X017525Y016055D02*
X017635Y015945D01*
X017783Y016000D02*
X017838Y015945D01*
X017948Y015945D01*
X018004Y016000D01*
X018004Y016055D01*
X017948Y016110D01*
X017838Y016110D01*
X017783Y016165D01*
X017783Y016220D01*
X017838Y016275D01*
X017948Y016275D01*
X018004Y016220D01*
X018375Y016160D02*
X018430Y016215D01*
X018540Y016215D01*
X018595Y016160D01*
X018595Y016105D01*
X018540Y016050D01*
X018595Y015995D01*
X018595Y015940D01*
X018540Y015885D01*
X018430Y015885D01*
X018375Y015940D01*
X018485Y016050D02*
X018540Y016050D01*
X018743Y015995D02*
X018853Y015885D01*
X018964Y015995D01*
X018964Y016215D01*
X018743Y016215D02*
X018743Y015995D01*
X019225Y016385D02*
X019115Y016495D01*
X019115Y016715D01*
X019335Y016715D02*
X019335Y016495D01*
X019225Y016385D01*
X019395Y016200D02*
X019395Y015980D01*
X019450Y015925D01*
X019560Y015925D01*
X019615Y015980D01*
X019615Y016090D01*
X019505Y016090D01*
X019395Y016200D02*
X019450Y016255D01*
X019560Y016255D01*
X019615Y016200D01*
X019593Y016385D02*
X019483Y016385D01*
X019538Y016385D02*
X019538Y016605D01*
X019483Y016605D01*
X019538Y016715D02*
X019538Y016770D01*
X019729Y016605D02*
X019894Y016605D01*
X019949Y016550D01*
X019949Y016385D01*
X019729Y016385D02*
X019729Y016605D01*
X019780Y013955D02*
X019670Y013955D01*
X019615Y013900D01*
X019615Y013680D01*
X019670Y013625D01*
X019780Y013625D01*
X019835Y013680D01*
X019835Y013790D01*
X019725Y013790D01*
X019835Y013900D02*
X019780Y013955D01*
X018944Y013995D02*
X018944Y013775D01*
X018833Y013665D01*
X018723Y013775D01*
X018723Y013995D01*
X018575Y013940D02*
X018575Y013885D01*
X018520Y013830D01*
X018575Y013775D01*
X018575Y013720D01*
X018520Y013665D01*
X018410Y013665D01*
X018355Y013720D01*
X018465Y013830D02*
X018520Y013830D01*
X018575Y013940D02*
X018520Y013995D01*
X018410Y013995D01*
X018355Y013940D01*
X017875Y013860D02*
X017875Y013640D01*
X017820Y013585D01*
X017710Y013585D01*
X017655Y013640D01*
X017875Y013860D01*
X017820Y013915D01*
X017710Y013915D01*
X017655Y013860D01*
X017655Y013640D01*
X017495Y013986D02*
X017339Y013986D01*
X017339Y014142D01*
X016875Y013585D02*
X016655Y013585D01*
X016765Y013585D02*
X016765Y013915D01*
X016655Y013805D01*
X015875Y013805D02*
X015875Y013860D01*
X015820Y013915D01*
X015710Y013915D01*
X015655Y013860D01*
X015875Y013805D02*
X015655Y013585D01*
X015875Y013585D01*
X014875Y013640D02*
X014820Y013585D01*
X014710Y013585D01*
X014655Y013640D01*
X014765Y013750D02*
X014820Y013750D01*
X014875Y013695D01*
X014875Y013640D01*
X014820Y013750D02*
X014875Y013805D01*
X014875Y013860D01*
X014820Y013915D01*
X014710Y013915D01*
X014655Y013860D01*
X014515Y013986D02*
X014359Y013986D01*
X014359Y014142D01*
X013855Y013750D02*
X013635Y013750D01*
X013800Y013915D01*
X013800Y013585D01*
X013515Y013986D02*
X013359Y013986D01*
X013359Y014142D01*
X014495Y013085D02*
X014605Y013195D01*
X014605Y012865D01*
X014495Y012865D02*
X014715Y012865D01*
X014998Y015985D02*
X014943Y016040D01*
X015164Y016260D01*
X015164Y016040D01*
X015108Y015985D01*
X014998Y015985D01*
X014943Y016040D02*
X014943Y016260D01*
X014998Y016315D01*
X015108Y016315D01*
X015164Y016260D01*
X015003Y016465D02*
X015003Y016795D01*
X014715Y019865D02*
X014495Y019865D01*
X014605Y019865D02*
X014605Y020195D01*
X014495Y020085D01*
X013080Y019426D02*
X013041Y019387D01*
X012963Y019309D02*
X012808Y019153D01*
X012769Y019192D02*
X012847Y019114D01*
X012963Y019309D02*
X012925Y019348D01*
X012781Y019414D02*
X012664Y019297D01*
X012781Y019414D02*
X012781Y019491D01*
X012664Y019608D01*
X012508Y019453D01*
X012413Y019548D02*
X012335Y019626D01*
X012374Y019587D02*
X012529Y019743D01*
X012490Y019782D01*
X012607Y019821D02*
X012646Y019860D01*
X012464Y019964D02*
X012230Y019731D01*
X012074Y019887D02*
X012308Y020120D01*
X012308Y019964D01*
X012464Y019964D01*
X014998Y022985D02*
X014943Y023040D01*
X015164Y023260D01*
X015164Y023040D01*
X015108Y022985D01*
X014998Y022985D01*
X014943Y023040D02*
X014943Y023260D01*
X014998Y023315D01*
X015108Y023315D01*
X015164Y023260D01*
X015003Y023465D02*
X015003Y023795D01*
X014715Y026865D02*
X014495Y026865D01*
X014605Y026865D02*
X014605Y027195D01*
X014495Y027085D01*
X014710Y027585D02*
X014655Y027640D01*
X014710Y027585D02*
X014820Y027585D01*
X014875Y027640D01*
X014875Y027695D01*
X014820Y027750D01*
X014765Y027750D01*
X014820Y027750D02*
X014875Y027805D01*
X014875Y027860D01*
X014820Y027915D01*
X014710Y027915D01*
X014655Y027860D01*
X014515Y027986D02*
X014359Y027986D01*
X014359Y028142D01*
X013855Y027750D02*
X013635Y027750D01*
X013800Y027915D01*
X013800Y027585D01*
X013515Y027986D02*
X013359Y027986D01*
X013359Y028142D01*
X012855Y027915D02*
X012635Y027915D01*
X012635Y027750D01*
X012745Y027805D01*
X012800Y027805D01*
X012855Y027750D01*
X012855Y027640D01*
X012800Y027585D01*
X012690Y027585D01*
X012635Y027640D01*
X012495Y027986D02*
X012339Y027986D01*
X012339Y028142D01*
X011875Y027915D02*
X011765Y027860D01*
X011655Y027750D01*
X011820Y027750D01*
X011875Y027695D01*
X011875Y027640D01*
X011820Y027585D01*
X011710Y027585D01*
X011655Y027640D01*
X011655Y027750D01*
X011515Y027986D02*
X011359Y027986D01*
X011359Y028142D01*
X011055Y027955D02*
X011055Y027900D01*
X010835Y027680D01*
X010835Y027625D01*
X010835Y027955D02*
X011055Y027955D01*
X010495Y027986D02*
X010339Y027986D01*
X010339Y028142D01*
X009721Y027310D02*
X009837Y027193D01*
X010295Y029905D02*
X010515Y030125D01*
X010515Y030180D01*
X010460Y030235D01*
X010350Y030235D01*
X010295Y030180D01*
X010064Y030110D02*
X010064Y030000D01*
X010008Y029945D01*
X009898Y029945D01*
X009843Y030000D01*
X009843Y030110D02*
X009953Y030165D01*
X010008Y030165D01*
X010064Y030110D01*
X010064Y030275D02*
X009843Y030275D01*
X009843Y030110D01*
X009695Y030165D02*
X009695Y030220D01*
X009640Y030275D01*
X009530Y030275D01*
X009475Y030220D01*
X009695Y030165D02*
X009475Y029945D01*
X009695Y029945D01*
X009064Y030110D02*
X008843Y030110D01*
X009008Y030275D01*
X009008Y029945D01*
X008695Y029945D02*
X008475Y029945D01*
X008695Y030165D01*
X008695Y030220D01*
X008640Y030275D01*
X008530Y030275D01*
X008475Y030220D01*
X008505Y030465D02*
X008175Y030465D01*
X008175Y030630D01*
X008230Y030685D01*
X008340Y030685D01*
X008395Y030630D01*
X008395Y030465D01*
X008395Y030833D02*
X008395Y030998D01*
X008340Y031054D01*
X008230Y031054D01*
X008175Y030998D01*
X008175Y030833D01*
X008505Y030833D01*
X008395Y030943D02*
X008505Y031054D01*
X008450Y031202D02*
X008505Y031257D01*
X008505Y031367D01*
X008450Y031422D01*
X008340Y031422D01*
X008340Y031312D01*
X008230Y031422D02*
X008175Y031367D01*
X008175Y031257D01*
X008230Y031202D01*
X008450Y031202D01*
X008249Y032605D02*
X008016Y032839D01*
X008171Y032995D01*
X008354Y033021D02*
X008471Y032905D01*
X008549Y032905D01*
X008665Y033021D01*
X008510Y033177D01*
X008614Y033282D02*
X008731Y033399D01*
X008809Y033399D01*
X008887Y033321D01*
X008887Y033243D01*
X008770Y033126D01*
X008537Y033360D01*
X008210Y032800D02*
X008133Y032722D01*
X008992Y033426D02*
X008992Y033503D01*
X009108Y033620D01*
X009070Y033659D02*
X009186Y033542D01*
X009070Y033426D01*
X008992Y033426D01*
X008914Y033581D02*
X008992Y033659D01*
X009070Y033659D01*
X009213Y033725D02*
X009213Y033881D01*
X009252Y033920D01*
X009352Y034020D02*
X009391Y034059D01*
X009547Y033903D01*
X009508Y033864D02*
X009586Y033942D01*
X009682Y034038D02*
X009526Y034193D01*
X009643Y034310D01*
X009721Y034310D01*
X009837Y034193D01*
X009903Y034337D02*
X009981Y034337D01*
X010059Y034415D01*
X010059Y034493D01*
X009981Y034571D01*
X009903Y034571D01*
X009825Y034493D01*
X009825Y034415D01*
X009903Y034337D01*
X009660Y034565D02*
X009715Y034620D01*
X009715Y034675D01*
X009660Y034730D01*
X009550Y034730D01*
X009495Y034785D01*
X009495Y034840D01*
X009550Y034895D01*
X009660Y034895D01*
X009715Y034840D01*
X009715Y034785D01*
X009660Y034730D01*
X009550Y034730D02*
X009495Y034675D01*
X009495Y034620D01*
X009550Y034565D01*
X009660Y034565D01*
X009275Y034176D02*
X009313Y034137D01*
X009135Y033803D02*
X009291Y033647D01*
X008800Y034585D02*
X008855Y034640D01*
X008855Y034860D01*
X008800Y034915D01*
X008690Y034915D01*
X008635Y034860D01*
X008635Y034805D01*
X008690Y034750D01*
X008855Y034750D01*
X008800Y034585D02*
X008690Y034585D01*
X008635Y034640D01*
X008495Y034986D02*
X008339Y034986D01*
X008339Y035142D01*
X008064Y034860D02*
X007843Y034640D01*
X007898Y034585D01*
X008008Y034585D01*
X008064Y034640D01*
X008064Y034860D01*
X008008Y034915D01*
X007898Y034915D01*
X007843Y034860D01*
X007843Y034640D01*
X007695Y034585D02*
X007475Y034585D01*
X007585Y034585D02*
X007585Y034915D01*
X007475Y034805D01*
X007515Y034986D02*
X007359Y034986D01*
X007359Y035142D01*
X006953Y034915D02*
X006953Y034585D01*
X006843Y034585D02*
X007064Y034585D01*
X006843Y034805D02*
X006953Y034915D01*
X006695Y034585D02*
X006475Y034585D01*
X006585Y034585D02*
X006585Y034915D01*
X006475Y034805D01*
X006495Y034986D02*
X006339Y034986D01*
X006339Y035142D01*
X006064Y034860D02*
X006008Y034915D01*
X005898Y034915D01*
X005843Y034860D01*
X006064Y034860D02*
X006064Y034805D01*
X005843Y034585D01*
X006064Y034585D01*
X006000Y034415D02*
X006220Y034415D01*
X006368Y034415D02*
X006588Y034415D01*
X006478Y034415D02*
X006478Y034085D01*
X006220Y034085D02*
X006000Y034085D01*
X006000Y034415D01*
X005852Y034360D02*
X005797Y034415D01*
X005687Y034415D01*
X005632Y034360D01*
X005632Y034305D01*
X005687Y034250D01*
X005797Y034250D01*
X005852Y034195D01*
X005852Y034140D01*
X005797Y034085D01*
X005687Y034085D01*
X005632Y034140D01*
X005484Y034085D02*
X005263Y034085D01*
X005263Y034415D01*
X005484Y034415D01*
X005475Y034585D02*
X005695Y034585D01*
X005585Y034585D02*
X005585Y034915D01*
X005475Y034805D01*
X005495Y034986D02*
X005339Y034986D01*
X005339Y035142D01*
X005060Y034415D02*
X004895Y034415D01*
X004895Y034085D01*
X004895Y034195D02*
X005060Y034195D01*
X005115Y034250D01*
X005115Y034360D01*
X005060Y034415D01*
X005005Y034195D02*
X005115Y034085D01*
X005263Y034250D02*
X005373Y034250D01*
X006000Y034250D02*
X006110Y034250D01*
X004475Y035026D02*
X004319Y035026D01*
X004319Y035182D01*
X009359Y035142D02*
X009359Y034986D01*
X009515Y034986D01*
X010339Y034986D02*
X010339Y035142D01*
X010339Y034986D02*
X010495Y034986D01*
X010835Y034955D02*
X011055Y034955D01*
X011055Y034900D01*
X010835Y034680D01*
X010835Y034625D01*
X011359Y034986D02*
X011359Y035142D01*
X011359Y034986D02*
X011515Y034986D01*
X011655Y034750D02*
X011820Y034750D01*
X011875Y034695D01*
X011875Y034640D01*
X011820Y034585D01*
X011710Y034585D01*
X011655Y034640D01*
X011655Y034750D01*
X011765Y034860D01*
X011875Y034915D01*
X012339Y034986D02*
X012339Y035142D01*
X012339Y034986D02*
X012495Y034986D01*
X012635Y034915D02*
X012635Y034750D01*
X012745Y034805D01*
X012800Y034805D01*
X012855Y034750D01*
X012855Y034640D01*
X012800Y034585D01*
X012690Y034585D01*
X012635Y034640D01*
X012635Y034915D02*
X012855Y034915D01*
X013359Y034986D02*
X013359Y035142D01*
X013359Y034986D02*
X013515Y034986D01*
X013635Y034750D02*
X013855Y034750D01*
X013800Y034585D02*
X013800Y034915D01*
X013635Y034750D01*
X014359Y034986D02*
X014359Y035142D01*
X014359Y034986D02*
X014515Y034986D01*
X014655Y034860D02*
X014710Y034915D01*
X014820Y034915D01*
X014875Y034860D01*
X014875Y034805D01*
X014820Y034750D01*
X014875Y034695D01*
X014875Y034640D01*
X014820Y034585D01*
X014710Y034585D01*
X014655Y034640D01*
X014765Y034750D02*
X014820Y034750D01*
X014605Y034195D02*
X014605Y033865D01*
X014495Y033865D02*
X014715Y033865D01*
X014495Y034085D02*
X014605Y034195D01*
X015655Y034585D02*
X015875Y034805D01*
X015875Y034860D01*
X015820Y034915D01*
X015710Y034915D01*
X015655Y034860D01*
X015655Y034585D02*
X015875Y034585D01*
X016655Y034585D02*
X016875Y034585D01*
X016765Y034585D02*
X016765Y034915D01*
X016655Y034805D01*
X017339Y034986D02*
X017339Y035142D01*
X017339Y034986D02*
X017495Y034986D01*
X017655Y034860D02*
X017710Y034915D01*
X017820Y034915D01*
X017875Y034860D01*
X017655Y034640D01*
X017710Y034585D01*
X017820Y034585D01*
X017875Y034640D01*
X017875Y034860D01*
X017655Y034860D02*
X017655Y034640D01*
X018355Y034720D02*
X018410Y034665D01*
X018520Y034665D01*
X018575Y034720D01*
X018575Y034775D01*
X018520Y034830D01*
X018465Y034830D01*
X018520Y034830D02*
X018575Y034885D01*
X018575Y034940D01*
X018520Y034995D01*
X018410Y034995D01*
X018355Y034940D01*
X018723Y034995D02*
X018723Y034775D01*
X018833Y034665D01*
X018944Y034775D01*
X018944Y034995D01*
X019615Y034900D02*
X019615Y034680D01*
X019670Y034625D01*
X019780Y034625D01*
X019835Y034680D01*
X019835Y034790D01*
X019725Y034790D01*
X019615Y034900D02*
X019670Y034955D01*
X019780Y034955D01*
X019835Y034900D01*
X019538Y030770D02*
X019538Y030715D01*
X019538Y030605D02*
X019538Y030385D01*
X019483Y030385D02*
X019593Y030385D01*
X019560Y030255D02*
X019450Y030255D01*
X019395Y030200D01*
X019395Y029980D01*
X019450Y029925D01*
X019560Y029925D01*
X019615Y029980D01*
X019615Y030090D01*
X019505Y030090D01*
X019615Y030200D02*
X019560Y030255D01*
X019729Y030385D02*
X019729Y030605D01*
X019894Y030605D01*
X019949Y030550D01*
X019949Y030385D01*
X019538Y030605D02*
X019483Y030605D01*
X019335Y030495D02*
X019335Y030715D01*
X019335Y030495D02*
X019225Y030385D01*
X019115Y030495D01*
X019115Y030715D01*
X018964Y030215D02*
X018964Y029995D01*
X018853Y029885D01*
X018743Y029995D01*
X018743Y030215D01*
X018595Y030160D02*
X018595Y030105D01*
X018540Y030050D01*
X018595Y029995D01*
X018595Y029940D01*
X018540Y029885D01*
X018430Y029885D01*
X018375Y029940D01*
X018485Y030050D02*
X018540Y030050D01*
X018595Y030160D02*
X018540Y030215D01*
X018430Y030215D01*
X018375Y030160D01*
X018004Y030220D02*
X017948Y030275D01*
X017838Y030275D01*
X017783Y030220D01*
X017783Y030165D01*
X017838Y030110D01*
X017948Y030110D01*
X018004Y030055D01*
X018004Y030000D01*
X017948Y029945D01*
X017838Y029945D01*
X017783Y030000D01*
X017635Y029945D02*
X017525Y030055D01*
X017580Y030055D02*
X017415Y030055D01*
X017415Y029945D02*
X017415Y030275D01*
X017580Y030275D01*
X017635Y030220D01*
X017635Y030110D01*
X017580Y030055D01*
X017044Y029985D02*
X016823Y029985D01*
X017044Y030205D01*
X017044Y030260D01*
X016988Y030315D01*
X016878Y030315D01*
X016823Y030260D01*
X016675Y030260D02*
X016675Y030205D01*
X016620Y030150D01*
X016675Y030095D01*
X016675Y030040D01*
X016620Y029985D01*
X016510Y029985D01*
X016455Y030040D01*
X016565Y030150D02*
X016620Y030150D01*
X016675Y030260D02*
X016620Y030315D01*
X016510Y030315D01*
X016455Y030260D01*
X016044Y029985D02*
X015823Y029985D01*
X015933Y029985D02*
X015933Y030315D01*
X015823Y030205D01*
X015675Y030205D02*
X015675Y030260D01*
X015620Y030315D01*
X015510Y030315D01*
X015455Y030260D01*
X015565Y030150D02*
X015620Y030150D01*
X015675Y030095D01*
X015675Y030040D01*
X015620Y029985D01*
X015510Y029985D01*
X015455Y030040D01*
X015620Y030150D02*
X015675Y030205D01*
X015592Y030465D02*
X015482Y030575D01*
X015537Y030575D02*
X015372Y030575D01*
X015372Y030465D02*
X015372Y030795D01*
X015537Y030795D01*
X015592Y030740D01*
X015592Y030630D01*
X015537Y030575D01*
X015224Y030465D02*
X015224Y030795D01*
X015003Y030795D02*
X015003Y030465D01*
X015113Y030575D01*
X015224Y030465D01*
X015108Y030315D02*
X015164Y030260D01*
X014943Y030040D01*
X014998Y029985D01*
X015108Y029985D01*
X015164Y030040D01*
X015164Y030260D01*
X015108Y030315D02*
X014998Y030315D01*
X014943Y030260D01*
X014943Y030040D01*
X014795Y030040D02*
X014740Y029985D01*
X014630Y029985D01*
X014575Y030040D01*
X014685Y030150D02*
X014740Y030150D01*
X014795Y030095D01*
X014795Y030040D01*
X014740Y030150D02*
X014795Y030205D01*
X014795Y030260D01*
X014740Y030315D01*
X014630Y030315D01*
X014575Y030260D01*
X014635Y030465D02*
X014635Y030795D01*
X014800Y030795D01*
X014855Y030740D01*
X014855Y030630D01*
X014800Y030575D01*
X014635Y030575D01*
X014044Y030260D02*
X014044Y030040D01*
X013988Y029985D01*
X013878Y029985D01*
X013823Y030040D01*
X013878Y030150D02*
X014044Y030150D01*
X014044Y030260D02*
X013988Y030315D01*
X013878Y030315D01*
X013823Y030260D01*
X013823Y030205D01*
X013878Y030150D01*
X013675Y030205D02*
X013675Y030260D01*
X013620Y030315D01*
X013510Y030315D01*
X013455Y030260D01*
X013675Y030205D02*
X013455Y029985D01*
X013675Y029985D01*
X013044Y030040D02*
X012988Y029985D01*
X012878Y029985D01*
X012823Y030040D01*
X012823Y030095D01*
X012878Y030150D01*
X012988Y030150D01*
X013044Y030095D01*
X013044Y030040D01*
X012988Y030150D02*
X013044Y030205D01*
X013044Y030260D01*
X012988Y030315D01*
X012878Y030315D01*
X012823Y030260D01*
X012823Y030205D01*
X012878Y030150D01*
X012675Y030205D02*
X012675Y030260D01*
X012620Y030315D01*
X012510Y030315D01*
X012455Y030260D01*
X012675Y030205D02*
X012455Y029985D01*
X012675Y029985D01*
X012229Y030880D02*
X012384Y031036D01*
X012307Y030958D02*
X012073Y031191D01*
X012073Y031036D01*
X011968Y030931D02*
X012046Y030697D01*
X011813Y030775D01*
X011843Y030315D02*
X012064Y030315D01*
X012064Y030260D01*
X011843Y030040D01*
X011843Y029985D01*
X011695Y029985D02*
X011475Y029985D01*
X011695Y030205D01*
X011695Y030260D01*
X011640Y030315D01*
X011530Y030315D01*
X011475Y030260D01*
X010884Y030235D02*
X010773Y030180D01*
X010663Y030070D01*
X010828Y030070D01*
X010884Y030015D01*
X010884Y029960D01*
X010828Y029905D01*
X010718Y029905D01*
X010663Y029960D01*
X010663Y030070D01*
X010515Y029905D02*
X010295Y029905D01*
X012308Y027120D02*
X012074Y026887D01*
X012230Y026731D02*
X012464Y026964D01*
X012308Y026964D01*
X012308Y027120D01*
X012490Y026782D02*
X012529Y026743D01*
X012374Y026587D01*
X012335Y026626D02*
X012413Y026548D01*
X012508Y026453D02*
X012664Y026608D01*
X012781Y026491D01*
X012781Y026414D01*
X012664Y026297D01*
X012769Y026192D02*
X012847Y026114D01*
X012808Y026153D02*
X012963Y026309D01*
X012925Y026348D01*
X013041Y026387D02*
X013080Y026426D01*
X012646Y026860D02*
X012607Y026821D01*
X012489Y031140D02*
X012528Y031179D01*
X012489Y031218D01*
X012450Y031179D01*
X012489Y031140D01*
X012580Y031310D02*
X012503Y031387D01*
X012619Y031504D01*
X012697Y031504D01*
X012736Y031465D01*
X012736Y031387D01*
X012658Y031310D01*
X012580Y031310D01*
X012503Y031387D02*
X012503Y031543D01*
X012542Y031660D01*
X012847Y033114D02*
X012769Y033192D01*
X012808Y033153D02*
X012963Y033309D01*
X012925Y033348D01*
X013041Y033387D02*
X013080Y033426D01*
X012781Y033414D02*
X012664Y033297D01*
X012781Y033414D02*
X012781Y033491D01*
X012664Y033608D01*
X012508Y033453D01*
X012413Y033548D02*
X012335Y033626D01*
X012374Y033587D02*
X012529Y033743D01*
X012490Y033782D01*
X012607Y033821D02*
X012646Y033860D01*
X012464Y033964D02*
X012230Y033731D01*
X012074Y033887D02*
X012308Y034120D01*
X012308Y033964D01*
X012464Y033964D01*
X015710Y027915D02*
X015655Y027860D01*
X015710Y027915D02*
X015820Y027915D01*
X015875Y027860D01*
X015875Y027805D01*
X015655Y027585D01*
X015875Y027585D01*
X016655Y027585D02*
X016875Y027585D01*
X016765Y027585D02*
X016765Y027915D01*
X016655Y027805D01*
X017339Y027986D02*
X017339Y028142D01*
X017339Y027986D02*
X017495Y027986D01*
X017655Y027860D02*
X017710Y027915D01*
X017820Y027915D01*
X017875Y027860D01*
X017655Y027640D01*
X017710Y027585D01*
X017820Y027585D01*
X017875Y027640D01*
X017875Y027860D01*
X017655Y027860D02*
X017655Y027640D01*
X018355Y027720D02*
X018410Y027665D01*
X018520Y027665D01*
X018575Y027720D01*
X018575Y027775D01*
X018520Y027830D01*
X018465Y027830D01*
X018520Y027830D02*
X018575Y027885D01*
X018575Y027940D01*
X018520Y027995D01*
X018410Y027995D01*
X018355Y027940D01*
X018723Y027995D02*
X018723Y027775D01*
X018833Y027665D01*
X018944Y027775D01*
X018944Y027995D01*
X019615Y027900D02*
X019615Y027680D01*
X019670Y027625D01*
X019780Y027625D01*
X019835Y027680D01*
X019835Y027790D01*
X019725Y027790D01*
X019615Y027900D02*
X019670Y027955D01*
X019780Y027955D01*
X019835Y027900D01*
X004512Y008911D02*
X004356Y008911D01*
X004356Y008755D01*
X003485Y009022D02*
X003485Y009132D01*
X003430Y009187D01*
X003375Y009187D01*
X003320Y009132D01*
X003320Y008966D01*
X003210Y008966D02*
X003430Y008966D01*
X003485Y009022D01*
X003485Y009445D02*
X003155Y009445D01*
X003155Y009555D02*
X003155Y009335D01*
X003210Y009187D02*
X003155Y009132D01*
X003155Y009022D01*
X003210Y008966D01*
X002845Y009022D02*
X002845Y009132D01*
X002790Y009187D01*
X002735Y009187D01*
X002680Y009132D01*
X002680Y009022D01*
X002625Y008966D01*
X002570Y008966D01*
X002515Y009022D01*
X002515Y009132D01*
X002570Y009187D01*
X002625Y009187D01*
X002680Y009132D01*
X002680Y009022D02*
X002735Y008966D01*
X002790Y008966D01*
X002845Y009022D01*
X002845Y009445D02*
X002515Y009445D01*
X002515Y009555D02*
X002515Y009335D01*
X002735Y009555D02*
X002845Y009445D01*
X003375Y009555D02*
X003485Y009445D01*
X004319Y007182D02*
X004319Y007026D01*
X004475Y007026D01*
X003375Y002555D02*
X003485Y002445D01*
X003155Y002445D01*
X003155Y002555D02*
X003155Y002335D01*
X003210Y002187D02*
X003155Y002132D01*
X003155Y002022D01*
X003210Y001966D01*
X003430Y001966D01*
X003485Y002022D01*
X003485Y002132D01*
X003430Y002187D01*
X003375Y002187D01*
X003320Y002132D01*
X003320Y001966D01*
X002845Y002022D02*
X002790Y001966D01*
X002735Y001966D01*
X002680Y002022D01*
X002680Y002132D01*
X002735Y002187D01*
X002790Y002187D01*
X002845Y002132D01*
X002845Y002022D01*
X002680Y002022D02*
X002625Y001966D01*
X002570Y001966D01*
X002515Y002022D01*
X002515Y002132D01*
X002570Y002187D01*
X002625Y002187D01*
X002680Y002132D01*
X002515Y002335D02*
X002515Y002555D01*
X002515Y002445D02*
X002845Y002445D01*
X002735Y002555D01*
X004356Y001911D02*
X004356Y001755D01*
X004356Y001911D02*
X004512Y001911D01*
D13*
X013664Y003172D02*
X013664Y003408D01*
X014136Y003408D02*
X014136Y003172D01*
X014564Y003812D02*
X014564Y004048D01*
X015036Y004048D02*
X015036Y003812D01*
X014136Y010172D02*
X014136Y010408D01*
X013664Y010408D02*
X013664Y010172D01*
X014564Y010812D02*
X014564Y011048D01*
X015036Y011048D02*
X015036Y010812D01*
X014136Y017172D02*
X014136Y017408D01*
X013664Y017408D02*
X013664Y017172D01*
X014564Y017812D02*
X014564Y018048D01*
X015036Y018048D02*
X015036Y017812D01*
X014136Y024172D02*
X014136Y024408D01*
X013664Y024408D02*
X013664Y024172D01*
X014564Y024812D02*
X014564Y025048D01*
X015036Y025048D02*
X015036Y024812D01*
X014136Y031172D02*
X014136Y031408D01*
X013664Y031408D02*
X013664Y031172D01*
X014564Y031812D02*
X014564Y032048D01*
X015036Y032048D02*
X015036Y031812D01*
X019030Y034350D02*
X019120Y034260D01*
X019210Y034350D01*
X019210Y034530D01*
X019030Y034530D02*
X019030Y034350D01*
X019334Y034305D02*
X019379Y034260D01*
X019469Y034260D01*
X019514Y034305D01*
X019514Y034395D01*
X019469Y034440D01*
X019379Y034440D01*
X019334Y034395D01*
X019334Y034305D01*
X019638Y034305D02*
X019683Y034260D01*
X019818Y034260D01*
X019818Y034440D01*
X019942Y034440D02*
X020032Y034440D01*
X019987Y034485D02*
X019987Y034305D01*
X020032Y034260D01*
X019638Y034305D02*
X019638Y034440D01*
X019210Y027530D02*
X019210Y027350D01*
X019120Y027260D01*
X019030Y027350D01*
X019030Y027530D01*
X019334Y027395D02*
X019334Y027305D01*
X019379Y027260D01*
X019469Y027260D01*
X019514Y027305D01*
X019514Y027395D01*
X019469Y027440D01*
X019379Y027440D01*
X019334Y027395D01*
X019638Y027440D02*
X019638Y027305D01*
X019683Y027260D01*
X019818Y027260D01*
X019818Y027440D01*
X019942Y027440D02*
X020032Y027440D01*
X019987Y027485D02*
X019987Y027305D01*
X020032Y027260D01*
X019987Y020485D02*
X019987Y020305D01*
X020032Y020260D01*
X020032Y020440D02*
X019942Y020440D01*
X019818Y020440D02*
X019818Y020260D01*
X019683Y020260D01*
X019638Y020305D01*
X019638Y020440D01*
X019514Y020395D02*
X019469Y020440D01*
X019379Y020440D01*
X019334Y020395D01*
X019334Y020305D01*
X019379Y020260D01*
X019469Y020260D01*
X019514Y020305D01*
X019514Y020395D01*
X019210Y020350D02*
X019210Y020530D01*
X019210Y020350D02*
X019120Y020260D01*
X019030Y020350D01*
X019030Y020530D01*
X019030Y013530D02*
X019030Y013350D01*
X019120Y013260D01*
X019210Y013350D01*
X019210Y013530D01*
X019334Y013395D02*
X019334Y013305D01*
X019379Y013260D01*
X019469Y013260D01*
X019514Y013305D01*
X019514Y013395D01*
X019469Y013440D01*
X019379Y013440D01*
X019334Y013395D01*
X019638Y013440D02*
X019638Y013305D01*
X019683Y013260D01*
X019818Y013260D01*
X019818Y013440D01*
X019942Y013440D02*
X020032Y013440D01*
X019987Y013485D02*
X019987Y013305D01*
X020032Y013260D01*
X019987Y006485D02*
X019987Y006305D01*
X020032Y006260D01*
X020032Y006440D02*
X019942Y006440D01*
X019818Y006440D02*
X019818Y006260D01*
X019683Y006260D01*
X019638Y006305D01*
X019638Y006440D01*
X019514Y006395D02*
X019469Y006440D01*
X019379Y006440D01*
X019334Y006395D01*
X019334Y006305D01*
X019379Y006260D01*
X019469Y006260D01*
X019514Y006305D01*
X019514Y006395D01*
X019210Y006350D02*
X019210Y006530D01*
X019210Y006350D02*
X019120Y006260D01*
X019030Y006350D01*
X019030Y006530D01*
D14*
X001260Y000950D02*
X001260Y035950D01*
X021260Y035950D01*
X021260Y000950D01*
X001260Y000950D01*
X002440Y002930D02*
X002990Y002930D01*
X002990Y003180D01*
X002890Y003180D01*
X002890Y002980D01*
X002990Y002930D02*
X003440Y002930D01*
X003440Y003380D01*
X002940Y003380D01*
X002690Y003630D01*
X002440Y003380D01*
X002440Y003680D01*
X003390Y003680D01*
X003390Y003830D01*
X003440Y003830D01*
X003440Y003380D01*
X002440Y003380D02*
X002440Y002930D01*
X003154Y004950D02*
X004366Y004950D01*
X004760Y005462D02*
X004760Y006438D01*
X004366Y006950D02*
X003154Y006950D01*
X002760Y006450D02*
X002760Y005462D01*
X003260Y005950D02*
X003262Y005994D01*
X003268Y006038D01*
X003278Y006081D01*
X003291Y006123D01*
X003308Y006164D01*
X003329Y006203D01*
X003353Y006240D01*
X003380Y006275D01*
X003410Y006307D01*
X003443Y006337D01*
X003479Y006363D01*
X003516Y006387D01*
X003556Y006406D01*
X003597Y006423D01*
X003640Y006435D01*
X003683Y006444D01*
X003727Y006449D01*
X003771Y006450D01*
X003815Y006447D01*
X003859Y006440D01*
X003902Y006429D01*
X003944Y006415D01*
X003984Y006397D01*
X004023Y006375D01*
X004059Y006351D01*
X004093Y006323D01*
X004125Y006292D01*
X004154Y006258D01*
X004180Y006222D01*
X004202Y006184D01*
X004221Y006144D01*
X004236Y006102D01*
X004248Y006060D01*
X004256Y006016D01*
X004260Y005972D01*
X004260Y005928D01*
X004256Y005884D01*
X004248Y005840D01*
X004236Y005798D01*
X004221Y005756D01*
X004202Y005716D01*
X004180Y005678D01*
X004154Y005642D01*
X004125Y005608D01*
X004093Y005577D01*
X004059Y005549D01*
X004023Y005525D01*
X003984Y005503D01*
X003944Y005485D01*
X003902Y005471D01*
X003859Y005460D01*
X003815Y005453D01*
X003771Y005450D01*
X003727Y005451D01*
X003683Y005456D01*
X003640Y005465D01*
X003597Y005477D01*
X003556Y005494D01*
X003516Y005513D01*
X003479Y005537D01*
X003443Y005563D01*
X003410Y005593D01*
X003380Y005625D01*
X003353Y005660D01*
X003329Y005697D01*
X003308Y005736D01*
X003291Y005777D01*
X003278Y005819D01*
X003268Y005862D01*
X003262Y005906D01*
X003260Y005950D01*
X001260Y007950D02*
X021260Y007950D01*
X020400Y008830D02*
X020260Y008830D01*
X020400Y008830D02*
X020100Y009130D01*
X020020Y009130D01*
X019860Y009290D01*
X020400Y008970D02*
X020400Y008830D01*
X019969Y009934D02*
X019063Y009934D01*
X017882Y009934D02*
X017882Y010584D01*
X017516Y010796D02*
X017516Y011347D01*
X017004Y011347D01*
X017004Y010796D01*
X017004Y011347D02*
X017004Y011504D01*
X017516Y011504D02*
X017516Y011347D01*
X017882Y012316D02*
X017882Y012966D01*
X017658Y013110D02*
X017658Y013209D01*
X017545Y013223D01*
X017517Y013308D01*
X017580Y013400D01*
X017517Y013463D01*
X017418Y013407D01*
X017333Y013435D01*
X017319Y013548D01*
X017220Y013548D01*
X017198Y013442D01*
X017114Y013400D01*
X017022Y013463D01*
X016958Y013400D01*
X017015Y013315D01*
X016979Y013223D01*
X016873Y013202D01*
X016880Y013110D01*
X016979Y013096D01*
X016993Y013053D01*
X017149Y013124D01*
X017234Y013039D02*
X017163Y012884D01*
X017205Y012869D01*
X017220Y012770D01*
X017312Y012763D01*
X017333Y012869D01*
X017425Y012905D01*
X017510Y012848D01*
X017573Y012912D01*
X017517Y012997D01*
X017552Y013089D01*
X017658Y013110D01*
X017234Y013039D02*
X017255Y013036D01*
X017276Y013035D01*
X017297Y013039D01*
X017317Y013046D01*
X017335Y013057D01*
X017351Y013070D01*
X017365Y013086D01*
X017376Y013105D01*
X017383Y013124D01*
X017387Y013145D01*
X017387Y013166D01*
X017383Y013187D01*
X017376Y013207D01*
X017365Y013225D01*
X017352Y013242D01*
X017335Y013255D01*
X017317Y013266D01*
X017297Y013273D01*
X017276Y013277D01*
X017255Y013277D01*
X017234Y013273D01*
X017215Y013266D01*
X017196Y013255D01*
X017180Y013241D01*
X017167Y013225D01*
X017156Y013207D01*
X017149Y013187D01*
X017145Y013166D01*
X017146Y013145D01*
X017149Y013124D01*
X019063Y012966D02*
X019969Y012966D01*
X019980Y013590D02*
X020220Y013830D01*
X020280Y013830D01*
X020460Y014010D01*
X020460Y013890D01*
X020460Y014010D02*
X020340Y014010D01*
X021260Y014950D02*
X001260Y014950D01*
X002440Y016930D02*
X002440Y017380D01*
X002690Y017630D01*
X002940Y017380D01*
X003440Y017380D01*
X003440Y016930D01*
X002990Y016930D01*
X002990Y017180D01*
X002890Y017180D01*
X002890Y016980D01*
X002990Y016930D02*
X002440Y016930D01*
X002440Y017380D02*
X002440Y017680D01*
X003390Y017680D01*
X003390Y017830D01*
X003440Y017830D01*
X003440Y017380D01*
X003154Y018950D02*
X004366Y018950D01*
X004760Y019462D02*
X004760Y020438D01*
X004366Y020950D02*
X003154Y020950D01*
X002760Y020450D02*
X002760Y019462D01*
X003260Y019950D02*
X003262Y019994D01*
X003268Y020038D01*
X003278Y020081D01*
X003291Y020123D01*
X003308Y020164D01*
X003329Y020203D01*
X003353Y020240D01*
X003380Y020275D01*
X003410Y020307D01*
X003443Y020337D01*
X003479Y020363D01*
X003516Y020387D01*
X003556Y020406D01*
X003597Y020423D01*
X003640Y020435D01*
X003683Y020444D01*
X003727Y020449D01*
X003771Y020450D01*
X003815Y020447D01*
X003859Y020440D01*
X003902Y020429D01*
X003944Y020415D01*
X003984Y020397D01*
X004023Y020375D01*
X004059Y020351D01*
X004093Y020323D01*
X004125Y020292D01*
X004154Y020258D01*
X004180Y020222D01*
X004202Y020184D01*
X004221Y020144D01*
X004236Y020102D01*
X004248Y020060D01*
X004256Y020016D01*
X004260Y019972D01*
X004260Y019928D01*
X004256Y019884D01*
X004248Y019840D01*
X004236Y019798D01*
X004221Y019756D01*
X004202Y019716D01*
X004180Y019678D01*
X004154Y019642D01*
X004125Y019608D01*
X004093Y019577D01*
X004059Y019549D01*
X004023Y019525D01*
X003984Y019503D01*
X003944Y019485D01*
X003902Y019471D01*
X003859Y019460D01*
X003815Y019453D01*
X003771Y019450D01*
X003727Y019451D01*
X003683Y019456D01*
X003640Y019465D01*
X003597Y019477D01*
X003556Y019494D01*
X003516Y019513D01*
X003479Y019537D01*
X003443Y019563D01*
X003410Y019593D01*
X003380Y019625D01*
X003353Y019660D01*
X003329Y019697D01*
X003308Y019736D01*
X003291Y019777D01*
X003278Y019819D01*
X003268Y019862D01*
X003262Y019906D01*
X003260Y019950D01*
X001260Y021950D02*
X021260Y021950D01*
X020400Y022830D02*
X020260Y022830D01*
X020400Y022830D02*
X020100Y023130D01*
X020020Y023130D01*
X019860Y023290D01*
X020400Y022970D02*
X020400Y022830D01*
X019969Y023934D02*
X019063Y023934D01*
X017882Y023934D02*
X017882Y024584D01*
X017516Y024796D02*
X017516Y025347D01*
X017004Y025347D01*
X017004Y024796D01*
X017004Y025347D02*
X017004Y025504D01*
X017516Y025504D02*
X017516Y025347D01*
X017882Y026316D02*
X017882Y026966D01*
X017658Y027110D02*
X017552Y027089D01*
X017517Y026997D01*
X017573Y026912D01*
X017510Y026848D01*
X017425Y026905D01*
X017333Y026869D01*
X017312Y026763D01*
X017220Y026770D01*
X017205Y026869D01*
X017163Y026884D01*
X017234Y027039D01*
X017149Y027124D02*
X016993Y027053D01*
X016979Y027096D01*
X016880Y027110D01*
X016873Y027202D01*
X016979Y027223D01*
X017015Y027315D01*
X016958Y027400D01*
X017022Y027463D01*
X017114Y027400D01*
X017198Y027442D01*
X017220Y027548D01*
X017319Y027548D01*
X017333Y027435D01*
X017418Y027407D01*
X017517Y027463D01*
X017580Y027400D01*
X017517Y027308D01*
X017545Y027223D01*
X017658Y027209D01*
X017658Y027110D01*
X017234Y027039D02*
X017255Y027036D01*
X017276Y027035D01*
X017297Y027039D01*
X017317Y027046D01*
X017335Y027057D01*
X017351Y027070D01*
X017365Y027086D01*
X017376Y027105D01*
X017383Y027124D01*
X017387Y027145D01*
X017387Y027166D01*
X017383Y027187D01*
X017376Y027207D01*
X017365Y027225D01*
X017352Y027242D01*
X017335Y027255D01*
X017317Y027266D01*
X017297Y027273D01*
X017276Y027277D01*
X017255Y027277D01*
X017234Y027273D01*
X017215Y027266D01*
X017196Y027255D01*
X017180Y027241D01*
X017167Y027225D01*
X017156Y027207D01*
X017149Y027187D01*
X017145Y027166D01*
X017146Y027145D01*
X017149Y027124D01*
X017134Y024106D02*
X016583Y024106D01*
X016583Y023594D01*
X017134Y023594D01*
X016583Y023594D02*
X016426Y023594D01*
X016426Y024106D02*
X016583Y024106D01*
X015155Y024182D02*
X015033Y024090D01*
X015033Y023909D01*
X015155Y024004D02*
X015039Y024080D01*
X015033Y024090D02*
X015033Y024271D01*
X014321Y026923D02*
X014140Y026923D01*
X014048Y027045D01*
X013959Y026923D02*
X014140Y026923D01*
X014150Y026929D02*
X014226Y027045D01*
X012876Y025561D02*
X012987Y025450D01*
X012876Y025339D01*
X010899Y023362D02*
X010621Y023362D01*
X010760Y020677D02*
X010649Y020566D01*
X010760Y020677D02*
X010871Y020566D01*
X012876Y018561D02*
X012987Y018450D01*
X012876Y018339D01*
X013959Y019923D02*
X014140Y019923D01*
X014048Y020045D01*
X014140Y019923D02*
X014321Y019923D01*
X014226Y020045D02*
X014150Y019929D01*
X015033Y017271D02*
X015033Y017090D01*
X015155Y017182D01*
X015033Y017090D02*
X015033Y016909D01*
X015155Y017004D02*
X015039Y017080D01*
X016426Y017106D02*
X016583Y017106D01*
X016583Y016594D01*
X017134Y016594D01*
X017134Y017106D02*
X016583Y017106D01*
X016583Y016594D02*
X016426Y016594D01*
X017004Y017796D02*
X017004Y018347D01*
X017516Y018347D01*
X017516Y017796D01*
X017882Y017584D02*
X017882Y016934D01*
X017516Y018347D02*
X017516Y018504D01*
X017004Y018504D02*
X017004Y018347D01*
X017882Y019316D02*
X017882Y019966D01*
X017658Y020110D02*
X017552Y020089D01*
X017517Y019997D01*
X017573Y019912D01*
X017510Y019848D01*
X017425Y019905D01*
X017333Y019869D01*
X017312Y019763D01*
X017220Y019770D01*
X017205Y019869D01*
X017163Y019884D01*
X017234Y020039D01*
X017149Y020124D02*
X016993Y020053D01*
X016979Y020096D01*
X016880Y020110D01*
X016873Y020202D01*
X016979Y020223D01*
X017015Y020315D01*
X016958Y020400D01*
X017022Y020463D01*
X017114Y020400D01*
X017198Y020442D01*
X017220Y020548D01*
X017319Y020548D01*
X017333Y020435D01*
X017418Y020407D01*
X017517Y020463D01*
X017580Y020400D01*
X017517Y020308D01*
X017545Y020223D01*
X017658Y020209D01*
X017658Y020110D01*
X017234Y020039D02*
X017255Y020036D01*
X017276Y020035D01*
X017297Y020039D01*
X017317Y020046D01*
X017335Y020057D01*
X017351Y020070D01*
X017365Y020086D01*
X017376Y020105D01*
X017383Y020124D01*
X017387Y020145D01*
X017387Y020166D01*
X017383Y020187D01*
X017376Y020207D01*
X017365Y020225D01*
X017352Y020242D01*
X017335Y020255D01*
X017317Y020266D01*
X017297Y020273D01*
X017276Y020277D01*
X017255Y020277D01*
X017234Y020273D01*
X017215Y020266D01*
X017196Y020255D01*
X017180Y020241D01*
X017167Y020225D01*
X017156Y020207D01*
X017149Y020187D01*
X017145Y020166D01*
X017146Y020145D01*
X017149Y020124D01*
X019063Y019966D02*
X019969Y019966D01*
X019980Y020590D02*
X020220Y020830D01*
X020280Y020830D01*
X020460Y021010D01*
X020460Y020890D01*
X020460Y021010D02*
X020340Y021010D01*
X019969Y016934D02*
X019063Y016934D01*
X019860Y016290D02*
X020020Y016130D01*
X020100Y016130D01*
X020400Y015830D01*
X020260Y015830D01*
X020400Y015830D02*
X020400Y015970D01*
X017134Y010106D02*
X016583Y010106D01*
X016583Y009594D01*
X017134Y009594D01*
X016583Y009594D02*
X016426Y009594D01*
X016426Y010106D02*
X016583Y010106D01*
X015155Y010182D02*
X015033Y010090D01*
X015033Y009909D01*
X015155Y010004D02*
X015039Y010080D01*
X015033Y010090D02*
X015033Y010271D01*
X014321Y012923D02*
X014140Y012923D01*
X014048Y013045D01*
X013959Y012923D02*
X014140Y012923D01*
X014150Y012929D02*
X014226Y013045D01*
X012876Y011561D02*
X012987Y011450D01*
X012876Y011339D01*
X010899Y009362D02*
X010621Y009362D01*
X010760Y006677D02*
X010649Y006566D01*
X010760Y006677D02*
X010871Y006566D01*
X012876Y004561D02*
X012987Y004450D01*
X012876Y004339D01*
X013959Y005923D02*
X014140Y005923D01*
X014048Y006045D01*
X014140Y005923D02*
X014321Y005923D01*
X014226Y006045D02*
X014150Y005929D01*
X015033Y003271D02*
X015033Y003090D01*
X015155Y003182D01*
X015033Y003090D02*
X015033Y002909D01*
X015155Y003004D02*
X015039Y003080D01*
X016426Y003106D02*
X016583Y003106D01*
X016583Y002594D01*
X017134Y002594D01*
X017134Y003106D02*
X016583Y003106D01*
X016583Y002594D02*
X016426Y002594D01*
X017004Y003796D02*
X017004Y004347D01*
X017516Y004347D01*
X017516Y003796D01*
X017882Y003584D02*
X017882Y002934D01*
X017516Y004347D02*
X017516Y004504D01*
X017882Y005316D02*
X017882Y005966D01*
X017658Y006110D02*
X017658Y006209D01*
X017545Y006223D01*
X017517Y006308D01*
X017580Y006400D01*
X017517Y006463D01*
X017418Y006407D01*
X017333Y006435D01*
X017319Y006548D01*
X017220Y006548D01*
X017198Y006442D01*
X017114Y006400D01*
X017022Y006463D01*
X016958Y006400D01*
X017015Y006315D01*
X016979Y006223D01*
X016873Y006202D01*
X016880Y006110D01*
X016979Y006096D01*
X016993Y006053D01*
X017149Y006124D01*
X017234Y006039D02*
X017163Y005884D01*
X017205Y005869D01*
X017220Y005770D01*
X017312Y005763D01*
X017333Y005869D01*
X017425Y005905D01*
X017510Y005848D01*
X017573Y005912D01*
X017517Y005997D01*
X017552Y006089D01*
X017658Y006110D01*
X017234Y006039D02*
X017255Y006036D01*
X017276Y006035D01*
X017297Y006039D01*
X017317Y006046D01*
X017335Y006057D01*
X017351Y006070D01*
X017365Y006086D01*
X017376Y006105D01*
X017383Y006124D01*
X017387Y006145D01*
X017387Y006166D01*
X017383Y006187D01*
X017376Y006207D01*
X017365Y006225D01*
X017352Y006242D01*
X017335Y006255D01*
X017317Y006266D01*
X017297Y006273D01*
X017276Y006277D01*
X017255Y006277D01*
X017234Y006273D01*
X017215Y006266D01*
X017196Y006255D01*
X017180Y006241D01*
X017167Y006225D01*
X017156Y006207D01*
X017149Y006187D01*
X017145Y006166D01*
X017146Y006145D01*
X017149Y006124D01*
X017004Y004504D02*
X017004Y004347D01*
X019063Y002934D02*
X019969Y002934D01*
X019860Y002290D02*
X020020Y002130D01*
X020100Y002130D01*
X020400Y001830D01*
X020260Y001830D01*
X020400Y001830D02*
X020400Y001970D01*
X019969Y005966D02*
X019063Y005966D01*
X019980Y006590D02*
X020220Y006830D01*
X020280Y006830D01*
X020460Y007010D01*
X020460Y006890D01*
X020460Y007010D02*
X020340Y007010D01*
X010899Y002362D02*
X010621Y002362D01*
X008644Y004339D02*
X008533Y004450D01*
X008644Y004561D01*
X007940Y003418D02*
X007940Y002430D01*
X007546Y001930D02*
X006334Y001930D01*
X005940Y002442D02*
X005940Y003418D01*
X006334Y003930D02*
X007546Y003930D01*
X006440Y002930D02*
X006442Y002974D01*
X006448Y003018D01*
X006458Y003061D01*
X006471Y003103D01*
X006488Y003144D01*
X006509Y003183D01*
X006533Y003220D01*
X006560Y003255D01*
X006590Y003287D01*
X006623Y003317D01*
X006659Y003343D01*
X006696Y003367D01*
X006736Y003386D01*
X006777Y003403D01*
X006820Y003415D01*
X006863Y003424D01*
X006907Y003429D01*
X006951Y003430D01*
X006995Y003427D01*
X007039Y003420D01*
X007082Y003409D01*
X007124Y003395D01*
X007164Y003377D01*
X007203Y003355D01*
X007239Y003331D01*
X007273Y003303D01*
X007305Y003272D01*
X007334Y003238D01*
X007360Y003202D01*
X007382Y003164D01*
X007401Y003124D01*
X007416Y003082D01*
X007428Y003040D01*
X007436Y002996D01*
X007440Y002952D01*
X007440Y002908D01*
X007436Y002864D01*
X007428Y002820D01*
X007416Y002778D01*
X007401Y002736D01*
X007382Y002696D01*
X007360Y002658D01*
X007334Y002622D01*
X007305Y002588D01*
X007273Y002557D01*
X007239Y002529D01*
X007203Y002505D01*
X007164Y002483D01*
X007124Y002465D01*
X007082Y002451D01*
X007039Y002440D01*
X006995Y002433D01*
X006951Y002430D01*
X006907Y002431D01*
X006863Y002436D01*
X006820Y002445D01*
X006777Y002457D01*
X006736Y002474D01*
X006696Y002493D01*
X006659Y002517D01*
X006623Y002543D01*
X006590Y002573D01*
X006560Y002605D01*
X006533Y002640D01*
X006509Y002677D01*
X006488Y002716D01*
X006471Y002757D01*
X006458Y002799D01*
X006448Y002842D01*
X006442Y002886D01*
X006440Y002930D01*
X006334Y008930D02*
X007546Y008930D01*
X007940Y009430D02*
X007940Y010418D01*
X007546Y010930D02*
X006334Y010930D01*
X005940Y010418D02*
X005940Y009442D01*
X006440Y009930D02*
X006442Y009974D01*
X006448Y010018D01*
X006458Y010061D01*
X006471Y010103D01*
X006488Y010144D01*
X006509Y010183D01*
X006533Y010220D01*
X006560Y010255D01*
X006590Y010287D01*
X006623Y010317D01*
X006659Y010343D01*
X006696Y010367D01*
X006736Y010386D01*
X006777Y010403D01*
X006820Y010415D01*
X006863Y010424D01*
X006907Y010429D01*
X006951Y010430D01*
X006995Y010427D01*
X007039Y010420D01*
X007082Y010409D01*
X007124Y010395D01*
X007164Y010377D01*
X007203Y010355D01*
X007239Y010331D01*
X007273Y010303D01*
X007305Y010272D01*
X007334Y010238D01*
X007360Y010202D01*
X007382Y010164D01*
X007401Y010124D01*
X007416Y010082D01*
X007428Y010040D01*
X007436Y009996D01*
X007440Y009952D01*
X007440Y009908D01*
X007436Y009864D01*
X007428Y009820D01*
X007416Y009778D01*
X007401Y009736D01*
X007382Y009696D01*
X007360Y009658D01*
X007334Y009622D01*
X007305Y009588D01*
X007273Y009557D01*
X007239Y009529D01*
X007203Y009505D01*
X007164Y009483D01*
X007124Y009465D01*
X007082Y009451D01*
X007039Y009440D01*
X006995Y009433D01*
X006951Y009430D01*
X006907Y009431D01*
X006863Y009436D01*
X006820Y009445D01*
X006777Y009457D01*
X006736Y009474D01*
X006696Y009493D01*
X006659Y009517D01*
X006623Y009543D01*
X006590Y009573D01*
X006560Y009605D01*
X006533Y009640D01*
X006509Y009677D01*
X006488Y009716D01*
X006471Y009757D01*
X006458Y009799D01*
X006448Y009842D01*
X006442Y009886D01*
X006440Y009930D01*
X004760Y012462D02*
X004760Y013438D01*
X004366Y013950D02*
X003154Y013950D01*
X002760Y013450D02*
X002760Y012462D01*
X003154Y011950D02*
X004366Y011950D01*
X003260Y012950D02*
X003262Y012994D01*
X003268Y013038D01*
X003278Y013081D01*
X003291Y013123D01*
X003308Y013164D01*
X003329Y013203D01*
X003353Y013240D01*
X003380Y013275D01*
X003410Y013307D01*
X003443Y013337D01*
X003479Y013363D01*
X003516Y013387D01*
X003556Y013406D01*
X003597Y013423D01*
X003640Y013435D01*
X003683Y013444D01*
X003727Y013449D01*
X003771Y013450D01*
X003815Y013447D01*
X003859Y013440D01*
X003902Y013429D01*
X003944Y013415D01*
X003984Y013397D01*
X004023Y013375D01*
X004059Y013351D01*
X004093Y013323D01*
X004125Y013292D01*
X004154Y013258D01*
X004180Y013222D01*
X004202Y013184D01*
X004221Y013144D01*
X004236Y013102D01*
X004248Y013060D01*
X004256Y013016D01*
X004260Y012972D01*
X004260Y012928D01*
X004256Y012884D01*
X004248Y012840D01*
X004236Y012798D01*
X004221Y012756D01*
X004202Y012716D01*
X004180Y012678D01*
X004154Y012642D01*
X004125Y012608D01*
X004093Y012577D01*
X004059Y012549D01*
X004023Y012525D01*
X003984Y012503D01*
X003944Y012485D01*
X003902Y012471D01*
X003859Y012460D01*
X003815Y012453D01*
X003771Y012450D01*
X003727Y012451D01*
X003683Y012456D01*
X003640Y012465D01*
X003597Y012477D01*
X003556Y012494D01*
X003516Y012513D01*
X003479Y012537D01*
X003443Y012563D01*
X003410Y012593D01*
X003380Y012625D01*
X003353Y012660D01*
X003329Y012697D01*
X003308Y012736D01*
X003291Y012777D01*
X003278Y012819D01*
X003268Y012862D01*
X003262Y012906D01*
X003260Y012950D01*
X003390Y010830D02*
X003440Y010830D01*
X003440Y010380D01*
X002940Y010380D01*
X002690Y010630D01*
X002440Y010380D01*
X002440Y010680D01*
X003390Y010680D01*
X003390Y010830D01*
X003440Y010380D02*
X003440Y009930D01*
X002990Y009930D01*
X002990Y010180D01*
X002890Y010180D01*
X002890Y009980D01*
X002990Y009930D02*
X002440Y009930D01*
X002440Y010380D01*
X005940Y016442D02*
X005940Y017418D01*
X006334Y017930D02*
X007546Y017930D01*
X007940Y017418D02*
X007940Y016430D01*
X007546Y015930D02*
X006334Y015930D01*
X006440Y016930D02*
X006442Y016974D01*
X006448Y017018D01*
X006458Y017061D01*
X006471Y017103D01*
X006488Y017144D01*
X006509Y017183D01*
X006533Y017220D01*
X006560Y017255D01*
X006590Y017287D01*
X006623Y017317D01*
X006659Y017343D01*
X006696Y017367D01*
X006736Y017386D01*
X006777Y017403D01*
X006820Y017415D01*
X006863Y017424D01*
X006907Y017429D01*
X006951Y017430D01*
X006995Y017427D01*
X007039Y017420D01*
X007082Y017409D01*
X007124Y017395D01*
X007164Y017377D01*
X007203Y017355D01*
X007239Y017331D01*
X007273Y017303D01*
X007305Y017272D01*
X007334Y017238D01*
X007360Y017202D01*
X007382Y017164D01*
X007401Y017124D01*
X007416Y017082D01*
X007428Y017040D01*
X007436Y016996D01*
X007440Y016952D01*
X007440Y016908D01*
X007436Y016864D01*
X007428Y016820D01*
X007416Y016778D01*
X007401Y016736D01*
X007382Y016696D01*
X007360Y016658D01*
X007334Y016622D01*
X007305Y016588D01*
X007273Y016557D01*
X007239Y016529D01*
X007203Y016505D01*
X007164Y016483D01*
X007124Y016465D01*
X007082Y016451D01*
X007039Y016440D01*
X006995Y016433D01*
X006951Y016430D01*
X006907Y016431D01*
X006863Y016436D01*
X006820Y016445D01*
X006777Y016457D01*
X006736Y016474D01*
X006696Y016493D01*
X006659Y016517D01*
X006623Y016543D01*
X006590Y016573D01*
X006560Y016605D01*
X006533Y016640D01*
X006509Y016677D01*
X006488Y016716D01*
X006471Y016757D01*
X006458Y016799D01*
X006448Y016842D01*
X006442Y016886D01*
X006440Y016930D01*
X008533Y018450D02*
X008644Y018339D01*
X008533Y018450D02*
X008644Y018561D01*
X010621Y016362D02*
X010899Y016362D01*
X010760Y013677D02*
X010649Y013566D01*
X010760Y013677D02*
X010871Y013566D01*
X008644Y011561D02*
X008533Y011450D01*
X008644Y011339D01*
X007546Y022930D02*
X006334Y022930D01*
X005940Y023442D02*
X005940Y024418D01*
X006334Y024930D02*
X007546Y024930D01*
X007940Y024418D02*
X007940Y023430D01*
X006440Y023930D02*
X006442Y023974D01*
X006448Y024018D01*
X006458Y024061D01*
X006471Y024103D01*
X006488Y024144D01*
X006509Y024183D01*
X006533Y024220D01*
X006560Y024255D01*
X006590Y024287D01*
X006623Y024317D01*
X006659Y024343D01*
X006696Y024367D01*
X006736Y024386D01*
X006777Y024403D01*
X006820Y024415D01*
X006863Y024424D01*
X006907Y024429D01*
X006951Y024430D01*
X006995Y024427D01*
X007039Y024420D01*
X007082Y024409D01*
X007124Y024395D01*
X007164Y024377D01*
X007203Y024355D01*
X007239Y024331D01*
X007273Y024303D01*
X007305Y024272D01*
X007334Y024238D01*
X007360Y024202D01*
X007382Y024164D01*
X007401Y024124D01*
X007416Y024082D01*
X007428Y024040D01*
X007436Y023996D01*
X007440Y023952D01*
X007440Y023908D01*
X007436Y023864D01*
X007428Y023820D01*
X007416Y023778D01*
X007401Y023736D01*
X007382Y023696D01*
X007360Y023658D01*
X007334Y023622D01*
X007305Y023588D01*
X007273Y023557D01*
X007239Y023529D01*
X007203Y023505D01*
X007164Y023483D01*
X007124Y023465D01*
X007082Y023451D01*
X007039Y023440D01*
X006995Y023433D01*
X006951Y023430D01*
X006907Y023431D01*
X006863Y023436D01*
X006820Y023445D01*
X006777Y023457D01*
X006736Y023474D01*
X006696Y023493D01*
X006659Y023517D01*
X006623Y023543D01*
X006590Y023573D01*
X006560Y023605D01*
X006533Y023640D01*
X006509Y023677D01*
X006488Y023716D01*
X006471Y023757D01*
X006458Y023799D01*
X006448Y023842D01*
X006442Y023886D01*
X006440Y023930D01*
X004760Y026462D02*
X004760Y027438D01*
X004366Y027950D02*
X003154Y027950D01*
X002760Y027450D02*
X002760Y026462D01*
X003154Y025950D02*
X004366Y025950D01*
X003260Y026950D02*
X003262Y026994D01*
X003268Y027038D01*
X003278Y027081D01*
X003291Y027123D01*
X003308Y027164D01*
X003329Y027203D01*
X003353Y027240D01*
X003380Y027275D01*
X003410Y027307D01*
X003443Y027337D01*
X003479Y027363D01*
X003516Y027387D01*
X003556Y027406D01*
X003597Y027423D01*
X003640Y027435D01*
X003683Y027444D01*
X003727Y027449D01*
X003771Y027450D01*
X003815Y027447D01*
X003859Y027440D01*
X003902Y027429D01*
X003944Y027415D01*
X003984Y027397D01*
X004023Y027375D01*
X004059Y027351D01*
X004093Y027323D01*
X004125Y027292D01*
X004154Y027258D01*
X004180Y027222D01*
X004202Y027184D01*
X004221Y027144D01*
X004236Y027102D01*
X004248Y027060D01*
X004256Y027016D01*
X004260Y026972D01*
X004260Y026928D01*
X004256Y026884D01*
X004248Y026840D01*
X004236Y026798D01*
X004221Y026756D01*
X004202Y026716D01*
X004180Y026678D01*
X004154Y026642D01*
X004125Y026608D01*
X004093Y026577D01*
X004059Y026549D01*
X004023Y026525D01*
X003984Y026503D01*
X003944Y026485D01*
X003902Y026471D01*
X003859Y026460D01*
X003815Y026453D01*
X003771Y026450D01*
X003727Y026451D01*
X003683Y026456D01*
X003640Y026465D01*
X003597Y026477D01*
X003556Y026494D01*
X003516Y026513D01*
X003479Y026537D01*
X003443Y026563D01*
X003410Y026593D01*
X003380Y026625D01*
X003353Y026660D01*
X003329Y026697D01*
X003308Y026736D01*
X003291Y026777D01*
X003278Y026819D01*
X003268Y026862D01*
X003262Y026906D01*
X003260Y026950D01*
X003390Y024830D02*
X003440Y024830D01*
X003440Y024380D01*
X002940Y024380D01*
X002690Y024630D01*
X002440Y024380D01*
X002440Y024680D01*
X003390Y024680D01*
X003390Y024830D01*
X003440Y024380D02*
X003440Y023930D01*
X002990Y023930D01*
X002990Y024180D01*
X002890Y024180D01*
X002890Y023980D01*
X002990Y023930D02*
X002440Y023930D01*
X002440Y024380D01*
X001260Y028950D02*
X021260Y028950D01*
X020400Y029830D02*
X020260Y029830D01*
X020400Y029830D02*
X020100Y030130D01*
X020020Y030130D01*
X019860Y030290D01*
X019969Y030934D02*
X019063Y030934D01*
X017882Y030934D02*
X017882Y031584D01*
X017516Y031796D02*
X017516Y032347D01*
X017004Y032347D01*
X017004Y031796D01*
X017004Y032347D02*
X017004Y032504D01*
X017516Y032504D02*
X017516Y032347D01*
X017882Y033316D02*
X017882Y033966D01*
X017658Y034110D02*
X017552Y034089D01*
X017517Y033997D01*
X017573Y033912D01*
X017510Y033848D01*
X017425Y033905D01*
X017333Y033869D01*
X017312Y033763D01*
X017220Y033770D01*
X017205Y033869D01*
X017163Y033884D01*
X017234Y034039D01*
X017149Y034124D02*
X016993Y034053D01*
X016979Y034096D01*
X016880Y034110D01*
X016873Y034202D01*
X016979Y034223D01*
X017015Y034315D01*
X016958Y034400D01*
X017022Y034463D01*
X017114Y034400D01*
X017198Y034442D01*
X017220Y034548D01*
X017319Y034548D01*
X017333Y034435D01*
X017418Y034407D01*
X017517Y034463D01*
X017580Y034400D01*
X017517Y034308D01*
X017545Y034223D01*
X017658Y034209D01*
X017658Y034110D01*
X017234Y034039D02*
X017255Y034036D01*
X017276Y034035D01*
X017297Y034039D01*
X017317Y034046D01*
X017335Y034057D01*
X017351Y034070D01*
X017365Y034086D01*
X017376Y034105D01*
X017383Y034124D01*
X017387Y034145D01*
X017387Y034166D01*
X017383Y034187D01*
X017376Y034207D01*
X017365Y034225D01*
X017352Y034242D01*
X017335Y034255D01*
X017317Y034266D01*
X017297Y034273D01*
X017276Y034277D01*
X017255Y034277D01*
X017234Y034273D01*
X017215Y034266D01*
X017196Y034255D01*
X017180Y034241D01*
X017167Y034225D01*
X017156Y034207D01*
X017149Y034187D01*
X017145Y034166D01*
X017146Y034145D01*
X017149Y034124D01*
X017134Y031106D02*
X016583Y031106D01*
X016583Y030594D01*
X017134Y030594D01*
X016583Y030594D02*
X016426Y030594D01*
X016426Y031106D02*
X016583Y031106D01*
X015155Y031182D02*
X015033Y031090D01*
X015033Y030909D01*
X015155Y031004D02*
X015039Y031080D01*
X015033Y031090D02*
X015033Y031271D01*
X014321Y033923D02*
X014140Y033923D01*
X014048Y034045D01*
X013959Y033923D02*
X014140Y033923D01*
X014150Y033929D02*
X014226Y034045D01*
X012876Y032561D02*
X012987Y032450D01*
X012876Y032339D01*
X010899Y030362D02*
X010621Y030362D01*
X010760Y027677D02*
X010649Y027566D01*
X010760Y027677D02*
X010871Y027566D01*
X008644Y025561D02*
X008533Y025450D01*
X008644Y025339D01*
X007546Y029930D02*
X006334Y029930D01*
X005940Y030442D02*
X005940Y031418D01*
X006334Y031930D02*
X007546Y031930D01*
X007940Y031418D02*
X007940Y030430D01*
X006440Y030930D02*
X006442Y030974D01*
X006448Y031018D01*
X006458Y031061D01*
X006471Y031103D01*
X006488Y031144D01*
X006509Y031183D01*
X006533Y031220D01*
X006560Y031255D01*
X006590Y031287D01*
X006623Y031317D01*
X006659Y031343D01*
X006696Y031367D01*
X006736Y031386D01*
X006777Y031403D01*
X006820Y031415D01*
X006863Y031424D01*
X006907Y031429D01*
X006951Y031430D01*
X006995Y031427D01*
X007039Y031420D01*
X007082Y031409D01*
X007124Y031395D01*
X007164Y031377D01*
X007203Y031355D01*
X007239Y031331D01*
X007273Y031303D01*
X007305Y031272D01*
X007334Y031238D01*
X007360Y031202D01*
X007382Y031164D01*
X007401Y031124D01*
X007416Y031082D01*
X007428Y031040D01*
X007436Y030996D01*
X007440Y030952D01*
X007440Y030908D01*
X007436Y030864D01*
X007428Y030820D01*
X007416Y030778D01*
X007401Y030736D01*
X007382Y030696D01*
X007360Y030658D01*
X007334Y030622D01*
X007305Y030588D01*
X007273Y030557D01*
X007239Y030529D01*
X007203Y030505D01*
X007164Y030483D01*
X007124Y030465D01*
X007082Y030451D01*
X007039Y030440D01*
X006995Y030433D01*
X006951Y030430D01*
X006907Y030431D01*
X006863Y030436D01*
X006820Y030445D01*
X006777Y030457D01*
X006736Y030474D01*
X006696Y030493D01*
X006659Y030517D01*
X006623Y030543D01*
X006590Y030573D01*
X006560Y030605D01*
X006533Y030640D01*
X006509Y030677D01*
X006488Y030716D01*
X006471Y030757D01*
X006458Y030799D01*
X006448Y030842D01*
X006442Y030886D01*
X006440Y030930D01*
X004760Y033462D02*
X004760Y034438D01*
X004366Y034950D02*
X003154Y034950D01*
X002760Y034450D02*
X002760Y033462D01*
X003154Y032950D02*
X004366Y032950D01*
X003260Y033950D02*
X003262Y033994D01*
X003268Y034038D01*
X003278Y034081D01*
X003291Y034123D01*
X003308Y034164D01*
X003329Y034203D01*
X003353Y034240D01*
X003380Y034275D01*
X003410Y034307D01*
X003443Y034337D01*
X003479Y034363D01*
X003516Y034387D01*
X003556Y034406D01*
X003597Y034423D01*
X003640Y034435D01*
X003683Y034444D01*
X003727Y034449D01*
X003771Y034450D01*
X003815Y034447D01*
X003859Y034440D01*
X003902Y034429D01*
X003944Y034415D01*
X003984Y034397D01*
X004023Y034375D01*
X004059Y034351D01*
X004093Y034323D01*
X004125Y034292D01*
X004154Y034258D01*
X004180Y034222D01*
X004202Y034184D01*
X004221Y034144D01*
X004236Y034102D01*
X004248Y034060D01*
X004256Y034016D01*
X004260Y033972D01*
X004260Y033928D01*
X004256Y033884D01*
X004248Y033840D01*
X004236Y033798D01*
X004221Y033756D01*
X004202Y033716D01*
X004180Y033678D01*
X004154Y033642D01*
X004125Y033608D01*
X004093Y033577D01*
X004059Y033549D01*
X004023Y033525D01*
X003984Y033503D01*
X003944Y033485D01*
X003902Y033471D01*
X003859Y033460D01*
X003815Y033453D01*
X003771Y033450D01*
X003727Y033451D01*
X003683Y033456D01*
X003640Y033465D01*
X003597Y033477D01*
X003556Y033494D01*
X003516Y033513D01*
X003479Y033537D01*
X003443Y033563D01*
X003410Y033593D01*
X003380Y033625D01*
X003353Y033660D01*
X003329Y033697D01*
X003308Y033736D01*
X003291Y033777D01*
X003278Y033819D01*
X003268Y033862D01*
X003262Y033906D01*
X003260Y033950D01*
X003390Y031830D02*
X003440Y031830D01*
X003440Y031380D01*
X002940Y031380D01*
X002690Y031630D01*
X002440Y031380D01*
X002440Y031680D01*
X003390Y031680D01*
X003390Y031830D01*
X003440Y031380D02*
X003440Y030930D01*
X002990Y030930D01*
X002990Y031180D01*
X002890Y031180D01*
X002890Y030980D01*
X002990Y030930D02*
X002440Y030930D01*
X002440Y031380D01*
X008533Y032450D02*
X008644Y032339D01*
X008533Y032450D02*
X008644Y032561D01*
X010649Y034566D02*
X010760Y034677D01*
X010871Y034566D01*
X019063Y033966D02*
X019969Y033966D01*
X019980Y034590D02*
X020220Y034830D01*
X020280Y034830D01*
X020460Y035010D01*
X020460Y034890D01*
X020460Y035010D02*
X020340Y035010D01*
X020400Y029970D02*
X020400Y029830D01*
X020460Y028010D02*
X020460Y027890D01*
X020460Y028010D02*
X020340Y028010D01*
X020460Y028010D02*
X020280Y027830D01*
X020220Y027830D01*
X019980Y027590D01*
X019969Y026966D02*
X019063Y026966D01*
D15*
X017260Y025150D02*
X017560Y024850D01*
X017560Y024530D01*
X017640Y024450D01*
X017820Y024450D01*
X016780Y023850D02*
X016780Y023250D01*
X017140Y022890D01*
X019060Y022890D01*
X016380Y022970D02*
X015800Y022970D01*
X015640Y023130D01*
X015640Y024850D01*
X015540Y024950D01*
X015380Y024950D01*
X014780Y025850D02*
X014040Y025850D01*
X013800Y025610D01*
X013800Y025430D01*
X015800Y029970D02*
X015640Y030130D01*
X015640Y031850D01*
X015540Y031950D01*
X015380Y031950D01*
X014780Y032850D02*
X014040Y032850D01*
X013800Y032610D01*
X013800Y032430D01*
X015800Y029970D02*
X016380Y029970D01*
X016780Y030250D02*
X016780Y030850D01*
X016780Y030250D02*
X017140Y029890D01*
X019060Y029890D01*
X017820Y031450D02*
X017640Y031450D01*
X017560Y031530D01*
X017560Y031850D01*
X017260Y032150D01*
X014780Y018850D02*
X014040Y018850D01*
X013800Y018610D01*
X013800Y018430D01*
X015380Y017950D02*
X015540Y017950D01*
X015640Y017850D01*
X015640Y016130D01*
X015800Y015970D01*
X016380Y015970D01*
X016780Y016250D02*
X016780Y016850D01*
X016780Y016250D02*
X017140Y015890D01*
X019060Y015890D01*
X017820Y017450D02*
X017640Y017450D01*
X017560Y017530D01*
X017560Y017850D01*
X017260Y018150D01*
X014780Y011850D02*
X014040Y011850D01*
X013800Y011610D01*
X013800Y011430D01*
X015380Y010950D02*
X015540Y010950D01*
X015640Y010850D01*
X015640Y009130D01*
X015800Y008970D01*
X016380Y008970D01*
X016780Y009250D02*
X016780Y009850D01*
X016780Y009250D02*
X017140Y008890D01*
X019060Y008890D01*
X017820Y010450D02*
X017640Y010450D01*
X017560Y010530D01*
X017560Y010850D01*
X017260Y011150D01*
X014780Y004850D02*
X014040Y004850D01*
X013800Y004610D01*
X013800Y004430D01*
X015380Y003950D02*
X015540Y003950D01*
X015640Y003850D01*
X015640Y002130D01*
X015800Y001970D01*
X016380Y001970D01*
X016780Y002250D02*
X016780Y002850D01*
X016780Y002250D02*
X017140Y001890D01*
X019060Y001890D01*
X017820Y003450D02*
X017640Y003450D01*
X017560Y003530D01*
X017560Y003850D01*
X017260Y004150D01*
D16*
X016752Y003950D02*
X016728Y003950D01*
X013020Y002882D02*
X013020Y002858D01*
X008869Y002918D02*
X008845Y002918D01*
X007160Y004378D02*
X007160Y004402D01*
X007200Y006238D02*
X007200Y006262D01*
X005820Y004402D02*
X005820Y004378D01*
X004180Y003742D02*
X004180Y003718D01*
X004180Y002362D02*
X004180Y002338D01*
X004180Y009338D02*
X004180Y009362D01*
X004180Y010718D02*
X004180Y010742D01*
X005820Y011378D02*
X005820Y011402D01*
X007160Y011402D02*
X007160Y011378D01*
X007200Y013238D02*
X007200Y013262D01*
X008845Y009918D02*
X008869Y009918D01*
X013020Y009858D02*
X013020Y009882D01*
X016728Y010950D02*
X016752Y010950D01*
X013020Y016858D02*
X013020Y016882D01*
X016728Y017950D02*
X016752Y017950D01*
X013020Y023858D02*
X013020Y023882D01*
X016728Y024950D02*
X016752Y024950D01*
X013020Y030858D02*
X013020Y030882D01*
X016728Y031950D02*
X016752Y031950D01*
X008869Y030918D02*
X008845Y030918D01*
X007160Y032378D02*
X007160Y032402D01*
X007200Y034238D02*
X007200Y034262D01*
X005820Y032402D02*
X005820Y032378D01*
X004180Y031742D02*
X004180Y031718D01*
X004180Y030362D02*
X004180Y030338D01*
X007200Y027262D02*
X007200Y027238D01*
X007160Y025402D02*
X007160Y025378D01*
X005820Y025402D02*
X005820Y025378D01*
X004180Y024742D02*
X004180Y024718D01*
X004180Y023362D02*
X004180Y023338D01*
X007200Y020262D02*
X007200Y020238D01*
X007160Y018402D02*
X007160Y018378D01*
X005820Y018402D02*
X005820Y018378D01*
X004180Y017742D02*
X004180Y017718D01*
X004180Y016362D02*
X004180Y016338D01*
X008845Y016918D02*
X008869Y016918D01*
X008845Y023918D02*
X008869Y023918D01*
D17*
X008784Y024032D02*
X008820Y024068D01*
X008820Y024142D01*
X008784Y024178D01*
X008747Y024178D01*
X008674Y024142D01*
X008674Y024252D01*
X008820Y024252D01*
X008784Y024032D02*
X008710Y024032D01*
X008674Y024068D01*
X008599Y024068D02*
X008563Y024032D01*
X008489Y024032D01*
X008453Y024068D01*
X008378Y024068D02*
X008342Y024032D01*
X008268Y024032D01*
X008232Y024068D01*
X008232Y024215D01*
X008268Y024252D01*
X008342Y024252D01*
X008378Y024215D01*
X008453Y024215D02*
X008489Y024252D01*
X008563Y024252D01*
X008599Y024215D01*
X008599Y024178D01*
X008563Y024142D01*
X008599Y024105D01*
X008599Y024068D01*
X008563Y024142D02*
X008526Y024142D01*
X007994Y024250D02*
X007847Y024250D01*
X007957Y024360D01*
X007957Y024140D01*
X007773Y024140D02*
X007773Y024360D01*
X007699Y024287D01*
X007626Y024360D01*
X007626Y024140D01*
X007552Y024140D02*
X007552Y024287D01*
X007478Y024360D01*
X007405Y024287D01*
X007405Y024140D01*
X007331Y024140D02*
X007257Y024213D01*
X007294Y024213D02*
X007184Y024213D01*
X007184Y024140D02*
X007184Y024360D01*
X007294Y024360D01*
X007331Y024323D01*
X007331Y024250D01*
X007294Y024213D01*
X007405Y024250D02*
X007552Y024250D01*
X007110Y024250D02*
X007036Y024250D01*
X007110Y024250D02*
X007110Y024177D01*
X007073Y024140D01*
X007000Y024140D01*
X006963Y024177D01*
X006963Y024323D01*
X007000Y024360D01*
X007073Y024360D01*
X007110Y024323D01*
X006889Y024323D02*
X006852Y024360D01*
X006779Y024360D01*
X006742Y024323D01*
X006742Y024177D01*
X006779Y024140D01*
X006852Y024140D01*
X006889Y024177D01*
X006889Y024323D01*
X006668Y024323D02*
X006668Y024250D01*
X006631Y024213D01*
X006521Y024213D01*
X006521Y024140D02*
X006521Y024360D01*
X006631Y024360D01*
X006668Y024323D01*
X006594Y024213D02*
X006668Y024140D01*
X006447Y024250D02*
X006410Y024213D01*
X006300Y024213D01*
X006300Y024140D02*
X006300Y024360D01*
X006410Y024360D01*
X006447Y024323D01*
X006447Y024250D01*
X005195Y025177D02*
X005195Y025250D01*
X005158Y025287D01*
X005085Y025361D02*
X005085Y025508D01*
X005158Y025582D02*
X005012Y025729D01*
X005158Y025729D01*
X005195Y025692D01*
X005195Y025619D01*
X005158Y025582D01*
X005012Y025582D01*
X004975Y025619D01*
X004975Y025692D01*
X005012Y025729D01*
X004809Y025757D02*
X004809Y025903D01*
X004662Y025757D01*
X004699Y025720D01*
X004772Y025720D01*
X004809Y025757D01*
X004809Y025903D02*
X004772Y025940D01*
X004699Y025940D01*
X004662Y025903D01*
X004662Y025757D01*
X004588Y025720D02*
X004441Y025720D01*
X004588Y025867D01*
X004588Y025903D01*
X004551Y025940D01*
X004478Y025940D01*
X004441Y025903D01*
X004367Y025903D02*
X004367Y025830D01*
X004330Y025793D01*
X004220Y025793D01*
X004220Y025720D02*
X004220Y025940D01*
X004330Y025940D01*
X004367Y025903D01*
X004293Y025793D02*
X004367Y025720D01*
X004975Y025471D02*
X005085Y025361D01*
X005012Y025287D02*
X004975Y025250D01*
X004975Y025177D01*
X005012Y025140D01*
X005158Y025140D01*
X005195Y025177D01*
X005195Y025471D02*
X004975Y025471D01*
X004781Y024450D02*
X004708Y024450D01*
X004671Y024413D01*
X004671Y024377D01*
X004708Y024340D01*
X004781Y024340D01*
X004818Y024303D01*
X004818Y024267D01*
X004781Y024230D01*
X004708Y024230D01*
X004671Y024267D01*
X004671Y024303D01*
X004708Y024340D01*
X004781Y024340D02*
X004818Y024377D01*
X004818Y024413D01*
X004781Y024450D01*
X004597Y024413D02*
X004597Y024267D01*
X004560Y024230D01*
X004487Y024230D01*
X004450Y024267D01*
X004450Y024413D01*
X004487Y024450D01*
X004560Y024450D01*
X004597Y024413D01*
X004523Y024303D02*
X004597Y024230D01*
X003769Y024720D02*
X003622Y024720D01*
X003769Y024867D01*
X003769Y024903D01*
X003732Y024940D01*
X003659Y024940D01*
X003622Y024903D01*
X003548Y024830D02*
X003401Y024830D01*
X003511Y024940D01*
X003511Y024720D01*
X003327Y024757D02*
X003290Y024720D01*
X003217Y024720D01*
X003180Y024757D01*
X003180Y024903D01*
X003217Y024940D01*
X003290Y024940D01*
X003327Y024903D01*
X003072Y025735D02*
X002999Y025735D01*
X002962Y025772D01*
X002962Y025808D01*
X002999Y025845D01*
X003072Y025845D01*
X003109Y025808D01*
X003109Y025772D01*
X003072Y025735D01*
X003072Y025845D02*
X003109Y025882D01*
X003109Y025918D01*
X003072Y025955D01*
X002999Y025955D01*
X002962Y025918D01*
X002962Y025882D01*
X002999Y025845D01*
X002888Y025735D02*
X002741Y025735D01*
X002814Y025735D02*
X002814Y025955D01*
X002741Y025882D01*
X002667Y025918D02*
X002667Y025845D01*
X002630Y025808D01*
X002520Y025808D01*
X002520Y025735D02*
X002520Y025955D01*
X002630Y025955D01*
X002667Y025918D01*
X002593Y025808D02*
X002667Y025735D01*
X003270Y027550D02*
X003270Y027770D01*
X003380Y027770D01*
X003417Y027733D01*
X003417Y027660D01*
X003380Y027623D01*
X003270Y027623D01*
X003343Y027623D02*
X003417Y027550D01*
X003491Y027550D02*
X003491Y027770D01*
X003638Y027770D01*
X003712Y027733D02*
X003712Y027697D01*
X003749Y027660D01*
X003822Y027660D01*
X003859Y027623D01*
X003859Y027587D01*
X003822Y027550D01*
X003749Y027550D01*
X003712Y027587D01*
X003638Y027550D02*
X003491Y027550D01*
X003491Y027660D02*
X003564Y027660D01*
X003712Y027733D02*
X003749Y027770D01*
X003822Y027770D01*
X003859Y027733D01*
X003933Y027770D02*
X003933Y027550D01*
X004080Y027550D01*
X004006Y027660D02*
X003933Y027660D01*
X003933Y027770D02*
X004080Y027770D01*
X004154Y027770D02*
X004301Y027770D01*
X004227Y027770D02*
X004227Y027550D01*
X004375Y027660D02*
X004485Y027770D01*
X004485Y027550D01*
X004522Y027660D02*
X004375Y027660D01*
X003712Y030340D02*
X003712Y030560D01*
X003602Y030450D01*
X003749Y030450D01*
X003528Y030450D02*
X003528Y030377D01*
X003491Y030340D01*
X003418Y030340D01*
X003381Y030377D01*
X003381Y030450D02*
X003454Y030487D01*
X003491Y030487D01*
X003528Y030450D01*
X003528Y030560D02*
X003381Y030560D01*
X003381Y030450D01*
X003307Y030377D02*
X003270Y030340D01*
X003197Y030340D01*
X003160Y030377D01*
X003160Y030523D01*
X003197Y030560D01*
X003270Y030560D01*
X003307Y030523D01*
X003290Y031720D02*
X003217Y031720D01*
X003180Y031757D01*
X003180Y031903D01*
X003217Y031940D01*
X003290Y031940D01*
X003327Y031903D01*
X003401Y031940D02*
X003401Y031830D01*
X003474Y031867D01*
X003511Y031867D01*
X003548Y031830D01*
X003548Y031757D01*
X003511Y031720D01*
X003438Y031720D01*
X003401Y031757D01*
X003327Y031757D02*
X003290Y031720D01*
X003401Y031940D02*
X003548Y031940D01*
X003622Y031903D02*
X003659Y031940D01*
X003732Y031940D01*
X003769Y031903D01*
X003769Y031867D01*
X003732Y031830D01*
X003769Y031793D01*
X003769Y031757D01*
X003732Y031720D01*
X003659Y031720D01*
X003622Y031757D01*
X003695Y031830D02*
X003732Y031830D01*
X004220Y032720D02*
X004220Y032940D01*
X004330Y032940D01*
X004367Y032903D01*
X004367Y032830D01*
X004330Y032793D01*
X004220Y032793D01*
X004293Y032793D02*
X004367Y032720D01*
X004441Y032720D02*
X004588Y032867D01*
X004588Y032903D01*
X004551Y032940D01*
X004478Y032940D01*
X004441Y032903D01*
X004441Y032720D02*
X004588Y032720D01*
X004662Y032757D02*
X004699Y032720D01*
X004772Y032720D01*
X004809Y032757D01*
X004809Y032830D01*
X004772Y032867D01*
X004735Y032867D01*
X004662Y032830D01*
X004662Y032940D01*
X004809Y032940D01*
X004975Y032655D02*
X005195Y032655D01*
X005195Y032582D02*
X005195Y032729D01*
X005048Y032582D02*
X004975Y032655D01*
X004975Y032508D02*
X004975Y032361D01*
X005085Y032361D01*
X005048Y032434D01*
X005048Y032471D01*
X005085Y032508D01*
X005158Y032508D01*
X005195Y032471D01*
X005195Y032398D01*
X005158Y032361D01*
X005158Y032287D02*
X005195Y032250D01*
X005195Y032177D01*
X005158Y032140D01*
X005012Y032140D01*
X004975Y032177D01*
X004975Y032250D01*
X005012Y032287D01*
X005002Y031450D02*
X004929Y031450D01*
X004892Y031413D01*
X004892Y031267D01*
X005039Y031413D01*
X005039Y031267D01*
X005002Y031230D01*
X004929Y031230D01*
X004892Y031267D01*
X004818Y031230D02*
X004671Y031230D01*
X004744Y031230D02*
X004744Y031450D01*
X004671Y031377D01*
X004597Y031413D02*
X004597Y031267D01*
X004560Y031230D01*
X004487Y031230D01*
X004450Y031267D01*
X004450Y031413D01*
X004487Y031450D01*
X004560Y031450D01*
X004597Y031413D01*
X004523Y031303D02*
X004597Y031230D01*
X005002Y031450D02*
X005039Y031413D01*
X006300Y031360D02*
X006300Y031140D01*
X006300Y031213D02*
X006410Y031213D01*
X006447Y031250D01*
X006447Y031323D01*
X006410Y031360D01*
X006300Y031360D01*
X006521Y031360D02*
X006521Y031140D01*
X006521Y031213D02*
X006631Y031213D01*
X006668Y031250D01*
X006668Y031323D01*
X006631Y031360D01*
X006521Y031360D01*
X006594Y031213D02*
X006668Y031140D01*
X006742Y031177D02*
X006779Y031140D01*
X006852Y031140D01*
X006889Y031177D01*
X006889Y031323D01*
X006852Y031360D01*
X006779Y031360D01*
X006742Y031323D01*
X006742Y031177D01*
X006963Y031177D02*
X007000Y031140D01*
X007073Y031140D01*
X007110Y031177D01*
X007110Y031250D01*
X007036Y031250D01*
X006963Y031323D02*
X006963Y031177D01*
X006963Y031323D02*
X007000Y031360D01*
X007073Y031360D01*
X007110Y031323D01*
X007184Y031360D02*
X007294Y031360D01*
X007331Y031323D01*
X007331Y031250D01*
X007294Y031213D01*
X007184Y031213D01*
X007184Y031140D02*
X007184Y031360D01*
X007257Y031213D02*
X007331Y031140D01*
X007405Y031140D02*
X007405Y031287D01*
X007478Y031360D01*
X007552Y031287D01*
X007552Y031140D01*
X007626Y031140D02*
X007626Y031360D01*
X007699Y031287D01*
X007773Y031360D01*
X007773Y031140D01*
X007847Y031177D02*
X007884Y031140D01*
X007957Y031140D01*
X007994Y031177D01*
X007994Y031250D01*
X007957Y031287D01*
X007920Y031287D01*
X007847Y031250D01*
X007847Y031360D01*
X007994Y031360D01*
X008232Y031215D02*
X008232Y031068D01*
X008268Y031032D01*
X008342Y031032D01*
X008378Y031068D01*
X008453Y031142D02*
X008599Y031142D01*
X008674Y031142D02*
X008784Y031142D01*
X008820Y031105D01*
X008820Y031068D01*
X008784Y031032D01*
X008710Y031032D01*
X008674Y031068D01*
X008674Y031142D01*
X008747Y031215D01*
X008820Y031252D01*
X008563Y031252D02*
X008453Y031142D01*
X008378Y031215D02*
X008342Y031252D01*
X008268Y031252D01*
X008232Y031215D01*
X008563Y031252D02*
X008563Y031032D01*
X008389Y032265D02*
X008242Y032265D01*
X008389Y032412D01*
X008389Y032448D01*
X008352Y032485D01*
X008279Y032485D01*
X008242Y032448D01*
X008168Y032485D02*
X008021Y032485D01*
X008021Y032375D01*
X008094Y032412D01*
X008131Y032412D01*
X008168Y032375D01*
X008168Y032302D01*
X008131Y032265D01*
X008058Y032265D01*
X008021Y032302D01*
X007947Y032302D02*
X007910Y032265D01*
X007837Y032265D01*
X007800Y032302D01*
X007800Y032448D01*
X007837Y032485D01*
X007910Y032485D01*
X007947Y032448D01*
X008077Y033100D02*
X008040Y033137D01*
X008040Y033283D01*
X008077Y033320D01*
X008150Y033320D01*
X008187Y033283D01*
X008187Y033137D01*
X008150Y033100D01*
X008077Y033100D01*
X008113Y033173D02*
X008187Y033100D01*
X008261Y033137D02*
X008298Y033100D01*
X008371Y033100D01*
X008408Y033137D01*
X008408Y033283D01*
X008371Y033320D01*
X008298Y033320D01*
X008261Y033283D01*
X008261Y033247D01*
X008298Y033210D01*
X008408Y033210D01*
X008302Y034335D02*
X008302Y034372D01*
X008449Y034518D01*
X008449Y034555D01*
X008302Y034555D01*
X008191Y034555D02*
X008081Y034445D01*
X008228Y034445D01*
X008191Y034335D02*
X008191Y034555D01*
X008007Y034518D02*
X007970Y034555D01*
X007897Y034555D01*
X007860Y034518D01*
X007860Y034372D01*
X007897Y034335D01*
X007970Y034335D01*
X008007Y034372D01*
X007552Y031250D02*
X007405Y031250D01*
X007897Y027555D02*
X007860Y027518D01*
X007860Y027372D01*
X007897Y027335D01*
X007970Y027335D01*
X008007Y027372D01*
X008081Y027372D02*
X008118Y027335D01*
X008191Y027335D01*
X008228Y027372D01*
X008228Y027408D01*
X008191Y027445D01*
X008154Y027445D01*
X008191Y027445D02*
X008228Y027482D01*
X008228Y027518D01*
X008191Y027555D01*
X008118Y027555D01*
X008081Y027518D01*
X008007Y027518D02*
X007970Y027555D01*
X007897Y027555D01*
X008302Y027445D02*
X008412Y027445D01*
X008449Y027408D01*
X008449Y027372D01*
X008412Y027335D01*
X008339Y027335D01*
X008302Y027372D01*
X008302Y027445D01*
X008375Y027518D01*
X008449Y027555D01*
X008408Y026320D02*
X008408Y026283D01*
X008261Y026137D01*
X008261Y026100D01*
X008187Y026100D02*
X008113Y026173D01*
X008077Y026100D02*
X008040Y026137D01*
X008040Y026283D01*
X008077Y026320D01*
X008150Y026320D01*
X008187Y026283D01*
X008187Y026137D01*
X008150Y026100D01*
X008077Y026100D01*
X008261Y026320D02*
X008408Y026320D01*
X008315Y025485D02*
X008315Y025265D01*
X008242Y025265D02*
X008389Y025265D01*
X008242Y025412D02*
X008315Y025485D01*
X008168Y025375D02*
X008021Y025375D01*
X008131Y025485D01*
X008131Y025265D01*
X007947Y025302D02*
X007910Y025265D01*
X007837Y025265D01*
X007800Y025302D01*
X007800Y025448D01*
X007837Y025485D01*
X007910Y025485D01*
X007947Y025448D01*
X010541Y025384D02*
X010541Y025200D01*
X010578Y025164D01*
X010651Y025164D01*
X010688Y025200D01*
X010688Y025384D01*
X010762Y025274D02*
X010909Y025274D01*
X010872Y025384D02*
X010762Y025274D01*
X010872Y025164D02*
X010872Y025384D01*
X012077Y023980D02*
X012040Y023943D01*
X012040Y023797D01*
X012077Y023760D01*
X012150Y023760D01*
X012187Y023797D01*
X012261Y023797D02*
X012298Y023760D01*
X012371Y023760D01*
X012408Y023797D01*
X012408Y023833D01*
X012371Y023870D01*
X012334Y023870D01*
X012371Y023870D02*
X012408Y023907D01*
X012408Y023943D01*
X012371Y023980D01*
X012298Y023980D01*
X012261Y023943D01*
X012187Y023943D02*
X012150Y023980D01*
X012077Y023980D01*
X012482Y023870D02*
X012629Y023870D01*
X012592Y023760D02*
X012592Y023980D01*
X012482Y023870D01*
X013179Y024631D02*
X013143Y024667D01*
X013143Y024814D01*
X013179Y024851D01*
X013253Y024851D01*
X013289Y024814D01*
X013364Y024741D02*
X013510Y024741D01*
X013585Y024741D02*
X013731Y024741D01*
X013695Y024631D02*
X013695Y024851D01*
X013585Y024741D01*
X013474Y024631D02*
X013474Y024851D01*
X013364Y024741D01*
X013289Y024667D02*
X013253Y024631D01*
X013179Y024631D01*
X014027Y026185D02*
X013990Y026222D01*
X013990Y026368D01*
X014027Y026405D01*
X014100Y026405D01*
X014137Y026368D01*
X014211Y026368D02*
X014248Y026405D01*
X014321Y026405D01*
X014358Y026368D01*
X014358Y026332D01*
X014321Y026295D01*
X014358Y026258D01*
X014358Y026222D01*
X014321Y026185D01*
X014248Y026185D01*
X014211Y026222D01*
X014137Y026222D02*
X014100Y026185D01*
X014027Y026185D01*
X014284Y026295D02*
X014321Y026295D01*
X014432Y026222D02*
X014432Y026185D01*
X014432Y026222D02*
X014579Y026368D01*
X014579Y026405D01*
X014432Y026405D01*
X013549Y026682D02*
X013549Y026718D01*
X013512Y026755D01*
X013402Y026755D01*
X013402Y026682D01*
X013439Y026645D01*
X013512Y026645D01*
X013549Y026682D01*
X013475Y026828D02*
X013402Y026755D01*
X013475Y026828D02*
X013549Y026865D01*
X013254Y026865D02*
X013254Y026645D01*
X013181Y026645D02*
X013328Y026645D01*
X013181Y026792D02*
X013254Y026865D01*
X013107Y026828D02*
X013107Y026755D01*
X013070Y026718D01*
X012960Y026718D01*
X012960Y026645D02*
X012960Y026865D01*
X013070Y026865D01*
X013107Y026828D01*
X013033Y026718D02*
X013107Y026645D01*
X013800Y027795D02*
X013947Y027795D01*
X014021Y027795D02*
X014168Y027795D01*
X014242Y027795D02*
X014352Y027795D01*
X014389Y027832D01*
X014389Y027978D01*
X014352Y028015D01*
X014242Y028015D01*
X014242Y027795D01*
X014094Y027905D02*
X014021Y027905D01*
X014021Y028015D02*
X014021Y027795D01*
X014021Y028015D02*
X014168Y028015D01*
X014463Y028015D02*
X014610Y028015D01*
X014610Y027978D01*
X014463Y027832D01*
X014463Y027795D01*
X013800Y027795D02*
X013800Y028015D01*
X012509Y028217D02*
X012472Y028180D01*
X012399Y028180D01*
X012362Y028217D01*
X012509Y028363D01*
X012509Y028217D01*
X012509Y028363D02*
X012472Y028400D01*
X012399Y028400D01*
X012362Y028363D01*
X012362Y028217D01*
X012288Y028180D02*
X012141Y028180D01*
X012214Y028180D02*
X012214Y028400D01*
X012141Y028327D01*
X012067Y028400D02*
X011993Y028400D01*
X012030Y028400D02*
X012030Y028217D01*
X011993Y028180D01*
X011957Y028180D01*
X011920Y028217D01*
X011592Y028640D02*
X011592Y028860D01*
X011482Y028750D01*
X011629Y028750D01*
X011408Y028640D02*
X011261Y028640D01*
X011334Y028640D02*
X011334Y028860D01*
X011261Y028787D01*
X011187Y028860D02*
X011113Y028860D01*
X011150Y028860D02*
X011150Y028677D01*
X011113Y028640D01*
X011077Y028640D01*
X011040Y028677D01*
X012077Y030760D02*
X012040Y030797D01*
X012040Y030943D01*
X012077Y030980D01*
X012150Y030980D01*
X012187Y030943D01*
X012261Y030870D02*
X012408Y030870D01*
X012482Y030870D02*
X012555Y030907D01*
X012592Y030907D01*
X012629Y030870D01*
X012629Y030797D01*
X012592Y030760D01*
X012519Y030760D01*
X012482Y030797D01*
X012482Y030870D02*
X012482Y030980D01*
X012629Y030980D01*
X012371Y030980D02*
X012371Y030760D01*
X012261Y030870D02*
X012371Y030980D01*
X012187Y030797D02*
X012150Y030760D01*
X012077Y030760D01*
X013143Y031667D02*
X013179Y031631D01*
X013253Y031631D01*
X013289Y031667D01*
X013364Y031667D02*
X013400Y031631D01*
X013474Y031631D01*
X013510Y031667D01*
X013510Y031741D01*
X013474Y031777D01*
X013437Y031777D01*
X013364Y031741D01*
X013364Y031851D01*
X013510Y031851D01*
X013585Y031851D02*
X013585Y031741D01*
X013658Y031777D01*
X013695Y031777D01*
X013731Y031741D01*
X013731Y031667D01*
X013695Y031631D01*
X013621Y031631D01*
X013585Y031667D01*
X013585Y031851D02*
X013731Y031851D01*
X013289Y031814D02*
X013253Y031851D01*
X013179Y031851D01*
X013143Y031814D01*
X013143Y031667D01*
X014027Y033185D02*
X013990Y033222D01*
X013990Y033368D01*
X014027Y033405D01*
X014100Y033405D01*
X014137Y033368D01*
X014211Y033295D02*
X014358Y033295D01*
X014432Y033258D02*
X014469Y033295D01*
X014542Y033295D01*
X014579Y033258D01*
X014579Y033222D01*
X014542Y033185D01*
X014469Y033185D01*
X014432Y033222D01*
X014432Y033258D01*
X014469Y033295D02*
X014432Y033332D01*
X014432Y033368D01*
X014469Y033405D01*
X014542Y033405D01*
X014579Y033368D01*
X014579Y033332D01*
X014542Y033295D01*
X014321Y033185D02*
X014321Y033405D01*
X014211Y033295D01*
X014137Y033222D02*
X014100Y033185D01*
X014027Y033185D01*
X013549Y033645D02*
X013402Y033645D01*
X013475Y033645D02*
X013475Y033865D01*
X013402Y033792D01*
X013328Y033792D02*
X013328Y033828D01*
X013291Y033865D01*
X013218Y033865D01*
X013181Y033828D01*
X013107Y033828D02*
X013107Y033755D01*
X013070Y033718D01*
X012960Y033718D01*
X012960Y033645D02*
X012960Y033865D01*
X013070Y033865D01*
X013107Y033828D01*
X013033Y033718D02*
X013107Y033645D01*
X013181Y033645D02*
X013328Y033792D01*
X013328Y033645D02*
X013181Y033645D01*
X013800Y034795D02*
X013947Y034795D01*
X014021Y034795D02*
X014021Y035015D01*
X014168Y035015D01*
X014242Y035015D02*
X014242Y034795D01*
X014352Y034795D01*
X014389Y034832D01*
X014389Y034978D01*
X014352Y035015D01*
X014242Y035015D01*
X014094Y034905D02*
X014021Y034905D01*
X014021Y034795D02*
X014168Y034795D01*
X014463Y034832D02*
X014500Y034795D01*
X014573Y034795D01*
X014610Y034832D01*
X014610Y034978D01*
X014573Y035015D01*
X014500Y035015D01*
X014463Y034978D01*
X014463Y034942D01*
X014500Y034905D01*
X014610Y034905D01*
X013800Y035015D02*
X013800Y034795D01*
X012509Y035217D02*
X012472Y035180D01*
X012399Y035180D01*
X012362Y035217D01*
X012288Y035180D02*
X012141Y035180D01*
X012214Y035180D02*
X012214Y035400D01*
X012141Y035327D01*
X012067Y035400D02*
X011993Y035400D01*
X012030Y035400D02*
X012030Y035217D01*
X011993Y035180D01*
X011957Y035180D01*
X011920Y035217D01*
X012362Y035363D02*
X012399Y035400D01*
X012472Y035400D01*
X012509Y035363D01*
X012509Y035327D01*
X012472Y035290D01*
X012509Y035253D01*
X012509Y035217D01*
X012472Y035290D02*
X012435Y035290D01*
X010909Y032384D02*
X010762Y032384D01*
X010762Y032274D01*
X010836Y032311D01*
X010872Y032311D01*
X010909Y032274D01*
X010909Y032200D01*
X010872Y032164D01*
X010799Y032164D01*
X010762Y032200D01*
X010688Y032200D02*
X010688Y032384D01*
X010541Y032384D02*
X010541Y032200D01*
X010578Y032164D01*
X010651Y032164D01*
X010688Y032200D01*
X014460Y031998D02*
X014460Y031852D01*
X014497Y031815D01*
X014570Y031815D01*
X014607Y031852D01*
X014681Y031925D02*
X014828Y031925D01*
X014902Y031962D02*
X014939Y031925D01*
X015049Y031925D01*
X015049Y031852D02*
X015049Y031998D01*
X015012Y032035D01*
X014939Y032035D01*
X014902Y031998D01*
X014902Y031962D01*
X014902Y031852D02*
X014939Y031815D01*
X015012Y031815D01*
X015049Y031852D01*
X014791Y031815D02*
X014791Y032035D01*
X014681Y031925D01*
X014607Y031998D02*
X014570Y032035D01*
X014497Y032035D01*
X014460Y031998D01*
X014740Y030815D02*
X014740Y030595D01*
X014887Y030595D01*
X014961Y030595D02*
X015108Y030595D01*
X015182Y030595D02*
X015292Y030595D01*
X015329Y030632D01*
X015329Y030778D01*
X015292Y030815D01*
X015182Y030815D01*
X015182Y030595D01*
X015034Y030705D02*
X014961Y030705D01*
X014961Y030815D02*
X014961Y030595D01*
X014961Y030815D02*
X015108Y030815D01*
X015403Y030742D02*
X015476Y030815D01*
X015476Y030595D01*
X015403Y030595D02*
X015550Y030595D01*
X015624Y030632D02*
X015661Y030595D01*
X015734Y030595D01*
X015771Y030632D01*
X015771Y030778D01*
X015624Y030632D01*
X015624Y030778D01*
X015661Y030815D01*
X015734Y030815D01*
X015771Y030778D01*
X015830Y030545D02*
X015940Y030545D01*
X015977Y030508D01*
X015977Y030435D01*
X015940Y030398D01*
X015830Y030398D01*
X015830Y030325D02*
X015830Y030545D01*
X015903Y030398D02*
X015977Y030325D01*
X016051Y030325D02*
X016198Y030472D01*
X016198Y030508D01*
X016161Y030545D01*
X016088Y030545D01*
X016051Y030508D01*
X016051Y030325D02*
X016198Y030325D01*
X016272Y030435D02*
X016419Y030435D01*
X016382Y030325D02*
X016382Y030545D01*
X016272Y030435D01*
X016339Y031075D02*
X016192Y031075D01*
X016339Y031222D01*
X016339Y031258D01*
X016302Y031295D01*
X016229Y031295D01*
X016192Y031258D01*
X016118Y031258D02*
X016081Y031295D01*
X016008Y031295D01*
X015971Y031258D01*
X015897Y031258D02*
X015897Y031185D01*
X015860Y031148D01*
X015750Y031148D01*
X015750Y031075D02*
X015750Y031295D01*
X015860Y031295D01*
X015897Y031258D01*
X015823Y031148D02*
X015897Y031075D01*
X015971Y031075D02*
X016118Y031222D01*
X016118Y031258D01*
X016118Y031075D02*
X015971Y031075D01*
X016587Y032605D02*
X016660Y032605D01*
X016697Y032642D01*
X016771Y032642D02*
X016808Y032605D01*
X016881Y032605D01*
X016918Y032642D01*
X016918Y032715D01*
X016881Y032752D01*
X016844Y032752D01*
X016771Y032715D01*
X016771Y032825D01*
X016918Y032825D01*
X016992Y032788D02*
X017029Y032825D01*
X017102Y032825D01*
X017139Y032788D01*
X016992Y032642D01*
X017029Y032605D01*
X017102Y032605D01*
X017139Y032642D01*
X017139Y032788D01*
X016992Y032788D02*
X016992Y032642D01*
X016697Y032788D02*
X016660Y032825D01*
X016587Y032825D01*
X016550Y032788D01*
X016550Y032642D01*
X016587Y032605D01*
X016368Y034410D02*
X016295Y034410D01*
X016258Y034447D01*
X016258Y034520D02*
X016332Y034557D01*
X016368Y034557D01*
X016405Y034520D01*
X016405Y034447D01*
X016368Y034410D01*
X016258Y034520D02*
X016258Y034630D01*
X016405Y034630D01*
X016184Y034593D02*
X016147Y034630D01*
X016074Y034630D01*
X016037Y034593D01*
X016037Y034447D01*
X016074Y034410D01*
X016147Y034410D01*
X016184Y034447D01*
X015963Y034410D02*
X015890Y034410D01*
X015927Y034410D02*
X015927Y034630D01*
X015963Y034630D02*
X015890Y034630D01*
X017920Y031560D02*
X018030Y031560D01*
X018067Y031523D01*
X018067Y031377D01*
X018030Y031340D01*
X017920Y031340D01*
X017920Y031560D01*
X018141Y031523D02*
X018141Y031487D01*
X018178Y031450D01*
X018288Y031450D01*
X018288Y031377D02*
X018288Y031523D01*
X018251Y031560D01*
X018178Y031560D01*
X018141Y031523D01*
X018141Y031377D02*
X018178Y031340D01*
X018251Y031340D01*
X018288Y031377D01*
X017772Y030480D02*
X017809Y030443D01*
X017662Y030297D01*
X017699Y030260D01*
X017772Y030260D01*
X017809Y030297D01*
X017809Y030443D01*
X017772Y030480D02*
X017699Y030480D01*
X017662Y030443D01*
X017662Y030297D01*
X017588Y030260D02*
X017441Y030260D01*
X017514Y030260D02*
X017514Y030480D01*
X017441Y030407D01*
X017367Y030443D02*
X017330Y030480D01*
X017220Y030480D01*
X017220Y030260D01*
X017330Y030260D01*
X017367Y030297D01*
X017367Y030443D01*
X016368Y027630D02*
X016258Y027520D01*
X016405Y027520D01*
X016368Y027410D02*
X016368Y027630D01*
X016184Y027593D02*
X016147Y027630D01*
X016074Y027630D01*
X016037Y027593D01*
X016037Y027447D01*
X016074Y027410D01*
X016147Y027410D01*
X016184Y027447D01*
X015963Y027410D02*
X015890Y027410D01*
X015927Y027410D02*
X015927Y027630D01*
X015963Y027630D02*
X015890Y027630D01*
X016587Y025825D02*
X016550Y025788D01*
X016550Y025642D01*
X016587Y025605D01*
X016660Y025605D01*
X016697Y025642D01*
X016771Y025642D02*
X016808Y025605D01*
X016881Y025605D01*
X016918Y025642D01*
X016918Y025678D01*
X016881Y025715D01*
X016844Y025715D01*
X016881Y025715D02*
X016918Y025752D01*
X016918Y025788D01*
X016881Y025825D01*
X016808Y025825D01*
X016771Y025788D01*
X016697Y025788D02*
X016660Y025825D01*
X016587Y025825D01*
X016992Y025788D02*
X016992Y025752D01*
X017029Y025715D01*
X017139Y025715D01*
X017139Y025642D02*
X017139Y025788D01*
X017102Y025825D01*
X017029Y025825D01*
X016992Y025788D01*
X016992Y025642D02*
X017029Y025605D01*
X017102Y025605D01*
X017139Y025642D01*
X017920Y024560D02*
X017920Y024340D01*
X018030Y024340D01*
X018067Y024377D01*
X018067Y024523D01*
X018030Y024560D01*
X017920Y024560D01*
X018141Y024560D02*
X018288Y024560D01*
X018288Y024523D01*
X018141Y024377D01*
X018141Y024340D01*
X017551Y023480D02*
X017588Y023443D01*
X017588Y023407D01*
X017551Y023370D01*
X017478Y023370D01*
X017441Y023407D01*
X017441Y023443D01*
X017478Y023480D01*
X017551Y023480D01*
X017551Y023370D02*
X017588Y023333D01*
X017588Y023297D01*
X017551Y023260D01*
X017478Y023260D01*
X017441Y023297D01*
X017441Y023333D01*
X017478Y023370D01*
X017367Y023297D02*
X017367Y023443D01*
X017330Y023480D01*
X017220Y023480D01*
X017220Y023260D01*
X017330Y023260D01*
X017367Y023297D01*
X016419Y023362D02*
X016419Y023508D01*
X016382Y023545D01*
X016309Y023545D01*
X016272Y023508D01*
X016272Y023472D01*
X016309Y023435D01*
X016419Y023435D01*
X016419Y023362D02*
X016382Y023325D01*
X016309Y023325D01*
X016272Y023362D01*
X016198Y023325D02*
X016051Y023325D01*
X016124Y023325D02*
X016124Y023545D01*
X016051Y023472D01*
X015977Y023508D02*
X015977Y023435D01*
X015940Y023398D01*
X015830Y023398D01*
X015830Y023325D02*
X015830Y023545D01*
X015940Y023545D01*
X015977Y023508D01*
X015903Y023398D02*
X015977Y023325D01*
X015550Y023632D02*
X015513Y023595D01*
X015440Y023595D01*
X015403Y023632D01*
X015403Y023668D01*
X015440Y023705D01*
X015513Y023705D01*
X015550Y023668D01*
X015550Y023632D01*
X015513Y023705D02*
X015550Y023742D01*
X015550Y023778D01*
X015513Y023815D01*
X015440Y023815D01*
X015403Y023778D01*
X015403Y023742D01*
X015440Y023705D01*
X015329Y023632D02*
X015329Y023778D01*
X015292Y023815D01*
X015182Y023815D01*
X015182Y023595D01*
X015292Y023595D01*
X015329Y023632D01*
X015108Y023595D02*
X014961Y023595D01*
X014961Y023815D01*
X015108Y023815D01*
X015034Y023705D02*
X014961Y023705D01*
X014887Y023595D02*
X014740Y023595D01*
X014740Y023815D01*
X014718Y024815D02*
X014681Y024852D01*
X014718Y024815D02*
X014791Y024815D01*
X014828Y024852D01*
X014828Y024888D01*
X014791Y024925D01*
X014754Y024925D01*
X014791Y024925D02*
X014828Y024962D01*
X014828Y024998D01*
X014791Y025035D01*
X014718Y025035D01*
X014681Y024998D01*
X014607Y024998D02*
X014570Y025035D01*
X014497Y025035D01*
X014460Y024998D01*
X014460Y024852D01*
X014497Y024815D01*
X014570Y024815D01*
X014607Y024852D01*
X014902Y024852D02*
X014902Y024888D01*
X014939Y024925D01*
X015012Y024925D01*
X015049Y024888D01*
X015049Y024852D01*
X015012Y024815D01*
X014939Y024815D01*
X014902Y024852D01*
X014939Y024925D02*
X014902Y024962D01*
X014902Y024998D01*
X014939Y025035D01*
X015012Y025035D01*
X015049Y024998D01*
X015049Y024962D01*
X015012Y024925D01*
X015750Y024295D02*
X015860Y024295D01*
X015897Y024258D01*
X015897Y024185D01*
X015860Y024148D01*
X015750Y024148D01*
X015750Y024075D02*
X015750Y024295D01*
X015823Y024148D02*
X015897Y024075D01*
X015971Y024075D02*
X016118Y024075D01*
X016044Y024075D02*
X016044Y024295D01*
X015971Y024222D01*
X016192Y024295D02*
X016339Y024295D01*
X016339Y024258D01*
X016192Y024112D01*
X016192Y024075D01*
X014610Y021015D02*
X014463Y021015D01*
X014463Y020905D01*
X014536Y020942D01*
X014573Y020942D01*
X014610Y020905D01*
X014610Y020832D01*
X014573Y020795D01*
X014500Y020795D01*
X014463Y020832D01*
X014389Y020832D02*
X014389Y020978D01*
X014352Y021015D01*
X014242Y021015D01*
X014242Y020795D01*
X014352Y020795D01*
X014389Y020832D01*
X014168Y020795D02*
X014021Y020795D01*
X014021Y021015D01*
X014168Y021015D01*
X014094Y020905D02*
X014021Y020905D01*
X013947Y020795D02*
X013800Y020795D01*
X013800Y021015D01*
X013475Y019865D02*
X013475Y019645D01*
X013402Y019645D02*
X013549Y019645D01*
X013402Y019792D02*
X013475Y019865D01*
X013254Y019865D02*
X013254Y019645D01*
X013181Y019645D02*
X013328Y019645D01*
X013181Y019792D02*
X013254Y019865D01*
X013107Y019828D02*
X013107Y019755D01*
X013070Y019718D01*
X012960Y019718D01*
X012960Y019645D02*
X012960Y019865D01*
X013070Y019865D01*
X013107Y019828D01*
X013033Y019718D02*
X013107Y019645D01*
X013990Y019368D02*
X013990Y019222D01*
X014027Y019185D01*
X014100Y019185D01*
X014137Y019222D01*
X014211Y019185D02*
X014358Y019332D01*
X014358Y019368D01*
X014321Y019405D01*
X014248Y019405D01*
X014211Y019368D01*
X014137Y019368D02*
X014100Y019405D01*
X014027Y019405D01*
X013990Y019368D01*
X014211Y019185D02*
X014358Y019185D01*
X014432Y019222D02*
X014469Y019185D01*
X014542Y019185D01*
X014579Y019222D01*
X014579Y019258D01*
X014542Y019295D01*
X014432Y019295D01*
X014432Y019222D01*
X014432Y019295D02*
X014505Y019368D01*
X014579Y019405D01*
X014570Y018035D02*
X014497Y018035D01*
X014460Y017998D01*
X014460Y017852D01*
X014497Y017815D01*
X014570Y017815D01*
X014607Y017852D01*
X014681Y017815D02*
X014828Y017962D01*
X014828Y017998D01*
X014791Y018035D01*
X014718Y018035D01*
X014681Y017998D01*
X014607Y017998D02*
X014570Y018035D01*
X014681Y017815D02*
X014828Y017815D01*
X014902Y017815D02*
X014902Y017852D01*
X015049Y017998D01*
X015049Y018035D01*
X014902Y018035D01*
X014961Y016815D02*
X014961Y016595D01*
X015108Y016595D01*
X015182Y016595D02*
X015292Y016595D01*
X015329Y016632D01*
X015329Y016778D01*
X015292Y016815D01*
X015182Y016815D01*
X015182Y016595D01*
X015034Y016705D02*
X014961Y016705D01*
X014961Y016815D02*
X015108Y016815D01*
X014887Y016595D02*
X014740Y016595D01*
X014740Y016815D01*
X015403Y016705D02*
X015513Y016705D01*
X015550Y016668D01*
X015550Y016632D01*
X015513Y016595D01*
X015440Y016595D01*
X015403Y016632D01*
X015403Y016705D01*
X015476Y016778D01*
X015550Y016815D01*
X015750Y017075D02*
X015750Y017295D01*
X015860Y017295D01*
X015897Y017258D01*
X015897Y017185D01*
X015860Y017148D01*
X015750Y017148D01*
X015823Y017148D02*
X015897Y017075D01*
X015971Y017075D02*
X016118Y017075D01*
X016044Y017075D02*
X016044Y017295D01*
X015971Y017222D01*
X016192Y017258D02*
X016229Y017295D01*
X016302Y017295D01*
X016339Y017258D01*
X016339Y017222D01*
X016192Y017075D01*
X016339Y017075D01*
X016382Y016545D02*
X016272Y016435D01*
X016419Y016435D01*
X016382Y016325D02*
X016382Y016545D01*
X016124Y016545D02*
X016124Y016325D01*
X016051Y016325D02*
X016198Y016325D01*
X016051Y016472D02*
X016124Y016545D01*
X015977Y016508D02*
X015977Y016435D01*
X015940Y016398D01*
X015830Y016398D01*
X015830Y016325D02*
X015830Y016545D01*
X015940Y016545D01*
X015977Y016508D01*
X015903Y016398D02*
X015977Y016325D01*
X017220Y016260D02*
X017330Y016260D01*
X017367Y016297D01*
X017367Y016443D01*
X017330Y016480D01*
X017220Y016480D01*
X017220Y016260D01*
X017441Y016297D02*
X017478Y016260D01*
X017551Y016260D01*
X017588Y016297D01*
X017588Y016333D01*
X017551Y016370D01*
X017441Y016370D01*
X017441Y016297D01*
X017441Y016370D02*
X017514Y016443D01*
X017588Y016480D01*
X017920Y017340D02*
X018030Y017340D01*
X018067Y017377D01*
X018067Y017523D01*
X018030Y017560D01*
X017920Y017560D01*
X017920Y017340D01*
X018141Y017377D02*
X018178Y017340D01*
X018251Y017340D01*
X018288Y017377D01*
X018288Y017450D01*
X018251Y017487D01*
X018214Y017487D01*
X018141Y017450D01*
X018141Y017560D01*
X018288Y017560D01*
X019322Y018209D02*
X019359Y018172D01*
X019395Y018172D01*
X019432Y018209D01*
X019432Y018392D01*
X019395Y018392D02*
X019469Y018392D01*
X019543Y018356D02*
X019543Y018319D01*
X019579Y018282D01*
X019690Y018282D01*
X019690Y018209D02*
X019690Y018356D01*
X019653Y018392D01*
X019579Y018392D01*
X019543Y018356D01*
X019543Y018209D02*
X019579Y018172D01*
X019653Y018172D01*
X019690Y018209D01*
X017139Y018642D02*
X017102Y018605D01*
X017029Y018605D01*
X016992Y018642D01*
X016992Y018678D01*
X017029Y018715D01*
X017102Y018715D01*
X017139Y018678D01*
X017139Y018642D01*
X017102Y018715D02*
X017139Y018752D01*
X017139Y018788D01*
X017102Y018825D01*
X017029Y018825D01*
X016992Y018788D01*
X016992Y018752D01*
X017029Y018715D01*
X016918Y018752D02*
X016918Y018788D01*
X016881Y018825D01*
X016808Y018825D01*
X016771Y018788D01*
X016697Y018788D02*
X016660Y018825D01*
X016587Y018825D01*
X016550Y018788D01*
X016550Y018642D01*
X016587Y018605D01*
X016660Y018605D01*
X016697Y018642D01*
X016771Y018605D02*
X016918Y018752D01*
X016918Y018605D02*
X016771Y018605D01*
X016368Y020410D02*
X016295Y020410D01*
X016258Y020447D01*
X016184Y020447D02*
X016147Y020410D01*
X016074Y020410D01*
X016037Y020447D01*
X016037Y020593D01*
X016074Y020630D01*
X016147Y020630D01*
X016184Y020593D01*
X016258Y020593D02*
X016295Y020630D01*
X016368Y020630D01*
X016405Y020593D01*
X016405Y020557D01*
X016368Y020520D01*
X016405Y020483D01*
X016405Y020447D01*
X016368Y020410D01*
X016368Y020520D02*
X016332Y020520D01*
X015963Y020410D02*
X015890Y020410D01*
X015927Y020410D02*
X015927Y020630D01*
X015963Y020630D02*
X015890Y020630D01*
X013695Y017851D02*
X013731Y017814D01*
X013731Y017777D01*
X013695Y017741D01*
X013731Y017704D01*
X013731Y017667D01*
X013695Y017631D01*
X013621Y017631D01*
X013585Y017667D01*
X013510Y017667D02*
X013474Y017631D01*
X013400Y017631D01*
X013364Y017667D01*
X013289Y017667D02*
X013253Y017631D01*
X013179Y017631D01*
X013143Y017667D01*
X013143Y017814D01*
X013179Y017851D01*
X013253Y017851D01*
X013289Y017814D01*
X013364Y017814D02*
X013400Y017851D01*
X013474Y017851D01*
X013510Y017814D01*
X013510Y017777D01*
X013474Y017741D01*
X013510Y017704D01*
X013510Y017667D01*
X013474Y017741D02*
X013437Y017741D01*
X013585Y017814D02*
X013621Y017851D01*
X013695Y017851D01*
X013695Y017741D02*
X013658Y017741D01*
X012629Y016943D02*
X012629Y016907D01*
X012592Y016870D01*
X012629Y016833D01*
X012629Y016797D01*
X012592Y016760D01*
X012519Y016760D01*
X012482Y016797D01*
X012408Y016760D02*
X012261Y016760D01*
X012408Y016907D01*
X012408Y016943D01*
X012371Y016980D01*
X012298Y016980D01*
X012261Y016943D01*
X012187Y016943D02*
X012150Y016980D01*
X012077Y016980D01*
X012040Y016943D01*
X012040Y016797D01*
X012077Y016760D01*
X012150Y016760D01*
X012187Y016797D01*
X012482Y016943D02*
X012519Y016980D01*
X012592Y016980D01*
X012629Y016943D01*
X012592Y016870D02*
X012555Y016870D01*
X011371Y014860D02*
X011408Y014823D01*
X011408Y014787D01*
X011371Y014750D01*
X011298Y014750D01*
X011261Y014787D01*
X011261Y014823D01*
X011298Y014860D01*
X011371Y014860D01*
X011371Y014750D02*
X011408Y014713D01*
X011408Y014677D01*
X011371Y014640D01*
X011298Y014640D01*
X011261Y014677D01*
X011261Y014713D01*
X011298Y014750D01*
X011187Y014860D02*
X011113Y014860D01*
X011150Y014860D02*
X011150Y014677D01*
X011113Y014640D01*
X011077Y014640D01*
X011040Y014677D01*
X011993Y014400D02*
X012067Y014400D01*
X012030Y014400D02*
X012030Y014217D01*
X011993Y014180D01*
X011957Y014180D01*
X011920Y014217D01*
X012141Y014180D02*
X012288Y014180D01*
X012214Y014180D02*
X012214Y014400D01*
X012141Y014327D01*
X012960Y012865D02*
X013070Y012865D01*
X013107Y012828D01*
X013107Y012755D01*
X013070Y012718D01*
X012960Y012718D01*
X012960Y012645D02*
X012960Y012865D01*
X013033Y012718D02*
X013107Y012645D01*
X013181Y012645D02*
X013328Y012645D01*
X013254Y012645D02*
X013254Y012865D01*
X013181Y012792D01*
X013800Y013795D02*
X013947Y013795D01*
X014021Y013795D02*
X014021Y014015D01*
X014168Y014015D01*
X014242Y014015D02*
X014242Y013795D01*
X014352Y013795D01*
X014389Y013832D01*
X014389Y013978D01*
X014352Y014015D01*
X014242Y014015D01*
X014094Y013905D02*
X014021Y013905D01*
X014021Y013795D02*
X014168Y013795D01*
X014463Y013795D02*
X014610Y013795D01*
X014536Y013795D02*
X014536Y014015D01*
X014463Y013942D01*
X013800Y014015D02*
X013800Y013795D01*
X014027Y012405D02*
X013990Y012368D01*
X013990Y012222D01*
X014027Y012185D01*
X014100Y012185D01*
X014137Y012222D01*
X014211Y012295D02*
X014358Y012295D01*
X014321Y012185D02*
X014321Y012405D01*
X014211Y012295D01*
X014137Y012368D02*
X014100Y012405D01*
X014027Y012405D01*
X014497Y011035D02*
X014460Y010998D01*
X014460Y010852D01*
X014497Y010815D01*
X014570Y010815D01*
X014607Y010852D01*
X014681Y010852D02*
X014718Y010815D01*
X014791Y010815D01*
X014828Y010852D01*
X014828Y010925D01*
X014791Y010962D01*
X014754Y010962D01*
X014681Y010925D01*
X014681Y011035D01*
X014828Y011035D01*
X014607Y010998D02*
X014570Y011035D01*
X014497Y011035D01*
X013731Y010851D02*
X013585Y010851D01*
X013585Y010741D01*
X013658Y010777D01*
X013695Y010777D01*
X013731Y010741D01*
X013731Y010667D01*
X013695Y010631D01*
X013621Y010631D01*
X013585Y010667D01*
X013510Y010631D02*
X013364Y010631D01*
X013437Y010631D02*
X013437Y010851D01*
X013364Y010777D01*
X013289Y010814D02*
X013253Y010851D01*
X013179Y010851D01*
X013143Y010814D01*
X013143Y010667D01*
X013179Y010631D01*
X013253Y010631D01*
X013289Y010667D01*
X012334Y009980D02*
X012334Y009760D01*
X012261Y009760D02*
X012408Y009760D01*
X012261Y009907D02*
X012334Y009980D01*
X012187Y009943D02*
X012150Y009980D01*
X012077Y009980D01*
X012040Y009943D01*
X012040Y009797D01*
X012077Y009760D01*
X012150Y009760D01*
X012187Y009797D01*
X011371Y007860D02*
X011298Y007860D01*
X011261Y007823D01*
X011187Y007860D02*
X011113Y007860D01*
X011150Y007860D02*
X011150Y007677D01*
X011113Y007640D01*
X011077Y007640D01*
X011040Y007677D01*
X011261Y007640D02*
X011408Y007787D01*
X011408Y007823D01*
X011371Y007860D01*
X011408Y007640D02*
X011261Y007640D01*
X011993Y007400D02*
X012067Y007400D01*
X012030Y007400D02*
X012030Y007217D01*
X011993Y007180D01*
X011957Y007180D01*
X011920Y007217D01*
X012141Y007217D02*
X012178Y007180D01*
X012251Y007180D01*
X012288Y007217D01*
X012288Y007253D01*
X012251Y007290D01*
X012214Y007290D01*
X012251Y007290D02*
X012288Y007327D01*
X012288Y007363D01*
X012251Y007400D01*
X012178Y007400D01*
X012141Y007363D01*
X012960Y005865D02*
X013070Y005865D01*
X013107Y005828D01*
X013107Y005755D01*
X013070Y005718D01*
X012960Y005718D01*
X012960Y005645D02*
X012960Y005865D01*
X013033Y005718D02*
X013107Y005645D01*
X013181Y005645D02*
X013328Y005792D01*
X013328Y005828D01*
X013291Y005865D01*
X013218Y005865D01*
X013181Y005828D01*
X013181Y005645D02*
X013328Y005645D01*
X013990Y005368D02*
X013990Y005222D01*
X014027Y005185D01*
X014100Y005185D01*
X014137Y005222D01*
X014211Y005185D02*
X014358Y005185D01*
X014284Y005185D02*
X014284Y005405D01*
X014211Y005332D01*
X014137Y005368D02*
X014100Y005405D01*
X014027Y005405D01*
X013990Y005368D01*
X014432Y005368D02*
X014469Y005405D01*
X014542Y005405D01*
X014579Y005368D01*
X014579Y005332D01*
X014432Y005185D01*
X014579Y005185D01*
X014570Y004035D02*
X014497Y004035D01*
X014460Y003998D01*
X014460Y003852D01*
X014497Y003815D01*
X014570Y003815D01*
X014607Y003852D01*
X014681Y003815D02*
X014828Y003815D01*
X014754Y003815D02*
X014754Y004035D01*
X014681Y003962D01*
X014607Y003998D02*
X014570Y004035D01*
X014902Y003925D02*
X015012Y003925D01*
X015049Y003888D01*
X015049Y003852D01*
X015012Y003815D01*
X014939Y003815D01*
X014902Y003852D01*
X014902Y003925D01*
X014975Y003998D01*
X015049Y004035D01*
X015750Y003295D02*
X015750Y003075D01*
X015750Y003148D02*
X015860Y003148D01*
X015897Y003185D01*
X015897Y003258D01*
X015860Y003295D01*
X015750Y003295D01*
X015823Y003148D02*
X015897Y003075D01*
X015971Y003112D02*
X016008Y003075D01*
X016081Y003075D01*
X016118Y003112D01*
X016118Y003148D01*
X016081Y003185D01*
X016044Y003185D01*
X016081Y003185D02*
X016118Y003222D01*
X016118Y003258D01*
X016081Y003295D01*
X016008Y003295D01*
X015971Y003258D01*
X015550Y002705D02*
X015403Y002705D01*
X015513Y002815D01*
X015513Y002595D01*
X015329Y002632D02*
X015329Y002778D01*
X015292Y002815D01*
X015182Y002815D01*
X015182Y002595D01*
X015292Y002595D01*
X015329Y002632D01*
X015108Y002595D02*
X014961Y002595D01*
X014961Y002815D01*
X015108Y002815D01*
X015034Y002705D02*
X014961Y002705D01*
X014887Y002595D02*
X014740Y002595D01*
X014740Y002815D01*
X015830Y002545D02*
X015940Y002545D01*
X015977Y002508D01*
X015977Y002435D01*
X015940Y002398D01*
X015830Y002398D01*
X015830Y002325D02*
X015830Y002545D01*
X015903Y002398D02*
X015977Y002325D01*
X016051Y002362D02*
X016088Y002325D01*
X016161Y002325D01*
X016198Y002362D01*
X016198Y002435D01*
X016161Y002472D01*
X016124Y002472D01*
X016051Y002435D01*
X016051Y002545D01*
X016198Y002545D01*
X017220Y002480D02*
X017330Y002480D01*
X017367Y002443D01*
X017367Y002297D01*
X017330Y002260D01*
X017220Y002260D01*
X017220Y002480D01*
X017441Y002370D02*
X017588Y002370D01*
X017551Y002260D02*
X017551Y002480D01*
X017441Y002370D01*
X017920Y003340D02*
X018030Y003340D01*
X018067Y003377D01*
X018067Y003523D01*
X018030Y003560D01*
X017920Y003560D01*
X017920Y003340D01*
X018141Y003377D02*
X018178Y003340D01*
X018251Y003340D01*
X018288Y003377D01*
X018288Y003413D01*
X018251Y003450D01*
X018214Y003450D01*
X018251Y003450D02*
X018288Y003487D01*
X018288Y003523D01*
X018251Y003560D01*
X018178Y003560D01*
X018141Y003523D01*
X019322Y004209D02*
X019359Y004172D01*
X019395Y004172D01*
X019432Y004209D01*
X019432Y004392D01*
X019395Y004392D02*
X019469Y004392D01*
X019543Y004392D02*
X019543Y004282D01*
X019616Y004319D01*
X019653Y004319D01*
X019690Y004282D01*
X019690Y004209D01*
X019653Y004172D01*
X019579Y004172D01*
X019543Y004209D01*
X019543Y004392D02*
X019690Y004392D01*
X017139Y004788D02*
X016992Y004642D01*
X016992Y004605D01*
X016918Y004605D02*
X016771Y004605D01*
X016844Y004605D02*
X016844Y004825D01*
X016771Y004752D01*
X016697Y004788D02*
X016660Y004825D01*
X016587Y004825D01*
X016550Y004788D01*
X016550Y004642D01*
X016587Y004605D01*
X016660Y004605D01*
X016697Y004642D01*
X016992Y004825D02*
X017139Y004825D01*
X017139Y004788D01*
X016405Y006410D02*
X016258Y006410D01*
X016405Y006557D01*
X016405Y006593D01*
X016368Y006630D01*
X016295Y006630D01*
X016258Y006593D01*
X016184Y006593D02*
X016147Y006630D01*
X016074Y006630D01*
X016037Y006593D01*
X016037Y006447D01*
X016074Y006410D01*
X016147Y006410D01*
X016184Y006447D01*
X015963Y006410D02*
X015890Y006410D01*
X015927Y006410D02*
X015927Y006630D01*
X015963Y006630D02*
X015890Y006630D01*
X014610Y006832D02*
X014573Y006795D01*
X014500Y006795D01*
X014463Y006832D01*
X014389Y006832D02*
X014389Y006978D01*
X014352Y007015D01*
X014242Y007015D01*
X014242Y006795D01*
X014352Y006795D01*
X014389Y006832D01*
X014463Y006978D02*
X014500Y007015D01*
X014573Y007015D01*
X014610Y006978D01*
X014610Y006942D01*
X014573Y006905D01*
X014610Y006868D01*
X014610Y006832D01*
X014573Y006905D02*
X014536Y006905D01*
X014168Y006795D02*
X014021Y006795D01*
X014021Y007015D01*
X014168Y007015D01*
X014094Y006905D02*
X014021Y006905D01*
X013947Y006795D02*
X013800Y006795D01*
X013800Y007015D01*
X014740Y009595D02*
X014887Y009595D01*
X014961Y009595D02*
X015108Y009595D01*
X015182Y009595D02*
X015292Y009595D01*
X015329Y009632D01*
X015329Y009778D01*
X015292Y009815D01*
X015182Y009815D01*
X015182Y009595D01*
X015034Y009705D02*
X014961Y009705D01*
X014961Y009815D02*
X014961Y009595D01*
X014961Y009815D02*
X015108Y009815D01*
X015403Y009778D02*
X015440Y009815D01*
X015513Y009815D01*
X015550Y009778D01*
X015550Y009742D01*
X015403Y009595D01*
X015550Y009595D01*
X015830Y009545D02*
X015830Y009325D01*
X015830Y009398D02*
X015940Y009398D01*
X015977Y009435D01*
X015977Y009508D01*
X015940Y009545D01*
X015830Y009545D01*
X015903Y009398D02*
X015977Y009325D01*
X016051Y009362D02*
X016088Y009325D01*
X016161Y009325D01*
X016198Y009362D01*
X016198Y009508D01*
X016161Y009545D01*
X016088Y009545D01*
X016051Y009508D01*
X016051Y009472D01*
X016088Y009435D01*
X016198Y009435D01*
X015971Y010075D02*
X015971Y010112D01*
X016118Y010258D01*
X016118Y010295D01*
X015971Y010295D01*
X015897Y010258D02*
X015897Y010185D01*
X015860Y010148D01*
X015750Y010148D01*
X015750Y010075D02*
X015750Y010295D01*
X015860Y010295D01*
X015897Y010258D01*
X015823Y010148D02*
X015897Y010075D01*
X016587Y011605D02*
X016660Y011605D01*
X016697Y011642D01*
X016771Y011642D02*
X016771Y011678D01*
X016808Y011715D01*
X016881Y011715D01*
X016918Y011678D01*
X016918Y011642D01*
X016881Y011605D01*
X016808Y011605D01*
X016771Y011642D01*
X016808Y011715D02*
X016771Y011752D01*
X016771Y011788D01*
X016808Y011825D01*
X016881Y011825D01*
X016918Y011788D01*
X016918Y011752D01*
X016881Y011715D01*
X016697Y011788D02*
X016660Y011825D01*
X016587Y011825D01*
X016550Y011788D01*
X016550Y011642D01*
X016587Y011605D01*
X016405Y013410D02*
X016258Y013410D01*
X016332Y013410D02*
X016332Y013630D01*
X016258Y013557D01*
X016184Y013593D02*
X016147Y013630D01*
X016074Y013630D01*
X016037Y013593D01*
X016037Y013447D01*
X016074Y013410D01*
X016147Y013410D01*
X016184Y013447D01*
X015963Y013410D02*
X015890Y013410D01*
X015927Y013410D02*
X015927Y013630D01*
X015963Y013630D02*
X015890Y013630D01*
X017920Y010560D02*
X018030Y010560D01*
X018067Y010523D01*
X018067Y010377D01*
X018030Y010340D01*
X017920Y010340D01*
X017920Y010560D01*
X018141Y010487D02*
X018214Y010560D01*
X018214Y010340D01*
X018141Y010340D02*
X018288Y010340D01*
X017551Y009480D02*
X017588Y009443D01*
X017588Y009407D01*
X017441Y009260D01*
X017588Y009260D01*
X017551Y009480D02*
X017478Y009480D01*
X017441Y009443D01*
X017367Y009443D02*
X017330Y009480D01*
X017220Y009480D01*
X017220Y009260D01*
X017330Y009260D01*
X017367Y009297D01*
X017367Y009443D01*
X019322Y011209D02*
X019359Y011172D01*
X019395Y011172D01*
X019432Y011209D01*
X019432Y011392D01*
X019395Y011392D02*
X019469Y011392D01*
X019543Y011282D02*
X019616Y011356D01*
X019690Y011392D01*
X019653Y011282D02*
X019543Y011282D01*
X019543Y011209D01*
X019579Y011172D01*
X019653Y011172D01*
X019690Y011209D01*
X019690Y011246D01*
X019653Y011282D01*
X014740Y009815D02*
X014740Y009595D01*
X013695Y003851D02*
X013621Y003851D01*
X013585Y003814D01*
X013510Y003814D02*
X013474Y003851D01*
X013400Y003851D01*
X013364Y003814D01*
X013289Y003814D02*
X013253Y003851D01*
X013179Y003851D01*
X013143Y003814D01*
X013143Y003667D01*
X013179Y003631D01*
X013253Y003631D01*
X013289Y003667D01*
X013364Y003631D02*
X013510Y003777D01*
X013510Y003814D01*
X013510Y003631D02*
X013364Y003631D01*
X013585Y003631D02*
X013731Y003777D01*
X013731Y003814D01*
X013695Y003851D01*
X013731Y003631D02*
X013585Y003631D01*
X012408Y002980D02*
X012334Y002943D01*
X012261Y002870D01*
X012371Y002870D01*
X012408Y002833D01*
X012408Y002797D01*
X012371Y002760D01*
X012298Y002760D01*
X012261Y002797D01*
X012261Y002870D01*
X012187Y002797D02*
X012150Y002760D01*
X012077Y002760D01*
X012040Y002797D01*
X012040Y002943D01*
X012077Y002980D01*
X012150Y002980D01*
X012187Y002943D01*
X010909Y004164D02*
X010762Y004164D01*
X010909Y004311D01*
X010909Y004347D01*
X010872Y004384D01*
X010799Y004384D01*
X010762Y004347D01*
X010688Y004384D02*
X010688Y004200D01*
X010651Y004164D01*
X010578Y004164D01*
X010541Y004200D01*
X010541Y004384D01*
X008599Y003252D02*
X008599Y003215D01*
X008453Y003068D01*
X008453Y003032D01*
X008378Y003068D02*
X008342Y003032D01*
X008268Y003032D01*
X008232Y003068D01*
X008232Y003215D01*
X008268Y003252D01*
X008342Y003252D01*
X008378Y003215D01*
X008453Y003252D02*
X008599Y003252D01*
X007994Y003140D02*
X007847Y003140D01*
X007920Y003140D02*
X007920Y003360D01*
X007847Y003287D01*
X007773Y003360D02*
X007773Y003140D01*
X007626Y003140D02*
X007626Y003360D01*
X007699Y003287D01*
X007773Y003360D01*
X007552Y003287D02*
X007552Y003140D01*
X007552Y003250D02*
X007405Y003250D01*
X007405Y003287D02*
X007405Y003140D01*
X007331Y003140D02*
X007257Y003213D01*
X007294Y003213D02*
X007184Y003213D01*
X007184Y003140D02*
X007184Y003360D01*
X007294Y003360D01*
X007331Y003323D01*
X007331Y003250D01*
X007294Y003213D01*
X007405Y003287D02*
X007478Y003360D01*
X007552Y003287D01*
X007837Y004265D02*
X007910Y004265D01*
X007947Y004302D01*
X008021Y004265D02*
X008168Y004265D01*
X008094Y004265D02*
X008094Y004485D01*
X008021Y004412D01*
X007947Y004448D02*
X007910Y004485D01*
X007837Y004485D01*
X007800Y004448D01*
X007800Y004302D01*
X007837Y004265D01*
X008242Y004302D02*
X008279Y004265D01*
X008352Y004265D01*
X008389Y004302D01*
X008389Y004448D01*
X008352Y004485D01*
X008279Y004485D01*
X008242Y004448D01*
X008242Y004412D01*
X008279Y004375D01*
X008389Y004375D01*
X008371Y005100D02*
X008298Y005100D01*
X008261Y005137D01*
X008187Y005137D02*
X008150Y005100D01*
X008077Y005100D01*
X008040Y005137D01*
X008040Y005283D01*
X008077Y005320D01*
X008150Y005320D01*
X008187Y005283D01*
X008187Y005137D01*
X008187Y005100D02*
X008113Y005173D01*
X008261Y005283D02*
X008298Y005320D01*
X008371Y005320D01*
X008408Y005283D01*
X008408Y005247D01*
X008371Y005210D01*
X008408Y005173D01*
X008408Y005137D01*
X008371Y005100D01*
X008371Y005210D02*
X008334Y005210D01*
X008302Y006335D02*
X008449Y006335D01*
X008375Y006335D02*
X008375Y006555D01*
X008302Y006482D01*
X008228Y006335D02*
X008081Y006335D01*
X008154Y006335D02*
X008154Y006555D01*
X008081Y006482D01*
X008007Y006518D02*
X007970Y006555D01*
X007897Y006555D01*
X007860Y006518D01*
X007860Y006372D01*
X007897Y006335D01*
X007970Y006335D01*
X008007Y006372D01*
X007073Y003360D02*
X007000Y003360D01*
X006963Y003323D01*
X006963Y003177D01*
X007000Y003140D01*
X007073Y003140D01*
X007110Y003177D01*
X007110Y003250D01*
X007036Y003250D01*
X007110Y003323D02*
X007073Y003360D01*
X006889Y003323D02*
X006889Y003177D01*
X006852Y003140D01*
X006779Y003140D01*
X006742Y003177D01*
X006742Y003323D01*
X006779Y003360D01*
X006852Y003360D01*
X006889Y003323D01*
X006668Y003323D02*
X006668Y003250D01*
X006631Y003213D01*
X006521Y003213D01*
X006521Y003140D02*
X006521Y003360D01*
X006631Y003360D01*
X006668Y003323D01*
X006594Y003213D02*
X006668Y003140D01*
X006447Y003250D02*
X006447Y003323D01*
X006410Y003360D01*
X006300Y003360D01*
X006300Y003140D01*
X006300Y003213D02*
X006410Y003213D01*
X006447Y003250D01*
X005195Y004177D02*
X005195Y004250D01*
X005158Y004287D01*
X005195Y004361D02*
X005195Y004508D01*
X005195Y004434D02*
X004975Y004434D01*
X005048Y004361D01*
X005012Y004287D02*
X004975Y004250D01*
X004975Y004177D01*
X005012Y004140D01*
X005158Y004140D01*
X005195Y004177D01*
X005158Y004582D02*
X005122Y004582D01*
X005085Y004619D01*
X005085Y004692D01*
X005122Y004729D01*
X005158Y004729D01*
X005195Y004692D01*
X005195Y004619D01*
X005158Y004582D01*
X005085Y004619D02*
X005048Y004582D01*
X005012Y004582D01*
X004975Y004619D01*
X004975Y004692D01*
X005012Y004729D01*
X005048Y004729D01*
X005085Y004692D01*
X004588Y004757D02*
X004551Y004720D01*
X004478Y004720D01*
X004441Y004757D01*
X004441Y004830D01*
X004551Y004830D01*
X004588Y004793D01*
X004588Y004757D01*
X004514Y004903D02*
X004588Y004940D01*
X004514Y004903D02*
X004441Y004830D01*
X004367Y004830D02*
X004330Y004793D01*
X004220Y004793D01*
X004220Y004720D02*
X004220Y004940D01*
X004330Y004940D01*
X004367Y004903D01*
X004367Y004830D01*
X004293Y004793D02*
X004367Y004720D01*
X003732Y003940D02*
X003769Y003903D01*
X003622Y003757D01*
X003659Y003720D01*
X003732Y003720D01*
X003769Y003757D01*
X003769Y003903D01*
X003732Y003940D02*
X003659Y003940D01*
X003622Y003903D01*
X003622Y003757D01*
X003548Y003720D02*
X003401Y003720D01*
X003548Y003867D01*
X003548Y003903D01*
X003511Y003940D01*
X003438Y003940D01*
X003401Y003903D01*
X003327Y003903D02*
X003290Y003940D01*
X003217Y003940D01*
X003180Y003903D01*
X003180Y003757D01*
X003217Y003720D01*
X003290Y003720D01*
X003327Y003757D01*
X002851Y004735D02*
X002851Y004955D01*
X002741Y004845D01*
X002888Y004845D01*
X002667Y004845D02*
X002630Y004808D01*
X002520Y004808D01*
X002520Y004735D02*
X002520Y004955D01*
X002630Y004955D01*
X002667Y004918D01*
X002667Y004845D01*
X002593Y004808D02*
X002667Y004735D01*
X003270Y006550D02*
X003270Y006770D01*
X003380Y006770D01*
X003417Y006733D01*
X003417Y006660D01*
X003380Y006623D01*
X003270Y006623D01*
X003343Y006623D02*
X003417Y006550D01*
X003491Y006550D02*
X003491Y006770D01*
X003638Y006770D01*
X003712Y006733D02*
X003712Y006697D01*
X003749Y006660D01*
X003822Y006660D01*
X003859Y006623D01*
X003859Y006587D01*
X003822Y006550D01*
X003749Y006550D01*
X003712Y006587D01*
X003638Y006550D02*
X003491Y006550D01*
X003491Y006660D02*
X003564Y006660D01*
X003712Y006733D02*
X003749Y006770D01*
X003822Y006770D01*
X003859Y006733D01*
X003933Y006770D02*
X003933Y006550D01*
X004080Y006550D01*
X004006Y006660D02*
X003933Y006660D01*
X003933Y006770D02*
X004080Y006770D01*
X004154Y006770D02*
X004301Y006770D01*
X004227Y006770D02*
X004227Y006550D01*
X004375Y006550D02*
X004522Y006550D01*
X004448Y006550D02*
X004448Y006770D01*
X004375Y006697D01*
X003712Y009340D02*
X003712Y009560D01*
X003602Y009450D01*
X003749Y009450D01*
X003528Y009340D02*
X003381Y009340D01*
X003454Y009340D02*
X003454Y009560D01*
X003381Y009487D01*
X003307Y009523D02*
X003270Y009560D01*
X003197Y009560D01*
X003160Y009523D01*
X003160Y009377D01*
X003197Y009340D01*
X003270Y009340D01*
X003307Y009377D01*
X003290Y010720D02*
X003217Y010720D01*
X003180Y010757D01*
X003180Y010903D01*
X003217Y010940D01*
X003290Y010940D01*
X003327Y010903D01*
X003401Y010867D02*
X003474Y010940D01*
X003474Y010720D01*
X003401Y010720D02*
X003548Y010720D01*
X003622Y010757D02*
X003659Y010720D01*
X003732Y010720D01*
X003769Y010757D01*
X003769Y010793D01*
X003732Y010830D01*
X003695Y010830D01*
X003732Y010830D02*
X003769Y010867D01*
X003769Y010903D01*
X003732Y010940D01*
X003659Y010940D01*
X003622Y010903D01*
X003327Y010757D02*
X003290Y010720D01*
X002851Y011735D02*
X002778Y011735D01*
X002741Y011772D01*
X002741Y011808D01*
X002778Y011845D01*
X002851Y011845D01*
X002888Y011808D01*
X002888Y011772D01*
X002851Y011735D01*
X002851Y011845D02*
X002888Y011882D01*
X002888Y011918D01*
X002851Y011955D01*
X002778Y011955D01*
X002741Y011918D01*
X002741Y011882D01*
X002778Y011845D01*
X002667Y011845D02*
X002630Y011808D01*
X002520Y011808D01*
X002520Y011735D02*
X002520Y011955D01*
X002630Y011955D01*
X002667Y011918D01*
X002667Y011845D01*
X002593Y011808D02*
X002667Y011735D01*
X003270Y013550D02*
X003270Y013770D01*
X003380Y013770D01*
X003417Y013733D01*
X003417Y013660D01*
X003380Y013623D01*
X003270Y013623D01*
X003343Y013623D02*
X003417Y013550D01*
X003491Y013550D02*
X003638Y013550D01*
X003712Y013587D02*
X003749Y013550D01*
X003822Y013550D01*
X003859Y013587D01*
X003859Y013623D01*
X003822Y013660D01*
X003749Y013660D01*
X003712Y013697D01*
X003712Y013733D01*
X003749Y013770D01*
X003822Y013770D01*
X003859Y013733D01*
X003933Y013770D02*
X003933Y013550D01*
X004080Y013550D01*
X004006Y013660D02*
X003933Y013660D01*
X003933Y013770D02*
X004080Y013770D01*
X004154Y013770D02*
X004301Y013770D01*
X004227Y013770D02*
X004227Y013550D01*
X004375Y013550D02*
X004522Y013697D01*
X004522Y013733D01*
X004485Y013770D01*
X004412Y013770D01*
X004375Y013733D01*
X004375Y013550D02*
X004522Y013550D01*
X003638Y013770D02*
X003491Y013770D01*
X003491Y013550D01*
X003491Y013660D02*
X003564Y013660D01*
X004220Y011940D02*
X004330Y011940D01*
X004367Y011903D01*
X004367Y011830D01*
X004330Y011793D01*
X004220Y011793D01*
X004220Y011720D02*
X004220Y011940D01*
X004293Y011793D02*
X004367Y011720D01*
X004441Y011720D02*
X004588Y011720D01*
X004514Y011720D02*
X004514Y011940D01*
X004441Y011867D01*
X004662Y011903D02*
X004699Y011940D01*
X004772Y011940D01*
X004809Y011903D01*
X004662Y011757D01*
X004699Y011720D01*
X004772Y011720D01*
X004809Y011757D01*
X004809Y011903D01*
X004662Y011903D02*
X004662Y011757D01*
X004975Y011471D02*
X004975Y011398D01*
X005012Y011361D01*
X005048Y011361D01*
X005085Y011398D01*
X005085Y011508D01*
X005158Y011508D02*
X005012Y011508D01*
X004975Y011471D01*
X005158Y011508D02*
X005195Y011471D01*
X005195Y011398D01*
X005158Y011361D01*
X005158Y011287D02*
X005195Y011250D01*
X005195Y011177D01*
X005158Y011140D01*
X005012Y011140D01*
X004975Y011177D01*
X004975Y011250D01*
X005012Y011287D01*
X004781Y010450D02*
X004708Y010450D01*
X004671Y010413D01*
X004597Y010413D02*
X004597Y010267D01*
X004560Y010230D01*
X004487Y010230D01*
X004450Y010267D01*
X004450Y010413D01*
X004487Y010450D01*
X004560Y010450D01*
X004597Y010413D01*
X004523Y010303D02*
X004597Y010230D01*
X004671Y010230D02*
X004818Y010377D01*
X004818Y010413D01*
X004781Y010450D01*
X004818Y010230D02*
X004671Y010230D01*
X006300Y010213D02*
X006410Y010213D01*
X006447Y010250D01*
X006447Y010323D01*
X006410Y010360D01*
X006300Y010360D01*
X006300Y010140D01*
X006521Y010140D02*
X006521Y010360D01*
X006631Y010360D01*
X006668Y010323D01*
X006668Y010250D01*
X006631Y010213D01*
X006521Y010213D01*
X006594Y010213D02*
X006668Y010140D01*
X006742Y010177D02*
X006742Y010323D01*
X006779Y010360D01*
X006852Y010360D01*
X006889Y010323D01*
X006889Y010177D01*
X006852Y010140D01*
X006779Y010140D01*
X006742Y010177D01*
X006963Y010177D02*
X006963Y010323D01*
X007000Y010360D01*
X007073Y010360D01*
X007110Y010323D01*
X007110Y010250D02*
X007036Y010250D01*
X007110Y010250D02*
X007110Y010177D01*
X007073Y010140D01*
X007000Y010140D01*
X006963Y010177D01*
X007184Y010213D02*
X007294Y010213D01*
X007331Y010250D01*
X007331Y010323D01*
X007294Y010360D01*
X007184Y010360D01*
X007184Y010140D01*
X007257Y010213D02*
X007331Y010140D01*
X007405Y010140D02*
X007405Y010287D01*
X007478Y010360D01*
X007552Y010287D01*
X007552Y010140D01*
X007626Y010140D02*
X007626Y010360D01*
X007699Y010287D01*
X007773Y010360D01*
X007773Y010140D01*
X007847Y010140D02*
X007994Y010287D01*
X007994Y010323D01*
X007957Y010360D01*
X007884Y010360D01*
X007847Y010323D01*
X007847Y010140D02*
X007994Y010140D01*
X008232Y010068D02*
X008232Y010215D01*
X008268Y010252D01*
X008342Y010252D01*
X008378Y010215D01*
X008453Y010215D02*
X008489Y010252D01*
X008563Y010252D01*
X008599Y010215D01*
X008599Y010178D01*
X008453Y010032D01*
X008599Y010032D01*
X008378Y010068D02*
X008342Y010032D01*
X008268Y010032D01*
X008232Y010068D01*
X007552Y010250D02*
X007405Y010250D01*
X007837Y011265D02*
X007910Y011265D01*
X007947Y011302D01*
X008021Y011265D02*
X008168Y011265D01*
X008094Y011265D02*
X008094Y011485D01*
X008021Y011412D01*
X007947Y011448D02*
X007910Y011485D01*
X007837Y011485D01*
X007800Y011448D01*
X007800Y011302D01*
X007837Y011265D01*
X008242Y011302D02*
X008279Y011265D01*
X008352Y011265D01*
X008389Y011302D01*
X008389Y011448D01*
X008242Y011302D01*
X008242Y011448D01*
X008279Y011485D01*
X008352Y011485D01*
X008389Y011448D01*
X008408Y012100D02*
X008261Y012100D01*
X008334Y012100D02*
X008334Y012320D01*
X008261Y012247D01*
X008187Y012283D02*
X008187Y012137D01*
X008150Y012100D01*
X008077Y012100D01*
X008040Y012137D01*
X008040Y012283D01*
X008077Y012320D01*
X008150Y012320D01*
X008187Y012283D01*
X008113Y012173D02*
X008187Y012100D01*
X008191Y013335D02*
X008118Y013335D01*
X008081Y013372D01*
X008007Y013372D02*
X007970Y013335D01*
X007897Y013335D01*
X007860Y013372D01*
X007860Y013518D01*
X007897Y013555D01*
X007970Y013555D01*
X008007Y013518D01*
X008081Y013518D02*
X008118Y013555D01*
X008191Y013555D01*
X008228Y013518D01*
X008228Y013482D01*
X008191Y013445D01*
X008228Y013408D01*
X008228Y013372D01*
X008191Y013335D01*
X008191Y013445D02*
X008154Y013445D01*
X008268Y017032D02*
X008342Y017032D01*
X008378Y017068D01*
X008453Y017032D02*
X008599Y017178D01*
X008599Y017215D01*
X008563Y017252D01*
X008489Y017252D01*
X008453Y017215D01*
X008378Y017215D02*
X008342Y017252D01*
X008268Y017252D01*
X008232Y017215D01*
X008232Y017068D01*
X008268Y017032D01*
X008453Y017032D02*
X008599Y017032D01*
X008674Y017142D02*
X008820Y017142D01*
X008784Y017252D02*
X008674Y017142D01*
X008784Y017032D02*
X008784Y017252D01*
X007994Y017287D02*
X007957Y017250D01*
X007994Y017213D01*
X007994Y017177D01*
X007957Y017140D01*
X007884Y017140D01*
X007847Y017177D01*
X007773Y017140D02*
X007773Y017360D01*
X007699Y017287D01*
X007626Y017360D01*
X007626Y017140D01*
X007552Y017140D02*
X007552Y017287D01*
X007478Y017360D01*
X007405Y017287D01*
X007405Y017140D01*
X007331Y017140D02*
X007257Y017213D01*
X007294Y017213D02*
X007184Y017213D01*
X007184Y017140D02*
X007184Y017360D01*
X007294Y017360D01*
X007331Y017323D01*
X007331Y017250D01*
X007294Y017213D01*
X007405Y017250D02*
X007552Y017250D01*
X007847Y017323D02*
X007884Y017360D01*
X007957Y017360D01*
X007994Y017323D01*
X007994Y017287D01*
X007957Y017250D02*
X007920Y017250D01*
X007910Y018265D02*
X007947Y018302D01*
X007910Y018265D02*
X007837Y018265D01*
X007800Y018302D01*
X007800Y018448D01*
X007837Y018485D01*
X007910Y018485D01*
X007947Y018448D01*
X008021Y018448D02*
X008058Y018485D01*
X008131Y018485D01*
X008168Y018448D01*
X008168Y018412D01*
X008131Y018375D01*
X008168Y018338D01*
X008168Y018302D01*
X008131Y018265D01*
X008058Y018265D01*
X008021Y018302D01*
X008094Y018375D02*
X008131Y018375D01*
X008242Y018302D02*
X008389Y018448D01*
X008389Y018302D01*
X008352Y018265D01*
X008279Y018265D01*
X008242Y018302D01*
X008242Y018448D01*
X008279Y018485D01*
X008352Y018485D01*
X008389Y018448D01*
X008371Y019100D02*
X008298Y019100D01*
X008261Y019137D01*
X008261Y019210D02*
X008334Y019247D01*
X008371Y019247D01*
X008408Y019210D01*
X008408Y019137D01*
X008371Y019100D01*
X008261Y019210D02*
X008261Y019320D01*
X008408Y019320D01*
X008187Y019283D02*
X008187Y019137D01*
X008150Y019100D01*
X008077Y019100D01*
X008040Y019137D01*
X008040Y019283D01*
X008077Y019320D01*
X008150Y019320D01*
X008187Y019283D01*
X008113Y019173D02*
X008187Y019100D01*
X008228Y020335D02*
X008081Y020335D01*
X008228Y020482D01*
X008228Y020518D01*
X008191Y020555D01*
X008118Y020555D01*
X008081Y020518D01*
X008007Y020518D02*
X007970Y020555D01*
X007897Y020555D01*
X007860Y020518D01*
X007860Y020372D01*
X007897Y020335D01*
X007970Y020335D01*
X008007Y020372D01*
X008302Y020372D02*
X008339Y020335D01*
X008412Y020335D01*
X008449Y020372D01*
X008449Y020445D01*
X008412Y020482D01*
X008375Y020482D01*
X008302Y020445D01*
X008302Y020555D01*
X008449Y020555D01*
X010541Y018384D02*
X010541Y018200D01*
X010578Y018164D01*
X010651Y018164D01*
X010688Y018200D01*
X010688Y018384D01*
X010762Y018347D02*
X010799Y018384D01*
X010872Y018384D01*
X010909Y018347D01*
X010909Y018311D01*
X010872Y018274D01*
X010909Y018237D01*
X010909Y018200D01*
X010872Y018164D01*
X010799Y018164D01*
X010762Y018200D01*
X010836Y018274D02*
X010872Y018274D01*
X011957Y021180D02*
X011993Y021180D01*
X012030Y021217D01*
X012030Y021400D01*
X011993Y021400D02*
X012067Y021400D01*
X012141Y021400D02*
X012288Y021400D01*
X012288Y021363D01*
X012141Y021217D01*
X012141Y021180D01*
X011957Y021180D02*
X011920Y021217D01*
X011629Y021640D02*
X011482Y021640D01*
X011555Y021640D02*
X011555Y021860D01*
X011482Y021787D01*
X011408Y021640D02*
X011261Y021640D01*
X011334Y021640D02*
X011334Y021860D01*
X011261Y021787D01*
X011187Y021860D02*
X011113Y021860D01*
X011150Y021860D02*
X011150Y021677D01*
X011113Y021640D01*
X011077Y021640D01*
X011040Y021677D01*
X007073Y017360D02*
X007000Y017360D01*
X006963Y017323D01*
X006963Y017177D01*
X007000Y017140D01*
X007073Y017140D01*
X007110Y017177D01*
X007110Y017250D01*
X007036Y017250D01*
X007110Y017323D02*
X007073Y017360D01*
X006889Y017323D02*
X006852Y017360D01*
X006779Y017360D01*
X006742Y017323D01*
X006742Y017177D01*
X006779Y017140D01*
X006852Y017140D01*
X006889Y017177D01*
X006889Y017323D01*
X006668Y017323D02*
X006668Y017250D01*
X006631Y017213D01*
X006521Y017213D01*
X006521Y017140D02*
X006521Y017360D01*
X006631Y017360D01*
X006668Y017323D01*
X006594Y017213D02*
X006668Y017140D01*
X006447Y017250D02*
X006410Y017213D01*
X006300Y017213D01*
X006300Y017140D02*
X006300Y017360D01*
X006410Y017360D01*
X006447Y017323D01*
X006447Y017250D01*
X005195Y018177D02*
X005195Y018250D01*
X005158Y018287D01*
X005195Y018361D02*
X005048Y018508D01*
X005012Y018508D01*
X004975Y018471D01*
X004975Y018398D01*
X005012Y018361D01*
X005012Y018287D02*
X004975Y018250D01*
X004975Y018177D01*
X005012Y018140D01*
X005158Y018140D01*
X005195Y018177D01*
X005195Y018361D02*
X005195Y018508D01*
X005158Y018582D02*
X005195Y018619D01*
X005195Y018692D01*
X005158Y018729D01*
X005012Y018729D01*
X004975Y018692D01*
X004975Y018619D01*
X005012Y018582D01*
X005048Y018582D01*
X005085Y018619D01*
X005085Y018729D01*
X004809Y018757D02*
X004772Y018720D01*
X004699Y018720D01*
X004662Y018757D01*
X004662Y018830D02*
X004735Y018867D01*
X004772Y018867D01*
X004809Y018830D01*
X004809Y018757D01*
X004662Y018830D02*
X004662Y018940D01*
X004809Y018940D01*
X004588Y018720D02*
X004441Y018720D01*
X004514Y018720D02*
X004514Y018940D01*
X004441Y018867D01*
X004367Y018903D02*
X004367Y018830D01*
X004330Y018793D01*
X004220Y018793D01*
X004220Y018720D02*
X004220Y018940D01*
X004330Y018940D01*
X004367Y018903D01*
X004293Y018793D02*
X004367Y018720D01*
X003695Y017940D02*
X003695Y017720D01*
X003622Y017720D02*
X003769Y017720D01*
X003622Y017867D02*
X003695Y017940D01*
X003548Y017903D02*
X003548Y017867D01*
X003511Y017830D01*
X003548Y017793D01*
X003548Y017757D01*
X003511Y017720D01*
X003438Y017720D01*
X003401Y017757D01*
X003327Y017757D02*
X003290Y017720D01*
X003217Y017720D01*
X003180Y017757D01*
X003180Y017903D01*
X003217Y017940D01*
X003290Y017940D01*
X003327Y017903D01*
X003401Y017903D02*
X003438Y017940D01*
X003511Y017940D01*
X003548Y017903D01*
X003511Y017830D02*
X003474Y017830D01*
X003072Y018735D02*
X002999Y018735D01*
X002962Y018772D01*
X002888Y018735D02*
X002741Y018735D01*
X002814Y018735D02*
X002814Y018955D01*
X002741Y018882D01*
X002667Y018918D02*
X002667Y018845D01*
X002630Y018808D01*
X002520Y018808D01*
X002520Y018735D02*
X002520Y018955D01*
X002630Y018955D01*
X002667Y018918D01*
X002593Y018808D02*
X002667Y018735D01*
X002962Y018918D02*
X002999Y018955D01*
X003072Y018955D01*
X003109Y018918D01*
X003109Y018882D01*
X003072Y018845D01*
X003109Y018808D01*
X003109Y018772D01*
X003072Y018735D01*
X003072Y018845D02*
X003035Y018845D01*
X003270Y020550D02*
X003270Y020770D01*
X003380Y020770D01*
X003417Y020733D01*
X003417Y020660D01*
X003380Y020623D01*
X003270Y020623D01*
X003343Y020623D02*
X003417Y020550D01*
X003491Y020550D02*
X003638Y020550D01*
X003712Y020587D02*
X003749Y020550D01*
X003822Y020550D01*
X003859Y020587D01*
X003859Y020623D01*
X003822Y020660D01*
X003749Y020660D01*
X003712Y020697D01*
X003712Y020733D01*
X003749Y020770D01*
X003822Y020770D01*
X003859Y020733D01*
X003933Y020770D02*
X003933Y020550D01*
X004080Y020550D01*
X004006Y020660D02*
X003933Y020660D01*
X003933Y020770D02*
X004080Y020770D01*
X004154Y020770D02*
X004301Y020770D01*
X004227Y020770D02*
X004227Y020550D01*
X004375Y020587D02*
X004412Y020550D01*
X004485Y020550D01*
X004522Y020587D01*
X004522Y020623D01*
X004485Y020660D01*
X004448Y020660D01*
X004485Y020660D02*
X004522Y020697D01*
X004522Y020733D01*
X004485Y020770D01*
X004412Y020770D01*
X004375Y020733D01*
X003638Y020770D02*
X003491Y020770D01*
X003491Y020550D01*
X003491Y020660D02*
X003564Y020660D01*
X003491Y023340D02*
X003491Y023560D01*
X003381Y023450D01*
X003528Y023450D01*
X003602Y023377D02*
X003639Y023340D01*
X003712Y023340D01*
X003749Y023377D01*
X003749Y023413D01*
X003712Y023450D01*
X003675Y023450D01*
X003712Y023450D02*
X003749Y023487D01*
X003749Y023523D01*
X003712Y023560D01*
X003639Y023560D01*
X003602Y023523D01*
X003307Y023523D02*
X003270Y023560D01*
X003197Y023560D01*
X003160Y023523D01*
X003160Y023377D01*
X003197Y023340D01*
X003270Y023340D01*
X003307Y023377D01*
X001240Y026760D02*
X001240Y026980D01*
X001130Y026870D01*
X001277Y026870D01*
X001056Y026870D02*
X001019Y026833D01*
X000909Y026833D01*
X000909Y026760D02*
X000909Y026980D01*
X001019Y026980D01*
X001056Y026943D01*
X001056Y026870D01*
X000835Y026833D02*
X000835Y026797D01*
X000798Y026760D01*
X000725Y026760D01*
X000688Y026797D01*
X000614Y026797D02*
X000577Y026760D01*
X000504Y026760D01*
X000467Y026797D01*
X000467Y026943D01*
X000504Y026980D01*
X000577Y026980D01*
X000614Y026943D01*
X000688Y026943D02*
X000725Y026980D01*
X000798Y026980D01*
X000835Y026943D01*
X000798Y026870D02*
X000835Y026833D01*
X000798Y026870D02*
X000725Y026870D01*
X000688Y026907D01*
X000688Y026943D01*
X000393Y026980D02*
X000320Y026980D01*
X000357Y026980D02*
X000357Y026760D01*
X000393Y026760D02*
X000320Y026760D01*
X002520Y032735D02*
X002520Y032955D01*
X002630Y032955D01*
X002667Y032918D01*
X002667Y032845D01*
X002630Y032808D01*
X002520Y032808D01*
X002593Y032808D02*
X002667Y032735D01*
X002741Y032735D02*
X002888Y032882D01*
X002888Y032918D01*
X002851Y032955D01*
X002778Y032955D01*
X002741Y032918D01*
X002741Y032735D02*
X002888Y032735D01*
X002962Y032772D02*
X002999Y032735D01*
X003072Y032735D01*
X003109Y032772D01*
X003109Y032808D01*
X003072Y032845D01*
X003035Y032845D01*
X003072Y032845D02*
X003109Y032882D01*
X003109Y032918D01*
X003072Y032955D01*
X002999Y032955D01*
X002962Y032918D01*
X003270Y034550D02*
X003270Y034770D01*
X003380Y034770D01*
X003417Y034733D01*
X003417Y034660D01*
X003380Y034623D01*
X003270Y034623D01*
X003343Y034623D02*
X003417Y034550D01*
X003491Y034550D02*
X003491Y034770D01*
X003638Y034770D01*
X003712Y034733D02*
X003712Y034697D01*
X003749Y034660D01*
X003822Y034660D01*
X003859Y034623D01*
X003859Y034587D01*
X003822Y034550D01*
X003749Y034550D01*
X003712Y034587D01*
X003638Y034550D02*
X003491Y034550D01*
X003491Y034660D02*
X003564Y034660D01*
X003712Y034733D02*
X003749Y034770D01*
X003822Y034770D01*
X003859Y034733D01*
X003933Y034770D02*
X003933Y034550D01*
X004080Y034550D01*
X004006Y034660D02*
X003933Y034660D01*
X003933Y034770D02*
X004080Y034770D01*
X004154Y034770D02*
X004301Y034770D01*
X004227Y034770D02*
X004227Y034550D01*
X004375Y034587D02*
X004412Y034550D01*
X004485Y034550D01*
X004522Y034587D01*
X004522Y034660D01*
X004485Y034697D01*
X004448Y034697D01*
X004375Y034660D01*
X004375Y034770D01*
X004522Y034770D01*
X001277Y033980D02*
X001130Y033980D01*
X001130Y033870D01*
X001204Y033907D01*
X001240Y033907D01*
X001277Y033870D01*
X001277Y033797D01*
X001240Y033760D01*
X001167Y033760D01*
X001130Y033797D01*
X001056Y033870D02*
X001056Y033943D01*
X001019Y033980D01*
X000909Y033980D01*
X000909Y033760D01*
X000909Y033833D02*
X001019Y033833D01*
X001056Y033870D01*
X000835Y033833D02*
X000835Y033797D01*
X000798Y033760D01*
X000725Y033760D01*
X000688Y033797D01*
X000614Y033797D02*
X000577Y033760D01*
X000504Y033760D01*
X000467Y033797D01*
X000467Y033943D01*
X000504Y033980D01*
X000577Y033980D01*
X000614Y033943D01*
X000688Y033943D02*
X000688Y033907D01*
X000725Y033870D01*
X000798Y033870D01*
X000835Y033833D01*
X000835Y033943D02*
X000798Y033980D01*
X000725Y033980D01*
X000688Y033943D01*
X000393Y033980D02*
X000320Y033980D01*
X000357Y033980D02*
X000357Y033760D01*
X000393Y033760D02*
X000320Y033760D01*
X000320Y019980D02*
X000393Y019980D01*
X000357Y019980D02*
X000357Y019760D01*
X000393Y019760D02*
X000320Y019760D01*
X000467Y019797D02*
X000504Y019760D01*
X000577Y019760D01*
X000614Y019797D01*
X000688Y019797D02*
X000725Y019760D01*
X000798Y019760D01*
X000835Y019797D01*
X000835Y019833D01*
X000798Y019870D01*
X000725Y019870D01*
X000688Y019907D01*
X000688Y019943D01*
X000725Y019980D01*
X000798Y019980D01*
X000835Y019943D01*
X000909Y019980D02*
X001019Y019980D01*
X001056Y019943D01*
X001056Y019870D01*
X001019Y019833D01*
X000909Y019833D01*
X000909Y019760D02*
X000909Y019980D01*
X001130Y019943D02*
X001167Y019980D01*
X001240Y019980D01*
X001277Y019943D01*
X001277Y019907D01*
X001240Y019870D01*
X001277Y019833D01*
X001277Y019797D01*
X001240Y019760D01*
X001167Y019760D01*
X001130Y019797D01*
X001204Y019870D02*
X001240Y019870D01*
X000614Y019943D02*
X000577Y019980D01*
X000504Y019980D01*
X000467Y019943D01*
X000467Y019797D01*
X003197Y016560D02*
X003160Y016523D01*
X003160Y016377D01*
X003197Y016340D01*
X003270Y016340D01*
X003307Y016377D01*
X003381Y016377D02*
X003418Y016340D01*
X003491Y016340D01*
X003528Y016377D01*
X003528Y016413D01*
X003491Y016450D01*
X003454Y016450D01*
X003491Y016450D02*
X003528Y016487D01*
X003528Y016523D01*
X003491Y016560D01*
X003418Y016560D01*
X003381Y016523D01*
X003307Y016523D02*
X003270Y016560D01*
X003197Y016560D01*
X003602Y016523D02*
X003639Y016560D01*
X003712Y016560D01*
X003749Y016523D01*
X003749Y016487D01*
X003602Y016340D01*
X003749Y016340D01*
X004487Y017230D02*
X004450Y017267D01*
X004450Y017413D01*
X004487Y017450D01*
X004560Y017450D01*
X004597Y017413D01*
X004597Y017267D01*
X004560Y017230D01*
X004487Y017230D01*
X004523Y017303D02*
X004597Y017230D01*
X004671Y017267D02*
X004708Y017230D01*
X004781Y017230D01*
X004818Y017267D01*
X004818Y017303D01*
X004781Y017340D01*
X004671Y017340D01*
X004671Y017267D01*
X004671Y017340D02*
X004744Y017413D01*
X004818Y017450D01*
X001240Y012980D02*
X001167Y012980D01*
X001130Y012943D01*
X001056Y012943D02*
X001056Y012870D01*
X001019Y012833D01*
X000909Y012833D01*
X000909Y012760D02*
X000909Y012980D01*
X001019Y012980D01*
X001056Y012943D01*
X001240Y012980D02*
X001277Y012943D01*
X001277Y012907D01*
X001130Y012760D01*
X001277Y012760D01*
X000835Y012797D02*
X000798Y012760D01*
X000725Y012760D01*
X000688Y012797D01*
X000614Y012797D02*
X000577Y012760D01*
X000504Y012760D01*
X000467Y012797D01*
X000467Y012943D01*
X000504Y012980D01*
X000577Y012980D01*
X000614Y012943D01*
X000688Y012943D02*
X000688Y012907D01*
X000725Y012870D01*
X000798Y012870D01*
X000835Y012833D01*
X000835Y012797D01*
X000835Y012943D02*
X000798Y012980D01*
X000725Y012980D01*
X000688Y012943D01*
X000393Y012980D02*
X000320Y012980D01*
X000357Y012980D02*
X000357Y012760D01*
X000393Y012760D02*
X000320Y012760D01*
X000320Y005980D02*
X000393Y005980D01*
X000357Y005980D02*
X000357Y005760D01*
X000393Y005760D02*
X000320Y005760D01*
X000467Y005797D02*
X000467Y005943D01*
X000504Y005980D01*
X000577Y005980D01*
X000614Y005943D01*
X000688Y005943D02*
X000688Y005907D01*
X000725Y005870D01*
X000798Y005870D01*
X000835Y005833D01*
X000835Y005797D01*
X000798Y005760D01*
X000725Y005760D01*
X000688Y005797D01*
X000614Y005797D02*
X000577Y005760D01*
X000504Y005760D01*
X000467Y005797D01*
X000688Y005943D02*
X000725Y005980D01*
X000798Y005980D01*
X000835Y005943D01*
X000909Y005980D02*
X000909Y005760D01*
X000909Y005833D02*
X001019Y005833D01*
X001056Y005870D01*
X001056Y005943D01*
X001019Y005980D01*
X000909Y005980D01*
X001130Y005907D02*
X001204Y005980D01*
X001204Y005760D01*
X001277Y005760D02*
X001130Y005760D01*
X003197Y002560D02*
X003160Y002523D01*
X003160Y002377D01*
X003197Y002340D01*
X003270Y002340D01*
X003307Y002377D01*
X003381Y002340D02*
X003528Y002487D01*
X003528Y002523D01*
X003491Y002560D01*
X003418Y002560D01*
X003381Y002523D01*
X003307Y002523D02*
X003270Y002560D01*
X003197Y002560D01*
X003381Y002340D02*
X003528Y002340D01*
X003602Y002340D02*
X003749Y002340D01*
X003675Y002340D02*
X003675Y002560D01*
X003602Y002487D01*
X004450Y003267D02*
X004487Y003230D01*
X004560Y003230D01*
X004597Y003267D01*
X004597Y003413D01*
X004560Y003450D01*
X004487Y003450D01*
X004450Y003413D01*
X004450Y003267D01*
X004523Y003303D02*
X004597Y003230D01*
X004671Y003340D02*
X004818Y003340D01*
X004781Y003230D02*
X004781Y003450D01*
X004671Y003340D01*
X010578Y011164D02*
X010541Y011200D01*
X010541Y011384D01*
X010688Y011384D02*
X010688Y011200D01*
X010651Y011164D01*
X010578Y011164D01*
X010762Y011164D02*
X010909Y011164D01*
X010836Y011164D02*
X010836Y011384D01*
X010762Y011311D01*
X011113Y000860D02*
X011187Y000860D01*
X011150Y000860D02*
X011150Y000677D01*
X011113Y000640D01*
X011077Y000640D01*
X011040Y000677D01*
X011261Y000750D02*
X011408Y000750D01*
X011371Y000640D02*
X011371Y000860D01*
X011261Y000750D01*
X019359Y025172D02*
X019395Y025172D01*
X019432Y025209D01*
X019432Y025392D01*
X019395Y025392D02*
X019469Y025392D01*
X019543Y025319D02*
X019616Y025392D01*
X019616Y025172D01*
X019543Y025172D02*
X019690Y025172D01*
X019764Y025172D02*
X019911Y025319D01*
X019911Y025356D01*
X019874Y025392D01*
X019800Y025392D01*
X019764Y025356D01*
X019764Y025172D02*
X019911Y025172D01*
X019359Y025172D02*
X019322Y025209D01*
X019359Y032172D02*
X019395Y032172D01*
X019432Y032209D01*
X019432Y032392D01*
X019395Y032392D02*
X019469Y032392D01*
X019543Y032319D02*
X019616Y032392D01*
X019616Y032172D01*
X019543Y032172D02*
X019690Y032172D01*
X019764Y032209D02*
X019800Y032172D01*
X019874Y032172D01*
X019911Y032209D01*
X019911Y032282D01*
X019874Y032319D01*
X019837Y032319D01*
X019764Y032282D01*
X019764Y032392D01*
X019911Y032392D01*
X019359Y032172D02*
X019322Y032209D01*
D18*
X015920Y031950D03*
X015380Y031950D03*
X013620Y033330D03*
X013620Y026330D03*
X015380Y024950D03*
X015920Y024950D03*
X013620Y019330D03*
X015380Y017950D03*
X015920Y017950D03*
X013620Y012330D03*
X015380Y010950D03*
X015920Y010950D03*
X013620Y005330D03*
X015380Y003950D03*
X015920Y003950D03*
D19*
X004360Y004450D03*
X003080Y004450D03*
X003080Y011450D03*
X004360Y011450D03*
X004360Y018450D03*
X003080Y018450D03*
X003080Y025450D03*
X004360Y025450D03*
X004360Y032450D03*
X003080Y032450D03*
D20*
X010960Y030084D02*
X010962Y030101D01*
X010968Y030118D01*
X010977Y030133D01*
X010989Y030145D01*
X011004Y030154D01*
X011021Y030160D01*
X011038Y030162D01*
X011055Y030160D01*
X011072Y030154D01*
X011087Y030145D01*
X011099Y030133D01*
X011108Y030118D01*
X011114Y030101D01*
X011116Y030084D01*
X011114Y030067D01*
X011108Y030050D01*
X011099Y030035D01*
X011087Y030023D01*
X011072Y030014D01*
X011055Y030008D01*
X011038Y030006D01*
X011021Y030008D01*
X011004Y030014D01*
X010989Y030023D01*
X010977Y030035D01*
X010968Y030050D01*
X010962Y030067D01*
X010960Y030084D01*
X010960Y023084D02*
X010962Y023101D01*
X010968Y023118D01*
X010977Y023133D01*
X010989Y023145D01*
X011004Y023154D01*
X011021Y023160D01*
X011038Y023162D01*
X011055Y023160D01*
X011072Y023154D01*
X011087Y023145D01*
X011099Y023133D01*
X011108Y023118D01*
X011114Y023101D01*
X011116Y023084D01*
X011114Y023067D01*
X011108Y023050D01*
X011099Y023035D01*
X011087Y023023D01*
X011072Y023014D01*
X011055Y023008D01*
X011038Y023006D01*
X011021Y023008D01*
X011004Y023014D01*
X010989Y023023D01*
X010977Y023035D01*
X010968Y023050D01*
X010962Y023067D01*
X010960Y023084D01*
X010960Y016084D02*
X010962Y016101D01*
X010968Y016118D01*
X010977Y016133D01*
X010989Y016145D01*
X011004Y016154D01*
X011021Y016160D01*
X011038Y016162D01*
X011055Y016160D01*
X011072Y016154D01*
X011087Y016145D01*
X011099Y016133D01*
X011108Y016118D01*
X011114Y016101D01*
X011116Y016084D01*
X011114Y016067D01*
X011108Y016050D01*
X011099Y016035D01*
X011087Y016023D01*
X011072Y016014D01*
X011055Y016008D01*
X011038Y016006D01*
X011021Y016008D01*
X011004Y016014D01*
X010989Y016023D01*
X010977Y016035D01*
X010968Y016050D01*
X010962Y016067D01*
X010960Y016084D01*
X010960Y009084D02*
X010962Y009101D01*
X010968Y009118D01*
X010977Y009133D01*
X010989Y009145D01*
X011004Y009154D01*
X011021Y009160D01*
X011038Y009162D01*
X011055Y009160D01*
X011072Y009154D01*
X011087Y009145D01*
X011099Y009133D01*
X011108Y009118D01*
X011114Y009101D01*
X011116Y009084D01*
X011114Y009067D01*
X011108Y009050D01*
X011099Y009035D01*
X011087Y009023D01*
X011072Y009014D01*
X011055Y009008D01*
X011038Y009006D01*
X011021Y009008D01*
X011004Y009014D01*
X010989Y009023D01*
X010977Y009035D01*
X010968Y009050D01*
X010962Y009067D01*
X010960Y009084D01*
X010960Y002084D02*
X010962Y002101D01*
X010968Y002118D01*
X010977Y002133D01*
X010989Y002145D01*
X011004Y002154D01*
X011021Y002160D01*
X011038Y002162D01*
X011055Y002160D01*
X011072Y002154D01*
X011087Y002145D01*
X011099Y002133D01*
X011108Y002118D01*
X011114Y002101D01*
X011116Y002084D01*
X011114Y002067D01*
X011108Y002050D01*
X011099Y002035D01*
X011087Y002023D01*
X011072Y002014D01*
X011055Y002008D01*
X011038Y002006D01*
X011021Y002008D01*
X011004Y002014D01*
X010989Y002023D01*
X010977Y002035D01*
X010968Y002050D01*
X010962Y002067D01*
X010960Y002084D01*
X015530Y004690D02*
X016500Y004690D01*
X016500Y006450D02*
X015530Y006450D01*
X015530Y011690D02*
X016500Y011690D01*
X016500Y013450D02*
X015530Y013450D01*
X015530Y018690D02*
X016500Y018690D01*
X016500Y020450D02*
X015530Y020450D01*
X015530Y025690D02*
X016500Y025690D01*
X016500Y027450D02*
X015530Y027450D01*
X015530Y032690D02*
X016500Y032690D01*
X016500Y034450D02*
X015530Y034450D01*
M02*
