G75*
G70*
%OFA0B0*%
%FSLAX24Y24*%
%IPPOS*%
%LPD*%
%AMOC8*
5,1,8,0,0,1.08239X$1,22.5*
%
%ADD10C,0.0000*%
%ADD11R,0.0473X0.0434*%
%ADD12R,0.0434X0.0473*%
%ADD13R,0.0355X0.0355*%
%ADD14R,0.0640X0.0340*%
%ADD15R,0.0512X0.0355*%
%ADD16R,0.0827X0.0985*%
%ADD17C,0.0700*%
%ADD18C,0.0780*%
%ADD19C,0.0906*%
%ADD20R,0.0620X0.0413*%
%ADD21R,0.0355X0.0178*%
%ADD22R,0.0367X0.0288*%
%ADD23R,0.0288X0.0367*%
%ADD24R,0.0827X0.0237*%
%ADD25R,0.0906X0.1024*%
%ADD26C,0.0394*%
D10*
X001260Y000950D02*
X001260Y007950D01*
X001260Y014950D01*
X001260Y021950D01*
X001260Y028950D01*
X001260Y035950D01*
X021260Y035950D01*
X021260Y028950D01*
X001260Y028950D01*
X021260Y028950D01*
X021260Y021950D01*
X001260Y021950D01*
X021260Y021950D01*
X021260Y014950D01*
X001260Y014950D01*
X021260Y014950D01*
X021260Y007950D01*
X001260Y007950D01*
X021260Y007950D01*
X021260Y000950D01*
X001260Y000950D01*
X019083Y003761D02*
X019085Y003787D01*
X019091Y003813D01*
X019101Y003838D01*
X019114Y003861D01*
X019130Y003881D01*
X019150Y003899D01*
X019172Y003914D01*
X019195Y003926D01*
X019221Y003934D01*
X019247Y003938D01*
X019273Y003938D01*
X019299Y003934D01*
X019325Y003926D01*
X019349Y003914D01*
X019370Y003899D01*
X019390Y003881D01*
X019406Y003861D01*
X019419Y003838D01*
X019429Y003813D01*
X019435Y003787D01*
X019437Y003761D01*
X019435Y003735D01*
X019429Y003709D01*
X019419Y003684D01*
X019406Y003661D01*
X019390Y003641D01*
X019370Y003623D01*
X019348Y003608D01*
X019325Y003596D01*
X019299Y003588D01*
X019273Y003584D01*
X019247Y003584D01*
X019221Y003588D01*
X019195Y003596D01*
X019171Y003608D01*
X019150Y003623D01*
X019130Y003641D01*
X019114Y003661D01*
X019101Y003684D01*
X019091Y003709D01*
X019085Y003735D01*
X019083Y003761D01*
X019083Y005139D02*
X019085Y005165D01*
X019091Y005191D01*
X019101Y005216D01*
X019114Y005239D01*
X019130Y005259D01*
X019150Y005277D01*
X019172Y005292D01*
X019195Y005304D01*
X019221Y005312D01*
X019247Y005316D01*
X019273Y005316D01*
X019299Y005312D01*
X019325Y005304D01*
X019349Y005292D01*
X019370Y005277D01*
X019390Y005259D01*
X019406Y005239D01*
X019419Y005216D01*
X019429Y005191D01*
X019435Y005165D01*
X019437Y005139D01*
X019435Y005113D01*
X019429Y005087D01*
X019419Y005062D01*
X019406Y005039D01*
X019390Y005019D01*
X019370Y005001D01*
X019348Y004986D01*
X019325Y004974D01*
X019299Y004966D01*
X019273Y004962D01*
X019247Y004962D01*
X019221Y004966D01*
X019195Y004974D01*
X019171Y004986D01*
X019150Y005001D01*
X019130Y005019D01*
X019114Y005039D01*
X019101Y005062D01*
X019091Y005087D01*
X019085Y005113D01*
X019083Y005139D01*
X019083Y010761D02*
X019085Y010787D01*
X019091Y010813D01*
X019101Y010838D01*
X019114Y010861D01*
X019130Y010881D01*
X019150Y010899D01*
X019172Y010914D01*
X019195Y010926D01*
X019221Y010934D01*
X019247Y010938D01*
X019273Y010938D01*
X019299Y010934D01*
X019325Y010926D01*
X019349Y010914D01*
X019370Y010899D01*
X019390Y010881D01*
X019406Y010861D01*
X019419Y010838D01*
X019429Y010813D01*
X019435Y010787D01*
X019437Y010761D01*
X019435Y010735D01*
X019429Y010709D01*
X019419Y010684D01*
X019406Y010661D01*
X019390Y010641D01*
X019370Y010623D01*
X019348Y010608D01*
X019325Y010596D01*
X019299Y010588D01*
X019273Y010584D01*
X019247Y010584D01*
X019221Y010588D01*
X019195Y010596D01*
X019171Y010608D01*
X019150Y010623D01*
X019130Y010641D01*
X019114Y010661D01*
X019101Y010684D01*
X019091Y010709D01*
X019085Y010735D01*
X019083Y010761D01*
X019083Y012139D02*
X019085Y012165D01*
X019091Y012191D01*
X019101Y012216D01*
X019114Y012239D01*
X019130Y012259D01*
X019150Y012277D01*
X019172Y012292D01*
X019195Y012304D01*
X019221Y012312D01*
X019247Y012316D01*
X019273Y012316D01*
X019299Y012312D01*
X019325Y012304D01*
X019349Y012292D01*
X019370Y012277D01*
X019390Y012259D01*
X019406Y012239D01*
X019419Y012216D01*
X019429Y012191D01*
X019435Y012165D01*
X019437Y012139D01*
X019435Y012113D01*
X019429Y012087D01*
X019419Y012062D01*
X019406Y012039D01*
X019390Y012019D01*
X019370Y012001D01*
X019348Y011986D01*
X019325Y011974D01*
X019299Y011966D01*
X019273Y011962D01*
X019247Y011962D01*
X019221Y011966D01*
X019195Y011974D01*
X019171Y011986D01*
X019150Y012001D01*
X019130Y012019D01*
X019114Y012039D01*
X019101Y012062D01*
X019091Y012087D01*
X019085Y012113D01*
X019083Y012139D01*
X019083Y017761D02*
X019085Y017787D01*
X019091Y017813D01*
X019101Y017838D01*
X019114Y017861D01*
X019130Y017881D01*
X019150Y017899D01*
X019172Y017914D01*
X019195Y017926D01*
X019221Y017934D01*
X019247Y017938D01*
X019273Y017938D01*
X019299Y017934D01*
X019325Y017926D01*
X019349Y017914D01*
X019370Y017899D01*
X019390Y017881D01*
X019406Y017861D01*
X019419Y017838D01*
X019429Y017813D01*
X019435Y017787D01*
X019437Y017761D01*
X019435Y017735D01*
X019429Y017709D01*
X019419Y017684D01*
X019406Y017661D01*
X019390Y017641D01*
X019370Y017623D01*
X019348Y017608D01*
X019325Y017596D01*
X019299Y017588D01*
X019273Y017584D01*
X019247Y017584D01*
X019221Y017588D01*
X019195Y017596D01*
X019171Y017608D01*
X019150Y017623D01*
X019130Y017641D01*
X019114Y017661D01*
X019101Y017684D01*
X019091Y017709D01*
X019085Y017735D01*
X019083Y017761D01*
X019083Y019139D02*
X019085Y019165D01*
X019091Y019191D01*
X019101Y019216D01*
X019114Y019239D01*
X019130Y019259D01*
X019150Y019277D01*
X019172Y019292D01*
X019195Y019304D01*
X019221Y019312D01*
X019247Y019316D01*
X019273Y019316D01*
X019299Y019312D01*
X019325Y019304D01*
X019349Y019292D01*
X019370Y019277D01*
X019390Y019259D01*
X019406Y019239D01*
X019419Y019216D01*
X019429Y019191D01*
X019435Y019165D01*
X019437Y019139D01*
X019435Y019113D01*
X019429Y019087D01*
X019419Y019062D01*
X019406Y019039D01*
X019390Y019019D01*
X019370Y019001D01*
X019348Y018986D01*
X019325Y018974D01*
X019299Y018966D01*
X019273Y018962D01*
X019247Y018962D01*
X019221Y018966D01*
X019195Y018974D01*
X019171Y018986D01*
X019150Y019001D01*
X019130Y019019D01*
X019114Y019039D01*
X019101Y019062D01*
X019091Y019087D01*
X019085Y019113D01*
X019083Y019139D01*
X019083Y024761D02*
X019085Y024787D01*
X019091Y024813D01*
X019101Y024838D01*
X019114Y024861D01*
X019130Y024881D01*
X019150Y024899D01*
X019172Y024914D01*
X019195Y024926D01*
X019221Y024934D01*
X019247Y024938D01*
X019273Y024938D01*
X019299Y024934D01*
X019325Y024926D01*
X019349Y024914D01*
X019370Y024899D01*
X019390Y024881D01*
X019406Y024861D01*
X019419Y024838D01*
X019429Y024813D01*
X019435Y024787D01*
X019437Y024761D01*
X019435Y024735D01*
X019429Y024709D01*
X019419Y024684D01*
X019406Y024661D01*
X019390Y024641D01*
X019370Y024623D01*
X019348Y024608D01*
X019325Y024596D01*
X019299Y024588D01*
X019273Y024584D01*
X019247Y024584D01*
X019221Y024588D01*
X019195Y024596D01*
X019171Y024608D01*
X019150Y024623D01*
X019130Y024641D01*
X019114Y024661D01*
X019101Y024684D01*
X019091Y024709D01*
X019085Y024735D01*
X019083Y024761D01*
X019083Y026139D02*
X019085Y026165D01*
X019091Y026191D01*
X019101Y026216D01*
X019114Y026239D01*
X019130Y026259D01*
X019150Y026277D01*
X019172Y026292D01*
X019195Y026304D01*
X019221Y026312D01*
X019247Y026316D01*
X019273Y026316D01*
X019299Y026312D01*
X019325Y026304D01*
X019349Y026292D01*
X019370Y026277D01*
X019390Y026259D01*
X019406Y026239D01*
X019419Y026216D01*
X019429Y026191D01*
X019435Y026165D01*
X019437Y026139D01*
X019435Y026113D01*
X019429Y026087D01*
X019419Y026062D01*
X019406Y026039D01*
X019390Y026019D01*
X019370Y026001D01*
X019348Y025986D01*
X019325Y025974D01*
X019299Y025966D01*
X019273Y025962D01*
X019247Y025962D01*
X019221Y025966D01*
X019195Y025974D01*
X019171Y025986D01*
X019150Y026001D01*
X019130Y026019D01*
X019114Y026039D01*
X019101Y026062D01*
X019091Y026087D01*
X019085Y026113D01*
X019083Y026139D01*
X019083Y031761D02*
X019085Y031787D01*
X019091Y031813D01*
X019101Y031838D01*
X019114Y031861D01*
X019130Y031881D01*
X019150Y031899D01*
X019172Y031914D01*
X019195Y031926D01*
X019221Y031934D01*
X019247Y031938D01*
X019273Y031938D01*
X019299Y031934D01*
X019325Y031926D01*
X019349Y031914D01*
X019370Y031899D01*
X019390Y031881D01*
X019406Y031861D01*
X019419Y031838D01*
X019429Y031813D01*
X019435Y031787D01*
X019437Y031761D01*
X019435Y031735D01*
X019429Y031709D01*
X019419Y031684D01*
X019406Y031661D01*
X019390Y031641D01*
X019370Y031623D01*
X019348Y031608D01*
X019325Y031596D01*
X019299Y031588D01*
X019273Y031584D01*
X019247Y031584D01*
X019221Y031588D01*
X019195Y031596D01*
X019171Y031608D01*
X019150Y031623D01*
X019130Y031641D01*
X019114Y031661D01*
X019101Y031684D01*
X019091Y031709D01*
X019085Y031735D01*
X019083Y031761D01*
X019083Y033139D02*
X019085Y033165D01*
X019091Y033191D01*
X019101Y033216D01*
X019114Y033239D01*
X019130Y033259D01*
X019150Y033277D01*
X019172Y033292D01*
X019195Y033304D01*
X019221Y033312D01*
X019247Y033316D01*
X019273Y033316D01*
X019299Y033312D01*
X019325Y033304D01*
X019349Y033292D01*
X019370Y033277D01*
X019390Y033259D01*
X019406Y033239D01*
X019419Y033216D01*
X019429Y033191D01*
X019435Y033165D01*
X019437Y033139D01*
X019435Y033113D01*
X019429Y033087D01*
X019419Y033062D01*
X019406Y033039D01*
X019390Y033019D01*
X019370Y033001D01*
X019348Y032986D01*
X019325Y032974D01*
X019299Y032966D01*
X019273Y032962D01*
X019247Y032962D01*
X019221Y032966D01*
X019195Y032974D01*
X019171Y032986D01*
X019150Y033001D01*
X019130Y033019D01*
X019114Y033039D01*
X019101Y033062D01*
X019091Y033087D01*
X019085Y033113D01*
X019083Y033139D01*
D11*
X014135Y032430D03*
X013465Y032430D03*
X013355Y030870D03*
X012685Y030870D03*
X013465Y025430D03*
X014135Y025430D03*
X013355Y023870D03*
X012685Y023870D03*
X013465Y018430D03*
X014135Y018430D03*
X013355Y016870D03*
X012685Y016870D03*
X013465Y011430D03*
X014135Y011430D03*
X013355Y009870D03*
X012685Y009870D03*
X013465Y004430D03*
X014135Y004430D03*
X013355Y002870D03*
X012685Y002870D03*
X007495Y004390D03*
X006825Y004390D03*
X006155Y004390D03*
X005485Y004390D03*
X004695Y004450D03*
X004515Y003730D03*
X004025Y004450D03*
X003845Y003730D03*
X003415Y004450D03*
X002745Y004450D03*
X003845Y002350D03*
X004515Y002350D03*
X006865Y006250D03*
X007535Y006250D03*
X004515Y009350D03*
X003845Y009350D03*
X003845Y010730D03*
X004025Y011450D03*
X004515Y010730D03*
X004695Y011450D03*
X005485Y011390D03*
X006155Y011390D03*
X006825Y011390D03*
X007495Y011390D03*
X007535Y013250D03*
X006865Y013250D03*
X004515Y016350D03*
X003845Y016350D03*
X003845Y017730D03*
X004025Y018450D03*
X004515Y017730D03*
X004695Y018450D03*
X005485Y018390D03*
X006155Y018390D03*
X006825Y018390D03*
X007495Y018390D03*
X007535Y020250D03*
X006865Y020250D03*
X004515Y023350D03*
X003845Y023350D03*
X003845Y024730D03*
X004025Y025450D03*
X004515Y024730D03*
X004695Y025450D03*
X005485Y025390D03*
X006155Y025390D03*
X006825Y025390D03*
X007495Y025390D03*
X007535Y027250D03*
X006865Y027250D03*
X004515Y030350D03*
X003845Y030350D03*
X003845Y031730D03*
X004025Y032450D03*
X004515Y031730D03*
X004695Y032450D03*
X005485Y032390D03*
X006155Y032390D03*
X006825Y032390D03*
X007495Y032390D03*
X007535Y034250D03*
X006865Y034250D03*
X003415Y032450D03*
X002745Y032450D03*
X002745Y025450D03*
X003415Y025450D03*
X003415Y018450D03*
X002745Y018450D03*
X002745Y011450D03*
X003415Y011450D03*
D12*
X008857Y010253D03*
X008857Y009584D03*
X008857Y003253D03*
X008857Y002584D03*
X013620Y004995D03*
X013620Y005665D03*
X015380Y004285D03*
X015920Y004285D03*
X015920Y003615D03*
X015380Y003615D03*
X016740Y003615D03*
X016740Y004285D03*
X016740Y010615D03*
X016740Y011285D03*
X015920Y011285D03*
X015920Y010615D03*
X015380Y010615D03*
X015380Y011285D03*
X013620Y011995D03*
X013620Y012665D03*
X015380Y017615D03*
X015920Y017615D03*
X015920Y018285D03*
X015380Y018285D03*
X016740Y018285D03*
X016740Y017615D03*
X013620Y018995D03*
X013620Y019665D03*
X015380Y024615D03*
X015920Y024615D03*
X015920Y025285D03*
X015380Y025285D03*
X016740Y025285D03*
X016740Y024615D03*
X013620Y025995D03*
X013620Y026665D03*
X015380Y031615D03*
X015920Y031615D03*
X015920Y032285D03*
X015380Y032285D03*
X016740Y032285D03*
X016740Y031615D03*
X013620Y032995D03*
X013620Y033665D03*
X008857Y031253D03*
X008857Y030584D03*
X008857Y024253D03*
X008857Y023584D03*
X008857Y017253D03*
X008857Y016584D03*
D13*
X014140Y019695D03*
X014140Y020285D03*
X014805Y017090D03*
X015395Y017090D03*
X014140Y013285D03*
X014140Y012695D03*
X014805Y010090D03*
X015395Y010090D03*
X014140Y006285D03*
X014140Y005695D03*
X014805Y003090D03*
X015395Y003090D03*
X015395Y024090D03*
X014805Y024090D03*
X014140Y026695D03*
X014140Y027285D03*
X014805Y031090D03*
X015395Y031090D03*
X014140Y033695D03*
X014140Y034285D03*
D14*
X007940Y031680D03*
X007940Y030180D03*
X005940Y030180D03*
X005940Y031680D03*
X004760Y033200D03*
X004760Y034700D03*
X002760Y034700D03*
X002760Y033200D03*
X002760Y027700D03*
X002760Y026200D03*
X004760Y026200D03*
X004760Y027700D03*
X005940Y024680D03*
X005940Y023180D03*
X004760Y020700D03*
X004760Y019200D03*
X005940Y017680D03*
X005940Y016180D03*
X004760Y013700D03*
X004760Y012200D03*
X005940Y010680D03*
X005940Y009180D03*
X004760Y006700D03*
X004760Y005200D03*
X005940Y003680D03*
X005940Y002180D03*
X007940Y002180D03*
X007940Y003680D03*
X007940Y009180D03*
X007940Y010680D03*
X007940Y016180D03*
X007940Y017680D03*
X007940Y023180D03*
X007940Y024680D03*
X002760Y020700D03*
X002760Y019200D03*
X002760Y013700D03*
X002760Y012200D03*
X002760Y006700D03*
X002760Y005200D03*
D15*
X013900Y003644D03*
X013900Y002936D03*
X014800Y003576D03*
X014800Y004284D03*
X013900Y009936D03*
X013900Y010644D03*
X014800Y010576D03*
X014800Y011284D03*
X013900Y016936D03*
X013900Y017644D03*
X014800Y017576D03*
X014800Y018284D03*
X013900Y023936D03*
X013900Y024644D03*
X014800Y024576D03*
X014800Y025284D03*
X013900Y030936D03*
X013900Y031644D03*
X014800Y031576D03*
X014800Y032284D03*
D16*
X007487Y033250D03*
X005913Y033250D03*
X005913Y026250D03*
X007487Y026250D03*
X007487Y019250D03*
X005913Y019250D03*
X005913Y012250D03*
X007487Y012250D03*
X007487Y005250D03*
X005913Y005250D03*
D17*
X005200Y003530D03*
X005200Y002530D03*
X005200Y009530D03*
X005200Y010530D03*
X005200Y016530D03*
X005200Y017530D03*
X005200Y023530D03*
X005200Y024530D03*
X005200Y030530D03*
X005200Y031530D03*
D18*
X004760Y029450D03*
X004760Y028450D03*
X005760Y028450D03*
X005760Y029450D03*
X006760Y029450D03*
X006760Y028450D03*
X007760Y028450D03*
X007760Y029450D03*
X008760Y029450D03*
X008760Y028450D03*
X009760Y028450D03*
X009760Y029450D03*
X010760Y029450D03*
X010760Y028450D03*
X011760Y028450D03*
X011760Y029450D03*
X012760Y029450D03*
X012760Y028450D03*
X013760Y028450D03*
X013760Y029450D03*
X014760Y029450D03*
X014760Y028450D03*
X015760Y028450D03*
X015760Y029450D03*
X016760Y029450D03*
X016760Y028450D03*
X017760Y028450D03*
X017760Y029450D03*
X018760Y029450D03*
X018760Y028450D03*
X019760Y028450D03*
X019760Y029450D03*
X020760Y029450D03*
X020760Y028450D03*
X020760Y022450D03*
X020760Y021450D03*
X019760Y021450D03*
X019760Y022450D03*
X018760Y022450D03*
X018760Y021450D03*
X017760Y021450D03*
X017760Y022450D03*
X016760Y022450D03*
X016760Y021450D03*
X015760Y021450D03*
X015760Y022450D03*
X014760Y022450D03*
X014760Y021450D03*
X013760Y021450D03*
X013760Y022450D03*
X012760Y022450D03*
X012760Y021450D03*
X011760Y021450D03*
X011760Y022450D03*
X010760Y022450D03*
X010760Y021450D03*
X009760Y021450D03*
X009760Y022450D03*
X008760Y022450D03*
X008760Y021450D03*
X007760Y021450D03*
X007760Y022450D03*
X006760Y022450D03*
X006760Y021450D03*
X005760Y021450D03*
X005760Y022450D03*
X004760Y022450D03*
X004760Y021450D03*
X003760Y021450D03*
X003760Y022450D03*
X002760Y022450D03*
X002760Y021450D03*
X001760Y021450D03*
X001760Y020450D03*
X001760Y019450D03*
X001760Y018450D03*
X001760Y017450D03*
X001760Y016450D03*
X001760Y015450D03*
X001760Y014450D03*
X001760Y013450D03*
X001760Y012450D03*
X001760Y011450D03*
X001760Y010450D03*
X001760Y009450D03*
X001760Y008450D03*
X001760Y007450D03*
X001760Y006450D03*
X001760Y005450D03*
X001760Y004450D03*
X001760Y003450D03*
X001760Y002450D03*
X001760Y001450D03*
X002760Y001450D03*
X003760Y001450D03*
X004760Y001450D03*
X005760Y001450D03*
X006760Y001450D03*
X007760Y001450D03*
X008760Y001450D03*
X009760Y001450D03*
X010760Y001450D03*
X011760Y001450D03*
X012760Y001450D03*
X013760Y001450D03*
X014760Y001450D03*
X015760Y001450D03*
X016760Y001450D03*
X017760Y001450D03*
X018760Y001450D03*
X019760Y001450D03*
X020760Y001450D03*
X020760Y007450D03*
X020760Y008450D03*
X019760Y008450D03*
X019760Y007450D03*
X018760Y007450D03*
X018760Y008450D03*
X017760Y008450D03*
X017760Y007450D03*
X016760Y007450D03*
X016760Y008450D03*
X015760Y008450D03*
X015760Y007450D03*
X014760Y007450D03*
X014760Y008450D03*
X013760Y008450D03*
X013760Y007450D03*
X012760Y007450D03*
X012760Y008450D03*
X011760Y008450D03*
X011760Y007450D03*
X010760Y007450D03*
X010760Y008450D03*
X009760Y008450D03*
X009760Y007450D03*
X008760Y007450D03*
X008760Y008450D03*
X007760Y008450D03*
X007760Y007450D03*
X006760Y007450D03*
X006760Y008450D03*
X005760Y008450D03*
X005760Y007450D03*
X004760Y007450D03*
X004760Y008450D03*
X003760Y008450D03*
X003760Y007450D03*
X002760Y007450D03*
X002760Y008450D03*
X002760Y014450D03*
X002760Y015450D03*
X003760Y015450D03*
X003760Y014450D03*
X004760Y014450D03*
X004760Y015450D03*
X005760Y015450D03*
X005760Y014450D03*
X006760Y014450D03*
X006760Y015450D03*
X007760Y015450D03*
X007760Y014450D03*
X008760Y014450D03*
X008760Y015450D03*
X009760Y015450D03*
X009760Y014450D03*
X010760Y014450D03*
X010760Y015450D03*
X011760Y015450D03*
X011760Y014450D03*
X012760Y014450D03*
X012760Y015450D03*
X013760Y015450D03*
X013760Y014450D03*
X014760Y014450D03*
X014760Y015450D03*
X015760Y015450D03*
X015760Y014450D03*
X016760Y014450D03*
X016760Y015450D03*
X017760Y015450D03*
X017760Y014450D03*
X018760Y014450D03*
X018760Y015450D03*
X019760Y015450D03*
X019760Y014450D03*
X020760Y014450D03*
X020760Y015450D03*
X020760Y035450D03*
X019760Y035450D03*
X018760Y035450D03*
X017760Y035450D03*
X016760Y035450D03*
X015760Y035450D03*
X014760Y035450D03*
X013760Y035450D03*
X012760Y035450D03*
X011760Y035450D03*
X010760Y035450D03*
X009760Y035450D03*
X008760Y035450D03*
X007760Y035450D03*
X006760Y035450D03*
X005760Y035450D03*
X004760Y035450D03*
X003760Y035450D03*
X002760Y035450D03*
X001760Y035450D03*
X001760Y034450D03*
X001760Y033450D03*
X001760Y032450D03*
X001760Y031450D03*
X001760Y030450D03*
X001760Y029450D03*
X001760Y028450D03*
X001760Y027450D03*
X001760Y026450D03*
X001760Y025450D03*
X001760Y024450D03*
X001760Y023450D03*
X001760Y022450D03*
X002760Y028450D03*
X002760Y029450D03*
X003760Y029450D03*
X003760Y028450D03*
D19*
X016095Y026570D02*
X016685Y026570D01*
X016685Y019570D02*
X016095Y019570D01*
X016095Y012570D02*
X016685Y012570D01*
X016685Y005570D02*
X016095Y005570D01*
X016095Y033570D02*
X016685Y033570D01*
D20*
X015238Y033570D03*
X015238Y034161D03*
X015238Y032979D03*
X015238Y027161D03*
X015238Y026570D03*
X015238Y025979D03*
X015238Y020161D03*
X015238Y019570D03*
X015238Y018979D03*
X015238Y013161D03*
X015238Y012570D03*
X015238Y011979D03*
X015238Y006161D03*
X015238Y005570D03*
X015238Y004979D03*
D21*
G36*
X012966Y004721D02*
X012716Y004471D01*
X012590Y004597D01*
X012840Y004847D01*
X012966Y004721D01*
G37*
G36*
X012716Y004429D02*
X012966Y004179D01*
X012840Y004053D01*
X012590Y004303D01*
X012716Y004429D01*
G37*
G36*
X012535Y004248D02*
X012785Y003998D01*
X012659Y003872D01*
X012409Y004122D01*
X012535Y004248D01*
G37*
G36*
X012354Y004067D02*
X012604Y003817D01*
X012478Y003691D01*
X012228Y003941D01*
X012354Y004067D01*
G37*
G36*
X012173Y003886D02*
X012423Y003636D01*
X012297Y003510D01*
X012047Y003760D01*
X012173Y003886D01*
G37*
G36*
X011993Y003705D02*
X012243Y003455D01*
X012117Y003329D01*
X011867Y003579D01*
X011993Y003705D01*
G37*
G36*
X011936Y003148D02*
X011686Y003398D01*
X011812Y003524D01*
X012062Y003274D01*
X011936Y003148D01*
G37*
G36*
X011755Y002967D02*
X011505Y003217D01*
X011631Y003343D01*
X011881Y003093D01*
X011755Y002967D01*
G37*
G36*
X011574Y002787D02*
X011324Y003037D01*
X011450Y003163D01*
X011700Y002913D01*
X011574Y002787D01*
G37*
G36*
X011393Y002606D02*
X011143Y002856D01*
X011269Y002982D01*
X011519Y002732D01*
X011393Y002606D01*
G37*
G36*
X011212Y002425D02*
X010962Y002675D01*
X011088Y002801D01*
X011338Y002551D01*
X011212Y002425D01*
G37*
G36*
X011031Y002244D02*
X010781Y002494D01*
X010907Y002620D01*
X011157Y002370D01*
X011031Y002244D01*
G37*
G36*
X010739Y002494D02*
X010489Y002244D01*
X010363Y002370D01*
X010613Y002620D01*
X010739Y002494D01*
G37*
G36*
X010558Y002675D02*
X010308Y002425D01*
X010182Y002551D01*
X010432Y002801D01*
X010558Y002675D01*
G37*
G36*
X010377Y002856D02*
X010127Y002606D01*
X010001Y002732D01*
X010251Y002982D01*
X010377Y002856D01*
G37*
G36*
X010196Y003037D02*
X009946Y002787D01*
X009820Y002913D01*
X010070Y003163D01*
X010196Y003037D01*
G37*
G36*
X010015Y003217D02*
X009765Y002967D01*
X009639Y003093D01*
X009889Y003343D01*
X010015Y003217D01*
G37*
G36*
X009458Y003274D02*
X009708Y003524D01*
X009834Y003398D01*
X009584Y003148D01*
X009458Y003274D01*
G37*
G36*
X009277Y003455D02*
X009527Y003705D01*
X009653Y003579D01*
X009403Y003329D01*
X009277Y003455D01*
G37*
G36*
X009097Y003636D02*
X009347Y003886D01*
X009473Y003760D01*
X009223Y003510D01*
X009097Y003636D01*
G37*
G36*
X008916Y003817D02*
X009166Y004067D01*
X009292Y003941D01*
X009042Y003691D01*
X008916Y003817D01*
G37*
G36*
X008735Y003998D02*
X008985Y004248D01*
X009111Y004122D01*
X008861Y003872D01*
X008735Y003998D01*
G37*
G36*
X008554Y004179D02*
X008804Y004429D01*
X008930Y004303D01*
X008680Y004053D01*
X008554Y004179D01*
G37*
G36*
X008804Y004471D02*
X008554Y004721D01*
X008680Y004847D01*
X008930Y004597D01*
X008804Y004471D01*
G37*
G36*
X008985Y004652D02*
X008735Y004902D01*
X008861Y005028D01*
X009111Y004778D01*
X008985Y004652D01*
G37*
G36*
X009166Y004833D02*
X008916Y005083D01*
X009042Y005209D01*
X009292Y004959D01*
X009166Y004833D01*
G37*
G36*
X009347Y005014D02*
X009097Y005264D01*
X009223Y005390D01*
X009473Y005140D01*
X009347Y005014D01*
G37*
G36*
X009527Y005195D02*
X009277Y005445D01*
X009403Y005571D01*
X009653Y005321D01*
X009527Y005195D01*
G37*
G36*
X009584Y005752D02*
X009834Y005502D01*
X009708Y005376D01*
X009458Y005626D01*
X009584Y005752D01*
G37*
G36*
X009765Y005933D02*
X010015Y005683D01*
X009889Y005557D01*
X009639Y005807D01*
X009765Y005933D01*
G37*
G36*
X009946Y006113D02*
X010196Y005863D01*
X010070Y005737D01*
X009820Y005987D01*
X009946Y006113D01*
G37*
G36*
X010127Y006294D02*
X010377Y006044D01*
X010251Y005918D01*
X010001Y006168D01*
X010127Y006294D01*
G37*
G36*
X010308Y006475D02*
X010558Y006225D01*
X010432Y006099D01*
X010182Y006349D01*
X010308Y006475D01*
G37*
G36*
X010489Y006656D02*
X010739Y006406D01*
X010613Y006280D01*
X010363Y006530D01*
X010489Y006656D01*
G37*
G36*
X010781Y006406D02*
X011031Y006656D01*
X011157Y006530D01*
X010907Y006280D01*
X010781Y006406D01*
G37*
G36*
X010962Y006225D02*
X011212Y006475D01*
X011338Y006349D01*
X011088Y006099D01*
X010962Y006225D01*
G37*
G36*
X011143Y006044D02*
X011393Y006294D01*
X011519Y006168D01*
X011269Y005918D01*
X011143Y006044D01*
G37*
G36*
X011324Y005863D02*
X011574Y006113D01*
X011700Y005987D01*
X011450Y005737D01*
X011324Y005863D01*
G37*
G36*
X011505Y005683D02*
X011755Y005933D01*
X011881Y005807D01*
X011631Y005557D01*
X011505Y005683D01*
G37*
G36*
X012062Y005626D02*
X011812Y005376D01*
X011686Y005502D01*
X011936Y005752D01*
X012062Y005626D01*
G37*
G36*
X012243Y005445D02*
X011993Y005195D01*
X011867Y005321D01*
X012117Y005571D01*
X012243Y005445D01*
G37*
G36*
X012423Y005264D02*
X012173Y005014D01*
X012047Y005140D01*
X012297Y005390D01*
X012423Y005264D01*
G37*
G36*
X012604Y005083D02*
X012354Y004833D01*
X012228Y004959D01*
X012478Y005209D01*
X012604Y005083D01*
G37*
G36*
X012785Y004902D02*
X012535Y004652D01*
X012409Y004778D01*
X012659Y005028D01*
X012785Y004902D01*
G37*
G36*
X011031Y009244D02*
X010781Y009494D01*
X010907Y009620D01*
X011157Y009370D01*
X011031Y009244D01*
G37*
G36*
X011212Y009425D02*
X010962Y009675D01*
X011088Y009801D01*
X011338Y009551D01*
X011212Y009425D01*
G37*
G36*
X011393Y009606D02*
X011143Y009856D01*
X011269Y009982D01*
X011519Y009732D01*
X011393Y009606D01*
G37*
G36*
X011574Y009787D02*
X011324Y010037D01*
X011450Y010163D01*
X011700Y009913D01*
X011574Y009787D01*
G37*
G36*
X011755Y009967D02*
X011505Y010217D01*
X011631Y010343D01*
X011881Y010093D01*
X011755Y009967D01*
G37*
G36*
X011936Y010148D02*
X011686Y010398D01*
X011812Y010524D01*
X012062Y010274D01*
X011936Y010148D01*
G37*
G36*
X011993Y010705D02*
X012243Y010455D01*
X012117Y010329D01*
X011867Y010579D01*
X011993Y010705D01*
G37*
G36*
X012173Y010886D02*
X012423Y010636D01*
X012297Y010510D01*
X012047Y010760D01*
X012173Y010886D01*
G37*
G36*
X012354Y011067D02*
X012604Y010817D01*
X012478Y010691D01*
X012228Y010941D01*
X012354Y011067D01*
G37*
G36*
X012535Y011248D02*
X012785Y010998D01*
X012659Y010872D01*
X012409Y011122D01*
X012535Y011248D01*
G37*
G36*
X012716Y011429D02*
X012966Y011179D01*
X012840Y011053D01*
X012590Y011303D01*
X012716Y011429D01*
G37*
G36*
X012966Y011721D02*
X012716Y011471D01*
X012590Y011597D01*
X012840Y011847D01*
X012966Y011721D01*
G37*
G36*
X012785Y011902D02*
X012535Y011652D01*
X012409Y011778D01*
X012659Y012028D01*
X012785Y011902D01*
G37*
G36*
X012604Y012083D02*
X012354Y011833D01*
X012228Y011959D01*
X012478Y012209D01*
X012604Y012083D01*
G37*
G36*
X012423Y012264D02*
X012173Y012014D01*
X012047Y012140D01*
X012297Y012390D01*
X012423Y012264D01*
G37*
G36*
X012243Y012445D02*
X011993Y012195D01*
X011867Y012321D01*
X012117Y012571D01*
X012243Y012445D01*
G37*
G36*
X012062Y012626D02*
X011812Y012376D01*
X011686Y012502D01*
X011936Y012752D01*
X012062Y012626D01*
G37*
G36*
X011505Y012683D02*
X011755Y012933D01*
X011881Y012807D01*
X011631Y012557D01*
X011505Y012683D01*
G37*
G36*
X011324Y012863D02*
X011574Y013113D01*
X011700Y012987D01*
X011450Y012737D01*
X011324Y012863D01*
G37*
G36*
X011143Y013044D02*
X011393Y013294D01*
X011519Y013168D01*
X011269Y012918D01*
X011143Y013044D01*
G37*
G36*
X010962Y013225D02*
X011212Y013475D01*
X011338Y013349D01*
X011088Y013099D01*
X010962Y013225D01*
G37*
G36*
X010781Y013406D02*
X011031Y013656D01*
X011157Y013530D01*
X010907Y013280D01*
X010781Y013406D01*
G37*
G36*
X010489Y013656D02*
X010739Y013406D01*
X010613Y013280D01*
X010363Y013530D01*
X010489Y013656D01*
G37*
G36*
X010308Y013475D02*
X010558Y013225D01*
X010432Y013099D01*
X010182Y013349D01*
X010308Y013475D01*
G37*
G36*
X010127Y013294D02*
X010377Y013044D01*
X010251Y012918D01*
X010001Y013168D01*
X010127Y013294D01*
G37*
G36*
X009946Y013113D02*
X010196Y012863D01*
X010070Y012737D01*
X009820Y012987D01*
X009946Y013113D01*
G37*
G36*
X009765Y012933D02*
X010015Y012683D01*
X009889Y012557D01*
X009639Y012807D01*
X009765Y012933D01*
G37*
G36*
X009584Y012752D02*
X009834Y012502D01*
X009708Y012376D01*
X009458Y012626D01*
X009584Y012752D01*
G37*
G36*
X009527Y012195D02*
X009277Y012445D01*
X009403Y012571D01*
X009653Y012321D01*
X009527Y012195D01*
G37*
G36*
X009347Y012014D02*
X009097Y012264D01*
X009223Y012390D01*
X009473Y012140D01*
X009347Y012014D01*
G37*
G36*
X009166Y011833D02*
X008916Y012083D01*
X009042Y012209D01*
X009292Y011959D01*
X009166Y011833D01*
G37*
G36*
X008985Y011652D02*
X008735Y011902D01*
X008861Y012028D01*
X009111Y011778D01*
X008985Y011652D01*
G37*
G36*
X008804Y011471D02*
X008554Y011721D01*
X008680Y011847D01*
X008930Y011597D01*
X008804Y011471D01*
G37*
G36*
X008554Y011179D02*
X008804Y011429D01*
X008930Y011303D01*
X008680Y011053D01*
X008554Y011179D01*
G37*
G36*
X008735Y010998D02*
X008985Y011248D01*
X009111Y011122D01*
X008861Y010872D01*
X008735Y010998D01*
G37*
G36*
X008916Y010817D02*
X009166Y011067D01*
X009292Y010941D01*
X009042Y010691D01*
X008916Y010817D01*
G37*
G36*
X009097Y010636D02*
X009347Y010886D01*
X009473Y010760D01*
X009223Y010510D01*
X009097Y010636D01*
G37*
G36*
X009277Y010455D02*
X009527Y010705D01*
X009653Y010579D01*
X009403Y010329D01*
X009277Y010455D01*
G37*
G36*
X009458Y010274D02*
X009708Y010524D01*
X009834Y010398D01*
X009584Y010148D01*
X009458Y010274D01*
G37*
G36*
X010015Y010217D02*
X009765Y009967D01*
X009639Y010093D01*
X009889Y010343D01*
X010015Y010217D01*
G37*
G36*
X010196Y010037D02*
X009946Y009787D01*
X009820Y009913D01*
X010070Y010163D01*
X010196Y010037D01*
G37*
G36*
X010377Y009856D02*
X010127Y009606D01*
X010001Y009732D01*
X010251Y009982D01*
X010377Y009856D01*
G37*
G36*
X010558Y009675D02*
X010308Y009425D01*
X010182Y009551D01*
X010432Y009801D01*
X010558Y009675D01*
G37*
G36*
X010739Y009494D02*
X010489Y009244D01*
X010363Y009370D01*
X010613Y009620D01*
X010739Y009494D01*
G37*
G36*
X010739Y016494D02*
X010489Y016244D01*
X010363Y016370D01*
X010613Y016620D01*
X010739Y016494D01*
G37*
G36*
X011031Y016244D02*
X010781Y016494D01*
X010907Y016620D01*
X011157Y016370D01*
X011031Y016244D01*
G37*
G36*
X011212Y016425D02*
X010962Y016675D01*
X011088Y016801D01*
X011338Y016551D01*
X011212Y016425D01*
G37*
G36*
X011393Y016606D02*
X011143Y016856D01*
X011269Y016982D01*
X011519Y016732D01*
X011393Y016606D01*
G37*
G36*
X011574Y016787D02*
X011324Y017037D01*
X011450Y017163D01*
X011700Y016913D01*
X011574Y016787D01*
G37*
G36*
X011755Y016967D02*
X011505Y017217D01*
X011631Y017343D01*
X011881Y017093D01*
X011755Y016967D01*
G37*
G36*
X011936Y017148D02*
X011686Y017398D01*
X011812Y017524D01*
X012062Y017274D01*
X011936Y017148D01*
G37*
G36*
X011993Y017705D02*
X012243Y017455D01*
X012117Y017329D01*
X011867Y017579D01*
X011993Y017705D01*
G37*
G36*
X012173Y017886D02*
X012423Y017636D01*
X012297Y017510D01*
X012047Y017760D01*
X012173Y017886D01*
G37*
G36*
X012354Y018067D02*
X012604Y017817D01*
X012478Y017691D01*
X012228Y017941D01*
X012354Y018067D01*
G37*
G36*
X012535Y018248D02*
X012785Y017998D01*
X012659Y017872D01*
X012409Y018122D01*
X012535Y018248D01*
G37*
G36*
X012716Y018429D02*
X012966Y018179D01*
X012840Y018053D01*
X012590Y018303D01*
X012716Y018429D01*
G37*
G36*
X012966Y018721D02*
X012716Y018471D01*
X012590Y018597D01*
X012840Y018847D01*
X012966Y018721D01*
G37*
G36*
X012785Y018902D02*
X012535Y018652D01*
X012409Y018778D01*
X012659Y019028D01*
X012785Y018902D01*
G37*
G36*
X012604Y019083D02*
X012354Y018833D01*
X012228Y018959D01*
X012478Y019209D01*
X012604Y019083D01*
G37*
G36*
X012423Y019264D02*
X012173Y019014D01*
X012047Y019140D01*
X012297Y019390D01*
X012423Y019264D01*
G37*
G36*
X012243Y019445D02*
X011993Y019195D01*
X011867Y019321D01*
X012117Y019571D01*
X012243Y019445D01*
G37*
G36*
X012062Y019626D02*
X011812Y019376D01*
X011686Y019502D01*
X011936Y019752D01*
X012062Y019626D01*
G37*
G36*
X011505Y019683D02*
X011755Y019933D01*
X011881Y019807D01*
X011631Y019557D01*
X011505Y019683D01*
G37*
G36*
X011324Y019863D02*
X011574Y020113D01*
X011700Y019987D01*
X011450Y019737D01*
X011324Y019863D01*
G37*
G36*
X011143Y020044D02*
X011393Y020294D01*
X011519Y020168D01*
X011269Y019918D01*
X011143Y020044D01*
G37*
G36*
X010962Y020225D02*
X011212Y020475D01*
X011338Y020349D01*
X011088Y020099D01*
X010962Y020225D01*
G37*
G36*
X010781Y020406D02*
X011031Y020656D01*
X011157Y020530D01*
X010907Y020280D01*
X010781Y020406D01*
G37*
G36*
X010489Y020656D02*
X010739Y020406D01*
X010613Y020280D01*
X010363Y020530D01*
X010489Y020656D01*
G37*
G36*
X010308Y020475D02*
X010558Y020225D01*
X010432Y020099D01*
X010182Y020349D01*
X010308Y020475D01*
G37*
G36*
X010127Y020294D02*
X010377Y020044D01*
X010251Y019918D01*
X010001Y020168D01*
X010127Y020294D01*
G37*
G36*
X009946Y020113D02*
X010196Y019863D01*
X010070Y019737D01*
X009820Y019987D01*
X009946Y020113D01*
G37*
G36*
X009765Y019933D02*
X010015Y019683D01*
X009889Y019557D01*
X009639Y019807D01*
X009765Y019933D01*
G37*
G36*
X009584Y019752D02*
X009834Y019502D01*
X009708Y019376D01*
X009458Y019626D01*
X009584Y019752D01*
G37*
G36*
X009527Y019195D02*
X009277Y019445D01*
X009403Y019571D01*
X009653Y019321D01*
X009527Y019195D01*
G37*
G36*
X009347Y019014D02*
X009097Y019264D01*
X009223Y019390D01*
X009473Y019140D01*
X009347Y019014D01*
G37*
G36*
X009166Y018833D02*
X008916Y019083D01*
X009042Y019209D01*
X009292Y018959D01*
X009166Y018833D01*
G37*
G36*
X008985Y018652D02*
X008735Y018902D01*
X008861Y019028D01*
X009111Y018778D01*
X008985Y018652D01*
G37*
G36*
X008804Y018471D02*
X008554Y018721D01*
X008680Y018847D01*
X008930Y018597D01*
X008804Y018471D01*
G37*
G36*
X008554Y018179D02*
X008804Y018429D01*
X008930Y018303D01*
X008680Y018053D01*
X008554Y018179D01*
G37*
G36*
X008735Y017998D02*
X008985Y018248D01*
X009111Y018122D01*
X008861Y017872D01*
X008735Y017998D01*
G37*
G36*
X008916Y017817D02*
X009166Y018067D01*
X009292Y017941D01*
X009042Y017691D01*
X008916Y017817D01*
G37*
G36*
X009097Y017636D02*
X009347Y017886D01*
X009473Y017760D01*
X009223Y017510D01*
X009097Y017636D01*
G37*
G36*
X009277Y017455D02*
X009527Y017705D01*
X009653Y017579D01*
X009403Y017329D01*
X009277Y017455D01*
G37*
G36*
X009458Y017274D02*
X009708Y017524D01*
X009834Y017398D01*
X009584Y017148D01*
X009458Y017274D01*
G37*
G36*
X010015Y017217D02*
X009765Y016967D01*
X009639Y017093D01*
X009889Y017343D01*
X010015Y017217D01*
G37*
G36*
X010196Y017037D02*
X009946Y016787D01*
X009820Y016913D01*
X010070Y017163D01*
X010196Y017037D01*
G37*
G36*
X010377Y016856D02*
X010127Y016606D01*
X010001Y016732D01*
X010251Y016982D01*
X010377Y016856D01*
G37*
G36*
X010558Y016675D02*
X010308Y016425D01*
X010182Y016551D01*
X010432Y016801D01*
X010558Y016675D01*
G37*
G36*
X010739Y023494D02*
X010489Y023244D01*
X010363Y023370D01*
X010613Y023620D01*
X010739Y023494D01*
G37*
G36*
X011031Y023244D02*
X010781Y023494D01*
X010907Y023620D01*
X011157Y023370D01*
X011031Y023244D01*
G37*
G36*
X011212Y023425D02*
X010962Y023675D01*
X011088Y023801D01*
X011338Y023551D01*
X011212Y023425D01*
G37*
G36*
X011393Y023606D02*
X011143Y023856D01*
X011269Y023982D01*
X011519Y023732D01*
X011393Y023606D01*
G37*
G36*
X011574Y023787D02*
X011324Y024037D01*
X011450Y024163D01*
X011700Y023913D01*
X011574Y023787D01*
G37*
G36*
X011755Y023967D02*
X011505Y024217D01*
X011631Y024343D01*
X011881Y024093D01*
X011755Y023967D01*
G37*
G36*
X011936Y024148D02*
X011686Y024398D01*
X011812Y024524D01*
X012062Y024274D01*
X011936Y024148D01*
G37*
G36*
X011993Y024705D02*
X012243Y024455D01*
X012117Y024329D01*
X011867Y024579D01*
X011993Y024705D01*
G37*
G36*
X012173Y024886D02*
X012423Y024636D01*
X012297Y024510D01*
X012047Y024760D01*
X012173Y024886D01*
G37*
G36*
X012354Y025067D02*
X012604Y024817D01*
X012478Y024691D01*
X012228Y024941D01*
X012354Y025067D01*
G37*
G36*
X012535Y025248D02*
X012785Y024998D01*
X012659Y024872D01*
X012409Y025122D01*
X012535Y025248D01*
G37*
G36*
X012716Y025429D02*
X012966Y025179D01*
X012840Y025053D01*
X012590Y025303D01*
X012716Y025429D01*
G37*
G36*
X012966Y025721D02*
X012716Y025471D01*
X012590Y025597D01*
X012840Y025847D01*
X012966Y025721D01*
G37*
G36*
X012785Y025902D02*
X012535Y025652D01*
X012409Y025778D01*
X012659Y026028D01*
X012785Y025902D01*
G37*
G36*
X012604Y026083D02*
X012354Y025833D01*
X012228Y025959D01*
X012478Y026209D01*
X012604Y026083D01*
G37*
G36*
X012423Y026264D02*
X012173Y026014D01*
X012047Y026140D01*
X012297Y026390D01*
X012423Y026264D01*
G37*
G36*
X012243Y026445D02*
X011993Y026195D01*
X011867Y026321D01*
X012117Y026571D01*
X012243Y026445D01*
G37*
G36*
X012062Y026626D02*
X011812Y026376D01*
X011686Y026502D01*
X011936Y026752D01*
X012062Y026626D01*
G37*
G36*
X011505Y026683D02*
X011755Y026933D01*
X011881Y026807D01*
X011631Y026557D01*
X011505Y026683D01*
G37*
G36*
X011324Y026863D02*
X011574Y027113D01*
X011700Y026987D01*
X011450Y026737D01*
X011324Y026863D01*
G37*
G36*
X011143Y027044D02*
X011393Y027294D01*
X011519Y027168D01*
X011269Y026918D01*
X011143Y027044D01*
G37*
G36*
X010962Y027225D02*
X011212Y027475D01*
X011338Y027349D01*
X011088Y027099D01*
X010962Y027225D01*
G37*
G36*
X010781Y027406D02*
X011031Y027656D01*
X011157Y027530D01*
X010907Y027280D01*
X010781Y027406D01*
G37*
G36*
X010489Y027656D02*
X010739Y027406D01*
X010613Y027280D01*
X010363Y027530D01*
X010489Y027656D01*
G37*
G36*
X010308Y027475D02*
X010558Y027225D01*
X010432Y027099D01*
X010182Y027349D01*
X010308Y027475D01*
G37*
G36*
X010127Y027294D02*
X010377Y027044D01*
X010251Y026918D01*
X010001Y027168D01*
X010127Y027294D01*
G37*
G36*
X009946Y027113D02*
X010196Y026863D01*
X010070Y026737D01*
X009820Y026987D01*
X009946Y027113D01*
G37*
G36*
X009765Y026933D02*
X010015Y026683D01*
X009889Y026557D01*
X009639Y026807D01*
X009765Y026933D01*
G37*
G36*
X009584Y026752D02*
X009834Y026502D01*
X009708Y026376D01*
X009458Y026626D01*
X009584Y026752D01*
G37*
G36*
X009527Y026195D02*
X009277Y026445D01*
X009403Y026571D01*
X009653Y026321D01*
X009527Y026195D01*
G37*
G36*
X009347Y026014D02*
X009097Y026264D01*
X009223Y026390D01*
X009473Y026140D01*
X009347Y026014D01*
G37*
G36*
X009166Y025833D02*
X008916Y026083D01*
X009042Y026209D01*
X009292Y025959D01*
X009166Y025833D01*
G37*
G36*
X008985Y025652D02*
X008735Y025902D01*
X008861Y026028D01*
X009111Y025778D01*
X008985Y025652D01*
G37*
G36*
X008804Y025471D02*
X008554Y025721D01*
X008680Y025847D01*
X008930Y025597D01*
X008804Y025471D01*
G37*
G36*
X008554Y025179D02*
X008804Y025429D01*
X008930Y025303D01*
X008680Y025053D01*
X008554Y025179D01*
G37*
G36*
X008735Y024998D02*
X008985Y025248D01*
X009111Y025122D01*
X008861Y024872D01*
X008735Y024998D01*
G37*
G36*
X008916Y024817D02*
X009166Y025067D01*
X009292Y024941D01*
X009042Y024691D01*
X008916Y024817D01*
G37*
G36*
X009097Y024636D02*
X009347Y024886D01*
X009473Y024760D01*
X009223Y024510D01*
X009097Y024636D01*
G37*
G36*
X009277Y024455D02*
X009527Y024705D01*
X009653Y024579D01*
X009403Y024329D01*
X009277Y024455D01*
G37*
G36*
X009458Y024274D02*
X009708Y024524D01*
X009834Y024398D01*
X009584Y024148D01*
X009458Y024274D01*
G37*
G36*
X010015Y024217D02*
X009765Y023967D01*
X009639Y024093D01*
X009889Y024343D01*
X010015Y024217D01*
G37*
G36*
X010196Y024037D02*
X009946Y023787D01*
X009820Y023913D01*
X010070Y024163D01*
X010196Y024037D01*
G37*
G36*
X010377Y023856D02*
X010127Y023606D01*
X010001Y023732D01*
X010251Y023982D01*
X010377Y023856D01*
G37*
G36*
X010558Y023675D02*
X010308Y023425D01*
X010182Y023551D01*
X010432Y023801D01*
X010558Y023675D01*
G37*
G36*
X010739Y030494D02*
X010489Y030244D01*
X010363Y030370D01*
X010613Y030620D01*
X010739Y030494D01*
G37*
G36*
X011031Y030244D02*
X010781Y030494D01*
X010907Y030620D01*
X011157Y030370D01*
X011031Y030244D01*
G37*
G36*
X011212Y030425D02*
X010962Y030675D01*
X011088Y030801D01*
X011338Y030551D01*
X011212Y030425D01*
G37*
G36*
X011393Y030606D02*
X011143Y030856D01*
X011269Y030982D01*
X011519Y030732D01*
X011393Y030606D01*
G37*
G36*
X011574Y030787D02*
X011324Y031037D01*
X011450Y031163D01*
X011700Y030913D01*
X011574Y030787D01*
G37*
G36*
X011755Y030967D02*
X011505Y031217D01*
X011631Y031343D01*
X011881Y031093D01*
X011755Y030967D01*
G37*
G36*
X011936Y031148D02*
X011686Y031398D01*
X011812Y031524D01*
X012062Y031274D01*
X011936Y031148D01*
G37*
G36*
X011993Y031705D02*
X012243Y031455D01*
X012117Y031329D01*
X011867Y031579D01*
X011993Y031705D01*
G37*
G36*
X012173Y031886D02*
X012423Y031636D01*
X012297Y031510D01*
X012047Y031760D01*
X012173Y031886D01*
G37*
G36*
X012354Y032067D02*
X012604Y031817D01*
X012478Y031691D01*
X012228Y031941D01*
X012354Y032067D01*
G37*
G36*
X012535Y032248D02*
X012785Y031998D01*
X012659Y031872D01*
X012409Y032122D01*
X012535Y032248D01*
G37*
G36*
X012716Y032429D02*
X012966Y032179D01*
X012840Y032053D01*
X012590Y032303D01*
X012716Y032429D01*
G37*
G36*
X012966Y032721D02*
X012716Y032471D01*
X012590Y032597D01*
X012840Y032847D01*
X012966Y032721D01*
G37*
G36*
X012785Y032902D02*
X012535Y032652D01*
X012409Y032778D01*
X012659Y033028D01*
X012785Y032902D01*
G37*
G36*
X012604Y033083D02*
X012354Y032833D01*
X012228Y032959D01*
X012478Y033209D01*
X012604Y033083D01*
G37*
G36*
X012423Y033264D02*
X012173Y033014D01*
X012047Y033140D01*
X012297Y033390D01*
X012423Y033264D01*
G37*
G36*
X012243Y033445D02*
X011993Y033195D01*
X011867Y033321D01*
X012117Y033571D01*
X012243Y033445D01*
G37*
G36*
X012062Y033626D02*
X011812Y033376D01*
X011686Y033502D01*
X011936Y033752D01*
X012062Y033626D01*
G37*
G36*
X011505Y033683D02*
X011755Y033933D01*
X011881Y033807D01*
X011631Y033557D01*
X011505Y033683D01*
G37*
G36*
X011324Y033863D02*
X011574Y034113D01*
X011700Y033987D01*
X011450Y033737D01*
X011324Y033863D01*
G37*
G36*
X011143Y034044D02*
X011393Y034294D01*
X011519Y034168D01*
X011269Y033918D01*
X011143Y034044D01*
G37*
G36*
X010962Y034225D02*
X011212Y034475D01*
X011338Y034349D01*
X011088Y034099D01*
X010962Y034225D01*
G37*
G36*
X010781Y034406D02*
X011031Y034656D01*
X011157Y034530D01*
X010907Y034280D01*
X010781Y034406D01*
G37*
G36*
X010489Y034656D02*
X010739Y034406D01*
X010613Y034280D01*
X010363Y034530D01*
X010489Y034656D01*
G37*
G36*
X010308Y034475D02*
X010558Y034225D01*
X010432Y034099D01*
X010182Y034349D01*
X010308Y034475D01*
G37*
G36*
X010127Y034294D02*
X010377Y034044D01*
X010251Y033918D01*
X010001Y034168D01*
X010127Y034294D01*
G37*
G36*
X009946Y034113D02*
X010196Y033863D01*
X010070Y033737D01*
X009820Y033987D01*
X009946Y034113D01*
G37*
G36*
X009765Y033933D02*
X010015Y033683D01*
X009889Y033557D01*
X009639Y033807D01*
X009765Y033933D01*
G37*
G36*
X009584Y033752D02*
X009834Y033502D01*
X009708Y033376D01*
X009458Y033626D01*
X009584Y033752D01*
G37*
G36*
X009527Y033195D02*
X009277Y033445D01*
X009403Y033571D01*
X009653Y033321D01*
X009527Y033195D01*
G37*
G36*
X009347Y033014D02*
X009097Y033264D01*
X009223Y033390D01*
X009473Y033140D01*
X009347Y033014D01*
G37*
G36*
X009166Y032833D02*
X008916Y033083D01*
X009042Y033209D01*
X009292Y032959D01*
X009166Y032833D01*
G37*
G36*
X008985Y032652D02*
X008735Y032902D01*
X008861Y033028D01*
X009111Y032778D01*
X008985Y032652D01*
G37*
G36*
X008804Y032471D02*
X008554Y032721D01*
X008680Y032847D01*
X008930Y032597D01*
X008804Y032471D01*
G37*
G36*
X008554Y032179D02*
X008804Y032429D01*
X008930Y032303D01*
X008680Y032053D01*
X008554Y032179D01*
G37*
G36*
X008735Y031998D02*
X008985Y032248D01*
X009111Y032122D01*
X008861Y031872D01*
X008735Y031998D01*
G37*
G36*
X008916Y031817D02*
X009166Y032067D01*
X009292Y031941D01*
X009042Y031691D01*
X008916Y031817D01*
G37*
G36*
X009097Y031636D02*
X009347Y031886D01*
X009473Y031760D01*
X009223Y031510D01*
X009097Y031636D01*
G37*
G36*
X009277Y031455D02*
X009527Y031705D01*
X009653Y031579D01*
X009403Y031329D01*
X009277Y031455D01*
G37*
G36*
X009458Y031274D02*
X009708Y031524D01*
X009834Y031398D01*
X009584Y031148D01*
X009458Y031274D01*
G37*
G36*
X010015Y031217D02*
X009765Y030967D01*
X009639Y031093D01*
X009889Y031343D01*
X010015Y031217D01*
G37*
G36*
X010196Y031037D02*
X009946Y030787D01*
X009820Y030913D01*
X010070Y031163D01*
X010196Y031037D01*
G37*
G36*
X010377Y030856D02*
X010127Y030606D01*
X010001Y030732D01*
X010251Y030982D01*
X010377Y030856D01*
G37*
G36*
X010558Y030675D02*
X010308Y030425D01*
X010182Y030551D01*
X010432Y030801D01*
X010558Y030675D01*
G37*
D22*
X017260Y031697D03*
X017260Y032603D03*
X017260Y025603D03*
X017260Y024697D03*
X017260Y018603D03*
X017260Y017697D03*
X017260Y011603D03*
X017260Y010697D03*
X017260Y004603D03*
X017260Y003697D03*
D23*
X017233Y002850D03*
X016327Y002850D03*
X016327Y009850D03*
X017233Y009850D03*
X017233Y016850D03*
X016327Y016850D03*
X016327Y023850D03*
X017233Y023850D03*
X017233Y030850D03*
X016327Y030850D03*
D24*
X018276Y031820D03*
X018276Y032135D03*
X018276Y032450D03*
X018276Y032765D03*
X018276Y033080D03*
X018276Y026080D03*
X018276Y025765D03*
X018276Y025450D03*
X018276Y025135D03*
X018276Y024820D03*
X018276Y019080D03*
X018276Y018765D03*
X018276Y018450D03*
X018276Y018135D03*
X018276Y017820D03*
X018276Y012080D03*
X018276Y011765D03*
X018276Y011450D03*
X018276Y011135D03*
X018276Y010820D03*
X018276Y005080D03*
X018276Y004765D03*
X018276Y004450D03*
X018276Y004135D03*
X018276Y003820D03*
D25*
X018473Y002796D03*
X018473Y006104D03*
X020559Y006104D03*
X020559Y002796D03*
X020559Y009796D03*
X020559Y013104D03*
X018473Y013104D03*
X018473Y009796D03*
X018473Y016796D03*
X018473Y020104D03*
X020559Y020104D03*
X020559Y016796D03*
X020559Y023796D03*
X020559Y027104D03*
X018473Y027104D03*
X018473Y023796D03*
X018473Y030796D03*
X018473Y034104D03*
X020559Y034104D03*
X020559Y030796D03*
D26*
X019260Y031761D03*
X019260Y033139D03*
X019260Y026139D03*
X019260Y024761D03*
X019260Y019139D03*
X019260Y017761D03*
X019260Y012139D03*
X019260Y010761D03*
X019260Y005139D03*
X019260Y003761D03*
M02*
