G75*
G70*
%OFA0B0*%
%FSLAX24Y24*%
%IPPOS*%
%LPD*%
%AMOC8*
5,1,8,0,0,1.08239X$1,22.5*
%
%ADD10C,0.0000*%
D10*
X001260Y000950D02*
X001260Y007950D01*
X001260Y014950D01*
X001260Y021950D01*
X001260Y028950D01*
X001260Y035950D01*
X021260Y035950D01*
X021260Y028950D01*
X001260Y028950D01*
X021260Y028950D01*
X021260Y021950D01*
X001260Y021950D01*
X021260Y021950D01*
X021260Y014950D01*
X001260Y014950D01*
X021260Y014950D01*
X021260Y007950D01*
X001260Y007950D01*
X021260Y007950D01*
X021260Y000950D01*
X001260Y000950D01*
X019083Y003761D02*
X019085Y003787D01*
X019091Y003813D01*
X019101Y003838D01*
X019114Y003861D01*
X019130Y003881D01*
X019150Y003899D01*
X019172Y003914D01*
X019195Y003926D01*
X019221Y003934D01*
X019247Y003938D01*
X019273Y003938D01*
X019299Y003934D01*
X019325Y003926D01*
X019349Y003914D01*
X019370Y003899D01*
X019390Y003881D01*
X019406Y003861D01*
X019419Y003838D01*
X019429Y003813D01*
X019435Y003787D01*
X019437Y003761D01*
X019435Y003735D01*
X019429Y003709D01*
X019419Y003684D01*
X019406Y003661D01*
X019390Y003641D01*
X019370Y003623D01*
X019348Y003608D01*
X019325Y003596D01*
X019299Y003588D01*
X019273Y003584D01*
X019247Y003584D01*
X019221Y003588D01*
X019195Y003596D01*
X019171Y003608D01*
X019150Y003623D01*
X019130Y003641D01*
X019114Y003661D01*
X019101Y003684D01*
X019091Y003709D01*
X019085Y003735D01*
X019083Y003761D01*
X019083Y005139D02*
X019085Y005165D01*
X019091Y005191D01*
X019101Y005216D01*
X019114Y005239D01*
X019130Y005259D01*
X019150Y005277D01*
X019172Y005292D01*
X019195Y005304D01*
X019221Y005312D01*
X019247Y005316D01*
X019273Y005316D01*
X019299Y005312D01*
X019325Y005304D01*
X019349Y005292D01*
X019370Y005277D01*
X019390Y005259D01*
X019406Y005239D01*
X019419Y005216D01*
X019429Y005191D01*
X019435Y005165D01*
X019437Y005139D01*
X019435Y005113D01*
X019429Y005087D01*
X019419Y005062D01*
X019406Y005039D01*
X019390Y005019D01*
X019370Y005001D01*
X019348Y004986D01*
X019325Y004974D01*
X019299Y004966D01*
X019273Y004962D01*
X019247Y004962D01*
X019221Y004966D01*
X019195Y004974D01*
X019171Y004986D01*
X019150Y005001D01*
X019130Y005019D01*
X019114Y005039D01*
X019101Y005062D01*
X019091Y005087D01*
X019085Y005113D01*
X019083Y005139D01*
X019083Y010761D02*
X019085Y010787D01*
X019091Y010813D01*
X019101Y010838D01*
X019114Y010861D01*
X019130Y010881D01*
X019150Y010899D01*
X019172Y010914D01*
X019195Y010926D01*
X019221Y010934D01*
X019247Y010938D01*
X019273Y010938D01*
X019299Y010934D01*
X019325Y010926D01*
X019349Y010914D01*
X019370Y010899D01*
X019390Y010881D01*
X019406Y010861D01*
X019419Y010838D01*
X019429Y010813D01*
X019435Y010787D01*
X019437Y010761D01*
X019435Y010735D01*
X019429Y010709D01*
X019419Y010684D01*
X019406Y010661D01*
X019390Y010641D01*
X019370Y010623D01*
X019348Y010608D01*
X019325Y010596D01*
X019299Y010588D01*
X019273Y010584D01*
X019247Y010584D01*
X019221Y010588D01*
X019195Y010596D01*
X019171Y010608D01*
X019150Y010623D01*
X019130Y010641D01*
X019114Y010661D01*
X019101Y010684D01*
X019091Y010709D01*
X019085Y010735D01*
X019083Y010761D01*
X019083Y012139D02*
X019085Y012165D01*
X019091Y012191D01*
X019101Y012216D01*
X019114Y012239D01*
X019130Y012259D01*
X019150Y012277D01*
X019172Y012292D01*
X019195Y012304D01*
X019221Y012312D01*
X019247Y012316D01*
X019273Y012316D01*
X019299Y012312D01*
X019325Y012304D01*
X019349Y012292D01*
X019370Y012277D01*
X019390Y012259D01*
X019406Y012239D01*
X019419Y012216D01*
X019429Y012191D01*
X019435Y012165D01*
X019437Y012139D01*
X019435Y012113D01*
X019429Y012087D01*
X019419Y012062D01*
X019406Y012039D01*
X019390Y012019D01*
X019370Y012001D01*
X019348Y011986D01*
X019325Y011974D01*
X019299Y011966D01*
X019273Y011962D01*
X019247Y011962D01*
X019221Y011966D01*
X019195Y011974D01*
X019171Y011986D01*
X019150Y012001D01*
X019130Y012019D01*
X019114Y012039D01*
X019101Y012062D01*
X019091Y012087D01*
X019085Y012113D01*
X019083Y012139D01*
X019083Y017761D02*
X019085Y017787D01*
X019091Y017813D01*
X019101Y017838D01*
X019114Y017861D01*
X019130Y017881D01*
X019150Y017899D01*
X019172Y017914D01*
X019195Y017926D01*
X019221Y017934D01*
X019247Y017938D01*
X019273Y017938D01*
X019299Y017934D01*
X019325Y017926D01*
X019349Y017914D01*
X019370Y017899D01*
X019390Y017881D01*
X019406Y017861D01*
X019419Y017838D01*
X019429Y017813D01*
X019435Y017787D01*
X019437Y017761D01*
X019435Y017735D01*
X019429Y017709D01*
X019419Y017684D01*
X019406Y017661D01*
X019390Y017641D01*
X019370Y017623D01*
X019348Y017608D01*
X019325Y017596D01*
X019299Y017588D01*
X019273Y017584D01*
X019247Y017584D01*
X019221Y017588D01*
X019195Y017596D01*
X019171Y017608D01*
X019150Y017623D01*
X019130Y017641D01*
X019114Y017661D01*
X019101Y017684D01*
X019091Y017709D01*
X019085Y017735D01*
X019083Y017761D01*
X019083Y019139D02*
X019085Y019165D01*
X019091Y019191D01*
X019101Y019216D01*
X019114Y019239D01*
X019130Y019259D01*
X019150Y019277D01*
X019172Y019292D01*
X019195Y019304D01*
X019221Y019312D01*
X019247Y019316D01*
X019273Y019316D01*
X019299Y019312D01*
X019325Y019304D01*
X019349Y019292D01*
X019370Y019277D01*
X019390Y019259D01*
X019406Y019239D01*
X019419Y019216D01*
X019429Y019191D01*
X019435Y019165D01*
X019437Y019139D01*
X019435Y019113D01*
X019429Y019087D01*
X019419Y019062D01*
X019406Y019039D01*
X019390Y019019D01*
X019370Y019001D01*
X019348Y018986D01*
X019325Y018974D01*
X019299Y018966D01*
X019273Y018962D01*
X019247Y018962D01*
X019221Y018966D01*
X019195Y018974D01*
X019171Y018986D01*
X019150Y019001D01*
X019130Y019019D01*
X019114Y019039D01*
X019101Y019062D01*
X019091Y019087D01*
X019085Y019113D01*
X019083Y019139D01*
X019083Y024761D02*
X019085Y024787D01*
X019091Y024813D01*
X019101Y024838D01*
X019114Y024861D01*
X019130Y024881D01*
X019150Y024899D01*
X019172Y024914D01*
X019195Y024926D01*
X019221Y024934D01*
X019247Y024938D01*
X019273Y024938D01*
X019299Y024934D01*
X019325Y024926D01*
X019349Y024914D01*
X019370Y024899D01*
X019390Y024881D01*
X019406Y024861D01*
X019419Y024838D01*
X019429Y024813D01*
X019435Y024787D01*
X019437Y024761D01*
X019435Y024735D01*
X019429Y024709D01*
X019419Y024684D01*
X019406Y024661D01*
X019390Y024641D01*
X019370Y024623D01*
X019348Y024608D01*
X019325Y024596D01*
X019299Y024588D01*
X019273Y024584D01*
X019247Y024584D01*
X019221Y024588D01*
X019195Y024596D01*
X019171Y024608D01*
X019150Y024623D01*
X019130Y024641D01*
X019114Y024661D01*
X019101Y024684D01*
X019091Y024709D01*
X019085Y024735D01*
X019083Y024761D01*
X019083Y026139D02*
X019085Y026165D01*
X019091Y026191D01*
X019101Y026216D01*
X019114Y026239D01*
X019130Y026259D01*
X019150Y026277D01*
X019172Y026292D01*
X019195Y026304D01*
X019221Y026312D01*
X019247Y026316D01*
X019273Y026316D01*
X019299Y026312D01*
X019325Y026304D01*
X019349Y026292D01*
X019370Y026277D01*
X019390Y026259D01*
X019406Y026239D01*
X019419Y026216D01*
X019429Y026191D01*
X019435Y026165D01*
X019437Y026139D01*
X019435Y026113D01*
X019429Y026087D01*
X019419Y026062D01*
X019406Y026039D01*
X019390Y026019D01*
X019370Y026001D01*
X019348Y025986D01*
X019325Y025974D01*
X019299Y025966D01*
X019273Y025962D01*
X019247Y025962D01*
X019221Y025966D01*
X019195Y025974D01*
X019171Y025986D01*
X019150Y026001D01*
X019130Y026019D01*
X019114Y026039D01*
X019101Y026062D01*
X019091Y026087D01*
X019085Y026113D01*
X019083Y026139D01*
X019083Y031761D02*
X019085Y031787D01*
X019091Y031813D01*
X019101Y031838D01*
X019114Y031861D01*
X019130Y031881D01*
X019150Y031899D01*
X019172Y031914D01*
X019195Y031926D01*
X019221Y031934D01*
X019247Y031938D01*
X019273Y031938D01*
X019299Y031934D01*
X019325Y031926D01*
X019349Y031914D01*
X019370Y031899D01*
X019390Y031881D01*
X019406Y031861D01*
X019419Y031838D01*
X019429Y031813D01*
X019435Y031787D01*
X019437Y031761D01*
X019435Y031735D01*
X019429Y031709D01*
X019419Y031684D01*
X019406Y031661D01*
X019390Y031641D01*
X019370Y031623D01*
X019348Y031608D01*
X019325Y031596D01*
X019299Y031588D01*
X019273Y031584D01*
X019247Y031584D01*
X019221Y031588D01*
X019195Y031596D01*
X019171Y031608D01*
X019150Y031623D01*
X019130Y031641D01*
X019114Y031661D01*
X019101Y031684D01*
X019091Y031709D01*
X019085Y031735D01*
X019083Y031761D01*
X019083Y033139D02*
X019085Y033165D01*
X019091Y033191D01*
X019101Y033216D01*
X019114Y033239D01*
X019130Y033259D01*
X019150Y033277D01*
X019172Y033292D01*
X019195Y033304D01*
X019221Y033312D01*
X019247Y033316D01*
X019273Y033316D01*
X019299Y033312D01*
X019325Y033304D01*
X019349Y033292D01*
X019370Y033277D01*
X019390Y033259D01*
X019406Y033239D01*
X019419Y033216D01*
X019429Y033191D01*
X019435Y033165D01*
X019437Y033139D01*
X019435Y033113D01*
X019429Y033087D01*
X019419Y033062D01*
X019406Y033039D01*
X019390Y033019D01*
X019370Y033001D01*
X019348Y032986D01*
X019325Y032974D01*
X019299Y032966D01*
X019273Y032962D01*
X019247Y032962D01*
X019221Y032966D01*
X019195Y032974D01*
X019171Y032986D01*
X019150Y033001D01*
X019130Y033019D01*
X019114Y033039D01*
X019101Y033062D01*
X019091Y033087D01*
X019085Y033113D01*
X019083Y033139D01*
M02*
