G75*
G70*
%OFA0B0*%
%FSLAX24Y24*%
%IPPOS*%
%LPD*%
%AMOC8*
5,1,8,0,0,1.08239X$1,22.5*
%
%ADD10C,0.0000*%
%ADD11R,0.0433X0.0394*%
%ADD12R,0.0394X0.0433*%
%ADD13R,0.0315X0.0315*%
%ADD14R,0.0600X0.0300*%
%ADD15R,0.0472X0.0315*%
%ADD16R,0.0787X0.0945*%
%ADD17R,0.0551X0.0315*%
%ADD18R,0.0866X0.0709*%
%ADD19R,0.0315X0.0138*%
%ADD20R,0.0327X0.0248*%
%ADD21R,0.0248X0.0327*%
%ADD22R,0.0787X0.0197*%
%ADD23R,0.0866X0.0984*%
D10*
X001260Y000950D02*
X001260Y007950D01*
X001260Y014950D01*
X001260Y021950D01*
X001260Y028950D01*
X001260Y035950D01*
X021260Y035950D01*
X021260Y028950D01*
X001260Y028950D01*
X021260Y028950D01*
X021260Y021950D01*
X001260Y021950D01*
X021260Y021950D01*
X021260Y014950D01*
X001260Y014950D01*
X021260Y014950D01*
X021260Y007950D01*
X001260Y007950D01*
X021260Y007950D01*
X021260Y000950D01*
X001260Y000950D01*
X019083Y003761D02*
X019085Y003787D01*
X019091Y003813D01*
X019101Y003838D01*
X019114Y003861D01*
X019130Y003881D01*
X019150Y003899D01*
X019172Y003914D01*
X019195Y003926D01*
X019221Y003934D01*
X019247Y003938D01*
X019273Y003938D01*
X019299Y003934D01*
X019325Y003926D01*
X019349Y003914D01*
X019370Y003899D01*
X019390Y003881D01*
X019406Y003861D01*
X019419Y003838D01*
X019429Y003813D01*
X019435Y003787D01*
X019437Y003761D01*
X019435Y003735D01*
X019429Y003709D01*
X019419Y003684D01*
X019406Y003661D01*
X019390Y003641D01*
X019370Y003623D01*
X019348Y003608D01*
X019325Y003596D01*
X019299Y003588D01*
X019273Y003584D01*
X019247Y003584D01*
X019221Y003588D01*
X019195Y003596D01*
X019171Y003608D01*
X019150Y003623D01*
X019130Y003641D01*
X019114Y003661D01*
X019101Y003684D01*
X019091Y003709D01*
X019085Y003735D01*
X019083Y003761D01*
X019083Y005139D02*
X019085Y005165D01*
X019091Y005191D01*
X019101Y005216D01*
X019114Y005239D01*
X019130Y005259D01*
X019150Y005277D01*
X019172Y005292D01*
X019195Y005304D01*
X019221Y005312D01*
X019247Y005316D01*
X019273Y005316D01*
X019299Y005312D01*
X019325Y005304D01*
X019349Y005292D01*
X019370Y005277D01*
X019390Y005259D01*
X019406Y005239D01*
X019419Y005216D01*
X019429Y005191D01*
X019435Y005165D01*
X019437Y005139D01*
X019435Y005113D01*
X019429Y005087D01*
X019419Y005062D01*
X019406Y005039D01*
X019390Y005019D01*
X019370Y005001D01*
X019348Y004986D01*
X019325Y004974D01*
X019299Y004966D01*
X019273Y004962D01*
X019247Y004962D01*
X019221Y004966D01*
X019195Y004974D01*
X019171Y004986D01*
X019150Y005001D01*
X019130Y005019D01*
X019114Y005039D01*
X019101Y005062D01*
X019091Y005087D01*
X019085Y005113D01*
X019083Y005139D01*
X019083Y010761D02*
X019085Y010787D01*
X019091Y010813D01*
X019101Y010838D01*
X019114Y010861D01*
X019130Y010881D01*
X019150Y010899D01*
X019172Y010914D01*
X019195Y010926D01*
X019221Y010934D01*
X019247Y010938D01*
X019273Y010938D01*
X019299Y010934D01*
X019325Y010926D01*
X019349Y010914D01*
X019370Y010899D01*
X019390Y010881D01*
X019406Y010861D01*
X019419Y010838D01*
X019429Y010813D01*
X019435Y010787D01*
X019437Y010761D01*
X019435Y010735D01*
X019429Y010709D01*
X019419Y010684D01*
X019406Y010661D01*
X019390Y010641D01*
X019370Y010623D01*
X019348Y010608D01*
X019325Y010596D01*
X019299Y010588D01*
X019273Y010584D01*
X019247Y010584D01*
X019221Y010588D01*
X019195Y010596D01*
X019171Y010608D01*
X019150Y010623D01*
X019130Y010641D01*
X019114Y010661D01*
X019101Y010684D01*
X019091Y010709D01*
X019085Y010735D01*
X019083Y010761D01*
X019083Y012139D02*
X019085Y012165D01*
X019091Y012191D01*
X019101Y012216D01*
X019114Y012239D01*
X019130Y012259D01*
X019150Y012277D01*
X019172Y012292D01*
X019195Y012304D01*
X019221Y012312D01*
X019247Y012316D01*
X019273Y012316D01*
X019299Y012312D01*
X019325Y012304D01*
X019349Y012292D01*
X019370Y012277D01*
X019390Y012259D01*
X019406Y012239D01*
X019419Y012216D01*
X019429Y012191D01*
X019435Y012165D01*
X019437Y012139D01*
X019435Y012113D01*
X019429Y012087D01*
X019419Y012062D01*
X019406Y012039D01*
X019390Y012019D01*
X019370Y012001D01*
X019348Y011986D01*
X019325Y011974D01*
X019299Y011966D01*
X019273Y011962D01*
X019247Y011962D01*
X019221Y011966D01*
X019195Y011974D01*
X019171Y011986D01*
X019150Y012001D01*
X019130Y012019D01*
X019114Y012039D01*
X019101Y012062D01*
X019091Y012087D01*
X019085Y012113D01*
X019083Y012139D01*
X019083Y017761D02*
X019085Y017787D01*
X019091Y017813D01*
X019101Y017838D01*
X019114Y017861D01*
X019130Y017881D01*
X019150Y017899D01*
X019172Y017914D01*
X019195Y017926D01*
X019221Y017934D01*
X019247Y017938D01*
X019273Y017938D01*
X019299Y017934D01*
X019325Y017926D01*
X019349Y017914D01*
X019370Y017899D01*
X019390Y017881D01*
X019406Y017861D01*
X019419Y017838D01*
X019429Y017813D01*
X019435Y017787D01*
X019437Y017761D01*
X019435Y017735D01*
X019429Y017709D01*
X019419Y017684D01*
X019406Y017661D01*
X019390Y017641D01*
X019370Y017623D01*
X019348Y017608D01*
X019325Y017596D01*
X019299Y017588D01*
X019273Y017584D01*
X019247Y017584D01*
X019221Y017588D01*
X019195Y017596D01*
X019171Y017608D01*
X019150Y017623D01*
X019130Y017641D01*
X019114Y017661D01*
X019101Y017684D01*
X019091Y017709D01*
X019085Y017735D01*
X019083Y017761D01*
X019083Y019139D02*
X019085Y019165D01*
X019091Y019191D01*
X019101Y019216D01*
X019114Y019239D01*
X019130Y019259D01*
X019150Y019277D01*
X019172Y019292D01*
X019195Y019304D01*
X019221Y019312D01*
X019247Y019316D01*
X019273Y019316D01*
X019299Y019312D01*
X019325Y019304D01*
X019349Y019292D01*
X019370Y019277D01*
X019390Y019259D01*
X019406Y019239D01*
X019419Y019216D01*
X019429Y019191D01*
X019435Y019165D01*
X019437Y019139D01*
X019435Y019113D01*
X019429Y019087D01*
X019419Y019062D01*
X019406Y019039D01*
X019390Y019019D01*
X019370Y019001D01*
X019348Y018986D01*
X019325Y018974D01*
X019299Y018966D01*
X019273Y018962D01*
X019247Y018962D01*
X019221Y018966D01*
X019195Y018974D01*
X019171Y018986D01*
X019150Y019001D01*
X019130Y019019D01*
X019114Y019039D01*
X019101Y019062D01*
X019091Y019087D01*
X019085Y019113D01*
X019083Y019139D01*
X019083Y024761D02*
X019085Y024787D01*
X019091Y024813D01*
X019101Y024838D01*
X019114Y024861D01*
X019130Y024881D01*
X019150Y024899D01*
X019172Y024914D01*
X019195Y024926D01*
X019221Y024934D01*
X019247Y024938D01*
X019273Y024938D01*
X019299Y024934D01*
X019325Y024926D01*
X019349Y024914D01*
X019370Y024899D01*
X019390Y024881D01*
X019406Y024861D01*
X019419Y024838D01*
X019429Y024813D01*
X019435Y024787D01*
X019437Y024761D01*
X019435Y024735D01*
X019429Y024709D01*
X019419Y024684D01*
X019406Y024661D01*
X019390Y024641D01*
X019370Y024623D01*
X019348Y024608D01*
X019325Y024596D01*
X019299Y024588D01*
X019273Y024584D01*
X019247Y024584D01*
X019221Y024588D01*
X019195Y024596D01*
X019171Y024608D01*
X019150Y024623D01*
X019130Y024641D01*
X019114Y024661D01*
X019101Y024684D01*
X019091Y024709D01*
X019085Y024735D01*
X019083Y024761D01*
X019083Y026139D02*
X019085Y026165D01*
X019091Y026191D01*
X019101Y026216D01*
X019114Y026239D01*
X019130Y026259D01*
X019150Y026277D01*
X019172Y026292D01*
X019195Y026304D01*
X019221Y026312D01*
X019247Y026316D01*
X019273Y026316D01*
X019299Y026312D01*
X019325Y026304D01*
X019349Y026292D01*
X019370Y026277D01*
X019390Y026259D01*
X019406Y026239D01*
X019419Y026216D01*
X019429Y026191D01*
X019435Y026165D01*
X019437Y026139D01*
X019435Y026113D01*
X019429Y026087D01*
X019419Y026062D01*
X019406Y026039D01*
X019390Y026019D01*
X019370Y026001D01*
X019348Y025986D01*
X019325Y025974D01*
X019299Y025966D01*
X019273Y025962D01*
X019247Y025962D01*
X019221Y025966D01*
X019195Y025974D01*
X019171Y025986D01*
X019150Y026001D01*
X019130Y026019D01*
X019114Y026039D01*
X019101Y026062D01*
X019091Y026087D01*
X019085Y026113D01*
X019083Y026139D01*
X019083Y031761D02*
X019085Y031787D01*
X019091Y031813D01*
X019101Y031838D01*
X019114Y031861D01*
X019130Y031881D01*
X019150Y031899D01*
X019172Y031914D01*
X019195Y031926D01*
X019221Y031934D01*
X019247Y031938D01*
X019273Y031938D01*
X019299Y031934D01*
X019325Y031926D01*
X019349Y031914D01*
X019370Y031899D01*
X019390Y031881D01*
X019406Y031861D01*
X019419Y031838D01*
X019429Y031813D01*
X019435Y031787D01*
X019437Y031761D01*
X019435Y031735D01*
X019429Y031709D01*
X019419Y031684D01*
X019406Y031661D01*
X019390Y031641D01*
X019370Y031623D01*
X019348Y031608D01*
X019325Y031596D01*
X019299Y031588D01*
X019273Y031584D01*
X019247Y031584D01*
X019221Y031588D01*
X019195Y031596D01*
X019171Y031608D01*
X019150Y031623D01*
X019130Y031641D01*
X019114Y031661D01*
X019101Y031684D01*
X019091Y031709D01*
X019085Y031735D01*
X019083Y031761D01*
X019083Y033139D02*
X019085Y033165D01*
X019091Y033191D01*
X019101Y033216D01*
X019114Y033239D01*
X019130Y033259D01*
X019150Y033277D01*
X019172Y033292D01*
X019195Y033304D01*
X019221Y033312D01*
X019247Y033316D01*
X019273Y033316D01*
X019299Y033312D01*
X019325Y033304D01*
X019349Y033292D01*
X019370Y033277D01*
X019390Y033259D01*
X019406Y033239D01*
X019419Y033216D01*
X019429Y033191D01*
X019435Y033165D01*
X019437Y033139D01*
X019435Y033113D01*
X019429Y033087D01*
X019419Y033062D01*
X019406Y033039D01*
X019390Y033019D01*
X019370Y033001D01*
X019348Y032986D01*
X019325Y032974D01*
X019299Y032966D01*
X019273Y032962D01*
X019247Y032962D01*
X019221Y032966D01*
X019195Y032974D01*
X019171Y032986D01*
X019150Y033001D01*
X019130Y033019D01*
X019114Y033039D01*
X019101Y033062D01*
X019091Y033087D01*
X019085Y033113D01*
X019083Y033139D01*
D11*
X014135Y032430D03*
X013465Y032430D03*
X013355Y030870D03*
X012685Y030870D03*
X013465Y025430D03*
X014135Y025430D03*
X013355Y023870D03*
X012685Y023870D03*
X013465Y018430D03*
X014135Y018430D03*
X013355Y016870D03*
X012685Y016870D03*
X013465Y011430D03*
X014135Y011430D03*
X013355Y009870D03*
X012685Y009870D03*
X013465Y004430D03*
X014135Y004430D03*
X013355Y002870D03*
X012685Y002870D03*
X007495Y004390D03*
X006825Y004390D03*
X006155Y004390D03*
X005485Y004390D03*
X004695Y004450D03*
X004515Y003730D03*
X004025Y004450D03*
X003845Y003730D03*
X003415Y004450D03*
X002745Y004450D03*
X003845Y002350D03*
X004515Y002350D03*
X006865Y006250D03*
X007535Y006250D03*
X004515Y009350D03*
X003845Y009350D03*
X003845Y010730D03*
X004025Y011450D03*
X004515Y010730D03*
X004695Y011450D03*
X005485Y011390D03*
X006155Y011390D03*
X006825Y011390D03*
X007495Y011390D03*
X007535Y013250D03*
X006865Y013250D03*
X004515Y016350D03*
X003845Y016350D03*
X003845Y017730D03*
X004025Y018450D03*
X004515Y017730D03*
X004695Y018450D03*
X005485Y018390D03*
X006155Y018390D03*
X006825Y018390D03*
X007495Y018390D03*
X007535Y020250D03*
X006865Y020250D03*
X004515Y023350D03*
X003845Y023350D03*
X003845Y024730D03*
X004025Y025450D03*
X004515Y024730D03*
X004695Y025450D03*
X005485Y025390D03*
X006155Y025390D03*
X006825Y025390D03*
X007495Y025390D03*
X007535Y027250D03*
X006865Y027250D03*
X004515Y030350D03*
X003845Y030350D03*
X003845Y031730D03*
X004025Y032450D03*
X004515Y031730D03*
X004695Y032450D03*
X005485Y032390D03*
X006155Y032390D03*
X006825Y032390D03*
X007495Y032390D03*
X007535Y034250D03*
X006865Y034250D03*
X003415Y032450D03*
X002745Y032450D03*
X002745Y025450D03*
X003415Y025450D03*
X003415Y018450D03*
X002745Y018450D03*
X002745Y011450D03*
X003415Y011450D03*
D12*
X008857Y010253D03*
X008857Y009584D03*
X008857Y003253D03*
X008857Y002584D03*
X013620Y004995D03*
X013620Y005665D03*
X015380Y004285D03*
X015920Y004285D03*
X015920Y003615D03*
X015380Y003615D03*
X016740Y003615D03*
X016740Y004285D03*
X016740Y010615D03*
X016740Y011285D03*
X015920Y011285D03*
X015920Y010615D03*
X015380Y010615D03*
X015380Y011285D03*
X013620Y011995D03*
X013620Y012665D03*
X015380Y017615D03*
X015920Y017615D03*
X015920Y018285D03*
X015380Y018285D03*
X016740Y018285D03*
X016740Y017615D03*
X013620Y018995D03*
X013620Y019665D03*
X015380Y024615D03*
X015920Y024615D03*
X015920Y025285D03*
X015380Y025285D03*
X016740Y025285D03*
X016740Y024615D03*
X013620Y025995D03*
X013620Y026665D03*
X015380Y031615D03*
X015920Y031615D03*
X015920Y032285D03*
X015380Y032285D03*
X016740Y032285D03*
X016740Y031615D03*
X013620Y032995D03*
X013620Y033665D03*
X008857Y031253D03*
X008857Y030584D03*
X008857Y024253D03*
X008857Y023584D03*
X008857Y017253D03*
X008857Y016584D03*
D13*
X014140Y019695D03*
X014140Y020285D03*
X014805Y017090D03*
X015395Y017090D03*
X014140Y013285D03*
X014140Y012695D03*
X014805Y010090D03*
X015395Y010090D03*
X014140Y006285D03*
X014140Y005695D03*
X014805Y003090D03*
X015395Y003090D03*
X015395Y024090D03*
X014805Y024090D03*
X014140Y026695D03*
X014140Y027285D03*
X014805Y031090D03*
X015395Y031090D03*
X014140Y033695D03*
X014140Y034285D03*
D14*
X007940Y031680D03*
X007940Y030180D03*
X005940Y030180D03*
X005940Y031680D03*
X004760Y033200D03*
X004760Y034700D03*
X002760Y034700D03*
X002760Y033200D03*
X002760Y027700D03*
X002760Y026200D03*
X004760Y026200D03*
X004760Y027700D03*
X005940Y024680D03*
X005940Y023180D03*
X004760Y020700D03*
X004760Y019200D03*
X005940Y017680D03*
X005940Y016180D03*
X004760Y013700D03*
X004760Y012200D03*
X005940Y010680D03*
X005940Y009180D03*
X004760Y006700D03*
X004760Y005200D03*
X005940Y003680D03*
X005940Y002180D03*
X007940Y002180D03*
X007940Y003680D03*
X007940Y009180D03*
X007940Y010680D03*
X007940Y016180D03*
X007940Y017680D03*
X007940Y023180D03*
X007940Y024680D03*
X002760Y020700D03*
X002760Y019200D03*
X002760Y013700D03*
X002760Y012200D03*
X002760Y006700D03*
X002760Y005200D03*
D15*
X013900Y003644D03*
X013900Y002936D03*
X014800Y003576D03*
X014800Y004284D03*
X013900Y009936D03*
X013900Y010644D03*
X014800Y010576D03*
X014800Y011284D03*
X013900Y016936D03*
X013900Y017644D03*
X014800Y017576D03*
X014800Y018284D03*
X013900Y023936D03*
X013900Y024644D03*
X014800Y024576D03*
X014800Y025284D03*
X013900Y030936D03*
X013900Y031644D03*
X014800Y031576D03*
X014800Y032284D03*
D16*
X007487Y033250D03*
X005913Y033250D03*
X005913Y026250D03*
X007487Y026250D03*
X007487Y019250D03*
X005913Y019250D03*
X005913Y012250D03*
X007487Y012250D03*
X007487Y005250D03*
X005913Y005250D03*
D17*
X015240Y004979D03*
X015240Y005570D03*
X015240Y006161D03*
X015240Y011979D03*
X015240Y012570D03*
X015240Y013161D03*
X015240Y018979D03*
X015240Y019570D03*
X015240Y020161D03*
X015240Y025979D03*
X015240Y026570D03*
X015240Y027161D03*
X015240Y032979D03*
X015240Y033570D03*
X015240Y034161D03*
D18*
X016453Y033570D03*
X016453Y026570D03*
X016453Y019570D03*
X016453Y012570D03*
X016453Y005570D03*
D19*
G36*
X012937Y004721D02*
X012716Y004500D01*
X012619Y004597D01*
X012840Y004818D01*
X012937Y004721D01*
G37*
G36*
X012756Y004902D02*
X012535Y004681D01*
X012438Y004778D01*
X012659Y004999D01*
X012756Y004902D01*
G37*
G36*
X012575Y005083D02*
X012354Y004862D01*
X012257Y004959D01*
X012478Y005180D01*
X012575Y005083D01*
G37*
G36*
X012394Y005264D02*
X012173Y005043D01*
X012076Y005140D01*
X012297Y005361D01*
X012394Y005264D01*
G37*
G36*
X012214Y005445D02*
X011993Y005224D01*
X011896Y005321D01*
X012117Y005542D01*
X012214Y005445D01*
G37*
G36*
X012033Y005626D02*
X011812Y005405D01*
X011715Y005502D01*
X011936Y005723D01*
X012033Y005626D01*
G37*
G36*
X011534Y005683D02*
X011755Y005904D01*
X011852Y005807D01*
X011631Y005586D01*
X011534Y005683D01*
G37*
G36*
X011353Y005863D02*
X011574Y006084D01*
X011671Y005987D01*
X011450Y005766D01*
X011353Y005863D01*
G37*
G36*
X011172Y006044D02*
X011393Y006265D01*
X011490Y006168D01*
X011269Y005947D01*
X011172Y006044D01*
G37*
G36*
X010991Y006225D02*
X011212Y006446D01*
X011309Y006349D01*
X011088Y006128D01*
X010991Y006225D01*
G37*
G36*
X010810Y006406D02*
X011031Y006627D01*
X011128Y006530D01*
X010907Y006309D01*
X010810Y006406D01*
G37*
G36*
X010489Y006627D02*
X010710Y006406D01*
X010613Y006309D01*
X010392Y006530D01*
X010489Y006627D01*
G37*
G36*
X010308Y006446D02*
X010529Y006225D01*
X010432Y006128D01*
X010211Y006349D01*
X010308Y006446D01*
G37*
G36*
X010127Y006265D02*
X010348Y006044D01*
X010251Y005947D01*
X010030Y006168D01*
X010127Y006265D01*
G37*
G36*
X009946Y006084D02*
X010167Y005863D01*
X010070Y005766D01*
X009849Y005987D01*
X009946Y006084D01*
G37*
G36*
X009765Y005904D02*
X009986Y005683D01*
X009889Y005586D01*
X009668Y005807D01*
X009765Y005904D01*
G37*
G36*
X009584Y005723D02*
X009805Y005502D01*
X009708Y005405D01*
X009487Y005626D01*
X009584Y005723D01*
G37*
G36*
X009527Y005224D02*
X009306Y005445D01*
X009403Y005542D01*
X009624Y005321D01*
X009527Y005224D01*
G37*
G36*
X009347Y005043D02*
X009126Y005264D01*
X009223Y005361D01*
X009444Y005140D01*
X009347Y005043D01*
G37*
G36*
X009166Y004862D02*
X008945Y005083D01*
X009042Y005180D01*
X009263Y004959D01*
X009166Y004862D01*
G37*
G36*
X008985Y004681D02*
X008764Y004902D01*
X008861Y004999D01*
X009082Y004778D01*
X008985Y004681D01*
G37*
G36*
X008804Y004500D02*
X008583Y004721D01*
X008680Y004818D01*
X008901Y004597D01*
X008804Y004500D01*
G37*
G36*
X008583Y004179D02*
X008804Y004400D01*
X008901Y004303D01*
X008680Y004082D01*
X008583Y004179D01*
G37*
G36*
X008764Y003998D02*
X008985Y004219D01*
X009082Y004122D01*
X008861Y003901D01*
X008764Y003998D01*
G37*
G36*
X008945Y003817D02*
X009166Y004038D01*
X009263Y003941D01*
X009042Y003720D01*
X008945Y003817D01*
G37*
G36*
X009126Y003636D02*
X009347Y003857D01*
X009444Y003760D01*
X009223Y003539D01*
X009126Y003636D01*
G37*
G36*
X009306Y003455D02*
X009527Y003676D01*
X009624Y003579D01*
X009403Y003358D01*
X009306Y003455D01*
G37*
G36*
X009487Y003274D02*
X009708Y003495D01*
X009805Y003398D01*
X009584Y003177D01*
X009487Y003274D01*
G37*
G36*
X009986Y003217D02*
X009765Y002996D01*
X009668Y003093D01*
X009889Y003314D01*
X009986Y003217D01*
G37*
G36*
X010167Y003037D02*
X009946Y002816D01*
X009849Y002913D01*
X010070Y003134D01*
X010167Y003037D01*
G37*
G36*
X010348Y002856D02*
X010127Y002635D01*
X010030Y002732D01*
X010251Y002953D01*
X010348Y002856D01*
G37*
G36*
X010529Y002675D02*
X010308Y002454D01*
X010211Y002551D01*
X010432Y002772D01*
X010529Y002675D01*
G37*
G36*
X010710Y002494D02*
X010489Y002273D01*
X010392Y002370D01*
X010613Y002591D01*
X010710Y002494D01*
G37*
G36*
X011031Y002273D02*
X010810Y002494D01*
X010907Y002591D01*
X011128Y002370D01*
X011031Y002273D01*
G37*
G36*
X011212Y002454D02*
X010991Y002675D01*
X011088Y002772D01*
X011309Y002551D01*
X011212Y002454D01*
G37*
G36*
X011393Y002635D02*
X011172Y002856D01*
X011269Y002953D01*
X011490Y002732D01*
X011393Y002635D01*
G37*
G36*
X011574Y002816D02*
X011353Y003037D01*
X011450Y003134D01*
X011671Y002913D01*
X011574Y002816D01*
G37*
G36*
X011755Y002996D02*
X011534Y003217D01*
X011631Y003314D01*
X011852Y003093D01*
X011755Y002996D01*
G37*
G36*
X011936Y003177D02*
X011715Y003398D01*
X011812Y003495D01*
X012033Y003274D01*
X011936Y003177D01*
G37*
G36*
X011993Y003676D02*
X012214Y003455D01*
X012117Y003358D01*
X011896Y003579D01*
X011993Y003676D01*
G37*
G36*
X012173Y003857D02*
X012394Y003636D01*
X012297Y003539D01*
X012076Y003760D01*
X012173Y003857D01*
G37*
G36*
X012354Y004038D02*
X012575Y003817D01*
X012478Y003720D01*
X012257Y003941D01*
X012354Y004038D01*
G37*
G36*
X012535Y004219D02*
X012756Y003998D01*
X012659Y003901D01*
X012438Y004122D01*
X012535Y004219D01*
G37*
G36*
X012716Y004400D02*
X012937Y004179D01*
X012840Y004082D01*
X012619Y004303D01*
X012716Y004400D01*
G37*
G36*
X011031Y009273D02*
X010810Y009494D01*
X010907Y009591D01*
X011128Y009370D01*
X011031Y009273D01*
G37*
G36*
X011212Y009454D02*
X010991Y009675D01*
X011088Y009772D01*
X011309Y009551D01*
X011212Y009454D01*
G37*
G36*
X011393Y009635D02*
X011172Y009856D01*
X011269Y009953D01*
X011490Y009732D01*
X011393Y009635D01*
G37*
G36*
X011574Y009816D02*
X011353Y010037D01*
X011450Y010134D01*
X011671Y009913D01*
X011574Y009816D01*
G37*
G36*
X011755Y009996D02*
X011534Y010217D01*
X011631Y010314D01*
X011852Y010093D01*
X011755Y009996D01*
G37*
G36*
X011936Y010177D02*
X011715Y010398D01*
X011812Y010495D01*
X012033Y010274D01*
X011936Y010177D01*
G37*
G36*
X011993Y010676D02*
X012214Y010455D01*
X012117Y010358D01*
X011896Y010579D01*
X011993Y010676D01*
G37*
G36*
X012173Y010857D02*
X012394Y010636D01*
X012297Y010539D01*
X012076Y010760D01*
X012173Y010857D01*
G37*
G36*
X012354Y011038D02*
X012575Y010817D01*
X012478Y010720D01*
X012257Y010941D01*
X012354Y011038D01*
G37*
G36*
X012535Y011219D02*
X012756Y010998D01*
X012659Y010901D01*
X012438Y011122D01*
X012535Y011219D01*
G37*
G36*
X012716Y011400D02*
X012937Y011179D01*
X012840Y011082D01*
X012619Y011303D01*
X012716Y011400D01*
G37*
G36*
X012937Y011721D02*
X012716Y011500D01*
X012619Y011597D01*
X012840Y011818D01*
X012937Y011721D01*
G37*
G36*
X012756Y011902D02*
X012535Y011681D01*
X012438Y011778D01*
X012659Y011999D01*
X012756Y011902D01*
G37*
G36*
X012575Y012083D02*
X012354Y011862D01*
X012257Y011959D01*
X012478Y012180D01*
X012575Y012083D01*
G37*
G36*
X012394Y012264D02*
X012173Y012043D01*
X012076Y012140D01*
X012297Y012361D01*
X012394Y012264D01*
G37*
G36*
X012214Y012445D02*
X011993Y012224D01*
X011896Y012321D01*
X012117Y012542D01*
X012214Y012445D01*
G37*
G36*
X012033Y012626D02*
X011812Y012405D01*
X011715Y012502D01*
X011936Y012723D01*
X012033Y012626D01*
G37*
G36*
X011534Y012683D02*
X011755Y012904D01*
X011852Y012807D01*
X011631Y012586D01*
X011534Y012683D01*
G37*
G36*
X011353Y012863D02*
X011574Y013084D01*
X011671Y012987D01*
X011450Y012766D01*
X011353Y012863D01*
G37*
G36*
X011172Y013044D02*
X011393Y013265D01*
X011490Y013168D01*
X011269Y012947D01*
X011172Y013044D01*
G37*
G36*
X010991Y013225D02*
X011212Y013446D01*
X011309Y013349D01*
X011088Y013128D01*
X010991Y013225D01*
G37*
G36*
X010810Y013406D02*
X011031Y013627D01*
X011128Y013530D01*
X010907Y013309D01*
X010810Y013406D01*
G37*
G36*
X010489Y013627D02*
X010710Y013406D01*
X010613Y013309D01*
X010392Y013530D01*
X010489Y013627D01*
G37*
G36*
X010308Y013446D02*
X010529Y013225D01*
X010432Y013128D01*
X010211Y013349D01*
X010308Y013446D01*
G37*
G36*
X010127Y013265D02*
X010348Y013044D01*
X010251Y012947D01*
X010030Y013168D01*
X010127Y013265D01*
G37*
G36*
X009946Y013084D02*
X010167Y012863D01*
X010070Y012766D01*
X009849Y012987D01*
X009946Y013084D01*
G37*
G36*
X009765Y012904D02*
X009986Y012683D01*
X009889Y012586D01*
X009668Y012807D01*
X009765Y012904D01*
G37*
G36*
X009584Y012723D02*
X009805Y012502D01*
X009708Y012405D01*
X009487Y012626D01*
X009584Y012723D01*
G37*
G36*
X009527Y012224D02*
X009306Y012445D01*
X009403Y012542D01*
X009624Y012321D01*
X009527Y012224D01*
G37*
G36*
X009347Y012043D02*
X009126Y012264D01*
X009223Y012361D01*
X009444Y012140D01*
X009347Y012043D01*
G37*
G36*
X009166Y011862D02*
X008945Y012083D01*
X009042Y012180D01*
X009263Y011959D01*
X009166Y011862D01*
G37*
G36*
X008985Y011681D02*
X008764Y011902D01*
X008861Y011999D01*
X009082Y011778D01*
X008985Y011681D01*
G37*
G36*
X008804Y011500D02*
X008583Y011721D01*
X008680Y011818D01*
X008901Y011597D01*
X008804Y011500D01*
G37*
G36*
X008583Y011179D02*
X008804Y011400D01*
X008901Y011303D01*
X008680Y011082D01*
X008583Y011179D01*
G37*
G36*
X008764Y010998D02*
X008985Y011219D01*
X009082Y011122D01*
X008861Y010901D01*
X008764Y010998D01*
G37*
G36*
X008945Y010817D02*
X009166Y011038D01*
X009263Y010941D01*
X009042Y010720D01*
X008945Y010817D01*
G37*
G36*
X009126Y010636D02*
X009347Y010857D01*
X009444Y010760D01*
X009223Y010539D01*
X009126Y010636D01*
G37*
G36*
X009306Y010455D02*
X009527Y010676D01*
X009624Y010579D01*
X009403Y010358D01*
X009306Y010455D01*
G37*
G36*
X009487Y010274D02*
X009708Y010495D01*
X009805Y010398D01*
X009584Y010177D01*
X009487Y010274D01*
G37*
G36*
X009986Y010217D02*
X009765Y009996D01*
X009668Y010093D01*
X009889Y010314D01*
X009986Y010217D01*
G37*
G36*
X010167Y010037D02*
X009946Y009816D01*
X009849Y009913D01*
X010070Y010134D01*
X010167Y010037D01*
G37*
G36*
X010348Y009856D02*
X010127Y009635D01*
X010030Y009732D01*
X010251Y009953D01*
X010348Y009856D01*
G37*
G36*
X010529Y009675D02*
X010308Y009454D01*
X010211Y009551D01*
X010432Y009772D01*
X010529Y009675D01*
G37*
G36*
X010710Y009494D02*
X010489Y009273D01*
X010392Y009370D01*
X010613Y009591D01*
X010710Y009494D01*
G37*
G36*
X010710Y016494D02*
X010489Y016273D01*
X010392Y016370D01*
X010613Y016591D01*
X010710Y016494D01*
G37*
G36*
X011031Y016273D02*
X010810Y016494D01*
X010907Y016591D01*
X011128Y016370D01*
X011031Y016273D01*
G37*
G36*
X011212Y016454D02*
X010991Y016675D01*
X011088Y016772D01*
X011309Y016551D01*
X011212Y016454D01*
G37*
G36*
X011393Y016635D02*
X011172Y016856D01*
X011269Y016953D01*
X011490Y016732D01*
X011393Y016635D01*
G37*
G36*
X011574Y016816D02*
X011353Y017037D01*
X011450Y017134D01*
X011671Y016913D01*
X011574Y016816D01*
G37*
G36*
X011755Y016996D02*
X011534Y017217D01*
X011631Y017314D01*
X011852Y017093D01*
X011755Y016996D01*
G37*
G36*
X011936Y017177D02*
X011715Y017398D01*
X011812Y017495D01*
X012033Y017274D01*
X011936Y017177D01*
G37*
G36*
X011993Y017676D02*
X012214Y017455D01*
X012117Y017358D01*
X011896Y017579D01*
X011993Y017676D01*
G37*
G36*
X012173Y017857D02*
X012394Y017636D01*
X012297Y017539D01*
X012076Y017760D01*
X012173Y017857D01*
G37*
G36*
X012354Y018038D02*
X012575Y017817D01*
X012478Y017720D01*
X012257Y017941D01*
X012354Y018038D01*
G37*
G36*
X012535Y018219D02*
X012756Y017998D01*
X012659Y017901D01*
X012438Y018122D01*
X012535Y018219D01*
G37*
G36*
X012716Y018400D02*
X012937Y018179D01*
X012840Y018082D01*
X012619Y018303D01*
X012716Y018400D01*
G37*
G36*
X012937Y018721D02*
X012716Y018500D01*
X012619Y018597D01*
X012840Y018818D01*
X012937Y018721D01*
G37*
G36*
X012756Y018902D02*
X012535Y018681D01*
X012438Y018778D01*
X012659Y018999D01*
X012756Y018902D01*
G37*
G36*
X012575Y019083D02*
X012354Y018862D01*
X012257Y018959D01*
X012478Y019180D01*
X012575Y019083D01*
G37*
G36*
X012394Y019264D02*
X012173Y019043D01*
X012076Y019140D01*
X012297Y019361D01*
X012394Y019264D01*
G37*
G36*
X012214Y019445D02*
X011993Y019224D01*
X011896Y019321D01*
X012117Y019542D01*
X012214Y019445D01*
G37*
G36*
X012033Y019626D02*
X011812Y019405D01*
X011715Y019502D01*
X011936Y019723D01*
X012033Y019626D01*
G37*
G36*
X011534Y019683D02*
X011755Y019904D01*
X011852Y019807D01*
X011631Y019586D01*
X011534Y019683D01*
G37*
G36*
X011353Y019863D02*
X011574Y020084D01*
X011671Y019987D01*
X011450Y019766D01*
X011353Y019863D01*
G37*
G36*
X011172Y020044D02*
X011393Y020265D01*
X011490Y020168D01*
X011269Y019947D01*
X011172Y020044D01*
G37*
G36*
X010991Y020225D02*
X011212Y020446D01*
X011309Y020349D01*
X011088Y020128D01*
X010991Y020225D01*
G37*
G36*
X010810Y020406D02*
X011031Y020627D01*
X011128Y020530D01*
X010907Y020309D01*
X010810Y020406D01*
G37*
G36*
X010489Y020627D02*
X010710Y020406D01*
X010613Y020309D01*
X010392Y020530D01*
X010489Y020627D01*
G37*
G36*
X010308Y020446D02*
X010529Y020225D01*
X010432Y020128D01*
X010211Y020349D01*
X010308Y020446D01*
G37*
G36*
X010127Y020265D02*
X010348Y020044D01*
X010251Y019947D01*
X010030Y020168D01*
X010127Y020265D01*
G37*
G36*
X009946Y020084D02*
X010167Y019863D01*
X010070Y019766D01*
X009849Y019987D01*
X009946Y020084D01*
G37*
G36*
X009765Y019904D02*
X009986Y019683D01*
X009889Y019586D01*
X009668Y019807D01*
X009765Y019904D01*
G37*
G36*
X009584Y019723D02*
X009805Y019502D01*
X009708Y019405D01*
X009487Y019626D01*
X009584Y019723D01*
G37*
G36*
X009527Y019224D02*
X009306Y019445D01*
X009403Y019542D01*
X009624Y019321D01*
X009527Y019224D01*
G37*
G36*
X009347Y019043D02*
X009126Y019264D01*
X009223Y019361D01*
X009444Y019140D01*
X009347Y019043D01*
G37*
G36*
X009166Y018862D02*
X008945Y019083D01*
X009042Y019180D01*
X009263Y018959D01*
X009166Y018862D01*
G37*
G36*
X008985Y018681D02*
X008764Y018902D01*
X008861Y018999D01*
X009082Y018778D01*
X008985Y018681D01*
G37*
G36*
X008804Y018500D02*
X008583Y018721D01*
X008680Y018818D01*
X008901Y018597D01*
X008804Y018500D01*
G37*
G36*
X008583Y018179D02*
X008804Y018400D01*
X008901Y018303D01*
X008680Y018082D01*
X008583Y018179D01*
G37*
G36*
X008764Y017998D02*
X008985Y018219D01*
X009082Y018122D01*
X008861Y017901D01*
X008764Y017998D01*
G37*
G36*
X008945Y017817D02*
X009166Y018038D01*
X009263Y017941D01*
X009042Y017720D01*
X008945Y017817D01*
G37*
G36*
X009126Y017636D02*
X009347Y017857D01*
X009444Y017760D01*
X009223Y017539D01*
X009126Y017636D01*
G37*
G36*
X009306Y017455D02*
X009527Y017676D01*
X009624Y017579D01*
X009403Y017358D01*
X009306Y017455D01*
G37*
G36*
X009487Y017274D02*
X009708Y017495D01*
X009805Y017398D01*
X009584Y017177D01*
X009487Y017274D01*
G37*
G36*
X009986Y017217D02*
X009765Y016996D01*
X009668Y017093D01*
X009889Y017314D01*
X009986Y017217D01*
G37*
G36*
X010167Y017037D02*
X009946Y016816D01*
X009849Y016913D01*
X010070Y017134D01*
X010167Y017037D01*
G37*
G36*
X010348Y016856D02*
X010127Y016635D01*
X010030Y016732D01*
X010251Y016953D01*
X010348Y016856D01*
G37*
G36*
X010529Y016675D02*
X010308Y016454D01*
X010211Y016551D01*
X010432Y016772D01*
X010529Y016675D01*
G37*
G36*
X010710Y023494D02*
X010489Y023273D01*
X010392Y023370D01*
X010613Y023591D01*
X010710Y023494D01*
G37*
G36*
X011031Y023273D02*
X010810Y023494D01*
X010907Y023591D01*
X011128Y023370D01*
X011031Y023273D01*
G37*
G36*
X011212Y023454D02*
X010991Y023675D01*
X011088Y023772D01*
X011309Y023551D01*
X011212Y023454D01*
G37*
G36*
X011393Y023635D02*
X011172Y023856D01*
X011269Y023953D01*
X011490Y023732D01*
X011393Y023635D01*
G37*
G36*
X011574Y023816D02*
X011353Y024037D01*
X011450Y024134D01*
X011671Y023913D01*
X011574Y023816D01*
G37*
G36*
X011755Y023996D02*
X011534Y024217D01*
X011631Y024314D01*
X011852Y024093D01*
X011755Y023996D01*
G37*
G36*
X011936Y024177D02*
X011715Y024398D01*
X011812Y024495D01*
X012033Y024274D01*
X011936Y024177D01*
G37*
G36*
X011993Y024676D02*
X012214Y024455D01*
X012117Y024358D01*
X011896Y024579D01*
X011993Y024676D01*
G37*
G36*
X012173Y024857D02*
X012394Y024636D01*
X012297Y024539D01*
X012076Y024760D01*
X012173Y024857D01*
G37*
G36*
X012354Y025038D02*
X012575Y024817D01*
X012478Y024720D01*
X012257Y024941D01*
X012354Y025038D01*
G37*
G36*
X012535Y025219D02*
X012756Y024998D01*
X012659Y024901D01*
X012438Y025122D01*
X012535Y025219D01*
G37*
G36*
X012716Y025400D02*
X012937Y025179D01*
X012840Y025082D01*
X012619Y025303D01*
X012716Y025400D01*
G37*
G36*
X012937Y025721D02*
X012716Y025500D01*
X012619Y025597D01*
X012840Y025818D01*
X012937Y025721D01*
G37*
G36*
X012756Y025902D02*
X012535Y025681D01*
X012438Y025778D01*
X012659Y025999D01*
X012756Y025902D01*
G37*
G36*
X012575Y026083D02*
X012354Y025862D01*
X012257Y025959D01*
X012478Y026180D01*
X012575Y026083D01*
G37*
G36*
X012394Y026264D02*
X012173Y026043D01*
X012076Y026140D01*
X012297Y026361D01*
X012394Y026264D01*
G37*
G36*
X012214Y026445D02*
X011993Y026224D01*
X011896Y026321D01*
X012117Y026542D01*
X012214Y026445D01*
G37*
G36*
X012033Y026626D02*
X011812Y026405D01*
X011715Y026502D01*
X011936Y026723D01*
X012033Y026626D01*
G37*
G36*
X011534Y026683D02*
X011755Y026904D01*
X011852Y026807D01*
X011631Y026586D01*
X011534Y026683D01*
G37*
G36*
X011353Y026863D02*
X011574Y027084D01*
X011671Y026987D01*
X011450Y026766D01*
X011353Y026863D01*
G37*
G36*
X011172Y027044D02*
X011393Y027265D01*
X011490Y027168D01*
X011269Y026947D01*
X011172Y027044D01*
G37*
G36*
X010991Y027225D02*
X011212Y027446D01*
X011309Y027349D01*
X011088Y027128D01*
X010991Y027225D01*
G37*
G36*
X010810Y027406D02*
X011031Y027627D01*
X011128Y027530D01*
X010907Y027309D01*
X010810Y027406D01*
G37*
G36*
X010489Y027627D02*
X010710Y027406D01*
X010613Y027309D01*
X010392Y027530D01*
X010489Y027627D01*
G37*
G36*
X010308Y027446D02*
X010529Y027225D01*
X010432Y027128D01*
X010211Y027349D01*
X010308Y027446D01*
G37*
G36*
X010127Y027265D02*
X010348Y027044D01*
X010251Y026947D01*
X010030Y027168D01*
X010127Y027265D01*
G37*
G36*
X009946Y027084D02*
X010167Y026863D01*
X010070Y026766D01*
X009849Y026987D01*
X009946Y027084D01*
G37*
G36*
X009765Y026904D02*
X009986Y026683D01*
X009889Y026586D01*
X009668Y026807D01*
X009765Y026904D01*
G37*
G36*
X009584Y026723D02*
X009805Y026502D01*
X009708Y026405D01*
X009487Y026626D01*
X009584Y026723D01*
G37*
G36*
X009527Y026224D02*
X009306Y026445D01*
X009403Y026542D01*
X009624Y026321D01*
X009527Y026224D01*
G37*
G36*
X009347Y026043D02*
X009126Y026264D01*
X009223Y026361D01*
X009444Y026140D01*
X009347Y026043D01*
G37*
G36*
X009166Y025862D02*
X008945Y026083D01*
X009042Y026180D01*
X009263Y025959D01*
X009166Y025862D01*
G37*
G36*
X008985Y025681D02*
X008764Y025902D01*
X008861Y025999D01*
X009082Y025778D01*
X008985Y025681D01*
G37*
G36*
X008804Y025500D02*
X008583Y025721D01*
X008680Y025818D01*
X008901Y025597D01*
X008804Y025500D01*
G37*
G36*
X008583Y025179D02*
X008804Y025400D01*
X008901Y025303D01*
X008680Y025082D01*
X008583Y025179D01*
G37*
G36*
X008764Y024998D02*
X008985Y025219D01*
X009082Y025122D01*
X008861Y024901D01*
X008764Y024998D01*
G37*
G36*
X008945Y024817D02*
X009166Y025038D01*
X009263Y024941D01*
X009042Y024720D01*
X008945Y024817D01*
G37*
G36*
X009126Y024636D02*
X009347Y024857D01*
X009444Y024760D01*
X009223Y024539D01*
X009126Y024636D01*
G37*
G36*
X009306Y024455D02*
X009527Y024676D01*
X009624Y024579D01*
X009403Y024358D01*
X009306Y024455D01*
G37*
G36*
X009487Y024274D02*
X009708Y024495D01*
X009805Y024398D01*
X009584Y024177D01*
X009487Y024274D01*
G37*
G36*
X009986Y024217D02*
X009765Y023996D01*
X009668Y024093D01*
X009889Y024314D01*
X009986Y024217D01*
G37*
G36*
X010167Y024037D02*
X009946Y023816D01*
X009849Y023913D01*
X010070Y024134D01*
X010167Y024037D01*
G37*
G36*
X010348Y023856D02*
X010127Y023635D01*
X010030Y023732D01*
X010251Y023953D01*
X010348Y023856D01*
G37*
G36*
X010529Y023675D02*
X010308Y023454D01*
X010211Y023551D01*
X010432Y023772D01*
X010529Y023675D01*
G37*
G36*
X010710Y030494D02*
X010489Y030273D01*
X010392Y030370D01*
X010613Y030591D01*
X010710Y030494D01*
G37*
G36*
X011031Y030273D02*
X010810Y030494D01*
X010907Y030591D01*
X011128Y030370D01*
X011031Y030273D01*
G37*
G36*
X011212Y030454D02*
X010991Y030675D01*
X011088Y030772D01*
X011309Y030551D01*
X011212Y030454D01*
G37*
G36*
X011393Y030635D02*
X011172Y030856D01*
X011269Y030953D01*
X011490Y030732D01*
X011393Y030635D01*
G37*
G36*
X011574Y030816D02*
X011353Y031037D01*
X011450Y031134D01*
X011671Y030913D01*
X011574Y030816D01*
G37*
G36*
X011755Y030996D02*
X011534Y031217D01*
X011631Y031314D01*
X011852Y031093D01*
X011755Y030996D01*
G37*
G36*
X011936Y031177D02*
X011715Y031398D01*
X011812Y031495D01*
X012033Y031274D01*
X011936Y031177D01*
G37*
G36*
X011993Y031676D02*
X012214Y031455D01*
X012117Y031358D01*
X011896Y031579D01*
X011993Y031676D01*
G37*
G36*
X012173Y031857D02*
X012394Y031636D01*
X012297Y031539D01*
X012076Y031760D01*
X012173Y031857D01*
G37*
G36*
X012354Y032038D02*
X012575Y031817D01*
X012478Y031720D01*
X012257Y031941D01*
X012354Y032038D01*
G37*
G36*
X012535Y032219D02*
X012756Y031998D01*
X012659Y031901D01*
X012438Y032122D01*
X012535Y032219D01*
G37*
G36*
X012716Y032400D02*
X012937Y032179D01*
X012840Y032082D01*
X012619Y032303D01*
X012716Y032400D01*
G37*
G36*
X012937Y032721D02*
X012716Y032500D01*
X012619Y032597D01*
X012840Y032818D01*
X012937Y032721D01*
G37*
G36*
X012756Y032902D02*
X012535Y032681D01*
X012438Y032778D01*
X012659Y032999D01*
X012756Y032902D01*
G37*
G36*
X012575Y033083D02*
X012354Y032862D01*
X012257Y032959D01*
X012478Y033180D01*
X012575Y033083D01*
G37*
G36*
X012394Y033264D02*
X012173Y033043D01*
X012076Y033140D01*
X012297Y033361D01*
X012394Y033264D01*
G37*
G36*
X012214Y033445D02*
X011993Y033224D01*
X011896Y033321D01*
X012117Y033542D01*
X012214Y033445D01*
G37*
G36*
X012033Y033626D02*
X011812Y033405D01*
X011715Y033502D01*
X011936Y033723D01*
X012033Y033626D01*
G37*
G36*
X011534Y033683D02*
X011755Y033904D01*
X011852Y033807D01*
X011631Y033586D01*
X011534Y033683D01*
G37*
G36*
X011353Y033863D02*
X011574Y034084D01*
X011671Y033987D01*
X011450Y033766D01*
X011353Y033863D01*
G37*
G36*
X011172Y034044D02*
X011393Y034265D01*
X011490Y034168D01*
X011269Y033947D01*
X011172Y034044D01*
G37*
G36*
X010991Y034225D02*
X011212Y034446D01*
X011309Y034349D01*
X011088Y034128D01*
X010991Y034225D01*
G37*
G36*
X010810Y034406D02*
X011031Y034627D01*
X011128Y034530D01*
X010907Y034309D01*
X010810Y034406D01*
G37*
G36*
X010489Y034627D02*
X010710Y034406D01*
X010613Y034309D01*
X010392Y034530D01*
X010489Y034627D01*
G37*
G36*
X010308Y034446D02*
X010529Y034225D01*
X010432Y034128D01*
X010211Y034349D01*
X010308Y034446D01*
G37*
G36*
X010127Y034265D02*
X010348Y034044D01*
X010251Y033947D01*
X010030Y034168D01*
X010127Y034265D01*
G37*
G36*
X009946Y034084D02*
X010167Y033863D01*
X010070Y033766D01*
X009849Y033987D01*
X009946Y034084D01*
G37*
G36*
X009765Y033904D02*
X009986Y033683D01*
X009889Y033586D01*
X009668Y033807D01*
X009765Y033904D01*
G37*
G36*
X009584Y033723D02*
X009805Y033502D01*
X009708Y033405D01*
X009487Y033626D01*
X009584Y033723D01*
G37*
G36*
X009527Y033224D02*
X009306Y033445D01*
X009403Y033542D01*
X009624Y033321D01*
X009527Y033224D01*
G37*
G36*
X009347Y033043D02*
X009126Y033264D01*
X009223Y033361D01*
X009444Y033140D01*
X009347Y033043D01*
G37*
G36*
X009166Y032862D02*
X008945Y033083D01*
X009042Y033180D01*
X009263Y032959D01*
X009166Y032862D01*
G37*
G36*
X008985Y032681D02*
X008764Y032902D01*
X008861Y032999D01*
X009082Y032778D01*
X008985Y032681D01*
G37*
G36*
X008804Y032500D02*
X008583Y032721D01*
X008680Y032818D01*
X008901Y032597D01*
X008804Y032500D01*
G37*
G36*
X008583Y032179D02*
X008804Y032400D01*
X008901Y032303D01*
X008680Y032082D01*
X008583Y032179D01*
G37*
G36*
X008764Y031998D02*
X008985Y032219D01*
X009082Y032122D01*
X008861Y031901D01*
X008764Y031998D01*
G37*
G36*
X008945Y031817D02*
X009166Y032038D01*
X009263Y031941D01*
X009042Y031720D01*
X008945Y031817D01*
G37*
G36*
X009126Y031636D02*
X009347Y031857D01*
X009444Y031760D01*
X009223Y031539D01*
X009126Y031636D01*
G37*
G36*
X009306Y031455D02*
X009527Y031676D01*
X009624Y031579D01*
X009403Y031358D01*
X009306Y031455D01*
G37*
G36*
X009487Y031274D02*
X009708Y031495D01*
X009805Y031398D01*
X009584Y031177D01*
X009487Y031274D01*
G37*
G36*
X009986Y031217D02*
X009765Y030996D01*
X009668Y031093D01*
X009889Y031314D01*
X009986Y031217D01*
G37*
G36*
X010167Y031037D02*
X009946Y030816D01*
X009849Y030913D01*
X010070Y031134D01*
X010167Y031037D01*
G37*
G36*
X010348Y030856D02*
X010127Y030635D01*
X010030Y030732D01*
X010251Y030953D01*
X010348Y030856D01*
G37*
G36*
X010529Y030675D02*
X010308Y030454D01*
X010211Y030551D01*
X010432Y030772D01*
X010529Y030675D01*
G37*
D20*
X017260Y031697D03*
X017260Y032603D03*
X017260Y025603D03*
X017260Y024697D03*
X017260Y018603D03*
X017260Y017697D03*
X017260Y011603D03*
X017260Y010697D03*
X017260Y004603D03*
X017260Y003697D03*
D21*
X017233Y002850D03*
X016327Y002850D03*
X016327Y009850D03*
X017233Y009850D03*
X017233Y016850D03*
X016327Y016850D03*
X016327Y023850D03*
X017233Y023850D03*
X017233Y030850D03*
X016327Y030850D03*
D22*
X018276Y031820D03*
X018276Y032135D03*
X018276Y032450D03*
X018276Y032765D03*
X018276Y033080D03*
X018276Y026080D03*
X018276Y025765D03*
X018276Y025450D03*
X018276Y025135D03*
X018276Y024820D03*
X018276Y019080D03*
X018276Y018765D03*
X018276Y018450D03*
X018276Y018135D03*
X018276Y017820D03*
X018276Y012080D03*
X018276Y011765D03*
X018276Y011450D03*
X018276Y011135D03*
X018276Y010820D03*
X018276Y005080D03*
X018276Y004765D03*
X018276Y004450D03*
X018276Y004135D03*
X018276Y003820D03*
D23*
X018473Y002796D03*
X018473Y006104D03*
X020559Y006104D03*
X020559Y002796D03*
X020559Y009796D03*
X020559Y013104D03*
X018473Y013104D03*
X018473Y009796D03*
X018473Y016796D03*
X018473Y020104D03*
X020559Y020104D03*
X020559Y016796D03*
X020559Y023796D03*
X020559Y027104D03*
X018473Y027104D03*
X018473Y023796D03*
X018473Y030796D03*
X018473Y034104D03*
X020559Y034104D03*
X020559Y030796D03*
M02*
