%
M48
M72
T01C0.0150
T02C0.0320
T03C0.0354
T04C0.0400
%
T01
X2800Y5650
X3440Y6030
X3500Y4950
X4080Y5030
X4760Y6250
X5900Y5990
X6820Y5030
X8160Y4110
X8580Y3790
X9140Y4470
X9480Y4690
X9760Y4430
X10040Y4090
X10480Y3450
X10760Y4270
X11380Y3430
X12220Y4410
X11960Y4790
X11360Y5410
X11980Y6150
X12820Y6330
X13300Y6330
X13720Y6170
X13020Y4450
X13220Y3730
X13340Y3350
X14420Y2190
X15920Y2770
X17240Y2190
X17540Y4130
X17340Y5090
X17260Y6150
X16400Y6350
X16400Y4790
X14700Y4810
X14420Y9190
X13340Y10350
X13220Y10730
X13020Y11450
X12220Y11410
X11960Y11790
X11360Y12410
X11980Y13150
X12820Y13330
X13300Y13330
X13720Y13170
X14700Y11810
X15920Y9770
X17240Y9190
X17540Y11130
X17340Y12090
X17260Y13150
X16400Y13350
X16400Y11790
X18960Y11450
X19260Y9890
X20540Y10870
X20540Y11290
X20540Y11690
X19440Y13670
X19260Y16890
X18960Y18450
X17540Y18130
X17340Y19090
X17260Y20150
X16400Y20350
X16400Y18790
X15920Y16770
X14700Y18810
X13720Y20170
X13300Y20330
X12820Y20330
X11980Y20150
X11360Y19410
X11960Y18790
X12220Y18410
X13020Y18450
X13220Y17730
X13340Y17350
X14420Y16190
X17240Y16190
X19440Y20670
X20540Y18690
X20540Y18290
X20540Y17870
X19260Y23890
X18960Y25450
X17540Y25130
X17340Y26090
X17260Y27150
X16400Y27350
X16400Y25790
X15920Y23770
X14700Y25810
X13720Y27170
X13300Y27330
X12820Y27330
X11980Y27150
X11360Y26410
X11960Y25790
X12220Y25410
X13020Y25450
X13220Y24730
X13340Y24350
X14420Y23190
X17240Y23190
X19440Y27670
X20540Y25690
X20540Y25290
X20540Y24870
X19260Y30890
X18960Y32450
X17540Y32130
X17340Y33090
X17260Y34150
X16400Y34350
X16400Y32790
X15920Y30770
X17240Y30190
X14700Y32810
X13720Y34170
X13300Y34330
X12820Y34330
X11980Y34150
X11360Y33410
X11960Y32790
X12220Y32410
X13020Y32450
X13220Y31730
X13340Y31350
X14420Y30190
X11380Y31430
X10760Y32270
X10480Y31450
X10040Y32090
X9760Y32430
X9480Y32690
X9140Y32470
X8580Y31790
X8160Y32110
X8340Y32830
X8320Y33510
X8900Y34010
X10120Y33310
X10480Y33510
X9340Y30510
X8900Y27010
X8320Y26510
X8340Y25830
X8160Y25110
X8580Y24790
X9140Y25470
X9480Y25690
X9760Y25430
X10040Y25090
X10480Y24450
X10760Y25270
X11380Y24430
X10480Y26510
X10120Y26310
X9340Y23510
X8900Y20010
X8320Y19510
X8340Y18830
X8160Y18110
X8580Y17790
X9140Y18470
X9480Y18690
X9760Y18430
X10040Y18090
X10480Y17450
X10760Y18270
X11380Y17430
X10120Y19310
X10480Y19510
X9340Y16510
X8900Y13010
X8320Y12510
X8340Y11830
X8160Y11110
X8580Y10790
X9140Y11470
X9480Y11690
X9760Y11430
X10040Y11090
X10480Y10450
X10760Y11270
X11380Y10430
X10120Y12310
X10480Y12510
X9340Y9510
X8900Y6010
X8320Y5510
X8340Y4830
X9340Y2510
X10120Y5310
X10480Y5510
X6820Y12030
X5900Y12990
X4760Y13250
X4080Y12030
X3500Y11950
X3440Y13030
X2800Y12650
X3500Y18950
X4080Y19030
X3440Y20030
X2800Y19650
X4760Y20250
X5900Y19990
X6820Y19030
X6820Y26030
X5900Y26990
X4760Y27250
X4080Y26030
X3500Y25950
X3440Y27030
X2800Y26650
X3500Y32950
X4080Y33030
X3440Y34030
X2800Y33650
X4760Y34250
X5900Y33990
X6820Y33030
X19440Y34670
X20540Y32690
X20540Y32290
X20540Y31870
X19440Y6670
X20540Y4690
X20540Y4290
X20540Y3870
X19260Y2890
X18960Y4450
T02
X5200Y3530
X5200Y2530
X5200Y9530
X5200Y10530
X5200Y16530
X5200Y17530
X5200Y23530
X5200Y24530
X5200Y30530
X5200Y31530
T03
X19260Y31761
X19260Y33139
X19260Y26139
X19260Y24761
X19260Y19139
X19260Y17761
X19260Y12139
X19260Y10761
X19260Y5139
X19260Y3761
T04
X1760Y1450
X1760Y2450
X1760Y3450
X1760Y4450
X1760Y5450
X1760Y6450
X1760Y7450
X1760Y8450
X1760Y9450
X1760Y10450
X1760Y11450
X1760Y12450
X1760Y13450
X1760Y14450
X1760Y15450
X1760Y16450
X1760Y17450
X1760Y18450
X1760Y19450
X1760Y20450
X1760Y21450
X1760Y22450
X1760Y23450
X1760Y24450
X1760Y25450
X1760Y26450
X1760Y27450
X1760Y28450
X1760Y29450
X1760Y30450
X1760Y31450
X1760Y32450
X1760Y33450
X1760Y34450
X1760Y35450
X2760Y35450
X3760Y35450
X4760Y35450
X5760Y35450
X6760Y35450
X7760Y35450
X8760Y35450
X9760Y35450
X10760Y35450
X11760Y35450
X12760Y35450
X13760Y35450
X14760Y35450
X15760Y35450
X16760Y35450
X17760Y35450
X18760Y35450
X19760Y35450
X20760Y35450
X20760Y29450
X20760Y28450
X19760Y28450
X19760Y29450
X18760Y29450
X18760Y28450
X17760Y28450
X17760Y29450
X16760Y29450
X16760Y28450
X15760Y28450
X15760Y29450
X14760Y29450
X14760Y28450
X13760Y28450
X13760Y29450
X12760Y29450
X12760Y28450
X11760Y28450
X11760Y29450
X10760Y29450
X10760Y28450
X9760Y28450
X9760Y29450
X8760Y29450
X8760Y28450
X7760Y28450
X7760Y29450
X6760Y29450
X6760Y28450
X5760Y28450
X5760Y29450
X4760Y29450
X4760Y28450
X3760Y28450
X3760Y29450
X2760Y29450
X2760Y28450
X2760Y22450
X2760Y21450
X3760Y21450
X3760Y22450
X4760Y22450
X4760Y21450
X5760Y21450
X5760Y22450
X6760Y22450
X6760Y21450
X7760Y21450
X7760Y22450
X8760Y22450
X8760Y21450
X9760Y21450
X9760Y22450
X10760Y22450
X10760Y21450
X11760Y21450
X11760Y22450
X12760Y22450
X12760Y21450
X13760Y21450
X13760Y22450
X14760Y22450
X14760Y21450
X15760Y21450
X15760Y22450
X16760Y22450
X16760Y21450
X17760Y21450
X17760Y22450
X18760Y22450
X18760Y21450
X19760Y21450
X19760Y22450
X20760Y22450
X20760Y21450
X20760Y15450
X20760Y14450
X19760Y14450
X19760Y15450
X18760Y15450
X18760Y14450
X17760Y14450
X17760Y15450
X16760Y15450
X16760Y14450
X15760Y14450
X15760Y15450
X14760Y15450
X14760Y14450
X13760Y14450
X13760Y15450
X12760Y15450
X12760Y14450
X11760Y14450
X11760Y15450
X10760Y15450
X10760Y14450
X9760Y14450
X9760Y15450
X8760Y15450
X8760Y14450
X7760Y14450
X7760Y15450
X6760Y15450
X6760Y14450
X5760Y14450
X5760Y15450
X4760Y15450
X4760Y14450
X3760Y14450
X3760Y15450
X2760Y15450
X2760Y14450
X2760Y8450
X2760Y7450
X3760Y7450
X3760Y8450
X4760Y8450
X4760Y7450
X5760Y7450
X5760Y8450
X6760Y8450
X6760Y7450
X7760Y7450
X7760Y8450
X8760Y8450
X8760Y7450
X9760Y7450
X9760Y8450
X10760Y8450
X10760Y7450
X11760Y7450
X11760Y8450
X12760Y8450
X12760Y7450
X13760Y7450
X13760Y8450
X14760Y8450
X14760Y7450
X15760Y7450
X15760Y8450
X16760Y8450
X16760Y7450
X17760Y7450
X17760Y8450
X18760Y8450
X18760Y7450
X19760Y7450
X19760Y8450
X20760Y8450
X20760Y7450
X20760Y1450
X19760Y1450
X18760Y1450
X17760Y1450
X16760Y1450
X15760Y1450
X14760Y1450
X13760Y1450
X12760Y1450
X11760Y1450
X10760Y1450
X9760Y1450
X8760Y1450
X7760Y1450
X6760Y1450
X5760Y1450
X4760Y1450
X3760Y1450
X2760Y1450
M30
