G75*
G70*
%OFA0B0*%
%FSLAX24Y24*%
%IPPOS*%
%LPD*%
%AMOC8*
5,1,8,0,0,1.08239X$1,22.5*
%
%ADD10C,0.0000*%
%ADD11C,0.0660*%
%ADD12C,0.0740*%
%ADD13C,0.0270*%
%ADD14C,0.0100*%
%ADD15C,0.0080*%
%ADD16C,0.0160*%
D10*
X001260Y000950D02*
X001260Y007950D01*
X001260Y014950D01*
X001260Y021950D01*
X001260Y028950D01*
X001260Y035950D01*
X021260Y035950D01*
X021260Y028950D01*
X001260Y028950D01*
X021260Y028950D01*
X021260Y021950D01*
X001260Y021950D01*
X021260Y021950D01*
X021260Y014950D01*
X001260Y014950D01*
X021260Y014950D01*
X021260Y007950D01*
X001260Y007950D01*
X021260Y007950D01*
X021260Y000950D01*
X001260Y000950D01*
X019083Y003761D02*
X019085Y003787D01*
X019091Y003813D01*
X019101Y003838D01*
X019114Y003861D01*
X019130Y003881D01*
X019150Y003899D01*
X019172Y003914D01*
X019195Y003926D01*
X019221Y003934D01*
X019247Y003938D01*
X019273Y003938D01*
X019299Y003934D01*
X019325Y003926D01*
X019349Y003914D01*
X019370Y003899D01*
X019390Y003881D01*
X019406Y003861D01*
X019419Y003838D01*
X019429Y003813D01*
X019435Y003787D01*
X019437Y003761D01*
X019435Y003735D01*
X019429Y003709D01*
X019419Y003684D01*
X019406Y003661D01*
X019390Y003641D01*
X019370Y003623D01*
X019348Y003608D01*
X019325Y003596D01*
X019299Y003588D01*
X019273Y003584D01*
X019247Y003584D01*
X019221Y003588D01*
X019195Y003596D01*
X019171Y003608D01*
X019150Y003623D01*
X019130Y003641D01*
X019114Y003661D01*
X019101Y003684D01*
X019091Y003709D01*
X019085Y003735D01*
X019083Y003761D01*
X019083Y005139D02*
X019085Y005165D01*
X019091Y005191D01*
X019101Y005216D01*
X019114Y005239D01*
X019130Y005259D01*
X019150Y005277D01*
X019172Y005292D01*
X019195Y005304D01*
X019221Y005312D01*
X019247Y005316D01*
X019273Y005316D01*
X019299Y005312D01*
X019325Y005304D01*
X019349Y005292D01*
X019370Y005277D01*
X019390Y005259D01*
X019406Y005239D01*
X019419Y005216D01*
X019429Y005191D01*
X019435Y005165D01*
X019437Y005139D01*
X019435Y005113D01*
X019429Y005087D01*
X019419Y005062D01*
X019406Y005039D01*
X019390Y005019D01*
X019370Y005001D01*
X019348Y004986D01*
X019325Y004974D01*
X019299Y004966D01*
X019273Y004962D01*
X019247Y004962D01*
X019221Y004966D01*
X019195Y004974D01*
X019171Y004986D01*
X019150Y005001D01*
X019130Y005019D01*
X019114Y005039D01*
X019101Y005062D01*
X019091Y005087D01*
X019085Y005113D01*
X019083Y005139D01*
X019083Y010761D02*
X019085Y010787D01*
X019091Y010813D01*
X019101Y010838D01*
X019114Y010861D01*
X019130Y010881D01*
X019150Y010899D01*
X019172Y010914D01*
X019195Y010926D01*
X019221Y010934D01*
X019247Y010938D01*
X019273Y010938D01*
X019299Y010934D01*
X019325Y010926D01*
X019349Y010914D01*
X019370Y010899D01*
X019390Y010881D01*
X019406Y010861D01*
X019419Y010838D01*
X019429Y010813D01*
X019435Y010787D01*
X019437Y010761D01*
X019435Y010735D01*
X019429Y010709D01*
X019419Y010684D01*
X019406Y010661D01*
X019390Y010641D01*
X019370Y010623D01*
X019348Y010608D01*
X019325Y010596D01*
X019299Y010588D01*
X019273Y010584D01*
X019247Y010584D01*
X019221Y010588D01*
X019195Y010596D01*
X019171Y010608D01*
X019150Y010623D01*
X019130Y010641D01*
X019114Y010661D01*
X019101Y010684D01*
X019091Y010709D01*
X019085Y010735D01*
X019083Y010761D01*
X019083Y012139D02*
X019085Y012165D01*
X019091Y012191D01*
X019101Y012216D01*
X019114Y012239D01*
X019130Y012259D01*
X019150Y012277D01*
X019172Y012292D01*
X019195Y012304D01*
X019221Y012312D01*
X019247Y012316D01*
X019273Y012316D01*
X019299Y012312D01*
X019325Y012304D01*
X019349Y012292D01*
X019370Y012277D01*
X019390Y012259D01*
X019406Y012239D01*
X019419Y012216D01*
X019429Y012191D01*
X019435Y012165D01*
X019437Y012139D01*
X019435Y012113D01*
X019429Y012087D01*
X019419Y012062D01*
X019406Y012039D01*
X019390Y012019D01*
X019370Y012001D01*
X019348Y011986D01*
X019325Y011974D01*
X019299Y011966D01*
X019273Y011962D01*
X019247Y011962D01*
X019221Y011966D01*
X019195Y011974D01*
X019171Y011986D01*
X019150Y012001D01*
X019130Y012019D01*
X019114Y012039D01*
X019101Y012062D01*
X019091Y012087D01*
X019085Y012113D01*
X019083Y012139D01*
X019083Y017761D02*
X019085Y017787D01*
X019091Y017813D01*
X019101Y017838D01*
X019114Y017861D01*
X019130Y017881D01*
X019150Y017899D01*
X019172Y017914D01*
X019195Y017926D01*
X019221Y017934D01*
X019247Y017938D01*
X019273Y017938D01*
X019299Y017934D01*
X019325Y017926D01*
X019349Y017914D01*
X019370Y017899D01*
X019390Y017881D01*
X019406Y017861D01*
X019419Y017838D01*
X019429Y017813D01*
X019435Y017787D01*
X019437Y017761D01*
X019435Y017735D01*
X019429Y017709D01*
X019419Y017684D01*
X019406Y017661D01*
X019390Y017641D01*
X019370Y017623D01*
X019348Y017608D01*
X019325Y017596D01*
X019299Y017588D01*
X019273Y017584D01*
X019247Y017584D01*
X019221Y017588D01*
X019195Y017596D01*
X019171Y017608D01*
X019150Y017623D01*
X019130Y017641D01*
X019114Y017661D01*
X019101Y017684D01*
X019091Y017709D01*
X019085Y017735D01*
X019083Y017761D01*
X019083Y019139D02*
X019085Y019165D01*
X019091Y019191D01*
X019101Y019216D01*
X019114Y019239D01*
X019130Y019259D01*
X019150Y019277D01*
X019172Y019292D01*
X019195Y019304D01*
X019221Y019312D01*
X019247Y019316D01*
X019273Y019316D01*
X019299Y019312D01*
X019325Y019304D01*
X019349Y019292D01*
X019370Y019277D01*
X019390Y019259D01*
X019406Y019239D01*
X019419Y019216D01*
X019429Y019191D01*
X019435Y019165D01*
X019437Y019139D01*
X019435Y019113D01*
X019429Y019087D01*
X019419Y019062D01*
X019406Y019039D01*
X019390Y019019D01*
X019370Y019001D01*
X019348Y018986D01*
X019325Y018974D01*
X019299Y018966D01*
X019273Y018962D01*
X019247Y018962D01*
X019221Y018966D01*
X019195Y018974D01*
X019171Y018986D01*
X019150Y019001D01*
X019130Y019019D01*
X019114Y019039D01*
X019101Y019062D01*
X019091Y019087D01*
X019085Y019113D01*
X019083Y019139D01*
X019083Y024761D02*
X019085Y024787D01*
X019091Y024813D01*
X019101Y024838D01*
X019114Y024861D01*
X019130Y024881D01*
X019150Y024899D01*
X019172Y024914D01*
X019195Y024926D01*
X019221Y024934D01*
X019247Y024938D01*
X019273Y024938D01*
X019299Y024934D01*
X019325Y024926D01*
X019349Y024914D01*
X019370Y024899D01*
X019390Y024881D01*
X019406Y024861D01*
X019419Y024838D01*
X019429Y024813D01*
X019435Y024787D01*
X019437Y024761D01*
X019435Y024735D01*
X019429Y024709D01*
X019419Y024684D01*
X019406Y024661D01*
X019390Y024641D01*
X019370Y024623D01*
X019348Y024608D01*
X019325Y024596D01*
X019299Y024588D01*
X019273Y024584D01*
X019247Y024584D01*
X019221Y024588D01*
X019195Y024596D01*
X019171Y024608D01*
X019150Y024623D01*
X019130Y024641D01*
X019114Y024661D01*
X019101Y024684D01*
X019091Y024709D01*
X019085Y024735D01*
X019083Y024761D01*
X019083Y026139D02*
X019085Y026165D01*
X019091Y026191D01*
X019101Y026216D01*
X019114Y026239D01*
X019130Y026259D01*
X019150Y026277D01*
X019172Y026292D01*
X019195Y026304D01*
X019221Y026312D01*
X019247Y026316D01*
X019273Y026316D01*
X019299Y026312D01*
X019325Y026304D01*
X019349Y026292D01*
X019370Y026277D01*
X019390Y026259D01*
X019406Y026239D01*
X019419Y026216D01*
X019429Y026191D01*
X019435Y026165D01*
X019437Y026139D01*
X019435Y026113D01*
X019429Y026087D01*
X019419Y026062D01*
X019406Y026039D01*
X019390Y026019D01*
X019370Y026001D01*
X019348Y025986D01*
X019325Y025974D01*
X019299Y025966D01*
X019273Y025962D01*
X019247Y025962D01*
X019221Y025966D01*
X019195Y025974D01*
X019171Y025986D01*
X019150Y026001D01*
X019130Y026019D01*
X019114Y026039D01*
X019101Y026062D01*
X019091Y026087D01*
X019085Y026113D01*
X019083Y026139D01*
X019083Y031761D02*
X019085Y031787D01*
X019091Y031813D01*
X019101Y031838D01*
X019114Y031861D01*
X019130Y031881D01*
X019150Y031899D01*
X019172Y031914D01*
X019195Y031926D01*
X019221Y031934D01*
X019247Y031938D01*
X019273Y031938D01*
X019299Y031934D01*
X019325Y031926D01*
X019349Y031914D01*
X019370Y031899D01*
X019390Y031881D01*
X019406Y031861D01*
X019419Y031838D01*
X019429Y031813D01*
X019435Y031787D01*
X019437Y031761D01*
X019435Y031735D01*
X019429Y031709D01*
X019419Y031684D01*
X019406Y031661D01*
X019390Y031641D01*
X019370Y031623D01*
X019348Y031608D01*
X019325Y031596D01*
X019299Y031588D01*
X019273Y031584D01*
X019247Y031584D01*
X019221Y031588D01*
X019195Y031596D01*
X019171Y031608D01*
X019150Y031623D01*
X019130Y031641D01*
X019114Y031661D01*
X019101Y031684D01*
X019091Y031709D01*
X019085Y031735D01*
X019083Y031761D01*
X019083Y033139D02*
X019085Y033165D01*
X019091Y033191D01*
X019101Y033216D01*
X019114Y033239D01*
X019130Y033259D01*
X019150Y033277D01*
X019172Y033292D01*
X019195Y033304D01*
X019221Y033312D01*
X019247Y033316D01*
X019273Y033316D01*
X019299Y033312D01*
X019325Y033304D01*
X019349Y033292D01*
X019370Y033277D01*
X019390Y033259D01*
X019406Y033239D01*
X019419Y033216D01*
X019429Y033191D01*
X019435Y033165D01*
X019437Y033139D01*
X019435Y033113D01*
X019429Y033087D01*
X019419Y033062D01*
X019406Y033039D01*
X019390Y033019D01*
X019370Y033001D01*
X019348Y032986D01*
X019325Y032974D01*
X019299Y032966D01*
X019273Y032962D01*
X019247Y032962D01*
X019221Y032966D01*
X019195Y032974D01*
X019171Y032986D01*
X019150Y033001D01*
X019130Y033019D01*
X019114Y033039D01*
X019101Y033062D01*
X019091Y033087D01*
X019085Y033113D01*
X019083Y033139D01*
D11*
X005200Y031530D03*
X005200Y030530D03*
X005200Y024530D03*
X005200Y023530D03*
X005200Y017530D03*
X005200Y016530D03*
X005200Y010530D03*
X005200Y009530D03*
X005200Y003530D03*
X005200Y002530D03*
D12*
X004760Y001450D03*
X005760Y001450D03*
X006760Y001450D03*
X007760Y001450D03*
X008760Y001450D03*
X009760Y001450D03*
X010760Y001450D03*
X011760Y001450D03*
X012760Y001450D03*
X013760Y001450D03*
X014760Y001450D03*
X015760Y001450D03*
X016760Y001450D03*
X017760Y001450D03*
X018760Y001450D03*
X019760Y001450D03*
X020760Y001450D03*
X020760Y007450D03*
X020760Y008450D03*
X019760Y008450D03*
X019760Y007450D03*
X018760Y007450D03*
X018760Y008450D03*
X017760Y008450D03*
X017760Y007450D03*
X016760Y007450D03*
X016760Y008450D03*
X015760Y008450D03*
X015760Y007450D03*
X014760Y007450D03*
X014760Y008450D03*
X013760Y008450D03*
X013760Y007450D03*
X012760Y007450D03*
X012760Y008450D03*
X011760Y008450D03*
X011760Y007450D03*
X010760Y007450D03*
X010760Y008450D03*
X009760Y008450D03*
X009760Y007450D03*
X008760Y007450D03*
X008760Y008450D03*
X007760Y008450D03*
X007760Y007450D03*
X006760Y007450D03*
X006760Y008450D03*
X005760Y008450D03*
X005760Y007450D03*
X004760Y007450D03*
X004760Y008450D03*
X003760Y008450D03*
X003760Y007450D03*
X002760Y007450D03*
X002760Y008450D03*
X001760Y008450D03*
X001760Y009450D03*
X001760Y010450D03*
X001760Y011450D03*
X001760Y012450D03*
X001760Y013450D03*
X001760Y014450D03*
X001760Y015450D03*
X001760Y016450D03*
X001760Y017450D03*
X001760Y018450D03*
X001760Y019450D03*
X001760Y020450D03*
X001760Y021450D03*
X001760Y022450D03*
X001760Y023450D03*
X001760Y024450D03*
X001760Y025450D03*
X001760Y026450D03*
X001760Y027450D03*
X001760Y028450D03*
X001760Y029450D03*
X001760Y030450D03*
X001760Y031450D03*
X001760Y032450D03*
X001760Y033450D03*
X001760Y034450D03*
X001760Y035450D03*
X002760Y035450D03*
X003760Y035450D03*
X004760Y035450D03*
X005760Y035450D03*
X006760Y035450D03*
X007760Y035450D03*
X008760Y035450D03*
X009760Y035450D03*
X010760Y035450D03*
X011760Y035450D03*
X012760Y035450D03*
X013760Y035450D03*
X014760Y035450D03*
X015760Y035450D03*
X016760Y035450D03*
X017760Y035450D03*
X018760Y035450D03*
X019760Y035450D03*
X020760Y035450D03*
X020760Y029450D03*
X020760Y028450D03*
X019760Y028450D03*
X019760Y029450D03*
X018760Y029450D03*
X018760Y028450D03*
X017760Y028450D03*
X017760Y029450D03*
X016760Y029450D03*
X016760Y028450D03*
X015760Y028450D03*
X015760Y029450D03*
X014760Y029450D03*
X014760Y028450D03*
X013760Y028450D03*
X013760Y029450D03*
X012760Y029450D03*
X012760Y028450D03*
X011760Y028450D03*
X011760Y029450D03*
X010760Y029450D03*
X010760Y028450D03*
X009760Y028450D03*
X009760Y029450D03*
X008760Y029450D03*
X008760Y028450D03*
X007760Y028450D03*
X007760Y029450D03*
X006760Y029450D03*
X006760Y028450D03*
X005760Y028450D03*
X005760Y029450D03*
X004760Y029450D03*
X004760Y028450D03*
X003760Y028450D03*
X003760Y029450D03*
X002760Y029450D03*
X002760Y028450D03*
X002760Y022450D03*
X002760Y021450D03*
X003760Y021450D03*
X003760Y022450D03*
X004760Y022450D03*
X004760Y021450D03*
X005760Y021450D03*
X005760Y022450D03*
X006760Y022450D03*
X006760Y021450D03*
X007760Y021450D03*
X007760Y022450D03*
X008760Y022450D03*
X008760Y021450D03*
X009760Y021450D03*
X009760Y022450D03*
X010760Y022450D03*
X010760Y021450D03*
X011760Y021450D03*
X011760Y022450D03*
X012760Y022450D03*
X012760Y021450D03*
X013760Y021450D03*
X013760Y022450D03*
X014760Y022450D03*
X014760Y021450D03*
X015760Y021450D03*
X015760Y022450D03*
X016760Y022450D03*
X016760Y021450D03*
X017760Y021450D03*
X017760Y022450D03*
X018760Y022450D03*
X018760Y021450D03*
X019760Y021450D03*
X019760Y022450D03*
X020760Y022450D03*
X020760Y021450D03*
X020760Y015450D03*
X020760Y014450D03*
X019760Y014450D03*
X019760Y015450D03*
X018760Y015450D03*
X018760Y014450D03*
X017760Y014450D03*
X017760Y015450D03*
X016760Y015450D03*
X016760Y014450D03*
X015760Y014450D03*
X015760Y015450D03*
X014760Y015450D03*
X014760Y014450D03*
X013760Y014450D03*
X013760Y015450D03*
X012760Y015450D03*
X012760Y014450D03*
X011760Y014450D03*
X011760Y015450D03*
X010760Y015450D03*
X010760Y014450D03*
X009760Y014450D03*
X009760Y015450D03*
X008760Y015450D03*
X008760Y014450D03*
X007760Y014450D03*
X007760Y015450D03*
X006760Y015450D03*
X006760Y014450D03*
X005760Y014450D03*
X005760Y015450D03*
X004760Y015450D03*
X004760Y014450D03*
X003760Y014450D03*
X003760Y015450D03*
X002760Y015450D03*
X002760Y014450D03*
X001760Y007450D03*
X001760Y006450D03*
X001760Y005450D03*
X001760Y004450D03*
X001760Y003450D03*
X001760Y002450D03*
X001760Y001450D03*
X002760Y001450D03*
X003760Y001450D03*
D13*
X003500Y004950D03*
X004080Y005030D03*
X003440Y006030D03*
X002800Y005650D03*
X004760Y006250D03*
X005900Y005990D03*
X006820Y005030D03*
X008160Y004110D03*
X008580Y003790D03*
X009140Y004470D03*
X009480Y004690D03*
X009760Y004430D03*
X010040Y004090D03*
X010480Y003450D03*
X010760Y004270D03*
X011380Y003430D03*
X012220Y004410D03*
X011960Y004790D03*
X011360Y005410D03*
X011980Y006150D03*
X012820Y006330D03*
X013300Y006330D03*
X013720Y006170D03*
X013020Y004450D03*
X013220Y003730D03*
X013340Y003350D03*
X014420Y002190D03*
X015920Y002770D03*
X017240Y002190D03*
X017540Y004130D03*
X017340Y005090D03*
X017260Y006150D03*
X016400Y006350D03*
X016400Y004790D03*
X014700Y004810D03*
X014420Y009190D03*
X013340Y010350D03*
X013220Y010730D03*
X013020Y011450D03*
X012220Y011410D03*
X011960Y011790D03*
X011360Y012410D03*
X011980Y013150D03*
X012820Y013330D03*
X013300Y013330D03*
X013720Y013170D03*
X014700Y011810D03*
X015920Y009770D03*
X017240Y009190D03*
X017540Y011130D03*
X017340Y012090D03*
X017260Y013150D03*
X016400Y013350D03*
X016400Y011790D03*
X018960Y011450D03*
X019260Y009890D03*
X020540Y010870D03*
X020540Y011290D03*
X020540Y011690D03*
X019440Y013670D03*
X019260Y016890D03*
X018960Y018450D03*
X017540Y018130D03*
X017340Y019090D03*
X017260Y020150D03*
X016400Y020350D03*
X016400Y018790D03*
X015920Y016770D03*
X014700Y018810D03*
X013720Y020170D03*
X013300Y020330D03*
X012820Y020330D03*
X011980Y020150D03*
X011360Y019410D03*
X011960Y018790D03*
X012220Y018410D03*
X013020Y018450D03*
X013220Y017730D03*
X013340Y017350D03*
X014420Y016190D03*
X017240Y016190D03*
X019440Y020670D03*
X020540Y018690D03*
X020540Y018290D03*
X020540Y017870D03*
X019260Y023890D03*
X018960Y025450D03*
X017540Y025130D03*
X017340Y026090D03*
X017260Y027150D03*
X016400Y027350D03*
X016400Y025790D03*
X015920Y023770D03*
X014700Y025810D03*
X013720Y027170D03*
X013300Y027330D03*
X012820Y027330D03*
X011980Y027150D03*
X011360Y026410D03*
X011960Y025790D03*
X012220Y025410D03*
X013020Y025450D03*
X013220Y024730D03*
X013340Y024350D03*
X014420Y023190D03*
X017240Y023190D03*
X019440Y027670D03*
X020540Y025690D03*
X020540Y025290D03*
X020540Y024870D03*
X019260Y030890D03*
X018960Y032450D03*
X017540Y032130D03*
X017340Y033090D03*
X017260Y034150D03*
X016400Y034350D03*
X016400Y032790D03*
X015920Y030770D03*
X017240Y030190D03*
X014700Y032810D03*
X013720Y034170D03*
X013300Y034330D03*
X012820Y034330D03*
X011980Y034150D03*
X011360Y033410D03*
X011960Y032790D03*
X012220Y032410D03*
X013020Y032450D03*
X013220Y031730D03*
X013340Y031350D03*
X014420Y030190D03*
X011380Y031430D03*
X010760Y032270D03*
X010480Y031450D03*
X010040Y032090D03*
X009760Y032430D03*
X009480Y032690D03*
X009140Y032470D03*
X008580Y031790D03*
X008160Y032110D03*
X008340Y032830D03*
X008320Y033510D03*
X008900Y034010D03*
X010120Y033310D03*
X010480Y033510D03*
X009340Y030510D03*
X008900Y027010D03*
X008320Y026510D03*
X008340Y025830D03*
X008160Y025110D03*
X008580Y024790D03*
X009140Y025470D03*
X009480Y025690D03*
X009760Y025430D03*
X010040Y025090D03*
X010480Y024450D03*
X010760Y025270D03*
X011380Y024430D03*
X010480Y026510D03*
X010120Y026310D03*
X009340Y023510D03*
X008900Y020010D03*
X008320Y019510D03*
X008340Y018830D03*
X008160Y018110D03*
X008580Y017790D03*
X009140Y018470D03*
X009480Y018690D03*
X009760Y018430D03*
X010040Y018090D03*
X010480Y017450D03*
X010760Y018270D03*
X011380Y017430D03*
X010120Y019310D03*
X010480Y019510D03*
X009340Y016510D03*
X008900Y013010D03*
X008320Y012510D03*
X008340Y011830D03*
X008160Y011110D03*
X008580Y010790D03*
X009140Y011470D03*
X009480Y011690D03*
X009760Y011430D03*
X010040Y011090D03*
X010480Y010450D03*
X010760Y011270D03*
X011380Y010430D03*
X010120Y012310D03*
X010480Y012510D03*
X009340Y009510D03*
X008900Y006010D03*
X008320Y005510D03*
X008340Y004830D03*
X009340Y002510D03*
X010120Y005310D03*
X010480Y005510D03*
X006820Y012030D03*
X005900Y012990D03*
X004760Y013250D03*
X004080Y012030D03*
X003500Y011950D03*
X003440Y013030D03*
X002800Y012650D03*
X003500Y018950D03*
X004080Y019030D03*
X003440Y020030D03*
X002800Y019650D03*
X004760Y020250D03*
X005900Y019990D03*
X006820Y019030D03*
X006820Y026030D03*
X005900Y026990D03*
X004760Y027250D03*
X004080Y026030D03*
X003500Y025950D03*
X003440Y027030D03*
X002800Y026650D03*
X003500Y032950D03*
X004080Y033030D03*
X003440Y034030D03*
X002800Y033650D03*
X004760Y034250D03*
X005900Y033990D03*
X006820Y033030D03*
X019440Y034670D03*
X020540Y032690D03*
X020540Y032290D03*
X020540Y031870D03*
X019440Y006670D03*
X020540Y004690D03*
X020540Y004290D03*
X020540Y003870D03*
X019260Y002890D03*
X018960Y004450D03*
D14*
X018770Y004237D02*
X018718Y004289D01*
X018675Y004393D01*
X018675Y004507D01*
X018718Y004611D01*
X018799Y004692D01*
X018903Y004735D01*
X019017Y004735D01*
X019121Y004692D01*
X019202Y004611D01*
X019245Y004507D01*
X019245Y004393D01*
X019202Y004289D01*
X019150Y004237D01*
X019150Y004070D01*
X019195Y004088D01*
X019325Y004088D01*
X019445Y004038D01*
X019537Y003946D01*
X019587Y003826D01*
X019587Y003696D01*
X019537Y003576D01*
X019445Y003484D01*
X019325Y003434D01*
X019195Y003434D01*
X019075Y003484D01*
X018983Y003576D01*
X018933Y003695D01*
X018499Y003260D01*
X013611Y003260D01*
X013582Y003189D01*
X013501Y003108D01*
X013397Y003065D01*
X013283Y003065D01*
X013179Y003108D01*
X013098Y003189D01*
X013055Y003293D01*
X013055Y003407D01*
X013084Y003478D01*
X013059Y003488D01*
X012978Y003569D01*
X012935Y003673D01*
X012935Y003787D01*
X012978Y003891D01*
X013059Y003972D01*
X013163Y004015D01*
X013277Y004015D01*
X013381Y003972D01*
X013462Y003891D01*
X013491Y003820D01*
X016801Y003820D01*
X017190Y004209D01*
X017241Y004260D01*
X014901Y004260D01*
X014790Y004371D01*
X014790Y005080D01*
X013339Y005080D01*
X012810Y004551D01*
X012810Y004271D01*
X012699Y004160D01*
X011779Y003240D01*
X011593Y003240D01*
X011541Y003188D01*
X011437Y003145D01*
X011323Y003145D01*
X011219Y003188D01*
X011138Y003269D01*
X011095Y003373D01*
X011095Y003487D01*
X011138Y003591D01*
X011219Y003672D01*
X011323Y003715D01*
X011437Y003715D01*
X011541Y003672D01*
X011593Y003620D01*
X011621Y003620D01*
X012137Y004136D01*
X012059Y004168D01*
X011978Y004249D01*
X011935Y004353D01*
X011935Y004467D01*
X011951Y004505D01*
X011903Y004505D01*
X011799Y004548D01*
X011718Y004629D01*
X011675Y004733D01*
X011675Y004847D01*
X011718Y004951D01*
X011799Y005032D01*
X011903Y005075D01*
X011976Y005075D01*
X012270Y005369D01*
X012270Y006709D01*
X012381Y006820D01*
X012540Y006978D01*
X012465Y007009D01*
X012319Y007155D01*
X012260Y007298D01*
X012201Y007155D01*
X012055Y007009D01*
X011863Y006930D01*
X011657Y006930D01*
X011465Y007009D01*
X011319Y007155D01*
X011260Y007298D01*
X011201Y007155D01*
X011162Y007117D01*
X011759Y006520D01*
X011870Y006409D01*
X011870Y005651D01*
X011645Y005426D01*
X011645Y005353D01*
X011602Y005249D01*
X011521Y005168D01*
X011417Y005125D01*
X011303Y005125D01*
X011199Y005168D01*
X011118Y005249D01*
X011075Y005353D01*
X011075Y005467D01*
X011118Y005571D01*
X011199Y005652D01*
X011303Y005695D01*
X011376Y005695D01*
X011490Y005809D01*
X011490Y006251D01*
X010981Y006760D01*
X005539Y006760D01*
X005045Y006266D01*
X005045Y006193D01*
X005002Y006089D01*
X004993Y006080D01*
X005629Y006080D01*
X005658Y006151D01*
X005739Y006232D01*
X005843Y006275D01*
X005957Y006275D01*
X006061Y006232D01*
X006142Y006151D01*
X006171Y006080D01*
X008019Y006080D01*
X008130Y005969D01*
X008130Y005969D01*
X008304Y005795D01*
X008377Y005795D01*
X008481Y005752D01*
X008562Y005671D01*
X008605Y005567D01*
X008605Y005453D01*
X008562Y005349D01*
X008481Y005268D01*
X008377Y005225D01*
X008263Y005225D01*
X008159Y005268D01*
X008078Y005349D01*
X008035Y005453D01*
X008035Y005526D01*
X007861Y005700D01*
X004561Y005700D01*
X004070Y006191D01*
X004070Y006871D01*
X003968Y006973D01*
X003863Y006930D01*
X003657Y006930D01*
X003465Y007009D01*
X003319Y007155D01*
X003260Y007298D01*
X003201Y007155D01*
X003055Y007009D01*
X002863Y006930D01*
X002657Y006930D01*
X002465Y007009D01*
X002319Y007155D01*
X002260Y007298D01*
X002201Y007155D01*
X002055Y007009D01*
X001912Y006950D01*
X002055Y006891D01*
X002201Y006745D01*
X002280Y006553D01*
X002280Y006347D01*
X002201Y006155D01*
X002055Y006009D01*
X001908Y005949D01*
X001960Y005932D01*
X002033Y005895D01*
X002099Y005847D01*
X002157Y005789D01*
X002205Y005723D01*
X002242Y005650D01*
X002267Y005572D01*
X002279Y005500D01*
X001810Y005500D01*
X001810Y005400D01*
X002279Y005400D01*
X002267Y005328D01*
X002242Y005250D01*
X002205Y005177D01*
X002157Y005111D01*
X002099Y005053D01*
X002033Y005005D01*
X001960Y004968D01*
X001908Y004951D01*
X002055Y004891D01*
X002201Y004745D01*
X002280Y004553D01*
X002280Y004439D01*
X002490Y004649D01*
X002601Y004760D01*
X003987Y004760D01*
X003919Y004788D01*
X003838Y004869D01*
X003795Y004973D01*
X003795Y005046D01*
X003381Y005460D01*
X003013Y005460D01*
X002961Y005408D01*
X002857Y005365D01*
X002743Y005365D01*
X002639Y005408D01*
X002558Y005489D01*
X002515Y005593D01*
X002515Y005707D01*
X002558Y005811D01*
X002639Y005892D01*
X002743Y005935D01*
X002857Y005935D01*
X002961Y005892D01*
X003013Y005840D01*
X003227Y005840D01*
X003198Y005869D01*
X003155Y005973D01*
X003155Y006087D01*
X003198Y006191D01*
X003279Y006272D01*
X003383Y006315D01*
X003497Y006315D01*
X003601Y006272D01*
X003682Y006191D01*
X003725Y006087D01*
X003725Y006014D01*
X004199Y005540D01*
X006579Y005540D01*
X006804Y005315D01*
X006877Y005315D01*
X006981Y005272D01*
X007062Y005191D01*
X007105Y005087D01*
X008216Y005087D01*
X008179Y005072D02*
X008283Y005115D01*
X008397Y005115D01*
X008501Y005072D01*
X008582Y004991D01*
X008614Y004913D01*
X009390Y005689D01*
X009390Y005689D01*
X009501Y005800D01*
X010459Y005800D01*
X010464Y005795D01*
X010537Y005795D01*
X010641Y005752D01*
X010722Y005671D01*
X010765Y005567D01*
X010765Y005453D01*
X010722Y005349D01*
X010641Y005268D01*
X010537Y005225D01*
X010423Y005225D01*
X010398Y005236D01*
X010362Y005149D01*
X010281Y005068D01*
X010177Y005025D01*
X010063Y005025D01*
X009959Y005068D01*
X009907Y005120D01*
X009639Y005120D01*
X009494Y004975D01*
X009537Y004975D01*
X009641Y004932D01*
X009722Y004851D01*
X009765Y004747D01*
X009765Y004715D01*
X009817Y004715D01*
X009921Y004672D01*
X010002Y004591D01*
X010045Y004487D01*
X010045Y004375D01*
X010097Y004375D01*
X010201Y004332D01*
X010282Y004251D01*
X010325Y004147D01*
X010325Y004033D01*
X010282Y003929D01*
X010230Y003877D01*
X010230Y003611D01*
X010119Y003500D01*
X008859Y002240D01*
X007619Y002240D01*
X007162Y001783D01*
X007201Y001745D01*
X007260Y001602D01*
X007319Y001745D01*
X007465Y001891D01*
X007657Y001970D01*
X007863Y001970D01*
X007968Y001927D01*
X008070Y002029D01*
X008181Y002140D01*
X010290Y002140D01*
X010290Y003237D01*
X010238Y003289D01*
X010195Y003393D01*
X010195Y003507D01*
X010238Y003611D01*
X010319Y003692D01*
X010423Y003735D01*
X010537Y003735D01*
X010570Y003721D01*
X010570Y004057D01*
X010518Y004109D01*
X010475Y004213D01*
X010475Y004327D01*
X010518Y004431D01*
X010599Y004512D01*
X010703Y004555D01*
X010817Y004555D01*
X010921Y004512D01*
X011002Y004431D01*
X011045Y004327D01*
X011045Y004213D01*
X011002Y004109D01*
X010950Y004057D01*
X010950Y002509D01*
X011079Y002380D01*
X014207Y002380D01*
X014259Y002432D01*
X014363Y002475D01*
X014477Y002475D01*
X014581Y002432D01*
X014662Y002351D01*
X014705Y002247D01*
X014705Y002140D01*
X015021Y002140D01*
X015635Y002754D01*
X015635Y002827D01*
X015678Y002931D01*
X015759Y003012D01*
X015863Y003055D01*
X015977Y003055D01*
X016081Y003012D01*
X016133Y002960D01*
X017739Y002960D01*
X017850Y002849D01*
X017939Y002760D01*
X019341Y002760D01*
X019910Y003329D01*
X019910Y004329D01*
X020255Y004674D01*
X020255Y004747D01*
X020298Y004851D01*
X020379Y004932D01*
X020483Y004975D01*
X020597Y004975D01*
X020701Y004932D01*
X020782Y004851D01*
X020825Y004747D01*
X020825Y004633D01*
X020782Y004529D01*
X020743Y004490D01*
X020782Y004451D01*
X020825Y004347D01*
X020825Y004233D01*
X020782Y004129D01*
X020733Y004080D01*
X020782Y004031D01*
X020825Y003927D01*
X020825Y003813D01*
X020782Y003709D01*
X020730Y003657D01*
X020730Y003131D01*
X020619Y003020D01*
X019839Y002240D01*
X020295Y002240D01*
X020592Y001943D01*
X020657Y001970D01*
X020863Y001970D01*
X021055Y001891D01*
X021110Y001835D01*
X021110Y007065D01*
X021055Y007009D01*
X020863Y006930D01*
X020657Y006930D01*
X020592Y006957D01*
X020075Y006440D01*
X019613Y006440D01*
X019601Y006428D01*
X019497Y006385D01*
X019383Y006385D01*
X019279Y006428D01*
X019198Y006509D01*
X019155Y006613D01*
X019155Y006727D01*
X019198Y006831D01*
X019279Y006912D01*
X019383Y006955D01*
X019497Y006955D01*
X019601Y006912D01*
X019613Y006900D01*
X019885Y006900D01*
X019951Y006966D01*
X019863Y006930D01*
X019657Y006930D01*
X019465Y007009D01*
X019319Y007155D01*
X019259Y007302D01*
X019242Y007250D01*
X019205Y007177D01*
X019157Y007111D01*
X019099Y007053D01*
X019033Y007005D01*
X018960Y006968D01*
X018882Y006943D01*
X018810Y006931D01*
X018810Y007400D01*
X018710Y007400D01*
X018710Y006931D01*
X018638Y006943D01*
X018560Y006968D01*
X018487Y007005D01*
X018421Y007053D01*
X018363Y007111D01*
X018315Y007177D01*
X018278Y007250D01*
X018261Y007302D01*
X018201Y007155D01*
X018055Y007009D01*
X017863Y006930D01*
X017657Y006930D01*
X017552Y006973D01*
X017459Y006880D01*
X018339Y006880D01*
X018450Y006769D01*
X018450Y004371D01*
X018339Y004260D01*
X017795Y004260D01*
X017825Y004187D01*
X017825Y004073D01*
X017782Y003969D01*
X017701Y003888D01*
X017597Y003845D01*
X017483Y003845D01*
X017399Y003880D01*
X017159Y003640D01*
X018341Y003640D01*
X018770Y004069D01*
X018770Y004237D01*
X018770Y004201D02*
X017819Y004201D01*
X017825Y004102D02*
X018770Y004102D01*
X018705Y004004D02*
X017796Y004004D01*
X017718Y003905D02*
X018606Y003905D01*
X018508Y003807D02*
X017325Y003807D01*
X017227Y003708D02*
X018409Y003708D01*
X018651Y003413D02*
X019910Y003413D01*
X019910Y003511D02*
X019473Y003511D01*
X019551Y003610D02*
X019910Y003610D01*
X019910Y003708D02*
X019587Y003708D01*
X019587Y003807D02*
X019910Y003807D01*
X019910Y003905D02*
X019554Y003905D01*
X019480Y004004D02*
X019910Y004004D01*
X019910Y004102D02*
X019150Y004102D01*
X019150Y004201D02*
X019910Y004201D01*
X019910Y004299D02*
X019206Y004299D01*
X019245Y004398D02*
X019979Y004398D01*
X020077Y004496D02*
X019245Y004496D01*
X019209Y004595D02*
X020176Y004595D01*
X020255Y004693D02*
X019118Y004693D01*
X019195Y004812D02*
X019075Y004862D01*
X018983Y004954D01*
X018933Y005074D01*
X018933Y005204D01*
X018983Y005324D01*
X019075Y005416D01*
X019195Y005466D01*
X019325Y005466D01*
X019445Y005416D01*
X019537Y005324D01*
X019587Y005204D01*
X019587Y005074D01*
X019537Y004954D01*
X019445Y004862D01*
X019325Y004812D01*
X019195Y004812D01*
X019046Y004890D02*
X018450Y004890D01*
X018450Y004792D02*
X020274Y004792D01*
X020337Y004890D02*
X019474Y004890D01*
X019552Y004989D02*
X021110Y004989D01*
X021110Y005087D02*
X019587Y005087D01*
X019587Y005186D02*
X021110Y005186D01*
X021110Y005284D02*
X019554Y005284D01*
X019479Y005383D02*
X021110Y005383D01*
X021110Y005481D02*
X018450Y005481D01*
X018450Y005383D02*
X019041Y005383D01*
X018966Y005284D02*
X018450Y005284D01*
X018450Y005186D02*
X018933Y005186D01*
X018933Y005087D02*
X018450Y005087D01*
X018450Y004989D02*
X018968Y004989D01*
X018802Y004693D02*
X018450Y004693D01*
X018450Y004595D02*
X018711Y004595D01*
X018675Y004496D02*
X018450Y004496D01*
X018450Y004398D02*
X018675Y004398D01*
X018714Y004299D02*
X018378Y004299D01*
X018848Y003610D02*
X018969Y003610D01*
X019047Y003511D02*
X018750Y003511D01*
X018553Y003314D02*
X019895Y003314D01*
X019797Y003216D02*
X013593Y003216D01*
X013510Y003117D02*
X019698Y003117D01*
X019600Y003019D02*
X016065Y003019D01*
X015775Y003019D02*
X010950Y003019D01*
X010950Y003117D02*
X013170Y003117D01*
X013087Y003216D02*
X011569Y003216D01*
X011853Y003314D02*
X013055Y003314D01*
X013057Y003413D02*
X011951Y003413D01*
X012050Y003511D02*
X013036Y003511D01*
X012961Y003610D02*
X012148Y003610D01*
X012247Y003708D02*
X012935Y003708D01*
X012943Y003807D02*
X012345Y003807D01*
X012444Y003905D02*
X012992Y003905D01*
X013136Y004004D02*
X012542Y004004D01*
X012641Y004102D02*
X017083Y004102D01*
X016985Y004004D02*
X013304Y004004D01*
X013448Y003905D02*
X016886Y003905D01*
X017182Y004201D02*
X012739Y004201D01*
X012810Y004299D02*
X014862Y004299D01*
X014790Y004398D02*
X012810Y004398D01*
X012810Y004496D02*
X014790Y004496D01*
X014790Y004595D02*
X012853Y004595D01*
X012952Y004693D02*
X014790Y004693D01*
X014790Y004792D02*
X013050Y004792D01*
X013149Y004890D02*
X014790Y004890D01*
X014790Y004989D02*
X013247Y004989D01*
X012270Y005383D02*
X011645Y005383D01*
X011616Y005284D02*
X012185Y005284D01*
X012087Y005186D02*
X011539Y005186D01*
X011755Y004989D02*
X009507Y004989D01*
X009606Y005087D02*
X009940Y005087D01*
X009746Y004792D02*
X011675Y004792D01*
X011693Y004890D02*
X009683Y004890D01*
X009870Y004693D02*
X011692Y004693D01*
X011752Y004595D02*
X009999Y004595D01*
X010041Y004496D02*
X010583Y004496D01*
X010504Y004398D02*
X010045Y004398D01*
X010234Y004299D02*
X010475Y004299D01*
X010480Y004201D02*
X010303Y004201D01*
X010325Y004102D02*
X010525Y004102D01*
X010570Y004004D02*
X010313Y004004D01*
X010258Y003905D02*
X010570Y003905D01*
X010570Y003807D02*
X010230Y003807D01*
X010230Y003708D02*
X010358Y003708D01*
X010238Y003610D02*
X010228Y003610D01*
X010197Y003511D02*
X010130Y003511D01*
X010195Y003413D02*
X010031Y003413D01*
X009933Y003314D02*
X010228Y003314D01*
X010290Y003216D02*
X009834Y003216D01*
X009736Y003117D02*
X010290Y003117D01*
X010290Y003019D02*
X009637Y003019D01*
X009539Y002920D02*
X010290Y002920D01*
X010290Y002822D02*
X009440Y002822D01*
X009342Y002723D02*
X010290Y002723D01*
X010290Y002625D02*
X009243Y002625D01*
X009145Y002526D02*
X010290Y002526D01*
X010290Y002428D02*
X009046Y002428D01*
X008948Y002329D02*
X010290Y002329D01*
X010290Y002231D02*
X007609Y002231D01*
X007511Y002132D02*
X008173Y002132D01*
X008075Y002034D02*
X007412Y002034D01*
X007314Y001935D02*
X007572Y001935D01*
X007411Y001837D02*
X007215Y001837D01*
X007204Y001738D02*
X007316Y001738D01*
X007276Y001640D02*
X007244Y001640D01*
X007948Y001935D02*
X007976Y001935D01*
X008077Y004940D02*
X007091Y004940D01*
X007105Y004973D01*
X007105Y005087D01*
X007105Y004989D02*
X008097Y004989D01*
X008098Y004991D02*
X008077Y004940D01*
X008098Y004991D02*
X008179Y005072D01*
X008143Y005284D02*
X006952Y005284D01*
X007064Y005186D02*
X008887Y005186D01*
X008985Y005284D02*
X008497Y005284D01*
X008576Y005383D02*
X009084Y005383D01*
X009182Y005481D02*
X008605Y005481D01*
X008600Y005580D02*
X009281Y005580D01*
X009379Y005678D02*
X008555Y005678D01*
X008421Y005777D02*
X009478Y005777D01*
X008788Y005087D02*
X008464Y005087D01*
X008583Y004989D02*
X008690Y004989D01*
X008064Y005383D02*
X006736Y005383D01*
X006638Y005481D02*
X008035Y005481D01*
X007982Y005580D02*
X004159Y005580D01*
X004061Y005678D02*
X007883Y005678D01*
X008125Y005974D02*
X011490Y005974D01*
X011490Y006072D02*
X008027Y006072D01*
X008224Y005875D02*
X011490Y005875D01*
X011458Y005777D02*
X010581Y005777D01*
X010715Y005678D02*
X011262Y005678D01*
X011126Y005580D02*
X010760Y005580D01*
X010765Y005481D02*
X011081Y005481D01*
X011075Y005383D02*
X010736Y005383D01*
X010657Y005284D02*
X011104Y005284D01*
X011181Y005186D02*
X010377Y005186D01*
X010300Y005087D02*
X011988Y005087D01*
X011947Y004496D02*
X010937Y004496D01*
X011016Y004398D02*
X011935Y004398D01*
X011957Y004299D02*
X011045Y004299D01*
X011040Y004201D02*
X012026Y004201D01*
X012103Y004102D02*
X010995Y004102D01*
X010950Y004004D02*
X012005Y004004D01*
X011906Y003905D02*
X010950Y003905D01*
X010950Y003807D02*
X011808Y003807D01*
X011709Y003708D02*
X011454Y003708D01*
X011306Y003708D02*
X010950Y003708D01*
X010950Y003610D02*
X011156Y003610D01*
X011105Y003511D02*
X010950Y003511D01*
X010950Y003413D02*
X011095Y003413D01*
X011120Y003314D02*
X010950Y003314D01*
X010950Y003216D02*
X011191Y003216D01*
X010950Y002920D02*
X015674Y002920D01*
X015635Y002822D02*
X010950Y002822D01*
X010950Y002723D02*
X015604Y002723D01*
X015506Y002625D02*
X010950Y002625D01*
X010950Y002526D02*
X015407Y002526D01*
X015309Y002428D02*
X014586Y002428D01*
X014671Y002329D02*
X015210Y002329D01*
X015112Y002231D02*
X014705Y002231D01*
X014254Y002428D02*
X011031Y002428D01*
X011700Y005481D02*
X012270Y005481D01*
X012270Y005580D02*
X011798Y005580D01*
X011870Y005678D02*
X012270Y005678D01*
X012270Y005777D02*
X011870Y005777D01*
X011870Y005875D02*
X012270Y005875D01*
X012270Y005974D02*
X011870Y005974D01*
X011870Y006072D02*
X012270Y006072D01*
X012270Y006171D02*
X011870Y006171D01*
X011870Y006269D02*
X012270Y006269D01*
X012270Y006368D02*
X011870Y006368D01*
X011813Y006466D02*
X012270Y006466D01*
X012270Y006565D02*
X011714Y006565D01*
X011616Y006663D02*
X012270Y006663D01*
X012323Y006762D02*
X011517Y006762D01*
X011419Y006860D02*
X012421Y006860D01*
X012520Y006959D02*
X011932Y006959D01*
X012102Y007057D02*
X012418Y007057D01*
X012319Y007156D02*
X012201Y007156D01*
X012242Y007254D02*
X012278Y007254D01*
X011588Y006959D02*
X011320Y006959D01*
X011222Y007057D02*
X011418Y007057D01*
X011319Y007156D02*
X011201Y007156D01*
X011242Y007254D02*
X011278Y007254D01*
X011078Y006663D02*
X005442Y006663D01*
X005343Y006565D02*
X011177Y006565D01*
X011275Y006466D02*
X005245Y006466D01*
X005146Y006368D02*
X011374Y006368D01*
X011472Y006269D02*
X005971Y006269D01*
X005829Y006269D02*
X005048Y006269D01*
X005036Y006171D02*
X005677Y006171D01*
X006123Y006171D02*
X011490Y006171D01*
X010290Y009140D02*
X008181Y009140D01*
X008070Y009029D01*
X007968Y008927D01*
X007863Y008970D01*
X007657Y008970D01*
X007465Y008891D01*
X007319Y008745D01*
X007260Y008602D01*
X007201Y008745D01*
X007162Y008783D01*
X007619Y009240D01*
X008859Y009240D01*
X010119Y010500D01*
X010230Y010611D01*
X010230Y010877D01*
X010282Y010929D01*
X010325Y011033D01*
X010325Y011147D01*
X010282Y011251D01*
X010201Y011332D01*
X010097Y011375D01*
X010045Y011375D01*
X010045Y011487D01*
X010002Y011591D01*
X009921Y011672D01*
X009817Y011715D01*
X009765Y011715D01*
X009765Y011747D01*
X009722Y011851D01*
X009641Y011932D01*
X009537Y011975D01*
X009494Y011975D01*
X009639Y012120D01*
X009907Y012120D01*
X009959Y012068D01*
X010063Y012025D01*
X010177Y012025D01*
X010281Y012068D01*
X010362Y012149D01*
X010398Y012236D01*
X010423Y012225D01*
X010537Y012225D01*
X010641Y012268D01*
X010722Y012349D01*
X010765Y012453D01*
X010765Y012567D01*
X010722Y012671D01*
X010641Y012752D01*
X010537Y012795D01*
X010464Y012795D01*
X010459Y012800D01*
X009501Y012800D01*
X008614Y011913D01*
X008582Y011991D01*
X008501Y012072D01*
X008397Y012115D01*
X008283Y012115D01*
X008179Y012072D01*
X008098Y011991D01*
X008077Y011940D01*
X007091Y011940D01*
X007105Y011973D01*
X007105Y012087D01*
X007062Y012191D01*
X006981Y012272D01*
X006877Y012315D01*
X006804Y012315D01*
X006579Y012540D01*
X004199Y012540D01*
X003725Y013014D01*
X003725Y013087D01*
X003682Y013191D01*
X003601Y013272D01*
X003497Y013315D01*
X003383Y013315D01*
X003279Y013272D01*
X003198Y013191D01*
X003155Y013087D01*
X003155Y012973D01*
X003198Y012869D01*
X003227Y012840D01*
X003013Y012840D01*
X002961Y012892D01*
X002857Y012935D01*
X002743Y012935D01*
X002639Y012892D01*
X002558Y012811D01*
X002515Y012707D01*
X002515Y012593D01*
X002558Y012489D01*
X002639Y012408D01*
X002743Y012365D01*
X002857Y012365D01*
X002961Y012408D01*
X003013Y012460D01*
X003381Y012460D01*
X003795Y012046D01*
X003795Y011973D01*
X003838Y011869D01*
X003919Y011788D01*
X003987Y011760D01*
X002601Y011760D01*
X002490Y011649D01*
X002280Y011439D01*
X002280Y011553D01*
X002201Y011745D01*
X002055Y011891D01*
X001908Y011951D01*
X001960Y011968D01*
X002033Y012005D01*
X002099Y012053D01*
X002157Y012111D01*
X002205Y012177D01*
X002242Y012250D01*
X002267Y012328D01*
X002279Y012400D01*
X001810Y012400D01*
X001810Y012500D01*
X002279Y012500D01*
X002267Y012572D01*
X002242Y012650D01*
X002205Y012723D01*
X002157Y012789D01*
X002099Y012847D01*
X002033Y012895D01*
X001960Y012932D01*
X001908Y012949D01*
X002055Y013009D01*
X002201Y013155D01*
X002280Y013347D01*
X002280Y013553D01*
X002201Y013745D01*
X002055Y013891D01*
X001912Y013950D01*
X002055Y014009D01*
X002201Y014155D01*
X002260Y014298D01*
X002319Y014155D01*
X002465Y014009D01*
X002657Y013930D01*
X002863Y013930D01*
X003055Y014009D01*
X003201Y014155D01*
X003260Y014298D01*
X003319Y014155D01*
X003465Y014009D01*
X003657Y013930D01*
X003863Y013930D01*
X003968Y013973D01*
X004070Y013871D01*
X004070Y013191D01*
X004561Y012700D01*
X007861Y012700D01*
X008035Y012526D01*
X008035Y012453D01*
X008078Y012349D01*
X008159Y012268D01*
X008263Y012225D01*
X008377Y012225D01*
X008481Y012268D01*
X008562Y012349D01*
X008605Y012453D01*
X008605Y012567D01*
X008562Y012671D01*
X008481Y012752D01*
X008377Y012795D01*
X008304Y012795D01*
X008019Y013080D01*
X006171Y013080D01*
X006142Y013151D01*
X006061Y013232D01*
X005957Y013275D01*
X005843Y013275D01*
X005739Y013232D01*
X005658Y013151D01*
X005629Y013080D01*
X004993Y013080D01*
X005002Y013089D01*
X005045Y013193D01*
X005045Y013266D01*
X005539Y013760D01*
X010981Y013760D01*
X011490Y013251D01*
X011490Y012809D01*
X011376Y012695D01*
X011303Y012695D01*
X011199Y012652D01*
X011118Y012571D01*
X011075Y012467D01*
X011075Y012353D01*
X011118Y012249D01*
X011199Y012168D01*
X011303Y012125D01*
X011417Y012125D01*
X011521Y012168D01*
X011602Y012249D01*
X011645Y012353D01*
X011645Y012426D01*
X011870Y012651D01*
X011870Y013409D01*
X011759Y013520D01*
X011162Y014117D01*
X011201Y014155D01*
X011260Y014298D01*
X011319Y014155D01*
X011465Y014009D01*
X011657Y013930D01*
X011863Y013930D01*
X012055Y014009D01*
X012201Y014155D01*
X012260Y014298D01*
X012319Y014155D01*
X012465Y014009D01*
X012540Y013978D01*
X012381Y013820D01*
X012270Y013709D01*
X012270Y012369D01*
X011976Y012075D01*
X011903Y012075D01*
X011799Y012032D01*
X011718Y011951D01*
X011675Y011847D01*
X011675Y011733D01*
X011718Y011629D01*
X011799Y011548D01*
X011903Y011505D01*
X011951Y011505D01*
X011935Y011467D01*
X011935Y011353D01*
X011978Y011249D01*
X012059Y011168D01*
X012137Y011136D01*
X011621Y010620D01*
X011593Y010620D01*
X011541Y010672D01*
X011437Y010715D01*
X011323Y010715D01*
X011219Y010672D01*
X011138Y010591D01*
X011095Y010487D01*
X011095Y010373D01*
X011138Y010269D01*
X011219Y010188D01*
X011323Y010145D01*
X011437Y010145D01*
X011541Y010188D01*
X011593Y010240D01*
X011779Y010240D01*
X012699Y011160D01*
X012810Y011271D01*
X012810Y011551D01*
X013339Y012080D01*
X014790Y012080D01*
X014790Y011371D01*
X014901Y011260D01*
X017241Y011260D01*
X017190Y011209D01*
X016801Y010820D01*
X013491Y010820D01*
X013462Y010891D01*
X013381Y010972D01*
X013277Y011015D01*
X013163Y011015D01*
X013059Y010972D01*
X012978Y010891D01*
X012935Y010787D01*
X012935Y010673D01*
X012978Y010569D01*
X013059Y010488D01*
X013084Y010478D01*
X013055Y010407D01*
X013055Y010293D01*
X013098Y010189D01*
X013179Y010108D01*
X013283Y010065D01*
X013397Y010065D01*
X013501Y010108D01*
X013582Y010189D01*
X013611Y010260D01*
X018499Y010260D01*
X018933Y010695D01*
X018983Y010576D01*
X019075Y010484D01*
X019195Y010434D01*
X019325Y010434D01*
X019445Y010484D01*
X019537Y010576D01*
X019587Y010696D01*
X019587Y010826D01*
X019537Y010946D01*
X019445Y011038D01*
X019325Y011088D01*
X019195Y011088D01*
X019150Y011070D01*
X019150Y011237D01*
X019202Y011289D01*
X019245Y011393D01*
X019245Y011507D01*
X019202Y011611D01*
X019121Y011692D01*
X019017Y011735D01*
X018903Y011735D01*
X018799Y011692D01*
X018718Y011611D01*
X018675Y011507D01*
X018675Y011393D01*
X018718Y011289D01*
X018770Y011237D01*
X018770Y011069D01*
X018341Y010640D01*
X017159Y010640D01*
X017399Y010880D01*
X017483Y010845D01*
X017597Y010845D01*
X017701Y010888D01*
X017782Y010969D01*
X017825Y011073D01*
X017825Y011187D01*
X017795Y011260D01*
X018339Y011260D01*
X018450Y011371D01*
X018450Y013769D01*
X018339Y013880D01*
X017459Y013880D01*
X017552Y013973D01*
X017657Y013930D01*
X017863Y013930D01*
X018055Y014009D01*
X018201Y014155D01*
X018261Y014302D01*
X018278Y014250D01*
X018315Y014177D01*
X018363Y014111D01*
X018421Y014053D01*
X018487Y014005D01*
X018560Y013968D01*
X018638Y013943D01*
X018710Y013931D01*
X018710Y014400D01*
X018810Y014400D01*
X018810Y013931D01*
X018882Y013943D01*
X018960Y013968D01*
X019033Y014005D01*
X019099Y014053D01*
X019157Y014111D01*
X019205Y014177D01*
X019242Y014250D01*
X019259Y014302D01*
X019319Y014155D01*
X019465Y014009D01*
X019657Y013930D01*
X019863Y013930D01*
X019951Y013966D01*
X019885Y013900D01*
X019613Y013900D01*
X019601Y013912D01*
X019497Y013955D01*
X019383Y013955D01*
X019279Y013912D01*
X019198Y013831D01*
X019155Y013727D01*
X019155Y013613D01*
X019198Y013509D01*
X019279Y013428D01*
X019383Y013385D01*
X019497Y013385D01*
X019601Y013428D01*
X019613Y013440D01*
X020075Y013440D01*
X020592Y013957D01*
X020657Y013930D01*
X020863Y013930D01*
X021055Y014009D01*
X021110Y014065D01*
X021110Y008835D01*
X021055Y008891D01*
X020863Y008970D01*
X020657Y008970D01*
X020592Y008943D01*
X020295Y009240D01*
X019839Y009240D01*
X020619Y010020D01*
X020730Y010131D01*
X020730Y010657D01*
X020782Y010709D01*
X020825Y010813D01*
X020825Y010927D01*
X020782Y011031D01*
X020733Y011080D01*
X020782Y011129D01*
X020825Y011233D01*
X020825Y011347D01*
X020782Y011451D01*
X020743Y011490D01*
X020782Y011529D01*
X020825Y011633D01*
X020825Y011747D01*
X020782Y011851D01*
X020701Y011932D01*
X020597Y011975D01*
X020483Y011975D01*
X020379Y011932D01*
X020298Y011851D01*
X020255Y011747D01*
X020255Y011674D01*
X019910Y011329D01*
X019910Y010329D01*
X019341Y009760D01*
X017939Y009760D01*
X017850Y009849D01*
X017739Y009960D01*
X016133Y009960D01*
X016081Y010012D01*
X016080Y010012D02*
X019593Y010012D01*
X019495Y009914D02*
X017785Y009914D01*
X017850Y009849D02*
X017850Y009849D01*
X017884Y009815D02*
X019396Y009815D01*
X019692Y010111D02*
X013504Y010111D01*
X013590Y010209D02*
X019790Y010209D01*
X019889Y010308D02*
X018546Y010308D01*
X018645Y010406D02*
X019910Y010406D01*
X019910Y010505D02*
X019466Y010505D01*
X019549Y010603D02*
X019910Y010603D01*
X019910Y010702D02*
X019587Y010702D01*
X019587Y010800D02*
X019910Y010800D01*
X019910Y010899D02*
X019557Y010899D01*
X019487Y010997D02*
X019910Y010997D01*
X019910Y011096D02*
X019150Y011096D01*
X019150Y011194D02*
X019910Y011194D01*
X019910Y011293D02*
X019203Y011293D01*
X019244Y011391D02*
X019972Y011391D01*
X020071Y011490D02*
X019245Y011490D01*
X019211Y011588D02*
X020169Y011588D01*
X020255Y011687D02*
X019127Y011687D01*
X019195Y011812D02*
X019075Y011862D01*
X018983Y011954D01*
X018933Y012074D01*
X018933Y012204D01*
X018983Y012324D01*
X019075Y012416D01*
X019195Y012466D01*
X019325Y012466D01*
X019445Y012416D01*
X019537Y012324D01*
X019587Y012204D01*
X019587Y012074D01*
X019537Y011954D01*
X019445Y011862D01*
X019325Y011812D01*
X019195Y011812D01*
X019053Y011884D02*
X018450Y011884D01*
X018450Y011982D02*
X018971Y011982D01*
X018933Y012081D02*
X018450Y012081D01*
X018450Y012179D02*
X018933Y012179D01*
X018963Y012278D02*
X018450Y012278D01*
X018450Y012376D02*
X019034Y012376D01*
X018793Y011687D02*
X018450Y011687D01*
X018450Y011785D02*
X020271Y011785D01*
X020330Y011884D02*
X019467Y011884D01*
X019549Y011982D02*
X021110Y011982D01*
X021110Y011884D02*
X020750Y011884D01*
X020809Y011785D02*
X021110Y011785D01*
X021110Y011687D02*
X020825Y011687D01*
X020806Y011588D02*
X021110Y011588D01*
X021110Y011490D02*
X020744Y011490D01*
X020807Y011391D02*
X021110Y011391D01*
X021110Y011293D02*
X020825Y011293D01*
X020809Y011194D02*
X021110Y011194D01*
X021110Y011096D02*
X020749Y011096D01*
X020796Y010997D02*
X021110Y010997D01*
X021110Y010899D02*
X020825Y010899D01*
X020819Y010800D02*
X021110Y010800D01*
X021110Y010702D02*
X020775Y010702D01*
X020730Y010603D02*
X021110Y010603D01*
X021110Y010505D02*
X020730Y010505D01*
X020730Y010406D02*
X021110Y010406D01*
X021110Y010308D02*
X020730Y010308D01*
X020730Y010209D02*
X021110Y010209D01*
X021110Y010111D02*
X020709Y010111D01*
X020611Y010012D02*
X021110Y010012D01*
X021110Y009914D02*
X020512Y009914D01*
X020414Y009815D02*
X021110Y009815D01*
X021110Y009717D02*
X020315Y009717D01*
X020217Y009618D02*
X021110Y009618D01*
X021110Y009520D02*
X020118Y009520D01*
X020020Y009421D02*
X021110Y009421D01*
X021110Y009323D02*
X019921Y009323D01*
X020311Y009224D02*
X021110Y009224D01*
X021110Y009126D02*
X020410Y009126D01*
X020508Y009027D02*
X021110Y009027D01*
X021110Y008929D02*
X020964Y008929D01*
X021102Y007057D02*
X021110Y007057D01*
X021110Y006959D02*
X020932Y006959D01*
X021110Y006860D02*
X020495Y006860D01*
X020397Y006762D02*
X021110Y006762D01*
X021110Y006663D02*
X020298Y006663D01*
X020200Y006565D02*
X021110Y006565D01*
X021110Y006466D02*
X020101Y006466D01*
X019943Y006959D02*
X019932Y006959D01*
X019588Y006959D02*
X018930Y006959D01*
X018810Y006959D02*
X018710Y006959D01*
X018710Y007057D02*
X018810Y007057D01*
X018810Y007156D02*
X018710Y007156D01*
X018710Y007254D02*
X018810Y007254D01*
X018810Y007353D02*
X018710Y007353D01*
X018590Y006959D02*
X017932Y006959D01*
X018102Y007057D02*
X018418Y007057D01*
X018331Y007156D02*
X018201Y007156D01*
X018242Y007254D02*
X018277Y007254D01*
X018359Y006860D02*
X019227Y006860D01*
X019169Y006762D02*
X018450Y006762D01*
X018450Y006663D02*
X019155Y006663D01*
X019175Y006565D02*
X018450Y006565D01*
X018450Y006466D02*
X019241Y006466D01*
X019102Y007057D02*
X019418Y007057D01*
X019319Y007156D02*
X019189Y007156D01*
X019243Y007254D02*
X019278Y007254D01*
X018450Y006368D02*
X021110Y006368D01*
X021110Y006269D02*
X018450Y006269D01*
X018450Y006171D02*
X021110Y006171D01*
X021110Y006072D02*
X018450Y006072D01*
X018450Y005974D02*
X021110Y005974D01*
X021110Y005875D02*
X018450Y005875D01*
X018450Y005777D02*
X021110Y005777D01*
X021110Y005678D02*
X018450Y005678D01*
X018450Y005580D02*
X021110Y005580D01*
X021110Y004890D02*
X020743Y004890D01*
X020806Y004792D02*
X021110Y004792D01*
X021110Y004693D02*
X020825Y004693D01*
X020809Y004595D02*
X021110Y004595D01*
X021110Y004496D02*
X020749Y004496D01*
X020804Y004398D02*
X021110Y004398D01*
X021110Y004299D02*
X020825Y004299D01*
X020811Y004201D02*
X021110Y004201D01*
X021110Y004102D02*
X020755Y004102D01*
X020793Y004004D02*
X021110Y004004D01*
X021110Y003905D02*
X020825Y003905D01*
X020822Y003807D02*
X021110Y003807D01*
X021110Y003708D02*
X020781Y003708D01*
X020730Y003610D02*
X021110Y003610D01*
X021110Y003511D02*
X020730Y003511D01*
X020730Y003413D02*
X021110Y003413D01*
X021110Y003314D02*
X020730Y003314D01*
X020730Y003216D02*
X021110Y003216D01*
X021110Y003117D02*
X020716Y003117D01*
X020617Y003019D02*
X021110Y003019D01*
X021110Y002920D02*
X020519Y002920D01*
X020420Y002822D02*
X021110Y002822D01*
X021110Y002723D02*
X020322Y002723D01*
X020223Y002625D02*
X021110Y002625D01*
X021110Y002526D02*
X020125Y002526D01*
X020026Y002428D02*
X021110Y002428D01*
X021110Y002329D02*
X019928Y002329D01*
X020305Y002231D02*
X021110Y002231D01*
X021110Y002132D02*
X020403Y002132D01*
X020502Y002034D02*
X021110Y002034D01*
X021110Y001935D02*
X020948Y001935D01*
X021109Y001837D02*
X021110Y001837D01*
X019501Y002920D02*
X017779Y002920D01*
X017877Y002822D02*
X019403Y002822D01*
X017588Y006959D02*
X017537Y006959D01*
X016081Y010012D02*
X015977Y010055D01*
X015863Y010055D01*
X015759Y010012D01*
X015760Y010012D02*
X010950Y010012D01*
X010950Y009914D02*
X015671Y009914D01*
X015678Y009931D02*
X015635Y009827D01*
X015635Y009754D01*
X015021Y009140D01*
X014705Y009140D01*
X014705Y009247D01*
X014662Y009351D01*
X014581Y009432D01*
X014477Y009475D01*
X014363Y009475D01*
X014259Y009432D01*
X014207Y009380D01*
X011079Y009380D01*
X010950Y009509D01*
X010950Y011057D01*
X011002Y011109D01*
X011045Y011213D01*
X011045Y011327D01*
X011002Y011431D01*
X010921Y011512D01*
X010817Y011555D01*
X010703Y011555D01*
X010599Y011512D01*
X010518Y011431D01*
X010475Y011327D01*
X010475Y011213D01*
X010518Y011109D01*
X010570Y011057D01*
X010570Y010721D01*
X010537Y010735D01*
X010423Y010735D01*
X010319Y010692D01*
X010238Y010611D01*
X010195Y010507D01*
X010195Y010393D01*
X010238Y010289D01*
X010290Y010237D01*
X010290Y009140D01*
X010290Y009224D02*
X007603Y009224D01*
X007504Y009126D02*
X008167Y009126D01*
X008068Y009027D02*
X007406Y009027D01*
X007307Y008929D02*
X007556Y008929D01*
X007405Y008830D02*
X007209Y008830D01*
X007206Y008732D02*
X007314Y008732D01*
X007273Y008633D02*
X007247Y008633D01*
X007964Y008929D02*
X007970Y008929D01*
X008941Y009323D02*
X010290Y009323D01*
X010290Y009421D02*
X009040Y009421D01*
X009138Y009520D02*
X010290Y009520D01*
X010290Y009618D02*
X009237Y009618D01*
X009335Y009717D02*
X010290Y009717D01*
X010290Y009815D02*
X009434Y009815D01*
X009532Y009914D02*
X010290Y009914D01*
X010290Y010012D02*
X009631Y010012D01*
X009729Y010111D02*
X010290Y010111D01*
X010290Y010209D02*
X009828Y010209D01*
X009926Y010308D02*
X010231Y010308D01*
X010195Y010406D02*
X010025Y010406D01*
X010123Y010505D02*
X010195Y010505D01*
X010222Y010603D02*
X010235Y010603D01*
X010230Y010702D02*
X010342Y010702D01*
X010230Y010800D02*
X010570Y010800D01*
X010570Y010899D02*
X010252Y010899D01*
X010310Y010997D02*
X010570Y010997D01*
X010531Y011096D02*
X010325Y011096D01*
X010305Y011194D02*
X010483Y011194D01*
X010475Y011293D02*
X010241Y011293D01*
X010045Y011391D02*
X010502Y011391D01*
X010576Y011490D02*
X010044Y011490D01*
X010003Y011588D02*
X011759Y011588D01*
X011694Y011687D02*
X009885Y011687D01*
X009749Y011785D02*
X011675Y011785D01*
X011690Y011884D02*
X009690Y011884D01*
X009501Y011982D02*
X011749Y011982D01*
X011982Y012081D02*
X010294Y012081D01*
X010374Y012179D02*
X011188Y012179D01*
X011106Y012278D02*
X010651Y012278D01*
X010733Y012376D02*
X011075Y012376D01*
X011078Y012475D02*
X010765Y012475D01*
X010762Y012573D02*
X011120Y012573D01*
X011247Y012672D02*
X010722Y012672D01*
X010597Y012770D02*
X011451Y012770D01*
X011490Y012869D02*
X008230Y012869D01*
X008132Y012967D02*
X011490Y012967D01*
X011490Y013066D02*
X008033Y013066D01*
X007890Y012672D02*
X004067Y012672D01*
X003969Y012770D02*
X004491Y012770D01*
X004393Y012869D02*
X003870Y012869D01*
X003772Y012967D02*
X004294Y012967D01*
X004196Y013066D02*
X003725Y013066D01*
X003693Y013164D02*
X004097Y013164D01*
X004070Y013263D02*
X003611Y013263D01*
X003269Y013263D02*
X002245Y013263D01*
X002280Y013361D02*
X004070Y013361D01*
X004070Y013460D02*
X002280Y013460D01*
X002278Y013558D02*
X004070Y013558D01*
X004070Y013657D02*
X002237Y013657D01*
X002190Y013755D02*
X004070Y013755D01*
X004070Y013854D02*
X002092Y013854D01*
X002096Y014051D02*
X002424Y014051D01*
X002326Y014149D02*
X002194Y014149D01*
X002239Y014248D02*
X002281Y014248D01*
X002603Y013952D02*
X001917Y013952D01*
X002204Y013164D02*
X003187Y013164D01*
X003155Y013066D02*
X002111Y013066D01*
X001953Y012967D02*
X003158Y012967D01*
X003198Y012869D02*
X002985Y012869D01*
X002615Y012869D02*
X002069Y012869D01*
X002170Y012770D02*
X002541Y012770D01*
X002515Y012672D02*
X002231Y012672D01*
X002267Y012573D02*
X002523Y012573D01*
X002572Y012475D02*
X001810Y012475D01*
X002126Y012081D02*
X003761Y012081D01*
X003795Y011982D02*
X001987Y011982D01*
X002062Y011884D02*
X003832Y011884D01*
X003927Y011785D02*
X002160Y011785D01*
X002225Y011687D02*
X002528Y011687D01*
X002429Y011588D02*
X002266Y011588D01*
X002280Y011490D02*
X002331Y011490D01*
X002206Y012179D02*
X003662Y012179D01*
X003564Y012278D02*
X002251Y012278D01*
X002275Y012376D02*
X002717Y012376D01*
X002883Y012376D02*
X003465Y012376D01*
X004166Y012573D02*
X007988Y012573D01*
X008035Y012475D02*
X006644Y012475D01*
X006743Y012376D02*
X008067Y012376D01*
X008149Y012278D02*
X006967Y012278D01*
X007067Y012179D02*
X008880Y012179D01*
X008782Y012081D02*
X008480Y012081D01*
X008586Y011982D02*
X008683Y011982D01*
X008491Y012278D02*
X008979Y012278D01*
X009077Y012376D02*
X008573Y012376D01*
X008605Y012475D02*
X009176Y012475D01*
X009274Y012573D02*
X008602Y012573D01*
X008562Y012672D02*
X009373Y012672D01*
X009471Y012770D02*
X008437Y012770D01*
X008200Y012081D02*
X007105Y012081D01*
X007105Y011982D02*
X008094Y011982D01*
X009599Y012081D02*
X009946Y012081D01*
X010944Y011490D02*
X011944Y011490D01*
X011935Y011391D02*
X011018Y011391D01*
X011045Y011293D02*
X011960Y011293D01*
X012033Y011194D02*
X011037Y011194D01*
X010989Y011096D02*
X012097Y011096D01*
X011998Y010997D02*
X010950Y010997D01*
X010950Y010899D02*
X011900Y010899D01*
X011801Y010800D02*
X010950Y010800D01*
X010950Y010702D02*
X011291Y010702D01*
X011150Y010603D02*
X010950Y010603D01*
X010950Y010505D02*
X011102Y010505D01*
X011095Y010406D02*
X010950Y010406D01*
X010950Y010308D02*
X011122Y010308D01*
X011198Y010209D02*
X010950Y010209D01*
X010950Y010111D02*
X013176Y010111D01*
X013090Y010209D02*
X011562Y010209D01*
X011846Y010308D02*
X013055Y010308D01*
X013055Y010406D02*
X011945Y010406D01*
X012043Y010505D02*
X013042Y010505D01*
X012964Y010603D02*
X012142Y010603D01*
X012240Y010702D02*
X012935Y010702D01*
X012941Y010800D02*
X012339Y010800D01*
X012437Y010899D02*
X012985Y010899D01*
X013120Y010997D02*
X012536Y010997D01*
X012634Y011096D02*
X017077Y011096D01*
X017175Y011194D02*
X012733Y011194D01*
X012810Y011293D02*
X014869Y011293D01*
X014790Y011391D02*
X012810Y011391D01*
X012810Y011490D02*
X014790Y011490D01*
X014790Y011588D02*
X012847Y011588D01*
X012945Y011687D02*
X014790Y011687D01*
X014790Y011785D02*
X013044Y011785D01*
X013142Y011884D02*
X014790Y011884D01*
X014790Y011982D02*
X013241Y011982D01*
X013320Y010997D02*
X016978Y010997D01*
X016880Y010899D02*
X013455Y010899D01*
X014248Y009421D02*
X011038Y009421D01*
X010950Y009520D02*
X015401Y009520D01*
X015499Y009618D02*
X010950Y009618D01*
X010950Y009717D02*
X015598Y009717D01*
X015635Y009815D02*
X010950Y009815D01*
X011469Y010702D02*
X011703Y010702D01*
X011532Y012179D02*
X012080Y012179D01*
X012179Y012278D02*
X011614Y012278D01*
X011645Y012376D02*
X012270Y012376D01*
X012270Y012475D02*
X011693Y012475D01*
X011792Y012573D02*
X012270Y012573D01*
X012270Y012672D02*
X011870Y012672D01*
X011870Y012770D02*
X012270Y012770D01*
X012270Y012869D02*
X011870Y012869D01*
X011870Y012967D02*
X012270Y012967D01*
X012270Y013066D02*
X011870Y013066D01*
X011870Y013164D02*
X012270Y013164D01*
X012270Y013263D02*
X011870Y013263D01*
X011870Y013361D02*
X012270Y013361D01*
X012270Y013460D02*
X011819Y013460D01*
X011721Y013558D02*
X012270Y013558D01*
X012270Y013657D02*
X011622Y013657D01*
X011524Y013755D02*
X012316Y013755D01*
X012415Y013854D02*
X011425Y013854D01*
X011327Y013952D02*
X011603Y013952D01*
X011424Y014051D02*
X011228Y014051D01*
X011194Y014149D02*
X011326Y014149D01*
X011281Y014248D02*
X011239Y014248D01*
X010986Y013755D02*
X005534Y013755D01*
X005435Y013657D02*
X011085Y013657D01*
X011183Y013558D02*
X005337Y013558D01*
X005238Y013460D02*
X011282Y013460D01*
X011380Y013361D02*
X005140Y013361D01*
X005045Y013263D02*
X005813Y013263D01*
X005671Y013164D02*
X005033Y013164D01*
X005987Y013263D02*
X011479Y013263D01*
X011490Y013164D02*
X006129Y013164D01*
X007260Y015602D02*
X007201Y015745D01*
X007162Y015783D01*
X007619Y016240D01*
X008859Y016240D01*
X010119Y017500D01*
X010230Y017611D01*
X010230Y017877D01*
X010282Y017929D01*
X010325Y018033D01*
X010325Y018147D01*
X010282Y018251D01*
X010201Y018332D01*
X010097Y018375D01*
X010045Y018375D01*
X010045Y018487D01*
X010002Y018591D01*
X009921Y018672D01*
X009817Y018715D01*
X009765Y018715D01*
X009765Y018747D01*
X009722Y018851D01*
X009641Y018932D01*
X009537Y018975D01*
X009494Y018975D01*
X009639Y019120D01*
X009907Y019120D01*
X009959Y019068D01*
X010063Y019025D01*
X010177Y019025D01*
X010281Y019068D01*
X010362Y019149D01*
X010398Y019236D01*
X010423Y019225D01*
X010537Y019225D01*
X010641Y019268D01*
X010722Y019349D01*
X010765Y019453D01*
X010765Y019567D01*
X010722Y019671D01*
X010641Y019752D01*
X010537Y019795D01*
X010464Y019795D01*
X010459Y019800D01*
X009501Y019800D01*
X008614Y018913D01*
X008582Y018991D01*
X008501Y019072D01*
X008397Y019115D01*
X008283Y019115D01*
X008179Y019072D01*
X008098Y018991D01*
X008077Y018940D01*
X007091Y018940D01*
X007105Y018973D01*
X007105Y019087D01*
X007062Y019191D01*
X006981Y019272D01*
X006877Y019315D01*
X006804Y019315D01*
X006579Y019540D01*
X004199Y019540D01*
X003725Y020014D01*
X003725Y020087D01*
X003682Y020191D01*
X003601Y020272D01*
X003497Y020315D01*
X003383Y020315D01*
X003279Y020272D01*
X003198Y020191D01*
X003155Y020087D01*
X003155Y019973D01*
X003198Y019869D01*
X003227Y019840D01*
X003013Y019840D01*
X002961Y019892D01*
X002857Y019935D01*
X002743Y019935D01*
X002639Y019892D01*
X002558Y019811D01*
X002515Y019707D01*
X002515Y019593D01*
X002558Y019489D01*
X002639Y019408D01*
X002743Y019365D01*
X002857Y019365D01*
X002961Y019408D01*
X003013Y019460D01*
X003381Y019460D01*
X003795Y019046D01*
X003795Y018973D01*
X003838Y018869D01*
X003919Y018788D01*
X003987Y018760D01*
X002601Y018760D01*
X002490Y018649D01*
X002280Y018439D01*
X002280Y018553D01*
X002201Y018745D01*
X002055Y018891D01*
X001908Y018951D01*
X001960Y018968D01*
X002033Y019005D01*
X002099Y019053D01*
X002157Y019111D01*
X002205Y019177D01*
X002242Y019250D01*
X002267Y019328D01*
X002279Y019400D01*
X001810Y019400D01*
X001810Y019500D01*
X002279Y019500D01*
X002267Y019572D01*
X002242Y019650D01*
X002205Y019723D01*
X002157Y019789D01*
X002099Y019847D01*
X002033Y019895D01*
X001960Y019932D01*
X001908Y019949D01*
X002055Y020009D01*
X002201Y020155D01*
X002280Y020347D01*
X002280Y020553D01*
X002201Y020745D01*
X002055Y020891D01*
X001912Y020950D01*
X002055Y021009D01*
X002201Y021155D01*
X002260Y021298D01*
X002319Y021155D01*
X002465Y021009D01*
X002657Y020930D01*
X002863Y020930D01*
X003055Y021009D01*
X003201Y021155D01*
X003260Y021298D01*
X003319Y021155D01*
X003465Y021009D01*
X003657Y020930D01*
X003863Y020930D01*
X003968Y020973D01*
X004070Y020871D01*
X004070Y020191D01*
X004561Y019700D01*
X007861Y019700D01*
X008035Y019526D01*
X008035Y019453D01*
X008078Y019349D01*
X008159Y019268D01*
X008263Y019225D01*
X008377Y019225D01*
X008481Y019268D01*
X008562Y019349D01*
X008605Y019453D01*
X008605Y019567D01*
X008562Y019671D01*
X008481Y019752D01*
X008377Y019795D01*
X008304Y019795D01*
X008019Y020080D01*
X006171Y020080D01*
X006142Y020151D01*
X006061Y020232D01*
X005957Y020275D01*
X005843Y020275D01*
X005739Y020232D01*
X005658Y020151D01*
X005629Y020080D01*
X004993Y020080D01*
X005002Y020089D01*
X005045Y020193D01*
X005045Y020266D01*
X005539Y020760D01*
X010981Y020760D01*
X011490Y020251D01*
X011490Y019809D01*
X011376Y019695D01*
X011303Y019695D01*
X011199Y019652D01*
X011118Y019571D01*
X011075Y019467D01*
X011075Y019353D01*
X011118Y019249D01*
X011199Y019168D01*
X011303Y019125D01*
X011417Y019125D01*
X011521Y019168D01*
X011602Y019249D01*
X011645Y019353D01*
X011645Y019426D01*
X011870Y019651D01*
X011870Y020409D01*
X011759Y020520D01*
X011162Y021117D01*
X011201Y021155D01*
X011260Y021298D01*
X011319Y021155D01*
X011465Y021009D01*
X011657Y020930D01*
X011863Y020930D01*
X012055Y021009D01*
X012201Y021155D01*
X012260Y021298D01*
X012319Y021155D01*
X012465Y021009D01*
X012540Y020978D01*
X012381Y020820D01*
X012270Y020709D01*
X012270Y019369D01*
X011976Y019075D01*
X011903Y019075D01*
X011799Y019032D01*
X011718Y018951D01*
X011675Y018847D01*
X011675Y018733D01*
X011718Y018629D01*
X011799Y018548D01*
X011903Y018505D01*
X011951Y018505D01*
X011935Y018467D01*
X011935Y018353D01*
X011978Y018249D01*
X012059Y018168D01*
X012137Y018136D01*
X011621Y017620D01*
X011593Y017620D01*
X011541Y017672D01*
X011437Y017715D01*
X011323Y017715D01*
X011219Y017672D01*
X011138Y017591D01*
X011095Y017487D01*
X011095Y017373D01*
X011138Y017269D01*
X011219Y017188D01*
X011323Y017145D01*
X011437Y017145D01*
X011541Y017188D01*
X011593Y017240D01*
X011779Y017240D01*
X012699Y018160D01*
X012810Y018271D01*
X012810Y018551D01*
X013339Y019080D01*
X014790Y019080D01*
X014790Y018371D01*
X014901Y018260D01*
X017241Y018260D01*
X017190Y018209D01*
X016801Y017820D01*
X013491Y017820D01*
X013462Y017891D01*
X013381Y017972D01*
X013277Y018015D01*
X013163Y018015D01*
X013059Y017972D01*
X012978Y017891D01*
X012935Y017787D01*
X012935Y017673D01*
X012978Y017569D01*
X013059Y017488D01*
X013084Y017478D01*
X013055Y017407D01*
X013055Y017293D01*
X013098Y017189D01*
X013179Y017108D01*
X013283Y017065D01*
X013397Y017065D01*
X013501Y017108D01*
X013582Y017189D01*
X013611Y017260D01*
X018499Y017260D01*
X018933Y017695D01*
X018983Y017576D01*
X019075Y017484D01*
X019195Y017434D01*
X019325Y017434D01*
X019445Y017484D01*
X019537Y017576D01*
X019587Y017696D01*
X019587Y017826D01*
X019537Y017946D01*
X019445Y018038D01*
X019325Y018088D01*
X019195Y018088D01*
X019150Y018070D01*
X019150Y018237D01*
X019202Y018289D01*
X019245Y018393D01*
X019245Y018507D01*
X019202Y018611D01*
X019121Y018692D01*
X019017Y018735D01*
X018903Y018735D01*
X018799Y018692D01*
X018718Y018611D01*
X018675Y018507D01*
X018675Y018393D01*
X018718Y018289D01*
X018770Y018237D01*
X018770Y018069D01*
X018341Y017640D01*
X017159Y017640D01*
X017399Y017880D01*
X017483Y017845D01*
X017597Y017845D01*
X017701Y017888D01*
X017782Y017969D01*
X017825Y018073D01*
X017825Y018187D01*
X017795Y018260D01*
X018339Y018260D01*
X018450Y018371D01*
X018450Y020769D01*
X018339Y020880D01*
X017459Y020880D01*
X017552Y020973D01*
X017657Y020930D01*
X017863Y020930D01*
X018055Y021009D01*
X018201Y021155D01*
X018261Y021302D01*
X018278Y021250D01*
X018315Y021177D01*
X018363Y021111D01*
X018421Y021053D01*
X018487Y021005D01*
X018560Y020968D01*
X018638Y020943D01*
X018710Y020931D01*
X018710Y021400D01*
X018810Y021400D01*
X018810Y020931D01*
X018882Y020943D01*
X018960Y020968D01*
X019033Y021005D01*
X019099Y021053D01*
X019157Y021111D01*
X019205Y021177D01*
X019242Y021250D01*
X019259Y021302D01*
X019319Y021155D01*
X019465Y021009D01*
X019657Y020930D01*
X019863Y020930D01*
X019951Y020966D01*
X019885Y020900D01*
X019613Y020900D01*
X019601Y020912D01*
X019497Y020955D01*
X019383Y020955D01*
X019279Y020912D01*
X019198Y020831D01*
X019155Y020727D01*
X019155Y020613D01*
X019198Y020509D01*
X019279Y020428D01*
X019383Y020385D01*
X019497Y020385D01*
X019601Y020428D01*
X019613Y020440D01*
X020075Y020440D01*
X020592Y020957D01*
X020657Y020930D01*
X020863Y020930D01*
X021055Y021009D01*
X021110Y021065D01*
X021110Y015835D01*
X021055Y015891D01*
X020863Y015970D01*
X020657Y015970D01*
X020592Y015943D01*
X020295Y016240D01*
X019839Y016240D01*
X020619Y017020D01*
X020730Y017131D01*
X020730Y017657D01*
X020782Y017709D01*
X020825Y017813D01*
X020825Y017927D01*
X020782Y018031D01*
X020733Y018080D01*
X020782Y018129D01*
X020825Y018233D01*
X020825Y018347D01*
X020782Y018451D01*
X020743Y018490D01*
X020782Y018529D01*
X020825Y018633D01*
X020825Y018747D01*
X020782Y018851D01*
X020701Y018932D01*
X020597Y018975D01*
X020483Y018975D01*
X020379Y018932D01*
X020298Y018851D01*
X020255Y018747D01*
X020255Y018674D01*
X019910Y018329D01*
X019910Y017329D01*
X019341Y016760D01*
X017939Y016760D01*
X017850Y016849D01*
X017739Y016960D01*
X016133Y016960D01*
X016081Y017012D01*
X015977Y017055D01*
X015863Y017055D01*
X015759Y017012D01*
X015678Y016931D01*
X015635Y016827D01*
X015635Y016754D01*
X015021Y016140D01*
X014705Y016140D01*
X014705Y016247D01*
X014662Y016351D01*
X014581Y016432D01*
X014477Y016475D01*
X014363Y016475D01*
X014259Y016432D01*
X014207Y016380D01*
X011079Y016380D01*
X010950Y016509D01*
X010950Y018057D01*
X011002Y018109D01*
X011045Y018213D01*
X011045Y018327D01*
X011002Y018431D01*
X010921Y018512D01*
X010817Y018555D01*
X010703Y018555D01*
X010599Y018512D01*
X010518Y018431D01*
X010475Y018327D01*
X010475Y018213D01*
X010518Y018109D01*
X010570Y018057D01*
X010570Y017721D01*
X010537Y017735D01*
X010423Y017735D01*
X010319Y017692D01*
X010238Y017611D01*
X010195Y017507D01*
X010195Y017393D01*
X010238Y017289D01*
X010290Y017237D01*
X010290Y016140D01*
X008181Y016140D01*
X008070Y016029D01*
X007968Y015927D01*
X007863Y015970D01*
X007657Y015970D01*
X007465Y015891D01*
X007319Y015745D01*
X007260Y015602D01*
X007250Y015627D02*
X007270Y015627D01*
X007311Y015725D02*
X007209Y015725D01*
X007202Y015824D02*
X007398Y015824D01*
X007301Y015922D02*
X007541Y015922D01*
X007399Y016021D02*
X008062Y016021D01*
X008160Y016119D02*
X007498Y016119D01*
X007596Y016218D02*
X010290Y016218D01*
X010290Y016316D02*
X008935Y016316D01*
X009033Y016415D02*
X010290Y016415D01*
X010290Y016513D02*
X009132Y016513D01*
X009230Y016612D02*
X010290Y016612D01*
X010290Y016710D02*
X009329Y016710D01*
X009427Y016809D02*
X010290Y016809D01*
X010290Y016907D02*
X009526Y016907D01*
X009624Y017006D02*
X010290Y017006D01*
X010290Y017104D02*
X009723Y017104D01*
X009821Y017203D02*
X010290Y017203D01*
X010233Y017301D02*
X009920Y017301D01*
X010018Y017400D02*
X010195Y017400D01*
X010195Y017498D02*
X010117Y017498D01*
X010215Y017597D02*
X010232Y017597D01*
X010230Y017695D02*
X010327Y017695D01*
X010230Y017794D02*
X010570Y017794D01*
X010570Y017892D02*
X010245Y017892D01*
X010307Y017991D02*
X010570Y017991D01*
X010538Y018089D02*
X010325Y018089D01*
X010308Y018188D02*
X010486Y018188D01*
X010475Y018286D02*
X010247Y018286D01*
X010045Y018385D02*
X010499Y018385D01*
X010570Y018483D02*
X010045Y018483D01*
X010006Y018582D02*
X011765Y018582D01*
X011697Y018680D02*
X009901Y018680D01*
X009752Y018779D02*
X011675Y018779D01*
X011688Y018877D02*
X009696Y018877D01*
X009593Y019074D02*
X009953Y019074D01*
X010287Y019074D02*
X011901Y019074D01*
X011742Y018976D02*
X009494Y018976D01*
X009366Y019665D02*
X008564Y019665D01*
X008605Y019567D02*
X009268Y019567D01*
X009169Y019468D02*
X008605Y019468D01*
X008570Y019370D02*
X009071Y019370D01*
X008972Y019271D02*
X008484Y019271D01*
X008496Y019074D02*
X008775Y019074D01*
X008677Y018976D02*
X008588Y018976D01*
X008874Y019173D02*
X007069Y019173D01*
X007105Y019074D02*
X008184Y019074D01*
X008092Y018976D02*
X007105Y018976D01*
X006982Y019271D02*
X008156Y019271D01*
X008070Y019370D02*
X006749Y019370D01*
X006651Y019468D02*
X008035Y019468D01*
X007995Y019567D02*
X004172Y019567D01*
X004074Y019665D02*
X007896Y019665D01*
X008138Y019961D02*
X011490Y019961D01*
X011490Y020059D02*
X008040Y020059D01*
X008237Y019862D02*
X011490Y019862D01*
X011445Y019764D02*
X010613Y019764D01*
X010724Y019665D02*
X011231Y019665D01*
X011116Y019567D02*
X010765Y019567D01*
X010765Y019468D02*
X011076Y019468D01*
X011075Y019370D02*
X010730Y019370D01*
X010644Y019271D02*
X011109Y019271D01*
X011194Y019173D02*
X010372Y019173D01*
X010950Y018483D02*
X011942Y018483D01*
X011935Y018385D02*
X011021Y018385D01*
X011045Y018286D02*
X011963Y018286D01*
X012039Y018188D02*
X011034Y018188D01*
X010982Y018089D02*
X012090Y018089D01*
X011992Y017991D02*
X010950Y017991D01*
X010950Y017892D02*
X011893Y017892D01*
X011795Y017794D02*
X010950Y017794D01*
X010950Y017695D02*
X011275Y017695D01*
X011143Y017597D02*
X010950Y017597D01*
X010950Y017498D02*
X011100Y017498D01*
X011095Y017400D02*
X010950Y017400D01*
X010950Y017301D02*
X011125Y017301D01*
X011204Y017203D02*
X010950Y017203D01*
X010950Y017104D02*
X013189Y017104D01*
X013093Y017203D02*
X011556Y017203D01*
X011840Y017301D02*
X013055Y017301D01*
X013055Y017400D02*
X011938Y017400D01*
X012037Y017498D02*
X013049Y017498D01*
X012967Y017597D02*
X012135Y017597D01*
X012234Y017695D02*
X012935Y017695D01*
X012938Y017794D02*
X012332Y017794D01*
X012431Y017892D02*
X012979Y017892D01*
X013104Y017991D02*
X012529Y017991D01*
X012628Y018089D02*
X017070Y018089D01*
X016972Y017991D02*
X013336Y017991D01*
X013461Y017892D02*
X016873Y017892D01*
X017214Y017695D02*
X018396Y017695D01*
X018495Y017794D02*
X017312Y017794D01*
X017169Y018188D02*
X012726Y018188D01*
X012810Y018286D02*
X014875Y018286D01*
X014790Y018385D02*
X012810Y018385D01*
X012810Y018483D02*
X014790Y018483D01*
X014790Y018582D02*
X012840Y018582D01*
X012939Y018680D02*
X014790Y018680D01*
X014790Y018779D02*
X013037Y018779D01*
X013136Y018877D02*
X014790Y018877D01*
X014790Y018976D02*
X013234Y018976D01*
X013333Y019074D02*
X014790Y019074D01*
X013587Y017203D02*
X019784Y017203D01*
X019882Y017301D02*
X018540Y017301D01*
X018638Y017400D02*
X019910Y017400D01*
X019910Y017498D02*
X019460Y017498D01*
X019546Y017597D02*
X019910Y017597D01*
X019910Y017695D02*
X019587Y017695D01*
X019587Y017794D02*
X019910Y017794D01*
X019910Y017892D02*
X019560Y017892D01*
X019493Y017991D02*
X019910Y017991D01*
X019910Y018089D02*
X019150Y018089D01*
X019150Y018188D02*
X019910Y018188D01*
X019910Y018286D02*
X019199Y018286D01*
X019241Y018385D02*
X019966Y018385D01*
X020064Y018483D02*
X019245Y018483D01*
X019214Y018582D02*
X020163Y018582D01*
X020255Y018680D02*
X019133Y018680D01*
X019195Y018812D02*
X019075Y018862D01*
X018983Y018954D01*
X018933Y019074D01*
X018450Y019074D01*
X018450Y018976D02*
X018974Y018976D01*
X018933Y019074D02*
X018933Y019204D01*
X018983Y019324D01*
X019075Y019416D01*
X019195Y019466D01*
X019325Y019466D01*
X019445Y019416D01*
X019537Y019324D01*
X019587Y019204D01*
X019587Y019074D01*
X021110Y019074D01*
X021110Y018976D02*
X019546Y018976D01*
X019537Y018954D02*
X019587Y019074D01*
X019587Y019173D02*
X021110Y019173D01*
X021110Y019271D02*
X019559Y019271D01*
X019492Y019370D02*
X021110Y019370D01*
X021110Y019468D02*
X018450Y019468D01*
X018450Y019370D02*
X019028Y019370D01*
X018961Y019271D02*
X018450Y019271D01*
X018450Y019173D02*
X018933Y019173D01*
X019059Y018877D02*
X018450Y018877D01*
X018450Y018779D02*
X020268Y018779D01*
X020324Y018877D02*
X019461Y018877D01*
X019445Y018862D02*
X019537Y018954D01*
X019445Y018862D02*
X019325Y018812D01*
X019195Y018812D01*
X018787Y018680D02*
X018450Y018680D01*
X018450Y018582D02*
X018706Y018582D01*
X018675Y018483D02*
X018450Y018483D01*
X018450Y018385D02*
X018679Y018385D01*
X018721Y018286D02*
X018365Y018286D01*
X018692Y017991D02*
X017791Y017991D01*
X017825Y018089D02*
X018770Y018089D01*
X018770Y018188D02*
X017825Y018188D01*
X017705Y017892D02*
X018593Y017892D01*
X018835Y017597D02*
X018974Y017597D01*
X019060Y017498D02*
X018737Y017498D01*
X019390Y016809D02*
X017890Y016809D01*
X017792Y016907D02*
X019488Y016907D01*
X019587Y017006D02*
X016088Y017006D01*
X015752Y017006D02*
X010950Y017006D01*
X010950Y016907D02*
X015668Y016907D01*
X015635Y016809D02*
X010950Y016809D01*
X010950Y016710D02*
X015591Y016710D01*
X015493Y016612D02*
X010950Y016612D01*
X010950Y016513D02*
X015394Y016513D01*
X015296Y016415D02*
X014599Y016415D01*
X014676Y016316D02*
X015197Y016316D01*
X015099Y016218D02*
X014705Y016218D01*
X014241Y016415D02*
X011044Y016415D01*
X011485Y017695D02*
X011696Y017695D01*
X011526Y019173D02*
X012074Y019173D01*
X012172Y019271D02*
X011611Y019271D01*
X011645Y019370D02*
X012270Y019370D01*
X012270Y019468D02*
X011687Y019468D01*
X011785Y019567D02*
X012270Y019567D01*
X012270Y019665D02*
X011870Y019665D01*
X011870Y019764D02*
X012270Y019764D01*
X012270Y019862D02*
X011870Y019862D01*
X011870Y019961D02*
X012270Y019961D01*
X012270Y020059D02*
X011870Y020059D01*
X011870Y020158D02*
X012270Y020158D01*
X012270Y020256D02*
X011870Y020256D01*
X011870Y020355D02*
X012270Y020355D01*
X012270Y020453D02*
X011826Y020453D01*
X011727Y020552D02*
X012270Y020552D01*
X012270Y020650D02*
X011629Y020650D01*
X011530Y020749D02*
X012310Y020749D01*
X012381Y020820D02*
X012381Y020820D01*
X012408Y020847D02*
X011432Y020847D01*
X011333Y020946D02*
X011619Y020946D01*
X011431Y021044D02*
X011235Y021044D01*
X011188Y021143D02*
X011332Y021143D01*
X011284Y021241D02*
X011236Y021241D01*
X010993Y020749D02*
X005527Y020749D01*
X005429Y020650D02*
X011091Y020650D01*
X011190Y020552D02*
X005330Y020552D01*
X005232Y020453D02*
X011288Y020453D01*
X011387Y020355D02*
X005133Y020355D01*
X005045Y020256D02*
X005798Y020256D01*
X005664Y020158D02*
X005030Y020158D01*
X004498Y019764D02*
X003975Y019764D01*
X003877Y019862D02*
X004399Y019862D01*
X004301Y019961D02*
X003778Y019961D01*
X003725Y020059D02*
X004202Y020059D01*
X004104Y020158D02*
X003696Y020158D01*
X003617Y020256D02*
X004070Y020256D01*
X004070Y020355D02*
X002280Y020355D01*
X002280Y020453D02*
X004070Y020453D01*
X004070Y020552D02*
X002280Y020552D01*
X002240Y020650D02*
X004070Y020650D01*
X004070Y020749D02*
X002197Y020749D01*
X002098Y020847D02*
X004070Y020847D01*
X003996Y020946D02*
X003901Y020946D01*
X003619Y020946D02*
X002901Y020946D01*
X003089Y021044D02*
X003431Y021044D01*
X003332Y021143D02*
X003188Y021143D01*
X003236Y021241D02*
X003284Y021241D01*
X002619Y020946D02*
X001922Y020946D01*
X002089Y021044D02*
X002431Y021044D01*
X002332Y021143D02*
X002188Y021143D01*
X002236Y021241D02*
X002284Y021241D01*
X002243Y020256D02*
X003263Y020256D01*
X003184Y020158D02*
X002202Y020158D01*
X002104Y020059D02*
X003155Y020059D01*
X003160Y019961D02*
X001937Y019961D01*
X002078Y019862D02*
X002609Y019862D01*
X002539Y019764D02*
X002175Y019764D01*
X002234Y019665D02*
X002515Y019665D01*
X002526Y019567D02*
X002268Y019567D01*
X002274Y019370D02*
X002732Y019370D01*
X002868Y019370D02*
X003472Y019370D01*
X003570Y019271D02*
X002249Y019271D01*
X002201Y019173D02*
X003669Y019173D01*
X003767Y019074D02*
X002119Y019074D01*
X001974Y018976D02*
X003795Y018976D01*
X003835Y018877D02*
X002068Y018877D01*
X002167Y018779D02*
X003942Y018779D01*
X003205Y019862D02*
X002991Y019862D01*
X002579Y019468D02*
X001810Y019468D01*
X002228Y018680D02*
X002521Y018680D01*
X002423Y018582D02*
X002268Y018582D01*
X002280Y018483D02*
X002324Y018483D01*
X003239Y014248D02*
X003281Y014248D01*
X003326Y014149D02*
X003194Y014149D01*
X003096Y014051D02*
X003424Y014051D01*
X003603Y013952D02*
X002917Y013952D01*
X003917Y013952D02*
X003989Y013952D01*
X006136Y020158D02*
X011490Y020158D01*
X011485Y020256D02*
X006002Y020256D01*
X007260Y022602D02*
X007201Y022745D01*
X007162Y022783D01*
X007619Y023240D01*
X008859Y023240D01*
X010119Y024500D01*
X010230Y024611D01*
X010230Y024877D01*
X010282Y024929D01*
X010325Y025033D01*
X010325Y025147D01*
X010282Y025251D01*
X010201Y025332D01*
X010097Y025375D01*
X010045Y025375D01*
X010045Y025487D01*
X010002Y025591D01*
X009921Y025672D01*
X009817Y025715D01*
X009765Y025715D01*
X009765Y025747D01*
X009722Y025851D01*
X009641Y025932D01*
X009537Y025975D01*
X009494Y025975D01*
X009639Y026120D01*
X009907Y026120D01*
X009959Y026068D01*
X010063Y026025D01*
X010177Y026025D01*
X010281Y026068D01*
X010362Y026149D01*
X010398Y026236D01*
X010423Y026225D01*
X010537Y026225D01*
X010641Y026268D01*
X010722Y026349D01*
X010765Y026453D01*
X010765Y026567D01*
X010722Y026671D01*
X010641Y026752D01*
X010537Y026795D01*
X010464Y026795D01*
X010459Y026800D01*
X009501Y026800D01*
X008614Y025913D01*
X008582Y025991D01*
X008501Y026072D01*
X008397Y026115D01*
X008283Y026115D01*
X008179Y026072D01*
X008098Y025991D01*
X008077Y025940D01*
X007091Y025940D01*
X007105Y025973D01*
X007105Y026087D01*
X007062Y026191D01*
X006981Y026272D01*
X006877Y026315D01*
X006804Y026315D01*
X006579Y026540D01*
X004199Y026540D01*
X003725Y027014D01*
X003725Y027087D01*
X003682Y027191D01*
X003601Y027272D01*
X003497Y027315D01*
X003383Y027315D01*
X003279Y027272D01*
X003198Y027191D01*
X003155Y027087D01*
X003155Y026973D01*
X003198Y026869D01*
X003227Y026840D01*
X003013Y026840D01*
X002961Y026892D01*
X002857Y026935D01*
X002743Y026935D01*
X002639Y026892D01*
X002558Y026811D01*
X002515Y026707D01*
X002515Y026593D01*
X002558Y026489D01*
X002639Y026408D01*
X002743Y026365D01*
X002857Y026365D01*
X002961Y026408D01*
X003013Y026460D01*
X003381Y026460D01*
X003795Y026046D01*
X003795Y025973D01*
X003838Y025869D01*
X003919Y025788D01*
X003987Y025760D01*
X002601Y025760D01*
X002490Y025649D01*
X002280Y025439D01*
X002280Y025553D01*
X002201Y025745D01*
X002055Y025891D01*
X001908Y025951D01*
X001960Y025968D01*
X002033Y026005D01*
X002099Y026053D01*
X002157Y026111D01*
X002205Y026177D01*
X002242Y026250D01*
X002267Y026328D01*
X002279Y026400D01*
X001810Y026400D01*
X001810Y026500D01*
X002279Y026500D01*
X002267Y026572D01*
X002242Y026650D01*
X002205Y026723D01*
X002157Y026789D01*
X002099Y026847D01*
X002033Y026895D01*
X001960Y026932D01*
X001908Y026949D01*
X002055Y027009D01*
X002201Y027155D01*
X002280Y027347D01*
X002280Y027553D01*
X002201Y027745D01*
X002055Y027891D01*
X001912Y027950D01*
X002055Y028009D01*
X002201Y028155D01*
X002260Y028298D01*
X002319Y028155D01*
X002465Y028009D01*
X002657Y027930D01*
X002863Y027930D01*
X003055Y028009D01*
X003201Y028155D01*
X003260Y028298D01*
X003319Y028155D01*
X003465Y028009D01*
X003657Y027930D01*
X003863Y027930D01*
X003968Y027973D01*
X004070Y027871D01*
X004070Y027191D01*
X004561Y026700D01*
X007861Y026700D01*
X008035Y026526D01*
X008035Y026453D01*
X008078Y026349D01*
X008159Y026268D01*
X008263Y026225D01*
X008377Y026225D01*
X008481Y026268D01*
X008562Y026349D01*
X008605Y026453D01*
X008605Y026567D01*
X008562Y026671D01*
X008481Y026752D01*
X008377Y026795D01*
X008304Y026795D01*
X008019Y027080D01*
X006171Y027080D01*
X006142Y027151D01*
X011490Y027151D01*
X011490Y027053D02*
X008046Y027053D01*
X008145Y026954D02*
X011490Y026954D01*
X011490Y026856D02*
X008243Y026856D01*
X008468Y026757D02*
X009458Y026757D01*
X009360Y026659D02*
X008567Y026659D01*
X008605Y026560D02*
X009261Y026560D01*
X009163Y026462D02*
X008605Y026462D01*
X008568Y026363D02*
X009064Y026363D01*
X008966Y026265D02*
X008472Y026265D01*
X008505Y026068D02*
X008769Y026068D01*
X008867Y026166D02*
X007072Y026166D01*
X007105Y026068D02*
X008175Y026068D01*
X008089Y025969D02*
X007103Y025969D01*
X006988Y026265D02*
X008168Y026265D01*
X008072Y026363D02*
X006756Y026363D01*
X006657Y026462D02*
X008035Y026462D01*
X008001Y026560D02*
X004179Y026560D01*
X004080Y026659D02*
X007903Y026659D01*
X008591Y025969D02*
X008670Y025969D01*
X009551Y025969D02*
X011736Y025969D01*
X011718Y025951D02*
X011675Y025847D01*
X011675Y025733D01*
X011718Y025629D01*
X011799Y025548D01*
X011903Y025505D01*
X011951Y025505D01*
X011935Y025467D01*
X011935Y025353D01*
X011978Y025249D01*
X012059Y025168D01*
X012137Y025136D01*
X011621Y024620D01*
X011593Y024620D01*
X011541Y024672D01*
X011437Y024715D01*
X011323Y024715D01*
X011219Y024672D01*
X011138Y024591D01*
X011095Y024487D01*
X011095Y024373D01*
X011138Y024269D01*
X011219Y024188D01*
X011323Y024145D01*
X011437Y024145D01*
X011541Y024188D01*
X011593Y024240D01*
X011779Y024240D01*
X012699Y025160D01*
X012810Y025271D01*
X012810Y025551D01*
X013339Y026080D01*
X014790Y026080D01*
X014790Y025371D01*
X014901Y025260D01*
X017241Y025260D01*
X017190Y025209D01*
X016801Y024820D01*
X013491Y024820D01*
X013462Y024891D01*
X013381Y024972D01*
X013277Y025015D01*
X013163Y025015D01*
X013059Y024972D01*
X012978Y024891D01*
X012935Y024787D01*
X012326Y024787D01*
X012424Y024886D02*
X012976Y024886D01*
X012935Y024787D02*
X012935Y024673D01*
X012978Y024569D01*
X013059Y024488D01*
X013084Y024478D01*
X013055Y024407D01*
X013055Y024293D01*
X013098Y024189D01*
X013179Y024108D01*
X013283Y024065D01*
X013397Y024065D01*
X013501Y024108D01*
X013582Y024189D01*
X013611Y024260D01*
X018499Y024260D01*
X018933Y024695D01*
X018983Y024576D01*
X019075Y024484D01*
X019195Y024434D01*
X019325Y024434D01*
X019445Y024484D01*
X019537Y024576D01*
X019587Y024696D01*
X019587Y024826D01*
X019537Y024946D01*
X019445Y025038D01*
X019325Y025088D01*
X019195Y025088D01*
X019150Y025070D01*
X019150Y025237D01*
X019202Y025289D01*
X019245Y025393D01*
X019245Y025507D01*
X019202Y025611D01*
X019121Y025692D01*
X019017Y025735D01*
X018903Y025735D01*
X018799Y025692D01*
X018718Y025611D01*
X018675Y025507D01*
X018675Y025393D01*
X018718Y025289D01*
X018770Y025237D01*
X018770Y025069D01*
X018341Y024640D01*
X017159Y024640D01*
X017399Y024880D01*
X017483Y024845D01*
X017597Y024845D01*
X017701Y024888D01*
X017782Y024969D01*
X017825Y025073D01*
X017825Y025187D01*
X017795Y025260D01*
X018339Y025260D01*
X018450Y025371D01*
X018450Y027769D01*
X018339Y027880D01*
X017459Y027880D01*
X017552Y027973D01*
X017657Y027930D01*
X017863Y027930D01*
X018055Y028009D01*
X018201Y028155D01*
X018261Y028302D01*
X018278Y028250D01*
X018315Y028177D01*
X018363Y028111D01*
X018421Y028053D01*
X018487Y028005D01*
X018560Y027968D01*
X018638Y027943D01*
X018710Y027931D01*
X018710Y028400D01*
X018810Y028400D01*
X018810Y027931D01*
X018882Y027943D01*
X018960Y027968D01*
X019033Y028005D01*
X019099Y028053D01*
X019157Y028111D01*
X019205Y028177D01*
X019242Y028250D01*
X019259Y028302D01*
X019319Y028155D01*
X019465Y028009D01*
X019657Y027930D01*
X019863Y027930D01*
X019951Y027966D01*
X019885Y027900D01*
X019613Y027900D01*
X019601Y027912D01*
X019497Y027955D01*
X019383Y027955D01*
X019279Y027912D01*
X019198Y027831D01*
X019155Y027727D01*
X019155Y027613D01*
X019198Y027509D01*
X019279Y027428D01*
X019383Y027385D01*
X019497Y027385D01*
X019601Y027428D01*
X019613Y027440D01*
X020075Y027440D01*
X020592Y027957D01*
X020657Y027930D01*
X020863Y027930D01*
X021055Y028009D01*
X021110Y028065D01*
X021110Y022835D01*
X021055Y022891D01*
X020863Y022970D01*
X020657Y022970D01*
X020592Y022943D01*
X020295Y023240D01*
X019839Y023240D01*
X020619Y024020D01*
X020730Y024131D01*
X020730Y024657D01*
X020782Y024709D01*
X020825Y024813D01*
X020825Y024927D01*
X020782Y025031D01*
X020733Y025080D01*
X020782Y025129D01*
X020825Y025233D01*
X020825Y025347D01*
X020782Y025451D01*
X020743Y025490D01*
X020782Y025529D01*
X020825Y025633D01*
X020825Y025747D01*
X020782Y025851D01*
X020701Y025932D01*
X020597Y025975D01*
X020483Y025975D01*
X020379Y025932D01*
X020298Y025851D01*
X020255Y025747D01*
X020255Y025674D01*
X019910Y025329D01*
X019910Y024329D01*
X019341Y023760D01*
X017939Y023760D01*
X017850Y023849D01*
X017739Y023960D01*
X016133Y023960D01*
X016081Y024012D01*
X015977Y024055D01*
X015863Y024055D01*
X015759Y024012D01*
X015678Y023931D01*
X015635Y023827D01*
X015635Y023754D01*
X015021Y023140D01*
X014705Y023140D01*
X014705Y023247D01*
X014662Y023351D01*
X014581Y023432D01*
X014477Y023475D01*
X014363Y023475D01*
X014259Y023432D01*
X014207Y023380D01*
X011079Y023380D01*
X010950Y023509D01*
X010950Y025057D01*
X011002Y025109D01*
X011045Y025213D01*
X011045Y025327D01*
X011002Y025431D01*
X010921Y025512D01*
X010817Y025555D01*
X010703Y025555D01*
X010599Y025512D01*
X010518Y025431D01*
X010475Y025327D01*
X010475Y025213D01*
X010518Y025109D01*
X010570Y025057D01*
X010570Y024721D01*
X010537Y024735D01*
X010423Y024735D01*
X010319Y024692D01*
X010238Y024611D01*
X010195Y024507D01*
X010195Y024393D01*
X010012Y024393D01*
X010110Y024492D02*
X010195Y024492D01*
X010195Y024393D02*
X010238Y024289D01*
X010290Y024237D01*
X010290Y023140D01*
X008181Y023140D01*
X008070Y023029D01*
X007968Y022927D01*
X007863Y022970D01*
X007657Y022970D01*
X007465Y022891D01*
X007319Y022745D01*
X007260Y022602D01*
X007252Y022620D02*
X007268Y022620D01*
X007308Y022719D02*
X007212Y022719D01*
X007196Y022817D02*
X007392Y022817D01*
X007294Y022916D02*
X007525Y022916D01*
X007393Y023014D02*
X008055Y023014D01*
X008154Y023113D02*
X007491Y023113D01*
X007590Y023211D02*
X010290Y023211D01*
X010290Y023310D02*
X008928Y023310D01*
X009027Y023408D02*
X010290Y023408D01*
X010290Y023507D02*
X009125Y023507D01*
X009224Y023605D02*
X010290Y023605D01*
X010290Y023704D02*
X009322Y023704D01*
X009421Y023802D02*
X010290Y023802D01*
X010290Y023901D02*
X009519Y023901D01*
X009618Y023999D02*
X010290Y023999D01*
X010290Y024098D02*
X009716Y024098D01*
X009815Y024196D02*
X010290Y024196D01*
X010236Y024295D02*
X009913Y024295D01*
X010209Y024590D02*
X010230Y024590D01*
X010230Y024689D02*
X010316Y024689D01*
X010230Y024787D02*
X010570Y024787D01*
X010570Y024886D02*
X010239Y024886D01*
X010305Y024984D02*
X010570Y024984D01*
X010544Y025083D02*
X010325Y025083D01*
X010311Y025181D02*
X010488Y025181D01*
X010475Y025280D02*
X010253Y025280D01*
X010045Y025378D02*
X010496Y025378D01*
X010564Y025477D02*
X010045Y025477D01*
X010008Y025575D02*
X011772Y025575D01*
X011700Y025674D02*
X009917Y025674D01*
X009754Y025772D02*
X011675Y025772D01*
X011685Y025871D02*
X009702Y025871D01*
X009586Y026068D02*
X009961Y026068D01*
X010279Y026068D02*
X011885Y026068D01*
X011903Y026075D02*
X011799Y026032D01*
X011718Y025951D01*
X011903Y026075D02*
X011976Y026075D01*
X012270Y026369D01*
X012270Y027709D01*
X012540Y027978D01*
X012465Y028009D01*
X012319Y028155D01*
X012260Y028298D01*
X012201Y028155D01*
X012055Y028009D01*
X011863Y027930D01*
X011657Y027930D01*
X011465Y028009D01*
X011319Y028155D01*
X011260Y028298D01*
X011201Y028155D01*
X011162Y028117D01*
X011759Y027520D01*
X011870Y027409D01*
X011870Y026651D01*
X011645Y026426D01*
X011645Y026353D01*
X011602Y026249D01*
X011521Y026168D01*
X011417Y026125D01*
X011303Y026125D01*
X011199Y026168D01*
X011118Y026249D01*
X011075Y026353D01*
X011075Y026467D01*
X011118Y026571D01*
X011199Y026652D01*
X011303Y026695D01*
X011376Y026695D01*
X011490Y026809D01*
X011490Y027251D01*
X010981Y027760D01*
X005539Y027760D01*
X005045Y027266D01*
X005045Y027193D01*
X005002Y027089D01*
X004993Y027080D01*
X005629Y027080D01*
X005658Y027151D01*
X005028Y027151D01*
X005045Y027250D02*
X005782Y027250D01*
X005739Y027232D02*
X005658Y027151D01*
X005739Y027232D02*
X005843Y027275D01*
X005957Y027275D01*
X006061Y027232D01*
X006142Y027151D01*
X006018Y027250D02*
X011490Y027250D01*
X011393Y027348D02*
X005127Y027348D01*
X005225Y027447D02*
X011295Y027447D01*
X011196Y027545D02*
X005324Y027545D01*
X005422Y027644D02*
X011098Y027644D01*
X010999Y027742D02*
X005521Y027742D01*
X004504Y026757D02*
X003982Y026757D01*
X003883Y026856D02*
X004406Y026856D01*
X004307Y026954D02*
X003785Y026954D01*
X003725Y027053D02*
X004209Y027053D01*
X004110Y027151D02*
X003698Y027151D01*
X003623Y027250D02*
X004070Y027250D01*
X004070Y027348D02*
X002280Y027348D01*
X002280Y027447D02*
X004070Y027447D01*
X004070Y027545D02*
X002280Y027545D01*
X002243Y027644D02*
X004070Y027644D01*
X004070Y027742D02*
X002202Y027742D01*
X002105Y027841D02*
X004070Y027841D01*
X004002Y027939D02*
X003885Y027939D01*
X003635Y027939D02*
X002885Y027939D01*
X003083Y028038D02*
X003437Y028038D01*
X003339Y028136D02*
X003181Y028136D01*
X003234Y028235D02*
X003286Y028235D01*
X002635Y027939D02*
X001938Y027939D01*
X002083Y028038D02*
X002437Y028038D01*
X002339Y028136D02*
X002181Y028136D01*
X002234Y028235D02*
X002286Y028235D01*
X002240Y027250D02*
X003257Y027250D01*
X003182Y027151D02*
X002196Y027151D01*
X002098Y027053D02*
X003155Y027053D01*
X003163Y026954D02*
X001922Y026954D01*
X002086Y026856D02*
X002603Y026856D01*
X002536Y026757D02*
X002180Y026757D01*
X002237Y026659D02*
X002515Y026659D01*
X002529Y026560D02*
X002269Y026560D01*
X002273Y026363D02*
X003478Y026363D01*
X003577Y026265D02*
X002247Y026265D01*
X002196Y026166D02*
X003675Y026166D01*
X003774Y026068D02*
X002113Y026068D01*
X001962Y025969D02*
X003797Y025969D01*
X003838Y025871D02*
X002075Y025871D01*
X002173Y025772D02*
X003958Y025772D01*
X003211Y026856D02*
X002997Y026856D01*
X002585Y026462D02*
X001810Y026462D01*
X002230Y025674D02*
X002515Y025674D01*
X002416Y025575D02*
X002271Y025575D01*
X002280Y025477D02*
X002318Y025477D01*
X002280Y032439D02*
X002280Y032553D01*
X002201Y032745D01*
X002055Y032891D01*
X001908Y032951D01*
X001960Y032968D01*
X002033Y033005D01*
X002099Y033053D01*
X002157Y033111D01*
X002205Y033177D01*
X002242Y033250D01*
X002267Y033328D01*
X002279Y033400D01*
X001810Y033400D01*
X001810Y033500D01*
X002279Y033500D01*
X002267Y033572D01*
X002242Y033650D01*
X002205Y033723D01*
X002157Y033789D01*
X002099Y033847D01*
X002033Y033895D01*
X001960Y033932D01*
X001908Y033949D01*
X002055Y034009D01*
X002201Y034155D01*
X002280Y034347D01*
X002280Y034553D01*
X002201Y034745D01*
X002055Y034891D01*
X001912Y034950D01*
X002055Y035009D01*
X002201Y035155D01*
X002260Y035298D01*
X002319Y035155D01*
X002465Y035009D01*
X002657Y034930D01*
X002863Y034930D01*
X003055Y035009D01*
X003201Y035155D01*
X003260Y035298D01*
X003319Y035155D01*
X003465Y035009D01*
X003657Y034930D01*
X003863Y034930D01*
X003968Y034973D01*
X004070Y034871D01*
X004070Y034191D01*
X004561Y033700D01*
X007861Y033700D01*
X008035Y033526D01*
X008035Y033453D01*
X008078Y033349D01*
X008159Y033268D01*
X008263Y033225D01*
X008377Y033225D01*
X008481Y033268D01*
X008562Y033349D01*
X008605Y033453D01*
X008605Y033567D01*
X008562Y033671D01*
X008481Y033752D01*
X008377Y033795D01*
X008304Y033795D01*
X008019Y034080D01*
X006171Y034080D01*
X006142Y034151D01*
X006061Y034232D01*
X005957Y034275D01*
X005843Y034275D01*
X005739Y034232D01*
X005658Y034151D01*
X005629Y034080D01*
X004993Y034080D01*
X005002Y034089D01*
X005045Y034193D01*
X005045Y034266D01*
X005539Y034760D01*
X010981Y034760D01*
X011490Y034251D01*
X011490Y033809D01*
X011376Y033695D01*
X011303Y033695D01*
X011199Y033652D01*
X011118Y033571D01*
X011075Y033467D01*
X011075Y033353D01*
X011118Y033249D01*
X011199Y033168D01*
X011303Y033125D01*
X011417Y033125D01*
X011521Y033168D01*
X011602Y033249D01*
X011645Y033353D01*
X011645Y033426D01*
X011870Y033651D01*
X011870Y034409D01*
X011759Y034520D01*
X011162Y035117D01*
X011201Y035155D01*
X011260Y035298D01*
X011319Y035155D01*
X011465Y035009D01*
X011657Y034930D01*
X011863Y034930D01*
X012055Y035009D01*
X012201Y035155D01*
X012260Y035298D01*
X012319Y035155D01*
X012465Y035009D01*
X012540Y034978D01*
X012381Y034820D01*
X012270Y034709D01*
X012270Y033369D01*
X011976Y033075D01*
X011903Y033075D01*
X011799Y033032D01*
X011718Y032951D01*
X011675Y032847D01*
X011675Y032733D01*
X011718Y032629D01*
X011799Y032548D01*
X011903Y032505D01*
X011951Y032505D01*
X011935Y032467D01*
X011935Y032353D01*
X011978Y032249D01*
X012059Y032168D01*
X012137Y032136D01*
X011621Y031620D01*
X011593Y031620D01*
X011541Y031672D01*
X011437Y031715D01*
X011323Y031715D01*
X011219Y031672D01*
X011138Y031591D01*
X011095Y031487D01*
X011095Y031373D01*
X011138Y031269D01*
X011219Y031188D01*
X011323Y031145D01*
X011437Y031145D01*
X011541Y031188D01*
X011593Y031240D01*
X011779Y031240D01*
X012699Y032160D01*
X012810Y032271D01*
X012810Y032551D01*
X013339Y033080D01*
X014790Y033080D01*
X014790Y032371D01*
X014901Y032260D01*
X017241Y032260D01*
X017190Y032209D01*
X016801Y031820D01*
X013491Y031820D01*
X013462Y031891D01*
X013381Y031972D01*
X013277Y032015D01*
X013163Y032015D01*
X013059Y031972D01*
X012978Y031891D01*
X012935Y031787D01*
X012935Y031673D01*
X012978Y031569D01*
X013059Y031488D01*
X013084Y031478D01*
X013055Y031407D01*
X013055Y031293D01*
X013098Y031189D01*
X013098Y031190D02*
X011543Y031190D01*
X011827Y031288D02*
X013057Y031288D01*
X013055Y031387D02*
X011925Y031387D01*
X012024Y031485D02*
X013067Y031485D01*
X012972Y031584D02*
X012122Y031584D01*
X012221Y031682D02*
X012935Y031682D01*
X012935Y031781D02*
X012319Y031781D01*
X012418Y031879D02*
X012973Y031879D01*
X013073Y031978D02*
X012516Y031978D01*
X012615Y032076D02*
X017057Y032076D01*
X016959Y031978D02*
X013367Y031978D01*
X013467Y031879D02*
X016860Y031879D01*
X017159Y031640D02*
X017399Y031880D01*
X017483Y031845D01*
X017597Y031845D01*
X017701Y031888D01*
X017782Y031969D01*
X017825Y032073D01*
X017825Y032187D01*
X017795Y032260D01*
X018339Y032260D01*
X018450Y032371D01*
X018450Y034769D01*
X018339Y034880D01*
X017459Y034880D01*
X017552Y034973D01*
X017657Y034930D01*
X017863Y034930D01*
X018055Y035009D01*
X018201Y035155D01*
X018261Y035302D01*
X018278Y035250D01*
X018315Y035177D01*
X018363Y035111D01*
X018421Y035053D01*
X018487Y035005D01*
X018560Y034968D01*
X018638Y034943D01*
X018710Y034931D01*
X018710Y035400D01*
X018810Y035400D01*
X018810Y034931D01*
X018882Y034943D01*
X018960Y034968D01*
X019033Y035005D01*
X019099Y035053D01*
X019157Y035111D01*
X019205Y035177D01*
X019242Y035250D01*
X019259Y035302D01*
X019319Y035155D01*
X019465Y035009D01*
X019657Y034930D01*
X019863Y034930D01*
X019951Y034966D01*
X019885Y034900D01*
X019613Y034900D01*
X019601Y034912D01*
X019497Y034955D01*
X019383Y034955D01*
X019279Y034912D01*
X019198Y034831D01*
X019155Y034727D01*
X019155Y034613D01*
X019198Y034509D01*
X019279Y034428D01*
X019383Y034385D01*
X019497Y034385D01*
X019601Y034428D01*
X019613Y034440D01*
X020075Y034440D01*
X020592Y034957D01*
X020657Y034930D01*
X020863Y034930D01*
X021055Y035009D01*
X021110Y035065D01*
X021110Y029835D01*
X021055Y029891D01*
X020863Y029970D01*
X020657Y029970D01*
X020592Y029943D01*
X020295Y030240D01*
X019839Y030240D01*
X020619Y031020D01*
X020730Y031131D01*
X020730Y031657D01*
X020782Y031709D01*
X020825Y031813D01*
X020825Y031927D01*
X020782Y032031D01*
X020733Y032080D01*
X020782Y032129D01*
X020825Y032233D01*
X020825Y032347D01*
X020782Y032451D01*
X020743Y032490D01*
X020782Y032529D01*
X020825Y032633D01*
X020825Y032747D01*
X020782Y032851D01*
X020701Y032932D01*
X020597Y032975D01*
X020483Y032975D01*
X020379Y032932D01*
X020298Y032851D01*
X020255Y032747D01*
X020255Y032674D01*
X019910Y032329D01*
X019910Y031329D01*
X019341Y030760D01*
X017939Y030760D01*
X017850Y030849D01*
X017739Y030960D01*
X016133Y030960D01*
X016081Y031012D01*
X015977Y031055D01*
X015863Y031055D01*
X015759Y031012D01*
X015678Y030931D01*
X015635Y030827D01*
X015635Y030754D01*
X015021Y030140D01*
X014705Y030140D01*
X014705Y030247D01*
X014662Y030351D01*
X014581Y030432D01*
X014477Y030475D01*
X014363Y030475D01*
X014259Y030432D01*
X014207Y030380D01*
X011079Y030380D01*
X010950Y030509D01*
X010950Y032057D01*
X011002Y032109D01*
X011045Y032213D01*
X011045Y032327D01*
X011002Y032431D01*
X010921Y032512D01*
X010817Y032555D01*
X010703Y032555D01*
X010599Y032512D01*
X010518Y032431D01*
X010475Y032327D01*
X010475Y032213D01*
X010518Y032109D01*
X010570Y032057D01*
X010570Y031721D01*
X010537Y031735D01*
X010423Y031735D01*
X010319Y031692D01*
X010238Y031611D01*
X010195Y031507D01*
X010195Y031393D01*
X010238Y031289D01*
X010290Y031237D01*
X010290Y030140D01*
X008181Y030140D01*
X008070Y030029D01*
X007968Y029927D01*
X007863Y029970D01*
X007657Y029970D01*
X007465Y029891D01*
X007319Y029745D01*
X007260Y029602D01*
X007201Y029745D01*
X007162Y029783D01*
X007619Y030240D01*
X008859Y030240D01*
X010119Y031500D01*
X010230Y031611D01*
X010230Y031877D01*
X010282Y031929D01*
X010325Y032033D01*
X010325Y032147D01*
X010282Y032251D01*
X010201Y032332D01*
X010097Y032375D01*
X010045Y032375D01*
X010045Y032487D01*
X010002Y032591D01*
X009921Y032672D01*
X009817Y032715D01*
X009765Y032715D01*
X009765Y032747D01*
X009722Y032851D01*
X009641Y032932D01*
X009537Y032975D01*
X009494Y032975D01*
X009639Y033120D01*
X009907Y033120D01*
X009959Y033068D01*
X010063Y033025D01*
X010177Y033025D01*
X010281Y033068D01*
X010362Y033149D01*
X010398Y033236D01*
X010423Y033225D01*
X010537Y033225D01*
X010641Y033268D01*
X010722Y033349D01*
X010765Y033453D01*
X010765Y033567D01*
X010722Y033671D01*
X010641Y033752D01*
X010537Y033795D01*
X010464Y033795D01*
X010459Y033800D01*
X009501Y033800D01*
X008614Y032913D01*
X008582Y032991D01*
X008501Y033072D01*
X008397Y033115D01*
X008283Y033115D01*
X008179Y033072D01*
X008098Y032991D01*
X008077Y032940D01*
X007091Y032940D01*
X007105Y032973D01*
X007105Y033087D01*
X007062Y033191D01*
X006981Y033272D01*
X006877Y033315D01*
X006804Y033315D01*
X006579Y033540D01*
X004199Y033540D01*
X003725Y034014D01*
X003725Y034087D01*
X003682Y034191D01*
X003601Y034272D01*
X003497Y034315D01*
X003383Y034315D01*
X003279Y034272D01*
X003198Y034191D01*
X003155Y034087D01*
X003155Y033973D01*
X003198Y033869D01*
X003227Y033840D01*
X003013Y033840D01*
X002961Y033892D01*
X002857Y033935D01*
X002743Y033935D01*
X002639Y033892D01*
X002558Y033811D01*
X002515Y033707D01*
X002515Y033593D01*
X002558Y033489D01*
X002639Y033408D01*
X002743Y033365D01*
X002857Y033365D01*
X002961Y033408D01*
X003013Y033460D01*
X003381Y033460D01*
X003795Y033046D01*
X003795Y032973D01*
X003838Y032869D01*
X003919Y032788D01*
X003987Y032760D01*
X002601Y032760D01*
X002490Y032649D01*
X002280Y032439D01*
X002280Y032470D02*
X002311Y032470D01*
X002274Y032569D02*
X002410Y032569D01*
X002508Y032667D02*
X002233Y032667D01*
X002180Y032766D02*
X003974Y032766D01*
X003843Y032864D02*
X002081Y032864D01*
X001943Y032963D02*
X003799Y032963D01*
X003780Y033061D02*
X002106Y033061D01*
X002192Y033160D02*
X003682Y033160D01*
X003583Y033258D02*
X002244Y033258D01*
X002272Y033357D02*
X003485Y033357D01*
X003386Y033455D02*
X003008Y033455D01*
X003004Y033849D02*
X003218Y033849D01*
X003166Y033948D02*
X001911Y033948D01*
X002091Y034046D02*
X003155Y034046D01*
X003179Y034145D02*
X002190Y034145D01*
X002237Y034243D02*
X003250Y034243D01*
X003630Y034243D02*
X004070Y034243D01*
X004070Y034342D02*
X002278Y034342D01*
X002280Y034440D02*
X004070Y034440D01*
X004070Y034539D02*
X002280Y034539D01*
X002245Y034637D02*
X004070Y034637D01*
X004070Y034736D02*
X002205Y034736D01*
X002111Y034834D02*
X004070Y034834D01*
X004009Y034933D02*
X003870Y034933D01*
X003650Y034933D02*
X002870Y034933D01*
X002650Y034933D02*
X001954Y034933D01*
X002076Y035031D02*
X002444Y035031D01*
X002345Y035130D02*
X002175Y035130D01*
X002231Y035228D02*
X002289Y035228D01*
X003076Y035031D02*
X003444Y035031D01*
X003345Y035130D02*
X003175Y035130D01*
X003231Y035228D02*
X003289Y035228D01*
X003701Y034145D02*
X004117Y034145D01*
X004215Y034046D02*
X003725Y034046D01*
X003791Y033948D02*
X004314Y033948D01*
X004412Y033849D02*
X003890Y033849D01*
X003988Y033751D02*
X004511Y033751D01*
X004185Y033554D02*
X008008Y033554D01*
X008035Y033455D02*
X006664Y033455D01*
X006762Y033357D02*
X008075Y033357D01*
X008183Y033258D02*
X006995Y033258D01*
X007075Y033160D02*
X008861Y033160D01*
X008959Y033258D02*
X008457Y033258D01*
X008565Y033357D02*
X009058Y033357D01*
X009156Y033455D02*
X008605Y033455D01*
X008605Y033554D02*
X009255Y033554D01*
X009353Y033652D02*
X008570Y033652D01*
X008482Y033751D02*
X009452Y033751D01*
X009580Y033061D02*
X009976Y033061D01*
X010264Y033061D02*
X011870Y033061D01*
X011730Y032963D02*
X009567Y032963D01*
X009709Y032864D02*
X011682Y032864D01*
X011675Y032766D02*
X009757Y032766D01*
X009926Y032667D02*
X011702Y032667D01*
X011778Y032569D02*
X010011Y032569D01*
X010045Y032470D02*
X010557Y032470D01*
X010494Y032372D02*
X010105Y032372D01*
X010260Y032273D02*
X010475Y032273D01*
X010491Y032175D02*
X010313Y032175D01*
X010325Y032076D02*
X010551Y032076D01*
X010570Y031978D02*
X010302Y031978D01*
X010232Y031879D02*
X010570Y031879D01*
X010570Y031781D02*
X010230Y031781D01*
X010230Y031682D02*
X010309Y031682D01*
X010227Y031584D02*
X010202Y031584D01*
X010195Y031485D02*
X010104Y031485D01*
X010198Y031387D02*
X010005Y031387D01*
X009907Y031288D02*
X010239Y031288D01*
X010290Y031190D02*
X009808Y031190D01*
X009710Y031091D02*
X010290Y031091D01*
X010290Y030993D02*
X009611Y030993D01*
X009513Y030894D02*
X010290Y030894D01*
X010290Y030796D02*
X009414Y030796D01*
X009316Y030697D02*
X010290Y030697D01*
X010290Y030599D02*
X009217Y030599D01*
X009119Y030500D02*
X010290Y030500D01*
X010290Y030402D02*
X009020Y030402D01*
X008922Y030303D02*
X010290Y030303D01*
X010290Y030205D02*
X007583Y030205D01*
X007485Y030106D02*
X008147Y030106D01*
X008049Y030008D02*
X007386Y030008D01*
X007288Y029909D02*
X007509Y029909D01*
X007385Y029811D02*
X007189Y029811D01*
X007214Y029712D02*
X007306Y029712D01*
X007265Y029614D02*
X007255Y029614D01*
X007101Y032963D02*
X008086Y032963D01*
X008168Y033061D02*
X007105Y033061D01*
X007909Y033652D02*
X004087Y033652D01*
X005025Y034145D02*
X005656Y034145D01*
X005766Y034243D02*
X005045Y034243D01*
X005120Y034342D02*
X011400Y034342D01*
X011490Y034243D02*
X006034Y034243D01*
X006144Y034145D02*
X011490Y034145D01*
X011490Y034046D02*
X008053Y034046D01*
X008151Y033948D02*
X011490Y033948D01*
X011490Y033849D02*
X008250Y033849D01*
X008512Y033061D02*
X008762Y033061D01*
X008664Y032963D02*
X008594Y032963D01*
X010366Y033160D02*
X011220Y033160D01*
X011114Y033258D02*
X010617Y033258D01*
X010725Y033357D02*
X011075Y033357D01*
X011075Y033455D02*
X010765Y033455D01*
X010765Y033554D02*
X011111Y033554D01*
X011200Y033652D02*
X010730Y033652D01*
X010642Y033751D02*
X011432Y033751D01*
X011674Y033455D02*
X012270Y033455D01*
X012270Y033554D02*
X011772Y033554D01*
X011870Y033652D02*
X012270Y033652D01*
X012270Y033751D02*
X011870Y033751D01*
X011870Y033849D02*
X012270Y033849D01*
X012270Y033948D02*
X011870Y033948D01*
X011870Y034046D02*
X012270Y034046D01*
X012270Y034145D02*
X011870Y034145D01*
X011870Y034243D02*
X012270Y034243D01*
X012270Y034342D02*
X011870Y034342D01*
X011839Y034440D02*
X012270Y034440D01*
X012270Y034539D02*
X011740Y034539D01*
X011642Y034637D02*
X012270Y034637D01*
X012297Y034736D02*
X011543Y034736D01*
X011445Y034834D02*
X012395Y034834D01*
X012494Y034933D02*
X011870Y034933D01*
X011650Y034933D02*
X011346Y034933D01*
X011248Y035031D02*
X011444Y035031D01*
X011345Y035130D02*
X011175Y035130D01*
X011231Y035228D02*
X011289Y035228D01*
X011006Y034736D02*
X005514Y034736D01*
X005416Y034637D02*
X011104Y034637D01*
X011203Y034539D02*
X005317Y034539D01*
X005219Y034440D02*
X011301Y034440D01*
X012076Y035031D02*
X012444Y035031D01*
X012345Y035130D02*
X012175Y035130D01*
X012231Y035228D02*
X012289Y035228D01*
X012258Y033357D02*
X011645Y033357D01*
X011606Y033258D02*
X012159Y033258D01*
X012061Y033160D02*
X011500Y033160D01*
X011936Y032470D02*
X010963Y032470D01*
X011026Y032372D02*
X011935Y032372D01*
X011968Y032273D02*
X011045Y032273D01*
X011029Y032175D02*
X012052Y032175D01*
X012077Y032076D02*
X010969Y032076D01*
X010950Y031978D02*
X011979Y031978D01*
X011880Y031879D02*
X010950Y031879D01*
X010950Y031781D02*
X011782Y031781D01*
X011683Y031682D02*
X011516Y031682D01*
X011244Y031682D02*
X010950Y031682D01*
X010950Y031584D02*
X011135Y031584D01*
X011095Y031485D02*
X010950Y031485D01*
X010950Y031387D02*
X011095Y031387D01*
X011130Y031288D02*
X010950Y031288D01*
X010950Y031190D02*
X011217Y031190D01*
X010950Y031091D02*
X013220Y031091D01*
X013179Y031108D02*
X013283Y031065D01*
X013397Y031065D01*
X013501Y031108D01*
X013582Y031189D01*
X013582Y031190D02*
X019771Y031190D01*
X019869Y031288D02*
X018527Y031288D01*
X018499Y031260D02*
X018933Y031695D01*
X018983Y031576D01*
X019075Y031484D01*
X019195Y031434D01*
X019325Y031434D01*
X019445Y031484D01*
X019537Y031576D01*
X019587Y031696D01*
X019587Y031826D01*
X019537Y031946D01*
X019445Y032038D01*
X019325Y032088D01*
X019195Y032088D01*
X019150Y032070D01*
X019150Y032237D01*
X019202Y032289D01*
X019245Y032393D01*
X019245Y032507D01*
X019202Y032611D01*
X019121Y032692D01*
X019017Y032735D01*
X018903Y032735D01*
X018799Y032692D01*
X018718Y032611D01*
X018675Y032507D01*
X018675Y032393D01*
X018718Y032289D01*
X018770Y032237D01*
X018770Y032069D01*
X018341Y031640D01*
X017159Y031640D01*
X017201Y031682D02*
X018383Y031682D01*
X018482Y031781D02*
X017299Y031781D01*
X017398Y031879D02*
X017401Y031879D01*
X017679Y031879D02*
X018580Y031879D01*
X018679Y031978D02*
X017785Y031978D01*
X017825Y032076D02*
X018770Y032076D01*
X018770Y032175D02*
X017825Y032175D01*
X018352Y032273D02*
X018734Y032273D01*
X018684Y032372D02*
X018450Y032372D01*
X018450Y032470D02*
X018675Y032470D01*
X018701Y032569D02*
X018450Y032569D01*
X018450Y032667D02*
X018774Y032667D01*
X018983Y032954D02*
X018933Y033074D01*
X018933Y033204D01*
X018983Y033324D01*
X019075Y033416D01*
X019195Y033466D01*
X019325Y033466D01*
X019445Y033416D01*
X019537Y033324D01*
X019587Y033204D01*
X019587Y033074D01*
X019537Y032954D01*
X019445Y032862D01*
X019325Y032812D01*
X019195Y032812D01*
X019075Y032862D01*
X018983Y032954D01*
X018979Y032963D02*
X018450Y032963D01*
X018450Y033061D02*
X018938Y033061D01*
X018933Y033160D02*
X018450Y033160D01*
X018450Y033258D02*
X018955Y033258D01*
X019015Y033357D02*
X018450Y033357D01*
X018450Y033455D02*
X019168Y033455D01*
X019352Y033455D02*
X021110Y033455D01*
X021110Y033357D02*
X019505Y033357D01*
X019565Y033258D02*
X021110Y033258D01*
X021110Y033160D02*
X019587Y033160D01*
X019582Y033061D02*
X021110Y033061D01*
X021110Y032963D02*
X020627Y032963D01*
X020769Y032864D02*
X021110Y032864D01*
X021110Y032766D02*
X020817Y032766D01*
X020825Y032667D02*
X021110Y032667D01*
X021110Y032569D02*
X020798Y032569D01*
X020763Y032470D02*
X021110Y032470D01*
X021110Y032372D02*
X020815Y032372D01*
X020825Y032273D02*
X021110Y032273D01*
X021110Y032175D02*
X020801Y032175D01*
X020737Y032076D02*
X021110Y032076D01*
X021110Y031978D02*
X020804Y031978D01*
X020825Y031879D02*
X021110Y031879D01*
X021110Y031781D02*
X020811Y031781D01*
X020755Y031682D02*
X021110Y031682D01*
X021110Y031584D02*
X020730Y031584D01*
X020730Y031485D02*
X021110Y031485D01*
X021110Y031387D02*
X020730Y031387D01*
X020730Y031288D02*
X021110Y031288D01*
X021110Y031190D02*
X020730Y031190D01*
X020690Y031091D02*
X021110Y031091D01*
X021110Y030993D02*
X020591Y030993D01*
X020493Y030894D02*
X021110Y030894D01*
X021110Y030796D02*
X020394Y030796D01*
X020296Y030697D02*
X021110Y030697D01*
X021110Y030599D02*
X020197Y030599D01*
X020099Y030500D02*
X021110Y030500D01*
X021110Y030402D02*
X020000Y030402D01*
X019902Y030303D02*
X021110Y030303D01*
X021110Y030205D02*
X020331Y030205D01*
X020429Y030106D02*
X021110Y030106D01*
X021110Y030008D02*
X020528Y030008D01*
X021011Y029909D02*
X021110Y029909D01*
X019910Y031387D02*
X018625Y031387D01*
X018724Y031485D02*
X019073Y031485D01*
X018979Y031584D02*
X018822Y031584D01*
X018921Y031682D02*
X018939Y031682D01*
X019150Y032076D02*
X019166Y032076D01*
X019150Y032175D02*
X019910Y032175D01*
X019910Y032273D02*
X019186Y032273D01*
X019236Y032372D02*
X019953Y032372D01*
X020051Y032470D02*
X019245Y032470D01*
X019219Y032569D02*
X020150Y032569D01*
X020248Y032667D02*
X019146Y032667D01*
X019072Y032864D02*
X018450Y032864D01*
X018450Y032766D02*
X020263Y032766D01*
X020311Y032864D02*
X019448Y032864D01*
X019541Y032963D02*
X020453Y032963D01*
X019910Y032076D02*
X019354Y032076D01*
X019506Y031978D02*
X019910Y031978D01*
X019910Y031879D02*
X019565Y031879D01*
X019587Y031781D02*
X019910Y031781D01*
X019910Y031682D02*
X019581Y031682D01*
X019541Y031584D02*
X019910Y031584D01*
X019910Y031485D02*
X019447Y031485D01*
X019672Y031091D02*
X013460Y031091D01*
X013582Y031189D02*
X013611Y031260D01*
X018499Y031260D01*
X017903Y030796D02*
X019377Y030796D01*
X019475Y030894D02*
X017805Y030894D01*
X017156Y032175D02*
X012713Y032175D01*
X012810Y032273D02*
X014888Y032273D01*
X014790Y032372D02*
X012810Y032372D01*
X012810Y032470D02*
X014790Y032470D01*
X014790Y032569D02*
X012827Y032569D01*
X012926Y032667D02*
X014790Y032667D01*
X014790Y032766D02*
X013024Y032766D01*
X013123Y032864D02*
X014790Y032864D01*
X014790Y032963D02*
X013221Y032963D01*
X013320Y033061D02*
X014790Y033061D01*
X015740Y030993D02*
X010950Y030993D01*
X010950Y030894D02*
X015663Y030894D01*
X015635Y030796D02*
X010950Y030796D01*
X010950Y030697D02*
X015578Y030697D01*
X015480Y030599D02*
X010950Y030599D01*
X010959Y030500D02*
X015381Y030500D01*
X015283Y030402D02*
X014611Y030402D01*
X014682Y030303D02*
X015184Y030303D01*
X015086Y030205D02*
X014705Y030205D01*
X014229Y030402D02*
X011057Y030402D01*
X011234Y028235D02*
X011286Y028235D01*
X011339Y028136D02*
X011181Y028136D01*
X011241Y028038D02*
X011437Y028038D01*
X011340Y027939D02*
X011635Y027939D01*
X011438Y027841D02*
X012402Y027841D01*
X012500Y027939D02*
X011885Y027939D01*
X012083Y028038D02*
X012437Y028038D01*
X012339Y028136D02*
X012181Y028136D01*
X012234Y028235D02*
X012286Y028235D01*
X012303Y027742D02*
X011537Y027742D01*
X011635Y027644D02*
X012270Y027644D01*
X012270Y027545D02*
X011734Y027545D01*
X011832Y027447D02*
X012270Y027447D01*
X012270Y027348D02*
X011870Y027348D01*
X011870Y027250D02*
X012270Y027250D01*
X012270Y027151D02*
X011870Y027151D01*
X011870Y027053D02*
X012270Y027053D01*
X012270Y026954D02*
X011870Y026954D01*
X011870Y026856D02*
X012270Y026856D01*
X012270Y026757D02*
X011870Y026757D01*
X011870Y026659D02*
X012270Y026659D01*
X012270Y026560D02*
X011779Y026560D01*
X011680Y026462D02*
X012270Y026462D01*
X012264Y026363D02*
X011645Y026363D01*
X011608Y026265D02*
X012166Y026265D01*
X012067Y026166D02*
X011516Y026166D01*
X011204Y026166D02*
X010369Y026166D01*
X010632Y026265D02*
X011112Y026265D01*
X011075Y026363D02*
X010728Y026363D01*
X010765Y026462D02*
X011075Y026462D01*
X011114Y026560D02*
X010765Y026560D01*
X010727Y026659D02*
X011215Y026659D01*
X011438Y026757D02*
X010628Y026757D01*
X010956Y025477D02*
X011939Y025477D01*
X011935Y025378D02*
X011024Y025378D01*
X011045Y025280D02*
X011966Y025280D01*
X012046Y025181D02*
X011032Y025181D01*
X010976Y025083D02*
X012084Y025083D01*
X011985Y024984D02*
X010950Y024984D01*
X010950Y024886D02*
X011887Y024886D01*
X011788Y024787D02*
X010950Y024787D01*
X010950Y024689D02*
X011259Y024689D01*
X011138Y024590D02*
X010950Y024590D01*
X010950Y024492D02*
X011097Y024492D01*
X011095Y024393D02*
X010950Y024393D01*
X010950Y024295D02*
X011128Y024295D01*
X011211Y024196D02*
X010950Y024196D01*
X010950Y024098D02*
X013205Y024098D01*
X013095Y024196D02*
X011549Y024196D01*
X011833Y024295D02*
X013055Y024295D01*
X013055Y024393D02*
X011932Y024393D01*
X012030Y024492D02*
X013055Y024492D01*
X012969Y024590D02*
X012129Y024590D01*
X012227Y024689D02*
X012935Y024689D01*
X013089Y024984D02*
X012523Y024984D01*
X012621Y025083D02*
X017064Y025083D01*
X017162Y025181D02*
X012720Y025181D01*
X012810Y025280D02*
X014882Y025280D01*
X014790Y025378D02*
X012810Y025378D01*
X012810Y025477D02*
X014790Y025477D01*
X014790Y025575D02*
X012834Y025575D01*
X012932Y025674D02*
X014790Y025674D01*
X014790Y025772D02*
X013031Y025772D01*
X013129Y025871D02*
X014790Y025871D01*
X014790Y025969D02*
X013228Y025969D01*
X013326Y026068D02*
X014790Y026068D01*
X013464Y024886D02*
X016867Y024886D01*
X016965Y024984D02*
X013351Y024984D01*
X013585Y024196D02*
X019777Y024196D01*
X019679Y024098D02*
X013475Y024098D01*
X014235Y023408D02*
X011051Y023408D01*
X010952Y023507D02*
X015388Y023507D01*
X015486Y023605D02*
X010950Y023605D01*
X010950Y023704D02*
X015585Y023704D01*
X015635Y023802D02*
X010950Y023802D01*
X010950Y023901D02*
X015666Y023901D01*
X015746Y023999D02*
X010950Y023999D01*
X011501Y024689D02*
X011690Y024689D01*
X012236Y021241D02*
X012284Y021241D01*
X012332Y021143D02*
X012188Y021143D01*
X012089Y021044D02*
X012431Y021044D01*
X012507Y020946D02*
X011901Y020946D01*
X013491Y017104D02*
X019685Y017104D01*
X020013Y016415D02*
X021110Y016415D01*
X021110Y016513D02*
X020112Y016513D01*
X020210Y016612D02*
X021110Y016612D01*
X021110Y016710D02*
X020309Y016710D01*
X020407Y016809D02*
X021110Y016809D01*
X021110Y016907D02*
X020506Y016907D01*
X020604Y017006D02*
X021110Y017006D01*
X021110Y017104D02*
X020703Y017104D01*
X020730Y017203D02*
X021110Y017203D01*
X021110Y017301D02*
X020730Y017301D01*
X020730Y017400D02*
X021110Y017400D01*
X021110Y017498D02*
X020730Y017498D01*
X020730Y017597D02*
X021110Y017597D01*
X021110Y017695D02*
X020768Y017695D01*
X020817Y017794D02*
X021110Y017794D01*
X021110Y017892D02*
X020825Y017892D01*
X020799Y017991D02*
X021110Y017991D01*
X021110Y018089D02*
X020742Y018089D01*
X020806Y018188D02*
X021110Y018188D01*
X021110Y018286D02*
X020825Y018286D01*
X020809Y018385D02*
X021110Y018385D01*
X021110Y018483D02*
X020750Y018483D01*
X020804Y018582D02*
X021110Y018582D01*
X021110Y018680D02*
X020825Y018680D01*
X020812Y018779D02*
X021110Y018779D01*
X021110Y018877D02*
X020756Y018877D01*
X021110Y019567D02*
X018450Y019567D01*
X018450Y019665D02*
X021110Y019665D01*
X021110Y019764D02*
X018450Y019764D01*
X018450Y019862D02*
X021110Y019862D01*
X021110Y019961D02*
X018450Y019961D01*
X018450Y020059D02*
X021110Y020059D01*
X021110Y020158D02*
X018450Y020158D01*
X018450Y020256D02*
X021110Y020256D01*
X021110Y020355D02*
X018450Y020355D01*
X018450Y020453D02*
X019254Y020453D01*
X019181Y020552D02*
X018450Y020552D01*
X018450Y020650D02*
X019155Y020650D01*
X019164Y020749D02*
X018450Y020749D01*
X018372Y020847D02*
X019214Y020847D01*
X019360Y020946D02*
X018890Y020946D01*
X018810Y020946D02*
X018710Y020946D01*
X018630Y020946D02*
X017901Y020946D01*
X018089Y021044D02*
X018434Y021044D01*
X018341Y021143D02*
X018188Y021143D01*
X018236Y021241D02*
X018283Y021241D01*
X018710Y021241D02*
X018810Y021241D01*
X018810Y021143D02*
X018710Y021143D01*
X018710Y021044D02*
X018810Y021044D01*
X019086Y021044D02*
X019431Y021044D01*
X019520Y020946D02*
X019619Y020946D01*
X019332Y021143D02*
X019179Y021143D01*
X019237Y021241D02*
X019284Y021241D01*
X018810Y021340D02*
X018710Y021340D01*
X017619Y020946D02*
X017524Y020946D01*
X017897Y023802D02*
X019383Y023802D01*
X019482Y023901D02*
X017798Y023901D01*
X018533Y024295D02*
X019876Y024295D01*
X019910Y024393D02*
X018632Y024393D01*
X018730Y024492D02*
X019067Y024492D01*
X018977Y024590D02*
X018829Y024590D01*
X018927Y024689D02*
X018936Y024689D01*
X018685Y024984D02*
X017788Y024984D01*
X017825Y025083D02*
X018770Y025083D01*
X018770Y025181D02*
X017825Y025181D01*
X017695Y024886D02*
X018587Y024886D01*
X018488Y024787D02*
X017306Y024787D01*
X017207Y024689D02*
X018390Y024689D01*
X018358Y025280D02*
X018727Y025280D01*
X018681Y025378D02*
X018450Y025378D01*
X018450Y025477D02*
X018675Y025477D01*
X018703Y025575D02*
X018450Y025575D01*
X018450Y025674D02*
X018781Y025674D01*
X018983Y025954D02*
X018933Y026074D01*
X018933Y026204D01*
X018983Y026324D01*
X019075Y026416D01*
X019195Y026466D01*
X019325Y026466D01*
X019445Y026416D01*
X019537Y026324D01*
X019587Y026204D01*
X019587Y026074D01*
X019537Y025954D01*
X019445Y025862D01*
X019325Y025812D01*
X019195Y025812D01*
X019075Y025862D01*
X018983Y025954D01*
X018976Y025969D02*
X018450Y025969D01*
X018450Y025871D02*
X019066Y025871D01*
X019139Y025674D02*
X020255Y025674D01*
X020266Y025772D02*
X018450Y025772D01*
X018450Y026068D02*
X018935Y026068D01*
X018933Y026166D02*
X018450Y026166D01*
X018450Y026265D02*
X018958Y026265D01*
X019021Y026363D02*
X018450Y026363D01*
X018450Y026462D02*
X019184Y026462D01*
X019336Y026462D02*
X021110Y026462D01*
X021110Y026560D02*
X018450Y026560D01*
X018450Y026659D02*
X021110Y026659D01*
X021110Y026757D02*
X018450Y026757D01*
X018450Y026856D02*
X021110Y026856D01*
X021110Y026954D02*
X018450Y026954D01*
X018450Y027053D02*
X021110Y027053D01*
X021110Y027151D02*
X018450Y027151D01*
X018450Y027250D02*
X021110Y027250D01*
X021110Y027348D02*
X018450Y027348D01*
X018450Y027447D02*
X019260Y027447D01*
X019183Y027545D02*
X018450Y027545D01*
X018450Y027644D02*
X019155Y027644D01*
X019161Y027742D02*
X018450Y027742D01*
X018378Y027841D02*
X019208Y027841D01*
X019345Y027939D02*
X018858Y027939D01*
X018810Y027939D02*
X018710Y027939D01*
X018662Y027939D02*
X017885Y027939D01*
X018083Y028038D02*
X018443Y028038D01*
X018345Y028136D02*
X018181Y028136D01*
X018234Y028235D02*
X018286Y028235D01*
X018710Y028235D02*
X018810Y028235D01*
X018810Y028333D02*
X018710Y028333D01*
X018710Y028136D02*
X018810Y028136D01*
X018810Y028038D02*
X018710Y028038D01*
X019077Y028038D02*
X019437Y028038D01*
X019339Y028136D02*
X019175Y028136D01*
X019234Y028235D02*
X019286Y028235D01*
X019535Y027939D02*
X019635Y027939D01*
X019885Y027939D02*
X019924Y027939D01*
X020180Y027545D02*
X021110Y027545D01*
X021110Y027447D02*
X020082Y027447D01*
X020279Y027644D02*
X021110Y027644D01*
X021110Y027742D02*
X020377Y027742D01*
X020476Y027841D02*
X021110Y027841D01*
X021110Y027939D02*
X020885Y027939D01*
X021083Y028038D02*
X021110Y028038D01*
X020635Y027939D02*
X020574Y027939D01*
X021110Y026363D02*
X019499Y026363D01*
X019562Y026265D02*
X021110Y026265D01*
X021110Y026166D02*
X019587Y026166D01*
X019585Y026068D02*
X021110Y026068D01*
X021110Y025969D02*
X020611Y025969D01*
X020469Y025969D02*
X019544Y025969D01*
X019454Y025871D02*
X020318Y025871D01*
X020156Y025575D02*
X019217Y025575D01*
X019245Y025477D02*
X020058Y025477D01*
X019959Y025378D02*
X019239Y025378D01*
X019193Y025280D02*
X019910Y025280D01*
X019910Y025181D02*
X019150Y025181D01*
X019150Y025083D02*
X019181Y025083D01*
X019339Y025083D02*
X019910Y025083D01*
X019910Y024984D02*
X019500Y024984D01*
X019563Y024886D02*
X019910Y024886D01*
X019910Y024787D02*
X019587Y024787D01*
X019584Y024689D02*
X019910Y024689D01*
X019910Y024590D02*
X019543Y024590D01*
X019453Y024492D02*
X019910Y024492D01*
X019580Y023999D02*
X016094Y023999D01*
X015289Y023408D02*
X014605Y023408D01*
X014679Y023310D02*
X015191Y023310D01*
X015092Y023211D02*
X014705Y023211D01*
X017518Y027939D02*
X017635Y027939D01*
X016100Y030993D02*
X019574Y030993D01*
X018450Y033554D02*
X021110Y033554D01*
X021110Y033652D02*
X018450Y033652D01*
X018450Y033751D02*
X021110Y033751D01*
X021110Y033849D02*
X018450Y033849D01*
X018450Y033948D02*
X021110Y033948D01*
X021110Y034046D02*
X018450Y034046D01*
X018450Y034145D02*
X021110Y034145D01*
X021110Y034243D02*
X018450Y034243D01*
X018450Y034342D02*
X021110Y034342D01*
X021110Y034440D02*
X020075Y034440D01*
X020174Y034539D02*
X021110Y034539D01*
X021110Y034637D02*
X020272Y034637D01*
X020371Y034736D02*
X021110Y034736D01*
X021110Y034834D02*
X020469Y034834D01*
X020568Y034933D02*
X020650Y034933D01*
X020870Y034933D02*
X021110Y034933D01*
X021110Y035031D02*
X021076Y035031D01*
X019917Y034933D02*
X019870Y034933D01*
X019650Y034933D02*
X019551Y034933D01*
X019444Y035031D02*
X019068Y035031D01*
X019170Y035130D02*
X019345Y035130D01*
X019289Y035228D02*
X019231Y035228D01*
X019329Y034933D02*
X018817Y034933D01*
X018810Y034933D02*
X018710Y034933D01*
X018703Y034933D02*
X017870Y034933D01*
X017650Y034933D02*
X017511Y034933D01*
X018076Y035031D02*
X018452Y035031D01*
X018350Y035130D02*
X018175Y035130D01*
X018231Y035228D02*
X018289Y035228D01*
X018385Y034834D02*
X019201Y034834D01*
X019159Y034736D02*
X018450Y034736D01*
X018450Y034637D02*
X019155Y034637D01*
X019186Y034539D02*
X018450Y034539D01*
X018450Y034440D02*
X019267Y034440D01*
X018810Y035031D02*
X018710Y035031D01*
X018710Y035130D02*
X018810Y035130D01*
X018810Y035228D02*
X018710Y035228D01*
X018710Y035327D02*
X018810Y035327D01*
X013179Y031108D02*
X013098Y031189D01*
X009465Y019764D02*
X008453Y019764D01*
X011917Y013952D02*
X012513Y013952D01*
X012424Y014051D02*
X012096Y014051D01*
X012194Y014149D02*
X012326Y014149D01*
X012281Y014248D02*
X012239Y014248D01*
X014592Y009421D02*
X015302Y009421D01*
X015204Y009323D02*
X014674Y009323D01*
X014705Y009224D02*
X015105Y009224D01*
X015678Y009931D02*
X015759Y010012D01*
X017220Y010702D02*
X018403Y010702D01*
X018501Y010800D02*
X017319Y010800D01*
X017712Y010899D02*
X018600Y010899D01*
X018698Y010997D02*
X017793Y010997D01*
X017825Y011096D02*
X018770Y011096D01*
X018770Y011194D02*
X017822Y011194D01*
X018371Y011293D02*
X018717Y011293D01*
X018676Y011391D02*
X018450Y011391D01*
X018450Y011490D02*
X018675Y011490D01*
X018709Y011588D02*
X018450Y011588D01*
X018842Y010603D02*
X018971Y010603D01*
X019054Y010505D02*
X018743Y010505D01*
X019587Y012081D02*
X021110Y012081D01*
X021110Y012179D02*
X019587Y012179D01*
X019557Y012278D02*
X021110Y012278D01*
X021110Y012376D02*
X019486Y012376D01*
X019247Y013460D02*
X018450Y013460D01*
X018450Y013558D02*
X019178Y013558D01*
X019155Y013657D02*
X018450Y013657D01*
X018450Y013755D02*
X019167Y013755D01*
X019220Y013854D02*
X018365Y013854D01*
X018425Y014051D02*
X018096Y014051D01*
X018194Y014149D02*
X018336Y014149D01*
X018280Y014248D02*
X018239Y014248D01*
X017917Y013952D02*
X018610Y013952D01*
X018710Y013952D02*
X018810Y013952D01*
X018810Y014051D02*
X018710Y014051D01*
X018710Y014149D02*
X018810Y014149D01*
X018810Y014248D02*
X018710Y014248D01*
X018710Y014346D02*
X018810Y014346D01*
X018910Y013952D02*
X019376Y013952D01*
X019424Y014051D02*
X019095Y014051D01*
X019184Y014149D02*
X019326Y014149D01*
X019281Y014248D02*
X019240Y014248D01*
X019504Y013952D02*
X019603Y013952D01*
X019917Y013952D02*
X019937Y013952D01*
X020193Y013558D02*
X021110Y013558D01*
X021110Y013460D02*
X020095Y013460D01*
X020292Y013657D02*
X021110Y013657D01*
X021110Y013755D02*
X020390Y013755D01*
X020489Y013854D02*
X021110Y013854D01*
X021110Y013952D02*
X020917Y013952D01*
X021096Y014051D02*
X021110Y014051D01*
X020603Y013952D02*
X020587Y013952D01*
X021110Y013361D02*
X018450Y013361D01*
X018450Y013263D02*
X021110Y013263D01*
X021110Y013164D02*
X018450Y013164D01*
X018450Y013066D02*
X021110Y013066D01*
X021110Y012967D02*
X018450Y012967D01*
X018450Y012869D02*
X021110Y012869D01*
X021110Y012770D02*
X018450Y012770D01*
X018450Y012672D02*
X021110Y012672D01*
X021110Y012573D02*
X018450Y012573D01*
X018450Y012475D02*
X021110Y012475D01*
X021110Y015922D02*
X020979Y015922D01*
X021110Y016021D02*
X020515Y016021D01*
X020416Y016119D02*
X021110Y016119D01*
X021110Y016218D02*
X020318Y016218D01*
X019915Y016316D02*
X021110Y016316D01*
X021110Y020453D02*
X020088Y020453D01*
X020187Y020552D02*
X021110Y020552D01*
X021110Y020650D02*
X020285Y020650D01*
X020384Y020749D02*
X021110Y020749D01*
X021110Y020847D02*
X020482Y020847D01*
X020581Y020946D02*
X020619Y020946D01*
X020901Y020946D02*
X021110Y020946D01*
X021110Y021044D02*
X021089Y021044D01*
X019930Y020946D02*
X019901Y020946D01*
X020995Y022916D02*
X021110Y022916D01*
X021110Y023014D02*
X020521Y023014D01*
X020423Y023113D02*
X021110Y023113D01*
X021110Y023211D02*
X020324Y023211D01*
X020105Y023507D02*
X021110Y023507D01*
X021110Y023605D02*
X020204Y023605D01*
X020302Y023704D02*
X021110Y023704D01*
X021110Y023802D02*
X020401Y023802D01*
X020499Y023901D02*
X021110Y023901D01*
X021110Y023999D02*
X020598Y023999D01*
X020696Y024098D02*
X021110Y024098D01*
X021110Y024196D02*
X020730Y024196D01*
X020730Y024295D02*
X021110Y024295D01*
X021110Y024393D02*
X020730Y024393D01*
X020730Y024492D02*
X021110Y024492D01*
X021110Y024590D02*
X020730Y024590D01*
X020762Y024689D02*
X021110Y024689D01*
X021110Y024787D02*
X020814Y024787D01*
X020825Y024886D02*
X021110Y024886D01*
X021110Y024984D02*
X020801Y024984D01*
X020736Y025083D02*
X021110Y025083D01*
X021110Y025181D02*
X020803Y025181D01*
X020825Y025280D02*
X021110Y025280D01*
X021110Y025378D02*
X020812Y025378D01*
X020756Y025477D02*
X021110Y025477D01*
X021110Y025575D02*
X020801Y025575D01*
X020825Y025674D02*
X021110Y025674D01*
X021110Y025772D02*
X020814Y025772D01*
X020762Y025871D02*
X021110Y025871D01*
X021110Y023408D02*
X020007Y023408D01*
X019908Y023310D02*
X021110Y023310D01*
X017603Y013952D02*
X017531Y013952D01*
X004485Y005777D02*
X003962Y005777D01*
X003864Y005875D02*
X004386Y005875D01*
X004288Y005974D02*
X003765Y005974D01*
X003725Y006072D02*
X004189Y006072D01*
X004091Y006171D02*
X003690Y006171D01*
X003604Y006269D02*
X004070Y006269D01*
X004070Y006368D02*
X002280Y006368D01*
X002280Y006466D02*
X004070Y006466D01*
X004070Y006565D02*
X002275Y006565D01*
X002235Y006663D02*
X004070Y006663D01*
X004070Y006762D02*
X002184Y006762D01*
X002085Y006860D02*
X004070Y006860D01*
X003983Y006959D02*
X003932Y006959D01*
X003588Y006959D02*
X002932Y006959D01*
X003102Y007057D02*
X003418Y007057D01*
X003319Y007156D02*
X003201Y007156D01*
X003242Y007254D02*
X003278Y007254D01*
X003276Y006269D02*
X002248Y006269D01*
X002207Y006171D02*
X003190Y006171D01*
X003155Y006072D02*
X002117Y006072D01*
X001968Y005974D02*
X003155Y005974D01*
X003196Y005875D02*
X002978Y005875D01*
X002622Y005875D02*
X002060Y005875D01*
X002166Y005777D02*
X002544Y005777D01*
X002515Y005678D02*
X002227Y005678D01*
X002265Y005580D02*
X002521Y005580D01*
X002566Y005481D02*
X001810Y005481D01*
X002276Y005383D02*
X002701Y005383D01*
X002899Y005383D02*
X003459Y005383D01*
X003557Y005284D02*
X002253Y005284D01*
X002209Y005186D02*
X003656Y005186D01*
X003754Y005087D02*
X002132Y005087D01*
X002000Y004989D02*
X003795Y004989D01*
X003830Y004890D02*
X002055Y004890D01*
X002154Y004792D02*
X003915Y004792D01*
X002534Y004693D02*
X002222Y004693D01*
X002263Y004595D02*
X002436Y004595D01*
X002337Y004496D02*
X002280Y004496D01*
X002588Y006959D02*
X001932Y006959D01*
X002102Y007057D02*
X002418Y007057D01*
X002319Y007156D02*
X002201Y007156D01*
X002242Y007254D02*
X002278Y007254D01*
X002592Y033455D02*
X001810Y033455D01*
X002095Y033849D02*
X002596Y033849D01*
X002533Y033751D02*
X002184Y033751D01*
X002241Y033652D02*
X002515Y033652D01*
X002531Y033554D02*
X002270Y033554D01*
D15*
X002800Y033650D02*
X003460Y033650D01*
X004080Y033030D01*
X006400Y033030D01*
X006680Y032750D01*
X008260Y032750D01*
X008340Y032830D01*
X008540Y032570D02*
X009580Y033610D01*
X010380Y033610D01*
X010480Y033510D01*
X010120Y033310D02*
X009560Y033310D01*
X008640Y032390D01*
X002760Y032390D01*
X002360Y031990D01*
X002360Y031050D01*
X001760Y030450D01*
X002300Y029990D02*
X003060Y029990D01*
X003880Y030810D01*
X004480Y030810D01*
X005200Y031530D01*
X007580Y031530D01*
X008160Y032110D01*
X008580Y031790D02*
X008040Y031250D01*
X007240Y031250D01*
X006880Y030890D01*
X005560Y030890D01*
X005200Y030530D01*
X005120Y030450D01*
X003760Y030450D01*
X002760Y029450D01*
X002300Y029990D02*
X001760Y029450D01*
X001760Y031450D02*
X001760Y031650D01*
X002680Y032570D01*
X008540Y032570D01*
X008320Y033510D02*
X007940Y033890D01*
X005906Y033890D01*
X005906Y033984D01*
X005900Y033990D01*
X005906Y033890D02*
X004640Y033890D01*
X004260Y034270D01*
X004260Y034950D01*
X003760Y035450D01*
X003440Y034030D02*
X004120Y033350D01*
X006500Y033350D01*
X006820Y033030D01*
X007320Y031030D02*
X006560Y030270D01*
X006160Y030270D01*
X006020Y030130D01*
X005460Y030130D01*
X005280Y029950D01*
X004260Y029950D01*
X003760Y029450D01*
X003760Y028450D02*
X004260Y027950D01*
X004260Y027270D01*
X004640Y026890D01*
X005906Y026890D01*
X005906Y026984D01*
X005900Y026990D01*
X005906Y026890D02*
X007940Y026890D01*
X008320Y026510D01*
X008340Y025830D02*
X008260Y025750D01*
X006680Y025750D01*
X006400Y026030D01*
X004080Y026030D01*
X003460Y026650D01*
X002800Y026650D01*
X003440Y027030D02*
X004120Y026350D01*
X006500Y026350D01*
X006820Y026030D01*
X008160Y025110D02*
X007580Y024530D01*
X005200Y024530D01*
X004480Y023810D01*
X003880Y023810D01*
X003060Y022990D01*
X002300Y022990D01*
X001760Y022450D01*
X001760Y023450D02*
X002360Y024050D01*
X002360Y024990D01*
X002760Y025390D01*
X008640Y025390D01*
X009560Y026310D01*
X010120Y026310D01*
X010380Y026610D02*
X010480Y026510D01*
X010380Y026610D02*
X009580Y026610D01*
X008540Y025570D01*
X002680Y025570D01*
X001760Y024650D01*
X001760Y024450D01*
X002760Y022450D02*
X003760Y023450D01*
X005120Y023450D01*
X005200Y023530D01*
X005560Y023890D01*
X006880Y023890D01*
X007240Y024250D01*
X008040Y024250D01*
X008580Y024790D01*
X009140Y024570D02*
X008600Y024030D01*
X007320Y024030D01*
X006560Y023270D01*
X006160Y023270D01*
X006020Y023130D01*
X005460Y023130D01*
X005280Y022950D01*
X004260Y022950D01*
X003760Y022450D01*
X003760Y021450D02*
X004260Y020950D01*
X004260Y020270D01*
X004640Y019890D01*
X005906Y019890D01*
X005906Y019984D01*
X005900Y019990D01*
X005906Y019890D02*
X007940Y019890D01*
X008320Y019510D01*
X008340Y018830D02*
X008260Y018750D01*
X006680Y018750D01*
X006400Y019030D01*
X004080Y019030D01*
X003460Y019650D01*
X002800Y019650D01*
X003440Y020030D02*
X004120Y019350D01*
X006500Y019350D01*
X006820Y019030D01*
X008160Y018110D02*
X007580Y017530D01*
X005200Y017530D01*
X004480Y016810D01*
X003880Y016810D01*
X003060Y015990D01*
X002300Y015990D01*
X001760Y015450D01*
X001760Y016450D02*
X002360Y017050D01*
X002360Y017990D01*
X002760Y018390D01*
X008640Y018390D01*
X009560Y019310D01*
X010120Y019310D01*
X010380Y019610D02*
X009580Y019610D01*
X008540Y018570D01*
X002680Y018570D01*
X001760Y017650D01*
X001760Y017450D01*
X002760Y015450D02*
X003760Y016450D01*
X005120Y016450D01*
X005200Y016530D01*
X005560Y016890D01*
X006880Y016890D01*
X007240Y017250D01*
X008040Y017250D01*
X008580Y017790D01*
X009140Y017570D02*
X008600Y017030D01*
X007320Y017030D01*
X006560Y016270D01*
X006160Y016270D01*
X006020Y016130D01*
X005460Y016130D01*
X005280Y015950D01*
X004260Y015950D01*
X003760Y015450D01*
X003760Y014450D02*
X004260Y013950D01*
X004260Y013270D01*
X004640Y012890D01*
X005906Y012890D01*
X005906Y012984D01*
X005900Y012990D01*
X005906Y012890D02*
X007940Y012890D01*
X008320Y012510D01*
X008340Y011830D02*
X008260Y011750D01*
X006680Y011750D01*
X006400Y012030D01*
X004080Y012030D01*
X003460Y012650D01*
X002800Y012650D01*
X003440Y013030D02*
X004120Y012350D01*
X006500Y012350D01*
X006820Y012030D01*
X008160Y011110D02*
X007580Y010530D01*
X005200Y010530D01*
X004480Y009810D01*
X003880Y009810D01*
X003060Y008990D01*
X002300Y008990D01*
X001760Y008450D01*
X001760Y009450D02*
X002360Y010050D01*
X002360Y010990D01*
X002760Y011390D01*
X008640Y011390D01*
X009560Y012310D01*
X010120Y012310D01*
X010380Y012610D02*
X009580Y012610D01*
X008540Y011570D01*
X002680Y011570D01*
X001760Y010650D01*
X001760Y010450D01*
X002760Y008450D02*
X003760Y009450D01*
X005120Y009450D01*
X005200Y009530D01*
X005560Y009890D01*
X006880Y009890D01*
X007240Y010250D01*
X008040Y010250D01*
X008580Y010790D01*
X009140Y010570D02*
X008600Y010030D01*
X007320Y010030D01*
X006560Y009270D01*
X006160Y009270D01*
X006020Y009130D01*
X005460Y009130D01*
X005280Y008950D01*
X004260Y008950D01*
X003760Y008450D01*
X003760Y007450D02*
X004260Y006950D01*
X004260Y006270D01*
X004640Y005890D01*
X005906Y005890D01*
X005906Y005984D01*
X005900Y005990D01*
X005906Y005890D02*
X007940Y005890D01*
X008320Y005510D01*
X008340Y004830D02*
X008260Y004750D01*
X006680Y004750D01*
X006400Y005030D01*
X004080Y005030D01*
X003460Y005650D01*
X002800Y005650D01*
X003440Y006030D02*
X004120Y005350D01*
X006500Y005350D01*
X006820Y005030D01*
X008160Y004110D02*
X007580Y003530D01*
X005200Y003530D01*
X004480Y002810D01*
X003880Y002810D01*
X003060Y001990D01*
X002300Y001990D01*
X001760Y001450D01*
X001760Y002450D02*
X002360Y003050D01*
X002360Y003990D01*
X002760Y004390D01*
X008640Y004390D01*
X009560Y005310D01*
X010120Y005310D01*
X010380Y005610D02*
X009580Y005610D01*
X008540Y004570D01*
X002680Y004570D01*
X001760Y003650D01*
X001760Y003450D01*
X002760Y001450D02*
X003760Y002450D01*
X005120Y002450D01*
X005200Y002530D01*
X005560Y002890D01*
X006880Y002890D01*
X007240Y003250D01*
X008040Y003250D01*
X008580Y003790D01*
X009140Y003570D02*
X008600Y003030D01*
X007320Y003030D01*
X006560Y002270D01*
X006160Y002270D01*
X006020Y002130D01*
X005460Y002130D01*
X005280Y001950D01*
X004260Y001950D01*
X003760Y001450D01*
X004760Y001450D02*
X005020Y001450D01*
X005520Y001950D01*
X006080Y001950D01*
X006240Y002110D01*
X006680Y002110D01*
X007420Y002850D01*
X008680Y002850D01*
X009480Y003650D01*
X009480Y004690D01*
X009140Y004470D02*
X009140Y003570D01*
X009760Y003690D02*
X008700Y002630D01*
X007480Y002630D01*
X006800Y001950D01*
X006340Y001950D01*
X006100Y001710D01*
X006020Y001710D01*
X005760Y001450D01*
X006760Y001450D02*
X006760Y001650D01*
X007540Y002430D01*
X008780Y002430D01*
X010040Y003690D01*
X010040Y004090D01*
X009760Y004430D02*
X009760Y003690D01*
X010480Y003450D02*
X010480Y001950D01*
X015100Y001950D01*
X015920Y002770D01*
X017660Y002770D01*
X017860Y002570D01*
X019420Y002570D01*
X020100Y003250D01*
X020100Y004250D01*
X020540Y004690D01*
X020540Y004290D02*
X020280Y004030D01*
X020280Y003190D01*
X019500Y002410D01*
X017780Y002410D01*
X017600Y002590D01*
X016700Y002590D01*
X015760Y001650D01*
X015760Y001450D01*
X016760Y001450D02*
X016760Y002110D01*
X017080Y002430D01*
X017500Y002430D01*
X017680Y002250D01*
X019580Y002250D01*
X020540Y003210D01*
X020540Y003870D01*
X018960Y003990D02*
X018420Y003450D01*
X013440Y003450D01*
X013340Y003350D01*
X013320Y003630D02*
X016880Y003630D01*
X017380Y004130D01*
X017540Y004130D01*
X018260Y004450D02*
X014980Y004450D01*
X014980Y006390D01*
X015458Y006390D01*
X015658Y006590D01*
X016438Y006590D01*
X016538Y006690D01*
X018260Y006690D01*
X018260Y004450D01*
X018260Y004483D02*
X014980Y004483D01*
X014980Y004561D02*
X018260Y004561D01*
X018260Y004640D02*
X014980Y004640D01*
X014980Y004718D02*
X018260Y004718D01*
X018260Y004797D02*
X014980Y004797D01*
X014980Y004875D02*
X018260Y004875D01*
X018260Y004954D02*
X014980Y004954D01*
X014980Y005032D02*
X018260Y005032D01*
X018260Y005111D02*
X014980Y005111D01*
X014980Y005189D02*
X018260Y005189D01*
X018260Y005268D02*
X014980Y005268D01*
X014980Y005346D02*
X018260Y005346D01*
X018260Y005425D02*
X014980Y005425D01*
X014980Y005503D02*
X018260Y005503D01*
X018260Y005582D02*
X014980Y005582D01*
X014980Y005660D02*
X018260Y005660D01*
X018260Y005739D02*
X014980Y005739D01*
X014980Y005817D02*
X018260Y005817D01*
X018260Y005896D02*
X014980Y005896D01*
X014980Y005974D02*
X018260Y005974D01*
X018260Y006053D02*
X014980Y006053D01*
X014980Y006131D02*
X018260Y006131D01*
X018260Y006210D02*
X014980Y006210D01*
X014980Y006288D02*
X018260Y006288D01*
X018260Y006367D02*
X014980Y006367D01*
X014700Y006510D02*
X013880Y005690D01*
X013380Y005690D01*
X012220Y004530D01*
X012220Y004410D01*
X011960Y004790D02*
X012460Y005290D01*
X012460Y006630D01*
X012760Y006930D01*
X013240Y006930D01*
X013760Y007450D01*
X014020Y006710D02*
X013200Y006710D01*
X012820Y006330D01*
X013300Y006330D02*
X013440Y006470D01*
X014060Y006470D01*
X014500Y006910D01*
X015220Y006910D01*
X015760Y007450D01*
X015500Y006910D02*
X016220Y006910D01*
X016760Y007450D01*
X016560Y006910D02*
X016380Y006730D01*
X015600Y006730D01*
X015400Y006530D01*
X014700Y006530D01*
X014700Y006510D01*
X014620Y006730D02*
X015320Y006730D01*
X015500Y006910D01*
X015592Y006524D02*
X018260Y006524D01*
X018260Y006602D02*
X016450Y006602D01*
X016529Y006681D02*
X018260Y006681D01*
X018260Y006445D02*
X015513Y006445D01*
X015140Y005270D02*
X013260Y005270D01*
X012620Y004630D01*
X012620Y004350D01*
X011700Y003430D01*
X011380Y003430D01*
X010760Y004270D02*
X010760Y002430D01*
X011000Y002190D01*
X014420Y002190D01*
X013320Y003630D02*
X013220Y003730D01*
X013720Y006170D02*
X014060Y006170D01*
X014620Y006730D01*
X014020Y006710D02*
X014760Y007450D01*
X015100Y008950D02*
X015920Y009770D01*
X017660Y009770D01*
X017860Y009570D01*
X019420Y009570D01*
X020100Y010250D01*
X020100Y011250D01*
X020540Y011690D01*
X020540Y011290D02*
X020280Y011030D01*
X020280Y010190D01*
X019500Y009410D01*
X017780Y009410D01*
X017600Y009590D01*
X016700Y009590D01*
X015760Y008650D01*
X015760Y008450D01*
X015100Y008950D02*
X010480Y008950D01*
X010480Y010450D01*
X010040Y010690D02*
X010040Y011090D01*
X010040Y010690D02*
X008780Y009430D01*
X007540Y009430D01*
X006760Y008650D01*
X006760Y008450D01*
X006800Y008950D02*
X006340Y008950D01*
X006100Y008710D01*
X006020Y008710D01*
X005760Y008450D01*
X005520Y008950D02*
X006080Y008950D01*
X006240Y009110D01*
X006680Y009110D01*
X007420Y009850D01*
X008680Y009850D01*
X009480Y010650D01*
X009480Y011690D01*
X009140Y011470D02*
X009140Y010570D01*
X009760Y010690D02*
X008700Y009630D01*
X007480Y009630D01*
X006800Y008950D01*
X007760Y008450D02*
X008260Y008950D01*
X010480Y008950D01*
X010760Y009430D02*
X010760Y011270D01*
X011380Y010430D02*
X011700Y010430D01*
X012620Y011350D01*
X012620Y011630D01*
X013260Y012270D01*
X015140Y012270D01*
X014980Y012254D02*
X018260Y012254D01*
X018260Y012176D02*
X014980Y012176D01*
X014980Y012097D02*
X018260Y012097D01*
X018260Y012019D02*
X014980Y012019D01*
X014980Y011940D02*
X018260Y011940D01*
X018260Y011862D02*
X014980Y011862D01*
X014980Y011783D02*
X018260Y011783D01*
X018260Y011705D02*
X014980Y011705D01*
X014980Y011626D02*
X018260Y011626D01*
X018260Y011548D02*
X014980Y011548D01*
X014980Y011469D02*
X018260Y011469D01*
X018260Y011450D02*
X014980Y011450D01*
X014980Y013390D01*
X015458Y013390D01*
X015658Y013590D01*
X016438Y013590D01*
X016538Y013690D01*
X018260Y013690D01*
X018260Y011450D01*
X018260Y012333D02*
X014980Y012333D01*
X014980Y012411D02*
X018260Y012411D01*
X018260Y012490D02*
X014980Y012490D01*
X014980Y012568D02*
X018260Y012568D01*
X018260Y012647D02*
X014980Y012647D01*
X014980Y012725D02*
X018260Y012725D01*
X018260Y012804D02*
X014980Y012804D01*
X014980Y012882D02*
X018260Y012882D01*
X018260Y012961D02*
X014980Y012961D01*
X014980Y013039D02*
X018260Y013039D01*
X018260Y013118D02*
X014980Y013118D01*
X014980Y013196D02*
X018260Y013196D01*
X018260Y013275D02*
X014980Y013275D01*
X014980Y013353D02*
X018260Y013353D01*
X018260Y013432D02*
X015500Y013432D01*
X015578Y013510D02*
X018260Y013510D01*
X018260Y013589D02*
X015657Y013589D01*
X015600Y013730D02*
X016380Y013730D01*
X016560Y013910D01*
X017220Y013910D01*
X017760Y014450D01*
X018260Y013667D02*
X016515Y013667D01*
X016220Y013910D02*
X016760Y014450D01*
X016220Y013910D02*
X015500Y013910D01*
X015320Y013730D01*
X014620Y013730D01*
X014060Y013170D01*
X013720Y013170D01*
X013440Y013470D02*
X014060Y013470D01*
X014500Y013910D01*
X015220Y013910D01*
X015760Y014450D01*
X015600Y013730D02*
X015400Y013530D01*
X014700Y013530D01*
X014700Y013510D01*
X013880Y012690D01*
X013380Y012690D01*
X012220Y011530D01*
X012220Y011410D01*
X011960Y011790D02*
X012460Y012290D01*
X012460Y013630D01*
X012760Y013930D01*
X013240Y013930D01*
X013760Y014450D01*
X014020Y013710D02*
X013200Y013710D01*
X012820Y013330D01*
X013300Y013330D02*
X013440Y013470D01*
X014020Y013710D02*
X014760Y014450D01*
X015100Y015950D02*
X015920Y016770D01*
X017660Y016770D01*
X017860Y016570D01*
X019420Y016570D01*
X020100Y017250D01*
X020100Y018250D01*
X020540Y018690D01*
X020540Y018290D02*
X020280Y018030D01*
X020280Y017190D01*
X019500Y016410D01*
X017780Y016410D01*
X017600Y016590D01*
X016700Y016590D01*
X015760Y015650D01*
X015760Y015450D01*
X015100Y015950D02*
X010480Y015950D01*
X010480Y017450D01*
X010040Y017690D02*
X010040Y018090D01*
X010040Y017690D02*
X008780Y016430D01*
X007540Y016430D01*
X006760Y015650D01*
X006760Y015450D01*
X006800Y015950D02*
X006340Y015950D01*
X006100Y015710D01*
X006020Y015710D01*
X005760Y015450D01*
X005520Y015950D02*
X006080Y015950D01*
X006240Y016110D01*
X006680Y016110D01*
X007420Y016850D01*
X008680Y016850D01*
X009480Y017650D01*
X009480Y018690D01*
X009140Y018470D02*
X009140Y017570D01*
X009760Y017690D02*
X008700Y016630D01*
X007480Y016630D01*
X006800Y015950D01*
X007760Y015450D02*
X008260Y015950D01*
X010480Y015950D01*
X010760Y016430D02*
X010760Y018270D01*
X011380Y017430D02*
X011700Y017430D01*
X012620Y018350D01*
X012620Y018630D01*
X013260Y019270D01*
X015140Y019270D01*
X014980Y019241D02*
X018260Y019241D01*
X018260Y019319D02*
X014980Y019319D01*
X014980Y019398D02*
X018260Y019398D01*
X018260Y019476D02*
X014980Y019476D01*
X014980Y019555D02*
X018260Y019555D01*
X018260Y019633D02*
X014980Y019633D01*
X014980Y019712D02*
X018260Y019712D01*
X018260Y019790D02*
X014980Y019790D01*
X014980Y019869D02*
X018260Y019869D01*
X018260Y019947D02*
X014980Y019947D01*
X014980Y020026D02*
X018260Y020026D01*
X018260Y020104D02*
X014980Y020104D01*
X014980Y020183D02*
X018260Y020183D01*
X018260Y020261D02*
X014980Y020261D01*
X014980Y020340D02*
X018260Y020340D01*
X018260Y020418D02*
X015486Y020418D01*
X015458Y020390D02*
X015540Y020472D01*
X015540Y020472D01*
X015658Y020590D01*
X016438Y020590D01*
X016538Y020690D01*
X018260Y020690D01*
X018260Y018450D01*
X014980Y018450D01*
X014980Y020390D01*
X015458Y020390D01*
X015565Y020497D02*
X018260Y020497D01*
X018260Y020575D02*
X015643Y020575D01*
X015600Y020730D02*
X016380Y020730D01*
X016560Y020910D01*
X017220Y020910D01*
X017760Y021450D01*
X018260Y020654D02*
X016502Y020654D01*
X016220Y020910D02*
X016760Y021450D01*
X016220Y020910D02*
X015500Y020910D01*
X015320Y020730D01*
X014620Y020730D01*
X014060Y020170D01*
X013720Y020170D01*
X013440Y020470D02*
X014060Y020470D01*
X014500Y020910D01*
X015220Y020910D01*
X015760Y021450D01*
X015600Y020730D02*
X015400Y020530D01*
X014700Y020530D01*
X014700Y020510D01*
X013880Y019690D01*
X013380Y019690D01*
X012220Y018530D01*
X012220Y018410D01*
X011960Y018790D02*
X012460Y019290D01*
X012460Y020630D01*
X012760Y020930D01*
X013240Y020930D01*
X013760Y021450D01*
X014020Y020710D02*
X013200Y020710D01*
X012820Y020330D01*
X013300Y020330D02*
X013440Y020470D01*
X014020Y020710D02*
X014760Y021450D01*
X015100Y022950D02*
X015920Y023770D01*
X017660Y023770D01*
X017860Y023570D01*
X019420Y023570D01*
X020100Y024250D01*
X020100Y025250D01*
X020540Y025690D01*
X020540Y025290D02*
X020280Y025030D01*
X020280Y024190D01*
X019500Y023410D01*
X017780Y023410D01*
X017600Y023590D01*
X016700Y023590D01*
X015760Y022650D01*
X015760Y022450D01*
X015100Y022950D02*
X010480Y022950D01*
X010480Y024450D01*
X010040Y024690D02*
X010040Y025090D01*
X010040Y024690D02*
X008780Y023430D01*
X007540Y023430D01*
X006760Y022650D01*
X006760Y022450D01*
X006800Y022950D02*
X006340Y022950D01*
X006100Y022710D01*
X006020Y022710D01*
X005760Y022450D01*
X005520Y022950D02*
X006080Y022950D01*
X006240Y023110D01*
X006680Y023110D01*
X007420Y023850D01*
X008680Y023850D01*
X009480Y024650D01*
X009480Y025690D01*
X009140Y025470D02*
X009140Y024570D01*
X009760Y024690D02*
X008700Y023630D01*
X007480Y023630D01*
X006800Y022950D01*
X007760Y022450D02*
X008260Y022950D01*
X010480Y022950D01*
X010760Y023430D02*
X010760Y025270D01*
X011380Y024430D02*
X011700Y024430D01*
X012620Y025350D01*
X012620Y025630D01*
X013260Y026270D01*
X015140Y026270D01*
X014980Y026306D02*
X018260Y026306D01*
X018260Y026384D02*
X014980Y026384D01*
X014980Y026463D02*
X018260Y026463D01*
X018260Y026541D02*
X014980Y026541D01*
X014980Y026620D02*
X018260Y026620D01*
X018260Y026698D02*
X014980Y026698D01*
X014980Y026777D02*
X018260Y026777D01*
X018260Y026855D02*
X014980Y026855D01*
X014980Y026934D02*
X018260Y026934D01*
X018260Y027012D02*
X014980Y027012D01*
X014980Y027091D02*
X018260Y027091D01*
X018260Y027169D02*
X014980Y027169D01*
X014980Y027248D02*
X018260Y027248D01*
X018260Y027326D02*
X014980Y027326D01*
X014980Y027390D02*
X015458Y027390D01*
X015658Y027590D01*
X016438Y027590D01*
X016538Y027690D01*
X018260Y027690D01*
X018260Y025450D01*
X014980Y025450D01*
X014980Y027390D01*
X014700Y027510D02*
X013880Y026690D01*
X013380Y026690D01*
X012220Y025530D01*
X012220Y025410D01*
X011960Y025790D02*
X012460Y026290D01*
X012460Y027630D01*
X012760Y027930D01*
X013240Y027930D01*
X013760Y028450D01*
X014020Y027710D02*
X013200Y027710D01*
X012820Y027330D01*
X013300Y027330D02*
X013440Y027470D01*
X014060Y027470D01*
X014500Y027910D01*
X015220Y027910D01*
X015760Y028450D01*
X015500Y027910D02*
X016220Y027910D01*
X016760Y028450D01*
X016560Y027910D02*
X016380Y027730D01*
X015600Y027730D01*
X015400Y027530D01*
X014700Y027530D01*
X014700Y027510D01*
X014620Y027730D02*
X015320Y027730D01*
X015500Y027910D01*
X015630Y027562D02*
X018260Y027562D01*
X018260Y027640D02*
X016488Y027640D01*
X016560Y027910D02*
X017220Y027910D01*
X017760Y028450D01*
X018260Y027483D02*
X015551Y027483D01*
X015473Y027405D02*
X018260Y027405D01*
X018260Y026227D02*
X014980Y026227D01*
X014980Y026149D02*
X018260Y026149D01*
X018260Y026070D02*
X014980Y026070D01*
X014980Y025992D02*
X018260Y025992D01*
X018260Y025913D02*
X014980Y025913D01*
X014980Y025835D02*
X018260Y025835D01*
X018260Y025756D02*
X014980Y025756D01*
X014980Y025678D02*
X018260Y025678D01*
X018260Y025599D02*
X014980Y025599D01*
X014980Y025521D02*
X018260Y025521D01*
X018960Y025450D02*
X018960Y024990D01*
X018420Y024450D01*
X013440Y024450D01*
X013340Y024350D01*
X013320Y024630D02*
X016880Y024630D01*
X017380Y025130D01*
X017540Y025130D01*
X017500Y023430D02*
X017080Y023430D01*
X016760Y023110D01*
X016760Y022450D01*
X017680Y023250D02*
X019580Y023250D01*
X020540Y024210D01*
X020540Y024870D01*
X017680Y023250D02*
X017500Y023430D01*
X018260Y019162D02*
X014980Y019162D01*
X014980Y019084D02*
X018260Y019084D01*
X018260Y019005D02*
X014980Y019005D01*
X014980Y018927D02*
X018260Y018927D01*
X018260Y018848D02*
X014980Y018848D01*
X014980Y018770D02*
X018260Y018770D01*
X018260Y018691D02*
X014980Y018691D01*
X014980Y018613D02*
X018260Y018613D01*
X018260Y018534D02*
X014980Y018534D01*
X014980Y018456D02*
X018260Y018456D01*
X018960Y018450D02*
X018960Y017990D01*
X018420Y017450D01*
X013440Y017450D01*
X013340Y017350D01*
X013320Y017630D02*
X016880Y017630D01*
X017380Y018130D01*
X017540Y018130D01*
X017500Y016430D02*
X017080Y016430D01*
X016760Y016110D01*
X016760Y015450D01*
X017680Y016250D02*
X019580Y016250D01*
X020540Y017210D01*
X020540Y017870D01*
X017680Y016250D02*
X017500Y016430D01*
X018960Y011450D02*
X018960Y010990D01*
X018420Y010450D01*
X013440Y010450D01*
X013340Y010350D01*
X013320Y010630D02*
X016880Y010630D01*
X017380Y011130D01*
X017540Y011130D01*
X017500Y009430D02*
X017080Y009430D01*
X016760Y009110D01*
X016760Y008450D01*
X017680Y009250D02*
X019580Y009250D01*
X020540Y010210D01*
X020540Y010870D01*
X017760Y007450D02*
X017220Y006910D01*
X016560Y006910D01*
X017680Y009250D02*
X017500Y009430D01*
X018960Y004450D02*
X018960Y003990D01*
X014420Y009190D02*
X011000Y009190D01*
X010760Y009430D01*
X009760Y010690D02*
X009760Y011430D01*
X010480Y012510D02*
X010380Y012610D01*
X011360Y012410D02*
X011680Y012730D01*
X011680Y013330D01*
X011060Y013950D01*
X005460Y013950D01*
X004760Y013250D01*
X004760Y015450D02*
X005020Y015450D01*
X005520Y015950D01*
X004760Y020250D02*
X005460Y020950D01*
X011060Y020950D01*
X011680Y020330D01*
X011680Y019730D01*
X011360Y019410D01*
X010480Y019510D02*
X010380Y019610D01*
X009760Y018430D02*
X009760Y017690D01*
X010760Y016430D02*
X011000Y016190D01*
X014420Y016190D01*
X013320Y017630D02*
X013220Y017730D01*
X014420Y023190D02*
X011000Y023190D01*
X010760Y023430D01*
X009760Y024690D02*
X009760Y025430D01*
X011360Y026410D02*
X011680Y026730D01*
X011680Y027330D01*
X011060Y027950D01*
X005460Y027950D01*
X004760Y027250D01*
X004760Y029450D02*
X005020Y029450D01*
X005520Y029950D01*
X006080Y029950D01*
X006240Y030110D01*
X006680Y030110D01*
X007420Y030850D01*
X008680Y030850D01*
X009480Y031650D01*
X009480Y032690D01*
X009140Y032470D02*
X009140Y031570D01*
X008600Y031030D01*
X007320Y031030D01*
X007480Y030630D02*
X008700Y030630D01*
X009760Y031690D01*
X009760Y032430D01*
X010040Y032090D02*
X010040Y031690D01*
X008780Y030430D01*
X007540Y030430D01*
X006760Y029650D01*
X006760Y029450D01*
X006800Y029950D02*
X006340Y029950D01*
X006100Y029710D01*
X006020Y029710D01*
X005760Y029450D01*
X006800Y029950D02*
X007480Y030630D01*
X008260Y029950D02*
X007760Y029450D01*
X008260Y029950D02*
X010480Y029950D01*
X010480Y031450D01*
X010760Y032270D02*
X010760Y030430D01*
X011000Y030190D01*
X014420Y030190D01*
X015100Y029950D02*
X015920Y030770D01*
X017660Y030770D01*
X017860Y030570D01*
X019420Y030570D01*
X020100Y031250D01*
X020100Y032250D01*
X020540Y032690D01*
X020540Y032290D02*
X020280Y032030D01*
X020280Y031190D01*
X019500Y030410D01*
X017780Y030410D01*
X017600Y030590D01*
X016700Y030590D01*
X015760Y029650D01*
X015760Y029450D01*
X015100Y029950D02*
X010480Y029950D01*
X011380Y031430D02*
X011700Y031430D01*
X012620Y032350D01*
X012620Y032630D01*
X013260Y033270D01*
X015140Y033270D01*
X014980Y033292D02*
X018260Y033292D01*
X018260Y033214D02*
X014980Y033214D01*
X014980Y033135D02*
X018260Y033135D01*
X018260Y033057D02*
X014980Y033057D01*
X014980Y032978D02*
X018260Y032978D01*
X018260Y032900D02*
X014980Y032900D01*
X014980Y032821D02*
X018260Y032821D01*
X018260Y032743D02*
X014980Y032743D01*
X014980Y032664D02*
X018260Y032664D01*
X018260Y032586D02*
X014980Y032586D01*
X014980Y032507D02*
X018260Y032507D01*
X018260Y032450D02*
X014980Y032450D01*
X014980Y034390D01*
X015458Y034390D01*
X015658Y034590D01*
X016438Y034590D01*
X016538Y034690D01*
X018260Y034690D01*
X018260Y032450D01*
X018260Y033371D02*
X014980Y033371D01*
X014980Y033449D02*
X018260Y033449D01*
X018260Y033528D02*
X014980Y033528D01*
X014980Y033606D02*
X018260Y033606D01*
X018260Y033685D02*
X014980Y033685D01*
X014980Y033763D02*
X018260Y033763D01*
X018260Y033842D02*
X014980Y033842D01*
X014980Y033920D02*
X018260Y033920D01*
X018260Y033999D02*
X014980Y033999D01*
X014980Y034077D02*
X018260Y034077D01*
X018260Y034156D02*
X014980Y034156D01*
X014980Y034234D02*
X018260Y034234D01*
X018260Y034313D02*
X014980Y034313D01*
X014700Y034510D02*
X013880Y033690D01*
X013380Y033690D01*
X012220Y032530D01*
X012220Y032410D01*
X011960Y032790D02*
X012460Y033290D01*
X012460Y034630D01*
X012760Y034930D01*
X013240Y034930D01*
X013760Y035450D01*
X014020Y034710D02*
X013200Y034710D01*
X012820Y034330D01*
X013300Y034330D02*
X013440Y034470D01*
X014060Y034470D01*
X014500Y034910D01*
X015220Y034910D01*
X015760Y035450D01*
X015500Y034910D02*
X016220Y034910D01*
X016760Y035450D01*
X016560Y034910D02*
X016380Y034730D01*
X015600Y034730D01*
X015400Y034530D01*
X014700Y034530D01*
X014700Y034510D01*
X014620Y034730D02*
X015320Y034730D01*
X015500Y034910D01*
X015616Y034548D02*
X018260Y034548D01*
X018260Y034470D02*
X015538Y034470D01*
X015459Y034391D02*
X018260Y034391D01*
X018260Y034627D02*
X016475Y034627D01*
X016560Y034910D02*
X017220Y034910D01*
X017760Y035450D01*
X018960Y032450D02*
X018960Y031990D01*
X018420Y031450D01*
X013440Y031450D01*
X013340Y031350D01*
X013320Y031630D02*
X016880Y031630D01*
X017380Y032130D01*
X017540Y032130D01*
X017500Y030430D02*
X017080Y030430D01*
X016760Y030110D01*
X016760Y029450D01*
X017680Y030250D02*
X019580Y030250D01*
X020540Y031210D01*
X020540Y031870D01*
X017680Y030250D02*
X017500Y030430D01*
X014760Y028450D02*
X014020Y027710D01*
X014060Y027170D02*
X013720Y027170D01*
X014060Y027170D02*
X014620Y027730D01*
X013220Y024730D02*
X013320Y024630D01*
X013320Y031630D02*
X013220Y031730D01*
X013720Y034170D02*
X014060Y034170D01*
X014620Y034730D01*
X014020Y034710D02*
X014760Y035450D01*
X011680Y034330D02*
X011680Y033730D01*
X011360Y033410D01*
X011680Y034330D02*
X011060Y034950D01*
X005460Y034950D01*
X004760Y034250D01*
X005520Y022950D02*
X005020Y022450D01*
X004760Y022450D01*
X005520Y008950D02*
X005020Y008450D01*
X004760Y008450D01*
X005460Y006950D02*
X011060Y006950D01*
X011680Y006330D01*
X011680Y005730D01*
X011360Y005410D01*
X010480Y005510D02*
X010380Y005610D01*
X010480Y001950D02*
X008260Y001950D01*
X007760Y001450D01*
X004760Y006250D02*
X005460Y006950D01*
X013220Y010730D02*
X013320Y010630D01*
D16*
X017240Y009190D02*
X017420Y009010D01*
X020200Y009010D01*
X020760Y008450D01*
X020760Y007450D02*
X019980Y006670D01*
X019440Y006670D01*
X017240Y002190D02*
X017420Y002010D01*
X020200Y002010D01*
X020760Y001450D01*
X019980Y013670D02*
X019440Y013670D01*
X019980Y013670D02*
X020760Y014450D01*
X020760Y015450D02*
X020200Y016010D01*
X017420Y016010D01*
X017240Y016190D01*
X019440Y020670D02*
X019980Y020670D01*
X020760Y021450D01*
X020760Y022450D02*
X020200Y023010D01*
X017420Y023010D01*
X017240Y023190D01*
X019440Y027670D02*
X019980Y027670D01*
X020760Y028450D01*
X020760Y029450D02*
X020200Y030010D01*
X017420Y030010D01*
X017240Y030190D01*
X019440Y034670D02*
X019980Y034670D01*
X020760Y035450D01*
M02*
