%
M48
M72
T01C0.0150
T02C0.0320
T03C0.0354
T04C0.0400
%
T01
X18760Y20198
X17420Y21018
X14840Y21598
X14720Y21978
X13720Y22658
X14520Y22698
X13460Y23038
X12860Y23658
X11980Y23758
X11620Y23558
X10980Y22938
X11260Y22678
X10640Y22718
X9840Y23078
X9820Y23758
X10400Y24258
X8320Y23278
X7400Y24238
X6260Y24498
X4940Y24278
X4300Y23898
X5000Y23198
X5580Y23278
X9660Y22358
X10080Y22038
X11540Y22338
X12160Y21478
X12880Y21678
X10840Y20758
X16200Y23058
X17900Y23038
X18840Y23338
X20460Y22698
X19040Y22378
X20760Y21138
X22040Y22118
X22040Y22538
X22040Y22938
X18760Y24398
X17900Y24598
X15220Y24418
X14800Y24578
X14320Y24578
X13480Y24398
X20940Y24918
T02
X6700Y21778
X6700Y20778
T03
X20760Y22009
X20760Y23387
T04
X3260Y19698
X4260Y19698
X5260Y19698
X6260Y19698
X7260Y19698
X8260Y19698
X9260Y19698
X10260Y19698
X11260Y19698
X12260Y19698
X13260Y19698
X14260Y19698
X15260Y19698
X16260Y19698
X17260Y19698
X18260Y19698
X19260Y19698
X20260Y19698
X21260Y19698
X22260Y19698
X22260Y25698
X21260Y25698
X20260Y25698
X19260Y25698
X18260Y25698
X17260Y25698
X16260Y25698
X15260Y25698
X14260Y25698
X13260Y25698
X12260Y25698
X11260Y25698
X10260Y25698
X9260Y25698
X8260Y25698
X7260Y25698
X6260Y25698
X5260Y25698
X4260Y25698
X3260Y25698
X3260Y24698
X3260Y23698
X3260Y22698
X3260Y21698
X3260Y20698
M30
