G75*
G70*
%OFA0B0*%
%FSLAX24Y24*%
%IPPOS*%
%LPD*%
%AMOC8*
5,1,8,0,0,1.08239X$1,22.5*
%
%ADD10R,0.0394X0.0433*%
%ADD11R,0.0433X0.0394*%
%ADD12R,0.0315X0.0315*%
%ADD13R,0.0600X0.0300*%
%ADD14R,0.0472X0.0315*%
%ADD15R,0.0945X0.0787*%
%ADD16R,0.0748X0.0551*%
%ADD17R,0.0551X0.0709*%
%ADD18R,0.0591X0.0315*%
%ADD19R,0.0472X0.0118*%
%ADD20R,0.0118X0.0472*%
%ADD21R,0.0551X0.0315*%
%ADD22R,0.0866X0.0709*%
%ADD23R,0.0512X0.0413*%
%ADD24R,0.0327X0.0248*%
%ADD25R,0.0787X0.0197*%
%ADD26R,0.0866X0.0984*%
D10*
X023456Y021965D03*
X023456Y022635D03*
X018976Y025465D03*
X018976Y026135D03*
D11*
X020361Y025950D03*
X021030Y025950D03*
X021030Y025050D03*
X020361Y025050D03*
X020861Y023800D03*
X021530Y023800D03*
X021530Y020800D03*
X020861Y020800D03*
X020861Y019800D03*
X021530Y019800D03*
X023361Y020800D03*
X024030Y020800D03*
X014030Y025300D03*
X013361Y025300D03*
X012530Y023800D03*
X012530Y023300D03*
X012530Y022800D03*
X011861Y022800D03*
X011861Y023300D03*
X011861Y023800D03*
X009530Y023300D03*
X008861Y023300D03*
X008861Y022300D03*
X009530Y022300D03*
X011861Y021800D03*
X012530Y021800D03*
D12*
X012491Y021300D03*
X011900Y021300D03*
X011900Y024300D03*
X012491Y024300D03*
D13*
X008696Y019490D03*
X010696Y019490D03*
X010696Y020990D03*
X008696Y020990D03*
X008696Y024490D03*
X008696Y025990D03*
X010696Y025990D03*
X010696Y024490D03*
D14*
X022696Y022654D03*
X022696Y021946D03*
D15*
X021196Y021513D03*
X021196Y023087D03*
D16*
X002561Y025373D03*
X002167Y020196D03*
D17*
X007738Y022499D03*
X007738Y024743D03*
D18*
X003841Y022463D03*
X003683Y022030D03*
X003683Y022896D03*
X003604Y023330D03*
X003683Y023763D03*
X003604Y024196D03*
X003683Y024629D03*
X003683Y025062D03*
D19*
X014452Y024276D03*
X014452Y024080D03*
X014452Y023883D03*
X014452Y023686D03*
X014452Y023489D03*
X014452Y023292D03*
X014452Y023095D03*
X014452Y022898D03*
X014452Y022702D03*
X014452Y022505D03*
X014452Y022308D03*
X014452Y022111D03*
X014452Y021914D03*
X014452Y021717D03*
X014452Y021520D03*
X014452Y021324D03*
X018940Y021324D03*
X018940Y021520D03*
X018940Y021717D03*
X018940Y021914D03*
X018940Y022111D03*
X018940Y022308D03*
X018940Y022505D03*
X018940Y022702D03*
X018940Y022898D03*
X018940Y023095D03*
X018940Y023292D03*
X018940Y023489D03*
X018940Y023686D03*
X018940Y023883D03*
X018940Y024080D03*
X018940Y024276D03*
D20*
X018172Y025044D03*
X017975Y025044D03*
X017778Y025044D03*
X017582Y025044D03*
X017385Y025044D03*
X017188Y025044D03*
X016991Y025044D03*
X016794Y025044D03*
X016597Y025044D03*
X016400Y025044D03*
X016204Y025044D03*
X016007Y025044D03*
X015810Y025044D03*
X015613Y025044D03*
X015416Y025044D03*
X015219Y025044D03*
X015219Y020556D03*
X015416Y020556D03*
X015613Y020556D03*
X015810Y020556D03*
X016007Y020556D03*
X016204Y020556D03*
X016400Y020556D03*
X016597Y020556D03*
X016794Y020556D03*
X016991Y020556D03*
X017188Y020556D03*
X017385Y020556D03*
X017582Y020556D03*
X017778Y020556D03*
X017975Y020556D03*
X018172Y020556D03*
D21*
X023416Y023429D03*
X023416Y024020D03*
X023416Y024611D03*
D22*
X024629Y024020D03*
D23*
X019736Y025217D03*
X019736Y026143D03*
D24*
X024256Y022753D03*
X024976Y022753D03*
X024976Y021847D03*
X024256Y021847D03*
D25*
X026511Y022170D03*
X026511Y022485D03*
X026511Y022800D03*
X026511Y023115D03*
X026511Y023430D03*
D26*
X026708Y024454D03*
X028795Y024454D03*
X028795Y021146D03*
X026708Y021146D03*
M02*
