G75*
G70*
%OFA0B0*%
%FSLAX24Y24*%
%IPPOS*%
%LPD*%
%AMOC8*
5,1,8,0,0,1.08239X$1,22.5*
%
%ADD10C,0.0780*%
%ADD11R,0.0780X0.0780*%
%ADD12C,0.0700*%
%ADD13C,0.0394*%
D10*
X002196Y018300D03*
X003196Y018300D03*
X004196Y018300D03*
X005196Y018300D03*
X006196Y018300D03*
X007196Y018300D03*
X008196Y018300D03*
X009196Y018300D03*
X010196Y018300D03*
X011196Y018300D03*
X012196Y018300D03*
X013196Y018300D03*
X014196Y018300D03*
X015196Y018300D03*
X016196Y018300D03*
X017196Y018300D03*
X018196Y018300D03*
X019196Y018300D03*
X020196Y018300D03*
X021196Y018300D03*
X022196Y018300D03*
X023196Y018300D03*
X024196Y018300D03*
X025196Y018300D03*
X026196Y018300D03*
X027196Y018300D03*
X028196Y018300D03*
X029196Y018300D03*
X028196Y027300D03*
X027196Y027300D03*
X026196Y027300D03*
X025196Y027300D03*
X024196Y027300D03*
X023196Y027300D03*
X022196Y027300D03*
X021196Y027300D03*
X020196Y027300D03*
X019196Y027300D03*
X018196Y027300D03*
X017196Y027300D03*
X016196Y027300D03*
X015196Y027300D03*
X014196Y027300D03*
X013196Y027300D03*
X012196Y027300D03*
X011196Y027300D03*
X010196Y027300D03*
X009196Y027300D03*
X008196Y027300D03*
X007196Y027300D03*
X006196Y027300D03*
X005196Y027300D03*
X004196Y027300D03*
X003196Y027300D03*
X002196Y027300D03*
D11*
X029196Y027300D03*
D12*
X021696Y026050D03*
X021696Y025050D03*
D13*
X027496Y023489D03*
X027496Y022111D03*
M02*
