%
M48
M72
T01C0.0150
T02C0.0320
T03C0.0354
T04C0.0400
%
T01
X14846Y19540
X15216Y19880
X14796Y20150
X13856Y21480
X15376Y21720
X15856Y21720
X16256Y22040
X15936Y22360
X16736Y22920
X16336Y23400
X17376Y23850
X17746Y23600
X17776Y23090
X18256Y23080
X19456Y23240
X19616Y22200
X20116Y22170
X19496Y21540
X19920Y21204
X18376Y22280
X17376Y21080
X20376Y19800
X22696Y20800
X24016Y20280
X25556Y20300
X25616Y21800
X25776Y22440
X25496Y22840
X25376Y23200
X24816Y23200
X24196Y23200
X22356Y23300
X24046Y24720
X24816Y24720
X25396Y24720
X28196Y25300
X27696Y22760
X18976Y24960
X16536Y25800
X16256Y24520
X15536Y23600
X15056Y23600
X13056Y23400
X13056Y23880
X12256Y25080
X11776Y25080
X10416Y25080
X10016Y23320
X11216Y23320
X10016Y22280
X12536Y22280
X9936Y20550
X6196Y20300
X4536Y22460
X5196Y22900
X4556Y23330
X2696Y23300
X4447Y24629
X5376Y25560
X14656Y25280
T02
X21696Y25050
X21696Y26050
T03
X27496Y23489
X27496Y22111
T04
X2196Y18300
X3196Y18300
X4196Y18300
X5196Y18300
X6196Y18300
X7196Y18300
X8196Y18300
X9196Y18300
X10196Y18300
X11196Y18300
X12196Y18300
X13196Y18300
X14196Y18300
X15196Y18300
X16196Y18300
X17196Y18300
X18196Y18300
X19196Y18300
X20196Y18300
X21196Y18300
X22196Y18300
X23196Y18300
X24196Y18300
X25196Y18300
X26196Y18300
X27196Y18300
X28196Y18300
X29196Y18300
X29196Y27300
X28196Y27300
X27196Y27300
X26196Y27300
X25196Y27300
X24196Y27300
X23196Y27300
X22196Y27300
X21196Y27300
X20196Y27300
X19196Y27300
X18196Y27300
X17196Y27300
X16196Y27300
X15196Y27300
X14196Y27300
X13196Y27300
X12196Y27300
X11196Y27300
X10196Y27300
X9196Y27300
X8196Y27300
X7196Y27300
X6196Y27300
X5196Y27300
X4196Y27300
X3196Y27300
X2196Y27300
M30
