G75*
G70*
%OFA0B0*%
%FSLAX24Y24*%
%IPPOS*%
%LPD*%
%AMOC8*
5,1,8,0,0,1.08239X$1,22.5*
%
%ADD10C,0.0000*%
%ADD11C,0.0070*%
%ADD12C,0.0060*%
%ADD13C,0.0100*%
D10*
X001050Y000150D02*
X001050Y007150D01*
X021050Y007150D01*
X021050Y000150D01*
X001050Y000150D01*
X018873Y002784D02*
X018875Y002810D01*
X018881Y002836D01*
X018891Y002861D01*
X018904Y002884D01*
X018920Y002904D01*
X018940Y002922D01*
X018962Y002937D01*
X018985Y002949D01*
X019011Y002957D01*
X019037Y002961D01*
X019063Y002961D01*
X019089Y002957D01*
X019115Y002949D01*
X019139Y002937D01*
X019160Y002922D01*
X019180Y002904D01*
X019196Y002884D01*
X019209Y002861D01*
X019219Y002836D01*
X019225Y002810D01*
X019227Y002784D01*
X019225Y002758D01*
X019219Y002732D01*
X019209Y002707D01*
X019196Y002684D01*
X019180Y002664D01*
X019160Y002646D01*
X019138Y002631D01*
X019115Y002619D01*
X019089Y002611D01*
X019063Y002607D01*
X019037Y002607D01*
X019011Y002611D01*
X018985Y002619D01*
X018961Y002631D01*
X018940Y002646D01*
X018920Y002664D01*
X018904Y002684D01*
X018891Y002707D01*
X018881Y002732D01*
X018875Y002758D01*
X018873Y002784D01*
X018873Y004516D02*
X018875Y004542D01*
X018881Y004568D01*
X018891Y004593D01*
X018904Y004616D01*
X018920Y004636D01*
X018940Y004654D01*
X018962Y004669D01*
X018985Y004681D01*
X019011Y004689D01*
X019037Y004693D01*
X019063Y004693D01*
X019089Y004689D01*
X019115Y004681D01*
X019139Y004669D01*
X019160Y004654D01*
X019180Y004636D01*
X019196Y004616D01*
X019209Y004593D01*
X019219Y004568D01*
X019225Y004542D01*
X019227Y004516D01*
X019225Y004490D01*
X019219Y004464D01*
X019209Y004439D01*
X019196Y004416D01*
X019180Y004396D01*
X019160Y004378D01*
X019138Y004363D01*
X019115Y004351D01*
X019089Y004343D01*
X019063Y004339D01*
X019037Y004339D01*
X019011Y004343D01*
X018985Y004351D01*
X018961Y004363D01*
X018940Y004378D01*
X018920Y004396D01*
X018904Y004416D01*
X018891Y004439D01*
X018881Y004464D01*
X018875Y004490D01*
X018873Y004516D01*
D11*
X018660Y004896D02*
X018715Y004951D01*
X018715Y005061D01*
X018660Y005116D01*
X018605Y005116D01*
X018550Y005061D01*
X018495Y005116D01*
X018440Y005116D01*
X018385Y005061D01*
X018385Y004951D01*
X018440Y004896D01*
X018550Y005006D02*
X018550Y005061D01*
X018440Y005264D02*
X018440Y005319D01*
X018385Y005319D01*
X018385Y005264D01*
X018440Y005264D01*
X018440Y005448D02*
X018385Y005503D01*
X018385Y005614D01*
X018440Y005669D01*
X018495Y005669D01*
X018550Y005614D01*
X018550Y005558D01*
X018550Y005614D02*
X018605Y005669D01*
X018660Y005669D01*
X018715Y005614D01*
X018715Y005503D01*
X018660Y005448D01*
X019385Y005448D02*
X019715Y005448D01*
X019385Y005669D01*
X019715Y005669D01*
X019715Y005817D02*
X019385Y005817D01*
X019385Y005982D01*
X019440Y006037D01*
X019660Y006037D01*
X019715Y005982D01*
X019715Y005817D01*
X020395Y005870D02*
X020450Y005815D01*
X020670Y005815D01*
X020615Y005870D02*
X020615Y005759D01*
X020615Y005611D02*
X020395Y005611D01*
X020395Y005446D01*
X020450Y005391D01*
X020615Y005391D01*
X020560Y005243D02*
X020615Y005188D01*
X020615Y005078D01*
X020560Y005023D01*
X020450Y005023D01*
X020395Y005078D01*
X020395Y005188D01*
X020450Y005243D01*
X020560Y005243D01*
X019715Y005245D02*
X019715Y005135D01*
X019660Y005080D01*
X019440Y005080D01*
X019385Y005135D01*
X019385Y005245D01*
X019440Y005300D01*
X019550Y005300D01*
X019550Y005190D01*
X019660Y005300D02*
X019715Y005245D01*
X020395Y004765D02*
X020505Y004875D01*
X020725Y004875D01*
X020505Y004655D02*
X020395Y004765D01*
X020505Y004655D02*
X020725Y004655D01*
X017625Y005558D02*
X017515Y005669D01*
X017295Y005669D01*
X017460Y005669D02*
X017460Y005448D01*
X017515Y005448D02*
X017625Y005558D01*
X017515Y005448D02*
X017295Y005448D01*
X017350Y005817D02*
X017570Y006037D01*
X017350Y006037D01*
X017295Y005982D01*
X017295Y005872D01*
X017350Y005817D01*
X017570Y005817D01*
X017625Y005872D01*
X017625Y005982D01*
X017570Y006037D01*
X018385Y005927D02*
X018495Y006037D01*
X018715Y006037D01*
X018495Y005817D02*
X018385Y005927D01*
X018495Y005817D02*
X018715Y005817D01*
X016715Y005927D02*
X016605Y005817D01*
X016385Y005817D02*
X016385Y006037D01*
X016385Y005927D02*
X016715Y005927D01*
X015755Y005982D02*
X015755Y005872D01*
X015700Y005817D01*
X015755Y005982D02*
X015700Y006037D01*
X015645Y006037D01*
X015425Y005817D01*
X015425Y006037D01*
X014695Y005917D02*
X014365Y005917D01*
X014365Y005807D02*
X014365Y006027D01*
X014585Y005807D02*
X014695Y005917D01*
X014585Y005659D02*
X014365Y005659D01*
X014530Y005659D02*
X014530Y005438D01*
X014585Y005438D02*
X014695Y005548D01*
X014585Y005659D01*
X014585Y005438D02*
X014365Y005438D01*
X013685Y005548D02*
X013575Y005659D01*
X013355Y005659D01*
X013520Y005659D02*
X013520Y005438D01*
X013575Y005438D02*
X013355Y005438D01*
X013575Y005438D02*
X013685Y005548D01*
X013630Y005807D02*
X013685Y005862D01*
X013685Y005972D01*
X013630Y006027D01*
X013575Y006027D01*
X013355Y005807D01*
X013355Y006027D01*
X012705Y005982D02*
X012705Y005872D01*
X012650Y005817D01*
X012430Y005817D02*
X012375Y005872D01*
X012375Y005982D01*
X012430Y006037D01*
X012485Y006037D01*
X012540Y005982D01*
X012540Y005927D01*
X012540Y005982D02*
X012595Y006037D01*
X012650Y006037D01*
X012705Y005982D01*
X012595Y005669D02*
X012375Y005669D01*
X012540Y005669D02*
X012540Y005448D01*
X012595Y005448D02*
X012705Y005558D01*
X012595Y005669D01*
X012595Y005448D02*
X012375Y005448D01*
X011585Y005558D02*
X011475Y005448D01*
X011255Y005448D01*
X011420Y005448D02*
X011420Y005669D01*
X011475Y005669D02*
X011255Y005669D01*
X011475Y005669D02*
X011585Y005558D01*
X011420Y005817D02*
X011420Y006037D01*
X011255Y005982D02*
X011585Y005982D01*
X011420Y005817D01*
X010705Y005817D02*
X010705Y006037D01*
X010595Y005982D02*
X010540Y006037D01*
X010430Y006037D01*
X010375Y005982D01*
X010375Y005872D01*
X010430Y005817D01*
X010540Y005817D02*
X010595Y005927D01*
X010595Y005982D01*
X010540Y005817D02*
X010705Y005817D01*
X010595Y005669D02*
X010375Y005669D01*
X010540Y005669D02*
X010540Y005448D01*
X010595Y005448D02*
X010705Y005558D01*
X010595Y005669D01*
X010595Y005448D02*
X010375Y005448D01*
X009715Y005558D02*
X009605Y005669D01*
X009385Y005669D01*
X009550Y005669D02*
X009550Y005448D01*
X009605Y005448D02*
X009715Y005558D01*
X009605Y005448D02*
X009385Y005448D01*
X008715Y005558D02*
X008605Y005669D01*
X008385Y005669D01*
X008550Y005669D02*
X008550Y005448D01*
X008605Y005448D02*
X008715Y005558D01*
X008605Y005448D02*
X008385Y005448D01*
X007715Y005558D02*
X007605Y005669D01*
X007385Y005669D01*
X007550Y005669D02*
X007550Y005448D01*
X007605Y005448D02*
X007715Y005558D01*
X007605Y005448D02*
X007385Y005448D01*
X006715Y005558D02*
X006605Y005669D01*
X006385Y005669D01*
X006550Y005669D02*
X006550Y005448D01*
X006605Y005448D02*
X006385Y005448D01*
X006605Y005448D02*
X006715Y005558D01*
X006660Y005817D02*
X006605Y005817D01*
X006550Y005872D01*
X006550Y006037D01*
X006440Y006037D02*
X006660Y006037D01*
X006715Y005982D01*
X006715Y005872D01*
X006660Y005817D01*
X006440Y005817D02*
X006385Y005872D01*
X006385Y005982D01*
X006440Y006037D01*
X005545Y005982D02*
X005545Y005872D01*
X005490Y005817D01*
X005270Y005817D01*
X005490Y006037D01*
X005270Y006037D01*
X005215Y005982D01*
X005215Y005872D01*
X005270Y005817D01*
X005215Y005669D02*
X005215Y005448D01*
X005435Y005448D02*
X005545Y005558D01*
X005215Y005558D01*
X005215Y005300D02*
X005435Y005300D01*
X005545Y005190D01*
X005435Y005080D01*
X005215Y005080D01*
X005380Y005080D02*
X005380Y005300D01*
X005545Y005982D02*
X005490Y006037D01*
X007385Y005982D02*
X007385Y005872D01*
X007440Y005817D01*
X007495Y005817D01*
X007550Y005872D01*
X007550Y005982D01*
X007495Y006037D01*
X007440Y006037D01*
X007385Y005982D01*
X007550Y005982D02*
X007605Y006037D01*
X007660Y006037D01*
X007715Y005982D01*
X007715Y005872D01*
X007660Y005817D01*
X007605Y005817D01*
X007550Y005872D01*
X008385Y005817D02*
X008440Y005817D01*
X008660Y006037D01*
X008715Y006037D01*
X008715Y005817D01*
X009385Y005872D02*
X009440Y005817D01*
X009550Y005817D01*
X009550Y005982D01*
X009495Y006037D01*
X009440Y006037D01*
X009385Y005982D01*
X009385Y005872D01*
X009550Y005817D02*
X009660Y005927D01*
X009715Y006037D01*
X004245Y003862D02*
X004190Y003917D01*
X004080Y003917D01*
X004025Y003862D01*
X004025Y003697D01*
X003915Y003697D02*
X004245Y003697D01*
X004245Y003862D01*
X004190Y003549D02*
X004245Y003494D01*
X004245Y003383D01*
X004190Y003328D01*
X004135Y003328D01*
X004080Y003383D01*
X004080Y003494D01*
X004025Y003549D01*
X003970Y003549D01*
X003915Y003494D01*
X003915Y003383D01*
X003970Y003328D01*
X003970Y003180D02*
X003915Y003125D01*
X003915Y003015D01*
X003970Y002960D01*
X004190Y002960D01*
X004245Y003015D01*
X004245Y003125D01*
X004190Y003180D01*
X004245Y002825D02*
X004245Y002715D01*
X004245Y002770D02*
X003915Y002770D01*
X003915Y002715D02*
X003915Y002825D01*
X004395Y002142D02*
X004395Y001922D01*
X004615Y002142D01*
X004670Y002142D01*
X004725Y002087D01*
X004725Y001977D01*
X004670Y001922D01*
X004395Y001774D02*
X004395Y001553D01*
X004395Y001663D02*
X004725Y001663D01*
X004615Y001553D01*
X004615Y001405D02*
X004395Y001405D01*
X004560Y001405D02*
X004560Y001185D01*
X004615Y001185D02*
X004725Y001295D01*
X004615Y001405D01*
X004615Y001185D02*
X004395Y001185D01*
X003825Y001295D02*
X003495Y001295D01*
X003495Y001185D02*
X003495Y001405D01*
X003550Y001553D02*
X003495Y001608D01*
X003495Y001718D01*
X003550Y001774D01*
X003770Y001774D01*
X003825Y001718D01*
X003825Y001608D01*
X003770Y001553D01*
X003715Y001553D01*
X003660Y001608D01*
X003660Y001774D01*
X003305Y001718D02*
X003305Y001608D01*
X003250Y001553D01*
X003195Y001553D01*
X003140Y001608D01*
X003140Y001718D01*
X003085Y001774D01*
X003030Y001774D01*
X002975Y001718D01*
X002975Y001608D01*
X003030Y001553D01*
X003085Y001553D01*
X003140Y001608D01*
X003140Y001718D02*
X003195Y001774D01*
X003250Y001774D01*
X003305Y001718D01*
X002823Y001606D02*
X002784Y001644D01*
X002473Y001644D01*
X002434Y001683D01*
X002329Y001579D02*
X002173Y001423D01*
X002251Y001501D02*
X002485Y001267D01*
X002329Y001267D01*
X002667Y001450D02*
X002823Y001606D01*
X002975Y001405D02*
X002975Y001185D01*
X002975Y001295D02*
X003305Y001295D01*
X003195Y001185D01*
X003715Y001185D02*
X003825Y001295D01*
X005595Y001185D02*
X005815Y001405D01*
X005870Y001405D01*
X005925Y001350D01*
X005925Y001240D01*
X005870Y001185D01*
X005595Y001185D02*
X005595Y001405D01*
X005595Y001553D02*
X005595Y001774D01*
X005595Y001663D02*
X005925Y001663D01*
X005815Y001553D01*
X006435Y001553D02*
X006435Y001774D01*
X006655Y001774D02*
X006710Y001774D01*
X006765Y001718D01*
X006765Y001608D01*
X006710Y001553D01*
X006655Y001774D02*
X006435Y001553D01*
X006435Y001405D02*
X006435Y001185D01*
X006655Y001405D01*
X006710Y001405D01*
X006765Y001350D01*
X006765Y001240D01*
X006710Y001185D01*
X007435Y001185D02*
X007655Y001405D01*
X007710Y001405D01*
X007765Y001350D01*
X007765Y001240D01*
X007710Y001185D01*
X007435Y001185D02*
X007435Y001405D01*
X007490Y001553D02*
X007435Y001608D01*
X007435Y001718D01*
X007490Y001774D01*
X007545Y001774D01*
X007600Y001718D01*
X007600Y001663D01*
X007600Y001718D02*
X007655Y001774D01*
X007710Y001774D01*
X007765Y001718D01*
X007765Y001608D01*
X007710Y001553D01*
X008375Y001405D02*
X008375Y001185D01*
X008595Y001405D01*
X008650Y001405D01*
X008705Y001350D01*
X008705Y001240D01*
X008650Y001185D01*
X009435Y001185D02*
X009655Y001405D01*
X009710Y001405D01*
X009765Y001350D01*
X009765Y001240D01*
X009710Y001185D01*
X009435Y001185D02*
X009435Y001405D01*
X009490Y001553D02*
X009435Y001608D01*
X009435Y001718D01*
X009490Y001774D01*
X009600Y001774D01*
X009655Y001718D01*
X009655Y001663D01*
X009600Y001553D01*
X009765Y001553D01*
X009765Y001774D01*
X010435Y001718D02*
X010435Y001608D01*
X010490Y001553D01*
X010600Y001553D01*
X010600Y001718D01*
X010545Y001774D01*
X010490Y001774D01*
X010435Y001718D01*
X010600Y001553D02*
X010710Y001663D01*
X010765Y001774D01*
X011435Y001553D02*
X011490Y001553D01*
X011710Y001774D01*
X011765Y001774D01*
X011765Y001553D01*
X011710Y001405D02*
X011655Y001405D01*
X011435Y001185D01*
X011435Y001405D01*
X011710Y001405D02*
X011765Y001350D01*
X011765Y001240D01*
X011710Y001185D01*
X012435Y001185D02*
X012435Y001405D01*
X012435Y001185D02*
X012655Y001405D01*
X012710Y001405D01*
X012765Y001350D01*
X012765Y001240D01*
X012710Y001185D01*
X013435Y001185D02*
X013655Y001405D01*
X013710Y001405D01*
X013765Y001350D01*
X013765Y001240D01*
X013710Y001185D01*
X013435Y001185D02*
X013435Y001405D01*
X013490Y001553D02*
X013435Y001608D01*
X013435Y001718D01*
X013490Y001774D01*
X013710Y001774D01*
X013765Y001718D01*
X013765Y001608D01*
X013710Y001553D01*
X013655Y001553D01*
X013600Y001608D01*
X013600Y001774D01*
X012765Y001718D02*
X012765Y001608D01*
X012710Y001553D01*
X012655Y001553D01*
X012600Y001608D01*
X012600Y001718D01*
X012545Y001774D01*
X012490Y001774D01*
X012435Y001718D01*
X012435Y001608D01*
X012490Y001553D01*
X012545Y001553D01*
X012600Y001608D01*
X012600Y001718D02*
X012655Y001774D01*
X012710Y001774D01*
X012765Y001718D01*
X014435Y001718D02*
X014435Y001608D01*
X014490Y001553D01*
X014710Y001774D01*
X014490Y001774D01*
X014435Y001718D01*
X014710Y001774D02*
X014765Y001718D01*
X014765Y001608D01*
X014710Y001553D01*
X014490Y001553D01*
X014490Y001405D02*
X014435Y001350D01*
X014435Y001240D01*
X014490Y001185D01*
X014600Y001295D02*
X014600Y001350D01*
X014545Y001405D01*
X014490Y001405D01*
X014600Y001350D02*
X014655Y001405D01*
X014710Y001405D01*
X014765Y001350D01*
X014765Y001240D01*
X014710Y001185D01*
X015435Y001240D02*
X015490Y001185D01*
X015435Y001240D02*
X015435Y001350D01*
X015490Y001405D01*
X015545Y001405D01*
X015600Y001350D01*
X015600Y001295D01*
X015600Y001350D02*
X015655Y001405D01*
X015710Y001405D01*
X015765Y001350D01*
X015765Y001240D01*
X015710Y001185D01*
X016335Y001240D02*
X016390Y001185D01*
X016335Y001240D02*
X016335Y001350D01*
X016390Y001405D01*
X016445Y001405D01*
X016500Y001350D01*
X016500Y001295D01*
X016500Y001350D02*
X016555Y001405D01*
X016610Y001405D01*
X016665Y001350D01*
X016665Y001240D01*
X016610Y001185D01*
X017385Y001240D02*
X017385Y001350D01*
X017440Y001405D01*
X017550Y001405D01*
X017550Y001295D01*
X017440Y001185D02*
X017385Y001240D01*
X017440Y001185D02*
X017660Y001185D01*
X017715Y001240D01*
X017715Y001350D01*
X017660Y001405D01*
X017715Y001553D02*
X017385Y001553D01*
X017385Y001774D02*
X017715Y001553D01*
X017715Y001774D02*
X017385Y001774D01*
X017385Y001922D02*
X017385Y002087D01*
X017440Y002142D01*
X017660Y002142D01*
X017715Y002087D01*
X017715Y001922D01*
X017385Y001922D01*
X016665Y001718D02*
X016665Y001608D01*
X016610Y001553D01*
X016555Y001774D02*
X016335Y001553D01*
X016335Y001774D01*
X016555Y001774D02*
X016610Y001774D01*
X016665Y001718D01*
X015765Y001663D02*
X015435Y001663D01*
X015435Y001553D02*
X015435Y001774D01*
X015655Y001553D02*
X015765Y001663D01*
X018385Y001608D02*
X018385Y001553D01*
X018440Y001553D01*
X018440Y001608D01*
X018385Y001608D01*
X018440Y001737D02*
X018385Y001793D01*
X018385Y001903D01*
X018440Y001958D01*
X018495Y001958D01*
X018550Y001903D01*
X018550Y001848D01*
X018550Y001903D02*
X018605Y001958D01*
X018660Y001958D01*
X018715Y001903D01*
X018715Y001793D01*
X018660Y001737D01*
X019385Y001774D02*
X019715Y001774D01*
X019715Y001553D02*
X019385Y001774D01*
X019385Y001922D02*
X019385Y002087D01*
X019440Y002142D01*
X019660Y002142D01*
X019715Y002087D01*
X019715Y001922D01*
X019385Y001922D01*
X018715Y002106D02*
X018495Y002106D01*
X018385Y002216D01*
X018495Y002326D01*
X018715Y002326D01*
X020385Y002019D02*
X020550Y002019D01*
X020605Y001964D01*
X020605Y001799D01*
X020385Y001799D01*
X020385Y001663D02*
X020385Y001553D01*
X020385Y001608D02*
X020605Y001608D01*
X020605Y001553D01*
X020715Y001608D02*
X020770Y001608D01*
X020715Y001405D02*
X020495Y001405D01*
X020385Y001295D01*
X020495Y001185D01*
X020715Y001185D01*
X019715Y001240D02*
X019660Y001185D01*
X019440Y001185D01*
X019385Y001240D01*
X019385Y001350D01*
X019440Y001405D01*
X019550Y001405D01*
X019550Y001295D01*
X019660Y001405D02*
X019715Y001350D01*
X019715Y001240D01*
X018715Y001240D02*
X018715Y001350D01*
X018660Y001405D01*
X018605Y001405D01*
X018550Y001350D01*
X018495Y001405D01*
X018440Y001405D01*
X018385Y001350D01*
X018385Y001240D01*
X018440Y001185D01*
X018550Y001295D02*
X018550Y001350D01*
X018660Y001185D02*
X018715Y001240D01*
X019385Y001553D02*
X019715Y001553D01*
X010765Y001350D02*
X010765Y001240D01*
X010710Y001185D01*
X010655Y001405D02*
X010435Y001185D01*
X010435Y001405D01*
X010655Y001405D02*
X010710Y001405D01*
X010765Y001350D01*
X008705Y001718D02*
X008540Y001553D01*
X008540Y001774D01*
X008375Y001718D02*
X008705Y001718D01*
X003200Y003550D02*
X003145Y003495D01*
X003035Y003495D01*
X002980Y003550D01*
X002980Y003660D01*
X003090Y003660D01*
X003200Y003770D02*
X003200Y003550D01*
X002832Y003495D02*
X002832Y003825D01*
X002611Y003495D01*
X002611Y003825D01*
X002463Y003825D02*
X002298Y003825D01*
X002243Y003770D01*
X002243Y003550D01*
X002298Y003495D01*
X002463Y003495D01*
X002463Y003825D01*
X002980Y003770D02*
X003035Y003825D01*
X003145Y003825D01*
X003200Y003770D01*
X002951Y004425D02*
X003006Y004480D01*
X002951Y004425D02*
X002841Y004425D01*
X002786Y004480D01*
X002786Y004535D01*
X002841Y004590D01*
X002896Y004590D01*
X002841Y004590D02*
X002786Y004645D01*
X002786Y004700D01*
X002841Y004755D01*
X002951Y004755D01*
X003006Y004700D01*
X002637Y004480D02*
X002582Y004480D01*
X002582Y004425D01*
X002637Y004425D01*
X002637Y004480D01*
X002453Y004480D02*
X002398Y004425D01*
X002288Y004425D01*
X002233Y004480D01*
X002233Y004535D01*
X002288Y004590D01*
X002343Y004590D01*
X002288Y004590D02*
X002233Y004645D01*
X002233Y004700D01*
X002288Y004755D01*
X002398Y004755D01*
X002453Y004700D01*
X002580Y004993D02*
X002690Y004993D01*
X002745Y005048D01*
X002690Y005158D02*
X002580Y005158D01*
X002525Y005103D01*
X002525Y005048D01*
X002580Y004993D01*
X002893Y004993D02*
X003003Y005103D01*
X002948Y005103D02*
X003113Y005103D01*
X003113Y004993D02*
X003113Y005324D01*
X002948Y005324D01*
X002893Y005268D01*
X002893Y005158D01*
X002948Y005103D01*
X002745Y005213D02*
X002690Y005158D01*
X002745Y005213D02*
X002745Y005268D01*
X002690Y005324D01*
X002580Y005324D01*
X002525Y005268D01*
X002377Y005324D02*
X002157Y005324D01*
X002267Y005324D02*
X002267Y004993D01*
D12*
X002505Y005462D02*
X002364Y005604D01*
X002435Y005533D02*
X002647Y005745D01*
X002647Y005604D01*
X002769Y005618D02*
X003069Y005618D01*
X002969Y005518D01*
X002769Y005518D02*
X002769Y005718D01*
X002819Y005850D02*
X002769Y005900D01*
X002769Y006000D01*
X002819Y006050D01*
X002919Y006050D01*
X002969Y006000D01*
X002969Y005950D01*
X002919Y005850D01*
X003069Y005850D01*
X003069Y006050D01*
X003390Y005999D02*
X003690Y005999D01*
X003540Y005849D01*
X003540Y006049D01*
X004190Y006049D02*
X004190Y005849D01*
X004190Y005949D02*
X004490Y005949D01*
X004390Y005849D01*
X004190Y005717D02*
X004190Y005517D01*
X004190Y005617D02*
X004490Y005617D01*
X004390Y005517D01*
X004390Y005386D02*
X004190Y005386D01*
X004340Y005386D02*
X004340Y005186D01*
X004390Y005186D02*
X004490Y005286D01*
X004390Y005386D01*
X004390Y005186D02*
X004190Y005186D01*
X003690Y005617D02*
X003590Y005517D01*
X003690Y005617D02*
X003390Y005617D01*
X003390Y005517D02*
X003390Y005717D01*
X002377Y005803D02*
X002271Y005909D01*
X002200Y005909D01*
X002165Y005873D01*
X002165Y005803D01*
X002236Y005732D01*
X002306Y005732D01*
X002377Y005803D01*
X002377Y005944D01*
X002342Y006050D01*
X002251Y002890D02*
X002251Y002590D01*
X002351Y002590D02*
X002151Y002590D01*
X002483Y002640D02*
X002483Y002840D01*
X002533Y002890D01*
X002683Y002890D01*
X002683Y002590D01*
X002533Y002590D01*
X002483Y002640D01*
X002351Y002790D02*
X002251Y002890D01*
X002814Y002890D02*
X003014Y002890D01*
X003014Y002590D01*
X002814Y002590D01*
X003146Y002640D02*
X003146Y002740D01*
X003246Y002740D01*
X003346Y002640D02*
X003296Y002590D01*
X003196Y002590D01*
X003146Y002640D01*
X003014Y002740D02*
X002914Y002740D01*
X003146Y002840D02*
X003196Y002890D01*
X003296Y002890D01*
X003346Y002840D01*
X003346Y002640D01*
X003477Y002740D02*
X003527Y002690D01*
X003677Y002690D01*
X003677Y002590D02*
X003677Y002890D01*
X003527Y002890D01*
X003477Y002840D01*
X003477Y002740D01*
X003547Y002350D02*
X003497Y002300D01*
X003497Y002200D01*
X003547Y002150D01*
X003697Y002150D01*
X003697Y002050D02*
X003697Y002350D01*
X003547Y002350D01*
X003366Y002300D02*
X003366Y002100D01*
X003316Y002050D01*
X003216Y002050D01*
X003166Y002100D01*
X003166Y002200D01*
X003266Y002200D01*
X003366Y002300D02*
X003316Y002350D01*
X003216Y002350D01*
X003166Y002300D01*
X003034Y002350D02*
X002834Y002350D01*
X002703Y002300D02*
X002703Y002100D01*
X002653Y002050D01*
X002553Y002050D01*
X002503Y002100D01*
X002371Y002050D02*
X002171Y002050D01*
X002271Y002050D02*
X002271Y002350D01*
X002371Y002250D01*
X002503Y002300D02*
X002553Y002350D01*
X002653Y002350D01*
X002703Y002300D01*
X002934Y002200D02*
X003034Y002200D01*
X003034Y002050D02*
X002834Y002050D01*
X003034Y002050D02*
X003034Y002350D01*
X009655Y002420D02*
X009655Y002250D01*
X009768Y002250D02*
X009768Y002420D01*
X009711Y002477D01*
X009655Y002420D01*
X009768Y002420D02*
X009825Y002477D01*
X009881Y002477D01*
X009881Y002250D01*
X010023Y002307D02*
X010023Y002420D01*
X010080Y002477D01*
X010193Y002477D01*
X010250Y002420D01*
X010250Y002307D01*
X010193Y002250D01*
X010080Y002250D01*
X010023Y002307D01*
X010391Y002250D02*
X010561Y002250D01*
X010618Y002307D01*
X010618Y002420D01*
X010561Y002477D01*
X010391Y002477D01*
X010745Y002307D02*
X010745Y002250D01*
X010802Y002250D01*
X010802Y002307D01*
X010745Y002307D01*
X010944Y002307D02*
X011000Y002250D01*
X011171Y002250D01*
X011312Y002250D02*
X011312Y002477D01*
X011171Y002420D02*
X011114Y002363D01*
X011000Y002363D01*
X010944Y002307D01*
X010944Y002477D02*
X011114Y002477D01*
X011171Y002420D01*
X011482Y002250D02*
X011539Y002307D01*
X011539Y002477D01*
X011680Y002420D02*
X011680Y002250D01*
X011850Y002250D01*
X011907Y002307D01*
X011850Y002363D01*
X011680Y002363D01*
X011680Y002420D02*
X011737Y002477D01*
X011850Y002477D01*
X012049Y002420D02*
X012049Y002250D01*
X012275Y002250D02*
X012275Y002590D01*
X012249Y002697D02*
X012306Y002697D01*
X012249Y002697D02*
X012193Y002753D01*
X012193Y003037D01*
X012051Y003037D02*
X012051Y002980D01*
X011995Y002980D01*
X011995Y003037D01*
X012051Y003037D01*
X012051Y002867D02*
X012051Y002810D01*
X011995Y002810D01*
X011995Y002867D01*
X012051Y002867D01*
X012193Y002810D02*
X012363Y002810D01*
X012420Y002867D01*
X012420Y003037D01*
X012561Y002980D02*
X012618Y003037D01*
X012788Y003037D01*
X012561Y002980D02*
X012561Y002867D01*
X012618Y002810D01*
X012788Y002810D01*
X012788Y003150D01*
X013298Y003150D02*
X013298Y002810D01*
X013468Y002810D01*
X013525Y002867D01*
X013525Y002980D01*
X013468Y003037D01*
X013298Y003037D01*
X013666Y002980D02*
X013666Y002923D01*
X013893Y002923D01*
X013893Y002867D02*
X013893Y002980D01*
X013836Y003037D01*
X013723Y003037D01*
X013666Y002980D01*
X013836Y002810D02*
X013893Y002867D01*
X013836Y002810D02*
X013723Y002810D01*
X014034Y002810D02*
X014034Y002980D01*
X014091Y003037D01*
X014261Y003037D01*
X014261Y002810D01*
X014403Y002810D02*
X014573Y002810D01*
X014630Y002867D01*
X014630Y002980D01*
X014573Y003037D01*
X014403Y003037D01*
X014403Y002753D01*
X014459Y002697D01*
X014516Y002697D01*
X014762Y002810D02*
X014875Y002810D01*
X014818Y002810D02*
X014818Y003037D01*
X014875Y003037D01*
X015017Y003037D02*
X015187Y003037D01*
X015243Y002980D01*
X015187Y002923D01*
X015073Y002923D01*
X015017Y002867D01*
X015073Y002810D01*
X015243Y002810D01*
X015442Y002810D02*
X015555Y002810D01*
X015612Y002867D01*
X015612Y002980D01*
X015555Y003037D01*
X015442Y003037D01*
X015385Y002980D01*
X015385Y002923D01*
X015612Y002923D01*
X015753Y003037D02*
X015923Y003037D01*
X015980Y002980D01*
X015980Y002867D01*
X015923Y002810D01*
X015753Y002810D01*
X015753Y003150D01*
X014818Y003150D02*
X014818Y003207D01*
X013994Y002590D02*
X013994Y002250D01*
X014136Y002250D02*
X014306Y002250D01*
X014363Y002307D01*
X014363Y002420D01*
X014306Y002477D01*
X014136Y002477D01*
X013994Y002420D02*
X013938Y002477D01*
X013824Y002477D01*
X013767Y002420D01*
X013767Y002250D01*
X013626Y002250D02*
X013626Y002477D01*
X013569Y002477D01*
X013513Y002420D01*
X013456Y002477D01*
X013399Y002420D01*
X013399Y002250D01*
X013513Y002250D02*
X013513Y002420D01*
X013258Y002307D02*
X013201Y002363D01*
X013031Y002363D01*
X013031Y002420D02*
X013031Y002250D01*
X013201Y002250D01*
X013258Y002307D01*
X013201Y002477D02*
X013087Y002477D01*
X013031Y002420D01*
X012889Y002590D02*
X012833Y002590D01*
X012833Y002250D01*
X012889Y002250D02*
X012776Y002250D01*
X012644Y002250D02*
X012417Y002250D01*
X012417Y002477D02*
X012644Y002250D01*
X012644Y002477D02*
X012417Y002477D01*
X012275Y002420D02*
X012219Y002477D01*
X012105Y002477D01*
X012049Y002420D01*
X011482Y002250D02*
X011312Y002250D01*
X014504Y002307D02*
X014561Y002250D01*
X014731Y002250D01*
X014858Y002250D02*
X014858Y002307D01*
X014915Y002307D01*
X014915Y002250D01*
X014858Y002250D01*
X015057Y002307D02*
X015057Y002477D01*
X015283Y002477D02*
X015283Y002307D01*
X015227Y002250D01*
X015170Y002307D01*
X015113Y002250D01*
X015057Y002307D01*
X015425Y002307D02*
X015425Y002477D01*
X015652Y002477D02*
X015652Y002307D01*
X015595Y002250D01*
X015538Y002307D01*
X015482Y002250D01*
X015425Y002307D01*
X015793Y002307D02*
X015793Y002477D01*
X016020Y002477D02*
X016020Y002307D01*
X015963Y002250D01*
X015907Y002307D01*
X015850Y002250D01*
X015793Y002307D01*
X014731Y002420D02*
X014674Y002363D01*
X014561Y002363D01*
X014504Y002307D01*
X014504Y002477D02*
X014674Y002477D01*
X014731Y002420D01*
D13*
X014691Y003550D02*
X014598Y003643D01*
X014504Y003550D01*
X014411Y003643D01*
X014411Y003924D01*
X014785Y003924D02*
X014785Y003643D01*
X014691Y003550D01*
X015019Y003643D02*
X015019Y003924D01*
X015392Y003924D02*
X015392Y003643D01*
X015299Y003550D01*
X015205Y003643D01*
X015112Y003550D01*
X015019Y003643D01*
X015626Y003643D02*
X015626Y003924D01*
X016000Y003924D02*
X016000Y003643D01*
X015907Y003550D01*
X015813Y003643D01*
X015720Y003550D01*
X015626Y003643D01*
X014177Y003643D02*
X014177Y003550D01*
X014083Y003550D01*
X014083Y003643D01*
X014177Y003643D01*
X013780Y003550D02*
X013780Y004017D01*
X013686Y004110D01*
X013468Y003924D02*
X013468Y003643D01*
X013374Y003550D01*
X013094Y003550D01*
X013094Y003924D01*
X012860Y003924D02*
X012580Y003924D01*
X012486Y003830D01*
X012486Y003643D01*
X012580Y003550D01*
X012860Y003550D01*
X012860Y004110D01*
X012159Y003924D02*
X011972Y003924D01*
X011879Y003830D01*
X011879Y003550D01*
X012159Y003550D01*
X012252Y003643D01*
X012159Y003737D01*
X011879Y003737D01*
X011645Y003737D02*
X011458Y003924D01*
X011364Y003924D01*
X011138Y003924D02*
X011045Y003924D01*
X011045Y003550D01*
X011138Y003550D02*
X010951Y003550D01*
X010733Y003550D02*
X010733Y003924D01*
X010453Y003924D01*
X010359Y003830D01*
X010359Y003550D01*
X010125Y003643D02*
X010032Y003550D01*
X009845Y003550D01*
X009752Y003643D01*
X009752Y003830D01*
X009845Y003924D01*
X010032Y003924D01*
X010125Y003830D01*
X010125Y003643D01*
X009518Y003643D02*
X009518Y003550D01*
X009424Y003550D01*
X009424Y003643D01*
X009518Y003643D01*
X009214Y003643D02*
X009120Y003550D01*
X008934Y003550D01*
X008840Y003643D01*
X008840Y003830D01*
X008934Y003924D01*
X009120Y003924D01*
X009214Y003830D01*
X009214Y003643D01*
X008606Y003550D02*
X008606Y003924D01*
X008419Y003924D02*
X008326Y003924D01*
X008419Y003924D02*
X008606Y003737D01*
X008100Y003830D02*
X008100Y003643D01*
X008006Y003550D01*
X007726Y003550D01*
X007726Y003457D02*
X007726Y003924D01*
X008006Y003924D01*
X008100Y003830D01*
X007492Y003550D02*
X007118Y004110D01*
X006884Y004110D02*
X006697Y003924D01*
X006511Y004110D01*
X006511Y003550D01*
X006276Y003550D02*
X006090Y003550D01*
X006183Y003550D02*
X006183Y003924D01*
X006276Y003924D01*
X005871Y003924D02*
X005591Y003924D01*
X005498Y003830D01*
X005498Y003550D01*
X005264Y003550D02*
X005077Y003550D01*
X005170Y003550D02*
X005170Y003924D01*
X005264Y003924D01*
X005170Y004110D02*
X005170Y004204D01*
X005871Y003924D02*
X005871Y003550D01*
X006884Y003550D02*
X006884Y004110D01*
X006183Y004110D02*
X006183Y004204D01*
X007726Y003457D02*
X007819Y003363D01*
X007913Y003363D01*
X011045Y004110D02*
X011045Y004204D01*
X011645Y003924D02*
X011645Y003550D01*
X013686Y003830D02*
X013873Y003830D01*
X020050Y006150D02*
X020050Y007110D01*
X021010Y007110D01*
X021010Y006150D01*
X020050Y006150D01*
X004130Y004290D02*
X004130Y004070D01*
X004130Y004290D02*
X003310Y005110D01*
X003290Y005110D01*
X002050Y005150D02*
X002050Y001150D01*
X001110Y001150D01*
X001110Y005150D01*
X001110Y006150D01*
X002050Y006150D01*
X002050Y005150D01*
X001110Y005150D01*
X001090Y005150D01*
X004090Y002590D02*
X004090Y002410D01*
X003850Y002170D01*
X001110Y001150D02*
X001090Y001150D01*
M02*
