G75*
G70*
%OFA0B0*%
%FSLAX24Y24*%
%IPPOS*%
%LPD*%
%AMOC8*
5,1,8,0,0,1.08239X$1,22.5*
%
%ADD10C,0.0000*%
%ADD11R,0.0434X0.0473*%
%ADD12R,0.0473X0.0434*%
%ADD13R,0.0355X0.0355*%
%ADD14R,0.0640X0.0340*%
%ADD15R,0.1024X0.0237*%
%ADD16R,0.1024X0.0827*%
%ADD17C,0.0394*%
%ADD18R,0.0827X0.0985*%
%ADD19C,0.0700*%
%ADD20C,0.0780*%
%ADD21C,0.0906*%
%ADD22R,0.0620X0.0413*%
%ADD23R,0.0158X0.0158*%
%ADD24R,0.0217X0.0217*%
%ADD25R,0.0552X0.0453*%
%ADD26R,0.0367X0.0288*%
%ADD27R,0.0288X0.0367*%
D10*
X001050Y000150D02*
X001050Y007150D01*
X021050Y007150D01*
X021050Y000150D01*
X001050Y000150D01*
X018873Y002784D02*
X018875Y002810D01*
X018881Y002836D01*
X018891Y002861D01*
X018904Y002884D01*
X018920Y002904D01*
X018940Y002922D01*
X018962Y002937D01*
X018985Y002949D01*
X019011Y002957D01*
X019037Y002961D01*
X019063Y002961D01*
X019089Y002957D01*
X019115Y002949D01*
X019139Y002937D01*
X019160Y002922D01*
X019180Y002904D01*
X019196Y002884D01*
X019209Y002861D01*
X019219Y002836D01*
X019225Y002810D01*
X019227Y002784D01*
X019225Y002758D01*
X019219Y002732D01*
X019209Y002707D01*
X019196Y002684D01*
X019180Y002664D01*
X019160Y002646D01*
X019138Y002631D01*
X019115Y002619D01*
X019089Y002611D01*
X019063Y002607D01*
X019037Y002607D01*
X019011Y002611D01*
X018985Y002619D01*
X018961Y002631D01*
X018940Y002646D01*
X018920Y002664D01*
X018904Y002684D01*
X018891Y002707D01*
X018881Y002732D01*
X018875Y002758D01*
X018873Y002784D01*
X018873Y004516D02*
X018875Y004542D01*
X018881Y004568D01*
X018891Y004593D01*
X018904Y004616D01*
X018920Y004636D01*
X018940Y004654D01*
X018962Y004669D01*
X018985Y004681D01*
X019011Y004689D01*
X019037Y004693D01*
X019063Y004693D01*
X019089Y004689D01*
X019115Y004681D01*
X019139Y004669D01*
X019160Y004654D01*
X019180Y004636D01*
X019196Y004616D01*
X019209Y004593D01*
X019219Y004568D01*
X019225Y004542D01*
X019227Y004516D01*
X019225Y004490D01*
X019219Y004464D01*
X019209Y004439D01*
X019196Y004416D01*
X019180Y004396D01*
X019160Y004378D01*
X019138Y004363D01*
X019115Y004351D01*
X019089Y004343D01*
X019063Y004339D01*
X019037Y004339D01*
X019011Y004343D01*
X018985Y004351D01*
X018961Y004363D01*
X018940Y004378D01*
X018920Y004396D01*
X018904Y004416D01*
X018891Y004439D01*
X018881Y004464D01*
X018875Y004490D01*
X018873Y004516D01*
D11*
X016350Y003505D03*
X015310Y003485D03*
X014650Y003485D03*
X014050Y003485D03*
X014050Y002815D03*
X014650Y002815D03*
X015310Y002815D03*
X016350Y002835D03*
X012270Y002605D03*
X012270Y001935D03*
D12*
X009093Y001738D03*
X008424Y001738D03*
X004425Y001550D03*
X003755Y001550D03*
X003755Y002930D03*
X004425Y002930D03*
X005275Y003590D03*
X004485Y003650D03*
X003815Y003650D03*
X003205Y003650D03*
X002535Y003650D03*
X005945Y003590D03*
X006615Y003590D03*
X007285Y003590D03*
X012195Y003930D03*
X012865Y003930D03*
X012895Y004650D03*
X013565Y004650D03*
X007325Y005450D03*
X006655Y005450D03*
D13*
X012935Y005150D03*
X013525Y005150D03*
X014055Y002290D03*
X014645Y002290D03*
D14*
X007890Y002880D03*
X005890Y002880D03*
X005890Y001380D03*
X007890Y001380D03*
X004550Y004400D03*
X002550Y004400D03*
X002550Y005900D03*
X004550Y005900D03*
D15*
X018066Y004280D03*
X018066Y003965D03*
X018066Y003650D03*
X018066Y003335D03*
X018066Y003020D03*
D16*
X018066Y001878D03*
X020231Y001878D03*
X018066Y005382D03*
X020231Y005422D03*
D17*
X019050Y004516D03*
X019050Y002784D03*
D18*
X007277Y004450D03*
X005703Y004450D03*
D19*
X005150Y002750D03*
X005150Y001750D03*
D20*
X005550Y000650D03*
X006550Y000650D03*
X007550Y000650D03*
X008550Y000650D03*
X009550Y000650D03*
X010550Y000650D03*
X011550Y000650D03*
X012550Y000650D03*
X013550Y000650D03*
X014550Y000650D03*
X015550Y000650D03*
X016550Y000650D03*
X017550Y000650D03*
X018550Y000650D03*
X019550Y000650D03*
X020550Y000650D03*
X004550Y000650D03*
X003550Y000650D03*
X002550Y000650D03*
X001550Y000650D03*
X001550Y001650D03*
X001550Y002650D03*
X001550Y003650D03*
X001550Y004650D03*
X001550Y005650D03*
X001550Y006650D03*
X002550Y006650D03*
X003550Y006650D03*
X004550Y006650D03*
X005550Y006650D03*
X006550Y006650D03*
X007550Y006650D03*
X008550Y006650D03*
X009550Y006650D03*
X010550Y006650D03*
X011550Y006650D03*
X012550Y006650D03*
X013550Y006650D03*
X014550Y006650D03*
X015550Y006650D03*
X016550Y006650D03*
X017550Y006650D03*
X018550Y006650D03*
X019550Y006650D03*
X020550Y006650D03*
D21*
X016215Y004650D02*
X015625Y004650D01*
D22*
X014768Y004650D03*
X014768Y004059D03*
X014768Y005241D03*
D23*
G36*
X011164Y004179D02*
X011275Y004068D01*
X011164Y003957D01*
X011053Y004068D01*
X011164Y004179D01*
G37*
G36*
X011024Y004318D02*
X011135Y004207D01*
X011024Y004096D01*
X010913Y004207D01*
X011024Y004318D01*
G37*
G36*
X010885Y004457D02*
X010996Y004346D01*
X010885Y004235D01*
X010774Y004346D01*
X010885Y004457D01*
G37*
G36*
X010746Y004596D02*
X010857Y004485D01*
X010746Y004374D01*
X010635Y004485D01*
X010746Y004596D01*
G37*
G36*
X010607Y004735D02*
X010718Y004624D01*
X010607Y004513D01*
X010496Y004624D01*
X010607Y004735D01*
G37*
G36*
X010468Y004875D02*
X010579Y004764D01*
X010468Y004653D01*
X010357Y004764D01*
X010468Y004875D01*
G37*
G36*
X010328Y005014D02*
X010439Y004903D01*
X010328Y004792D01*
X010217Y004903D01*
X010328Y005014D01*
G37*
G36*
X010189Y005153D02*
X010300Y005042D01*
X010189Y004931D01*
X010078Y005042D01*
X010189Y005153D01*
G37*
G36*
X010050Y005292D02*
X010161Y005181D01*
X010050Y005070D01*
X009939Y005181D01*
X010050Y005292D01*
G37*
G36*
X009911Y005153D02*
X010022Y005042D01*
X009911Y004931D01*
X009800Y005042D01*
X009911Y005153D01*
G37*
G36*
X009772Y005014D02*
X009883Y004903D01*
X009772Y004792D01*
X009661Y004903D01*
X009772Y005014D01*
G37*
G36*
X009632Y004875D02*
X009743Y004764D01*
X009632Y004653D01*
X009521Y004764D01*
X009632Y004875D01*
G37*
G36*
X009493Y004735D02*
X009604Y004624D01*
X009493Y004513D01*
X009382Y004624D01*
X009493Y004735D01*
G37*
G36*
X009354Y004596D02*
X009465Y004485D01*
X009354Y004374D01*
X009243Y004485D01*
X009354Y004596D01*
G37*
G36*
X009215Y004457D02*
X009326Y004346D01*
X009215Y004235D01*
X009104Y004346D01*
X009215Y004457D01*
G37*
G36*
X009076Y004318D02*
X009187Y004207D01*
X009076Y004096D01*
X008965Y004207D01*
X009076Y004318D01*
G37*
G36*
X008936Y004179D02*
X009047Y004068D01*
X008936Y003957D01*
X008825Y004068D01*
X008936Y004179D01*
G37*
G36*
X008797Y004039D02*
X008908Y003928D01*
X008797Y003817D01*
X008686Y003928D01*
X008797Y004039D01*
G37*
G36*
X008658Y003900D02*
X008769Y003789D01*
X008658Y003678D01*
X008547Y003789D01*
X008658Y003900D01*
G37*
G36*
X008519Y003761D02*
X008630Y003650D01*
X008519Y003539D01*
X008408Y003650D01*
X008519Y003761D01*
G37*
G36*
X008658Y003622D02*
X008769Y003511D01*
X008658Y003400D01*
X008547Y003511D01*
X008658Y003622D01*
G37*
G36*
X008797Y003483D02*
X008908Y003372D01*
X008797Y003261D01*
X008686Y003372D01*
X008797Y003483D01*
G37*
G36*
X008936Y003343D02*
X009047Y003232D01*
X008936Y003121D01*
X008825Y003232D01*
X008936Y003343D01*
G37*
G36*
X009076Y003204D02*
X009187Y003093D01*
X009076Y002982D01*
X008965Y003093D01*
X009076Y003204D01*
G37*
G36*
X009215Y003065D02*
X009326Y002954D01*
X009215Y002843D01*
X009104Y002954D01*
X009215Y003065D01*
G37*
G36*
X009354Y002926D02*
X009465Y002815D01*
X009354Y002704D01*
X009243Y002815D01*
X009354Y002926D01*
G37*
G36*
X009493Y002787D02*
X009604Y002676D01*
X009493Y002565D01*
X009382Y002676D01*
X009493Y002787D01*
G37*
G36*
X009632Y002647D02*
X009743Y002536D01*
X009632Y002425D01*
X009521Y002536D01*
X009632Y002647D01*
G37*
G36*
X009772Y002508D02*
X009883Y002397D01*
X009772Y002286D01*
X009661Y002397D01*
X009772Y002508D01*
G37*
G36*
X010328Y002508D02*
X010439Y002397D01*
X010328Y002286D01*
X010217Y002397D01*
X010328Y002508D01*
G37*
G36*
X010468Y002647D02*
X010579Y002536D01*
X010468Y002425D01*
X010357Y002536D01*
X010468Y002647D01*
G37*
G36*
X010607Y002787D02*
X010718Y002676D01*
X010607Y002565D01*
X010496Y002676D01*
X010607Y002787D01*
G37*
G36*
X010746Y002926D02*
X010857Y002815D01*
X010746Y002704D01*
X010635Y002815D01*
X010746Y002926D01*
G37*
G36*
X010885Y003065D02*
X010996Y002954D01*
X010885Y002843D01*
X010774Y002954D01*
X010885Y003065D01*
G37*
G36*
X011024Y003204D02*
X011135Y003093D01*
X011024Y002982D01*
X010913Y003093D01*
X011024Y003204D01*
G37*
G36*
X011164Y003343D02*
X011275Y003232D01*
X011164Y003121D01*
X011053Y003232D01*
X011164Y003343D01*
G37*
G36*
X011303Y003483D02*
X011414Y003372D01*
X011303Y003261D01*
X011192Y003372D01*
X011303Y003483D01*
G37*
G36*
X011442Y003622D02*
X011553Y003511D01*
X011442Y003400D01*
X011331Y003511D01*
X011442Y003622D01*
G37*
G36*
X011581Y003761D02*
X011692Y003650D01*
X011581Y003539D01*
X011470Y003650D01*
X011581Y003761D01*
G37*
G36*
X011442Y003900D02*
X011553Y003789D01*
X011442Y003678D01*
X011331Y003789D01*
X011442Y003900D01*
G37*
G36*
X011303Y004039D02*
X011414Y003928D01*
X011303Y003817D01*
X011192Y003928D01*
X011303Y004039D01*
G37*
G36*
X010189Y002369D02*
X010300Y002258D01*
X010189Y002147D01*
X010078Y002258D01*
X010189Y002369D01*
G37*
G36*
X009911Y002369D02*
X010022Y002258D01*
X009911Y002147D01*
X009800Y002258D01*
X009911Y002369D01*
G37*
G36*
X010050Y002230D02*
X010161Y002119D01*
X010050Y002008D01*
X009939Y002119D01*
X010050Y002230D01*
G37*
D24*
G36*
X010050Y002118D02*
X010202Y001966D01*
X010050Y001814D01*
X009898Y001966D01*
X010050Y002118D01*
G37*
G36*
X011734Y003802D02*
X011886Y003650D01*
X011734Y003498D01*
X011582Y003650D01*
X011734Y003802D01*
G37*
G36*
X008366Y003802D02*
X008518Y003650D01*
X008366Y003498D01*
X008214Y003650D01*
X008366Y003802D01*
G37*
G36*
X010050Y005486D02*
X010202Y005334D01*
X010050Y005182D01*
X009898Y005334D01*
X010050Y005486D01*
G37*
D25*
X012990Y002733D03*
X012990Y001807D03*
D26*
X017050Y002897D03*
X017050Y003803D03*
D27*
X016743Y002050D03*
X015837Y002050D03*
M02*
