G75*
G70*
%OFA0B0*%
%FSLAX24Y24*%
%IPPOS*%
%LPD*%
%AMOC8*
5,1,8,0,0,1.08239X$1,22.5*
%
%ADD10C,0.0000*%
%ADD11R,0.0394X0.0433*%
%ADD12R,0.0433X0.0394*%
%ADD13R,0.0315X0.0315*%
%ADD14R,0.0600X0.0300*%
%ADD15R,0.0984X0.0197*%
%ADD16R,0.0984X0.0787*%
%ADD17R,0.0787X0.0945*%
%ADD18R,0.0551X0.0315*%
%ADD19R,0.0866X0.0709*%
%ADD20R,0.0118X0.0118*%
%ADD21R,0.0512X0.0413*%
%ADD22R,0.0327X0.0248*%
%ADD23R,0.0248X0.0327*%
D10*
X001050Y000150D02*
X001050Y007150D01*
X021050Y007150D01*
X021050Y000150D01*
X001050Y000150D01*
X018873Y002784D02*
X018875Y002810D01*
X018881Y002836D01*
X018891Y002861D01*
X018904Y002884D01*
X018920Y002904D01*
X018940Y002922D01*
X018962Y002937D01*
X018985Y002949D01*
X019011Y002957D01*
X019037Y002961D01*
X019063Y002961D01*
X019089Y002957D01*
X019115Y002949D01*
X019139Y002937D01*
X019160Y002922D01*
X019180Y002904D01*
X019196Y002884D01*
X019209Y002861D01*
X019219Y002836D01*
X019225Y002810D01*
X019227Y002784D01*
X019225Y002758D01*
X019219Y002732D01*
X019209Y002707D01*
X019196Y002684D01*
X019180Y002664D01*
X019160Y002646D01*
X019138Y002631D01*
X019115Y002619D01*
X019089Y002611D01*
X019063Y002607D01*
X019037Y002607D01*
X019011Y002611D01*
X018985Y002619D01*
X018961Y002631D01*
X018940Y002646D01*
X018920Y002664D01*
X018904Y002684D01*
X018891Y002707D01*
X018881Y002732D01*
X018875Y002758D01*
X018873Y002784D01*
X018873Y004516D02*
X018875Y004542D01*
X018881Y004568D01*
X018891Y004593D01*
X018904Y004616D01*
X018920Y004636D01*
X018940Y004654D01*
X018962Y004669D01*
X018985Y004681D01*
X019011Y004689D01*
X019037Y004693D01*
X019063Y004693D01*
X019089Y004689D01*
X019115Y004681D01*
X019139Y004669D01*
X019160Y004654D01*
X019180Y004636D01*
X019196Y004616D01*
X019209Y004593D01*
X019219Y004568D01*
X019225Y004542D01*
X019227Y004516D01*
X019225Y004490D01*
X019219Y004464D01*
X019209Y004439D01*
X019196Y004416D01*
X019180Y004396D01*
X019160Y004378D01*
X019138Y004363D01*
X019115Y004351D01*
X019089Y004343D01*
X019063Y004339D01*
X019037Y004339D01*
X019011Y004343D01*
X018985Y004351D01*
X018961Y004363D01*
X018940Y004378D01*
X018920Y004396D01*
X018904Y004416D01*
X018891Y004439D01*
X018881Y004464D01*
X018875Y004490D01*
X018873Y004516D01*
D11*
X016350Y003505D03*
X015310Y003485D03*
X014650Y003485D03*
X014050Y003485D03*
X014050Y002815D03*
X014650Y002815D03*
X015310Y002815D03*
X016350Y002835D03*
X012270Y002605D03*
X012270Y001935D03*
D12*
X009093Y001738D03*
X008424Y001738D03*
X004425Y001550D03*
X003755Y001550D03*
X003755Y002930D03*
X004425Y002930D03*
X005275Y003590D03*
X004485Y003650D03*
X003815Y003650D03*
X003205Y003650D03*
X002535Y003650D03*
X005945Y003590D03*
X006615Y003590D03*
X007285Y003590D03*
X012195Y003930D03*
X012865Y003930D03*
X012895Y004650D03*
X013565Y004650D03*
X007325Y005450D03*
X006655Y005450D03*
D13*
X012935Y005150D03*
X013525Y005150D03*
X014055Y002290D03*
X014645Y002290D03*
D14*
X007890Y002880D03*
X005890Y002880D03*
X005890Y001380D03*
X007890Y001380D03*
X004550Y004400D03*
X002550Y004400D03*
X002550Y005900D03*
X004550Y005900D03*
D15*
X018066Y004280D03*
X018066Y003965D03*
X018066Y003650D03*
X018066Y003335D03*
X018066Y003020D03*
D16*
X018066Y001878D03*
X020231Y001878D03*
X018066Y005382D03*
X020231Y005422D03*
D17*
X007277Y004450D03*
X005703Y004450D03*
D18*
X014770Y004650D03*
X014770Y004059D03*
X014770Y005241D03*
D19*
X015983Y004650D03*
D20*
G36*
X011581Y003733D02*
X011664Y003650D01*
X011581Y003567D01*
X011498Y003650D01*
X011581Y003733D01*
G37*
G36*
X011442Y003872D02*
X011525Y003789D01*
X011442Y003706D01*
X011359Y003789D01*
X011442Y003872D01*
G37*
G36*
X011303Y004011D02*
X011386Y003928D01*
X011303Y003845D01*
X011220Y003928D01*
X011303Y004011D01*
G37*
G36*
X011164Y004151D02*
X011247Y004068D01*
X011164Y003985D01*
X011081Y004068D01*
X011164Y004151D01*
G37*
G36*
X011024Y004290D02*
X011107Y004207D01*
X011024Y004124D01*
X010941Y004207D01*
X011024Y004290D01*
G37*
G36*
X010885Y004429D02*
X010968Y004346D01*
X010885Y004263D01*
X010802Y004346D01*
X010885Y004429D01*
G37*
G36*
X010746Y004568D02*
X010829Y004485D01*
X010746Y004402D01*
X010663Y004485D01*
X010746Y004568D01*
G37*
G36*
X010607Y004707D02*
X010690Y004624D01*
X010607Y004541D01*
X010524Y004624D01*
X010607Y004707D01*
G37*
G36*
X010468Y004847D02*
X010551Y004764D01*
X010468Y004681D01*
X010385Y004764D01*
X010468Y004847D01*
G37*
G36*
X010328Y004986D02*
X010411Y004903D01*
X010328Y004820D01*
X010245Y004903D01*
X010328Y004986D01*
G37*
G36*
X010189Y005125D02*
X010272Y005042D01*
X010189Y004959D01*
X010106Y005042D01*
X010189Y005125D01*
G37*
G36*
X010050Y005264D02*
X010133Y005181D01*
X010050Y005098D01*
X009967Y005181D01*
X010050Y005264D01*
G37*
G36*
X009911Y005125D02*
X009994Y005042D01*
X009911Y004959D01*
X009828Y005042D01*
X009911Y005125D01*
G37*
G36*
X009772Y004986D02*
X009855Y004903D01*
X009772Y004820D01*
X009689Y004903D01*
X009772Y004986D01*
G37*
G36*
X009632Y004847D02*
X009715Y004764D01*
X009632Y004681D01*
X009549Y004764D01*
X009632Y004847D01*
G37*
G36*
X009493Y004707D02*
X009576Y004624D01*
X009493Y004541D01*
X009410Y004624D01*
X009493Y004707D01*
G37*
G36*
X009354Y004568D02*
X009437Y004485D01*
X009354Y004402D01*
X009271Y004485D01*
X009354Y004568D01*
G37*
G36*
X009215Y004429D02*
X009298Y004346D01*
X009215Y004263D01*
X009132Y004346D01*
X009215Y004429D01*
G37*
G36*
X009076Y004290D02*
X009159Y004207D01*
X009076Y004124D01*
X008993Y004207D01*
X009076Y004290D01*
G37*
G36*
X008936Y004151D02*
X009019Y004068D01*
X008936Y003985D01*
X008853Y004068D01*
X008936Y004151D01*
G37*
G36*
X008797Y004011D02*
X008880Y003928D01*
X008797Y003845D01*
X008714Y003928D01*
X008797Y004011D01*
G37*
G36*
X008658Y003872D02*
X008741Y003789D01*
X008658Y003706D01*
X008575Y003789D01*
X008658Y003872D01*
G37*
G36*
X008519Y003733D02*
X008602Y003650D01*
X008519Y003567D01*
X008436Y003650D01*
X008519Y003733D01*
G37*
G36*
X008658Y003594D02*
X008741Y003511D01*
X008658Y003428D01*
X008575Y003511D01*
X008658Y003594D01*
G37*
G36*
X008797Y003455D02*
X008880Y003372D01*
X008797Y003289D01*
X008714Y003372D01*
X008797Y003455D01*
G37*
G36*
X008936Y003315D02*
X009019Y003232D01*
X008936Y003149D01*
X008853Y003232D01*
X008936Y003315D01*
G37*
G36*
X009076Y003176D02*
X009159Y003093D01*
X009076Y003010D01*
X008993Y003093D01*
X009076Y003176D01*
G37*
G36*
X009215Y003037D02*
X009298Y002954D01*
X009215Y002871D01*
X009132Y002954D01*
X009215Y003037D01*
G37*
G36*
X009354Y002898D02*
X009437Y002815D01*
X009354Y002732D01*
X009271Y002815D01*
X009354Y002898D01*
G37*
G36*
X009493Y002759D02*
X009576Y002676D01*
X009493Y002593D01*
X009410Y002676D01*
X009493Y002759D01*
G37*
G36*
X009632Y002619D02*
X009715Y002536D01*
X009632Y002453D01*
X009549Y002536D01*
X009632Y002619D01*
G37*
G36*
X009772Y002480D02*
X009855Y002397D01*
X009772Y002314D01*
X009689Y002397D01*
X009772Y002480D01*
G37*
G36*
X010328Y002480D02*
X010411Y002397D01*
X010328Y002314D01*
X010245Y002397D01*
X010328Y002480D01*
G37*
G36*
X010468Y002619D02*
X010551Y002536D01*
X010468Y002453D01*
X010385Y002536D01*
X010468Y002619D01*
G37*
G36*
X010607Y002759D02*
X010690Y002676D01*
X010607Y002593D01*
X010524Y002676D01*
X010607Y002759D01*
G37*
G36*
X010746Y002898D02*
X010829Y002815D01*
X010746Y002732D01*
X010663Y002815D01*
X010746Y002898D01*
G37*
G36*
X010885Y003037D02*
X010968Y002954D01*
X010885Y002871D01*
X010802Y002954D01*
X010885Y003037D01*
G37*
G36*
X011024Y003176D02*
X011107Y003093D01*
X011024Y003010D01*
X010941Y003093D01*
X011024Y003176D01*
G37*
G36*
X011164Y003315D02*
X011247Y003232D01*
X011164Y003149D01*
X011081Y003232D01*
X011164Y003315D01*
G37*
G36*
X011303Y003455D02*
X011386Y003372D01*
X011303Y003289D01*
X011220Y003372D01*
X011303Y003455D01*
G37*
G36*
X011442Y003594D02*
X011525Y003511D01*
X011442Y003428D01*
X011359Y003511D01*
X011442Y003594D01*
G37*
G36*
X010189Y002341D02*
X010272Y002258D01*
X010189Y002175D01*
X010106Y002258D01*
X010189Y002341D01*
G37*
G36*
X009911Y002341D02*
X009994Y002258D01*
X009911Y002175D01*
X009828Y002258D01*
X009911Y002341D01*
G37*
G36*
X010050Y002202D02*
X010133Y002119D01*
X010050Y002036D01*
X009967Y002119D01*
X010050Y002202D01*
G37*
D21*
X012990Y001807D03*
X012990Y002733D03*
D22*
X017050Y002897D03*
X017050Y003803D03*
D23*
X016743Y002050D03*
X015837Y002050D03*
M02*
