%
M48
M72
T01C0.0150
T02C0.0320
T03C0.0354
T04C0.0400
%
T01
X2250Y1630
X8030Y3310
X8630Y3050
X9370Y3290
X9050Y3630
X8010Y4010
X6610Y4230
X7990Y4590
X9710Y4270
X10050Y4690
X11870Y4790
X12450Y5090
X11610Y5450
X12070Y5590
X10930Y5530
X9970Y5570
X8050Y5350
X5690Y5190
X4550Y5450
X3230Y5230
X2590Y4850
X3870Y4230
X8650Y2590
X9230Y2170
X10050Y2670
X12510Y3190
X12990Y3370
X14130Y4010
X12390Y4410
X10310Y3810
X15310Y1950
X17050Y1150
X19050Y2090
X18790Y3330
X18950Y3690
X19590Y3970
X19870Y3650
X20130Y3330
X17050Y4150
X16470Y3950
X17050Y5150
X16270Y5410
X18950Y5870
T02
X5150Y2750
X5150Y1750
T03
X19050Y2784
X19050Y4516
T04
X1550Y650
X2550Y650
X3550Y650
X4550Y650
X5550Y650
X6550Y650
X7550Y650
X8550Y650
X9550Y650
X10550Y650
X11550Y650
X12550Y650
X13550Y650
X14550Y650
X15550Y650
X16550Y650
X17550Y650
X18550Y650
X19550Y650
X20550Y650
X20550Y6650
X19550Y6650
X18550Y6650
X17550Y6650
X16550Y6650
X15550Y6650
X14550Y6650
X13550Y6650
X12550Y6650
X11550Y6650
X10550Y6650
X9550Y6650
X8550Y6650
X7550Y6650
X6550Y6650
X5550Y6650
X4550Y6650
X3550Y6650
X2550Y6650
X1550Y6650
X1550Y5650
X1550Y4650
X1550Y3650
X1550Y2650
X1550Y1650
M30
