%
M48
M72
T01C0.0150
T02C0.0320
T03C0.0354
T04C0.0400
%
T01
X1350Y1630
X7130Y3310
X7730Y3050
X8470Y3290
X8150Y3630
X7110Y4010
X5710Y4230
X7090Y4590
X8810Y4270
X9150Y4690
X10970Y4790
X11550Y5090
X10710Y5450
X11170Y5590
X10030Y5530
X9070Y5570
X7150Y5350
X4790Y5190
X3650Y5450
X2330Y5230
X1690Y4850
X2970Y4230
X7750Y2590
X8330Y2170
X9150Y2670
X11610Y3190
X12090Y3370
X13230Y4010
X11490Y4410
X9410Y3810
X15370Y5410
X16150Y5150
X16150Y4650
X16150Y4150
X15570Y3950
X16230Y3330
X15890Y2870
X18150Y3350
X19650Y3350
X18690Y3970
X16150Y1650
X15650Y1650
X14410Y1650
T02
X4250Y1750
X4250Y2750
T03
X18150Y2784
X18150Y4516
T04
X650Y650
X1650Y650
X2650Y650
X3650Y650
X4650Y650
X5650Y650
X6650Y650
X7650Y650
X8650Y650
X9650Y650
X10650Y650
X11650Y650
X12650Y650
X13650Y650
X14650Y650
X15650Y650
X16650Y650
X17650Y650
X18650Y650
X19650Y650
X19650Y6650
X18650Y6650
X17650Y6650
X16650Y6650
X15650Y6650
X14650Y6650
X13650Y6650
X12650Y6650
X11650Y6650
X10650Y6650
X9650Y6650
X8650Y6650
X7650Y6650
X6650Y6650
X5650Y6650
X4650Y6650
X3650Y6650
X2650Y6650
X1650Y6650
X650Y6650
X650Y5650
X650Y4650
X650Y3650
X650Y2650
X650Y1650
M30
