G75*
G70*
%OFA0B0*%
%FSLAX24Y24*%
%IPPOS*%
%LPD*%
%AMOC8*
5,1,8,0,0,1.08239X$1,22.5*
%
%ADD10C,0.0000*%
%ADD11C,0.0100*%
%ADD12C,0.0070*%
%ADD13C,0.0220*%
%ADD14R,0.0180X0.0300*%
%ADD15C,0.0080*%
%ADD16R,0.0300X0.0180*%
%ADD17C,0.0050*%
D10*
X000150Y000150D02*
X000150Y007150D01*
X020150Y007150D01*
X020150Y000150D01*
X000150Y000150D01*
X017973Y002784D02*
X017975Y002810D01*
X017981Y002836D01*
X017991Y002861D01*
X018004Y002884D01*
X018020Y002904D01*
X018040Y002922D01*
X018062Y002937D01*
X018085Y002949D01*
X018111Y002957D01*
X018137Y002961D01*
X018163Y002961D01*
X018189Y002957D01*
X018215Y002949D01*
X018239Y002937D01*
X018260Y002922D01*
X018280Y002904D01*
X018296Y002884D01*
X018309Y002861D01*
X018319Y002836D01*
X018325Y002810D01*
X018327Y002784D01*
X018325Y002758D01*
X018319Y002732D01*
X018309Y002707D01*
X018296Y002684D01*
X018280Y002664D01*
X018260Y002646D01*
X018238Y002631D01*
X018215Y002619D01*
X018189Y002611D01*
X018163Y002607D01*
X018137Y002607D01*
X018111Y002611D01*
X018085Y002619D01*
X018061Y002631D01*
X018040Y002646D01*
X018020Y002664D01*
X018004Y002684D01*
X017991Y002707D01*
X017981Y002732D01*
X017975Y002758D01*
X017973Y002784D01*
X017973Y004516D02*
X017975Y004542D01*
X017981Y004568D01*
X017991Y004593D01*
X018004Y004616D01*
X018020Y004636D01*
X018040Y004654D01*
X018062Y004669D01*
X018085Y004681D01*
X018111Y004689D01*
X018137Y004693D01*
X018163Y004693D01*
X018189Y004689D01*
X018215Y004681D01*
X018239Y004669D01*
X018260Y004654D01*
X018280Y004636D01*
X018296Y004616D01*
X018309Y004593D01*
X018319Y004568D01*
X018325Y004542D01*
X018327Y004516D01*
X018325Y004490D01*
X018319Y004464D01*
X018309Y004439D01*
X018296Y004416D01*
X018280Y004396D01*
X018260Y004378D01*
X018238Y004363D01*
X018215Y004351D01*
X018189Y004343D01*
X018163Y004339D01*
X018137Y004339D01*
X018111Y004343D01*
X018085Y004351D01*
X018061Y004363D01*
X018040Y004378D01*
X018020Y004396D01*
X018004Y004416D01*
X017991Y004439D01*
X017981Y004464D01*
X017975Y004490D01*
X017973Y004516D01*
D11*
X019650Y006150D02*
X020110Y006150D01*
X020110Y007110D01*
X019170Y007110D01*
X019170Y006330D01*
X001150Y006150D02*
X001150Y005150D01*
X000150Y005150D01*
X000150Y006150D01*
X001150Y006150D01*
X001150Y005150D02*
X001150Y001150D01*
X000150Y001150D01*
X000150Y005150D01*
D12*
X003209Y006226D02*
X003209Y006382D01*
X003209Y006226D02*
X003365Y006226D01*
X004229Y006186D02*
X004229Y006342D01*
X004229Y006186D02*
X004385Y006186D01*
X004475Y006115D02*
X004475Y005785D01*
X004365Y005785D02*
X004585Y005785D01*
X004733Y005785D02*
X004954Y006005D01*
X004954Y006060D01*
X004898Y006115D01*
X004788Y006115D01*
X004733Y006060D01*
X004475Y006115D02*
X004365Y006005D01*
X004733Y005785D02*
X004954Y005785D01*
X005365Y005785D02*
X005585Y005785D01*
X005475Y005785D02*
X005475Y006115D01*
X005365Y006005D01*
X005385Y006186D02*
X005229Y006186D01*
X005229Y006342D01*
X005733Y006005D02*
X005843Y006115D01*
X005843Y005785D01*
X005733Y005785D02*
X005954Y005785D01*
X006365Y005785D02*
X006585Y005785D01*
X006475Y005785D02*
X006475Y006115D01*
X006365Y006005D01*
X006405Y006186D02*
X006249Y006186D01*
X006249Y006342D01*
X006733Y006060D02*
X006788Y006115D01*
X006898Y006115D01*
X006954Y006060D01*
X006733Y005840D01*
X006788Y005785D01*
X006898Y005785D01*
X006954Y005840D01*
X006954Y006060D01*
X006733Y006060D02*
X006733Y005840D01*
X007229Y006186D02*
X007229Y006342D01*
X007229Y006186D02*
X007385Y006186D01*
X007525Y006060D02*
X007525Y006005D01*
X007580Y005950D01*
X007745Y005950D01*
X007745Y005840D02*
X007745Y006060D01*
X007690Y006115D01*
X007580Y006115D01*
X007525Y006060D01*
X007525Y005840D02*
X007580Y005785D01*
X007690Y005785D01*
X007745Y005840D01*
X008249Y006186D02*
X008249Y006342D01*
X008249Y006186D02*
X008405Y006186D01*
X008545Y006060D02*
X008545Y006005D01*
X008600Y005950D01*
X008710Y005950D01*
X008765Y005895D01*
X008765Y005840D01*
X008710Y005785D01*
X008600Y005785D01*
X008545Y005840D01*
X008545Y005895D01*
X008600Y005950D01*
X008710Y005950D02*
X008765Y006005D01*
X008765Y006060D01*
X008710Y006115D01*
X008600Y006115D01*
X008545Y006060D01*
X009229Y006186D02*
X009229Y006342D01*
X009229Y006186D02*
X009385Y006186D01*
X009545Y006115D02*
X009765Y006115D01*
X009765Y006060D01*
X009545Y005840D01*
X009545Y005785D01*
X008889Y005553D02*
X008889Y005475D01*
X008811Y005397D01*
X008733Y005397D01*
X008655Y005475D01*
X008655Y005553D01*
X008733Y005631D01*
X008811Y005631D01*
X008889Y005553D01*
X008667Y005253D02*
X008551Y005370D01*
X008473Y005370D01*
X008356Y005253D01*
X008512Y005098D01*
X008416Y005002D02*
X008338Y004924D01*
X008377Y004963D02*
X008221Y005119D01*
X008182Y005080D01*
X008082Y004980D02*
X008043Y004941D01*
X008043Y004785D01*
X008121Y004707D02*
X007965Y004863D01*
X007900Y004719D02*
X008016Y004602D01*
X007900Y004486D01*
X007822Y004486D01*
X007822Y004563D01*
X007938Y004680D01*
X007900Y004719D02*
X007822Y004719D01*
X007744Y004641D01*
X007639Y004459D02*
X007561Y004459D01*
X007444Y004342D01*
X007367Y004420D02*
X007600Y004186D01*
X007717Y004303D01*
X007717Y004381D01*
X007639Y004459D01*
X007340Y004237D02*
X007495Y004081D01*
X007379Y003965D01*
X007301Y003965D01*
X007184Y004081D01*
X007001Y004055D02*
X006846Y003899D01*
X007079Y003665D01*
X006963Y003782D02*
X007040Y003860D01*
X009900Y004931D02*
X010134Y005164D01*
X009978Y005164D01*
X009978Y005320D01*
X009744Y005087D01*
X010044Y004787D02*
X010199Y004943D01*
X010160Y004982D01*
X010277Y005021D02*
X010316Y005060D01*
X010005Y004826D02*
X010083Y004748D01*
X010178Y004653D02*
X010334Y004808D01*
X010451Y004691D01*
X010451Y004614D01*
X010334Y004497D01*
X010439Y004392D02*
X010517Y004314D01*
X010478Y004353D02*
X010633Y004509D01*
X010595Y004548D01*
X010711Y004587D02*
X010750Y004626D01*
X012985Y005025D02*
X013205Y005025D01*
X013095Y005025D02*
X013095Y005355D01*
X012985Y005245D01*
X012690Y005785D02*
X012690Y006115D01*
X012525Y005950D01*
X012745Y005950D01*
X012405Y006186D02*
X012249Y006186D01*
X012249Y006342D01*
X011745Y006115D02*
X011525Y006115D01*
X011525Y005950D01*
X011635Y006005D01*
X011690Y006005D01*
X011745Y005950D01*
X011745Y005840D01*
X011690Y005785D01*
X011580Y005785D01*
X011525Y005840D01*
X010765Y005840D02*
X010765Y005895D01*
X010710Y005950D01*
X010545Y005950D01*
X010545Y005840D01*
X010600Y005785D01*
X010710Y005785D01*
X010765Y005840D01*
X010655Y006060D02*
X010545Y005950D01*
X010655Y006060D02*
X010765Y006115D01*
X010405Y006186D02*
X010249Y006186D01*
X010249Y006342D01*
X011229Y006342D02*
X011229Y006186D01*
X011385Y006186D01*
X013249Y006186D02*
X013249Y006342D01*
X013249Y006186D02*
X013405Y006186D01*
X013545Y006060D02*
X013600Y006115D01*
X013710Y006115D01*
X013765Y006060D01*
X013765Y006005D01*
X013710Y005950D01*
X013765Y005895D01*
X013765Y005840D01*
X013710Y005785D01*
X013600Y005785D01*
X013545Y005840D01*
X013655Y005950D02*
X013710Y005950D01*
X014545Y006060D02*
X014600Y006115D01*
X014710Y006115D01*
X014765Y006060D01*
X014765Y006005D01*
X014545Y005785D01*
X014765Y005785D01*
X015545Y005785D02*
X015765Y005785D01*
X015655Y005785D02*
X015655Y006115D01*
X015545Y006005D01*
X016229Y006186D02*
X016229Y006342D01*
X016229Y006186D02*
X016385Y006186D01*
X016460Y006115D02*
X016405Y006060D01*
X016405Y005840D01*
X016625Y006060D01*
X016625Y005840D01*
X016570Y005785D01*
X016460Y005785D01*
X016405Y005840D01*
X016460Y006115D02*
X016570Y006115D01*
X016625Y006060D01*
X017785Y006040D02*
X017785Y005930D01*
X017840Y005875D01*
X017895Y005875D01*
X017950Y005930D01*
X017950Y005985D01*
X017950Y005930D02*
X018005Y005875D01*
X018060Y005875D01*
X018115Y005930D01*
X018115Y006040D01*
X018060Y006095D01*
X017840Y006095D02*
X017785Y006040D01*
X018305Y006040D02*
X018305Y005930D01*
X018360Y005875D01*
X018470Y005875D01*
X018525Y005930D01*
X018525Y005985D01*
X018470Y006095D01*
X018635Y006095D01*
X018635Y005875D01*
X018635Y005727D02*
X018415Y005727D01*
X018305Y005617D01*
X018415Y005506D01*
X018635Y005506D01*
X018115Y005506D02*
X017895Y005506D01*
X017785Y005617D01*
X017895Y005727D01*
X018115Y005727D01*
X018305Y006040D02*
X018360Y006095D01*
X019185Y006140D02*
X019185Y006030D01*
X019240Y005975D01*
X019350Y005975D01*
X019350Y006085D01*
X019240Y006195D02*
X019185Y006140D01*
X019240Y006195D02*
X019460Y006195D01*
X019515Y006140D01*
X019515Y006030D01*
X019460Y005975D01*
X010825Y002846D02*
X010669Y002691D01*
X010747Y002768D02*
X010514Y003002D01*
X010514Y002846D01*
X010539Y002638D02*
X010578Y002599D01*
X010539Y002560D01*
X010500Y002599D01*
X010539Y002638D01*
X010357Y002378D02*
X010123Y002611D01*
X010123Y002456D01*
X010018Y002351D02*
X010096Y002117D01*
X009863Y002195D01*
X010279Y002300D02*
X010434Y002456D01*
X008142Y002420D02*
X008087Y002475D01*
X007977Y002475D01*
X007922Y002420D01*
X007922Y002200D01*
X007977Y002145D01*
X008087Y002145D01*
X008142Y002200D01*
X008142Y002310D01*
X008032Y002310D01*
X007774Y002310D02*
X007718Y002255D01*
X007553Y002255D01*
X007553Y002145D02*
X007553Y002475D01*
X007718Y002475D01*
X007774Y002420D01*
X007774Y002310D01*
X007663Y002255D02*
X007774Y002145D01*
X007405Y002310D02*
X007350Y002255D01*
X007185Y002255D01*
X007185Y002145D02*
X007185Y002475D01*
X007350Y002475D01*
X007405Y002420D01*
X007405Y002310D01*
X007420Y001475D02*
X007365Y001420D01*
X007420Y001475D02*
X007530Y001475D01*
X007585Y001420D01*
X007585Y001365D01*
X007365Y001145D01*
X007585Y001145D01*
X007898Y001145D02*
X007898Y001475D01*
X007733Y001310D01*
X007954Y001310D01*
X008365Y001420D02*
X008420Y001475D01*
X008530Y001475D01*
X008585Y001420D01*
X008585Y001365D01*
X008365Y001145D01*
X008585Y001145D01*
X008733Y001200D02*
X008788Y001145D01*
X008898Y001145D01*
X008954Y001200D01*
X008954Y001310D01*
X008898Y001365D01*
X008843Y001365D01*
X008733Y001310D01*
X008733Y001475D01*
X008954Y001475D01*
X009345Y001460D02*
X009400Y001515D01*
X009510Y001515D01*
X009565Y001460D01*
X009565Y001405D01*
X009345Y001185D01*
X009565Y001185D01*
X009713Y001240D02*
X009768Y001185D01*
X009878Y001185D01*
X009934Y001240D01*
X009934Y001295D01*
X009878Y001350D01*
X009713Y001350D01*
X009713Y001240D01*
X009713Y001350D02*
X009823Y001460D01*
X009934Y001515D01*
X010365Y001460D02*
X010420Y001515D01*
X010530Y001515D01*
X010585Y001460D01*
X010585Y001405D01*
X010365Y001185D01*
X010585Y001185D01*
X010733Y001185D02*
X010733Y001240D01*
X010954Y001460D01*
X010954Y001515D01*
X010733Y001515D01*
X011345Y001460D02*
X011400Y001515D01*
X011510Y001515D01*
X011565Y001460D01*
X011565Y001405D01*
X011345Y001185D01*
X011565Y001185D01*
X011713Y001240D02*
X011713Y001295D01*
X011768Y001350D01*
X011878Y001350D01*
X011934Y001295D01*
X011934Y001240D01*
X011878Y001185D01*
X011768Y001185D01*
X011713Y001240D01*
X011768Y001350D02*
X011713Y001405D01*
X011713Y001460D01*
X011768Y001515D01*
X011878Y001515D01*
X011934Y001460D01*
X011934Y001405D01*
X011878Y001350D01*
X012345Y001460D02*
X012400Y001515D01*
X012510Y001515D01*
X012565Y001460D01*
X012565Y001405D01*
X012345Y001185D01*
X012565Y001185D01*
X012713Y001240D02*
X012768Y001185D01*
X012878Y001185D01*
X012934Y001240D01*
X012934Y001460D01*
X012878Y001515D01*
X012768Y001515D01*
X012713Y001460D01*
X012713Y001405D01*
X012768Y001350D01*
X012934Y001350D01*
X013345Y001240D02*
X013400Y001185D01*
X013510Y001185D01*
X013565Y001240D01*
X013565Y001295D01*
X013510Y001350D01*
X013455Y001350D01*
X013510Y001350D02*
X013565Y001405D01*
X013565Y001460D01*
X013510Y001515D01*
X013400Y001515D01*
X013345Y001460D01*
X013333Y001665D02*
X013443Y001775D01*
X013554Y001665D01*
X013554Y001995D01*
X013702Y001995D02*
X013867Y001995D01*
X013922Y001940D01*
X013922Y001830D01*
X013867Y001775D01*
X013702Y001775D01*
X013812Y001775D02*
X013922Y001665D01*
X013702Y001665D02*
X013702Y001995D01*
X013333Y001995D02*
X013333Y001665D01*
X013185Y001830D02*
X013130Y001775D01*
X012965Y001775D01*
X013185Y001830D02*
X013185Y001940D01*
X013130Y001995D01*
X012965Y001995D01*
X012965Y001665D01*
X013713Y001460D02*
X013768Y001515D01*
X013878Y001515D01*
X013934Y001460D01*
X013713Y001240D01*
X013768Y001185D01*
X013878Y001185D01*
X013934Y001240D01*
X013934Y001460D01*
X013713Y001460D02*
X013713Y001240D01*
X014345Y001240D02*
X014400Y001185D01*
X014510Y001185D01*
X014565Y001240D01*
X014565Y001295D01*
X014510Y001350D01*
X014455Y001350D01*
X014510Y001350D02*
X014565Y001405D01*
X014565Y001460D01*
X014510Y001515D01*
X014400Y001515D01*
X014345Y001460D01*
X014713Y001405D02*
X014823Y001515D01*
X014823Y001185D01*
X014713Y001185D02*
X014934Y001185D01*
X015345Y001240D02*
X015400Y001185D01*
X015510Y001185D01*
X015565Y001240D01*
X015565Y001295D01*
X015510Y001350D01*
X015455Y001350D01*
X015510Y001350D02*
X015565Y001405D01*
X015565Y001460D01*
X015510Y001515D01*
X015400Y001515D01*
X015345Y001460D01*
X015713Y001460D02*
X015768Y001515D01*
X015878Y001515D01*
X015934Y001460D01*
X015934Y001405D01*
X015713Y001185D01*
X015934Y001185D01*
X016325Y001240D02*
X016380Y001185D01*
X016490Y001185D01*
X016545Y001240D01*
X016545Y001350D01*
X016435Y001350D01*
X016325Y001460D02*
X016325Y001240D01*
X016325Y001460D02*
X016380Y001515D01*
X016490Y001515D01*
X016545Y001460D01*
X017785Y001610D02*
X017840Y001555D01*
X017895Y001555D01*
X017950Y001610D01*
X017950Y001665D01*
X017950Y001610D02*
X018005Y001555D01*
X018060Y001555D01*
X018115Y001610D01*
X018115Y001720D01*
X018060Y001775D01*
X017840Y001775D02*
X017785Y001720D01*
X017785Y001610D01*
X017895Y001407D02*
X017785Y001297D01*
X017895Y001186D01*
X018115Y001186D01*
X018365Y001297D02*
X018475Y001186D01*
X018695Y001186D01*
X018475Y001407D02*
X018365Y001297D01*
X018475Y001407D02*
X018695Y001407D01*
X018695Y001555D02*
X018695Y001775D01*
X018530Y001775D01*
X018585Y001665D01*
X018585Y001610D01*
X018530Y001555D01*
X018420Y001555D01*
X018365Y001610D01*
X018365Y001720D01*
X018420Y001775D01*
X018115Y001407D02*
X017895Y001407D01*
X019185Y001300D02*
X019185Y001190D01*
X019240Y001135D01*
X019350Y001135D01*
X019350Y001245D01*
X019240Y001355D02*
X019185Y001300D01*
X019240Y001355D02*
X019460Y001355D01*
X019515Y001300D01*
X019515Y001190D01*
X019460Y001135D01*
X008143Y005197D02*
X008105Y005236D01*
X005478Y005455D02*
X005258Y005455D01*
X005368Y005455D02*
X005368Y005125D01*
X005110Y005125D02*
X004890Y005125D01*
X004890Y005455D01*
X005110Y005455D01*
X005000Y005290D02*
X004890Y005290D01*
X004742Y005235D02*
X004742Y005180D01*
X004687Y005125D01*
X004577Y005125D01*
X004522Y005180D01*
X004374Y005125D02*
X004153Y005125D01*
X004153Y005455D01*
X004374Y005455D01*
X004522Y005400D02*
X004522Y005345D01*
X004577Y005290D01*
X004687Y005290D01*
X004742Y005235D01*
X004742Y005400D02*
X004687Y005455D01*
X004577Y005455D01*
X004522Y005400D01*
X004263Y005290D02*
X004153Y005290D01*
X004005Y005290D02*
X003950Y005235D01*
X003785Y005235D01*
X003785Y005125D02*
X003785Y005455D01*
X003950Y005455D01*
X004005Y005400D01*
X004005Y005290D01*
X003895Y005235D02*
X004005Y005125D01*
X002445Y001775D02*
X002555Y001665D01*
X002225Y001665D01*
X002225Y001775D02*
X002225Y001555D01*
X002280Y001407D02*
X002225Y001352D01*
X002225Y001242D01*
X002280Y001186D01*
X002500Y001186D01*
X002555Y001242D01*
X002555Y001352D01*
X002500Y001407D01*
X002445Y001407D01*
X002390Y001352D01*
X002390Y001186D01*
X001815Y001242D02*
X001760Y001186D01*
X001705Y001186D01*
X001650Y001242D01*
X001650Y001352D01*
X001705Y001407D01*
X001760Y001407D01*
X001815Y001352D01*
X001815Y001242D01*
X001650Y001242D02*
X001595Y001186D01*
X001540Y001186D01*
X001485Y001242D01*
X001485Y001352D01*
X001540Y001407D01*
X001595Y001407D01*
X001650Y001352D01*
X001485Y001555D02*
X001485Y001775D01*
X001705Y001775D02*
X001815Y001665D01*
X001485Y001665D01*
X003246Y001111D02*
X003402Y001111D01*
X003246Y001111D02*
X003246Y000955D01*
D13*
X003190Y001538D02*
X003190Y001562D01*
X003190Y002918D02*
X003190Y002942D01*
X004710Y003578D02*
X004710Y003602D01*
X006050Y003602D02*
X006050Y003578D01*
X006090Y005438D02*
X006090Y005462D01*
X011358Y002270D02*
X011382Y002270D01*
X007858Y001750D02*
X007858Y001726D01*
X015138Y003150D02*
X015162Y003150D01*
D14*
X012330Y004650D03*
X003250Y003650D03*
X001970Y003650D03*
D15*
X002044Y004150D02*
X003256Y004150D01*
X003650Y004662D02*
X003650Y005638D01*
X003256Y006150D02*
X002044Y006150D01*
X001650Y005650D02*
X001650Y004662D01*
X002150Y005150D02*
X002152Y005194D01*
X002158Y005238D01*
X002168Y005281D01*
X002181Y005323D01*
X002198Y005364D01*
X002219Y005403D01*
X002243Y005440D01*
X002270Y005475D01*
X002300Y005507D01*
X002333Y005537D01*
X002369Y005563D01*
X002406Y005587D01*
X002446Y005606D01*
X002487Y005623D01*
X002530Y005635D01*
X002573Y005644D01*
X002617Y005649D01*
X002661Y005650D01*
X002705Y005647D01*
X002749Y005640D01*
X002792Y005629D01*
X002834Y005615D01*
X002874Y005597D01*
X002913Y005575D01*
X002949Y005551D01*
X002983Y005523D01*
X003015Y005492D01*
X003044Y005458D01*
X003070Y005422D01*
X003092Y005384D01*
X003111Y005344D01*
X003126Y005302D01*
X003138Y005260D01*
X003146Y005216D01*
X003150Y005172D01*
X003150Y005128D01*
X003146Y005084D01*
X003138Y005040D01*
X003126Y004998D01*
X003111Y004956D01*
X003092Y004916D01*
X003070Y004878D01*
X003044Y004842D01*
X003015Y004808D01*
X002983Y004777D01*
X002949Y004749D01*
X002913Y004725D01*
X002874Y004703D01*
X002834Y004685D01*
X002792Y004671D01*
X002749Y004660D01*
X002705Y004653D01*
X002661Y004650D01*
X002617Y004651D01*
X002573Y004656D01*
X002530Y004665D01*
X002487Y004677D01*
X002446Y004694D01*
X002406Y004713D01*
X002369Y004737D01*
X002333Y004763D01*
X002300Y004793D01*
X002270Y004825D01*
X002243Y004860D01*
X002219Y004897D01*
X002198Y004936D01*
X002181Y004977D01*
X002168Y005019D01*
X002158Y005062D01*
X002152Y005106D01*
X002150Y005150D01*
X005384Y003130D02*
X006596Y003130D01*
X006990Y002618D02*
X006990Y001630D01*
X006596Y001130D02*
X005384Y001130D01*
X004990Y001642D02*
X004990Y002618D01*
X005490Y002130D02*
X005492Y002174D01*
X005498Y002218D01*
X005508Y002261D01*
X005521Y002303D01*
X005538Y002344D01*
X005559Y002383D01*
X005583Y002420D01*
X005610Y002455D01*
X005640Y002487D01*
X005673Y002517D01*
X005709Y002543D01*
X005746Y002567D01*
X005786Y002586D01*
X005827Y002603D01*
X005870Y002615D01*
X005913Y002624D01*
X005957Y002629D01*
X006001Y002630D01*
X006045Y002627D01*
X006089Y002620D01*
X006132Y002609D01*
X006174Y002595D01*
X006214Y002577D01*
X006253Y002555D01*
X006289Y002531D01*
X006323Y002503D01*
X006355Y002472D01*
X006384Y002438D01*
X006410Y002402D01*
X006432Y002364D01*
X006451Y002324D01*
X006466Y002282D01*
X006478Y002240D01*
X006486Y002196D01*
X006490Y002152D01*
X006490Y002108D01*
X006486Y002064D01*
X006478Y002020D01*
X006466Y001978D01*
X006451Y001936D01*
X006432Y001896D01*
X006410Y001858D01*
X006384Y001822D01*
X006355Y001788D01*
X006323Y001757D01*
X006289Y001729D01*
X006253Y001705D01*
X006214Y001683D01*
X006174Y001665D01*
X006132Y001651D01*
X006089Y001640D01*
X006045Y001633D01*
X006001Y001630D01*
X005957Y001631D01*
X005913Y001636D01*
X005870Y001645D01*
X005827Y001657D01*
X005786Y001674D01*
X005746Y001693D01*
X005709Y001717D01*
X005673Y001743D01*
X005640Y001773D01*
X005610Y001805D01*
X005583Y001840D01*
X005559Y001877D01*
X005538Y001916D01*
X005521Y001957D01*
X005508Y001999D01*
X005498Y002042D01*
X005492Y002086D01*
X005490Y002130D01*
X002410Y002030D02*
X001960Y002030D01*
X001960Y002280D01*
X001860Y002280D01*
X001860Y002080D01*
X001960Y002030D02*
X001410Y002030D01*
X001410Y002480D01*
X001660Y002730D01*
X001910Y002480D01*
X002410Y002480D01*
X002410Y002030D01*
X002410Y002480D02*
X002410Y002930D01*
X002360Y002930D01*
X002360Y002780D01*
X001410Y002780D01*
X001410Y002480D01*
X012275Y005058D02*
X012397Y005150D01*
X012397Y005331D01*
X012275Y005236D02*
X012391Y005160D01*
X012397Y005150D02*
X012397Y004969D01*
X013517Y002471D02*
X013517Y002290D01*
X013395Y002198D01*
X013517Y002109D02*
X013517Y002290D01*
X013511Y002300D02*
X013395Y002376D01*
X014730Y002080D02*
X014730Y001990D01*
X014830Y001970D01*
X014870Y001880D01*
X014810Y001790D01*
X014880Y001730D01*
X014960Y001790D01*
X015000Y001770D01*
X015060Y001930D01*
X015180Y001930D02*
X015240Y001770D01*
X015280Y001790D01*
X015360Y001730D01*
X015430Y001790D01*
X015370Y001880D01*
X015410Y001970D01*
X015510Y001990D01*
X015510Y002080D01*
X015410Y002100D01*
X015370Y002190D01*
X015430Y002280D01*
X015360Y002350D01*
X015270Y002280D01*
X015190Y002320D01*
X015170Y002430D01*
X015080Y002430D01*
X015050Y002320D01*
X014970Y002280D01*
X014880Y002350D01*
X014810Y002280D01*
X014870Y002190D01*
X014840Y002100D01*
X014730Y002080D01*
X015060Y001930D02*
X015043Y001942D01*
X015028Y001957D01*
X015015Y001974D01*
X015006Y001993D01*
X015001Y002014D01*
X014999Y002035D01*
X015001Y002056D01*
X015006Y002076D01*
X015015Y002095D01*
X015027Y002113D01*
X015042Y002128D01*
X015059Y002140D01*
X015079Y002149D01*
X015099Y002154D01*
X015120Y002156D01*
X015141Y002154D01*
X015161Y002149D01*
X015181Y002140D01*
X015198Y002128D01*
X015213Y002113D01*
X015225Y002095D01*
X015234Y002076D01*
X015239Y002056D01*
X015241Y002035D01*
X015239Y002014D01*
X015234Y001993D01*
X015225Y001974D01*
X015212Y001957D01*
X015197Y001942D01*
X015180Y001930D01*
D16*
X014410Y003150D03*
X013150Y003150D03*
D17*
X014160Y003770D02*
X015130Y003770D01*
X016851Y004477D02*
X016851Y004870D01*
X017756Y005146D02*
X018741Y005146D01*
X015130Y005530D02*
X014160Y005530D01*
X010737Y003734D02*
X009239Y005231D01*
X009061Y005231D02*
X007563Y003734D01*
X007563Y003566D02*
X009061Y002069D01*
X009239Y002069D02*
X010737Y003566D01*
X011913Y002349D02*
X012267Y002349D01*
X012267Y002191D02*
X011913Y002191D01*
X009495Y002017D02*
X009497Y002029D01*
X009502Y002040D01*
X009511Y002049D01*
X009522Y002054D01*
X009534Y002056D01*
X009546Y002054D01*
X009557Y002049D01*
X009566Y002040D01*
X009571Y002029D01*
X009573Y002017D01*
X009571Y002005D01*
X009566Y001994D01*
X009557Y001985D01*
X009546Y001980D01*
X009534Y001978D01*
X009522Y001980D01*
X009511Y001985D01*
X009502Y001994D01*
X009497Y002005D01*
X009495Y002017D01*
X016851Y002351D02*
X016851Y002823D01*
X017796Y002154D02*
X018741Y002154D01*
M02*
