G75*
G70*
%OFA0B0*%
%FSLAX24Y24*%
%IPPOS*%
%LPD*%
%AMOC8*
5,1,8,0,0,1.08239X$1,22.5*
%
%ADD10R,0.0394X0.0433*%
%ADD11R,0.0433X0.0394*%
%ADD12R,0.0315X0.0315*%
%ADD13R,0.0600X0.0300*%
%ADD14R,0.0984X0.0197*%
%ADD15R,0.0984X0.0787*%
%ADD16R,0.0787X0.0945*%
%ADD17C,0.0100*%
%ADD18C,0.0660*%
%ADD19C,0.0740*%
%ADD20R,0.0591X0.0394*%
%ADD21R,0.0787X0.0394*%
%ADD22C,0.0866*%
%ADD23R,0.0118X0.0118*%
%ADD24R,0.0512X0.0413*%
%ADD25C,0.0080*%
%ADD26C,0.0160*%
%ADD27C,0.0270*%
D10*
X011370Y001935D03*
X011370Y002605D03*
X013150Y002815D03*
X013750Y002815D03*
X014410Y002815D03*
X015150Y002815D03*
X015150Y003485D03*
X014410Y003485D03*
X013750Y003485D03*
X013150Y003485D03*
D11*
X011965Y003930D03*
X011295Y003930D03*
X011995Y004650D03*
X012665Y004650D03*
X006425Y005450D03*
X005755Y005450D03*
X003585Y003650D03*
X002915Y003650D03*
X002305Y003650D03*
X001635Y003650D03*
X002855Y002930D03*
X003525Y002930D03*
X004375Y003590D03*
X005045Y003590D03*
X005715Y003590D03*
X006385Y003590D03*
X007524Y001738D03*
X008193Y001738D03*
X003525Y001550D03*
X002855Y001550D03*
D12*
X012035Y005150D03*
X012625Y005150D03*
X013155Y002290D03*
X013745Y002290D03*
D13*
X006990Y002880D03*
X004990Y002880D03*
X004990Y001380D03*
X006990Y001380D03*
X003650Y004400D03*
X001650Y004400D03*
X001650Y005900D03*
X003650Y005900D03*
D14*
X017166Y004280D03*
X017166Y003965D03*
X017166Y003650D03*
X017166Y003335D03*
X017166Y003020D03*
D15*
X017166Y001878D03*
X019331Y001878D03*
X017166Y005382D03*
X019331Y005422D03*
D16*
X006377Y004450D03*
X004803Y004450D03*
D17*
X005346Y004484D02*
X005578Y004484D01*
X005549Y004472D02*
X005468Y004391D01*
X005425Y004287D01*
X005346Y004287D01*
X005425Y004287D02*
X005425Y004173D01*
X005468Y004069D01*
X005549Y003988D01*
X005653Y003945D01*
X005767Y003945D01*
X005834Y003973D01*
X005834Y003937D01*
X005764Y003937D01*
X005764Y003638D01*
X005667Y003638D01*
X005667Y003937D01*
X005479Y003937D01*
X005441Y003927D01*
X005407Y003907D01*
X005380Y003880D01*
X005346Y003915D01*
X005346Y004985D01*
X005258Y005072D01*
X005050Y005072D01*
X005075Y005133D01*
X005075Y005247D01*
X005032Y005351D01*
X004951Y005432D01*
X004847Y005475D01*
X004733Y005475D01*
X004629Y005432D01*
X004548Y005351D01*
X004505Y005247D01*
X004505Y005133D01*
X004530Y005072D01*
X004347Y005072D01*
X004259Y004985D01*
X004259Y003937D01*
X004139Y003937D01*
X004101Y003927D01*
X004067Y003907D01*
X004039Y003879D01*
X004019Y003845D01*
X004009Y003807D01*
X004009Y003638D01*
X004327Y003638D01*
X004327Y003542D01*
X004009Y003542D01*
X004009Y003373D01*
X004019Y003335D01*
X004039Y003301D01*
X004067Y003273D01*
X004101Y003253D01*
X004139Y003243D01*
X004327Y003243D01*
X004327Y003542D01*
X004424Y003542D01*
X004424Y003243D01*
X004612Y003243D01*
X004650Y003253D01*
X004684Y003273D01*
X004710Y003299D01*
X004766Y003243D01*
X005323Y003243D01*
X005380Y003300D01*
X005407Y003273D01*
X005441Y003253D01*
X005479Y003243D01*
X005667Y003243D01*
X005667Y003542D01*
X005764Y003542D01*
X005764Y003243D01*
X005952Y003243D01*
X005990Y003253D01*
X006024Y003273D01*
X006050Y003299D01*
X006106Y003243D01*
X006640Y003243D01*
X006640Y003180D01*
X006628Y003180D01*
X006540Y003092D01*
X006540Y002668D01*
X006568Y002640D01*
X006111Y002640D01*
X005791Y002320D01*
X004951Y002320D01*
X004655Y002024D01*
X004522Y002157D01*
X004345Y002230D01*
X004155Y002230D01*
X003978Y002157D01*
X003843Y002022D01*
X003791Y001897D01*
X003246Y001897D01*
X003190Y001841D01*
X003164Y001867D01*
X003130Y001887D01*
X003092Y001897D01*
X002904Y001897D01*
X002904Y001598D01*
X002807Y001598D01*
X002807Y001502D01*
X002489Y001502D01*
X002489Y001333D01*
X002499Y001295D01*
X002519Y001261D01*
X002547Y001233D01*
X002581Y001213D01*
X002619Y001203D01*
X002807Y001203D01*
X002807Y001502D01*
X002904Y001502D01*
X002904Y001203D01*
X003092Y001203D01*
X003130Y001213D01*
X003164Y001233D01*
X003190Y001259D01*
X003246Y001203D01*
X003803Y001203D01*
X003891Y001291D01*
X003891Y001360D01*
X003961Y001360D01*
X003978Y001343D01*
X004155Y001270D01*
X004345Y001270D01*
X004522Y001343D01*
X004584Y001405D01*
X004965Y001405D01*
X004965Y001680D01*
X004849Y001680D01*
X005109Y001940D01*
X005949Y001940D01*
X006060Y002051D01*
X006269Y002260D01*
X007369Y002260D01*
X007480Y002371D01*
X007523Y002414D01*
X007589Y002348D01*
X007693Y002305D01*
X007807Y002305D01*
X007911Y002348D01*
X007992Y002429D01*
X008035Y002533D01*
X008035Y002647D01*
X008023Y002675D01*
X008161Y002812D01*
X008253Y002721D01*
X008306Y002667D01*
X008360Y002721D01*
X008360Y002721D01*
X008360Y002721D01*
X008306Y002667D01*
X008312Y002661D01*
X008280Y002629D01*
X008280Y002455D01*
X008273Y002455D01*
X008169Y002412D01*
X008088Y002331D01*
X008045Y002227D01*
X008045Y002154D01*
X008000Y002109D01*
X008000Y002085D01*
X007914Y002085D01*
X007858Y002029D01*
X007832Y002055D01*
X007798Y002075D01*
X007760Y002085D01*
X007572Y002085D01*
X007572Y001787D01*
X007475Y001787D01*
X007475Y002085D01*
X007287Y002085D01*
X007249Y002075D01*
X007215Y002055D01*
X007187Y002027D01*
X007167Y001993D01*
X007157Y001955D01*
X007157Y001787D01*
X007475Y001787D01*
X007475Y001690D01*
X007157Y001690D01*
X007157Y001680D01*
X007015Y001680D01*
X007015Y001405D01*
X006965Y001405D01*
X006965Y001680D01*
X006670Y001680D01*
X006632Y001670D01*
X006598Y001650D01*
X006570Y001622D01*
X006550Y001588D01*
X006540Y001550D01*
X006540Y001405D01*
X006965Y001405D01*
X006965Y001355D01*
X006540Y001355D01*
X006540Y001210D01*
X006550Y001172D01*
X006551Y001170D01*
X006547Y001170D01*
X006355Y001091D01*
X006209Y000945D01*
X006150Y000802D01*
X006091Y000945D01*
X005945Y001091D01*
X005753Y001170D01*
X005547Y001170D01*
X005355Y001091D01*
X005209Y000945D01*
X005150Y000802D01*
X005091Y000945D01*
X004955Y001080D01*
X004965Y001080D01*
X004965Y001355D01*
X004540Y001355D01*
X004540Y001210D01*
X004550Y001172D01*
X004551Y001170D01*
X004547Y001170D01*
X004355Y001091D01*
X004209Y000945D01*
X004150Y000802D01*
X004091Y000945D01*
X003945Y001091D01*
X003753Y001170D01*
X003547Y001170D01*
X003355Y001091D01*
X003209Y000945D01*
X003150Y000802D01*
X003091Y000945D01*
X002945Y001091D01*
X002753Y001170D01*
X002547Y001170D01*
X002355Y001091D01*
X002209Y000945D01*
X002150Y000802D01*
X002091Y000945D01*
X001945Y001091D01*
X001753Y001170D01*
X001547Y001170D01*
X001355Y001091D01*
X001209Y000945D01*
X001150Y000802D01*
X001091Y000945D01*
X000945Y001091D01*
X000802Y001150D01*
X000945Y001209D01*
X001091Y001355D01*
X001129Y001448D01*
X001189Y001388D01*
X001293Y001345D01*
X001407Y001345D01*
X001511Y001388D01*
X001592Y001469D01*
X001635Y001573D01*
X001635Y001687D01*
X001592Y001791D01*
X001553Y001830D01*
X002493Y001830D01*
X002610Y001947D01*
X002610Y002586D01*
X002619Y002583D01*
X002807Y002583D01*
X002807Y002882D01*
X002904Y002882D01*
X002904Y002583D01*
X003092Y002583D01*
X003130Y002593D01*
X003164Y002613D01*
X003190Y002639D01*
X003246Y002583D01*
X003800Y002583D01*
X003843Y002478D01*
X003978Y002343D01*
X004155Y002270D01*
X004345Y002270D01*
X004522Y002343D01*
X004657Y002478D01*
X004699Y002580D01*
X005352Y002580D01*
X005440Y002668D01*
X005440Y003092D01*
X005352Y003180D01*
X004628Y003180D01*
X004563Y003115D01*
X004522Y003157D01*
X004345Y003230D01*
X004155Y003230D01*
X003978Y003157D01*
X003941Y003120D01*
X003891Y003120D01*
X003891Y003189D01*
X003803Y003277D01*
X003246Y003277D01*
X003190Y003221D01*
X003164Y003247D01*
X003130Y003267D01*
X003092Y003277D01*
X002904Y003277D01*
X002904Y002978D01*
X002807Y002978D01*
X002807Y003277D01*
X002619Y003277D01*
X002581Y003267D01*
X002547Y003247D01*
X002519Y003219D01*
X002499Y003185D01*
X002489Y003147D01*
X002489Y003130D01*
X002277Y003130D01*
X002160Y003013D01*
X002160Y002980D01*
X001327Y002980D01*
X001210Y002863D01*
X001210Y002179D01*
X001062Y002327D01*
X001091Y002355D01*
X001170Y002547D01*
X001170Y002753D01*
X001091Y002945D01*
X000945Y003091D01*
X000798Y003151D01*
X000850Y003168D01*
X000923Y003205D01*
X000989Y003253D01*
X001043Y003308D01*
X001120Y003231D01*
X001231Y003120D01*
X002169Y003120D01*
X002249Y003200D01*
X002352Y003303D01*
X002583Y003303D01*
X002610Y003330D01*
X002637Y003303D01*
X003194Y003303D01*
X003250Y003359D01*
X003306Y003303D01*
X003863Y003303D01*
X003951Y003391D01*
X003951Y003909D01*
X003863Y003997D01*
X003760Y003997D01*
X003760Y004009D01*
X003669Y004100D01*
X004012Y004100D01*
X004100Y004188D01*
X004100Y004612D01*
X004012Y004700D01*
X003840Y004700D01*
X003840Y005237D01*
X003892Y005289D01*
X003935Y005393D01*
X003935Y005507D01*
X003896Y005600D01*
X003970Y005600D01*
X004008Y005610D01*
X004042Y005630D01*
X004070Y005658D01*
X004090Y005692D01*
X004100Y005730D01*
X004100Y005875D01*
X003675Y005875D01*
X003675Y005925D01*
X004100Y005925D01*
X004100Y005960D01*
X004811Y005960D01*
X004991Y005780D01*
X005469Y005780D01*
X005447Y005767D01*
X005419Y005739D01*
X005399Y005705D01*
X005389Y005667D01*
X005389Y005498D01*
X005707Y005498D01*
X005707Y005402D01*
X005389Y005402D01*
X005389Y005233D01*
X005399Y005195D01*
X005419Y005161D01*
X005447Y005133D01*
X005481Y005113D01*
X005519Y005103D01*
X005707Y005103D01*
X005707Y005402D01*
X005804Y005402D01*
X005804Y005103D01*
X005992Y005103D01*
X006030Y005113D01*
X006064Y005133D01*
X006090Y005159D01*
X006146Y005103D01*
X006703Y005103D01*
X006791Y005191D01*
X006791Y005260D01*
X006879Y005260D01*
X006908Y005189D01*
X006989Y005108D01*
X007093Y005065D01*
X007207Y005065D01*
X007291Y005100D01*
X008032Y004359D01*
X008028Y004355D01*
X008081Y004301D01*
X008028Y004355D01*
X008021Y004348D01*
X007780Y004589D01*
X007669Y004700D01*
X007353Y004700D01*
X007332Y004751D01*
X007251Y004832D01*
X007147Y004875D01*
X007033Y004875D01*
X006929Y004832D01*
X006921Y004824D01*
X006921Y004985D01*
X006833Y005072D01*
X005922Y005072D01*
X005834Y004985D01*
X005834Y004487D01*
X005767Y004515D01*
X005653Y004515D01*
X005549Y004472D01*
X005466Y004386D02*
X005346Y004386D01*
X005346Y004583D02*
X005834Y004583D01*
X005834Y004681D02*
X005346Y004681D01*
X005346Y004780D02*
X005834Y004780D01*
X005834Y004878D02*
X005346Y004878D01*
X005346Y004977D02*
X005834Y004977D01*
X005804Y005174D02*
X005707Y005174D01*
X005707Y005272D02*
X005804Y005272D01*
X005804Y005371D02*
X005707Y005371D01*
X005707Y005469D02*
X004861Y005469D01*
X004719Y005469D02*
X003935Y005469D01*
X003926Y005371D02*
X004567Y005371D01*
X004515Y005272D02*
X003875Y005272D01*
X003840Y005174D02*
X004505Y005174D01*
X004529Y005075D02*
X003840Y005075D01*
X003840Y004977D02*
X004259Y004977D01*
X004259Y004878D02*
X003840Y004878D01*
X003840Y004780D02*
X004259Y004780D01*
X004259Y004681D02*
X004031Y004681D01*
X004100Y004583D02*
X004259Y004583D01*
X004259Y004484D02*
X004100Y004484D01*
X004100Y004386D02*
X004259Y004386D01*
X004259Y004287D02*
X004100Y004287D01*
X004100Y004189D02*
X004259Y004189D01*
X004259Y004090D02*
X003679Y004090D01*
X003869Y003992D02*
X004259Y003992D01*
X004053Y003893D02*
X003951Y003893D01*
X003951Y003795D02*
X004009Y003795D01*
X004009Y003696D02*
X003951Y003696D01*
X003951Y003598D02*
X004327Y003598D01*
X004327Y003499D02*
X004424Y003499D01*
X004424Y003401D02*
X004327Y003401D01*
X004327Y003302D02*
X004424Y003302D01*
X004409Y003204D02*
X006640Y003204D01*
X006553Y003105D02*
X005427Y003105D01*
X005440Y003007D02*
X006540Y003007D01*
X006540Y002908D02*
X005440Y002908D01*
X005440Y002810D02*
X006540Y002810D01*
X006540Y002711D02*
X005440Y002711D01*
X005385Y002613D02*
X006084Y002613D01*
X005985Y002514D02*
X004672Y002514D01*
X004594Y002416D02*
X005887Y002416D01*
X006227Y002219D02*
X008045Y002219D01*
X008011Y002120D02*
X006129Y002120D01*
X006030Y002022D02*
X007184Y002022D01*
X007157Y001923D02*
X005092Y001923D01*
X004993Y001825D02*
X007157Y001825D01*
X007475Y001825D02*
X007572Y001825D01*
X007572Y001923D02*
X007475Y001923D01*
X007475Y002022D02*
X007572Y002022D01*
X007664Y002317D02*
X007426Y002317D01*
X007836Y002317D02*
X008082Y002317D01*
X008178Y002416D02*
X007979Y002416D01*
X008027Y002514D02*
X008280Y002514D01*
X008280Y002613D02*
X008035Y002613D01*
X008060Y002711D02*
X008262Y002711D01*
X008253Y002721D02*
X008253Y002721D01*
X008350Y002711D02*
X008350Y002711D01*
X008164Y002810D02*
X008158Y002810D01*
X008548Y002909D02*
X008548Y002909D01*
X008548Y002909D01*
X008602Y002963D01*
X008580Y002985D01*
X008580Y003027D01*
X008631Y003048D01*
X008712Y003129D01*
X008755Y003233D01*
X008755Y003347D01*
X008712Y003451D01*
X008631Y003532D01*
X008527Y003575D01*
X008435Y003575D01*
X008435Y003687D01*
X008392Y003791D01*
X008311Y003872D01*
X008207Y003915D01*
X008180Y003915D01*
X008270Y004005D01*
X008270Y004005D01*
X008323Y004059D01*
X008270Y004112D01*
X008270Y004112D01*
X008323Y004059D01*
X008328Y004063D01*
X008331Y004060D01*
X008617Y004060D01*
X008649Y004028D01*
X008753Y003985D01*
X008867Y003985D01*
X008971Y004028D01*
X009052Y004109D01*
X009065Y004140D01*
X009769Y004140D01*
X009832Y004203D01*
X009837Y004198D01*
X009891Y004252D01*
X009891Y004252D01*
X009891Y004252D01*
X009837Y004198D01*
X009843Y004192D01*
X009651Y004000D01*
X009623Y004000D01*
X009571Y004052D01*
X009467Y004095D01*
X009353Y004095D01*
X009249Y004052D01*
X009168Y003971D01*
X009125Y003867D01*
X009125Y003753D01*
X009168Y003649D01*
X009249Y003568D01*
X009353Y003525D01*
X009467Y003525D01*
X009571Y003568D01*
X009623Y003620D01*
X009809Y003620D01*
X009920Y003731D01*
X010112Y003923D01*
X010201Y003834D01*
X010341Y003695D01*
X010385Y003650D01*
X010308Y003573D01*
X010169Y003434D01*
X010030Y003295D01*
X009891Y003155D01*
X009837Y003102D01*
X009784Y003048D01*
X009784Y003048D01*
X009612Y002877D01*
X009473Y002738D01*
X009435Y002700D01*
X009435Y002727D01*
X009392Y002831D01*
X009311Y002912D01*
X009207Y002955D01*
X009093Y002955D01*
X008989Y002912D01*
X008908Y002831D01*
X008865Y002727D01*
X008865Y002700D01*
X008795Y002770D01*
X008655Y002909D01*
X008602Y002963D01*
X008548Y002909D01*
X008655Y002909D02*
X008655Y002909D01*
X008657Y002908D02*
X008985Y002908D01*
X008899Y002810D02*
X008755Y002810D01*
X008854Y002711D02*
X008865Y002711D01*
X009315Y002908D02*
X009643Y002908D01*
X009545Y002810D02*
X009401Y002810D01*
X009435Y002711D02*
X009446Y002711D01*
X010079Y002860D02*
X010133Y002806D01*
X010128Y002801D01*
X010269Y002660D01*
X010380Y002549D01*
X010380Y001969D01*
X010669Y001680D01*
X011028Y001680D01*
X011023Y001699D01*
X011023Y001887D01*
X011322Y001887D01*
X011322Y001984D01*
X011023Y001984D01*
X011023Y002172D01*
X011033Y002210D01*
X011053Y002244D01*
X011079Y002270D01*
X011023Y002326D01*
X011023Y002420D01*
X010951Y002420D01*
X010840Y002531D01*
X010711Y002660D01*
X010291Y002660D01*
X010180Y002771D01*
X010139Y002812D01*
X010133Y002806D01*
X010079Y002860D01*
X010079Y002860D01*
X010079Y002860D01*
X010130Y002810D02*
X010130Y002810D01*
X010136Y002810D02*
X010142Y002810D01*
X010218Y002711D02*
X010240Y002711D01*
X010316Y002613D02*
X010759Y002613D01*
X010857Y002514D02*
X010380Y002514D01*
X010380Y002416D02*
X011023Y002416D01*
X011032Y002317D02*
X010380Y002317D01*
X010380Y002219D02*
X011038Y002219D01*
X011023Y002120D02*
X010380Y002120D01*
X010380Y002022D02*
X011023Y002022D01*
X011322Y001923D02*
X010426Y001923D01*
X010524Y001825D02*
X011023Y001825D01*
X011023Y001726D02*
X010623Y001726D01*
X011418Y001887D02*
X011418Y001984D01*
X011684Y001984D01*
X011684Y001887D01*
X011418Y001887D01*
X011418Y001923D02*
X011684Y001923D01*
X011717Y001857D02*
X012040Y001857D01*
X012040Y001757D01*
X011717Y001757D01*
X011717Y001857D01*
X011717Y001825D02*
X012040Y001825D01*
X012040Y001857D02*
X012040Y002164D01*
X011814Y002164D01*
X011776Y002154D01*
X011742Y002134D01*
X011717Y002109D01*
X011717Y002172D01*
X011707Y002210D01*
X011687Y002244D01*
X011661Y002270D01*
X011717Y002326D01*
X011717Y002431D01*
X011772Y002376D01*
X012408Y002376D01*
X012496Y002464D01*
X012496Y003001D01*
X012408Y003089D01*
X012157Y003089D01*
X012251Y003128D01*
X012332Y003209D01*
X012375Y003313D01*
X012375Y003427D01*
X012332Y003531D01*
X012258Y003605D01*
X012273Y003613D01*
X012301Y003641D01*
X012321Y003675D01*
X012331Y003713D01*
X012331Y003882D01*
X012013Y003882D01*
X012013Y003978D01*
X012331Y003978D01*
X012331Y004147D01*
X012321Y004185D01*
X012301Y004219D01*
X012273Y004247D01*
X012239Y004267D01*
X012201Y004277D01*
X012013Y004277D01*
X012013Y003978D01*
X011916Y003978D01*
X011916Y004277D01*
X011743Y004277D01*
X011755Y004304D01*
X011759Y004303D01*
X011947Y004303D01*
X011947Y004602D01*
X011701Y004602D01*
X011651Y004652D01*
X011587Y004678D01*
X011629Y004720D01*
X011629Y004698D01*
X011947Y004698D01*
X011947Y004602D01*
X012044Y004602D01*
X012044Y004303D01*
X012232Y004303D01*
X012270Y004313D01*
X012304Y004333D01*
X012330Y004359D01*
X012386Y004303D01*
X012943Y004303D01*
X013031Y004391D01*
X013031Y004909D01*
X012943Y004997D01*
X012933Y004997D01*
X012933Y005370D01*
X012845Y005457D01*
X012406Y005457D01*
X012330Y005382D01*
X012254Y005457D01*
X012211Y005457D01*
X012109Y005560D01*
X012049Y005620D01*
X011455Y005620D01*
X011455Y005647D01*
X011412Y005751D01*
X011331Y005832D01*
X011227Y005875D01*
X011113Y005875D01*
X011009Y005832D01*
X010928Y005751D01*
X010894Y005669D01*
X010871Y005692D01*
X010767Y005735D01*
X010653Y005735D01*
X010549Y005692D01*
X010468Y005611D01*
X010425Y005507D01*
X010425Y005434D01*
X010220Y005229D01*
X010220Y004407D01*
X010186Y004440D01*
X010133Y004494D01*
X010079Y004547D01*
X009988Y004639D01*
X009989Y004640D01*
X010100Y004751D01*
X010100Y005251D01*
X010191Y005288D01*
X010272Y005369D01*
X010315Y005473D01*
X010315Y005587D01*
X010272Y005691D01*
X010191Y005772D01*
X010087Y005815D01*
X010084Y005815D01*
X010229Y005960D01*
X011229Y005960D01*
X011442Y006173D01*
X011547Y006130D01*
X011753Y006130D01*
X011945Y006209D01*
X012091Y006355D01*
X012150Y006498D01*
X012209Y006355D01*
X012355Y006209D01*
X012547Y006130D01*
X012753Y006130D01*
X012945Y006209D01*
X013091Y006355D01*
X013150Y006498D01*
X013209Y006355D01*
X013355Y006209D01*
X013547Y006130D01*
X013753Y006130D01*
X013945Y006209D01*
X014091Y006355D01*
X014150Y006498D01*
X014209Y006355D01*
X014355Y006209D01*
X014547Y006130D01*
X014753Y006130D01*
X014945Y006209D01*
X015091Y006355D01*
X015150Y006498D01*
X015209Y006355D01*
X015355Y006209D01*
X015547Y006130D01*
X015753Y006130D01*
X015945Y006209D01*
X016091Y006355D01*
X016150Y006498D01*
X016209Y006355D01*
X016355Y006209D01*
X016547Y006130D01*
X016753Y006130D01*
X016945Y006209D01*
X017091Y006355D01*
X017150Y006498D01*
X017209Y006355D01*
X017355Y006209D01*
X017547Y006130D01*
X017753Y006130D01*
X017945Y006209D01*
X018091Y006355D01*
X018150Y006498D01*
X018209Y006355D01*
X018355Y006209D01*
X018547Y006130D01*
X018753Y006130D01*
X018945Y006209D01*
X019091Y006355D01*
X019151Y006502D01*
X019168Y006450D01*
X019205Y006377D01*
X019253Y006311D01*
X019311Y006253D01*
X019377Y006205D01*
X019450Y006168D01*
X019528Y006143D01*
X019600Y006131D01*
X019600Y006600D01*
X019700Y006600D01*
X019700Y006131D01*
X019772Y006143D01*
X019850Y006168D01*
X019923Y006205D01*
X019989Y006253D01*
X020000Y006265D01*
X020000Y001035D01*
X019989Y001047D01*
X019923Y001095D01*
X019850Y001132D01*
X019772Y001157D01*
X019700Y001169D01*
X019700Y000700D01*
X019600Y000700D01*
X019600Y001169D01*
X019528Y001157D01*
X019450Y001132D01*
X019377Y001095D01*
X019311Y001047D01*
X019253Y000989D01*
X019205Y000923D01*
X019168Y000850D01*
X019151Y000798D01*
X019091Y000945D01*
X018945Y001091D01*
X018753Y001170D01*
X018547Y001170D01*
X018355Y001091D01*
X018209Y000945D01*
X018150Y000802D01*
X018091Y000945D01*
X017945Y001091D01*
X017753Y001170D01*
X017547Y001170D01*
X017355Y001091D01*
X017209Y000945D01*
X017149Y000798D01*
X017132Y000850D01*
X017095Y000923D01*
X017047Y000989D01*
X016989Y001047D01*
X016923Y001095D01*
X016850Y001132D01*
X016772Y001157D01*
X016700Y001169D01*
X016700Y000700D01*
X016600Y000700D01*
X016600Y001169D01*
X016528Y001157D01*
X016450Y001132D01*
X016377Y001095D01*
X016311Y001047D01*
X016253Y000989D01*
X016205Y000923D01*
X016168Y000850D01*
X016151Y000798D01*
X016091Y000945D01*
X015945Y001091D01*
X015753Y001170D01*
X015547Y001170D01*
X015355Y001091D01*
X015209Y000945D01*
X015150Y000802D01*
X015091Y000945D01*
X014945Y001091D01*
X014753Y001170D01*
X014547Y001170D01*
X014355Y001091D01*
X014209Y000945D01*
X014150Y000802D01*
X014091Y000945D01*
X013945Y001091D01*
X013753Y001170D01*
X013547Y001170D01*
X013442Y001127D01*
X013229Y001340D01*
X012489Y001340D01*
X012375Y001453D01*
X012404Y001461D01*
X012438Y001481D01*
X012466Y001509D01*
X012486Y001543D01*
X012496Y001581D01*
X012496Y001757D01*
X012140Y001757D01*
X012140Y001857D01*
X012496Y001857D01*
X012496Y002034D01*
X012486Y002072D01*
X012466Y002106D01*
X012438Y002134D01*
X012404Y002154D01*
X012366Y002164D01*
X012140Y002164D01*
X012140Y001857D01*
X012040Y001857D01*
X012040Y001923D02*
X012140Y001923D01*
X012140Y002022D02*
X012040Y002022D01*
X012040Y002120D02*
X012140Y002120D01*
X012452Y002120D02*
X012847Y002120D01*
X012847Y002070D02*
X012935Y001983D01*
X013374Y001983D01*
X013455Y002063D01*
X013468Y002040D01*
X013496Y002012D01*
X013530Y001993D01*
X013568Y001983D01*
X013717Y001983D01*
X013717Y002261D01*
X013774Y002261D01*
X013774Y001983D01*
X013923Y001983D01*
X013961Y001993D01*
X013995Y002012D01*
X014023Y002040D01*
X014043Y002075D01*
X014053Y002113D01*
X014053Y002261D01*
X013774Y002261D01*
X013774Y002319D01*
X013717Y002319D01*
X013717Y002597D01*
X013702Y002597D01*
X013702Y002767D01*
X013798Y002767D01*
X013798Y002597D01*
X013774Y002597D01*
X013774Y002319D01*
X014053Y002319D01*
X014053Y002467D01*
X014047Y002487D01*
X014067Y002507D01*
X014076Y002523D01*
X014151Y002449D01*
X014220Y002449D01*
X014220Y001863D01*
X014168Y001811D01*
X014125Y001707D01*
X014125Y001593D01*
X014168Y001489D01*
X014249Y001408D01*
X014353Y001365D01*
X014467Y001365D01*
X014571Y001408D01*
X014652Y001489D01*
X014695Y001593D01*
X014695Y001707D01*
X014652Y001811D01*
X014600Y001863D01*
X014600Y002449D01*
X014669Y002449D01*
X014757Y002537D01*
X014757Y003094D01*
X014701Y003150D01*
X014757Y003206D01*
X014757Y003460D01*
X014803Y003460D01*
X014803Y003206D01*
X014859Y003150D01*
X014833Y003124D01*
X014813Y003090D01*
X014803Y003052D01*
X014803Y002864D01*
X015102Y002864D01*
X015102Y002767D01*
X015198Y002767D01*
X015198Y002449D01*
X015367Y002449D01*
X015405Y002459D01*
X015439Y002479D01*
X015467Y002507D01*
X015487Y002541D01*
X015497Y002579D01*
X015497Y002767D01*
X015198Y002767D01*
X015198Y002864D01*
X015497Y002864D01*
X015497Y003052D01*
X015487Y003090D01*
X015467Y003124D01*
X015441Y003150D01*
X015497Y003206D01*
X015497Y003460D01*
X015700Y003460D01*
X015700Y003083D01*
X015648Y003031D01*
X015605Y002927D01*
X015605Y002813D01*
X015648Y002709D01*
X015700Y002657D01*
X015700Y001969D01*
X015666Y001935D01*
X015593Y001935D01*
X015489Y001892D01*
X015408Y001811D01*
X015365Y001707D01*
X015365Y001593D01*
X015408Y001489D01*
X015489Y001408D01*
X015593Y001365D01*
X015707Y001365D01*
X015811Y001408D01*
X015892Y001489D01*
X015900Y001509D01*
X015908Y001489D01*
X015989Y001408D01*
X016093Y001365D01*
X016207Y001365D01*
X016311Y001408D01*
X016392Y001489D01*
X016435Y001593D01*
X016435Y001707D01*
X016420Y001743D01*
X016420Y003117D01*
X016443Y003140D01*
X016524Y003140D01*
X016524Y002860D01*
X016611Y002772D01*
X017720Y002772D01*
X017738Y002790D01*
X017823Y002790D01*
X017823Y002719D01*
X017873Y002599D01*
X017965Y002507D01*
X018085Y002457D01*
X018215Y002457D01*
X018335Y002507D01*
X018427Y002599D01*
X018477Y002719D01*
X018477Y002849D01*
X018427Y002969D01*
X018335Y003061D01*
X018266Y003090D01*
X018311Y003108D01*
X018323Y003120D01*
X019477Y003120D01*
X019489Y003108D01*
X019593Y003065D01*
X019707Y003065D01*
X019811Y003108D01*
X019892Y003189D01*
X019935Y003293D01*
X019935Y003407D01*
X019892Y003511D01*
X019811Y003592D01*
X019707Y003635D01*
X019593Y003635D01*
X019489Y003592D01*
X019477Y003580D01*
X018323Y003580D01*
X018311Y003592D01*
X018207Y003635D01*
X018093Y003635D01*
X017989Y003592D01*
X017908Y003511D01*
X017865Y003407D01*
X017865Y003390D01*
X017808Y003333D01*
X017808Y003775D01*
X018482Y003775D01*
X018529Y003728D01*
X018633Y003685D01*
X018747Y003685D01*
X018851Y003728D01*
X018932Y003809D01*
X018975Y003913D01*
X018975Y004027D01*
X018932Y004131D01*
X018851Y004212D01*
X018747Y004255D01*
X018633Y004255D01*
X018529Y004212D01*
X018472Y004155D01*
X017806Y004155D01*
X017808Y004162D01*
X017808Y004280D01*
X017808Y004398D01*
X017798Y004436D01*
X017778Y004470D01*
X017750Y004498D01*
X017716Y004518D01*
X017678Y004528D01*
X017166Y004528D01*
X017166Y004280D01*
X017808Y004280D01*
X017166Y004280D01*
X017166Y004280D01*
X017166Y004280D01*
X017166Y004528D01*
X016840Y004528D01*
X016840Y004839D01*
X017116Y004839D01*
X017116Y005332D01*
X017216Y005332D01*
X017216Y005432D01*
X017808Y005432D01*
X017808Y005796D01*
X017798Y005834D01*
X017778Y005868D01*
X017750Y005896D01*
X017716Y005916D01*
X017678Y005926D01*
X017216Y005926D01*
X017216Y005432D01*
X017116Y005432D01*
X017116Y005926D01*
X016654Y005926D01*
X016616Y005916D01*
X016582Y005896D01*
X016554Y005868D01*
X016537Y005840D01*
X014071Y005840D01*
X013960Y005729D01*
X013960Y005587D01*
X013919Y005587D01*
X013919Y005289D01*
X013822Y005289D01*
X013822Y005587D01*
X013555Y005587D01*
X013517Y005577D01*
X013483Y005557D01*
X013455Y005529D01*
X013435Y005495D01*
X013425Y005457D01*
X013425Y005289D01*
X013822Y005289D01*
X013822Y005192D01*
X013425Y005192D01*
X013425Y005024D01*
X013435Y004985D01*
X013455Y004951D01*
X013462Y004944D01*
X013426Y004909D01*
X013426Y004391D01*
X013462Y004356D01*
X013425Y004319D01*
X013425Y004280D01*
X013323Y004280D01*
X013287Y004295D01*
X013173Y004295D01*
X013069Y004252D01*
X012988Y004171D01*
X012945Y004067D01*
X012945Y003953D01*
X012960Y003917D01*
X012960Y003851D01*
X012891Y003851D01*
X012803Y003763D01*
X012803Y003206D01*
X012859Y003150D01*
X012803Y003094D01*
X012803Y002537D01*
X012847Y002493D01*
X012847Y002070D01*
X012896Y002022D02*
X012496Y002022D01*
X012496Y001923D02*
X014220Y001923D01*
X014220Y002022D02*
X014004Y002022D01*
X013774Y002022D02*
X013717Y002022D01*
X013487Y002022D02*
X013413Y002022D01*
X013717Y002120D02*
X013774Y002120D01*
X013774Y002219D02*
X013717Y002219D01*
X013774Y002317D02*
X014220Y002317D01*
X014220Y002219D02*
X014053Y002219D01*
X014053Y002120D02*
X014220Y002120D01*
X014600Y002120D02*
X015700Y002120D01*
X015700Y002219D02*
X014600Y002219D01*
X014600Y002317D02*
X015700Y002317D01*
X015700Y002416D02*
X014600Y002416D01*
X014734Y002514D02*
X014829Y002514D01*
X014833Y002507D02*
X014861Y002479D01*
X014895Y002459D01*
X014933Y002449D01*
X015102Y002449D01*
X015102Y002767D01*
X014803Y002767D01*
X014803Y002579D01*
X014813Y002541D01*
X014833Y002507D01*
X014803Y002613D02*
X014757Y002613D01*
X014757Y002711D02*
X014803Y002711D01*
X014757Y002810D02*
X015102Y002810D01*
X015198Y002810D02*
X015607Y002810D01*
X015605Y002908D02*
X015497Y002908D01*
X015497Y003007D02*
X015638Y003007D01*
X015700Y003105D02*
X015478Y003105D01*
X015494Y003204D02*
X015700Y003204D01*
X015700Y003302D02*
X015497Y003302D01*
X015497Y003401D02*
X015700Y003401D01*
X016420Y003105D02*
X016524Y003105D01*
X016524Y003007D02*
X016420Y003007D01*
X016420Y002908D02*
X016524Y002908D01*
X016574Y002810D02*
X016420Y002810D01*
X016420Y002711D02*
X017826Y002711D01*
X017867Y002613D02*
X016420Y002613D01*
X016420Y002514D02*
X017957Y002514D01*
X017750Y002392D02*
X017716Y002412D01*
X017678Y002422D01*
X017216Y002422D01*
X017216Y001928D01*
X017808Y001928D01*
X017808Y002292D01*
X017798Y002330D01*
X017778Y002364D01*
X017750Y002392D01*
X017702Y002416D02*
X018795Y002416D01*
X018781Y002412D02*
X018747Y002392D01*
X018719Y002364D01*
X018699Y002330D01*
X018689Y002292D01*
X018689Y001928D01*
X019281Y001928D01*
X019281Y001828D01*
X019381Y001828D01*
X019381Y001335D01*
X019843Y001335D01*
X019881Y001345D01*
X019915Y001365D01*
X019943Y001393D01*
X019963Y001427D01*
X019973Y001465D01*
X019973Y001828D01*
X019381Y001828D01*
X019381Y001928D01*
X019973Y001928D01*
X019973Y002292D01*
X019963Y002330D01*
X019943Y002364D01*
X019915Y002392D01*
X019881Y002412D01*
X019843Y002422D01*
X019381Y002422D01*
X019381Y001928D01*
X019281Y001928D01*
X019281Y002422D01*
X018819Y002422D01*
X018781Y002412D01*
X018696Y002317D02*
X017801Y002317D01*
X017808Y002219D02*
X018689Y002219D01*
X018689Y002120D02*
X017808Y002120D01*
X017808Y002022D02*
X018689Y002022D01*
X018689Y001828D02*
X018689Y001465D01*
X018699Y001427D01*
X018719Y001393D01*
X018747Y001365D01*
X018781Y001345D01*
X018819Y001335D01*
X019281Y001335D01*
X019281Y001828D01*
X018689Y001828D01*
X018689Y001825D02*
X017808Y001825D01*
X017808Y001828D02*
X017216Y001828D01*
X017216Y001928D01*
X017116Y001928D01*
X017116Y001828D01*
X017216Y001828D01*
X017216Y001335D01*
X017678Y001335D01*
X017716Y001345D01*
X017750Y001365D01*
X017778Y001393D01*
X017798Y001427D01*
X017808Y001465D01*
X017808Y001828D01*
X017808Y001726D02*
X018689Y001726D01*
X018689Y001628D02*
X017808Y001628D01*
X017808Y001529D02*
X018689Y001529D01*
X018698Y001431D02*
X017799Y001431D01*
X017216Y001431D02*
X017116Y001431D01*
X017116Y001335D02*
X016654Y001335D01*
X016616Y001345D01*
X016582Y001365D01*
X016554Y001393D01*
X016534Y001427D01*
X016524Y001465D01*
X016524Y001828D01*
X017116Y001828D01*
X017116Y001335D01*
X017116Y001529D02*
X017216Y001529D01*
X017216Y001628D02*
X017116Y001628D01*
X017116Y001726D02*
X017216Y001726D01*
X017216Y001825D02*
X017116Y001825D01*
X017116Y001923D02*
X016420Y001923D01*
X016420Y002022D02*
X016524Y002022D01*
X016524Y001928D02*
X017116Y001928D01*
X017116Y002422D01*
X016654Y002422D01*
X016616Y002412D01*
X016582Y002392D01*
X016554Y002364D01*
X016534Y002330D01*
X016524Y002292D01*
X016524Y001928D01*
X016524Y001825D02*
X016420Y001825D01*
X016427Y001726D02*
X016524Y001726D01*
X016524Y001628D02*
X016435Y001628D01*
X016408Y001529D02*
X016524Y001529D01*
X016533Y001431D02*
X016334Y001431D01*
X015966Y001431D02*
X015834Y001431D01*
X015466Y001431D02*
X014594Y001431D01*
X014668Y001529D02*
X015392Y001529D01*
X015365Y001628D02*
X014695Y001628D01*
X014687Y001726D02*
X015373Y001726D01*
X015421Y001825D02*
X014639Y001825D01*
X014600Y001923D02*
X015564Y001923D01*
X015700Y002022D02*
X014600Y002022D01*
X014181Y001825D02*
X012140Y001825D01*
X012496Y001726D02*
X014133Y001726D01*
X014125Y001628D02*
X012496Y001628D01*
X012478Y001529D02*
X014152Y001529D01*
X014226Y001431D02*
X012398Y001431D01*
X013237Y001332D02*
X020000Y001332D01*
X020000Y001431D02*
X019964Y001431D01*
X019973Y001529D02*
X020000Y001529D01*
X020000Y001628D02*
X019973Y001628D01*
X019973Y001726D02*
X020000Y001726D01*
X020000Y001825D02*
X019973Y001825D01*
X020000Y001923D02*
X019381Y001923D01*
X019381Y002022D02*
X019281Y002022D01*
X019281Y001923D02*
X017216Y001923D01*
X017216Y002022D02*
X017116Y002022D01*
X017116Y002120D02*
X017216Y002120D01*
X017216Y002219D02*
X017116Y002219D01*
X017116Y002317D02*
X017216Y002317D01*
X017216Y002416D02*
X017116Y002416D01*
X016629Y002416D02*
X016420Y002416D01*
X016420Y002317D02*
X016530Y002317D01*
X016524Y002219D02*
X016420Y002219D01*
X016420Y002120D02*
X016524Y002120D01*
X015700Y002514D02*
X015471Y002514D01*
X015497Y002613D02*
X015700Y002613D01*
X015647Y002711D02*
X015497Y002711D01*
X015198Y002711D02*
X015102Y002711D01*
X015102Y002613D02*
X015198Y002613D01*
X015198Y002514D02*
X015102Y002514D01*
X014220Y002416D02*
X014053Y002416D01*
X014071Y002514D02*
X014086Y002514D01*
X013798Y002613D02*
X013702Y002613D01*
X013717Y002514D02*
X013774Y002514D01*
X013774Y002416D02*
X013717Y002416D01*
X013702Y002711D02*
X013798Y002711D01*
X012826Y002514D02*
X012496Y002514D01*
X012496Y002613D02*
X012803Y002613D01*
X012803Y002711D02*
X012496Y002711D01*
X012496Y002810D02*
X012803Y002810D01*
X012803Y002908D02*
X012496Y002908D01*
X012491Y003007D02*
X012803Y003007D01*
X012814Y003105D02*
X012195Y003105D01*
X012327Y003204D02*
X012806Y003204D01*
X012803Y003302D02*
X012370Y003302D01*
X012375Y003401D02*
X012803Y003401D01*
X012803Y003499D02*
X012345Y003499D01*
X012266Y003598D02*
X012803Y003598D01*
X012803Y003696D02*
X012327Y003696D01*
X012331Y003795D02*
X012834Y003795D01*
X012960Y003893D02*
X012013Y003893D01*
X012013Y003992D02*
X011916Y003992D01*
X011916Y004090D02*
X012013Y004090D01*
X012013Y004189D02*
X011916Y004189D01*
X011748Y004287D02*
X013154Y004287D01*
X013306Y004287D02*
X013425Y004287D01*
X013432Y004386D02*
X013026Y004386D01*
X013031Y004484D02*
X013426Y004484D01*
X013426Y004583D02*
X013031Y004583D01*
X013031Y004681D02*
X013426Y004681D01*
X013426Y004780D02*
X013031Y004780D01*
X013031Y004878D02*
X013426Y004878D01*
X013440Y004977D02*
X012964Y004977D01*
X012933Y005075D02*
X013425Y005075D01*
X013425Y005174D02*
X012933Y005174D01*
X012933Y005272D02*
X013822Y005272D01*
X013822Y005371D02*
X013919Y005371D01*
X013919Y005469D02*
X013822Y005469D01*
X013822Y005568D02*
X013919Y005568D01*
X013960Y005666D02*
X011447Y005666D01*
X011399Y005765D02*
X013996Y005765D01*
X013501Y005568D02*
X012101Y005568D01*
X012200Y005469D02*
X013428Y005469D01*
X013425Y005371D02*
X012932Y005371D01*
X011256Y005863D02*
X016551Y005863D01*
X017116Y005863D02*
X017216Y005863D01*
X017216Y005765D02*
X017116Y005765D01*
X017116Y005666D02*
X017216Y005666D01*
X017216Y005568D02*
X017116Y005568D01*
X017116Y005469D02*
X017216Y005469D01*
X017216Y005371D02*
X018689Y005371D01*
X018689Y005372D02*
X018689Y005008D01*
X018699Y004970D01*
X018719Y004936D01*
X018747Y004908D01*
X018781Y004888D01*
X018819Y004878D01*
X017759Y004878D01*
X017750Y004869D02*
X017778Y004896D01*
X017798Y004931D01*
X017808Y004969D01*
X017808Y005332D01*
X017216Y005332D01*
X017216Y004839D01*
X017678Y004839D01*
X017716Y004849D01*
X017750Y004869D01*
X017873Y004701D02*
X017965Y004793D01*
X018085Y004843D01*
X018215Y004843D01*
X018335Y004793D01*
X018427Y004701D01*
X018477Y004581D01*
X018477Y004451D01*
X018427Y004331D01*
X018335Y004239D01*
X018215Y004189D01*
X018085Y004189D01*
X017965Y004239D01*
X017873Y004331D01*
X017823Y004451D01*
X017823Y004581D01*
X017873Y004701D01*
X017864Y004681D02*
X016840Y004681D01*
X016840Y004780D02*
X017951Y004780D01*
X018349Y004780D02*
X020000Y004780D01*
X020000Y004878D02*
X019843Y004878D01*
X019881Y004888D01*
X019915Y004908D01*
X019943Y004936D01*
X019963Y004970D01*
X019973Y005008D01*
X019973Y005372D01*
X019381Y005372D01*
X019381Y005472D01*
X019281Y005472D01*
X019281Y005965D01*
X018819Y005965D01*
X018781Y005955D01*
X018747Y005935D01*
X018719Y005907D01*
X018699Y005873D01*
X018689Y005835D01*
X018689Y005472D01*
X019281Y005472D01*
X019281Y005372D01*
X018689Y005372D01*
X018689Y005272D02*
X017808Y005272D01*
X017808Y005174D02*
X018689Y005174D01*
X018689Y005075D02*
X017808Y005075D01*
X017808Y004977D02*
X018697Y004977D01*
X018819Y004878D02*
X019281Y004878D01*
X019381Y004878D01*
X019843Y004878D01*
X019965Y004977D02*
X020000Y004977D01*
X020000Y005075D02*
X019973Y005075D01*
X019973Y005174D02*
X020000Y005174D01*
X020000Y005272D02*
X019973Y005272D01*
X019973Y005371D02*
X020000Y005371D01*
X020000Y005469D02*
X019381Y005469D01*
X019381Y005472D02*
X019973Y005472D01*
X019973Y005835D01*
X019963Y005873D01*
X019943Y005907D01*
X019915Y005935D01*
X019881Y005955D01*
X019843Y005965D01*
X019381Y005965D01*
X019381Y005472D01*
X019281Y005469D02*
X017808Y005469D01*
X017808Y005568D02*
X018689Y005568D01*
X018689Y005666D02*
X017808Y005666D01*
X017808Y005765D02*
X018689Y005765D01*
X018696Y005863D02*
X017781Y005863D01*
X017822Y006159D02*
X018478Y006159D01*
X018308Y006257D02*
X017992Y006257D01*
X018091Y006356D02*
X018209Y006356D01*
X018168Y006454D02*
X018132Y006454D01*
X017478Y006159D02*
X016822Y006159D01*
X016992Y006257D02*
X017308Y006257D01*
X017209Y006356D02*
X017091Y006356D01*
X017132Y006454D02*
X017168Y006454D01*
X016478Y006159D02*
X015822Y006159D01*
X015992Y006257D02*
X016308Y006257D01*
X016209Y006356D02*
X016091Y006356D01*
X016132Y006454D02*
X016168Y006454D01*
X015478Y006159D02*
X014822Y006159D01*
X014992Y006257D02*
X015308Y006257D01*
X015209Y006356D02*
X015091Y006356D01*
X015132Y006454D02*
X015168Y006454D01*
X014478Y006159D02*
X013822Y006159D01*
X013992Y006257D02*
X014308Y006257D01*
X014209Y006356D02*
X014091Y006356D01*
X014132Y006454D02*
X014168Y006454D01*
X013478Y006159D02*
X012822Y006159D01*
X012992Y006257D02*
X013308Y006257D01*
X013209Y006356D02*
X013091Y006356D01*
X013132Y006454D02*
X013168Y006454D01*
X012478Y006159D02*
X011822Y006159D01*
X011992Y006257D02*
X012308Y006257D01*
X012209Y006356D02*
X012091Y006356D01*
X012132Y006454D02*
X012168Y006454D01*
X011478Y006159D02*
X011427Y006159D01*
X011329Y006060D02*
X020000Y006060D01*
X020000Y006159D02*
X019820Y006159D01*
X019700Y006159D02*
X019600Y006159D01*
X019600Y006257D02*
X019700Y006257D01*
X019992Y006257D02*
X020000Y006257D01*
X019700Y006356D02*
X019600Y006356D01*
X019600Y006454D02*
X019700Y006454D01*
X019700Y006553D02*
X019600Y006553D01*
X019221Y006356D02*
X019091Y006356D01*
X019132Y006454D02*
X019167Y006454D01*
X019308Y006257D02*
X018992Y006257D01*
X018822Y006159D02*
X019480Y006159D01*
X019381Y005962D02*
X019281Y005962D01*
X019281Y005863D02*
X019381Y005863D01*
X019381Y005765D02*
X019281Y005765D01*
X019281Y005666D02*
X019381Y005666D01*
X019381Y005568D02*
X019281Y005568D01*
X019281Y005372D02*
X019381Y005372D01*
X019381Y004878D01*
X019281Y004878D02*
X019281Y005372D01*
X019281Y005371D02*
X019381Y005371D01*
X019381Y005272D02*
X019281Y005272D01*
X019281Y005174D02*
X019381Y005174D01*
X019381Y005075D02*
X019281Y005075D01*
X019281Y004977D02*
X019381Y004977D01*
X020000Y004681D02*
X018436Y004681D01*
X018477Y004583D02*
X020000Y004583D01*
X020000Y004484D02*
X018477Y004484D01*
X018450Y004386D02*
X020000Y004386D01*
X020000Y004287D02*
X018384Y004287D01*
X018505Y004189D02*
X017808Y004189D01*
X017808Y004287D02*
X017916Y004287D01*
X017850Y004386D02*
X017808Y004386D01*
X017823Y004484D02*
X017764Y004484D01*
X017823Y004583D02*
X016840Y004583D01*
X017166Y004484D02*
X017166Y004484D01*
X017166Y004386D02*
X017166Y004386D01*
X017166Y004287D02*
X017166Y004287D01*
X017116Y004878D02*
X017216Y004878D01*
X017216Y004977D02*
X017116Y004977D01*
X017116Y005075D02*
X017216Y005075D01*
X017216Y005174D02*
X017116Y005174D01*
X017116Y005272D02*
X017216Y005272D01*
X018805Y005962D02*
X011230Y005962D01*
X011084Y005863D02*
X010132Y005863D01*
X010199Y005765D02*
X010941Y005765D01*
X010523Y005666D02*
X010282Y005666D01*
X010315Y005568D02*
X010450Y005568D01*
X010425Y005469D02*
X010313Y005469D01*
X010272Y005371D02*
X010362Y005371D01*
X010263Y005272D02*
X010152Y005272D01*
X010100Y005174D02*
X010220Y005174D01*
X010220Y005075D02*
X010100Y005075D01*
X010100Y004977D02*
X010220Y004977D01*
X010220Y004878D02*
X010100Y004878D01*
X010100Y004780D02*
X010220Y004780D01*
X010220Y004681D02*
X010030Y004681D01*
X010044Y004583D02*
X010220Y004583D01*
X010220Y004484D02*
X010143Y004484D01*
X010133Y004494D02*
X010079Y004440D01*
X010079Y004440D01*
X010079Y004440D01*
X010133Y004494D01*
X010123Y004484D02*
X010123Y004484D01*
X010079Y004547D02*
X010079Y004547D01*
X010186Y004440D02*
X010186Y004440D01*
X009840Y004189D02*
X009817Y004189D01*
X009741Y004090D02*
X009479Y004090D01*
X009341Y004090D02*
X009033Y004090D01*
X008882Y003992D02*
X009188Y003992D01*
X009136Y003893D02*
X008260Y003893D01*
X008256Y003992D02*
X008738Y003992D01*
X008389Y003795D02*
X009125Y003795D01*
X009149Y003696D02*
X008431Y003696D01*
X008435Y003598D02*
X009219Y003598D01*
X009601Y003598D02*
X010333Y003598D01*
X010339Y003696D02*
X009885Y003696D01*
X009983Y003795D02*
X010241Y003795D01*
X010142Y003893D02*
X010082Y003893D01*
X010234Y003499D02*
X008664Y003499D01*
X008733Y003401D02*
X010136Y003401D01*
X010037Y003302D02*
X008755Y003302D01*
X008743Y003204D02*
X009939Y003204D01*
X009891Y003155D02*
X009891Y003155D01*
X009840Y003105D02*
X008688Y003105D01*
X008580Y003007D02*
X009742Y003007D01*
X009837Y003102D02*
X009891Y003048D01*
X009891Y003048D01*
X009891Y003048D01*
X009837Y003102D01*
X011717Y002416D02*
X011732Y002416D01*
X011708Y002317D02*
X012847Y002317D01*
X012847Y002219D02*
X011702Y002219D01*
X011717Y002120D02*
X011728Y002120D01*
X012448Y002416D02*
X012847Y002416D01*
X014757Y002908D02*
X014803Y002908D01*
X014803Y003007D02*
X014757Y003007D01*
X014746Y003105D02*
X014822Y003105D01*
X014806Y003204D02*
X014754Y003204D01*
X014757Y003302D02*
X014803Y003302D01*
X014803Y003401D02*
X014757Y003401D01*
X012945Y003992D02*
X012331Y003992D01*
X012331Y004090D02*
X012955Y004090D01*
X013005Y004189D02*
X012319Y004189D01*
X012044Y004386D02*
X011947Y004386D01*
X011947Y004484D02*
X012044Y004484D01*
X012044Y004583D02*
X011947Y004583D01*
X011947Y004681D02*
X011590Y004681D01*
X011629Y004720D02*
X011629Y004720D01*
X008292Y004090D02*
X008292Y004090D01*
X008270Y004112D02*
X008270Y004112D01*
X008081Y004301D02*
X008081Y004301D01*
X008081Y004301D01*
X008006Y004386D02*
X007983Y004386D01*
X007907Y004484D02*
X007885Y004484D01*
X007809Y004583D02*
X007786Y004583D01*
X007710Y004681D02*
X007688Y004681D01*
X007612Y004780D02*
X007304Y004780D01*
X007513Y004878D02*
X006921Y004878D01*
X006921Y004977D02*
X007415Y004977D01*
X007316Y005075D02*
X007231Y005075D01*
X007069Y005075D02*
X005051Y005075D01*
X005075Y005174D02*
X005412Y005174D01*
X005389Y005272D02*
X005065Y005272D01*
X005013Y005371D02*
X005389Y005371D01*
X005389Y005568D02*
X003910Y005568D01*
X004075Y005666D02*
X005389Y005666D01*
X005444Y005765D02*
X004100Y005765D01*
X004100Y005863D02*
X004908Y005863D01*
X003625Y005875D02*
X003200Y005875D01*
X003200Y005730D01*
X003210Y005692D01*
X003230Y005658D01*
X003258Y005630D01*
X003292Y005610D01*
X003330Y005600D01*
X003404Y005600D01*
X003365Y005507D01*
X003365Y005393D01*
X003408Y005289D01*
X003460Y005237D01*
X003460Y004900D01*
X002311Y004900D01*
X002200Y004789D01*
X002062Y004650D01*
X002012Y004700D01*
X001936Y004700D01*
X001975Y004793D01*
X001975Y004907D01*
X001932Y005011D01*
X001851Y005092D01*
X001747Y005135D01*
X001674Y005135D01*
X001340Y005469D01*
X002140Y005469D01*
X002140Y005443D02*
X002088Y005391D01*
X002045Y005287D01*
X002045Y005173D01*
X002088Y005069D01*
X002169Y004988D01*
X002273Y004945D01*
X002387Y004945D01*
X002491Y004988D01*
X002572Y005069D01*
X002615Y005173D01*
X002615Y005287D01*
X002572Y005391D01*
X002520Y005443D01*
X002520Y006141D01*
X002547Y006130D01*
X002753Y006130D01*
X002945Y006209D01*
X003091Y006355D01*
X003150Y006498D01*
X003209Y006355D01*
X003355Y006209D01*
X003378Y006200D01*
X003330Y006200D01*
X003292Y006190D01*
X003258Y006170D01*
X003230Y006142D01*
X003210Y006108D01*
X003200Y006070D01*
X003200Y005925D01*
X003625Y005925D01*
X003625Y005875D01*
X003200Y005863D02*
X002520Y005863D01*
X002520Y005962D02*
X003200Y005962D01*
X003200Y006060D02*
X002520Y006060D01*
X002822Y006159D02*
X003246Y006159D01*
X003308Y006257D02*
X002992Y006257D01*
X003091Y006356D02*
X003209Y006356D01*
X003168Y006454D02*
X003132Y006454D01*
X002140Y006151D02*
X002140Y005443D01*
X002080Y005371D02*
X001438Y005371D01*
X001340Y005469D02*
X001340Y005600D01*
X001625Y005600D01*
X001625Y005875D01*
X001675Y005875D01*
X001675Y005925D01*
X002100Y005925D01*
X002100Y006070D01*
X002090Y006108D01*
X002070Y006142D01*
X002042Y006170D01*
X002008Y006190D01*
X001970Y006200D01*
X001922Y006200D01*
X001945Y006209D01*
X002013Y006278D01*
X002140Y006151D01*
X002133Y006159D02*
X002054Y006159D01*
X002034Y006257D02*
X001992Y006257D01*
X002100Y006060D02*
X002140Y006060D01*
X002140Y005962D02*
X002100Y005962D01*
X002100Y005875D02*
X001675Y005875D01*
X001675Y005600D01*
X001970Y005600D01*
X002008Y005610D01*
X002042Y005630D01*
X002070Y005658D01*
X002090Y005692D01*
X002100Y005730D01*
X002100Y005875D01*
X002100Y005863D02*
X002140Y005863D01*
X002140Y005765D02*
X002100Y005765D01*
X002075Y005666D02*
X002140Y005666D01*
X002140Y005568D02*
X001340Y005568D01*
X001625Y005666D02*
X001675Y005666D01*
X001675Y005765D02*
X001625Y005765D01*
X001625Y005863D02*
X001675Y005863D01*
X002520Y005765D02*
X003200Y005765D01*
X003225Y005666D02*
X002520Y005666D01*
X002520Y005568D02*
X003390Y005568D01*
X003365Y005469D02*
X002520Y005469D01*
X002580Y005371D02*
X003374Y005371D01*
X003425Y005272D02*
X002615Y005272D01*
X002615Y005174D02*
X003460Y005174D01*
X003460Y005075D02*
X002574Y005075D01*
X002463Y004977D02*
X003460Y004977D01*
X002289Y004878D02*
X001975Y004878D01*
X001969Y004780D02*
X002191Y004780D01*
X002092Y004681D02*
X002031Y004681D01*
X001946Y004977D02*
X002197Y004977D01*
X002086Y005075D02*
X001868Y005075D01*
X002045Y005174D02*
X001635Y005174D01*
X001537Y005272D02*
X002045Y005272D01*
X005346Y004189D02*
X005425Y004189D01*
X005460Y004090D02*
X005346Y004090D01*
X005346Y003992D02*
X005545Y003992D01*
X005667Y003893D02*
X005764Y003893D01*
X005764Y003795D02*
X005667Y003795D01*
X005667Y003696D02*
X005764Y003696D01*
X005764Y003499D02*
X005667Y003499D01*
X005667Y003401D02*
X005764Y003401D01*
X005764Y003302D02*
X005667Y003302D01*
X004091Y003204D02*
X003877Y003204D01*
X004038Y003302D02*
X002351Y003302D01*
X002252Y003204D02*
X002510Y003204D01*
X002252Y003105D02*
X000910Y003105D01*
X000919Y003204D02*
X001148Y003204D01*
X001049Y003302D02*
X001037Y003302D01*
X001029Y003007D02*
X002160Y003007D01*
X002360Y002930D02*
X002410Y002930D01*
X002410Y002780D01*
X001660Y002780D01*
X001910Y002530D01*
X002410Y002530D01*
X002410Y002780D01*
X002360Y002830D02*
X002360Y002930D01*
X002807Y003007D02*
X002904Y003007D01*
X002904Y003105D02*
X002807Y003105D01*
X002807Y003204D02*
X002904Y003204D01*
X002904Y002810D02*
X002807Y002810D01*
X002807Y002711D02*
X002904Y002711D01*
X002904Y002613D02*
X002807Y002613D01*
X002610Y002514D02*
X003828Y002514D01*
X003906Y002416D02*
X002610Y002416D01*
X002410Y002530D02*
X002410Y002030D01*
X001410Y002030D01*
X001410Y002530D01*
X001660Y002780D01*
X001410Y002780D01*
X001410Y002530D01*
X001210Y002514D02*
X001157Y002514D01*
X001170Y002613D02*
X001210Y002613D01*
X001210Y002711D02*
X001170Y002711D01*
X001147Y002810D02*
X001210Y002810D01*
X001255Y002908D02*
X001106Y002908D01*
X001460Y002730D02*
X001510Y002730D01*
X001460Y002680D01*
X001810Y002730D02*
X001910Y002630D01*
X002360Y002630D01*
X002360Y002730D01*
X001910Y002730D01*
X001210Y002416D02*
X001116Y002416D01*
X001072Y002317D02*
X001210Y002317D01*
X001210Y002219D02*
X001170Y002219D01*
X001610Y002180D02*
X001610Y002330D01*
X001710Y002330D01*
X001710Y002180D01*
X001610Y002180D01*
X002110Y002180D02*
X002110Y002330D01*
X002210Y002330D01*
X002210Y002180D01*
X002110Y002180D01*
X002610Y002219D02*
X004127Y002219D01*
X004041Y002317D02*
X002610Y002317D01*
X002610Y002120D02*
X003941Y002120D01*
X003843Y002022D02*
X002610Y002022D01*
X002586Y001923D02*
X003802Y001923D01*
X004373Y002219D02*
X004850Y002219D01*
X004948Y002317D02*
X004459Y002317D01*
X004559Y002120D02*
X004751Y002120D01*
X004895Y001726D02*
X007475Y001726D01*
X007475Y001690D02*
X007572Y001690D01*
X007572Y001391D01*
X007760Y001391D01*
X007798Y001402D01*
X007832Y001421D01*
X007858Y001447D01*
X007914Y001391D01*
X008123Y001391D01*
X008071Y001340D01*
X007440Y001340D01*
X007440Y001355D01*
X007015Y001355D01*
X007015Y001405D01*
X007243Y001405D01*
X007249Y001402D01*
X007287Y001391D01*
X007475Y001391D01*
X007475Y001690D01*
X007475Y001628D02*
X007572Y001628D01*
X007572Y001529D02*
X007475Y001529D01*
X007475Y001431D02*
X007572Y001431D01*
X007841Y001431D02*
X007875Y001431D01*
X007015Y001431D02*
X006965Y001431D01*
X006965Y001355D02*
X007015Y001355D01*
X007015Y001080D01*
X007071Y001080D01*
X007013Y001022D01*
X006955Y001080D01*
X006965Y001080D01*
X006965Y001355D01*
X006965Y001332D02*
X007015Y001332D01*
X007015Y001234D02*
X006965Y001234D01*
X006965Y001135D02*
X007015Y001135D01*
X007028Y001037D02*
X006999Y001037D01*
X006540Y001234D02*
X005440Y001234D01*
X005440Y001210D02*
X005440Y001355D01*
X005015Y001355D01*
X005015Y001405D01*
X004965Y001405D01*
X004965Y001355D01*
X005015Y001355D01*
X005015Y001080D01*
X005310Y001080D01*
X005348Y001090D01*
X005382Y001110D01*
X005410Y001138D01*
X005430Y001172D01*
X005440Y001210D01*
X005462Y001135D02*
X005407Y001135D01*
X005301Y001037D02*
X004999Y001037D01*
X005015Y001135D02*
X004965Y001135D01*
X004965Y001234D02*
X005015Y001234D01*
X005015Y001332D02*
X004965Y001332D01*
X005015Y001405D02*
X005440Y001405D01*
X005440Y001550D01*
X005430Y001588D01*
X005410Y001622D01*
X005382Y001650D01*
X005348Y001670D01*
X005310Y001680D01*
X005015Y001680D01*
X005015Y001405D01*
X005015Y001431D02*
X004965Y001431D01*
X004965Y001529D02*
X005015Y001529D01*
X005015Y001628D02*
X004965Y001628D01*
X005405Y001628D02*
X006575Y001628D01*
X006540Y001529D02*
X005440Y001529D01*
X005440Y001431D02*
X006540Y001431D01*
X006540Y001332D02*
X005440Y001332D01*
X005838Y001135D02*
X006462Y001135D01*
X006301Y001037D02*
X005999Y001037D01*
X006094Y000938D02*
X006206Y000938D01*
X006166Y000840D02*
X006134Y000840D01*
X005206Y000938D02*
X005094Y000938D01*
X005134Y000840D02*
X005166Y000840D01*
X004462Y001135D02*
X003838Y001135D01*
X003834Y001234D02*
X004540Y001234D01*
X004540Y001332D02*
X004495Y001332D01*
X004005Y001332D02*
X003891Y001332D01*
X003462Y001135D02*
X002838Y001135D01*
X002807Y001234D02*
X002904Y001234D01*
X003164Y001234D02*
X003216Y001234D01*
X003301Y001037D02*
X002999Y001037D01*
X003094Y000938D02*
X003206Y000938D01*
X003166Y000840D02*
X003134Y000840D01*
X002462Y001135D02*
X001838Y001135D01*
X001999Y001037D02*
X002301Y001037D01*
X002206Y000938D02*
X002094Y000938D01*
X002134Y000840D02*
X002166Y000840D01*
X001462Y001135D02*
X000838Y001135D01*
X000969Y001234D02*
X002546Y001234D01*
X002489Y001332D02*
X001067Y001332D01*
X001122Y001431D02*
X001146Y001431D01*
X001554Y001431D02*
X002489Y001431D01*
X002807Y001431D02*
X002904Y001431D01*
X002904Y001332D02*
X002807Y001332D01*
X002807Y001529D02*
X001617Y001529D01*
X001635Y001628D02*
X002489Y001628D01*
X002489Y001598D02*
X002807Y001598D01*
X002807Y001897D01*
X002619Y001897D01*
X002581Y001887D01*
X002547Y001867D01*
X002519Y001839D01*
X002499Y001805D01*
X002489Y001767D01*
X002489Y001598D01*
X002807Y001628D02*
X002904Y001628D01*
X002904Y001726D02*
X002807Y001726D01*
X002807Y001825D02*
X002904Y001825D01*
X002510Y001825D02*
X001559Y001825D01*
X001619Y001726D02*
X002489Y001726D01*
X001301Y001037D02*
X000999Y001037D01*
X001094Y000938D02*
X001206Y000938D01*
X001166Y000840D02*
X001134Y000840D01*
X003999Y001037D02*
X004301Y001037D01*
X004206Y000938D02*
X004094Y000938D01*
X004134Y000840D02*
X004166Y000840D01*
X006965Y001529D02*
X007015Y001529D01*
X007015Y001628D02*
X006965Y001628D01*
X003217Y002613D02*
X003163Y002613D01*
X003951Y003401D02*
X004009Y003401D01*
X004009Y003499D02*
X003951Y003499D01*
X005346Y003915D02*
X005346Y003915D01*
X005367Y003893D02*
X005393Y003893D01*
X006774Y005174D02*
X006923Y005174D01*
X017808Y003696D02*
X018607Y003696D01*
X018773Y003696D02*
X020000Y003696D01*
X020000Y003598D02*
X019797Y003598D01*
X019503Y003598D02*
X018297Y003598D01*
X018003Y003598D02*
X017808Y003598D01*
X017808Y003499D02*
X017903Y003499D01*
X017865Y003401D02*
X017808Y003401D01*
X018303Y003105D02*
X019497Y003105D01*
X019803Y003105D02*
X020000Y003105D01*
X020000Y003007D02*
X018390Y003007D01*
X018453Y002908D02*
X020000Y002908D01*
X020000Y002810D02*
X018477Y002810D01*
X018474Y002711D02*
X020000Y002711D01*
X020000Y002613D02*
X018433Y002613D01*
X018343Y002514D02*
X020000Y002514D01*
X020000Y002416D02*
X019867Y002416D01*
X019966Y002317D02*
X020000Y002317D01*
X020000Y002219D02*
X019973Y002219D01*
X019973Y002120D02*
X020000Y002120D01*
X020000Y002022D02*
X019973Y002022D01*
X019381Y002120D02*
X019281Y002120D01*
X019281Y002219D02*
X019381Y002219D01*
X019381Y002317D02*
X019281Y002317D01*
X019281Y002416D02*
X019381Y002416D01*
X019381Y001825D02*
X019281Y001825D01*
X019281Y001726D02*
X019381Y001726D01*
X019381Y001628D02*
X019281Y001628D01*
X019281Y001529D02*
X019381Y001529D01*
X019381Y001431D02*
X019281Y001431D01*
X019460Y001135D02*
X018838Y001135D01*
X018999Y001037D02*
X019301Y001037D01*
X019600Y001037D02*
X019700Y001037D01*
X019700Y001135D02*
X019600Y001135D01*
X019840Y001135D02*
X020000Y001135D01*
X019999Y001037D02*
X020000Y001037D01*
X020000Y001234D02*
X013335Y001234D01*
X013434Y001135D02*
X013462Y001135D01*
X013838Y001135D02*
X014462Y001135D01*
X014301Y001037D02*
X013999Y001037D01*
X014094Y000938D02*
X014206Y000938D01*
X014166Y000840D02*
X014134Y000840D01*
X014838Y001135D02*
X015462Y001135D01*
X015301Y001037D02*
X014999Y001037D01*
X015094Y000938D02*
X015206Y000938D01*
X015166Y000840D02*
X015134Y000840D01*
X015838Y001135D02*
X016460Y001135D01*
X016600Y001135D02*
X016700Y001135D01*
X016700Y001037D02*
X016600Y001037D01*
X016840Y001135D02*
X017462Y001135D01*
X017301Y001037D02*
X016999Y001037D01*
X017084Y000938D02*
X017206Y000938D01*
X017166Y000840D02*
X017135Y000840D01*
X016700Y000840D02*
X016600Y000840D01*
X016600Y000938D02*
X016700Y000938D01*
X016700Y000741D02*
X016600Y000741D01*
X016216Y000938D02*
X016094Y000938D01*
X016134Y000840D02*
X016165Y000840D01*
X016301Y001037D02*
X015999Y001037D01*
X017838Y001135D02*
X018462Y001135D01*
X018301Y001037D02*
X017999Y001037D01*
X018094Y000938D02*
X018206Y000938D01*
X018166Y000840D02*
X018134Y000840D01*
X019094Y000938D02*
X019216Y000938D01*
X019165Y000840D02*
X019134Y000840D01*
X019600Y000840D02*
X019700Y000840D01*
X019700Y000938D02*
X019600Y000938D01*
X019600Y000741D02*
X019700Y000741D01*
X019898Y003204D02*
X020000Y003204D01*
X020000Y003302D02*
X019935Y003302D01*
X019935Y003401D02*
X020000Y003401D01*
X020000Y003499D02*
X019897Y003499D01*
X020000Y003795D02*
X018918Y003795D01*
X018967Y003893D02*
X020000Y003893D01*
X020000Y003992D02*
X018975Y003992D01*
X018949Y004090D02*
X020000Y004090D01*
X020000Y004189D02*
X018875Y004189D01*
X019973Y005568D02*
X020000Y005568D01*
X020000Y005666D02*
X019973Y005666D01*
X019973Y005765D02*
X020000Y005765D01*
X020000Y005863D02*
X019966Y005863D01*
X020000Y005962D02*
X019857Y005962D01*
D18*
X004250Y002750D03*
X004250Y001750D03*
D19*
X000650Y000650D03*
X001650Y000650D03*
X002650Y000650D03*
X003650Y000650D03*
X004650Y000650D03*
X005650Y000650D03*
X006650Y000650D03*
X007650Y000650D03*
X008650Y000650D03*
X009650Y000650D03*
X010650Y000650D03*
X011650Y000650D03*
X012650Y000650D03*
X013650Y000650D03*
X014650Y000650D03*
X015650Y000650D03*
X016650Y000650D03*
X017650Y000650D03*
X018650Y000650D03*
X019650Y000650D03*
X019650Y006650D03*
X018650Y006650D03*
X017650Y006650D03*
X016650Y006650D03*
X015650Y006650D03*
X014650Y006650D03*
X013650Y006650D03*
X012650Y006650D03*
X011650Y006650D03*
X010650Y006650D03*
X009650Y006650D03*
X008650Y006650D03*
X007650Y006650D03*
X006650Y006650D03*
X005650Y006650D03*
X004650Y006650D03*
X003650Y006650D03*
X002650Y006650D03*
X001650Y006650D03*
X000650Y006650D03*
X000650Y005650D03*
X000650Y004650D03*
X000650Y003650D03*
X000650Y002650D03*
X000650Y001650D03*
D20*
X013870Y004060D03*
X013870Y005240D03*
D21*
X013970Y004650D03*
D22*
X014725Y004650D02*
X015315Y004650D01*
D23*
G36*
X010681Y003733D02*
X010764Y003650D01*
X010681Y003567D01*
X010598Y003650D01*
X010681Y003733D01*
G37*
G36*
X010542Y003872D02*
X010625Y003789D01*
X010542Y003706D01*
X010459Y003789D01*
X010542Y003872D01*
G37*
G36*
X010403Y004011D02*
X010486Y003928D01*
X010403Y003845D01*
X010320Y003928D01*
X010403Y004011D01*
G37*
G36*
X010264Y004151D02*
X010347Y004068D01*
X010264Y003985D01*
X010181Y004068D01*
X010264Y004151D01*
G37*
G36*
X010124Y004290D02*
X010207Y004207D01*
X010124Y004124D01*
X010041Y004207D01*
X010124Y004290D01*
G37*
G36*
X009985Y004429D02*
X010068Y004346D01*
X009985Y004263D01*
X009902Y004346D01*
X009985Y004429D01*
G37*
G36*
X009846Y004568D02*
X009929Y004485D01*
X009846Y004402D01*
X009763Y004485D01*
X009846Y004568D01*
G37*
G36*
X009707Y004707D02*
X009790Y004624D01*
X009707Y004541D01*
X009624Y004624D01*
X009707Y004707D01*
G37*
G36*
X009568Y004847D02*
X009651Y004764D01*
X009568Y004681D01*
X009485Y004764D01*
X009568Y004847D01*
G37*
G36*
X009428Y004986D02*
X009511Y004903D01*
X009428Y004820D01*
X009345Y004903D01*
X009428Y004986D01*
G37*
G36*
X009289Y005125D02*
X009372Y005042D01*
X009289Y004959D01*
X009206Y005042D01*
X009289Y005125D01*
G37*
G36*
X009150Y005264D02*
X009233Y005181D01*
X009150Y005098D01*
X009067Y005181D01*
X009150Y005264D01*
G37*
G36*
X009011Y005125D02*
X009094Y005042D01*
X009011Y004959D01*
X008928Y005042D01*
X009011Y005125D01*
G37*
G36*
X008872Y004986D02*
X008955Y004903D01*
X008872Y004820D01*
X008789Y004903D01*
X008872Y004986D01*
G37*
G36*
X008732Y004847D02*
X008815Y004764D01*
X008732Y004681D01*
X008649Y004764D01*
X008732Y004847D01*
G37*
G36*
X008593Y004707D02*
X008676Y004624D01*
X008593Y004541D01*
X008510Y004624D01*
X008593Y004707D01*
G37*
G36*
X008454Y004568D02*
X008537Y004485D01*
X008454Y004402D01*
X008371Y004485D01*
X008454Y004568D01*
G37*
G36*
X008315Y004429D02*
X008398Y004346D01*
X008315Y004263D01*
X008232Y004346D01*
X008315Y004429D01*
G37*
G36*
X008176Y004290D02*
X008259Y004207D01*
X008176Y004124D01*
X008093Y004207D01*
X008176Y004290D01*
G37*
G36*
X008036Y004151D02*
X008119Y004068D01*
X008036Y003985D01*
X007953Y004068D01*
X008036Y004151D01*
G37*
G36*
X007897Y004011D02*
X007980Y003928D01*
X007897Y003845D01*
X007814Y003928D01*
X007897Y004011D01*
G37*
G36*
X007758Y003872D02*
X007841Y003789D01*
X007758Y003706D01*
X007675Y003789D01*
X007758Y003872D01*
G37*
G36*
X007619Y003733D02*
X007702Y003650D01*
X007619Y003567D01*
X007536Y003650D01*
X007619Y003733D01*
G37*
G36*
X007758Y003594D02*
X007841Y003511D01*
X007758Y003428D01*
X007675Y003511D01*
X007758Y003594D01*
G37*
G36*
X007897Y003455D02*
X007980Y003372D01*
X007897Y003289D01*
X007814Y003372D01*
X007897Y003455D01*
G37*
G36*
X008036Y003315D02*
X008119Y003232D01*
X008036Y003149D01*
X007953Y003232D01*
X008036Y003315D01*
G37*
G36*
X008176Y003176D02*
X008259Y003093D01*
X008176Y003010D01*
X008093Y003093D01*
X008176Y003176D01*
G37*
G36*
X008315Y003037D02*
X008398Y002954D01*
X008315Y002871D01*
X008232Y002954D01*
X008315Y003037D01*
G37*
G36*
X008454Y002898D02*
X008537Y002815D01*
X008454Y002732D01*
X008371Y002815D01*
X008454Y002898D01*
G37*
G36*
X008593Y002759D02*
X008676Y002676D01*
X008593Y002593D01*
X008510Y002676D01*
X008593Y002759D01*
G37*
G36*
X008732Y002619D02*
X008815Y002536D01*
X008732Y002453D01*
X008649Y002536D01*
X008732Y002619D01*
G37*
G36*
X008872Y002480D02*
X008955Y002397D01*
X008872Y002314D01*
X008789Y002397D01*
X008872Y002480D01*
G37*
G36*
X009011Y002341D02*
X009094Y002258D01*
X009011Y002175D01*
X008928Y002258D01*
X009011Y002341D01*
G37*
G36*
X009289Y002341D02*
X009372Y002258D01*
X009289Y002175D01*
X009206Y002258D01*
X009289Y002341D01*
G37*
G36*
X009428Y002480D02*
X009511Y002397D01*
X009428Y002314D01*
X009345Y002397D01*
X009428Y002480D01*
G37*
G36*
X009568Y002619D02*
X009651Y002536D01*
X009568Y002453D01*
X009485Y002536D01*
X009568Y002619D01*
G37*
G36*
X009707Y002759D02*
X009790Y002676D01*
X009707Y002593D01*
X009624Y002676D01*
X009707Y002759D01*
G37*
G36*
X009846Y002898D02*
X009929Y002815D01*
X009846Y002732D01*
X009763Y002815D01*
X009846Y002898D01*
G37*
G36*
X009985Y003037D02*
X010068Y002954D01*
X009985Y002871D01*
X009902Y002954D01*
X009985Y003037D01*
G37*
G36*
X010124Y003176D02*
X010207Y003093D01*
X010124Y003010D01*
X010041Y003093D01*
X010124Y003176D01*
G37*
G36*
X010264Y003315D02*
X010347Y003232D01*
X010264Y003149D01*
X010181Y003232D01*
X010264Y003315D01*
G37*
G36*
X010403Y003455D02*
X010486Y003372D01*
X010403Y003289D01*
X010320Y003372D01*
X010403Y003455D01*
G37*
G36*
X010542Y003594D02*
X010625Y003511D01*
X010542Y003428D01*
X010459Y003511D01*
X010542Y003594D01*
G37*
G36*
X009150Y002202D02*
X009233Y002119D01*
X009150Y002036D01*
X009067Y002119D01*
X009150Y002202D01*
G37*
D24*
X012090Y001807D03*
X012090Y002733D03*
D25*
X012087Y002730D01*
X011730Y002730D01*
X011605Y002605D01*
X011370Y002605D01*
X011365Y002610D01*
X011030Y002610D01*
X010790Y002850D01*
X010370Y002850D01*
X010127Y003093D01*
X010124Y003093D01*
X009986Y002954D02*
X010990Y001950D01*
X010990Y001930D01*
X010590Y001490D02*
X010190Y001890D01*
X010190Y002470D01*
X009846Y002814D01*
X009846Y002815D01*
X009985Y002954D02*
X009985Y002955D01*
X009530Y003410D01*
X010264Y003232D02*
X010268Y003232D01*
X010450Y003050D01*
X011470Y003050D01*
X011610Y003190D01*
X011450Y003530D02*
X011130Y003210D01*
X010570Y003210D01*
X010408Y003372D01*
X010403Y003372D01*
X010549Y003511D02*
X010650Y003410D01*
X011045Y003410D01*
X011295Y003661D01*
X011295Y003930D01*
X011295Y004215D01*
X011490Y004410D01*
X011550Y004910D02*
X010890Y004250D01*
X010890Y003870D01*
X010930Y003830D01*
X010930Y003650D01*
X010876Y003650D01*
X010876Y003650D01*
X010832Y003694D01*
X010876Y003650D02*
X010876Y003650D01*
X010834Y003608D01*
X010681Y003650D02*
X010681Y003661D01*
X010890Y003870D01*
X010730Y003970D02*
X010730Y004550D01*
X010970Y004790D01*
X010970Y004930D01*
X011470Y005430D01*
X011970Y005430D01*
X012030Y005370D01*
X012030Y005155D01*
X012035Y005150D01*
X011550Y005090D02*
X011550Y004910D01*
X011170Y005450D02*
X010570Y004850D01*
X010570Y004090D01*
X010403Y003923D01*
X010403Y003928D01*
X010542Y003782D02*
X010730Y003970D01*
X010410Y004210D02*
X010268Y004068D01*
X010264Y004068D01*
X010124Y004204D02*
X009730Y003810D01*
X009410Y003810D01*
X009270Y004150D02*
X008810Y003690D01*
X008390Y004110D01*
X008270Y004110D01*
X008173Y004207D01*
X007690Y004690D01*
X007490Y004690D01*
X007290Y004890D01*
X006970Y004890D01*
X007090Y004590D02*
X007170Y004510D01*
X007590Y004510D01*
X008032Y004068D01*
X008036Y004068D01*
X007897Y003943D02*
X007550Y004290D01*
X006457Y004290D01*
X006457Y004370D01*
X006377Y004450D01*
X006330Y004403D01*
X006330Y004370D01*
X006190Y004230D01*
X005710Y004230D01*
X006377Y004450D02*
X006377Y003597D01*
X006385Y003590D01*
X006830Y003610D02*
X006830Y003010D01*
X006960Y002880D01*
X006990Y002880D01*
X007290Y002450D02*
X007450Y002610D01*
X007450Y003210D01*
X007751Y003511D01*
X007758Y003511D01*
X007758Y003518D01*
X007619Y003639D02*
X007410Y003430D01*
X007250Y003430D01*
X007250Y003570D01*
X007330Y003650D01*
X007424Y003650D01*
X007424Y003650D01*
X007466Y003692D01*
X007424Y003650D02*
X007424Y003650D01*
X007466Y003608D01*
X007619Y003639D02*
X007619Y003650D01*
X007751Y003789D02*
X007530Y004010D01*
X007110Y004010D01*
X007110Y003890D01*
X006830Y003610D01*
X007130Y003310D02*
X007250Y003430D01*
X007892Y003372D02*
X007897Y003372D01*
X007897Y003377D01*
X008150Y003630D01*
X007758Y003789D02*
X007751Y003789D01*
X007897Y003928D02*
X007897Y003943D01*
X008173Y004207D02*
X008176Y004207D01*
X008314Y004346D02*
X008410Y004250D01*
X008790Y004250D01*
X008810Y004270D01*
X008870Y004330D01*
X009690Y004330D01*
X009845Y004485D01*
X009846Y004485D01*
X009985Y004346D02*
X009986Y004346D01*
X009770Y004130D01*
X009290Y004130D01*
X009270Y004150D01*
X009986Y004346D02*
X010150Y004510D01*
X009910Y004830D02*
X009707Y004627D01*
X009707Y004624D01*
X009704Y004624D01*
X009568Y004764D02*
X009568Y004768D01*
X009730Y004930D01*
X009730Y005730D01*
X010150Y006150D01*
X011150Y006150D01*
X011650Y006650D01*
X010650Y006650D02*
X010390Y006650D01*
X009550Y005810D01*
X009550Y005030D01*
X009428Y004908D01*
X009428Y004903D01*
X009289Y005049D02*
X009210Y004970D01*
X009210Y004750D01*
X009150Y004690D01*
X008732Y004764D02*
X008732Y004768D01*
X007530Y005970D01*
X007070Y005970D01*
X006890Y006150D01*
X006150Y006150D01*
X005650Y006650D01*
X005150Y006150D02*
X004650Y006650D01*
X004150Y006150D02*
X003650Y006650D01*
X002330Y006230D02*
X001910Y006650D01*
X001650Y006650D01*
X001150Y006150D02*
X000650Y006650D01*
X001150Y006150D02*
X001150Y005390D01*
X001690Y004850D01*
X001150Y004890D02*
X001150Y004550D01*
X001290Y004410D01*
X001640Y004410D01*
X001650Y004400D01*
X001650Y003665D01*
X001635Y003650D01*
X002170Y003550D02*
X002250Y003630D01*
X002285Y003630D01*
X002305Y003650D01*
X002915Y003650D01*
X002305Y003650D02*
X002290Y003635D01*
X002170Y003550D02*
X002170Y003390D01*
X002090Y003310D01*
X001310Y003310D01*
X001150Y003470D01*
X001150Y003930D01*
X000650Y004430D01*
X000650Y004650D01*
X001150Y004890D02*
X000650Y005390D01*
X000650Y005650D01*
X002330Y005230D02*
X002330Y006230D01*
X004150Y006150D02*
X004890Y006150D01*
X005070Y005970D01*
X005810Y005970D01*
X005990Y005790D01*
X006730Y005790D01*
X006910Y005610D01*
X007350Y005610D01*
X008454Y004506D01*
X008454Y004485D01*
X008315Y004346D02*
X008314Y004346D01*
X007310Y005350D01*
X007150Y005350D01*
X007050Y005450D01*
X006425Y005450D01*
X006810Y005970D02*
X006990Y005790D01*
X007430Y005790D01*
X008593Y004627D01*
X008593Y004624D01*
X008315Y004345D02*
X008315Y004346D01*
X008872Y004903D02*
X008872Y004908D01*
X007630Y006150D01*
X007150Y006150D01*
X006650Y006650D01*
X007650Y006650D02*
X007650Y006410D01*
X009011Y005049D01*
X009011Y005042D01*
X009139Y005181D02*
X008990Y005330D01*
X008990Y005490D01*
X009070Y005570D01*
X009150Y005490D01*
X009150Y005377D01*
X009192Y005334D01*
X009150Y005377D02*
X009109Y005335D01*
X009139Y005181D02*
X009150Y005181D01*
X009289Y005049D02*
X009390Y005150D01*
X009390Y006390D01*
X009650Y006650D01*
X009150Y006150D02*
X008650Y006650D01*
X009150Y006150D02*
X009150Y005650D01*
X009070Y005570D01*
X009910Y005410D02*
X010030Y005530D01*
X009910Y005410D02*
X009910Y004830D01*
X009289Y005042D02*
X009289Y005049D01*
X010410Y005150D02*
X010710Y005450D01*
X011170Y005450D02*
X011170Y005590D01*
X010410Y005150D02*
X010410Y004210D01*
X010124Y004204D02*
X010124Y004207D01*
X010542Y003789D02*
X010542Y003782D01*
X010542Y003511D02*
X010549Y003511D01*
X011450Y003530D02*
X011930Y003530D01*
X012090Y003370D01*
X013150Y003485D02*
X013150Y003930D01*
X013230Y004010D01*
X013270Y004050D01*
X013750Y003940D02*
X013870Y004060D01*
X014265Y004075D02*
X016574Y004075D01*
X016574Y004105D02*
X016574Y003825D01*
X016591Y003807D01*
X016574Y003790D01*
X016012Y003790D01*
X015930Y003708D01*
X015930Y003708D01*
X015872Y003650D01*
X015487Y003650D01*
X015487Y003720D01*
X015477Y003755D01*
X015459Y003787D01*
X015433Y003813D01*
X015401Y003832D01*
X015365Y003841D01*
X015190Y003841D01*
X015190Y003650D01*
X015110Y003650D01*
X015110Y003841D01*
X014935Y003841D01*
X014899Y003832D01*
X014867Y003813D01*
X014841Y003787D01*
X014823Y003755D01*
X014813Y003720D01*
X014813Y003650D01*
X014707Y003650D01*
X014707Y003743D01*
X014648Y003801D01*
X014245Y003801D01*
X014265Y003822D01*
X014265Y004298D01*
X014250Y004313D01*
X014261Y004313D01*
X014288Y004277D01*
X014351Y004213D01*
X014424Y004160D01*
X014505Y004119D01*
X014591Y004091D01*
X014680Y004077D01*
X014980Y004077D01*
X014980Y004610D01*
X014152Y004610D01*
X014150Y004610D01*
X014150Y004690D01*
X014980Y004690D01*
X014980Y004610D01*
X015060Y004610D01*
X015060Y004077D01*
X015360Y004077D01*
X015450Y004091D01*
X015535Y004119D01*
X015616Y004160D01*
X015689Y004213D01*
X015752Y004277D01*
X015805Y004350D01*
X015846Y004430D01*
X015874Y004516D01*
X015888Y004605D01*
X015888Y004610D01*
X015060Y004610D01*
X015060Y004690D01*
X014980Y004690D01*
X014980Y005223D01*
X014680Y005223D01*
X014591Y005209D01*
X014505Y005181D01*
X014424Y005140D01*
X014351Y005087D01*
X014288Y005023D01*
X014261Y004987D01*
X014250Y004987D01*
X014265Y005002D01*
X014265Y005478D01*
X014207Y005537D01*
X014150Y005537D01*
X014150Y005650D01*
X016574Y005650D01*
X016574Y004947D01*
X016632Y004889D01*
X016650Y004889D01*
X016650Y004478D01*
X016632Y004478D01*
X016574Y004420D01*
X016574Y004140D01*
X016591Y004122D01*
X016574Y004105D01*
X016574Y004154D02*
X015603Y004154D01*
X015708Y004232D02*
X016574Y004232D01*
X016574Y004311D02*
X015777Y004311D01*
X015826Y004389D02*
X016574Y004389D01*
X016621Y004468D02*
X015859Y004468D01*
X015879Y004546D02*
X016650Y004546D01*
X016650Y004625D02*
X015060Y004625D01*
X015060Y004690D02*
X015888Y004690D01*
X015888Y004695D01*
X015874Y004784D01*
X015846Y004870D01*
X015805Y004950D01*
X015752Y005023D01*
X015689Y005087D01*
X015616Y005140D01*
X015535Y005181D01*
X015450Y005209D01*
X015360Y005223D01*
X015060Y005223D01*
X015060Y004690D01*
X015060Y004703D02*
X014980Y004703D01*
X014980Y004625D02*
X014150Y004625D01*
X014253Y004311D02*
X014263Y004311D01*
X014265Y004232D02*
X014332Y004232D01*
X014265Y004154D02*
X014437Y004154D01*
X014265Y003997D02*
X016574Y003997D01*
X016574Y003918D02*
X014265Y003918D01*
X014265Y003840D02*
X014928Y003840D01*
X014826Y003761D02*
X014688Y003761D01*
X014707Y003683D02*
X014813Y003683D01*
X015110Y003683D02*
X015190Y003683D01*
X015190Y003761D02*
X015110Y003761D01*
X015110Y003840D02*
X015190Y003840D01*
X015372Y003840D02*
X016574Y003840D01*
X016070Y003650D02*
X017166Y003650D01*
X017166Y003965D02*
X018685Y003965D01*
X018690Y003970D01*
X017166Y003335D02*
X017161Y003330D01*
X016230Y003330D01*
X016230Y001730D01*
X016150Y001650D01*
X015890Y001890D02*
X015650Y001650D01*
X015890Y001890D02*
X015890Y002870D01*
X015890Y003470D01*
X016070Y003650D01*
X015983Y003761D02*
X015474Y003761D01*
X015487Y003683D02*
X015905Y003683D01*
X015060Y004154D02*
X014980Y004154D01*
X014980Y004232D02*
X015060Y004232D01*
X015060Y004311D02*
X014980Y004311D01*
X014980Y004389D02*
X015060Y004389D01*
X015060Y004468D02*
X014980Y004468D01*
X014980Y004546D02*
X015060Y004546D01*
X015060Y004782D02*
X014980Y004782D01*
X014980Y004860D02*
X015060Y004860D01*
X015060Y004939D02*
X014980Y004939D01*
X014980Y005017D02*
X015060Y005017D01*
X015060Y005096D02*
X014980Y005096D01*
X014980Y005174D02*
X015060Y005174D01*
X015549Y005174D02*
X016574Y005174D01*
X016574Y005096D02*
X015677Y005096D01*
X015757Y005017D02*
X016574Y005017D01*
X016582Y004939D02*
X015812Y004939D01*
X015850Y004860D02*
X016650Y004860D01*
X016650Y004782D02*
X015875Y004782D01*
X015887Y004703D02*
X016650Y004703D01*
X016574Y005253D02*
X014265Y005253D01*
X014265Y005174D02*
X014491Y005174D01*
X014363Y005096D02*
X014265Y005096D01*
X014265Y005017D02*
X014283Y005017D01*
X014265Y005331D02*
X016574Y005331D01*
X016574Y005410D02*
X014265Y005410D01*
X014256Y005488D02*
X016574Y005488D01*
X016574Y005567D02*
X014150Y005567D01*
X014150Y005645D02*
X016574Y005645D01*
X012625Y005150D02*
X012625Y004689D01*
X012665Y004650D01*
X013750Y003485D02*
X014410Y003485D01*
X014410Y002815D02*
X014410Y001650D01*
X013650Y000650D02*
X013150Y001150D01*
X012410Y001150D01*
X012230Y001330D01*
X011490Y001330D01*
X011330Y001490D01*
X010590Y001490D01*
X010510Y001310D02*
X011250Y001310D01*
X011410Y001150D01*
X012150Y001150D01*
X012650Y000650D01*
X011650Y000650D02*
X011150Y001150D01*
X010410Y001150D01*
X009830Y001730D01*
X009830Y002270D01*
X009568Y002532D01*
X009568Y002536D01*
X009707Y002673D02*
X010010Y002370D01*
X010010Y001810D01*
X010510Y001310D01*
X010650Y000650D02*
X009650Y001650D01*
X009650Y002170D01*
X009428Y002392D01*
X009428Y002397D01*
X009289Y002258D02*
X009289Y002251D01*
X009470Y002070D01*
X009470Y000830D01*
X009650Y000650D01*
X009290Y001290D02*
X008650Y000650D01*
X008410Y001150D02*
X007910Y000650D01*
X007650Y000650D01*
X007410Y001150D02*
X006910Y000650D01*
X006650Y000650D01*
X007410Y001150D02*
X008150Y001150D01*
X008330Y001330D01*
X008550Y001330D01*
X008650Y001430D01*
X008650Y002450D01*
X008732Y002532D01*
X008732Y002536D01*
X008593Y002673D02*
X008470Y002550D01*
X008470Y002310D01*
X008330Y002170D01*
X008190Y002030D01*
X008190Y001741D01*
X008193Y001738D01*
X008670Y001150D02*
X008930Y001410D01*
X008930Y002170D01*
X009011Y002251D01*
X009011Y002258D01*
X009150Y002119D02*
X009161Y002119D01*
X009290Y001990D01*
X009290Y001830D01*
X009150Y001830D01*
X009150Y001924D01*
X009192Y001966D01*
X009150Y001924D02*
X009108Y001966D01*
X009290Y001830D02*
X009290Y001290D01*
X008670Y001150D02*
X008410Y001150D01*
X006190Y002450D02*
X005870Y002130D01*
X005030Y002130D01*
X004650Y001750D01*
X004250Y001750D01*
X004090Y001750D01*
X003890Y001550D01*
X003525Y001550D01*
X001350Y001630D02*
X001350Y001770D01*
X000650Y002470D01*
X000650Y002650D01*
X001110Y003190D02*
X000650Y003650D01*
X001650Y004400D02*
X002080Y004400D01*
X002390Y004710D01*
X003650Y004710D01*
X003650Y004400D01*
X003650Y005450D01*
X004790Y005190D02*
X004790Y004437D01*
X004803Y004450D01*
X005045Y004208D01*
X005045Y003590D01*
X003585Y003650D02*
X003570Y003665D01*
X003570Y003930D01*
X003470Y004030D01*
X003170Y004030D01*
X002970Y004230D01*
X004790Y004430D02*
X004790Y004437D01*
X007850Y003050D02*
X008032Y003232D01*
X008036Y003232D01*
X008173Y003093D02*
X007750Y002670D01*
X007750Y002590D01*
X008230Y002590D02*
X008454Y002814D01*
X008454Y002815D01*
X008455Y002815D01*
X008610Y002970D01*
X008390Y003030D02*
X008390Y003210D01*
X008470Y003290D01*
X008176Y003096D02*
X008176Y003093D01*
X008173Y003093D01*
X008315Y002955D02*
X008390Y003030D01*
X008315Y002955D02*
X008315Y002954D01*
X008314Y002954D01*
X007850Y003050D02*
X007730Y003050D01*
X008593Y002676D02*
X008593Y002673D01*
X008877Y002397D02*
X009150Y002670D01*
X009707Y002673D02*
X009707Y002676D01*
X009985Y002954D02*
X009986Y002954D01*
X008877Y002397D02*
X008872Y002397D01*
X007290Y002450D02*
X006190Y002450D01*
X004250Y002750D02*
X004050Y002750D01*
X003870Y002930D01*
X003525Y002930D01*
X006070Y005970D02*
X005890Y006150D01*
X005150Y006150D01*
X006070Y005970D02*
X006810Y005970D01*
X013150Y002815D02*
X013150Y002295D01*
X013155Y002290D01*
X012090Y001807D02*
X012087Y001810D01*
D26*
X011750Y001810D01*
X011630Y001930D01*
X010990Y001930D01*
X013750Y003485D02*
X013750Y003940D01*
X013860Y004050D02*
X013270Y004050D01*
X013860Y004050D02*
X013870Y004060D01*
X017166Y003020D02*
X017820Y003020D01*
X018150Y003350D01*
X019650Y003350D01*
D27*
X019650Y003350D03*
X018150Y003350D03*
X018690Y003970D03*
X016230Y003330D03*
X015890Y002870D03*
X015570Y003950D03*
X016150Y004150D03*
X016150Y004650D03*
X016150Y005150D03*
X015370Y005410D03*
X011550Y005090D03*
X010970Y004790D03*
X011490Y004410D03*
X013230Y004010D03*
X012090Y003370D03*
X011610Y003190D03*
X009410Y003810D03*
X008810Y004270D03*
X009150Y004690D03*
X010710Y005450D03*
X011170Y005590D03*
X010030Y005530D03*
X009070Y005570D03*
X007150Y005350D03*
X007090Y004590D03*
X005710Y004230D03*
X007110Y004010D03*
X008150Y003630D03*
X008470Y003290D03*
X007730Y003050D03*
X007130Y003310D03*
X007750Y002590D03*
X008330Y002170D03*
X009150Y002670D03*
X014410Y001650D03*
X015650Y001650D03*
X016150Y001650D03*
X004790Y005190D03*
X003650Y005450D03*
X002330Y005230D03*
X001690Y004850D03*
X002970Y004230D03*
X001350Y001630D03*
M02*
