G75*
G70*
%OFA0B0*%
%FSLAX24Y24*%
%IPPOS*%
%LPD*%
%AMOC8*
5,1,8,0,0,1.08239X$1,22.5*
%
%ADD10C,0.0660*%
%ADD11C,0.0740*%
%ADD12C,0.0080*%
%ADD13C,0.0270*%
%ADD14C,0.0100*%
%ADD15C,0.0160*%
D10*
X004250Y001750D03*
X004250Y002750D03*
D11*
X000650Y000650D03*
X001650Y000650D03*
X002650Y000650D03*
X003650Y000650D03*
X004650Y000650D03*
X005650Y000650D03*
X006650Y000650D03*
X007650Y000650D03*
X008650Y000650D03*
X009650Y000650D03*
X010650Y000650D03*
X011650Y000650D03*
X012650Y000650D03*
X013650Y000650D03*
X014650Y000650D03*
X015650Y000650D03*
X016650Y000650D03*
X017650Y000650D03*
X018650Y000650D03*
X019650Y000650D03*
X019650Y006650D03*
X018650Y006650D03*
X017650Y006650D03*
X016650Y006650D03*
X015650Y006650D03*
X014650Y006650D03*
X013650Y006650D03*
X012650Y006650D03*
X011650Y006650D03*
X010650Y006650D03*
X009650Y006650D03*
X008650Y006650D03*
X007650Y006650D03*
X006650Y006650D03*
X005650Y006650D03*
X004650Y006650D03*
X003650Y006650D03*
X002650Y006650D03*
X001650Y006650D03*
X000650Y006650D03*
X000650Y005650D03*
X000650Y004650D03*
X000650Y003650D03*
X000650Y002650D03*
X000650Y001650D03*
D12*
X000650Y001850D01*
X002530Y003730D01*
X007290Y003730D01*
X007450Y003890D01*
X007450Y003950D01*
X009070Y005570D01*
X009390Y006150D02*
X010010Y005530D01*
X010030Y005530D01*
X010350Y005690D02*
X010350Y005350D01*
X010090Y005090D01*
X010090Y004490D01*
X009410Y003810D01*
X008810Y004170D02*
X008810Y004270D01*
X008490Y004690D02*
X007370Y003570D01*
X002630Y003570D01*
X001350Y002290D01*
X001350Y001630D01*
X001190Y001190D02*
X001950Y001190D01*
X002770Y002010D01*
X003510Y002010D01*
X004250Y002750D01*
X004630Y003130D01*
X006950Y003130D01*
X007130Y003310D01*
X007190Y003010D02*
X005650Y001470D01*
X005050Y001470D01*
X004890Y001310D01*
X003310Y001310D01*
X002650Y000650D01*
X003650Y000650D02*
X004150Y001150D01*
X004970Y001150D01*
X005130Y001310D01*
X005730Y001310D01*
X007110Y002690D01*
X007370Y002690D01*
X007730Y003050D01*
X008070Y002890D02*
X008470Y003290D01*
X008150Y003630D02*
X007870Y003630D01*
X007250Y003010D01*
X007190Y003010D01*
X008070Y002890D02*
X008070Y002430D01*
X007830Y002190D01*
X007190Y002190D01*
X005650Y000650D01*
X005230Y001150D02*
X004990Y000910D01*
X004910Y000910D01*
X004650Y000650D01*
X005230Y001150D02*
X005830Y001150D01*
X007190Y002510D01*
X007670Y002510D01*
X007750Y002590D01*
X009150Y002670D02*
X010950Y004470D01*
X011110Y004470D01*
X011390Y004750D01*
X011750Y004750D01*
X012330Y005330D01*
X012550Y005330D01*
X012690Y005470D01*
X013770Y005470D01*
X013790Y005490D01*
X013650Y005488D02*
X017150Y005488D01*
X017150Y005410D02*
X013650Y005410D01*
X013650Y005331D02*
X017150Y005331D01*
X017150Y005253D02*
X013650Y005253D01*
X013650Y005174D02*
X017150Y005174D01*
X017150Y005096D02*
X013650Y005096D01*
X013650Y005017D02*
X017150Y005017D01*
X017150Y004939D02*
X013650Y004939D01*
X013650Y004860D02*
X017150Y004860D01*
X017150Y004782D02*
X013650Y004782D01*
X013650Y004703D02*
X017150Y004703D01*
X017150Y004625D02*
X013650Y004625D01*
X013650Y004546D02*
X017150Y004546D01*
X017150Y004468D02*
X013650Y004468D01*
X013650Y004389D02*
X017150Y004389D01*
X017150Y004311D02*
X013650Y004311D01*
X013650Y004232D02*
X017150Y004232D01*
X017150Y004154D02*
X013650Y004154D01*
X013650Y004075D02*
X017150Y004075D01*
X017150Y003997D02*
X013650Y003997D01*
X013650Y003918D02*
X017150Y003918D01*
X017150Y003840D02*
X013650Y003840D01*
X013650Y003761D02*
X017150Y003761D01*
X017150Y003683D02*
X013650Y003683D01*
X013650Y003650D02*
X017150Y003650D01*
X017150Y005810D01*
X014488Y005810D01*
X014368Y005690D01*
X013650Y005690D01*
X013650Y003650D01*
X012090Y003370D02*
X016190Y003370D01*
X016230Y003330D01*
X015890Y002870D02*
X015710Y003050D01*
X011750Y003050D01*
X011610Y003190D01*
X015190Y001650D02*
X015490Y001950D01*
X018630Y001950D01*
X018970Y002290D01*
X018970Y003690D01*
X018690Y003970D01*
X019630Y003350D02*
X019650Y003330D01*
X019650Y003350D02*
X019630Y003350D01*
X016150Y001650D02*
X016150Y001150D01*
X015650Y000650D01*
X015650Y001650D02*
X014650Y000650D01*
X013910Y001150D02*
X014410Y001650D01*
X015190Y001650D01*
X013910Y001150D02*
X007410Y001150D01*
X006910Y000650D01*
X006650Y000650D01*
X004250Y001750D02*
X004150Y001650D01*
X002650Y001650D01*
X001650Y000650D01*
X001190Y001190D02*
X000650Y000650D01*
X005290Y004230D02*
X005570Y003950D01*
X007050Y003950D01*
X007110Y004010D01*
X005710Y004230D02*
X005390Y004550D01*
X003010Y004550D01*
X002330Y005230D01*
X003150Y005470D02*
X003530Y005090D01*
X004796Y005090D01*
X004796Y005184D01*
X004790Y005190D01*
X004796Y005090D02*
X006590Y005090D01*
X007090Y004590D01*
X008490Y004690D02*
X009150Y004690D01*
X010970Y004790D02*
X010970Y004930D01*
X011690Y005650D01*
X012370Y005650D01*
X012530Y005810D01*
X013310Y005810D01*
X013490Y005990D01*
X014230Y005990D01*
X014390Y006150D01*
X015150Y006150D01*
X015650Y006650D01*
X016150Y006150D02*
X016650Y006650D01*
X016150Y006150D02*
X015410Y006150D01*
X015250Y005990D01*
X014470Y005990D01*
X014310Y005830D01*
X013570Y005830D01*
X013390Y005650D01*
X012610Y005650D01*
X012450Y005490D01*
X011950Y005490D01*
X011550Y005090D01*
X010710Y005450D02*
X010710Y005590D01*
X011090Y005970D01*
X012210Y005970D01*
X012370Y006130D01*
X013130Y006130D01*
X013650Y006650D01*
X014150Y006150D02*
X014650Y006650D01*
X014150Y006150D02*
X013410Y006150D01*
X013230Y005970D01*
X012450Y005970D01*
X012290Y005810D01*
X011390Y005810D01*
X011170Y005590D01*
X010810Y006150D02*
X010350Y005690D01*
X010810Y006150D02*
X012150Y006150D01*
X012650Y006650D01*
X014480Y005802D02*
X017150Y005802D01*
X017150Y005724D02*
X014402Y005724D01*
X013650Y005645D02*
X017150Y005645D01*
X017150Y005567D02*
X013650Y005567D01*
X013770Y004670D02*
X013750Y004650D01*
X009390Y006150D02*
X004350Y006150D01*
X003650Y005450D01*
X003150Y005470D02*
X003150Y006150D01*
X002650Y006650D01*
X002350Y004850D02*
X001690Y004850D01*
X002350Y004850D02*
X002970Y004230D01*
X005290Y004230D01*
D13*
X005710Y004230D03*
X007090Y004590D03*
X007110Y004010D03*
X008150Y003630D03*
X008470Y003290D03*
X007730Y003050D03*
X007130Y003310D03*
X007750Y002590D03*
X008330Y002170D03*
X009150Y002670D03*
X011610Y003190D03*
X012090Y003370D03*
X013230Y004010D03*
X011490Y004410D03*
X010970Y004790D03*
X011550Y005090D03*
X010710Y005450D03*
X011170Y005590D03*
X010030Y005530D03*
X009070Y005570D03*
X007150Y005350D03*
X009150Y004690D03*
X008810Y004270D03*
X009410Y003810D03*
X004790Y005190D03*
X003650Y005450D03*
X002330Y005230D03*
X001690Y004850D03*
X002970Y004230D03*
X001350Y001630D03*
X014410Y001650D03*
X015650Y001650D03*
X016150Y001650D03*
X015890Y002870D03*
X016230Y003330D03*
X015570Y003950D03*
X016150Y004150D03*
X016150Y004650D03*
X016150Y005150D03*
X015370Y005410D03*
X018690Y003970D03*
X018150Y003350D03*
X019650Y003350D03*
D14*
X019365Y003302D02*
X019160Y003302D01*
X019160Y003401D02*
X019365Y003401D01*
X019365Y003407D02*
X019365Y003293D01*
X019408Y003189D01*
X019420Y003177D01*
X019420Y001745D01*
X018818Y001143D01*
X018753Y001170D01*
X018547Y001170D01*
X018355Y001091D01*
X018209Y000945D01*
X018149Y000798D01*
X018132Y000850D01*
X018095Y000923D01*
X018047Y000989D01*
X017989Y001047D01*
X017923Y001095D01*
X017850Y001132D01*
X017772Y001157D01*
X017700Y001169D01*
X017700Y000700D01*
X017600Y000700D01*
X017600Y001169D01*
X017528Y001157D01*
X017450Y001132D01*
X017377Y001095D01*
X017311Y001047D01*
X017253Y000989D01*
X017205Y000923D01*
X017168Y000850D01*
X017151Y000798D01*
X017091Y000945D01*
X016945Y001091D01*
X016753Y001170D01*
X016547Y001170D01*
X016355Y001091D01*
X016340Y001075D01*
X016340Y001437D01*
X016392Y001489D01*
X016435Y001593D01*
X016435Y001707D01*
X016413Y001760D01*
X018709Y001760D01*
X019049Y002100D01*
X019160Y002211D01*
X019160Y003769D01*
X018975Y003954D01*
X018975Y004027D01*
X018932Y004131D01*
X018851Y004212D01*
X018747Y004255D01*
X018633Y004255D01*
X018529Y004212D01*
X018448Y004131D01*
X018405Y004027D01*
X018405Y003913D01*
X018448Y003809D01*
X018529Y003728D01*
X018633Y003685D01*
X018706Y003685D01*
X018780Y003611D01*
X018780Y002369D01*
X018551Y002140D01*
X015411Y002140D01*
X015300Y002029D01*
X015111Y001840D01*
X014623Y001840D01*
X014571Y001892D01*
X014467Y001935D01*
X014353Y001935D01*
X014249Y001892D01*
X014168Y001811D01*
X014125Y001707D01*
X014125Y001634D01*
X013831Y001340D01*
X007331Y001340D01*
X007220Y001229D01*
X007013Y001022D01*
X006945Y001091D01*
X006753Y001170D01*
X006547Y001170D01*
X006362Y001094D01*
X007269Y002000D01*
X007909Y002000D01*
X008260Y002351D01*
X008260Y002811D01*
X008454Y003005D01*
X008527Y003005D01*
X008631Y003048D01*
X008712Y003129D01*
X008755Y003233D01*
X008755Y003347D01*
X008712Y003451D01*
X008631Y003532D01*
X008527Y003575D01*
X008435Y003575D01*
X008435Y003687D01*
X008392Y003791D01*
X008311Y003872D01*
X008207Y003915D01*
X008093Y003915D01*
X007989Y003872D01*
X007937Y003820D01*
X007889Y003820D01*
X008569Y004500D01*
X008937Y004500D01*
X008989Y004448D01*
X009093Y004405D01*
X009207Y004405D01*
X009311Y004448D01*
X009392Y004529D01*
X009435Y004633D01*
X009435Y004747D01*
X009392Y004851D01*
X009311Y004932D01*
X009207Y004975D01*
X009093Y004975D01*
X008989Y004932D01*
X008937Y004880D01*
X008649Y004880D01*
X009054Y005285D01*
X009127Y005285D01*
X009231Y005328D01*
X009312Y005409D01*
X009355Y005513D01*
X009355Y005627D01*
X009312Y005731D01*
X009231Y005812D01*
X009127Y005855D01*
X009013Y005855D01*
X008909Y005812D01*
X008828Y005731D01*
X008785Y005627D01*
X008785Y005554D01*
X007367Y004135D01*
X007352Y004171D01*
X007271Y004252D01*
X007167Y004295D01*
X007053Y004295D01*
X006949Y004252D01*
X006868Y004171D01*
X006855Y004140D01*
X005981Y004140D01*
X005995Y004173D01*
X005995Y004287D01*
X007034Y004287D01*
X007033Y004305D02*
X007147Y004305D01*
X007251Y004348D01*
X007332Y004429D01*
X007375Y004533D01*
X007375Y004647D01*
X007332Y004751D01*
X007251Y004832D01*
X007147Y004875D01*
X007074Y004875D01*
X006780Y005169D01*
X006669Y005280D01*
X005061Y005280D01*
X005032Y005351D01*
X004951Y005432D01*
X004847Y005475D01*
X004733Y005475D01*
X004629Y005432D01*
X004548Y005351D01*
X004519Y005280D01*
X003883Y005280D01*
X003892Y005289D01*
X003935Y005393D01*
X003935Y005466D01*
X004429Y005960D01*
X009311Y005960D01*
X009745Y005526D01*
X009745Y005473D01*
X009788Y005369D01*
X009869Y005288D01*
X009973Y005245D01*
X009976Y005245D01*
X009900Y005169D01*
X009900Y004569D01*
X009426Y004095D01*
X009353Y004095D01*
X009249Y004052D01*
X009168Y003971D01*
X009125Y003867D01*
X009125Y003753D01*
X009168Y003649D01*
X009249Y003568D01*
X009353Y003525D01*
X009467Y003525D01*
X009571Y003568D01*
X009652Y003649D01*
X009695Y003753D01*
X009695Y003826D01*
X010169Y004300D01*
X010280Y004411D01*
X010280Y005011D01*
X010429Y005160D01*
X010513Y005244D01*
X010549Y005208D01*
X010653Y005165D01*
X010767Y005165D01*
X010871Y005208D01*
X010952Y005289D01*
X010986Y005371D01*
X011009Y005348D01*
X011087Y005316D01*
X010780Y005009D01*
X010780Y005003D01*
X010728Y004951D01*
X010685Y004847D01*
X010685Y004733D01*
X010728Y004629D01*
X010784Y004573D01*
X010760Y004549D01*
X009166Y002955D01*
X009093Y002955D01*
X008989Y002912D01*
X008908Y002831D01*
X008865Y002727D01*
X008865Y002613D01*
X008908Y002509D01*
X008989Y002428D01*
X009093Y002385D01*
X009207Y002385D01*
X009311Y002428D01*
X009392Y002509D01*
X009435Y002613D01*
X009435Y002686D01*
X011029Y004280D01*
X011189Y004280D01*
X011469Y004560D01*
X011829Y004560D01*
X012409Y005140D01*
X012629Y005140D01*
X012769Y005280D01*
X013460Y005280D01*
X013460Y003571D01*
X013471Y003560D01*
X012303Y003560D01*
X012251Y003612D01*
X012147Y003655D01*
X012033Y003655D01*
X011929Y003612D01*
X011848Y003531D01*
X011805Y003427D01*
X011805Y003398D01*
X011771Y003432D01*
X011667Y003475D01*
X011553Y003475D01*
X011449Y003432D01*
X011368Y003351D01*
X011325Y003247D01*
X011325Y003133D01*
X011368Y003029D01*
X011449Y002948D01*
X011553Y002905D01*
X011626Y002905D01*
X011671Y002860D01*
X015605Y002860D01*
X015605Y002813D01*
X015648Y002709D01*
X015729Y002628D01*
X015833Y002585D01*
X015947Y002585D01*
X016051Y002628D01*
X016132Y002709D01*
X016175Y002813D01*
X016175Y002927D01*
X016132Y003031D01*
X016079Y003084D01*
X016173Y003045D01*
X016287Y003045D01*
X016391Y003088D01*
X016472Y003169D01*
X016515Y003273D01*
X016515Y003387D01*
X016485Y003460D01*
X017229Y003460D01*
X017340Y003571D01*
X017340Y003835D01*
X017865Y003310D01*
X017865Y003293D01*
X017908Y003189D01*
X017989Y003108D01*
X018034Y003090D01*
X017965Y003061D01*
X017873Y002969D01*
X017823Y002849D01*
X017823Y002719D01*
X017873Y002599D01*
X017965Y002507D01*
X018085Y002457D01*
X018215Y002457D01*
X018335Y002507D01*
X018427Y002599D01*
X018477Y002719D01*
X018477Y002849D01*
X018427Y002969D01*
X018335Y003061D01*
X018266Y003090D01*
X018311Y003108D01*
X018392Y003189D01*
X018435Y003293D01*
X018435Y003407D01*
X018392Y003511D01*
X018311Y003592D01*
X018207Y003635D01*
X018190Y003635D01*
X017340Y004485D01*
X017340Y005889D01*
X017229Y006000D01*
X016269Y006000D01*
X016442Y006173D01*
X016547Y006130D01*
X016753Y006130D01*
X016945Y006209D01*
X017091Y006355D01*
X017151Y006502D01*
X017168Y006450D01*
X017205Y006377D01*
X017253Y006311D01*
X017311Y006253D01*
X017377Y006205D01*
X017450Y006168D01*
X017528Y006143D01*
X017600Y006131D01*
X017600Y006600D01*
X017700Y006600D01*
X017700Y006131D01*
X017772Y006143D01*
X017850Y006168D01*
X017923Y006205D01*
X017989Y006253D01*
X018047Y006311D01*
X018095Y006377D01*
X018132Y006450D01*
X018149Y006502D01*
X018209Y006355D01*
X018355Y006209D01*
X018547Y006130D01*
X018753Y006130D01*
X018818Y006157D01*
X019420Y005555D01*
X019420Y003523D01*
X019408Y003511D01*
X019365Y003407D01*
X019403Y003499D02*
X019160Y003499D01*
X019160Y003598D02*
X019420Y003598D01*
X019420Y003696D02*
X019160Y003696D01*
X019134Y003795D02*
X019420Y003795D01*
X019420Y003893D02*
X019036Y003893D01*
X018975Y003992D02*
X019420Y003992D01*
X019420Y004090D02*
X018949Y004090D01*
X018875Y004189D02*
X019420Y004189D01*
X019420Y004287D02*
X018384Y004287D01*
X018427Y004331D02*
X018335Y004239D01*
X018215Y004189D01*
X018085Y004189D01*
X017965Y004239D01*
X017873Y004331D01*
X017823Y004451D01*
X017823Y004581D01*
X017873Y004701D01*
X017965Y004793D01*
X018085Y004843D01*
X018215Y004843D01*
X018335Y004793D01*
X018427Y004701D01*
X018477Y004581D01*
X018477Y004451D01*
X018427Y004331D01*
X018450Y004386D02*
X019420Y004386D01*
X019420Y004484D02*
X018477Y004484D01*
X018477Y004583D02*
X019420Y004583D01*
X019420Y004681D02*
X018436Y004681D01*
X018349Y004780D02*
X019420Y004780D01*
X019420Y004878D02*
X017340Y004878D01*
X017340Y004780D02*
X017951Y004780D01*
X017864Y004681D02*
X017340Y004681D01*
X017340Y004583D02*
X017823Y004583D01*
X017823Y004484D02*
X017341Y004484D01*
X017440Y004386D02*
X017850Y004386D01*
X017916Y004287D02*
X017538Y004287D01*
X017637Y004189D02*
X018505Y004189D01*
X018431Y004090D02*
X017735Y004090D01*
X017834Y003992D02*
X018405Y003992D01*
X018413Y003893D02*
X017932Y003893D01*
X018031Y003795D02*
X018462Y003795D01*
X018607Y003696D02*
X018129Y003696D01*
X018297Y003598D02*
X018780Y003598D01*
X018780Y003499D02*
X018397Y003499D01*
X018435Y003401D02*
X018780Y003401D01*
X018780Y003302D02*
X018435Y003302D01*
X018398Y003204D02*
X018780Y003204D01*
X018780Y003105D02*
X018303Y003105D01*
X018390Y003007D02*
X018780Y003007D01*
X018780Y002908D02*
X018453Y002908D01*
X018477Y002810D02*
X018780Y002810D01*
X018780Y002711D02*
X018474Y002711D01*
X018433Y002613D02*
X018780Y002613D01*
X018780Y002514D02*
X018343Y002514D01*
X017957Y002514D02*
X009394Y002514D01*
X009435Y002613D02*
X015767Y002613D01*
X016013Y002613D02*
X017867Y002613D01*
X017826Y002711D02*
X016133Y002711D01*
X016173Y002810D02*
X017823Y002810D01*
X017847Y002908D02*
X016175Y002908D01*
X016142Y003007D02*
X017910Y003007D01*
X017997Y003105D02*
X016408Y003105D01*
X016486Y003204D02*
X017902Y003204D01*
X017865Y003302D02*
X016515Y003302D01*
X016509Y003401D02*
X017774Y003401D01*
X017676Y003499D02*
X017268Y003499D01*
X017340Y003598D02*
X017577Y003598D01*
X017479Y003696D02*
X017340Y003696D01*
X017340Y003795D02*
X017380Y003795D01*
X019160Y003204D02*
X019402Y003204D01*
X019420Y003105D02*
X019160Y003105D01*
X019160Y003007D02*
X019420Y003007D01*
X019420Y002908D02*
X019160Y002908D01*
X019160Y002810D02*
X019420Y002810D01*
X019420Y002711D02*
X019160Y002711D01*
X019160Y002613D02*
X019420Y002613D01*
X019420Y002514D02*
X019160Y002514D01*
X019160Y002416D02*
X019420Y002416D01*
X019420Y002317D02*
X019160Y002317D01*
X019160Y002219D02*
X019420Y002219D01*
X019420Y002120D02*
X019069Y002120D01*
X018970Y002022D02*
X019420Y002022D01*
X019420Y001923D02*
X018872Y001923D01*
X018773Y001825D02*
X019420Y001825D01*
X019401Y001726D02*
X016427Y001726D01*
X016435Y001628D02*
X019302Y001628D01*
X019204Y001529D02*
X016408Y001529D01*
X016340Y001431D02*
X019105Y001431D01*
X019007Y001332D02*
X016340Y001332D01*
X016340Y001234D02*
X018908Y001234D01*
X018462Y001135D02*
X017840Y001135D01*
X017700Y001135D02*
X017600Y001135D01*
X017600Y001037D02*
X017700Y001037D01*
X017460Y001135D02*
X016838Y001135D01*
X016999Y001037D02*
X017301Y001037D01*
X017216Y000938D02*
X017094Y000938D01*
X017134Y000840D02*
X017165Y000840D01*
X017600Y000840D02*
X017700Y000840D01*
X017700Y000938D02*
X017600Y000938D01*
X017600Y000741D02*
X017700Y000741D01*
X018084Y000938D02*
X018206Y000938D01*
X018166Y000840D02*
X018135Y000840D01*
X017999Y001037D02*
X018301Y001037D01*
X016462Y001135D02*
X016340Y001135D01*
X015194Y001923D02*
X014496Y001923D01*
X014324Y001923D02*
X007192Y001923D01*
X007093Y001825D02*
X014181Y001825D01*
X014133Y001726D02*
X006995Y001726D01*
X006896Y001628D02*
X014119Y001628D01*
X014020Y001529D02*
X006798Y001529D01*
X006699Y001431D02*
X013922Y001431D01*
X015293Y002022D02*
X007930Y002022D01*
X008029Y002120D02*
X015391Y002120D01*
X015647Y002711D02*
X009460Y002711D01*
X009558Y002810D02*
X015607Y002810D01*
X013460Y003598D02*
X012266Y003598D01*
X011914Y003598D02*
X010346Y003598D01*
X010445Y003696D02*
X013460Y003696D01*
X013460Y003795D02*
X010543Y003795D01*
X010642Y003893D02*
X013460Y003893D01*
X013460Y003992D02*
X010740Y003992D01*
X010839Y004090D02*
X013460Y004090D01*
X013460Y004189D02*
X010937Y004189D01*
X011196Y004287D02*
X013460Y004287D01*
X013460Y004386D02*
X011294Y004386D01*
X011393Y004484D02*
X013460Y004484D01*
X013460Y004583D02*
X011851Y004583D01*
X011950Y004681D02*
X013460Y004681D01*
X013460Y004780D02*
X012048Y004780D01*
X012147Y004878D02*
X013460Y004878D01*
X013460Y004977D02*
X012245Y004977D01*
X012344Y005075D02*
X013460Y005075D01*
X013460Y005174D02*
X012662Y005174D01*
X012761Y005272D02*
X013460Y005272D01*
X011043Y005272D02*
X010935Y005272D01*
X010986Y005371D02*
X010986Y005371D01*
X010945Y005174D02*
X010787Y005174D01*
X010846Y005075D02*
X010344Y005075D01*
X010280Y004977D02*
X010753Y004977D01*
X010698Y004878D02*
X010280Y004878D01*
X010280Y004780D02*
X010685Y004780D01*
X010707Y004681D02*
X010280Y004681D01*
X010280Y004583D02*
X010774Y004583D01*
X010695Y004484D02*
X010280Y004484D01*
X010254Y004386D02*
X010597Y004386D01*
X010498Y004287D02*
X010156Y004287D01*
X010057Y004189D02*
X010400Y004189D01*
X010301Y004090D02*
X009959Y004090D01*
X009860Y003992D02*
X010203Y003992D01*
X010104Y003893D02*
X009762Y003893D01*
X009695Y003795D02*
X010006Y003795D01*
X009907Y003696D02*
X009671Y003696D01*
X009601Y003598D02*
X009809Y003598D01*
X009710Y003499D02*
X008664Y003499D01*
X008733Y003401D02*
X009612Y003401D01*
X009513Y003302D02*
X008755Y003302D01*
X008743Y003204D02*
X009415Y003204D01*
X009316Y003105D02*
X008688Y003105D01*
X008530Y003007D02*
X009218Y003007D01*
X008985Y002908D02*
X008357Y002908D01*
X008260Y002810D02*
X008899Y002810D01*
X008865Y002711D02*
X008260Y002711D01*
X008260Y002613D02*
X008865Y002613D01*
X008906Y002514D02*
X008260Y002514D01*
X008260Y002416D02*
X009020Y002416D01*
X009280Y002416D02*
X018780Y002416D01*
X018728Y002317D02*
X008226Y002317D01*
X008127Y002219D02*
X018630Y002219D01*
X011835Y003499D02*
X010248Y003499D01*
X010149Y003401D02*
X011417Y003401D01*
X011348Y003302D02*
X010051Y003302D01*
X009952Y003204D02*
X011325Y003204D01*
X011337Y003105D02*
X009854Y003105D01*
X009755Y003007D02*
X011390Y003007D01*
X011546Y002908D02*
X009657Y002908D01*
X009219Y003598D02*
X008435Y003598D01*
X008431Y003696D02*
X009149Y003696D01*
X009125Y003795D02*
X008389Y003795D01*
X008260Y003893D02*
X009136Y003893D01*
X009188Y003992D02*
X008060Y003992D01*
X008040Y003893D02*
X007962Y003893D01*
X008159Y004090D02*
X009341Y004090D01*
X009520Y004189D02*
X008257Y004189D01*
X008356Y004287D02*
X009618Y004287D01*
X009717Y004386D02*
X008454Y004386D01*
X008553Y004484D02*
X008953Y004484D01*
X009347Y004484D02*
X009815Y004484D01*
X009900Y004583D02*
X009414Y004583D01*
X009435Y004681D02*
X009900Y004681D01*
X009900Y004780D02*
X009421Y004780D01*
X009365Y004878D02*
X009900Y004878D01*
X009900Y004977D02*
X008745Y004977D01*
X008844Y005075D02*
X009900Y005075D01*
X009905Y005174D02*
X008942Y005174D01*
X009041Y005272D02*
X009908Y005272D01*
X009788Y005371D02*
X009274Y005371D01*
X009337Y005469D02*
X009747Y005469D01*
X009704Y005568D02*
X009355Y005568D01*
X009339Y005666D02*
X009605Y005666D01*
X009507Y005765D02*
X009279Y005765D01*
X009408Y005863D02*
X004332Y005863D01*
X004233Y005765D02*
X008861Y005765D01*
X008801Y005666D02*
X004135Y005666D01*
X004036Y005568D02*
X008785Y005568D01*
X008700Y005469D02*
X004861Y005469D01*
X004719Y005469D02*
X003938Y005469D01*
X003926Y005371D02*
X004567Y005371D01*
X005013Y005371D02*
X008602Y005371D01*
X008503Y005272D02*
X006677Y005272D01*
X006775Y005174D02*
X008405Y005174D01*
X008306Y005075D02*
X006874Y005075D01*
X006972Y004977D02*
X008208Y004977D01*
X008109Y004878D02*
X007071Y004878D01*
X007304Y004780D02*
X008011Y004780D01*
X007912Y004681D02*
X007361Y004681D01*
X007375Y004583D02*
X007814Y004583D01*
X007715Y004484D02*
X007355Y004484D01*
X007289Y004386D02*
X007617Y004386D01*
X007518Y004287D02*
X007186Y004287D01*
X007033Y004305D02*
X006929Y004348D01*
X006848Y004429D01*
X006805Y004533D01*
X006805Y004606D01*
X006511Y004900D01*
X003451Y004900D01*
X003340Y005011D01*
X003340Y005011D01*
X002960Y005391D01*
X002960Y006071D01*
X002858Y006173D01*
X002753Y006130D01*
X002547Y006130D01*
X002355Y006209D01*
X002209Y006355D01*
X002150Y006498D01*
X002091Y006355D01*
X001945Y006209D01*
X001753Y006130D01*
X001547Y006130D01*
X001355Y006209D01*
X001209Y006355D01*
X001150Y006498D01*
X001091Y006355D01*
X000945Y006209D01*
X000802Y006150D01*
X000945Y006091D01*
X001091Y005945D01*
X001170Y005753D01*
X001170Y005547D01*
X001091Y005355D01*
X000945Y005209D01*
X000798Y005149D01*
X000850Y005132D01*
X000923Y005095D01*
X000989Y005047D01*
X001047Y004989D01*
X001095Y004923D01*
X001132Y004850D01*
X001157Y004772D01*
X001169Y004700D01*
X000700Y004700D01*
X000700Y004600D01*
X001169Y004600D01*
X001157Y004528D01*
X001132Y004450D01*
X001095Y004377D01*
X001047Y004311D01*
X000989Y004253D01*
X000923Y004205D01*
X000850Y004168D01*
X000798Y004151D01*
X000945Y004091D01*
X001091Y003945D01*
X001170Y003753D01*
X001170Y003547D01*
X001091Y003355D01*
X000945Y003209D01*
X000802Y003150D01*
X000945Y003091D01*
X001091Y002945D01*
X001170Y002753D01*
X001170Y002639D01*
X002340Y003809D01*
X002451Y003920D01*
X005331Y003920D01*
X005211Y004040D01*
X003183Y004040D01*
X003131Y003988D01*
X003027Y003945D01*
X002913Y003945D01*
X002809Y003988D01*
X002728Y004069D01*
X002685Y004173D01*
X002685Y004246D01*
X002271Y004660D01*
X001903Y004660D01*
X001851Y004608D01*
X001747Y004565D01*
X001633Y004565D01*
X001529Y004608D01*
X001448Y004689D01*
X001405Y004793D01*
X001405Y004907D01*
X001448Y005011D01*
X001529Y005092D01*
X001633Y005135D01*
X001747Y005135D01*
X001851Y005092D01*
X001903Y005040D01*
X002117Y005040D01*
X002088Y005069D01*
X002045Y005173D01*
X002045Y005287D01*
X002088Y005391D01*
X002169Y005472D01*
X002273Y005515D01*
X002387Y005515D01*
X002491Y005472D01*
X002572Y005391D01*
X002615Y005287D01*
X002615Y005214D01*
X003089Y004740D01*
X005469Y004740D01*
X005694Y004515D01*
X005767Y004515D01*
X005871Y004472D01*
X005952Y004391D01*
X005995Y004287D01*
X005995Y004189D02*
X006885Y004189D01*
X006891Y004386D02*
X005954Y004386D01*
X005842Y004484D02*
X006825Y004484D01*
X006805Y004583D02*
X005626Y004583D01*
X005528Y004681D02*
X006730Y004681D01*
X006632Y004780D02*
X003049Y004780D01*
X002951Y004878D02*
X006533Y004878D01*
X007335Y004189D02*
X007420Y004189D01*
X005260Y003992D02*
X003135Y003992D01*
X002805Y003992D02*
X001044Y003992D01*
X001112Y003893D02*
X002424Y003893D01*
X002326Y003795D02*
X001153Y003795D01*
X001170Y003696D02*
X002227Y003696D01*
X002129Y003598D02*
X001170Y003598D01*
X001150Y003499D02*
X002030Y003499D01*
X001932Y003401D02*
X001110Y003401D01*
X001037Y003302D02*
X001833Y003302D01*
X001735Y003204D02*
X000931Y003204D01*
X000910Y003105D02*
X001636Y003105D01*
X001538Y003007D02*
X001029Y003007D01*
X001106Y002908D02*
X001439Y002908D01*
X001341Y002810D02*
X001147Y002810D01*
X001170Y002711D02*
X001242Y002711D01*
X000945Y004090D02*
X002720Y004090D01*
X002685Y004189D02*
X000890Y004189D01*
X001022Y004287D02*
X002644Y004287D01*
X002546Y004386D02*
X001099Y004386D01*
X001143Y004484D02*
X002447Y004484D01*
X002349Y004583D02*
X001789Y004583D01*
X001591Y004583D02*
X001166Y004583D01*
X001456Y004681D02*
X000700Y004681D01*
X001117Y004878D02*
X001405Y004878D01*
X001411Y004780D02*
X001155Y004780D01*
X001056Y004977D02*
X001434Y004977D01*
X001512Y005075D02*
X000950Y005075D01*
X000858Y005174D02*
X002045Y005174D01*
X002086Y005075D02*
X001868Y005075D01*
X002045Y005272D02*
X001007Y005272D01*
X001097Y005371D02*
X002080Y005371D01*
X002166Y005469D02*
X001138Y005469D01*
X001170Y005568D02*
X002960Y005568D01*
X002960Y005666D02*
X001170Y005666D01*
X001165Y005765D02*
X002960Y005765D01*
X002960Y005863D02*
X001125Y005863D01*
X001074Y005962D02*
X002960Y005962D01*
X002960Y006060D02*
X000975Y006060D01*
X000822Y006159D02*
X001478Y006159D01*
X001308Y006257D02*
X000992Y006257D01*
X001091Y006356D02*
X001209Y006356D01*
X001168Y006454D02*
X001132Y006454D01*
X001822Y006159D02*
X002478Y006159D01*
X002308Y006257D02*
X001992Y006257D01*
X002091Y006356D02*
X002209Y006356D01*
X002168Y006454D02*
X002132Y006454D01*
X002822Y006159D02*
X002873Y006159D01*
X002960Y005469D02*
X002494Y005469D01*
X002580Y005371D02*
X002981Y005371D01*
X003079Y005272D02*
X002615Y005272D01*
X002655Y005174D02*
X003178Y005174D01*
X003276Y005075D02*
X002754Y005075D01*
X002852Y004977D02*
X003375Y004977D01*
X010442Y005174D02*
X010633Y005174D01*
X011803Y003401D02*
X011805Y003401D01*
X017340Y004977D02*
X019420Y004977D01*
X019420Y005075D02*
X017340Y005075D01*
X017340Y005174D02*
X019420Y005174D01*
X019420Y005272D02*
X017340Y005272D01*
X017340Y005371D02*
X019420Y005371D01*
X019420Y005469D02*
X017340Y005469D01*
X017340Y005568D02*
X019407Y005568D01*
X019309Y005666D02*
X017340Y005666D01*
X017340Y005765D02*
X019210Y005765D01*
X019112Y005863D02*
X017340Y005863D01*
X017267Y005962D02*
X019013Y005962D01*
X018915Y006060D02*
X016329Y006060D01*
X016427Y006159D02*
X016478Y006159D01*
X016822Y006159D02*
X017480Y006159D01*
X017600Y006159D02*
X017700Y006159D01*
X017700Y006257D02*
X017600Y006257D01*
X017820Y006159D02*
X018478Y006159D01*
X018308Y006257D02*
X017992Y006257D01*
X018079Y006356D02*
X018209Y006356D01*
X018168Y006454D02*
X018133Y006454D01*
X017700Y006454D02*
X017600Y006454D01*
X017600Y006356D02*
X017700Y006356D01*
X017700Y006553D02*
X017600Y006553D01*
X017221Y006356D02*
X017091Y006356D01*
X017132Y006454D02*
X017167Y006454D01*
X017308Y006257D02*
X016992Y006257D01*
X007323Y001332D02*
X006601Y001332D01*
X006502Y001234D02*
X007225Y001234D01*
X007126Y001135D02*
X006838Y001135D01*
X006999Y001037D02*
X007028Y001037D01*
X006462Y001135D02*
X006404Y001135D01*
D15*
X016150Y004650D02*
X016850Y004650D01*
X018150Y003350D01*
X019650Y003330D02*
X019650Y005650D01*
X018650Y006650D01*
X019650Y003330D02*
X019650Y001650D01*
X018650Y000650D01*
M02*
