G75*
G70*
%OFA0B0*%
%FSLAX24Y24*%
%IPPOS*%
%LPD*%
%AMOC8*
5,1,8,0,0,1.08239X$1,22.5*
%
%ADD10C,0.0000*%
D10*
X000150Y000150D02*
X000150Y007150D01*
X020150Y007150D01*
X020150Y000150D01*
X000150Y000150D01*
X017973Y002784D02*
X017975Y002810D01*
X017981Y002836D01*
X017991Y002861D01*
X018004Y002884D01*
X018020Y002904D01*
X018040Y002922D01*
X018062Y002937D01*
X018085Y002949D01*
X018111Y002957D01*
X018137Y002961D01*
X018163Y002961D01*
X018189Y002957D01*
X018215Y002949D01*
X018239Y002937D01*
X018260Y002922D01*
X018280Y002904D01*
X018296Y002884D01*
X018309Y002861D01*
X018319Y002836D01*
X018325Y002810D01*
X018327Y002784D01*
X018325Y002758D01*
X018319Y002732D01*
X018309Y002707D01*
X018296Y002684D01*
X018280Y002664D01*
X018260Y002646D01*
X018238Y002631D01*
X018215Y002619D01*
X018189Y002611D01*
X018163Y002607D01*
X018137Y002607D01*
X018111Y002611D01*
X018085Y002619D01*
X018061Y002631D01*
X018040Y002646D01*
X018020Y002664D01*
X018004Y002684D01*
X017991Y002707D01*
X017981Y002732D01*
X017975Y002758D01*
X017973Y002784D01*
X017973Y004516D02*
X017975Y004542D01*
X017981Y004568D01*
X017991Y004593D01*
X018004Y004616D01*
X018020Y004636D01*
X018040Y004654D01*
X018062Y004669D01*
X018085Y004681D01*
X018111Y004689D01*
X018137Y004693D01*
X018163Y004693D01*
X018189Y004689D01*
X018215Y004681D01*
X018239Y004669D01*
X018260Y004654D01*
X018280Y004636D01*
X018296Y004616D01*
X018309Y004593D01*
X018319Y004568D01*
X018325Y004542D01*
X018327Y004516D01*
X018325Y004490D01*
X018319Y004464D01*
X018309Y004439D01*
X018296Y004416D01*
X018280Y004396D01*
X018260Y004378D01*
X018238Y004363D01*
X018215Y004351D01*
X018189Y004343D01*
X018163Y004339D01*
X018137Y004339D01*
X018111Y004343D01*
X018085Y004351D01*
X018061Y004363D01*
X018040Y004378D01*
X018020Y004396D01*
X018004Y004416D01*
X017991Y004439D01*
X017981Y004464D01*
X017975Y004490D01*
X017973Y004516D01*
M02*
