%
M48
M72
T01C0.0150
T02C0.0320
T03C0.0354
T04C0.0400
%
T01
X1311Y1991
X2986Y2901
X5711Y4231
X7111Y4571
X7731Y4931
X9151Y4691
X8811Y4271
X9411Y3811
X8151Y3631
X8471Y3291
X7551Y2951
X6731Y3031
X7371Y2511
X8431Y1831
X9151Y2671
X11611Y3191
X12091Y3371
X13231Y4011
X11491Y4411
X10971Y4791
X11551Y5091
X10711Y5451
X11171Y5591
X10031Y5531
X9071Y5571
X7131Y3891
X4311Y5091
X3651Y5451
X2331Y5231
X1691Y4851
X14411Y1651
X15651Y1651
X16151Y1651
X15891Y2871
X16231Y3331
X15571Y3951
X16151Y4151
X16151Y4651
X16151Y5151
X15371Y5411
X18691Y3971
X18151Y3351
X19651Y3351
T02
X6151Y2651
X5151Y2651
T03
X18151Y2785
X18151Y4517
T04
X651Y651
X1651Y651
X2651Y651
X3651Y651
X4651Y651
X5651Y651
X6651Y651
X7651Y651
X8651Y651
X9651Y651
X10651Y651
X11651Y651
X12651Y651
X13651Y651
X14651Y651
X15651Y651
X16651Y651
X17651Y651
X18651Y651
X19651Y651
X19651Y6651
X18651Y6651
X17651Y6651
X16651Y6651
X15651Y6651
X14651Y6651
X13651Y6651
X12651Y6651
X11651Y6651
X10651Y6651
X9651Y6651
X8651Y6651
X7651Y6651
X6651Y6651
X5651Y6651
X4651Y6651
X3651Y6651
X2651Y6651
X1651Y6651
X651Y6651
X651Y5651
X651Y4651
X651Y3651
X651Y2651
X651Y1651
M30
