G75*
G70*
%OFA0B0*%
%FSLAX24Y24*%
%IPPOS*%
%LPD*%
%AMOC8*
5,1,8,0,0,1.08239X$1,22.5*
%
%ADD10R,0.0474X0.0513*%
%ADD11R,0.0513X0.0474*%
%ADD12R,0.0395X0.0395*%
%ADD13R,0.0680X0.0380*%
%ADD14R,0.1064X0.0277*%
%ADD15R,0.1064X0.0867*%
%ADD16C,0.0434*%
%ADD17R,0.0867X0.1025*%
%ADD18C,0.0740*%
%ADD19C,0.0820*%
%ADD20C,0.0946*%
%ADD21R,0.0620X0.0413*%
%ADD22R,0.0198X0.0198*%
%ADD23R,0.0217X0.0217*%
%ADD24R,0.0592X0.0493*%
D10*
X011371Y001937D03*
X011371Y002606D03*
X013151Y002817D03*
X013751Y002817D03*
X014411Y002817D03*
X015151Y002817D03*
X015151Y003486D03*
X014411Y003486D03*
X013751Y003486D03*
X013151Y003486D03*
D11*
X011966Y003931D03*
X011297Y003931D03*
X011997Y004651D03*
X012666Y004651D03*
X007266Y005271D03*
X006597Y005271D03*
X005486Y005251D03*
X004817Y005251D03*
X003586Y003651D03*
X002917Y003651D03*
X002306Y003651D03*
X001637Y003651D03*
X004457Y003471D03*
X005126Y003471D03*
X005717Y003471D03*
X006386Y003471D03*
X006326Y001951D03*
X005657Y001951D03*
X007225Y001499D03*
X007894Y001499D03*
D12*
X013156Y002291D03*
X013746Y002291D03*
X012626Y005151D03*
X012036Y005151D03*
D13*
X003651Y004401D03*
X001651Y004401D03*
X001651Y005901D03*
X003651Y005901D03*
X003651Y002901D03*
X001651Y002901D03*
X001651Y001401D03*
X003651Y001401D03*
D14*
X017167Y003021D03*
X017167Y003336D03*
X017167Y003651D03*
X017167Y003966D03*
X017167Y004281D03*
D15*
X017167Y005383D03*
X019332Y005423D03*
X019332Y001880D03*
X017167Y001880D03*
D16*
X018151Y002785D03*
X018151Y004517D03*
D17*
X006379Y004371D03*
X004804Y004371D03*
D18*
X005151Y002651D03*
X006151Y002651D03*
D19*
X000651Y000651D03*
X001651Y000651D03*
X002651Y000651D03*
X003651Y000651D03*
X004651Y000651D03*
X005651Y000651D03*
X006651Y000651D03*
X007651Y000651D03*
X008651Y000651D03*
X009651Y000651D03*
X010651Y000651D03*
X011651Y000651D03*
X012651Y000651D03*
X013651Y000651D03*
X014651Y000651D03*
X015651Y000651D03*
X016651Y000651D03*
X017651Y000651D03*
X018651Y000651D03*
X019651Y000651D03*
X019651Y006651D03*
X018651Y006651D03*
X017651Y006651D03*
X016651Y006651D03*
X015651Y006651D03*
X014651Y006651D03*
X013651Y006651D03*
X012651Y006651D03*
X011651Y006651D03*
X010651Y006651D03*
X009651Y006651D03*
X008651Y006651D03*
X007651Y006651D03*
X006651Y006651D03*
X005651Y006651D03*
X004651Y006651D03*
X003651Y006651D03*
X002651Y006651D03*
X001651Y006651D03*
X000651Y006651D03*
X000651Y005651D03*
X000651Y004651D03*
X000651Y003651D03*
X000651Y002651D03*
X000651Y001651D03*
D20*
X014726Y004651D02*
X015316Y004651D01*
D21*
X013869Y004651D03*
X013869Y004061D03*
X013869Y005242D03*
D22*
G36*
X010404Y004070D02*
X010544Y003930D01*
X010404Y003790D01*
X010264Y003930D01*
X010404Y004070D01*
G37*
G36*
X010265Y004209D02*
X010405Y004069D01*
X010265Y003929D01*
X010125Y004069D01*
X010265Y004209D01*
G37*
G36*
X010126Y004348D02*
X010266Y004208D01*
X010126Y004068D01*
X009986Y004208D01*
X010126Y004348D01*
G37*
G36*
X009986Y004487D02*
X010126Y004347D01*
X009986Y004207D01*
X009846Y004347D01*
X009986Y004487D01*
G37*
G36*
X009847Y004626D02*
X009987Y004486D01*
X009847Y004346D01*
X009707Y004486D01*
X009847Y004626D01*
G37*
G36*
X009708Y004766D02*
X009848Y004626D01*
X009708Y004486D01*
X009568Y004626D01*
X009708Y004766D01*
G37*
G36*
X009569Y004905D02*
X009709Y004765D01*
X009569Y004625D01*
X009429Y004765D01*
X009569Y004905D01*
G37*
G36*
X009430Y005044D02*
X009570Y004904D01*
X009430Y004764D01*
X009290Y004904D01*
X009430Y005044D01*
G37*
G36*
X009290Y005183D02*
X009430Y005043D01*
X009290Y004903D01*
X009150Y005043D01*
X009290Y005183D01*
G37*
G36*
X009151Y005322D02*
X009291Y005182D01*
X009151Y005042D01*
X009011Y005182D01*
X009151Y005322D01*
G37*
G36*
X009012Y005183D02*
X009152Y005043D01*
X009012Y004903D01*
X008872Y005043D01*
X009012Y005183D01*
G37*
G36*
X008873Y005044D02*
X009013Y004904D01*
X008873Y004764D01*
X008733Y004904D01*
X008873Y005044D01*
G37*
G36*
X008734Y004905D02*
X008874Y004765D01*
X008734Y004625D01*
X008594Y004765D01*
X008734Y004905D01*
G37*
G36*
X008594Y004766D02*
X008734Y004626D01*
X008594Y004486D01*
X008454Y004626D01*
X008594Y004766D01*
G37*
G36*
X008455Y004626D02*
X008595Y004486D01*
X008455Y004346D01*
X008315Y004486D01*
X008455Y004626D01*
G37*
G36*
X008316Y004487D02*
X008456Y004347D01*
X008316Y004207D01*
X008176Y004347D01*
X008316Y004487D01*
G37*
G36*
X008177Y004348D02*
X008317Y004208D01*
X008177Y004068D01*
X008037Y004208D01*
X008177Y004348D01*
G37*
G36*
X008038Y004209D02*
X008178Y004069D01*
X008038Y003929D01*
X007898Y004069D01*
X008038Y004209D01*
G37*
G36*
X007898Y004070D02*
X008038Y003930D01*
X007898Y003790D01*
X007758Y003930D01*
X007898Y004070D01*
G37*
G36*
X007759Y003930D02*
X007899Y003790D01*
X007759Y003650D01*
X007619Y003790D01*
X007759Y003930D01*
G37*
G36*
X007620Y003791D02*
X007760Y003651D01*
X007620Y003511D01*
X007480Y003651D01*
X007620Y003791D01*
G37*
G36*
X007759Y003652D02*
X007899Y003512D01*
X007759Y003372D01*
X007619Y003512D01*
X007759Y003652D01*
G37*
G36*
X007898Y003513D02*
X008038Y003373D01*
X007898Y003233D01*
X007758Y003373D01*
X007898Y003513D01*
G37*
G36*
X008038Y003374D02*
X008178Y003234D01*
X008038Y003094D01*
X007898Y003234D01*
X008038Y003374D01*
G37*
G36*
X008177Y003234D02*
X008317Y003094D01*
X008177Y002954D01*
X008037Y003094D01*
X008177Y003234D01*
G37*
G36*
X008316Y003095D02*
X008456Y002955D01*
X008316Y002815D01*
X008176Y002955D01*
X008316Y003095D01*
G37*
G36*
X008455Y002956D02*
X008595Y002816D01*
X008455Y002676D01*
X008315Y002816D01*
X008455Y002956D01*
G37*
G36*
X008594Y002817D02*
X008734Y002677D01*
X008594Y002537D01*
X008454Y002677D01*
X008594Y002817D01*
G37*
G36*
X008734Y002678D02*
X008874Y002538D01*
X008734Y002398D01*
X008594Y002538D01*
X008734Y002678D01*
G37*
G36*
X008873Y002538D02*
X009013Y002398D01*
X008873Y002258D01*
X008733Y002398D01*
X008873Y002538D01*
G37*
G36*
X009430Y002538D02*
X009570Y002398D01*
X009430Y002258D01*
X009290Y002398D01*
X009430Y002538D01*
G37*
G36*
X009569Y002678D02*
X009709Y002538D01*
X009569Y002398D01*
X009429Y002538D01*
X009569Y002678D01*
G37*
G36*
X009708Y002817D02*
X009848Y002677D01*
X009708Y002537D01*
X009568Y002677D01*
X009708Y002817D01*
G37*
G36*
X009847Y002956D02*
X009987Y002816D01*
X009847Y002676D01*
X009707Y002816D01*
X009847Y002956D01*
G37*
G36*
X009986Y003095D02*
X010126Y002955D01*
X009986Y002815D01*
X009846Y002955D01*
X009986Y003095D01*
G37*
G36*
X010126Y003234D02*
X010266Y003094D01*
X010126Y002954D01*
X009986Y003094D01*
X010126Y003234D01*
G37*
G36*
X010265Y003374D02*
X010405Y003234D01*
X010265Y003094D01*
X010125Y003234D01*
X010265Y003374D01*
G37*
G36*
X010404Y003513D02*
X010544Y003373D01*
X010404Y003233D01*
X010264Y003373D01*
X010404Y003513D01*
G37*
G36*
X010543Y003652D02*
X010683Y003512D01*
X010543Y003372D01*
X010403Y003512D01*
X010543Y003652D01*
G37*
G36*
X010682Y003791D02*
X010822Y003651D01*
X010682Y003511D01*
X010542Y003651D01*
X010682Y003791D01*
G37*
G36*
X010543Y003930D02*
X010683Y003790D01*
X010543Y003650D01*
X010403Y003790D01*
X010543Y003930D01*
G37*
G36*
X009290Y002399D02*
X009430Y002259D01*
X009290Y002119D01*
X009150Y002259D01*
X009290Y002399D01*
G37*
G36*
X009012Y002399D02*
X009152Y002259D01*
X009012Y002119D01*
X008872Y002259D01*
X009012Y002399D01*
G37*
G36*
X009151Y002260D02*
X009291Y002120D01*
X009151Y001980D01*
X009011Y002120D01*
X009151Y002260D01*
G37*
D23*
G36*
X009151Y002119D02*
X009303Y001967D01*
X009151Y001815D01*
X008999Y001967D01*
X009151Y002119D01*
G37*
G36*
X007467Y003803D02*
X007619Y003651D01*
X007467Y003499D01*
X007315Y003651D01*
X007467Y003803D01*
G37*
G36*
X010835Y003803D02*
X010987Y003651D01*
X010835Y003499D01*
X010683Y003651D01*
X010835Y003803D01*
G37*
G36*
X009151Y005487D02*
X009303Y005335D01*
X009151Y005183D01*
X008999Y005335D01*
X009151Y005487D01*
G37*
D24*
X012091Y002734D03*
X012091Y001809D03*
M02*
