G75*
G70*
%OFA0B0*%
%FSLAX24Y24*%
%IPPOS*%
%LPD*%
%AMOC8*
5,1,8,0,0,1.08239X$1,22.5*
%
%ADD10C,0.0434*%
%ADD11C,0.0740*%
%ADD12C,0.0820*%
D10*
X018151Y002785D03*
X018151Y004517D03*
D11*
X006151Y002651D03*
X005151Y002651D03*
D12*
X000651Y000651D03*
X001651Y000651D03*
X002651Y000651D03*
X003651Y000651D03*
X004651Y000651D03*
X005651Y000651D03*
X006651Y000651D03*
X007651Y000651D03*
X008651Y000651D03*
X009651Y000651D03*
X010651Y000651D03*
X011651Y000651D03*
X012651Y000651D03*
X013651Y000651D03*
X014651Y000651D03*
X015651Y000651D03*
X016651Y000651D03*
X017651Y000651D03*
X018651Y000651D03*
X019651Y000651D03*
X019651Y006651D03*
X018651Y006651D03*
X017651Y006651D03*
X016651Y006651D03*
X015651Y006651D03*
X014651Y006651D03*
X013651Y006651D03*
X012651Y006651D03*
X011651Y006651D03*
X010651Y006651D03*
X009651Y006651D03*
X008651Y006651D03*
X007651Y006651D03*
X006651Y006651D03*
X005651Y006651D03*
X004651Y006651D03*
X003651Y006651D03*
X002651Y006651D03*
X001651Y006651D03*
X000651Y006651D03*
X000651Y005651D03*
X000651Y004651D03*
X000651Y003651D03*
X000651Y002651D03*
X000651Y001651D03*
M02*
