%
M48
M72
T01C0.0150
T02C0.0320
T03C0.0354
T04C0.0400
%
T01
X15920Y23040
X17420Y23620
X18740Y23040
X20760Y23740
X22040Y24720
X22040Y25140
X22040Y25540
X20460Y25300
X19040Y24980
X17900Y25640
X18840Y25940
X18760Y27000
X17900Y27200
X15220Y27020
X14800Y27180
X14320Y27180
X13480Y27000
X12860Y26260
X13460Y25640
X13720Y25260
X14520Y25300
X14720Y24580
X14840Y24200
X12880Y24280
X11980Y24300
X11540Y24940
X11260Y25280
X10980Y25540
X10640Y25320
X9840Y25680
X9820Y26360
X10400Y26860
X11620Y26160
X11980Y26360
X12260Y25120
X10080Y24640
X9660Y24960
X8320Y25880
X7400Y26840
X6260Y27100
X4940Y26880
X4300Y26500
X5000Y25800
X5580Y25880
X10840Y23360
X16200Y25660
X20940Y27520
T02
X6700Y24380
X6700Y23380
T03
X20760Y24611
X20760Y25989
T04
X3260Y22300
X4260Y22300
X5260Y22300
X6260Y22300
X7260Y22300
X8260Y22300
X9260Y22300
X10260Y22300
X11260Y22300
X12260Y22300
X13260Y22300
X14260Y22300
X15260Y22300
X16260Y22300
X17260Y22300
X18260Y22300
X19260Y22300
X20260Y22300
X21260Y22300
X22260Y22300
X22260Y28300
X21260Y28300
X20260Y28300
X19260Y28300
X18260Y28300
X17260Y28300
X16260Y28300
X15260Y28300
X14260Y28300
X13260Y28300
X12260Y28300
X11260Y28300
X10260Y28300
X9260Y28300
X8260Y28300
X7260Y28300
X6260Y28300
X5260Y28300
X4260Y28300
X3260Y28300
X3260Y27300
X3260Y26300
X3260Y25300
X3260Y24300
X3260Y23300
M30
