G75*
G70*
%OFA0B0*%
%FSLAX24Y24*%
%IPPOS*%
%LPD*%
%AMOC8*
5,1,8,0,0,1.08239X$1,22.5*
%
%ADD10C,0.0740*%
%ADD11R,0.0740X0.0740*%
%ADD12C,0.0660*%
%ADD13C,0.0080*%
%ADD14C,0.0270*%
%ADD15C,0.0100*%
%ADD16C,0.0160*%
D10*
X002196Y018300D03*
X003196Y018300D03*
X004196Y018300D03*
X005196Y018300D03*
X006196Y018300D03*
X007196Y018300D03*
X008196Y018300D03*
X009196Y018300D03*
X010196Y018300D03*
X011196Y018300D03*
X012196Y018300D03*
X013196Y018300D03*
X014196Y018300D03*
X015196Y018300D03*
X016196Y018300D03*
X017196Y018300D03*
X018196Y018300D03*
X019196Y018300D03*
X020196Y018300D03*
X021196Y018300D03*
X022196Y018300D03*
X023196Y018300D03*
X024196Y018300D03*
X025196Y018300D03*
X026196Y018300D03*
X027196Y018300D03*
X028196Y018300D03*
X029196Y018300D03*
X028196Y027300D03*
X027196Y027300D03*
X026196Y027300D03*
X025196Y027300D03*
X024196Y027300D03*
X023196Y027300D03*
X022196Y027300D03*
X021196Y027300D03*
X020196Y027300D03*
X019196Y027300D03*
X018196Y027300D03*
X017196Y027300D03*
X016196Y027300D03*
X015196Y027300D03*
X014196Y027300D03*
X013196Y027300D03*
X012196Y027300D03*
X011196Y027300D03*
X010196Y027300D03*
X009196Y027300D03*
X008196Y027300D03*
X007196Y027300D03*
X006196Y027300D03*
X005196Y027300D03*
X004196Y027300D03*
X003196Y027300D03*
X002196Y027300D03*
D11*
X029196Y027300D03*
D12*
X021696Y026050D03*
X021696Y025050D03*
D13*
X020946Y025050D01*
X020196Y025800D01*
X020196Y027300D01*
X021196Y027300D02*
X021696Y026800D01*
X021696Y026050D01*
X022336Y026440D02*
X023196Y027300D01*
X023696Y026800D02*
X024196Y027300D01*
X024176Y027280D01*
X023696Y026800D02*
X022936Y026800D01*
X022496Y026360D01*
X022496Y024680D01*
X021536Y023720D01*
X018406Y023720D01*
X017776Y023090D01*
X018256Y023080D02*
X018736Y023560D01*
X021616Y023560D01*
X022656Y024600D01*
X022656Y026280D01*
X023016Y026640D01*
X024536Y026640D01*
X025196Y027300D01*
X025376Y026480D02*
X026196Y027300D01*
X026696Y026300D02*
X026696Y022800D01*
X025731Y022800D01*
X025731Y022937D01*
X025593Y023075D01*
X025398Y023075D01*
X025261Y022937D01*
X025261Y022803D01*
X025258Y022800D01*
X022696Y022800D01*
X022696Y024202D01*
X022874Y024380D01*
X022956Y024462D01*
X022956Y026142D01*
X023114Y026300D01*
X026696Y026300D01*
X026696Y026278D02*
X023092Y026278D01*
X023013Y026200D02*
X026696Y026200D01*
X026696Y026121D02*
X022956Y026121D01*
X022956Y026043D02*
X026696Y026043D01*
X026696Y025964D02*
X022956Y025964D01*
X022956Y025886D02*
X026696Y025886D01*
X026696Y025807D02*
X022956Y025807D01*
X022956Y025729D02*
X026696Y025729D01*
X026696Y025650D02*
X022956Y025650D01*
X022956Y025572D02*
X026696Y025572D01*
X026696Y025493D02*
X022956Y025493D01*
X022956Y025415D02*
X026696Y025415D01*
X026696Y025336D02*
X022956Y025336D01*
X022956Y025258D02*
X026696Y025258D01*
X026696Y025179D02*
X022956Y025179D01*
X022956Y025101D02*
X026696Y025101D01*
X026696Y025022D02*
X022956Y025022D01*
X022956Y024944D02*
X026696Y024944D01*
X026696Y024865D02*
X022956Y024865D01*
X022956Y024787D02*
X026696Y024787D01*
X026696Y024708D02*
X022956Y024708D01*
X022956Y024630D02*
X026696Y024630D01*
X026696Y024551D02*
X022956Y024551D01*
X022956Y024473D02*
X026696Y024473D01*
X026696Y024394D02*
X022888Y024394D01*
X022809Y024316D02*
X026696Y024316D01*
X026696Y024237D02*
X022731Y024237D01*
X022696Y024159D02*
X026696Y024159D01*
X026696Y024080D02*
X022696Y024080D01*
X022696Y024002D02*
X026696Y024002D01*
X026696Y023923D02*
X022696Y023923D01*
X022696Y023845D02*
X026696Y023845D01*
X026696Y023766D02*
X022696Y023766D01*
X022696Y023688D02*
X026696Y023688D01*
X026696Y023609D02*
X022696Y023609D01*
X022696Y023531D02*
X026696Y023531D01*
X026696Y023452D02*
X022696Y023452D01*
X022696Y023374D02*
X026696Y023374D01*
X026696Y023295D02*
X022696Y023295D01*
X022696Y023217D02*
X026696Y023217D01*
X026696Y023138D02*
X022696Y023138D01*
X022696Y023060D02*
X025383Y023060D01*
X025304Y022981D02*
X022696Y022981D01*
X022696Y022903D02*
X025261Y022903D01*
X025261Y022824D02*
X022696Y022824D01*
X021696Y023400D02*
X022816Y024520D01*
X022816Y026200D01*
X023096Y026480D01*
X025376Y026480D01*
X022336Y026440D02*
X022336Y024760D01*
X021456Y023880D01*
X018026Y023880D01*
X017746Y023600D01*
X017376Y023850D02*
X017566Y024040D01*
X021376Y024040D01*
X022176Y024840D01*
X022176Y027280D01*
X022196Y027300D01*
X018976Y024960D02*
X018136Y025800D01*
X016536Y025800D01*
X016256Y024520D02*
X014016Y026760D01*
X009736Y026760D01*
X009196Y027300D01*
X011296Y026120D02*
X005936Y026120D01*
X005376Y025560D01*
X005056Y026440D02*
X004196Y027300D01*
X003196Y027300D02*
X004216Y026280D01*
X011616Y026280D01*
X012216Y025680D01*
X012216Y025120D01*
X012256Y025080D01*
X011936Y024760D01*
X010976Y024760D01*
X010656Y025080D01*
X010416Y025080D01*
X011716Y025140D02*
X011716Y025700D01*
X011296Y026120D01*
X011696Y026440D02*
X005056Y026440D01*
X005896Y026600D02*
X005196Y027300D01*
X005896Y026600D02*
X011776Y026600D01*
X014456Y023920D01*
X015216Y023920D01*
X015536Y023600D01*
X015056Y023600D02*
X014536Y023600D01*
X011696Y026440D01*
X011716Y025140D02*
X011776Y025080D01*
X011456Y023800D02*
X006096Y023800D01*
X005196Y022900D01*
X004536Y022460D02*
X006196Y020800D01*
X006196Y020300D01*
X006696Y019800D01*
X009736Y019800D01*
X011216Y021280D01*
X011216Y023320D01*
X011616Y022920D01*
X016736Y022920D01*
X016336Y023400D02*
X016016Y023080D01*
X011936Y023080D01*
X011376Y023640D01*
X011056Y023640D01*
X010896Y023480D01*
X010896Y021510D01*
X009936Y020550D01*
X010496Y019320D02*
X010336Y019160D01*
X009536Y019160D01*
X009376Y019000D01*
X008656Y019000D01*
X008496Y018840D01*
X007736Y018840D01*
X007196Y018300D01*
X008196Y018300D02*
X008736Y018840D01*
X009456Y018840D01*
X009616Y019000D01*
X010416Y019000D01*
X010576Y019160D01*
X011296Y019160D01*
X013616Y021480D01*
X013856Y021480D01*
X013996Y021160D02*
X013536Y021160D01*
X011376Y019000D01*
X010656Y019000D01*
X010496Y018840D01*
X009736Y018840D01*
X009196Y018300D01*
X010196Y018300D02*
X010736Y018840D01*
X011456Y018840D01*
X013616Y021000D01*
X014076Y021000D01*
X015116Y022040D01*
X015536Y022040D01*
X015856Y021720D01*
X015776Y022040D02*
X016256Y022040D01*
X015936Y022360D02*
X014556Y022360D01*
X013996Y021800D01*
X013696Y021800D01*
X011216Y019320D01*
X010496Y019320D01*
X011196Y018300D02*
X013736Y020840D01*
X014146Y020840D01*
X015026Y021720D01*
X015376Y021720D01*
X015776Y022040D02*
X015616Y022200D01*
X015036Y022200D01*
X013996Y021160D01*
X014796Y020150D02*
X015046Y020400D01*
X015596Y020400D01*
X015796Y020200D01*
X015796Y018710D01*
X016196Y018310D01*
X016196Y018300D01*
X015216Y018320D02*
X015196Y018300D01*
X015216Y018320D02*
X015216Y019880D01*
X017376Y020120D02*
X017376Y021080D01*
X017376Y020120D02*
X018656Y018840D01*
X023656Y018840D01*
X024196Y018300D01*
X022696Y020800D02*
X022696Y021300D01*
X026196Y021300D01*
X027656Y022760D01*
X027696Y022760D01*
X026696Y022824D02*
X025731Y022824D01*
X025731Y022903D02*
X026696Y022903D01*
X026696Y022981D02*
X025687Y022981D01*
X025609Y023060D02*
X026696Y023060D01*
X025776Y022440D02*
X020386Y022440D01*
X020116Y022170D01*
X020016Y022600D02*
X019616Y022200D01*
X020016Y022600D02*
X025256Y022600D01*
X025496Y022840D01*
X025616Y021800D02*
X025356Y021540D01*
X019496Y021540D01*
X019920Y021204D02*
X020016Y021300D01*
X022696Y021300D01*
X019616Y023400D02*
X019456Y023240D01*
X019616Y023400D02*
X021696Y023400D01*
X013056Y023400D02*
X011856Y023400D01*
X011456Y023800D01*
X010016Y023320D02*
X010016Y023160D01*
X010016Y022440D02*
X010016Y022280D01*
X012976Y023960D02*
X013056Y023880D01*
X012976Y023960D02*
X005116Y023960D01*
X004447Y024629D01*
X004024Y024629D01*
X003696Y024300D01*
X003696Y018800D01*
X004196Y018300D01*
X003196Y018300D02*
X002696Y018800D01*
X002696Y023300D01*
D14*
X002696Y023300D03*
X004556Y023330D03*
X005196Y022900D03*
X004536Y022460D03*
X004447Y024629D03*
X005376Y025560D03*
X010416Y025080D03*
X011776Y025080D03*
X012256Y025080D03*
X013056Y023880D03*
X013056Y023400D03*
X011216Y023320D03*
X010016Y023320D03*
X010016Y022280D03*
X012536Y022280D03*
X013856Y021480D03*
X015376Y021720D03*
X015856Y021720D03*
X016256Y022040D03*
X015936Y022360D03*
X016736Y022920D03*
X016336Y023400D03*
X017376Y023850D03*
X017746Y023600D03*
X017776Y023090D03*
X018256Y023080D03*
X019456Y023240D03*
X019616Y022200D03*
X020116Y022170D03*
X019496Y021540D03*
X019920Y021204D03*
X018376Y022280D03*
X017376Y021080D03*
X015216Y019880D03*
X014796Y020150D03*
X014846Y019540D03*
X009936Y020550D03*
X006196Y020300D03*
X014656Y025280D03*
X016256Y024520D03*
X015536Y023600D03*
X015056Y023600D03*
X016536Y025800D03*
X018976Y024960D03*
X022356Y023300D03*
X024196Y023200D03*
X024816Y023200D03*
X025376Y023200D03*
X025496Y022840D03*
X025776Y022440D03*
X025616Y021800D03*
X027696Y022760D03*
X025396Y024720D03*
X024816Y024720D03*
X024046Y024720D03*
X028196Y025300D03*
X022696Y020800D03*
X024016Y020280D03*
X025556Y020300D03*
X020376Y019800D03*
D15*
X019976Y020919D02*
X020081Y020962D01*
X020161Y021042D01*
X020189Y021110D01*
X022506Y021110D01*
X022506Y021013D01*
X022454Y020961D01*
X022411Y020857D01*
X022411Y020743D01*
X022454Y020639D01*
X022534Y020558D01*
X022639Y020515D01*
X022752Y020515D01*
X022857Y020558D01*
X022937Y020639D01*
X022981Y020743D01*
X022981Y020857D01*
X022937Y020961D01*
X022886Y021013D01*
X022886Y021110D01*
X026274Y021110D01*
X026386Y021221D01*
X027181Y022016D01*
X027218Y021926D01*
X027310Y021834D01*
X027431Y021784D01*
X027561Y021784D01*
X027681Y021834D01*
X027773Y021926D01*
X027823Y022046D01*
X027823Y022176D01*
X027773Y022296D01*
X027681Y022388D01*
X027590Y022426D01*
X027639Y022475D01*
X027752Y022475D01*
X027857Y022518D01*
X027937Y022599D01*
X027981Y022703D01*
X027981Y022817D01*
X027937Y022921D01*
X027857Y023002D01*
X027752Y023045D01*
X027639Y023045D01*
X027534Y023002D01*
X027454Y022921D01*
X027411Y022817D01*
X027411Y022784D01*
X026117Y021490D01*
X025574Y021490D01*
X025599Y021515D01*
X025672Y021515D01*
X025777Y021558D01*
X025857Y021639D01*
X025901Y021743D01*
X025901Y021857D01*
X025857Y021961D01*
X025777Y022042D01*
X025672Y022085D01*
X025559Y022085D01*
X025454Y022042D01*
X025374Y021961D01*
X025331Y021857D01*
X025331Y021784D01*
X025277Y021730D01*
X019709Y021730D01*
X019657Y021782D01*
X019552Y021825D01*
X019439Y021825D01*
X019334Y021782D01*
X019254Y021701D01*
X019211Y021597D01*
X019211Y021483D01*
X019254Y021379D01*
X019334Y021298D01*
X019439Y021255D01*
X019552Y021255D01*
X019649Y021295D01*
X019635Y021261D01*
X019635Y021147D01*
X019678Y021042D01*
X019758Y020962D01*
X019863Y020919D01*
X019976Y020919D01*
X020056Y020952D02*
X022450Y020952D01*
X022411Y020854D02*
X017566Y020854D01*
X017566Y020867D02*
X017617Y020919D01*
X017661Y021023D01*
X017661Y021137D01*
X017617Y021241D01*
X017537Y021322D01*
X017432Y021365D01*
X017319Y021365D01*
X017214Y021322D01*
X017134Y021241D01*
X017091Y021137D01*
X017091Y021023D01*
X017134Y020919D01*
X017186Y020867D01*
X017186Y020041D01*
X017297Y019930D01*
X018466Y018761D01*
X018483Y018744D01*
X018299Y018820D01*
X018092Y018820D01*
X017901Y018741D01*
X017755Y018595D01*
X017696Y018452D01*
X017637Y018595D01*
X017490Y018741D01*
X017299Y018820D01*
X017092Y018820D01*
X016901Y018741D01*
X016755Y018595D01*
X016696Y018452D01*
X016637Y018595D01*
X016490Y018741D01*
X016299Y018820D01*
X016092Y018820D01*
X015995Y018780D01*
X015986Y018789D01*
X015986Y020279D01*
X015786Y020479D01*
X015674Y020590D01*
X014967Y020590D01*
X014812Y020435D01*
X014739Y020435D01*
X014634Y020392D01*
X014554Y020311D01*
X014511Y020207D01*
X014511Y020093D01*
X014554Y019989D01*
X014634Y019908D01*
X014739Y019865D01*
X014852Y019865D01*
X014931Y019897D01*
X014931Y019823D01*
X014974Y019719D01*
X015026Y019667D01*
X015026Y018792D01*
X014901Y018741D01*
X014755Y018595D01*
X014696Y018452D01*
X014637Y018595D01*
X014490Y018741D01*
X014299Y018820D01*
X014092Y018820D01*
X013901Y018741D01*
X013755Y018595D01*
X013694Y018448D01*
X013678Y018500D01*
X013640Y018573D01*
X013592Y018639D01*
X013534Y018697D01*
X013468Y018745D01*
X013395Y018782D01*
X013317Y018807D01*
X013246Y018819D01*
X013246Y018350D01*
X013146Y018350D01*
X013146Y018819D01*
X013074Y018807D01*
X012996Y018782D01*
X012923Y018745D01*
X012857Y018697D01*
X012799Y018639D01*
X012751Y018573D01*
X012714Y018500D01*
X012697Y018448D01*
X012637Y018595D01*
X012490Y018741D01*
X012299Y018820D01*
X012092Y018820D01*
X011908Y018744D01*
X013814Y020650D01*
X014224Y020650D01*
X015104Y021530D01*
X015163Y021530D01*
X015214Y021478D01*
X015319Y021435D01*
X015432Y021435D01*
X015537Y021478D01*
X015616Y021557D01*
X015694Y021478D01*
X015799Y021435D01*
X015912Y021435D01*
X016017Y021478D01*
X016097Y021559D01*
X016141Y021663D01*
X016141Y021777D01*
X016139Y021780D01*
X016199Y021755D01*
X016312Y021755D01*
X016417Y021798D01*
X016497Y021879D01*
X016541Y021983D01*
X016541Y022097D01*
X016497Y022201D01*
X016417Y022282D01*
X016312Y022325D01*
X016221Y022325D01*
X016221Y022417D01*
X016177Y022521D01*
X016097Y022602D01*
X015992Y022645D01*
X015879Y022645D01*
X015774Y022602D01*
X015723Y022550D01*
X014634Y022550D01*
X014477Y022550D01*
X013917Y021990D01*
X013617Y021990D01*
X011137Y019510D01*
X010417Y019510D01*
X010257Y019350D01*
X009457Y019350D01*
X009297Y019190D01*
X008577Y019190D01*
X008417Y019030D01*
X007657Y019030D01*
X007404Y018777D01*
X007299Y018820D01*
X007092Y018820D01*
X006901Y018741D01*
X006755Y018595D01*
X006696Y018452D01*
X006637Y018595D01*
X006490Y018741D01*
X006299Y018820D01*
X006092Y018820D01*
X005901Y018741D01*
X005755Y018595D01*
X005696Y018452D01*
X005637Y018595D01*
X005490Y018741D01*
X005299Y018820D01*
X005092Y018820D01*
X004901Y018741D01*
X004755Y018595D01*
X004696Y018452D01*
X004637Y018595D01*
X004490Y018741D01*
X004299Y018820D01*
X004092Y018820D01*
X003988Y018777D01*
X003886Y018879D01*
X003886Y024221D01*
X004103Y024439D01*
X004234Y024439D01*
X004286Y024387D01*
X004390Y024344D01*
X004463Y024344D01*
X004926Y023881D01*
X005037Y023770D01*
X005797Y023770D01*
X005212Y023185D01*
X005139Y023185D01*
X005034Y023142D01*
X004954Y023061D01*
X004911Y022957D01*
X004911Y022843D01*
X004954Y022739D01*
X005034Y022658D01*
X005139Y022615D01*
X005252Y022615D01*
X005357Y022658D01*
X005437Y022739D01*
X005481Y022843D01*
X005481Y022916D01*
X006174Y023610D01*
X010757Y023610D01*
X010706Y023559D01*
X010706Y021589D01*
X009952Y020835D01*
X009879Y020835D01*
X009774Y020792D01*
X009694Y020711D01*
X009651Y020607D01*
X009651Y020493D01*
X009694Y020389D01*
X009774Y020308D01*
X009879Y020265D01*
X009932Y020265D01*
X009657Y019990D01*
X006774Y019990D01*
X006481Y020284D01*
X006481Y020357D01*
X006437Y020461D01*
X006386Y020513D01*
X006386Y020879D01*
X004821Y022444D01*
X004821Y022517D01*
X004777Y022621D01*
X004697Y022702D01*
X004592Y022745D01*
X004479Y022745D01*
X004374Y022702D01*
X004294Y022621D01*
X004251Y022517D01*
X004251Y022403D01*
X004294Y022299D01*
X004374Y022218D01*
X004479Y022175D01*
X004552Y022175D01*
X006006Y020721D01*
X006006Y020513D01*
X005954Y020461D01*
X005911Y020357D01*
X005911Y020243D01*
X005954Y020139D01*
X006034Y020058D01*
X006139Y020015D01*
X006212Y020015D01*
X006506Y019721D01*
X006617Y019610D01*
X009814Y019610D01*
X011406Y021201D01*
X011406Y022861D01*
X011537Y022730D01*
X016523Y022730D01*
X016574Y022678D01*
X016679Y022635D01*
X016792Y022635D01*
X016897Y022678D01*
X016977Y022759D01*
X017021Y022863D01*
X017021Y022977D01*
X016977Y023081D01*
X016897Y023162D01*
X016792Y023205D01*
X016679Y023205D01*
X016574Y023162D01*
X016523Y023110D01*
X016314Y023110D01*
X016319Y023115D01*
X016392Y023115D01*
X016497Y023158D01*
X016577Y023239D01*
X016621Y023343D01*
X016621Y023457D01*
X016577Y023561D01*
X016497Y023642D01*
X016392Y023685D01*
X016279Y023685D01*
X016174Y023642D01*
X016094Y023561D01*
X016051Y023457D01*
X016051Y023384D01*
X015937Y023270D01*
X013310Y023270D01*
X013341Y023343D01*
X013341Y023457D01*
X013297Y023561D01*
X013219Y023640D01*
X013297Y023719D01*
X013341Y023823D01*
X013341Y023937D01*
X013297Y024041D01*
X013217Y024122D01*
X013112Y024165D01*
X012999Y024165D01*
X012963Y024150D01*
X005194Y024150D01*
X004732Y024612D01*
X004732Y024685D01*
X004689Y024790D01*
X004608Y024870D01*
X004504Y024914D01*
X004390Y024914D01*
X004286Y024870D01*
X004234Y024819D01*
X003946Y024819D01*
X003617Y024490D01*
X003506Y024379D01*
X003506Y018725D01*
X003490Y018741D01*
X003299Y018820D01*
X003092Y018820D01*
X002988Y018777D01*
X002886Y018879D01*
X002886Y023087D01*
X002937Y023139D01*
X002981Y023243D01*
X002981Y023357D01*
X002937Y023461D01*
X002857Y023542D01*
X002752Y023585D01*
X002639Y023585D01*
X002534Y023542D01*
X002454Y023461D01*
X002411Y023357D01*
X002411Y023243D01*
X002454Y023139D01*
X002506Y023087D01*
X002506Y018725D01*
X002490Y018741D01*
X002299Y018820D01*
X002092Y018820D01*
X001901Y018741D01*
X001846Y018685D01*
X001846Y026915D01*
X001901Y026859D01*
X002092Y026780D01*
X002299Y026780D01*
X002490Y026859D01*
X002637Y027005D01*
X002696Y027148D01*
X002755Y027005D01*
X002901Y026859D01*
X003092Y026780D01*
X003299Y026780D01*
X003404Y026823D01*
X004137Y026090D01*
X005637Y026090D01*
X005392Y025845D01*
X005319Y025845D01*
X005214Y025802D01*
X005134Y025721D01*
X005091Y025617D01*
X005091Y025503D01*
X005134Y025399D01*
X005214Y025318D01*
X005319Y025275D01*
X005432Y025275D01*
X005537Y025318D01*
X005617Y025399D01*
X005661Y025503D01*
X005661Y025576D01*
X006014Y025930D01*
X011217Y025930D01*
X011526Y025621D01*
X011526Y025221D01*
X011491Y025137D01*
X011491Y025023D01*
X011521Y024950D01*
X011054Y024950D01*
X010734Y025270D01*
X010629Y025270D01*
X010577Y025322D01*
X010472Y025365D01*
X010359Y025365D01*
X010254Y025322D01*
X010174Y025241D01*
X010131Y025137D01*
X010131Y025023D01*
X010174Y024919D01*
X010254Y024838D01*
X010359Y024795D01*
X010472Y024795D01*
X010577Y024838D01*
X010603Y024864D01*
X010786Y024681D01*
X010897Y024570D01*
X012014Y024570D01*
X012239Y024795D01*
X012312Y024795D01*
X012417Y024838D01*
X012497Y024919D01*
X012541Y025023D01*
X012541Y025137D01*
X012497Y025241D01*
X012417Y025322D01*
X012406Y025326D01*
X012406Y025461D01*
X014457Y023410D01*
X014843Y023410D01*
X014894Y023358D01*
X014999Y023315D01*
X015112Y023315D01*
X015217Y023358D01*
X015296Y023437D01*
X015374Y023358D01*
X015479Y023315D01*
X015592Y023315D01*
X015697Y023358D01*
X015777Y023439D01*
X015821Y023543D01*
X015821Y023657D01*
X015777Y023761D01*
X015697Y023842D01*
X015592Y023885D01*
X015519Y023885D01*
X015406Y023999D01*
X015294Y024110D01*
X014534Y024110D01*
X012074Y026570D01*
X013937Y026570D01*
X015971Y024536D01*
X015971Y024463D01*
X016014Y024359D01*
X016094Y024278D01*
X016199Y024235D01*
X016312Y024235D01*
X016417Y024278D01*
X016497Y024359D01*
X016541Y024463D01*
X016541Y024577D01*
X016497Y024681D01*
X016417Y024762D01*
X016312Y024805D01*
X016239Y024805D01*
X014264Y026780D01*
X014299Y026780D01*
X014490Y026859D01*
X014637Y027005D01*
X014696Y027148D01*
X014755Y027005D01*
X014901Y026859D01*
X015092Y026780D01*
X015299Y026780D01*
X015490Y026859D01*
X015637Y027005D01*
X015696Y027148D01*
X015755Y027005D01*
X015901Y026859D01*
X016092Y026780D01*
X016299Y026780D01*
X016490Y026859D01*
X016637Y027005D01*
X016696Y027148D01*
X016755Y027005D01*
X016901Y026859D01*
X017092Y026780D01*
X017299Y026780D01*
X017490Y026859D01*
X017637Y027005D01*
X017696Y027148D01*
X017755Y027005D01*
X017901Y026859D01*
X018092Y026780D01*
X018299Y026780D01*
X018490Y026859D01*
X018637Y027005D01*
X018696Y027148D01*
X018755Y027005D01*
X018901Y026859D01*
X019092Y026780D01*
X019299Y026780D01*
X019490Y026859D01*
X019637Y027005D01*
X019696Y027148D01*
X019755Y027005D01*
X019901Y026859D01*
X020006Y026816D01*
X020006Y025721D01*
X020117Y025610D01*
X020867Y024860D01*
X021255Y024860D01*
X021289Y024778D01*
X021424Y024643D01*
X021600Y024570D01*
X021637Y024570D01*
X021297Y024230D01*
X017487Y024230D01*
X017392Y024135D01*
X017319Y024135D01*
X017214Y024092D01*
X017134Y024011D01*
X017091Y023907D01*
X015497Y023907D01*
X015399Y024006D02*
X017132Y024006D01*
X017091Y023907D02*
X017091Y023793D01*
X017134Y023689D01*
X017214Y023608D01*
X017319Y023565D01*
X017432Y023565D01*
X017461Y023577D01*
X017461Y023543D01*
X017504Y023439D01*
X017584Y023358D01*
X017632Y023339D01*
X017614Y023332D01*
X017534Y023251D01*
X017491Y023147D01*
X017491Y023033D01*
X017534Y022929D01*
X017614Y022848D01*
X017719Y022805D01*
X017832Y022805D01*
X017937Y022848D01*
X018012Y022923D01*
X018014Y022919D01*
X018094Y022838D01*
X018199Y022795D01*
X018312Y022795D01*
X018417Y022838D01*
X018497Y022919D01*
X018541Y023023D01*
X018541Y023096D01*
X018814Y023370D01*
X019201Y023370D01*
X019171Y023297D01*
X019171Y023183D01*
X019214Y023079D01*
X019294Y022998D01*
X019399Y022955D01*
X019512Y022955D01*
X019617Y022998D01*
X019697Y023079D01*
X019741Y023183D01*
X019741Y023210D01*
X021774Y023210D01*
X022506Y023941D01*
X022506Y022790D01*
X019937Y022790D01*
X019632Y022485D01*
X019559Y022485D01*
X019454Y022442D01*
X019374Y022361D01*
X019331Y022257D01*
X019331Y022143D01*
X019374Y022039D01*
X019454Y021958D01*
X019559Y021915D01*
X019672Y021915D01*
X019777Y021958D01*
X019857Y022039D01*
X019859Y022044D01*
X019874Y022009D01*
X019954Y021928D01*
X020059Y021885D01*
X020172Y021885D01*
X020277Y021928D01*
X020357Y022009D01*
X020401Y022113D01*
X020401Y022186D01*
X020464Y022250D01*
X025563Y022250D01*
X025614Y022198D01*
X025719Y022155D01*
X025832Y022155D01*
X025937Y022198D01*
X026017Y022279D01*
X026061Y022383D01*
X026061Y022497D01*
X026017Y022601D01*
X026009Y022610D01*
X026774Y022610D01*
X026886Y022721D01*
X026886Y025070D01*
X028023Y025070D01*
X028034Y025058D01*
X028139Y025015D01*
X028252Y025015D01*
X028357Y025058D01*
X028437Y025139D01*
X028481Y025243D01*
X028481Y025357D01*
X028437Y025461D01*
X028357Y025542D01*
X028252Y025585D01*
X028139Y025585D01*
X028034Y025542D01*
X028023Y025530D01*
X026886Y025530D01*
X026886Y026379D01*
X026774Y026490D01*
X025654Y026490D01*
X025988Y026823D01*
X026092Y026780D01*
X026299Y026780D01*
X026490Y026859D01*
X026637Y027005D01*
X026697Y027152D01*
X026714Y027100D01*
X026751Y027027D01*
X026799Y026961D01*
X026857Y026903D01*
X026923Y026855D01*
X026996Y026818D01*
X027074Y026793D01*
X027146Y026781D01*
X027146Y027250D01*
X027246Y027250D01*
X027246Y026781D01*
X027317Y026793D01*
X027395Y026818D01*
X027468Y026855D01*
X027534Y026903D01*
X027592Y026961D01*
X027640Y027027D01*
X027678Y027100D01*
X027694Y027152D01*
X027755Y027005D01*
X027901Y026859D01*
X028092Y026780D01*
X028299Y026780D01*
X028490Y026859D01*
X028637Y027005D01*
X028676Y027100D01*
X028676Y026868D01*
X028764Y026780D01*
X029546Y026780D01*
X029546Y018685D01*
X029490Y018741D01*
X029299Y018820D01*
X029092Y018820D01*
X029028Y018793D01*
X027291Y020530D01*
X025729Y020530D01*
X025717Y020542D01*
X025612Y020585D01*
X025499Y020585D01*
X025394Y020542D01*
X025314Y020461D01*
X025271Y020357D01*
X025271Y020243D01*
X025314Y020139D01*
X025394Y020058D01*
X025499Y020015D01*
X025612Y020015D01*
X025717Y020058D01*
X025729Y020070D01*
X027100Y020070D01*
X028387Y018784D01*
X028299Y018820D01*
X028092Y018820D01*
X027901Y018741D01*
X027755Y018595D01*
X027694Y018448D01*
X027678Y018500D01*
X027640Y018573D01*
X027592Y018639D01*
X027534Y018697D01*
X027468Y018745D01*
X027395Y018782D01*
X027317Y018807D01*
X027246Y018819D01*
X027246Y018350D01*
X027146Y018350D01*
X027146Y018819D01*
X027074Y018807D01*
X026996Y018782D01*
X026923Y018745D01*
X026857Y018697D01*
X026799Y018639D01*
X026751Y018573D01*
X026714Y018500D01*
X026697Y018448D01*
X026637Y018595D01*
X026490Y018741D01*
X026299Y018820D01*
X026092Y018820D01*
X025901Y018741D01*
X025755Y018595D01*
X025696Y018452D01*
X025637Y018595D01*
X025490Y018741D01*
X025299Y018820D01*
X025092Y018820D01*
X024901Y018741D01*
X024755Y018595D01*
X024696Y018452D01*
X024637Y018595D01*
X024490Y018741D01*
X024299Y018820D01*
X024092Y018820D01*
X023988Y018777D01*
X023734Y019030D01*
X018734Y019030D01*
X017566Y020199D01*
X017566Y020867D01*
X017631Y020952D02*
X019783Y020952D01*
X019675Y021051D02*
X017661Y021051D01*
X017656Y021149D02*
X019635Y021149D01*
X019635Y021248D02*
X017611Y021248D01*
X017478Y021346D02*
X019287Y021346D01*
X019227Y021445D02*
X015935Y021445D01*
X015776Y021445D02*
X015455Y021445D01*
X015296Y021445D02*
X015019Y021445D01*
X014920Y021346D02*
X017273Y021346D01*
X017140Y021248D02*
X014822Y021248D01*
X014723Y021149D02*
X017096Y021149D01*
X017091Y021051D02*
X014625Y021051D01*
X014526Y020952D02*
X017120Y020952D01*
X017186Y020854D02*
X014428Y020854D01*
X014329Y020755D02*
X017186Y020755D01*
X017186Y020657D02*
X014231Y020657D01*
X014604Y020361D02*
X013525Y020361D01*
X013427Y020263D02*
X014534Y020263D01*
X014511Y020164D02*
X013328Y020164D01*
X013230Y020066D02*
X014522Y020066D01*
X014576Y019967D02*
X013131Y019967D01*
X013033Y019869D02*
X014731Y019869D01*
X014861Y019869D02*
X014931Y019869D01*
X014953Y019770D02*
X012934Y019770D01*
X012836Y019672D02*
X015021Y019672D01*
X015026Y019573D02*
X012737Y019573D01*
X012639Y019475D02*
X015026Y019475D01*
X015026Y019376D02*
X012540Y019376D01*
X012442Y019278D02*
X015026Y019278D01*
X015026Y019179D02*
X012343Y019179D01*
X012245Y019081D02*
X015026Y019081D01*
X015026Y018982D02*
X012146Y018982D01*
X012048Y018884D02*
X015026Y018884D01*
X015008Y018785D02*
X014384Y018785D01*
X014545Y018687D02*
X014847Y018687D01*
X014752Y018588D02*
X014639Y018588D01*
X014680Y018490D02*
X014711Y018490D01*
X014008Y018785D02*
X013386Y018785D01*
X013246Y018785D02*
X013146Y018785D01*
X013146Y018687D02*
X013246Y018687D01*
X013246Y018588D02*
X013146Y018588D01*
X013146Y018490D02*
X013246Y018490D01*
X013246Y018391D02*
X013146Y018391D01*
X013006Y018785D02*
X012384Y018785D01*
X012545Y018687D02*
X012847Y018687D01*
X012762Y018588D02*
X012639Y018588D01*
X012680Y018490D02*
X012711Y018490D01*
X012008Y018785D02*
X011949Y018785D01*
X013545Y018687D02*
X013847Y018687D01*
X013752Y018588D02*
X013629Y018588D01*
X013681Y018490D02*
X013711Y018490D01*
X015989Y018785D02*
X016008Y018785D01*
X015986Y018884D02*
X018344Y018884D01*
X018384Y018785D02*
X018442Y018785D01*
X018245Y018982D02*
X015986Y018982D01*
X015986Y019081D02*
X018147Y019081D01*
X018048Y019179D02*
X015986Y019179D01*
X015986Y019278D02*
X017950Y019278D01*
X017851Y019376D02*
X015986Y019376D01*
X015986Y019475D02*
X017753Y019475D01*
X017654Y019573D02*
X015986Y019573D01*
X015986Y019672D02*
X017556Y019672D01*
X017457Y019770D02*
X015986Y019770D01*
X015986Y019869D02*
X017359Y019869D01*
X017260Y019967D02*
X015986Y019967D01*
X015986Y020066D02*
X017186Y020066D01*
X017186Y020164D02*
X015986Y020164D01*
X015986Y020263D02*
X017186Y020263D01*
X017186Y020361D02*
X015903Y020361D01*
X015805Y020460D02*
X017186Y020460D01*
X017186Y020558D02*
X015706Y020558D01*
X014935Y020558D02*
X013722Y020558D01*
X013624Y020460D02*
X014837Y020460D01*
X015602Y021543D02*
X015630Y021543D01*
X016082Y021543D02*
X019211Y021543D01*
X019229Y021642D02*
X016132Y021642D01*
X016141Y021740D02*
X019293Y021740D01*
X019506Y021937D02*
X016522Y021937D01*
X016541Y022036D02*
X019377Y022036D01*
X019335Y022134D02*
X016525Y022134D01*
X016466Y022233D02*
X019331Y022233D01*
X019361Y022331D02*
X016221Y022331D01*
X016215Y022430D02*
X019442Y022430D01*
X019675Y022528D02*
X016171Y022528D01*
X016037Y022627D02*
X019774Y022627D01*
X019872Y022725D02*
X016944Y022725D01*
X017004Y022824D02*
X017674Y022824D01*
X017541Y022922D02*
X017021Y022922D01*
X017003Y023021D02*
X017496Y023021D01*
X017491Y023119D02*
X016940Y023119D01*
X016609Y023316D02*
X017599Y023316D01*
X017528Y023415D02*
X016621Y023415D01*
X016597Y023513D02*
X017473Y023513D01*
X017211Y023612D02*
X016527Y023612D01*
X016144Y023612D02*
X015821Y023612D01*
X015808Y023513D02*
X016074Y023513D01*
X016051Y023415D02*
X015753Y023415D01*
X015595Y023316D02*
X015983Y023316D01*
X015799Y023710D02*
X017125Y023710D01*
X017091Y023809D02*
X015730Y023809D01*
X015300Y024104D02*
X017244Y024104D01*
X017460Y024203D02*
X014442Y024203D01*
X014343Y024301D02*
X016072Y024301D01*
X015997Y024400D02*
X014245Y024400D01*
X014146Y024498D02*
X015971Y024498D01*
X015910Y024597D02*
X014048Y024597D01*
X013949Y024695D02*
X015812Y024695D01*
X015713Y024794D02*
X013851Y024794D01*
X013752Y024892D02*
X015615Y024892D01*
X015516Y024991D02*
X013654Y024991D01*
X013555Y025089D02*
X015418Y025089D01*
X015319Y025188D02*
X013457Y025188D01*
X013358Y025286D02*
X015221Y025286D01*
X015122Y025385D02*
X013260Y025385D01*
X013161Y025483D02*
X015024Y025483D01*
X014925Y025582D02*
X013063Y025582D01*
X012964Y025680D02*
X014827Y025680D01*
X014728Y025779D02*
X012866Y025779D01*
X012767Y025877D02*
X014630Y025877D01*
X014531Y025976D02*
X012669Y025976D01*
X012570Y026074D02*
X014433Y026074D01*
X014334Y026173D02*
X012472Y026173D01*
X012373Y026271D02*
X014236Y026271D01*
X014137Y026370D02*
X012275Y026370D01*
X012176Y026468D02*
X014039Y026468D01*
X013940Y026567D02*
X012078Y026567D01*
X011270Y025877D02*
X005961Y025877D01*
X005863Y025779D02*
X011368Y025779D01*
X011467Y025680D02*
X005764Y025680D01*
X005666Y025582D02*
X011526Y025582D01*
X011526Y025483D02*
X005652Y025483D01*
X005603Y025385D02*
X011526Y025385D01*
X011526Y025286D02*
X010613Y025286D01*
X010817Y025188D02*
X011512Y025188D01*
X011491Y025089D02*
X010915Y025089D01*
X011014Y024991D02*
X011504Y024991D01*
X012041Y024597D02*
X013270Y024597D01*
X013172Y024695D02*
X012139Y024695D01*
X012238Y024794D02*
X013073Y024794D01*
X012975Y024892D02*
X012471Y024892D01*
X012527Y024991D02*
X012876Y024991D01*
X012778Y025089D02*
X012541Y025089D01*
X012520Y025188D02*
X012679Y025188D01*
X012581Y025286D02*
X012453Y025286D01*
X012482Y025385D02*
X012406Y025385D01*
X013369Y024498D02*
X004846Y024498D01*
X004748Y024597D02*
X010870Y024597D01*
X010772Y024695D02*
X004728Y024695D01*
X004685Y024794D02*
X010673Y024794D01*
X010201Y024892D02*
X004556Y024892D01*
X004338Y024892D02*
X001846Y024892D01*
X001846Y024794D02*
X003921Y024794D01*
X003822Y024695D02*
X001846Y024695D01*
X001846Y024597D02*
X003724Y024597D01*
X003625Y024498D02*
X001846Y024498D01*
X001846Y024400D02*
X003527Y024400D01*
X003506Y024301D02*
X001846Y024301D01*
X001846Y024203D02*
X003506Y024203D01*
X003506Y024104D02*
X001846Y024104D01*
X001846Y024006D02*
X003506Y024006D01*
X003506Y023907D02*
X001846Y023907D01*
X001846Y023809D02*
X003506Y023809D01*
X003506Y023710D02*
X001846Y023710D01*
X001846Y023612D02*
X003506Y023612D01*
X003506Y023513D02*
X002886Y023513D01*
X002957Y023415D02*
X003506Y023415D01*
X003506Y023316D02*
X002981Y023316D01*
X002970Y023218D02*
X003506Y023218D01*
X003506Y023119D02*
X002918Y023119D01*
X002886Y023021D02*
X003506Y023021D01*
X003506Y022922D02*
X002886Y022922D01*
X002886Y022824D02*
X003506Y022824D01*
X003506Y022725D02*
X002886Y022725D01*
X002886Y022627D02*
X003506Y022627D01*
X003506Y022528D02*
X002886Y022528D01*
X002886Y022430D02*
X003506Y022430D01*
X003506Y022331D02*
X002886Y022331D01*
X002886Y022233D02*
X003506Y022233D01*
X003506Y022134D02*
X002886Y022134D01*
X002886Y022036D02*
X003506Y022036D01*
X003506Y021937D02*
X002886Y021937D01*
X002886Y021839D02*
X003506Y021839D01*
X003506Y021740D02*
X002886Y021740D01*
X002886Y021642D02*
X003506Y021642D01*
X003506Y021543D02*
X002886Y021543D01*
X002886Y021445D02*
X003506Y021445D01*
X003506Y021346D02*
X002886Y021346D01*
X002886Y021248D02*
X003506Y021248D01*
X003506Y021149D02*
X002886Y021149D01*
X002886Y021051D02*
X003506Y021051D01*
X003506Y020952D02*
X002886Y020952D01*
X002886Y020854D02*
X003506Y020854D01*
X003506Y020755D02*
X002886Y020755D01*
X002886Y020657D02*
X003506Y020657D01*
X003506Y020558D02*
X002886Y020558D01*
X002886Y020460D02*
X003506Y020460D01*
X003506Y020361D02*
X002886Y020361D01*
X002886Y020263D02*
X003506Y020263D01*
X003506Y020164D02*
X002886Y020164D01*
X002886Y020066D02*
X003506Y020066D01*
X003506Y019967D02*
X002886Y019967D01*
X002886Y019869D02*
X003506Y019869D01*
X003506Y019770D02*
X002886Y019770D01*
X002886Y019672D02*
X003506Y019672D01*
X003506Y019573D02*
X002886Y019573D01*
X002886Y019475D02*
X003506Y019475D01*
X003506Y019376D02*
X002886Y019376D01*
X002886Y019278D02*
X003506Y019278D01*
X003506Y019179D02*
X002886Y019179D01*
X002886Y019081D02*
X003506Y019081D01*
X003506Y018982D02*
X002886Y018982D01*
X002886Y018884D02*
X003506Y018884D01*
X003506Y018785D02*
X003384Y018785D01*
X003008Y018785D02*
X002979Y018785D01*
X002506Y018785D02*
X002384Y018785D01*
X002506Y018884D02*
X001846Y018884D01*
X001846Y018982D02*
X002506Y018982D01*
X002506Y019081D02*
X001846Y019081D01*
X001846Y019179D02*
X002506Y019179D01*
X002506Y019278D02*
X001846Y019278D01*
X001846Y019376D02*
X002506Y019376D01*
X002506Y019475D02*
X001846Y019475D01*
X001846Y019573D02*
X002506Y019573D01*
X002506Y019672D02*
X001846Y019672D01*
X001846Y019770D02*
X002506Y019770D01*
X002506Y019869D02*
X001846Y019869D01*
X001846Y019967D02*
X002506Y019967D01*
X002506Y020066D02*
X001846Y020066D01*
X001846Y020164D02*
X002506Y020164D01*
X002506Y020263D02*
X001846Y020263D01*
X001846Y020361D02*
X002506Y020361D01*
X002506Y020460D02*
X001846Y020460D01*
X001846Y020558D02*
X002506Y020558D01*
X002506Y020657D02*
X001846Y020657D01*
X001846Y020755D02*
X002506Y020755D01*
X002506Y020854D02*
X001846Y020854D01*
X001846Y020952D02*
X002506Y020952D01*
X002506Y021051D02*
X001846Y021051D01*
X001846Y021149D02*
X002506Y021149D01*
X002506Y021248D02*
X001846Y021248D01*
X001846Y021346D02*
X002506Y021346D01*
X002506Y021445D02*
X001846Y021445D01*
X001846Y021543D02*
X002506Y021543D01*
X002506Y021642D02*
X001846Y021642D01*
X001846Y021740D02*
X002506Y021740D01*
X002506Y021839D02*
X001846Y021839D01*
X001846Y021937D02*
X002506Y021937D01*
X002506Y022036D02*
X001846Y022036D01*
X001846Y022134D02*
X002506Y022134D01*
X002506Y022233D02*
X001846Y022233D01*
X001846Y022331D02*
X002506Y022331D01*
X002506Y022430D02*
X001846Y022430D01*
X001846Y022528D02*
X002506Y022528D01*
X002506Y022627D02*
X001846Y022627D01*
X001846Y022725D02*
X002506Y022725D01*
X002506Y022824D02*
X001846Y022824D01*
X001846Y022922D02*
X002506Y022922D01*
X002506Y023021D02*
X001846Y023021D01*
X001846Y023119D02*
X002474Y023119D01*
X002421Y023218D02*
X001846Y023218D01*
X001846Y023316D02*
X002411Y023316D01*
X002435Y023415D02*
X001846Y023415D01*
X001846Y023513D02*
X002506Y023513D01*
X003886Y023513D02*
X005540Y023513D01*
X005442Y023415D02*
X003886Y023415D01*
X003886Y023316D02*
X005343Y023316D01*
X005245Y023218D02*
X003886Y023218D01*
X003886Y023119D02*
X005012Y023119D01*
X004937Y023021D02*
X003886Y023021D01*
X003886Y022922D02*
X004911Y022922D01*
X004919Y022824D02*
X003886Y022824D01*
X003886Y022725D02*
X004431Y022725D01*
X004299Y022627D02*
X003886Y022627D01*
X003886Y022528D02*
X004255Y022528D01*
X004251Y022430D02*
X003886Y022430D01*
X003886Y022331D02*
X004281Y022331D01*
X004360Y022233D02*
X003886Y022233D01*
X003886Y022134D02*
X004593Y022134D01*
X004691Y022036D02*
X003886Y022036D01*
X003886Y021937D02*
X004790Y021937D01*
X004888Y021839D02*
X003886Y021839D01*
X003886Y021740D02*
X004987Y021740D01*
X005085Y021642D02*
X003886Y021642D01*
X003886Y021543D02*
X005184Y021543D01*
X005282Y021445D02*
X003886Y021445D01*
X003886Y021346D02*
X005381Y021346D01*
X005479Y021248D02*
X003886Y021248D01*
X003886Y021149D02*
X005578Y021149D01*
X005676Y021051D02*
X003886Y021051D01*
X003886Y020952D02*
X005775Y020952D01*
X005874Y020854D02*
X003886Y020854D01*
X003886Y020755D02*
X005972Y020755D01*
X006006Y020657D02*
X003886Y020657D01*
X003886Y020558D02*
X006006Y020558D01*
X005953Y020460D02*
X003886Y020460D01*
X003886Y020361D02*
X005912Y020361D01*
X005911Y020263D02*
X003886Y020263D01*
X003886Y020164D02*
X005944Y020164D01*
X006027Y020066D02*
X003886Y020066D01*
X003886Y019967D02*
X006260Y019967D01*
X006359Y019869D02*
X003886Y019869D01*
X003886Y019770D02*
X006457Y019770D01*
X006556Y019672D02*
X003886Y019672D01*
X003886Y019573D02*
X011200Y019573D01*
X011299Y019672D02*
X009876Y019672D01*
X009974Y019770D02*
X011397Y019770D01*
X011496Y019869D02*
X010073Y019869D01*
X010171Y019967D02*
X011594Y019967D01*
X011693Y020066D02*
X010270Y020066D01*
X010368Y020164D02*
X011791Y020164D01*
X011890Y020263D02*
X010467Y020263D01*
X010565Y020361D02*
X011988Y020361D01*
X012087Y020460D02*
X010664Y020460D01*
X010762Y020558D02*
X012185Y020558D01*
X012284Y020657D02*
X010861Y020657D01*
X010959Y020755D02*
X012382Y020755D01*
X012481Y020854D02*
X011058Y020854D01*
X011156Y020952D02*
X012579Y020952D01*
X012678Y021051D02*
X011255Y021051D01*
X011353Y021149D02*
X012776Y021149D01*
X012875Y021248D02*
X011406Y021248D01*
X011406Y021346D02*
X012973Y021346D01*
X013072Y021445D02*
X011406Y021445D01*
X011406Y021543D02*
X013170Y021543D01*
X013269Y021642D02*
X011406Y021642D01*
X011406Y021740D02*
X013367Y021740D01*
X013466Y021839D02*
X011406Y021839D01*
X011406Y021937D02*
X013564Y021937D01*
X013963Y022036D02*
X011406Y022036D01*
X011406Y022134D02*
X014061Y022134D01*
X014160Y022233D02*
X011406Y022233D01*
X011406Y022331D02*
X014258Y022331D01*
X014357Y022430D02*
X011406Y022430D01*
X011406Y022528D02*
X014455Y022528D01*
X014997Y023316D02*
X013329Y023316D01*
X013341Y023415D02*
X014452Y023415D01*
X014354Y023513D02*
X013317Y023513D01*
X013247Y023612D02*
X014255Y023612D01*
X014157Y023710D02*
X013289Y023710D01*
X013335Y023809D02*
X014058Y023809D01*
X013960Y023907D02*
X013341Y023907D01*
X013312Y024006D02*
X013861Y024006D01*
X013763Y024104D02*
X013235Y024104D01*
X013467Y024400D02*
X004945Y024400D01*
X005043Y024301D02*
X013566Y024301D01*
X013664Y024203D02*
X005142Y024203D01*
X004900Y023907D02*
X003886Y023907D01*
X003886Y023809D02*
X004998Y023809D01*
X004926Y023881D02*
X004926Y023881D01*
X004801Y024006D02*
X003886Y024006D01*
X003886Y024104D02*
X004703Y024104D01*
X004604Y024203D02*
X003886Y024203D01*
X003965Y024301D02*
X004506Y024301D01*
X004273Y024400D02*
X004064Y024400D01*
X003886Y023710D02*
X005737Y023710D01*
X005639Y023612D02*
X003886Y023612D01*
X004641Y022725D02*
X004968Y022725D01*
X005111Y022627D02*
X004772Y022627D01*
X004816Y022528D02*
X010706Y022528D01*
X010706Y022430D02*
X004835Y022430D01*
X004933Y022331D02*
X010706Y022331D01*
X010706Y022233D02*
X005032Y022233D01*
X005130Y022134D02*
X010706Y022134D01*
X010706Y022036D02*
X005229Y022036D01*
X005327Y021937D02*
X010706Y021937D01*
X010706Y021839D02*
X005426Y021839D01*
X005524Y021740D02*
X010706Y021740D01*
X010706Y021642D02*
X005623Y021642D01*
X005721Y021543D02*
X010660Y021543D01*
X010562Y021445D02*
X005820Y021445D01*
X005918Y021346D02*
X010463Y021346D01*
X010365Y021248D02*
X006017Y021248D01*
X006115Y021149D02*
X010266Y021149D01*
X010168Y021051D02*
X006214Y021051D01*
X006312Y020952D02*
X010069Y020952D01*
X009971Y020854D02*
X006386Y020854D01*
X006386Y020755D02*
X009738Y020755D01*
X009671Y020657D02*
X006386Y020657D01*
X006386Y020558D02*
X009651Y020558D01*
X009665Y020460D02*
X006438Y020460D01*
X006479Y020361D02*
X009722Y020361D01*
X009831Y020164D02*
X006600Y020164D01*
X006502Y020263D02*
X009930Y020263D01*
X009733Y020066D02*
X006699Y020066D01*
X007609Y018982D02*
X003886Y018982D01*
X003886Y018884D02*
X007511Y018884D01*
X007412Y018785D02*
X007384Y018785D01*
X007008Y018785D02*
X006384Y018785D01*
X006545Y018687D02*
X006847Y018687D01*
X006752Y018588D02*
X006639Y018588D01*
X006680Y018490D02*
X006711Y018490D01*
X006008Y018785D02*
X005384Y018785D01*
X005545Y018687D02*
X005847Y018687D01*
X005752Y018588D02*
X005639Y018588D01*
X005680Y018490D02*
X005711Y018490D01*
X005008Y018785D02*
X004384Y018785D01*
X004545Y018687D02*
X004847Y018687D01*
X004752Y018588D02*
X004639Y018588D01*
X004680Y018490D02*
X004711Y018490D01*
X004008Y018785D02*
X003979Y018785D01*
X003886Y019081D02*
X008468Y019081D01*
X008566Y019179D02*
X003886Y019179D01*
X003886Y019278D02*
X009385Y019278D01*
X010283Y019376D02*
X003886Y019376D01*
X003886Y019475D02*
X010382Y019475D01*
X010706Y022627D02*
X005280Y022627D01*
X005424Y022725D02*
X010706Y022725D01*
X010706Y022824D02*
X005473Y022824D01*
X005486Y022922D02*
X010706Y022922D01*
X010706Y023021D02*
X005585Y023021D01*
X005683Y023119D02*
X010706Y023119D01*
X010706Y023218D02*
X005782Y023218D01*
X005880Y023316D02*
X010706Y023316D01*
X010706Y023415D02*
X005979Y023415D01*
X006077Y023513D02*
X010706Y023513D01*
X011406Y022824D02*
X011443Y022824D01*
X011406Y022725D02*
X016528Y022725D01*
X016532Y023119D02*
X016402Y023119D01*
X016556Y023218D02*
X017520Y023218D01*
X017877Y022824D02*
X018130Y022824D01*
X018013Y022922D02*
X018011Y022922D01*
X018381Y022824D02*
X022506Y022824D01*
X022506Y022922D02*
X018499Y022922D01*
X018540Y023021D02*
X019272Y023021D01*
X019197Y023119D02*
X018563Y023119D01*
X018662Y023218D02*
X019171Y023218D01*
X019179Y023316D02*
X018760Y023316D01*
X019639Y023021D02*
X022506Y023021D01*
X022506Y023119D02*
X019714Y023119D01*
X019854Y022036D02*
X019863Y022036D01*
X019946Y021937D02*
X019726Y021937D01*
X019699Y021740D02*
X025287Y021740D01*
X025331Y021839D02*
X016457Y021839D01*
X015834Y022627D02*
X011406Y022627D01*
X015115Y023316D02*
X015477Y023316D01*
X015318Y023415D02*
X015273Y023415D01*
X016440Y024301D02*
X021368Y024301D01*
X021467Y024400D02*
X016514Y024400D01*
X016541Y024498D02*
X021565Y024498D01*
X021536Y024597D02*
X016532Y024597D01*
X016484Y024695D02*
X018871Y024695D01*
X018919Y024675D02*
X019032Y024675D01*
X019137Y024718D01*
X019217Y024799D01*
X019261Y024903D01*
X019261Y025017D01*
X019217Y025121D01*
X019137Y025202D01*
X019032Y025245D01*
X018959Y025245D01*
X018214Y025990D01*
X016749Y025990D01*
X016697Y026042D01*
X016592Y026085D01*
X016479Y026085D01*
X016374Y026042D01*
X016294Y025961D01*
X016251Y025857D01*
X016251Y025743D01*
X016294Y025639D01*
X016374Y025558D01*
X016479Y025515D01*
X016592Y025515D01*
X016697Y025558D01*
X016749Y025610D01*
X018057Y025610D01*
X018691Y024976D01*
X018691Y024903D01*
X018734Y024799D01*
X018814Y024718D01*
X018919Y024675D01*
X019081Y024695D02*
X021372Y024695D01*
X021282Y024794D02*
X019212Y024794D01*
X019256Y024892D02*
X020835Y024892D01*
X020736Y024991D02*
X019261Y024991D01*
X019231Y025089D02*
X020638Y025089D01*
X020539Y025188D02*
X019151Y025188D01*
X018918Y025286D02*
X020441Y025286D01*
X020342Y025385D02*
X018820Y025385D01*
X018721Y025483D02*
X020244Y025483D01*
X020145Y025582D02*
X018623Y025582D01*
X018524Y025680D02*
X020047Y025680D01*
X020006Y025779D02*
X018426Y025779D01*
X018327Y025877D02*
X020006Y025877D01*
X020006Y025976D02*
X018229Y025976D01*
X018085Y025582D02*
X016720Y025582D01*
X016351Y025582D02*
X015463Y025582D01*
X015364Y025680D02*
X016277Y025680D01*
X016251Y025779D02*
X015266Y025779D01*
X015167Y025877D02*
X016259Y025877D01*
X016308Y025976D02*
X015069Y025976D01*
X014970Y026074D02*
X016453Y026074D01*
X016619Y026074D02*
X020006Y026074D01*
X020006Y026173D02*
X014872Y026173D01*
X014773Y026271D02*
X020006Y026271D01*
X020006Y026370D02*
X014675Y026370D01*
X014576Y026468D02*
X020006Y026468D01*
X020006Y026567D02*
X014478Y026567D01*
X014379Y026665D02*
X020006Y026665D01*
X020006Y026764D02*
X014281Y026764D01*
X014493Y026862D02*
X014898Y026862D01*
X014800Y026961D02*
X014592Y026961D01*
X014659Y027059D02*
X014733Y027059D01*
X015493Y026862D02*
X015898Y026862D01*
X015800Y026961D02*
X015592Y026961D01*
X015659Y027059D02*
X015733Y027059D01*
X016493Y026862D02*
X016898Y026862D01*
X016800Y026961D02*
X016592Y026961D01*
X016659Y027059D02*
X016733Y027059D01*
X017493Y026862D02*
X017898Y026862D01*
X017800Y026961D02*
X017592Y026961D01*
X017659Y027059D02*
X017733Y027059D01*
X018493Y026862D02*
X018898Y026862D01*
X018800Y026961D02*
X018592Y026961D01*
X018659Y027059D02*
X018733Y027059D01*
X019493Y026862D02*
X019898Y026862D01*
X019800Y026961D02*
X019592Y026961D01*
X019659Y027059D02*
X019733Y027059D01*
X018184Y025483D02*
X015561Y025483D01*
X015660Y025385D02*
X018282Y025385D01*
X018381Y025286D02*
X015758Y025286D01*
X015857Y025188D02*
X018479Y025188D01*
X018578Y025089D02*
X015955Y025089D01*
X016054Y024991D02*
X018676Y024991D01*
X018695Y024892D02*
X016152Y024892D01*
X016340Y024794D02*
X018739Y024794D01*
X021782Y023218D02*
X022506Y023218D01*
X022506Y023316D02*
X021880Y023316D01*
X021979Y023415D02*
X022506Y023415D01*
X022506Y023513D02*
X022077Y023513D01*
X022176Y023612D02*
X022506Y023612D01*
X022506Y023710D02*
X022274Y023710D01*
X022373Y023809D02*
X022506Y023809D01*
X022506Y023907D02*
X022471Y023907D01*
X020447Y022233D02*
X025580Y022233D01*
X025448Y022036D02*
X020368Y022036D01*
X020401Y022134D02*
X026761Y022134D01*
X026663Y022036D02*
X025783Y022036D01*
X025867Y021937D02*
X026564Y021937D01*
X026466Y021839D02*
X025901Y021839D01*
X025899Y021740D02*
X026367Y021740D01*
X026269Y021642D02*
X025859Y021642D01*
X025740Y021543D02*
X026170Y021543D01*
X026412Y021248D02*
X029546Y021248D01*
X029546Y021346D02*
X026510Y021346D01*
X026609Y021445D02*
X029546Y021445D01*
X029546Y021543D02*
X026707Y021543D01*
X026806Y021642D02*
X029546Y021642D01*
X029546Y021740D02*
X026904Y021740D01*
X027003Y021839D02*
X027306Y021839D01*
X027214Y021937D02*
X027101Y021937D01*
X026860Y022233D02*
X025971Y022233D01*
X026039Y022331D02*
X026958Y022331D01*
X027057Y022430D02*
X026061Y022430D01*
X026048Y022528D02*
X027155Y022528D01*
X027254Y022627D02*
X026791Y022627D01*
X026886Y022725D02*
X027352Y022725D01*
X027414Y022824D02*
X026886Y022824D01*
X026886Y022922D02*
X027455Y022922D01*
X027580Y023021D02*
X026886Y023021D01*
X026886Y023119D02*
X029546Y023119D01*
X029546Y023021D02*
X027812Y023021D01*
X027937Y022922D02*
X029546Y022922D01*
X029546Y022824D02*
X027978Y022824D01*
X027981Y022725D02*
X029546Y022725D01*
X029546Y022627D02*
X027949Y022627D01*
X027867Y022528D02*
X029546Y022528D01*
X029546Y022430D02*
X027594Y022430D01*
X027738Y022331D02*
X029546Y022331D01*
X029546Y022233D02*
X027800Y022233D01*
X027823Y022134D02*
X029546Y022134D01*
X029546Y022036D02*
X027819Y022036D01*
X027778Y021937D02*
X029546Y021937D01*
X029546Y021839D02*
X027686Y021839D01*
X026313Y021149D02*
X029546Y021149D01*
X029546Y021051D02*
X022886Y021051D01*
X022941Y020952D02*
X029546Y020952D01*
X029546Y020854D02*
X022981Y020854D01*
X022981Y020755D02*
X029546Y020755D01*
X029546Y020657D02*
X022945Y020657D01*
X022856Y020558D02*
X025434Y020558D01*
X025313Y020460D02*
X017566Y020460D01*
X017566Y020558D02*
X022535Y020558D01*
X022447Y020657D02*
X017566Y020657D01*
X017566Y020755D02*
X022411Y020755D01*
X022506Y021051D02*
X020165Y021051D01*
X020286Y021937D02*
X025364Y021937D01*
X025678Y020558D02*
X029546Y020558D01*
X029546Y020460D02*
X027361Y020460D01*
X027460Y020361D02*
X029546Y020361D01*
X029546Y020263D02*
X027558Y020263D01*
X027657Y020164D02*
X029546Y020164D01*
X029546Y020066D02*
X027755Y020066D01*
X027854Y019967D02*
X029546Y019967D01*
X029546Y019869D02*
X027952Y019869D01*
X028051Y019770D02*
X029546Y019770D01*
X029546Y019672D02*
X028149Y019672D01*
X028248Y019573D02*
X029546Y019573D01*
X029546Y019475D02*
X028346Y019475D01*
X028445Y019376D02*
X029546Y019376D01*
X029546Y019278D02*
X028543Y019278D01*
X028642Y019179D02*
X029546Y019179D01*
X029546Y019081D02*
X028740Y019081D01*
X028839Y018982D02*
X029546Y018982D01*
X029546Y018884D02*
X028937Y018884D01*
X029384Y018785D02*
X029546Y018785D01*
X029545Y018687D02*
X029546Y018687D01*
X028385Y018785D02*
X028384Y018785D01*
X028287Y018884D02*
X023881Y018884D01*
X023782Y018982D02*
X028188Y018982D01*
X028090Y019081D02*
X018684Y019081D01*
X018585Y019179D02*
X027991Y019179D01*
X027893Y019278D02*
X018487Y019278D01*
X018388Y019376D02*
X027794Y019376D01*
X027696Y019475D02*
X018290Y019475D01*
X018191Y019573D02*
X027597Y019573D01*
X027499Y019672D02*
X018093Y019672D01*
X017994Y019770D02*
X027400Y019770D01*
X027302Y019869D02*
X017896Y019869D01*
X017797Y019967D02*
X027203Y019967D01*
X027105Y020066D02*
X025724Y020066D01*
X025387Y020066D02*
X017699Y020066D01*
X017600Y020164D02*
X025304Y020164D01*
X025271Y020263D02*
X017566Y020263D01*
X017566Y020361D02*
X025272Y020361D01*
X025384Y018785D02*
X026008Y018785D01*
X025847Y018687D02*
X025545Y018687D01*
X025639Y018588D02*
X025752Y018588D01*
X025711Y018490D02*
X025680Y018490D01*
X025008Y018785D02*
X024384Y018785D01*
X024545Y018687D02*
X024847Y018687D01*
X024752Y018588D02*
X024639Y018588D01*
X024680Y018490D02*
X024711Y018490D01*
X024008Y018785D02*
X023979Y018785D01*
X026384Y018785D02*
X027006Y018785D01*
X027146Y018785D02*
X027246Y018785D01*
X027246Y018687D02*
X027146Y018687D01*
X027146Y018588D02*
X027246Y018588D01*
X027246Y018490D02*
X027146Y018490D01*
X027146Y018391D02*
X027246Y018391D01*
X027386Y018785D02*
X028008Y018785D01*
X027847Y018687D02*
X027545Y018687D01*
X027629Y018588D02*
X027752Y018588D01*
X027711Y018490D02*
X027681Y018490D01*
X026847Y018687D02*
X026545Y018687D01*
X026639Y018588D02*
X026762Y018588D01*
X026711Y018490D02*
X026680Y018490D01*
X027431Y023162D02*
X027561Y023162D01*
X027681Y023212D01*
X027773Y023304D01*
X027823Y023424D01*
X027823Y023554D01*
X027773Y023674D01*
X027681Y023766D01*
X027561Y023816D01*
X027431Y023816D01*
X027310Y023766D01*
X027218Y023674D01*
X027169Y023554D01*
X027169Y023424D01*
X027218Y023304D01*
X027310Y023212D01*
X027431Y023162D01*
X027304Y023218D02*
X026886Y023218D01*
X026886Y023316D02*
X027213Y023316D01*
X027172Y023415D02*
X026886Y023415D01*
X026886Y023513D02*
X027169Y023513D01*
X027192Y023612D02*
X026886Y023612D01*
X026886Y023710D02*
X027254Y023710D01*
X027412Y023809D02*
X026886Y023809D01*
X026886Y023907D02*
X029546Y023907D01*
X029546Y023809D02*
X027579Y023809D01*
X027737Y023710D02*
X029546Y023710D01*
X029546Y023612D02*
X027799Y023612D01*
X027823Y023513D02*
X029546Y023513D01*
X029546Y023415D02*
X027819Y023415D01*
X027778Y023316D02*
X029546Y023316D01*
X029546Y023218D02*
X027687Y023218D01*
X026886Y024006D02*
X029546Y024006D01*
X029546Y024104D02*
X026886Y024104D01*
X026886Y024203D02*
X029546Y024203D01*
X029546Y024301D02*
X026886Y024301D01*
X026886Y024400D02*
X029546Y024400D01*
X029546Y024498D02*
X026886Y024498D01*
X026886Y024597D02*
X029546Y024597D01*
X029546Y024695D02*
X026886Y024695D01*
X026886Y024794D02*
X029546Y024794D01*
X029546Y024892D02*
X026886Y024892D01*
X026886Y024991D02*
X029546Y024991D01*
X029546Y025089D02*
X028388Y025089D01*
X028458Y025188D02*
X029546Y025188D01*
X029546Y025286D02*
X028481Y025286D01*
X028469Y025385D02*
X029546Y025385D01*
X029546Y025483D02*
X028416Y025483D01*
X028261Y025582D02*
X029546Y025582D01*
X029546Y025680D02*
X026886Y025680D01*
X026886Y025582D02*
X028131Y025582D01*
X026886Y025779D02*
X029546Y025779D01*
X029546Y025877D02*
X026886Y025877D01*
X026886Y025976D02*
X029546Y025976D01*
X029546Y026074D02*
X026886Y026074D01*
X026886Y026173D02*
X029546Y026173D01*
X029546Y026271D02*
X026886Y026271D01*
X026886Y026370D02*
X029546Y026370D01*
X029546Y026468D02*
X026796Y026468D01*
X026914Y026862D02*
X026493Y026862D01*
X026592Y026961D02*
X026800Y026961D01*
X026735Y027059D02*
X026659Y027059D01*
X027146Y027059D02*
X027246Y027059D01*
X027246Y026961D02*
X027146Y026961D01*
X027146Y026862D02*
X027246Y026862D01*
X027478Y026862D02*
X027898Y026862D01*
X027800Y026961D02*
X027592Y026961D01*
X027657Y027059D02*
X027733Y027059D01*
X027246Y027158D02*
X027146Y027158D01*
X025928Y026764D02*
X029546Y026764D01*
X029546Y026665D02*
X025829Y026665D01*
X025731Y026567D02*
X029546Y026567D01*
X028682Y026862D02*
X028493Y026862D01*
X028592Y026961D02*
X028676Y026961D01*
X028676Y027059D02*
X028659Y027059D01*
X018008Y018785D02*
X017384Y018785D01*
X017545Y018687D02*
X017847Y018687D01*
X017752Y018588D02*
X017639Y018588D01*
X017680Y018490D02*
X017711Y018490D01*
X017008Y018785D02*
X016384Y018785D01*
X016545Y018687D02*
X016847Y018687D01*
X016752Y018588D02*
X016639Y018588D01*
X016680Y018490D02*
X016711Y018490D01*
X010144Y024991D02*
X001846Y024991D01*
X001846Y025089D02*
X010131Y025089D01*
X010152Y025188D02*
X001846Y025188D01*
X001846Y025286D02*
X005292Y025286D01*
X005459Y025286D02*
X010219Y025286D01*
X005621Y026074D02*
X001846Y026074D01*
X001846Y025976D02*
X005523Y025976D01*
X005424Y025877D02*
X001846Y025877D01*
X001846Y025779D02*
X005191Y025779D01*
X005117Y025680D02*
X001846Y025680D01*
X001846Y025582D02*
X005091Y025582D01*
X005099Y025483D02*
X001846Y025483D01*
X001846Y025385D02*
X005148Y025385D01*
X004054Y026173D02*
X001846Y026173D01*
X001846Y026271D02*
X003956Y026271D01*
X003857Y026370D02*
X001846Y026370D01*
X001846Y026468D02*
X003759Y026468D01*
X003660Y026567D02*
X001846Y026567D01*
X001846Y026665D02*
X003562Y026665D01*
X003463Y026764D02*
X001846Y026764D01*
X001846Y026862D02*
X001898Y026862D01*
X002493Y026862D02*
X002898Y026862D01*
X002800Y026961D02*
X002592Y026961D01*
X002659Y027059D02*
X002733Y027059D01*
X002008Y018785D02*
X001846Y018785D01*
X001846Y018687D02*
X001847Y018687D01*
D16*
X025556Y020300D02*
X027196Y020300D01*
X029196Y018300D01*
X025396Y024720D02*
X025976Y025300D01*
X028196Y025300D01*
M02*
