G75*
G70*
%OFA0B0*%
%FSLAX24Y24*%
%IPPOS*%
%LPD*%
%AMOC8*
5,1,8,0,0,1.08239X$1,22.5*
%
%ADD10C,0.0000*%
%ADD11C,0.0060*%
%ADD12C,0.0200*%
%ADD13C,0.0010*%
%ADD14C,0.0039*%
%ADD15R,0.1157X0.0291*%
%ADD16C,0.0004*%
%ADD17C,0.0020*%
D10*
X001696Y017800D02*
X001696Y027800D01*
X029696Y027800D01*
X029696Y017800D01*
X001696Y017800D01*
X027319Y022111D02*
X027321Y022137D01*
X027327Y022163D01*
X027337Y022188D01*
X027350Y022211D01*
X027366Y022231D01*
X027386Y022249D01*
X027408Y022264D01*
X027431Y022276D01*
X027457Y022284D01*
X027483Y022288D01*
X027509Y022288D01*
X027535Y022284D01*
X027561Y022276D01*
X027585Y022264D01*
X027606Y022249D01*
X027626Y022231D01*
X027642Y022211D01*
X027655Y022188D01*
X027665Y022163D01*
X027671Y022137D01*
X027673Y022111D01*
X027671Y022085D01*
X027665Y022059D01*
X027655Y022034D01*
X027642Y022011D01*
X027626Y021991D01*
X027606Y021973D01*
X027584Y021958D01*
X027561Y021946D01*
X027535Y021938D01*
X027509Y021934D01*
X027483Y021934D01*
X027457Y021938D01*
X027431Y021946D01*
X027407Y021958D01*
X027386Y021973D01*
X027366Y021991D01*
X027350Y022011D01*
X027337Y022034D01*
X027327Y022059D01*
X027321Y022085D01*
X027319Y022111D01*
X027319Y023489D02*
X027321Y023515D01*
X027327Y023541D01*
X027337Y023566D01*
X027350Y023589D01*
X027366Y023609D01*
X027386Y023627D01*
X027408Y023642D01*
X027431Y023654D01*
X027457Y023662D01*
X027483Y023666D01*
X027509Y023666D01*
X027535Y023662D01*
X027561Y023654D01*
X027585Y023642D01*
X027606Y023627D01*
X027626Y023609D01*
X027642Y023589D01*
X027655Y023566D01*
X027665Y023541D01*
X027671Y023515D01*
X027673Y023489D01*
X027671Y023463D01*
X027665Y023437D01*
X027655Y023412D01*
X027642Y023389D01*
X027626Y023369D01*
X027606Y023351D01*
X027584Y023336D01*
X027561Y023324D01*
X027535Y023316D01*
X027509Y023312D01*
X027483Y023312D01*
X027457Y023316D01*
X027431Y023324D01*
X027407Y023336D01*
X027386Y023351D01*
X027366Y023369D01*
X027350Y023389D01*
X027337Y023412D01*
X027327Y023437D01*
X027321Y023463D01*
X027319Y023489D01*
D11*
X022332Y020330D02*
X022332Y019830D01*
X022582Y019830D01*
X022666Y019913D01*
X022666Y020080D01*
X022582Y020164D01*
X022332Y020164D01*
X022150Y020080D02*
X022067Y020164D01*
X021900Y020164D01*
X021816Y020080D01*
X021816Y019997D01*
X022150Y019997D01*
X022150Y020080D02*
X022150Y019913D01*
X022067Y019830D01*
X021900Y019830D01*
X021634Y019830D02*
X021384Y019830D01*
X021301Y019913D01*
X021384Y019997D01*
X021551Y019997D01*
X021634Y020080D01*
X021551Y020164D01*
X021301Y020164D01*
X021119Y020164D02*
X021035Y020164D01*
X021035Y019830D01*
X020952Y019830D02*
X021119Y019830D01*
X020775Y019913D02*
X020692Y019830D01*
X020441Y019830D01*
X020441Y019747D02*
X020441Y020164D01*
X020692Y020164D01*
X020775Y020080D01*
X020775Y019913D01*
X020608Y019663D02*
X020525Y019663D01*
X020441Y019747D01*
X020259Y019830D02*
X020259Y020164D01*
X020009Y020164D01*
X019926Y020080D01*
X019926Y019830D01*
X019744Y019913D02*
X019660Y019830D01*
X019494Y019830D01*
X019410Y019997D02*
X019744Y019997D01*
X019744Y020080D02*
X019660Y020164D01*
X019494Y020164D01*
X019410Y020080D01*
X019410Y019997D01*
X019228Y020080D02*
X019145Y020164D01*
X018894Y020164D01*
X018894Y020330D02*
X018894Y019830D01*
X019145Y019830D01*
X019228Y019913D01*
X019228Y020080D01*
X019744Y020080D02*
X019744Y019913D01*
X019582Y020830D02*
X019499Y020913D01*
X019415Y020830D01*
X019332Y020913D01*
X019332Y021164D01*
X019150Y021164D02*
X019150Y020913D01*
X019067Y020830D01*
X018983Y020913D01*
X018900Y020830D01*
X018816Y020913D01*
X018816Y021164D01*
X018634Y021164D02*
X018634Y020913D01*
X018551Y020830D01*
X018468Y020913D01*
X018384Y020830D01*
X018301Y020913D01*
X018301Y021164D01*
X018119Y020913D02*
X018035Y020913D01*
X018035Y020830D01*
X018119Y020830D01*
X018119Y020913D01*
X017861Y021080D02*
X017694Y021080D01*
X017778Y021247D02*
X017694Y021330D01*
X017778Y021247D02*
X017778Y020830D01*
X017517Y020913D02*
X017434Y020830D01*
X017184Y020830D01*
X017184Y021164D01*
X017002Y021164D02*
X016751Y021164D01*
X016668Y021080D01*
X016668Y020913D01*
X016751Y020830D01*
X017002Y020830D01*
X017002Y021330D01*
X017517Y021164D02*
X017517Y020913D01*
X018197Y020330D02*
X018197Y019830D01*
X017947Y019830D01*
X017863Y019913D01*
X017863Y020080D01*
X017947Y020164D01*
X018197Y020164D01*
X017681Y020164D02*
X017681Y019913D01*
X017598Y019830D01*
X017348Y019830D01*
X017348Y019747D02*
X017431Y019663D01*
X017514Y019663D01*
X017348Y019747D02*
X017348Y020164D01*
X017166Y020164D02*
X017166Y020080D01*
X017082Y020080D01*
X017082Y020164D01*
X017166Y020164D01*
X017166Y019913D02*
X017166Y019830D01*
X017082Y019830D01*
X017082Y019913D01*
X017166Y019913D01*
X016666Y019913D02*
X016582Y019830D01*
X016499Y019913D01*
X016415Y019830D01*
X016332Y019913D01*
X016332Y020164D01*
X016150Y020164D02*
X016150Y019913D01*
X016067Y019830D01*
X015983Y019913D01*
X015900Y019830D01*
X015816Y019913D01*
X015816Y020164D01*
X015634Y020164D02*
X015634Y019913D01*
X015551Y019830D01*
X015468Y019913D01*
X015384Y019830D01*
X015301Y019913D01*
X015301Y020164D01*
X015119Y019913D02*
X015035Y019913D01*
X015035Y019830D01*
X015119Y019830D01*
X015119Y019913D01*
X014861Y019830D02*
X014611Y019830D01*
X014527Y019913D01*
X014611Y019997D01*
X014778Y019997D01*
X014861Y020080D01*
X014778Y020164D01*
X014527Y020164D01*
X014345Y020080D02*
X014345Y019913D01*
X014262Y019830D01*
X014012Y019830D01*
X013830Y019830D02*
X013830Y020330D01*
X013746Y020164D02*
X013579Y020164D01*
X013496Y020080D01*
X013496Y019830D01*
X013314Y019830D02*
X013314Y020164D01*
X013231Y020164D01*
X013147Y020080D01*
X013064Y020164D01*
X012980Y020080D01*
X012980Y019830D01*
X013147Y019830D02*
X013147Y020080D01*
X012798Y019913D02*
X012715Y019830D01*
X012465Y019830D01*
X012465Y020080D01*
X012548Y020164D01*
X012715Y020164D01*
X012715Y019997D02*
X012465Y019997D01*
X012283Y019830D02*
X012116Y019830D01*
X012199Y019830D02*
X012199Y020330D01*
X012283Y020330D01*
X011939Y020164D02*
X011605Y020164D01*
X011939Y019830D01*
X011605Y019830D01*
X011423Y019830D02*
X011423Y020330D01*
X011340Y020164D02*
X011173Y020164D01*
X011090Y020080D01*
X011090Y019830D01*
X010908Y019913D02*
X010824Y019830D01*
X010574Y019830D01*
X010574Y020080D01*
X010658Y020164D01*
X010824Y020164D01*
X010824Y019997D02*
X010574Y019997D01*
X010392Y019913D02*
X010309Y019830D01*
X010058Y019830D01*
X010058Y020164D01*
X009876Y020080D02*
X009793Y020164D01*
X009543Y020164D01*
X009626Y019997D02*
X009793Y019997D01*
X009876Y020080D01*
X009876Y019830D02*
X009626Y019830D01*
X009543Y019913D01*
X009626Y019997D01*
X009361Y019913D02*
X009361Y019830D01*
X009277Y019830D01*
X009277Y019913D01*
X009361Y019913D01*
X009103Y019913D02*
X009020Y019830D01*
X008769Y019830D01*
X008587Y019913D02*
X008504Y019830D01*
X008337Y019830D01*
X008254Y019913D01*
X008254Y020080D01*
X008337Y020164D01*
X008504Y020164D01*
X008587Y020080D01*
X008587Y019913D01*
X008769Y020164D02*
X009020Y020164D01*
X009103Y020080D01*
X009103Y019913D01*
X008072Y019830D02*
X008072Y020164D01*
X007988Y020164D01*
X007905Y020080D01*
X007821Y020164D01*
X007738Y020080D01*
X007738Y019830D01*
X007905Y019830D02*
X007905Y020080D01*
X010392Y020164D02*
X010392Y019913D01*
X010824Y019997D02*
X010908Y019913D01*
X011340Y020164D02*
X011423Y020080D01*
X011415Y020830D02*
X011165Y020830D01*
X011082Y020913D01*
X011082Y021247D01*
X011165Y021330D01*
X011415Y021330D01*
X011415Y020830D01*
X011597Y020913D02*
X011681Y020830D01*
X011848Y020830D01*
X011931Y020913D01*
X011848Y021080D02*
X011681Y021080D01*
X011597Y020997D01*
X011597Y020913D01*
X011848Y021080D02*
X011931Y021164D01*
X011931Y021247D01*
X011848Y021330D01*
X011681Y021330D01*
X011597Y021247D01*
X012113Y021330D02*
X012447Y020830D01*
X012629Y020830D02*
X012879Y020830D01*
X012962Y020913D01*
X012962Y021080D01*
X012879Y021164D01*
X012629Y021164D01*
X012629Y020747D01*
X012712Y020663D01*
X012796Y020663D01*
X013142Y021164D02*
X013225Y021164D01*
X013392Y020997D01*
X013392Y020830D02*
X013392Y021164D01*
X013574Y021080D02*
X013658Y021164D01*
X013824Y021164D01*
X013908Y021080D01*
X013908Y020913D01*
X013824Y020830D01*
X013658Y020830D01*
X013574Y020913D01*
X013574Y021080D01*
X014082Y020913D02*
X014082Y020830D01*
X014166Y020830D01*
X014166Y020913D01*
X014082Y020913D01*
X014348Y020913D02*
X014348Y021080D01*
X014431Y021164D01*
X014598Y021164D01*
X014681Y021080D01*
X014681Y020913D01*
X014598Y020830D01*
X014431Y020830D01*
X014348Y020913D01*
X014863Y020830D02*
X014863Y021080D01*
X014947Y021164D01*
X015197Y021164D01*
X015197Y020830D01*
X015374Y020830D02*
X015541Y020830D01*
X015457Y020830D02*
X015457Y021164D01*
X015541Y021164D01*
X015720Y021164D02*
X015803Y021164D01*
X015970Y020997D01*
X015970Y020830D02*
X015970Y021164D01*
X016152Y021080D02*
X016152Y020830D01*
X016403Y020830D01*
X016486Y020913D01*
X016403Y020997D01*
X016152Y020997D01*
X016152Y021080D02*
X016236Y021164D01*
X016403Y021164D01*
X015457Y021330D02*
X015457Y021414D01*
X014262Y020164D02*
X014345Y020080D01*
X014262Y020164D02*
X014012Y020164D01*
X013830Y020080D02*
X013746Y020164D01*
X012798Y019913D02*
X012715Y019997D01*
X016666Y019913D02*
X016666Y020164D01*
X019582Y020830D02*
X019666Y020913D01*
X019666Y021164D01*
X021035Y020414D02*
X021035Y020330D01*
D12*
X020096Y022400D02*
X020096Y023201D01*
X019562Y023201D01*
X019175Y022934D02*
X019175Y022533D01*
X019041Y022400D01*
X018641Y022400D01*
X018641Y022934D01*
X018254Y022934D02*
X017854Y022934D01*
X017720Y022800D01*
X017720Y022533D01*
X017854Y022400D01*
X018254Y022400D01*
X018254Y023201D01*
X017200Y022934D02*
X016933Y022934D01*
X016800Y022800D01*
X016800Y022400D01*
X017200Y022400D01*
X017333Y022533D01*
X017200Y022667D01*
X016800Y022667D01*
X016413Y022667D02*
X016146Y022934D01*
X016012Y022934D01*
X015645Y022934D02*
X015512Y022934D01*
X015512Y022400D01*
X015645Y022400D02*
X015378Y022400D01*
X015031Y022400D02*
X015031Y022934D01*
X014631Y022934D01*
X014498Y022800D01*
X014498Y022400D01*
X014111Y022533D02*
X014111Y022800D01*
X013977Y022934D01*
X013710Y022934D01*
X013577Y022800D01*
X013577Y022533D01*
X013710Y022400D01*
X013977Y022400D01*
X014111Y022533D01*
X015512Y023201D02*
X015512Y023334D01*
X016413Y022934D02*
X016413Y022400D01*
X019829Y022800D02*
X020096Y022800D01*
X012269Y022934D02*
X012136Y022800D01*
X011869Y022800D01*
X011735Y022667D01*
X011735Y022533D01*
X011869Y022400D01*
X012136Y022400D01*
X012269Y022533D01*
X012269Y022934D02*
X012269Y023067D01*
X012136Y023201D01*
X011869Y023201D01*
X011735Y023067D01*
X011348Y023201D02*
X010948Y023201D01*
X010814Y023067D01*
X010814Y022533D01*
X010948Y022400D01*
X011348Y022400D01*
X011348Y023201D01*
D13*
X004952Y021106D02*
X004938Y021145D01*
X004924Y021183D01*
X004552Y021183D01*
X004546Y021192D02*
X004920Y021192D01*
X004916Y021200D02*
X004539Y021200D01*
X004532Y021209D02*
X004912Y021209D01*
X004908Y021217D02*
X004526Y021217D01*
X004519Y021226D02*
X004903Y021226D01*
X004900Y021232D02*
X004885Y021265D01*
X004851Y021320D01*
X004832Y021348D01*
X004816Y021372D01*
X004800Y021393D01*
X004759Y021441D01*
X004735Y021466D01*
X004704Y021496D01*
X004676Y021519D01*
X004639Y021551D01*
X004587Y021588D01*
X004519Y021628D01*
X004438Y021667D01*
X004353Y021696D01*
X004271Y021718D01*
X004192Y021730D01*
X004103Y021738D01*
X003950Y021738D01*
X003950Y021421D01*
X004776Y021421D01*
X004783Y021413D02*
X004179Y021413D01*
X004202Y021409D02*
X004237Y021401D01*
X004272Y021391D01*
X004351Y021358D01*
X004418Y021317D01*
X004473Y021271D01*
X004519Y021226D01*
X004562Y021171D01*
X004593Y021116D01*
X004623Y021051D01*
X004646Y020980D01*
X004658Y020905D01*
X004660Y020830D01*
X004654Y020773D01*
X004641Y020704D01*
X004621Y020641D01*
X004589Y020572D01*
X004546Y020507D01*
X004499Y020452D01*
X004450Y020407D01*
X004395Y020372D01*
X004337Y020336D01*
X004294Y020317D01*
X004233Y020297D01*
X004178Y020285D01*
X004137Y020279D01*
X003950Y020279D01*
X003950Y019923D01*
X004107Y019923D01*
X004182Y019929D01*
X004255Y019941D01*
X004332Y019958D01*
X004395Y019978D01*
X004440Y019996D01*
X004493Y020019D01*
X004542Y020045D01*
X004603Y020084D01*
X004650Y020118D01*
X004696Y020157D01*
X004731Y020191D01*
X004776Y020240D01*
X004810Y020279D01*
X004841Y020326D01*
X004875Y020378D01*
X004910Y020444D01*
X004489Y020444D01*
X004499Y020452D02*
X004913Y020452D01*
X004910Y020444D02*
X004932Y020498D01*
X004952Y020555D01*
X004973Y020633D01*
X004985Y020694D01*
X004993Y020765D01*
X004995Y020822D01*
X004993Y020881D01*
X004991Y020907D01*
X004987Y020946D01*
X004981Y020990D01*
X004967Y021055D01*
X004952Y021106D01*
X004951Y021107D02*
X004598Y021107D01*
X004594Y021115D02*
X004948Y021115D01*
X004945Y021124D02*
X004589Y021124D01*
X004584Y021132D02*
X004942Y021132D01*
X004939Y021141D02*
X004579Y021141D01*
X004574Y021149D02*
X004936Y021149D01*
X004933Y021158D02*
X004569Y021158D01*
X004565Y021166D02*
X004930Y021166D01*
X004927Y021175D02*
X004559Y021175D01*
X004510Y021234D02*
X004899Y021234D01*
X004900Y021232D02*
X004924Y021183D01*
X004895Y021243D02*
X004502Y021243D01*
X004493Y021251D02*
X004891Y021251D01*
X004887Y021260D02*
X004485Y021260D01*
X004476Y021268D02*
X004883Y021268D01*
X004878Y021277D02*
X004467Y021277D01*
X004456Y021285D02*
X004873Y021285D01*
X004868Y021294D02*
X004446Y021294D01*
X004436Y021302D02*
X004862Y021302D01*
X004857Y021311D02*
X004425Y021311D01*
X004414Y021319D02*
X004852Y021319D01*
X004846Y021328D02*
X004400Y021328D01*
X004386Y021336D02*
X004840Y021336D01*
X004834Y021345D02*
X004373Y021345D01*
X004359Y021353D02*
X004828Y021353D01*
X004822Y021362D02*
X004342Y021362D01*
X004322Y021370D02*
X004817Y021370D01*
X004811Y021379D02*
X004302Y021379D01*
X004282Y021387D02*
X004805Y021387D01*
X004798Y021396D02*
X004257Y021396D01*
X004224Y021404D02*
X004791Y021404D01*
X004768Y021430D02*
X003950Y021430D01*
X003950Y021438D02*
X004761Y021438D01*
X004753Y021447D02*
X003950Y021447D01*
X003950Y021455D02*
X004745Y021455D01*
X004737Y021464D02*
X003950Y021464D01*
X003950Y021472D02*
X004729Y021472D01*
X004720Y021481D02*
X003950Y021481D01*
X003950Y021489D02*
X004711Y021489D01*
X004701Y021498D02*
X003950Y021498D01*
X003950Y021506D02*
X004691Y021506D01*
X004681Y021515D02*
X003950Y021515D01*
X003950Y021523D02*
X004671Y021523D01*
X004661Y021532D02*
X003950Y021532D01*
X003950Y021540D02*
X004651Y021540D01*
X004641Y021549D02*
X003950Y021549D01*
X003950Y021557D02*
X004630Y021557D01*
X004618Y021566D02*
X003950Y021566D01*
X003950Y021574D02*
X004607Y021574D01*
X004595Y021583D02*
X003950Y021583D01*
X003950Y021591D02*
X004582Y021591D01*
X004567Y021600D02*
X003950Y021600D01*
X003950Y021608D02*
X004553Y021608D01*
X004538Y021617D02*
X003950Y021617D01*
X003950Y021625D02*
X004523Y021625D01*
X004506Y021634D02*
X003950Y021634D01*
X003950Y021642D02*
X004489Y021642D01*
X004471Y021651D02*
X003950Y021651D01*
X003950Y021659D02*
X004454Y021659D01*
X004436Y021668D02*
X003950Y021668D01*
X003950Y021676D02*
X004412Y021676D01*
X004387Y021685D02*
X003950Y021685D01*
X003950Y021693D02*
X004363Y021693D01*
X004334Y021702D02*
X003950Y021702D01*
X003950Y021710D02*
X004301Y021710D01*
X004267Y021719D02*
X003950Y021719D01*
X003950Y021727D02*
X004210Y021727D01*
X004128Y021736D02*
X003950Y021736D01*
X003950Y021421D02*
X004097Y021421D01*
X004150Y021417D01*
X004202Y021409D01*
X004601Y021098D02*
X004954Y021098D01*
X004957Y021090D02*
X004605Y021090D01*
X004609Y021081D02*
X004959Y021081D01*
X004962Y021073D02*
X004613Y021073D01*
X004617Y021064D02*
X004964Y021064D01*
X004967Y021056D02*
X004621Y021056D01*
X004624Y021047D02*
X004969Y021047D01*
X004971Y021039D02*
X004627Y021039D01*
X004630Y021030D02*
X004973Y021030D01*
X004974Y021022D02*
X004633Y021022D01*
X004635Y021013D02*
X004976Y021013D01*
X004978Y021005D02*
X004638Y021005D01*
X004641Y020996D02*
X004980Y020996D01*
X004981Y020988D02*
X004644Y020988D01*
X004647Y020979D02*
X004983Y020979D01*
X004984Y020971D02*
X004648Y020971D01*
X004649Y020962D02*
X004985Y020962D01*
X004986Y020954D02*
X004651Y020954D01*
X004652Y020945D02*
X004987Y020945D01*
X004988Y020937D02*
X004653Y020937D01*
X004655Y020928D02*
X004989Y020928D01*
X004990Y020920D02*
X004656Y020920D01*
X004657Y020911D02*
X004991Y020911D01*
X004991Y020903D02*
X004658Y020903D01*
X004659Y020894D02*
X004992Y020894D01*
X004993Y020886D02*
X004659Y020886D01*
X004659Y020877D02*
X004993Y020877D01*
X004993Y020869D02*
X004659Y020869D01*
X004659Y020860D02*
X004994Y020860D01*
X004994Y020852D02*
X004660Y020852D01*
X004660Y020843D02*
X004994Y020843D01*
X004995Y020835D02*
X004660Y020835D01*
X004660Y020826D02*
X004995Y020826D01*
X004995Y020818D02*
X004659Y020818D01*
X004658Y020809D02*
X004994Y020809D01*
X004994Y020801D02*
X004657Y020801D01*
X004656Y020792D02*
X004994Y020792D01*
X004994Y020784D02*
X004655Y020784D01*
X004655Y020775D02*
X004993Y020775D01*
X004993Y020767D02*
X004653Y020767D01*
X004651Y020758D02*
X004992Y020758D01*
X004991Y020750D02*
X004650Y020750D01*
X004648Y020741D02*
X004990Y020741D01*
X004989Y020733D02*
X004646Y020733D01*
X004645Y020724D02*
X004988Y020724D01*
X004987Y020716D02*
X004643Y020716D01*
X004641Y020707D02*
X004986Y020707D01*
X004986Y020699D02*
X004639Y020699D01*
X004636Y020690D02*
X004984Y020690D01*
X004983Y020682D02*
X004633Y020682D01*
X004631Y020673D02*
X004981Y020673D01*
X004979Y020665D02*
X004628Y020665D01*
X004626Y020656D02*
X004978Y020656D01*
X004976Y020648D02*
X004623Y020648D01*
X004620Y020639D02*
X004974Y020639D01*
X004972Y020631D02*
X004616Y020631D01*
X004612Y020622D02*
X004970Y020622D01*
X004968Y020614D02*
X004608Y020614D01*
X004604Y020605D02*
X004965Y020605D01*
X004963Y020597D02*
X004600Y020597D01*
X004597Y020588D02*
X004961Y020588D01*
X004958Y020580D02*
X004593Y020580D01*
X004589Y020571D02*
X004956Y020571D01*
X004954Y020563D02*
X004583Y020563D01*
X004577Y020554D02*
X004951Y020554D01*
X004948Y020546D02*
X004572Y020546D01*
X004566Y020537D02*
X004946Y020537D01*
X004943Y020529D02*
X004560Y020529D01*
X004555Y020520D02*
X004940Y020520D01*
X004937Y020512D02*
X004549Y020512D01*
X004542Y020503D02*
X004934Y020503D01*
X004931Y020495D02*
X004535Y020495D01*
X004528Y020486D02*
X004927Y020486D01*
X004924Y020478D02*
X004520Y020478D01*
X004513Y020469D02*
X004920Y020469D01*
X004917Y020461D02*
X004506Y020461D01*
X004480Y020435D02*
X004905Y020435D01*
X004901Y020427D02*
X004471Y020427D01*
X004462Y020418D02*
X004896Y020418D01*
X004892Y020410D02*
X004452Y020410D01*
X004440Y020401D02*
X004887Y020401D01*
X004883Y020393D02*
X004427Y020393D01*
X004414Y020384D02*
X004878Y020384D01*
X004874Y020376D02*
X004401Y020376D01*
X004387Y020367D02*
X004868Y020367D01*
X004862Y020359D02*
X004373Y020359D01*
X004360Y020350D02*
X004857Y020350D01*
X004851Y020342D02*
X004346Y020342D01*
X004331Y020333D02*
X004846Y020333D01*
X004840Y020325D02*
X004312Y020325D01*
X004293Y020316D02*
X004835Y020316D01*
X004829Y020308D02*
X004266Y020308D01*
X004240Y020299D02*
X004823Y020299D01*
X004818Y020291D02*
X004204Y020291D01*
X004157Y020282D02*
X004812Y020282D01*
X004805Y020274D02*
X003950Y020274D01*
X003950Y020265D02*
X004798Y020265D01*
X004791Y020257D02*
X003950Y020257D01*
X003950Y020248D02*
X004783Y020248D01*
X004776Y020240D02*
X003950Y020240D01*
X003950Y020231D02*
X004768Y020231D01*
X004761Y020223D02*
X003950Y020223D01*
X003950Y020214D02*
X004753Y020214D01*
X004745Y020206D02*
X003950Y020206D01*
X003950Y020197D02*
X004737Y020197D01*
X004729Y020189D02*
X003950Y020189D01*
X003950Y020180D02*
X004720Y020180D01*
X004711Y020172D02*
X003950Y020172D01*
X003950Y020163D02*
X004702Y020163D01*
X004693Y020155D02*
X003950Y020155D01*
X003950Y020146D02*
X004683Y020146D01*
X004673Y020138D02*
X003950Y020138D01*
X003950Y020129D02*
X004663Y020129D01*
X004654Y020121D02*
X003950Y020121D01*
X003950Y020112D02*
X004642Y020112D01*
X004630Y020104D02*
X003950Y020104D01*
X003950Y020095D02*
X004618Y020095D01*
X004606Y020087D02*
X003950Y020087D01*
X003950Y020078D02*
X004594Y020078D01*
X004580Y020070D02*
X003950Y020070D01*
X003950Y020061D02*
X004567Y020061D01*
X004554Y020053D02*
X003950Y020053D01*
X003950Y020044D02*
X004541Y020044D01*
X004524Y020036D02*
X003950Y020036D01*
X003950Y020027D02*
X004508Y020027D01*
X004491Y020019D02*
X003950Y020019D01*
X003950Y020010D02*
X004472Y020010D01*
X004453Y020002D02*
X003950Y020002D01*
X003950Y019993D02*
X004433Y019993D01*
X004411Y019985D02*
X003950Y019985D01*
X003950Y019976D02*
X004388Y019976D01*
X004361Y019968D02*
X003950Y019968D01*
X003950Y019959D02*
X004334Y019959D01*
X004298Y019951D02*
X003950Y019951D01*
X003950Y019942D02*
X004261Y019942D01*
X004212Y019934D02*
X003950Y019934D01*
X003950Y019925D02*
X004135Y019925D01*
X003381Y020381D02*
X003428Y020478D01*
X003469Y020600D01*
X003491Y020710D01*
X003499Y020822D01*
X003495Y020929D01*
X003477Y021033D01*
X003458Y021102D01*
X003436Y021163D01*
X003391Y021259D01*
X003345Y021336D01*
X003300Y021397D01*
X003235Y021470D01*
X003190Y021511D01*
X003145Y021549D01*
X002414Y021549D01*
X002414Y021557D02*
X003133Y021557D01*
X003145Y021549D02*
X003068Y021602D01*
X002991Y021643D01*
X002952Y021661D01*
X002912Y021677D01*
X002877Y021691D01*
X002816Y021708D01*
X002761Y021720D01*
X002694Y021730D01*
X002605Y021736D01*
X002414Y021736D01*
X002414Y021421D01*
X003279Y021421D01*
X003286Y021413D02*
X002686Y021413D01*
X002674Y021415D02*
X002733Y021403D01*
X002798Y021383D01*
X002871Y021348D01*
X002948Y021297D01*
X003001Y021250D01*
X003076Y021157D01*
X003131Y021045D01*
X003146Y020988D01*
X002613Y020988D01*
X002613Y020712D01*
X003148Y020712D01*
X003115Y020620D01*
X003085Y020563D01*
X003044Y020500D01*
X002950Y020403D01*
X002883Y020356D01*
X002808Y020320D01*
X002713Y020293D01*
X002658Y020283D01*
X002605Y020279D01*
X002416Y020279D01*
X002416Y019923D01*
X002605Y019923D01*
X002692Y019929D01*
X002774Y019943D01*
X002851Y019962D01*
X002936Y019990D01*
X003038Y020041D01*
X003139Y020104D01*
X003219Y020175D01*
X003280Y020240D01*
X003326Y020297D01*
X003381Y020381D01*
X003382Y020384D02*
X002923Y020384D01*
X002935Y020393D02*
X003386Y020393D01*
X003390Y020401D02*
X002947Y020401D01*
X002956Y020410D02*
X003395Y020410D01*
X003399Y020418D02*
X002964Y020418D01*
X002973Y020427D02*
X003403Y020427D01*
X003407Y020435D02*
X002981Y020435D01*
X002989Y020444D02*
X003411Y020444D01*
X003415Y020452D02*
X002998Y020452D01*
X003006Y020461D02*
X003419Y020461D01*
X003424Y020469D02*
X003014Y020469D01*
X003023Y020478D02*
X003428Y020478D01*
X003431Y020486D02*
X003031Y020486D01*
X003039Y020495D02*
X003434Y020495D01*
X003437Y020503D02*
X003046Y020503D01*
X003052Y020512D02*
X003439Y020512D01*
X003442Y020520D02*
X003058Y020520D01*
X003063Y020529D02*
X003445Y020529D01*
X003448Y020537D02*
X003069Y020537D01*
X003074Y020546D02*
X003451Y020546D01*
X003454Y020554D02*
X003080Y020554D01*
X003085Y020563D02*
X003457Y020563D01*
X003460Y020571D02*
X003090Y020571D01*
X003094Y020580D02*
X003462Y020580D01*
X003465Y020588D02*
X003099Y020588D01*
X003103Y020597D02*
X003468Y020597D01*
X003470Y020605D02*
X003107Y020605D01*
X003112Y020614D02*
X003472Y020614D01*
X003474Y020622D02*
X003116Y020622D01*
X003119Y020631D02*
X003475Y020631D01*
X003477Y020639D02*
X003122Y020639D01*
X003125Y020648D02*
X003479Y020648D01*
X003480Y020656D02*
X003128Y020656D01*
X003131Y020665D02*
X003482Y020665D01*
X003484Y020673D02*
X003134Y020673D01*
X003137Y020682D02*
X003485Y020682D01*
X003487Y020690D02*
X003140Y020690D01*
X003144Y020699D02*
X003489Y020699D01*
X003490Y020707D02*
X003147Y020707D01*
X003144Y020996D02*
X003483Y020996D01*
X003485Y020988D02*
X002613Y020988D01*
X002613Y020979D02*
X003486Y020979D01*
X003488Y020971D02*
X002613Y020971D01*
X002613Y020962D02*
X003489Y020962D01*
X003491Y020954D02*
X002613Y020954D01*
X002613Y020945D02*
X003492Y020945D01*
X003494Y020937D02*
X002613Y020937D01*
X002613Y020928D02*
X003495Y020928D01*
X003495Y020920D02*
X002613Y020920D01*
X002613Y020911D02*
X003496Y020911D01*
X003496Y020903D02*
X002613Y020903D01*
X002613Y020894D02*
X003496Y020894D01*
X003497Y020886D02*
X002613Y020886D01*
X002613Y020877D02*
X003497Y020877D01*
X003497Y020869D02*
X002613Y020869D01*
X002613Y020860D02*
X003497Y020860D01*
X003498Y020852D02*
X002613Y020852D01*
X002613Y020843D02*
X003498Y020843D01*
X003498Y020835D02*
X002613Y020835D01*
X002613Y020826D02*
X003499Y020826D01*
X003499Y020818D02*
X002613Y020818D01*
X002613Y020809D02*
X003498Y020809D01*
X003497Y020801D02*
X002613Y020801D01*
X002613Y020792D02*
X003497Y020792D01*
X003496Y020784D02*
X002613Y020784D01*
X002613Y020775D02*
X003496Y020775D01*
X003495Y020767D02*
X002613Y020767D01*
X002613Y020758D02*
X003494Y020758D01*
X003494Y020750D02*
X002613Y020750D01*
X002613Y020741D02*
X003493Y020741D01*
X003493Y020733D02*
X002613Y020733D01*
X002613Y020724D02*
X003492Y020724D01*
X003491Y020716D02*
X002613Y020716D01*
X002735Y020299D02*
X003327Y020299D01*
X003333Y020308D02*
X002764Y020308D01*
X002793Y020316D02*
X003338Y020316D01*
X003344Y020325D02*
X002817Y020325D01*
X002835Y020333D02*
X003349Y020333D01*
X003355Y020342D02*
X002852Y020342D01*
X002870Y020350D02*
X003360Y020350D01*
X003366Y020359D02*
X002886Y020359D01*
X002899Y020367D02*
X003371Y020367D01*
X003377Y020376D02*
X002911Y020376D01*
X002700Y020291D02*
X003321Y020291D01*
X003314Y020282D02*
X002645Y020282D01*
X002416Y020274D02*
X003307Y020274D01*
X003300Y020265D02*
X002416Y020265D01*
X002416Y020257D02*
X003294Y020257D01*
X003287Y020248D02*
X002416Y020248D01*
X002416Y020240D02*
X003280Y020240D01*
X003272Y020231D02*
X002416Y020231D01*
X002416Y020223D02*
X003264Y020223D01*
X003256Y020214D02*
X002416Y020214D01*
X002416Y020206D02*
X003248Y020206D01*
X003240Y020197D02*
X002416Y020197D01*
X002416Y020189D02*
X003232Y020189D01*
X003224Y020180D02*
X002416Y020180D01*
X002416Y020172D02*
X003216Y020172D01*
X003206Y020163D02*
X002416Y020163D01*
X002416Y020155D02*
X003196Y020155D01*
X003187Y020146D02*
X002416Y020146D01*
X002416Y020138D02*
X003177Y020138D01*
X003167Y020129D02*
X002416Y020129D01*
X002416Y020121D02*
X003158Y020121D01*
X003148Y020112D02*
X002416Y020112D01*
X002416Y020104D02*
X003138Y020104D01*
X003124Y020095D02*
X002416Y020095D01*
X002416Y020087D02*
X003111Y020087D01*
X003097Y020078D02*
X002416Y020078D01*
X002416Y020070D02*
X003084Y020070D01*
X003070Y020061D02*
X002416Y020061D01*
X002416Y020053D02*
X003057Y020053D01*
X003043Y020044D02*
X002416Y020044D01*
X002416Y020036D02*
X003027Y020036D01*
X003010Y020027D02*
X002416Y020027D01*
X002416Y020019D02*
X002993Y020019D01*
X002976Y020010D02*
X002416Y020010D01*
X002416Y020002D02*
X002959Y020002D01*
X002942Y019993D02*
X002416Y019993D01*
X002416Y019985D02*
X002920Y019985D01*
X002894Y019976D02*
X002416Y019976D01*
X002416Y019968D02*
X002868Y019968D01*
X002839Y019959D02*
X002416Y019959D01*
X002416Y019951D02*
X002806Y019951D01*
X002772Y019942D02*
X002416Y019942D01*
X002416Y019934D02*
X002721Y019934D01*
X002638Y019925D02*
X002416Y019925D01*
X003142Y021005D02*
X003482Y021005D01*
X003481Y021013D02*
X003140Y021013D01*
X003137Y021022D02*
X003479Y021022D01*
X003478Y021030D02*
X003135Y021030D01*
X003132Y021039D02*
X003476Y021039D01*
X003473Y021047D02*
X003130Y021047D01*
X003125Y021056D02*
X003471Y021056D01*
X003468Y021064D02*
X003121Y021064D01*
X003117Y021073D02*
X003466Y021073D01*
X003463Y021081D02*
X003113Y021081D01*
X003109Y021090D02*
X003461Y021090D01*
X003459Y021098D02*
X003105Y021098D01*
X003100Y021107D02*
X003456Y021107D01*
X003453Y021115D02*
X003096Y021115D01*
X003092Y021124D02*
X003450Y021124D01*
X003447Y021132D02*
X003088Y021132D01*
X003084Y021141D02*
X003444Y021141D01*
X003441Y021149D02*
X003080Y021149D01*
X003075Y021158D02*
X003438Y021158D01*
X003434Y021166D02*
X003068Y021166D01*
X003061Y021175D02*
X003430Y021175D01*
X003426Y021183D02*
X003055Y021183D01*
X003048Y021192D02*
X003422Y021192D01*
X003418Y021200D02*
X003041Y021200D01*
X003034Y021209D02*
X003414Y021209D01*
X003410Y021217D02*
X003027Y021217D01*
X003020Y021226D02*
X003406Y021226D01*
X003402Y021234D02*
X003013Y021234D01*
X003006Y021243D02*
X003399Y021243D01*
X003395Y021251D02*
X002999Y021251D01*
X002990Y021260D02*
X003391Y021260D01*
X003385Y021268D02*
X002980Y021268D01*
X002970Y021277D02*
X003380Y021277D01*
X003375Y021285D02*
X002961Y021285D01*
X002951Y021294D02*
X003370Y021294D01*
X003365Y021302D02*
X002940Y021302D01*
X002927Y021311D02*
X003360Y021311D01*
X003355Y021319D02*
X002914Y021319D01*
X002902Y021328D02*
X003350Y021328D01*
X003345Y021336D02*
X002889Y021336D01*
X002876Y021345D02*
X003339Y021345D01*
X003333Y021353D02*
X002860Y021353D01*
X002843Y021362D02*
X003326Y021362D01*
X003320Y021370D02*
X002826Y021370D01*
X002808Y021379D02*
X003314Y021379D01*
X003308Y021387D02*
X002786Y021387D01*
X002758Y021396D02*
X003301Y021396D01*
X003294Y021404D02*
X002728Y021404D01*
X002674Y021415D02*
X002597Y021421D01*
X002414Y021421D01*
X002414Y021430D02*
X003271Y021430D01*
X003264Y021438D02*
X002414Y021438D01*
X002414Y021447D02*
X003256Y021447D01*
X003248Y021455D02*
X002414Y021455D01*
X002414Y021464D02*
X003241Y021464D01*
X003233Y021472D02*
X002414Y021472D01*
X002414Y021481D02*
X003224Y021481D01*
X003214Y021489D02*
X002414Y021489D01*
X002414Y021498D02*
X003205Y021498D01*
X003196Y021506D02*
X002414Y021506D01*
X002414Y021515D02*
X003186Y021515D01*
X003176Y021523D02*
X002414Y021523D01*
X002414Y021532D02*
X003165Y021532D01*
X003155Y021540D02*
X002414Y021540D01*
X002414Y021566D02*
X003120Y021566D01*
X003108Y021574D02*
X002414Y021574D01*
X002414Y021583D02*
X003096Y021583D01*
X003083Y021591D02*
X002414Y021591D01*
X002414Y021600D02*
X003071Y021600D01*
X003056Y021608D02*
X002414Y021608D01*
X002414Y021617D02*
X003041Y021617D01*
X003025Y021625D02*
X002414Y021625D01*
X002414Y021634D02*
X003009Y021634D01*
X002993Y021642D02*
X002414Y021642D01*
X002414Y021651D02*
X002975Y021651D01*
X002956Y021659D02*
X002414Y021659D01*
X002414Y021668D02*
X002935Y021668D01*
X002914Y021676D02*
X002414Y021676D01*
X002414Y021685D02*
X002892Y021685D01*
X002868Y021693D02*
X002414Y021693D01*
X002414Y021702D02*
X002839Y021702D01*
X002807Y021710D02*
X002414Y021710D01*
X002414Y021719D02*
X002768Y021719D01*
X002713Y021727D02*
X002414Y021727D01*
X002414Y021736D02*
X002608Y021736D01*
D14*
X005546Y021740D02*
X006846Y020401D01*
X006385Y020519D02*
X006326Y020519D01*
X006326Y020618D01*
X006354Y020618D01*
X006354Y020531D01*
X006385Y020519D02*
X006385Y020614D01*
X006405Y020618D02*
X006354Y020618D01*
X006326Y020618D02*
X006054Y020618D01*
X006058Y020622D02*
X006043Y020586D01*
X006023Y020563D01*
X005995Y020547D01*
X005960Y020543D01*
X005921Y020551D01*
X005893Y020570D01*
X005873Y020602D01*
X005869Y020637D01*
X005873Y020673D01*
X005889Y020700D01*
X005913Y020716D01*
X005921Y020728D02*
X005956Y020732D01*
X005995Y020728D01*
X006035Y020704D01*
X006046Y020681D01*
X006058Y020653D01*
X006058Y020622D01*
X005987Y020633D02*
X005987Y020645D01*
X005980Y020657D01*
X005968Y020661D01*
X005964Y020641D01*
X005960Y020661D02*
X005948Y020657D01*
X005940Y020645D01*
X005940Y020630D01*
X005948Y020618D01*
X005960Y020614D01*
X005972Y020614D01*
X005984Y020622D01*
X005987Y020633D01*
X005921Y020728D02*
X005865Y021358D01*
X005779Y021358D01*
X005779Y021472D01*
X005854Y021472D01*
X005893Y021472D01*
X005893Y021358D01*
X005865Y021358D01*
X005854Y021472D02*
X005854Y021543D01*
X005869Y021586D01*
X005897Y021622D01*
X005924Y021645D01*
X005960Y021661D01*
X006011Y021673D01*
X006058Y021681D01*
X006062Y021653D02*
X006062Y021712D01*
X006235Y021712D01*
X006235Y021665D01*
X006239Y021653D02*
X006062Y021653D01*
X006239Y021653D02*
X006239Y021681D01*
X006263Y021681D01*
X006295Y021677D01*
X006330Y021673D01*
X006377Y021657D01*
X006417Y021641D01*
X006448Y021618D01*
X006472Y021586D01*
X006484Y021535D01*
X006405Y020618D01*
X006239Y021252D02*
X006019Y021252D01*
X006019Y021322D01*
X006239Y021322D01*
X006239Y021287D01*
X006039Y021287D01*
X006239Y021287D02*
X006239Y021252D01*
X006381Y021559D02*
X006381Y021685D01*
X006413Y021685D01*
X006413Y021681D02*
X006413Y021559D01*
X006381Y021559D01*
X006546Y021555D02*
X006546Y021531D01*
X005822Y021527D01*
X005822Y021551D01*
X006546Y021555D01*
X006846Y021740D02*
X005586Y020441D01*
X005814Y021551D02*
X005822Y021551D01*
X005838Y021551D01*
X005842Y021567D01*
X005818Y021582D01*
X005814Y021551D02*
X005795Y021559D01*
X005787Y021567D01*
X005783Y021582D01*
X005787Y021602D01*
X005798Y021614D01*
X005810Y021618D01*
X005830Y021618D01*
X005846Y021606D01*
X005854Y021590D01*
D15*
X006161Y019992D03*
D16*
X014987Y023969D02*
X014987Y024308D01*
X014885Y024308D01*
X014885Y024442D01*
X015239Y024442D01*
X015239Y024308D01*
X015137Y024308D01*
X015137Y023969D01*
X014987Y023969D01*
X014987Y023971D02*
X015137Y023971D01*
X015137Y023974D02*
X014987Y023974D01*
X014987Y023976D02*
X015137Y023976D01*
X015137Y023978D02*
X014987Y023978D01*
X014987Y023981D02*
X015137Y023981D01*
X015137Y023983D02*
X014987Y023983D01*
X014987Y023986D02*
X015137Y023986D01*
X015137Y023988D02*
X014987Y023988D01*
X014987Y023991D02*
X015137Y023991D01*
X015137Y023993D02*
X014987Y023993D01*
X014987Y023995D02*
X015137Y023995D01*
X015137Y023998D02*
X014987Y023998D01*
X014987Y024000D02*
X015137Y024000D01*
X015137Y024003D02*
X014987Y024003D01*
X014987Y024005D02*
X015137Y024005D01*
X015137Y024008D02*
X014987Y024008D01*
X014987Y024010D02*
X015137Y024010D01*
X015137Y024013D02*
X014987Y024013D01*
X014987Y024015D02*
X015137Y024015D01*
X015137Y024017D02*
X014987Y024017D01*
X014987Y024020D02*
X015137Y024020D01*
X015137Y024022D02*
X014987Y024022D01*
X014987Y024025D02*
X015137Y024025D01*
X015137Y024027D02*
X014987Y024027D01*
X014987Y024030D02*
X015137Y024030D01*
X015137Y024032D02*
X014987Y024032D01*
X014987Y024034D02*
X015137Y024034D01*
X015137Y024037D02*
X014987Y024037D01*
X014987Y024039D02*
X015137Y024039D01*
X015137Y024042D02*
X014987Y024042D01*
X014987Y024044D02*
X015137Y024044D01*
X015137Y024047D02*
X014987Y024047D01*
X014987Y024049D02*
X015137Y024049D01*
X015137Y024052D02*
X014987Y024052D01*
X014987Y024054D02*
X015137Y024054D01*
X015137Y024056D02*
X014987Y024056D01*
X014987Y024059D02*
X015137Y024059D01*
X015137Y024061D02*
X014987Y024061D01*
X014987Y024064D02*
X015137Y024064D01*
X015137Y024066D02*
X014987Y024066D01*
X014987Y024069D02*
X015137Y024069D01*
X015137Y024071D02*
X014987Y024071D01*
X014987Y024073D02*
X015137Y024073D01*
X015137Y024076D02*
X014987Y024076D01*
X014987Y024078D02*
X015137Y024078D01*
X015137Y024081D02*
X014987Y024081D01*
X014987Y024083D02*
X015137Y024083D01*
X015137Y024086D02*
X014987Y024086D01*
X014987Y024088D02*
X015137Y024088D01*
X015137Y024091D02*
X014987Y024091D01*
X014987Y024093D02*
X015137Y024093D01*
X015137Y024095D02*
X014987Y024095D01*
X014987Y024098D02*
X015137Y024098D01*
X015137Y024100D02*
X014987Y024100D01*
X014987Y024103D02*
X015137Y024103D01*
X015137Y024105D02*
X014987Y024105D01*
X014987Y024108D02*
X015137Y024108D01*
X015137Y024110D02*
X014987Y024110D01*
X014987Y024112D02*
X015137Y024112D01*
X015137Y024115D02*
X014987Y024115D01*
X014987Y024117D02*
X015137Y024117D01*
X015137Y024120D02*
X014987Y024120D01*
X014987Y024122D02*
X015137Y024122D01*
X015137Y024125D02*
X014987Y024125D01*
X014987Y024127D02*
X015137Y024127D01*
X015137Y024130D02*
X014987Y024130D01*
X014987Y024132D02*
X015137Y024132D01*
X015137Y024134D02*
X014987Y024134D01*
X014987Y024137D02*
X015137Y024137D01*
X015137Y024139D02*
X014987Y024139D01*
X014987Y024142D02*
X015137Y024142D01*
X015137Y024144D02*
X014987Y024144D01*
X014987Y024147D02*
X015137Y024147D01*
X015137Y024149D02*
X014987Y024149D01*
X014987Y024151D02*
X015137Y024151D01*
X015137Y024154D02*
X014987Y024154D01*
X014987Y024156D02*
X015137Y024156D01*
X015137Y024159D02*
X014987Y024159D01*
X014987Y024161D02*
X015137Y024161D01*
X015137Y024164D02*
X014987Y024164D01*
X014987Y024166D02*
X015137Y024166D01*
X015137Y024169D02*
X014987Y024169D01*
X014987Y024171D02*
X015137Y024171D01*
X015137Y024173D02*
X014987Y024173D01*
X014987Y024176D02*
X015137Y024176D01*
X015137Y024178D02*
X014987Y024178D01*
X014987Y024181D02*
X015137Y024181D01*
X015137Y024183D02*
X014987Y024183D01*
X014987Y024186D02*
X015137Y024186D01*
X015137Y024188D02*
X014987Y024188D01*
X014987Y024190D02*
X015137Y024190D01*
X015137Y024193D02*
X014987Y024193D01*
X014987Y024195D02*
X015137Y024195D01*
X015137Y024198D02*
X014987Y024198D01*
X014987Y024200D02*
X015137Y024200D01*
X015137Y024203D02*
X014987Y024203D01*
X014987Y024205D02*
X015137Y024205D01*
X015137Y024208D02*
X014987Y024208D01*
X014987Y024210D02*
X015137Y024210D01*
X015137Y024212D02*
X014987Y024212D01*
X014987Y024215D02*
X015137Y024215D01*
X015137Y024217D02*
X014987Y024217D01*
X014987Y024220D02*
X015137Y024220D01*
X015137Y024222D02*
X014987Y024222D01*
X014987Y024225D02*
X015137Y024225D01*
X015137Y024227D02*
X014987Y024227D01*
X014987Y024229D02*
X015137Y024229D01*
X015137Y024232D02*
X014987Y024232D01*
X014987Y024234D02*
X015137Y024234D01*
X015137Y024237D02*
X014987Y024237D01*
X014987Y024239D02*
X015137Y024239D01*
X015137Y024242D02*
X014987Y024242D01*
X014987Y024244D02*
X015137Y024244D01*
X015137Y024247D02*
X014987Y024247D01*
X014987Y024249D02*
X015137Y024249D01*
X015137Y024251D02*
X014987Y024251D01*
X014987Y024254D02*
X015137Y024254D01*
X015137Y024256D02*
X014987Y024256D01*
X014987Y024259D02*
X015137Y024259D01*
X015137Y024261D02*
X014987Y024261D01*
X014987Y024264D02*
X015137Y024264D01*
X015137Y024266D02*
X014987Y024266D01*
X014987Y024268D02*
X015137Y024268D01*
X015137Y024271D02*
X014987Y024271D01*
X014987Y024273D02*
X015137Y024273D01*
X015137Y024276D02*
X014987Y024276D01*
X014987Y024278D02*
X015137Y024278D01*
X015137Y024281D02*
X014987Y024281D01*
X014987Y024283D02*
X015137Y024283D01*
X015137Y024286D02*
X014987Y024286D01*
X014987Y024288D02*
X015137Y024288D01*
X015137Y024290D02*
X014987Y024290D01*
X014987Y024293D02*
X015137Y024293D01*
X015137Y024295D02*
X014987Y024295D01*
X014987Y024298D02*
X015137Y024298D01*
X015137Y024300D02*
X014987Y024300D01*
X014987Y024303D02*
X015137Y024303D01*
X015137Y024305D02*
X014987Y024305D01*
X014987Y024307D02*
X015137Y024307D01*
X015239Y024310D02*
X014885Y024310D01*
X014885Y024312D02*
X015239Y024312D01*
X015239Y024315D02*
X014885Y024315D01*
X014885Y024317D02*
X015239Y024317D01*
X015239Y024320D02*
X014885Y024320D01*
X014885Y024322D02*
X015239Y024322D01*
X015239Y024325D02*
X014885Y024325D01*
X014885Y024327D02*
X015239Y024327D01*
X015239Y024329D02*
X014885Y024329D01*
X014885Y024332D02*
X015239Y024332D01*
X015239Y024334D02*
X014885Y024334D01*
X014885Y024337D02*
X015239Y024337D01*
X015239Y024339D02*
X014885Y024339D01*
X014885Y024342D02*
X015239Y024342D01*
X015239Y024344D02*
X014885Y024344D01*
X014885Y024346D02*
X015239Y024346D01*
X015239Y024349D02*
X014885Y024349D01*
X014885Y024351D02*
X015239Y024351D01*
X015239Y024354D02*
X014885Y024354D01*
X014885Y024356D02*
X015239Y024356D01*
X015239Y024359D02*
X014885Y024359D01*
X014885Y024361D02*
X015239Y024361D01*
X015239Y024364D02*
X014885Y024364D01*
X014885Y024366D02*
X015239Y024366D01*
X015239Y024368D02*
X014885Y024368D01*
X014885Y024371D02*
X015239Y024371D01*
X015239Y024373D02*
X014885Y024373D01*
X014885Y024376D02*
X015239Y024376D01*
X015239Y024378D02*
X014885Y024378D01*
X014885Y024381D02*
X015239Y024381D01*
X015239Y024383D02*
X014885Y024383D01*
X014885Y024385D02*
X015239Y024385D01*
X015239Y024388D02*
X014885Y024388D01*
X014885Y024390D02*
X015239Y024390D01*
X015239Y024393D02*
X014885Y024393D01*
X014885Y024395D02*
X015239Y024395D01*
X015239Y024398D02*
X014885Y024398D01*
X014885Y024400D02*
X015239Y024400D01*
X015239Y024403D02*
X014885Y024403D01*
X014885Y024405D02*
X015239Y024405D01*
X015239Y024407D02*
X014885Y024407D01*
X014885Y024410D02*
X015239Y024410D01*
X015239Y024412D02*
X014885Y024412D01*
X014885Y024415D02*
X015239Y024415D01*
X015239Y024417D02*
X014885Y024417D01*
X014885Y024420D02*
X015239Y024420D01*
X015239Y024422D02*
X014885Y024422D01*
X014885Y024424D02*
X015239Y024424D01*
X015239Y024427D02*
X014885Y024427D01*
X014885Y024429D02*
X015239Y024429D01*
X015239Y024432D02*
X014885Y024432D01*
X014885Y024434D02*
X015239Y024434D01*
X015239Y024437D02*
X014885Y024437D01*
X014885Y024439D02*
X015239Y024439D01*
X015239Y024442D02*
X014885Y024442D01*
X015286Y024442D02*
X015428Y024442D01*
X015286Y024442D01*
X015286Y023969D01*
X015428Y023969D01*
X015428Y024442D01*
X015428Y024439D02*
X015286Y024439D01*
X015286Y024437D02*
X015428Y024437D01*
X015428Y024434D02*
X015286Y024434D01*
X015286Y024432D02*
X015428Y024432D01*
X015428Y024429D02*
X015286Y024429D01*
X015286Y024427D02*
X015428Y024427D01*
X015428Y024424D02*
X015286Y024424D01*
X015286Y024422D02*
X015428Y024422D01*
X015428Y024420D02*
X015286Y024420D01*
X015286Y024417D02*
X015428Y024417D01*
X015428Y024415D02*
X015286Y024415D01*
X015286Y024412D02*
X015428Y024412D01*
X015428Y024410D02*
X015286Y024410D01*
X015286Y024407D02*
X015428Y024407D01*
X015428Y024405D02*
X015286Y024405D01*
X015286Y024403D02*
X015428Y024403D01*
X015428Y024400D02*
X015286Y024400D01*
X015286Y024398D02*
X015428Y024398D01*
X015428Y024395D02*
X015286Y024395D01*
X015286Y024393D02*
X015428Y024393D01*
X015428Y024390D02*
X015286Y024390D01*
X015286Y024388D02*
X015428Y024388D01*
X015428Y024385D02*
X015286Y024385D01*
X015286Y024383D02*
X015428Y024383D01*
X015428Y024381D02*
X015286Y024381D01*
X015286Y024378D02*
X015428Y024378D01*
X015428Y024376D02*
X015286Y024376D01*
X015286Y024373D02*
X015428Y024373D01*
X015428Y024371D02*
X015286Y024371D01*
X015286Y024368D02*
X015428Y024368D01*
X015428Y024366D02*
X015286Y024366D01*
X015286Y024364D02*
X015428Y024364D01*
X015428Y024361D02*
X015286Y024361D01*
X015286Y024359D02*
X015428Y024359D01*
X015428Y024356D02*
X015286Y024356D01*
X015286Y024354D02*
X015428Y024354D01*
X015428Y024351D02*
X015286Y024351D01*
X015286Y024349D02*
X015428Y024349D01*
X015428Y024346D02*
X015286Y024346D01*
X015286Y024344D02*
X015428Y024344D01*
X015428Y024342D02*
X015286Y024342D01*
X015286Y024339D02*
X015428Y024339D01*
X015428Y024337D02*
X015286Y024337D01*
X015286Y024334D02*
X015428Y024334D01*
X015428Y024332D02*
X015286Y024332D01*
X015286Y024329D02*
X015428Y024329D01*
X015428Y024327D02*
X015286Y024327D01*
X015286Y024325D02*
X015428Y024325D01*
X015428Y024322D02*
X015286Y024322D01*
X015286Y024320D02*
X015428Y024320D01*
X015428Y024317D02*
X015286Y024317D01*
X015286Y024315D02*
X015428Y024315D01*
X015428Y024312D02*
X015286Y024312D01*
X015286Y024310D02*
X015428Y024310D01*
X015428Y024307D02*
X015286Y024307D01*
X015286Y024305D02*
X015428Y024305D01*
X015428Y024303D02*
X015286Y024303D01*
X015286Y024300D02*
X015428Y024300D01*
X015428Y024298D02*
X015286Y024298D01*
X015286Y024295D02*
X015428Y024295D01*
X015428Y024293D02*
X015286Y024293D01*
X015286Y024290D02*
X015428Y024290D01*
X015428Y024288D02*
X015286Y024288D01*
X015286Y024286D02*
X015428Y024286D01*
X015428Y024283D02*
X015286Y024283D01*
X015286Y024281D02*
X015428Y024281D01*
X015428Y024278D02*
X015286Y024278D01*
X015286Y024276D02*
X015428Y024276D01*
X015428Y024273D02*
X015286Y024273D01*
X015286Y024271D02*
X015428Y024271D01*
X015428Y024268D02*
X015286Y024268D01*
X015286Y024266D02*
X015428Y024266D01*
X015428Y024264D02*
X015286Y024264D01*
X015286Y024261D02*
X015428Y024261D01*
X015428Y024259D02*
X015286Y024259D01*
X015286Y024256D02*
X015428Y024256D01*
X015428Y024254D02*
X015286Y024254D01*
X015286Y024251D02*
X015428Y024251D01*
X015428Y024249D02*
X015286Y024249D01*
X015286Y024247D02*
X015428Y024247D01*
X015428Y024244D02*
X015286Y024244D01*
X015286Y024242D02*
X015428Y024242D01*
X015428Y024239D02*
X015286Y024239D01*
X015286Y024237D02*
X015428Y024237D01*
X015428Y024234D02*
X015286Y024234D01*
X015286Y024232D02*
X015428Y024232D01*
X015428Y024229D02*
X015286Y024229D01*
X015286Y024227D02*
X015428Y024227D01*
X015428Y024225D02*
X015286Y024225D01*
X015286Y024222D02*
X015428Y024222D01*
X015428Y024220D02*
X015286Y024220D01*
X015286Y024217D02*
X015428Y024217D01*
X015428Y024215D02*
X015286Y024215D01*
X015286Y024212D02*
X015428Y024212D01*
X015428Y024210D02*
X015286Y024210D01*
X015286Y024208D02*
X015428Y024208D01*
X015428Y024205D02*
X015286Y024205D01*
X015286Y024203D02*
X015428Y024203D01*
X015428Y024200D02*
X015286Y024200D01*
X015286Y024198D02*
X015428Y024198D01*
X015428Y024195D02*
X015286Y024195D01*
X015286Y024193D02*
X015428Y024193D01*
X015428Y024190D02*
X015286Y024190D01*
X015286Y024188D02*
X015428Y024188D01*
X015428Y024186D02*
X015286Y024186D01*
X015286Y024183D02*
X015428Y024183D01*
X015428Y024181D02*
X015286Y024181D01*
X015286Y024178D02*
X015428Y024178D01*
X015428Y024176D02*
X015286Y024176D01*
X015286Y024173D02*
X015428Y024173D01*
X015428Y024171D02*
X015286Y024171D01*
X015286Y024169D02*
X015428Y024169D01*
X015428Y024166D02*
X015286Y024166D01*
X015286Y024164D02*
X015428Y024164D01*
X015428Y024161D02*
X015286Y024161D01*
X015286Y024159D02*
X015428Y024159D01*
X015428Y024156D02*
X015286Y024156D01*
X015286Y024154D02*
X015428Y024154D01*
X015428Y024151D02*
X015286Y024151D01*
X015286Y024149D02*
X015428Y024149D01*
X015428Y024147D02*
X015286Y024147D01*
X015286Y024144D02*
X015428Y024144D01*
X015428Y024142D02*
X015286Y024142D01*
X015286Y024139D02*
X015428Y024139D01*
X015428Y024137D02*
X015286Y024137D01*
X015286Y024134D02*
X015428Y024134D01*
X015428Y024132D02*
X015286Y024132D01*
X015286Y024130D02*
X015428Y024130D01*
X015428Y024127D02*
X015286Y024127D01*
X015286Y024125D02*
X015428Y024125D01*
X015428Y024122D02*
X015286Y024122D01*
X015286Y024120D02*
X015428Y024120D01*
X015428Y024117D02*
X015286Y024117D01*
X015286Y024115D02*
X015428Y024115D01*
X015428Y024112D02*
X015286Y024112D01*
X015286Y024110D02*
X015428Y024110D01*
X015428Y024108D02*
X015286Y024108D01*
X015286Y024105D02*
X015428Y024105D01*
X015428Y024103D02*
X015286Y024103D01*
X015286Y024100D02*
X015428Y024100D01*
X015428Y024098D02*
X015286Y024098D01*
X015286Y024095D02*
X015428Y024095D01*
X015428Y024093D02*
X015286Y024093D01*
X015286Y024091D02*
X015428Y024091D01*
X015428Y024088D02*
X015286Y024088D01*
X015286Y024086D02*
X015428Y024086D01*
X015428Y024083D02*
X015286Y024083D01*
X015286Y024081D02*
X015428Y024081D01*
X015428Y024078D02*
X015286Y024078D01*
X015286Y024076D02*
X015428Y024076D01*
X015428Y024073D02*
X015286Y024073D01*
X015286Y024071D02*
X015428Y024071D01*
X015428Y024069D02*
X015286Y024069D01*
X015286Y024066D02*
X015428Y024066D01*
X015428Y024064D02*
X015286Y024064D01*
X015286Y024061D02*
X015428Y024061D01*
X015428Y024059D02*
X015286Y024059D01*
X015286Y024056D02*
X015428Y024056D01*
X015428Y024054D02*
X015286Y024054D01*
X015286Y024052D02*
X015428Y024052D01*
X015428Y024049D02*
X015286Y024049D01*
X015286Y024047D02*
X015428Y024047D01*
X015428Y024044D02*
X015286Y024044D01*
X015286Y024042D02*
X015428Y024042D01*
X015428Y024039D02*
X015286Y024039D01*
X015286Y024037D02*
X015428Y024037D01*
X015428Y024034D02*
X015286Y024034D01*
X015286Y024032D02*
X015428Y024032D01*
X015428Y024030D02*
X015286Y024030D01*
X015286Y024027D02*
X015428Y024027D01*
X015428Y024025D02*
X015286Y024025D01*
X015286Y024022D02*
X015428Y024022D01*
X015428Y024020D02*
X015286Y024020D01*
X015286Y024017D02*
X015428Y024017D01*
X015428Y024015D02*
X015286Y024015D01*
X015286Y024013D02*
X015428Y024013D01*
X015428Y024010D02*
X015286Y024010D01*
X015286Y024008D02*
X015428Y024008D01*
X015428Y024005D02*
X015286Y024005D01*
X015286Y024003D02*
X015428Y024003D01*
X015428Y024000D02*
X015286Y024000D01*
X015286Y023998D02*
X015428Y023998D01*
X015428Y023995D02*
X015286Y023995D01*
X015286Y023993D02*
X015428Y023993D01*
X015428Y023991D02*
X015286Y023991D01*
X015286Y023988D02*
X015428Y023988D01*
X015428Y023986D02*
X015286Y023986D01*
X015286Y023983D02*
X015428Y023983D01*
X015428Y023981D02*
X015286Y023981D01*
X015286Y023978D02*
X015428Y023978D01*
X015428Y023976D02*
X015286Y023976D01*
X015286Y023974D02*
X015428Y023974D01*
X015428Y023971D02*
X015286Y023971D01*
X015471Y023969D02*
X015593Y024213D01*
X015593Y024245D01*
X015471Y024442D01*
X015625Y024442D01*
X015743Y024249D01*
X015885Y024249D01*
X015885Y024251D02*
X015743Y024251D01*
X015741Y024251D02*
X015589Y024251D01*
X015591Y024249D02*
X015743Y024249D01*
X015743Y024209D01*
X015633Y023969D01*
X015471Y023969D01*
X015472Y023971D02*
X015634Y023971D01*
X015635Y023974D02*
X015473Y023974D01*
X015475Y023976D02*
X015636Y023976D01*
X015637Y023978D02*
X015476Y023978D01*
X015477Y023981D02*
X015638Y023981D01*
X015639Y023983D02*
X015478Y023983D01*
X015480Y023986D02*
X015640Y023986D01*
X015641Y023988D02*
X015481Y023988D01*
X015482Y023991D02*
X015643Y023991D01*
X015644Y023993D02*
X015483Y023993D01*
X015484Y023995D02*
X015645Y023995D01*
X015646Y023998D02*
X015486Y023998D01*
X015487Y024000D02*
X015647Y024000D01*
X015648Y024003D02*
X015488Y024003D01*
X015489Y024005D02*
X015649Y024005D01*
X015650Y024008D02*
X015490Y024008D01*
X015492Y024010D02*
X015651Y024010D01*
X015653Y024013D02*
X015493Y024013D01*
X015494Y024015D02*
X015654Y024015D01*
X015655Y024017D02*
X015495Y024017D01*
X015497Y024020D02*
X015656Y024020D01*
X015657Y024022D02*
X015498Y024022D01*
X015499Y024025D02*
X015658Y024025D01*
X015659Y024027D02*
X015500Y024027D01*
X015501Y024030D02*
X015660Y024030D01*
X015662Y024032D02*
X015503Y024032D01*
X015504Y024034D02*
X015663Y024034D01*
X015664Y024037D02*
X015505Y024037D01*
X015506Y024039D02*
X015665Y024039D01*
X015666Y024042D02*
X015508Y024042D01*
X015509Y024044D02*
X015667Y024044D01*
X015668Y024047D02*
X015510Y024047D01*
X015511Y024049D02*
X015669Y024049D01*
X015670Y024052D02*
X015512Y024052D01*
X015514Y024054D02*
X015672Y024054D01*
X015673Y024056D02*
X015515Y024056D01*
X015516Y024059D02*
X015674Y024059D01*
X015675Y024061D02*
X015517Y024061D01*
X015519Y024064D02*
X015676Y024064D01*
X015677Y024066D02*
X015520Y024066D01*
X015521Y024069D02*
X015678Y024069D01*
X015679Y024071D02*
X015522Y024071D01*
X015523Y024073D02*
X015681Y024073D01*
X015682Y024076D02*
X015525Y024076D01*
X015526Y024078D02*
X015683Y024078D01*
X015684Y024081D02*
X015527Y024081D01*
X015528Y024083D02*
X015685Y024083D01*
X015686Y024086D02*
X015529Y024086D01*
X015531Y024088D02*
X015687Y024088D01*
X015688Y024091D02*
X015532Y024091D01*
X015533Y024093D02*
X015689Y024093D01*
X015691Y024095D02*
X015534Y024095D01*
X015536Y024098D02*
X015692Y024098D01*
X015693Y024100D02*
X015537Y024100D01*
X015538Y024103D02*
X015694Y024103D01*
X015695Y024105D02*
X015539Y024105D01*
X015540Y024108D02*
X015696Y024108D01*
X015697Y024110D02*
X015542Y024110D01*
X015543Y024112D02*
X015698Y024112D01*
X015700Y024115D02*
X015544Y024115D01*
X015545Y024117D02*
X015701Y024117D01*
X015702Y024120D02*
X015547Y024120D01*
X015548Y024122D02*
X015703Y024122D01*
X015704Y024125D02*
X015549Y024125D01*
X015550Y024127D02*
X015705Y024127D01*
X015706Y024130D02*
X015551Y024130D01*
X015553Y024132D02*
X015707Y024132D01*
X015709Y024134D02*
X015554Y024134D01*
X015555Y024137D02*
X015710Y024137D01*
X015711Y024139D02*
X015556Y024139D01*
X015558Y024142D02*
X015712Y024142D01*
X015713Y024144D02*
X015559Y024144D01*
X015560Y024147D02*
X015714Y024147D01*
X015715Y024149D02*
X015561Y024149D01*
X015562Y024151D02*
X015716Y024151D01*
X015717Y024154D02*
X015564Y024154D01*
X015565Y024156D02*
X015719Y024156D01*
X015720Y024159D02*
X015566Y024159D01*
X015567Y024161D02*
X015721Y024161D01*
X015722Y024164D02*
X015568Y024164D01*
X015570Y024166D02*
X015723Y024166D01*
X015724Y024169D02*
X015571Y024169D01*
X015572Y024171D02*
X015725Y024171D01*
X015726Y024173D02*
X015573Y024173D01*
X015575Y024176D02*
X015728Y024176D01*
X015729Y024178D02*
X015576Y024178D01*
X015577Y024181D02*
X015730Y024181D01*
X015731Y024183D02*
X015578Y024183D01*
X015579Y024186D02*
X015732Y024186D01*
X015733Y024188D02*
X015581Y024188D01*
X015582Y024190D02*
X015734Y024190D01*
X015735Y024193D02*
X015583Y024193D01*
X015584Y024195D02*
X015736Y024195D01*
X015738Y024198D02*
X015586Y024198D01*
X015587Y024200D02*
X015739Y024200D01*
X015740Y024203D02*
X015588Y024203D01*
X015589Y024205D02*
X015741Y024205D01*
X015743Y024205D02*
X015885Y024205D01*
X015885Y024203D02*
X015743Y024203D01*
X015743Y024200D02*
X015885Y024200D01*
X015885Y024198D02*
X015743Y024198D01*
X015743Y024195D02*
X015885Y024195D01*
X015885Y024193D02*
X015743Y024193D01*
X015743Y024190D02*
X015885Y024190D01*
X015885Y024188D02*
X015743Y024188D01*
X015743Y024186D02*
X015885Y024186D01*
X015885Y024183D02*
X015743Y024183D01*
X015743Y024181D02*
X015885Y024181D01*
X015885Y024178D02*
X015743Y024178D01*
X015743Y024176D02*
X015885Y024176D01*
X015885Y024173D02*
X015743Y024173D01*
X015743Y024171D02*
X015885Y024171D01*
X015885Y024169D02*
X015743Y024169D01*
X015743Y024166D02*
X015885Y024166D01*
X015885Y024164D02*
X015743Y024164D01*
X015743Y024161D02*
X015885Y024161D01*
X015885Y024159D02*
X015743Y024159D01*
X015743Y024156D02*
X015885Y024156D01*
X015885Y024154D02*
X015743Y024154D01*
X015743Y024151D02*
X015885Y024151D01*
X015885Y024149D02*
X015743Y024149D01*
X015743Y024147D02*
X015885Y024147D01*
X015885Y024144D02*
X015743Y024144D01*
X015743Y024142D02*
X015885Y024142D01*
X015885Y024139D02*
X015743Y024139D01*
X015743Y024137D02*
X015885Y024137D01*
X015885Y024134D02*
X015743Y024134D01*
X015743Y024132D02*
X015885Y024132D01*
X015885Y024130D02*
X015743Y024130D01*
X015743Y024127D02*
X015885Y024127D01*
X015885Y024125D02*
X015743Y024125D01*
X015743Y024122D02*
X015885Y024122D01*
X015885Y024120D02*
X015743Y024120D01*
X015743Y024117D02*
X015885Y024117D01*
X015885Y024115D02*
X015743Y024115D01*
X015743Y024112D02*
X015885Y024112D01*
X015885Y024110D02*
X015743Y024110D01*
X015743Y024108D02*
X015885Y024108D01*
X015885Y024105D02*
X015743Y024105D01*
X015743Y024103D02*
X015885Y024103D01*
X015885Y024100D02*
X015743Y024100D01*
X015743Y024098D02*
X015885Y024098D01*
X015885Y024095D02*
X015743Y024095D01*
X015743Y024093D02*
X015885Y024093D01*
X015885Y024091D02*
X015743Y024091D01*
X015743Y024088D02*
X015885Y024088D01*
X015885Y024086D02*
X015743Y024086D01*
X015743Y024083D02*
X015885Y024083D01*
X015885Y024081D02*
X015743Y024081D01*
X015743Y024078D02*
X015885Y024078D01*
X015885Y024076D02*
X015743Y024076D01*
X015743Y024073D02*
X015885Y024073D01*
X015885Y024071D02*
X015743Y024071D01*
X015743Y024069D02*
X015885Y024069D01*
X015885Y024066D02*
X015743Y024066D01*
X015743Y024064D02*
X015885Y024064D01*
X015885Y024061D02*
X015743Y024061D01*
X015743Y024059D02*
X015885Y024059D01*
X015885Y024056D02*
X015743Y024056D01*
X015743Y024054D02*
X015885Y024054D01*
X015885Y024052D02*
X015743Y024052D01*
X015743Y024049D02*
X015885Y024049D01*
X015885Y024047D02*
X015743Y024047D01*
X015743Y024044D02*
X015885Y024044D01*
X015885Y024042D02*
X015743Y024042D01*
X015743Y024039D02*
X015885Y024039D01*
X015885Y024037D02*
X015743Y024037D01*
X015743Y024034D02*
X015885Y024034D01*
X015885Y024032D02*
X015743Y024032D01*
X015743Y024030D02*
X015885Y024030D01*
X015885Y024027D02*
X015743Y024027D01*
X015743Y024025D02*
X015885Y024025D01*
X015885Y024022D02*
X015743Y024022D01*
X015743Y024020D02*
X015885Y024020D01*
X015885Y024017D02*
X015743Y024017D01*
X015743Y024015D02*
X015885Y024015D01*
X015885Y024013D02*
X015743Y024013D01*
X015743Y024010D02*
X015885Y024010D01*
X015885Y024008D02*
X015743Y024008D01*
X015743Y024005D02*
X015885Y024005D01*
X015885Y024003D02*
X015743Y024003D01*
X015743Y024000D02*
X015885Y024000D01*
X015885Y023998D02*
X015743Y023998D01*
X015743Y023995D02*
X015885Y023995D01*
X015885Y023993D02*
X015743Y023993D01*
X015743Y023991D02*
X015885Y023991D01*
X015885Y023988D02*
X015743Y023988D01*
X015743Y023986D02*
X015885Y023986D01*
X015885Y023983D02*
X015743Y023983D01*
X015743Y023981D02*
X015885Y023981D01*
X015885Y023978D02*
X015743Y023978D01*
X015743Y023976D02*
X015885Y023976D01*
X015885Y023974D02*
X015743Y023974D01*
X015743Y023971D02*
X015885Y023971D01*
X015885Y023969D02*
X015743Y023969D01*
X015743Y024442D01*
X015885Y024442D01*
X015885Y023969D01*
X015979Y024024D02*
X015963Y024056D01*
X015948Y024103D01*
X016023Y024103D01*
X016022Y024105D02*
X015948Y024105D01*
X015948Y024103D02*
X015948Y024190D01*
X015963Y024237D01*
X016045Y024237D01*
X016046Y024239D02*
X015965Y024239D01*
X015963Y024237D02*
X015979Y024269D01*
X016011Y024300D01*
X016182Y024300D01*
X016198Y024284D01*
X016208Y024261D01*
X016215Y024261D01*
X016271Y024261D01*
X016271Y024259D02*
X016215Y024259D01*
X016159Y024259D01*
X016156Y024261D02*
X016207Y024261D01*
X016206Y024264D02*
X016152Y024264D01*
X016148Y024266D02*
X016205Y024266D01*
X016204Y024268D02*
X016145Y024268D01*
X016145Y024269D02*
X016082Y024269D01*
X016050Y024245D01*
X016034Y024221D01*
X016019Y024174D01*
X016019Y024119D01*
X016034Y024064D01*
X016050Y024044D01*
X016062Y024032D01*
X016089Y024020D01*
X016145Y024020D01*
X016172Y024036D01*
X016188Y024052D01*
X016200Y024076D01*
X016271Y024076D01*
X016271Y024078D02*
X016201Y024078D01*
X016200Y024076D02*
X016208Y024099D01*
X016208Y024198D01*
X016176Y024245D01*
X016168Y024253D01*
X016215Y024253D01*
X016215Y024316D01*
X016271Y024316D01*
X016271Y023831D01*
X016208Y023831D01*
X016208Y024009D01*
X016200Y024009D01*
X016192Y023993D01*
X016011Y023993D01*
X015979Y024024D01*
X015979Y024025D02*
X016079Y024025D01*
X016074Y024027D02*
X015978Y024027D01*
X015977Y024030D02*
X016068Y024030D01*
X016062Y024032D02*
X015975Y024032D01*
X015974Y024034D02*
X016060Y024034D01*
X016057Y024037D02*
X015973Y024037D01*
X015972Y024039D02*
X016055Y024039D01*
X016052Y024042D02*
X015970Y024042D01*
X015969Y024044D02*
X016050Y024044D01*
X016048Y024047D02*
X015968Y024047D01*
X015967Y024049D02*
X016046Y024049D01*
X016044Y024052D02*
X015966Y024052D01*
X015964Y024054D02*
X016042Y024054D01*
X016040Y024056D02*
X015963Y024056D01*
X015962Y024059D02*
X016038Y024059D01*
X016036Y024061D02*
X015962Y024061D01*
X015961Y024064D02*
X016034Y024064D01*
X016034Y024066D02*
X015960Y024066D01*
X015959Y024069D02*
X016033Y024069D01*
X016032Y024071D02*
X015958Y024071D01*
X015958Y024073D02*
X016032Y024073D01*
X016031Y024076D02*
X015957Y024076D01*
X015956Y024078D02*
X016030Y024078D01*
X016029Y024081D02*
X015955Y024081D01*
X015954Y024083D02*
X016029Y024083D01*
X016028Y024086D02*
X015954Y024086D01*
X015953Y024088D02*
X016027Y024088D01*
X016027Y024091D02*
X015952Y024091D01*
X015951Y024093D02*
X016026Y024093D01*
X016025Y024095D02*
X015950Y024095D01*
X015949Y024098D02*
X016025Y024098D01*
X016024Y024100D02*
X015949Y024100D01*
X015948Y024108D02*
X016022Y024108D01*
X016021Y024110D02*
X015948Y024110D01*
X015948Y024112D02*
X016020Y024112D01*
X016020Y024115D02*
X015948Y024115D01*
X015948Y024117D02*
X016019Y024117D01*
X016019Y024120D02*
X015948Y024120D01*
X015948Y024122D02*
X016019Y024122D01*
X016019Y024125D02*
X015948Y024125D01*
X015948Y024127D02*
X016019Y024127D01*
X016019Y024130D02*
X015948Y024130D01*
X015948Y024132D02*
X016019Y024132D01*
X016019Y024134D02*
X015948Y024134D01*
X015948Y024137D02*
X016019Y024137D01*
X016019Y024139D02*
X015948Y024139D01*
X015948Y024142D02*
X016019Y024142D01*
X016019Y024144D02*
X015948Y024144D01*
X015948Y024147D02*
X016019Y024147D01*
X016019Y024149D02*
X015948Y024149D01*
X015948Y024151D02*
X016019Y024151D01*
X016019Y024154D02*
X015948Y024154D01*
X015948Y024156D02*
X016019Y024156D01*
X016019Y024159D02*
X015948Y024159D01*
X015948Y024161D02*
X016019Y024161D01*
X016019Y024164D02*
X015948Y024164D01*
X015948Y024166D02*
X016019Y024166D01*
X016019Y024169D02*
X015948Y024169D01*
X015948Y024171D02*
X016019Y024171D01*
X016019Y024173D02*
X015948Y024173D01*
X015948Y024176D02*
X016019Y024176D01*
X016020Y024178D02*
X015948Y024178D01*
X015948Y024181D02*
X016021Y024181D01*
X016022Y024183D02*
X015948Y024183D01*
X015948Y024186D02*
X016022Y024186D01*
X016023Y024188D02*
X015948Y024188D01*
X015948Y024190D02*
X016024Y024190D01*
X016025Y024193D02*
X015949Y024193D01*
X015950Y024195D02*
X016026Y024195D01*
X016026Y024198D02*
X015950Y024198D01*
X015951Y024200D02*
X016027Y024200D01*
X016028Y024203D02*
X015952Y024203D01*
X015953Y024205D02*
X016029Y024205D01*
X016030Y024208D02*
X015954Y024208D01*
X015954Y024210D02*
X016031Y024210D01*
X016031Y024212D02*
X015955Y024212D01*
X015956Y024215D02*
X016032Y024215D01*
X016033Y024217D02*
X015957Y024217D01*
X015958Y024220D02*
X016034Y024220D01*
X016035Y024222D02*
X015958Y024222D01*
X015959Y024225D02*
X016037Y024225D01*
X016038Y024227D02*
X015960Y024227D01*
X015961Y024229D02*
X016040Y024229D01*
X016041Y024232D02*
X015962Y024232D01*
X015963Y024234D02*
X016043Y024234D01*
X016048Y024242D02*
X015966Y024242D01*
X015967Y024244D02*
X016050Y024244D01*
X016052Y024247D02*
X015968Y024247D01*
X015969Y024249D02*
X016055Y024249D01*
X016059Y024251D02*
X015971Y024251D01*
X015972Y024254D02*
X016062Y024254D01*
X016065Y024256D02*
X015973Y024256D01*
X015974Y024259D02*
X016068Y024259D01*
X016072Y024261D02*
X015976Y024261D01*
X015977Y024264D02*
X016075Y024264D01*
X016078Y024266D02*
X015978Y024266D01*
X015979Y024268D02*
X016081Y024268D01*
X016061Y024322D02*
X016133Y024322D01*
X016129Y024324D02*
X016152Y024316D01*
X016182Y024300D01*
X016184Y024298D02*
X016008Y024298D01*
X016011Y024300D02*
X016042Y024316D01*
X016066Y024324D01*
X016129Y024324D01*
X016141Y024320D02*
X016054Y024320D01*
X016047Y024317D02*
X016148Y024317D01*
X016154Y024315D02*
X016040Y024315D01*
X016035Y024312D02*
X016159Y024312D01*
X016163Y024310D02*
X016030Y024310D01*
X016026Y024307D02*
X016168Y024307D01*
X016172Y024305D02*
X016021Y024305D01*
X016016Y024303D02*
X016177Y024303D01*
X016187Y024295D02*
X016006Y024295D01*
X016004Y024293D02*
X016189Y024293D01*
X016192Y024290D02*
X016001Y024290D01*
X015999Y024288D02*
X016194Y024288D01*
X016196Y024286D02*
X015996Y024286D01*
X015994Y024283D02*
X016198Y024283D01*
X016199Y024281D02*
X015991Y024281D01*
X015989Y024278D02*
X016200Y024278D01*
X016201Y024276D02*
X015986Y024276D01*
X015984Y024273D02*
X016202Y024273D01*
X016203Y024271D02*
X015982Y024271D01*
X015885Y024271D02*
X015743Y024271D01*
X015743Y024273D02*
X015885Y024273D01*
X015885Y024276D02*
X015743Y024276D01*
X015743Y024278D02*
X015885Y024278D01*
X015885Y024281D02*
X015743Y024281D01*
X015743Y024283D02*
X015885Y024283D01*
X015885Y024286D02*
X015743Y024286D01*
X015743Y024288D02*
X015885Y024288D01*
X015885Y024290D02*
X015743Y024290D01*
X015743Y024293D02*
X015885Y024293D01*
X015885Y024295D02*
X015743Y024295D01*
X015743Y024298D02*
X015885Y024298D01*
X015885Y024300D02*
X015743Y024300D01*
X015743Y024303D02*
X015885Y024303D01*
X015885Y024305D02*
X015743Y024305D01*
X015743Y024307D02*
X015885Y024307D01*
X015885Y024310D02*
X015743Y024310D01*
X015743Y024312D02*
X015885Y024312D01*
X015885Y024315D02*
X015743Y024315D01*
X015743Y024317D02*
X015885Y024317D01*
X015885Y024320D02*
X015743Y024320D01*
X015743Y024322D02*
X015885Y024322D01*
X015885Y024325D02*
X015743Y024325D01*
X015743Y024327D02*
X015885Y024327D01*
X015885Y024329D02*
X015743Y024329D01*
X015743Y024332D02*
X015885Y024332D01*
X015885Y024334D02*
X015743Y024334D01*
X015743Y024337D02*
X015885Y024337D01*
X015885Y024339D02*
X015743Y024339D01*
X015743Y024342D02*
X015885Y024342D01*
X015885Y024344D02*
X015743Y024344D01*
X015743Y024346D02*
X015885Y024346D01*
X015885Y024349D02*
X015743Y024349D01*
X015743Y024351D02*
X015885Y024351D01*
X015885Y024354D02*
X015743Y024354D01*
X015743Y024356D02*
X015885Y024356D01*
X015885Y024359D02*
X015743Y024359D01*
X015743Y024361D02*
X015885Y024361D01*
X015885Y024364D02*
X015743Y024364D01*
X015743Y024366D02*
X015885Y024366D01*
X015885Y024368D02*
X015743Y024368D01*
X015743Y024371D02*
X015885Y024371D01*
X015885Y024373D02*
X015743Y024373D01*
X015743Y024376D02*
X015885Y024376D01*
X015885Y024378D02*
X015743Y024378D01*
X015743Y024381D02*
X015885Y024381D01*
X015885Y024383D02*
X015743Y024383D01*
X015743Y024385D02*
X015885Y024385D01*
X015885Y024388D02*
X015743Y024388D01*
X015743Y024390D02*
X015885Y024390D01*
X015885Y024393D02*
X015743Y024393D01*
X015743Y024395D02*
X015885Y024395D01*
X015885Y024398D02*
X015743Y024398D01*
X015743Y024400D02*
X015885Y024400D01*
X015885Y024403D02*
X015743Y024403D01*
X015743Y024405D02*
X015885Y024405D01*
X015885Y024407D02*
X015743Y024407D01*
X015743Y024410D02*
X015885Y024410D01*
X015885Y024412D02*
X015743Y024412D01*
X015743Y024415D02*
X015885Y024415D01*
X015885Y024417D02*
X015743Y024417D01*
X015743Y024420D02*
X015885Y024420D01*
X015885Y024422D02*
X015743Y024422D01*
X015743Y024424D02*
X015885Y024424D01*
X015885Y024427D02*
X015743Y024427D01*
X015743Y024429D02*
X015885Y024429D01*
X015885Y024432D02*
X015743Y024432D01*
X015743Y024434D02*
X015885Y024434D01*
X015885Y024437D02*
X015743Y024437D01*
X015743Y024439D02*
X015885Y024439D01*
X015885Y024442D02*
X015743Y024442D01*
X015656Y024390D02*
X015503Y024390D01*
X015505Y024388D02*
X015658Y024388D01*
X015659Y024385D02*
X015506Y024385D01*
X015508Y024383D02*
X015661Y024383D01*
X015662Y024381D02*
X015509Y024381D01*
X015511Y024378D02*
X015664Y024378D01*
X015665Y024376D02*
X015512Y024376D01*
X015514Y024373D02*
X015667Y024373D01*
X015668Y024371D02*
X015515Y024371D01*
X015517Y024368D02*
X015670Y024368D01*
X015671Y024366D02*
X015518Y024366D01*
X015520Y024364D02*
X015673Y024364D01*
X015674Y024361D02*
X015521Y024361D01*
X015523Y024359D02*
X015676Y024359D01*
X015677Y024356D02*
X015524Y024356D01*
X015526Y024354D02*
X015679Y024354D01*
X015680Y024351D02*
X015527Y024351D01*
X015529Y024349D02*
X015682Y024349D01*
X015683Y024346D02*
X015530Y024346D01*
X015532Y024344D02*
X015685Y024344D01*
X015686Y024342D02*
X015533Y024342D01*
X015535Y024339D02*
X015688Y024339D01*
X015689Y024337D02*
X015536Y024337D01*
X015538Y024334D02*
X015691Y024334D01*
X015692Y024332D02*
X015539Y024332D01*
X015541Y024329D02*
X015694Y024329D01*
X015695Y024327D02*
X015542Y024327D01*
X015544Y024325D02*
X015697Y024325D01*
X015698Y024322D02*
X015545Y024322D01*
X015547Y024320D02*
X015700Y024320D01*
X015701Y024317D02*
X015548Y024317D01*
X015550Y024315D02*
X015703Y024315D01*
X015704Y024312D02*
X015552Y024312D01*
X015553Y024310D02*
X015706Y024310D01*
X015707Y024307D02*
X015555Y024307D01*
X015556Y024305D02*
X015709Y024305D01*
X015710Y024303D02*
X015558Y024303D01*
X015559Y024300D02*
X015712Y024300D01*
X015713Y024298D02*
X015561Y024298D01*
X015562Y024295D02*
X015715Y024295D01*
X015716Y024293D02*
X015564Y024293D01*
X015565Y024290D02*
X015717Y024290D01*
X015719Y024288D02*
X015567Y024288D01*
X015568Y024286D02*
X015720Y024286D01*
X015722Y024283D02*
X015570Y024283D01*
X015571Y024281D02*
X015723Y024281D01*
X015725Y024278D02*
X015573Y024278D01*
X015574Y024276D02*
X015726Y024276D01*
X015728Y024273D02*
X015576Y024273D01*
X015577Y024271D02*
X015729Y024271D01*
X015731Y024268D02*
X015579Y024268D01*
X015580Y024266D02*
X015732Y024266D01*
X015734Y024264D02*
X015582Y024264D01*
X015583Y024261D02*
X015735Y024261D01*
X015737Y024259D02*
X015585Y024259D01*
X015586Y024256D02*
X015738Y024256D01*
X015740Y024254D02*
X015588Y024254D01*
X015592Y024247D02*
X015743Y024247D01*
X015885Y024247D01*
X015885Y024244D02*
X015743Y024244D01*
X015593Y024244D01*
X015593Y024242D02*
X015743Y024242D01*
X015885Y024242D01*
X015885Y024239D02*
X015743Y024239D01*
X015593Y024239D01*
X015593Y024237D02*
X015743Y024237D01*
X015885Y024237D01*
X015885Y024234D02*
X015743Y024234D01*
X015593Y024234D01*
X015593Y024232D02*
X015743Y024232D01*
X015885Y024232D01*
X015885Y024229D02*
X015743Y024229D01*
X015593Y024229D01*
X015593Y024227D02*
X015743Y024227D01*
X015885Y024227D01*
X015885Y024225D02*
X015743Y024225D01*
X015593Y024225D01*
X015593Y024222D02*
X015743Y024222D01*
X015885Y024222D01*
X015885Y024220D02*
X015743Y024220D01*
X015593Y024220D01*
X015593Y024217D02*
X015743Y024217D01*
X015885Y024217D01*
X015885Y024215D02*
X015743Y024215D01*
X015593Y024215D01*
X015593Y024212D02*
X015743Y024212D01*
X015885Y024212D01*
X015885Y024210D02*
X015743Y024210D01*
X015592Y024210D01*
X015590Y024208D02*
X015742Y024208D01*
X015743Y024208D02*
X015885Y024208D01*
X015885Y024254D02*
X015743Y024254D01*
X015743Y024256D02*
X015885Y024256D01*
X015885Y024259D02*
X015743Y024259D01*
X015743Y024261D02*
X015885Y024261D01*
X015885Y024264D02*
X015743Y024264D01*
X015743Y024266D02*
X015885Y024266D01*
X015885Y024268D02*
X015743Y024268D01*
X015655Y024393D02*
X015502Y024393D01*
X015500Y024395D02*
X015653Y024395D01*
X015652Y024398D02*
X015499Y024398D01*
X015497Y024400D02*
X015650Y024400D01*
X015649Y024403D02*
X015496Y024403D01*
X015494Y024405D02*
X015647Y024405D01*
X015646Y024407D02*
X015493Y024407D01*
X015491Y024410D02*
X015644Y024410D01*
X015643Y024412D02*
X015490Y024412D01*
X015488Y024415D02*
X015641Y024415D01*
X015640Y024417D02*
X015487Y024417D01*
X015485Y024420D02*
X015638Y024420D01*
X015637Y024422D02*
X015484Y024422D01*
X015482Y024424D02*
X015635Y024424D01*
X015634Y024427D02*
X015480Y024427D01*
X015479Y024429D02*
X015632Y024429D01*
X015631Y024432D02*
X015477Y024432D01*
X015476Y024434D02*
X015629Y024434D01*
X015628Y024437D02*
X015474Y024437D01*
X015473Y024439D02*
X015626Y024439D01*
X015625Y024442D02*
X015471Y024442D01*
X016145Y024269D02*
X016168Y024253D01*
X016215Y024253D01*
X016215Y024261D01*
X016215Y024264D02*
X016271Y024264D01*
X016271Y024266D02*
X016215Y024266D01*
X016215Y024268D02*
X016271Y024268D01*
X016271Y024271D02*
X016215Y024271D01*
X016215Y024273D02*
X016271Y024273D01*
X016271Y024276D02*
X016215Y024276D01*
X016215Y024278D02*
X016271Y024278D01*
X016271Y024281D02*
X016215Y024281D01*
X016215Y024283D02*
X016271Y024283D01*
X016271Y024286D02*
X016215Y024286D01*
X016215Y024288D02*
X016271Y024288D01*
X016271Y024290D02*
X016215Y024290D01*
X016215Y024293D02*
X016271Y024293D01*
X016271Y024295D02*
X016215Y024295D01*
X016215Y024298D02*
X016271Y024298D01*
X016271Y024300D02*
X016215Y024300D01*
X016215Y024303D02*
X016271Y024303D01*
X016271Y024305D02*
X016215Y024305D01*
X016215Y024307D02*
X016271Y024307D01*
X016271Y024310D02*
X016215Y024310D01*
X016215Y024312D02*
X016271Y024312D01*
X016271Y024315D02*
X016215Y024315D01*
X016215Y024256D02*
X016271Y024256D01*
X016271Y024254D02*
X016215Y024254D01*
X016167Y024254D01*
X016169Y024251D02*
X016271Y024251D01*
X016271Y024249D02*
X016172Y024249D01*
X016174Y024247D02*
X016271Y024247D01*
X016271Y024244D02*
X016177Y024244D01*
X016178Y024242D02*
X016271Y024242D01*
X016271Y024239D02*
X016180Y024239D01*
X016181Y024237D02*
X016271Y024237D01*
X016271Y024234D02*
X016183Y024234D01*
X016185Y024232D02*
X016271Y024232D01*
X016271Y024229D02*
X016186Y024229D01*
X016188Y024227D02*
X016271Y024227D01*
X016271Y024225D02*
X016190Y024225D01*
X016191Y024222D02*
X016271Y024222D01*
X016271Y024220D02*
X016193Y024220D01*
X016194Y024217D02*
X016271Y024217D01*
X016271Y024215D02*
X016196Y024215D01*
X016198Y024212D02*
X016271Y024212D01*
X016271Y024210D02*
X016199Y024210D01*
X016201Y024208D02*
X016271Y024208D01*
X016271Y024205D02*
X016203Y024205D01*
X016204Y024203D02*
X016271Y024203D01*
X016271Y024200D02*
X016206Y024200D01*
X016207Y024198D02*
X016271Y024198D01*
X016271Y024195D02*
X016208Y024195D01*
X016208Y024193D02*
X016271Y024193D01*
X016271Y024190D02*
X016208Y024190D01*
X016208Y024188D02*
X016271Y024188D01*
X016271Y024186D02*
X016208Y024186D01*
X016208Y024183D02*
X016271Y024183D01*
X016271Y024181D02*
X016208Y024181D01*
X016208Y024178D02*
X016271Y024178D01*
X016271Y024176D02*
X016208Y024176D01*
X016208Y024173D02*
X016271Y024173D01*
X016271Y024171D02*
X016208Y024171D01*
X016208Y024169D02*
X016271Y024169D01*
X016271Y024166D02*
X016208Y024166D01*
X016208Y024164D02*
X016271Y024164D01*
X016271Y024161D02*
X016208Y024161D01*
X016208Y024159D02*
X016271Y024159D01*
X016271Y024156D02*
X016208Y024156D01*
X016208Y024154D02*
X016271Y024154D01*
X016271Y024151D02*
X016208Y024151D01*
X016208Y024149D02*
X016271Y024149D01*
X016271Y024147D02*
X016208Y024147D01*
X016208Y024144D02*
X016271Y024144D01*
X016271Y024142D02*
X016208Y024142D01*
X016208Y024139D02*
X016271Y024139D01*
X016271Y024137D02*
X016208Y024137D01*
X016208Y024134D02*
X016271Y024134D01*
X016271Y024132D02*
X016208Y024132D01*
X016208Y024130D02*
X016271Y024130D01*
X016271Y024127D02*
X016208Y024127D01*
X016208Y024125D02*
X016271Y024125D01*
X016271Y024122D02*
X016208Y024122D01*
X016208Y024120D02*
X016271Y024120D01*
X016271Y024117D02*
X016208Y024117D01*
X016208Y024115D02*
X016271Y024115D01*
X016271Y024112D02*
X016208Y024112D01*
X016208Y024110D02*
X016271Y024110D01*
X016271Y024108D02*
X016208Y024108D01*
X016208Y024105D02*
X016271Y024105D01*
X016271Y024103D02*
X016208Y024103D01*
X016208Y024100D02*
X016271Y024100D01*
X016271Y024098D02*
X016207Y024098D01*
X016206Y024095D02*
X016271Y024095D01*
X016271Y024093D02*
X016205Y024093D01*
X016205Y024091D02*
X016271Y024091D01*
X016271Y024088D02*
X016204Y024088D01*
X016203Y024086D02*
X016271Y024086D01*
X016271Y024083D02*
X016202Y024083D01*
X016201Y024081D02*
X016271Y024081D01*
X016271Y024073D02*
X016199Y024073D01*
X016197Y024071D02*
X016271Y024071D01*
X016271Y024069D02*
X016196Y024069D01*
X016195Y024066D02*
X016271Y024066D01*
X016271Y024064D02*
X016194Y024064D01*
X016193Y024061D02*
X016271Y024061D01*
X016271Y024059D02*
X016191Y024059D01*
X016190Y024056D02*
X016271Y024056D01*
X016271Y024054D02*
X016189Y024054D01*
X016187Y024052D02*
X016271Y024052D01*
X016271Y024049D02*
X016185Y024049D01*
X016183Y024047D02*
X016271Y024047D01*
X016271Y024044D02*
X016180Y024044D01*
X016178Y024042D02*
X016271Y024042D01*
X016271Y024039D02*
X016175Y024039D01*
X016173Y024037D02*
X016271Y024037D01*
X016271Y024034D02*
X016169Y024034D01*
X016165Y024032D02*
X016271Y024032D01*
X016271Y024030D02*
X016161Y024030D01*
X016156Y024027D02*
X016271Y024027D01*
X016271Y024025D02*
X016152Y024025D01*
X016148Y024022D02*
X016271Y024022D01*
X016271Y024020D02*
X015984Y024020D01*
X015986Y024017D02*
X016271Y024017D01*
X016271Y024015D02*
X015989Y024015D01*
X015991Y024013D02*
X016271Y024013D01*
X016271Y024010D02*
X015993Y024010D01*
X015996Y024008D02*
X016199Y024008D01*
X016198Y024005D02*
X015998Y024005D01*
X016001Y024003D02*
X016197Y024003D01*
X016196Y024000D02*
X016003Y024000D01*
X016006Y023998D02*
X016194Y023998D01*
X016193Y023995D02*
X016008Y023995D01*
X016011Y023993D02*
X016026Y023985D01*
X016034Y023977D01*
X016058Y023969D01*
X016152Y023969D01*
X016184Y023985D01*
X016192Y023993D01*
X016189Y023991D02*
X016015Y023991D01*
X016020Y023988D02*
X016187Y023988D01*
X016185Y023986D02*
X016025Y023986D01*
X016028Y023983D02*
X016180Y023983D01*
X016176Y023981D02*
X016031Y023981D01*
X016033Y023978D02*
X016171Y023978D01*
X016166Y023976D02*
X016038Y023976D01*
X016045Y023974D02*
X016161Y023974D01*
X016156Y023971D02*
X016052Y023971D01*
X016085Y024022D02*
X015981Y024022D01*
X016208Y024008D02*
X016271Y024008D01*
X016271Y024005D02*
X016208Y024005D01*
X016208Y024003D02*
X016271Y024003D01*
X016271Y024000D02*
X016208Y024000D01*
X016208Y023998D02*
X016271Y023998D01*
X016271Y023995D02*
X016208Y023995D01*
X016208Y023993D02*
X016271Y023993D01*
X016271Y023991D02*
X016208Y023991D01*
X016208Y023988D02*
X016271Y023988D01*
X016271Y023986D02*
X016208Y023986D01*
X016208Y023983D02*
X016271Y023983D01*
X016271Y023981D02*
X016208Y023981D01*
X016208Y023978D02*
X016271Y023978D01*
X016271Y023976D02*
X016208Y023976D01*
X016208Y023974D02*
X016271Y023974D01*
X016271Y023971D02*
X016208Y023971D01*
X016208Y023969D02*
X016271Y023969D01*
X016271Y023966D02*
X016208Y023966D01*
X016208Y023964D02*
X016271Y023964D01*
X016271Y023961D02*
X016208Y023961D01*
X016208Y023959D02*
X016271Y023959D01*
X016271Y023957D02*
X016208Y023957D01*
X016208Y023954D02*
X016271Y023954D01*
X016271Y023952D02*
X016208Y023952D01*
X016208Y023949D02*
X016271Y023949D01*
X016271Y023947D02*
X016208Y023947D01*
X016208Y023944D02*
X016271Y023944D01*
X016271Y023942D02*
X016208Y023942D01*
X016208Y023939D02*
X016271Y023939D01*
X016271Y023937D02*
X016208Y023937D01*
X016208Y023935D02*
X016271Y023935D01*
X016271Y023932D02*
X016208Y023932D01*
X016208Y023930D02*
X016271Y023930D01*
X016271Y023927D02*
X016208Y023927D01*
X016208Y023925D02*
X016271Y023925D01*
X016271Y023922D02*
X016208Y023922D01*
X016208Y023920D02*
X016271Y023920D01*
X016271Y023918D02*
X016208Y023918D01*
X016208Y023915D02*
X016271Y023915D01*
X016271Y023913D02*
X016208Y023913D01*
X016208Y023910D02*
X016271Y023910D01*
X016271Y023908D02*
X016208Y023908D01*
X016208Y023905D02*
X016271Y023905D01*
X016271Y023903D02*
X016208Y023903D01*
X016208Y023900D02*
X016271Y023900D01*
X016271Y023898D02*
X016208Y023898D01*
X016208Y023896D02*
X016271Y023896D01*
X016271Y023893D02*
X016208Y023893D01*
X016208Y023891D02*
X016271Y023891D01*
X016271Y023888D02*
X016208Y023888D01*
X016208Y023886D02*
X016271Y023886D01*
X016271Y023883D02*
X016208Y023883D01*
X016208Y023881D02*
X016271Y023881D01*
X016271Y023879D02*
X016208Y023879D01*
X016208Y023876D02*
X016271Y023876D01*
X016271Y023874D02*
X016208Y023874D01*
X016208Y023871D02*
X016271Y023871D01*
X016271Y023869D02*
X016208Y023869D01*
X016208Y023866D02*
X016271Y023866D01*
X016271Y023864D02*
X016208Y023864D01*
X016208Y023861D02*
X016271Y023861D01*
X016271Y023859D02*
X016208Y023859D01*
X016208Y023857D02*
X016271Y023857D01*
X016271Y023854D02*
X016208Y023854D01*
X016208Y023852D02*
X016271Y023852D01*
X016271Y023849D02*
X016208Y023849D01*
X016208Y023847D02*
X016271Y023847D01*
X016271Y023844D02*
X016208Y023844D01*
X016208Y023842D02*
X016271Y023842D01*
X016271Y023840D02*
X016208Y023840D01*
X016208Y023837D02*
X016271Y023837D01*
X016271Y023835D02*
X016208Y023835D01*
X016208Y023832D02*
X016271Y023832D01*
X016365Y023977D02*
X016428Y023977D01*
X016428Y024316D01*
X016365Y024316D01*
X016365Y023977D01*
X016365Y023978D02*
X016428Y023978D01*
X016428Y023981D02*
X016365Y023981D01*
X016365Y023983D02*
X016428Y023983D01*
X016428Y023986D02*
X016365Y023986D01*
X016365Y023988D02*
X016428Y023988D01*
X016428Y023991D02*
X016365Y023991D01*
X016365Y023993D02*
X016428Y023993D01*
X016428Y023995D02*
X016365Y023995D01*
X016365Y023998D02*
X016428Y023998D01*
X016428Y024000D02*
X016365Y024000D01*
X016365Y024003D02*
X016428Y024003D01*
X016428Y024005D02*
X016365Y024005D01*
X016365Y024008D02*
X016428Y024008D01*
X016428Y024010D02*
X016365Y024010D01*
X016365Y024013D02*
X016428Y024013D01*
X016428Y024015D02*
X016365Y024015D01*
X016365Y024017D02*
X016428Y024017D01*
X016428Y024020D02*
X016365Y024020D01*
X016365Y024022D02*
X016428Y024022D01*
X016428Y024025D02*
X016365Y024025D01*
X016365Y024027D02*
X016428Y024027D01*
X016428Y024030D02*
X016365Y024030D01*
X016365Y024032D02*
X016428Y024032D01*
X016428Y024034D02*
X016365Y024034D01*
X016365Y024037D02*
X016428Y024037D01*
X016428Y024039D02*
X016365Y024039D01*
X016365Y024042D02*
X016428Y024042D01*
X016428Y024044D02*
X016365Y024044D01*
X016365Y024047D02*
X016428Y024047D01*
X016428Y024049D02*
X016365Y024049D01*
X016365Y024052D02*
X016428Y024052D01*
X016428Y024054D02*
X016365Y024054D01*
X016365Y024056D02*
X016428Y024056D01*
X016428Y024059D02*
X016365Y024059D01*
X016365Y024061D02*
X016428Y024061D01*
X016428Y024064D02*
X016365Y024064D01*
X016365Y024066D02*
X016428Y024066D01*
X016428Y024069D02*
X016365Y024069D01*
X016365Y024071D02*
X016428Y024071D01*
X016428Y024073D02*
X016365Y024073D01*
X016365Y024076D02*
X016428Y024076D01*
X016428Y024078D02*
X016365Y024078D01*
X016365Y024081D02*
X016428Y024081D01*
X016428Y024083D02*
X016365Y024083D01*
X016365Y024086D02*
X016428Y024086D01*
X016428Y024088D02*
X016365Y024088D01*
X016365Y024091D02*
X016428Y024091D01*
X016428Y024093D02*
X016365Y024093D01*
X016365Y024095D02*
X016428Y024095D01*
X016428Y024098D02*
X016365Y024098D01*
X016365Y024100D02*
X016428Y024100D01*
X016428Y024103D02*
X016365Y024103D01*
X016365Y024105D02*
X016428Y024105D01*
X016428Y024108D02*
X016365Y024108D01*
X016365Y024110D02*
X016428Y024110D01*
X016428Y024112D02*
X016365Y024112D01*
X016365Y024115D02*
X016428Y024115D01*
X016428Y024117D02*
X016365Y024117D01*
X016365Y024120D02*
X016428Y024120D01*
X016428Y024122D02*
X016365Y024122D01*
X016365Y024125D02*
X016428Y024125D01*
X016428Y024127D02*
X016365Y024127D01*
X016365Y024130D02*
X016428Y024130D01*
X016428Y024132D02*
X016365Y024132D01*
X016365Y024134D02*
X016428Y024134D01*
X016428Y024137D02*
X016365Y024137D01*
X016365Y024139D02*
X016428Y024139D01*
X016428Y024142D02*
X016365Y024142D01*
X016365Y024144D02*
X016428Y024144D01*
X016428Y024147D02*
X016365Y024147D01*
X016365Y024149D02*
X016428Y024149D01*
X016428Y024151D02*
X016365Y024151D01*
X016365Y024154D02*
X016428Y024154D01*
X016428Y024156D02*
X016365Y024156D01*
X016365Y024159D02*
X016428Y024159D01*
X016428Y024161D02*
X016365Y024161D01*
X016365Y024164D02*
X016428Y024164D01*
X016428Y024166D02*
X016365Y024166D01*
X016365Y024169D02*
X016428Y024169D01*
X016428Y024171D02*
X016365Y024171D01*
X016365Y024173D02*
X016428Y024173D01*
X016428Y024176D02*
X016365Y024176D01*
X016365Y024178D02*
X016428Y024178D01*
X016428Y024181D02*
X016365Y024181D01*
X016365Y024183D02*
X016428Y024183D01*
X016428Y024186D02*
X016365Y024186D01*
X016365Y024188D02*
X016428Y024188D01*
X016428Y024190D02*
X016365Y024190D01*
X016365Y024193D02*
X016428Y024193D01*
X016428Y024195D02*
X016365Y024195D01*
X016365Y024198D02*
X016428Y024198D01*
X016428Y024200D02*
X016365Y024200D01*
X016365Y024203D02*
X016428Y024203D01*
X016428Y024205D02*
X016365Y024205D01*
X016365Y024208D02*
X016428Y024208D01*
X016428Y024210D02*
X016365Y024210D01*
X016365Y024212D02*
X016428Y024212D01*
X016428Y024215D02*
X016365Y024215D01*
X016365Y024217D02*
X016428Y024217D01*
X016428Y024220D02*
X016365Y024220D01*
X016365Y024222D02*
X016428Y024222D01*
X016428Y024225D02*
X016365Y024225D01*
X016365Y024227D02*
X016428Y024227D01*
X016428Y024229D02*
X016365Y024229D01*
X016365Y024232D02*
X016428Y024232D01*
X016428Y024234D02*
X016365Y024234D01*
X016365Y024237D02*
X016428Y024237D01*
X016428Y024239D02*
X016365Y024239D01*
X016365Y024242D02*
X016428Y024242D01*
X016428Y024244D02*
X016365Y024244D01*
X016365Y024247D02*
X016428Y024247D01*
X016428Y024249D02*
X016365Y024249D01*
X016365Y024251D02*
X016428Y024251D01*
X016428Y024254D02*
X016365Y024254D01*
X016365Y024256D02*
X016428Y024256D01*
X016428Y024259D02*
X016365Y024259D01*
X016365Y024261D02*
X016428Y024261D01*
X016428Y024264D02*
X016365Y024264D01*
X016365Y024266D02*
X016428Y024266D01*
X016428Y024268D02*
X016365Y024268D01*
X016365Y024271D02*
X016428Y024271D01*
X016428Y024273D02*
X016365Y024273D01*
X016365Y024276D02*
X016428Y024276D01*
X016428Y024278D02*
X016365Y024278D01*
X016365Y024281D02*
X016428Y024281D01*
X016428Y024283D02*
X016365Y024283D01*
X016365Y024286D02*
X016428Y024286D01*
X016428Y024288D02*
X016365Y024288D01*
X016365Y024290D02*
X016428Y024290D01*
X016428Y024293D02*
X016365Y024293D01*
X016365Y024295D02*
X016428Y024295D01*
X016428Y024298D02*
X016365Y024298D01*
X016365Y024300D02*
X016428Y024300D01*
X016428Y024303D02*
X016365Y024303D01*
X016365Y024305D02*
X016428Y024305D01*
X016428Y024307D02*
X016365Y024307D01*
X016365Y024310D02*
X016428Y024310D01*
X016428Y024312D02*
X016365Y024312D01*
X016365Y024315D02*
X016428Y024315D01*
X016408Y024371D02*
X016424Y024379D01*
X016436Y024394D01*
X016438Y024418D01*
X016432Y024434D01*
X016416Y024446D01*
X016408Y024450D01*
X016385Y024450D01*
X016367Y024438D01*
X016357Y024418D01*
X016357Y024398D01*
X016365Y024383D01*
X016427Y024383D01*
X016425Y024381D02*
X016368Y024381D01*
X016365Y024383D02*
X016381Y024371D01*
X016408Y024371D01*
X016413Y024373D02*
X016378Y024373D01*
X016374Y024376D02*
X016418Y024376D01*
X016423Y024378D02*
X016371Y024378D01*
X016364Y024385D02*
X016429Y024385D01*
X016431Y024388D02*
X016362Y024388D01*
X016361Y024390D02*
X016433Y024390D01*
X016435Y024393D02*
X016360Y024393D01*
X016359Y024395D02*
X016436Y024395D01*
X016436Y024398D02*
X016358Y024398D01*
X016357Y024400D02*
X016436Y024400D01*
X016437Y024403D02*
X016357Y024403D01*
X016357Y024405D02*
X016437Y024405D01*
X016437Y024407D02*
X016357Y024407D01*
X016357Y024410D02*
X016437Y024410D01*
X016437Y024412D02*
X016357Y024412D01*
X016357Y024415D02*
X016438Y024415D01*
X016438Y024417D02*
X016357Y024417D01*
X016358Y024420D02*
X016437Y024420D01*
X016436Y024422D02*
X016359Y024422D01*
X016360Y024424D02*
X016435Y024424D01*
X016435Y024427D02*
X016362Y024427D01*
X016363Y024429D02*
X016434Y024429D01*
X016433Y024432D02*
X016364Y024432D01*
X016365Y024434D02*
X016431Y024434D01*
X016428Y024437D02*
X016366Y024437D01*
X016369Y024439D02*
X016425Y024439D01*
X016422Y024442D02*
X016373Y024442D01*
X016376Y024444D02*
X016418Y024444D01*
X016415Y024446D02*
X016380Y024446D01*
X016384Y024449D02*
X016410Y024449D01*
X016562Y024296D02*
X016574Y024304D01*
X016589Y024312D01*
X016609Y024320D01*
X016621Y024324D01*
X016660Y024324D01*
X016688Y024316D01*
X016719Y024300D01*
X016568Y024300D01*
X016564Y024298D02*
X016722Y024298D01*
X016719Y024300D02*
X016735Y024284D01*
X016747Y024269D01*
X016751Y024269D01*
X016751Y024473D01*
X016814Y024473D01*
X016814Y023977D01*
X016751Y023977D01*
X016751Y024198D01*
X016814Y024198D01*
X016814Y024200D02*
X016750Y024200D01*
X016751Y024198D02*
X016735Y024229D01*
X016711Y024253D01*
X016688Y024261D01*
X016633Y024261D01*
X016609Y024249D01*
X016593Y024225D01*
X016585Y024209D01*
X016585Y023977D01*
X016522Y023977D01*
X016522Y024229D01*
X016530Y024253D01*
X016538Y024269D01*
X016546Y024280D01*
X016562Y024296D01*
X016561Y024295D02*
X016724Y024295D01*
X016726Y024293D02*
X016559Y024293D01*
X016556Y024290D02*
X016729Y024290D01*
X016731Y024288D02*
X016554Y024288D01*
X016551Y024286D02*
X016734Y024286D01*
X016736Y024283D02*
X016549Y024283D01*
X016546Y024281D02*
X016738Y024281D01*
X016740Y024278D02*
X016545Y024278D01*
X016543Y024276D02*
X016741Y024276D01*
X016743Y024273D02*
X016541Y024273D01*
X016540Y024271D02*
X016745Y024271D01*
X016751Y024271D02*
X016814Y024271D01*
X016814Y024273D02*
X016751Y024273D01*
X016751Y024276D02*
X016814Y024276D01*
X016814Y024278D02*
X016751Y024278D01*
X016751Y024281D02*
X016814Y024281D01*
X016814Y024283D02*
X016751Y024283D01*
X016751Y024286D02*
X016814Y024286D01*
X016814Y024288D02*
X016751Y024288D01*
X016751Y024290D02*
X016814Y024290D01*
X016814Y024293D02*
X016751Y024293D01*
X016751Y024295D02*
X016814Y024295D01*
X016814Y024298D02*
X016751Y024298D01*
X016751Y024300D02*
X016814Y024300D01*
X016814Y024303D02*
X016751Y024303D01*
X016751Y024305D02*
X016814Y024305D01*
X016814Y024307D02*
X016751Y024307D01*
X016751Y024310D02*
X016814Y024310D01*
X016814Y024312D02*
X016751Y024312D01*
X016751Y024315D02*
X016814Y024315D01*
X016814Y024317D02*
X016751Y024317D01*
X016751Y024320D02*
X016814Y024320D01*
X016814Y024322D02*
X016751Y024322D01*
X016751Y024325D02*
X016814Y024325D01*
X016814Y024327D02*
X016751Y024327D01*
X016751Y024329D02*
X016814Y024329D01*
X016814Y024332D02*
X016751Y024332D01*
X016751Y024334D02*
X016814Y024334D01*
X016814Y024337D02*
X016751Y024337D01*
X016751Y024339D02*
X016814Y024339D01*
X016814Y024342D02*
X016751Y024342D01*
X016751Y024344D02*
X016814Y024344D01*
X016814Y024346D02*
X016751Y024346D01*
X016751Y024349D02*
X016814Y024349D01*
X016814Y024351D02*
X016751Y024351D01*
X016751Y024354D02*
X016814Y024354D01*
X016814Y024356D02*
X016751Y024356D01*
X016751Y024359D02*
X016814Y024359D01*
X016814Y024361D02*
X016751Y024361D01*
X016751Y024364D02*
X016814Y024364D01*
X016814Y024366D02*
X016751Y024366D01*
X016751Y024368D02*
X016814Y024368D01*
X016814Y024371D02*
X016751Y024371D01*
X016751Y024373D02*
X016814Y024373D01*
X016814Y024376D02*
X016751Y024376D01*
X016751Y024378D02*
X016814Y024378D01*
X016814Y024381D02*
X016751Y024381D01*
X016751Y024383D02*
X016814Y024383D01*
X016814Y024385D02*
X016751Y024385D01*
X016751Y024388D02*
X016814Y024388D01*
X016814Y024390D02*
X016751Y024390D01*
X016751Y024393D02*
X016814Y024393D01*
X016814Y024395D02*
X016751Y024395D01*
X016751Y024398D02*
X016814Y024398D01*
X016814Y024400D02*
X016751Y024400D01*
X016751Y024403D02*
X016814Y024403D01*
X016814Y024405D02*
X016751Y024405D01*
X016751Y024407D02*
X016814Y024407D01*
X016814Y024410D02*
X016751Y024410D01*
X016751Y024412D02*
X016814Y024412D01*
X016814Y024415D02*
X016751Y024415D01*
X016751Y024417D02*
X016814Y024417D01*
X016814Y024420D02*
X016751Y024420D01*
X016751Y024422D02*
X016814Y024422D01*
X016814Y024424D02*
X016751Y024424D01*
X016751Y024427D02*
X016814Y024427D01*
X016814Y024429D02*
X016751Y024429D01*
X016751Y024432D02*
X016814Y024432D01*
X016814Y024434D02*
X016751Y024434D01*
X016751Y024437D02*
X016814Y024437D01*
X016814Y024439D02*
X016751Y024439D01*
X016751Y024442D02*
X016814Y024442D01*
X016814Y024444D02*
X016751Y024444D01*
X016751Y024446D02*
X016814Y024446D01*
X016814Y024449D02*
X016751Y024449D01*
X016751Y024451D02*
X016814Y024451D01*
X016814Y024454D02*
X016751Y024454D01*
X016751Y024456D02*
X016814Y024456D01*
X016814Y024459D02*
X016751Y024459D01*
X016751Y024461D02*
X016814Y024461D01*
X016814Y024463D02*
X016751Y024463D01*
X016751Y024466D02*
X016814Y024466D01*
X016814Y024468D02*
X016751Y024468D01*
X016751Y024471D02*
X016814Y024471D01*
X016814Y024473D02*
X016751Y024473D01*
X016690Y024315D02*
X016597Y024315D01*
X016603Y024317D02*
X016683Y024317D01*
X016674Y024320D02*
X016609Y024320D01*
X016616Y024322D02*
X016666Y024322D01*
X016695Y024312D02*
X016591Y024312D01*
X016586Y024310D02*
X016700Y024310D01*
X016704Y024307D02*
X016581Y024307D01*
X016576Y024305D02*
X016709Y024305D01*
X016714Y024303D02*
X016572Y024303D01*
X016538Y024268D02*
X016814Y024268D01*
X016814Y024266D02*
X016537Y024266D01*
X016536Y024264D02*
X016814Y024264D01*
X016814Y024261D02*
X016535Y024261D01*
X016533Y024259D02*
X016629Y024259D01*
X016624Y024256D02*
X016532Y024256D01*
X016531Y024254D02*
X016619Y024254D01*
X016614Y024251D02*
X016530Y024251D01*
X016529Y024249D02*
X016609Y024249D01*
X016608Y024247D02*
X016528Y024247D01*
X016527Y024244D02*
X016606Y024244D01*
X016604Y024242D02*
X016527Y024242D01*
X016526Y024239D02*
X016603Y024239D01*
X016601Y024237D02*
X016525Y024237D01*
X016524Y024234D02*
X016599Y024234D01*
X016598Y024232D02*
X016523Y024232D01*
X016523Y024229D02*
X016596Y024229D01*
X016595Y024227D02*
X016522Y024227D01*
X016522Y024225D02*
X016593Y024225D01*
X016592Y024222D02*
X016522Y024222D01*
X016522Y024220D02*
X016591Y024220D01*
X016589Y024217D02*
X016522Y024217D01*
X016522Y024215D02*
X016588Y024215D01*
X016587Y024212D02*
X016522Y024212D01*
X016522Y024210D02*
X016586Y024210D01*
X016585Y024208D02*
X016522Y024208D01*
X016522Y024205D02*
X016585Y024205D01*
X016585Y024203D02*
X016522Y024203D01*
X016522Y024200D02*
X016585Y024200D01*
X016585Y024198D02*
X016522Y024198D01*
X016522Y024195D02*
X016585Y024195D01*
X016585Y024193D02*
X016522Y024193D01*
X016522Y024190D02*
X016585Y024190D01*
X016585Y024188D02*
X016522Y024188D01*
X016522Y024186D02*
X016585Y024186D01*
X016585Y024183D02*
X016522Y024183D01*
X016522Y024181D02*
X016585Y024181D01*
X016585Y024178D02*
X016522Y024178D01*
X016522Y024176D02*
X016585Y024176D01*
X016585Y024173D02*
X016522Y024173D01*
X016522Y024171D02*
X016585Y024171D01*
X016585Y024169D02*
X016522Y024169D01*
X016522Y024166D02*
X016585Y024166D01*
X016585Y024164D02*
X016522Y024164D01*
X016522Y024161D02*
X016585Y024161D01*
X016585Y024159D02*
X016522Y024159D01*
X016522Y024156D02*
X016585Y024156D01*
X016585Y024154D02*
X016522Y024154D01*
X016522Y024151D02*
X016585Y024151D01*
X016585Y024149D02*
X016522Y024149D01*
X016522Y024147D02*
X016585Y024147D01*
X016585Y024144D02*
X016522Y024144D01*
X016522Y024142D02*
X016585Y024142D01*
X016585Y024139D02*
X016522Y024139D01*
X016522Y024137D02*
X016585Y024137D01*
X016585Y024134D02*
X016522Y024134D01*
X016522Y024132D02*
X016585Y024132D01*
X016585Y024130D02*
X016522Y024130D01*
X016522Y024127D02*
X016585Y024127D01*
X016585Y024125D02*
X016522Y024125D01*
X016522Y024122D02*
X016585Y024122D01*
X016585Y024120D02*
X016522Y024120D01*
X016522Y024117D02*
X016585Y024117D01*
X016585Y024115D02*
X016522Y024115D01*
X016522Y024112D02*
X016585Y024112D01*
X016585Y024110D02*
X016522Y024110D01*
X016522Y024108D02*
X016585Y024108D01*
X016585Y024105D02*
X016522Y024105D01*
X016522Y024103D02*
X016585Y024103D01*
X016585Y024100D02*
X016522Y024100D01*
X016522Y024098D02*
X016585Y024098D01*
X016585Y024095D02*
X016522Y024095D01*
X016522Y024093D02*
X016585Y024093D01*
X016585Y024091D02*
X016522Y024091D01*
X016522Y024088D02*
X016585Y024088D01*
X016585Y024086D02*
X016522Y024086D01*
X016522Y024083D02*
X016585Y024083D01*
X016585Y024081D02*
X016522Y024081D01*
X016522Y024078D02*
X016585Y024078D01*
X016585Y024076D02*
X016522Y024076D01*
X016522Y024073D02*
X016585Y024073D01*
X016585Y024071D02*
X016522Y024071D01*
X016522Y024069D02*
X016585Y024069D01*
X016585Y024066D02*
X016522Y024066D01*
X016522Y024064D02*
X016585Y024064D01*
X016585Y024061D02*
X016522Y024061D01*
X016522Y024059D02*
X016585Y024059D01*
X016585Y024056D02*
X016522Y024056D01*
X016522Y024054D02*
X016585Y024054D01*
X016585Y024052D02*
X016522Y024052D01*
X016522Y024049D02*
X016585Y024049D01*
X016585Y024047D02*
X016522Y024047D01*
X016522Y024044D02*
X016585Y024044D01*
X016585Y024042D02*
X016522Y024042D01*
X016522Y024039D02*
X016585Y024039D01*
X016585Y024037D02*
X016522Y024037D01*
X016522Y024034D02*
X016585Y024034D01*
X016585Y024032D02*
X016522Y024032D01*
X016522Y024030D02*
X016585Y024030D01*
X016585Y024027D02*
X016522Y024027D01*
X016522Y024025D02*
X016585Y024025D01*
X016585Y024022D02*
X016522Y024022D01*
X016522Y024020D02*
X016585Y024020D01*
X016585Y024017D02*
X016522Y024017D01*
X016522Y024015D02*
X016585Y024015D01*
X016585Y024013D02*
X016522Y024013D01*
X016522Y024010D02*
X016585Y024010D01*
X016585Y024008D02*
X016522Y024008D01*
X016522Y024005D02*
X016585Y024005D01*
X016585Y024003D02*
X016522Y024003D01*
X016522Y024000D02*
X016585Y024000D01*
X016585Y023998D02*
X016522Y023998D01*
X016522Y023995D02*
X016585Y023995D01*
X016585Y023993D02*
X016522Y023993D01*
X016522Y023991D02*
X016585Y023991D01*
X016585Y023988D02*
X016522Y023988D01*
X016522Y023986D02*
X016585Y023986D01*
X016585Y023983D02*
X016522Y023983D01*
X016522Y023981D02*
X016585Y023981D01*
X016585Y023978D02*
X016522Y023978D01*
X016751Y023978D02*
X016814Y023978D01*
X016814Y023981D02*
X016751Y023981D01*
X016751Y023983D02*
X016814Y023983D01*
X016814Y023986D02*
X016751Y023986D01*
X016751Y023988D02*
X016814Y023988D01*
X016814Y023991D02*
X016751Y023991D01*
X016751Y023993D02*
X016814Y023993D01*
X016814Y023995D02*
X016751Y023995D01*
X016751Y023998D02*
X016814Y023998D01*
X016814Y024000D02*
X016751Y024000D01*
X016751Y024003D02*
X016814Y024003D01*
X016814Y024005D02*
X016751Y024005D01*
X016751Y024008D02*
X016814Y024008D01*
X016814Y024010D02*
X016751Y024010D01*
X016751Y024013D02*
X016814Y024013D01*
X016814Y024015D02*
X016751Y024015D01*
X016751Y024017D02*
X016814Y024017D01*
X016814Y024020D02*
X016751Y024020D01*
X016751Y024022D02*
X016814Y024022D01*
X016814Y024025D02*
X016751Y024025D01*
X016751Y024027D02*
X016814Y024027D01*
X016814Y024030D02*
X016751Y024030D01*
X016751Y024032D02*
X016814Y024032D01*
X016814Y024034D02*
X016751Y024034D01*
X016751Y024037D02*
X016814Y024037D01*
X016814Y024039D02*
X016751Y024039D01*
X016751Y024042D02*
X016814Y024042D01*
X016814Y024044D02*
X016751Y024044D01*
X016751Y024047D02*
X016814Y024047D01*
X016814Y024049D02*
X016751Y024049D01*
X016751Y024052D02*
X016814Y024052D01*
X016814Y024054D02*
X016751Y024054D01*
X016751Y024056D02*
X016814Y024056D01*
X016814Y024059D02*
X016751Y024059D01*
X016751Y024061D02*
X016814Y024061D01*
X016814Y024064D02*
X016751Y024064D01*
X016751Y024066D02*
X016814Y024066D01*
X016814Y024069D02*
X016751Y024069D01*
X016751Y024071D02*
X016814Y024071D01*
X016814Y024073D02*
X016751Y024073D01*
X016751Y024076D02*
X016814Y024076D01*
X016814Y024078D02*
X016751Y024078D01*
X016751Y024081D02*
X016814Y024081D01*
X016814Y024083D02*
X016751Y024083D01*
X016751Y024086D02*
X016814Y024086D01*
X016814Y024088D02*
X016751Y024088D01*
X016751Y024091D02*
X016814Y024091D01*
X016814Y024093D02*
X016751Y024093D01*
X016751Y024095D02*
X016814Y024095D01*
X016814Y024098D02*
X016751Y024098D01*
X016751Y024100D02*
X016814Y024100D01*
X016814Y024103D02*
X016751Y024103D01*
X016751Y024105D02*
X016814Y024105D01*
X016814Y024108D02*
X016751Y024108D01*
X016751Y024110D02*
X016814Y024110D01*
X016814Y024112D02*
X016751Y024112D01*
X016751Y024115D02*
X016814Y024115D01*
X016814Y024117D02*
X016751Y024117D01*
X016751Y024120D02*
X016814Y024120D01*
X016814Y024122D02*
X016751Y024122D01*
X016751Y024125D02*
X016814Y024125D01*
X016814Y024127D02*
X016751Y024127D01*
X016751Y024130D02*
X016814Y024130D01*
X016814Y024132D02*
X016751Y024132D01*
X016751Y024134D02*
X016814Y024134D01*
X016814Y024137D02*
X016751Y024137D01*
X016751Y024139D02*
X016814Y024139D01*
X016814Y024142D02*
X016751Y024142D01*
X016751Y024144D02*
X016814Y024144D01*
X016814Y024147D02*
X016751Y024147D01*
X016751Y024149D02*
X016814Y024149D01*
X016814Y024151D02*
X016751Y024151D01*
X016751Y024154D02*
X016814Y024154D01*
X016814Y024156D02*
X016751Y024156D01*
X016751Y024159D02*
X016814Y024159D01*
X016814Y024161D02*
X016751Y024161D01*
X016751Y024164D02*
X016814Y024164D01*
X016814Y024166D02*
X016751Y024166D01*
X016751Y024169D02*
X016814Y024169D01*
X016814Y024171D02*
X016751Y024171D01*
X016751Y024173D02*
X016814Y024173D01*
X016814Y024176D02*
X016751Y024176D01*
X016751Y024178D02*
X016814Y024178D01*
X016814Y024181D02*
X016751Y024181D01*
X016751Y024183D02*
X016814Y024183D01*
X016814Y024186D02*
X016751Y024186D01*
X016751Y024188D02*
X016814Y024188D01*
X016814Y024190D02*
X016751Y024190D01*
X016751Y024193D02*
X016814Y024193D01*
X016814Y024195D02*
X016751Y024195D01*
X016748Y024203D02*
X016814Y024203D01*
X016814Y024205D02*
X016747Y024205D01*
X016746Y024208D02*
X016814Y024208D01*
X016814Y024210D02*
X016745Y024210D01*
X016743Y024212D02*
X016814Y024212D01*
X016814Y024215D02*
X016742Y024215D01*
X016741Y024217D02*
X016814Y024217D01*
X016814Y024220D02*
X016740Y024220D01*
X016739Y024222D02*
X016814Y024222D01*
X016814Y024225D02*
X016737Y024225D01*
X016736Y024227D02*
X016814Y024227D01*
X016814Y024229D02*
X016735Y024229D01*
X016732Y024232D02*
X016814Y024232D01*
X016814Y024234D02*
X016730Y024234D01*
X016727Y024237D02*
X016814Y024237D01*
X016814Y024239D02*
X016725Y024239D01*
X016723Y024242D02*
X016814Y024242D01*
X016814Y024244D02*
X016720Y024244D01*
X016718Y024247D02*
X016814Y024247D01*
X016814Y024249D02*
X016715Y024249D01*
X016713Y024251D02*
X016814Y024251D01*
X016814Y024254D02*
X016708Y024254D01*
X016701Y024256D02*
X016814Y024256D01*
X016814Y024259D02*
X016694Y024259D01*
X016877Y024304D02*
X016877Y024308D01*
X016893Y024316D01*
X016924Y024324D01*
X016999Y024324D01*
X017026Y024316D01*
X017050Y024304D01*
X017070Y024296D01*
X017097Y024276D01*
X017113Y024253D01*
X017133Y024221D01*
X017145Y024190D01*
X017145Y024103D01*
X017133Y024060D01*
X017109Y024024D01*
X017089Y024005D01*
X017046Y023977D01*
X017007Y023969D01*
X016928Y023969D01*
X016896Y023977D01*
X016877Y023985D01*
X016885Y024032D01*
X016894Y024032D01*
X016893Y024032D02*
X016932Y024024D01*
X016991Y024020D01*
X017011Y024032D01*
X017042Y024048D01*
X017058Y024068D01*
X017070Y024087D01*
X017082Y024115D01*
X017082Y024174D01*
X017070Y024202D01*
X017058Y024221D01*
X017042Y024237D01*
X017019Y024253D01*
X016991Y024265D01*
X016928Y024265D01*
X016889Y024257D01*
X016877Y024304D01*
X016877Y024305D02*
X017048Y024305D01*
X017043Y024307D02*
X016877Y024307D01*
X016877Y024303D02*
X017053Y024303D01*
X017059Y024300D02*
X016878Y024300D01*
X016878Y024298D02*
X017066Y024298D01*
X017071Y024295D02*
X016879Y024295D01*
X016880Y024293D02*
X017074Y024293D01*
X017078Y024290D02*
X016880Y024290D01*
X016881Y024288D02*
X017081Y024288D01*
X017084Y024286D02*
X016881Y024286D01*
X016882Y024283D02*
X017088Y024283D01*
X017091Y024281D02*
X016883Y024281D01*
X016883Y024278D02*
X017095Y024278D01*
X017098Y024276D02*
X016884Y024276D01*
X016884Y024273D02*
X017099Y024273D01*
X017101Y024271D02*
X016885Y024271D01*
X016886Y024268D02*
X017103Y024268D01*
X017104Y024266D02*
X016886Y024266D01*
X016887Y024264D02*
X016923Y024264D01*
X016911Y024261D02*
X016888Y024261D01*
X016888Y024259D02*
X016899Y024259D01*
X016881Y024310D02*
X017038Y024310D01*
X017033Y024312D02*
X016886Y024312D01*
X016891Y024315D02*
X017028Y024315D01*
X017021Y024317D02*
X016898Y024317D01*
X016908Y024320D02*
X017013Y024320D01*
X017004Y024322D02*
X016918Y024322D01*
X016993Y024264D02*
X017106Y024264D01*
X017107Y024261D02*
X016999Y024261D01*
X017005Y024259D02*
X017109Y024259D01*
X017111Y024256D02*
X017010Y024256D01*
X017016Y024254D02*
X017112Y024254D01*
X017114Y024251D02*
X017021Y024251D01*
X017024Y024249D02*
X017115Y024249D01*
X017117Y024247D02*
X017028Y024247D01*
X017032Y024244D02*
X017118Y024244D01*
X017120Y024242D02*
X017035Y024242D01*
X017039Y024239D02*
X017121Y024239D01*
X017123Y024237D02*
X017042Y024237D01*
X017045Y024234D02*
X017125Y024234D01*
X017126Y024232D02*
X017047Y024232D01*
X017050Y024229D02*
X017128Y024229D01*
X017129Y024227D02*
X017052Y024227D01*
X017055Y024225D02*
X017131Y024225D01*
X017132Y024222D02*
X017057Y024222D01*
X017059Y024220D02*
X017133Y024220D01*
X017134Y024217D02*
X017060Y024217D01*
X017062Y024215D02*
X017135Y024215D01*
X017136Y024212D02*
X017063Y024212D01*
X017065Y024210D02*
X017137Y024210D01*
X017138Y024208D02*
X017066Y024208D01*
X017068Y024205D02*
X017139Y024205D01*
X017140Y024203D02*
X017069Y024203D01*
X017070Y024200D02*
X017141Y024200D01*
X017142Y024198D02*
X017071Y024198D01*
X017072Y024195D02*
X017142Y024195D01*
X017143Y024193D02*
X017073Y024193D01*
X017074Y024190D02*
X017144Y024190D01*
X017145Y024188D02*
X017076Y024188D01*
X017077Y024186D02*
X017145Y024186D01*
X017145Y024183D02*
X017078Y024183D01*
X017079Y024181D02*
X017145Y024181D01*
X017145Y024178D02*
X017080Y024178D01*
X017081Y024176D02*
X017145Y024176D01*
X017145Y024173D02*
X017082Y024173D01*
X017082Y024171D02*
X017145Y024171D01*
X017145Y024169D02*
X017082Y024169D01*
X017082Y024166D02*
X017145Y024166D01*
X017145Y024164D02*
X017082Y024164D01*
X017082Y024161D02*
X017145Y024161D01*
X017145Y024159D02*
X017082Y024159D01*
X017082Y024156D02*
X017145Y024156D01*
X017145Y024154D02*
X017082Y024154D01*
X017082Y024151D02*
X017145Y024151D01*
X017145Y024149D02*
X017082Y024149D01*
X017082Y024147D02*
X017145Y024147D01*
X017145Y024144D02*
X017082Y024144D01*
X017082Y024142D02*
X017145Y024142D01*
X017145Y024139D02*
X017082Y024139D01*
X017082Y024137D02*
X017145Y024137D01*
X017145Y024134D02*
X017082Y024134D01*
X017082Y024132D02*
X017145Y024132D01*
X017145Y024130D02*
X017082Y024130D01*
X017082Y024127D02*
X017145Y024127D01*
X017145Y024125D02*
X017082Y024125D01*
X017082Y024122D02*
X017145Y024122D01*
X017145Y024120D02*
X017082Y024120D01*
X017082Y024117D02*
X017145Y024117D01*
X017145Y024115D02*
X017082Y024115D01*
X017080Y024112D02*
X017145Y024112D01*
X017145Y024110D02*
X017079Y024110D01*
X017078Y024108D02*
X017145Y024108D01*
X017145Y024105D02*
X017077Y024105D01*
X017076Y024103D02*
X017144Y024103D01*
X017144Y024100D02*
X017075Y024100D01*
X017074Y024098D02*
X017143Y024098D01*
X017142Y024095D02*
X017073Y024095D01*
X017072Y024093D02*
X017142Y024093D01*
X017141Y024091D02*
X017071Y024091D01*
X017070Y024088D02*
X017140Y024088D01*
X017140Y024086D02*
X017069Y024086D01*
X017067Y024083D02*
X017139Y024083D01*
X017138Y024081D02*
X017066Y024081D01*
X017064Y024078D02*
X017138Y024078D01*
X017137Y024076D02*
X017063Y024076D01*
X017061Y024073D02*
X017136Y024073D01*
X017136Y024071D02*
X017060Y024071D01*
X017058Y024069D02*
X017135Y024069D01*
X017134Y024066D02*
X017057Y024066D01*
X017055Y024064D02*
X017134Y024064D01*
X017133Y024061D02*
X017053Y024061D01*
X017051Y024059D02*
X017132Y024059D01*
X017130Y024056D02*
X017049Y024056D01*
X017047Y024054D02*
X017129Y024054D01*
X017127Y024052D02*
X017045Y024052D01*
X017043Y024049D02*
X017126Y024049D01*
X017124Y024047D02*
X017039Y024047D01*
X017035Y024044D02*
X017122Y024044D01*
X017121Y024042D02*
X017030Y024042D01*
X017025Y024039D02*
X017119Y024039D01*
X017117Y024037D02*
X017020Y024037D01*
X017015Y024034D02*
X017116Y024034D01*
X017114Y024032D02*
X017010Y024032D01*
X017006Y024030D02*
X017113Y024030D01*
X017111Y024027D02*
X017002Y024027D01*
X016998Y024025D02*
X017109Y024025D01*
X017107Y024022D02*
X016994Y024022D01*
X016963Y024022D02*
X016883Y024022D01*
X016883Y024020D02*
X017105Y024020D01*
X017102Y024017D02*
X016882Y024017D01*
X016882Y024015D02*
X017100Y024015D01*
X017097Y024013D02*
X016881Y024013D01*
X016881Y024010D02*
X017095Y024010D01*
X017092Y024008D02*
X016881Y024008D01*
X016880Y024005D02*
X017090Y024005D01*
X017086Y024003D02*
X016880Y024003D01*
X016879Y024000D02*
X017083Y024000D01*
X017079Y023998D02*
X016879Y023998D01*
X016879Y023995D02*
X017075Y023995D01*
X017071Y023993D02*
X016878Y023993D01*
X016878Y023991D02*
X017067Y023991D01*
X017063Y023988D02*
X016877Y023988D01*
X016877Y023986D02*
X017060Y023986D01*
X017056Y023983D02*
X016881Y023983D01*
X016887Y023981D02*
X017052Y023981D01*
X017048Y023978D02*
X016893Y023978D01*
X016901Y023976D02*
X017040Y023976D01*
X017028Y023974D02*
X016911Y023974D01*
X016921Y023971D02*
X017016Y023971D01*
X016930Y024025D02*
X016883Y024025D01*
X016884Y024027D02*
X016918Y024027D01*
X016906Y024030D02*
X016884Y024030D01*
X016885Y024032D02*
X016893Y024032D01*
X016215Y024256D02*
X016163Y024256D01*
D17*
X014831Y024477D02*
X014766Y024477D01*
X014799Y024477D02*
X014799Y024379D01*
X014723Y024379D02*
X014723Y024477D01*
X014690Y024444D01*
X014657Y024477D01*
X014657Y024379D01*
M02*
