G75*
G70*
%OFA0B0*%
%FSLAX24Y24*%
%IPPOS*%
%LPD*%
%AMOC8*
5,1,8,0,0,1.08239X$1,22.5*
%
%ADD10C,0.0000*%
%ADD11C,0.0070*%
%ADD12C,0.0060*%
%ADD13C,0.0100*%
%ADD14C,0.0120*%
%ADD15C,0.0010*%
%ADD16C,0.0039*%
%ADD17R,0.1157X0.0291*%
%ADD18C,0.0004*%
%ADD19C,0.0020*%
D10*
X002760Y021800D02*
X002760Y028800D01*
X022760Y028800D01*
X022760Y021800D01*
X002760Y021800D01*
X020583Y024611D02*
X020585Y024637D01*
X020591Y024663D01*
X020601Y024688D01*
X020614Y024711D01*
X020630Y024731D01*
X020650Y024749D01*
X020672Y024764D01*
X020695Y024776D01*
X020721Y024784D01*
X020747Y024788D01*
X020773Y024788D01*
X020799Y024784D01*
X020825Y024776D01*
X020849Y024764D01*
X020870Y024749D01*
X020890Y024731D01*
X020906Y024711D01*
X020919Y024688D01*
X020929Y024663D01*
X020935Y024637D01*
X020937Y024611D01*
X020935Y024585D01*
X020929Y024559D01*
X020919Y024534D01*
X020906Y024511D01*
X020890Y024491D01*
X020870Y024473D01*
X020848Y024458D01*
X020825Y024446D01*
X020799Y024438D01*
X020773Y024434D01*
X020747Y024434D01*
X020721Y024438D01*
X020695Y024446D01*
X020671Y024458D01*
X020650Y024473D01*
X020630Y024491D01*
X020614Y024511D01*
X020601Y024534D01*
X020591Y024559D01*
X020585Y024585D01*
X020583Y024611D01*
X020583Y025989D02*
X020585Y026015D01*
X020591Y026041D01*
X020601Y026066D01*
X020614Y026089D01*
X020630Y026109D01*
X020650Y026127D01*
X020672Y026142D01*
X020695Y026154D01*
X020721Y026162D01*
X020747Y026166D01*
X020773Y026166D01*
X020799Y026162D01*
X020825Y026154D01*
X020849Y026142D01*
X020870Y026127D01*
X020890Y026109D01*
X020906Y026089D01*
X020919Y026066D01*
X020929Y026041D01*
X020935Y026015D01*
X020937Y025989D01*
X020935Y025963D01*
X020929Y025937D01*
X020919Y025912D01*
X020906Y025889D01*
X020890Y025869D01*
X020870Y025851D01*
X020848Y025836D01*
X020825Y025824D01*
X020799Y025816D01*
X020773Y025812D01*
X020747Y025812D01*
X020721Y025816D01*
X020695Y025824D01*
X020671Y025836D01*
X020650Y025851D01*
X020630Y025869D01*
X020614Y025889D01*
X020601Y025912D01*
X020591Y025937D01*
X020585Y025963D01*
X020583Y025989D01*
D11*
X020370Y026546D02*
X020425Y026601D01*
X020425Y026711D01*
X020370Y026766D01*
X020315Y026766D01*
X020260Y026711D01*
X020205Y026766D01*
X020150Y026766D01*
X020095Y026711D01*
X020095Y026601D01*
X020150Y026546D01*
X020260Y026656D02*
X020260Y026711D01*
X020150Y026914D02*
X020150Y026969D01*
X020095Y026969D01*
X020095Y026914D01*
X020150Y026914D01*
X020150Y027098D02*
X020095Y027153D01*
X020095Y027264D01*
X020150Y027319D01*
X020205Y027319D01*
X020260Y027264D01*
X020260Y027208D01*
X020260Y027264D02*
X020315Y027319D01*
X020370Y027319D01*
X020425Y027264D01*
X020425Y027153D01*
X020370Y027098D01*
X020425Y027467D02*
X020205Y027467D01*
X020095Y027577D01*
X020205Y027687D01*
X020425Y027687D01*
X021095Y027632D02*
X021095Y027467D01*
X021425Y027467D01*
X021425Y027632D01*
X021370Y027687D01*
X021150Y027687D01*
X021095Y027632D01*
X021095Y027319D02*
X021425Y027319D01*
X021425Y027098D02*
X021095Y027098D01*
X021150Y026950D02*
X021095Y026895D01*
X021095Y026785D01*
X021150Y026730D01*
X021370Y026730D01*
X021425Y026785D01*
X021425Y026895D01*
X021370Y026950D01*
X021260Y026950D02*
X021260Y026840D01*
X021260Y026950D02*
X021150Y026950D01*
X021425Y027098D02*
X021095Y027319D01*
X022105Y027261D02*
X022105Y027096D01*
X022160Y027041D01*
X022325Y027041D01*
X022270Y026893D02*
X022325Y026838D01*
X022325Y026728D01*
X022270Y026673D01*
X022160Y026673D01*
X022105Y026728D01*
X022105Y026838D01*
X022160Y026893D01*
X022270Y026893D01*
X022325Y027261D02*
X022105Y027261D01*
X022160Y027465D02*
X022105Y027520D01*
X022160Y027465D02*
X022380Y027465D01*
X022325Y027520D02*
X022325Y027409D01*
X022215Y026525D02*
X022435Y026525D01*
X022215Y026525D02*
X022105Y026415D01*
X022215Y026305D01*
X022435Y026305D01*
X019335Y027208D02*
X019225Y027098D01*
X019005Y027098D01*
X019170Y027098D02*
X019170Y027319D01*
X019225Y027319D02*
X019005Y027319D01*
X019060Y027467D02*
X019280Y027687D01*
X019060Y027687D01*
X019005Y027632D01*
X019005Y027522D01*
X019060Y027467D01*
X019280Y027467D01*
X019335Y027522D01*
X019335Y027632D01*
X019280Y027687D01*
X019225Y027319D02*
X019335Y027208D01*
X018425Y027577D02*
X018315Y027467D01*
X018425Y027577D02*
X018095Y027577D01*
X018095Y027467D02*
X018095Y027687D01*
X017465Y027632D02*
X017465Y027522D01*
X017410Y027467D01*
X017465Y027632D02*
X017410Y027687D01*
X017355Y027687D01*
X017135Y027467D01*
X017135Y027687D01*
X016405Y027567D02*
X016295Y027457D01*
X016295Y027309D02*
X016075Y027309D01*
X016075Y027457D02*
X016075Y027677D01*
X016075Y027567D02*
X016405Y027567D01*
X016295Y027309D02*
X016405Y027198D01*
X016295Y027088D01*
X016075Y027088D01*
X016240Y027088D02*
X016240Y027309D01*
X015395Y027198D02*
X015285Y027309D01*
X015065Y027309D01*
X015065Y027457D02*
X015285Y027677D01*
X015340Y027677D01*
X015395Y027622D01*
X015395Y027512D01*
X015340Y027457D01*
X015230Y027309D02*
X015230Y027088D01*
X015285Y027088D02*
X015395Y027198D01*
X015285Y027088D02*
X015065Y027088D01*
X015065Y027457D02*
X015065Y027677D01*
X014415Y027632D02*
X014360Y027687D01*
X014305Y027687D01*
X014250Y027632D01*
X014195Y027687D01*
X014140Y027687D01*
X014085Y027632D01*
X014085Y027522D01*
X014140Y027467D01*
X014250Y027577D02*
X014250Y027632D01*
X014415Y027632D02*
X014415Y027522D01*
X014360Y027467D01*
X014305Y027319D02*
X014085Y027319D01*
X014250Y027319D02*
X014250Y027098D01*
X014305Y027098D02*
X014415Y027208D01*
X014305Y027319D01*
X014305Y027098D02*
X014085Y027098D01*
X013295Y027208D02*
X013185Y027098D01*
X012965Y027098D01*
X013130Y027098D02*
X013130Y027319D01*
X013185Y027319D02*
X012965Y027319D01*
X013185Y027319D02*
X013295Y027208D01*
X013130Y027467D02*
X013130Y027687D01*
X013295Y027632D02*
X013130Y027467D01*
X012965Y027632D02*
X013295Y027632D01*
X012415Y027687D02*
X012415Y027467D01*
X012250Y027467D01*
X012305Y027577D01*
X012305Y027632D01*
X012250Y027687D01*
X012140Y027687D01*
X012085Y027632D01*
X012085Y027522D01*
X012140Y027467D01*
X012085Y027319D02*
X012305Y027319D01*
X012415Y027208D01*
X012305Y027098D01*
X012085Y027098D01*
X012250Y027098D02*
X012250Y027319D01*
X011425Y027208D02*
X011315Y027098D01*
X011095Y027098D01*
X011260Y027098D02*
X011260Y027319D01*
X011315Y027319D02*
X011095Y027319D01*
X011150Y027467D02*
X011095Y027522D01*
X011095Y027632D01*
X011150Y027687D01*
X011205Y027687D01*
X011260Y027632D01*
X011260Y027467D01*
X011150Y027467D01*
X011260Y027467D02*
X011370Y027577D01*
X011425Y027687D01*
X011315Y027319D02*
X011425Y027208D01*
X010425Y027208D02*
X010315Y027098D01*
X010095Y027098D01*
X010260Y027098D02*
X010260Y027319D01*
X010315Y027319D02*
X010095Y027319D01*
X010095Y027467D02*
X010150Y027467D01*
X010370Y027687D01*
X010425Y027687D01*
X010425Y027467D01*
X010315Y027319D02*
X010425Y027208D01*
X009425Y027208D02*
X009315Y027098D01*
X009095Y027098D01*
X009260Y027098D02*
X009260Y027319D01*
X009315Y027319D02*
X009095Y027319D01*
X009150Y027467D02*
X009205Y027467D01*
X009260Y027522D01*
X009260Y027632D01*
X009205Y027687D01*
X009150Y027687D01*
X009095Y027632D01*
X009095Y027522D01*
X009150Y027467D01*
X009260Y027522D02*
X009315Y027467D01*
X009370Y027467D01*
X009425Y027522D01*
X009425Y027632D01*
X009370Y027687D01*
X009315Y027687D01*
X009260Y027632D01*
X009315Y027319D02*
X009425Y027208D01*
X008425Y027208D02*
X008315Y027319D01*
X008095Y027319D01*
X008150Y027467D02*
X008095Y027522D01*
X008095Y027632D01*
X008150Y027687D01*
X008370Y027687D01*
X008425Y027632D01*
X008425Y027522D01*
X008370Y027467D01*
X008315Y027467D01*
X008260Y027522D01*
X008260Y027687D01*
X008260Y027319D02*
X008260Y027098D01*
X008315Y027098D02*
X008425Y027208D01*
X008315Y027098D02*
X008095Y027098D01*
X007195Y027208D02*
X006865Y027208D01*
X006865Y027098D02*
X006865Y027319D01*
X006920Y027467D02*
X007140Y027687D01*
X006920Y027687D01*
X006865Y027632D01*
X006865Y027522D01*
X006920Y027467D01*
X007140Y027467D01*
X007195Y027522D01*
X007195Y027632D01*
X007140Y027687D01*
X007195Y027208D02*
X007085Y027098D01*
X007085Y026950D02*
X006865Y026950D01*
X007030Y026950D02*
X007030Y026730D01*
X007085Y026730D02*
X006865Y026730D01*
X007085Y026730D02*
X007195Y026840D01*
X007085Y026950D01*
X005900Y025567D02*
X005790Y025567D01*
X005735Y025512D01*
X005735Y025347D01*
X005625Y025347D02*
X005955Y025347D01*
X005955Y025512D01*
X005900Y025567D01*
X005900Y025199D02*
X005955Y025144D01*
X005955Y025033D01*
X005900Y024978D01*
X005845Y024978D01*
X005790Y025033D01*
X005790Y025144D01*
X005735Y025199D01*
X005680Y025199D01*
X005625Y025144D01*
X005625Y025033D01*
X005680Y024978D01*
X005680Y024830D02*
X005625Y024775D01*
X005625Y024665D01*
X005680Y024610D01*
X005900Y024610D01*
X005955Y024665D01*
X005955Y024775D01*
X005900Y024830D01*
X005955Y024475D02*
X005955Y024365D01*
X005955Y024420D02*
X005625Y024420D01*
X005625Y024365D02*
X005625Y024475D01*
X005965Y023792D02*
X005965Y023572D01*
X006185Y023792D01*
X006240Y023792D01*
X006295Y023737D01*
X006295Y023627D01*
X006240Y023572D01*
X006295Y023313D02*
X005965Y023313D01*
X005965Y023203D02*
X005965Y023424D01*
X006185Y023203D02*
X006295Y023313D01*
X006185Y023055D02*
X005965Y023055D01*
X006130Y023055D02*
X006130Y022835D01*
X006185Y022835D02*
X006295Y022945D01*
X006185Y023055D01*
X006185Y022835D02*
X005965Y022835D01*
X005535Y022945D02*
X005205Y022945D01*
X005205Y022835D02*
X005205Y023055D01*
X005260Y023203D02*
X005205Y023258D01*
X005205Y023368D01*
X005260Y023424D01*
X005480Y023424D01*
X005535Y023368D01*
X005535Y023258D01*
X005480Y023203D01*
X005425Y023203D01*
X005370Y023258D01*
X005370Y023424D01*
X005015Y023368D02*
X004960Y023424D01*
X004905Y023424D01*
X004850Y023368D01*
X004850Y023258D01*
X004905Y023203D01*
X004960Y023203D01*
X005015Y023258D01*
X005015Y023368D01*
X004850Y023368D02*
X004795Y023424D01*
X004740Y023424D01*
X004685Y023368D01*
X004685Y023258D01*
X004740Y023203D01*
X004795Y023203D01*
X004850Y023258D01*
X004685Y023055D02*
X004685Y022835D01*
X004685Y022945D02*
X005015Y022945D01*
X004905Y022835D01*
X005425Y022835D02*
X005535Y022945D01*
X004533Y023256D02*
X004494Y023294D01*
X004182Y023294D01*
X004143Y023333D01*
X004039Y023229D02*
X003883Y023073D01*
X003961Y023151D02*
X004194Y022917D01*
X004039Y022917D01*
X004377Y023100D02*
X004533Y023256D01*
X007305Y023203D02*
X007305Y023424D01*
X007305Y023313D02*
X007635Y023313D01*
X007525Y023203D01*
X007525Y023055D02*
X007580Y023055D01*
X007635Y023000D01*
X007635Y022890D01*
X007580Y022835D01*
X007525Y023055D02*
X007305Y022835D01*
X007305Y023055D01*
X008145Y023055D02*
X008145Y022835D01*
X008365Y023055D01*
X008420Y023055D01*
X008475Y023000D01*
X008475Y022890D01*
X008420Y022835D01*
X008420Y023203D02*
X008475Y023258D01*
X008475Y023368D01*
X008420Y023424D01*
X008365Y023424D01*
X008145Y023203D01*
X008145Y023424D01*
X009145Y023368D02*
X009145Y023258D01*
X009200Y023203D01*
X009310Y023313D02*
X009310Y023368D01*
X009255Y023424D01*
X009200Y023424D01*
X009145Y023368D01*
X009310Y023368D02*
X009365Y023424D01*
X009420Y023424D01*
X009475Y023368D01*
X009475Y023258D01*
X009420Y023203D01*
X009420Y023055D02*
X009475Y023000D01*
X009475Y022890D01*
X009420Y022835D01*
X009420Y023055D02*
X009365Y023055D01*
X009145Y022835D01*
X009145Y023055D01*
X010085Y023055D02*
X010085Y022835D01*
X010305Y023055D01*
X010360Y023055D01*
X010415Y023000D01*
X010415Y022890D01*
X010360Y022835D01*
X010250Y023203D02*
X010250Y023424D01*
X010085Y023368D02*
X010415Y023368D01*
X010250Y023203D01*
X011145Y023258D02*
X011200Y023203D01*
X011145Y023258D02*
X011145Y023368D01*
X011200Y023424D01*
X011310Y023424D01*
X011365Y023368D01*
X011365Y023313D01*
X011310Y023203D01*
X011475Y023203D01*
X011475Y023424D01*
X011420Y023055D02*
X011475Y023000D01*
X011475Y022890D01*
X011420Y022835D01*
X011420Y023055D02*
X011365Y023055D01*
X011145Y022835D01*
X011145Y023055D01*
X012145Y023055D02*
X012145Y022835D01*
X012365Y023055D01*
X012420Y023055D01*
X012475Y023000D01*
X012475Y022890D01*
X012420Y022835D01*
X012310Y023203D02*
X012310Y023368D01*
X012255Y023424D01*
X012200Y023424D01*
X012145Y023368D01*
X012145Y023258D01*
X012200Y023203D01*
X012310Y023203D01*
X012420Y023313D01*
X012475Y023424D01*
X013145Y023203D02*
X013200Y023203D01*
X013420Y023424D01*
X013475Y023424D01*
X013475Y023203D01*
X013420Y023055D02*
X013475Y023000D01*
X013475Y022890D01*
X013420Y022835D01*
X013420Y023055D02*
X013365Y023055D01*
X013145Y022835D01*
X013145Y023055D01*
X014145Y023055D02*
X014145Y022835D01*
X014365Y023055D01*
X014420Y023055D01*
X014475Y023000D01*
X014475Y022890D01*
X014420Y022835D01*
X014420Y023203D02*
X014365Y023203D01*
X014310Y023258D01*
X014310Y023368D01*
X014255Y023424D01*
X014200Y023424D01*
X014145Y023368D01*
X014145Y023258D01*
X014200Y023203D01*
X014255Y023203D01*
X014310Y023258D01*
X014310Y023368D02*
X014365Y023424D01*
X014420Y023424D01*
X014475Y023368D01*
X014475Y023258D01*
X014420Y023203D01*
X015145Y023258D02*
X015145Y023368D01*
X015200Y023424D01*
X015420Y023424D01*
X015475Y023368D01*
X015475Y023258D01*
X015420Y023203D01*
X015365Y023203D01*
X015310Y023258D01*
X015310Y023424D01*
X015145Y023258D02*
X015200Y023203D01*
X015145Y023055D02*
X015145Y022835D01*
X015365Y023055D01*
X015420Y023055D01*
X015475Y023000D01*
X015475Y022890D01*
X015420Y022835D01*
X016145Y022890D02*
X016200Y022835D01*
X016145Y022890D02*
X016145Y023000D01*
X016200Y023055D01*
X016255Y023055D01*
X016310Y023000D01*
X016310Y022945D01*
X016310Y023000D02*
X016365Y023055D01*
X016420Y023055D01*
X016475Y023000D01*
X016475Y022890D01*
X016420Y022835D01*
X016420Y023203D02*
X016475Y023258D01*
X016475Y023368D01*
X016420Y023424D01*
X016200Y023203D01*
X016145Y023258D01*
X016145Y023368D01*
X016200Y023424D01*
X016420Y023424D01*
X016420Y023203D02*
X016200Y023203D01*
X017145Y023203D02*
X017145Y023424D01*
X017145Y023313D02*
X017475Y023313D01*
X017365Y023203D01*
X017365Y023055D02*
X017310Y023000D01*
X017255Y023055D01*
X017200Y023055D01*
X017145Y023000D01*
X017145Y022890D01*
X017200Y022835D01*
X017310Y022945D02*
X017310Y023000D01*
X017365Y023055D02*
X017420Y023055D01*
X017475Y023000D01*
X017475Y022890D01*
X017420Y022835D01*
X018045Y022890D02*
X018100Y022835D01*
X018045Y022890D02*
X018045Y023000D01*
X018100Y023055D01*
X018155Y023055D01*
X018210Y023000D01*
X018210Y022945D01*
X018210Y023000D02*
X018265Y023055D01*
X018320Y023055D01*
X018375Y023000D01*
X018375Y022890D01*
X018320Y022835D01*
X018320Y023203D02*
X018375Y023258D01*
X018375Y023368D01*
X018320Y023424D01*
X018265Y023424D01*
X018045Y023203D01*
X018045Y023424D01*
X019095Y023424D02*
X019095Y023203D01*
X019425Y023203D01*
X019425Y023424D01*
X019370Y023572D02*
X019315Y023572D01*
X019260Y023627D01*
X019260Y023737D01*
X019205Y023792D01*
X019150Y023792D01*
X019095Y023737D01*
X019095Y023627D01*
X019150Y023572D01*
X019370Y023572D02*
X019425Y023627D01*
X019425Y023737D01*
X019370Y023792D01*
X019425Y023940D02*
X019095Y023940D01*
X019095Y024160D01*
X019260Y024050D02*
X019260Y023940D01*
X019425Y023940D02*
X019425Y024160D01*
X019425Y024308D02*
X019425Y024528D01*
X019425Y024418D02*
X019095Y024418D01*
X020095Y023866D02*
X020205Y023976D01*
X020425Y023976D01*
X020425Y023756D02*
X020205Y023756D01*
X020095Y023866D01*
X020150Y023608D02*
X020095Y023553D01*
X020095Y023443D01*
X020150Y023387D01*
X020150Y023258D02*
X020095Y023258D01*
X020095Y023203D01*
X020150Y023203D01*
X020150Y023258D01*
X020150Y023055D02*
X020095Y023000D01*
X020095Y022890D01*
X020150Y022835D01*
X020260Y022945D02*
X020260Y023000D01*
X020205Y023055D01*
X020150Y023055D01*
X020260Y023000D02*
X020315Y023055D01*
X020370Y023055D01*
X020425Y023000D01*
X020425Y022890D01*
X020370Y022835D01*
X021095Y022890D02*
X021095Y023000D01*
X021150Y023055D01*
X021260Y023055D01*
X021260Y022945D01*
X021370Y022835D02*
X021150Y022835D01*
X021095Y022890D01*
X021370Y022835D02*
X021425Y022890D01*
X021425Y023000D01*
X021370Y023055D01*
X021425Y023203D02*
X021095Y023424D01*
X021425Y023424D01*
X021425Y023572D02*
X021425Y023737D01*
X021370Y023792D01*
X021150Y023792D01*
X021095Y023737D01*
X021095Y023572D01*
X021425Y023572D01*
X021425Y023203D02*
X021095Y023203D01*
X020425Y023443D02*
X020425Y023553D01*
X020370Y023608D01*
X020315Y023608D01*
X020260Y023553D01*
X020205Y023608D01*
X020150Y023608D01*
X020260Y023553D02*
X020260Y023498D01*
X020370Y023387D02*
X020425Y023443D01*
X019425Y023000D02*
X019370Y023055D01*
X019260Y023055D01*
X019205Y023000D01*
X019205Y022835D01*
X019205Y022945D02*
X019095Y023055D01*
X019095Y022835D02*
X019425Y022835D01*
X019425Y023000D01*
X019260Y023203D02*
X019260Y023313D01*
X022095Y023313D02*
X022095Y023203D01*
X022095Y023258D02*
X022315Y023258D01*
X022315Y023203D01*
X022425Y023258D02*
X022480Y023258D01*
X022425Y023055D02*
X022205Y023055D01*
X022095Y022945D01*
X022205Y022835D01*
X022425Y022835D01*
X022315Y023449D02*
X022315Y023614D01*
X022260Y023669D01*
X022095Y023669D01*
X022095Y023449D02*
X022315Y023449D01*
X004909Y025200D02*
X004854Y025145D01*
X004744Y025145D01*
X004689Y025200D01*
X004689Y025310D01*
X004799Y025310D01*
X004689Y025420D02*
X004744Y025475D01*
X004854Y025475D01*
X004909Y025420D01*
X004909Y025200D01*
X004541Y025145D02*
X004541Y025475D01*
X004321Y025145D01*
X004321Y025475D01*
X004173Y025475D02*
X004008Y025475D01*
X003953Y025420D01*
X003953Y025200D01*
X004008Y025145D01*
X004173Y025145D01*
X004173Y025475D01*
X004108Y026075D02*
X004163Y026130D01*
X004108Y026075D02*
X003998Y026075D01*
X003943Y026130D01*
X003943Y026185D01*
X003998Y026240D01*
X004053Y026240D01*
X003998Y026240D02*
X003943Y026295D01*
X003943Y026350D01*
X003998Y026405D01*
X004108Y026405D01*
X004163Y026350D01*
X004292Y026130D02*
X004292Y026075D01*
X004347Y026075D01*
X004347Y026130D01*
X004292Y026130D01*
X004495Y026130D02*
X004495Y026185D01*
X004550Y026240D01*
X004605Y026240D01*
X004550Y026240D02*
X004495Y026295D01*
X004495Y026350D01*
X004550Y026405D01*
X004660Y026405D01*
X004715Y026350D01*
X004715Y026130D02*
X004660Y026075D01*
X004550Y026075D01*
X004495Y026130D01*
X004400Y026643D02*
X004455Y026698D01*
X004400Y026643D02*
X004289Y026643D01*
X004234Y026698D01*
X004234Y026753D01*
X004289Y026808D01*
X004400Y026808D01*
X004455Y026863D01*
X004455Y026918D01*
X004400Y026974D01*
X004289Y026974D01*
X004234Y026918D01*
X004086Y026974D02*
X003866Y026974D01*
X003976Y026974D02*
X003976Y026643D01*
X004603Y026643D02*
X004713Y026753D01*
X004658Y026753D02*
X004823Y026753D01*
X004823Y026643D02*
X004823Y026974D01*
X004658Y026974D01*
X004603Y026918D01*
X004603Y026808D01*
X004658Y026753D01*
D12*
X004215Y027112D02*
X004073Y027254D01*
X004144Y027183D02*
X004356Y027395D01*
X004356Y027254D01*
X004478Y027268D02*
X004779Y027268D01*
X004679Y027168D01*
X004478Y027168D02*
X004478Y027368D01*
X004529Y027500D02*
X004478Y027550D01*
X004478Y027650D01*
X004529Y027700D01*
X004629Y027700D01*
X004679Y027650D01*
X004679Y027600D01*
X004629Y027500D01*
X004779Y027500D01*
X004779Y027700D01*
X005100Y027649D02*
X005400Y027649D01*
X005250Y027499D01*
X005250Y027699D01*
X005100Y027367D02*
X005100Y027167D01*
X005100Y027267D02*
X005400Y027267D01*
X005300Y027167D01*
X005840Y027167D02*
X005840Y027367D01*
X005840Y027267D02*
X006140Y027267D01*
X006040Y027167D01*
X006040Y027036D02*
X005840Y027036D01*
X005990Y027036D02*
X005990Y026836D01*
X006040Y026836D02*
X006140Y026936D01*
X006040Y027036D01*
X006040Y026836D02*
X005840Y026836D01*
X005840Y027499D02*
X005840Y027699D01*
X005840Y027599D02*
X006140Y027599D01*
X006040Y027499D01*
X004087Y027453D02*
X003981Y027559D01*
X003910Y027559D01*
X003874Y027523D01*
X003874Y027453D01*
X003945Y027382D01*
X004016Y027382D01*
X004087Y027453D01*
X004087Y027594D01*
X004051Y027700D01*
X007515Y024786D02*
X007515Y024730D01*
X007515Y024619D02*
X007515Y024396D01*
X007570Y024396D02*
X007459Y024396D01*
X007515Y024619D02*
X007570Y024619D01*
X007710Y024563D02*
X007710Y024396D01*
X007710Y024563D02*
X007766Y024619D01*
X007933Y024619D01*
X007933Y024396D01*
X008063Y024396D02*
X008174Y024396D01*
X008119Y024396D02*
X008119Y024619D01*
X008174Y024619D01*
X008119Y024730D02*
X008119Y024786D01*
X008314Y024730D02*
X008314Y024396D01*
X008537Y024396D02*
X008537Y024730D01*
X008426Y024619D01*
X008314Y024730D01*
X008677Y024730D02*
X008900Y024396D01*
X009039Y024396D02*
X009206Y024396D01*
X009262Y024452D01*
X009262Y024563D01*
X009206Y024619D01*
X009039Y024619D01*
X009039Y024340D01*
X009095Y024285D01*
X009151Y024285D01*
X009280Y024132D02*
X009280Y023799D01*
X009420Y023799D02*
X009643Y023799D01*
X009420Y024021D01*
X009643Y024021D01*
X009829Y024132D02*
X009829Y023799D01*
X009884Y023799D02*
X009773Y023799D01*
X010024Y023799D02*
X010191Y023799D01*
X010247Y023854D01*
X010191Y023910D01*
X010024Y023910D01*
X010024Y023965D02*
X010024Y023799D01*
X010024Y023965D02*
X010080Y024021D01*
X010191Y024021D01*
X010387Y023965D02*
X010387Y023799D01*
X010498Y023799D02*
X010498Y023965D01*
X010442Y024021D01*
X010387Y023965D01*
X010498Y023965D02*
X010554Y024021D01*
X010609Y024021D01*
X010609Y023799D01*
X010749Y023799D02*
X010749Y023965D01*
X010805Y024021D01*
X010916Y024021D01*
X010972Y023965D01*
X011112Y024021D02*
X011279Y024021D01*
X011334Y023965D01*
X011334Y023854D01*
X011279Y023799D01*
X011112Y023799D01*
X010972Y023799D02*
X010972Y024132D01*
X010963Y024396D02*
X011075Y024396D01*
X011019Y024396D02*
X011019Y024619D01*
X011075Y024619D01*
X011019Y024730D02*
X011019Y024786D01*
X010833Y024619D02*
X010666Y024619D01*
X010610Y024563D01*
X010610Y024396D01*
X010470Y024452D02*
X010415Y024396D01*
X010303Y024396D01*
X010248Y024452D01*
X010248Y024563D01*
X010303Y024619D01*
X010415Y024619D01*
X010470Y024563D01*
X010470Y024452D01*
X010108Y024452D02*
X010108Y024396D01*
X010052Y024396D01*
X010052Y024452D01*
X010108Y024452D01*
X009927Y024452D02*
X009871Y024396D01*
X009760Y024396D01*
X009704Y024452D01*
X009704Y024563D01*
X009760Y024619D01*
X009871Y024619D01*
X009927Y024563D01*
X009927Y024452D01*
X009884Y024132D02*
X009829Y024132D01*
X009564Y024396D02*
X009564Y024619D01*
X009453Y024619D02*
X009397Y024619D01*
X009453Y024619D02*
X009564Y024507D01*
X009225Y024021D02*
X009113Y024021D01*
X009058Y023965D01*
X009058Y023799D01*
X008918Y023854D02*
X008862Y023910D01*
X008695Y023910D01*
X008695Y023965D02*
X008695Y023799D01*
X008862Y023799D01*
X008918Y023854D01*
X008862Y024021D02*
X008751Y024021D01*
X008695Y023965D01*
X008555Y024021D02*
X008555Y023854D01*
X008499Y023799D01*
X008332Y023799D01*
X008332Y024021D01*
X008193Y023965D02*
X008137Y024021D01*
X007970Y024021D01*
X008026Y023910D02*
X008137Y023910D01*
X008193Y023965D01*
X008193Y023799D02*
X008026Y023799D01*
X007970Y023854D01*
X008026Y023910D01*
X007830Y023854D02*
X007774Y023854D01*
X007774Y023799D01*
X007830Y023799D01*
X007830Y023854D01*
X007649Y023854D02*
X007593Y023799D01*
X007426Y023799D01*
X007286Y023854D02*
X007231Y023799D01*
X007119Y023799D01*
X007064Y023854D01*
X007064Y023965D01*
X007119Y024021D01*
X007231Y024021D01*
X007286Y023965D01*
X007286Y023854D01*
X007426Y024021D02*
X007593Y024021D01*
X007649Y023965D01*
X007649Y023854D01*
X006924Y023799D02*
X006924Y024021D01*
X006868Y024021D01*
X006813Y023965D01*
X006757Y024021D01*
X006701Y023965D01*
X006701Y023799D01*
X006813Y023799D02*
X006813Y023965D01*
X005407Y024000D02*
X005407Y023700D01*
X005407Y023800D02*
X005257Y023800D01*
X005207Y023850D01*
X005207Y023950D01*
X005257Y024000D01*
X005407Y024000D01*
X005387Y024240D02*
X005387Y024540D01*
X005237Y024540D01*
X005187Y024490D01*
X005187Y024390D01*
X005237Y024340D01*
X005387Y024340D01*
X005055Y024290D02*
X005055Y024490D01*
X005005Y024540D01*
X004905Y024540D01*
X004855Y024490D01*
X004855Y024390D02*
X004955Y024390D01*
X004855Y024390D02*
X004855Y024290D01*
X004905Y024240D01*
X005005Y024240D01*
X005055Y024290D01*
X005025Y024000D02*
X005075Y023950D01*
X005075Y023750D01*
X005025Y023700D01*
X004925Y023700D01*
X004875Y023750D01*
X004875Y023850D01*
X004975Y023850D01*
X004875Y023950D02*
X004925Y024000D01*
X005025Y024000D01*
X004744Y024000D02*
X004744Y023700D01*
X004544Y023700D01*
X004412Y023750D02*
X004362Y023700D01*
X004262Y023700D01*
X004212Y023750D01*
X004081Y023700D02*
X003881Y023700D01*
X003981Y023700D02*
X003981Y024000D01*
X004081Y023900D01*
X004212Y023950D02*
X004262Y024000D01*
X004362Y024000D01*
X004412Y023950D01*
X004412Y023750D01*
X004644Y023850D02*
X004744Y023850D01*
X004744Y024000D02*
X004544Y024000D01*
X004524Y024240D02*
X004724Y024240D01*
X004724Y024540D01*
X004524Y024540D01*
X004392Y024540D02*
X004392Y024240D01*
X004242Y024240D01*
X004192Y024290D01*
X004192Y024490D01*
X004242Y024540D01*
X004392Y024540D01*
X004624Y024390D02*
X004724Y024390D01*
X004061Y024440D02*
X003961Y024540D01*
X003961Y024240D01*
X004061Y024240D02*
X003861Y024240D01*
X009225Y024021D02*
X009280Y023965D01*
X010833Y024396D02*
X010833Y024619D01*
X011210Y024619D02*
X011265Y024619D01*
X011377Y024507D01*
X011377Y024396D02*
X011377Y024619D01*
X011517Y024563D02*
X011517Y024396D01*
X011684Y024396D01*
X011739Y024452D01*
X011684Y024507D01*
X011517Y024507D01*
X011517Y024563D02*
X011572Y024619D01*
X011684Y024619D01*
X011879Y024563D02*
X011935Y024619D01*
X012102Y024619D01*
X012102Y024730D02*
X012102Y024396D01*
X011935Y024396D01*
X011879Y024452D01*
X011879Y024563D01*
X012242Y024619D02*
X012242Y024396D01*
X012409Y024396D01*
X012464Y024452D01*
X012464Y024619D01*
X012595Y024563D02*
X012706Y024563D01*
X012650Y024674D02*
X012595Y024730D01*
X012650Y024674D02*
X012650Y024396D01*
X012832Y024396D02*
X012832Y024452D01*
X012887Y024452D01*
X012887Y024396D01*
X012832Y024396D01*
X013027Y024452D02*
X013083Y024396D01*
X013138Y024452D01*
X013194Y024396D01*
X013250Y024452D01*
X013250Y024619D01*
X013390Y024619D02*
X013390Y024452D01*
X013445Y024396D01*
X013501Y024452D01*
X013557Y024396D01*
X013612Y024452D01*
X013612Y024619D01*
X013752Y024619D02*
X013752Y024452D01*
X013808Y024396D01*
X013863Y024452D01*
X013919Y024396D01*
X013975Y024452D01*
X013975Y024619D01*
X014155Y024132D02*
X014155Y023799D01*
X013988Y023799D01*
X013932Y023854D01*
X013932Y023965D01*
X013988Y024021D01*
X014155Y024021D01*
X013792Y024021D02*
X013792Y023854D01*
X013736Y023799D01*
X013569Y023799D01*
X013569Y023743D02*
X013625Y023687D01*
X013681Y023687D01*
X013569Y023743D02*
X013569Y024021D01*
X013430Y024021D02*
X013430Y023965D01*
X013374Y023965D01*
X013374Y024021D01*
X013430Y024021D01*
X013430Y023854D02*
X013430Y023799D01*
X013374Y023799D01*
X013374Y023854D01*
X013430Y023854D01*
X012966Y023854D02*
X012910Y023799D01*
X012854Y023854D01*
X012799Y023799D01*
X012743Y023854D01*
X012743Y024021D01*
X012603Y024021D02*
X012603Y023854D01*
X012548Y023799D01*
X012492Y023854D01*
X012436Y023799D01*
X012381Y023854D01*
X012381Y024021D01*
X012241Y024021D02*
X012241Y023854D01*
X012185Y023799D01*
X012129Y023854D01*
X012074Y023799D01*
X012018Y023854D01*
X012018Y024021D01*
X011878Y023854D02*
X011823Y023854D01*
X011823Y023799D01*
X011878Y023799D01*
X011878Y023854D01*
X011697Y023799D02*
X011530Y023799D01*
X011474Y023854D01*
X011530Y023910D01*
X011641Y023910D01*
X011697Y023965D01*
X011641Y024021D01*
X011474Y024021D01*
X012966Y024021D02*
X012966Y023854D01*
X013027Y024452D02*
X013027Y024619D01*
X014657Y024132D02*
X014657Y023799D01*
X014824Y023799D01*
X014880Y023854D01*
X014880Y023965D01*
X014824Y024021D01*
X014657Y024021D01*
X015020Y023965D02*
X015020Y023910D01*
X015242Y023910D01*
X015242Y023965D02*
X015187Y024021D01*
X015075Y024021D01*
X015020Y023965D01*
X015075Y023799D02*
X015187Y023799D01*
X015242Y023854D01*
X015242Y023965D01*
X015382Y023965D02*
X015382Y023799D01*
X015382Y023965D02*
X015438Y024021D01*
X015605Y024021D01*
X015605Y023799D01*
X015745Y023799D02*
X015912Y023799D01*
X015967Y023854D01*
X015967Y023965D01*
X015912Y024021D01*
X015745Y024021D01*
X015745Y023743D01*
X015800Y023687D01*
X015856Y023687D01*
X016098Y023799D02*
X016209Y023799D01*
X016153Y023799D02*
X016153Y024021D01*
X016209Y024021D01*
X016153Y024132D02*
X016153Y024188D01*
X016349Y024021D02*
X016516Y024021D01*
X016571Y023965D01*
X016516Y023910D01*
X016404Y023910D01*
X016349Y023854D01*
X016404Y023799D01*
X016571Y023799D01*
X016711Y023910D02*
X016934Y023910D01*
X016934Y023965D02*
X016878Y024021D01*
X016767Y024021D01*
X016711Y023965D01*
X016711Y023910D01*
X016767Y023799D02*
X016878Y023799D01*
X016934Y023854D01*
X016934Y023965D01*
X017074Y024021D02*
X017241Y024021D01*
X017296Y023965D01*
X017296Y023854D01*
X017241Y023799D01*
X017074Y023799D01*
X017074Y024132D01*
D13*
X021760Y027800D02*
X021760Y028760D01*
X022720Y028760D01*
X022720Y027800D01*
X021760Y027800D01*
X005840Y025940D02*
X005840Y025720D01*
X005840Y025940D02*
X005020Y026760D01*
X005000Y026760D01*
X003760Y026800D02*
X003760Y022800D01*
X002820Y022800D01*
X002820Y026800D01*
X002820Y027800D01*
X003760Y027800D01*
X003760Y026800D01*
X002820Y026800D01*
X002800Y026800D01*
X005800Y024240D02*
X005800Y024060D01*
X005560Y023820D01*
X002820Y022800D02*
X002800Y022800D01*
D14*
X007888Y026052D02*
X008110Y026052D01*
X007999Y026052D02*
X007999Y026498D01*
X008110Y026498D01*
X007999Y026720D02*
X007999Y026832D01*
X008390Y026386D02*
X008501Y026498D01*
X008835Y026498D01*
X008835Y026052D01*
X009096Y026052D02*
X009319Y026052D01*
X009208Y026052D02*
X009208Y026498D01*
X009319Y026498D01*
X009208Y026720D02*
X009208Y026832D01*
X009599Y026720D02*
X009599Y026052D01*
X010044Y026052D02*
X010044Y026720D01*
X009821Y026498D01*
X009599Y026720D01*
X008390Y026386D02*
X008390Y026052D01*
X011049Y026164D02*
X011160Y026052D01*
X011383Y026052D01*
X011494Y026164D01*
X011494Y026386D01*
X011383Y026498D01*
X011160Y026498D01*
X011049Y026386D01*
X011049Y026164D01*
X011774Y026052D02*
X011774Y026386D01*
X011885Y026498D01*
X012219Y026498D01*
X012219Y026052D01*
X012480Y026052D02*
X012702Y026052D01*
X012591Y026052D02*
X012591Y026498D01*
X012702Y026498D01*
X012591Y026720D02*
X012591Y026832D01*
X012973Y026498D02*
X013084Y026498D01*
X013306Y026275D01*
X013306Y026052D02*
X013306Y026498D01*
X013586Y026386D02*
X013586Y026052D01*
X013920Y026052D01*
X014032Y026164D01*
X013920Y026275D01*
X013586Y026275D01*
X013586Y026386D02*
X013698Y026498D01*
X013920Y026498D01*
X014311Y026386D02*
X014423Y026498D01*
X014757Y026498D01*
X014757Y026720D02*
X014757Y026052D01*
X014423Y026052D01*
X014311Y026164D01*
X014311Y026386D01*
X015036Y026498D02*
X015036Y026052D01*
X015370Y026052D01*
X015482Y026164D01*
X015482Y026498D01*
X015761Y026720D02*
X016207Y026720D01*
X016207Y026052D01*
X016207Y026386D02*
X015984Y026386D01*
D15*
X019548Y026189D02*
X019548Y025874D01*
X019731Y025874D01*
X019808Y025868D01*
X019867Y025856D01*
X019932Y025837D01*
X020005Y025801D01*
X020082Y025750D01*
X020135Y025703D01*
X020210Y025610D01*
X020265Y025498D01*
X020281Y025441D01*
X019747Y025441D01*
X019747Y025166D01*
X020625Y025166D01*
X020625Y025164D02*
X020633Y025276D01*
X020629Y025382D01*
X020611Y025486D01*
X020592Y025555D01*
X020570Y025616D01*
X020525Y025713D01*
X020479Y025790D01*
X020434Y025851D01*
X020369Y025923D01*
X020324Y025965D01*
X020279Y026002D01*
X020202Y026055D01*
X020125Y026097D01*
X020086Y026114D01*
X020046Y026130D01*
X020011Y026144D01*
X019950Y026162D01*
X019895Y026173D01*
X019828Y026183D01*
X019739Y026189D01*
X019548Y026189D01*
X019548Y026186D02*
X019784Y026186D01*
X019866Y026178D02*
X019548Y026178D01*
X019548Y026169D02*
X019915Y026169D01*
X019953Y026161D02*
X019548Y026161D01*
X019548Y026152D02*
X019982Y026152D01*
X020011Y026144D02*
X019548Y026144D01*
X019548Y026135D02*
X020033Y026135D01*
X020055Y026127D02*
X019548Y026127D01*
X019548Y026118D02*
X020076Y026118D01*
X020096Y026110D02*
X019548Y026110D01*
X019548Y026101D02*
X020115Y026101D01*
X020132Y026093D02*
X019548Y026093D01*
X019548Y026084D02*
X020148Y026084D01*
X020164Y026076D02*
X019548Y026076D01*
X019548Y026067D02*
X020180Y026067D01*
X020196Y026059D02*
X019548Y026059D01*
X019548Y026050D02*
X020209Y026050D01*
X020222Y026042D02*
X019548Y026042D01*
X019548Y026033D02*
X020234Y026033D01*
X020246Y026025D02*
X019548Y026025D01*
X019548Y026016D02*
X020258Y026016D01*
X020271Y026008D02*
X019548Y026008D01*
X019548Y025999D02*
X020282Y025999D01*
X020292Y025991D02*
X019548Y025991D01*
X019548Y025982D02*
X020303Y025982D01*
X020313Y025974D02*
X019548Y025974D01*
X019548Y025965D02*
X020323Y025965D01*
X020333Y025957D02*
X019548Y025957D01*
X019548Y025948D02*
X020342Y025948D01*
X020351Y025940D02*
X019548Y025940D01*
X019548Y025931D02*
X020361Y025931D01*
X020370Y025923D02*
X019548Y025923D01*
X019548Y025914D02*
X020377Y025914D01*
X020385Y025906D02*
X019548Y025906D01*
X019548Y025897D02*
X020393Y025897D01*
X020400Y025889D02*
X019548Y025889D01*
X019548Y025880D02*
X020408Y025880D01*
X020415Y025872D02*
X019765Y025872D01*
X019834Y025863D02*
X020423Y025863D01*
X020430Y025855D02*
X019873Y025855D01*
X019901Y025846D02*
X020437Y025846D01*
X020444Y025838D02*
X019929Y025838D01*
X019948Y025829D02*
X020450Y025829D01*
X020456Y025821D02*
X019965Y025821D01*
X019983Y025812D02*
X020463Y025812D01*
X020469Y025804D02*
X020000Y025804D01*
X020014Y025795D02*
X020475Y025795D01*
X020481Y025787D02*
X020027Y025787D01*
X020040Y025778D02*
X020486Y025778D01*
X020491Y025770D02*
X020053Y025770D01*
X020065Y025761D02*
X020496Y025761D01*
X020501Y025753D02*
X020078Y025753D01*
X020089Y025744D02*
X020506Y025744D01*
X020511Y025736D02*
X020098Y025736D01*
X020108Y025727D02*
X020516Y025727D01*
X020521Y025719D02*
X020117Y025719D01*
X020127Y025710D02*
X020526Y025710D01*
X020530Y025702D02*
X020136Y025702D01*
X020143Y025693D02*
X020534Y025693D01*
X020538Y025685D02*
X020150Y025685D01*
X020157Y025676D02*
X020542Y025676D01*
X020546Y025668D02*
X020163Y025668D01*
X020170Y025659D02*
X020550Y025659D01*
X020554Y025651D02*
X020177Y025651D01*
X020184Y025642D02*
X020558Y025642D01*
X020562Y025634D02*
X020191Y025634D01*
X020198Y025625D02*
X020566Y025625D01*
X020570Y025617D02*
X020205Y025617D01*
X020211Y025608D02*
X020573Y025608D01*
X020576Y025600D02*
X020215Y025600D01*
X020219Y025591D02*
X020579Y025591D01*
X020582Y025583D02*
X020223Y025583D01*
X020227Y025574D02*
X020585Y025574D01*
X020588Y025566D02*
X020232Y025566D01*
X020236Y025557D02*
X020591Y025557D01*
X020593Y025549D02*
X020240Y025549D01*
X020244Y025540D02*
X020596Y025540D01*
X020598Y025532D02*
X020248Y025532D01*
X020253Y025523D02*
X020601Y025523D01*
X020603Y025515D02*
X020257Y025515D01*
X020261Y025506D02*
X020606Y025506D01*
X020608Y025498D02*
X020265Y025498D01*
X020267Y025489D02*
X020610Y025489D01*
X020612Y025481D02*
X020270Y025481D01*
X020272Y025472D02*
X020614Y025472D01*
X020615Y025464D02*
X020274Y025464D01*
X020277Y025455D02*
X020617Y025455D01*
X020618Y025447D02*
X020279Y025447D01*
X020283Y025166D02*
X020249Y025073D01*
X020220Y025016D01*
X020178Y024953D01*
X020084Y024856D01*
X020017Y024809D01*
X019942Y024774D01*
X019847Y024746D01*
X019792Y024736D01*
X019739Y024732D01*
X019550Y024732D01*
X019550Y024376D01*
X019739Y024376D01*
X019826Y024382D01*
X019908Y024396D01*
X019985Y024416D01*
X020070Y024443D01*
X020172Y024494D01*
X020273Y024557D01*
X020353Y024628D01*
X020414Y024693D01*
X020460Y024750D01*
X020515Y024835D01*
X020562Y024931D01*
X020603Y025053D01*
X020625Y025164D01*
X020624Y025158D02*
X020280Y025158D01*
X020283Y025166D02*
X019747Y025166D01*
X019747Y025175D02*
X020626Y025175D01*
X020626Y025183D02*
X019747Y025183D01*
X019747Y025192D02*
X020627Y025192D01*
X020628Y025200D02*
X019747Y025200D01*
X019747Y025209D02*
X020628Y025209D01*
X020629Y025217D02*
X019747Y025217D01*
X019747Y025226D02*
X020629Y025226D01*
X020630Y025234D02*
X019747Y025234D01*
X019747Y025243D02*
X020631Y025243D01*
X020631Y025251D02*
X019747Y025251D01*
X019747Y025260D02*
X020632Y025260D01*
X020632Y025268D02*
X019747Y025268D01*
X019747Y025277D02*
X020633Y025277D01*
X020633Y025285D02*
X019747Y025285D01*
X019747Y025294D02*
X020632Y025294D01*
X020632Y025302D02*
X019747Y025302D01*
X019747Y025311D02*
X020632Y025311D01*
X020631Y025319D02*
X019747Y025319D01*
X019747Y025328D02*
X020631Y025328D01*
X020631Y025336D02*
X019747Y025336D01*
X019747Y025345D02*
X020630Y025345D01*
X020630Y025353D02*
X019747Y025353D01*
X019747Y025362D02*
X020630Y025362D01*
X020629Y025370D02*
X019747Y025370D01*
X019747Y025379D02*
X020629Y025379D01*
X020628Y025387D02*
X019747Y025387D01*
X019747Y025396D02*
X020627Y025396D01*
X020625Y025404D02*
X019747Y025404D01*
X019747Y025413D02*
X020624Y025413D01*
X020622Y025421D02*
X019747Y025421D01*
X019747Y025430D02*
X020621Y025430D01*
X020619Y025438D02*
X019747Y025438D01*
X020277Y025149D02*
X020622Y025149D01*
X020621Y025141D02*
X020273Y025141D01*
X020270Y025132D02*
X020619Y025132D01*
X020617Y025124D02*
X020267Y025124D01*
X020264Y025115D02*
X020616Y025115D01*
X020614Y025107D02*
X020261Y025107D01*
X020258Y025098D02*
X020612Y025098D01*
X020610Y025090D02*
X020255Y025090D01*
X020252Y025081D02*
X020609Y025081D01*
X020607Y025073D02*
X020249Y025073D01*
X020244Y025064D02*
X020605Y025064D01*
X020604Y025056D02*
X020240Y025056D01*
X020236Y025047D02*
X020601Y025047D01*
X020598Y025039D02*
X020231Y025039D01*
X020227Y025030D02*
X020596Y025030D01*
X020593Y025022D02*
X020222Y025022D01*
X020218Y025013D02*
X020590Y025013D01*
X020587Y025005D02*
X020212Y025005D01*
X020207Y024996D02*
X020584Y024996D01*
X020581Y024988D02*
X020201Y024988D01*
X020195Y024979D02*
X020578Y024979D01*
X020575Y024971D02*
X020190Y024971D01*
X020184Y024962D02*
X020572Y024962D01*
X020570Y024954D02*
X020179Y024954D01*
X020171Y024945D02*
X020567Y024945D01*
X020564Y024937D02*
X020162Y024937D01*
X020154Y024928D02*
X020560Y024928D01*
X020556Y024920D02*
X020146Y024920D01*
X020137Y024911D02*
X020552Y024911D01*
X020548Y024903D02*
X020129Y024903D01*
X020121Y024894D02*
X020544Y024894D01*
X020540Y024886D02*
X020112Y024886D01*
X020104Y024877D02*
X020536Y024877D01*
X020531Y024869D02*
X020096Y024869D01*
X020087Y024860D02*
X020527Y024860D01*
X020523Y024852D02*
X020077Y024852D01*
X020065Y024843D02*
X020519Y024843D01*
X020515Y024835D02*
X020053Y024835D01*
X020041Y024826D02*
X020509Y024826D01*
X020504Y024818D02*
X020029Y024818D01*
X020016Y024809D02*
X020498Y024809D01*
X020493Y024801D02*
X019999Y024801D01*
X019981Y024792D02*
X020487Y024792D01*
X020481Y024784D02*
X019963Y024784D01*
X019945Y024775D02*
X020476Y024775D01*
X020470Y024767D02*
X019917Y024767D01*
X019888Y024758D02*
X020465Y024758D01*
X020459Y024750D02*
X019859Y024750D01*
X019819Y024741D02*
X020452Y024741D01*
X020446Y024733D02*
X019741Y024733D01*
X019550Y024724D02*
X020439Y024724D01*
X020432Y024716D02*
X019550Y024716D01*
X019550Y024707D02*
X020426Y024707D01*
X020419Y024699D02*
X019550Y024699D01*
X019550Y024690D02*
X020412Y024690D01*
X020404Y024682D02*
X019550Y024682D01*
X019550Y024673D02*
X020396Y024673D01*
X020388Y024665D02*
X019550Y024665D01*
X019550Y024656D02*
X020380Y024656D01*
X020372Y024648D02*
X019550Y024648D01*
X019550Y024639D02*
X020364Y024639D01*
X020356Y024631D02*
X019550Y024631D01*
X019550Y024622D02*
X020347Y024622D01*
X020337Y024614D02*
X019550Y024614D01*
X019550Y024605D02*
X020327Y024605D01*
X020317Y024597D02*
X019550Y024597D01*
X019550Y024588D02*
X020308Y024588D01*
X020298Y024580D02*
X019550Y024580D01*
X019550Y024571D02*
X020288Y024571D01*
X020279Y024563D02*
X019550Y024563D01*
X019550Y024554D02*
X020268Y024554D01*
X020254Y024546D02*
X019550Y024546D01*
X019550Y024537D02*
X020241Y024537D01*
X020227Y024529D02*
X019550Y024529D01*
X019550Y024520D02*
X020213Y024520D01*
X020200Y024512D02*
X019550Y024512D01*
X019550Y024503D02*
X020186Y024503D01*
X020173Y024495D02*
X019550Y024495D01*
X019550Y024486D02*
X020156Y024486D01*
X020139Y024478D02*
X019550Y024478D01*
X019550Y024469D02*
X020122Y024469D01*
X020105Y024461D02*
X019550Y024461D01*
X019550Y024452D02*
X020088Y024452D01*
X020071Y024444D02*
X019550Y024444D01*
X019550Y024435D02*
X020045Y024435D01*
X020019Y024427D02*
X019550Y024427D01*
X019550Y024418D02*
X019993Y024418D01*
X019962Y024410D02*
X019550Y024410D01*
X019550Y024401D02*
X019929Y024401D01*
X019889Y024393D02*
X019550Y024393D01*
X019550Y024384D02*
X019838Y024384D01*
X021084Y024384D02*
X021328Y024384D01*
X021316Y024382D02*
X021389Y024394D01*
X021466Y024412D01*
X021529Y024431D01*
X021574Y024449D01*
X021627Y024473D01*
X021676Y024498D01*
X021737Y024538D01*
X021784Y024571D01*
X021830Y024610D01*
X021865Y024644D01*
X021910Y024693D01*
X021944Y024732D01*
X021975Y024780D01*
X022009Y024831D01*
X022044Y024898D01*
X022066Y024951D01*
X022086Y025008D01*
X022107Y025087D01*
X022119Y025148D01*
X022127Y025219D01*
X022129Y025276D01*
X022127Y025335D01*
X022125Y025360D01*
X022121Y025400D01*
X022115Y025443D01*
X022101Y025508D01*
X022086Y025559D01*
X022072Y025599D01*
X022058Y025636D01*
X022034Y025685D01*
X022019Y025719D01*
X021985Y025774D01*
X021966Y025801D01*
X021950Y025825D01*
X021934Y025847D01*
X021893Y025894D01*
X021869Y025919D01*
X021838Y025949D01*
X021810Y025973D01*
X021773Y026004D01*
X021721Y026041D01*
X021721Y026042D02*
X021084Y026042D01*
X021084Y026050D02*
X021706Y026050D01*
X021692Y026059D02*
X021084Y026059D01*
X021084Y026067D02*
X021677Y026067D01*
X021662Y026076D02*
X021084Y026076D01*
X021084Y026084D02*
X021646Y026084D01*
X021653Y026081D02*
X021572Y026120D01*
X021487Y026150D01*
X021405Y026171D01*
X021326Y026183D01*
X021237Y026191D01*
X021084Y026191D01*
X021084Y025874D01*
X021231Y025874D01*
X021284Y025870D01*
X021336Y025862D01*
X021371Y025854D01*
X021407Y025845D01*
X021485Y025811D01*
X021552Y025770D01*
X021607Y025725D01*
X021653Y025679D01*
X021696Y025624D01*
X021727Y025569D01*
X021757Y025504D01*
X021781Y025433D01*
X021792Y025358D01*
X021794Y025284D01*
X021788Y025227D01*
X021775Y025158D01*
X021755Y025095D01*
X021723Y025026D01*
X021680Y024961D01*
X021633Y024906D01*
X021584Y024860D01*
X021529Y024825D01*
X021471Y024790D01*
X021428Y024770D01*
X021367Y024750D01*
X021312Y024738D01*
X021271Y024732D01*
X021084Y024732D01*
X021084Y024376D01*
X021241Y024376D01*
X021316Y024382D01*
X021381Y024393D02*
X021084Y024393D01*
X021084Y024401D02*
X021420Y024401D01*
X021457Y024410D02*
X021084Y024410D01*
X021084Y024418D02*
X021486Y024418D01*
X021514Y024427D02*
X021084Y024427D01*
X021084Y024435D02*
X021538Y024435D01*
X021560Y024444D02*
X021084Y024444D01*
X021084Y024452D02*
X021581Y024452D01*
X021600Y024461D02*
X021084Y024461D01*
X021084Y024469D02*
X021619Y024469D01*
X021637Y024478D02*
X021084Y024478D01*
X021084Y024486D02*
X021653Y024486D01*
X021669Y024495D02*
X021084Y024495D01*
X021084Y024503D02*
X021684Y024503D01*
X021697Y024512D02*
X021084Y024512D01*
X021084Y024520D02*
X021710Y024520D01*
X021723Y024529D02*
X021084Y024529D01*
X021084Y024537D02*
X021736Y024537D01*
X021749Y024546D02*
X021084Y024546D01*
X021084Y024554D02*
X021761Y024554D01*
X021773Y024563D02*
X021084Y024563D01*
X021084Y024571D02*
X021785Y024571D01*
X021794Y024580D02*
X021084Y024580D01*
X021084Y024588D02*
X021804Y024588D01*
X021814Y024597D02*
X021084Y024597D01*
X021084Y024605D02*
X021824Y024605D01*
X021833Y024614D02*
X021084Y024614D01*
X021084Y024622D02*
X021842Y024622D01*
X021851Y024631D02*
X021084Y024631D01*
X021084Y024639D02*
X021860Y024639D01*
X021869Y024648D02*
X021084Y024648D01*
X021084Y024656D02*
X021876Y024656D01*
X021884Y024665D02*
X021084Y024665D01*
X021084Y024673D02*
X021892Y024673D01*
X021900Y024682D02*
X021084Y024682D01*
X021084Y024690D02*
X021908Y024690D01*
X021915Y024699D02*
X021084Y024699D01*
X021084Y024707D02*
X021922Y024707D01*
X021930Y024716D02*
X021084Y024716D01*
X021084Y024724D02*
X021937Y024724D01*
X021944Y024733D02*
X021272Y024733D01*
X021325Y024741D02*
X021950Y024741D01*
X021955Y024750D02*
X021364Y024750D01*
X021392Y024758D02*
X021961Y024758D01*
X021967Y024767D02*
X021418Y024767D01*
X021440Y024775D02*
X021972Y024775D01*
X021978Y024784D02*
X021458Y024784D01*
X021476Y024792D02*
X021984Y024792D01*
X021989Y024801D02*
X021489Y024801D01*
X021503Y024809D02*
X021995Y024809D01*
X022000Y024818D02*
X021517Y024818D01*
X021530Y024826D02*
X022006Y024826D01*
X022011Y024835D02*
X021544Y024835D01*
X021557Y024843D02*
X022015Y024843D01*
X022020Y024852D02*
X021570Y024852D01*
X021583Y024860D02*
X022024Y024860D01*
X022029Y024869D02*
X021593Y024869D01*
X021602Y024877D02*
X022033Y024877D01*
X022038Y024886D02*
X021611Y024886D01*
X021620Y024894D02*
X022042Y024894D01*
X022046Y024903D02*
X021630Y024903D01*
X021638Y024911D02*
X022050Y024911D01*
X022053Y024920D02*
X021645Y024920D01*
X021652Y024928D02*
X022057Y024928D01*
X022060Y024937D02*
X021659Y024937D01*
X021667Y024945D02*
X022064Y024945D01*
X022067Y024954D02*
X021674Y024954D01*
X021681Y024962D02*
X022070Y024962D01*
X022073Y024971D02*
X021687Y024971D01*
X021692Y024979D02*
X022076Y024979D01*
X022079Y024988D02*
X021698Y024988D01*
X021704Y024996D02*
X022082Y024996D01*
X022084Y025005D02*
X021709Y025005D01*
X021715Y025013D02*
X022087Y025013D01*
X022089Y025022D02*
X021721Y025022D01*
X021725Y025030D02*
X022092Y025030D01*
X022094Y025039D02*
X021729Y025039D01*
X021733Y025047D02*
X022096Y025047D01*
X022099Y025056D02*
X021737Y025056D01*
X021741Y025064D02*
X022101Y025064D01*
X022103Y025073D02*
X021745Y025073D01*
X021749Y025081D02*
X022106Y025081D01*
X022108Y025090D02*
X021753Y025090D01*
X021756Y025098D02*
X022110Y025098D01*
X022111Y025107D02*
X021759Y025107D01*
X021761Y025115D02*
X022113Y025115D01*
X022114Y025124D02*
X021764Y025124D01*
X021767Y025132D02*
X022116Y025132D01*
X022118Y025141D02*
X021769Y025141D01*
X021772Y025149D02*
X022119Y025149D01*
X022120Y025158D02*
X021775Y025158D01*
X021776Y025166D02*
X022121Y025166D01*
X022122Y025175D02*
X021778Y025175D01*
X021780Y025183D02*
X022123Y025183D01*
X022124Y025192D02*
X021781Y025192D01*
X021783Y025200D02*
X022125Y025200D01*
X022126Y025209D02*
X021785Y025209D01*
X021787Y025217D02*
X022127Y025217D01*
X022127Y025226D02*
X021788Y025226D01*
X021789Y025234D02*
X022128Y025234D01*
X022128Y025243D02*
X021790Y025243D01*
X021791Y025251D02*
X022128Y025251D01*
X022128Y025260D02*
X021792Y025260D01*
X021793Y025268D02*
X022129Y025268D01*
X022129Y025277D02*
X021794Y025277D01*
X021794Y025285D02*
X022129Y025285D01*
X022128Y025294D02*
X021794Y025294D01*
X021794Y025302D02*
X022128Y025302D01*
X022128Y025311D02*
X021794Y025311D01*
X021793Y025319D02*
X022128Y025319D01*
X022127Y025328D02*
X021793Y025328D01*
X021793Y025336D02*
X022127Y025336D01*
X022126Y025345D02*
X021793Y025345D01*
X021792Y025353D02*
X022126Y025353D01*
X022125Y025362D02*
X021792Y025362D01*
X021791Y025370D02*
X022124Y025370D01*
X022123Y025379D02*
X021789Y025379D01*
X021788Y025387D02*
X022122Y025387D01*
X022122Y025396D02*
X021786Y025396D01*
X021785Y025404D02*
X022120Y025404D01*
X022119Y025413D02*
X021784Y025413D01*
X021782Y025421D02*
X022118Y025421D01*
X022117Y025430D02*
X021781Y025430D01*
X021779Y025438D02*
X022116Y025438D01*
X022114Y025447D02*
X021776Y025447D01*
X021773Y025455D02*
X022113Y025455D01*
X022111Y025464D02*
X021770Y025464D01*
X021768Y025472D02*
X022109Y025472D01*
X022107Y025481D02*
X021765Y025481D01*
X021762Y025489D02*
X022105Y025489D01*
X022104Y025498D02*
X021759Y025498D01*
X021756Y025506D02*
X022102Y025506D01*
X022099Y025515D02*
X021752Y025515D01*
X021748Y025523D02*
X022097Y025523D01*
X022094Y025532D02*
X021744Y025532D01*
X021741Y025540D02*
X022092Y025540D01*
X022089Y025549D02*
X021737Y025549D01*
X021733Y025557D02*
X022086Y025557D01*
X022083Y025566D02*
X021729Y025566D01*
X021724Y025574D02*
X022080Y025574D01*
X022077Y025583D02*
X021720Y025583D01*
X021715Y025591D02*
X022074Y025591D01*
X022071Y025600D02*
X021710Y025600D01*
X021705Y025608D02*
X022068Y025608D01*
X022065Y025617D02*
X021700Y025617D01*
X021695Y025625D02*
X022062Y025625D01*
X022059Y025634D02*
X021688Y025634D01*
X021682Y025642D02*
X022055Y025642D01*
X022051Y025651D02*
X021675Y025651D01*
X021668Y025659D02*
X022047Y025659D01*
X022043Y025668D02*
X021662Y025668D01*
X021655Y025676D02*
X022039Y025676D01*
X022035Y025685D02*
X021647Y025685D01*
X021639Y025693D02*
X022031Y025693D01*
X022027Y025702D02*
X021630Y025702D01*
X021622Y025710D02*
X022023Y025710D01*
X022019Y025719D02*
X021613Y025719D01*
X021604Y025727D02*
X022014Y025727D01*
X022008Y025736D02*
X021594Y025736D01*
X021584Y025744D02*
X022003Y025744D01*
X021998Y025753D02*
X021573Y025753D01*
X021563Y025761D02*
X021993Y025761D01*
X021988Y025770D02*
X021552Y025770D01*
X021539Y025778D02*
X021982Y025778D01*
X021976Y025787D02*
X021525Y025787D01*
X021511Y025795D02*
X021970Y025795D01*
X021964Y025804D02*
X021498Y025804D01*
X021483Y025812D02*
X021958Y025812D01*
X021953Y025821D02*
X021463Y025821D01*
X021443Y025829D02*
X021947Y025829D01*
X021941Y025838D02*
X021423Y025838D01*
X021401Y025846D02*
X021934Y025846D01*
X021927Y025855D02*
X021371Y025855D01*
X021331Y025863D02*
X021920Y025863D01*
X021912Y025872D02*
X021266Y025872D01*
X021084Y025880D02*
X021905Y025880D01*
X021897Y025889D02*
X021084Y025889D01*
X021084Y025897D02*
X021890Y025897D01*
X021882Y025906D02*
X021084Y025906D01*
X021084Y025914D02*
X021874Y025914D01*
X021866Y025923D02*
X021084Y025923D01*
X021084Y025931D02*
X021857Y025931D01*
X021848Y025940D02*
X021084Y025940D01*
X021084Y025948D02*
X021839Y025948D01*
X021829Y025957D02*
X021084Y025957D01*
X021084Y025965D02*
X021819Y025965D01*
X021809Y025974D02*
X021084Y025974D01*
X021084Y025982D02*
X021799Y025982D01*
X021789Y025991D02*
X021084Y025991D01*
X021084Y025999D02*
X021779Y025999D01*
X021768Y026008D02*
X021084Y026008D01*
X021084Y026016D02*
X021756Y026016D01*
X021745Y026025D02*
X021084Y026025D01*
X021084Y026033D02*
X021733Y026033D01*
X021721Y026041D02*
X021653Y026081D01*
X021628Y026093D02*
X021084Y026093D01*
X021084Y026101D02*
X021611Y026101D01*
X021594Y026110D02*
X021084Y026110D01*
X021084Y026118D02*
X021576Y026118D01*
X021554Y026127D02*
X021084Y026127D01*
X021084Y026135D02*
X021529Y026135D01*
X021505Y026144D02*
X021084Y026144D01*
X021084Y026152D02*
X021478Y026152D01*
X021446Y026161D02*
X021084Y026161D01*
X021084Y026169D02*
X021413Y026169D01*
X021363Y026178D02*
X021084Y026178D01*
X021084Y026186D02*
X021293Y026186D01*
D16*
X019019Y026246D02*
X017759Y024946D01*
X018047Y025108D02*
X018043Y025143D01*
X018047Y025179D01*
X018062Y025206D01*
X018086Y025222D01*
X018094Y025234D02*
X018129Y025238D01*
X018169Y025234D01*
X018208Y025210D01*
X018220Y025187D01*
X018232Y025159D01*
X018232Y025128D01*
X018216Y025092D01*
X018196Y025069D01*
X018169Y025053D01*
X018133Y025049D01*
X018094Y025057D01*
X018066Y025076D01*
X018047Y025108D01*
X018114Y025135D02*
X018121Y025124D01*
X018133Y025120D01*
X018145Y025120D01*
X018157Y025128D01*
X018161Y025139D01*
X018161Y025151D01*
X018153Y025163D01*
X018141Y025167D01*
X018137Y025147D01*
X018133Y025167D02*
X018121Y025163D01*
X018114Y025151D01*
X018114Y025135D01*
X018094Y025234D02*
X018039Y025864D01*
X017952Y025864D01*
X017952Y025978D01*
X018027Y025978D01*
X018066Y025978D01*
X018066Y025864D01*
X018039Y025864D01*
X018027Y025978D02*
X018027Y026049D01*
X018043Y026092D01*
X018070Y026128D01*
X018098Y026151D01*
X018133Y026167D01*
X018184Y026179D01*
X018232Y026187D01*
X018236Y026159D02*
X018236Y026218D01*
X018409Y026218D01*
X018409Y026171D01*
X018413Y026159D02*
X018236Y026159D01*
X018413Y026159D02*
X018413Y026187D01*
X018436Y026187D01*
X018468Y026183D01*
X018503Y026179D01*
X018551Y026163D01*
X018590Y026147D01*
X018621Y026124D01*
X018645Y026092D01*
X018657Y026041D01*
X018578Y025124D01*
X018527Y025124D01*
X018527Y025037D01*
X018499Y025025D02*
X018499Y025124D01*
X018527Y025124D01*
X018499Y025124D02*
X018228Y025124D01*
X018499Y025025D02*
X018558Y025025D01*
X018558Y025120D01*
X019019Y024907D02*
X017720Y026246D01*
X017960Y026108D02*
X017956Y026088D01*
X017960Y026072D01*
X017968Y026065D01*
X017988Y026057D01*
X017995Y026057D01*
X018720Y026061D01*
X018720Y026037D01*
X017995Y026033D01*
X017995Y026057D01*
X018011Y026057D01*
X018015Y026072D01*
X017991Y026088D01*
X017984Y026124D02*
X017972Y026120D01*
X017960Y026108D01*
X017984Y026124D02*
X018003Y026124D01*
X018019Y026112D01*
X018027Y026096D01*
X018192Y025828D02*
X018413Y025828D01*
X018413Y025793D01*
X018212Y025793D01*
X018192Y025828D02*
X018192Y025757D01*
X018413Y025757D01*
X018413Y025793D01*
X018554Y026065D02*
X018554Y026191D01*
X018586Y026191D01*
X018586Y026187D02*
X018586Y026065D01*
X018554Y026065D01*
D17*
X018334Y024498D03*
D18*
X017417Y024794D02*
X017394Y024758D01*
X017374Y024739D01*
X017331Y024711D01*
X017291Y024703D01*
X017212Y024703D01*
X017181Y024711D01*
X017161Y024719D01*
X017169Y024766D01*
X017178Y024766D01*
X017177Y024766D02*
X017216Y024758D01*
X017275Y024754D01*
X017295Y024766D01*
X017399Y024766D01*
X017400Y024769D02*
X017300Y024769D01*
X017305Y024771D02*
X017402Y024771D01*
X017404Y024773D02*
X017309Y024773D01*
X017314Y024776D02*
X017405Y024776D01*
X017407Y024778D02*
X017319Y024778D01*
X017324Y024781D02*
X017408Y024781D01*
X017410Y024783D02*
X017328Y024783D01*
X017327Y024782D02*
X017342Y024802D01*
X017354Y024821D01*
X017366Y024849D01*
X017429Y024849D01*
X017429Y024847D02*
X017365Y024847D01*
X017366Y024849D02*
X017366Y024908D01*
X017354Y024936D01*
X017342Y024955D01*
X017327Y024971D01*
X017407Y024971D01*
X017406Y024973D02*
X017323Y024973D01*
X017327Y024971D02*
X017303Y024987D01*
X017275Y024999D01*
X017212Y024999D01*
X017173Y024991D01*
X017161Y025038D01*
X017161Y025042D01*
X017177Y025050D01*
X017208Y025058D01*
X017283Y025058D01*
X017311Y025050D01*
X017334Y025038D01*
X017354Y025030D01*
X017382Y025010D01*
X017168Y025010D01*
X017168Y025012D02*
X017379Y025012D01*
X017382Y025010D02*
X017397Y024987D01*
X017417Y024955D01*
X017429Y024924D01*
X017429Y024837D01*
X017417Y024794D01*
X017417Y024793D02*
X017335Y024793D01*
X017333Y024791D02*
X017415Y024791D01*
X017413Y024788D02*
X017331Y024788D01*
X017329Y024786D02*
X017412Y024786D01*
X017418Y024795D02*
X017337Y024795D01*
X017339Y024798D02*
X017418Y024798D01*
X017419Y024800D02*
X017341Y024800D01*
X017343Y024803D02*
X017420Y024803D01*
X017420Y024805D02*
X017344Y024805D01*
X017346Y024808D02*
X017421Y024808D01*
X017422Y024810D02*
X017347Y024810D01*
X017349Y024812D02*
X017422Y024812D01*
X017423Y024815D02*
X017350Y024815D01*
X017352Y024817D02*
X017424Y024817D01*
X017424Y024820D02*
X017353Y024820D01*
X017354Y024822D02*
X017425Y024822D01*
X017426Y024825D02*
X017356Y024825D01*
X017357Y024827D02*
X017426Y024827D01*
X017427Y024830D02*
X017358Y024830D01*
X017359Y024832D02*
X017428Y024832D01*
X017428Y024834D02*
X017360Y024834D01*
X017361Y024837D02*
X017429Y024837D01*
X017429Y024839D02*
X017362Y024839D01*
X017363Y024842D02*
X017429Y024842D01*
X017429Y024844D02*
X017364Y024844D01*
X017366Y024851D02*
X017429Y024851D01*
X017429Y024854D02*
X017366Y024854D01*
X017366Y024856D02*
X017429Y024856D01*
X017429Y024859D02*
X017366Y024859D01*
X017366Y024861D02*
X017429Y024861D01*
X017429Y024864D02*
X017366Y024864D01*
X017366Y024866D02*
X017429Y024866D01*
X017429Y024869D02*
X017366Y024869D01*
X017366Y024871D02*
X017429Y024871D01*
X017429Y024873D02*
X017366Y024873D01*
X017366Y024876D02*
X017429Y024876D01*
X017429Y024878D02*
X017366Y024878D01*
X017366Y024881D02*
X017429Y024881D01*
X017429Y024883D02*
X017366Y024883D01*
X017366Y024886D02*
X017429Y024886D01*
X017429Y024888D02*
X017366Y024888D01*
X017366Y024890D02*
X017429Y024890D01*
X017429Y024893D02*
X017366Y024893D01*
X017366Y024895D02*
X017429Y024895D01*
X017429Y024898D02*
X017366Y024898D01*
X017366Y024900D02*
X017429Y024900D01*
X017429Y024903D02*
X017366Y024903D01*
X017366Y024905D02*
X017429Y024905D01*
X017429Y024907D02*
X017366Y024907D01*
X017365Y024910D02*
X017429Y024910D01*
X017429Y024912D02*
X017364Y024912D01*
X017363Y024915D02*
X017429Y024915D01*
X017429Y024917D02*
X017362Y024917D01*
X017361Y024920D02*
X017429Y024920D01*
X017429Y024922D02*
X017360Y024922D01*
X017359Y024925D02*
X017429Y024925D01*
X017428Y024927D02*
X017358Y024927D01*
X017357Y024929D02*
X017427Y024929D01*
X017426Y024932D02*
X017356Y024932D01*
X017355Y024934D02*
X017425Y024934D01*
X017424Y024937D02*
X017353Y024937D01*
X017352Y024939D02*
X017423Y024939D01*
X017422Y024942D02*
X017351Y024942D01*
X017349Y024944D02*
X017421Y024944D01*
X017420Y024946D02*
X017348Y024946D01*
X017346Y024949D02*
X017420Y024949D01*
X017419Y024951D02*
X017345Y024951D01*
X017343Y024954D02*
X017418Y024954D01*
X017417Y024956D02*
X017341Y024956D01*
X017339Y024959D02*
X017415Y024959D01*
X017413Y024961D02*
X017337Y024961D01*
X017334Y024964D02*
X017412Y024964D01*
X017410Y024966D02*
X017332Y024966D01*
X017329Y024968D02*
X017409Y024968D01*
X017404Y024976D02*
X017320Y024976D01*
X017316Y024978D02*
X017403Y024978D01*
X017401Y024981D02*
X017312Y024981D01*
X017309Y024983D02*
X017400Y024983D01*
X017398Y024985D02*
X017305Y024985D01*
X017300Y024988D02*
X017397Y024988D01*
X017395Y024990D02*
X017295Y024990D01*
X017289Y024993D02*
X017393Y024993D01*
X017392Y024995D02*
X017283Y024995D01*
X017278Y024998D02*
X017390Y024998D01*
X017389Y025000D02*
X017171Y025000D01*
X017171Y024998D02*
X017208Y024998D01*
X017196Y024995D02*
X017172Y024995D01*
X017173Y024993D02*
X017184Y024993D01*
X017170Y025003D02*
X017387Y025003D01*
X017385Y025005D02*
X017169Y025005D01*
X017169Y025007D02*
X017384Y025007D01*
X017376Y025015D02*
X017167Y025015D01*
X017166Y025017D02*
X017372Y025017D01*
X017369Y025020D02*
X017166Y025020D01*
X017165Y025022D02*
X017365Y025022D01*
X017362Y025024D02*
X017165Y025024D01*
X017164Y025027D02*
X017359Y025027D01*
X017355Y025029D02*
X017163Y025029D01*
X017163Y025032D02*
X017350Y025032D01*
X017344Y025034D02*
X017162Y025034D01*
X017162Y025037D02*
X017338Y025037D01*
X017332Y025039D02*
X017161Y025039D01*
X017161Y025042D02*
X017327Y025042D01*
X017322Y025044D02*
X017165Y025044D01*
X017170Y025046D02*
X017318Y025046D01*
X017313Y025049D02*
X017175Y025049D01*
X017183Y025051D02*
X017305Y025051D01*
X017297Y025054D02*
X017193Y025054D01*
X017203Y025056D02*
X017288Y025056D01*
X017098Y025056D02*
X017035Y025056D01*
X017035Y025054D02*
X017098Y025054D01*
X017098Y025051D02*
X017035Y025051D01*
X017035Y025049D02*
X017098Y025049D01*
X017098Y025046D02*
X017035Y025046D01*
X017035Y025044D02*
X017098Y025044D01*
X017098Y025042D02*
X017035Y025042D01*
X017035Y025039D02*
X017098Y025039D01*
X017098Y025037D02*
X017035Y025037D01*
X017035Y025034D02*
X017098Y025034D01*
X017098Y025032D02*
X017035Y025032D01*
X017035Y025029D02*
X017098Y025029D01*
X017098Y025027D02*
X017035Y025027D01*
X017035Y025024D02*
X017098Y025024D01*
X017098Y025022D02*
X017035Y025022D01*
X017035Y025020D02*
X017098Y025020D01*
X017098Y025017D02*
X017035Y025017D01*
X017035Y025015D02*
X017098Y025015D01*
X017098Y025012D02*
X017035Y025012D01*
X017035Y025010D02*
X017098Y025010D01*
X017098Y025007D02*
X017035Y025007D01*
X017035Y025005D02*
X017098Y025005D01*
X017098Y025003D02*
X017035Y025003D01*
X017035Y025207D01*
X017098Y025207D01*
X017098Y024711D01*
X017035Y024711D01*
X017035Y024932D01*
X017098Y024932D01*
X017098Y024934D02*
X017034Y024934D01*
X017035Y024932D02*
X017020Y024963D01*
X016996Y024987D01*
X016972Y024995D01*
X016917Y024995D01*
X016894Y024983D01*
X016814Y024983D01*
X016814Y024985D02*
X016899Y024985D01*
X016904Y024988D02*
X016815Y024988D01*
X016815Y024987D02*
X016823Y025003D01*
X017031Y025003D01*
X017035Y025003D01*
X017031Y025003D02*
X017020Y025018D01*
X017004Y025034D01*
X016972Y025050D01*
X016945Y025058D01*
X016905Y025058D01*
X016894Y025054D01*
X016958Y025054D01*
X016950Y025056D02*
X016901Y025056D01*
X016894Y025054D02*
X016874Y025046D01*
X016858Y025038D01*
X016846Y025030D01*
X016831Y025014D01*
X016823Y025003D01*
X016824Y025005D02*
X017029Y025005D01*
X017028Y025007D02*
X016826Y025007D01*
X016828Y025010D02*
X017026Y025010D01*
X017024Y025012D02*
X016829Y025012D01*
X016831Y025015D02*
X017022Y025015D01*
X017020Y025017D02*
X016833Y025017D01*
X016836Y025020D02*
X017018Y025020D01*
X017016Y025022D02*
X016838Y025022D01*
X016841Y025024D02*
X017013Y025024D01*
X017011Y025027D02*
X016843Y025027D01*
X016846Y025029D02*
X017008Y025029D01*
X017006Y025032D02*
X016849Y025032D01*
X016853Y025034D02*
X017003Y025034D01*
X016998Y025037D02*
X016856Y025037D01*
X016860Y025039D02*
X016994Y025039D01*
X016989Y025042D02*
X016865Y025042D01*
X016870Y025044D02*
X016984Y025044D01*
X016979Y025046D02*
X016875Y025046D01*
X016881Y025049D02*
X016974Y025049D01*
X016967Y025051D02*
X016888Y025051D01*
X016913Y024993D02*
X016818Y024993D01*
X016819Y024995D02*
X017098Y024995D01*
X017098Y024993D02*
X016978Y024993D01*
X016985Y024990D02*
X017098Y024990D01*
X017098Y024988D02*
X016992Y024988D01*
X016997Y024985D02*
X017098Y024985D01*
X017098Y024983D02*
X017000Y024983D01*
X017002Y024981D02*
X017098Y024981D01*
X017098Y024978D02*
X017004Y024978D01*
X017007Y024976D02*
X017098Y024976D01*
X017098Y024973D02*
X017009Y024973D01*
X017012Y024971D02*
X017098Y024971D01*
X017098Y024968D02*
X017014Y024968D01*
X017017Y024966D02*
X017098Y024966D01*
X017098Y024964D02*
X017019Y024964D01*
X017021Y024961D02*
X017098Y024961D01*
X017098Y024959D02*
X017022Y024959D01*
X017023Y024956D02*
X017098Y024956D01*
X017098Y024954D02*
X017024Y024954D01*
X017025Y024951D02*
X017098Y024951D01*
X017098Y024949D02*
X017027Y024949D01*
X017028Y024946D02*
X017098Y024946D01*
X017098Y024944D02*
X017029Y024944D01*
X017030Y024942D02*
X017098Y024942D01*
X017098Y024939D02*
X017031Y024939D01*
X017033Y024937D02*
X017098Y024937D01*
X017098Y024929D02*
X017035Y024929D01*
X017035Y024927D02*
X017098Y024927D01*
X017098Y024925D02*
X017035Y024925D01*
X017035Y024922D02*
X017098Y024922D01*
X017098Y024920D02*
X017035Y024920D01*
X017035Y024917D02*
X017098Y024917D01*
X017098Y024915D02*
X017035Y024915D01*
X017035Y024912D02*
X017098Y024912D01*
X017098Y024910D02*
X017035Y024910D01*
X017035Y024907D02*
X017098Y024907D01*
X017098Y024905D02*
X017035Y024905D01*
X017035Y024903D02*
X017098Y024903D01*
X017098Y024900D02*
X017035Y024900D01*
X017035Y024898D02*
X017098Y024898D01*
X017098Y024895D02*
X017035Y024895D01*
X017035Y024893D02*
X017098Y024893D01*
X017098Y024890D02*
X017035Y024890D01*
X017035Y024888D02*
X017098Y024888D01*
X017098Y024886D02*
X017035Y024886D01*
X017035Y024883D02*
X017098Y024883D01*
X017098Y024881D02*
X017035Y024881D01*
X017035Y024878D02*
X017098Y024878D01*
X017098Y024876D02*
X017035Y024876D01*
X017035Y024873D02*
X017098Y024873D01*
X017098Y024871D02*
X017035Y024871D01*
X017035Y024869D02*
X017098Y024869D01*
X017098Y024866D02*
X017035Y024866D01*
X017035Y024864D02*
X017098Y024864D01*
X017098Y024861D02*
X017035Y024861D01*
X017035Y024859D02*
X017098Y024859D01*
X017098Y024856D02*
X017035Y024856D01*
X017035Y024854D02*
X017098Y024854D01*
X017098Y024851D02*
X017035Y024851D01*
X017035Y024849D02*
X017098Y024849D01*
X017098Y024847D02*
X017035Y024847D01*
X017035Y024844D02*
X017098Y024844D01*
X017098Y024842D02*
X017035Y024842D01*
X017035Y024839D02*
X017098Y024839D01*
X017098Y024837D02*
X017035Y024837D01*
X017035Y024834D02*
X017098Y024834D01*
X017098Y024832D02*
X017035Y024832D01*
X017035Y024830D02*
X017098Y024830D01*
X017098Y024827D02*
X017035Y024827D01*
X017035Y024825D02*
X017098Y024825D01*
X017098Y024822D02*
X017035Y024822D01*
X017035Y024820D02*
X017098Y024820D01*
X017098Y024817D02*
X017035Y024817D01*
X017035Y024815D02*
X017098Y024815D01*
X017098Y024812D02*
X017035Y024812D01*
X017035Y024810D02*
X017098Y024810D01*
X017098Y024808D02*
X017035Y024808D01*
X017035Y024805D02*
X017098Y024805D01*
X017098Y024803D02*
X017035Y024803D01*
X017035Y024800D02*
X017098Y024800D01*
X017098Y024798D02*
X017035Y024798D01*
X017035Y024795D02*
X017098Y024795D01*
X017098Y024793D02*
X017035Y024793D01*
X017035Y024791D02*
X017098Y024791D01*
X017098Y024788D02*
X017035Y024788D01*
X017035Y024786D02*
X017098Y024786D01*
X017098Y024783D02*
X017035Y024783D01*
X017035Y024781D02*
X017098Y024781D01*
X017098Y024778D02*
X017035Y024778D01*
X017035Y024776D02*
X017098Y024776D01*
X017098Y024773D02*
X017035Y024773D01*
X017035Y024771D02*
X017098Y024771D01*
X017098Y024769D02*
X017035Y024769D01*
X017035Y024766D02*
X017098Y024766D01*
X017098Y024764D02*
X017035Y024764D01*
X017035Y024761D02*
X017098Y024761D01*
X017098Y024759D02*
X017035Y024759D01*
X017035Y024756D02*
X017098Y024756D01*
X017098Y024754D02*
X017035Y024754D01*
X017035Y024752D02*
X017098Y024752D01*
X017098Y024749D02*
X017035Y024749D01*
X017035Y024747D02*
X017098Y024747D01*
X017098Y024744D02*
X017035Y024744D01*
X017035Y024742D02*
X017098Y024742D01*
X017098Y024739D02*
X017035Y024739D01*
X017035Y024737D02*
X017098Y024737D01*
X017098Y024734D02*
X017035Y024734D01*
X017035Y024732D02*
X017098Y024732D01*
X017098Y024730D02*
X017035Y024730D01*
X017035Y024727D02*
X017098Y024727D01*
X017098Y024725D02*
X017035Y024725D01*
X017035Y024722D02*
X017098Y024722D01*
X017098Y024720D02*
X017035Y024720D01*
X017035Y024717D02*
X017098Y024717D01*
X017098Y024715D02*
X017035Y024715D01*
X017035Y024713D02*
X017098Y024713D01*
X017161Y024720D02*
X017344Y024720D01*
X017340Y024717D02*
X017165Y024717D01*
X017162Y024722D02*
X017348Y024722D01*
X017352Y024725D02*
X017162Y024725D01*
X017163Y024727D02*
X017356Y024727D01*
X017359Y024730D02*
X017163Y024730D01*
X017163Y024732D02*
X017363Y024732D01*
X017367Y024734D02*
X017164Y024734D01*
X017164Y024737D02*
X017371Y024737D01*
X017374Y024739D02*
X017165Y024739D01*
X017165Y024742D02*
X017377Y024742D01*
X017379Y024744D02*
X017165Y024744D01*
X017166Y024747D02*
X017382Y024747D01*
X017384Y024749D02*
X017166Y024749D01*
X017167Y024752D02*
X017387Y024752D01*
X017389Y024754D02*
X017167Y024754D01*
X017167Y024756D02*
X017247Y024756D01*
X017279Y024756D02*
X017391Y024756D01*
X017394Y024759D02*
X017283Y024759D01*
X017287Y024761D02*
X017395Y024761D01*
X017397Y024764D02*
X017291Y024764D01*
X017295Y024766D02*
X017327Y024782D01*
X017336Y024715D02*
X017171Y024715D01*
X017178Y024713D02*
X017333Y024713D01*
X017325Y024710D02*
X017185Y024710D01*
X017195Y024708D02*
X017313Y024708D01*
X017301Y024705D02*
X017205Y024705D01*
X017214Y024759D02*
X017168Y024759D01*
X017168Y024761D02*
X017202Y024761D01*
X017190Y024764D02*
X017169Y024764D01*
X017169Y024766D02*
X017177Y024766D01*
X017098Y024998D02*
X016820Y024998D01*
X016821Y025000D02*
X017098Y025000D01*
X017098Y025059D02*
X017035Y025059D01*
X017035Y025061D02*
X017098Y025061D01*
X017098Y025063D02*
X017035Y025063D01*
X017035Y025066D02*
X017098Y025066D01*
X017098Y025068D02*
X017035Y025068D01*
X017035Y025071D02*
X017098Y025071D01*
X017098Y025073D02*
X017035Y025073D01*
X017035Y025076D02*
X017098Y025076D01*
X017098Y025078D02*
X017035Y025078D01*
X017035Y025081D02*
X017098Y025081D01*
X017098Y025083D02*
X017035Y025083D01*
X017035Y025085D02*
X017098Y025085D01*
X017098Y025088D02*
X017035Y025088D01*
X017035Y025090D02*
X017098Y025090D01*
X017098Y025093D02*
X017035Y025093D01*
X017035Y025095D02*
X017098Y025095D01*
X017098Y025098D02*
X017035Y025098D01*
X017035Y025100D02*
X017098Y025100D01*
X017098Y025102D02*
X017035Y025102D01*
X017035Y025105D02*
X017098Y025105D01*
X017098Y025107D02*
X017035Y025107D01*
X017035Y025110D02*
X017098Y025110D01*
X017098Y025112D02*
X017035Y025112D01*
X017035Y025115D02*
X017098Y025115D01*
X017098Y025117D02*
X017035Y025117D01*
X017035Y025120D02*
X017098Y025120D01*
X017098Y025122D02*
X017035Y025122D01*
X017035Y025124D02*
X017098Y025124D01*
X017098Y025127D02*
X017035Y025127D01*
X017035Y025129D02*
X017098Y025129D01*
X017098Y025132D02*
X017035Y025132D01*
X017035Y025134D02*
X017098Y025134D01*
X017098Y025137D02*
X017035Y025137D01*
X017035Y025139D02*
X017098Y025139D01*
X017098Y025141D02*
X017035Y025141D01*
X017035Y025144D02*
X017098Y025144D01*
X017098Y025146D02*
X017035Y025146D01*
X017035Y025149D02*
X017098Y025149D01*
X017098Y025151D02*
X017035Y025151D01*
X017035Y025154D02*
X017098Y025154D01*
X017098Y025156D02*
X017035Y025156D01*
X017035Y025159D02*
X017098Y025159D01*
X017098Y025161D02*
X017035Y025161D01*
X017035Y025163D02*
X017098Y025163D01*
X017098Y025166D02*
X017035Y025166D01*
X017035Y025168D02*
X017098Y025168D01*
X017098Y025171D02*
X017035Y025171D01*
X017035Y025173D02*
X017098Y025173D01*
X017098Y025176D02*
X017035Y025176D01*
X017035Y025178D02*
X017098Y025178D01*
X017098Y025180D02*
X017035Y025180D01*
X017035Y025183D02*
X017098Y025183D01*
X017098Y025185D02*
X017035Y025185D01*
X017035Y025188D02*
X017098Y025188D01*
X017098Y025190D02*
X017035Y025190D01*
X017035Y025193D02*
X017098Y025193D01*
X017098Y025195D02*
X017035Y025195D01*
X017035Y025198D02*
X017098Y025198D01*
X017098Y025200D02*
X017035Y025200D01*
X017035Y025202D02*
X017098Y025202D01*
X017098Y025205D02*
X017035Y025205D01*
X016909Y024990D02*
X016817Y024990D01*
X016815Y024987D02*
X016807Y024963D01*
X016807Y024711D01*
X016870Y024711D01*
X016870Y024943D01*
X016878Y024959D01*
X016894Y024983D01*
X016892Y024981D02*
X016813Y024981D01*
X016812Y024978D02*
X016890Y024978D01*
X016889Y024976D02*
X016811Y024976D01*
X016810Y024973D02*
X016887Y024973D01*
X016886Y024971D02*
X016809Y024971D01*
X016809Y024968D02*
X016884Y024968D01*
X016882Y024966D02*
X016808Y024966D01*
X016807Y024964D02*
X016881Y024964D01*
X016879Y024961D02*
X016807Y024961D01*
X016807Y024959D02*
X016878Y024959D01*
X016876Y024956D02*
X016807Y024956D01*
X016807Y024954D02*
X016875Y024954D01*
X016874Y024951D02*
X016807Y024951D01*
X016807Y024949D02*
X016873Y024949D01*
X016871Y024946D02*
X016807Y024946D01*
X016807Y024944D02*
X016870Y024944D01*
X016870Y024942D02*
X016807Y024942D01*
X016807Y024939D02*
X016870Y024939D01*
X016870Y024937D02*
X016807Y024937D01*
X016807Y024934D02*
X016870Y024934D01*
X016870Y024932D02*
X016807Y024932D01*
X016807Y024929D02*
X016870Y024929D01*
X016870Y024927D02*
X016807Y024927D01*
X016807Y024925D02*
X016870Y024925D01*
X016870Y024922D02*
X016807Y024922D01*
X016807Y024920D02*
X016870Y024920D01*
X016870Y024917D02*
X016807Y024917D01*
X016807Y024915D02*
X016870Y024915D01*
X016870Y024912D02*
X016807Y024912D01*
X016807Y024910D02*
X016870Y024910D01*
X016870Y024907D02*
X016807Y024907D01*
X016807Y024905D02*
X016870Y024905D01*
X016870Y024903D02*
X016807Y024903D01*
X016807Y024900D02*
X016870Y024900D01*
X016870Y024898D02*
X016807Y024898D01*
X016807Y024895D02*
X016870Y024895D01*
X016870Y024893D02*
X016807Y024893D01*
X016807Y024890D02*
X016870Y024890D01*
X016870Y024888D02*
X016807Y024888D01*
X016807Y024886D02*
X016870Y024886D01*
X016870Y024883D02*
X016807Y024883D01*
X016807Y024881D02*
X016870Y024881D01*
X016870Y024878D02*
X016807Y024878D01*
X016807Y024876D02*
X016870Y024876D01*
X016870Y024873D02*
X016807Y024873D01*
X016807Y024871D02*
X016870Y024871D01*
X016870Y024869D02*
X016807Y024869D01*
X016807Y024866D02*
X016870Y024866D01*
X016870Y024864D02*
X016807Y024864D01*
X016807Y024861D02*
X016870Y024861D01*
X016870Y024859D02*
X016807Y024859D01*
X016807Y024856D02*
X016870Y024856D01*
X016870Y024854D02*
X016807Y024854D01*
X016807Y024851D02*
X016870Y024851D01*
X016870Y024849D02*
X016807Y024849D01*
X016807Y024847D02*
X016870Y024847D01*
X016870Y024844D02*
X016807Y024844D01*
X016807Y024842D02*
X016870Y024842D01*
X016870Y024839D02*
X016807Y024839D01*
X016807Y024837D02*
X016870Y024837D01*
X016870Y024834D02*
X016807Y024834D01*
X016807Y024832D02*
X016870Y024832D01*
X016870Y024830D02*
X016807Y024830D01*
X016807Y024827D02*
X016870Y024827D01*
X016870Y024825D02*
X016807Y024825D01*
X016807Y024822D02*
X016870Y024822D01*
X016870Y024820D02*
X016807Y024820D01*
X016807Y024817D02*
X016870Y024817D01*
X016870Y024815D02*
X016807Y024815D01*
X016807Y024812D02*
X016870Y024812D01*
X016870Y024810D02*
X016807Y024810D01*
X016807Y024808D02*
X016870Y024808D01*
X016870Y024805D02*
X016807Y024805D01*
X016807Y024803D02*
X016870Y024803D01*
X016870Y024800D02*
X016807Y024800D01*
X016807Y024798D02*
X016870Y024798D01*
X016870Y024795D02*
X016807Y024795D01*
X016807Y024793D02*
X016870Y024793D01*
X016870Y024791D02*
X016807Y024791D01*
X016807Y024788D02*
X016870Y024788D01*
X016870Y024786D02*
X016807Y024786D01*
X016807Y024783D02*
X016870Y024783D01*
X016870Y024781D02*
X016807Y024781D01*
X016807Y024778D02*
X016870Y024778D01*
X016870Y024776D02*
X016807Y024776D01*
X016807Y024773D02*
X016870Y024773D01*
X016870Y024771D02*
X016807Y024771D01*
X016807Y024769D02*
X016870Y024769D01*
X016870Y024766D02*
X016807Y024766D01*
X016807Y024764D02*
X016870Y024764D01*
X016870Y024761D02*
X016807Y024761D01*
X016807Y024759D02*
X016870Y024759D01*
X016870Y024756D02*
X016807Y024756D01*
X016807Y024754D02*
X016870Y024754D01*
X016870Y024752D02*
X016807Y024752D01*
X016807Y024749D02*
X016870Y024749D01*
X016870Y024747D02*
X016807Y024747D01*
X016807Y024744D02*
X016870Y024744D01*
X016870Y024742D02*
X016807Y024742D01*
X016807Y024739D02*
X016870Y024739D01*
X016870Y024737D02*
X016807Y024737D01*
X016807Y024734D02*
X016870Y024734D01*
X016870Y024732D02*
X016807Y024732D01*
X016807Y024730D02*
X016870Y024730D01*
X016870Y024727D02*
X016807Y024727D01*
X016807Y024725D02*
X016870Y024725D01*
X016870Y024722D02*
X016807Y024722D01*
X016807Y024720D02*
X016870Y024720D01*
X016870Y024717D02*
X016807Y024717D01*
X016807Y024715D02*
X016870Y024715D01*
X016870Y024713D02*
X016807Y024713D01*
X016712Y024713D02*
X016649Y024713D01*
X016649Y024711D02*
X016712Y024711D01*
X016712Y025050D01*
X016649Y025050D01*
X016649Y024711D01*
X016649Y024715D02*
X016712Y024715D01*
X016712Y024717D02*
X016649Y024717D01*
X016649Y024720D02*
X016712Y024720D01*
X016712Y024722D02*
X016649Y024722D01*
X016649Y024725D02*
X016712Y024725D01*
X016712Y024727D02*
X016649Y024727D01*
X016649Y024730D02*
X016712Y024730D01*
X016712Y024732D02*
X016649Y024732D01*
X016649Y024734D02*
X016712Y024734D01*
X016712Y024737D02*
X016649Y024737D01*
X016649Y024739D02*
X016712Y024739D01*
X016712Y024742D02*
X016649Y024742D01*
X016649Y024744D02*
X016712Y024744D01*
X016712Y024747D02*
X016649Y024747D01*
X016649Y024749D02*
X016712Y024749D01*
X016712Y024752D02*
X016649Y024752D01*
X016649Y024754D02*
X016712Y024754D01*
X016712Y024756D02*
X016649Y024756D01*
X016649Y024759D02*
X016712Y024759D01*
X016712Y024761D02*
X016649Y024761D01*
X016649Y024764D02*
X016712Y024764D01*
X016712Y024766D02*
X016649Y024766D01*
X016649Y024769D02*
X016712Y024769D01*
X016712Y024771D02*
X016649Y024771D01*
X016649Y024773D02*
X016712Y024773D01*
X016712Y024776D02*
X016649Y024776D01*
X016649Y024778D02*
X016712Y024778D01*
X016712Y024781D02*
X016649Y024781D01*
X016649Y024783D02*
X016712Y024783D01*
X016712Y024786D02*
X016649Y024786D01*
X016649Y024788D02*
X016712Y024788D01*
X016712Y024791D02*
X016649Y024791D01*
X016649Y024793D02*
X016712Y024793D01*
X016712Y024795D02*
X016649Y024795D01*
X016649Y024798D02*
X016712Y024798D01*
X016712Y024800D02*
X016649Y024800D01*
X016649Y024803D02*
X016712Y024803D01*
X016712Y024805D02*
X016649Y024805D01*
X016649Y024808D02*
X016712Y024808D01*
X016712Y024810D02*
X016649Y024810D01*
X016649Y024812D02*
X016712Y024812D01*
X016712Y024815D02*
X016649Y024815D01*
X016649Y024817D02*
X016712Y024817D01*
X016712Y024820D02*
X016649Y024820D01*
X016649Y024822D02*
X016712Y024822D01*
X016712Y024825D02*
X016649Y024825D01*
X016649Y024827D02*
X016712Y024827D01*
X016712Y024830D02*
X016649Y024830D01*
X016649Y024832D02*
X016712Y024832D01*
X016712Y024834D02*
X016649Y024834D01*
X016649Y024837D02*
X016712Y024837D01*
X016712Y024839D02*
X016649Y024839D01*
X016649Y024842D02*
X016712Y024842D01*
X016712Y024844D02*
X016649Y024844D01*
X016649Y024847D02*
X016712Y024847D01*
X016712Y024849D02*
X016649Y024849D01*
X016649Y024851D02*
X016712Y024851D01*
X016712Y024854D02*
X016649Y024854D01*
X016649Y024856D02*
X016712Y024856D01*
X016712Y024859D02*
X016649Y024859D01*
X016649Y024861D02*
X016712Y024861D01*
X016712Y024864D02*
X016649Y024864D01*
X016649Y024866D02*
X016712Y024866D01*
X016712Y024869D02*
X016649Y024869D01*
X016649Y024871D02*
X016712Y024871D01*
X016712Y024873D02*
X016649Y024873D01*
X016649Y024876D02*
X016712Y024876D01*
X016712Y024878D02*
X016649Y024878D01*
X016649Y024881D02*
X016712Y024881D01*
X016712Y024883D02*
X016649Y024883D01*
X016649Y024886D02*
X016712Y024886D01*
X016712Y024888D02*
X016649Y024888D01*
X016649Y024890D02*
X016712Y024890D01*
X016712Y024893D02*
X016649Y024893D01*
X016649Y024895D02*
X016712Y024895D01*
X016712Y024898D02*
X016649Y024898D01*
X016649Y024900D02*
X016712Y024900D01*
X016712Y024903D02*
X016649Y024903D01*
X016649Y024905D02*
X016712Y024905D01*
X016712Y024907D02*
X016649Y024907D01*
X016649Y024910D02*
X016712Y024910D01*
X016712Y024912D02*
X016649Y024912D01*
X016649Y024915D02*
X016712Y024915D01*
X016712Y024917D02*
X016649Y024917D01*
X016649Y024920D02*
X016712Y024920D01*
X016712Y024922D02*
X016649Y024922D01*
X016649Y024925D02*
X016712Y024925D01*
X016712Y024927D02*
X016649Y024927D01*
X016649Y024929D02*
X016712Y024929D01*
X016712Y024932D02*
X016649Y024932D01*
X016649Y024934D02*
X016712Y024934D01*
X016712Y024937D02*
X016649Y024937D01*
X016649Y024939D02*
X016712Y024939D01*
X016712Y024942D02*
X016649Y024942D01*
X016649Y024944D02*
X016712Y024944D01*
X016712Y024946D02*
X016649Y024946D01*
X016649Y024949D02*
X016712Y024949D01*
X016712Y024951D02*
X016649Y024951D01*
X016649Y024954D02*
X016712Y024954D01*
X016712Y024956D02*
X016649Y024956D01*
X016649Y024959D02*
X016712Y024959D01*
X016712Y024961D02*
X016649Y024961D01*
X016649Y024964D02*
X016712Y024964D01*
X016712Y024966D02*
X016649Y024966D01*
X016649Y024968D02*
X016712Y024968D01*
X016712Y024971D02*
X016649Y024971D01*
X016649Y024973D02*
X016712Y024973D01*
X016712Y024976D02*
X016649Y024976D01*
X016649Y024978D02*
X016712Y024978D01*
X016712Y024981D02*
X016649Y024981D01*
X016649Y024983D02*
X016712Y024983D01*
X016712Y024985D02*
X016649Y024985D01*
X016649Y024988D02*
X016712Y024988D01*
X016712Y024990D02*
X016649Y024990D01*
X016649Y024993D02*
X016712Y024993D01*
X016712Y024995D02*
X016649Y024995D01*
X016649Y024998D02*
X016712Y024998D01*
X016712Y025000D02*
X016649Y025000D01*
X016649Y025003D02*
X016712Y025003D01*
X016712Y025005D02*
X016649Y025005D01*
X016649Y025007D02*
X016712Y025007D01*
X016712Y025010D02*
X016649Y025010D01*
X016649Y025012D02*
X016712Y025012D01*
X016712Y025015D02*
X016649Y025015D01*
X016649Y025017D02*
X016712Y025017D01*
X016712Y025020D02*
X016649Y025020D01*
X016649Y025022D02*
X016712Y025022D01*
X016712Y025024D02*
X016649Y025024D01*
X016649Y025027D02*
X016712Y025027D01*
X016712Y025029D02*
X016649Y025029D01*
X016649Y025032D02*
X016712Y025032D01*
X016712Y025034D02*
X016649Y025034D01*
X016649Y025037D02*
X016712Y025037D01*
X016712Y025039D02*
X016649Y025039D01*
X016649Y025042D02*
X016712Y025042D01*
X016712Y025044D02*
X016649Y025044D01*
X016649Y025046D02*
X016712Y025046D01*
X016712Y025049D02*
X016649Y025049D01*
X016665Y025105D02*
X016693Y025105D01*
X016665Y025105D01*
X016649Y025117D01*
X016712Y025117D01*
X016714Y025120D02*
X016648Y025120D01*
X016647Y025122D02*
X016715Y025122D01*
X016717Y025124D02*
X016646Y025124D01*
X016644Y025127D02*
X016719Y025127D01*
X016720Y025129D02*
X016722Y025152D01*
X016716Y025168D01*
X016650Y025168D01*
X016648Y025166D02*
X016717Y025166D01*
X016716Y025168D02*
X016701Y025180D01*
X016693Y025184D01*
X016669Y025184D01*
X016651Y025172D01*
X016642Y025152D01*
X016642Y025132D01*
X016721Y025132D01*
X016721Y025134D02*
X016642Y025134D01*
X016642Y025132D02*
X016649Y025117D01*
X016652Y025115D02*
X016710Y025115D01*
X016708Y025113D02*
X016720Y025129D01*
X016643Y025129D01*
X016642Y025137D02*
X016721Y025137D01*
X016721Y025139D02*
X016642Y025139D01*
X016642Y025141D02*
X016721Y025141D01*
X016722Y025144D02*
X016642Y025144D01*
X016642Y025146D02*
X016722Y025146D01*
X016722Y025149D02*
X016642Y025149D01*
X016642Y025151D02*
X016722Y025151D01*
X016722Y025154D02*
X016642Y025154D01*
X016644Y025156D02*
X016721Y025156D01*
X016720Y025159D02*
X016645Y025159D01*
X016646Y025161D02*
X016719Y025161D01*
X016718Y025163D02*
X016647Y025163D01*
X016651Y025171D02*
X016713Y025171D01*
X016709Y025173D02*
X016653Y025173D01*
X016657Y025176D02*
X016706Y025176D01*
X016703Y025178D02*
X016661Y025178D01*
X016664Y025180D02*
X016699Y025180D01*
X016694Y025183D02*
X016668Y025183D01*
X016655Y025112D02*
X016707Y025112D01*
X016708Y025113D02*
X016693Y025105D01*
X016698Y025107D02*
X016662Y025107D01*
X016659Y025110D02*
X016703Y025110D01*
X016555Y025050D02*
X016500Y025050D01*
X016500Y024987D01*
X016453Y024987D01*
X016460Y024979D01*
X016492Y024932D01*
X016555Y024932D01*
X016555Y024934D02*
X016490Y024934D01*
X016492Y024932D02*
X016492Y024833D01*
X016484Y024810D01*
X016555Y024810D01*
X016555Y024808D02*
X016483Y024808D01*
X016484Y024810D02*
X016472Y024786D01*
X016457Y024770D01*
X016429Y024754D01*
X016374Y024754D01*
X016346Y024766D01*
X016334Y024778D01*
X016254Y024778D01*
X016255Y024776D02*
X016337Y024776D01*
X016334Y024778D02*
X016319Y024798D01*
X016245Y024798D01*
X016244Y024800D02*
X016318Y024800D01*
X016319Y024798D02*
X016303Y024853D01*
X016303Y024908D01*
X016319Y024955D01*
X016334Y024979D01*
X016366Y025003D01*
X016429Y025003D01*
X016453Y024987D01*
X016500Y024987D01*
X016500Y024995D01*
X016555Y024995D01*
X016555Y024993D02*
X016500Y024993D01*
X016444Y024993D01*
X016447Y024990D02*
X016500Y024990D01*
X016555Y024990D01*
X016555Y024988D02*
X016500Y024988D01*
X016451Y024988D01*
X016454Y024985D02*
X016555Y024985D01*
X016555Y024983D02*
X016456Y024983D01*
X016459Y024981D02*
X016555Y024981D01*
X016555Y024978D02*
X016461Y024978D01*
X016463Y024976D02*
X016555Y024976D01*
X016555Y024973D02*
X016464Y024973D01*
X016466Y024971D02*
X016555Y024971D01*
X016555Y024968D02*
X016467Y024968D01*
X016469Y024966D02*
X016555Y024966D01*
X016555Y024964D02*
X016471Y024964D01*
X016472Y024961D02*
X016555Y024961D01*
X016555Y024959D02*
X016474Y024959D01*
X016476Y024956D02*
X016555Y024956D01*
X016555Y024954D02*
X016477Y024954D01*
X016479Y024951D02*
X016555Y024951D01*
X016555Y024949D02*
X016480Y024949D01*
X016482Y024946D02*
X016555Y024946D01*
X016555Y024944D02*
X016484Y024944D01*
X016485Y024942D02*
X016555Y024942D01*
X016555Y024939D02*
X016487Y024939D01*
X016489Y024937D02*
X016555Y024937D01*
X016555Y024929D02*
X016492Y024929D01*
X016492Y024927D02*
X016555Y024927D01*
X016555Y024925D02*
X016492Y024925D01*
X016492Y024922D02*
X016555Y024922D01*
X016555Y024920D02*
X016492Y024920D01*
X016492Y024917D02*
X016555Y024917D01*
X016555Y024915D02*
X016492Y024915D01*
X016492Y024912D02*
X016555Y024912D01*
X016555Y024910D02*
X016492Y024910D01*
X016492Y024907D02*
X016555Y024907D01*
X016555Y024905D02*
X016492Y024905D01*
X016492Y024903D02*
X016555Y024903D01*
X016555Y024900D02*
X016492Y024900D01*
X016492Y024898D02*
X016555Y024898D01*
X016555Y024895D02*
X016492Y024895D01*
X016492Y024893D02*
X016555Y024893D01*
X016555Y024890D02*
X016492Y024890D01*
X016492Y024888D02*
X016555Y024888D01*
X016555Y024886D02*
X016492Y024886D01*
X016492Y024883D02*
X016555Y024883D01*
X016555Y024881D02*
X016492Y024881D01*
X016492Y024878D02*
X016555Y024878D01*
X016555Y024876D02*
X016492Y024876D01*
X016492Y024873D02*
X016555Y024873D01*
X016555Y024871D02*
X016492Y024871D01*
X016492Y024869D02*
X016555Y024869D01*
X016555Y024866D02*
X016492Y024866D01*
X016492Y024864D02*
X016555Y024864D01*
X016555Y024861D02*
X016492Y024861D01*
X016492Y024859D02*
X016555Y024859D01*
X016555Y024856D02*
X016492Y024856D01*
X016492Y024854D02*
X016555Y024854D01*
X016555Y024851D02*
X016492Y024851D01*
X016492Y024849D02*
X016555Y024849D01*
X016555Y024847D02*
X016492Y024847D01*
X016492Y024844D02*
X016555Y024844D01*
X016555Y024842D02*
X016492Y024842D01*
X016492Y024839D02*
X016555Y024839D01*
X016555Y024837D02*
X016492Y024837D01*
X016492Y024834D02*
X016555Y024834D01*
X016555Y024832D02*
X016492Y024832D01*
X016491Y024830D02*
X016555Y024830D01*
X016555Y024827D02*
X016490Y024827D01*
X016489Y024825D02*
X016555Y024825D01*
X016555Y024822D02*
X016488Y024822D01*
X016487Y024820D02*
X016555Y024820D01*
X016555Y024817D02*
X016487Y024817D01*
X016486Y024815D02*
X016555Y024815D01*
X016555Y024812D02*
X016485Y024812D01*
X016482Y024805D02*
X016555Y024805D01*
X016555Y024803D02*
X016481Y024803D01*
X016479Y024800D02*
X016555Y024800D01*
X016555Y024798D02*
X016478Y024798D01*
X016477Y024795D02*
X016555Y024795D01*
X016555Y024793D02*
X016476Y024793D01*
X016475Y024791D02*
X016555Y024791D01*
X016555Y024788D02*
X016473Y024788D01*
X016472Y024786D02*
X016555Y024786D01*
X016555Y024783D02*
X016469Y024783D01*
X016467Y024781D02*
X016555Y024781D01*
X016555Y024778D02*
X016465Y024778D01*
X016462Y024776D02*
X016555Y024776D01*
X016555Y024773D02*
X016460Y024773D01*
X016457Y024771D02*
X016555Y024771D01*
X016555Y024769D02*
X016454Y024769D01*
X016449Y024766D02*
X016555Y024766D01*
X016555Y024764D02*
X016445Y024764D01*
X016441Y024761D02*
X016555Y024761D01*
X016555Y024759D02*
X016437Y024759D01*
X016432Y024756D02*
X016555Y024756D01*
X016555Y024754D02*
X016268Y024754D01*
X016266Y024756D02*
X016369Y024756D01*
X016364Y024759D02*
X016263Y024759D01*
X016264Y024758D02*
X016248Y024790D01*
X016232Y024837D01*
X016232Y024924D01*
X016248Y024971D01*
X016264Y025003D01*
X016489Y025003D01*
X016488Y025005D02*
X016266Y025005D01*
X016264Y025003D02*
X016295Y025034D01*
X016327Y025050D01*
X016350Y025058D01*
X016413Y025058D01*
X016437Y025050D01*
X016466Y025034D01*
X016296Y025034D01*
X016293Y025032D02*
X016469Y025032D01*
X016466Y025034D02*
X016482Y025018D01*
X016492Y024995D01*
X016500Y024995D01*
X016500Y024998D02*
X016555Y024998D01*
X016555Y025000D02*
X016500Y025000D01*
X016500Y025003D02*
X016555Y025003D01*
X016555Y025005D02*
X016500Y025005D01*
X016500Y025007D02*
X016555Y025007D01*
X016555Y025010D02*
X016500Y025010D01*
X016500Y025012D02*
X016555Y025012D01*
X016555Y025015D02*
X016500Y025015D01*
X016500Y025017D02*
X016555Y025017D01*
X016555Y025020D02*
X016500Y025020D01*
X016500Y025022D02*
X016555Y025022D01*
X016555Y025024D02*
X016500Y025024D01*
X016500Y025027D02*
X016555Y025027D01*
X016555Y025029D02*
X016500Y025029D01*
X016500Y025032D02*
X016555Y025032D01*
X016555Y025034D02*
X016500Y025034D01*
X016500Y025037D02*
X016555Y025037D01*
X016555Y025039D02*
X016500Y025039D01*
X016500Y025042D02*
X016555Y025042D01*
X016555Y025044D02*
X016500Y025044D01*
X016500Y025046D02*
X016555Y025046D01*
X016555Y025049D02*
X016500Y025049D01*
X016476Y025024D02*
X016286Y025024D01*
X016283Y025022D02*
X016478Y025022D01*
X016481Y025020D02*
X016281Y025020D01*
X016278Y025017D02*
X016483Y025017D01*
X016484Y025015D02*
X016276Y025015D01*
X016273Y025012D02*
X016485Y025012D01*
X016486Y025010D02*
X016271Y025010D01*
X016269Y025007D02*
X016487Y025007D01*
X016490Y025000D02*
X016433Y025000D01*
X016436Y024998D02*
X016491Y024998D01*
X016492Y024995D02*
X016440Y024995D01*
X016473Y025027D02*
X016288Y025027D01*
X016290Y025029D02*
X016471Y025029D01*
X016461Y025037D02*
X016300Y025037D01*
X016305Y025039D02*
X016457Y025039D01*
X016452Y025042D02*
X016310Y025042D01*
X016315Y025044D02*
X016448Y025044D01*
X016443Y025046D02*
X016320Y025046D01*
X016325Y025049D02*
X016439Y025049D01*
X016432Y025051D02*
X016331Y025051D01*
X016339Y025054D02*
X016425Y025054D01*
X016418Y025056D02*
X016346Y025056D01*
X016363Y025000D02*
X016262Y025000D01*
X016261Y024998D02*
X016360Y024998D01*
X016356Y024995D02*
X016260Y024995D01*
X016259Y024993D02*
X016353Y024993D01*
X016350Y024990D02*
X016258Y024990D01*
X016256Y024988D02*
X016347Y024988D01*
X016343Y024985D02*
X016255Y024985D01*
X016254Y024983D02*
X016340Y024983D01*
X016337Y024981D02*
X016253Y024981D01*
X016251Y024978D02*
X016334Y024978D01*
X016332Y024976D02*
X016250Y024976D01*
X016249Y024973D02*
X016331Y024973D01*
X016329Y024971D02*
X016248Y024971D01*
X016247Y024968D02*
X016327Y024968D01*
X016326Y024966D02*
X016246Y024966D01*
X016245Y024964D02*
X016324Y024964D01*
X016323Y024961D02*
X016245Y024961D01*
X016244Y024959D02*
X016321Y024959D01*
X016319Y024956D02*
X016243Y024956D01*
X016242Y024954D02*
X016318Y024954D01*
X016317Y024951D02*
X016241Y024951D01*
X016240Y024949D02*
X016317Y024949D01*
X016316Y024946D02*
X016240Y024946D01*
X016239Y024944D02*
X016315Y024944D01*
X016314Y024942D02*
X016238Y024942D01*
X016237Y024939D02*
X016313Y024939D01*
X016313Y024937D02*
X016236Y024937D01*
X016236Y024934D02*
X016312Y024934D01*
X016311Y024932D02*
X016235Y024932D01*
X016234Y024929D02*
X016310Y024929D01*
X016309Y024927D02*
X016233Y024927D01*
X016232Y024925D02*
X016308Y024925D01*
X016308Y024922D02*
X016232Y024922D01*
X016232Y024920D02*
X016307Y024920D01*
X016306Y024917D02*
X016232Y024917D01*
X016232Y024915D02*
X016305Y024915D01*
X016304Y024912D02*
X016232Y024912D01*
X016232Y024910D02*
X016304Y024910D01*
X016303Y024907D02*
X016232Y024907D01*
X016232Y024905D02*
X016303Y024905D01*
X016303Y024903D02*
X016232Y024903D01*
X016232Y024900D02*
X016303Y024900D01*
X016303Y024898D02*
X016232Y024898D01*
X016232Y024895D02*
X016303Y024895D01*
X016303Y024893D02*
X016232Y024893D01*
X016232Y024890D02*
X016303Y024890D01*
X016303Y024888D02*
X016232Y024888D01*
X016232Y024886D02*
X016303Y024886D01*
X016303Y024883D02*
X016232Y024883D01*
X016232Y024881D02*
X016303Y024881D01*
X016303Y024878D02*
X016232Y024878D01*
X016232Y024876D02*
X016303Y024876D01*
X016303Y024873D02*
X016232Y024873D01*
X016232Y024871D02*
X016303Y024871D01*
X016303Y024869D02*
X016232Y024869D01*
X016232Y024866D02*
X016303Y024866D01*
X016303Y024864D02*
X016232Y024864D01*
X016232Y024861D02*
X016303Y024861D01*
X016303Y024859D02*
X016232Y024859D01*
X016232Y024856D02*
X016303Y024856D01*
X016303Y024854D02*
X016232Y024854D01*
X016232Y024851D02*
X016303Y024851D01*
X016304Y024849D02*
X016232Y024849D01*
X016232Y024847D02*
X016305Y024847D01*
X016305Y024844D02*
X016232Y024844D01*
X016232Y024842D02*
X016306Y024842D01*
X016307Y024839D02*
X016232Y024839D01*
X016232Y024837D02*
X016308Y024837D01*
X016308Y024834D02*
X016233Y024834D01*
X016234Y024832D02*
X016309Y024832D01*
X016310Y024830D02*
X016235Y024830D01*
X016235Y024827D02*
X016310Y024827D01*
X016311Y024825D02*
X016236Y024825D01*
X016237Y024822D02*
X016312Y024822D01*
X016312Y024820D02*
X016238Y024820D01*
X016239Y024817D02*
X016313Y024817D01*
X016314Y024815D02*
X016240Y024815D01*
X016240Y024812D02*
X016315Y024812D01*
X016315Y024810D02*
X016241Y024810D01*
X016242Y024808D02*
X016316Y024808D01*
X016317Y024805D02*
X016243Y024805D01*
X016244Y024803D02*
X016317Y024803D01*
X016321Y024795D02*
X016246Y024795D01*
X016247Y024793D02*
X016323Y024793D01*
X016325Y024791D02*
X016248Y024791D01*
X016249Y024788D02*
X016327Y024788D01*
X016328Y024786D02*
X016250Y024786D01*
X016251Y024783D02*
X016330Y024783D01*
X016332Y024781D02*
X016252Y024781D01*
X016256Y024773D02*
X016339Y024773D01*
X016342Y024771D02*
X016257Y024771D01*
X016259Y024769D02*
X016344Y024769D01*
X016347Y024766D02*
X016260Y024766D01*
X016261Y024764D02*
X016352Y024764D01*
X016358Y024761D02*
X016262Y024761D01*
X016264Y024758D02*
X016295Y024727D01*
X016311Y024719D01*
X016319Y024711D01*
X016342Y024703D01*
X016437Y024703D01*
X016468Y024719D01*
X016476Y024727D01*
X016484Y024743D01*
X016492Y024743D01*
X016492Y024566D01*
X016555Y024566D01*
X016492Y024566D01*
X016492Y024569D02*
X016555Y024569D01*
X016555Y024571D02*
X016492Y024571D01*
X016492Y024574D02*
X016555Y024574D01*
X016555Y024576D02*
X016492Y024576D01*
X016492Y024578D02*
X016555Y024578D01*
X016555Y024581D02*
X016492Y024581D01*
X016492Y024583D02*
X016555Y024583D01*
X016555Y024586D02*
X016492Y024586D01*
X016492Y024588D02*
X016555Y024588D01*
X016555Y024591D02*
X016492Y024591D01*
X016492Y024593D02*
X016555Y024593D01*
X016555Y024596D02*
X016492Y024596D01*
X016492Y024598D02*
X016555Y024598D01*
X016555Y024600D02*
X016492Y024600D01*
X016492Y024603D02*
X016555Y024603D01*
X016555Y024605D02*
X016492Y024605D01*
X016492Y024608D02*
X016555Y024608D01*
X016555Y024610D02*
X016492Y024610D01*
X016492Y024613D02*
X016555Y024613D01*
X016555Y024615D02*
X016492Y024615D01*
X016492Y024617D02*
X016555Y024617D01*
X016555Y024620D02*
X016492Y024620D01*
X016492Y024622D02*
X016555Y024622D01*
X016555Y024625D02*
X016492Y024625D01*
X016492Y024627D02*
X016555Y024627D01*
X016555Y024630D02*
X016492Y024630D01*
X016492Y024632D02*
X016555Y024632D01*
X016555Y024635D02*
X016492Y024635D01*
X016492Y024637D02*
X016555Y024637D01*
X016555Y024639D02*
X016492Y024639D01*
X016492Y024642D02*
X016555Y024642D01*
X016555Y024644D02*
X016492Y024644D01*
X016492Y024647D02*
X016555Y024647D01*
X016555Y024649D02*
X016492Y024649D01*
X016492Y024652D02*
X016555Y024652D01*
X016555Y024654D02*
X016492Y024654D01*
X016492Y024656D02*
X016555Y024656D01*
X016555Y024659D02*
X016492Y024659D01*
X016492Y024661D02*
X016555Y024661D01*
X016555Y024664D02*
X016492Y024664D01*
X016492Y024666D02*
X016555Y024666D01*
X016555Y024669D02*
X016492Y024669D01*
X016492Y024671D02*
X016555Y024671D01*
X016555Y024674D02*
X016492Y024674D01*
X016492Y024676D02*
X016555Y024676D01*
X016555Y024678D02*
X016492Y024678D01*
X016492Y024681D02*
X016555Y024681D01*
X016555Y024683D02*
X016492Y024683D01*
X016492Y024686D02*
X016555Y024686D01*
X016555Y024688D02*
X016492Y024688D01*
X016492Y024691D02*
X016555Y024691D01*
X016555Y024693D02*
X016492Y024693D01*
X016492Y024695D02*
X016555Y024695D01*
X016555Y024698D02*
X016492Y024698D01*
X016492Y024700D02*
X016555Y024700D01*
X016555Y024703D02*
X016492Y024703D01*
X016492Y024705D02*
X016555Y024705D01*
X016555Y024708D02*
X016492Y024708D01*
X016492Y024710D02*
X016555Y024710D01*
X016555Y024713D02*
X016492Y024713D01*
X016492Y024715D02*
X016555Y024715D01*
X016555Y024717D02*
X016492Y024717D01*
X016492Y024720D02*
X016555Y024720D01*
X016555Y024722D02*
X016492Y024722D01*
X016492Y024725D02*
X016555Y024725D01*
X016555Y024727D02*
X016492Y024727D01*
X016492Y024730D02*
X016555Y024730D01*
X016555Y024732D02*
X016492Y024732D01*
X016492Y024734D02*
X016555Y024734D01*
X016555Y024737D02*
X016492Y024737D01*
X016492Y024739D02*
X016555Y024739D01*
X016555Y024742D02*
X016492Y024742D01*
X016484Y024742D02*
X016280Y024742D01*
X016278Y024744D02*
X016555Y024744D01*
X016555Y024747D02*
X016275Y024747D01*
X016273Y024749D02*
X016555Y024749D01*
X016555Y024752D02*
X016271Y024752D01*
X016283Y024739D02*
X016482Y024739D01*
X016481Y024737D02*
X016285Y024737D01*
X016288Y024734D02*
X016480Y024734D01*
X016479Y024732D02*
X016290Y024732D01*
X016292Y024730D02*
X016478Y024730D01*
X016476Y024727D02*
X016295Y024727D01*
X016300Y024725D02*
X016474Y024725D01*
X016472Y024722D02*
X016304Y024722D01*
X016309Y024720D02*
X016469Y024720D01*
X016465Y024717D02*
X016313Y024717D01*
X016315Y024715D02*
X016460Y024715D01*
X016455Y024713D02*
X016317Y024713D01*
X016322Y024710D02*
X016450Y024710D01*
X016446Y024708D02*
X016329Y024708D01*
X016337Y024705D02*
X016441Y024705D01*
X016555Y024566D02*
X016555Y025050D01*
X016169Y025051D02*
X016027Y025051D01*
X016027Y025049D02*
X016169Y025049D01*
X016169Y025046D02*
X016027Y025046D01*
X016027Y025044D02*
X016169Y025044D01*
X016169Y025042D02*
X016027Y025042D01*
X016027Y025039D02*
X016169Y025039D01*
X016169Y025037D02*
X016027Y025037D01*
X016027Y025034D02*
X016169Y025034D01*
X016169Y025032D02*
X016027Y025032D01*
X016027Y025029D02*
X016169Y025029D01*
X016169Y025027D02*
X016027Y025027D01*
X016027Y025024D02*
X016169Y025024D01*
X016169Y025022D02*
X016027Y025022D01*
X016027Y025020D02*
X016169Y025020D01*
X016169Y025017D02*
X016027Y025017D01*
X016027Y025015D02*
X016169Y025015D01*
X016169Y025012D02*
X016027Y025012D01*
X016027Y025010D02*
X016169Y025010D01*
X016169Y025007D02*
X016027Y025007D01*
X016027Y025005D02*
X016169Y025005D01*
X016169Y025003D02*
X016027Y025003D01*
X016027Y025000D02*
X016169Y025000D01*
X016169Y024998D02*
X016027Y024998D01*
X016027Y024995D02*
X016169Y024995D01*
X016169Y024993D02*
X016027Y024993D01*
X016027Y024990D02*
X016169Y024990D01*
X016169Y024988D02*
X016027Y024988D01*
X016027Y024985D02*
X016169Y024985D01*
X016169Y024983D02*
X016027Y024983D01*
X015875Y024983D01*
X015874Y024985D02*
X016026Y024985D01*
X016027Y024983D02*
X016027Y024943D01*
X015917Y024703D01*
X015756Y024703D01*
X015878Y024947D01*
X015878Y024979D01*
X015756Y025176D01*
X015909Y025176D01*
X016027Y024983D01*
X016027Y024981D02*
X015877Y024981D01*
X015878Y024978D02*
X016027Y024978D01*
X016169Y024978D01*
X016169Y024976D02*
X016027Y024976D01*
X015878Y024976D01*
X015878Y024973D02*
X016027Y024973D01*
X016169Y024973D01*
X016169Y024971D02*
X016027Y024971D01*
X015878Y024971D01*
X015878Y024968D02*
X016027Y024968D01*
X016169Y024968D01*
X016169Y024966D02*
X016027Y024966D01*
X015878Y024966D01*
X015878Y024964D02*
X016027Y024964D01*
X016169Y024964D01*
X016169Y024961D02*
X016027Y024961D01*
X015878Y024961D01*
X015878Y024959D02*
X016027Y024959D01*
X016169Y024959D01*
X016169Y024956D02*
X016027Y024956D01*
X015878Y024956D01*
X015878Y024954D02*
X016027Y024954D01*
X016169Y024954D01*
X016169Y024951D02*
X016027Y024951D01*
X015878Y024951D01*
X015878Y024949D02*
X016027Y024949D01*
X016169Y024949D01*
X016169Y024946D02*
X016027Y024946D01*
X015877Y024946D01*
X015876Y024944D02*
X016027Y024944D01*
X016169Y024944D01*
X016169Y024942D02*
X016027Y024942D01*
X015875Y024942D01*
X015874Y024939D02*
X016025Y024939D01*
X016024Y024937D02*
X015872Y024937D01*
X015871Y024934D02*
X016023Y024934D01*
X016022Y024932D02*
X015870Y024932D01*
X015869Y024929D02*
X016021Y024929D01*
X016020Y024927D02*
X015868Y024927D01*
X015866Y024925D02*
X016019Y024925D01*
X016018Y024922D02*
X015865Y024922D01*
X015864Y024920D02*
X016016Y024920D01*
X016015Y024917D02*
X015863Y024917D01*
X015861Y024915D02*
X016014Y024915D01*
X016013Y024912D02*
X015860Y024912D01*
X015859Y024910D02*
X016012Y024910D01*
X016011Y024907D02*
X015858Y024907D01*
X015857Y024905D02*
X016010Y024905D01*
X016009Y024903D02*
X015855Y024903D01*
X015854Y024900D02*
X016008Y024900D01*
X016006Y024898D02*
X015853Y024898D01*
X015852Y024895D02*
X016005Y024895D01*
X016004Y024893D02*
X015851Y024893D01*
X015849Y024890D02*
X016003Y024890D01*
X016002Y024888D02*
X015848Y024888D01*
X015847Y024886D02*
X016001Y024886D01*
X016000Y024883D02*
X015846Y024883D01*
X015844Y024881D02*
X015999Y024881D01*
X015997Y024878D02*
X015843Y024878D01*
X015842Y024876D02*
X015996Y024876D01*
X015995Y024873D02*
X015841Y024873D01*
X015840Y024871D02*
X015994Y024871D01*
X015993Y024869D02*
X015838Y024869D01*
X015837Y024866D02*
X015992Y024866D01*
X015991Y024864D02*
X015836Y024864D01*
X015835Y024861D02*
X015990Y024861D01*
X015989Y024859D02*
X015833Y024859D01*
X015832Y024856D02*
X015987Y024856D01*
X015986Y024854D02*
X015831Y024854D01*
X015830Y024851D02*
X015985Y024851D01*
X015984Y024849D02*
X015829Y024849D01*
X015827Y024847D02*
X015983Y024847D01*
X015982Y024844D02*
X015826Y024844D01*
X015825Y024842D02*
X015981Y024842D01*
X015980Y024839D02*
X015824Y024839D01*
X015822Y024837D02*
X015978Y024837D01*
X015977Y024834D02*
X015821Y024834D01*
X015820Y024832D02*
X015976Y024832D01*
X015975Y024830D02*
X015819Y024830D01*
X015818Y024827D02*
X015974Y024827D01*
X015973Y024825D02*
X015816Y024825D01*
X015815Y024822D02*
X015972Y024822D01*
X015971Y024820D02*
X015814Y024820D01*
X015813Y024817D02*
X015969Y024817D01*
X015968Y024815D02*
X015812Y024815D01*
X015810Y024812D02*
X015967Y024812D01*
X015966Y024810D02*
X015809Y024810D01*
X015808Y024808D02*
X015965Y024808D01*
X015964Y024805D02*
X015807Y024805D01*
X015805Y024803D02*
X015963Y024803D01*
X015962Y024800D02*
X015804Y024800D01*
X015803Y024798D02*
X015961Y024798D01*
X015959Y024795D02*
X015802Y024795D01*
X015801Y024793D02*
X015958Y024793D01*
X015957Y024791D02*
X015799Y024791D01*
X015798Y024788D02*
X015956Y024788D01*
X015955Y024786D02*
X015797Y024786D01*
X015796Y024783D02*
X015954Y024783D01*
X015953Y024781D02*
X015794Y024781D01*
X015793Y024778D02*
X015952Y024778D01*
X015950Y024776D02*
X015792Y024776D01*
X015791Y024773D02*
X015949Y024773D01*
X015948Y024771D02*
X015790Y024771D01*
X015788Y024769D02*
X015947Y024769D01*
X015946Y024766D02*
X015787Y024766D01*
X015786Y024764D02*
X015945Y024764D01*
X015944Y024761D02*
X015785Y024761D01*
X015783Y024759D02*
X015943Y024759D01*
X015942Y024756D02*
X015782Y024756D01*
X015781Y024754D02*
X015940Y024754D01*
X015939Y024752D02*
X015780Y024752D01*
X015779Y024749D02*
X015938Y024749D01*
X015937Y024747D02*
X015777Y024747D01*
X015776Y024744D02*
X015936Y024744D01*
X015935Y024742D02*
X015775Y024742D01*
X015774Y024739D02*
X015934Y024739D01*
X015933Y024737D02*
X015773Y024737D01*
X015771Y024734D02*
X015931Y024734D01*
X015930Y024732D02*
X015770Y024732D01*
X015769Y024730D02*
X015929Y024730D01*
X015928Y024727D02*
X015768Y024727D01*
X015766Y024725D02*
X015927Y024725D01*
X015926Y024722D02*
X015765Y024722D01*
X015764Y024720D02*
X015925Y024720D01*
X015924Y024717D02*
X015763Y024717D01*
X015762Y024715D02*
X015922Y024715D01*
X015921Y024713D02*
X015760Y024713D01*
X015759Y024710D02*
X015920Y024710D01*
X015919Y024708D02*
X015758Y024708D01*
X015757Y024705D02*
X015918Y024705D01*
X016027Y024705D02*
X016169Y024705D01*
X016169Y024703D02*
X016027Y024703D01*
X016027Y025176D01*
X016169Y025176D01*
X016169Y024703D01*
X016169Y024708D02*
X016027Y024708D01*
X016027Y024710D02*
X016169Y024710D01*
X016169Y024713D02*
X016027Y024713D01*
X016027Y024715D02*
X016169Y024715D01*
X016169Y024717D02*
X016027Y024717D01*
X016027Y024720D02*
X016169Y024720D01*
X016169Y024722D02*
X016027Y024722D01*
X016027Y024725D02*
X016169Y024725D01*
X016169Y024727D02*
X016027Y024727D01*
X016027Y024730D02*
X016169Y024730D01*
X016169Y024732D02*
X016027Y024732D01*
X016027Y024734D02*
X016169Y024734D01*
X016169Y024737D02*
X016027Y024737D01*
X016027Y024739D02*
X016169Y024739D01*
X016169Y024742D02*
X016027Y024742D01*
X016027Y024744D02*
X016169Y024744D01*
X016169Y024747D02*
X016027Y024747D01*
X016027Y024749D02*
X016169Y024749D01*
X016169Y024752D02*
X016027Y024752D01*
X016027Y024754D02*
X016169Y024754D01*
X016169Y024756D02*
X016027Y024756D01*
X016027Y024759D02*
X016169Y024759D01*
X016169Y024761D02*
X016027Y024761D01*
X016027Y024764D02*
X016169Y024764D01*
X016169Y024766D02*
X016027Y024766D01*
X016027Y024769D02*
X016169Y024769D01*
X016169Y024771D02*
X016027Y024771D01*
X016027Y024773D02*
X016169Y024773D01*
X016169Y024776D02*
X016027Y024776D01*
X016027Y024778D02*
X016169Y024778D01*
X016169Y024781D02*
X016027Y024781D01*
X016027Y024783D02*
X016169Y024783D01*
X016169Y024786D02*
X016027Y024786D01*
X016027Y024788D02*
X016169Y024788D01*
X016169Y024791D02*
X016027Y024791D01*
X016027Y024793D02*
X016169Y024793D01*
X016169Y024795D02*
X016027Y024795D01*
X016027Y024798D02*
X016169Y024798D01*
X016169Y024800D02*
X016027Y024800D01*
X016027Y024803D02*
X016169Y024803D01*
X016169Y024805D02*
X016027Y024805D01*
X016027Y024808D02*
X016169Y024808D01*
X016169Y024810D02*
X016027Y024810D01*
X016027Y024812D02*
X016169Y024812D01*
X016169Y024815D02*
X016027Y024815D01*
X016027Y024817D02*
X016169Y024817D01*
X016169Y024820D02*
X016027Y024820D01*
X016027Y024822D02*
X016169Y024822D01*
X016169Y024825D02*
X016027Y024825D01*
X016027Y024827D02*
X016169Y024827D01*
X016169Y024830D02*
X016027Y024830D01*
X016027Y024832D02*
X016169Y024832D01*
X016169Y024834D02*
X016027Y024834D01*
X016027Y024837D02*
X016169Y024837D01*
X016169Y024839D02*
X016027Y024839D01*
X016027Y024842D02*
X016169Y024842D01*
X016169Y024844D02*
X016027Y024844D01*
X016027Y024847D02*
X016169Y024847D01*
X016169Y024849D02*
X016027Y024849D01*
X016027Y024851D02*
X016169Y024851D01*
X016169Y024854D02*
X016027Y024854D01*
X016027Y024856D02*
X016169Y024856D01*
X016169Y024859D02*
X016027Y024859D01*
X016027Y024861D02*
X016169Y024861D01*
X016169Y024864D02*
X016027Y024864D01*
X016027Y024866D02*
X016169Y024866D01*
X016169Y024869D02*
X016027Y024869D01*
X016027Y024871D02*
X016169Y024871D01*
X016169Y024873D02*
X016027Y024873D01*
X016027Y024876D02*
X016169Y024876D01*
X016169Y024878D02*
X016027Y024878D01*
X016027Y024881D02*
X016169Y024881D01*
X016169Y024883D02*
X016027Y024883D01*
X016027Y024886D02*
X016169Y024886D01*
X016169Y024888D02*
X016027Y024888D01*
X016027Y024890D02*
X016169Y024890D01*
X016169Y024893D02*
X016027Y024893D01*
X016027Y024895D02*
X016169Y024895D01*
X016169Y024898D02*
X016027Y024898D01*
X016027Y024900D02*
X016169Y024900D01*
X016169Y024903D02*
X016027Y024903D01*
X016027Y024905D02*
X016169Y024905D01*
X016169Y024907D02*
X016027Y024907D01*
X016027Y024910D02*
X016169Y024910D01*
X016169Y024912D02*
X016027Y024912D01*
X016027Y024915D02*
X016169Y024915D01*
X016169Y024917D02*
X016027Y024917D01*
X016027Y024920D02*
X016169Y024920D01*
X016169Y024922D02*
X016027Y024922D01*
X016027Y024925D02*
X016169Y024925D01*
X016169Y024927D02*
X016027Y024927D01*
X016027Y024929D02*
X016169Y024929D01*
X016169Y024932D02*
X016027Y024932D01*
X016027Y024934D02*
X016169Y024934D01*
X016169Y024937D02*
X016027Y024937D01*
X016027Y024939D02*
X016169Y024939D01*
X016169Y024981D02*
X016027Y024981D01*
X016024Y024988D02*
X015872Y024988D01*
X015871Y024990D02*
X016023Y024990D01*
X016021Y024993D02*
X015869Y024993D01*
X015868Y024995D02*
X016020Y024995D01*
X016018Y024998D02*
X015866Y024998D01*
X015865Y025000D02*
X016017Y025000D01*
X016015Y025003D02*
X015863Y025003D01*
X015862Y025005D02*
X016014Y025005D01*
X016012Y025007D02*
X015860Y025007D01*
X015859Y025010D02*
X016011Y025010D01*
X016009Y025012D02*
X015857Y025012D01*
X015856Y025015D02*
X016008Y025015D01*
X016006Y025017D02*
X015854Y025017D01*
X015853Y025020D02*
X016005Y025020D01*
X016003Y025022D02*
X015851Y025022D01*
X015850Y025024D02*
X016002Y025024D01*
X016000Y025027D02*
X015848Y025027D01*
X015846Y025029D02*
X015999Y025029D01*
X015997Y025032D02*
X015845Y025032D01*
X015843Y025034D02*
X015996Y025034D01*
X015994Y025037D02*
X015842Y025037D01*
X015840Y025039D02*
X015993Y025039D01*
X015991Y025042D02*
X015839Y025042D01*
X015837Y025044D02*
X015990Y025044D01*
X015988Y025046D02*
X015836Y025046D01*
X015834Y025049D02*
X015987Y025049D01*
X015985Y025051D02*
X015833Y025051D01*
X015831Y025054D02*
X015984Y025054D01*
X015982Y025056D02*
X015830Y025056D01*
X015828Y025059D02*
X015981Y025059D01*
X015980Y025061D02*
X015827Y025061D01*
X015825Y025063D02*
X015978Y025063D01*
X015977Y025066D02*
X015824Y025066D01*
X015822Y025068D02*
X015975Y025068D01*
X015974Y025071D02*
X015821Y025071D01*
X015819Y025073D02*
X015972Y025073D01*
X015971Y025076D02*
X015818Y025076D01*
X015816Y025078D02*
X015969Y025078D01*
X015968Y025081D02*
X015815Y025081D01*
X015813Y025083D02*
X015966Y025083D01*
X015965Y025085D02*
X015812Y025085D01*
X015810Y025088D02*
X015963Y025088D01*
X015962Y025090D02*
X015809Y025090D01*
X015807Y025093D02*
X015960Y025093D01*
X015959Y025095D02*
X015806Y025095D01*
X015804Y025098D02*
X015957Y025098D01*
X015956Y025100D02*
X015803Y025100D01*
X015801Y025102D02*
X015954Y025102D01*
X015953Y025105D02*
X015800Y025105D01*
X015798Y025107D02*
X015951Y025107D01*
X015950Y025110D02*
X015797Y025110D01*
X015795Y025112D02*
X015948Y025112D01*
X015947Y025115D02*
X015794Y025115D01*
X015792Y025117D02*
X015945Y025117D01*
X015944Y025120D02*
X015791Y025120D01*
X015789Y025122D02*
X015942Y025122D01*
X015941Y025124D02*
X015788Y025124D01*
X015786Y025127D02*
X015939Y025127D01*
X015938Y025129D02*
X015785Y025129D01*
X015783Y025132D02*
X015936Y025132D01*
X015935Y025134D02*
X015782Y025134D01*
X015780Y025137D02*
X015933Y025137D01*
X015932Y025139D02*
X015778Y025139D01*
X015777Y025141D02*
X015930Y025141D01*
X015929Y025144D02*
X015775Y025144D01*
X015774Y025146D02*
X015927Y025146D01*
X015926Y025149D02*
X015772Y025149D01*
X015771Y025151D02*
X015924Y025151D01*
X015923Y025154D02*
X015769Y025154D01*
X015768Y025156D02*
X015921Y025156D01*
X015920Y025159D02*
X015766Y025159D01*
X015765Y025161D02*
X015918Y025161D01*
X015917Y025163D02*
X015763Y025163D01*
X015762Y025166D02*
X015915Y025166D01*
X015914Y025168D02*
X015760Y025168D01*
X015759Y025171D02*
X015912Y025171D01*
X015911Y025173D02*
X015757Y025173D01*
X015756Y025176D02*
X015909Y025176D01*
X016027Y025176D02*
X016169Y025176D01*
X016169Y025173D02*
X016027Y025173D01*
X016027Y025171D02*
X016169Y025171D01*
X016169Y025168D02*
X016027Y025168D01*
X016027Y025166D02*
X016169Y025166D01*
X016169Y025163D02*
X016027Y025163D01*
X016027Y025161D02*
X016169Y025161D01*
X016169Y025159D02*
X016027Y025159D01*
X016027Y025156D02*
X016169Y025156D01*
X016169Y025154D02*
X016027Y025154D01*
X016027Y025151D02*
X016169Y025151D01*
X016169Y025149D02*
X016027Y025149D01*
X016027Y025146D02*
X016169Y025146D01*
X016169Y025144D02*
X016027Y025144D01*
X016027Y025141D02*
X016169Y025141D01*
X016169Y025139D02*
X016027Y025139D01*
X016027Y025137D02*
X016169Y025137D01*
X016169Y025134D02*
X016027Y025134D01*
X016027Y025132D02*
X016169Y025132D01*
X016169Y025129D02*
X016027Y025129D01*
X016027Y025127D02*
X016169Y025127D01*
X016169Y025124D02*
X016027Y025124D01*
X016027Y025122D02*
X016169Y025122D01*
X016169Y025120D02*
X016027Y025120D01*
X016027Y025117D02*
X016169Y025117D01*
X016169Y025115D02*
X016027Y025115D01*
X016027Y025112D02*
X016169Y025112D01*
X016169Y025110D02*
X016027Y025110D01*
X016027Y025107D02*
X016169Y025107D01*
X016169Y025105D02*
X016027Y025105D01*
X016027Y025102D02*
X016169Y025102D01*
X016169Y025100D02*
X016027Y025100D01*
X016027Y025098D02*
X016169Y025098D01*
X016169Y025095D02*
X016027Y025095D01*
X016027Y025093D02*
X016169Y025093D01*
X016169Y025090D02*
X016027Y025090D01*
X016027Y025088D02*
X016169Y025088D01*
X016169Y025085D02*
X016027Y025085D01*
X016027Y025083D02*
X016169Y025083D01*
X016169Y025081D02*
X016027Y025081D01*
X016027Y025078D02*
X016169Y025078D01*
X016169Y025076D02*
X016027Y025076D01*
X016027Y025073D02*
X016169Y025073D01*
X016169Y025071D02*
X016027Y025071D01*
X016027Y025068D02*
X016169Y025068D01*
X016169Y025066D02*
X016027Y025066D01*
X016027Y025063D02*
X016169Y025063D01*
X016169Y025061D02*
X016027Y025061D01*
X016027Y025059D02*
X016169Y025059D01*
X016169Y025056D02*
X016027Y025056D01*
X016027Y025054D02*
X016169Y025054D01*
X015712Y025054D02*
X015571Y025054D01*
X015571Y025056D02*
X015712Y025056D01*
X015712Y025059D02*
X015571Y025059D01*
X015571Y025061D02*
X015712Y025061D01*
X015712Y025063D02*
X015571Y025063D01*
X015571Y025066D02*
X015712Y025066D01*
X015712Y025068D02*
X015571Y025068D01*
X015571Y025071D02*
X015712Y025071D01*
X015712Y025073D02*
X015571Y025073D01*
X015571Y025076D02*
X015712Y025076D01*
X015712Y025078D02*
X015571Y025078D01*
X015571Y025081D02*
X015712Y025081D01*
X015712Y025083D02*
X015571Y025083D01*
X015571Y025085D02*
X015712Y025085D01*
X015712Y025088D02*
X015571Y025088D01*
X015571Y025090D02*
X015712Y025090D01*
X015712Y025093D02*
X015571Y025093D01*
X015571Y025095D02*
X015712Y025095D01*
X015712Y025098D02*
X015571Y025098D01*
X015571Y025100D02*
X015712Y025100D01*
X015712Y025102D02*
X015571Y025102D01*
X015571Y025105D02*
X015712Y025105D01*
X015712Y025107D02*
X015571Y025107D01*
X015571Y025110D02*
X015712Y025110D01*
X015712Y025112D02*
X015571Y025112D01*
X015571Y025115D02*
X015712Y025115D01*
X015712Y025117D02*
X015571Y025117D01*
X015571Y025120D02*
X015712Y025120D01*
X015712Y025122D02*
X015571Y025122D01*
X015571Y025124D02*
X015712Y025124D01*
X015712Y025127D02*
X015571Y025127D01*
X015571Y025129D02*
X015712Y025129D01*
X015712Y025132D02*
X015571Y025132D01*
X015571Y025134D02*
X015712Y025134D01*
X015712Y025137D02*
X015571Y025137D01*
X015571Y025139D02*
X015712Y025139D01*
X015712Y025141D02*
X015571Y025141D01*
X015571Y025144D02*
X015712Y025144D01*
X015712Y025146D02*
X015571Y025146D01*
X015571Y025149D02*
X015712Y025149D01*
X015712Y025151D02*
X015571Y025151D01*
X015571Y025154D02*
X015712Y025154D01*
X015712Y025156D02*
X015571Y025156D01*
X015571Y025159D02*
X015712Y025159D01*
X015712Y025161D02*
X015571Y025161D01*
X015571Y025163D02*
X015712Y025163D01*
X015712Y025166D02*
X015571Y025166D01*
X015571Y025168D02*
X015712Y025168D01*
X015712Y025171D02*
X015571Y025171D01*
X015571Y025173D02*
X015712Y025173D01*
X015712Y025176D02*
X015571Y025176D01*
X015712Y025176D01*
X015712Y024703D01*
X015571Y024703D01*
X015571Y025176D01*
X015523Y025176D02*
X015169Y025176D01*
X015169Y025042D01*
X015271Y025042D01*
X015271Y024703D01*
X015421Y024703D01*
X015421Y025042D01*
X015523Y025042D01*
X015523Y025176D01*
X015169Y025176D01*
X015169Y025173D02*
X015523Y025173D01*
X015523Y025171D02*
X015169Y025171D01*
X015169Y025168D02*
X015523Y025168D01*
X015523Y025166D02*
X015169Y025166D01*
X015169Y025163D02*
X015523Y025163D01*
X015523Y025161D02*
X015169Y025161D01*
X015169Y025159D02*
X015523Y025159D01*
X015523Y025156D02*
X015169Y025156D01*
X015169Y025154D02*
X015523Y025154D01*
X015523Y025151D02*
X015169Y025151D01*
X015169Y025149D02*
X015523Y025149D01*
X015523Y025146D02*
X015169Y025146D01*
X015169Y025144D02*
X015523Y025144D01*
X015523Y025141D02*
X015169Y025141D01*
X015169Y025139D02*
X015523Y025139D01*
X015523Y025137D02*
X015169Y025137D01*
X015169Y025134D02*
X015523Y025134D01*
X015523Y025132D02*
X015169Y025132D01*
X015169Y025129D02*
X015523Y025129D01*
X015523Y025127D02*
X015169Y025127D01*
X015169Y025124D02*
X015523Y025124D01*
X015523Y025122D02*
X015169Y025122D01*
X015169Y025120D02*
X015523Y025120D01*
X015523Y025117D02*
X015169Y025117D01*
X015169Y025115D02*
X015523Y025115D01*
X015523Y025112D02*
X015169Y025112D01*
X015169Y025110D02*
X015523Y025110D01*
X015523Y025107D02*
X015169Y025107D01*
X015169Y025105D02*
X015523Y025105D01*
X015523Y025102D02*
X015169Y025102D01*
X015169Y025100D02*
X015523Y025100D01*
X015523Y025098D02*
X015169Y025098D01*
X015169Y025095D02*
X015523Y025095D01*
X015523Y025093D02*
X015169Y025093D01*
X015169Y025090D02*
X015523Y025090D01*
X015523Y025088D02*
X015169Y025088D01*
X015169Y025085D02*
X015523Y025085D01*
X015523Y025083D02*
X015169Y025083D01*
X015169Y025081D02*
X015523Y025081D01*
X015523Y025078D02*
X015169Y025078D01*
X015169Y025076D02*
X015523Y025076D01*
X015523Y025073D02*
X015169Y025073D01*
X015169Y025071D02*
X015523Y025071D01*
X015523Y025068D02*
X015169Y025068D01*
X015169Y025066D02*
X015523Y025066D01*
X015523Y025063D02*
X015169Y025063D01*
X015169Y025061D02*
X015523Y025061D01*
X015523Y025059D02*
X015169Y025059D01*
X015169Y025056D02*
X015523Y025056D01*
X015523Y025054D02*
X015169Y025054D01*
X015169Y025051D02*
X015523Y025051D01*
X015523Y025049D02*
X015169Y025049D01*
X015169Y025046D02*
X015523Y025046D01*
X015523Y025044D02*
X015169Y025044D01*
X015271Y025042D02*
X015421Y025042D01*
X015421Y025039D02*
X015271Y025039D01*
X015271Y025037D02*
X015421Y025037D01*
X015421Y025034D02*
X015271Y025034D01*
X015271Y025032D02*
X015421Y025032D01*
X015421Y025029D02*
X015271Y025029D01*
X015271Y025027D02*
X015421Y025027D01*
X015421Y025024D02*
X015271Y025024D01*
X015271Y025022D02*
X015421Y025022D01*
X015421Y025020D02*
X015271Y025020D01*
X015271Y025017D02*
X015421Y025017D01*
X015421Y025015D02*
X015271Y025015D01*
X015271Y025012D02*
X015421Y025012D01*
X015421Y025010D02*
X015271Y025010D01*
X015271Y025007D02*
X015421Y025007D01*
X015421Y025005D02*
X015271Y025005D01*
X015271Y025003D02*
X015421Y025003D01*
X015421Y025000D02*
X015271Y025000D01*
X015271Y024998D02*
X015421Y024998D01*
X015421Y024995D02*
X015271Y024995D01*
X015271Y024993D02*
X015421Y024993D01*
X015421Y024990D02*
X015271Y024990D01*
X015271Y024988D02*
X015421Y024988D01*
X015421Y024985D02*
X015271Y024985D01*
X015271Y024983D02*
X015421Y024983D01*
X015421Y024981D02*
X015271Y024981D01*
X015271Y024978D02*
X015421Y024978D01*
X015421Y024976D02*
X015271Y024976D01*
X015271Y024973D02*
X015421Y024973D01*
X015421Y024971D02*
X015271Y024971D01*
X015271Y024968D02*
X015421Y024968D01*
X015421Y024966D02*
X015271Y024966D01*
X015271Y024964D02*
X015421Y024964D01*
X015421Y024961D02*
X015271Y024961D01*
X015271Y024959D02*
X015421Y024959D01*
X015421Y024956D02*
X015271Y024956D01*
X015271Y024954D02*
X015421Y024954D01*
X015421Y024951D02*
X015271Y024951D01*
X015271Y024949D02*
X015421Y024949D01*
X015421Y024946D02*
X015271Y024946D01*
X015271Y024944D02*
X015421Y024944D01*
X015421Y024942D02*
X015271Y024942D01*
X015271Y024939D02*
X015421Y024939D01*
X015421Y024937D02*
X015271Y024937D01*
X015271Y024934D02*
X015421Y024934D01*
X015421Y024932D02*
X015271Y024932D01*
X015271Y024929D02*
X015421Y024929D01*
X015421Y024927D02*
X015271Y024927D01*
X015271Y024925D02*
X015421Y024925D01*
X015421Y024922D02*
X015271Y024922D01*
X015271Y024920D02*
X015421Y024920D01*
X015421Y024917D02*
X015271Y024917D01*
X015271Y024915D02*
X015421Y024915D01*
X015421Y024912D02*
X015271Y024912D01*
X015271Y024910D02*
X015421Y024910D01*
X015421Y024907D02*
X015271Y024907D01*
X015271Y024905D02*
X015421Y024905D01*
X015421Y024903D02*
X015271Y024903D01*
X015271Y024900D02*
X015421Y024900D01*
X015421Y024898D02*
X015271Y024898D01*
X015271Y024895D02*
X015421Y024895D01*
X015421Y024893D02*
X015271Y024893D01*
X015271Y024890D02*
X015421Y024890D01*
X015421Y024888D02*
X015271Y024888D01*
X015271Y024886D02*
X015421Y024886D01*
X015421Y024883D02*
X015271Y024883D01*
X015271Y024881D02*
X015421Y024881D01*
X015421Y024878D02*
X015271Y024878D01*
X015271Y024876D02*
X015421Y024876D01*
X015421Y024873D02*
X015271Y024873D01*
X015271Y024871D02*
X015421Y024871D01*
X015421Y024869D02*
X015271Y024869D01*
X015271Y024866D02*
X015421Y024866D01*
X015421Y024864D02*
X015271Y024864D01*
X015271Y024861D02*
X015421Y024861D01*
X015421Y024859D02*
X015271Y024859D01*
X015271Y024856D02*
X015421Y024856D01*
X015421Y024854D02*
X015271Y024854D01*
X015271Y024851D02*
X015421Y024851D01*
X015421Y024849D02*
X015271Y024849D01*
X015271Y024847D02*
X015421Y024847D01*
X015421Y024844D02*
X015271Y024844D01*
X015271Y024842D02*
X015421Y024842D01*
X015421Y024839D02*
X015271Y024839D01*
X015271Y024837D02*
X015421Y024837D01*
X015421Y024834D02*
X015271Y024834D01*
X015271Y024832D02*
X015421Y024832D01*
X015421Y024830D02*
X015271Y024830D01*
X015271Y024827D02*
X015421Y024827D01*
X015421Y024825D02*
X015271Y024825D01*
X015271Y024822D02*
X015421Y024822D01*
X015421Y024820D02*
X015271Y024820D01*
X015271Y024817D02*
X015421Y024817D01*
X015421Y024815D02*
X015271Y024815D01*
X015271Y024812D02*
X015421Y024812D01*
X015421Y024810D02*
X015271Y024810D01*
X015271Y024808D02*
X015421Y024808D01*
X015421Y024805D02*
X015271Y024805D01*
X015271Y024803D02*
X015421Y024803D01*
X015421Y024800D02*
X015271Y024800D01*
X015271Y024798D02*
X015421Y024798D01*
X015421Y024795D02*
X015271Y024795D01*
X015271Y024793D02*
X015421Y024793D01*
X015421Y024791D02*
X015271Y024791D01*
X015271Y024788D02*
X015421Y024788D01*
X015421Y024786D02*
X015271Y024786D01*
X015271Y024783D02*
X015421Y024783D01*
X015421Y024781D02*
X015271Y024781D01*
X015271Y024778D02*
X015421Y024778D01*
X015421Y024776D02*
X015271Y024776D01*
X015271Y024773D02*
X015421Y024773D01*
X015421Y024771D02*
X015271Y024771D01*
X015271Y024769D02*
X015421Y024769D01*
X015421Y024766D02*
X015271Y024766D01*
X015271Y024764D02*
X015421Y024764D01*
X015421Y024761D02*
X015271Y024761D01*
X015271Y024759D02*
X015421Y024759D01*
X015421Y024756D02*
X015271Y024756D01*
X015271Y024754D02*
X015421Y024754D01*
X015421Y024752D02*
X015271Y024752D01*
X015271Y024749D02*
X015421Y024749D01*
X015421Y024747D02*
X015271Y024747D01*
X015271Y024744D02*
X015421Y024744D01*
X015421Y024742D02*
X015271Y024742D01*
X015271Y024739D02*
X015421Y024739D01*
X015421Y024737D02*
X015271Y024737D01*
X015271Y024734D02*
X015421Y024734D01*
X015421Y024732D02*
X015271Y024732D01*
X015271Y024730D02*
X015421Y024730D01*
X015421Y024727D02*
X015271Y024727D01*
X015271Y024725D02*
X015421Y024725D01*
X015421Y024722D02*
X015271Y024722D01*
X015271Y024720D02*
X015421Y024720D01*
X015421Y024717D02*
X015271Y024717D01*
X015271Y024715D02*
X015421Y024715D01*
X015421Y024713D02*
X015271Y024713D01*
X015271Y024710D02*
X015421Y024710D01*
X015421Y024708D02*
X015271Y024708D01*
X015271Y024705D02*
X015421Y024705D01*
X015571Y024705D02*
X015712Y024705D01*
X015712Y024708D02*
X015571Y024708D01*
X015571Y024710D02*
X015712Y024710D01*
X015712Y024713D02*
X015571Y024713D01*
X015571Y024715D02*
X015712Y024715D01*
X015712Y024717D02*
X015571Y024717D01*
X015571Y024720D02*
X015712Y024720D01*
X015712Y024722D02*
X015571Y024722D01*
X015571Y024725D02*
X015712Y024725D01*
X015712Y024727D02*
X015571Y024727D01*
X015571Y024730D02*
X015712Y024730D01*
X015712Y024732D02*
X015571Y024732D01*
X015571Y024734D02*
X015712Y024734D01*
X015712Y024737D02*
X015571Y024737D01*
X015571Y024739D02*
X015712Y024739D01*
X015712Y024742D02*
X015571Y024742D01*
X015571Y024744D02*
X015712Y024744D01*
X015712Y024747D02*
X015571Y024747D01*
X015571Y024749D02*
X015712Y024749D01*
X015712Y024752D02*
X015571Y024752D01*
X015571Y024754D02*
X015712Y024754D01*
X015712Y024756D02*
X015571Y024756D01*
X015571Y024759D02*
X015712Y024759D01*
X015712Y024761D02*
X015571Y024761D01*
X015571Y024764D02*
X015712Y024764D01*
X015712Y024766D02*
X015571Y024766D01*
X015571Y024769D02*
X015712Y024769D01*
X015712Y024771D02*
X015571Y024771D01*
X015571Y024773D02*
X015712Y024773D01*
X015712Y024776D02*
X015571Y024776D01*
X015571Y024778D02*
X015712Y024778D01*
X015712Y024781D02*
X015571Y024781D01*
X015571Y024783D02*
X015712Y024783D01*
X015712Y024786D02*
X015571Y024786D01*
X015571Y024788D02*
X015712Y024788D01*
X015712Y024791D02*
X015571Y024791D01*
X015571Y024793D02*
X015712Y024793D01*
X015712Y024795D02*
X015571Y024795D01*
X015571Y024798D02*
X015712Y024798D01*
X015712Y024800D02*
X015571Y024800D01*
X015571Y024803D02*
X015712Y024803D01*
X015712Y024805D02*
X015571Y024805D01*
X015571Y024808D02*
X015712Y024808D01*
X015712Y024810D02*
X015571Y024810D01*
X015571Y024812D02*
X015712Y024812D01*
X015712Y024815D02*
X015571Y024815D01*
X015571Y024817D02*
X015712Y024817D01*
X015712Y024820D02*
X015571Y024820D01*
X015571Y024822D02*
X015712Y024822D01*
X015712Y024825D02*
X015571Y024825D01*
X015571Y024827D02*
X015712Y024827D01*
X015712Y024830D02*
X015571Y024830D01*
X015571Y024832D02*
X015712Y024832D01*
X015712Y024834D02*
X015571Y024834D01*
X015571Y024837D02*
X015712Y024837D01*
X015712Y024839D02*
X015571Y024839D01*
X015571Y024842D02*
X015712Y024842D01*
X015712Y024844D02*
X015571Y024844D01*
X015571Y024847D02*
X015712Y024847D01*
X015712Y024849D02*
X015571Y024849D01*
X015571Y024851D02*
X015712Y024851D01*
X015712Y024854D02*
X015571Y024854D01*
X015571Y024856D02*
X015712Y024856D01*
X015712Y024859D02*
X015571Y024859D01*
X015571Y024861D02*
X015712Y024861D01*
X015712Y024864D02*
X015571Y024864D01*
X015571Y024866D02*
X015712Y024866D01*
X015712Y024869D02*
X015571Y024869D01*
X015571Y024871D02*
X015712Y024871D01*
X015712Y024873D02*
X015571Y024873D01*
X015571Y024876D02*
X015712Y024876D01*
X015712Y024878D02*
X015571Y024878D01*
X015571Y024881D02*
X015712Y024881D01*
X015712Y024883D02*
X015571Y024883D01*
X015571Y024886D02*
X015712Y024886D01*
X015712Y024888D02*
X015571Y024888D01*
X015571Y024890D02*
X015712Y024890D01*
X015712Y024893D02*
X015571Y024893D01*
X015571Y024895D02*
X015712Y024895D01*
X015712Y024898D02*
X015571Y024898D01*
X015571Y024900D02*
X015712Y024900D01*
X015712Y024903D02*
X015571Y024903D01*
X015571Y024905D02*
X015712Y024905D01*
X015712Y024907D02*
X015571Y024907D01*
X015571Y024910D02*
X015712Y024910D01*
X015712Y024912D02*
X015571Y024912D01*
X015571Y024915D02*
X015712Y024915D01*
X015712Y024917D02*
X015571Y024917D01*
X015571Y024920D02*
X015712Y024920D01*
X015712Y024922D02*
X015571Y024922D01*
X015571Y024925D02*
X015712Y024925D01*
X015712Y024927D02*
X015571Y024927D01*
X015571Y024929D02*
X015712Y024929D01*
X015712Y024932D02*
X015571Y024932D01*
X015571Y024934D02*
X015712Y024934D01*
X015712Y024937D02*
X015571Y024937D01*
X015571Y024939D02*
X015712Y024939D01*
X015712Y024942D02*
X015571Y024942D01*
X015571Y024944D02*
X015712Y024944D01*
X015712Y024946D02*
X015571Y024946D01*
X015571Y024949D02*
X015712Y024949D01*
X015712Y024951D02*
X015571Y024951D01*
X015571Y024954D02*
X015712Y024954D01*
X015712Y024956D02*
X015571Y024956D01*
X015571Y024959D02*
X015712Y024959D01*
X015712Y024961D02*
X015571Y024961D01*
X015571Y024964D02*
X015712Y024964D01*
X015712Y024966D02*
X015571Y024966D01*
X015571Y024968D02*
X015712Y024968D01*
X015712Y024971D02*
X015571Y024971D01*
X015571Y024973D02*
X015712Y024973D01*
X015712Y024976D02*
X015571Y024976D01*
X015571Y024978D02*
X015712Y024978D01*
X015712Y024981D02*
X015571Y024981D01*
X015571Y024983D02*
X015712Y024983D01*
X015712Y024985D02*
X015571Y024985D01*
X015571Y024988D02*
X015712Y024988D01*
X015712Y024990D02*
X015571Y024990D01*
X015571Y024993D02*
X015712Y024993D01*
X015712Y024995D02*
X015571Y024995D01*
X015571Y024998D02*
X015712Y024998D01*
X015712Y025000D02*
X015571Y025000D01*
X015571Y025003D02*
X015712Y025003D01*
X015712Y025005D02*
X015571Y025005D01*
X015571Y025007D02*
X015712Y025007D01*
X015712Y025010D02*
X015571Y025010D01*
X015571Y025012D02*
X015712Y025012D01*
X015712Y025015D02*
X015571Y025015D01*
X015571Y025017D02*
X015712Y025017D01*
X015712Y025020D02*
X015571Y025020D01*
X015571Y025022D02*
X015712Y025022D01*
X015712Y025024D02*
X015571Y025024D01*
X015571Y025027D02*
X015712Y025027D01*
X015712Y025029D02*
X015571Y025029D01*
X015571Y025032D02*
X015712Y025032D01*
X015712Y025034D02*
X015571Y025034D01*
X015571Y025037D02*
X015712Y025037D01*
X015712Y025039D02*
X015571Y025039D01*
X015571Y025042D02*
X015712Y025042D01*
X015712Y025044D02*
X015571Y025044D01*
X015571Y025046D02*
X015712Y025046D01*
X015712Y025049D02*
X015571Y025049D01*
X015571Y025051D02*
X015712Y025051D01*
D19*
X015116Y025211D02*
X015050Y025211D01*
X015083Y025211D02*
X015083Y025113D01*
X015007Y025113D02*
X015007Y025211D01*
X014974Y025178D01*
X014942Y025211D01*
X014942Y025113D01*
M02*
