G75*
G70*
%OFA0B0*%
%FSLAX24Y24*%
%IPPOS*%
%LPD*%
%AMOC8*
5,1,8,0,0,1.08239X$1,22.5*
%
%ADD10C,0.0000*%
D10*
X002760Y021800D02*
X002760Y028800D01*
X022760Y028800D01*
X022760Y021800D01*
X002760Y021800D01*
X020583Y024611D02*
X020585Y024637D01*
X020591Y024663D01*
X020601Y024688D01*
X020614Y024711D01*
X020630Y024731D01*
X020650Y024749D01*
X020672Y024764D01*
X020695Y024776D01*
X020721Y024784D01*
X020747Y024788D01*
X020773Y024788D01*
X020799Y024784D01*
X020825Y024776D01*
X020849Y024764D01*
X020870Y024749D01*
X020890Y024731D01*
X020906Y024711D01*
X020919Y024688D01*
X020929Y024663D01*
X020935Y024637D01*
X020937Y024611D01*
X020935Y024585D01*
X020929Y024559D01*
X020919Y024534D01*
X020906Y024511D01*
X020890Y024491D01*
X020870Y024473D01*
X020848Y024458D01*
X020825Y024446D01*
X020799Y024438D01*
X020773Y024434D01*
X020747Y024434D01*
X020721Y024438D01*
X020695Y024446D01*
X020671Y024458D01*
X020650Y024473D01*
X020630Y024491D01*
X020614Y024511D01*
X020601Y024534D01*
X020591Y024559D01*
X020585Y024585D01*
X020583Y024611D01*
X020583Y025989D02*
X020585Y026015D01*
X020591Y026041D01*
X020601Y026066D01*
X020614Y026089D01*
X020630Y026109D01*
X020650Y026127D01*
X020672Y026142D01*
X020695Y026154D01*
X020721Y026162D01*
X020747Y026166D01*
X020773Y026166D01*
X020799Y026162D01*
X020825Y026154D01*
X020849Y026142D01*
X020870Y026127D01*
X020890Y026109D01*
X020906Y026089D01*
X020919Y026066D01*
X020929Y026041D01*
X020935Y026015D01*
X020937Y025989D01*
X020935Y025963D01*
X020929Y025937D01*
X020919Y025912D01*
X020906Y025889D01*
X020890Y025869D01*
X020870Y025851D01*
X020848Y025836D01*
X020825Y025824D01*
X020799Y025816D01*
X020773Y025812D01*
X020747Y025812D01*
X020721Y025816D01*
X020695Y025824D01*
X020671Y025836D01*
X020650Y025851D01*
X020630Y025869D01*
X020614Y025889D01*
X020601Y025912D01*
X020591Y025937D01*
X020585Y025963D01*
X020583Y025989D01*
M02*
