G75*
G70*
%OFA0B0*%
%FSLAX24Y24*%
%IPPOS*%
%LPD*%
%AMOC8*
5,1,8,0,0,1.08239X$1,22.5*
%
%ADD10C,0.0660*%
%ADD11C,0.0740*%
%ADD12C,0.0270*%
%ADD13C,0.0100*%
%ADD14C,0.0080*%
%ADD15C,0.0160*%
D10*
X006700Y020778D03*
X006700Y021778D03*
D11*
X003260Y019698D03*
X004260Y019698D03*
X005260Y019698D03*
X006260Y019698D03*
X007260Y019698D03*
X008260Y019698D03*
X009260Y019698D03*
X010260Y019698D03*
X011260Y019698D03*
X012260Y019698D03*
X013260Y019698D03*
X014260Y019698D03*
X015260Y019698D03*
X016260Y019698D03*
X017260Y019698D03*
X018260Y019698D03*
X019260Y019698D03*
X020260Y019698D03*
X021260Y019698D03*
X022260Y019698D03*
X022260Y025698D03*
X021260Y025698D03*
X020260Y025698D03*
X019260Y025698D03*
X018260Y025698D03*
X017260Y025698D03*
X016260Y025698D03*
X015260Y025698D03*
X014260Y025698D03*
X013260Y025698D03*
X012260Y025698D03*
X011260Y025698D03*
X010260Y025698D03*
X009260Y025698D03*
X008260Y025698D03*
X007260Y025698D03*
X006260Y025698D03*
X005260Y025698D03*
X004260Y025698D03*
X003260Y025698D03*
X003260Y024698D03*
X003260Y023698D03*
X003260Y022698D03*
X003260Y021698D03*
X003260Y020698D03*
D12*
X005000Y023198D03*
X005580Y023278D03*
X004300Y023898D03*
X004940Y024278D03*
X006260Y024498D03*
X007400Y024238D03*
X008320Y023278D03*
X009840Y023078D03*
X010640Y022718D03*
X010980Y022938D03*
X011260Y022678D03*
X011540Y022338D03*
X012160Y021478D03*
X012880Y021678D03*
X014720Y021978D03*
X014840Y021598D03*
X013720Y022658D03*
X014520Y022698D03*
X013460Y023038D03*
X012860Y023658D03*
X011980Y023758D03*
X011620Y023558D03*
X010400Y024258D03*
X009820Y023758D03*
X009660Y022358D03*
X010080Y022038D03*
X010840Y020758D03*
X016200Y023058D03*
X017900Y023038D03*
X018840Y023338D03*
X020460Y022698D03*
X019040Y022378D03*
X020760Y021138D03*
X022040Y022118D03*
X022040Y022538D03*
X022040Y022938D03*
X018760Y024398D03*
X017900Y024598D03*
X015220Y024418D03*
X014800Y024578D03*
X014320Y024578D03*
X013480Y024398D03*
X017420Y021018D03*
X018760Y020198D03*
X020940Y024918D03*
D13*
X020655Y024911D02*
X019950Y024911D01*
X019950Y025009D02*
X020669Y025009D01*
X020655Y024974D02*
X020655Y024861D01*
X020698Y024756D01*
X020778Y024676D01*
X020883Y024633D01*
X020996Y024633D01*
X021101Y024676D01*
X021113Y024688D01*
X021575Y024688D01*
X022092Y025204D01*
X022156Y025178D01*
X022363Y025178D01*
X022554Y025257D01*
X022610Y025312D01*
X022610Y020083D01*
X022554Y020138D01*
X022363Y020218D01*
X022156Y020218D01*
X022092Y020191D01*
X021795Y020488D01*
X021338Y020488D01*
X022118Y021268D01*
X022230Y021379D01*
X022230Y021905D01*
X022281Y021956D01*
X022325Y022061D01*
X022325Y022174D01*
X022281Y022279D01*
X022233Y022328D01*
X022281Y022376D01*
X022325Y022481D01*
X022325Y022594D01*
X022281Y022699D01*
X022243Y022738D01*
X022281Y022776D01*
X022325Y022881D01*
X022325Y022994D01*
X022281Y023099D01*
X022201Y023179D01*
X022096Y023223D01*
X021983Y023223D01*
X021878Y023179D01*
X021798Y023099D01*
X021755Y022994D01*
X021755Y022921D01*
X021410Y022576D01*
X021410Y021576D01*
X020841Y021008D01*
X017705Y021008D01*
X017705Y021074D01*
X017661Y021179D01*
X017581Y021259D01*
X017476Y021303D01*
X017363Y021303D01*
X017258Y021259D01*
X017178Y021179D01*
X017135Y021074D01*
X017135Y021001D01*
X016521Y020388D01*
X012350Y020388D01*
X012350Y021265D01*
X012401Y021316D01*
X012445Y021421D01*
X012445Y021534D01*
X012401Y021639D01*
X012321Y021719D01*
X012216Y021763D01*
X012103Y021763D01*
X011998Y021719D01*
X011918Y021639D01*
X011875Y021534D01*
X011875Y021421D01*
X011918Y021316D01*
X011970Y021265D01*
X011970Y020388D01*
X009681Y020388D01*
X009570Y020276D01*
X009468Y020174D01*
X009363Y020218D01*
X009156Y020218D01*
X008965Y020138D01*
X008819Y019992D01*
X008760Y019849D01*
X008700Y019992D01*
X008662Y020031D01*
X009118Y020488D01*
X010358Y020488D01*
X011618Y021748D01*
X011730Y021859D01*
X011730Y022125D01*
X011781Y022176D01*
X011825Y022281D01*
X011825Y022394D01*
X011781Y022499D01*
X011701Y022579D01*
X011596Y022623D01*
X011545Y022623D01*
X011545Y022734D01*
X011501Y022839D01*
X011421Y022919D01*
X011316Y022963D01*
X011265Y022963D01*
X011265Y022994D01*
X011221Y023099D01*
X011141Y023179D01*
X011036Y023223D01*
X010993Y023223D01*
X011138Y023368D01*
X011406Y023368D01*
X011458Y023316D01*
X011563Y023273D01*
X011676Y023273D01*
X011781Y023316D01*
X011861Y023396D01*
X011897Y023483D01*
X011923Y023473D01*
X012036Y023473D01*
X012141Y023516D01*
X012221Y023596D01*
X012265Y023701D01*
X012265Y023814D01*
X012221Y023919D01*
X012141Y023999D01*
X012036Y024043D01*
X011963Y024043D01*
X011958Y024048D01*
X011001Y024048D01*
X010114Y023160D01*
X010081Y023239D01*
X010001Y023319D01*
X009896Y023363D01*
X009783Y023363D01*
X009678Y023319D01*
X009598Y023239D01*
X009577Y023188D01*
X008591Y023188D01*
X008605Y023221D01*
X008605Y023334D01*
X008561Y023439D01*
X008481Y023519D01*
X008376Y023563D01*
X008303Y023563D01*
X008078Y023788D01*
X005698Y023788D01*
X005225Y024261D01*
X005225Y024334D01*
X005181Y024439D01*
X005101Y024519D01*
X004996Y024563D01*
X004883Y024563D01*
X004778Y024519D01*
X004698Y024439D01*
X004655Y024334D01*
X004655Y024221D01*
X004698Y024116D01*
X004726Y024088D01*
X004513Y024088D01*
X004461Y024139D01*
X004356Y024183D01*
X004243Y024183D01*
X004138Y024139D01*
X004058Y024059D01*
X004015Y023954D01*
X004015Y023841D01*
X004058Y023736D01*
X004138Y023656D01*
X004243Y023613D01*
X004356Y023613D01*
X004461Y023656D01*
X004513Y023708D01*
X004881Y023708D01*
X005295Y023294D01*
X005295Y023221D01*
X005338Y023116D01*
X005418Y023036D01*
X005487Y023008D01*
X004101Y023008D01*
X003990Y022896D01*
X003780Y022686D01*
X003780Y022801D01*
X003700Y022992D01*
X003554Y023138D01*
X003408Y023199D01*
X003459Y023216D01*
X003532Y023253D01*
X003598Y023301D01*
X003656Y023359D01*
X003704Y023425D01*
X003741Y023498D01*
X003767Y023576D01*
X003778Y023648D01*
X003310Y023648D01*
X003310Y023748D01*
X003778Y023748D01*
X003767Y023819D01*
X003741Y023897D01*
X003704Y023970D01*
X003656Y024036D01*
X003598Y024094D01*
X003532Y024142D01*
X003459Y024180D01*
X003408Y024196D01*
X003554Y024257D01*
X003700Y024403D01*
X003780Y024594D01*
X003780Y024801D01*
X003700Y024992D01*
X003554Y025138D01*
X003411Y025198D01*
X003554Y025257D01*
X003700Y025403D01*
X003760Y025546D01*
X003819Y025403D01*
X003965Y025257D01*
X004156Y025178D01*
X004363Y025178D01*
X004554Y025257D01*
X004700Y025403D01*
X004760Y025546D01*
X004819Y025403D01*
X004965Y025257D01*
X005156Y025178D01*
X005363Y025178D01*
X005468Y025221D01*
X005570Y025119D01*
X005570Y024439D01*
X005950Y024059D01*
X006061Y023948D01*
X009361Y023948D01*
X009535Y023774D01*
X009535Y023701D01*
X009578Y023596D01*
X009658Y023516D01*
X009763Y023473D01*
X009876Y023473D01*
X009981Y023516D01*
X010061Y023596D01*
X010105Y023701D01*
X010105Y023814D01*
X010061Y023919D01*
X009981Y023999D01*
X009876Y024043D01*
X009803Y024043D01*
X009630Y024216D01*
X009630Y024216D01*
X009518Y024328D01*
X007671Y024328D01*
X007641Y024399D01*
X007561Y024479D01*
X007456Y024523D01*
X007343Y024523D01*
X007238Y024479D01*
X007158Y024399D01*
X007128Y024328D01*
X006493Y024328D01*
X006501Y024336D01*
X006545Y024441D01*
X006545Y024514D01*
X007038Y025008D01*
X012481Y025008D01*
X012990Y024499D01*
X012990Y024056D01*
X012876Y023943D01*
X012803Y023943D01*
X012698Y023899D01*
X012618Y023819D01*
X012575Y023714D01*
X012575Y023601D01*
X012618Y023496D01*
X012698Y023416D01*
X012803Y023373D01*
X012916Y023373D01*
X013021Y023416D01*
X013101Y023496D01*
X013145Y023601D01*
X013145Y023674D01*
X013370Y023899D01*
X013370Y024656D01*
X013258Y024768D01*
X012662Y025364D01*
X012700Y025403D01*
X012760Y025546D01*
X012819Y025403D01*
X012965Y025257D01*
X013156Y025178D01*
X013363Y025178D01*
X013554Y025257D01*
X013700Y025403D01*
X013760Y025546D01*
X013819Y025403D01*
X013965Y025257D01*
X014039Y025226D01*
X013881Y025068D01*
X013770Y024956D01*
X013770Y023616D01*
X013476Y023323D01*
X013403Y023323D01*
X013298Y023279D01*
X013218Y023199D01*
X013175Y023094D01*
X013175Y022981D01*
X013218Y022876D01*
X013298Y022796D01*
X013403Y022753D01*
X013450Y022753D01*
X013435Y022714D01*
X013435Y022601D01*
X013478Y022496D01*
X013558Y022416D01*
X013637Y022383D01*
X013121Y021868D01*
X013093Y021868D01*
X013041Y021919D01*
X012936Y021963D01*
X012823Y021963D01*
X012718Y021919D01*
X012638Y021839D01*
X012595Y021734D01*
X012595Y021621D01*
X012638Y021516D01*
X012718Y021436D01*
X012823Y021393D01*
X012936Y021393D01*
X013041Y021436D01*
X013093Y021488D01*
X013278Y021488D01*
X014198Y022408D01*
X014310Y022519D01*
X014310Y022799D01*
X014838Y023328D01*
X016290Y023328D01*
X016290Y022619D01*
X016401Y022508D01*
X018741Y022508D01*
X018690Y022456D01*
X018301Y022068D01*
X014991Y022068D01*
X014961Y022139D01*
X014881Y022219D01*
X014776Y022263D01*
X014663Y022263D01*
X014558Y022219D01*
X014478Y022139D01*
X014435Y022034D01*
X014435Y021921D01*
X014478Y021816D01*
X014558Y021736D01*
X014584Y021725D01*
X014555Y021654D01*
X014555Y021541D01*
X014598Y021436D01*
X014678Y021356D01*
X014783Y021313D01*
X014896Y021313D01*
X015001Y021356D01*
X015081Y021436D01*
X015111Y021508D01*
X019998Y021508D01*
X020433Y021942D01*
X020482Y021823D01*
X020574Y021731D01*
X020694Y021681D01*
X020825Y021681D01*
X020945Y021731D01*
X021037Y021823D01*
X021087Y021944D01*
X021087Y022074D01*
X021037Y022194D01*
X020945Y022286D01*
X020825Y022336D01*
X020694Y022336D01*
X020650Y022317D01*
X020650Y022485D01*
X020701Y022536D01*
X020745Y022641D01*
X020745Y022754D01*
X020701Y022859D01*
X020621Y022939D01*
X020516Y022983D01*
X020403Y022983D01*
X020298Y022939D01*
X020218Y022859D01*
X020175Y022754D01*
X020175Y022641D01*
X020218Y022536D01*
X020270Y022485D01*
X020270Y022316D01*
X019841Y021888D01*
X018658Y021888D01*
X018898Y022128D01*
X018983Y022093D01*
X019096Y022093D01*
X019201Y022136D01*
X019281Y022216D01*
X019325Y022321D01*
X019325Y022434D01*
X019294Y022508D01*
X019838Y022508D01*
X019950Y022619D01*
X019950Y025016D01*
X019838Y025128D01*
X018958Y025128D01*
X019052Y025221D01*
X019156Y025178D01*
X019363Y025178D01*
X019554Y025257D01*
X019700Y025403D01*
X019761Y025549D01*
X019778Y025498D01*
X019815Y025425D01*
X019863Y025359D01*
X019921Y025301D01*
X019987Y025253D01*
X020060Y025216D01*
X020138Y025190D01*
X020210Y025179D01*
X020210Y025648D01*
X020310Y025648D01*
X020310Y025179D01*
X020381Y025190D01*
X020459Y025216D01*
X020532Y025253D01*
X020598Y025301D01*
X020656Y025359D01*
X020704Y025425D01*
X020741Y025498D01*
X020758Y025549D01*
X020819Y025403D01*
X020965Y025257D01*
X021156Y025178D01*
X021363Y025178D01*
X021451Y025214D01*
X021384Y025148D01*
X021113Y025148D01*
X021101Y025159D01*
X020996Y025203D01*
X020883Y025203D01*
X020778Y025159D01*
X020698Y025079D01*
X020655Y024974D01*
X020726Y025108D02*
X019858Y025108D01*
X019917Y025305D02*
X019602Y025305D01*
X019700Y025403D02*
X019831Y025403D01*
X019776Y025502D02*
X019741Y025502D01*
X019432Y025206D02*
X020089Y025206D01*
X020210Y025206D02*
X020310Y025206D01*
X020310Y025305D02*
X020210Y025305D01*
X020210Y025403D02*
X020310Y025403D01*
X020310Y025502D02*
X020210Y025502D01*
X020210Y025600D02*
X020310Y025600D01*
X020602Y025305D02*
X020917Y025305D01*
X020819Y025403D02*
X020688Y025403D01*
X020743Y025502D02*
X020778Y025502D01*
X021087Y025206D02*
X020430Y025206D01*
X020675Y024812D02*
X019950Y024812D01*
X019950Y024714D02*
X020740Y024714D01*
X019950Y024615D02*
X022610Y024615D01*
X022610Y024517D02*
X019950Y024517D01*
X019950Y024418D02*
X022610Y024418D01*
X022610Y024320D02*
X019950Y024320D01*
X019950Y024221D02*
X022610Y024221D01*
X022610Y024123D02*
X019950Y024123D01*
X019950Y024024D02*
X022610Y024024D01*
X022610Y023926D02*
X019950Y023926D01*
X019950Y023827D02*
X022610Y023827D01*
X022610Y023729D02*
X019950Y023729D01*
X019950Y023630D02*
X020540Y023630D01*
X020574Y023664D02*
X020482Y023572D01*
X020432Y023452D01*
X020432Y023322D01*
X020482Y023201D01*
X020574Y023109D01*
X020694Y023059D01*
X020825Y023059D01*
X020945Y023109D01*
X021037Y023201D01*
X021087Y023322D01*
X021087Y023452D01*
X021037Y023572D01*
X020945Y023664D01*
X020825Y023714D01*
X020694Y023714D01*
X020574Y023664D01*
X020465Y023532D02*
X019950Y023532D01*
X019950Y023433D02*
X020432Y023433D01*
X020432Y023335D02*
X019950Y023335D01*
X019950Y023236D02*
X020468Y023236D01*
X020546Y023138D02*
X019950Y023138D01*
X019950Y023039D02*
X021773Y023039D01*
X021755Y022941D02*
X020618Y022941D01*
X020708Y022842D02*
X021675Y022842D01*
X021577Y022744D02*
X020745Y022744D01*
X020745Y022645D02*
X021478Y022645D01*
X021410Y022547D02*
X020705Y022547D01*
X020650Y022448D02*
X021410Y022448D01*
X021410Y022350D02*
X020650Y022350D01*
X020980Y022251D02*
X021410Y022251D01*
X021410Y022153D02*
X021054Y022153D01*
X021087Y022054D02*
X021410Y022054D01*
X021410Y021956D02*
X021087Y021956D01*
X021051Y021857D02*
X021410Y021857D01*
X021410Y021759D02*
X020972Y021759D01*
X020547Y021759D02*
X020249Y021759D01*
X020348Y021857D02*
X020468Y021857D01*
X020151Y021660D02*
X021410Y021660D01*
X021395Y021562D02*
X020052Y021562D01*
X019909Y021956D02*
X018726Y021956D01*
X018825Y022054D02*
X020007Y022054D01*
X020106Y022153D02*
X019218Y022153D01*
X019296Y022251D02*
X020204Y022251D01*
X020270Y022350D02*
X019325Y022350D01*
X019319Y022448D02*
X020270Y022448D01*
X020214Y022547D02*
X019877Y022547D01*
X019950Y022645D02*
X020175Y022645D01*
X020175Y022744D02*
X019950Y022744D01*
X019950Y022842D02*
X020211Y022842D01*
X020301Y022941D02*
X019950Y022941D01*
X020973Y023138D02*
X021836Y023138D01*
X022243Y023138D02*
X022610Y023138D01*
X022610Y023236D02*
X021051Y023236D01*
X021087Y023335D02*
X022610Y023335D01*
X022610Y023433D02*
X021087Y023433D01*
X021054Y023532D02*
X022610Y023532D01*
X022610Y023630D02*
X020979Y023630D01*
X022306Y023039D02*
X022610Y023039D01*
X022610Y022941D02*
X022325Y022941D01*
X022308Y022842D02*
X022610Y022842D01*
X022610Y022744D02*
X022249Y022744D01*
X022303Y022645D02*
X022610Y022645D01*
X022610Y022547D02*
X022325Y022547D01*
X022311Y022448D02*
X022610Y022448D01*
X022610Y022350D02*
X022255Y022350D01*
X022293Y022251D02*
X022610Y022251D01*
X022610Y022153D02*
X022325Y022153D01*
X022322Y022054D02*
X022610Y022054D01*
X022610Y021956D02*
X022281Y021956D01*
X022230Y021857D02*
X022610Y021857D01*
X022610Y021759D02*
X022230Y021759D01*
X022230Y021660D02*
X022610Y021660D01*
X022610Y021562D02*
X022230Y021562D01*
X022230Y021463D02*
X022610Y021463D01*
X022610Y021365D02*
X022215Y021365D01*
X022117Y021266D02*
X022610Y021266D01*
X022610Y021168D02*
X022018Y021168D01*
X021920Y021069D02*
X022610Y021069D01*
X022610Y020971D02*
X021821Y020971D01*
X021723Y020872D02*
X022610Y020872D01*
X022610Y020774D02*
X021624Y020774D01*
X021526Y020675D02*
X022610Y020675D01*
X022610Y020577D02*
X021427Y020577D01*
X021804Y020478D02*
X022610Y020478D01*
X022610Y020380D02*
X021903Y020380D01*
X022001Y020281D02*
X022610Y020281D01*
X022610Y020183D02*
X022447Y020183D01*
X022608Y020084D02*
X022610Y020084D01*
X021198Y021365D02*
X015010Y021365D01*
X015092Y021463D02*
X021296Y021463D01*
X021099Y021266D02*
X017564Y021266D01*
X017666Y021168D02*
X021001Y021168D01*
X020902Y021069D02*
X017705Y021069D01*
X017275Y021266D02*
X012351Y021266D01*
X012350Y021168D02*
X017173Y021168D01*
X017135Y021069D02*
X012350Y021069D01*
X012350Y020971D02*
X017104Y020971D01*
X017005Y020872D02*
X012350Y020872D01*
X012350Y020774D02*
X016907Y020774D01*
X016808Y020675D02*
X012350Y020675D01*
X012350Y020577D02*
X016710Y020577D01*
X016611Y020478D02*
X012350Y020478D01*
X011970Y020478D02*
X009109Y020478D01*
X009010Y020380D02*
X009673Y020380D01*
X009574Y020281D02*
X008912Y020281D01*
X008813Y020183D02*
X009072Y020183D01*
X008911Y020084D02*
X008715Y020084D01*
X008703Y019986D02*
X008816Y019986D01*
X008775Y019887D02*
X008744Y019887D01*
X009447Y020183D02*
X009476Y020183D01*
X010447Y020577D02*
X011970Y020577D01*
X011970Y020675D02*
X010546Y020675D01*
X010644Y020774D02*
X011970Y020774D01*
X011970Y020872D02*
X010743Y020872D01*
X010841Y020971D02*
X011970Y020971D01*
X011970Y021069D02*
X010940Y021069D01*
X011038Y021168D02*
X011970Y021168D01*
X011968Y021266D02*
X011137Y021266D01*
X011235Y021365D02*
X011898Y021365D01*
X011875Y021463D02*
X011334Y021463D01*
X011432Y021562D02*
X011886Y021562D01*
X011939Y021660D02*
X011531Y021660D01*
X011629Y021759D02*
X012093Y021759D01*
X012226Y021759D02*
X012605Y021759D01*
X012595Y021660D02*
X012380Y021660D01*
X012433Y021562D02*
X012619Y021562D01*
X012691Y021463D02*
X012445Y021463D01*
X012421Y021365D02*
X014669Y021365D01*
X014587Y021463D02*
X013068Y021463D01*
X013352Y021562D02*
X014555Y021562D01*
X014557Y021660D02*
X013451Y021660D01*
X013549Y021759D02*
X014535Y021759D01*
X014461Y021857D02*
X013648Y021857D01*
X013746Y021956D02*
X014435Y021956D01*
X014443Y022054D02*
X013845Y022054D01*
X013943Y022153D02*
X014491Y022153D01*
X014635Y022251D02*
X014042Y022251D01*
X014140Y022350D02*
X018583Y022350D01*
X018681Y022448D02*
X014239Y022448D01*
X014310Y022547D02*
X016362Y022547D01*
X016290Y022645D02*
X014310Y022645D01*
X014310Y022744D02*
X016290Y022744D01*
X016290Y022842D02*
X014353Y022842D01*
X014451Y022941D02*
X016290Y022941D01*
X016290Y023039D02*
X014550Y023039D01*
X014648Y023138D02*
X016290Y023138D01*
X016290Y023236D02*
X014747Y023236D01*
X013770Y023630D02*
X013145Y023630D01*
X013116Y023532D02*
X013685Y023532D01*
X013586Y023433D02*
X013038Y023433D01*
X013255Y023236D02*
X011007Y023236D01*
X011105Y023335D02*
X011439Y023335D01*
X011183Y023138D02*
X013192Y023138D01*
X013175Y023039D02*
X011246Y023039D01*
X011369Y022941D02*
X013191Y022941D01*
X013252Y022842D02*
X011498Y022842D01*
X011541Y022744D02*
X013447Y022744D01*
X013435Y022645D02*
X011545Y022645D01*
X011734Y022547D02*
X013457Y022547D01*
X013526Y022448D02*
X011802Y022448D01*
X011825Y022350D02*
X013603Y022350D01*
X013504Y022251D02*
X011812Y022251D01*
X011758Y022153D02*
X013406Y022153D01*
X013307Y022054D02*
X011730Y022054D01*
X011730Y021956D02*
X012806Y021956D01*
X012953Y021956D02*
X013209Y021956D01*
X012656Y021857D02*
X011728Y021857D01*
X010189Y023236D02*
X010082Y023236D01*
X009964Y023335D02*
X010288Y023335D01*
X010386Y023433D02*
X008564Y023433D01*
X008604Y023335D02*
X009715Y023335D01*
X009597Y023236D02*
X008605Y023236D01*
X008451Y023532D02*
X009642Y023532D01*
X009564Y023630D02*
X008236Y023630D01*
X008137Y023729D02*
X009535Y023729D01*
X009481Y023827D02*
X005659Y023827D01*
X005560Y023926D02*
X009383Y023926D01*
X009625Y024221D02*
X012990Y024221D01*
X012990Y024123D02*
X009723Y024123D01*
X009921Y024024D02*
X010977Y024024D01*
X010879Y023926D02*
X010055Y023926D01*
X010099Y023827D02*
X010780Y023827D01*
X010682Y023729D02*
X010105Y023729D01*
X010075Y023630D02*
X010583Y023630D01*
X010485Y023532D02*
X009997Y023532D01*
X009526Y024320D02*
X012990Y024320D01*
X012990Y024418D02*
X007622Y024418D01*
X007471Y024517D02*
X012972Y024517D01*
X012873Y024615D02*
X006646Y024615D01*
X006744Y024714D02*
X012775Y024714D01*
X012676Y024812D02*
X006843Y024812D01*
X006941Y024911D02*
X012578Y024911D01*
X012820Y025206D02*
X013087Y025206D01*
X012918Y025108D02*
X013921Y025108D01*
X014019Y025206D02*
X013432Y025206D01*
X013602Y025305D02*
X013917Y025305D01*
X013819Y025403D02*
X013700Y025403D01*
X013741Y025502D02*
X013778Y025502D01*
X013822Y025009D02*
X013017Y025009D01*
X013115Y024911D02*
X013770Y024911D01*
X013770Y024812D02*
X013214Y024812D01*
X013312Y024714D02*
X013770Y024714D01*
X013770Y024615D02*
X013370Y024615D01*
X013370Y024517D02*
X013770Y024517D01*
X013770Y024418D02*
X013370Y024418D01*
X013370Y024320D02*
X013770Y024320D01*
X013770Y024221D02*
X013370Y024221D01*
X013370Y024123D02*
X013770Y024123D01*
X013770Y024024D02*
X013370Y024024D01*
X013370Y023926D02*
X013770Y023926D01*
X013770Y023827D02*
X013298Y023827D01*
X013199Y023729D02*
X013770Y023729D01*
X013488Y023335D02*
X011800Y023335D01*
X011876Y023433D02*
X012681Y023433D01*
X012603Y023532D02*
X012157Y023532D01*
X012235Y023630D02*
X012575Y023630D01*
X012580Y023729D02*
X012265Y023729D01*
X012259Y023827D02*
X012626Y023827D01*
X012762Y023926D02*
X012215Y023926D01*
X012081Y024024D02*
X012957Y024024D01*
X012917Y025305D02*
X012721Y025305D01*
X012700Y025403D02*
X012819Y025403D01*
X012778Y025502D02*
X012741Y025502D01*
X007328Y024517D02*
X006547Y024517D01*
X006535Y024418D02*
X007177Y024418D01*
X005984Y024024D02*
X005462Y024024D01*
X005363Y024123D02*
X005886Y024123D01*
X005950Y024059D02*
X005950Y024059D01*
X005787Y024221D02*
X005265Y024221D01*
X005225Y024320D02*
X005689Y024320D01*
X005590Y024418D02*
X005190Y024418D01*
X005104Y024517D02*
X005570Y024517D01*
X005570Y024615D02*
X003780Y024615D01*
X003780Y024714D02*
X005570Y024714D01*
X005570Y024812D02*
X003775Y024812D01*
X003734Y024911D02*
X005570Y024911D01*
X005570Y025009D02*
X003683Y025009D01*
X003585Y025108D02*
X005570Y025108D01*
X005482Y025206D02*
X005432Y025206D01*
X005087Y025206D02*
X004432Y025206D01*
X004602Y025305D02*
X004917Y025305D01*
X004819Y025403D02*
X004700Y025403D01*
X004741Y025502D02*
X004778Y025502D01*
X004087Y025206D02*
X003432Y025206D01*
X003602Y025305D02*
X003917Y025305D01*
X003819Y025403D02*
X003700Y025403D01*
X003741Y025502D02*
X003778Y025502D01*
X003747Y024517D02*
X004775Y024517D01*
X004689Y024418D02*
X003707Y024418D01*
X003617Y024320D02*
X004655Y024320D01*
X004655Y024221D02*
X003468Y024221D01*
X003559Y024123D02*
X004121Y024123D01*
X004043Y024024D02*
X003665Y024024D01*
X003727Y023926D02*
X004015Y023926D01*
X004020Y023827D02*
X003764Y023827D01*
X003775Y023630D02*
X004201Y023630D01*
X004065Y023729D02*
X003310Y023729D01*
X003752Y023532D02*
X005057Y023532D01*
X004958Y023630D02*
X004398Y023630D01*
X003708Y023433D02*
X005155Y023433D01*
X005254Y023335D02*
X003632Y023335D01*
X003499Y023236D02*
X005295Y023236D01*
X005329Y023138D02*
X003555Y023138D01*
X003653Y023039D02*
X005415Y023039D01*
X004034Y022941D02*
X003722Y022941D01*
X003763Y022842D02*
X003935Y022842D01*
X003837Y022744D02*
X003780Y022744D01*
X004478Y024123D02*
X004695Y024123D01*
X014804Y022251D02*
X018484Y022251D01*
X018386Y022153D02*
X014948Y022153D01*
X019037Y025206D02*
X019087Y025206D01*
X021432Y025206D02*
X021443Y025206D01*
X021798Y024911D02*
X022610Y024911D01*
X022610Y025009D02*
X021896Y025009D01*
X021995Y025108D02*
X022610Y025108D01*
X022610Y025206D02*
X022432Y025206D01*
X022602Y025305D02*
X022610Y025305D01*
X022610Y024812D02*
X021699Y024812D01*
X021601Y024714D02*
X022610Y024714D01*
D14*
X019760Y024693D02*
X017013Y024693D01*
X016958Y024638D02*
X017158Y024838D01*
X017938Y024838D01*
X018038Y024938D01*
X019760Y024938D01*
X019760Y022698D01*
X016480Y022698D01*
X016480Y024638D01*
X016958Y024638D01*
X016900Y024778D02*
X017100Y024978D01*
X017880Y024978D01*
X018060Y025158D01*
X018720Y025158D01*
X019260Y025698D01*
X018260Y025698D02*
X017720Y025158D01*
X017000Y025158D01*
X016820Y024978D01*
X016120Y024978D01*
X015560Y024418D01*
X015220Y024418D01*
X014940Y024718D02*
X014800Y024578D01*
X014940Y024718D02*
X015560Y024718D01*
X016000Y025158D01*
X016720Y025158D01*
X017260Y025698D01*
X016260Y025698D02*
X015520Y024958D01*
X014700Y024958D01*
X014320Y024578D01*
X013960Y024878D02*
X013960Y023538D01*
X013460Y023038D01*
X013720Y022778D02*
X014880Y023938D01*
X015380Y023938D01*
X016200Y024758D01*
X016200Y024778D01*
X016900Y024778D01*
X017091Y024771D02*
X019760Y024771D01*
X019760Y024850D02*
X017950Y024850D01*
X018028Y024928D02*
X019760Y024928D01*
X019760Y024614D02*
X016480Y024614D01*
X016480Y024536D02*
X019760Y024536D01*
X019760Y024457D02*
X016480Y024457D01*
X016480Y024379D02*
X019760Y024379D01*
X019760Y024300D02*
X016480Y024300D01*
X016480Y024222D02*
X019760Y024222D01*
X019760Y024143D02*
X016480Y024143D01*
X016480Y024065D02*
X019760Y024065D01*
X019760Y023986D02*
X016480Y023986D01*
X016480Y023908D02*
X019760Y023908D01*
X019760Y023829D02*
X016480Y023829D01*
X016480Y023751D02*
X019760Y023751D01*
X019760Y023672D02*
X016480Y023672D01*
X016480Y023594D02*
X019760Y023594D01*
X019760Y023515D02*
X016480Y023515D01*
X016480Y023437D02*
X019760Y023437D01*
X019760Y023358D02*
X016480Y023358D01*
X016480Y023280D02*
X019760Y023280D01*
X019760Y023201D02*
X016480Y023201D01*
X016480Y023123D02*
X019760Y023123D01*
X019760Y023044D02*
X016480Y023044D01*
X016480Y022966D02*
X019760Y022966D01*
X019760Y022887D02*
X016480Y022887D01*
X016480Y022809D02*
X019760Y022809D01*
X019760Y022730D02*
X016480Y022730D01*
X016640Y023518D02*
X014760Y023518D01*
X014120Y022878D01*
X014120Y022598D01*
X013200Y021678D01*
X012880Y021678D01*
X012160Y021478D02*
X012160Y020198D01*
X016600Y020198D01*
X017420Y021018D01*
X017620Y020818D01*
X020920Y020818D01*
X021600Y021498D01*
X021600Y022498D01*
X022040Y022938D01*
X022040Y022538D02*
X021780Y022278D01*
X021780Y021438D01*
X021000Y020658D01*
X018020Y020658D01*
X017260Y019898D01*
X017260Y019698D01*
X018260Y019698D02*
X018260Y020178D01*
X018580Y020498D01*
X021080Y020498D01*
X022040Y021458D01*
X022040Y022118D01*
X020460Y022238D02*
X019920Y021698D01*
X014940Y021698D01*
X014840Y021598D01*
X014820Y021878D02*
X014720Y021978D01*
X014820Y021878D02*
X018380Y021878D01*
X018880Y022378D01*
X019040Y022378D01*
X020460Y022238D02*
X020460Y022698D01*
X015260Y025698D02*
X014740Y025178D01*
X014260Y025178D01*
X013960Y024878D01*
X013180Y024578D02*
X013180Y023978D01*
X012860Y023658D01*
X011980Y023758D02*
X011880Y023858D01*
X011080Y023858D01*
X010040Y022818D01*
X004180Y022818D01*
X003260Y021898D01*
X003260Y021698D01*
X003860Y021298D02*
X003860Y022238D01*
X004260Y022638D01*
X010140Y022638D01*
X011060Y023558D01*
X011620Y023558D01*
X010980Y022938D02*
X010980Y021898D01*
X010180Y021098D01*
X008920Y021098D01*
X008180Y020358D01*
X007740Y020358D01*
X007580Y020198D01*
X007020Y020198D01*
X006520Y019698D01*
X006260Y019698D01*
X005760Y020198D02*
X005260Y019698D01*
X005760Y020198D02*
X006780Y020198D01*
X006960Y020378D01*
X007520Y020378D01*
X007660Y020518D01*
X008060Y020518D01*
X008820Y021278D01*
X010100Y021278D01*
X010640Y021818D01*
X010640Y022718D01*
X011260Y022678D02*
X011260Y021938D01*
X010200Y020878D01*
X008980Y020878D01*
X008300Y020198D01*
X007840Y020198D01*
X007600Y019958D01*
X007520Y019958D01*
X007260Y019698D01*
X008260Y019698D02*
X008260Y019898D01*
X009040Y020678D01*
X010280Y020678D01*
X011540Y021938D01*
X011540Y022338D01*
X010080Y022038D02*
X009540Y021498D01*
X008740Y021498D01*
X008380Y021138D01*
X007060Y021138D01*
X006700Y020778D01*
X006620Y020698D01*
X005260Y020698D01*
X004260Y019698D01*
X003800Y020238D02*
X003260Y019698D01*
X003800Y020238D02*
X004560Y020238D01*
X005380Y021058D01*
X005980Y021058D01*
X006700Y021778D01*
X009080Y021778D01*
X009660Y022358D01*
X009760Y022998D02*
X009840Y023078D01*
X009760Y022998D02*
X008180Y022998D01*
X007900Y023278D01*
X005580Y023278D01*
X004960Y023898D01*
X004300Y023898D01*
X004940Y024278D02*
X005620Y023598D01*
X008000Y023598D01*
X008320Y023278D01*
X007406Y024138D02*
X006140Y024138D01*
X005760Y024518D01*
X005760Y025198D01*
X005260Y025698D01*
X006260Y024498D02*
X006960Y025198D01*
X012560Y025198D01*
X013180Y024578D01*
X013720Y022778D02*
X013720Y022658D01*
X009820Y023758D02*
X009440Y024138D01*
X007406Y024138D01*
X007406Y024231D01*
X007400Y024238D01*
X003860Y021298D02*
X003260Y020698D01*
X009260Y019698D02*
X009760Y020198D01*
X012160Y020198D01*
D15*
X018760Y020198D02*
X018780Y020198D01*
X018840Y020258D01*
X021700Y020258D01*
X022260Y019698D01*
X021480Y024918D02*
X020940Y024918D01*
X021480Y024918D02*
X022260Y025698D01*
M02*
