G75*
G70*
%OFA0B0*%
%FSLAX24Y24*%
%IPPOS*%
%LPD*%
%AMOC8*
5,1,8,0,0,1.08239X$1,22.5*
%
%ADD10C,0.0700*%
%ADD11C,0.0780*%
%ADD12C,0.0394*%
D10*
X006700Y020778D03*
X006700Y021778D03*
D11*
X003260Y019698D03*
X004260Y019698D03*
X005260Y019698D03*
X006260Y019698D03*
X007260Y019698D03*
X008260Y019698D03*
X009260Y019698D03*
X010260Y019698D03*
X011260Y019698D03*
X012260Y019698D03*
X013260Y019698D03*
X014260Y019698D03*
X015260Y019698D03*
X016260Y019698D03*
X017260Y019698D03*
X018260Y019698D03*
X019260Y019698D03*
X020260Y019698D03*
X021260Y019698D03*
X022260Y019698D03*
X022260Y025698D03*
X021260Y025698D03*
X020260Y025698D03*
X019260Y025698D03*
X018260Y025698D03*
X017260Y025698D03*
X016260Y025698D03*
X015260Y025698D03*
X014260Y025698D03*
X013260Y025698D03*
X012260Y025698D03*
X011260Y025698D03*
X010260Y025698D03*
X009260Y025698D03*
X008260Y025698D03*
X007260Y025698D03*
X006260Y025698D03*
X005260Y025698D03*
X004260Y025698D03*
X003260Y025698D03*
X003260Y024698D03*
X003260Y023698D03*
X003260Y022698D03*
X003260Y021698D03*
X003260Y020698D03*
D12*
X020760Y022009D03*
X020760Y023387D03*
M02*
