G75*
G70*
%OFA0B0*%
%FSLAX24Y24*%
%IPPOS*%
%LPD*%
%AMOC8*
5,1,8,0,0,1.08239X$1,22.5*
%
%ADD10C,0.0000*%
D10*
X002760Y019198D02*
X002760Y026198D01*
X022760Y026198D01*
X022760Y019198D01*
X002760Y019198D01*
X020583Y022009D02*
X020585Y022035D01*
X020591Y022061D01*
X020601Y022086D01*
X020614Y022109D01*
X020630Y022129D01*
X020650Y022147D01*
X020672Y022162D01*
X020695Y022174D01*
X020721Y022182D01*
X020747Y022186D01*
X020773Y022186D01*
X020799Y022182D01*
X020825Y022174D01*
X020849Y022162D01*
X020870Y022147D01*
X020890Y022129D01*
X020906Y022109D01*
X020919Y022086D01*
X020929Y022061D01*
X020935Y022035D01*
X020937Y022009D01*
X020935Y021983D01*
X020929Y021957D01*
X020919Y021932D01*
X020906Y021909D01*
X020890Y021889D01*
X020870Y021871D01*
X020848Y021856D01*
X020825Y021844D01*
X020799Y021836D01*
X020773Y021832D01*
X020747Y021832D01*
X020721Y021836D01*
X020695Y021844D01*
X020671Y021856D01*
X020650Y021871D01*
X020630Y021889D01*
X020614Y021909D01*
X020601Y021932D01*
X020591Y021957D01*
X020585Y021983D01*
X020583Y022009D01*
X020583Y023387D02*
X020585Y023413D01*
X020591Y023439D01*
X020601Y023464D01*
X020614Y023487D01*
X020630Y023507D01*
X020650Y023525D01*
X020672Y023540D01*
X020695Y023552D01*
X020721Y023560D01*
X020747Y023564D01*
X020773Y023564D01*
X020799Y023560D01*
X020825Y023552D01*
X020849Y023540D01*
X020870Y023525D01*
X020890Y023507D01*
X020906Y023487D01*
X020919Y023464D01*
X020929Y023439D01*
X020935Y023413D01*
X020937Y023387D01*
X020935Y023361D01*
X020929Y023335D01*
X020919Y023310D01*
X020906Y023287D01*
X020890Y023267D01*
X020870Y023249D01*
X020848Y023234D01*
X020825Y023222D01*
X020799Y023214D01*
X020773Y023210D01*
X020747Y023210D01*
X020721Y023214D01*
X020695Y023222D01*
X020671Y023234D01*
X020650Y023249D01*
X020630Y023267D01*
X020614Y023287D01*
X020601Y023310D01*
X020591Y023335D01*
X020585Y023361D01*
X020583Y023387D01*
M02*
