G75*
G70*
%OFA0B0*%
%FSLAX24Y24*%
%IPPOS*%
%LPD*%
%AMOC8*
5,1,8,0,0,1.08239X$1,22.5*
%
%ADD10R,0.0473X0.0434*%
%ADD11R,0.0434X0.0473*%
%ADD12R,0.0355X0.0355*%
%ADD13R,0.0640X0.0340*%
%ADD14R,0.0512X0.0355*%
%ADD15R,0.0827X0.0985*%
%ADD16C,0.0700*%
%ADD17C,0.0780*%
%ADD18C,0.0906*%
%ADD19R,0.0620X0.0413*%
%ADD20R,0.0355X0.0178*%
%ADD21R,0.0367X0.0288*%
%ADD22R,0.0288X0.0367*%
%ADD23R,0.0827X0.0237*%
%ADD24R,0.0906X0.1024*%
%ADD25C,0.0394*%
D10*
X005345Y020598D03*
X006014Y020598D03*
X006014Y021978D03*
X005345Y021978D03*
X006985Y022638D03*
X007654Y022638D03*
X008325Y022638D03*
X008994Y022638D03*
X006194Y022698D03*
X005525Y022698D03*
X004914Y022698D03*
X004245Y022698D03*
X008365Y024498D03*
X009034Y024498D03*
X014965Y022678D03*
X015634Y022678D03*
X014854Y021118D03*
X014185Y021118D03*
D11*
X016880Y021863D03*
X017420Y021863D03*
X018240Y021863D03*
X018240Y022532D03*
X017420Y022532D03*
X016880Y022532D03*
X015120Y023243D03*
X015120Y023912D03*
X010356Y021501D03*
X010356Y020831D03*
D12*
X016304Y021338D03*
X016895Y021338D03*
X015640Y023942D03*
X015640Y024533D03*
D13*
X009440Y021928D03*
X007440Y021928D03*
X007440Y020428D03*
X009440Y020428D03*
X006260Y023448D03*
X004260Y023448D03*
X004260Y024948D03*
X006260Y024948D03*
D14*
X015400Y021892D03*
X015400Y021183D03*
X016300Y021823D03*
X016300Y022532D03*
D15*
X008987Y023498D03*
X007412Y023498D03*
D16*
X006700Y021778D03*
X006700Y020778D03*
D17*
X003260Y019698D03*
X004260Y019698D03*
X005260Y019698D03*
X006260Y019698D03*
X007260Y019698D03*
X008260Y019698D03*
X009260Y019698D03*
X010260Y019698D03*
X011260Y019698D03*
X012260Y019698D03*
X013260Y019698D03*
X014260Y019698D03*
X015260Y019698D03*
X016260Y019698D03*
X017260Y019698D03*
X018260Y019698D03*
X019260Y019698D03*
X020260Y019698D03*
X021260Y019698D03*
X022260Y019698D03*
X022260Y025698D03*
X021260Y025698D03*
X020260Y025698D03*
X019260Y025698D03*
X018260Y025698D03*
X017260Y025698D03*
X016260Y025698D03*
X015260Y025698D03*
X014260Y025698D03*
X013260Y025698D03*
X012260Y025698D03*
X011260Y025698D03*
X010260Y025698D03*
X009260Y025698D03*
X008260Y025698D03*
X007260Y025698D03*
X006260Y025698D03*
X005260Y025698D03*
X004260Y025698D03*
X003260Y025698D03*
X003260Y024698D03*
X003260Y023698D03*
X003260Y022698D03*
X003260Y021698D03*
X003260Y020698D03*
D18*
X017595Y023818D02*
X018185Y023818D01*
D19*
X016737Y023818D03*
X016737Y024408D03*
X016737Y023227D03*
D20*
G36*
X014466Y022968D02*
X014216Y022718D01*
X014090Y022844D01*
X014340Y023094D01*
X014466Y022968D01*
G37*
G36*
X014285Y023149D02*
X014035Y022899D01*
X013909Y023025D01*
X014159Y023275D01*
X014285Y023149D01*
G37*
G36*
X014104Y023330D02*
X013854Y023080D01*
X013728Y023206D01*
X013978Y023456D01*
X014104Y023330D01*
G37*
G36*
X013923Y023511D02*
X013673Y023261D01*
X013547Y023387D01*
X013797Y023637D01*
X013923Y023511D01*
G37*
G36*
X013742Y023692D02*
X013492Y023442D01*
X013366Y023568D01*
X013616Y023818D01*
X013742Y023692D01*
G37*
G36*
X013561Y023873D02*
X013311Y023623D01*
X013185Y023749D01*
X013435Y023999D01*
X013561Y023873D01*
G37*
G36*
X013004Y023930D02*
X013254Y024180D01*
X013380Y024054D01*
X013130Y023804D01*
X013004Y023930D01*
G37*
G36*
X012823Y024111D02*
X013073Y024361D01*
X013199Y024235D01*
X012949Y023985D01*
X012823Y024111D01*
G37*
G36*
X012642Y024292D02*
X012892Y024542D01*
X013018Y024416D01*
X012768Y024166D01*
X012642Y024292D01*
G37*
G36*
X012461Y024473D02*
X012711Y024723D01*
X012837Y024597D01*
X012587Y024347D01*
X012461Y024473D01*
G37*
G36*
X012280Y024654D02*
X012530Y024904D01*
X012656Y024778D01*
X012406Y024528D01*
X012280Y024654D01*
G37*
G36*
X011989Y024904D02*
X012239Y024654D01*
X012113Y024528D01*
X011863Y024778D01*
X011989Y024904D01*
G37*
G36*
X011808Y024723D02*
X012058Y024473D01*
X011932Y024347D01*
X011682Y024597D01*
X011808Y024723D01*
G37*
G36*
X011627Y024542D02*
X011877Y024292D01*
X011751Y024166D01*
X011501Y024416D01*
X011627Y024542D01*
G37*
G36*
X011446Y024361D02*
X011696Y024111D01*
X011570Y023985D01*
X011320Y024235D01*
X011446Y024361D01*
G37*
G36*
X011265Y024180D02*
X011515Y023930D01*
X011389Y023804D01*
X011139Y024054D01*
X011265Y024180D01*
G37*
G36*
X011084Y023999D02*
X011334Y023749D01*
X011208Y023623D01*
X010958Y023873D01*
X011084Y023999D01*
G37*
G36*
X011027Y023442D02*
X010777Y023692D01*
X010903Y023818D01*
X011153Y023568D01*
X011027Y023442D01*
G37*
G36*
X010846Y023261D02*
X010596Y023511D01*
X010722Y023637D01*
X010972Y023387D01*
X010846Y023261D01*
G37*
G36*
X010665Y023080D02*
X010415Y023330D01*
X010541Y023456D01*
X010791Y023206D01*
X010665Y023080D01*
G37*
G36*
X010484Y022899D02*
X010234Y023149D01*
X010360Y023275D01*
X010610Y023025D01*
X010484Y022899D01*
G37*
G36*
X010303Y022718D02*
X010053Y022968D01*
X010179Y023094D01*
X010429Y022844D01*
X010303Y022718D01*
G37*
G36*
X010053Y022427D02*
X010303Y022677D01*
X010429Y022551D01*
X010179Y022301D01*
X010053Y022427D01*
G37*
G36*
X010234Y022246D02*
X010484Y022496D01*
X010610Y022370D01*
X010360Y022120D01*
X010234Y022246D01*
G37*
G36*
X010415Y022065D02*
X010665Y022315D01*
X010791Y022189D01*
X010541Y021939D01*
X010415Y022065D01*
G37*
G36*
X010596Y021884D02*
X010846Y022134D01*
X010972Y022008D01*
X010722Y021758D01*
X010596Y021884D01*
G37*
G36*
X010777Y021703D02*
X011027Y021953D01*
X011153Y021827D01*
X010903Y021577D01*
X010777Y021703D01*
G37*
G36*
X010958Y021522D02*
X011208Y021772D01*
X011334Y021646D01*
X011084Y021396D01*
X010958Y021522D01*
G37*
G36*
X011515Y021465D02*
X011265Y021215D01*
X011139Y021341D01*
X011389Y021591D01*
X011515Y021465D01*
G37*
G36*
X011696Y021284D02*
X011446Y021034D01*
X011320Y021160D01*
X011570Y021410D01*
X011696Y021284D01*
G37*
G36*
X011877Y021103D02*
X011627Y020853D01*
X011501Y020979D01*
X011751Y021229D01*
X011877Y021103D01*
G37*
G36*
X012058Y020922D02*
X011808Y020672D01*
X011682Y020798D01*
X011932Y021048D01*
X012058Y020922D01*
G37*
G36*
X012239Y020741D02*
X011989Y020491D01*
X011863Y020617D01*
X012113Y020867D01*
X012239Y020741D01*
G37*
G36*
X012530Y020491D02*
X012280Y020741D01*
X012406Y020867D01*
X012656Y020617D01*
X012530Y020491D01*
G37*
G36*
X012711Y020672D02*
X012461Y020922D01*
X012587Y021048D01*
X012837Y020798D01*
X012711Y020672D01*
G37*
G36*
X012892Y020853D02*
X012642Y021103D01*
X012768Y021229D01*
X013018Y020979D01*
X012892Y020853D01*
G37*
G36*
X013073Y021034D02*
X012823Y021284D01*
X012949Y021410D01*
X013199Y021160D01*
X013073Y021034D01*
G37*
G36*
X013254Y021215D02*
X013004Y021465D01*
X013130Y021591D01*
X013380Y021341D01*
X013254Y021215D01*
G37*
G36*
X013435Y021396D02*
X013185Y021646D01*
X013311Y021772D01*
X013561Y021522D01*
X013435Y021396D01*
G37*
G36*
X013492Y021953D02*
X013742Y021703D01*
X013616Y021577D01*
X013366Y021827D01*
X013492Y021953D01*
G37*
G36*
X013673Y022134D02*
X013923Y021884D01*
X013797Y021758D01*
X013547Y022008D01*
X013673Y022134D01*
G37*
G36*
X013854Y022315D02*
X014104Y022065D01*
X013978Y021939D01*
X013728Y022189D01*
X013854Y022315D01*
G37*
G36*
X014035Y022496D02*
X014285Y022246D01*
X014159Y022120D01*
X013909Y022370D01*
X014035Y022496D01*
G37*
G36*
X014216Y022677D02*
X014466Y022427D01*
X014340Y022301D01*
X014090Y022551D01*
X014216Y022677D01*
G37*
D21*
X018760Y022850D03*
X018760Y021945D03*
D22*
X018732Y021098D03*
X017827Y021098D03*
D23*
X019775Y022068D03*
X019775Y022383D03*
X019775Y022698D03*
X019775Y023013D03*
X019775Y023328D03*
D24*
X019972Y024351D03*
X022059Y024351D03*
X022059Y021044D03*
X019972Y021044D03*
D25*
X020760Y022009D03*
X020760Y023387D03*
M02*
