%
M48
M72
T01C0.01181
T02C0.03200
T03C0.03346
T04C0.04000
T05C0.04528
%
T01
X49395Y268800
X42995Y265000
X49095Y256800
X57795Y256800
X66395Y272000
X96695Y260800
X99395Y258000
X103295Y264900
X105595Y270000
X116195Y261600
X119795Y263600
X128695Y259100
X134595Y256400
X137195Y252600
X143595Y245700
X140995Y243600
X128795Y242800
X120895Y249300
X114295Y253500
X111695Y251400
X109495Y253600
X107195Y251500
X99995Y248400
X96695Y248600
X116695Y243200
X112595Y234700
X158995Y236300
X162495Y231898
X167595Y228000
X184795Y237200
X199695Y249400
X203395Y248900
X203354Y251922
X188895Y258100
X183895Y258100
X178895Y258100
X153895Y260600
X149195Y271700
X146195Y271700
X143195Y271800
X133686Y271800
X207795Y231700
T02
X66995Y233800
X66995Y243800
T03
X208468Y243146
X208468Y262831
T04
X32595Y283000
X42595Y283000
X52595Y283000
X62595Y283000
X72595Y283000
X82595Y283000
X92595Y283000
X102595Y283000
X112595Y283000
X122595Y283000
X132595Y283000
X142595Y283000
X152595Y283000
X162595Y283000
X172595Y283000
X182595Y283000
X192595Y283000
X202595Y283000
X212595Y283000
X222595Y283000
X222595Y223000
X212595Y223000
X202595Y223000
X192595Y223000
X182595Y223000
X172595Y223000
X162595Y223000
X152595Y223000
X142595Y223000
X132595Y223000
X122595Y223000
X112595Y223000
X102595Y223000
X92595Y223000
X82595Y223000
X72595Y223000
X62595Y223000
X52595Y223000
X42595Y223000
X32595Y223000
X32595Y233000
X32595Y243000
X32595Y253000
X32595Y263000
X32595Y273000
T05
X219098Y266552
X219098Y239426
M30
