G75*
%MOIN*%
%OFA0B0*%
%FSLAX25Y25*%
%IPPOS*%
%LPD*%
%AMOC8*
5,1,8,0,0,1.08239X$1,22.5*
%
%ADD10C,0.00000*%
%ADD11R,0.03937X0.04331*%
%ADD12R,0.04331X0.03937*%
%ADD13R,0.03150X0.03150*%
%ADD14R,0.03150X0.04724*%
%ADD15C,0.01000*%
%ADD16C,0.06600*%
%ADD17C,0.07400*%
%ADD18R,0.03150X0.01378*%
%ADD19R,0.04724X0.03150*%
%ADD20R,0.02480X0.03268*%
%ADD21R,0.04800X0.08800*%
%ADD22R,0.14173X0.08661*%
%ADD23R,0.05315X0.01575*%
%ADD24R,0.06102X0.05906*%
%ADD25C,0.06791*%
%ADD26C,0.05346*%
%ADD27R,0.04134X0.02559*%
%ADD28R,0.10630X0.05906*%
%ADD29C,0.00600*%
%ADD30C,0.02381*%
%ADD31C,0.01200*%
D10*
X0027595Y0218000D02*
X0027595Y0288000D01*
X0227595Y0288000D01*
X0227595Y0218000D01*
X0027595Y0218000D01*
D11*
X0148595Y0236454D03*
X0148595Y0243146D03*
X0153895Y0249454D03*
X0160995Y0249554D03*
X0160995Y0256246D03*
X0153895Y0256146D03*
X0167295Y0261154D03*
X0167295Y0267846D03*
X0162595Y0243046D03*
X0162595Y0236354D03*
X0199495Y0235754D03*
X0199495Y0242446D03*
D12*
X0105658Y0234666D03*
X0098965Y0234666D03*
X0080242Y0255500D03*
X0073549Y0255500D03*
X0073649Y0263100D03*
X0080342Y0263100D03*
X0094149Y0271300D03*
X0100842Y0271300D03*
X0061942Y0253000D03*
X0055249Y0253000D03*
X0049142Y0253000D03*
X0042449Y0253000D03*
X0053449Y0245800D03*
X0060142Y0245800D03*
X0060142Y0234700D03*
X0053449Y0234700D03*
D13*
X0160995Y0261547D03*
X0160995Y0267453D03*
X0167295Y0255353D03*
X0167295Y0249447D03*
D14*
X0167452Y0234500D03*
X0174538Y0234500D03*
D15*
X0049395Y0237800D02*
X0049395Y0242800D01*
X0044395Y0242800D01*
X0041895Y0245300D01*
X0039395Y0242800D01*
X0039395Y0237800D01*
X0049395Y0237800D01*
X0047395Y0239300D02*
X0046395Y0239300D01*
X0046395Y0240800D01*
X0047395Y0240800D01*
X0047395Y0239300D01*
X0049395Y0242800D02*
X0049395Y0245300D01*
X0041895Y0245300D01*
X0039395Y0245300D01*
X0039395Y0242800D01*
X0039895Y0244300D02*
X0040395Y0244800D01*
X0039895Y0244800D01*
X0043395Y0244800D02*
X0044395Y0243800D01*
X0048895Y0243800D01*
X0048895Y0244800D01*
X0044395Y0244800D01*
X0042395Y0240800D02*
X0042395Y0239300D01*
X0041395Y0239300D01*
X0041395Y0240800D01*
X0042395Y0240800D01*
X0048895Y0245800D02*
X0048895Y0246800D01*
X0049395Y0246800D01*
X0049395Y0245300D01*
D16*
X0066995Y0243800D03*
X0066995Y0233800D03*
D17*
X0062595Y0223000D03*
X0052595Y0223000D03*
X0042595Y0223000D03*
X0032595Y0223000D03*
X0032595Y0233000D03*
X0032595Y0243000D03*
X0032595Y0253000D03*
X0032595Y0263000D03*
X0032595Y0273000D03*
X0032595Y0283000D03*
X0042595Y0283000D03*
X0052595Y0283000D03*
X0062595Y0283000D03*
X0072595Y0283000D03*
X0082595Y0283000D03*
X0092595Y0283000D03*
X0102595Y0283000D03*
X0112595Y0283000D03*
X0122595Y0283000D03*
X0132595Y0283000D03*
X0142595Y0283000D03*
X0152595Y0283000D03*
X0162595Y0283000D03*
X0172595Y0283000D03*
X0182595Y0283000D03*
X0192595Y0283000D03*
X0202595Y0283000D03*
X0212595Y0283000D03*
X0222595Y0283000D03*
X0222595Y0223000D03*
X0212595Y0223000D03*
X0202595Y0223000D03*
X0192595Y0223000D03*
X0182595Y0223000D03*
X0172595Y0223000D03*
X0162595Y0223000D03*
X0152595Y0223000D03*
X0142595Y0223000D03*
X0132595Y0223000D03*
X0122595Y0223000D03*
X0112595Y0223000D03*
X0102595Y0223000D03*
X0092595Y0223000D03*
X0082595Y0223000D03*
X0072595Y0223000D03*
D18*
G36*
X0108050Y0243048D02*
X0110276Y0245274D01*
X0111250Y0244300D01*
X0109024Y0242074D01*
X0108050Y0243048D01*
G37*
G36*
X0106241Y0244858D02*
X0108467Y0247084D01*
X0109441Y0246110D01*
X0107215Y0243884D01*
X0106241Y0244858D01*
G37*
G36*
X0104431Y0246667D02*
X0106657Y0248893D01*
X0107631Y0247919D01*
X0105405Y0245693D01*
X0104431Y0246667D01*
G37*
G36*
X0102621Y0248477D02*
X0104847Y0250703D01*
X0105821Y0249729D01*
X0103595Y0247503D01*
X0102621Y0248477D01*
G37*
G36*
X0100812Y0250286D02*
X0103038Y0252512D01*
X0104012Y0251538D01*
X0101786Y0249312D01*
X0100812Y0250286D01*
G37*
G36*
X0103038Y0253488D02*
X0100812Y0255714D01*
X0101786Y0256688D01*
X0104012Y0254462D01*
X0103038Y0253488D01*
G37*
G36*
X0104847Y0255297D02*
X0102621Y0257523D01*
X0103595Y0258497D01*
X0105821Y0256271D01*
X0104847Y0255297D01*
G37*
G36*
X0106657Y0257107D02*
X0104431Y0259333D01*
X0105405Y0260307D01*
X0107631Y0258081D01*
X0106657Y0257107D01*
G37*
G36*
X0108467Y0258916D02*
X0106241Y0261142D01*
X0107215Y0262116D01*
X0109441Y0259890D01*
X0108467Y0258916D01*
G37*
G36*
X0110276Y0260726D02*
X0108050Y0262952D01*
X0109024Y0263926D01*
X0111250Y0261700D01*
X0110276Y0260726D01*
G37*
G36*
X0110834Y0265736D02*
X0113060Y0263510D01*
X0112086Y0262536D01*
X0109860Y0264762D01*
X0110834Y0265736D01*
G37*
G36*
X0112643Y0267545D02*
X0114869Y0265319D01*
X0113895Y0264345D01*
X0111669Y0266571D01*
X0112643Y0267545D01*
G37*
G36*
X0114453Y0269355D02*
X0116679Y0267129D01*
X0115705Y0266155D01*
X0113479Y0268381D01*
X0114453Y0269355D01*
G37*
G36*
X0116262Y0271164D02*
X0118488Y0268938D01*
X0117514Y0267964D01*
X0115288Y0270190D01*
X0116262Y0271164D01*
G37*
G36*
X0118072Y0272974D02*
X0120298Y0270748D01*
X0119324Y0269774D01*
X0117098Y0272000D01*
X0118072Y0272974D01*
G37*
G36*
X0119881Y0274783D02*
X0122107Y0272557D01*
X0121133Y0271583D01*
X0118907Y0273809D01*
X0119881Y0274783D01*
G37*
G36*
X0123083Y0272557D02*
X0125309Y0274783D01*
X0126283Y0273809D01*
X0124057Y0271583D01*
X0123083Y0272557D01*
G37*
G36*
X0124893Y0270748D02*
X0127119Y0272974D01*
X0128093Y0272000D01*
X0125867Y0269774D01*
X0124893Y0270748D01*
G37*
G36*
X0126702Y0268938D02*
X0128928Y0271164D01*
X0129902Y0270190D01*
X0127676Y0267964D01*
X0126702Y0268938D01*
G37*
G36*
X0128512Y0267129D02*
X0130738Y0269355D01*
X0131712Y0268381D01*
X0129486Y0266155D01*
X0128512Y0267129D01*
G37*
G36*
X0130321Y0265319D02*
X0132547Y0267545D01*
X0133521Y0266571D01*
X0131295Y0264345D01*
X0130321Y0265319D01*
G37*
G36*
X0135331Y0264762D02*
X0133105Y0262536D01*
X0132131Y0263510D01*
X0134357Y0265736D01*
X0135331Y0264762D01*
G37*
G36*
X0137140Y0262952D02*
X0134914Y0260726D01*
X0133940Y0261700D01*
X0136166Y0263926D01*
X0137140Y0262952D01*
G37*
G36*
X0138950Y0261142D02*
X0136724Y0258916D01*
X0135750Y0259890D01*
X0137976Y0262116D01*
X0138950Y0261142D01*
G37*
G36*
X0140759Y0259333D02*
X0138533Y0257107D01*
X0137559Y0258081D01*
X0139785Y0260307D01*
X0140759Y0259333D01*
G37*
G36*
X0142569Y0257523D02*
X0140343Y0255297D01*
X0139369Y0256271D01*
X0141595Y0258497D01*
X0142569Y0257523D01*
G37*
G36*
X0144378Y0255714D02*
X0142152Y0253488D01*
X0141178Y0254462D01*
X0143404Y0256688D01*
X0144378Y0255714D01*
G37*
G36*
X0142152Y0252512D02*
X0144378Y0250286D01*
X0143404Y0249312D01*
X0141178Y0251538D01*
X0142152Y0252512D01*
G37*
G36*
X0140343Y0250703D02*
X0142569Y0248477D01*
X0141595Y0247503D01*
X0139369Y0249729D01*
X0140343Y0250703D01*
G37*
G36*
X0138533Y0248893D02*
X0140759Y0246667D01*
X0139785Y0245693D01*
X0137559Y0247919D01*
X0138533Y0248893D01*
G37*
G36*
X0136724Y0247084D02*
X0138950Y0244858D01*
X0137976Y0243884D01*
X0135750Y0246110D01*
X0136724Y0247084D01*
G37*
G36*
X0134914Y0245274D02*
X0137140Y0243048D01*
X0136166Y0242074D01*
X0133940Y0244300D01*
X0134914Y0245274D01*
G37*
G36*
X0134357Y0240264D02*
X0132131Y0242490D01*
X0133105Y0243464D01*
X0135331Y0241238D01*
X0134357Y0240264D01*
G37*
G36*
X0132547Y0238455D02*
X0130321Y0240681D01*
X0131295Y0241655D01*
X0133521Y0239429D01*
X0132547Y0238455D01*
G37*
G36*
X0130738Y0236645D02*
X0128512Y0238871D01*
X0129486Y0239845D01*
X0131712Y0237619D01*
X0130738Y0236645D01*
G37*
G36*
X0128928Y0234836D02*
X0126702Y0237062D01*
X0127676Y0238036D01*
X0129902Y0235810D01*
X0128928Y0234836D01*
G37*
G36*
X0127119Y0233026D02*
X0124893Y0235252D01*
X0125867Y0236226D01*
X0128093Y0234000D01*
X0127119Y0233026D01*
G37*
G36*
X0125309Y0231217D02*
X0123083Y0233443D01*
X0124057Y0234417D01*
X0126283Y0232191D01*
X0125309Y0231217D01*
G37*
G36*
X0122107Y0233443D02*
X0119881Y0231217D01*
X0118907Y0232191D01*
X0121133Y0234417D01*
X0122107Y0233443D01*
G37*
G36*
X0120298Y0235252D02*
X0118072Y0233026D01*
X0117098Y0234000D01*
X0119324Y0236226D01*
X0120298Y0235252D01*
G37*
G36*
X0118488Y0237062D02*
X0116262Y0234836D01*
X0115288Y0235810D01*
X0117514Y0238036D01*
X0118488Y0237062D01*
G37*
G36*
X0116679Y0238871D02*
X0114453Y0236645D01*
X0113479Y0237619D01*
X0115705Y0239845D01*
X0116679Y0238871D01*
G37*
G36*
X0114869Y0240681D02*
X0112643Y0238455D01*
X0111669Y0239429D01*
X0113895Y0241655D01*
X0114869Y0240681D01*
G37*
G36*
X0109860Y0241238D02*
X0112086Y0243464D01*
X0113060Y0242490D01*
X0110834Y0240264D01*
X0109860Y0241238D01*
G37*
D19*
X0154295Y0243543D03*
X0154295Y0236457D03*
D20*
X0204268Y0235000D03*
X0213323Y0235000D03*
X0211923Y0270600D03*
X0202868Y0270600D03*
D21*
X0193162Y0244146D03*
X0184062Y0244146D03*
X0174962Y0244146D03*
D22*
X0184062Y0268547D03*
D23*
X0208468Y0258107D03*
X0208468Y0255548D03*
X0208468Y0252989D03*
X0208468Y0250430D03*
X0208468Y0247871D03*
D24*
X0219098Y0249052D03*
X0219098Y0256926D03*
X0219098Y0264997D03*
X0219098Y0240981D03*
D25*
X0219098Y0239426D03*
X0219098Y0266552D03*
D26*
X0208468Y0262831D03*
X0208468Y0243146D03*
D27*
X0091464Y0242832D03*
X0091464Y0234368D03*
X0075126Y0234368D03*
X0075126Y0242832D03*
X0059364Y0260268D03*
X0059364Y0268732D03*
X0043026Y0268732D03*
X0043026Y0260268D03*
D28*
X0088995Y0262840D03*
X0088995Y0255360D03*
D29*
X0089055Y0255300D01*
X0095195Y0255300D01*
X0096005Y0256109D01*
X0096005Y0260066D01*
X0096829Y0260891D01*
X0101595Y0260891D01*
X0101895Y0260891D01*
X0103847Y0260891D01*
X0106031Y0258707D01*
X0107641Y0260555D02*
X0103395Y0264800D01*
X0103295Y0264900D01*
X0091055Y0264900D01*
X0088995Y0262840D01*
X0088735Y0263100D01*
X0080342Y0263100D01*
X0082380Y0259831D02*
X0082380Y0259349D01*
X0082629Y0259100D01*
X0082380Y0258851D01*
X0082380Y0258768D01*
X0077538Y0258768D01*
X0076857Y0258088D01*
X0076754Y0258267D01*
X0076512Y0258509D01*
X0076216Y0258680D01*
X0075885Y0258768D01*
X0073849Y0258768D01*
X0073849Y0255800D01*
X0073249Y0255800D01*
X0073249Y0258768D01*
X0071212Y0258768D01*
X0070882Y0258680D01*
X0070585Y0258509D01*
X0070343Y0258267D01*
X0070172Y0257970D01*
X0070083Y0257640D01*
X0070083Y0255800D01*
X0073249Y0255800D01*
X0073249Y0255200D01*
X0073849Y0255200D01*
X0073849Y0252231D01*
X0075885Y0252231D01*
X0076216Y0252320D01*
X0076512Y0252491D01*
X0076754Y0252733D01*
X0076857Y0252912D01*
X0077538Y0252231D01*
X0082380Y0252231D01*
X0082380Y0251869D01*
X0083142Y0251107D01*
X0093140Y0251107D01*
X0090802Y0248769D01*
X0089864Y0247832D01*
X0089864Y0245412D01*
X0088859Y0245412D01*
X0088098Y0244650D01*
X0088098Y0244432D01*
X0078493Y0244432D01*
X0078493Y0244650D01*
X0077731Y0245412D01*
X0072520Y0245412D01*
X0071759Y0244650D01*
X0071759Y0241014D01*
X0072520Y0240253D01*
X0077731Y0240253D01*
X0078493Y0241014D01*
X0078493Y0241232D01*
X0088098Y0241232D01*
X0088098Y0241014D01*
X0088859Y0240253D01*
X0094070Y0240253D01*
X0094831Y0241014D01*
X0094831Y0244650D01*
X0094070Y0245412D01*
X0093064Y0245412D01*
X0093064Y0246507D01*
X0094339Y0247781D01*
X0094584Y0247189D01*
X0095284Y0246489D01*
X0096200Y0246109D01*
X0097191Y0246109D01*
X0098106Y0246489D01*
X0098245Y0246628D01*
X0098584Y0246289D01*
X0099500Y0245909D01*
X0100491Y0245909D01*
X0101406Y0246289D01*
X0102107Y0246989D01*
X0102154Y0247104D01*
X0103057Y0246202D01*
X0103130Y0246202D01*
X0103130Y0246128D01*
X0104866Y0244392D01*
X0104940Y0244392D01*
X0104940Y0244319D01*
X0106676Y0242583D01*
X0106749Y0242583D01*
X0106749Y0242509D01*
X0108485Y0240773D01*
X0108638Y0240773D01*
X0108647Y0240736D01*
X0108819Y0240440D01*
X0109395Y0239863D01*
X0111397Y0241864D01*
X0111460Y0241801D01*
X0109458Y0239800D01*
X0110035Y0239223D01*
X0110124Y0239172D01*
X0109232Y0238281D01*
X0108624Y0237672D01*
X0108362Y0237934D01*
X0102954Y0237934D01*
X0102274Y0237254D01*
X0102171Y0237432D01*
X0101929Y0237674D01*
X0101632Y0237845D01*
X0101302Y0237934D01*
X0099265Y0237934D01*
X0099265Y0234966D01*
X0098665Y0234966D01*
X0098665Y0237934D01*
X0096629Y0237934D01*
X0096298Y0237845D01*
X0096002Y0237674D01*
X0095760Y0237432D01*
X0095589Y0237136D01*
X0095500Y0236805D01*
X0095500Y0234965D01*
X0098665Y0234965D01*
X0098665Y0234366D01*
X0095500Y0234366D01*
X0095500Y0232526D01*
X0095589Y0232195D01*
X0095760Y0231899D01*
X0096002Y0231657D01*
X0096298Y0231486D01*
X0096629Y0231397D01*
X0098665Y0231397D01*
X0098665Y0234365D01*
X0099265Y0234365D01*
X0099265Y0231397D01*
X0101302Y0231397D01*
X0101632Y0231486D01*
X0101929Y0231657D01*
X0102171Y0231899D01*
X0102274Y0232077D01*
X0102954Y0231397D01*
X0108362Y0231397D01*
X0109124Y0232159D01*
X0109124Y0233100D01*
X0110673Y0233100D01*
X0111184Y0232589D01*
X0112100Y0232209D01*
X0113091Y0232209D01*
X0114006Y0232589D01*
X0114707Y0233289D01*
X0115076Y0234182D01*
X0115495Y0233763D01*
X0111332Y0229600D01*
X0106932Y0229600D01*
X0104822Y0227490D01*
X0103590Y0228000D01*
X0101601Y0228000D01*
X0099763Y0227239D01*
X0098356Y0225832D01*
X0097595Y0223995D01*
X0096834Y0225832D01*
X0095427Y0227239D01*
X0093590Y0228000D01*
X0091601Y0228000D01*
X0089763Y0227239D01*
X0088356Y0225832D01*
X0087595Y0223995D01*
X0086834Y0225832D01*
X0085427Y0227239D01*
X0083590Y0228000D01*
X0081601Y0228000D01*
X0079763Y0227239D01*
X0078356Y0225832D01*
X0077595Y0223995D01*
X0076834Y0225832D01*
X0075427Y0227239D01*
X0073590Y0228000D01*
X0071601Y0228000D01*
X0069763Y0227239D01*
X0068356Y0225832D01*
X0067595Y0223995D01*
X0066834Y0225832D01*
X0065427Y0227239D01*
X0063590Y0228000D01*
X0061601Y0228000D01*
X0059763Y0227239D01*
X0058356Y0225832D01*
X0057595Y0223995D01*
X0056834Y0225832D01*
X0055427Y0227239D01*
X0053590Y0228000D01*
X0051601Y0228000D01*
X0049763Y0227239D01*
X0048356Y0225832D01*
X0047595Y0223995D01*
X0046834Y0225832D01*
X0045427Y0227239D01*
X0043590Y0228000D01*
X0041601Y0228000D01*
X0039763Y0227239D01*
X0038356Y0225832D01*
X0037595Y0223995D01*
X0036834Y0225832D01*
X0035427Y0227239D01*
X0033590Y0228000D01*
X0035427Y0228761D01*
X0036834Y0230168D01*
X0037595Y0232005D01*
X0037595Y0233995D01*
X0036834Y0235832D01*
X0035427Y0237239D01*
X0033590Y0238000D01*
X0035427Y0238761D01*
X0036834Y0240168D01*
X0037595Y0242005D01*
X0037595Y0243995D01*
X0036834Y0245832D01*
X0035427Y0247239D01*
X0033590Y0248000D01*
X0031601Y0248000D01*
X0029763Y0247239D01*
X0028895Y0246371D01*
X0028895Y0249629D01*
X0029338Y0249186D01*
X0029975Y0248724D01*
X0030676Y0248366D01*
X0031424Y0248123D01*
X0032202Y0248000D01*
X0032295Y0248000D01*
X0032295Y0252700D01*
X0032895Y0252700D01*
X0032895Y0248000D01*
X0032989Y0248000D01*
X0033766Y0248123D01*
X0034514Y0248366D01*
X0035216Y0248724D01*
X0035852Y0249186D01*
X0036409Y0249743D01*
X0036872Y0250379D01*
X0037229Y0251081D01*
X0037472Y0251829D01*
X0037595Y0252606D01*
X0037595Y0252700D01*
X0032895Y0252700D01*
X0032895Y0253300D01*
X0032295Y0253300D01*
X0032295Y0258000D01*
X0032202Y0258000D01*
X0031424Y0257877D01*
X0030676Y0257634D01*
X0029975Y0257276D01*
X0029338Y0256814D01*
X0028895Y0256371D01*
X0028895Y0259629D01*
X0029763Y0258761D01*
X0031601Y0258000D01*
X0033590Y0258000D01*
X0035427Y0258761D01*
X0036834Y0260168D01*
X0036931Y0260402D01*
X0038732Y0258600D01*
X0039659Y0258600D01*
X0039659Y0258450D01*
X0040420Y0257688D01*
X0041426Y0257688D01*
X0041426Y0256268D01*
X0039745Y0256268D01*
X0038983Y0255507D01*
X0038983Y0250493D01*
X0039745Y0249731D01*
X0045153Y0249731D01*
X0045795Y0250374D01*
X0046438Y0249731D01*
X0051845Y0249731D01*
X0052195Y0250081D01*
X0052545Y0249731D01*
X0057953Y0249731D01*
X0058595Y0250374D01*
X0059238Y0249731D01*
X0064645Y0249731D01*
X0065407Y0250493D01*
X0065407Y0255507D01*
X0064645Y0256268D01*
X0063395Y0256268D01*
X0063395Y0256463D01*
X0062458Y0257400D01*
X0062070Y0257788D01*
X0062731Y0258450D01*
X0062731Y0258668D01*
X0063526Y0258668D01*
X0067058Y0262200D01*
X0067995Y0263137D01*
X0067995Y0270078D01*
X0068507Y0270589D01*
X0068886Y0271505D01*
X0068886Y0272495D01*
X0068507Y0273411D01*
X0067806Y0274111D01*
X0066891Y0274491D01*
X0065900Y0274491D01*
X0064984Y0274111D01*
X0064284Y0273411D01*
X0063905Y0272495D01*
X0063905Y0271505D01*
X0064284Y0270589D01*
X0064795Y0270078D01*
X0064795Y0264463D01*
X0062575Y0262242D01*
X0061970Y0262847D01*
X0056759Y0262847D01*
X0055998Y0262086D01*
X0055998Y0261868D01*
X0046393Y0261868D01*
X0046393Y0262086D01*
X0045631Y0262847D01*
X0044306Y0262847D01*
X0044406Y0262889D01*
X0045107Y0263589D01*
X0045486Y0264505D01*
X0045486Y0265495D01*
X0045213Y0266153D01*
X0045264Y0266153D01*
X0045595Y0266241D01*
X0045891Y0266413D01*
X0046133Y0266655D01*
X0046304Y0266951D01*
X0046393Y0267282D01*
X0046393Y0268432D01*
X0043326Y0268432D01*
X0043326Y0269032D01*
X0046393Y0269032D01*
X0046393Y0270183D01*
X0046304Y0270514D01*
X0046133Y0270810D01*
X0045891Y0271052D01*
X0045595Y0271223D01*
X0045264Y0271312D01*
X0043326Y0271312D01*
X0043326Y0269032D01*
X0042726Y0269032D01*
X0042726Y0268432D01*
X0039726Y0268432D01*
X0039195Y0268963D01*
X0039195Y0278663D01*
X0037085Y0280773D01*
X0037595Y0282005D01*
X0038356Y0280168D01*
X0039763Y0278761D01*
X0041601Y0278000D01*
X0043590Y0278000D01*
X0045427Y0278761D01*
X0046299Y0279633D01*
X0047795Y0278137D01*
X0047795Y0270722D01*
X0047284Y0270211D01*
X0046905Y0269295D01*
X0046905Y0268305D01*
X0047284Y0267389D01*
X0047984Y0266689D01*
X0048900Y0266309D01*
X0049891Y0266309D01*
X0050806Y0266689D01*
X0051507Y0267389D01*
X0051886Y0268305D01*
X0051886Y0269295D01*
X0051507Y0270211D01*
X0050995Y0270722D01*
X0050995Y0278251D01*
X0051601Y0278000D01*
X0053590Y0278000D01*
X0055427Y0278761D01*
X0056834Y0280168D01*
X0057595Y0282005D01*
X0058356Y0280168D01*
X0059763Y0278761D01*
X0061601Y0278000D01*
X0063590Y0278000D01*
X0064822Y0278510D01*
X0066932Y0276400D01*
X0075232Y0276400D01*
X0076432Y0275200D01*
X0084732Y0275200D01*
X0085932Y0274000D01*
X0090905Y0274000D01*
X0090772Y0273770D01*
X0090683Y0273440D01*
X0090683Y0271600D01*
X0093849Y0271600D01*
X0093849Y0271000D01*
X0094449Y0271000D01*
X0094449Y0268031D01*
X0096485Y0268031D01*
X0096816Y0268120D01*
X0097112Y0268291D01*
X0097354Y0268533D01*
X0097457Y0268712D01*
X0098138Y0268031D01*
X0103545Y0268031D01*
X0103793Y0268280D01*
X0104184Y0267889D01*
X0105100Y0267509D01*
X0105823Y0267509D01*
X0108314Y0265018D01*
X0108225Y0264967D01*
X0107649Y0264390D01*
X0109650Y0262389D01*
X0109587Y0262326D01*
X0107586Y0264327D01*
X0107009Y0263751D01*
X0106899Y0263559D01*
X0105786Y0264672D01*
X0105786Y0265395D01*
X0105407Y0266311D01*
X0104706Y0267011D01*
X0103791Y0267391D01*
X0102800Y0267391D01*
X0101884Y0267011D01*
X0101373Y0266500D01*
X0095441Y0266500D01*
X0094849Y0267093D01*
X0083142Y0267093D01*
X0082417Y0266368D01*
X0077638Y0266368D01*
X0076957Y0265688D01*
X0076854Y0265867D01*
X0076612Y0266109D01*
X0076316Y0266280D01*
X0075985Y0266368D01*
X0073949Y0266368D01*
X0073949Y0263400D01*
X0073349Y0263400D01*
X0073349Y0266368D01*
X0071312Y0266368D01*
X0070982Y0266280D01*
X0070685Y0266109D01*
X0070443Y0265867D01*
X0070272Y0265570D01*
X0070183Y0265240D01*
X0070183Y0263400D01*
X0073349Y0263400D01*
X0073349Y0262800D01*
X0073949Y0262800D01*
X0073949Y0259831D01*
X0075985Y0259831D01*
X0076316Y0259920D01*
X0076612Y0260091D01*
X0076854Y0260333D01*
X0076957Y0260512D01*
X0077638Y0259831D01*
X0082380Y0259831D01*
X0082432Y0259297D02*
X0064155Y0259297D01*
X0063557Y0258699D02*
X0070952Y0258699D01*
X0070247Y0258100D02*
X0062382Y0258100D01*
X0062356Y0257502D02*
X0070083Y0257502D01*
X0070083Y0256903D02*
X0062955Y0256903D01*
X0063395Y0256305D02*
X0070083Y0256305D01*
X0070083Y0255200D02*
X0070083Y0253360D01*
X0070172Y0253030D01*
X0070343Y0252733D01*
X0070585Y0252491D01*
X0070882Y0252320D01*
X0071212Y0252231D01*
X0073249Y0252231D01*
X0073249Y0255200D01*
X0070083Y0255200D01*
X0070083Y0255108D02*
X0065407Y0255108D01*
X0065407Y0254509D02*
X0070083Y0254509D01*
X0070083Y0253911D02*
X0065407Y0253911D01*
X0065407Y0253312D02*
X0070096Y0253312D01*
X0070363Y0252714D02*
X0065407Y0252714D01*
X0065407Y0252115D02*
X0082380Y0252115D01*
X0082732Y0251517D02*
X0065407Y0251517D01*
X0065407Y0250918D02*
X0092951Y0250918D01*
X0092352Y0250320D02*
X0065234Y0250320D01*
X0066080Y0248400D02*
X0064389Y0247700D01*
X0064090Y0247400D01*
X0063607Y0247400D01*
X0063607Y0248307D01*
X0062845Y0249068D01*
X0057438Y0249068D01*
X0056757Y0248388D01*
X0056654Y0248567D01*
X0056412Y0248809D01*
X0056116Y0248980D01*
X0055785Y0249068D01*
X0053749Y0249068D01*
X0053749Y0246100D01*
X0053149Y0246100D01*
X0053149Y0249068D01*
X0051112Y0249068D01*
X0050782Y0248980D01*
X0050485Y0248809D01*
X0050243Y0248567D01*
X0050218Y0248523D01*
X0050141Y0248600D01*
X0048150Y0248600D01*
X0047095Y0247546D01*
X0047095Y0247100D01*
X0038650Y0247100D01*
X0037595Y0246046D01*
X0037595Y0237054D01*
X0038650Y0236000D01*
X0049983Y0236000D01*
X0049983Y0235000D01*
X0053149Y0235000D01*
X0053149Y0237968D01*
X0051195Y0237968D01*
X0051195Y0242531D01*
X0053149Y0242531D01*
X0053149Y0245500D01*
X0053749Y0245500D01*
X0053749Y0242531D01*
X0055785Y0242531D01*
X0056116Y0242620D01*
X0056412Y0242791D01*
X0056654Y0243033D01*
X0056757Y0243212D01*
X0057438Y0242531D01*
X0062542Y0242531D01*
X0063095Y0241194D01*
X0064389Y0239900D01*
X0066080Y0239200D01*
X0067910Y0239200D01*
X0069601Y0239900D01*
X0070895Y0241194D01*
X0071595Y0242885D01*
X0071595Y0244715D01*
X0070895Y0246406D01*
X0069601Y0247700D01*
X0067910Y0248400D01*
X0066080Y0248400D01*
X0064935Y0247926D02*
X0063607Y0247926D01*
X0063390Y0248524D02*
X0090556Y0248524D01*
X0089958Y0247926D02*
X0069055Y0247926D01*
X0069973Y0247327D02*
X0089864Y0247327D01*
X0089864Y0246729D02*
X0070572Y0246729D01*
X0071009Y0246130D02*
X0089864Y0246130D01*
X0089864Y0245532D02*
X0071257Y0245532D01*
X0071505Y0244933D02*
X0072042Y0244933D01*
X0071759Y0244334D02*
X0071595Y0244334D01*
X0071595Y0243736D02*
X0071759Y0243736D01*
X0071759Y0243137D02*
X0071595Y0243137D01*
X0071452Y0242539D02*
X0071759Y0242539D01*
X0071759Y0241940D02*
X0071204Y0241940D01*
X0070956Y0241342D02*
X0071759Y0241342D01*
X0072030Y0240743D02*
X0070444Y0240743D01*
X0069845Y0240145D02*
X0109114Y0240145D01*
X0109677Y0240145D02*
X0109803Y0240145D01*
X0109712Y0239546D02*
X0068746Y0239546D01*
X0068032Y0238349D02*
X0109301Y0238349D01*
X0108702Y0237751D02*
X0108545Y0237751D01*
X0109895Y0236681D02*
X0109895Y0234700D01*
X0112595Y0234700D01*
X0110810Y0232963D02*
X0109124Y0232963D01*
X0109124Y0232364D02*
X0111726Y0232364D01*
X0112900Y0231167D02*
X0070868Y0231167D01*
X0070895Y0231194D02*
X0071595Y0232885D01*
X0071595Y0234715D01*
X0070895Y0236406D01*
X0069601Y0237700D01*
X0067910Y0238400D01*
X0066080Y0238400D01*
X0064389Y0237700D01*
X0063607Y0236917D01*
X0063607Y0237207D01*
X0062845Y0237968D01*
X0057438Y0237968D01*
X0056757Y0237288D01*
X0056654Y0237467D01*
X0056412Y0237709D01*
X0056116Y0237880D01*
X0055785Y0237968D01*
X0053749Y0237968D01*
X0053749Y0235000D01*
X0053149Y0235000D01*
X0053149Y0234400D01*
X0053749Y0234400D01*
X0053749Y0231431D01*
X0055785Y0231431D01*
X0056116Y0231520D01*
X0056412Y0231691D01*
X0056654Y0231933D01*
X0056757Y0232112D01*
X0057438Y0231431D01*
X0062845Y0231431D01*
X0062953Y0231539D01*
X0063095Y0231194D01*
X0064389Y0229900D01*
X0066080Y0229200D01*
X0067910Y0229200D01*
X0069601Y0229900D01*
X0070895Y0231194D01*
X0071132Y0231766D02*
X0095893Y0231766D01*
X0095543Y0232364D02*
X0094615Y0232364D01*
X0094572Y0232290D02*
X0094743Y0232586D01*
X0094831Y0232917D01*
X0094831Y0234068D01*
X0091764Y0234068D01*
X0091764Y0231788D01*
X0093703Y0231788D01*
X0094033Y0231877D01*
X0094330Y0232048D01*
X0094572Y0232290D01*
X0094831Y0232963D02*
X0095500Y0232963D01*
X0095500Y0233561D02*
X0094831Y0233561D01*
X0095500Y0234160D02*
X0091764Y0234160D01*
X0091764Y0234068D02*
X0091764Y0234668D01*
X0091164Y0234668D01*
X0091164Y0234068D01*
X0088098Y0234068D01*
X0088098Y0232917D01*
X0088186Y0232586D01*
X0088357Y0232290D01*
X0088599Y0232048D01*
X0088896Y0231877D01*
X0089226Y0231788D01*
X0091164Y0231788D01*
X0091164Y0234068D01*
X0091764Y0234068D01*
X0091764Y0233561D02*
X0091164Y0233561D01*
X0091164Y0232963D02*
X0091764Y0232963D01*
X0091764Y0232364D02*
X0091164Y0232364D01*
X0091164Y0234160D02*
X0075426Y0234160D01*
X0075426Y0234068D02*
X0075426Y0234668D01*
X0074826Y0234668D01*
X0074826Y0236947D01*
X0072888Y0236947D01*
X0072557Y0236859D01*
X0072261Y0236687D01*
X0072019Y0236445D01*
X0071848Y0236149D01*
X0071759Y0235818D01*
X0071759Y0234668D01*
X0074826Y0234668D01*
X0074826Y0234068D01*
X0071759Y0234068D01*
X0071759Y0232917D01*
X0071848Y0232586D01*
X0072019Y0232290D01*
X0072261Y0232048D01*
X0072557Y0231877D01*
X0072888Y0231788D01*
X0074826Y0231788D01*
X0074826Y0234068D01*
X0075426Y0234068D01*
X0078493Y0234068D01*
X0078493Y0232917D01*
X0078404Y0232586D01*
X0078233Y0232290D01*
X0077991Y0232048D01*
X0077695Y0231877D01*
X0077364Y0231788D01*
X0075426Y0231788D01*
X0075426Y0234068D01*
X0075426Y0233561D02*
X0074826Y0233561D01*
X0074826Y0232963D02*
X0075426Y0232963D01*
X0075426Y0232364D02*
X0074826Y0232364D01*
X0074826Y0234160D02*
X0071595Y0234160D01*
X0071577Y0234758D02*
X0071759Y0234758D01*
X0071759Y0235357D02*
X0071329Y0235357D01*
X0071081Y0235955D02*
X0071796Y0235955D01*
X0072127Y0236554D02*
X0070747Y0236554D01*
X0070148Y0237152D02*
X0095598Y0237152D01*
X0095500Y0236554D02*
X0094463Y0236554D01*
X0094572Y0236445D02*
X0094330Y0236687D01*
X0094033Y0236859D01*
X0093703Y0236947D01*
X0091764Y0236947D01*
X0091764Y0234668D01*
X0094831Y0234668D01*
X0094831Y0235818D01*
X0094743Y0236149D01*
X0094572Y0236445D01*
X0094795Y0235955D02*
X0095500Y0235955D01*
X0095500Y0235357D02*
X0094831Y0235357D01*
X0094831Y0234758D02*
X0098665Y0234758D01*
X0098665Y0234160D02*
X0099265Y0234160D01*
X0099265Y0233561D02*
X0098665Y0233561D01*
X0098665Y0232963D02*
X0099265Y0232963D01*
X0099265Y0232364D02*
X0098665Y0232364D01*
X0098665Y0231766D02*
X0099265Y0231766D01*
X0102038Y0231766D02*
X0102586Y0231766D01*
X0105658Y0234666D02*
X0105693Y0234700D01*
X0109895Y0234700D01*
X0109895Y0236681D02*
X0113269Y0240055D01*
X0113250Y0240055D01*
X0112595Y0239400D01*
X0111000Y0241342D02*
X0110874Y0241342D01*
X0110402Y0240743D02*
X0110276Y0240743D01*
X0108646Y0240743D02*
X0094561Y0240743D01*
X0094831Y0241342D02*
X0107917Y0241342D01*
X0107318Y0241940D02*
X0094831Y0241940D01*
X0094831Y0242539D02*
X0106749Y0242539D01*
X0106121Y0243137D02*
X0094831Y0243137D01*
X0094831Y0243736D02*
X0105522Y0243736D01*
X0104940Y0244334D02*
X0094831Y0244334D01*
X0094549Y0244933D02*
X0104325Y0244933D01*
X0103727Y0245532D02*
X0093064Y0245532D01*
X0093064Y0246130D02*
X0096150Y0246130D01*
X0097240Y0246130D02*
X0098967Y0246130D01*
X0101023Y0246130D02*
X0103130Y0246130D01*
X0102530Y0246729D02*
X0101846Y0246729D01*
X0099995Y0248400D02*
X0102412Y0250817D01*
X0102412Y0250912D01*
X0104221Y0249103D02*
X0104298Y0249103D01*
X0106695Y0251500D01*
X0107195Y0251500D01*
X0109495Y0250700D02*
X0106088Y0247293D01*
X0106031Y0247293D01*
X0107841Y0245484D02*
X0107879Y0245484D01*
X0111695Y0249300D01*
X0111695Y0251400D01*
X0109495Y0250700D02*
X0109495Y0253600D01*
X0107176Y0254509D02*
X0105899Y0254509D01*
X0105386Y0253997D02*
X0107122Y0255733D01*
X0107122Y0255806D01*
X0107196Y0255806D01*
X0108932Y0257542D01*
X0108932Y0257616D01*
X0109005Y0257616D01*
X0110741Y0259352D01*
X0110741Y0259504D01*
X0110778Y0259514D01*
X0111075Y0259685D01*
X0111651Y0260262D01*
X0109650Y0262263D01*
X0109713Y0262326D01*
X0111714Y0260325D01*
X0112291Y0260901D01*
X0112462Y0261198D01*
X0112472Y0261235D01*
X0112624Y0261235D01*
X0113860Y0262470D01*
X0113705Y0262095D01*
X0113705Y0261105D01*
X0114084Y0260189D01*
X0114784Y0259489D01*
X0115700Y0259109D01*
X0116691Y0259109D01*
X0117606Y0259489D01*
X0118307Y0260189D01*
X0118686Y0261105D01*
X0118686Y0261364D01*
X0119300Y0261109D01*
X0120291Y0261109D01*
X0121206Y0261489D01*
X0121907Y0262189D01*
X0122286Y0263105D01*
X0122286Y0264095D01*
X0122071Y0264613D01*
X0125629Y0268171D01*
X0127137Y0266663D01*
X0127211Y0266663D01*
X0127211Y0266590D01*
X0128757Y0265044D01*
X0127932Y0264219D01*
X0126995Y0263282D01*
X0126995Y0263263D01*
X0119295Y0255563D01*
X0119295Y0251222D01*
X0118784Y0250711D01*
X0118405Y0249795D01*
X0118405Y0248805D01*
X0118784Y0247889D01*
X0119484Y0247189D01*
X0120400Y0246809D01*
X0121391Y0246809D01*
X0122306Y0247189D01*
X0123007Y0247889D01*
X0123386Y0248805D01*
X0123386Y0249795D01*
X0123007Y0250711D01*
X0122495Y0251222D01*
X0122495Y0254237D01*
X0126397Y0258139D01*
X0126584Y0257689D01*
X0127284Y0256989D01*
X0128200Y0256609D01*
X0129191Y0256609D01*
X0130106Y0256989D01*
X0130807Y0257689D01*
X0131186Y0258605D01*
X0131186Y0259328D01*
X0132848Y0260990D01*
X0132899Y0260901D01*
X0133476Y0260325D01*
X0135477Y0262326D01*
X0135540Y0262263D01*
X0133539Y0260262D01*
X0134116Y0259685D01*
X0134180Y0259648D01*
X0132995Y0258463D01*
X0132995Y0258322D01*
X0132484Y0257811D01*
X0132105Y0256895D01*
X0132105Y0255905D01*
X0132484Y0254989D01*
X0133184Y0254289D01*
X0134100Y0253909D01*
X0135042Y0253909D01*
X0134705Y0253095D01*
X0134705Y0252105D01*
X0135084Y0251189D01*
X0135784Y0250489D01*
X0136700Y0250109D01*
X0137691Y0250109D01*
X0138068Y0250266D01*
X0138068Y0250194D01*
X0137994Y0250194D01*
X0136259Y0248458D01*
X0136259Y0248384D01*
X0136185Y0248384D01*
X0134449Y0246648D01*
X0134449Y0246575D01*
X0134375Y0246575D01*
X0132639Y0244839D01*
X0132639Y0244686D01*
X0132603Y0244677D01*
X0132306Y0244505D01*
X0131729Y0243929D01*
X0133731Y0241927D01*
X0133668Y0241864D01*
X0131666Y0243866D01*
X0131230Y0243429D01*
X0130907Y0244211D01*
X0130206Y0244911D01*
X0129291Y0245291D01*
X0128300Y0245291D01*
X0127384Y0244911D01*
X0126684Y0244211D01*
X0126305Y0243295D01*
X0126305Y0242572D01*
X0123332Y0239600D01*
X0118279Y0239600D01*
X0118279Y0241261D01*
X0118807Y0241789D01*
X0119186Y0242705D01*
X0119186Y0243695D01*
X0118807Y0244611D01*
X0118106Y0245311D01*
X0117191Y0245691D01*
X0116200Y0245691D01*
X0115284Y0245311D01*
X0114584Y0244611D01*
X0114205Y0243695D01*
X0114205Y0243109D01*
X0114101Y0243289D01*
X0113524Y0243866D01*
X0111523Y0241864D01*
X0111460Y0241927D01*
X0113461Y0243929D01*
X0112884Y0244505D01*
X0112808Y0244550D01*
X0114958Y0246700D01*
X0115895Y0247637D01*
X0115895Y0251578D01*
X0116407Y0252089D01*
X0116786Y0253005D01*
X0116786Y0253995D01*
X0116407Y0254911D01*
X0115706Y0255611D01*
X0114791Y0255991D01*
X0113800Y0255991D01*
X0112884Y0255611D01*
X0112184Y0254911D01*
X0111916Y0254264D01*
X0111607Y0255011D01*
X0110906Y0255711D01*
X0109991Y0256091D01*
X0109000Y0256091D01*
X0108084Y0255711D01*
X0107384Y0255011D01*
X0107005Y0254095D01*
X0107005Y0253991D01*
X0106700Y0253991D01*
X0105784Y0253611D01*
X0105084Y0252911D01*
X0104907Y0252483D01*
X0104390Y0253000D01*
X0105313Y0253923D01*
X0105313Y0253997D01*
X0105386Y0253997D01*
X0105300Y0253911D02*
X0106507Y0253911D01*
X0105485Y0253312D02*
X0104702Y0253312D01*
X0104676Y0252714D02*
X0105002Y0252714D01*
X0106497Y0255108D02*
X0107481Y0255108D01*
X0107096Y0255706D02*
X0108079Y0255706D01*
X0107694Y0256305D02*
X0120037Y0256305D01*
X0120636Y0256903D02*
X0108293Y0256903D01*
X0108891Y0257502D02*
X0121234Y0257502D01*
X0121833Y0258100D02*
X0109490Y0258100D01*
X0110088Y0258699D02*
X0122431Y0258699D01*
X0123030Y0259297D02*
X0117144Y0259297D01*
X0118013Y0259896D02*
X0123628Y0259896D01*
X0124227Y0260494D02*
X0118433Y0260494D01*
X0118681Y0261093D02*
X0124825Y0261093D01*
X0125424Y0261691D02*
X0121409Y0261691D01*
X0121948Y0262290D02*
X0126022Y0262290D01*
X0126621Y0262888D02*
X0122196Y0262888D01*
X0122286Y0263487D02*
X0127200Y0263487D01*
X0127799Y0264085D02*
X0122286Y0264085D01*
X0122142Y0264684D02*
X0128397Y0264684D01*
X0128518Y0265282D02*
X0122740Y0265282D01*
X0123339Y0265881D02*
X0127920Y0265881D01*
X0127321Y0266479D02*
X0123937Y0266479D01*
X0124536Y0267078D02*
X0126723Y0267078D01*
X0126124Y0267676D02*
X0125134Y0267676D01*
X0128302Y0269564D02*
X0128359Y0269564D01*
X0129795Y0271000D01*
X0129795Y0280200D01*
X0132595Y0283000D01*
X0134701Y0277800D02*
X0139901Y0283000D01*
X0142595Y0283000D01*
X0147165Y0285033D02*
X0148025Y0285033D01*
X0147777Y0284435D02*
X0147413Y0284435D01*
X0147595Y0283995D02*
X0146834Y0285832D01*
X0145966Y0286700D01*
X0149224Y0286700D01*
X0148356Y0285832D01*
X0147595Y0283995D01*
X0147595Y0282005D01*
X0148356Y0280168D01*
X0149763Y0278761D01*
X0151601Y0278000D01*
X0153590Y0278000D01*
X0155427Y0278761D01*
X0156834Y0280168D01*
X0157595Y0282005D01*
X0158356Y0280168D01*
X0159763Y0278761D01*
X0161601Y0278000D01*
X0163590Y0278000D01*
X0165427Y0278761D01*
X0166834Y0280168D01*
X0167595Y0282005D01*
X0168356Y0280168D01*
X0169763Y0278761D01*
X0171601Y0278000D01*
X0173590Y0278000D01*
X0175427Y0278761D01*
X0176834Y0280168D01*
X0177595Y0282005D01*
X0178356Y0280168D01*
X0179763Y0278761D01*
X0181601Y0278000D01*
X0183590Y0278000D01*
X0185427Y0278761D01*
X0186834Y0280168D01*
X0187595Y0282005D01*
X0188356Y0280168D01*
X0189763Y0278761D01*
X0191601Y0278000D01*
X0193590Y0278000D01*
X0195427Y0278761D01*
X0196834Y0280168D01*
X0197595Y0282005D01*
X0198356Y0280168D01*
X0199763Y0278761D01*
X0201601Y0278000D01*
X0203590Y0278000D01*
X0205427Y0278761D01*
X0206834Y0280168D01*
X0207595Y0282005D01*
X0207595Y0283995D01*
X0206834Y0285832D01*
X0205966Y0286700D01*
X0209224Y0286700D01*
X0208781Y0286257D01*
X0208319Y0285621D01*
X0207961Y0284919D01*
X0207718Y0284171D01*
X0207595Y0283394D01*
X0207595Y0283300D01*
X0212295Y0283300D01*
X0212295Y0282700D01*
X0207595Y0282700D01*
X0207595Y0282606D01*
X0207718Y0281829D01*
X0207961Y0281081D01*
X0208319Y0280379D01*
X0208781Y0279743D01*
X0209338Y0279186D01*
X0209975Y0278724D01*
X0210676Y0278366D01*
X0211424Y0278123D01*
X0212202Y0278000D01*
X0212295Y0278000D01*
X0212295Y0282700D01*
X0212895Y0282700D01*
X0212895Y0278000D01*
X0212989Y0278000D01*
X0213766Y0278123D01*
X0214514Y0278366D01*
X0215216Y0278724D01*
X0215852Y0279186D01*
X0216409Y0279743D01*
X0216872Y0280379D01*
X0217229Y0281081D01*
X0217472Y0281829D01*
X0217595Y0282606D01*
X0217595Y0282700D01*
X0212895Y0282700D01*
X0212895Y0283300D01*
X0217595Y0283300D01*
X0217595Y0283394D01*
X0217472Y0284171D01*
X0217229Y0284919D01*
X0216872Y0285621D01*
X0216409Y0286257D01*
X0215966Y0286700D01*
X0219224Y0286700D01*
X0218356Y0285832D01*
X0217595Y0283995D01*
X0217595Y0282005D01*
X0218356Y0280168D01*
X0219763Y0278761D01*
X0219980Y0278671D01*
X0214272Y0272964D01*
X0213701Y0273534D01*
X0210144Y0273534D01*
X0209383Y0272772D01*
X0209383Y0268428D01*
X0210144Y0267666D01*
X0213701Y0267666D01*
X0214463Y0268428D01*
X0214463Y0268700D01*
X0214922Y0268700D01*
X0214746Y0268354D01*
X0214517Y0267652D01*
X0214402Y0266922D01*
X0214402Y0266852D01*
X0214746Y0266852D01*
X0214746Y0266252D01*
X0214402Y0266252D01*
X0214402Y0266182D01*
X0214517Y0265452D01*
X0214746Y0264749D01*
X0214773Y0264697D01*
X0214746Y0264697D01*
X0214746Y0261873D01*
X0214835Y0261542D01*
X0215006Y0261246D01*
X0215248Y0261004D01*
X0215322Y0260961D01*
X0215248Y0260919D01*
X0215006Y0260677D01*
X0214835Y0260381D01*
X0214746Y0260050D01*
X0214746Y0257226D01*
X0218797Y0257226D01*
X0218797Y0256626D01*
X0214746Y0256626D01*
X0214746Y0253802D01*
X0214835Y0253471D01*
X0215006Y0253175D01*
X0215192Y0252989D01*
X0215006Y0252803D01*
X0214835Y0252506D01*
X0214746Y0252176D01*
X0214746Y0249352D01*
X0218797Y0249352D01*
X0218797Y0248752D01*
X0214746Y0248752D01*
X0214746Y0245928D01*
X0214835Y0245597D01*
X0215006Y0245301D01*
X0215248Y0245059D01*
X0215322Y0245017D01*
X0215248Y0244974D01*
X0215006Y0244732D01*
X0214835Y0244436D01*
X0214746Y0244105D01*
X0214746Y0241281D01*
X0214773Y0241281D01*
X0214746Y0241228D01*
X0214517Y0240526D01*
X0214402Y0239796D01*
X0214402Y0239726D01*
X0214746Y0239726D01*
X0214746Y0239126D01*
X0214402Y0239126D01*
X0214402Y0239056D01*
X0214517Y0238326D01*
X0214645Y0237934D01*
X0211544Y0237934D01*
X0210783Y0237172D01*
X0210783Y0232828D01*
X0211544Y0232066D01*
X0215101Y0232066D01*
X0215472Y0232436D01*
X0220404Y0227504D01*
X0219763Y0227239D01*
X0218356Y0225832D01*
X0217595Y0223995D01*
X0217595Y0222005D01*
X0218356Y0220168D01*
X0219224Y0219300D01*
X0215966Y0219300D01*
X0216409Y0219743D01*
X0216872Y0220379D01*
X0217229Y0221081D01*
X0217472Y0221829D01*
X0217595Y0222606D01*
X0217595Y0222700D01*
X0212895Y0222700D01*
X0212895Y0223300D01*
X0212295Y0223300D01*
X0212295Y0222700D01*
X0207595Y0222700D01*
X0207595Y0222606D01*
X0207718Y0221829D01*
X0207961Y0221081D01*
X0208319Y0220379D01*
X0208781Y0219743D01*
X0209224Y0219300D01*
X0205966Y0219300D01*
X0206834Y0220168D01*
X0207595Y0222005D01*
X0207595Y0223995D01*
X0206834Y0225832D01*
X0205427Y0227239D01*
X0203590Y0228000D01*
X0201601Y0228000D01*
X0199763Y0227239D01*
X0198356Y0225832D01*
X0197595Y0223995D01*
X0196834Y0225832D01*
X0195427Y0227239D01*
X0193590Y0228000D01*
X0191601Y0228000D01*
X0189763Y0227239D01*
X0188869Y0226345D01*
X0186552Y0228663D01*
X0185614Y0229600D01*
X0169517Y0229600D01*
X0169006Y0230111D01*
X0168091Y0230491D01*
X0167100Y0230491D01*
X0166184Y0230111D01*
X0165484Y0229411D01*
X0165105Y0228495D01*
X0165105Y0227505D01*
X0165171Y0227345D01*
X0163590Y0228000D01*
X0161601Y0228000D01*
X0159763Y0227239D01*
X0158514Y0225990D01*
X0154905Y0229600D01*
X0146685Y0229600D01*
X0145485Y0230800D01*
X0140458Y0230800D01*
X0134895Y0236363D01*
X0134895Y0239073D01*
X0135155Y0239223D01*
X0135732Y0239800D01*
X0133731Y0241801D01*
X0133794Y0241864D01*
X0135795Y0239863D01*
X0136372Y0240440D01*
X0136416Y0240517D01*
X0136948Y0239984D01*
X0137885Y0239047D01*
X0138585Y0239047D01*
X0142779Y0234854D01*
X0145327Y0234854D01*
X0145327Y0233750D01*
X0146088Y0232988D01*
X0151102Y0232988D01*
X0151696Y0233582D01*
X0157196Y0233582D01*
X0157739Y0234125D01*
X0158500Y0233809D01*
X0159327Y0233809D01*
X0159327Y0233650D01*
X0160088Y0232888D01*
X0160210Y0232888D01*
X0160005Y0232393D01*
X0160005Y0231402D01*
X0160384Y0230487D01*
X0161084Y0229786D01*
X0162000Y0229407D01*
X0162991Y0229407D01*
X0163906Y0229786D01*
X0164417Y0230298D01*
X0166612Y0230298D01*
X0167152Y0230838D01*
X0169565Y0230838D01*
X0170327Y0231599D01*
X0170327Y0237401D01*
X0169565Y0238162D01*
X0169052Y0238162D01*
X0169052Y0241806D01*
X0166211Y0244646D01*
X0165864Y0244646D01*
X0165864Y0245750D01*
X0165102Y0246512D01*
X0163926Y0246512D01*
X0164004Y0246590D01*
X0164175Y0246886D01*
X0164264Y0247217D01*
X0164264Y0249254D01*
X0161295Y0249254D01*
X0161295Y0249854D01*
X0164264Y0249854D01*
X0164264Y0251890D01*
X0164175Y0252221D01*
X0164004Y0252517D01*
X0163762Y0252759D01*
X0163583Y0252862D01*
X0164264Y0253543D01*
X0164264Y0258213D01*
X0164715Y0257761D01*
X0164420Y0257466D01*
X0164420Y0253239D01*
X0165182Y0252478D01*
X0168995Y0252478D01*
X0168995Y0252322D01*
X0167595Y0252322D01*
X0167595Y0249747D01*
X0166995Y0249747D01*
X0166995Y0249147D01*
X0167595Y0249147D01*
X0167595Y0246572D01*
X0169041Y0246572D01*
X0169372Y0246661D01*
X0169668Y0246832D01*
X0169910Y0247074D01*
X0170081Y0247371D01*
X0170170Y0247701D01*
X0170170Y0248200D01*
X0171262Y0248200D01*
X0171262Y0244446D01*
X0174662Y0244446D01*
X0174662Y0243846D01*
X0175262Y0243846D01*
X0175262Y0238446D01*
X0177533Y0238446D01*
X0177864Y0238535D01*
X0178160Y0238706D01*
X0178402Y0238948D01*
X0180622Y0238948D01*
X0180362Y0239208D02*
X0181124Y0238446D01*
X0182295Y0238446D01*
X0182295Y0236813D01*
X0182305Y0236804D01*
X0182305Y0236705D01*
X0182684Y0235789D01*
X0183384Y0235089D01*
X0184300Y0234709D01*
X0185291Y0234709D01*
X0186206Y0235089D01*
X0186907Y0235789D01*
X0187286Y0236705D01*
X0187286Y0237695D01*
X0186975Y0238446D01*
X0187001Y0238446D01*
X0187762Y0239208D01*
X0187762Y0242600D01*
X0189462Y0242600D01*
X0189462Y0239208D01*
X0190224Y0238446D01*
X0191262Y0238446D01*
X0191262Y0237546D01*
X0194955Y0233854D01*
X0196227Y0233854D01*
X0196227Y0233050D01*
X0196988Y0232288D01*
X0202002Y0232288D01*
X0202134Y0232421D01*
X0202489Y0232066D01*
X0204514Y0232066D01*
X0205305Y0231276D01*
X0205305Y0231205D01*
X0205684Y0230289D01*
X0206384Y0229589D01*
X0207300Y0229209D01*
X0208291Y0229209D01*
X0209206Y0229589D01*
X0209907Y0230289D01*
X0210286Y0231205D01*
X0210286Y0232195D01*
X0209907Y0233111D01*
X0209206Y0233811D01*
X0208291Y0234191D01*
X0207764Y0234191D01*
X0206808Y0235147D01*
X0206808Y0237172D01*
X0206046Y0237934D01*
X0202764Y0237934D01*
X0202764Y0238457D01*
X0202083Y0239138D01*
X0202262Y0239241D01*
X0202504Y0239483D01*
X0202675Y0239779D01*
X0202764Y0240110D01*
X0202764Y0242146D01*
X0199795Y0242146D01*
X0199795Y0242746D01*
X0202764Y0242746D01*
X0202764Y0244600D01*
X0204769Y0244600D01*
X0204647Y0244305D01*
X0204494Y0243538D01*
X0204494Y0243446D01*
X0208168Y0243446D01*
X0208168Y0242846D01*
X0208768Y0242846D01*
X0208768Y0243446D01*
X0212441Y0243446D01*
X0212441Y0243538D01*
X0212288Y0244305D01*
X0211989Y0245028D01*
X0211554Y0245679D01*
X0211450Y0245783D01*
X0211664Y0245783D01*
X0212425Y0246545D01*
X0212425Y0256874D01*
X0212367Y0256932D01*
X0212425Y0257149D01*
X0212425Y0258013D01*
X0208561Y0258013D01*
X0208561Y0258201D01*
X0208374Y0258201D01*
X0208374Y0260194D01*
X0208168Y0260194D01*
X0208168Y0262531D01*
X0208768Y0262531D01*
X0208768Y0260194D01*
X0208561Y0260194D01*
X0208561Y0258201D01*
X0212425Y0258201D01*
X0212425Y0259066D01*
X0212336Y0259396D01*
X0212165Y0259693D01*
X0211923Y0259935D01*
X0211627Y0260106D01*
X0211417Y0260162D01*
X0211554Y0260299D01*
X0211989Y0260949D01*
X0212288Y0261673D01*
X0212441Y0262440D01*
X0212441Y0262531D01*
X0208768Y0262531D01*
X0208768Y0263131D01*
X0212441Y0263131D01*
X0212441Y0263223D01*
X0212288Y0263990D01*
X0211989Y0264714D01*
X0211554Y0265364D01*
X0211000Y0265918D01*
X0210350Y0266353D01*
X0209627Y0266652D01*
X0208859Y0266805D01*
X0208768Y0266805D01*
X0208768Y0263132D01*
X0208168Y0263132D01*
X0208168Y0266805D01*
X0208076Y0266805D01*
X0207309Y0266652D01*
X0206586Y0266353D01*
X0205935Y0265918D01*
X0205381Y0265364D01*
X0204947Y0264714D01*
X0204647Y0263990D01*
X0204494Y0263223D01*
X0204494Y0263131D01*
X0208168Y0263131D01*
X0208168Y0262531D01*
X0204494Y0262531D01*
X0204494Y0262440D01*
X0204647Y0261673D01*
X0204947Y0260949D01*
X0205381Y0260299D01*
X0205518Y0260162D01*
X0205308Y0260106D01*
X0205012Y0259935D01*
X0204770Y0259693D01*
X0204599Y0259396D01*
X0204510Y0259066D01*
X0204510Y0258201D01*
X0208374Y0258201D01*
X0208374Y0258013D01*
X0204510Y0258013D01*
X0204510Y0257149D01*
X0204568Y0256932D01*
X0204510Y0256874D01*
X0204510Y0255613D01*
X0201826Y0255613D01*
X0201595Y0255382D01*
X0201595Y0267666D01*
X0204646Y0267666D01*
X0205408Y0268428D01*
X0205408Y0272772D01*
X0204646Y0273534D01*
X0201089Y0273534D01*
X0200327Y0272772D01*
X0200327Y0272500D01*
X0200008Y0272500D01*
X0198895Y0271387D01*
X0197795Y0270287D01*
X0197795Y0251022D01*
X0197584Y0250811D01*
X0197205Y0249895D01*
X0197205Y0248905D01*
X0197584Y0247989D01*
X0198284Y0247289D01*
X0198857Y0247052D01*
X0198908Y0247000D01*
X0199996Y0245912D01*
X0199795Y0245912D01*
X0199795Y0242746D01*
X0199195Y0242746D01*
X0199195Y0245912D01*
X0197355Y0245912D01*
X0197025Y0245823D01*
X0196895Y0245748D01*
X0196895Y0274463D01*
X0195958Y0275400D01*
X0169932Y0275400D01*
X0168995Y0274463D01*
X0168995Y0271312D01*
X0164788Y0271312D01*
X0164027Y0270550D01*
X0164027Y0265143D01*
X0164669Y0264500D01*
X0164027Y0263857D01*
X0164027Y0259187D01*
X0163825Y0259389D01*
X0163870Y0259434D01*
X0163870Y0263661D01*
X0163108Y0264422D01*
X0158882Y0264422D01*
X0158120Y0263661D01*
X0158120Y0259434D01*
X0158165Y0259389D01*
X0157727Y0258950D01*
X0157727Y0253543D01*
X0158407Y0252862D01*
X0158228Y0252759D01*
X0157986Y0252517D01*
X0157815Y0252221D01*
X0157727Y0251890D01*
X0157727Y0249854D01*
X0160695Y0249854D01*
X0160695Y0249254D01*
X0157727Y0249254D01*
X0157727Y0247217D01*
X0157815Y0246886D01*
X0157986Y0246590D01*
X0158228Y0246348D01*
X0158525Y0246177D01*
X0158855Y0246088D01*
X0159665Y0246088D01*
X0159327Y0245750D01*
X0159327Y0240343D01*
X0159969Y0239700D01*
X0159327Y0239057D01*
X0159327Y0238791D01*
X0158500Y0238791D01*
X0157957Y0238566D01*
X0157957Y0238570D01*
X0157196Y0239331D01*
X0151690Y0239331D01*
X0151183Y0239838D01*
X0151362Y0239941D01*
X0151604Y0240183D01*
X0151775Y0240479D01*
X0151826Y0240669D01*
X0153995Y0240669D01*
X0153995Y0243243D01*
X0154595Y0243243D01*
X0154595Y0240669D01*
X0156828Y0240669D01*
X0157159Y0240757D01*
X0157456Y0240928D01*
X0157698Y0241170D01*
X0157869Y0241467D01*
X0157957Y0241797D01*
X0157957Y0243243D01*
X0154595Y0243243D01*
X0154595Y0243843D01*
X0157957Y0243843D01*
X0157957Y0245289D01*
X0157869Y0245620D01*
X0157698Y0245916D01*
X0157456Y0246158D01*
X0157159Y0246330D01*
X0156831Y0246417D01*
X0156904Y0246490D01*
X0157075Y0246786D01*
X0157164Y0247117D01*
X0157164Y0249154D01*
X0154195Y0249154D01*
X0154195Y0249754D01*
X0157164Y0249754D01*
X0157164Y0251790D01*
X0157075Y0252121D01*
X0156904Y0252417D01*
X0156662Y0252659D01*
X0156483Y0252762D01*
X0157164Y0253443D01*
X0157164Y0258850D01*
X0156402Y0259612D01*
X0156182Y0259612D01*
X0156386Y0260105D01*
X0156386Y0261095D01*
X0156007Y0262011D01*
X0155306Y0262711D01*
X0154391Y0263091D01*
X0153400Y0263091D01*
X0152484Y0262711D01*
X0151784Y0262011D01*
X0151405Y0261095D01*
X0151405Y0260105D01*
X0151609Y0259612D01*
X0151388Y0259612D01*
X0150627Y0258850D01*
X0150627Y0257700D01*
X0150332Y0257700D01*
X0146995Y0254363D01*
X0146995Y0253363D01*
X0145068Y0251435D01*
X0143503Y0253000D01*
X0145679Y0255176D01*
X0145679Y0255621D01*
X0147458Y0257400D01*
X0148395Y0258337D01*
X0148395Y0268637D01*
X0148967Y0269209D01*
X0149691Y0269209D01*
X0150606Y0269589D01*
X0151117Y0270100D01*
X0158532Y0270100D01*
X0158593Y0270039D01*
X0158120Y0269566D01*
X0158120Y0265339D01*
X0158882Y0264578D01*
X0163108Y0264578D01*
X0163870Y0265339D01*
X0163870Y0269566D01*
X0163108Y0270328D01*
X0162548Y0270328D01*
X0162548Y0270610D01*
X0161611Y0271547D01*
X0159858Y0273300D01*
X0151117Y0273300D01*
X0150606Y0273811D01*
X0149691Y0274191D01*
X0148700Y0274191D01*
X0147784Y0273811D01*
X0147695Y0273722D01*
X0147606Y0273811D01*
X0146691Y0274191D01*
X0145700Y0274191D01*
X0144784Y0273811D01*
X0144745Y0273772D01*
X0144606Y0273911D01*
X0143691Y0274291D01*
X0142700Y0274291D01*
X0141784Y0273911D01*
X0141084Y0273211D01*
X0140705Y0272295D01*
X0140705Y0271305D01*
X0140795Y0271086D01*
X0140795Y0262663D01*
X0140032Y0261900D01*
X0138515Y0263417D01*
X0138362Y0263417D01*
X0138352Y0263454D01*
X0138181Y0263751D01*
X0137604Y0264327D01*
X0135603Y0262326D01*
X0135540Y0262389D01*
X0137541Y0264390D01*
X0136965Y0264967D01*
X0136668Y0265138D01*
X0136631Y0265148D01*
X0136631Y0265300D01*
X0135085Y0266846D01*
X0135286Y0267047D01*
X0135286Y0269878D01*
X0135797Y0270389D01*
X0136176Y0271305D01*
X0136176Y0272295D01*
X0135797Y0273211D01*
X0135096Y0273911D01*
X0134181Y0274291D01*
X0133195Y0274291D01*
X0133195Y0275637D01*
X0133758Y0276200D01*
X0135363Y0276200D01*
X0138844Y0279680D01*
X0139763Y0278761D01*
X0141601Y0278000D01*
X0143590Y0278000D01*
X0145427Y0278761D01*
X0146834Y0280168D01*
X0147595Y0282005D01*
X0147595Y0283995D01*
X0147595Y0283836D02*
X0147595Y0283836D01*
X0147595Y0283238D02*
X0147595Y0283238D01*
X0147595Y0282639D02*
X0147595Y0282639D01*
X0147595Y0282041D02*
X0147595Y0282041D01*
X0147362Y0281442D02*
X0147828Y0281442D01*
X0148076Y0280844D02*
X0147114Y0280844D01*
X0146866Y0280245D02*
X0148324Y0280245D01*
X0148877Y0279647D02*
X0146313Y0279647D01*
X0145714Y0279048D02*
X0149476Y0279048D01*
X0150515Y0278450D02*
X0144675Y0278450D01*
X0140515Y0278450D02*
X0137613Y0278450D01*
X0138211Y0279048D02*
X0139476Y0279048D01*
X0138877Y0279647D02*
X0138810Y0279647D01*
X0137014Y0277851D02*
X0219159Y0277851D01*
X0218561Y0277253D02*
X0136416Y0277253D01*
X0135817Y0276654D02*
X0217962Y0276654D01*
X0217364Y0276056D02*
X0133613Y0276056D01*
X0133195Y0275457D02*
X0216765Y0275457D01*
X0216167Y0274859D02*
X0196499Y0274859D01*
X0196895Y0274260D02*
X0215568Y0274260D01*
X0214970Y0273662D02*
X0196895Y0273662D01*
X0196895Y0273063D02*
X0200618Y0273063D01*
X0199973Y0272465D02*
X0196895Y0272465D01*
X0196895Y0271866D02*
X0199374Y0271866D01*
X0198776Y0271268D02*
X0196895Y0271268D01*
X0196895Y0270669D02*
X0198177Y0270669D01*
X0197795Y0270070D02*
X0196895Y0270070D01*
X0196895Y0269472D02*
X0197795Y0269472D01*
X0197795Y0268873D02*
X0196895Y0268873D01*
X0196895Y0268275D02*
X0197795Y0268275D01*
X0197795Y0267676D02*
X0196895Y0267676D01*
X0196895Y0267078D02*
X0197795Y0267078D01*
X0197795Y0266479D02*
X0196895Y0266479D01*
X0196895Y0265881D02*
X0197795Y0265881D01*
X0197795Y0265282D02*
X0196895Y0265282D01*
X0196895Y0264684D02*
X0197795Y0264684D01*
X0197795Y0264085D02*
X0196895Y0264085D01*
X0196895Y0263487D02*
X0197795Y0263487D01*
X0197795Y0262888D02*
X0196895Y0262888D01*
X0196895Y0262290D02*
X0197795Y0262290D01*
X0197795Y0261691D02*
X0196895Y0261691D01*
X0196895Y0261093D02*
X0197795Y0261093D01*
X0197795Y0260494D02*
X0196895Y0260494D01*
X0196895Y0259896D02*
X0197795Y0259896D01*
X0197795Y0259297D02*
X0196895Y0259297D01*
X0196895Y0258699D02*
X0197795Y0258699D01*
X0197795Y0258100D02*
X0196895Y0258100D01*
X0196895Y0257502D02*
X0197795Y0257502D01*
X0197795Y0256903D02*
X0196895Y0256903D01*
X0196895Y0256305D02*
X0197795Y0256305D01*
X0197795Y0255706D02*
X0196895Y0255706D01*
X0196895Y0255108D02*
X0197795Y0255108D01*
X0197795Y0254509D02*
X0196895Y0254509D01*
X0196895Y0253911D02*
X0197795Y0253911D01*
X0197795Y0253312D02*
X0196895Y0253312D01*
X0196895Y0252714D02*
X0197795Y0252714D01*
X0197795Y0252115D02*
X0196895Y0252115D01*
X0196895Y0251517D02*
X0197795Y0251517D01*
X0197691Y0250918D02*
X0196895Y0250918D01*
X0196895Y0250320D02*
X0197380Y0250320D01*
X0197205Y0249721D02*
X0196895Y0249721D01*
X0196895Y0249123D02*
X0197205Y0249123D01*
X0197362Y0248524D02*
X0196895Y0248524D01*
X0196895Y0247926D02*
X0197647Y0247926D01*
X0198246Y0247327D02*
X0196895Y0247327D01*
X0196895Y0246729D02*
X0199180Y0246729D01*
X0199778Y0246130D02*
X0196895Y0246130D01*
X0199195Y0245532D02*
X0199795Y0245532D01*
X0199795Y0244933D02*
X0199195Y0244933D01*
X0199195Y0244334D02*
X0199795Y0244334D01*
X0199795Y0243736D02*
X0199195Y0243736D01*
X0199195Y0243137D02*
X0199795Y0243137D01*
X0199795Y0242539D02*
X0204537Y0242539D01*
X0204494Y0242755D02*
X0204647Y0241987D01*
X0204947Y0241264D01*
X0205381Y0240614D01*
X0205935Y0240060D01*
X0206586Y0239625D01*
X0207309Y0239326D01*
X0208076Y0239173D01*
X0208168Y0239173D01*
X0208168Y0242846D01*
X0204494Y0242846D01*
X0204494Y0242755D01*
X0204667Y0241940D02*
X0202764Y0241940D01*
X0202764Y0241342D02*
X0204914Y0241342D01*
X0205295Y0240743D02*
X0202764Y0240743D01*
X0202764Y0240145D02*
X0205850Y0240145D01*
X0206776Y0239546D02*
X0202541Y0239546D01*
X0202273Y0238948D02*
X0214419Y0238948D01*
X0214514Y0238349D02*
X0202764Y0238349D01*
X0206229Y0237751D02*
X0211361Y0237751D01*
X0210783Y0237152D02*
X0206808Y0237152D01*
X0206808Y0236554D02*
X0210783Y0236554D01*
X0210783Y0235955D02*
X0206808Y0235955D01*
X0206808Y0235357D02*
X0210783Y0235357D01*
X0210783Y0234758D02*
X0207196Y0234758D01*
X0208365Y0234160D02*
X0210783Y0234160D01*
X0210783Y0233561D02*
X0209456Y0233561D01*
X0209968Y0232963D02*
X0210783Y0232963D01*
X0211246Y0232364D02*
X0210216Y0232364D01*
X0210286Y0231766D02*
X0216142Y0231766D01*
X0215544Y0232364D02*
X0215399Y0232364D01*
X0216741Y0231167D02*
X0210270Y0231167D01*
X0210022Y0230569D02*
X0217339Y0230569D01*
X0217938Y0229970D02*
X0209588Y0229970D01*
X0208682Y0229372D02*
X0218536Y0229372D01*
X0219135Y0228773D02*
X0186441Y0228773D01*
X0187040Y0228175D02*
X0219733Y0228175D01*
X0220332Y0227576D02*
X0214627Y0227576D01*
X0214514Y0227634D02*
X0213766Y0227877D01*
X0212989Y0228000D01*
X0212895Y0228000D01*
X0212895Y0223300D01*
X0217595Y0223300D01*
X0217595Y0223394D01*
X0217472Y0224171D01*
X0217229Y0224919D01*
X0216872Y0225621D01*
X0216409Y0226257D01*
X0215852Y0226814D01*
X0215216Y0227276D01*
X0214514Y0227634D01*
X0215627Y0226978D02*
X0219502Y0226978D01*
X0218903Y0226379D02*
X0216287Y0226379D01*
X0216755Y0225781D02*
X0218335Y0225781D01*
X0218087Y0225182D02*
X0217095Y0225182D01*
X0217338Y0224584D02*
X0217839Y0224584D01*
X0217595Y0223985D02*
X0217501Y0223985D01*
X0217595Y0223387D02*
X0217595Y0223387D01*
X0217595Y0222788D02*
X0212895Y0222788D01*
X0212895Y0223387D02*
X0212295Y0223387D01*
X0212295Y0223300D02*
X0212295Y0228000D01*
X0212202Y0228000D01*
X0211424Y0227877D01*
X0210676Y0227634D01*
X0209975Y0227276D01*
X0209338Y0226814D01*
X0208781Y0226257D01*
X0208319Y0225621D01*
X0207961Y0224919D01*
X0207718Y0224171D01*
X0207595Y0223394D01*
X0207595Y0223300D01*
X0212295Y0223300D01*
X0212295Y0222788D02*
X0207595Y0222788D01*
X0207595Y0222190D02*
X0207661Y0222190D01*
X0207796Y0221591D02*
X0207423Y0221591D01*
X0207176Y0220993D02*
X0208006Y0220993D01*
X0208311Y0220394D02*
X0206928Y0220394D01*
X0206462Y0219796D02*
X0208743Y0219796D01*
X0207595Y0223387D02*
X0207595Y0223387D01*
X0207595Y0223985D02*
X0207689Y0223985D01*
X0207852Y0224584D02*
X0207351Y0224584D01*
X0207103Y0225182D02*
X0208095Y0225182D01*
X0208435Y0225781D02*
X0206855Y0225781D01*
X0206287Y0226379D02*
X0208903Y0226379D01*
X0209563Y0226978D02*
X0205689Y0226978D01*
X0204613Y0227576D02*
X0210563Y0227576D01*
X0212295Y0227576D02*
X0212895Y0227576D01*
X0212895Y0226978D02*
X0212295Y0226978D01*
X0212295Y0226379D02*
X0212895Y0226379D01*
X0212895Y0225781D02*
X0212295Y0225781D01*
X0212295Y0225182D02*
X0212895Y0225182D01*
X0212895Y0224584D02*
X0212295Y0224584D01*
X0212295Y0223985D02*
X0212895Y0223985D01*
X0217529Y0222190D02*
X0217595Y0222190D01*
X0217767Y0221591D02*
X0217395Y0221591D01*
X0217184Y0220993D02*
X0218015Y0220993D01*
X0218263Y0220394D02*
X0216879Y0220394D01*
X0216447Y0219796D02*
X0218729Y0219796D01*
X0225427Y0227239D02*
X0226295Y0226371D01*
X0226295Y0279629D01*
X0225427Y0278761D01*
X0224495Y0278375D01*
X0224495Y0277813D01*
X0223382Y0276700D01*
X0217726Y0271044D01*
X0217998Y0271132D01*
X0218728Y0271248D01*
X0218798Y0271248D01*
X0218798Y0269250D01*
X0218798Y0269250D01*
X0218798Y0266852D01*
X0219397Y0266852D01*
X0219397Y0269250D01*
X0219397Y0269250D01*
X0219397Y0271248D01*
X0219467Y0271248D01*
X0220197Y0271132D01*
X0220900Y0270904D01*
X0221559Y0270568D01*
X0222157Y0270134D01*
X0222679Y0269611D01*
X0223114Y0269013D01*
X0223449Y0268354D01*
X0223678Y0267652D01*
X0223793Y0266922D01*
X0223793Y0266852D01*
X0223449Y0266852D01*
X0223449Y0266252D01*
X0223793Y0266252D01*
X0223793Y0266182D01*
X0223678Y0265452D01*
X0223449Y0264749D01*
X0223422Y0264697D01*
X0223449Y0264697D01*
X0223449Y0261873D01*
X0223360Y0261542D01*
X0223189Y0261246D01*
X0222947Y0261004D01*
X0222873Y0260961D01*
X0222947Y0260919D01*
X0223189Y0260677D01*
X0223360Y0260381D01*
X0223449Y0260050D01*
X0223449Y0257226D01*
X0219398Y0257226D01*
X0219398Y0256626D01*
X0223449Y0256626D01*
X0223449Y0253802D01*
X0223360Y0253471D01*
X0223189Y0253175D01*
X0223003Y0252989D01*
X0223189Y0252803D01*
X0223360Y0252506D01*
X0223449Y0252176D01*
X0223449Y0249352D01*
X0219398Y0249352D01*
X0219398Y0248752D01*
X0223449Y0248752D01*
X0223449Y0245928D01*
X0223360Y0245597D01*
X0223189Y0245301D01*
X0222947Y0245059D01*
X0222873Y0245017D01*
X0222947Y0244974D01*
X0223189Y0244732D01*
X0223360Y0244436D01*
X0223449Y0244105D01*
X0223449Y0241281D01*
X0223422Y0241281D01*
X0223449Y0241228D01*
X0223678Y0240526D01*
X0223793Y0239796D01*
X0223793Y0239726D01*
X0223449Y0239726D01*
X0223449Y0239126D01*
X0223793Y0239126D01*
X0223793Y0239056D01*
X0223678Y0238326D01*
X0223449Y0237623D01*
X0223114Y0236965D01*
X0222679Y0236367D01*
X0222157Y0235844D01*
X0221559Y0235410D01*
X0220900Y0235074D01*
X0220197Y0234846D01*
X0219467Y0234730D01*
X0219397Y0234730D01*
X0219397Y0236728D01*
X0219397Y0236728D01*
X0219397Y0239126D01*
X0218798Y0239126D01*
X0218798Y0236728D01*
X0218798Y0236728D01*
X0218798Y0234730D01*
X0218728Y0234730D01*
X0218519Y0234763D01*
X0223382Y0229900D01*
X0224495Y0228787D01*
X0224495Y0227625D01*
X0225427Y0227239D01*
X0225689Y0226978D02*
X0226295Y0226978D01*
X0226295Y0227576D02*
X0224613Y0227576D01*
X0224495Y0228175D02*
X0226295Y0228175D01*
X0226295Y0228773D02*
X0224495Y0228773D01*
X0223910Y0229372D02*
X0226295Y0229372D01*
X0226295Y0229970D02*
X0223312Y0229970D01*
X0222713Y0230569D02*
X0226295Y0230569D01*
X0226295Y0231167D02*
X0222115Y0231167D01*
X0221516Y0231766D02*
X0226295Y0231766D01*
X0226295Y0232364D02*
X0220918Y0232364D01*
X0220319Y0232963D02*
X0226295Y0232963D01*
X0226295Y0233561D02*
X0219721Y0233561D01*
X0219122Y0234160D02*
X0226295Y0234160D01*
X0226295Y0234758D02*
X0219644Y0234758D01*
X0219397Y0234758D02*
X0218798Y0234758D01*
X0218551Y0234758D02*
X0218524Y0234758D01*
X0218798Y0235357D02*
X0219397Y0235357D01*
X0219397Y0235955D02*
X0218798Y0235955D01*
X0218798Y0236554D02*
X0219397Y0236554D01*
X0219397Y0237152D02*
X0218798Y0237152D01*
X0218798Y0237751D02*
X0219397Y0237751D01*
X0219397Y0238349D02*
X0218798Y0238349D01*
X0218798Y0238948D02*
X0219397Y0238948D01*
X0219397Y0239726D02*
X0218798Y0239726D01*
X0218798Y0240681D01*
X0219397Y0240681D01*
X0219397Y0239726D01*
X0219397Y0240145D02*
X0218798Y0240145D01*
X0218798Y0241281D02*
X0218798Y0248752D01*
X0219397Y0248752D01*
X0219397Y0244799D01*
X0219397Y0241281D01*
X0218798Y0241281D01*
X0218798Y0241342D02*
X0219397Y0241342D01*
X0219397Y0241940D02*
X0218798Y0241940D01*
X0218798Y0242539D02*
X0219397Y0242539D01*
X0219397Y0243137D02*
X0218798Y0243137D01*
X0218798Y0243736D02*
X0219397Y0243736D01*
X0219397Y0244334D02*
X0218798Y0244334D01*
X0218798Y0244933D02*
X0219397Y0244933D01*
X0219397Y0245532D02*
X0218798Y0245532D01*
X0218798Y0246130D02*
X0219397Y0246130D01*
X0219397Y0246729D02*
X0218798Y0246729D01*
X0218798Y0247327D02*
X0219397Y0247327D01*
X0219397Y0247926D02*
X0218798Y0247926D01*
X0218798Y0248524D02*
X0219397Y0248524D01*
X0219398Y0249123D02*
X0226295Y0249123D01*
X0226295Y0249721D02*
X0223449Y0249721D01*
X0223449Y0250320D02*
X0226295Y0250320D01*
X0226295Y0250918D02*
X0223449Y0250918D01*
X0223449Y0251517D02*
X0226295Y0251517D01*
X0226295Y0252115D02*
X0223449Y0252115D01*
X0223240Y0252714D02*
X0226295Y0252714D01*
X0226295Y0253312D02*
X0223268Y0253312D01*
X0223449Y0253911D02*
X0226295Y0253911D01*
X0226295Y0254509D02*
X0223449Y0254509D01*
X0223449Y0255108D02*
X0226295Y0255108D01*
X0226295Y0255706D02*
X0223449Y0255706D01*
X0223449Y0256305D02*
X0226295Y0256305D01*
X0226295Y0256903D02*
X0219398Y0256903D01*
X0219397Y0256626D02*
X0219397Y0252673D01*
X0219397Y0249352D01*
X0218798Y0249352D01*
X0218798Y0256626D01*
X0219397Y0256626D01*
X0219397Y0256305D02*
X0218798Y0256305D01*
X0218797Y0256903D02*
X0212396Y0256903D01*
X0212425Y0256305D02*
X0214746Y0256305D01*
X0214746Y0255706D02*
X0212425Y0255706D01*
X0212425Y0255108D02*
X0214746Y0255108D01*
X0214746Y0254509D02*
X0212425Y0254509D01*
X0212425Y0253911D02*
X0214746Y0253911D01*
X0214927Y0253312D02*
X0212425Y0253312D01*
X0212425Y0252714D02*
X0214955Y0252714D01*
X0214746Y0252115D02*
X0212425Y0252115D01*
X0212425Y0251517D02*
X0214746Y0251517D01*
X0214746Y0250918D02*
X0212425Y0250918D01*
X0212425Y0250320D02*
X0214746Y0250320D01*
X0214746Y0249721D02*
X0212425Y0249721D01*
X0212425Y0249123D02*
X0218797Y0249123D01*
X0218798Y0249721D02*
X0219397Y0249721D01*
X0219397Y0250320D02*
X0218798Y0250320D01*
X0218798Y0250918D02*
X0219397Y0250918D01*
X0219397Y0251517D02*
X0218798Y0251517D01*
X0218798Y0252115D02*
X0219397Y0252115D01*
X0219397Y0252714D02*
X0218798Y0252714D01*
X0218798Y0253312D02*
X0219397Y0253312D01*
X0219397Y0253911D02*
X0218798Y0253911D01*
X0218798Y0254509D02*
X0219397Y0254509D01*
X0219397Y0255108D02*
X0218798Y0255108D01*
X0218798Y0255706D02*
X0219397Y0255706D01*
X0219397Y0257226D02*
X0218798Y0257226D01*
X0218798Y0261179D01*
X0218798Y0264697D01*
X0219397Y0264697D01*
X0219397Y0257226D01*
X0219397Y0257502D02*
X0218798Y0257502D01*
X0218798Y0258100D02*
X0219397Y0258100D01*
X0219397Y0258699D02*
X0218798Y0258699D01*
X0218798Y0259297D02*
X0219397Y0259297D01*
X0219397Y0259896D02*
X0218798Y0259896D01*
X0218798Y0260494D02*
X0219397Y0260494D01*
X0219397Y0261093D02*
X0218798Y0261093D01*
X0218798Y0261691D02*
X0219397Y0261691D01*
X0219397Y0262290D02*
X0218798Y0262290D01*
X0218798Y0262888D02*
X0219397Y0262888D01*
X0219397Y0263487D02*
X0218798Y0263487D01*
X0218798Y0264085D02*
X0219397Y0264085D01*
X0219397Y0264684D02*
X0218798Y0264684D01*
X0218798Y0265297D02*
X0218798Y0266252D01*
X0219397Y0266252D01*
X0219397Y0265297D01*
X0218798Y0265297D01*
X0218798Y0265881D02*
X0219397Y0265881D01*
X0219397Y0267078D02*
X0218798Y0267078D01*
X0218798Y0267676D02*
X0219397Y0267676D01*
X0219397Y0268275D02*
X0218798Y0268275D01*
X0218798Y0268873D02*
X0219397Y0268873D01*
X0219397Y0269472D02*
X0218798Y0269472D01*
X0218798Y0270070D02*
X0219397Y0270070D01*
X0219397Y0270669D02*
X0218798Y0270669D01*
X0217950Y0271268D02*
X0226295Y0271268D01*
X0226295Y0271866D02*
X0218548Y0271866D01*
X0219147Y0272465D02*
X0226295Y0272465D01*
X0226295Y0273063D02*
X0219745Y0273063D01*
X0220344Y0273662D02*
X0226295Y0273662D01*
X0226295Y0274260D02*
X0220942Y0274260D01*
X0221541Y0274859D02*
X0226295Y0274859D01*
X0226295Y0275457D02*
X0222139Y0275457D01*
X0222738Y0276056D02*
X0226295Y0276056D01*
X0226295Y0276654D02*
X0223336Y0276654D01*
X0223935Y0277253D02*
X0226295Y0277253D01*
X0226295Y0277851D02*
X0224495Y0277851D01*
X0224675Y0278450D02*
X0226295Y0278450D01*
X0226295Y0279048D02*
X0225714Y0279048D01*
X0219758Y0278450D02*
X0214678Y0278450D01*
X0215662Y0279048D02*
X0219476Y0279048D01*
X0218877Y0279647D02*
X0216313Y0279647D01*
X0216774Y0280245D02*
X0218324Y0280245D01*
X0218076Y0280844D02*
X0217108Y0280844D01*
X0217346Y0281442D02*
X0217828Y0281442D01*
X0217595Y0282041D02*
X0217506Y0282041D01*
X0217595Y0282639D02*
X0217595Y0282639D01*
X0217595Y0283238D02*
X0212895Y0283238D01*
X0212895Y0282639D02*
X0212295Y0282639D01*
X0212295Y0282041D02*
X0212895Y0282041D01*
X0212895Y0281442D02*
X0212295Y0281442D01*
X0212295Y0280844D02*
X0212895Y0280844D01*
X0212895Y0280245D02*
X0212295Y0280245D01*
X0212295Y0279647D02*
X0212895Y0279647D01*
X0212895Y0279048D02*
X0212295Y0279048D01*
X0212295Y0278450D02*
X0212895Y0278450D01*
X0210512Y0278450D02*
X0204675Y0278450D01*
X0205714Y0279048D02*
X0209528Y0279048D01*
X0208877Y0279647D02*
X0206313Y0279647D01*
X0206866Y0280245D02*
X0208416Y0280245D01*
X0208082Y0280844D02*
X0207114Y0280844D01*
X0207362Y0281442D02*
X0207844Y0281442D01*
X0207685Y0282041D02*
X0207595Y0282041D01*
X0207595Y0282639D02*
X0207595Y0282639D01*
X0207595Y0283238D02*
X0212295Y0283238D01*
X0208762Y0286230D02*
X0206436Y0286230D01*
X0206917Y0285632D02*
X0208327Y0285632D01*
X0208020Y0285033D02*
X0207165Y0285033D01*
X0207413Y0284435D02*
X0207804Y0284435D01*
X0207665Y0283836D02*
X0207595Y0283836D01*
X0199224Y0286700D02*
X0198356Y0285832D01*
X0197595Y0283995D01*
X0197595Y0282005D01*
X0197595Y0283995D01*
X0196834Y0285832D01*
X0195966Y0286700D01*
X0199224Y0286700D01*
X0198754Y0286230D02*
X0196436Y0286230D01*
X0196917Y0285632D02*
X0198273Y0285632D01*
X0198025Y0285033D02*
X0197165Y0285033D01*
X0197413Y0284435D02*
X0197777Y0284435D01*
X0197595Y0283836D02*
X0197595Y0283836D01*
X0197595Y0283238D02*
X0197595Y0283238D01*
X0197595Y0282639D02*
X0197595Y0282639D01*
X0197595Y0282041D02*
X0197595Y0282041D01*
X0197362Y0281442D02*
X0197828Y0281442D01*
X0198076Y0280844D02*
X0197114Y0280844D01*
X0196866Y0280245D02*
X0198324Y0280245D01*
X0198877Y0279647D02*
X0196313Y0279647D01*
X0195714Y0279048D02*
X0199476Y0279048D01*
X0200515Y0278450D02*
X0194675Y0278450D01*
X0190515Y0278450D02*
X0184675Y0278450D01*
X0185714Y0279048D02*
X0189476Y0279048D01*
X0188877Y0279647D02*
X0186313Y0279647D01*
X0186866Y0280245D02*
X0188324Y0280245D01*
X0188076Y0280844D02*
X0187114Y0280844D01*
X0187362Y0281442D02*
X0187828Y0281442D01*
X0187595Y0282005D02*
X0187595Y0283995D01*
X0188356Y0285832D01*
X0189224Y0286700D01*
X0185966Y0286700D01*
X0186834Y0285832D01*
X0187595Y0283995D01*
X0187595Y0282005D01*
X0187595Y0282041D02*
X0187595Y0282041D01*
X0187595Y0282639D02*
X0187595Y0282639D01*
X0187595Y0283238D02*
X0187595Y0283238D01*
X0187595Y0283836D02*
X0187595Y0283836D01*
X0187413Y0284435D02*
X0187777Y0284435D01*
X0188025Y0285033D02*
X0187165Y0285033D01*
X0186917Y0285632D02*
X0188273Y0285632D01*
X0188754Y0286230D02*
X0186436Y0286230D01*
X0179224Y0286700D02*
X0178356Y0285832D01*
X0177595Y0283995D01*
X0177595Y0282005D01*
X0177595Y0283995D01*
X0176834Y0285832D01*
X0175966Y0286700D01*
X0179224Y0286700D01*
X0178754Y0286230D02*
X0176436Y0286230D01*
X0176917Y0285632D02*
X0178273Y0285632D01*
X0178025Y0285033D02*
X0177165Y0285033D01*
X0177413Y0284435D02*
X0177777Y0284435D01*
X0177595Y0283836D02*
X0177595Y0283836D01*
X0177595Y0283238D02*
X0177595Y0283238D01*
X0177595Y0282639D02*
X0177595Y0282639D01*
X0177595Y0282041D02*
X0177595Y0282041D01*
X0177362Y0281442D02*
X0177828Y0281442D01*
X0178076Y0280844D02*
X0177114Y0280844D01*
X0176866Y0280245D02*
X0178324Y0280245D01*
X0178877Y0279647D02*
X0176313Y0279647D01*
X0175714Y0279048D02*
X0179476Y0279048D01*
X0180515Y0278450D02*
X0174675Y0278450D01*
X0170515Y0278450D02*
X0164675Y0278450D01*
X0165714Y0279048D02*
X0169476Y0279048D01*
X0168877Y0279647D02*
X0166313Y0279647D01*
X0166866Y0280245D02*
X0168324Y0280245D01*
X0168076Y0280844D02*
X0167114Y0280844D01*
X0167362Y0281442D02*
X0167828Y0281442D01*
X0167595Y0282005D02*
X0167595Y0283995D01*
X0168356Y0285832D01*
X0169224Y0286700D01*
X0165966Y0286700D01*
X0166834Y0285832D01*
X0167595Y0283995D01*
X0167595Y0282005D01*
X0167595Y0282041D02*
X0167595Y0282041D01*
X0167595Y0282639D02*
X0167595Y0282639D01*
X0167595Y0283238D02*
X0167595Y0283238D01*
X0167595Y0283836D02*
X0167595Y0283836D01*
X0167413Y0284435D02*
X0167777Y0284435D01*
X0168025Y0285033D02*
X0167165Y0285033D01*
X0166917Y0285632D02*
X0168273Y0285632D01*
X0168754Y0286230D02*
X0166436Y0286230D01*
X0159224Y0286700D02*
X0158356Y0285832D01*
X0157595Y0283995D01*
X0157595Y0282005D01*
X0157595Y0283995D01*
X0156834Y0285832D01*
X0155966Y0286700D01*
X0159224Y0286700D01*
X0158754Y0286230D02*
X0156436Y0286230D01*
X0156917Y0285632D02*
X0158273Y0285632D01*
X0158025Y0285033D02*
X0157165Y0285033D01*
X0157413Y0284435D02*
X0157777Y0284435D01*
X0157595Y0283836D02*
X0157595Y0283836D01*
X0157595Y0283238D02*
X0157595Y0283238D01*
X0157595Y0282639D02*
X0157595Y0282639D01*
X0157595Y0282041D02*
X0157595Y0282041D01*
X0157362Y0281442D02*
X0157828Y0281442D01*
X0158076Y0280844D02*
X0157114Y0280844D01*
X0156866Y0280245D02*
X0158324Y0280245D01*
X0158877Y0279647D02*
X0156313Y0279647D01*
X0155714Y0279048D02*
X0159476Y0279048D01*
X0160515Y0278450D02*
X0154675Y0278450D01*
X0150756Y0273662D02*
X0168995Y0273662D01*
X0168995Y0274260D02*
X0143764Y0274260D01*
X0142626Y0274260D02*
X0134255Y0274260D01*
X0133195Y0274859D02*
X0169391Y0274859D01*
X0170595Y0273800D02*
X0176059Y0273800D01*
X0175935Y0273676D01*
X0175764Y0273380D01*
X0175675Y0273049D01*
X0175675Y0268847D01*
X0183762Y0268847D01*
X0183762Y0268247D01*
X0184362Y0268247D01*
X0184362Y0262917D01*
X0191320Y0262917D01*
X0191650Y0263005D01*
X0191947Y0263176D01*
X0192189Y0263418D01*
X0192360Y0263715D01*
X0192449Y0264045D01*
X0192449Y0268247D01*
X0184362Y0268247D01*
X0184362Y0268847D01*
X0192449Y0268847D01*
X0192449Y0273049D01*
X0192360Y0273380D01*
X0192189Y0273676D01*
X0192065Y0273800D01*
X0195295Y0273800D01*
X0195295Y0249446D01*
X0190389Y0249446D01*
X0189862Y0248919D01*
X0189862Y0244200D01*
X0184362Y0244200D01*
X0184362Y0244446D01*
X0187762Y0244446D01*
X0187762Y0248718D01*
X0187673Y0249048D01*
X0187502Y0249345D01*
X0187260Y0249587D01*
X0186964Y0249758D01*
X0186633Y0249846D01*
X0184362Y0249846D01*
X0184362Y0244446D01*
X0183762Y0244446D01*
X0183762Y0244200D01*
X0178595Y0244200D01*
X0178595Y0249800D01*
X0170595Y0249800D01*
X0170595Y0273800D01*
X0170595Y0273662D02*
X0175927Y0273662D01*
X0175679Y0273063D02*
X0170595Y0273063D01*
X0170595Y0272465D02*
X0175675Y0272465D01*
X0175675Y0271866D02*
X0170595Y0271866D01*
X0170595Y0271268D02*
X0175675Y0271268D01*
X0175675Y0270669D02*
X0170595Y0270669D01*
X0170595Y0270070D02*
X0175675Y0270070D01*
X0175675Y0269472D02*
X0170595Y0269472D01*
X0170595Y0268873D02*
X0175675Y0268873D01*
X0175675Y0268247D02*
X0175675Y0264045D01*
X0175764Y0263715D01*
X0175935Y0263418D01*
X0176177Y0263176D01*
X0176474Y0263005D01*
X0176804Y0262917D01*
X0183762Y0262917D01*
X0183762Y0268247D01*
X0175675Y0268247D01*
X0175675Y0267676D02*
X0170595Y0267676D01*
X0170595Y0267078D02*
X0175675Y0267078D01*
X0175675Y0266479D02*
X0170595Y0266479D01*
X0170595Y0265881D02*
X0175675Y0265881D01*
X0175675Y0265282D02*
X0170595Y0265282D01*
X0170595Y0264684D02*
X0175675Y0264684D01*
X0175675Y0264085D02*
X0170595Y0264085D01*
X0170595Y0263487D02*
X0175896Y0263487D01*
X0172595Y0264400D02*
X0172595Y0268000D01*
X0167449Y0268000D01*
X0167295Y0267846D01*
X0164027Y0267676D02*
X0163870Y0267676D01*
X0163870Y0267078D02*
X0164027Y0267078D01*
X0164027Y0266479D02*
X0163870Y0266479D01*
X0163870Y0265881D02*
X0164027Y0265881D01*
X0164027Y0265282D02*
X0163813Y0265282D01*
X0163214Y0264684D02*
X0164485Y0264684D01*
X0164255Y0264085D02*
X0163445Y0264085D01*
X0163870Y0263487D02*
X0164027Y0263487D01*
X0164027Y0262888D02*
X0163870Y0262888D01*
X0163870Y0262290D02*
X0164027Y0262290D01*
X0164027Y0261691D02*
X0163870Y0261691D01*
X0163870Y0261093D02*
X0164027Y0261093D01*
X0164027Y0260494D02*
X0163870Y0260494D01*
X0163870Y0259896D02*
X0164027Y0259896D01*
X0164027Y0259297D02*
X0163917Y0259297D01*
X0164264Y0258100D02*
X0164376Y0258100D01*
X0164456Y0257502D02*
X0164264Y0257502D01*
X0164264Y0256903D02*
X0164420Y0256903D01*
X0164420Y0256305D02*
X0164264Y0256305D01*
X0164264Y0255706D02*
X0164420Y0255706D01*
X0164420Y0255108D02*
X0164264Y0255108D01*
X0164264Y0254509D02*
X0164420Y0254509D01*
X0164420Y0253911D02*
X0164264Y0253911D01*
X0164420Y0253312D02*
X0164033Y0253312D01*
X0163807Y0252714D02*
X0164946Y0252714D01*
X0165219Y0252233D02*
X0164922Y0252062D01*
X0164680Y0251820D01*
X0164509Y0251524D01*
X0164420Y0251193D01*
X0164420Y0249747D01*
X0166995Y0249747D01*
X0166995Y0252322D01*
X0165549Y0252322D01*
X0165219Y0252233D01*
X0165014Y0252115D02*
X0164203Y0252115D01*
X0164264Y0251517D02*
X0164507Y0251517D01*
X0164420Y0250918D02*
X0164264Y0250918D01*
X0164264Y0250320D02*
X0164420Y0250320D01*
X0164420Y0249147D02*
X0164420Y0247701D01*
X0164509Y0247371D01*
X0164680Y0247074D01*
X0164922Y0246832D01*
X0165219Y0246661D01*
X0165549Y0246572D01*
X0166995Y0246572D01*
X0166995Y0249147D01*
X0164420Y0249147D01*
X0164420Y0249123D02*
X0164264Y0249123D01*
X0164264Y0248524D02*
X0164420Y0248524D01*
X0164420Y0247926D02*
X0164264Y0247926D01*
X0164264Y0247327D02*
X0164534Y0247327D01*
X0164084Y0246729D02*
X0165102Y0246729D01*
X0165484Y0246130D02*
X0171262Y0246130D01*
X0171262Y0245532D02*
X0165864Y0245532D01*
X0165864Y0244933D02*
X0171262Y0244933D01*
X0171262Y0243846D02*
X0171262Y0239575D01*
X0171351Y0239245D01*
X0171522Y0238948D01*
X0169052Y0238948D01*
X0169052Y0239546D02*
X0171270Y0239546D01*
X0171262Y0240145D02*
X0169052Y0240145D01*
X0169052Y0240743D02*
X0171262Y0240743D01*
X0171262Y0241342D02*
X0169052Y0241342D01*
X0168917Y0241940D02*
X0171262Y0241940D01*
X0171262Y0242539D02*
X0168319Y0242539D01*
X0167720Y0243137D02*
X0171262Y0243137D01*
X0171262Y0243736D02*
X0167122Y0243736D01*
X0166523Y0244334D02*
X0174662Y0244334D01*
X0174662Y0243846D02*
X0171262Y0243846D01*
X0171262Y0246729D02*
X0169489Y0246729D01*
X0170056Y0247327D02*
X0171262Y0247327D01*
X0171262Y0247926D02*
X0170170Y0247926D01*
X0170595Y0250320D02*
X0195295Y0250320D01*
X0195295Y0250918D02*
X0170595Y0250918D01*
X0170595Y0251517D02*
X0195295Y0251517D01*
X0195295Y0252115D02*
X0170595Y0252115D01*
X0170595Y0252714D02*
X0195295Y0252714D01*
X0195295Y0253312D02*
X0170595Y0253312D01*
X0170595Y0253911D02*
X0195295Y0253911D01*
X0195295Y0254509D02*
X0170595Y0254509D01*
X0170595Y0255108D02*
X0195295Y0255108D01*
X0195295Y0255706D02*
X0170595Y0255706D01*
X0170595Y0256305D02*
X0195295Y0256305D01*
X0195295Y0256903D02*
X0170595Y0256903D01*
X0170595Y0257502D02*
X0195295Y0257502D01*
X0195295Y0258100D02*
X0170595Y0258100D01*
X0170595Y0258699D02*
X0195295Y0258699D01*
X0195295Y0259297D02*
X0170595Y0259297D01*
X0170595Y0259896D02*
X0195295Y0259896D01*
X0195295Y0260494D02*
X0170595Y0260494D01*
X0170595Y0261093D02*
X0195295Y0261093D01*
X0195295Y0261691D02*
X0170595Y0261691D01*
X0170595Y0262290D02*
X0195295Y0262290D01*
X0195295Y0262888D02*
X0170595Y0262888D01*
X0172595Y0264400D02*
X0178895Y0258100D01*
X0183762Y0263487D02*
X0184362Y0263487D01*
X0184362Y0264085D02*
X0183762Y0264085D01*
X0183762Y0264684D02*
X0184362Y0264684D01*
X0184362Y0265282D02*
X0183762Y0265282D01*
X0183762Y0265881D02*
X0184362Y0265881D01*
X0184362Y0266479D02*
X0183762Y0266479D01*
X0183762Y0267078D02*
X0184362Y0267078D01*
X0184362Y0267676D02*
X0183762Y0267676D01*
X0183762Y0268275D02*
X0170595Y0268275D01*
X0168995Y0271866D02*
X0161292Y0271866D01*
X0161890Y0271268D02*
X0164744Y0271268D01*
X0164145Y0270669D02*
X0162489Y0270669D01*
X0163365Y0270070D02*
X0164027Y0270070D01*
X0164027Y0269472D02*
X0163870Y0269472D01*
X0163870Y0268873D02*
X0164027Y0268873D01*
X0164027Y0268275D02*
X0163870Y0268275D01*
X0160995Y0267453D02*
X0160948Y0267500D01*
X0160948Y0269947D01*
X0159195Y0271700D01*
X0149195Y0271700D01*
X0146795Y0269300D01*
X0146795Y0259000D01*
X0142883Y0255088D01*
X0142778Y0255088D01*
X0144414Y0253911D02*
X0146995Y0253911D01*
X0146945Y0253312D02*
X0143815Y0253312D01*
X0143790Y0252714D02*
X0146346Y0252714D01*
X0145748Y0252115D02*
X0144388Y0252115D01*
X0144987Y0251517D02*
X0145149Y0251517D01*
X0142778Y0250912D02*
X0142683Y0250912D01*
X0140995Y0252600D01*
X0137195Y0252600D01*
X0136192Y0250320D02*
X0123169Y0250320D01*
X0123386Y0249721D02*
X0137522Y0249721D01*
X0136923Y0249123D02*
X0123386Y0249123D01*
X0123269Y0248524D02*
X0136325Y0248524D01*
X0135726Y0247926D02*
X0123022Y0247926D01*
X0122444Y0247327D02*
X0135128Y0247327D01*
X0134529Y0246729D02*
X0114986Y0246729D01*
X0115585Y0247327D02*
X0119346Y0247327D01*
X0118769Y0247926D02*
X0115895Y0247926D01*
X0115895Y0248524D02*
X0118521Y0248524D01*
X0118405Y0249123D02*
X0115895Y0249123D01*
X0115895Y0249721D02*
X0118405Y0249721D01*
X0118622Y0250320D02*
X0115895Y0250320D01*
X0115895Y0250918D02*
X0118991Y0250918D01*
X0119295Y0251517D02*
X0115895Y0251517D01*
X0116417Y0252115D02*
X0119295Y0252115D01*
X0119295Y0252714D02*
X0116665Y0252714D01*
X0116786Y0253312D02*
X0119295Y0253312D01*
X0119295Y0253911D02*
X0116786Y0253911D01*
X0116573Y0254509D02*
X0119295Y0254509D01*
X0119295Y0255108D02*
X0116210Y0255108D01*
X0115477Y0255706D02*
X0119439Y0255706D01*
X0120895Y0254900D02*
X0128595Y0262600D01*
X0128595Y0262619D01*
X0131921Y0265945D01*
X0133686Y0267710D01*
X0133686Y0271800D01*
X0135478Y0270070D02*
X0140795Y0270070D01*
X0140795Y0269472D02*
X0135286Y0269472D01*
X0135286Y0268873D02*
X0140795Y0268873D01*
X0140795Y0268275D02*
X0135286Y0268275D01*
X0135286Y0267676D02*
X0140795Y0267676D01*
X0140795Y0267078D02*
X0135286Y0267078D01*
X0135452Y0266479D02*
X0140795Y0266479D01*
X0140795Y0265881D02*
X0136051Y0265881D01*
X0136631Y0265282D02*
X0140795Y0265282D01*
X0140795Y0264684D02*
X0137248Y0264684D01*
X0137237Y0264085D02*
X0137362Y0264085D01*
X0137846Y0264085D02*
X0140795Y0264085D01*
X0140795Y0263487D02*
X0138333Y0263487D01*
X0139043Y0262888D02*
X0140795Y0262888D01*
X0140422Y0262290D02*
X0139642Y0262290D01*
X0142395Y0262000D02*
X0139159Y0258764D01*
X0139159Y0258707D01*
X0140969Y0256974D02*
X0144795Y0260800D01*
X0144795Y0270300D01*
X0146195Y0271700D01*
X0143195Y0271800D02*
X0142395Y0271000D01*
X0142395Y0262000D01*
X0137350Y0260516D02*
X0135833Y0259000D01*
X0135795Y0259000D01*
X0134595Y0257800D01*
X0134595Y0256400D01*
X0132773Y0258100D02*
X0130977Y0258100D01*
X0131186Y0258699D02*
X0133231Y0258699D01*
X0133830Y0259297D02*
X0131186Y0259297D01*
X0131754Y0259896D02*
X0133905Y0259896D01*
X0133771Y0260494D02*
X0133646Y0260494D01*
X0133306Y0260494D02*
X0132352Y0260494D01*
X0134244Y0261093D02*
X0134370Y0261093D01*
X0134843Y0261691D02*
X0134968Y0261691D01*
X0135441Y0262290D02*
X0135513Y0262290D01*
X0136040Y0262888D02*
X0136165Y0262888D01*
X0136638Y0263487D02*
X0136764Y0263487D01*
X0133731Y0264136D02*
X0128695Y0259100D01*
X0126413Y0258100D02*
X0126358Y0258100D01*
X0126771Y0257502D02*
X0125760Y0257502D01*
X0125161Y0256903D02*
X0127490Y0256903D01*
X0129900Y0256903D02*
X0132108Y0256903D01*
X0132105Y0256305D02*
X0124563Y0256305D01*
X0123964Y0255706D02*
X0132187Y0255706D01*
X0132435Y0255108D02*
X0123366Y0255108D01*
X0122767Y0254509D02*
X0132964Y0254509D01*
X0134097Y0253911D02*
X0122495Y0253911D01*
X0122495Y0253312D02*
X0134794Y0253312D01*
X0134705Y0252714D02*
X0122495Y0252714D01*
X0122495Y0252115D02*
X0134705Y0252115D01*
X0134948Y0251517D02*
X0122495Y0251517D01*
X0122799Y0250918D02*
X0135355Y0250918D01*
X0133931Y0246130D02*
X0114388Y0246130D01*
X0113789Y0245532D02*
X0115816Y0245532D01*
X0114906Y0244933D02*
X0113191Y0244933D01*
X0113055Y0244334D02*
X0114469Y0244334D01*
X0114221Y0243736D02*
X0113654Y0243736D01*
X0113394Y0243736D02*
X0113268Y0243736D01*
X0112796Y0243137D02*
X0112670Y0243137D01*
X0112197Y0242539D02*
X0112071Y0242539D01*
X0111599Y0241940D02*
X0111473Y0241940D01*
X0109669Y0243674D02*
X0109650Y0243674D01*
X0109669Y0243674D02*
X0114295Y0248300D01*
X0114295Y0253500D01*
X0112017Y0254509D02*
X0111814Y0254509D01*
X0111510Y0255108D02*
X0112381Y0255108D01*
X0113113Y0255706D02*
X0110911Y0255706D01*
X0110687Y0259297D02*
X0115246Y0259297D01*
X0114377Y0259896D02*
X0111285Y0259896D01*
X0111419Y0260494D02*
X0111545Y0260494D01*
X0111884Y0260494D02*
X0113957Y0260494D01*
X0113709Y0261093D02*
X0112402Y0261093D01*
X0113081Y0261691D02*
X0113705Y0261691D01*
X0113679Y0262290D02*
X0113785Y0262290D01*
X0116195Y0261600D02*
X0116195Y0264695D01*
X0124683Y0273183D01*
X0124683Y0273312D01*
X0114995Y0283000D01*
X0112595Y0283000D01*
X0107595Y0278000D02*
X0102595Y0283000D01*
X0105947Y0277951D02*
X0097644Y0277951D01*
X0092595Y0283000D01*
X0095898Y0278000D02*
X0087595Y0278000D01*
X0082595Y0283000D01*
X0077595Y0278000D02*
X0072595Y0283000D01*
X0075895Y0278000D02*
X0067595Y0278000D01*
X0062595Y0283000D01*
X0058025Y0285033D02*
X0057165Y0285033D01*
X0057413Y0284435D02*
X0057777Y0284435D01*
X0057595Y0283995D02*
X0058356Y0285832D01*
X0059224Y0286700D01*
X0055966Y0286700D01*
X0056834Y0285832D01*
X0057595Y0283995D01*
X0057595Y0282005D01*
X0057595Y0283995D01*
X0057595Y0283836D02*
X0057595Y0283836D01*
X0057595Y0283238D02*
X0057595Y0283238D01*
X0057595Y0282639D02*
X0057595Y0282639D01*
X0057595Y0282041D02*
X0057595Y0282041D01*
X0057362Y0281442D02*
X0057828Y0281442D01*
X0058076Y0280844D02*
X0057114Y0280844D01*
X0056866Y0280245D02*
X0058324Y0280245D01*
X0058877Y0279647D02*
X0056313Y0279647D01*
X0055714Y0279048D02*
X0059476Y0279048D01*
X0060515Y0278450D02*
X0054675Y0278450D01*
X0050995Y0277851D02*
X0065481Y0277851D01*
X0064883Y0278450D02*
X0064675Y0278450D01*
X0066080Y0277253D02*
X0050995Y0277253D01*
X0050995Y0276654D02*
X0066678Y0276654D01*
X0067447Y0274260D02*
X0085672Y0274260D01*
X0085074Y0274859D02*
X0050995Y0274859D01*
X0050995Y0275457D02*
X0076175Y0275457D01*
X0075577Y0276056D02*
X0050995Y0276056D01*
X0050995Y0274260D02*
X0065343Y0274260D01*
X0064535Y0273662D02*
X0050995Y0273662D01*
X0050995Y0273063D02*
X0064140Y0273063D01*
X0063905Y0272465D02*
X0050995Y0272465D01*
X0050995Y0271866D02*
X0063905Y0271866D01*
X0064003Y0271268D02*
X0061768Y0271268D01*
X0061603Y0271312D02*
X0061933Y0271223D01*
X0062230Y0271052D01*
X0062472Y0270810D01*
X0062643Y0270514D01*
X0062731Y0270183D01*
X0062731Y0269032D01*
X0059664Y0269032D01*
X0059064Y0269032D01*
X0059064Y0268432D01*
X0055998Y0268432D01*
X0055998Y0267282D01*
X0056086Y0266951D01*
X0056257Y0266655D01*
X0056499Y0266413D01*
X0056796Y0266241D01*
X0057126Y0266153D01*
X0059064Y0266153D01*
X0059064Y0268432D01*
X0059664Y0268432D01*
X0059664Y0266153D01*
X0061603Y0266153D01*
X0061933Y0266241D01*
X0062230Y0266413D01*
X0062472Y0266655D01*
X0062643Y0266951D01*
X0062731Y0267282D01*
X0062731Y0268432D01*
X0059664Y0268432D01*
X0059664Y0269032D01*
X0059664Y0271312D01*
X0061603Y0271312D01*
X0062553Y0270669D02*
X0064251Y0270669D01*
X0064795Y0270070D02*
X0062731Y0270070D01*
X0062731Y0269472D02*
X0064795Y0269472D01*
X0064795Y0268873D02*
X0059664Y0268873D01*
X0059664Y0268275D02*
X0059064Y0268275D01*
X0059064Y0268873D02*
X0051886Y0268873D01*
X0051873Y0268275D02*
X0055998Y0268275D01*
X0055998Y0267676D02*
X0051625Y0267676D01*
X0051195Y0267078D02*
X0056052Y0267078D01*
X0056432Y0266479D02*
X0050301Y0266479D01*
X0048489Y0266479D02*
X0045958Y0266479D01*
X0046338Y0267078D02*
X0047595Y0267078D01*
X0047165Y0267676D02*
X0046393Y0267676D01*
X0046393Y0268275D02*
X0046917Y0268275D01*
X0046905Y0268873D02*
X0043326Y0268873D01*
X0043326Y0269472D02*
X0042726Y0269472D01*
X0042726Y0269032D02*
X0042726Y0271312D01*
X0040788Y0271312D01*
X0040457Y0271223D01*
X0040161Y0271052D01*
X0039919Y0270810D01*
X0039748Y0270514D01*
X0039659Y0270183D01*
X0039659Y0269032D01*
X0042726Y0269032D01*
X0042726Y0268873D02*
X0039284Y0268873D01*
X0039195Y0269472D02*
X0039659Y0269472D01*
X0039659Y0270070D02*
X0039195Y0270070D01*
X0039195Y0270669D02*
X0039837Y0270669D01*
X0039195Y0271268D02*
X0040622Y0271268D01*
X0039195Y0271866D02*
X0047795Y0271866D01*
X0047795Y0271268D02*
X0045429Y0271268D01*
X0046214Y0270669D02*
X0047742Y0270669D01*
X0047226Y0270070D02*
X0046393Y0270070D01*
X0046393Y0269472D02*
X0046978Y0269472D01*
X0049395Y0268800D02*
X0049395Y0278800D01*
X0045195Y0283000D01*
X0042595Y0283000D01*
X0038025Y0285033D02*
X0037165Y0285033D01*
X0037413Y0284435D02*
X0037777Y0284435D01*
X0037595Y0283995D02*
X0037595Y0282005D01*
X0037595Y0283995D01*
X0038356Y0285832D01*
X0039224Y0286700D01*
X0035966Y0286700D01*
X0036834Y0285832D01*
X0037595Y0283995D01*
X0037595Y0283836D02*
X0037595Y0283836D01*
X0037595Y0283238D02*
X0037595Y0283238D01*
X0037595Y0282639D02*
X0037595Y0282639D01*
X0037595Y0282041D02*
X0037595Y0282041D01*
X0037362Y0281442D02*
X0037828Y0281442D01*
X0038076Y0280844D02*
X0037114Y0280844D01*
X0037613Y0280245D02*
X0038324Y0280245D01*
X0038211Y0279647D02*
X0038877Y0279647D01*
X0038810Y0279048D02*
X0039476Y0279048D01*
X0039195Y0278450D02*
X0040515Y0278450D01*
X0039195Y0277851D02*
X0047795Y0277851D01*
X0047795Y0277253D02*
X0039195Y0277253D01*
X0039195Y0276654D02*
X0047795Y0276654D01*
X0047795Y0276056D02*
X0039195Y0276056D01*
X0039195Y0275457D02*
X0047795Y0275457D01*
X0047795Y0274859D02*
X0039195Y0274859D01*
X0039195Y0274260D02*
X0047795Y0274260D01*
X0047795Y0273662D02*
X0039195Y0273662D01*
X0039195Y0273063D02*
X0047795Y0273063D01*
X0047795Y0272465D02*
X0039195Y0272465D01*
X0042726Y0271268D02*
X0043326Y0271268D01*
X0043326Y0270669D02*
X0042726Y0270669D01*
X0042726Y0270070D02*
X0043326Y0270070D01*
X0045326Y0265881D02*
X0064795Y0265881D01*
X0064795Y0266479D02*
X0062296Y0266479D01*
X0062677Y0267078D02*
X0064795Y0267078D01*
X0064795Y0267676D02*
X0062731Y0267676D01*
X0062731Y0268275D02*
X0064795Y0268275D01*
X0064795Y0265282D02*
X0045486Y0265282D01*
X0045486Y0264684D02*
X0064795Y0264684D01*
X0064418Y0264085D02*
X0045312Y0264085D01*
X0045004Y0263487D02*
X0063819Y0263487D01*
X0063221Y0262888D02*
X0044405Y0262888D01*
X0046189Y0262290D02*
X0056202Y0262290D01*
X0059364Y0260268D02*
X0062863Y0260268D01*
X0066395Y0263800D01*
X0066395Y0272000D01*
X0068651Y0273063D02*
X0090683Y0273063D01*
X0090683Y0272465D02*
X0068886Y0272465D01*
X0068886Y0271866D02*
X0090683Y0271866D01*
X0090683Y0271000D02*
X0090683Y0269160D01*
X0090772Y0268830D01*
X0090943Y0268533D01*
X0091185Y0268291D01*
X0091482Y0268120D01*
X0091812Y0268031D01*
X0093849Y0268031D01*
X0093849Y0271000D01*
X0090683Y0271000D01*
X0090683Y0270669D02*
X0068540Y0270669D01*
X0068787Y0271268D02*
X0093849Y0271268D01*
X0093849Y0270669D02*
X0094449Y0270669D01*
X0094449Y0270070D02*
X0093849Y0270070D01*
X0093849Y0269472D02*
X0094449Y0269472D01*
X0094449Y0268873D02*
X0093849Y0268873D01*
X0093849Y0268275D02*
X0094449Y0268275D01*
X0094864Y0267078D02*
X0102045Y0267078D01*
X0103789Y0268275D02*
X0103798Y0268275D01*
X0104697Y0267676D02*
X0067995Y0267676D01*
X0067995Y0267078D02*
X0083127Y0267078D01*
X0082528Y0266479D02*
X0067995Y0266479D01*
X0067995Y0265881D02*
X0070457Y0265881D01*
X0070195Y0265282D02*
X0067995Y0265282D01*
X0067995Y0264684D02*
X0070183Y0264684D01*
X0070183Y0264085D02*
X0067995Y0264085D01*
X0067995Y0263487D02*
X0070183Y0263487D01*
X0070183Y0262800D02*
X0070183Y0260960D01*
X0070272Y0260630D01*
X0070443Y0260333D01*
X0070685Y0260091D01*
X0070982Y0259920D01*
X0071312Y0259831D01*
X0073349Y0259831D01*
X0073349Y0262800D01*
X0070183Y0262800D01*
X0070183Y0262290D02*
X0067148Y0262290D01*
X0067746Y0262888D02*
X0073349Y0262888D01*
X0073349Y0262290D02*
X0073949Y0262290D01*
X0073949Y0261691D02*
X0073349Y0261691D01*
X0073349Y0261093D02*
X0073949Y0261093D01*
X0073949Y0260494D02*
X0073349Y0260494D01*
X0073349Y0259896D02*
X0073949Y0259896D01*
X0073849Y0258699D02*
X0073249Y0258699D01*
X0073249Y0258100D02*
X0073849Y0258100D01*
X0073849Y0257502D02*
X0073249Y0257502D01*
X0073249Y0256903D02*
X0073849Y0256903D01*
X0073849Y0256305D02*
X0073249Y0256305D01*
X0073249Y0255706D02*
X0065208Y0255706D01*
X0061795Y0255800D02*
X0061795Y0253146D01*
X0061942Y0253000D01*
X0061795Y0255800D02*
X0060795Y0256800D01*
X0057795Y0256800D01*
X0059364Y0260268D02*
X0043026Y0260268D01*
X0042958Y0260200D01*
X0039395Y0260200D01*
X0037595Y0262000D01*
X0037595Y0265400D01*
X0032595Y0270400D01*
X0032595Y0273000D01*
X0037595Y0268300D02*
X0037595Y0278000D01*
X0032595Y0283000D01*
X0036436Y0286230D02*
X0038754Y0286230D01*
X0038273Y0285632D02*
X0036917Y0285632D01*
X0045714Y0279048D02*
X0046884Y0279048D01*
X0047483Y0278450D02*
X0044675Y0278450D01*
X0050995Y0271268D02*
X0056961Y0271268D01*
X0057126Y0271312D02*
X0056796Y0271223D01*
X0056499Y0271052D01*
X0056257Y0270810D01*
X0056086Y0270514D01*
X0055998Y0270183D01*
X0055998Y0269032D01*
X0059064Y0269032D01*
X0059064Y0271312D01*
X0057126Y0271312D01*
X0056176Y0270669D02*
X0051048Y0270669D01*
X0051565Y0270070D02*
X0055998Y0270070D01*
X0055998Y0269472D02*
X0051813Y0269472D01*
X0059064Y0269472D02*
X0059664Y0269472D01*
X0059664Y0270070D02*
X0059064Y0270070D01*
X0059064Y0270669D02*
X0059664Y0270669D01*
X0059664Y0271268D02*
X0059064Y0271268D01*
X0059064Y0267676D02*
X0059664Y0267676D01*
X0059664Y0267078D02*
X0059064Y0267078D01*
X0059064Y0266479D02*
X0059664Y0266479D01*
X0062527Y0262290D02*
X0062622Y0262290D01*
X0064754Y0259896D02*
X0071072Y0259896D01*
X0070350Y0260494D02*
X0065352Y0260494D01*
X0065951Y0261093D02*
X0070183Y0261093D01*
X0070183Y0261691D02*
X0066549Y0261691D01*
X0073349Y0263487D02*
X0073949Y0263487D01*
X0073949Y0264085D02*
X0073349Y0264085D01*
X0073349Y0264684D02*
X0073949Y0264684D01*
X0073949Y0265282D02*
X0073349Y0265282D01*
X0073349Y0265881D02*
X0073949Y0265881D01*
X0076840Y0265881D02*
X0077150Y0265881D01*
X0076975Y0260494D02*
X0076947Y0260494D01*
X0077573Y0259896D02*
X0076225Y0259896D01*
X0076145Y0258699D02*
X0077468Y0258699D01*
X0076870Y0258100D02*
X0076850Y0258100D01*
X0073849Y0255108D02*
X0073249Y0255108D01*
X0073249Y0254509D02*
X0073849Y0254509D01*
X0073849Y0253911D02*
X0073249Y0253911D01*
X0073249Y0253312D02*
X0073849Y0253312D01*
X0073849Y0252714D02*
X0073249Y0252714D01*
X0076735Y0252714D02*
X0077056Y0252714D01*
X0080242Y0255500D02*
X0080442Y0255300D01*
X0088935Y0255300D01*
X0088995Y0255360D01*
X0091754Y0249721D02*
X0036387Y0249721D01*
X0036828Y0250320D02*
X0039157Y0250320D01*
X0038983Y0250918D02*
X0037146Y0250918D01*
X0037370Y0251517D02*
X0038983Y0251517D01*
X0038983Y0252115D02*
X0037517Y0252115D01*
X0037595Y0253300D02*
X0037595Y0253394D01*
X0037472Y0254171D01*
X0037229Y0254919D01*
X0036872Y0255621D01*
X0036409Y0256257D01*
X0035852Y0256814D01*
X0035216Y0257276D01*
X0034514Y0257634D01*
X0033766Y0257877D01*
X0032989Y0258000D01*
X0032895Y0258000D01*
X0032895Y0253300D01*
X0037595Y0253300D01*
X0037595Y0253312D02*
X0038983Y0253312D01*
X0038983Y0252714D02*
X0032895Y0252714D01*
X0032895Y0253312D02*
X0032295Y0253312D01*
X0032295Y0253911D02*
X0032895Y0253911D01*
X0032895Y0254509D02*
X0032295Y0254509D01*
X0032295Y0255108D02*
X0032895Y0255108D01*
X0032895Y0255706D02*
X0032295Y0255706D01*
X0032295Y0256305D02*
X0032895Y0256305D01*
X0032895Y0256903D02*
X0032295Y0256903D01*
X0032295Y0257502D02*
X0032895Y0257502D01*
X0033832Y0258100D02*
X0040008Y0258100D01*
X0038634Y0258699D02*
X0035277Y0258699D01*
X0035963Y0259297D02*
X0038035Y0259297D01*
X0037437Y0259896D02*
X0036562Y0259896D01*
X0034773Y0257502D02*
X0041426Y0257502D01*
X0041426Y0256903D02*
X0035729Y0256903D01*
X0036361Y0256305D02*
X0041426Y0256305D01*
X0039183Y0255706D02*
X0036809Y0255706D01*
X0037133Y0255108D02*
X0038983Y0255108D01*
X0038983Y0254509D02*
X0037362Y0254509D01*
X0037513Y0253911D02*
X0038983Y0253911D01*
X0042449Y0253000D02*
X0043026Y0253577D01*
X0043026Y0260268D01*
X0049095Y0256800D02*
X0049142Y0256754D01*
X0049142Y0253000D01*
X0055249Y0253000D01*
X0058541Y0250320D02*
X0058650Y0250320D01*
X0056893Y0248524D02*
X0056679Y0248524D01*
X0053749Y0248524D02*
X0053149Y0248524D01*
X0053149Y0247926D02*
X0053749Y0247926D01*
X0053749Y0247327D02*
X0053149Y0247327D01*
X0053149Y0246729D02*
X0053749Y0246729D01*
X0053749Y0246130D02*
X0053149Y0246130D01*
X0053149Y0244933D02*
X0053749Y0244933D01*
X0053749Y0244334D02*
X0053149Y0244334D01*
X0053149Y0243736D02*
X0053749Y0243736D01*
X0053749Y0243137D02*
X0053149Y0243137D01*
X0053149Y0242539D02*
X0053749Y0242539D01*
X0055813Y0242539D02*
X0057430Y0242539D01*
X0056832Y0243137D02*
X0056714Y0243137D01*
X0060142Y0245800D02*
X0064995Y0245800D01*
X0066995Y0243800D01*
X0065244Y0239546D02*
X0051195Y0239546D01*
X0051195Y0238948D02*
X0109899Y0238948D01*
X0115079Y0238245D02*
X0116679Y0239845D01*
X0116679Y0243184D01*
X0116695Y0243200D01*
X0118484Y0244933D02*
X0127437Y0244933D01*
X0126807Y0244334D02*
X0118921Y0244334D01*
X0119169Y0243736D02*
X0126487Y0243736D01*
X0126305Y0243137D02*
X0119186Y0243137D01*
X0119117Y0242539D02*
X0126271Y0242539D01*
X0125673Y0241940D02*
X0118869Y0241940D01*
X0118359Y0241342D02*
X0125074Y0241342D01*
X0124476Y0240743D02*
X0118279Y0240743D01*
X0118279Y0240145D02*
X0123877Y0240145D01*
X0123995Y0238000D02*
X0128795Y0242800D01*
X0131103Y0243736D02*
X0131537Y0243736D01*
X0131796Y0243736D02*
X0131922Y0243736D01*
X0132135Y0244334D02*
X0130783Y0244334D01*
X0130154Y0244933D02*
X0132734Y0244933D01*
X0133332Y0245532D02*
X0117574Y0245532D01*
X0114205Y0243137D02*
X0114188Y0243137D01*
X0118395Y0238000D02*
X0123995Y0238000D01*
X0126493Y0234626D02*
X0126569Y0234626D01*
X0132595Y0228600D01*
X0132595Y0223000D01*
X0122595Y0223000D02*
X0122595Y0230600D01*
X0124778Y0232783D01*
X0124778Y0232817D01*
X0124683Y0232817D01*
X0120507Y0232817D02*
X0120507Y0232488D01*
X0120083Y0232488D01*
X0118995Y0231400D01*
X0118995Y0229400D01*
X0112595Y0223000D01*
X0107595Y0228000D02*
X0102595Y0223000D01*
X0098015Y0220993D02*
X0097176Y0220993D01*
X0097423Y0221591D02*
X0097767Y0221591D01*
X0097595Y0222005D02*
X0097595Y0223995D01*
X0097595Y0222005D01*
X0096834Y0220168D01*
X0095966Y0219300D01*
X0099224Y0219300D01*
X0098356Y0220168D01*
X0097595Y0222005D01*
X0097595Y0222190D02*
X0097595Y0222190D01*
X0097595Y0222788D02*
X0097595Y0222788D01*
X0097595Y0223387D02*
X0097595Y0223387D01*
X0097595Y0223985D02*
X0097595Y0223985D01*
X0097351Y0224584D02*
X0097839Y0224584D01*
X0098087Y0225182D02*
X0097103Y0225182D01*
X0096855Y0225781D02*
X0098335Y0225781D01*
X0098903Y0226379D02*
X0096287Y0226379D01*
X0095689Y0226978D02*
X0099502Y0226978D01*
X0100577Y0227576D02*
X0094613Y0227576D01*
X0090577Y0227576D02*
X0084613Y0227576D01*
X0085689Y0226978D02*
X0089502Y0226978D01*
X0088903Y0226379D02*
X0086287Y0226379D01*
X0086855Y0225781D02*
X0088335Y0225781D01*
X0088087Y0225182D02*
X0087103Y0225182D01*
X0087351Y0224584D02*
X0087839Y0224584D01*
X0087595Y0223995D02*
X0087595Y0222005D01*
X0086834Y0220168D01*
X0085966Y0219300D01*
X0089224Y0219300D01*
X0088356Y0220168D01*
X0087595Y0222005D01*
X0087595Y0223995D01*
X0087595Y0223985D02*
X0087595Y0223985D01*
X0087595Y0223387D02*
X0087595Y0223387D01*
X0087595Y0222788D02*
X0087595Y0222788D01*
X0087595Y0222190D02*
X0087595Y0222190D01*
X0087423Y0221591D02*
X0087767Y0221591D01*
X0088015Y0220993D02*
X0087176Y0220993D01*
X0086928Y0220394D02*
X0088263Y0220394D01*
X0088729Y0219796D02*
X0086462Y0219796D01*
X0079224Y0219300D02*
X0078356Y0220168D01*
X0077595Y0222005D01*
X0077595Y0223995D01*
X0077595Y0222005D01*
X0076834Y0220168D01*
X0075966Y0219300D01*
X0079224Y0219300D01*
X0078729Y0219796D02*
X0076462Y0219796D01*
X0076928Y0220394D02*
X0078263Y0220394D01*
X0078015Y0220993D02*
X0077176Y0220993D01*
X0077423Y0221591D02*
X0077767Y0221591D01*
X0077595Y0222190D02*
X0077595Y0222190D01*
X0077595Y0222788D02*
X0077595Y0222788D01*
X0077595Y0223387D02*
X0077595Y0223387D01*
X0077595Y0223985D02*
X0077595Y0223985D01*
X0077351Y0224584D02*
X0077839Y0224584D01*
X0078087Y0225182D02*
X0077103Y0225182D01*
X0076855Y0225781D02*
X0078335Y0225781D01*
X0078903Y0226379D02*
X0076287Y0226379D01*
X0075689Y0226978D02*
X0079502Y0226978D01*
X0080577Y0227576D02*
X0074613Y0227576D01*
X0070577Y0227576D02*
X0064613Y0227576D01*
X0065689Y0226978D02*
X0069502Y0226978D01*
X0068903Y0226379D02*
X0066287Y0226379D01*
X0066855Y0225781D02*
X0068335Y0225781D01*
X0068087Y0225182D02*
X0067103Y0225182D01*
X0067351Y0224584D02*
X0067839Y0224584D01*
X0067595Y0223995D02*
X0067595Y0222005D01*
X0066834Y0220168D01*
X0065966Y0219300D01*
X0069224Y0219300D01*
X0068356Y0220168D01*
X0067595Y0222005D01*
X0067595Y0223995D01*
X0067595Y0223985D02*
X0067595Y0223985D01*
X0067595Y0223387D02*
X0067595Y0223387D01*
X0067595Y0222788D02*
X0067595Y0222788D01*
X0067595Y0222190D02*
X0067595Y0222190D01*
X0067423Y0221591D02*
X0067767Y0221591D01*
X0068015Y0220993D02*
X0067176Y0220993D01*
X0066928Y0220394D02*
X0068263Y0220394D01*
X0068729Y0219796D02*
X0066462Y0219796D01*
X0059224Y0219300D02*
X0058356Y0220168D01*
X0057595Y0222005D01*
X0057595Y0223995D01*
X0057595Y0222005D01*
X0056834Y0220168D01*
X0055966Y0219300D01*
X0059224Y0219300D01*
X0058729Y0219796D02*
X0056462Y0219796D01*
X0056928Y0220394D02*
X0058263Y0220394D01*
X0058015Y0220993D02*
X0057176Y0220993D01*
X0057423Y0221591D02*
X0057767Y0221591D01*
X0057595Y0222190D02*
X0057595Y0222190D01*
X0057595Y0222788D02*
X0057595Y0222788D01*
X0057595Y0223387D02*
X0057595Y0223387D01*
X0057595Y0223985D02*
X0057595Y0223985D01*
X0057351Y0224584D02*
X0057839Y0224584D01*
X0058087Y0225182D02*
X0057103Y0225182D01*
X0056855Y0225781D02*
X0058335Y0225781D01*
X0058903Y0226379D02*
X0056287Y0226379D01*
X0055689Y0226978D02*
X0059502Y0226978D01*
X0060577Y0227576D02*
X0054613Y0227576D01*
X0050577Y0227576D02*
X0044613Y0227576D01*
X0045689Y0226978D02*
X0049502Y0226978D01*
X0048903Y0226379D02*
X0046287Y0226379D01*
X0046855Y0225781D02*
X0048335Y0225781D01*
X0048087Y0225182D02*
X0047103Y0225182D01*
X0047351Y0224584D02*
X0047839Y0224584D01*
X0047595Y0223995D02*
X0047595Y0222005D01*
X0046834Y0220168D01*
X0045966Y0219300D01*
X0049224Y0219300D01*
X0048356Y0220168D01*
X0047595Y0222005D01*
X0047595Y0223995D01*
X0047595Y0223985D02*
X0047595Y0223985D01*
X0047595Y0223387D02*
X0047595Y0223387D01*
X0047595Y0222788D02*
X0047595Y0222788D01*
X0047595Y0222190D02*
X0047595Y0222190D01*
X0047423Y0221591D02*
X0047767Y0221591D01*
X0048015Y0220993D02*
X0047176Y0220993D01*
X0046928Y0220394D02*
X0048263Y0220394D01*
X0048729Y0219796D02*
X0046462Y0219796D01*
X0039224Y0219300D02*
X0035966Y0219300D01*
X0036834Y0220168D01*
X0037595Y0222005D01*
X0037595Y0223995D01*
X0037595Y0222005D01*
X0038356Y0220168D01*
X0039224Y0219300D01*
X0038729Y0219796D02*
X0036462Y0219796D01*
X0036928Y0220394D02*
X0038263Y0220394D01*
X0038015Y0220993D02*
X0037176Y0220993D01*
X0037423Y0221591D02*
X0037767Y0221591D01*
X0037595Y0222190D02*
X0037595Y0222190D01*
X0037595Y0222788D02*
X0037595Y0222788D01*
X0037595Y0223387D02*
X0037595Y0223387D01*
X0037595Y0223985D02*
X0037595Y0223985D01*
X0037351Y0224584D02*
X0037839Y0224584D01*
X0038087Y0225182D02*
X0037103Y0225182D01*
X0036855Y0225781D02*
X0038335Y0225781D01*
X0038903Y0226379D02*
X0036287Y0226379D01*
X0035689Y0226978D02*
X0039502Y0226978D01*
X0040577Y0227576D02*
X0034613Y0227576D01*
X0034011Y0228175D02*
X0105507Y0228175D01*
X0106106Y0228773D02*
X0035439Y0228773D01*
X0036038Y0229372D02*
X0065666Y0229372D01*
X0064320Y0229970D02*
X0036636Y0229970D01*
X0037000Y0230569D02*
X0063721Y0230569D01*
X0063123Y0231167D02*
X0037248Y0231167D01*
X0037496Y0231766D02*
X0050411Y0231766D01*
X0050485Y0231691D02*
X0050782Y0231520D01*
X0051112Y0231431D01*
X0053149Y0231431D01*
X0053149Y0234400D01*
X0049983Y0234400D01*
X0049983Y0232560D01*
X0050072Y0232230D01*
X0050243Y0231933D01*
X0050485Y0231691D01*
X0050036Y0232364D02*
X0037595Y0232364D01*
X0037595Y0232963D02*
X0049983Y0232963D01*
X0049983Y0233561D02*
X0037595Y0233561D01*
X0037527Y0234160D02*
X0049983Y0234160D01*
X0049983Y0235357D02*
X0037031Y0235357D01*
X0037279Y0234758D02*
X0053149Y0234758D01*
X0053149Y0234160D02*
X0053749Y0234160D01*
X0053749Y0233561D02*
X0053149Y0233561D01*
X0053149Y0232963D02*
X0053749Y0232963D01*
X0053749Y0232364D02*
X0053149Y0232364D01*
X0053149Y0231766D02*
X0053749Y0231766D01*
X0056487Y0231766D02*
X0057103Y0231766D01*
X0060142Y0234700D02*
X0066095Y0234700D01*
X0066995Y0233800D01*
X0070269Y0230569D02*
X0112301Y0230569D01*
X0111703Y0229970D02*
X0069671Y0229970D01*
X0068325Y0229372D02*
X0106704Y0229372D01*
X0107595Y0228000D02*
X0111995Y0228000D01*
X0118498Y0234503D01*
X0118698Y0234503D01*
X0118698Y0234626D01*
X0116888Y0236436D02*
X0116888Y0236493D01*
X0118395Y0238000D01*
X0115099Y0234160D02*
X0115067Y0234160D01*
X0115294Y0233561D02*
X0114819Y0233561D01*
X0114695Y0232963D02*
X0114380Y0232963D01*
X0114097Y0232364D02*
X0113464Y0232364D01*
X0113498Y0231766D02*
X0108731Y0231766D01*
X0104909Y0227576D02*
X0104613Y0227576D01*
X0099265Y0235357D02*
X0098665Y0235357D01*
X0098665Y0235955D02*
X0099265Y0235955D01*
X0099265Y0236554D02*
X0098665Y0236554D01*
X0098665Y0237152D02*
X0099265Y0237152D01*
X0099265Y0237751D02*
X0098665Y0237751D01*
X0096134Y0237751D02*
X0069477Y0237751D01*
X0065958Y0238349D02*
X0051195Y0238349D01*
X0051195Y0240145D02*
X0064145Y0240145D01*
X0063546Y0240743D02*
X0051195Y0240743D01*
X0051195Y0241342D02*
X0063034Y0241342D01*
X0062786Y0241940D02*
X0051195Y0241940D01*
X0053149Y0237751D02*
X0053749Y0237751D01*
X0053749Y0237152D02*
X0053149Y0237152D01*
X0053149Y0236554D02*
X0053749Y0236554D01*
X0053749Y0235955D02*
X0053149Y0235955D01*
X0053149Y0235357D02*
X0053749Y0235357D01*
X0056339Y0237751D02*
X0057220Y0237751D01*
X0063063Y0237751D02*
X0064513Y0237751D01*
X0063842Y0237152D02*
X0063607Y0237152D01*
X0071595Y0233561D02*
X0071759Y0233561D01*
X0071759Y0232963D02*
X0071595Y0232963D01*
X0071379Y0232364D02*
X0071976Y0232364D01*
X0074826Y0234758D02*
X0075426Y0234758D01*
X0075426Y0234668D02*
X0075426Y0236947D01*
X0077364Y0236947D01*
X0077695Y0236859D01*
X0077991Y0236687D01*
X0078233Y0236445D01*
X0078404Y0236149D01*
X0078493Y0235818D01*
X0078493Y0234668D01*
X0075426Y0234668D01*
X0075426Y0235357D02*
X0074826Y0235357D01*
X0074826Y0235955D02*
X0075426Y0235955D01*
X0075426Y0236554D02*
X0074826Y0236554D01*
X0078125Y0236554D02*
X0088466Y0236554D01*
X0088357Y0236445D02*
X0088186Y0236149D01*
X0088098Y0235818D01*
X0088098Y0234668D01*
X0091164Y0234668D01*
X0091164Y0236947D01*
X0089226Y0236947D01*
X0088896Y0236859D01*
X0088599Y0236687D01*
X0088357Y0236445D01*
X0088134Y0235955D02*
X0078456Y0235955D01*
X0078493Y0235357D02*
X0088098Y0235357D01*
X0088098Y0234758D02*
X0078493Y0234758D01*
X0078493Y0233561D02*
X0088098Y0233561D01*
X0088098Y0232963D02*
X0078493Y0232963D01*
X0078276Y0232364D02*
X0088314Y0232364D01*
X0091164Y0234758D02*
X0091764Y0234758D01*
X0091764Y0235357D02*
X0091164Y0235357D01*
X0091164Y0235955D02*
X0091764Y0235955D01*
X0091764Y0236554D02*
X0091164Y0236554D01*
X0101796Y0237751D02*
X0102771Y0237751D01*
X0095044Y0246729D02*
X0093286Y0246729D01*
X0093885Y0247327D02*
X0094527Y0247327D01*
X0096695Y0248600D02*
X0102412Y0254317D01*
X0102412Y0255088D01*
X0104098Y0256897D02*
X0102595Y0258400D01*
X0099795Y0258400D01*
X0099395Y0258000D01*
X0099395Y0255100D01*
X0091464Y0247169D01*
X0091464Y0242832D01*
X0075126Y0242832D01*
X0078210Y0244933D02*
X0088380Y0244933D01*
X0088368Y0240743D02*
X0078222Y0240743D01*
X0091155Y0249123D02*
X0035765Y0249123D01*
X0034824Y0248524D02*
X0048074Y0248524D01*
X0047475Y0247926D02*
X0033769Y0247926D01*
X0032895Y0248524D02*
X0032295Y0248524D01*
X0032295Y0249123D02*
X0032895Y0249123D01*
X0032895Y0249721D02*
X0032295Y0249721D01*
X0032295Y0250320D02*
X0032895Y0250320D01*
X0032895Y0250918D02*
X0032295Y0250918D01*
X0032295Y0251517D02*
X0032895Y0251517D01*
X0032895Y0252115D02*
X0032295Y0252115D01*
X0030366Y0248524D02*
X0028895Y0248524D01*
X0028895Y0247926D02*
X0031421Y0247926D01*
X0029976Y0247327D02*
X0028895Y0247327D01*
X0028895Y0246729D02*
X0029253Y0246729D01*
X0029425Y0249123D02*
X0028895Y0249123D01*
X0035214Y0247327D02*
X0047095Y0247327D01*
X0045850Y0250320D02*
X0045741Y0250320D01*
X0050217Y0248524D02*
X0050218Y0248524D01*
X0038278Y0246729D02*
X0035938Y0246729D01*
X0036536Y0246130D02*
X0037680Y0246130D01*
X0037595Y0245532D02*
X0036959Y0245532D01*
X0037206Y0244933D02*
X0037595Y0244933D01*
X0037595Y0244334D02*
X0037454Y0244334D01*
X0037595Y0243736D02*
X0037595Y0243736D01*
X0037595Y0243137D02*
X0037595Y0243137D01*
X0037595Y0242539D02*
X0037595Y0242539D01*
X0037568Y0241940D02*
X0037595Y0241940D01*
X0037595Y0241342D02*
X0037320Y0241342D01*
X0037072Y0240743D02*
X0037595Y0240743D01*
X0037595Y0240145D02*
X0036811Y0240145D01*
X0036213Y0239546D02*
X0037595Y0239546D01*
X0037595Y0238948D02*
X0035614Y0238948D01*
X0034433Y0238349D02*
X0037595Y0238349D01*
X0037595Y0237751D02*
X0034191Y0237751D01*
X0033590Y0238000D02*
X0031601Y0238000D01*
X0029763Y0238761D01*
X0028895Y0239629D01*
X0028895Y0236371D01*
X0029763Y0237239D01*
X0031601Y0238000D01*
X0033590Y0238000D01*
X0035514Y0237152D02*
X0037595Y0237152D01*
X0038096Y0236554D02*
X0036112Y0236554D01*
X0036711Y0235955D02*
X0049983Y0235955D01*
X0033590Y0228000D02*
X0031601Y0228000D01*
X0029763Y0228761D01*
X0028895Y0229629D01*
X0028895Y0226371D01*
X0029763Y0227239D01*
X0031601Y0228000D01*
X0033590Y0228000D01*
X0031179Y0228175D02*
X0028895Y0228175D01*
X0028895Y0228773D02*
X0029751Y0228773D01*
X0029152Y0229372D02*
X0028895Y0229372D01*
X0028895Y0227576D02*
X0030577Y0227576D01*
X0029502Y0226978D02*
X0028895Y0226978D01*
X0028895Y0226379D02*
X0028903Y0226379D01*
X0028895Y0236554D02*
X0029078Y0236554D01*
X0028895Y0237152D02*
X0029676Y0237152D01*
X0028895Y0237751D02*
X0030999Y0237751D01*
X0030757Y0238349D02*
X0028895Y0238349D01*
X0028895Y0238948D02*
X0029576Y0238948D01*
X0028978Y0239546D02*
X0028895Y0239546D01*
X0028895Y0256903D02*
X0029461Y0256903D01*
X0028895Y0257502D02*
X0030417Y0257502D01*
X0031359Y0258100D02*
X0028895Y0258100D01*
X0028895Y0258699D02*
X0029914Y0258699D01*
X0029227Y0259297D02*
X0028895Y0259297D01*
X0037595Y0268300D02*
X0040895Y0265000D01*
X0042995Y0265000D01*
X0067995Y0268275D02*
X0091213Y0268275D01*
X0090760Y0268873D02*
X0067995Y0268873D01*
X0067995Y0269472D02*
X0090683Y0269472D01*
X0090683Y0270070D02*
X0067995Y0270070D01*
X0068256Y0273662D02*
X0090743Y0273662D01*
X0086595Y0275600D02*
X0094904Y0275600D01*
X0096152Y0274351D01*
X0103850Y0274351D01*
X0105001Y0273200D01*
X0106195Y0273200D01*
X0106995Y0272400D01*
X0106195Y0273200D01*
X0106995Y0272400D02*
X0113269Y0266126D01*
X0113269Y0265945D01*
X0111460Y0264136D02*
X0105595Y0270000D01*
X0104295Y0271300D01*
X0100842Y0271300D01*
X0097894Y0268275D02*
X0097084Y0268275D01*
X0104545Y0267078D02*
X0106254Y0267078D01*
X0106853Y0266479D02*
X0105238Y0266479D01*
X0105585Y0265881D02*
X0107451Y0265881D01*
X0108050Y0265282D02*
X0105786Y0265282D01*
X0105786Y0264684D02*
X0107942Y0264684D01*
X0107954Y0264085D02*
X0107828Y0264085D01*
X0107344Y0264085D02*
X0106372Y0264085D01*
X0108426Y0263487D02*
X0108552Y0263487D01*
X0109025Y0262888D02*
X0109151Y0262888D01*
X0109677Y0262290D02*
X0109749Y0262290D01*
X0110222Y0261691D02*
X0110348Y0261691D01*
X0110820Y0261093D02*
X0110946Y0261093D01*
X0107841Y0260555D02*
X0107641Y0260555D01*
X0107841Y0260555D02*
X0107841Y0260516D01*
X0104221Y0256897D02*
X0104098Y0256897D01*
X0101967Y0260891D02*
X0101595Y0260891D01*
X0101895Y0260891D02*
X0096786Y0260891D01*
X0096695Y0260800D01*
X0108595Y0274400D02*
X0115079Y0267916D01*
X0115079Y0267755D01*
X0116888Y0269564D02*
X0116888Y0269707D01*
X0110995Y0275600D01*
X0105995Y0275600D01*
X0104844Y0276751D01*
X0097147Y0276751D01*
X0095898Y0278000D01*
X0095401Y0276800D02*
X0087095Y0276800D01*
X0085895Y0278000D01*
X0077595Y0278000D01*
X0077095Y0276800D02*
X0075895Y0278000D01*
X0077095Y0276800D02*
X0085395Y0276800D01*
X0086595Y0275600D01*
X0095401Y0276800D02*
X0096650Y0275551D01*
X0104347Y0275551D01*
X0105498Y0274400D01*
X0108595Y0274400D01*
X0107098Y0276800D02*
X0113271Y0276800D01*
X0118698Y0271374D01*
X0120507Y0273183D02*
X0120507Y0273288D01*
X0115795Y0278000D01*
X0107595Y0278000D01*
X0107098Y0276800D02*
X0105947Y0277951D01*
X0122595Y0283000D02*
X0127995Y0277600D01*
X0127995Y0272800D01*
X0126569Y0271374D01*
X0126493Y0271374D01*
X0126493Y0271297D01*
X0119795Y0264600D01*
X0119795Y0263600D01*
X0127932Y0264219D02*
X0127932Y0264219D01*
X0130112Y0267755D02*
X0130112Y0267916D01*
X0131595Y0269400D01*
X0131595Y0276300D01*
X0133095Y0277800D01*
X0134701Y0277800D01*
X0135346Y0273662D02*
X0141535Y0273662D01*
X0141023Y0273063D02*
X0135858Y0273063D01*
X0136106Y0272465D02*
X0140775Y0272465D01*
X0140705Y0271866D02*
X0136176Y0271866D01*
X0136161Y0271268D02*
X0140720Y0271268D01*
X0140795Y0270669D02*
X0135913Y0270669D01*
X0148395Y0268275D02*
X0158120Y0268275D01*
X0158120Y0268873D02*
X0148631Y0268873D01*
X0148395Y0267676D02*
X0158120Y0267676D01*
X0158120Y0267078D02*
X0148395Y0267078D01*
X0148395Y0266479D02*
X0158120Y0266479D01*
X0158120Y0265881D02*
X0148395Y0265881D01*
X0148395Y0265282D02*
X0158177Y0265282D01*
X0158776Y0264684D02*
X0148395Y0264684D01*
X0148395Y0264085D02*
X0158545Y0264085D01*
X0158120Y0263487D02*
X0148395Y0263487D01*
X0148395Y0262888D02*
X0152912Y0262888D01*
X0152063Y0262290D02*
X0148395Y0262290D01*
X0148395Y0261691D02*
X0151651Y0261691D01*
X0151405Y0261093D02*
X0148395Y0261093D01*
X0148395Y0260494D02*
X0151405Y0260494D01*
X0151491Y0259896D02*
X0148395Y0259896D01*
X0148395Y0259297D02*
X0151074Y0259297D01*
X0150627Y0258699D02*
X0148395Y0258699D01*
X0148158Y0258100D02*
X0150627Y0258100D01*
X0150134Y0257502D02*
X0147560Y0257502D01*
X0146961Y0256903D02*
X0149536Y0256903D01*
X0148937Y0256305D02*
X0146363Y0256305D01*
X0145764Y0255706D02*
X0148339Y0255706D01*
X0147740Y0255108D02*
X0145611Y0255108D01*
X0145012Y0254509D02*
X0147142Y0254509D01*
X0148595Y0253700D02*
X0150995Y0256100D01*
X0153849Y0256100D01*
X0153895Y0256146D01*
X0153895Y0260600D01*
X0154879Y0262888D02*
X0158120Y0262888D01*
X0158120Y0262290D02*
X0155727Y0262290D01*
X0156139Y0261691D02*
X0158120Y0261691D01*
X0158120Y0261093D02*
X0156386Y0261093D01*
X0156386Y0260494D02*
X0158120Y0260494D01*
X0158120Y0259896D02*
X0156299Y0259896D01*
X0156717Y0259297D02*
X0158074Y0259297D01*
X0157727Y0258699D02*
X0157164Y0258699D01*
X0157164Y0258100D02*
X0157727Y0258100D01*
X0157727Y0257502D02*
X0157164Y0257502D01*
X0157164Y0256903D02*
X0157727Y0256903D01*
X0157727Y0256305D02*
X0157164Y0256305D01*
X0157164Y0255706D02*
X0157727Y0255706D01*
X0157727Y0255108D02*
X0157164Y0255108D01*
X0157164Y0254509D02*
X0157727Y0254509D01*
X0157727Y0253911D02*
X0157164Y0253911D01*
X0157033Y0253312D02*
X0157957Y0253312D01*
X0158183Y0252714D02*
X0156567Y0252714D01*
X0157077Y0252115D02*
X0157787Y0252115D01*
X0157727Y0251517D02*
X0157164Y0251517D01*
X0157164Y0250918D02*
X0157727Y0250918D01*
X0157727Y0250320D02*
X0157164Y0250320D01*
X0157164Y0249123D02*
X0157727Y0249123D01*
X0157727Y0248524D02*
X0157164Y0248524D01*
X0157164Y0247926D02*
X0157727Y0247926D01*
X0157727Y0247327D02*
X0157164Y0247327D01*
X0157042Y0246729D02*
X0157906Y0246729D01*
X0157484Y0246130D02*
X0158699Y0246130D01*
X0159327Y0245532D02*
X0157892Y0245532D01*
X0157957Y0244933D02*
X0159327Y0244933D01*
X0159327Y0244334D02*
X0157957Y0244334D01*
X0157957Y0243137D02*
X0159327Y0243137D01*
X0159327Y0242539D02*
X0157957Y0242539D01*
X0157957Y0241940D02*
X0159327Y0241940D01*
X0159327Y0241342D02*
X0157797Y0241342D01*
X0157108Y0240743D02*
X0159327Y0240743D01*
X0159524Y0240145D02*
X0151566Y0240145D01*
X0151475Y0239546D02*
X0159816Y0239546D01*
X0159327Y0238948D02*
X0157579Y0238948D01*
X0159049Y0236354D02*
X0162595Y0236354D01*
X0159049Y0236354D02*
X0158995Y0236300D01*
X0159415Y0233561D02*
X0151675Y0233561D01*
X0154295Y0236457D02*
X0148598Y0236457D01*
X0148595Y0236454D01*
X0143442Y0236454D01*
X0139248Y0240647D01*
X0138548Y0240647D01*
X0135540Y0243655D01*
X0135540Y0243674D01*
X0133718Y0241940D02*
X0133592Y0241940D01*
X0133119Y0242539D02*
X0132993Y0242539D01*
X0132521Y0243137D02*
X0132395Y0243137D01*
X0134190Y0241342D02*
X0134316Y0241342D01*
X0134789Y0240743D02*
X0134915Y0240743D01*
X0135387Y0240145D02*
X0135513Y0240145D01*
X0136077Y0240145D02*
X0136787Y0240145D01*
X0137386Y0239546D02*
X0135478Y0239546D01*
X0134895Y0238948D02*
X0138684Y0238948D01*
X0139283Y0238349D02*
X0134895Y0238349D01*
X0134895Y0237751D02*
X0139882Y0237751D01*
X0140480Y0237152D02*
X0134895Y0237152D01*
X0134895Y0236554D02*
X0141079Y0236554D01*
X0141677Y0235955D02*
X0135303Y0235955D01*
X0135901Y0235357D02*
X0142276Y0235357D01*
X0145327Y0234758D02*
X0136500Y0234758D01*
X0137098Y0234160D02*
X0145327Y0234160D01*
X0145515Y0233561D02*
X0137697Y0233561D01*
X0138295Y0232963D02*
X0160014Y0232963D01*
X0160005Y0232364D02*
X0138894Y0232364D01*
X0139492Y0231766D02*
X0160005Y0231766D01*
X0160102Y0231167D02*
X0140091Y0231167D01*
X0139795Y0229200D02*
X0133295Y0235700D01*
X0133295Y0238700D01*
X0131940Y0240055D01*
X0131921Y0240055D01*
X0130150Y0238245D02*
X0131495Y0236900D01*
X0131495Y0235800D01*
X0139295Y0228000D01*
X0144242Y0228000D01*
X0149242Y0223000D01*
X0152595Y0223000D01*
X0154242Y0228000D02*
X0159242Y0223000D01*
X0162595Y0223000D01*
X0158903Y0226379D02*
X0158126Y0226379D01*
X0157527Y0226978D02*
X0159502Y0226978D01*
X0160577Y0227576D02*
X0156929Y0227576D01*
X0156330Y0228175D02*
X0165105Y0228175D01*
X0165105Y0227576D02*
X0164613Y0227576D01*
X0165220Y0228773D02*
X0155731Y0228773D01*
X0155133Y0229372D02*
X0165468Y0229372D01*
X0166043Y0229970D02*
X0164090Y0229970D01*
X0162495Y0231898D02*
X0165949Y0231898D01*
X0167452Y0233400D01*
X0167452Y0234500D01*
X0167452Y0241143D01*
X0165549Y0243046D01*
X0162595Y0243046D01*
X0159327Y0243736D02*
X0154595Y0243736D01*
X0154595Y0243843D02*
X0153995Y0243843D01*
X0153995Y0243243D01*
X0150633Y0243243D01*
X0150633Y0242846D01*
X0148895Y0242846D01*
X0148895Y0243446D01*
X0151864Y0243446D01*
X0151864Y0243843D01*
X0153995Y0243843D01*
X0153995Y0246418D01*
X0153595Y0246418D01*
X0153595Y0249153D01*
X0154195Y0249153D01*
X0154195Y0245988D01*
X0154595Y0245988D01*
X0154595Y0243843D01*
X0154595Y0244334D02*
X0153995Y0244334D01*
X0153995Y0243736D02*
X0151864Y0243736D01*
X0150633Y0243137D02*
X0148895Y0243137D01*
X0148895Y0243446D02*
X0148295Y0243446D01*
X0148295Y0242846D01*
X0145327Y0242846D01*
X0145327Y0240810D01*
X0145415Y0240479D01*
X0145586Y0240183D01*
X0145828Y0239941D01*
X0146007Y0239838D01*
X0145327Y0239157D01*
X0145327Y0238054D01*
X0144104Y0238054D01*
X0141048Y0241109D01*
X0141491Y0241109D01*
X0142406Y0241489D01*
X0143107Y0242189D01*
X0143486Y0243105D01*
X0143486Y0243209D01*
X0144091Y0243209D01*
X0145006Y0243589D01*
X0145327Y0243909D01*
X0145327Y0243446D01*
X0148295Y0243446D01*
X0148295Y0246612D01*
X0146455Y0246612D01*
X0146125Y0246523D01*
X0145984Y0246442D01*
X0145707Y0247111D01*
X0145488Y0247330D01*
X0150195Y0252037D01*
X0150195Y0253037D01*
X0150627Y0253469D01*
X0150627Y0253443D01*
X0151307Y0252762D01*
X0151128Y0252659D01*
X0150886Y0252417D01*
X0150715Y0252121D01*
X0150627Y0251790D01*
X0150627Y0249754D01*
X0153595Y0249754D01*
X0153595Y0249154D01*
X0150627Y0249154D01*
X0150627Y0247117D01*
X0150715Y0246786D01*
X0150831Y0246586D01*
X0150735Y0246612D01*
X0148895Y0246612D01*
X0148895Y0243446D01*
X0148895Y0243736D02*
X0148295Y0243736D01*
X0148295Y0244334D02*
X0148895Y0244334D01*
X0148895Y0244933D02*
X0148295Y0244933D01*
X0148295Y0245532D02*
X0148895Y0245532D01*
X0148895Y0246130D02*
X0148295Y0246130D01*
X0145865Y0246729D02*
X0150749Y0246729D01*
X0150627Y0247327D02*
X0145490Y0247327D01*
X0146083Y0247926D02*
X0150627Y0247926D01*
X0150627Y0248524D02*
X0146682Y0248524D01*
X0147280Y0249123D02*
X0150627Y0249123D01*
X0150627Y0250320D02*
X0148477Y0250320D01*
X0147879Y0249721D02*
X0153595Y0249721D01*
X0153595Y0249123D02*
X0154195Y0249123D01*
X0154195Y0249721D02*
X0160695Y0249721D01*
X0161295Y0249721D02*
X0166995Y0249721D01*
X0166995Y0249123D02*
X0167595Y0249123D01*
X0167595Y0248524D02*
X0166995Y0248524D01*
X0166995Y0247926D02*
X0167595Y0247926D01*
X0167595Y0247327D02*
X0166995Y0247327D01*
X0166995Y0246729D02*
X0167595Y0246729D01*
X0167595Y0250320D02*
X0166995Y0250320D01*
X0166995Y0250918D02*
X0167595Y0250918D01*
X0167595Y0251517D02*
X0166995Y0251517D01*
X0166995Y0252115D02*
X0167595Y0252115D01*
X0167295Y0255353D02*
X0167295Y0261154D01*
X0160995Y0261547D02*
X0160995Y0256246D01*
X0154195Y0248524D02*
X0153595Y0248524D01*
X0153595Y0247926D02*
X0154195Y0247926D01*
X0154195Y0247327D02*
X0153595Y0247327D01*
X0153595Y0246729D02*
X0154195Y0246729D01*
X0154195Y0246130D02*
X0153995Y0246130D01*
X0153995Y0245532D02*
X0154595Y0245532D01*
X0154595Y0244933D02*
X0153995Y0244933D01*
X0153995Y0243137D02*
X0154595Y0243137D01*
X0154595Y0242539D02*
X0153995Y0242539D01*
X0153995Y0241940D02*
X0154595Y0241940D01*
X0154595Y0241342D02*
X0153995Y0241342D01*
X0153995Y0240743D02*
X0154595Y0240743D01*
X0148295Y0243137D02*
X0143486Y0243137D01*
X0143251Y0242539D02*
X0145327Y0242539D01*
X0145327Y0241940D02*
X0142858Y0241940D01*
X0142052Y0241342D02*
X0145327Y0241342D01*
X0145344Y0240743D02*
X0141414Y0240743D01*
X0142013Y0240145D02*
X0145624Y0240145D01*
X0145716Y0239546D02*
X0142611Y0239546D01*
X0143210Y0238948D02*
X0145327Y0238948D01*
X0145327Y0238349D02*
X0143808Y0238349D01*
X0145153Y0243736D02*
X0145327Y0243736D01*
X0143595Y0245700D02*
X0142195Y0245700D01*
X0140795Y0245700D01*
X0139202Y0247293D01*
X0139159Y0247293D01*
X0137412Y0245484D02*
X0137350Y0245484D01*
X0137412Y0245484D02*
X0139295Y0243600D01*
X0140995Y0243600D01*
X0142295Y0247900D02*
X0143795Y0247900D01*
X0148595Y0252700D01*
X0148595Y0253700D01*
X0150195Y0252714D02*
X0151223Y0252714D01*
X0150757Y0253312D02*
X0150470Y0253312D01*
X0150714Y0252115D02*
X0150195Y0252115D01*
X0150627Y0251517D02*
X0149674Y0251517D01*
X0149076Y0250918D02*
X0150627Y0250918D01*
X0142295Y0247900D02*
X0141093Y0249103D01*
X0140969Y0249103D01*
X0140969Y0256897D02*
X0140969Y0256974D01*
X0132356Y0257502D02*
X0130619Y0257502D01*
X0120895Y0254900D02*
X0120895Y0249300D01*
X0130112Y0238245D02*
X0130150Y0238245D01*
X0128359Y0236436D02*
X0129795Y0235000D01*
X0130595Y0235000D01*
X0142595Y0223000D01*
X0146022Y0228000D02*
X0154242Y0228000D01*
X0160350Y0230569D02*
X0145716Y0230569D01*
X0146314Y0229970D02*
X0160900Y0229970D01*
X0166883Y0230569D02*
X0205568Y0230569D01*
X0205320Y0231167D02*
X0176981Y0231167D01*
X0176911Y0231098D02*
X0177153Y0231340D01*
X0177325Y0231636D01*
X0177413Y0231967D01*
X0177413Y0234200D01*
X0174838Y0234200D01*
X0174838Y0230838D01*
X0176284Y0230838D01*
X0176615Y0230926D01*
X0176911Y0231098D01*
X0177359Y0231766D02*
X0204815Y0231766D01*
X0206003Y0229970D02*
X0169147Y0229970D01*
X0169895Y0231167D02*
X0172096Y0231167D01*
X0172165Y0231098D02*
X0172462Y0230926D01*
X0172792Y0230838D01*
X0174238Y0230838D01*
X0174238Y0234200D01*
X0171664Y0234200D01*
X0171664Y0231967D01*
X0171752Y0231636D01*
X0171923Y0231340D01*
X0172165Y0231098D01*
X0171717Y0231766D02*
X0170327Y0231766D01*
X0170327Y0232364D02*
X0171664Y0232364D01*
X0171664Y0232963D02*
X0170327Y0232963D01*
X0170327Y0233561D02*
X0171664Y0233561D01*
X0171664Y0234160D02*
X0170327Y0234160D01*
X0170327Y0234758D02*
X0174238Y0234758D01*
X0174238Y0234800D02*
X0174238Y0234200D01*
X0174838Y0234200D01*
X0174838Y0234800D01*
X0174238Y0234800D01*
X0171664Y0234800D01*
X0171664Y0237033D01*
X0171752Y0237364D01*
X0171923Y0237660D01*
X0172165Y0237902D01*
X0172462Y0238074D01*
X0172792Y0238162D01*
X0174238Y0238162D01*
X0174238Y0234800D01*
X0174238Y0235357D02*
X0174838Y0235357D01*
X0174838Y0234800D02*
X0174838Y0238162D01*
X0176284Y0238162D01*
X0176615Y0238074D01*
X0176911Y0237902D01*
X0177153Y0237660D01*
X0177325Y0237364D01*
X0177413Y0237033D01*
X0177413Y0234800D01*
X0174838Y0234800D01*
X0174838Y0234758D02*
X0184182Y0234758D01*
X0183116Y0235357D02*
X0177413Y0235357D01*
X0177413Y0235955D02*
X0182615Y0235955D01*
X0182367Y0236554D02*
X0177413Y0236554D01*
X0177381Y0237152D02*
X0182295Y0237152D01*
X0182295Y0237751D02*
X0177063Y0237751D01*
X0178402Y0238948D02*
X0178573Y0239245D01*
X0178662Y0239575D01*
X0178662Y0242600D01*
X0180362Y0242600D01*
X0180362Y0239208D01*
X0180362Y0239546D02*
X0178654Y0239546D01*
X0178662Y0240145D02*
X0180362Y0240145D01*
X0180362Y0240743D02*
X0178662Y0240743D01*
X0178662Y0241342D02*
X0180362Y0241342D01*
X0180362Y0241940D02*
X0178662Y0241940D01*
X0178662Y0242539D02*
X0180362Y0242539D01*
X0180362Y0244446D02*
X0183762Y0244446D01*
X0183762Y0249846D01*
X0181491Y0249846D01*
X0181160Y0249758D01*
X0180864Y0249587D01*
X0180622Y0249345D01*
X0180451Y0249048D01*
X0180362Y0248718D01*
X0180362Y0244446D01*
X0180362Y0244933D02*
X0178595Y0244933D01*
X0178595Y0244334D02*
X0183762Y0244334D01*
X0183762Y0244933D02*
X0184362Y0244933D01*
X0184362Y0244334D02*
X0189862Y0244334D01*
X0189862Y0244933D02*
X0187762Y0244933D01*
X0187762Y0245532D02*
X0189862Y0245532D01*
X0189862Y0246130D02*
X0187762Y0246130D01*
X0187762Y0246729D02*
X0189862Y0246729D01*
X0189862Y0247327D02*
X0187762Y0247327D01*
X0187762Y0247926D02*
X0189862Y0247926D01*
X0189862Y0248524D02*
X0187762Y0248524D01*
X0187631Y0249123D02*
X0190065Y0249123D01*
X0187027Y0249721D02*
X0195295Y0249721D01*
X0201264Y0250956D02*
X0201264Y0252788D01*
X0202488Y0254013D01*
X0204461Y0254013D01*
X0205484Y0252989D01*
X0208468Y0252989D01*
X0208468Y0250430D02*
X0204946Y0250430D01*
X0203454Y0251922D01*
X0203354Y0251922D01*
X0201264Y0250956D02*
X0203320Y0248900D01*
X0203395Y0248900D01*
X0202764Y0244334D02*
X0204659Y0244334D01*
X0204534Y0243736D02*
X0202764Y0243736D01*
X0202764Y0243137D02*
X0208168Y0243137D01*
X0208168Y0242539D02*
X0208768Y0242539D01*
X0208768Y0242846D02*
X0208768Y0239173D01*
X0208859Y0239173D01*
X0209627Y0239326D01*
X0210350Y0239625D01*
X0211000Y0240060D01*
X0211554Y0240614D01*
X0211989Y0241264D01*
X0212288Y0241987D01*
X0212441Y0242755D01*
X0212441Y0242846D01*
X0208768Y0242846D01*
X0208768Y0243137D02*
X0214746Y0243137D01*
X0214746Y0242539D02*
X0212398Y0242539D01*
X0212269Y0241940D02*
X0214746Y0241940D01*
X0214746Y0241342D02*
X0212021Y0241342D01*
X0211640Y0240743D02*
X0214588Y0240743D01*
X0214457Y0240145D02*
X0211085Y0240145D01*
X0210159Y0239546D02*
X0214746Y0239546D01*
X0214746Y0243736D02*
X0212401Y0243736D01*
X0212276Y0244334D02*
X0214808Y0244334D01*
X0215207Y0244933D02*
X0212028Y0244933D01*
X0211652Y0245532D02*
X0214873Y0245532D01*
X0214746Y0246130D02*
X0212010Y0246130D01*
X0212425Y0246729D02*
X0214746Y0246729D01*
X0214746Y0247327D02*
X0212425Y0247327D01*
X0212425Y0247926D02*
X0214746Y0247926D01*
X0214746Y0248524D02*
X0212425Y0248524D01*
X0223449Y0248524D02*
X0226295Y0248524D01*
X0226295Y0247926D02*
X0223449Y0247926D01*
X0223449Y0247327D02*
X0226295Y0247327D01*
X0226295Y0246729D02*
X0223449Y0246729D01*
X0223449Y0246130D02*
X0226295Y0246130D01*
X0226295Y0245532D02*
X0223322Y0245532D01*
X0222988Y0244933D02*
X0226295Y0244933D01*
X0226295Y0244334D02*
X0223387Y0244334D01*
X0223449Y0243736D02*
X0226295Y0243736D01*
X0226295Y0243137D02*
X0223449Y0243137D01*
X0223449Y0242539D02*
X0226295Y0242539D01*
X0226295Y0241940D02*
X0223449Y0241940D01*
X0223449Y0241342D02*
X0226295Y0241342D01*
X0226295Y0240743D02*
X0223607Y0240743D01*
X0223738Y0240145D02*
X0226295Y0240145D01*
X0226295Y0239546D02*
X0223449Y0239546D01*
X0223776Y0238948D02*
X0226295Y0238948D01*
X0226295Y0238349D02*
X0223681Y0238349D01*
X0223491Y0237751D02*
X0226295Y0237751D01*
X0226295Y0237152D02*
X0223209Y0237152D01*
X0222815Y0236554D02*
X0226295Y0236554D01*
X0226295Y0235955D02*
X0222268Y0235955D01*
X0221454Y0235357D02*
X0226295Y0235357D01*
X0226287Y0226379D02*
X0226295Y0226379D01*
X0206908Y0229372D02*
X0185843Y0229372D01*
X0184952Y0228000D02*
X0167595Y0228000D01*
X0174238Y0231167D02*
X0174838Y0231167D01*
X0174838Y0231766D02*
X0174238Y0231766D01*
X0174238Y0232364D02*
X0174838Y0232364D01*
X0174838Y0232963D02*
X0174238Y0232963D01*
X0174238Y0233561D02*
X0174838Y0233561D01*
X0174838Y0234160D02*
X0174238Y0234160D01*
X0174238Y0235955D02*
X0174838Y0235955D01*
X0174838Y0236554D02*
X0174238Y0236554D01*
X0174238Y0237152D02*
X0174838Y0237152D01*
X0174838Y0237751D02*
X0174238Y0237751D01*
X0174662Y0238446D02*
X0174662Y0243846D01*
X0174662Y0243736D02*
X0175262Y0243736D01*
X0175262Y0243137D02*
X0174662Y0243137D01*
X0174662Y0242539D02*
X0175262Y0242539D01*
X0175262Y0241940D02*
X0174662Y0241940D01*
X0174662Y0241342D02*
X0175262Y0241342D01*
X0175262Y0240743D02*
X0174662Y0240743D01*
X0174662Y0240145D02*
X0175262Y0240145D01*
X0175262Y0239546D02*
X0174662Y0239546D01*
X0174662Y0238948D02*
X0175262Y0238948D01*
X0174662Y0238446D02*
X0172391Y0238446D01*
X0172060Y0238535D01*
X0171764Y0238706D01*
X0171522Y0238948D01*
X0172014Y0237751D02*
X0169976Y0237751D01*
X0170327Y0237152D02*
X0171696Y0237152D01*
X0171664Y0236554D02*
X0170327Y0236554D01*
X0170327Y0235955D02*
X0171664Y0235955D01*
X0171664Y0235357D02*
X0170327Y0235357D01*
X0169052Y0238349D02*
X0182295Y0238349D01*
X0187015Y0238349D02*
X0191262Y0238349D01*
X0191262Y0237751D02*
X0187263Y0237751D01*
X0187286Y0237152D02*
X0191656Y0237152D01*
X0192254Y0236554D02*
X0187223Y0236554D01*
X0186975Y0235955D02*
X0192853Y0235955D01*
X0193451Y0235357D02*
X0186474Y0235357D01*
X0185409Y0234758D02*
X0194050Y0234758D01*
X0194648Y0234160D02*
X0177413Y0234160D01*
X0177413Y0233561D02*
X0196227Y0233561D01*
X0196314Y0232963D02*
X0177413Y0232963D01*
X0177413Y0232364D02*
X0196912Y0232364D01*
X0200249Y0235000D02*
X0199495Y0235754D01*
X0202078Y0232364D02*
X0202191Y0232364D01*
X0200577Y0227576D02*
X0194613Y0227576D01*
X0195689Y0226978D02*
X0199502Y0226978D01*
X0198903Y0226379D02*
X0196287Y0226379D01*
X0196855Y0225781D02*
X0198335Y0225781D01*
X0198087Y0225182D02*
X0197103Y0225182D01*
X0197351Y0224584D02*
X0197839Y0224584D01*
X0197595Y0223995D02*
X0197595Y0222005D01*
X0196834Y0220168D01*
X0195966Y0219300D01*
X0199224Y0219300D01*
X0198356Y0220168D01*
X0197595Y0222005D01*
X0197595Y0223995D01*
X0197595Y0223985D02*
X0197595Y0223985D01*
X0197595Y0223387D02*
X0197595Y0223387D01*
X0197595Y0222788D02*
X0197595Y0222788D01*
X0197595Y0222190D02*
X0197595Y0222190D01*
X0197423Y0221591D02*
X0197767Y0221591D01*
X0198015Y0220993D02*
X0197176Y0220993D01*
X0196928Y0220394D02*
X0198263Y0220394D01*
X0198729Y0219796D02*
X0196462Y0219796D01*
X0192595Y0223000D02*
X0189995Y0223000D01*
X0189986Y0223009D01*
X0189986Y0222966D01*
X0184952Y0228000D01*
X0187638Y0227576D02*
X0190577Y0227576D01*
X0189502Y0226978D02*
X0188237Y0226978D01*
X0188835Y0226379D02*
X0188903Y0226379D01*
X0189722Y0238948D02*
X0187502Y0238948D01*
X0187762Y0239546D02*
X0189462Y0239546D01*
X0189462Y0240145D02*
X0187762Y0240145D01*
X0187762Y0240743D02*
X0189462Y0240743D01*
X0189462Y0241342D02*
X0187762Y0241342D01*
X0187762Y0241940D02*
X0189462Y0241940D01*
X0189462Y0242539D02*
X0187762Y0242539D01*
X0184362Y0245532D02*
X0183762Y0245532D01*
X0183762Y0246130D02*
X0184362Y0246130D01*
X0184362Y0246729D02*
X0183762Y0246729D01*
X0183762Y0247327D02*
X0184362Y0247327D01*
X0184362Y0247926D02*
X0183762Y0247926D01*
X0183762Y0248524D02*
X0184362Y0248524D01*
X0184362Y0249123D02*
X0183762Y0249123D01*
X0183762Y0249721D02*
X0184362Y0249721D01*
X0181097Y0249721D02*
X0178595Y0249721D01*
X0178595Y0249123D02*
X0180494Y0249123D01*
X0180362Y0248524D02*
X0178595Y0248524D01*
X0178595Y0247926D02*
X0180362Y0247926D01*
X0180362Y0247327D02*
X0178595Y0247327D01*
X0178595Y0246729D02*
X0180362Y0246729D01*
X0180362Y0246130D02*
X0178595Y0246130D01*
X0178595Y0245532D02*
X0180362Y0245532D01*
X0201595Y0255706D02*
X0204510Y0255706D01*
X0204510Y0256305D02*
X0201595Y0256305D01*
X0201595Y0256903D02*
X0204539Y0256903D01*
X0204510Y0257502D02*
X0201595Y0257502D01*
X0201595Y0258100D02*
X0208374Y0258100D01*
X0208561Y0258100D02*
X0214746Y0258100D01*
X0214746Y0257502D02*
X0212425Y0257502D01*
X0212425Y0258699D02*
X0214746Y0258699D01*
X0214746Y0259297D02*
X0212363Y0259297D01*
X0211962Y0259896D02*
X0214746Y0259896D01*
X0214901Y0260494D02*
X0211684Y0260494D01*
X0212048Y0261093D02*
X0215159Y0261093D01*
X0214795Y0261691D02*
X0212292Y0261691D01*
X0212411Y0262290D02*
X0214746Y0262290D01*
X0214746Y0262888D02*
X0208768Y0262888D01*
X0208768Y0262290D02*
X0208168Y0262290D01*
X0208168Y0262888D02*
X0201595Y0262888D01*
X0201595Y0262290D02*
X0204524Y0262290D01*
X0204643Y0261691D02*
X0201595Y0261691D01*
X0201595Y0261093D02*
X0204887Y0261093D01*
X0205251Y0260494D02*
X0201595Y0260494D01*
X0201595Y0259896D02*
X0204973Y0259896D01*
X0204572Y0259297D02*
X0201595Y0259297D01*
X0201595Y0258699D02*
X0204510Y0258699D01*
X0208374Y0258699D02*
X0208561Y0258699D01*
X0208561Y0259297D02*
X0208374Y0259297D01*
X0208374Y0259896D02*
X0208561Y0259896D01*
X0208768Y0260494D02*
X0208168Y0260494D01*
X0208168Y0261093D02*
X0208768Y0261093D01*
X0208768Y0261691D02*
X0208168Y0261691D01*
X0208168Y0263487D02*
X0208768Y0263487D01*
X0208768Y0264085D02*
X0208168Y0264085D01*
X0208168Y0264684D02*
X0208768Y0264684D01*
X0208768Y0265282D02*
X0208168Y0265282D01*
X0208168Y0265881D02*
X0208768Y0265881D01*
X0208768Y0266479D02*
X0208168Y0266479D01*
X0206892Y0266479D02*
X0201595Y0266479D01*
X0201595Y0265881D02*
X0205898Y0265881D01*
X0205327Y0265282D02*
X0201595Y0265282D01*
X0201595Y0264684D02*
X0204934Y0264684D01*
X0204686Y0264085D02*
X0201595Y0264085D01*
X0201595Y0263487D02*
X0204547Y0263487D01*
X0204657Y0267676D02*
X0210134Y0267676D01*
X0209535Y0268275D02*
X0205255Y0268275D01*
X0205408Y0268873D02*
X0209383Y0268873D01*
X0209383Y0269472D02*
X0205408Y0269472D01*
X0205408Y0270070D02*
X0209383Y0270070D01*
X0209383Y0270669D02*
X0205408Y0270669D01*
X0205408Y0271268D02*
X0209383Y0271268D01*
X0209383Y0271866D02*
X0205408Y0271866D01*
X0205408Y0272465D02*
X0209383Y0272465D01*
X0209673Y0273063D02*
X0205117Y0273063D01*
X0214172Y0273063D02*
X0214371Y0273063D01*
X0214310Y0268275D02*
X0214720Y0268275D01*
X0214526Y0267676D02*
X0213712Y0267676D01*
X0214427Y0267078D02*
X0201595Y0267078D01*
X0195295Y0267078D02*
X0192449Y0267078D01*
X0192449Y0267676D02*
X0195295Y0267676D01*
X0195295Y0268275D02*
X0184362Y0268275D01*
X0192449Y0268873D02*
X0195295Y0268873D01*
X0195295Y0269472D02*
X0192449Y0269472D01*
X0192449Y0270070D02*
X0195295Y0270070D01*
X0195295Y0270669D02*
X0192449Y0270669D01*
X0192449Y0271268D02*
X0195295Y0271268D01*
X0195295Y0271866D02*
X0192449Y0271866D01*
X0192449Y0272465D02*
X0195295Y0272465D01*
X0195295Y0273063D02*
X0192445Y0273063D01*
X0192197Y0273662D02*
X0195295Y0273662D01*
X0195295Y0266479D02*
X0192449Y0266479D01*
X0192449Y0265881D02*
X0195295Y0265881D01*
X0195295Y0265282D02*
X0192449Y0265282D01*
X0192449Y0264684D02*
X0195295Y0264684D01*
X0195295Y0264085D02*
X0192449Y0264085D01*
X0192228Y0263487D02*
X0195295Y0263487D01*
X0210043Y0266479D02*
X0214746Y0266479D01*
X0214450Y0265881D02*
X0211037Y0265881D01*
X0211608Y0265282D02*
X0214573Y0265282D01*
X0214746Y0264684D02*
X0212001Y0264684D01*
X0212249Y0264085D02*
X0214746Y0264085D01*
X0214746Y0263487D02*
X0212388Y0263487D01*
X0223036Y0261093D02*
X0226295Y0261093D01*
X0226295Y0261691D02*
X0223400Y0261691D01*
X0223449Y0262290D02*
X0226295Y0262290D01*
X0226295Y0262888D02*
X0223449Y0262888D01*
X0223449Y0263487D02*
X0226295Y0263487D01*
X0226295Y0264085D02*
X0223449Y0264085D01*
X0223449Y0264684D02*
X0226295Y0264684D01*
X0226295Y0265282D02*
X0223622Y0265282D01*
X0223745Y0265881D02*
X0226295Y0265881D01*
X0226295Y0266479D02*
X0223449Y0266479D01*
X0223768Y0267078D02*
X0226295Y0267078D01*
X0226295Y0267676D02*
X0223669Y0267676D01*
X0223475Y0268275D02*
X0226295Y0268275D01*
X0226295Y0268873D02*
X0223185Y0268873D01*
X0222780Y0269472D02*
X0226295Y0269472D01*
X0226295Y0270070D02*
X0222220Y0270070D01*
X0221360Y0270669D02*
X0226295Y0270669D01*
X0226295Y0260494D02*
X0223294Y0260494D01*
X0223449Y0259896D02*
X0226295Y0259896D01*
X0226295Y0259297D02*
X0223449Y0259297D01*
X0223449Y0258699D02*
X0226295Y0258699D01*
X0226295Y0258100D02*
X0223449Y0258100D01*
X0223449Y0257502D02*
X0226295Y0257502D01*
X0208768Y0241940D02*
X0208168Y0241940D01*
X0208168Y0241342D02*
X0208768Y0241342D01*
X0208768Y0240743D02*
X0208168Y0240743D01*
X0208168Y0240145D02*
X0208768Y0240145D01*
X0208768Y0239546D02*
X0208168Y0239546D01*
X0158562Y0270070D02*
X0151088Y0270070D01*
X0150324Y0269472D02*
X0158120Y0269472D01*
X0160693Y0272465D02*
X0168995Y0272465D01*
X0168995Y0273063D02*
X0160095Y0273063D01*
X0148273Y0285632D02*
X0146917Y0285632D01*
X0146436Y0286230D02*
X0148754Y0286230D01*
X0216429Y0286230D02*
X0218754Y0286230D01*
X0218273Y0285632D02*
X0216863Y0285632D01*
X0217171Y0285033D02*
X0218025Y0285033D01*
X0217777Y0284435D02*
X0217386Y0284435D01*
X0217525Y0283836D02*
X0217595Y0283836D01*
X0128359Y0236436D02*
X0128302Y0236436D01*
X0139795Y0229200D02*
X0144822Y0229200D01*
X0146022Y0228000D01*
X0098729Y0219796D02*
X0096462Y0219796D01*
X0096928Y0220394D02*
X0098263Y0220394D01*
X0058273Y0285632D02*
X0056917Y0285632D01*
X0056436Y0286230D02*
X0058754Y0286230D01*
D30*
X0066395Y0272000D03*
X0049395Y0268800D03*
X0042995Y0265000D03*
X0049095Y0256800D03*
X0057795Y0256800D03*
X0096695Y0260800D03*
X0099395Y0258000D03*
X0103295Y0264900D03*
X0105595Y0270000D03*
X0116195Y0261600D03*
X0119795Y0263600D03*
X0128695Y0259100D03*
X0134595Y0256400D03*
X0137195Y0252600D03*
X0143595Y0245700D03*
X0140995Y0243600D03*
X0128795Y0242800D03*
X0120895Y0249300D03*
X0114295Y0253500D03*
X0111695Y0251400D03*
X0109495Y0253600D03*
X0107195Y0251500D03*
X0099995Y0248400D03*
X0096695Y0248600D03*
X0116695Y0243200D03*
X0112595Y0234700D03*
X0158995Y0236300D03*
X0162495Y0231898D03*
X0167595Y0228000D03*
X0184795Y0237200D03*
X0199695Y0249400D03*
X0203395Y0248900D03*
X0203354Y0251922D03*
X0188895Y0258100D03*
X0183895Y0258100D03*
X0178895Y0258100D03*
X0153895Y0260600D03*
X0149195Y0271700D03*
X0146195Y0271700D03*
X0143195Y0271800D03*
X0133686Y0271800D03*
X0207795Y0231700D03*
D31*
X0207568Y0231700D01*
X0204268Y0235000D01*
X0202395Y0235000D01*
X0200249Y0235000D01*
X0199495Y0235754D02*
X0195742Y0235754D01*
X0193162Y0238333D01*
X0193162Y0244146D01*
X0199695Y0248900D02*
X0202095Y0246500D01*
X0204395Y0246500D01*
X0205766Y0247871D01*
X0208468Y0247871D01*
X0199695Y0248900D02*
X0199695Y0249400D01*
X0199695Y0269500D01*
X0200795Y0270600D01*
X0202868Y0270600D01*
X0211923Y0270600D02*
X0214595Y0270600D01*
X0222595Y0278600D01*
X0222595Y0283000D01*
X0184062Y0268547D02*
X0184062Y0258033D01*
X0184095Y0258000D01*
X0183995Y0258100D01*
X0183895Y0258100D01*
X0184062Y0244146D02*
X0184195Y0244013D01*
X0184195Y0237600D01*
X0184595Y0237200D01*
X0184795Y0237200D01*
X0213323Y0235000D02*
X0215595Y0235000D01*
X0222595Y0228000D01*
X0222595Y0223000D01*
M02*
