G75*
%MOIN*%
%OFA0B0*%
%FSLAX25Y25*%
%IPPOS*%
%LPD*%
%AMOC8*
5,1,8,0,0,1.08239X$1,22.5*
%
%ADD10C,0.00000*%
%ADD11C,0.06600*%
%ADD12C,0.07400*%
%ADD13C,0.06791*%
%ADD14C,0.05346*%
%ADD15C,0.00600*%
%ADD16C,0.02381*%
%ADD17C,0.01200*%
D10*
X0027595Y0218000D02*
X0027595Y0288000D01*
X0227595Y0288000D01*
X0227595Y0218000D01*
X0027595Y0218000D01*
D11*
X0066995Y0233800D03*
X0066995Y0243800D03*
D12*
X0032595Y0243000D03*
X0032595Y0233000D03*
X0032595Y0223000D03*
X0042595Y0223000D03*
X0052595Y0223000D03*
X0062595Y0223000D03*
X0072595Y0223000D03*
X0082595Y0223000D03*
X0092595Y0223000D03*
X0102595Y0223000D03*
X0112595Y0223000D03*
X0122595Y0223000D03*
X0132595Y0223000D03*
X0142595Y0223000D03*
X0152595Y0223000D03*
X0162595Y0223000D03*
X0172595Y0223000D03*
X0182595Y0223000D03*
X0192595Y0223000D03*
X0202595Y0223000D03*
X0212595Y0223000D03*
X0222595Y0223000D03*
X0222595Y0283000D03*
X0212595Y0283000D03*
X0202595Y0283000D03*
X0192595Y0283000D03*
X0182595Y0283000D03*
X0172595Y0283000D03*
X0162595Y0283000D03*
X0152595Y0283000D03*
X0142595Y0283000D03*
X0132595Y0283000D03*
X0122595Y0283000D03*
X0112595Y0283000D03*
X0102595Y0283000D03*
X0092595Y0283000D03*
X0082595Y0283000D03*
X0072595Y0283000D03*
X0062595Y0283000D03*
X0052595Y0283000D03*
X0042595Y0283000D03*
X0032595Y0283000D03*
X0032595Y0273000D03*
X0032595Y0263000D03*
X0032595Y0253000D03*
D13*
X0219098Y0266552D03*
X0219098Y0239426D03*
D14*
X0208468Y0243146D03*
X0208468Y0262831D03*
D15*
X0208768Y0262888D02*
X0216151Y0262888D01*
X0216038Y0262970D02*
X0216636Y0262536D01*
X0217295Y0262200D01*
X0217998Y0261972D01*
X0218728Y0261856D01*
X0218798Y0261856D01*
X0218798Y0266252D01*
X0219397Y0266252D01*
X0219397Y0261856D01*
X0219467Y0261856D01*
X0220197Y0261972D01*
X0220900Y0262200D01*
X0221559Y0262536D01*
X0222157Y0262970D01*
X0222679Y0263493D01*
X0223114Y0264091D01*
X0223449Y0264749D01*
X0223595Y0265199D01*
X0223595Y0240779D01*
X0223449Y0241228D01*
X0223114Y0241887D01*
X0222679Y0242485D01*
X0222157Y0243008D01*
X0221559Y0243442D01*
X0220900Y0243778D01*
X0220197Y0244006D01*
X0219467Y0244122D01*
X0219397Y0244122D01*
X0219397Y0239726D01*
X0218798Y0239726D01*
X0218798Y0244122D01*
X0218728Y0244122D01*
X0217998Y0244006D01*
X0217295Y0243778D01*
X0216636Y0243442D01*
X0216038Y0243008D01*
X0215516Y0242485D01*
X0215081Y0241887D01*
X0214746Y0241228D01*
X0214517Y0240526D01*
X0214402Y0239796D01*
X0214402Y0239726D01*
X0218797Y0239726D01*
X0218797Y0239126D01*
X0214402Y0239126D01*
X0214402Y0239056D01*
X0214517Y0238326D01*
X0214746Y0237623D01*
X0215081Y0236965D01*
X0215516Y0236367D01*
X0216038Y0235844D01*
X0216636Y0235410D01*
X0217295Y0235074D01*
X0217998Y0234846D01*
X0218728Y0234730D01*
X0218798Y0234730D01*
X0218798Y0239126D01*
X0219397Y0239126D01*
X0219397Y0234730D01*
X0219467Y0234730D01*
X0220197Y0234846D01*
X0220900Y0235074D01*
X0221559Y0235410D01*
X0222157Y0235844D01*
X0222679Y0236367D01*
X0223114Y0236965D01*
X0223449Y0237623D01*
X0223595Y0238073D01*
X0223595Y0236821D01*
X0219974Y0233200D01*
X0209252Y0233200D01*
X0208661Y0233791D01*
X0206929Y0233791D01*
X0205705Y0232566D01*
X0205705Y0230834D01*
X0206929Y0229609D01*
X0208661Y0229609D01*
X0209252Y0230200D01*
X0221216Y0230200D01*
X0226295Y0235279D01*
X0226295Y0225805D01*
X0225201Y0226900D01*
X0223510Y0227600D01*
X0221680Y0227600D01*
X0219989Y0226900D01*
X0218695Y0225606D01*
X0217995Y0223915D01*
X0217995Y0222085D01*
X0218695Y0220394D01*
X0219790Y0219300D01*
X0215966Y0219300D01*
X0216409Y0219743D01*
X0216872Y0220379D01*
X0217229Y0221081D01*
X0217472Y0221829D01*
X0217595Y0222606D01*
X0217595Y0222700D01*
X0212895Y0222700D01*
X0212895Y0223300D01*
X0212295Y0223300D01*
X0212295Y0222700D01*
X0207595Y0222700D01*
X0207595Y0222606D01*
X0207718Y0221829D01*
X0207961Y0221081D01*
X0208319Y0220379D01*
X0208781Y0219743D01*
X0209224Y0219300D01*
X0205400Y0219300D01*
X0206495Y0220394D01*
X0207195Y0222085D01*
X0207195Y0223915D01*
X0206495Y0225606D01*
X0205201Y0226900D01*
X0204995Y0226985D01*
X0204995Y0241192D01*
X0205381Y0240614D01*
X0205935Y0240060D01*
X0206586Y0239625D01*
X0207309Y0239326D01*
X0208076Y0239173D01*
X0208168Y0239173D01*
X0208168Y0242846D01*
X0208768Y0242846D01*
X0208768Y0243446D01*
X0212441Y0243446D01*
X0212441Y0243538D01*
X0212288Y0244305D01*
X0211989Y0245028D01*
X0211554Y0245679D01*
X0211000Y0246233D01*
X0210350Y0246667D01*
X0209627Y0246967D01*
X0208859Y0247120D01*
X0208768Y0247120D01*
X0208768Y0243447D01*
X0208168Y0243447D01*
X0208168Y0247120D01*
X0208076Y0247120D01*
X0207309Y0246967D01*
X0206586Y0246667D01*
X0205935Y0246233D01*
X0205381Y0245679D01*
X0204995Y0245101D01*
X0204995Y0245746D01*
X0206686Y0247437D01*
X0206686Y0250406D01*
X0205445Y0251647D01*
X0205445Y0252788D01*
X0204995Y0253238D01*
X0204995Y0260877D01*
X0205381Y0260299D01*
X0205935Y0259745D01*
X0206586Y0259310D01*
X0207309Y0259011D01*
X0208076Y0258858D01*
X0208168Y0258858D01*
X0208168Y0262531D01*
X0208768Y0262531D01*
X0208768Y0263131D01*
X0212441Y0263131D01*
X0212441Y0263223D01*
X0212288Y0263990D01*
X0211989Y0264714D01*
X0211554Y0265364D01*
X0211000Y0265918D01*
X0210350Y0266353D01*
X0209627Y0266652D01*
X0208859Y0266805D01*
X0208768Y0266805D01*
X0208768Y0263132D01*
X0208168Y0263132D01*
X0208168Y0266805D01*
X0208076Y0266805D01*
X0207309Y0266652D01*
X0206586Y0266353D01*
X0205935Y0265918D01*
X0205381Y0265364D01*
X0204995Y0264786D01*
X0204995Y0279015D01*
X0205201Y0279100D01*
X0206495Y0280394D01*
X0207195Y0282085D01*
X0207195Y0283915D01*
X0206495Y0285606D01*
X0205400Y0286700D01*
X0209224Y0286700D01*
X0208781Y0286257D01*
X0208319Y0285621D01*
X0207961Y0284919D01*
X0207718Y0284171D01*
X0207595Y0283394D01*
X0207595Y0283300D01*
X0212295Y0283300D01*
X0212295Y0282700D01*
X0207595Y0282700D01*
X0207595Y0282606D01*
X0207718Y0281829D01*
X0207961Y0281081D01*
X0208319Y0280379D01*
X0208781Y0279743D01*
X0209338Y0279186D01*
X0209975Y0278724D01*
X0210676Y0278366D01*
X0211424Y0278123D01*
X0212202Y0278000D01*
X0212295Y0278000D01*
X0212295Y0282700D01*
X0212895Y0282700D01*
X0212895Y0278000D01*
X0212989Y0278000D01*
X0213766Y0278123D01*
X0214514Y0278366D01*
X0215216Y0278724D01*
X0215852Y0279186D01*
X0216409Y0279743D01*
X0216872Y0280379D01*
X0217229Y0281081D01*
X0217472Y0281829D01*
X0217595Y0282606D01*
X0217595Y0282700D01*
X0212895Y0282700D01*
X0212895Y0283300D01*
X0217595Y0283300D01*
X0217595Y0283394D01*
X0217472Y0284171D01*
X0217229Y0284919D01*
X0216872Y0285621D01*
X0216409Y0286257D01*
X0215966Y0286700D01*
X0219790Y0286700D01*
X0218695Y0285606D01*
X0217995Y0283915D01*
X0217995Y0282085D01*
X0218695Y0280394D01*
X0219989Y0279100D01*
X0221680Y0278400D01*
X0223510Y0278400D01*
X0223595Y0278435D01*
X0223595Y0267905D01*
X0223449Y0268354D01*
X0223114Y0269013D01*
X0222679Y0269611D01*
X0222157Y0270134D01*
X0221559Y0270568D01*
X0220900Y0270904D01*
X0220197Y0271132D01*
X0219467Y0271248D01*
X0219397Y0271248D01*
X0219397Y0266852D01*
X0218798Y0266852D01*
X0218798Y0271248D01*
X0218728Y0271248D01*
X0217998Y0271132D01*
X0217295Y0270904D01*
X0216636Y0270568D01*
X0216038Y0270134D01*
X0215516Y0269611D01*
X0215081Y0269013D01*
X0214746Y0268354D01*
X0214517Y0267652D01*
X0214402Y0266922D01*
X0214402Y0266852D01*
X0218797Y0266852D01*
X0218797Y0266252D01*
X0214402Y0266252D01*
X0214402Y0266182D01*
X0214517Y0265452D01*
X0214746Y0264749D01*
X0215081Y0264091D01*
X0215516Y0263493D01*
X0216038Y0262970D01*
X0215522Y0263487D02*
X0212388Y0263487D01*
X0212249Y0264085D02*
X0215085Y0264085D01*
X0214779Y0264684D02*
X0212001Y0264684D01*
X0211608Y0265282D02*
X0214573Y0265282D01*
X0214450Y0265881D02*
X0211037Y0265881D01*
X0210043Y0266479D02*
X0218797Y0266479D01*
X0218798Y0265881D02*
X0219397Y0265881D01*
X0219397Y0265282D02*
X0218798Y0265282D01*
X0218798Y0264684D02*
X0219397Y0264684D01*
X0219397Y0264085D02*
X0218798Y0264085D01*
X0218798Y0263487D02*
X0219397Y0263487D01*
X0219397Y0262888D02*
X0218798Y0262888D01*
X0218798Y0262290D02*
X0219397Y0262290D01*
X0221076Y0262290D02*
X0223595Y0262290D01*
X0223595Y0262888D02*
X0222044Y0262888D01*
X0222673Y0263487D02*
X0223595Y0263487D01*
X0223595Y0264085D02*
X0223110Y0264085D01*
X0223416Y0264684D02*
X0223595Y0264684D01*
X0223595Y0261691D02*
X0212292Y0261691D01*
X0212288Y0261673D02*
X0212441Y0262440D01*
X0212441Y0262531D01*
X0208768Y0262531D01*
X0208768Y0258858D01*
X0208859Y0258858D01*
X0209627Y0259011D01*
X0210350Y0259310D01*
X0211000Y0259745D01*
X0211554Y0260299D01*
X0211989Y0260949D01*
X0212288Y0261673D01*
X0212048Y0261093D02*
X0223595Y0261093D01*
X0223595Y0260494D02*
X0211684Y0260494D01*
X0211151Y0259896D02*
X0223595Y0259896D01*
X0223595Y0259297D02*
X0210318Y0259297D01*
X0208768Y0259297D02*
X0208168Y0259297D01*
X0208168Y0259896D02*
X0208768Y0259896D01*
X0208768Y0260494D02*
X0208168Y0260494D01*
X0208168Y0261093D02*
X0208768Y0261093D01*
X0208768Y0261691D02*
X0208168Y0261691D01*
X0208168Y0262290D02*
X0208768Y0262290D01*
X0208768Y0263487D02*
X0208168Y0263487D01*
X0208168Y0264085D02*
X0208768Y0264085D01*
X0208768Y0264684D02*
X0208168Y0264684D01*
X0208168Y0265282D02*
X0208768Y0265282D01*
X0208768Y0265881D02*
X0208168Y0265881D01*
X0208168Y0266479D02*
X0208768Y0266479D01*
X0206892Y0266479D02*
X0204995Y0266479D01*
X0204995Y0265881D02*
X0205898Y0265881D01*
X0205327Y0265282D02*
X0204995Y0265282D01*
X0204995Y0267078D02*
X0214427Y0267078D01*
X0214526Y0267676D02*
X0204995Y0267676D01*
X0204995Y0268275D02*
X0214720Y0268275D01*
X0215010Y0268873D02*
X0204995Y0268873D01*
X0204995Y0269472D02*
X0215415Y0269472D01*
X0215975Y0270070D02*
X0204995Y0270070D01*
X0204995Y0270669D02*
X0216835Y0270669D01*
X0218798Y0270669D02*
X0219397Y0270669D01*
X0219397Y0270070D02*
X0218798Y0270070D01*
X0218798Y0269472D02*
X0219397Y0269472D01*
X0219397Y0268873D02*
X0218798Y0268873D01*
X0218798Y0268275D02*
X0219397Y0268275D01*
X0219397Y0267676D02*
X0218798Y0267676D01*
X0218798Y0267078D02*
X0219397Y0267078D01*
X0221360Y0270669D02*
X0223595Y0270669D01*
X0223595Y0271268D02*
X0204995Y0271268D01*
X0204995Y0271866D02*
X0223595Y0271866D01*
X0223595Y0272465D02*
X0204995Y0272465D01*
X0204995Y0273063D02*
X0223595Y0273063D01*
X0223595Y0273662D02*
X0204995Y0273662D01*
X0204995Y0274260D02*
X0223595Y0274260D01*
X0223595Y0274859D02*
X0204995Y0274859D01*
X0204995Y0275457D02*
X0223595Y0275457D01*
X0223595Y0276056D02*
X0204995Y0276056D01*
X0204995Y0276654D02*
X0223595Y0276654D01*
X0223595Y0277253D02*
X0204995Y0277253D01*
X0204995Y0277851D02*
X0223595Y0277851D01*
X0221560Y0278450D02*
X0214678Y0278450D01*
X0215662Y0279048D02*
X0220115Y0279048D01*
X0219443Y0279647D02*
X0216313Y0279647D01*
X0216774Y0280245D02*
X0218845Y0280245D01*
X0218509Y0280844D02*
X0217108Y0280844D01*
X0217346Y0281442D02*
X0218261Y0281442D01*
X0218013Y0282041D02*
X0217506Y0282041D01*
X0217595Y0282639D02*
X0217995Y0282639D01*
X0217995Y0283238D02*
X0212895Y0283238D01*
X0212895Y0282639D02*
X0212295Y0282639D01*
X0212295Y0282041D02*
X0212895Y0282041D01*
X0212895Y0281442D02*
X0212295Y0281442D01*
X0212295Y0280844D02*
X0212895Y0280844D01*
X0212895Y0280245D02*
X0212295Y0280245D01*
X0212295Y0279647D02*
X0212895Y0279647D01*
X0212895Y0279048D02*
X0212295Y0279048D01*
X0212295Y0278450D02*
X0212895Y0278450D01*
X0210512Y0278450D02*
X0204995Y0278450D01*
X0205075Y0279048D02*
X0209528Y0279048D01*
X0208877Y0279647D02*
X0205747Y0279647D01*
X0206346Y0280245D02*
X0208416Y0280245D01*
X0208082Y0280844D02*
X0206681Y0280844D01*
X0206929Y0281442D02*
X0207844Y0281442D01*
X0207685Y0282041D02*
X0207177Y0282041D01*
X0207195Y0282639D02*
X0207595Y0282639D01*
X0207195Y0283238D02*
X0212295Y0283238D01*
X0208762Y0286230D02*
X0205870Y0286230D01*
X0206469Y0285632D02*
X0208327Y0285632D01*
X0208020Y0285033D02*
X0206732Y0285033D01*
X0206980Y0284435D02*
X0207804Y0284435D01*
X0207665Y0283836D02*
X0207195Y0283836D01*
X0202895Y0282700D02*
X0202895Y0278000D01*
X0202989Y0278000D01*
X0203095Y0278017D01*
X0203095Y0254413D01*
X0202859Y0254413D01*
X0202640Y0254322D01*
X0197654Y0254322D01*
X0193032Y0249700D01*
X0145332Y0249700D01*
X0144395Y0248763D01*
X0143823Y0248191D01*
X0143100Y0248191D01*
X0142184Y0247811D01*
X0141484Y0247111D01*
X0141105Y0246195D01*
X0141105Y0246091D01*
X0140500Y0246091D01*
X0139584Y0245711D01*
X0138884Y0245011D01*
X0138522Y0244136D01*
X0138258Y0244400D01*
X0130717Y0244400D01*
X0130206Y0244911D01*
X0129291Y0245291D01*
X0128300Y0245291D01*
X0127384Y0244911D01*
X0126684Y0244211D01*
X0126305Y0243295D01*
X0126305Y0242305D01*
X0126684Y0241389D01*
X0127384Y0240689D01*
X0128300Y0240309D01*
X0129291Y0240309D01*
X0130206Y0240689D01*
X0130717Y0241200D01*
X0136932Y0241200D01*
X0137295Y0240837D01*
X0138232Y0239900D01*
X0144758Y0239900D01*
X0148958Y0244100D01*
X0195458Y0244100D01*
X0196395Y0245037D01*
X0198540Y0247183D01*
X0199200Y0246909D01*
X0199998Y0246909D01*
X0196689Y0243600D01*
X0183898Y0243600D01*
X0182961Y0242663D01*
X0179795Y0239497D01*
X0179795Y0232463D01*
X0174822Y0227490D01*
X0173590Y0228000D01*
X0171601Y0228000D01*
X0170020Y0227345D01*
X0170086Y0227505D01*
X0170086Y0228495D01*
X0169707Y0229411D01*
X0169006Y0230111D01*
X0168091Y0230491D01*
X0167100Y0230491D01*
X0166184Y0230111D01*
X0165673Y0229600D01*
X0126458Y0229600D01*
X0123658Y0232400D01*
X0157258Y0232400D01*
X0158667Y0233809D01*
X0159491Y0233809D01*
X0160406Y0234189D01*
X0161107Y0234889D01*
X0161486Y0235805D01*
X0161486Y0236795D01*
X0161107Y0237711D01*
X0160406Y0238411D01*
X0159491Y0238791D01*
X0158500Y0238791D01*
X0157584Y0238411D01*
X0156884Y0237711D01*
X0156505Y0236795D01*
X0156505Y0236172D01*
X0155932Y0235600D01*
X0124658Y0235600D01*
X0123695Y0236563D01*
X0123695Y0246581D01*
X0124786Y0247671D01*
X0124786Y0250772D01*
X0123848Y0251709D01*
X0122367Y0253191D01*
X0119366Y0253191D01*
X0118429Y0252253D01*
X0118042Y0251866D01*
X0117105Y0250929D01*
X0117105Y0245872D01*
X0116923Y0245691D01*
X0116200Y0245691D01*
X0115284Y0245311D01*
X0114584Y0244611D01*
X0114205Y0243695D01*
X0114205Y0242705D01*
X0114584Y0241789D01*
X0115095Y0241278D01*
X0115095Y0233363D01*
X0111332Y0229600D01*
X0101858Y0229600D01*
X0112658Y0240400D01*
X0113595Y0241337D01*
X0113595Y0245381D01*
X0115886Y0247671D01*
X0115886Y0251568D01*
X0116407Y0252089D01*
X0116786Y0253005D01*
X0116786Y0253995D01*
X0116407Y0254911D01*
X0115706Y0255611D01*
X0114791Y0255991D01*
X0113800Y0255991D01*
X0112884Y0255611D01*
X0112184Y0254911D01*
X0111916Y0254264D01*
X0111607Y0255011D01*
X0110906Y0255711D01*
X0109991Y0256091D01*
X0109000Y0256091D01*
X0108084Y0255711D01*
X0107384Y0255011D01*
X0107005Y0254095D01*
X0107005Y0253991D01*
X0106700Y0253991D01*
X0105784Y0253611D01*
X0105084Y0252911D01*
X0104705Y0251995D01*
X0104705Y0251005D01*
X0105084Y0250089D01*
X0105595Y0249578D01*
X0105595Y0243163D01*
X0096832Y0234400D01*
X0094944Y0234400D01*
X0094007Y0233463D01*
X0093844Y0233300D01*
X0085541Y0233300D01*
X0084604Y0232363D01*
X0084241Y0232000D01*
X0078732Y0232000D01*
X0077795Y0231063D01*
X0077795Y0231063D01*
X0077532Y0230800D01*
X0070500Y0230800D01*
X0070895Y0231194D01*
X0071595Y0232885D01*
X0071595Y0234715D01*
X0071179Y0235721D01*
X0076458Y0241000D01*
X0094858Y0241000D01*
X0099767Y0245909D01*
X0100491Y0245909D01*
X0101406Y0246289D01*
X0102107Y0246989D01*
X0102486Y0247905D01*
X0102486Y0248895D01*
X0102107Y0249811D01*
X0101406Y0250511D01*
X0100491Y0250891D01*
X0099500Y0250891D01*
X0098584Y0250511D01*
X0098445Y0250372D01*
X0098106Y0250711D01*
X0097191Y0251091D01*
X0096200Y0251091D01*
X0095284Y0250711D01*
X0094584Y0250011D01*
X0094205Y0249095D01*
X0094205Y0248105D01*
X0094566Y0247233D01*
X0092732Y0245400D01*
X0071311Y0245400D01*
X0070895Y0246406D01*
X0069601Y0247700D01*
X0067910Y0248400D01*
X0066080Y0248400D01*
X0064389Y0247700D01*
X0063095Y0246406D01*
X0062395Y0244715D01*
X0062395Y0242885D01*
X0062812Y0241879D01*
X0052932Y0232000D01*
X0047632Y0232000D01*
X0046695Y0231063D01*
X0045632Y0230000D01*
X0037332Y0230000D01*
X0036395Y0229063D01*
X0034822Y0227490D01*
X0033590Y0228000D01*
X0035427Y0228761D01*
X0036834Y0230168D01*
X0037595Y0232005D01*
X0037595Y0233995D01*
X0037085Y0235227D01*
X0053758Y0251900D01*
X0102158Y0251900D01*
X0110258Y0260000D01*
X0114273Y0260000D01*
X0114784Y0259489D01*
X0115700Y0259109D01*
X0116691Y0259109D01*
X0117606Y0259489D01*
X0118307Y0260189D01*
X0118686Y0261105D01*
X0118686Y0261364D01*
X0119300Y0261109D01*
X0120291Y0261109D01*
X0121206Y0261489D01*
X0121907Y0262189D01*
X0122286Y0263105D01*
X0122286Y0264095D01*
X0121907Y0265011D01*
X0121206Y0265711D01*
X0120291Y0266091D01*
X0119300Y0266091D01*
X0118384Y0265711D01*
X0117973Y0265300D01*
X0109232Y0265300D01*
X0101886Y0257953D01*
X0101886Y0258495D01*
X0101507Y0259411D01*
X0100806Y0260111D01*
X0099891Y0260491D01*
X0099186Y0260491D01*
X0099186Y0261295D01*
X0098807Y0262211D01*
X0098106Y0262911D01*
X0097191Y0263291D01*
X0096200Y0263291D01*
X0095284Y0262911D01*
X0094773Y0262400D01*
X0058058Y0262400D01*
X0051886Y0268572D01*
X0051886Y0269295D01*
X0051507Y0270211D01*
X0050806Y0270911D01*
X0049891Y0271291D01*
X0048900Y0271291D01*
X0047984Y0270911D01*
X0047284Y0270211D01*
X0046905Y0269295D01*
X0046905Y0268305D01*
X0047284Y0267389D01*
X0047984Y0266689D01*
X0048198Y0266600D01*
X0044917Y0266600D01*
X0044406Y0267111D01*
X0043491Y0267491D01*
X0042500Y0267491D01*
X0041584Y0267111D01*
X0040884Y0266411D01*
X0040505Y0265495D01*
X0040505Y0264505D01*
X0040884Y0263589D01*
X0041584Y0262889D01*
X0042500Y0262509D01*
X0043491Y0262509D01*
X0044406Y0262889D01*
X0044917Y0263400D01*
X0048932Y0263400D01*
X0055305Y0257028D01*
X0055305Y0256305D01*
X0036361Y0256305D01*
X0036834Y0255832D02*
X0035427Y0257239D01*
X0033590Y0258000D01*
X0031601Y0258000D01*
X0029763Y0257239D01*
X0028895Y0256371D01*
X0028895Y0259629D01*
X0029338Y0259186D01*
X0029975Y0258724D01*
X0030676Y0258366D01*
X0031424Y0258123D01*
X0032202Y0258000D01*
X0032295Y0258000D01*
X0032295Y0262700D01*
X0032895Y0262700D01*
X0032895Y0258000D01*
X0032989Y0258000D01*
X0033766Y0258123D01*
X0034514Y0258366D01*
X0035216Y0258724D01*
X0035852Y0259186D01*
X0036409Y0259743D01*
X0036872Y0260379D01*
X0037229Y0261081D01*
X0037472Y0261829D01*
X0037595Y0262606D01*
X0037595Y0262700D01*
X0032895Y0262700D01*
X0032895Y0263300D01*
X0032295Y0263300D01*
X0032295Y0268000D01*
X0032202Y0268000D01*
X0031424Y0267877D01*
X0030676Y0267634D01*
X0029975Y0267276D01*
X0029338Y0266814D01*
X0028895Y0266371D01*
X0028895Y0269629D01*
X0029763Y0268761D01*
X0031601Y0268000D01*
X0033590Y0268000D01*
X0035427Y0268761D01*
X0036834Y0270168D01*
X0037595Y0272005D01*
X0037595Y0273995D01*
X0036834Y0275832D01*
X0035427Y0277239D01*
X0033590Y0278000D01*
X0035427Y0278761D01*
X0036834Y0280168D01*
X0037595Y0282005D01*
X0038356Y0280168D01*
X0039763Y0278761D01*
X0041601Y0278000D01*
X0043590Y0278000D01*
X0045427Y0278761D01*
X0046834Y0280168D01*
X0047595Y0282005D01*
X0048356Y0280168D01*
X0049763Y0278761D01*
X0051601Y0278000D01*
X0053590Y0278000D01*
X0054822Y0278510D01*
X0055995Y0277337D01*
X0055995Y0270537D01*
X0060732Y0265800D01*
X0100132Y0265800D01*
X0100805Y0265128D01*
X0100805Y0264405D01*
X0101184Y0263489D01*
X0101884Y0262789D01*
X0102800Y0262409D01*
X0103791Y0262409D01*
X0104706Y0262789D01*
X0105407Y0263489D01*
X0105786Y0264405D01*
X0105786Y0265395D01*
X0105407Y0266311D01*
X0104706Y0267011D01*
X0103791Y0267391D01*
X0103067Y0267391D01*
X0101458Y0269000D01*
X0062058Y0269000D01*
X0059195Y0271863D01*
X0059195Y0278663D01*
X0058258Y0279600D01*
X0057085Y0280773D01*
X0057595Y0282005D01*
X0058356Y0280168D01*
X0059763Y0278761D01*
X0061601Y0278000D01*
X0063590Y0278000D01*
X0065427Y0278761D01*
X0066834Y0280168D01*
X0067595Y0282005D01*
X0068356Y0280168D01*
X0069763Y0278761D01*
X0070562Y0278430D01*
X0066623Y0274491D01*
X0065900Y0274491D01*
X0064984Y0274111D01*
X0064284Y0273411D01*
X0063905Y0272495D01*
X0063905Y0271505D01*
X0064284Y0270589D01*
X0064984Y0269889D01*
X0065900Y0269509D01*
X0066891Y0269509D01*
X0067806Y0269889D01*
X0068507Y0270589D01*
X0068886Y0271505D01*
X0068886Y0272228D01*
X0073058Y0276400D01*
X0129732Y0276400D01*
X0132086Y0274047D01*
X0132086Y0273722D01*
X0131574Y0273211D01*
X0131195Y0272295D01*
X0131195Y0271305D01*
X0131574Y0270389D01*
X0132275Y0269689D01*
X0133190Y0269309D01*
X0134181Y0269309D01*
X0135096Y0269689D01*
X0135797Y0270389D01*
X0136176Y0271305D01*
X0136176Y0272295D01*
X0135797Y0273211D01*
X0135286Y0273722D01*
X0135286Y0275372D01*
X0132658Y0278000D01*
X0133590Y0278000D01*
X0135427Y0278761D01*
X0136834Y0280168D01*
X0137595Y0282005D01*
X0138356Y0280168D01*
X0139763Y0278761D01*
X0141601Y0278000D01*
X0143590Y0278000D01*
X0145427Y0278761D01*
X0146834Y0280168D01*
X0147595Y0282005D01*
X0148106Y0280773D01*
X0143232Y0275900D01*
X0141432Y0275900D01*
X0140495Y0274963D01*
X0139932Y0274400D01*
X0138995Y0273463D01*
X0138995Y0263063D01*
X0134823Y0258891D01*
X0134100Y0258891D01*
X0133184Y0258511D01*
X0132484Y0257811D01*
X0132105Y0256895D01*
X0132105Y0255905D01*
X0132484Y0254989D01*
X0133184Y0254289D01*
X0134100Y0253909D01*
X0135042Y0253909D01*
X0134705Y0253095D01*
X0134705Y0252105D01*
X0135084Y0251189D01*
X0135784Y0250489D01*
X0136700Y0250109D01*
X0137691Y0250109D01*
X0138606Y0250489D01*
X0139307Y0251189D01*
X0139686Y0252105D01*
X0139686Y0253095D01*
X0139307Y0254011D01*
X0138795Y0254522D01*
X0138795Y0255937D01*
X0155758Y0272900D01*
X0160158Y0272900D01*
X0161258Y0274000D01*
X0169258Y0274000D01*
X0170458Y0275200D01*
X0178758Y0275200D01*
X0179958Y0276400D01*
X0188258Y0276400D01*
X0190368Y0278510D01*
X0191601Y0278000D01*
X0193590Y0278000D01*
X0195427Y0278761D01*
X0196834Y0280168D01*
X0197595Y0282005D01*
X0197595Y0283995D01*
X0196834Y0285832D01*
X0195966Y0286700D01*
X0199224Y0286700D01*
X0198781Y0286257D01*
X0198319Y0285621D01*
X0197961Y0284919D01*
X0197718Y0284171D01*
X0197595Y0283394D01*
X0197595Y0283300D01*
X0202295Y0283300D01*
X0202295Y0282700D01*
X0197595Y0282700D01*
X0197595Y0282606D01*
X0197718Y0281829D01*
X0197961Y0281081D01*
X0198319Y0280379D01*
X0198781Y0279743D01*
X0199338Y0279186D01*
X0199975Y0278724D01*
X0200676Y0278366D01*
X0201424Y0278123D01*
X0202202Y0278000D01*
X0202295Y0278000D01*
X0202295Y0282700D01*
X0202895Y0282700D01*
X0202895Y0282639D02*
X0202295Y0282639D01*
X0202295Y0282041D02*
X0202895Y0282041D01*
X0202895Y0281442D02*
X0202295Y0281442D01*
X0202295Y0280844D02*
X0202895Y0280844D01*
X0202895Y0280245D02*
X0202295Y0280245D01*
X0202295Y0279647D02*
X0202895Y0279647D01*
X0202895Y0279048D02*
X0202295Y0279048D01*
X0202295Y0278450D02*
X0202895Y0278450D01*
X0203095Y0277851D02*
X0189709Y0277851D01*
X0189110Y0277253D02*
X0203095Y0277253D01*
X0203095Y0276654D02*
X0188512Y0276654D01*
X0187595Y0278000D02*
X0192595Y0283000D01*
X0197165Y0285033D02*
X0198020Y0285033D01*
X0197804Y0284435D02*
X0197413Y0284435D01*
X0197595Y0283836D02*
X0197665Y0283836D01*
X0197595Y0283238D02*
X0202295Y0283238D01*
X0198762Y0286230D02*
X0196436Y0286230D01*
X0196917Y0285632D02*
X0198327Y0285632D01*
X0197595Y0282639D02*
X0197595Y0282639D01*
X0197595Y0282041D02*
X0197685Y0282041D01*
X0197844Y0281442D02*
X0197362Y0281442D01*
X0197114Y0280844D02*
X0198082Y0280844D01*
X0198416Y0280245D02*
X0196866Y0280245D01*
X0196313Y0279647D02*
X0198877Y0279647D01*
X0199528Y0279048D02*
X0195714Y0279048D01*
X0194675Y0278450D02*
X0200512Y0278450D01*
X0203095Y0276056D02*
X0179613Y0276056D01*
X0179015Y0275457D02*
X0203095Y0275457D01*
X0203095Y0274859D02*
X0170116Y0274859D01*
X0169518Y0274260D02*
X0203095Y0274260D01*
X0203095Y0273662D02*
X0160919Y0273662D01*
X0160321Y0273063D02*
X0203095Y0273063D01*
X0203095Y0272465D02*
X0155322Y0272465D01*
X0154724Y0271866D02*
X0203095Y0271866D01*
X0203095Y0271268D02*
X0154125Y0271268D01*
X0153527Y0270669D02*
X0203095Y0270669D01*
X0203095Y0270070D02*
X0152928Y0270070D01*
X0152330Y0269472D02*
X0203095Y0269472D01*
X0203095Y0268873D02*
X0151731Y0268873D01*
X0151133Y0268275D02*
X0203095Y0268275D01*
X0203095Y0267676D02*
X0150534Y0267676D01*
X0149936Y0267078D02*
X0203095Y0267078D01*
X0203095Y0266479D02*
X0149337Y0266479D01*
X0148739Y0265881D02*
X0203095Y0265881D01*
X0203095Y0265282D02*
X0148140Y0265282D01*
X0147542Y0264684D02*
X0203095Y0264684D01*
X0203095Y0264085D02*
X0146943Y0264085D01*
X0146345Y0263487D02*
X0203095Y0263487D01*
X0203095Y0262888D02*
X0145746Y0262888D01*
X0145148Y0262290D02*
X0203095Y0262290D01*
X0203095Y0261691D02*
X0144549Y0261691D01*
X0143951Y0261093D02*
X0203095Y0261093D01*
X0203095Y0260494D02*
X0143352Y0260494D01*
X0142754Y0259896D02*
X0203095Y0259896D01*
X0203095Y0259297D02*
X0142155Y0259297D01*
X0141557Y0258699D02*
X0203095Y0258699D01*
X0203095Y0258100D02*
X0140958Y0258100D01*
X0140360Y0257502D02*
X0203095Y0257502D01*
X0203095Y0256903D02*
X0139761Y0256903D01*
X0139163Y0256305D02*
X0203095Y0256305D01*
X0203095Y0255706D02*
X0138795Y0255706D01*
X0138795Y0255108D02*
X0203095Y0255108D01*
X0203095Y0254509D02*
X0138808Y0254509D01*
X0139348Y0253911D02*
X0197243Y0253911D01*
X0196645Y0253312D02*
X0139596Y0253312D01*
X0139686Y0252714D02*
X0196046Y0252714D01*
X0195448Y0252115D02*
X0139686Y0252115D01*
X0139442Y0251517D02*
X0194849Y0251517D01*
X0194251Y0250918D02*
X0139035Y0250918D01*
X0138198Y0250320D02*
X0193652Y0250320D01*
X0193054Y0249721D02*
X0124786Y0249721D01*
X0124786Y0249123D02*
X0144755Y0249123D01*
X0144156Y0248524D02*
X0124786Y0248524D01*
X0124786Y0247926D02*
X0142460Y0247926D01*
X0141700Y0247327D02*
X0124441Y0247327D01*
X0123843Y0246729D02*
X0141325Y0246729D01*
X0141105Y0246130D02*
X0123695Y0246130D01*
X0123695Y0245532D02*
X0139404Y0245532D01*
X0138852Y0244933D02*
X0130154Y0244933D01*
X0128795Y0242800D02*
X0137595Y0242800D01*
X0138895Y0241500D01*
X0144095Y0241500D01*
X0148295Y0245700D01*
X0194795Y0245700D01*
X0198495Y0249400D01*
X0199695Y0249400D01*
X0198829Y0251491D02*
X0194239Y0246900D01*
X0147795Y0246900D01*
X0144495Y0243600D01*
X0140995Y0243600D01*
X0138604Y0244334D02*
X0138323Y0244334D01*
X0137389Y0240743D02*
X0130261Y0240743D01*
X0127330Y0240743D02*
X0123695Y0240743D01*
X0123695Y0240145D02*
X0137987Y0240145D01*
X0145003Y0240145D02*
X0180443Y0240145D01*
X0179845Y0239546D02*
X0123695Y0239546D01*
X0123695Y0238948D02*
X0179795Y0238948D01*
X0179795Y0238349D02*
X0160468Y0238349D01*
X0161066Y0237751D02*
X0179795Y0237751D01*
X0179795Y0237152D02*
X0161338Y0237152D01*
X0161486Y0236554D02*
X0179795Y0236554D01*
X0179795Y0235955D02*
X0161486Y0235955D01*
X0161300Y0235357D02*
X0179795Y0235357D01*
X0179795Y0234758D02*
X0160976Y0234758D01*
X0160336Y0234160D02*
X0179795Y0234160D01*
X0179795Y0233561D02*
X0158419Y0233561D01*
X0157821Y0232963D02*
X0179795Y0232963D01*
X0179697Y0232364D02*
X0123694Y0232364D01*
X0124292Y0231766D02*
X0179098Y0231766D01*
X0178500Y0231167D02*
X0124891Y0231167D01*
X0125489Y0230569D02*
X0177901Y0230569D01*
X0177303Y0229970D02*
X0169147Y0229970D01*
X0169723Y0229372D02*
X0176704Y0229372D01*
X0176106Y0228773D02*
X0169971Y0228773D01*
X0170086Y0228175D02*
X0175507Y0228175D01*
X0174909Y0227576D02*
X0174613Y0227576D01*
X0170577Y0227576D02*
X0170086Y0227576D01*
X0167595Y0228000D02*
X0156595Y0228000D01*
X0125795Y0228000D01*
X0120895Y0232900D01*
X0120895Y0249300D01*
X0122095Y0247244D02*
X0122095Y0235900D01*
X0123995Y0234000D01*
X0156595Y0234000D01*
X0158895Y0236300D01*
X0158995Y0236300D01*
X0156652Y0237152D02*
X0123695Y0237152D01*
X0123704Y0236554D02*
X0156505Y0236554D01*
X0156288Y0235955D02*
X0124303Y0235955D01*
X0123695Y0237751D02*
X0156924Y0237751D01*
X0157522Y0238349D02*
X0123695Y0238349D01*
X0123695Y0241342D02*
X0126731Y0241342D01*
X0126455Y0241940D02*
X0123695Y0241940D01*
X0123695Y0242539D02*
X0126305Y0242539D01*
X0126305Y0243137D02*
X0123695Y0243137D01*
X0123695Y0243736D02*
X0126487Y0243736D01*
X0126807Y0244334D02*
X0123695Y0244334D01*
X0123695Y0244933D02*
X0127437Y0244933D01*
X0123186Y0248334D02*
X0122095Y0247244D01*
X0123186Y0248334D02*
X0123186Y0250109D01*
X0121705Y0251591D01*
X0120029Y0251591D01*
X0118705Y0250266D01*
X0118705Y0245209D01*
X0116695Y0243200D01*
X0116695Y0232700D01*
X0111995Y0228000D01*
X0097595Y0228000D01*
X0092595Y0223000D01*
X0095998Y0228100D02*
X0087695Y0228100D01*
X0082595Y0223000D01*
X0077995Y0225600D02*
X0075195Y0225600D01*
X0072595Y0223000D01*
X0070195Y0228000D02*
X0065195Y0223000D01*
X0062595Y0223000D01*
X0057595Y0228000D02*
X0052595Y0223000D01*
X0057595Y0228000D02*
X0068495Y0228000D01*
X0069695Y0229200D01*
X0078195Y0229200D01*
X0079395Y0230400D01*
X0084904Y0230400D01*
X0086204Y0231700D01*
X0094507Y0231700D01*
X0095607Y0232800D01*
X0097495Y0232800D01*
X0107195Y0242500D01*
X0107195Y0251500D01*
X0104705Y0251517D02*
X0053374Y0251517D01*
X0052776Y0250918D02*
X0095783Y0250918D01*
X0094893Y0250320D02*
X0052177Y0250320D01*
X0051579Y0249721D02*
X0094464Y0249721D01*
X0094216Y0249123D02*
X0050980Y0249123D01*
X0050382Y0248524D02*
X0094205Y0248524D01*
X0094279Y0247926D02*
X0069055Y0247926D01*
X0069973Y0247327D02*
X0094527Y0247327D01*
X0094061Y0246729D02*
X0070572Y0246729D01*
X0071009Y0246130D02*
X0093462Y0246130D01*
X0092864Y0245532D02*
X0071257Y0245532D01*
X0066995Y0243800D02*
X0093395Y0243800D01*
X0096695Y0247100D01*
X0096695Y0248600D01*
X0097607Y0250918D02*
X0104740Y0250918D01*
X0104988Y0250320D02*
X0101598Y0250320D01*
X0102144Y0249721D02*
X0105452Y0249721D01*
X0105595Y0249123D02*
X0102392Y0249123D01*
X0102486Y0248524D02*
X0105595Y0248524D01*
X0105595Y0247926D02*
X0102486Y0247926D01*
X0102246Y0247327D02*
X0105595Y0247327D01*
X0105595Y0246729D02*
X0101846Y0246729D01*
X0101023Y0246130D02*
X0105595Y0246130D01*
X0105595Y0245532D02*
X0099389Y0245532D01*
X0098791Y0244933D02*
X0105595Y0244933D01*
X0105595Y0244334D02*
X0098192Y0244334D01*
X0097594Y0243736D02*
X0105595Y0243736D01*
X0105570Y0243137D02*
X0096995Y0243137D01*
X0096397Y0242539D02*
X0104971Y0242539D01*
X0104373Y0241940D02*
X0095798Y0241940D01*
X0095200Y0241342D02*
X0103774Y0241342D01*
X0103176Y0240743D02*
X0076201Y0240743D01*
X0075603Y0240145D02*
X0102577Y0240145D01*
X0101979Y0239546D02*
X0075004Y0239546D01*
X0074406Y0238948D02*
X0101380Y0238948D01*
X0100782Y0238349D02*
X0073807Y0238349D01*
X0073209Y0237751D02*
X0100183Y0237751D01*
X0099585Y0237152D02*
X0072610Y0237152D01*
X0072012Y0236554D02*
X0098986Y0236554D01*
X0098388Y0235955D02*
X0071413Y0235955D01*
X0071329Y0235357D02*
X0097789Y0235357D01*
X0097191Y0234758D02*
X0071577Y0234758D01*
X0071595Y0234160D02*
X0094704Y0234160D01*
X0094105Y0233561D02*
X0071595Y0233561D01*
X0071595Y0232963D02*
X0085204Y0232963D01*
X0084605Y0232364D02*
X0071379Y0232364D01*
X0071132Y0231766D02*
X0078498Y0231766D01*
X0077900Y0231167D02*
X0070868Y0231167D01*
X0070195Y0228000D02*
X0078695Y0228000D01*
X0079895Y0229200D01*
X0085401Y0229200D01*
X0086701Y0230500D01*
X0095004Y0230500D01*
X0096104Y0231600D01*
X0097995Y0231600D01*
X0109495Y0243100D01*
X0109495Y0253600D01*
X0107176Y0254509D02*
X0104767Y0254509D01*
X0104169Y0253911D02*
X0106507Y0253911D01*
X0105485Y0253312D02*
X0103570Y0253312D01*
X0102972Y0252714D02*
X0105002Y0252714D01*
X0104754Y0252115D02*
X0102373Y0252115D01*
X0101495Y0253500D02*
X0109595Y0261600D01*
X0116195Y0261600D01*
X0115246Y0259297D02*
X0109555Y0259297D01*
X0108957Y0258699D02*
X0133637Y0258699D01*
X0132773Y0258100D02*
X0108358Y0258100D01*
X0107760Y0257502D02*
X0132356Y0257502D01*
X0132108Y0256903D02*
X0107161Y0256903D01*
X0106563Y0256305D02*
X0132105Y0256305D01*
X0132187Y0255706D02*
X0115477Y0255706D01*
X0116210Y0255108D02*
X0132435Y0255108D01*
X0132964Y0254509D02*
X0116573Y0254509D01*
X0116786Y0253911D02*
X0134097Y0253911D01*
X0134794Y0253312D02*
X0116786Y0253312D01*
X0116665Y0252714D02*
X0118890Y0252714D01*
X0118291Y0252115D02*
X0116417Y0252115D01*
X0115886Y0251517D02*
X0117693Y0251517D01*
X0118042Y0251866D02*
X0118042Y0251866D01*
X0117105Y0250918D02*
X0115886Y0250918D01*
X0115886Y0250320D02*
X0117105Y0250320D01*
X0117105Y0249721D02*
X0115886Y0249721D01*
X0115886Y0249123D02*
X0117105Y0249123D01*
X0117105Y0248524D02*
X0115886Y0248524D01*
X0115886Y0247926D02*
X0117105Y0247926D01*
X0117105Y0247327D02*
X0115541Y0247327D01*
X0114943Y0246729D02*
X0117105Y0246729D01*
X0117105Y0246130D02*
X0114344Y0246130D01*
X0113746Y0245532D02*
X0115816Y0245532D01*
X0114906Y0244933D02*
X0113595Y0244933D01*
X0113595Y0244334D02*
X0114469Y0244334D01*
X0114221Y0243736D02*
X0113595Y0243736D01*
X0113595Y0243137D02*
X0114205Y0243137D01*
X0114273Y0242539D02*
X0113595Y0242539D01*
X0113595Y0241940D02*
X0114521Y0241940D01*
X0115031Y0241342D02*
X0113595Y0241342D01*
X0113001Y0240743D02*
X0115095Y0240743D01*
X0115095Y0240145D02*
X0112403Y0240145D01*
X0111804Y0239546D02*
X0115095Y0239546D01*
X0115095Y0238948D02*
X0111206Y0238948D01*
X0110607Y0238349D02*
X0115095Y0238349D01*
X0115095Y0237751D02*
X0110009Y0237751D01*
X0109410Y0237152D02*
X0115095Y0237152D01*
X0115095Y0236554D02*
X0108812Y0236554D01*
X0108213Y0235955D02*
X0115095Y0235955D01*
X0115095Y0235357D02*
X0107615Y0235357D01*
X0107016Y0234758D02*
X0115095Y0234758D01*
X0115095Y0234160D02*
X0106418Y0234160D01*
X0105819Y0233561D02*
X0115095Y0233561D01*
X0114695Y0232963D02*
X0105221Y0232963D01*
X0104622Y0232364D02*
X0114097Y0232364D01*
X0113498Y0231766D02*
X0104024Y0231766D01*
X0103425Y0231167D02*
X0112900Y0231167D01*
X0112301Y0230569D02*
X0102827Y0230569D01*
X0102228Y0229970D02*
X0111703Y0229970D01*
X0111995Y0242000D02*
X0099195Y0229200D01*
X0097098Y0229200D01*
X0095998Y0228100D01*
X0095501Y0229300D02*
X0087198Y0229300D01*
X0085898Y0228000D01*
X0082595Y0228000D01*
X0080395Y0228000D01*
X0077995Y0225600D01*
X0066995Y0233800D02*
X0075795Y0242600D01*
X0094195Y0242600D01*
X0099995Y0248400D01*
X0101495Y0253500D02*
X0053095Y0253500D01*
X0032595Y0233000D01*
X0037595Y0232963D02*
X0053895Y0232963D01*
X0054494Y0233561D02*
X0037595Y0233561D01*
X0037527Y0234160D02*
X0055092Y0234160D01*
X0055691Y0234758D02*
X0037279Y0234758D01*
X0037215Y0235357D02*
X0056289Y0235357D01*
X0056888Y0235955D02*
X0037813Y0235955D01*
X0038412Y0236554D02*
X0057486Y0236554D01*
X0058085Y0237152D02*
X0039010Y0237152D01*
X0039609Y0237751D02*
X0058683Y0237751D01*
X0059282Y0238349D02*
X0040207Y0238349D01*
X0040806Y0238948D02*
X0059880Y0238948D01*
X0060479Y0239546D02*
X0041404Y0239546D01*
X0042003Y0240145D02*
X0061077Y0240145D01*
X0061676Y0240743D02*
X0042601Y0240743D01*
X0043200Y0241342D02*
X0062274Y0241342D01*
X0062786Y0241940D02*
X0043798Y0241940D01*
X0044397Y0242539D02*
X0062538Y0242539D01*
X0062395Y0243137D02*
X0044995Y0243137D01*
X0045594Y0243736D02*
X0062395Y0243736D01*
X0062395Y0244334D02*
X0046192Y0244334D01*
X0046791Y0244933D02*
X0062485Y0244933D01*
X0062733Y0245532D02*
X0047389Y0245532D01*
X0047988Y0246130D02*
X0062981Y0246130D01*
X0063418Y0246729D02*
X0048586Y0246729D01*
X0049185Y0247327D02*
X0064017Y0247327D01*
X0064935Y0247926D02*
X0049783Y0247926D01*
X0046551Y0250918D02*
X0037145Y0250918D01*
X0036897Y0250320D02*
X0045952Y0250320D01*
X0045354Y0249721D02*
X0036387Y0249721D01*
X0036834Y0250168D02*
X0037595Y0252005D01*
X0037595Y0253995D01*
X0036834Y0255832D01*
X0036886Y0255706D02*
X0051339Y0255706D01*
X0050995Y0255363D02*
X0051932Y0256300D01*
X0055306Y0256300D01*
X0055305Y0256305D01*
X0055305Y0256903D02*
X0035763Y0256903D01*
X0034793Y0257502D02*
X0054831Y0257502D01*
X0054232Y0258100D02*
X0033622Y0258100D01*
X0032895Y0258100D02*
X0032295Y0258100D01*
X0032295Y0258699D02*
X0032895Y0258699D01*
X0032895Y0259297D02*
X0032295Y0259297D01*
X0032295Y0259896D02*
X0032895Y0259896D01*
X0032895Y0260494D02*
X0032295Y0260494D01*
X0032295Y0261093D02*
X0032895Y0261093D01*
X0032895Y0261691D02*
X0032295Y0261691D01*
X0032295Y0262290D02*
X0032895Y0262290D01*
X0032895Y0262888D02*
X0041585Y0262888D01*
X0040986Y0263487D02*
X0037580Y0263487D01*
X0037595Y0263394D02*
X0037472Y0264171D01*
X0037229Y0264919D01*
X0036872Y0265621D01*
X0036409Y0266257D01*
X0035852Y0266814D01*
X0035216Y0267276D01*
X0034514Y0267634D01*
X0033766Y0267877D01*
X0032989Y0268000D01*
X0032895Y0268000D01*
X0032895Y0263300D01*
X0037595Y0263300D01*
X0037595Y0263394D01*
X0037486Y0264085D02*
X0040678Y0264085D01*
X0040505Y0264684D02*
X0037305Y0264684D01*
X0037044Y0265282D02*
X0040505Y0265282D01*
X0040664Y0265881D02*
X0036682Y0265881D01*
X0036187Y0266479D02*
X0040952Y0266479D01*
X0041551Y0267078D02*
X0035489Y0267078D01*
X0034383Y0267676D02*
X0047165Y0267676D01*
X0046917Y0268275D02*
X0034253Y0268275D01*
X0035540Y0268873D02*
X0046905Y0268873D01*
X0046978Y0269472D02*
X0036138Y0269472D01*
X0036737Y0270070D02*
X0047226Y0270070D01*
X0047742Y0270669D02*
X0037042Y0270669D01*
X0037289Y0271268D02*
X0048844Y0271268D01*
X0049946Y0271268D02*
X0055995Y0271268D01*
X0055995Y0271866D02*
X0037537Y0271866D01*
X0037595Y0272465D02*
X0055995Y0272465D01*
X0055995Y0273063D02*
X0037595Y0273063D01*
X0037595Y0273662D02*
X0055995Y0273662D01*
X0055995Y0274260D02*
X0037485Y0274260D01*
X0037237Y0274859D02*
X0055995Y0274859D01*
X0055995Y0275457D02*
X0036989Y0275457D01*
X0036611Y0276056D02*
X0055995Y0276056D01*
X0055995Y0276654D02*
X0036012Y0276654D01*
X0035394Y0277253D02*
X0055995Y0277253D01*
X0055481Y0277851D02*
X0033949Y0277851D01*
X0033590Y0278000D02*
X0031601Y0278000D01*
X0029763Y0278761D01*
X0028895Y0279629D01*
X0028895Y0276371D01*
X0029763Y0277239D01*
X0031601Y0278000D01*
X0033590Y0278000D01*
X0034675Y0278450D02*
X0040515Y0278450D01*
X0039476Y0279048D02*
X0035714Y0279048D01*
X0036313Y0279647D02*
X0038877Y0279647D01*
X0038324Y0280245D02*
X0036866Y0280245D01*
X0037114Y0280844D02*
X0038076Y0280844D01*
X0037828Y0281442D02*
X0037362Y0281442D01*
X0037595Y0282005D02*
X0037595Y0283995D01*
X0038356Y0285832D01*
X0039224Y0286700D01*
X0035966Y0286700D01*
X0036834Y0285832D01*
X0037595Y0283995D01*
X0037595Y0282005D01*
X0037595Y0282041D02*
X0037595Y0282041D01*
X0037595Y0282639D02*
X0037595Y0282639D01*
X0037595Y0283238D02*
X0037595Y0283238D01*
X0037595Y0283836D02*
X0037595Y0283836D01*
X0037413Y0284435D02*
X0037777Y0284435D01*
X0038025Y0285033D02*
X0037165Y0285033D01*
X0036917Y0285632D02*
X0038273Y0285632D01*
X0038754Y0286230D02*
X0036436Y0286230D01*
X0045966Y0286700D02*
X0049224Y0286700D01*
X0048356Y0285832D01*
X0047595Y0283995D01*
X0047595Y0282005D01*
X0047595Y0283995D01*
X0046834Y0285832D01*
X0045966Y0286700D01*
X0046436Y0286230D02*
X0048754Y0286230D01*
X0048273Y0285632D02*
X0046917Y0285632D01*
X0047165Y0285033D02*
X0048025Y0285033D01*
X0047777Y0284435D02*
X0047413Y0284435D01*
X0047595Y0283836D02*
X0047595Y0283836D01*
X0047595Y0283238D02*
X0047595Y0283238D01*
X0047595Y0282639D02*
X0047595Y0282639D01*
X0047595Y0282041D02*
X0047595Y0282041D01*
X0047362Y0281442D02*
X0047828Y0281442D01*
X0048076Y0280844D02*
X0047114Y0280844D01*
X0046866Y0280245D02*
X0048324Y0280245D01*
X0048877Y0279647D02*
X0046313Y0279647D01*
X0045714Y0279048D02*
X0049476Y0279048D01*
X0050515Y0278450D02*
X0044675Y0278450D01*
X0052595Y0283000D02*
X0057595Y0278000D01*
X0057595Y0271200D01*
X0061395Y0267400D01*
X0074058Y0267400D01*
X0100795Y0267400D01*
X0103295Y0264900D01*
X0105585Y0265881D02*
X0118794Y0265881D01*
X0120797Y0265881D02*
X0138995Y0265881D01*
X0138995Y0266479D02*
X0105238Y0266479D01*
X0104545Y0267078D02*
X0138995Y0267078D01*
X0138995Y0267676D02*
X0102781Y0267676D01*
X0102183Y0268275D02*
X0138995Y0268275D01*
X0138995Y0268873D02*
X0101584Y0268873D01*
X0100650Y0265282D02*
X0055175Y0265282D01*
X0054577Y0265881D02*
X0060651Y0265881D01*
X0060053Y0266479D02*
X0053978Y0266479D01*
X0053380Y0267078D02*
X0059454Y0267078D01*
X0058856Y0267676D02*
X0052781Y0267676D01*
X0052183Y0268275D02*
X0058257Y0268275D01*
X0057659Y0268873D02*
X0051886Y0268873D01*
X0051813Y0269472D02*
X0057060Y0269472D01*
X0056462Y0270070D02*
X0051565Y0270070D01*
X0051048Y0270669D02*
X0055995Y0270669D01*
X0059195Y0271866D02*
X0063905Y0271866D01*
X0063905Y0272465D02*
X0059195Y0272465D01*
X0059195Y0273063D02*
X0064140Y0273063D01*
X0064535Y0273662D02*
X0059195Y0273662D01*
X0059195Y0274260D02*
X0065343Y0274260D01*
X0066991Y0274859D02*
X0059195Y0274859D01*
X0059195Y0275457D02*
X0067589Y0275457D01*
X0068188Y0276056D02*
X0059195Y0276056D01*
X0059195Y0276654D02*
X0068787Y0276654D01*
X0069385Y0277253D02*
X0059195Y0277253D01*
X0059195Y0277851D02*
X0069984Y0277851D01*
X0070515Y0278450D02*
X0064675Y0278450D01*
X0065714Y0279048D02*
X0069476Y0279048D01*
X0068877Y0279647D02*
X0066313Y0279647D01*
X0066866Y0280245D02*
X0068324Y0280245D01*
X0068076Y0280844D02*
X0067114Y0280844D01*
X0067362Y0281442D02*
X0067828Y0281442D01*
X0067595Y0282005D02*
X0067595Y0283995D01*
X0068356Y0285832D01*
X0069224Y0286700D01*
X0065966Y0286700D01*
X0066834Y0285832D01*
X0067595Y0283995D01*
X0067595Y0282005D01*
X0067595Y0282041D02*
X0067595Y0282041D01*
X0067595Y0282639D02*
X0067595Y0282639D01*
X0067595Y0283238D02*
X0067595Y0283238D01*
X0067595Y0283836D02*
X0067595Y0283836D01*
X0067413Y0284435D02*
X0067777Y0284435D01*
X0068025Y0285033D02*
X0067165Y0285033D01*
X0066917Y0285632D02*
X0068273Y0285632D01*
X0068754Y0286230D02*
X0066436Y0286230D01*
X0059224Y0286700D02*
X0058356Y0285832D01*
X0057595Y0283995D01*
X0057595Y0282005D01*
X0057595Y0283995D01*
X0056834Y0285832D01*
X0055966Y0286700D01*
X0059224Y0286700D01*
X0058754Y0286230D02*
X0056436Y0286230D01*
X0056917Y0285632D02*
X0058273Y0285632D01*
X0058025Y0285033D02*
X0057165Y0285033D01*
X0057413Y0284435D02*
X0057777Y0284435D01*
X0057595Y0283836D02*
X0057595Y0283836D01*
X0057595Y0283238D02*
X0057595Y0283238D01*
X0057595Y0282639D02*
X0057595Y0282639D01*
X0057595Y0282041D02*
X0057595Y0282041D01*
X0057362Y0281442D02*
X0057828Y0281442D01*
X0058076Y0280844D02*
X0057114Y0280844D01*
X0057613Y0280245D02*
X0058324Y0280245D01*
X0058211Y0279647D02*
X0058877Y0279647D01*
X0058810Y0279048D02*
X0059476Y0279048D01*
X0059195Y0278450D02*
X0060515Y0278450D01*
X0054883Y0278450D02*
X0054675Y0278450D01*
X0059790Y0271268D02*
X0064003Y0271268D01*
X0064251Y0270669D02*
X0060389Y0270669D01*
X0060987Y0270070D02*
X0064802Y0270070D01*
X0066395Y0272000D02*
X0072395Y0278000D01*
X0130395Y0278000D01*
X0133686Y0274709D01*
X0133686Y0271800D01*
X0135478Y0270070D02*
X0138995Y0270070D01*
X0138995Y0269472D02*
X0134573Y0269472D01*
X0132798Y0269472D02*
X0061586Y0269472D01*
X0067988Y0270070D02*
X0131893Y0270070D01*
X0131458Y0270669D02*
X0068540Y0270669D01*
X0068787Y0271268D02*
X0131210Y0271268D01*
X0131195Y0271866D02*
X0068886Y0271866D01*
X0069122Y0272465D02*
X0131265Y0272465D01*
X0131513Y0273063D02*
X0069721Y0273063D01*
X0070319Y0273662D02*
X0132025Y0273662D01*
X0131872Y0274260D02*
X0070918Y0274260D01*
X0071516Y0274859D02*
X0131274Y0274859D01*
X0130675Y0275457D02*
X0072115Y0275457D01*
X0072713Y0276056D02*
X0130077Y0276056D01*
X0132807Y0277851D02*
X0145184Y0277851D01*
X0144675Y0278450D02*
X0145782Y0278450D01*
X0145714Y0279048D02*
X0146381Y0279048D01*
X0146313Y0279647D02*
X0146979Y0279647D01*
X0146866Y0280245D02*
X0147578Y0280245D01*
X0147114Y0280844D02*
X0148076Y0280844D01*
X0147828Y0281442D02*
X0147362Y0281442D01*
X0147595Y0282005D02*
X0147595Y0283995D01*
X0148356Y0285832D01*
X0149224Y0286700D01*
X0145966Y0286700D01*
X0146834Y0285832D01*
X0147595Y0283995D01*
X0147595Y0282005D01*
X0147595Y0282041D02*
X0147595Y0282041D01*
X0147595Y0282639D02*
X0147595Y0282639D01*
X0147595Y0283238D02*
X0147595Y0283238D01*
X0147595Y0283836D02*
X0147595Y0283836D01*
X0147413Y0284435D02*
X0147777Y0284435D01*
X0148025Y0285033D02*
X0147165Y0285033D01*
X0146917Y0285632D02*
X0148273Y0285632D01*
X0148754Y0286230D02*
X0146436Y0286230D01*
X0152595Y0283000D02*
X0143895Y0274300D01*
X0142095Y0274300D01*
X0140595Y0272800D01*
X0140595Y0262400D01*
X0134595Y0256400D01*
X0137195Y0256600D02*
X0155095Y0274500D01*
X0159495Y0274500D01*
X0160595Y0275600D01*
X0168595Y0275600D01*
X0169795Y0276800D01*
X0178095Y0276800D01*
X0179295Y0278000D01*
X0187595Y0278000D01*
X0190308Y0278450D02*
X0190515Y0278450D01*
X0182595Y0283000D02*
X0177595Y0278000D01*
X0169295Y0278000D01*
X0168095Y0276800D01*
X0159795Y0276800D01*
X0158695Y0275700D01*
X0153195Y0275700D01*
X0149195Y0271700D01*
X0146195Y0271700D02*
X0151395Y0276900D01*
X0158195Y0276900D01*
X0159295Y0278000D01*
X0167595Y0278000D01*
X0172595Y0283000D01*
X0162595Y0283000D02*
X0157695Y0278100D01*
X0149495Y0278100D01*
X0143195Y0271800D01*
X0140391Y0274859D02*
X0135286Y0274859D01*
X0135286Y0274260D02*
X0139792Y0274260D01*
X0139194Y0273662D02*
X0135346Y0273662D01*
X0135858Y0273063D02*
X0138995Y0273063D01*
X0138995Y0272465D02*
X0136106Y0272465D01*
X0136176Y0271866D02*
X0138995Y0271866D01*
X0138995Y0271268D02*
X0136161Y0271268D01*
X0135913Y0270669D02*
X0138995Y0270669D01*
X0138995Y0265282D02*
X0121635Y0265282D01*
X0122042Y0264684D02*
X0138995Y0264684D01*
X0138995Y0264085D02*
X0122286Y0264085D01*
X0122286Y0263487D02*
X0138995Y0263487D01*
X0138821Y0262888D02*
X0122196Y0262888D01*
X0121948Y0262290D02*
X0138222Y0262290D01*
X0137624Y0261691D02*
X0121409Y0261691D01*
X0119795Y0263600D02*
X0119695Y0263700D01*
X0109895Y0263700D01*
X0100895Y0254700D01*
X0052595Y0254700D01*
X0040895Y0243000D01*
X0032595Y0243000D01*
X0037206Y0244933D02*
X0040565Y0244933D01*
X0040232Y0244600D02*
X0037344Y0244600D01*
X0036834Y0245832D01*
X0035427Y0247239D01*
X0033590Y0248000D01*
X0035427Y0248761D01*
X0036834Y0250168D01*
X0037393Y0251517D02*
X0047149Y0251517D01*
X0047748Y0252115D02*
X0037595Y0252115D01*
X0037595Y0252714D02*
X0048346Y0252714D01*
X0048945Y0253312D02*
X0037595Y0253312D01*
X0037595Y0253911D02*
X0049543Y0253911D01*
X0050142Y0254509D02*
X0037382Y0254509D01*
X0037134Y0255108D02*
X0050740Y0255108D01*
X0050995Y0255363D02*
X0040232Y0244600D01*
X0041164Y0245532D02*
X0036959Y0245532D01*
X0036536Y0246130D02*
X0041762Y0246130D01*
X0042361Y0246729D02*
X0035938Y0246729D01*
X0035214Y0247327D02*
X0042959Y0247327D01*
X0043558Y0247926D02*
X0033769Y0247926D01*
X0033590Y0248000D02*
X0031601Y0248000D01*
X0029763Y0248761D01*
X0028895Y0249629D01*
X0028895Y0246371D01*
X0029763Y0247239D01*
X0031601Y0248000D01*
X0033590Y0248000D01*
X0034855Y0248524D02*
X0044156Y0248524D01*
X0044755Y0249123D02*
X0035789Y0249123D01*
X0031421Y0247926D02*
X0028895Y0247926D01*
X0028895Y0248524D02*
X0030335Y0248524D01*
X0029401Y0249123D02*
X0028895Y0249123D01*
X0028895Y0247327D02*
X0029976Y0247327D01*
X0029253Y0246729D02*
X0028895Y0246729D01*
X0028895Y0256903D02*
X0029427Y0256903D01*
X0028895Y0257502D02*
X0030398Y0257502D01*
X0030023Y0258699D02*
X0028895Y0258699D01*
X0028895Y0259297D02*
X0029227Y0259297D01*
X0028895Y0258100D02*
X0031569Y0258100D01*
X0035167Y0258699D02*
X0053634Y0258699D01*
X0053035Y0259297D02*
X0035963Y0259297D01*
X0036520Y0259896D02*
X0052437Y0259896D01*
X0051838Y0260494D02*
X0036930Y0260494D01*
X0037233Y0261093D02*
X0051240Y0261093D01*
X0050641Y0261691D02*
X0037427Y0261691D01*
X0037545Y0262290D02*
X0050043Y0262290D01*
X0049444Y0262888D02*
X0044405Y0262888D01*
X0042995Y0265000D02*
X0049595Y0265000D01*
X0057795Y0256800D01*
X0058595Y0256000D01*
X0097395Y0256000D01*
X0099395Y0258000D01*
X0101886Y0258100D02*
X0102033Y0258100D01*
X0101801Y0258699D02*
X0102631Y0258699D01*
X0103230Y0259297D02*
X0101554Y0259297D01*
X0101022Y0259896D02*
X0103828Y0259896D01*
X0104427Y0260494D02*
X0099186Y0260494D01*
X0099186Y0261093D02*
X0105025Y0261093D01*
X0105624Y0261691D02*
X0099022Y0261691D01*
X0098727Y0262290D02*
X0106222Y0262290D01*
X0106821Y0262888D02*
X0104806Y0262888D01*
X0105404Y0263487D02*
X0107419Y0263487D01*
X0108018Y0264085D02*
X0105653Y0264085D01*
X0105786Y0264684D02*
X0108616Y0264684D01*
X0109215Y0265282D02*
X0105786Y0265282D01*
X0101785Y0262888D02*
X0098129Y0262888D01*
X0096695Y0260800D02*
X0057395Y0260800D01*
X0049395Y0268800D01*
X0047595Y0267078D02*
X0044439Y0267078D01*
X0032895Y0267078D02*
X0032295Y0267078D01*
X0032295Y0267676D02*
X0032895Y0267676D01*
X0032895Y0266479D02*
X0032295Y0266479D01*
X0032295Y0265881D02*
X0032895Y0265881D01*
X0032895Y0265282D02*
X0032295Y0265282D01*
X0032295Y0264684D02*
X0032895Y0264684D01*
X0032895Y0264085D02*
X0032295Y0264085D01*
X0032295Y0263487D02*
X0032895Y0263487D01*
X0030807Y0267676D02*
X0028895Y0267676D01*
X0028895Y0267078D02*
X0029701Y0267078D01*
X0029004Y0266479D02*
X0028895Y0266479D01*
X0028895Y0268275D02*
X0030937Y0268275D01*
X0029651Y0268873D02*
X0028895Y0268873D01*
X0028895Y0269472D02*
X0029052Y0269472D01*
X0028895Y0276654D02*
X0029178Y0276654D01*
X0028895Y0277253D02*
X0029796Y0277253D01*
X0028895Y0277851D02*
X0031241Y0277851D01*
X0030515Y0278450D02*
X0028895Y0278450D01*
X0028895Y0279048D02*
X0029476Y0279048D01*
X0055774Y0264684D02*
X0100805Y0264684D01*
X0100937Y0264085D02*
X0056372Y0264085D01*
X0056971Y0263487D02*
X0101186Y0263487D01*
X0095261Y0262888D02*
X0057570Y0262888D01*
X0066995Y0243800D02*
X0053595Y0230400D01*
X0048295Y0230400D01*
X0046295Y0228400D01*
X0037995Y0228400D01*
X0032595Y0223000D01*
X0028903Y0226379D02*
X0028895Y0226379D01*
X0028895Y0226371D02*
X0028895Y0229629D01*
X0029763Y0228761D01*
X0031601Y0228000D01*
X0033590Y0228000D01*
X0031601Y0228000D01*
X0029763Y0227239D01*
X0028895Y0226371D01*
X0028895Y0226978D02*
X0029502Y0226978D01*
X0028895Y0227576D02*
X0030577Y0227576D01*
X0031179Y0228175D02*
X0028895Y0228175D01*
X0028895Y0228773D02*
X0029751Y0228773D01*
X0029152Y0229372D02*
X0028895Y0229372D01*
X0034011Y0228175D02*
X0035507Y0228175D01*
X0035439Y0228773D02*
X0036106Y0228773D01*
X0036038Y0229372D02*
X0036704Y0229372D01*
X0036636Y0229970D02*
X0037303Y0229970D01*
X0037000Y0230569D02*
X0046201Y0230569D01*
X0046800Y0231167D02*
X0037248Y0231167D01*
X0037496Y0231766D02*
X0047398Y0231766D01*
X0048795Y0229200D02*
X0062395Y0229200D01*
X0066995Y0233800D01*
X0053297Y0232364D02*
X0037595Y0232364D01*
X0034909Y0227576D02*
X0034613Y0227576D01*
X0042595Y0223000D02*
X0048795Y0229200D01*
X0095501Y0229300D02*
X0096601Y0230400D01*
X0098698Y0230400D01*
X0110795Y0242497D01*
X0110795Y0250500D01*
X0111695Y0251400D01*
X0111814Y0254509D02*
X0112017Y0254509D01*
X0112381Y0255108D02*
X0111510Y0255108D01*
X0110911Y0255706D02*
X0113113Y0255706D01*
X0114295Y0253500D02*
X0114286Y0253491D01*
X0114286Y0248334D01*
X0111995Y0246044D01*
X0111995Y0242000D01*
X0124786Y0250320D02*
X0136192Y0250320D01*
X0135355Y0250918D02*
X0124640Y0250918D01*
X0124041Y0251517D02*
X0134948Y0251517D01*
X0134705Y0252115D02*
X0123443Y0252115D01*
X0122844Y0252714D02*
X0134705Y0252714D01*
X0137195Y0252600D02*
X0137195Y0256600D01*
X0135230Y0259297D02*
X0117144Y0259297D01*
X0118013Y0259896D02*
X0135828Y0259896D01*
X0136427Y0260494D02*
X0118433Y0260494D01*
X0118681Y0261093D02*
X0137025Y0261093D01*
X0145995Y0248100D02*
X0193695Y0248100D01*
X0198317Y0252722D01*
X0202554Y0252722D01*
X0203354Y0251922D01*
X0203473Y0251922D01*
X0205486Y0249909D01*
X0205486Y0247934D01*
X0198341Y0240789D01*
X0197395Y0240789D01*
X0185047Y0240789D01*
X0182595Y0238337D01*
X0182595Y0223000D01*
X0187176Y0220993D02*
X0188015Y0220993D01*
X0187767Y0221591D02*
X0187423Y0221591D01*
X0187595Y0222005D02*
X0187595Y0223995D01*
X0186834Y0225832D01*
X0185427Y0227239D01*
X0184195Y0227749D01*
X0184195Y0237674D01*
X0185710Y0239189D01*
X0199003Y0239189D01*
X0199941Y0240126D01*
X0203095Y0243281D01*
X0203095Y0227983D01*
X0202989Y0228000D01*
X0202895Y0228000D01*
X0202895Y0223300D01*
X0202295Y0223300D01*
X0202295Y0222700D01*
X0197595Y0222700D01*
X0197595Y0222606D01*
X0197718Y0221829D01*
X0197961Y0221081D01*
X0198319Y0220379D01*
X0198781Y0219743D01*
X0199224Y0219300D01*
X0195966Y0219300D01*
X0196834Y0220168D01*
X0197595Y0222005D01*
X0197595Y0223995D01*
X0196834Y0225832D01*
X0195427Y0227239D01*
X0193590Y0228000D01*
X0191601Y0228000D01*
X0189763Y0227239D01*
X0188356Y0225832D01*
X0187595Y0223995D01*
X0187595Y0222005D01*
X0186834Y0220168D01*
X0185966Y0219300D01*
X0189224Y0219300D01*
X0188356Y0220168D01*
X0187595Y0222005D01*
X0187595Y0222190D02*
X0187595Y0222190D01*
X0187595Y0222788D02*
X0187595Y0222788D01*
X0187595Y0223387D02*
X0187595Y0223387D01*
X0187595Y0223985D02*
X0187595Y0223985D01*
X0187351Y0224584D02*
X0187839Y0224584D01*
X0188087Y0225182D02*
X0187103Y0225182D01*
X0186855Y0225781D02*
X0188335Y0225781D01*
X0188903Y0226379D02*
X0186287Y0226379D01*
X0185689Y0226978D02*
X0189502Y0226978D01*
X0190577Y0227576D02*
X0184613Y0227576D01*
X0184195Y0228175D02*
X0203095Y0228175D01*
X0203095Y0228773D02*
X0184195Y0228773D01*
X0184195Y0229372D02*
X0203095Y0229372D01*
X0203095Y0229970D02*
X0184195Y0229970D01*
X0184195Y0230569D02*
X0203095Y0230569D01*
X0203095Y0231167D02*
X0184195Y0231167D01*
X0184195Y0231766D02*
X0203095Y0231766D01*
X0203095Y0232364D02*
X0184195Y0232364D01*
X0184195Y0232963D02*
X0203095Y0232963D01*
X0203095Y0233561D02*
X0184195Y0233561D01*
X0184195Y0234160D02*
X0203095Y0234160D01*
X0203095Y0234758D02*
X0184195Y0234758D01*
X0184195Y0235357D02*
X0203095Y0235357D01*
X0203095Y0235955D02*
X0184195Y0235955D01*
X0184195Y0236554D02*
X0203095Y0236554D01*
X0203095Y0237152D02*
X0184195Y0237152D01*
X0184272Y0237751D02*
X0203095Y0237751D01*
X0203095Y0238349D02*
X0184870Y0238349D01*
X0185469Y0238948D02*
X0203095Y0238948D01*
X0203095Y0239546D02*
X0199361Y0239546D01*
X0199941Y0240126D02*
X0199941Y0240126D01*
X0199959Y0240145D02*
X0203095Y0240145D01*
X0203095Y0240743D02*
X0200558Y0240743D01*
X0201156Y0241342D02*
X0203095Y0241342D01*
X0203095Y0241940D02*
X0201755Y0241940D01*
X0202353Y0242539D02*
X0203095Y0242539D01*
X0203095Y0243137D02*
X0202952Y0243137D01*
X0204995Y0240743D02*
X0205295Y0240743D01*
X0204995Y0240145D02*
X0205850Y0240145D01*
X0204995Y0239546D02*
X0206776Y0239546D01*
X0208168Y0239546D02*
X0208768Y0239546D01*
X0208768Y0239173D02*
X0208859Y0239173D01*
X0209627Y0239326D01*
X0210350Y0239625D01*
X0211000Y0240060D01*
X0211554Y0240614D01*
X0211989Y0241264D01*
X0212288Y0241987D01*
X0212441Y0242755D01*
X0212441Y0242846D01*
X0208768Y0242846D01*
X0208768Y0239173D01*
X0208768Y0240145D02*
X0208168Y0240145D01*
X0208168Y0240743D02*
X0208768Y0240743D01*
X0208768Y0241342D02*
X0208168Y0241342D01*
X0208168Y0241940D02*
X0208768Y0241940D01*
X0208768Y0242539D02*
X0208168Y0242539D01*
X0208768Y0243137D02*
X0216217Y0243137D01*
X0215570Y0242539D02*
X0212398Y0242539D01*
X0212269Y0241940D02*
X0215120Y0241940D01*
X0214804Y0241342D02*
X0212021Y0241342D01*
X0211640Y0240743D02*
X0214588Y0240743D01*
X0214457Y0240145D02*
X0211085Y0240145D01*
X0210159Y0239546D02*
X0218797Y0239546D01*
X0218798Y0238948D02*
X0219397Y0238948D01*
X0219397Y0238349D02*
X0218798Y0238349D01*
X0218798Y0237751D02*
X0219397Y0237751D01*
X0219397Y0237152D02*
X0218798Y0237152D01*
X0218798Y0236554D02*
X0219397Y0236554D01*
X0219397Y0235955D02*
X0218798Y0235955D01*
X0218798Y0235357D02*
X0219397Y0235357D01*
X0219397Y0234758D02*
X0218798Y0234758D01*
X0218551Y0234758D02*
X0204995Y0234758D01*
X0204995Y0234160D02*
X0220934Y0234160D01*
X0221532Y0234758D02*
X0219644Y0234758D01*
X0220335Y0233561D02*
X0208890Y0233561D01*
X0206700Y0233561D02*
X0204995Y0233561D01*
X0204995Y0232963D02*
X0206101Y0232963D01*
X0205705Y0232364D02*
X0204995Y0232364D01*
X0204995Y0231766D02*
X0205705Y0231766D01*
X0205705Y0231167D02*
X0204995Y0231167D01*
X0204995Y0230569D02*
X0205970Y0230569D01*
X0206568Y0229970D02*
X0204995Y0229970D01*
X0204995Y0229372D02*
X0226295Y0229372D01*
X0226295Y0229970D02*
X0209022Y0229970D01*
X0210563Y0227576D02*
X0204995Y0227576D01*
X0205013Y0226978D02*
X0209563Y0226978D01*
X0209338Y0226814D02*
X0209975Y0227276D01*
X0210676Y0227634D01*
X0211424Y0227877D01*
X0212202Y0228000D01*
X0212295Y0228000D01*
X0212295Y0223300D01*
X0207595Y0223300D01*
X0207595Y0223394D01*
X0207718Y0224171D01*
X0207961Y0224919D01*
X0208319Y0225621D01*
X0208781Y0226257D01*
X0209338Y0226814D01*
X0208903Y0226379D02*
X0205721Y0226379D01*
X0206320Y0225781D02*
X0208435Y0225781D01*
X0208095Y0225182D02*
X0206670Y0225182D01*
X0206918Y0224584D02*
X0207852Y0224584D01*
X0207689Y0223985D02*
X0207166Y0223985D01*
X0207195Y0223387D02*
X0207595Y0223387D01*
X0207195Y0222788D02*
X0212295Y0222788D01*
X0212295Y0223387D02*
X0212895Y0223387D01*
X0212895Y0223300D02*
X0212895Y0228000D01*
X0212989Y0228000D01*
X0213766Y0227877D01*
X0214514Y0227634D01*
X0215216Y0227276D01*
X0215852Y0226814D01*
X0216409Y0226257D01*
X0216872Y0225621D01*
X0217229Y0224919D01*
X0217472Y0224171D01*
X0217595Y0223394D01*
X0217595Y0223300D01*
X0212895Y0223300D01*
X0212895Y0222788D02*
X0217995Y0222788D01*
X0217995Y0222190D02*
X0217529Y0222190D01*
X0217395Y0221591D02*
X0218200Y0221591D01*
X0218448Y0220993D02*
X0217184Y0220993D01*
X0216879Y0220394D02*
X0218696Y0220394D01*
X0219294Y0219796D02*
X0216447Y0219796D01*
X0217595Y0223387D02*
X0217995Y0223387D01*
X0218024Y0223985D02*
X0217501Y0223985D01*
X0217338Y0224584D02*
X0218272Y0224584D01*
X0218520Y0225182D02*
X0217095Y0225182D01*
X0216755Y0225781D02*
X0218870Y0225781D01*
X0219469Y0226379D02*
X0216287Y0226379D01*
X0215627Y0226978D02*
X0220178Y0226978D01*
X0221623Y0227576D02*
X0214627Y0227576D01*
X0212895Y0227576D02*
X0212295Y0227576D01*
X0212295Y0226978D02*
X0212895Y0226978D01*
X0212895Y0226379D02*
X0212295Y0226379D01*
X0212295Y0225781D02*
X0212895Y0225781D01*
X0212895Y0225182D02*
X0212295Y0225182D01*
X0212295Y0224584D02*
X0212895Y0224584D01*
X0212895Y0223985D02*
X0212295Y0223985D01*
X0207661Y0222190D02*
X0207195Y0222190D01*
X0206991Y0221591D02*
X0207796Y0221591D01*
X0208006Y0220993D02*
X0206743Y0220993D01*
X0206495Y0220394D02*
X0208311Y0220394D01*
X0208743Y0219796D02*
X0205896Y0219796D01*
X0202895Y0223387D02*
X0202295Y0223387D01*
X0202295Y0223300D02*
X0202295Y0228000D01*
X0202202Y0228000D01*
X0201424Y0227877D01*
X0200676Y0227634D01*
X0199975Y0227276D01*
X0199338Y0226814D01*
X0198781Y0226257D01*
X0198319Y0225621D01*
X0197961Y0224919D01*
X0197718Y0224171D01*
X0197595Y0223394D01*
X0197595Y0223300D01*
X0202295Y0223300D01*
X0202295Y0222788D02*
X0197595Y0222788D01*
X0197595Y0222190D02*
X0197661Y0222190D01*
X0197796Y0221591D02*
X0197423Y0221591D01*
X0197176Y0220993D02*
X0198006Y0220993D01*
X0198311Y0220394D02*
X0196928Y0220394D01*
X0196462Y0219796D02*
X0198743Y0219796D01*
X0197595Y0223387D02*
X0197595Y0223387D01*
X0197595Y0223985D02*
X0197689Y0223985D01*
X0197852Y0224584D02*
X0197351Y0224584D01*
X0197103Y0225182D02*
X0198095Y0225182D01*
X0198435Y0225781D02*
X0196855Y0225781D01*
X0196287Y0226379D02*
X0198903Y0226379D01*
X0199563Y0226978D02*
X0195689Y0226978D01*
X0194613Y0227576D02*
X0200563Y0227576D01*
X0202295Y0227576D02*
X0202895Y0227576D01*
X0202895Y0226978D02*
X0202295Y0226978D01*
X0202295Y0226379D02*
X0202895Y0226379D01*
X0202895Y0225781D02*
X0202295Y0225781D01*
X0202295Y0225182D02*
X0202895Y0225182D01*
X0202895Y0224584D02*
X0202295Y0224584D01*
X0202295Y0223985D02*
X0202895Y0223985D01*
X0204995Y0228175D02*
X0226295Y0228175D01*
X0226295Y0228773D02*
X0204995Y0228773D01*
X0204995Y0235357D02*
X0216741Y0235357D01*
X0215927Y0235955D02*
X0204995Y0235955D01*
X0204995Y0236554D02*
X0215380Y0236554D01*
X0214986Y0237152D02*
X0204995Y0237152D01*
X0204995Y0237751D02*
X0214704Y0237751D01*
X0214514Y0238349D02*
X0204995Y0238349D01*
X0204995Y0238948D02*
X0214419Y0238948D01*
X0218798Y0240145D02*
X0219397Y0240145D01*
X0219397Y0240743D02*
X0218798Y0240743D01*
X0218798Y0241342D02*
X0219397Y0241342D01*
X0219397Y0241940D02*
X0218798Y0241940D01*
X0218798Y0242539D02*
X0219397Y0242539D01*
X0219397Y0243137D02*
X0218798Y0243137D01*
X0218798Y0243736D02*
X0219397Y0243736D01*
X0220982Y0243736D02*
X0223595Y0243736D01*
X0223595Y0244334D02*
X0212276Y0244334D01*
X0212401Y0243736D02*
X0217213Y0243736D01*
X0221978Y0243137D02*
X0223595Y0243137D01*
X0223595Y0242539D02*
X0222625Y0242539D01*
X0223075Y0241940D02*
X0223595Y0241940D01*
X0223595Y0241342D02*
X0223391Y0241342D01*
X0223491Y0237751D02*
X0223595Y0237751D01*
X0223595Y0237152D02*
X0223209Y0237152D01*
X0223328Y0236554D02*
X0222815Y0236554D01*
X0222729Y0235955D02*
X0222268Y0235955D01*
X0222131Y0235357D02*
X0221454Y0235357D01*
X0223979Y0232963D02*
X0226295Y0232963D01*
X0226295Y0233561D02*
X0224578Y0233561D01*
X0225176Y0234160D02*
X0226295Y0234160D01*
X0226295Y0234758D02*
X0225775Y0234758D01*
X0226295Y0232364D02*
X0223381Y0232364D01*
X0222782Y0231766D02*
X0226295Y0231766D01*
X0226295Y0231167D02*
X0222184Y0231167D01*
X0221585Y0230569D02*
X0226295Y0230569D01*
X0226295Y0227576D02*
X0223568Y0227576D01*
X0225013Y0226978D02*
X0226295Y0226978D01*
X0226295Y0226379D02*
X0225721Y0226379D01*
X0208768Y0243736D02*
X0208168Y0243736D01*
X0208168Y0244334D02*
X0208768Y0244334D01*
X0208768Y0244933D02*
X0208168Y0244933D01*
X0208168Y0245532D02*
X0208768Y0245532D01*
X0208768Y0246130D02*
X0208168Y0246130D01*
X0208168Y0246729D02*
X0208768Y0246729D01*
X0210202Y0246729D02*
X0223595Y0246729D01*
X0223595Y0247327D02*
X0206576Y0247327D01*
X0206686Y0247926D02*
X0223595Y0247926D01*
X0223595Y0248524D02*
X0206686Y0248524D01*
X0206686Y0249123D02*
X0223595Y0249123D01*
X0223595Y0249721D02*
X0206686Y0249721D01*
X0206686Y0250320D02*
X0223595Y0250320D01*
X0223595Y0250918D02*
X0206174Y0250918D01*
X0205576Y0251517D02*
X0223595Y0251517D01*
X0223595Y0252115D02*
X0205445Y0252115D01*
X0205445Y0252714D02*
X0223595Y0252714D01*
X0223595Y0253312D02*
X0204995Y0253312D01*
X0204995Y0253911D02*
X0223595Y0253911D01*
X0223595Y0254509D02*
X0204995Y0254509D01*
X0204995Y0255108D02*
X0223595Y0255108D01*
X0223595Y0255706D02*
X0204995Y0255706D01*
X0204995Y0256305D02*
X0223595Y0256305D01*
X0223595Y0256903D02*
X0204995Y0256903D01*
X0204995Y0257502D02*
X0223595Y0257502D01*
X0223595Y0258100D02*
X0204995Y0258100D01*
X0204995Y0258699D02*
X0223595Y0258699D01*
X0217119Y0262290D02*
X0212411Y0262290D01*
X0206617Y0259297D02*
X0204995Y0259297D01*
X0204995Y0259896D02*
X0205784Y0259896D01*
X0205251Y0260494D02*
X0204995Y0260494D01*
X0200705Y0251491D02*
X0203295Y0248900D01*
X0203286Y0248891D01*
X0203286Y0247934D01*
X0197352Y0242000D01*
X0184561Y0242000D01*
X0181395Y0238834D01*
X0181395Y0231800D01*
X0172595Y0223000D01*
X0166043Y0229970D02*
X0126088Y0229970D01*
X0145601Y0240743D02*
X0181042Y0240743D01*
X0181640Y0241342D02*
X0146200Y0241342D01*
X0146798Y0241940D02*
X0182239Y0241940D01*
X0182837Y0242539D02*
X0147397Y0242539D01*
X0147995Y0243137D02*
X0183436Y0243137D01*
X0195692Y0244334D02*
X0197423Y0244334D01*
X0196825Y0243736D02*
X0148594Y0243736D01*
X0145995Y0248100D02*
X0143595Y0245700D01*
X0114377Y0259896D02*
X0110154Y0259896D01*
X0108079Y0255706D02*
X0105964Y0255706D01*
X0105366Y0255108D02*
X0107481Y0255108D01*
X0133405Y0277253D02*
X0144585Y0277253D01*
X0143987Y0276654D02*
X0134004Y0276654D01*
X0134602Y0276056D02*
X0143388Y0276056D01*
X0140989Y0275457D02*
X0135201Y0275457D01*
X0134675Y0278450D02*
X0140515Y0278450D01*
X0139476Y0279048D02*
X0135714Y0279048D01*
X0136313Y0279647D02*
X0138877Y0279647D01*
X0138324Y0280245D02*
X0136866Y0280245D01*
X0137114Y0280844D02*
X0138076Y0280844D01*
X0137828Y0281442D02*
X0137362Y0281442D01*
X0137595Y0282005D02*
X0137595Y0283995D01*
X0138356Y0285832D01*
X0139224Y0286700D01*
X0135966Y0286700D01*
X0136834Y0285832D01*
X0137595Y0283995D01*
X0137595Y0282005D01*
X0137595Y0282041D02*
X0137595Y0282041D01*
X0137595Y0282639D02*
X0137595Y0282639D01*
X0137595Y0283238D02*
X0137595Y0283238D01*
X0137595Y0283836D02*
X0137595Y0283836D01*
X0137413Y0284435D02*
X0137777Y0284435D01*
X0138025Y0285033D02*
X0137165Y0285033D01*
X0136917Y0285632D02*
X0138273Y0285632D01*
X0138754Y0286230D02*
X0136436Y0286230D01*
X0198829Y0251491D02*
X0200705Y0251491D01*
X0203295Y0248900D02*
X0203345Y0248850D01*
X0203395Y0248900D01*
X0205977Y0246729D02*
X0206733Y0246729D01*
X0205832Y0246130D02*
X0205379Y0246130D01*
X0205283Y0245532D02*
X0204995Y0245532D01*
X0199817Y0246729D02*
X0198086Y0246729D01*
X0197488Y0246130D02*
X0199219Y0246130D01*
X0198620Y0245532D02*
X0196889Y0245532D01*
X0196291Y0244933D02*
X0198022Y0244933D01*
X0211103Y0246130D02*
X0223595Y0246130D01*
X0223595Y0245532D02*
X0211652Y0245532D01*
X0212028Y0244933D02*
X0223595Y0244933D01*
X0223475Y0268275D02*
X0223595Y0268275D01*
X0223595Y0268873D02*
X0223185Y0268873D01*
X0222780Y0269472D02*
X0223595Y0269472D01*
X0223595Y0270070D02*
X0222220Y0270070D01*
X0217995Y0283836D02*
X0217525Y0283836D01*
X0217386Y0284435D02*
X0218210Y0284435D01*
X0218458Y0285033D02*
X0217171Y0285033D01*
X0216863Y0285632D02*
X0218722Y0285632D01*
X0219320Y0286230D02*
X0216429Y0286230D01*
X0188263Y0220394D02*
X0186928Y0220394D01*
X0186462Y0219796D02*
X0188729Y0219796D01*
D16*
X0167595Y0228000D03*
X0162495Y0231898D03*
X0158995Y0236300D03*
X0140995Y0243600D03*
X0143595Y0245700D03*
X0137195Y0252600D03*
X0134595Y0256400D03*
X0128695Y0259100D03*
X0119795Y0263600D03*
X0116195Y0261600D03*
X0103295Y0264900D03*
X0105595Y0270000D03*
X0096695Y0260800D03*
X0099395Y0258000D03*
X0107195Y0251500D03*
X0109495Y0253600D03*
X0111695Y0251400D03*
X0114295Y0253500D03*
X0120895Y0249300D03*
X0116695Y0243200D03*
X0112595Y0234700D03*
X0128795Y0242800D03*
X0099995Y0248400D03*
X0096695Y0248600D03*
X0057795Y0256800D03*
X0049095Y0256800D03*
X0042995Y0265000D03*
X0049395Y0268800D03*
X0066395Y0272000D03*
X0133686Y0271800D03*
X0143195Y0271800D03*
X0146195Y0271700D03*
X0149195Y0271700D03*
X0153895Y0260600D03*
X0178895Y0258100D03*
X0183895Y0258100D03*
X0188895Y0258100D03*
X0203354Y0251922D03*
X0203395Y0248900D03*
X0199695Y0249400D03*
X0184795Y0237200D03*
X0207795Y0231700D03*
D17*
X0220595Y0231700D01*
X0225095Y0236200D01*
X0225095Y0280500D01*
X0222595Y0283000D01*
X0193595Y0260100D02*
X0193495Y0260200D01*
X0184795Y0237200D02*
X0184795Y0233300D01*
X0189795Y0228300D01*
X0197295Y0228300D01*
X0202595Y0223000D01*
M02*
