G75*
G70*
%OFA0B0*%
%FSLAX24Y24*%
%IPPOS*%
%LPD*%
%AMOC8*
5,1,8,0,0,1.08239X$1,22.5*
%
%ADD10R,0.0433X0.0394*%
%ADD11R,0.0394X0.0433*%
%ADD12R,0.0315X0.0315*%
%ADD13R,0.0600X0.0300*%
%ADD14R,0.0984X0.0197*%
%ADD15R,0.0984X0.0787*%
%ADD16R,0.0472X0.0315*%
%ADD17R,0.0787X0.0945*%
%ADD18R,0.0551X0.0315*%
%ADD19R,0.0866X0.0709*%
%ADD20R,0.0315X0.0138*%
%ADD21R,0.0327X0.0248*%
%ADD22R,0.0248X0.0327*%
D10*
X003635Y001550D03*
X004305Y001550D03*
X004305Y002930D03*
X003635Y002930D03*
X005275Y003590D03*
X004485Y003650D03*
X003815Y003650D03*
X003205Y003650D03*
X002535Y003650D03*
X005945Y003590D03*
X006615Y003590D03*
X007285Y003590D03*
X012475Y002070D03*
X013145Y002070D03*
X013255Y003630D03*
X013925Y003630D03*
X007325Y005450D03*
X006655Y005450D03*
D11*
X013410Y004865D03*
X013410Y004195D03*
X015170Y003485D03*
X015710Y003485D03*
X016530Y003485D03*
X016530Y002815D03*
X015710Y002815D03*
X015170Y002815D03*
X008647Y002313D03*
X008647Y001644D03*
D12*
X014595Y002290D03*
X015185Y002290D03*
X013930Y004895D03*
X013930Y005485D03*
D13*
X007730Y002880D03*
X005730Y002880D03*
X005730Y001380D03*
X007730Y001380D03*
X004550Y004400D03*
X002550Y004400D03*
X002550Y005900D03*
X004550Y005900D03*
D14*
X018066Y004280D03*
X018066Y003965D03*
X018066Y003650D03*
X018066Y003335D03*
X018066Y003020D03*
D15*
X018066Y001878D03*
X020231Y001878D03*
X018066Y005382D03*
X020231Y005422D03*
D16*
X014590Y003484D03*
X014590Y002776D03*
X013690Y002844D03*
X013690Y002136D03*
D17*
X007277Y004450D03*
X005703Y004450D03*
D18*
X015030Y004179D03*
X015030Y004770D03*
X015030Y005361D03*
D19*
X016243Y004770D03*
D20*
G36*
X012727Y003921D02*
X012506Y003700D01*
X012409Y003797D01*
X012630Y004018D01*
X012727Y003921D01*
G37*
G36*
X012546Y004102D02*
X012325Y003881D01*
X012228Y003978D01*
X012449Y004199D01*
X012546Y004102D01*
G37*
G36*
X012365Y004283D02*
X012144Y004062D01*
X012047Y004159D01*
X012268Y004380D01*
X012365Y004283D01*
G37*
G36*
X012184Y004464D02*
X011963Y004243D01*
X011866Y004340D01*
X012087Y004561D01*
X012184Y004464D01*
G37*
G36*
X012004Y004645D02*
X011783Y004424D01*
X011686Y004521D01*
X011907Y004742D01*
X012004Y004645D01*
G37*
G36*
X011823Y004826D02*
X011602Y004605D01*
X011505Y004702D01*
X011726Y004923D01*
X011823Y004826D01*
G37*
G36*
X011324Y004883D02*
X011545Y005104D01*
X011642Y005007D01*
X011421Y004786D01*
X011324Y004883D01*
G37*
G36*
X011143Y005063D02*
X011364Y005284D01*
X011461Y005187D01*
X011240Y004966D01*
X011143Y005063D01*
G37*
G36*
X010962Y005244D02*
X011183Y005465D01*
X011280Y005368D01*
X011059Y005147D01*
X010962Y005244D01*
G37*
G36*
X010781Y005425D02*
X011002Y005646D01*
X011099Y005549D01*
X010878Y005328D01*
X010781Y005425D01*
G37*
G36*
X010600Y005606D02*
X010821Y005827D01*
X010918Y005730D01*
X010697Y005509D01*
X010600Y005606D01*
G37*
G36*
X010279Y005827D02*
X010500Y005606D01*
X010403Y005509D01*
X010182Y005730D01*
X010279Y005827D01*
G37*
G36*
X010098Y005646D02*
X010319Y005425D01*
X010222Y005328D01*
X010001Y005549D01*
X010098Y005646D01*
G37*
G36*
X009917Y005465D02*
X010138Y005244D01*
X010041Y005147D01*
X009820Y005368D01*
X009917Y005465D01*
G37*
G36*
X009736Y005284D02*
X009957Y005063D01*
X009860Y004966D01*
X009639Y005187D01*
X009736Y005284D01*
G37*
G36*
X009555Y005104D02*
X009776Y004883D01*
X009679Y004786D01*
X009458Y005007D01*
X009555Y005104D01*
G37*
G36*
X009374Y004923D02*
X009595Y004702D01*
X009498Y004605D01*
X009277Y004826D01*
X009374Y004923D01*
G37*
G36*
X009317Y004424D02*
X009096Y004645D01*
X009193Y004742D01*
X009414Y004521D01*
X009317Y004424D01*
G37*
G36*
X009137Y004243D02*
X008916Y004464D01*
X009013Y004561D01*
X009234Y004340D01*
X009137Y004243D01*
G37*
G36*
X008956Y004062D02*
X008735Y004283D01*
X008832Y004380D01*
X009053Y004159D01*
X008956Y004062D01*
G37*
G36*
X008775Y003881D02*
X008554Y004102D01*
X008651Y004199D01*
X008872Y003978D01*
X008775Y003881D01*
G37*
G36*
X008594Y003700D02*
X008373Y003921D01*
X008470Y004018D01*
X008691Y003797D01*
X008594Y003700D01*
G37*
G36*
X008373Y003379D02*
X008594Y003600D01*
X008691Y003503D01*
X008470Y003282D01*
X008373Y003379D01*
G37*
G36*
X008554Y003198D02*
X008775Y003419D01*
X008872Y003322D01*
X008651Y003101D01*
X008554Y003198D01*
G37*
G36*
X008735Y003017D02*
X008956Y003238D01*
X009053Y003141D01*
X008832Y002920D01*
X008735Y003017D01*
G37*
G36*
X008916Y002836D02*
X009137Y003057D01*
X009234Y002960D01*
X009013Y002739D01*
X008916Y002836D01*
G37*
G36*
X009096Y002655D02*
X009317Y002876D01*
X009414Y002779D01*
X009193Y002558D01*
X009096Y002655D01*
G37*
G36*
X009277Y002474D02*
X009498Y002695D01*
X009595Y002598D01*
X009374Y002377D01*
X009277Y002474D01*
G37*
G36*
X009776Y002417D02*
X009555Y002196D01*
X009458Y002293D01*
X009679Y002514D01*
X009776Y002417D01*
G37*
G36*
X009957Y002237D02*
X009736Y002016D01*
X009639Y002113D01*
X009860Y002334D01*
X009957Y002237D01*
G37*
G36*
X010138Y002056D02*
X009917Y001835D01*
X009820Y001932D01*
X010041Y002153D01*
X010138Y002056D01*
G37*
G36*
X010319Y001875D02*
X010098Y001654D01*
X010001Y001751D01*
X010222Y001972D01*
X010319Y001875D01*
G37*
G36*
X010500Y001694D02*
X010279Y001473D01*
X010182Y001570D01*
X010403Y001791D01*
X010500Y001694D01*
G37*
G36*
X010821Y001473D02*
X010600Y001694D01*
X010697Y001791D01*
X010918Y001570D01*
X010821Y001473D01*
G37*
G36*
X011002Y001654D02*
X010781Y001875D01*
X010878Y001972D01*
X011099Y001751D01*
X011002Y001654D01*
G37*
G36*
X011183Y001835D02*
X010962Y002056D01*
X011059Y002153D01*
X011280Y001932D01*
X011183Y001835D01*
G37*
G36*
X011364Y002016D02*
X011143Y002237D01*
X011240Y002334D01*
X011461Y002113D01*
X011364Y002016D01*
G37*
G36*
X011545Y002196D02*
X011324Y002417D01*
X011421Y002514D01*
X011642Y002293D01*
X011545Y002196D01*
G37*
G36*
X011726Y002377D02*
X011505Y002598D01*
X011602Y002695D01*
X011823Y002474D01*
X011726Y002377D01*
G37*
G36*
X011783Y002876D02*
X012004Y002655D01*
X011907Y002558D01*
X011686Y002779D01*
X011783Y002876D01*
G37*
G36*
X011963Y003057D02*
X012184Y002836D01*
X012087Y002739D01*
X011866Y002960D01*
X011963Y003057D01*
G37*
G36*
X012144Y003238D02*
X012365Y003017D01*
X012268Y002920D01*
X012047Y003141D01*
X012144Y003238D01*
G37*
G36*
X012325Y003419D02*
X012546Y003198D01*
X012449Y003101D01*
X012228Y003322D01*
X012325Y003419D01*
G37*
G36*
X012506Y003600D02*
X012727Y003379D01*
X012630Y003282D01*
X012409Y003503D01*
X012506Y003600D01*
G37*
D21*
X017050Y003803D03*
X017050Y002897D03*
D22*
X017023Y002050D03*
X016117Y002050D03*
M02*
