G75*
G70*
%OFA0B0*%
%FSLAX24Y24*%
%IPPOS*%
%LPD*%
%AMOC8*
5,1,8,0,0,1.08239X$1,22.5*
%
%ADD10R,0.0513X0.0474*%
%ADD11R,0.0474X0.0513*%
%ADD12R,0.0395X0.0395*%
%ADD13R,0.0680X0.0380*%
%ADD14R,0.1064X0.0277*%
%ADD15R,0.1064X0.0867*%
%ADD16C,0.0434*%
%ADD17R,0.0552X0.0395*%
%ADD18R,0.0867X0.1025*%
%ADD19C,0.0740*%
%ADD20C,0.0820*%
%ADD21C,0.0946*%
%ADD22R,0.0620X0.0413*%
%ADD23R,0.0395X0.0218*%
%ADD24R,0.0407X0.0328*%
%ADD25R,0.0328X0.0407*%
%ADD26C,0.0370*%
D10*
X003635Y001550D03*
X004305Y001550D03*
X004305Y002930D03*
X003635Y002930D03*
X005275Y003590D03*
X004485Y003650D03*
X003815Y003650D03*
X003205Y003650D03*
X002535Y003650D03*
X005945Y003590D03*
X006615Y003590D03*
X007285Y003590D03*
X012475Y002070D03*
X013145Y002070D03*
X013255Y003630D03*
X013925Y003630D03*
X007325Y005450D03*
X006655Y005450D03*
D11*
X013410Y004865D03*
X013410Y004195D03*
X015170Y003485D03*
X015710Y003485D03*
X016530Y003485D03*
X016530Y002815D03*
X015710Y002815D03*
X015170Y002815D03*
X008647Y002313D03*
X008647Y001644D03*
D12*
X014595Y002290D03*
X015185Y002290D03*
X013930Y004895D03*
X013930Y005485D03*
D13*
X007730Y002880D03*
X005730Y002880D03*
X005730Y001380D03*
X007730Y001380D03*
X004550Y004400D03*
X002550Y004400D03*
X002550Y005900D03*
X004550Y005900D03*
D14*
X018066Y004280D03*
X018066Y003965D03*
X018066Y003650D03*
X018066Y003335D03*
X018066Y003020D03*
D15*
X018066Y001878D03*
X020231Y001878D03*
X018066Y005382D03*
X020231Y005422D03*
D16*
X019050Y004516D03*
X019050Y002784D03*
D17*
X014590Y002776D03*
X013690Y002844D03*
X013690Y002136D03*
X014590Y003484D03*
D18*
X007277Y004450D03*
X005703Y004450D03*
D19*
X004990Y002730D03*
X004990Y001730D03*
D20*
X001550Y000650D03*
X002550Y000650D03*
X003550Y000650D03*
X004550Y000650D03*
X005550Y000650D03*
X006550Y000650D03*
X007550Y000650D03*
X008550Y000650D03*
X009550Y000650D03*
X010550Y000650D03*
X011550Y000650D03*
X012550Y000650D03*
X013550Y000650D03*
X014550Y000650D03*
X015550Y000650D03*
X016550Y000650D03*
X017550Y000650D03*
X018550Y000650D03*
X019550Y000650D03*
X020550Y000650D03*
X020550Y006650D03*
X019550Y006650D03*
X018550Y006650D03*
X017550Y006650D03*
X016550Y006650D03*
X015550Y006650D03*
X014550Y006650D03*
X013550Y006650D03*
X012550Y006650D03*
X011550Y006650D03*
X010550Y006650D03*
X009550Y006650D03*
X008550Y006650D03*
X007550Y006650D03*
X006550Y006650D03*
X005550Y006650D03*
X004550Y006650D03*
X003550Y006650D03*
X002550Y006650D03*
X001550Y006650D03*
X001550Y005650D03*
X001550Y004650D03*
X001550Y003650D03*
X001550Y002650D03*
X001550Y001650D03*
D21*
X015885Y004770D02*
X016475Y004770D01*
D22*
X015028Y004770D03*
X015028Y004179D03*
X015028Y005361D03*
D23*
G36*
X012241Y004464D02*
X011963Y004186D01*
X011809Y004340D01*
X012087Y004618D01*
X012241Y004464D01*
G37*
G36*
X012061Y004645D02*
X011783Y004367D01*
X011629Y004521D01*
X011907Y004799D01*
X012061Y004645D01*
G37*
G36*
X011880Y004826D02*
X011602Y004548D01*
X011448Y004702D01*
X011726Y004980D01*
X011880Y004826D01*
G37*
G36*
X011267Y004883D02*
X011545Y005161D01*
X011699Y005007D01*
X011421Y004729D01*
X011267Y004883D01*
G37*
G36*
X011086Y005063D02*
X011364Y005341D01*
X011518Y005187D01*
X011240Y004909D01*
X011086Y005063D01*
G37*
G36*
X010905Y005244D02*
X011183Y005522D01*
X011337Y005368D01*
X011059Y005090D01*
X010905Y005244D01*
G37*
G36*
X010724Y005425D02*
X011002Y005703D01*
X011156Y005549D01*
X010878Y005271D01*
X010724Y005425D01*
G37*
G36*
X010543Y005606D02*
X010821Y005884D01*
X010975Y005730D01*
X010697Y005452D01*
X010543Y005606D01*
G37*
G36*
X010279Y005884D02*
X010557Y005606D01*
X010403Y005452D01*
X010125Y005730D01*
X010279Y005884D01*
G37*
G36*
X010098Y005703D02*
X010376Y005425D01*
X010222Y005271D01*
X009944Y005549D01*
X010098Y005703D01*
G37*
G36*
X009917Y005522D02*
X010195Y005244D01*
X010041Y005090D01*
X009763Y005368D01*
X009917Y005522D01*
G37*
G36*
X009736Y005341D02*
X010014Y005063D01*
X009860Y004909D01*
X009582Y005187D01*
X009736Y005341D01*
G37*
G36*
X009555Y005161D02*
X009833Y004883D01*
X009679Y004729D01*
X009401Y005007D01*
X009555Y005161D01*
G37*
G36*
X009374Y004980D02*
X009652Y004702D01*
X009498Y004548D01*
X009220Y004826D01*
X009374Y004980D01*
G37*
G36*
X009317Y004367D02*
X009039Y004645D01*
X009193Y004799D01*
X009471Y004521D01*
X009317Y004367D01*
G37*
G36*
X009137Y004186D02*
X008859Y004464D01*
X009013Y004618D01*
X009291Y004340D01*
X009137Y004186D01*
G37*
G36*
X008956Y004005D02*
X008678Y004283D01*
X008832Y004437D01*
X009110Y004159D01*
X008956Y004005D01*
G37*
G36*
X008775Y003824D02*
X008497Y004102D01*
X008651Y004256D01*
X008929Y003978D01*
X008775Y003824D01*
G37*
G36*
X008594Y003643D02*
X008316Y003921D01*
X008470Y004075D01*
X008748Y003797D01*
X008594Y003643D01*
G37*
G36*
X008316Y003379D02*
X008594Y003657D01*
X008748Y003503D01*
X008470Y003225D01*
X008316Y003379D01*
G37*
G36*
X008497Y003198D02*
X008775Y003476D01*
X008929Y003322D01*
X008651Y003044D01*
X008497Y003198D01*
G37*
G36*
X008678Y003017D02*
X008956Y003295D01*
X009110Y003141D01*
X008832Y002863D01*
X008678Y003017D01*
G37*
G36*
X008859Y002836D02*
X009137Y003114D01*
X009291Y002960D01*
X009013Y002682D01*
X008859Y002836D01*
G37*
G36*
X009039Y002655D02*
X009317Y002933D01*
X009471Y002779D01*
X009193Y002501D01*
X009039Y002655D01*
G37*
G36*
X009220Y002474D02*
X009498Y002752D01*
X009652Y002598D01*
X009374Y002320D01*
X009220Y002474D01*
G37*
G36*
X009833Y002417D02*
X009555Y002139D01*
X009401Y002293D01*
X009679Y002571D01*
X009833Y002417D01*
G37*
G36*
X010014Y002237D02*
X009736Y001959D01*
X009582Y002113D01*
X009860Y002391D01*
X010014Y002237D01*
G37*
G36*
X010195Y002056D02*
X009917Y001778D01*
X009763Y001932D01*
X010041Y002210D01*
X010195Y002056D01*
G37*
G36*
X010376Y001875D02*
X010098Y001597D01*
X009944Y001751D01*
X010222Y002029D01*
X010376Y001875D01*
G37*
G36*
X010557Y001694D02*
X010279Y001416D01*
X010125Y001570D01*
X010403Y001848D01*
X010557Y001694D01*
G37*
G36*
X010821Y001416D02*
X010543Y001694D01*
X010697Y001848D01*
X010975Y001570D01*
X010821Y001416D01*
G37*
G36*
X011002Y001597D02*
X010724Y001875D01*
X010878Y002029D01*
X011156Y001751D01*
X011002Y001597D01*
G37*
G36*
X011183Y001778D02*
X010905Y002056D01*
X011059Y002210D01*
X011337Y001932D01*
X011183Y001778D01*
G37*
G36*
X011364Y001959D02*
X011086Y002237D01*
X011240Y002391D01*
X011518Y002113D01*
X011364Y001959D01*
G37*
G36*
X011545Y002139D02*
X011267Y002417D01*
X011421Y002571D01*
X011699Y002293D01*
X011545Y002139D01*
G37*
G36*
X011726Y002320D02*
X011448Y002598D01*
X011602Y002752D01*
X011880Y002474D01*
X011726Y002320D01*
G37*
G36*
X011783Y002933D02*
X012061Y002655D01*
X011907Y002501D01*
X011629Y002779D01*
X011783Y002933D01*
G37*
G36*
X011963Y003114D02*
X012241Y002836D01*
X012087Y002682D01*
X011809Y002960D01*
X011963Y003114D01*
G37*
G36*
X012144Y003295D02*
X012422Y003017D01*
X012268Y002863D01*
X011990Y003141D01*
X012144Y003295D01*
G37*
G36*
X012325Y003476D02*
X012603Y003198D01*
X012449Y003044D01*
X012171Y003322D01*
X012325Y003476D01*
G37*
G36*
X012506Y003657D02*
X012784Y003379D01*
X012630Y003225D01*
X012352Y003503D01*
X012506Y003657D01*
G37*
G36*
X012784Y003921D02*
X012506Y003643D01*
X012352Y003797D01*
X012630Y004075D01*
X012784Y003921D01*
G37*
G36*
X012603Y004102D02*
X012325Y003824D01*
X012171Y003978D01*
X012449Y004256D01*
X012603Y004102D01*
G37*
G36*
X012422Y004283D02*
X012144Y004005D01*
X011990Y004159D01*
X012268Y004437D01*
X012422Y004283D01*
G37*
D24*
X017050Y003803D03*
X017050Y002897D03*
D25*
X017023Y002050D03*
X016117Y002050D03*
D26*
X015710Y001970D03*
X017050Y001150D03*
X019050Y002090D03*
X020330Y003070D03*
X020330Y003490D03*
X020330Y003890D03*
X018910Y003490D03*
X017330Y003330D03*
X016190Y003990D03*
X017130Y004290D03*
X014490Y004010D03*
X012810Y003650D03*
X012010Y003610D03*
X011750Y003990D03*
X011150Y004610D03*
X010270Y004710D03*
X009910Y004510D03*
X009270Y003890D03*
X008930Y003670D03*
X009550Y003630D03*
X009830Y003290D03*
X008370Y002990D03*
X007950Y003310D03*
X008130Y004030D03*
X006610Y004230D03*
X008110Y004710D03*
X008690Y005210D03*
X005690Y005190D03*
X004550Y005450D03*
X003230Y005230D03*
X002590Y004850D03*
X003870Y004230D03*
X003290Y004150D03*
X009130Y001710D03*
X010450Y002430D03*
X011170Y002630D03*
X013010Y002930D03*
X013130Y002550D03*
X013510Y005370D03*
X013090Y005530D03*
X012610Y005530D03*
X011770Y005350D03*
X016190Y005550D03*
X017050Y005350D03*
X018950Y005870D03*
M02*
