G75*
G70*
%OFA0B0*%
%FSLAX24Y24*%
%IPPOS*%
%LPD*%
%AMOC8*
5,1,8,0,0,1.08239X$1,22.5*
%
%ADD10C,0.0660*%
%ADD11C,0.0740*%
%ADD12C,0.0290*%
%ADD13C,0.0100*%
%ADD14C,0.0080*%
%ADD15C,0.0160*%
D10*
X004990Y001730D03*
X004990Y002730D03*
D11*
X001550Y000650D03*
X002550Y000650D03*
X003550Y000650D03*
X004550Y000650D03*
X005550Y000650D03*
X006550Y000650D03*
X007550Y000650D03*
X008550Y000650D03*
X009550Y000650D03*
X010550Y000650D03*
X011550Y000650D03*
X012550Y000650D03*
X013550Y000650D03*
X014550Y000650D03*
X015550Y000650D03*
X016550Y000650D03*
X017550Y000650D03*
X018550Y000650D03*
X019550Y000650D03*
X020550Y000650D03*
X020550Y006650D03*
X019550Y006650D03*
X018550Y006650D03*
X017550Y006650D03*
X016550Y006650D03*
X015550Y006650D03*
X014550Y006650D03*
X013550Y006650D03*
X012550Y006650D03*
X011550Y006650D03*
X010550Y006650D03*
X009550Y006650D03*
X008550Y006650D03*
X007550Y006650D03*
X006550Y006650D03*
X005550Y006650D03*
X004550Y006650D03*
X003550Y006650D03*
X002550Y006650D03*
X001550Y006650D03*
X001550Y005650D03*
X001550Y004650D03*
X001550Y003650D03*
X001550Y002650D03*
X001550Y001650D03*
D12*
X007950Y003310D03*
X008370Y002990D03*
X009830Y003290D03*
X009550Y003630D03*
X008930Y003670D03*
X009270Y003890D03*
X008130Y004030D03*
X006610Y004230D03*
X008110Y004710D03*
X008690Y005210D03*
X010270Y004710D03*
X009910Y004510D03*
X011150Y004610D03*
X011750Y003990D03*
X012010Y003610D03*
X012810Y003650D03*
X014490Y004010D03*
X016190Y003990D03*
X017130Y004290D03*
X018910Y003490D03*
X020330Y003490D03*
X020330Y003070D03*
X020330Y003890D03*
X017330Y003330D03*
X019050Y002090D03*
X017050Y001150D03*
X015710Y001970D03*
X013130Y002550D03*
X013010Y002930D03*
X011170Y002630D03*
X010450Y002430D03*
X009130Y001710D03*
X003290Y004150D03*
X003870Y004230D03*
X002590Y004850D03*
X003230Y005230D03*
X004550Y005450D03*
X005690Y005190D03*
X011770Y005350D03*
X012610Y005530D03*
X013090Y005530D03*
X013510Y005370D03*
X016190Y005550D03*
X017050Y005350D03*
X018950Y005870D03*
D13*
X018669Y005962D02*
X018240Y005962D01*
X018240Y005969D02*
X018129Y006080D01*
X017249Y006080D01*
X017342Y006173D01*
X017447Y006130D01*
X017653Y006130D01*
X017845Y006209D01*
X017991Y006355D01*
X018051Y006502D01*
X018068Y006450D01*
X018105Y006377D01*
X018153Y006311D01*
X018211Y006253D01*
X018277Y006205D01*
X018350Y006168D01*
X018428Y006143D01*
X018500Y006131D01*
X018500Y006600D01*
X018600Y006600D01*
X018600Y006131D01*
X018672Y006143D01*
X018750Y006168D01*
X018823Y006205D01*
X018889Y006253D01*
X018947Y006311D01*
X018995Y006377D01*
X019032Y006450D01*
X019049Y006502D01*
X019109Y006355D01*
X019255Y006209D01*
X019447Y006130D01*
X019653Y006130D01*
X019741Y006166D01*
X019675Y006100D01*
X019137Y006100D01*
X019117Y006120D01*
X019009Y006165D01*
X018891Y006165D01*
X018783Y006120D01*
X018700Y006037D01*
X018655Y005929D01*
X018655Y005811D01*
X018700Y005703D01*
X018783Y005620D01*
X018891Y005575D01*
X019009Y005575D01*
X019117Y005620D01*
X019137Y005640D01*
X019865Y005640D01*
X020382Y006157D01*
X020447Y006130D01*
X020653Y006130D01*
X020845Y006209D01*
X020850Y006215D01*
X020850Y001085D01*
X020845Y001091D01*
X020653Y001170D01*
X020447Y001170D01*
X020382Y001143D01*
X020085Y001440D01*
X019629Y001440D01*
X020409Y002220D01*
X020520Y002331D01*
X020520Y002843D01*
X020580Y002903D01*
X020625Y003011D01*
X020625Y003129D01*
X020580Y003237D01*
X020537Y003280D01*
X020580Y003323D01*
X020625Y003431D01*
X020625Y003549D01*
X020580Y003657D01*
X020547Y003690D01*
X020580Y003723D01*
X020625Y003831D01*
X020625Y003949D01*
X020580Y004057D01*
X020497Y004140D01*
X020389Y004185D01*
X020271Y004185D01*
X020163Y004140D01*
X020080Y004057D01*
X020035Y003949D01*
X020035Y003864D01*
X019700Y003529D01*
X019700Y002529D01*
X019131Y001960D01*
X016005Y001960D01*
X016005Y002029D01*
X015960Y002137D01*
X015877Y002220D01*
X015769Y002265D01*
X015651Y002265D01*
X015543Y002220D01*
X015460Y002137D01*
X015415Y002029D01*
X015415Y001944D01*
X014811Y001340D01*
X010640Y001340D01*
X010640Y002203D01*
X010700Y002263D01*
X010745Y002371D01*
X010745Y002489D01*
X010700Y002597D01*
X010617Y002680D01*
X010509Y002725D01*
X010391Y002725D01*
X010283Y002680D01*
X010200Y002597D01*
X010155Y002489D01*
X010155Y002371D01*
X010200Y002263D01*
X010260Y002203D01*
X010260Y001340D01*
X007971Y001340D01*
X007860Y001229D01*
X007758Y001127D01*
X007653Y001170D01*
X007447Y001170D01*
X007255Y001091D01*
X007109Y000945D01*
X007050Y000802D01*
X006991Y000945D01*
X006952Y000983D01*
X007409Y001440D01*
X008649Y001440D01*
X009909Y002700D01*
X010020Y002811D01*
X010020Y003063D01*
X010080Y003123D01*
X010125Y003231D01*
X010125Y003349D01*
X010080Y003457D01*
X009997Y003540D01*
X009889Y003585D01*
X009845Y003585D01*
X009845Y003689D01*
X009800Y003797D01*
X009717Y003880D01*
X009609Y003925D01*
X009565Y003925D01*
X009565Y003949D01*
X009520Y004057D01*
X009437Y004140D01*
X009329Y004185D01*
X009294Y004185D01*
X009429Y004320D01*
X009683Y004320D01*
X009743Y004260D01*
X009851Y004215D01*
X009969Y004215D01*
X010077Y004260D01*
X010160Y004343D01*
X010193Y004423D01*
X010211Y004415D01*
X010329Y004415D01*
X010437Y004460D01*
X010520Y004543D01*
X010565Y004651D01*
X010565Y004769D01*
X010520Y004877D01*
X010437Y004960D01*
X010329Y005005D01*
X010211Y005005D01*
X010199Y005000D01*
X009291Y005000D01*
X008412Y004121D01*
X008380Y004197D01*
X008297Y004280D01*
X008189Y004325D01*
X008071Y004325D01*
X007963Y004280D01*
X007880Y004197D01*
X007856Y004140D01*
X006892Y004140D01*
X006905Y004171D01*
X006905Y004289D01*
X006860Y004397D01*
X006777Y004480D01*
X006669Y004525D01*
X006584Y004525D01*
X006369Y004740D01*
X003989Y004740D01*
X003525Y005204D01*
X003525Y005289D01*
X003480Y005397D01*
X003397Y005480D01*
X003289Y005525D01*
X003171Y005525D01*
X003063Y005480D01*
X002980Y005397D01*
X002935Y005289D01*
X002935Y005171D01*
X002980Y005063D01*
X003003Y005040D01*
X002817Y005040D01*
X002757Y005100D01*
X002649Y005145D01*
X002531Y005145D01*
X002423Y005100D01*
X002340Y005017D01*
X002295Y004909D01*
X002295Y004791D01*
X002340Y004683D01*
X002423Y004600D01*
X002531Y004555D01*
X002649Y004555D01*
X002757Y004600D01*
X002817Y004660D01*
X003171Y004660D01*
X003575Y004256D01*
X003575Y004171D01*
X003620Y004063D01*
X003703Y003980D01*
X003751Y003960D01*
X002391Y003960D01*
X002280Y003849D01*
X002070Y003639D01*
X002070Y003753D01*
X001991Y003945D01*
X001845Y004091D01*
X001698Y004151D01*
X001750Y004168D01*
X001823Y004205D01*
X001889Y004253D01*
X001947Y004311D01*
X001995Y004377D01*
X002032Y004450D01*
X002057Y004528D01*
X002069Y004600D01*
X001600Y004600D01*
X001600Y004700D01*
X002069Y004700D01*
X002057Y004772D01*
X002032Y004850D01*
X001995Y004923D01*
X001947Y004989D01*
X001889Y005047D01*
X001823Y005095D01*
X001750Y005132D01*
X001698Y005149D01*
X001845Y005209D01*
X001991Y005355D01*
X002070Y005547D01*
X002070Y005753D01*
X001991Y005945D01*
X001845Y006091D01*
X001702Y006150D01*
X001845Y006209D01*
X001991Y006355D01*
X002050Y006498D01*
X002109Y006355D01*
X002255Y006209D01*
X002447Y006130D01*
X002653Y006130D01*
X002845Y006209D01*
X002991Y006355D01*
X003050Y006498D01*
X003109Y006355D01*
X003255Y006209D01*
X003447Y006130D01*
X003653Y006130D01*
X003758Y006173D01*
X003860Y006071D01*
X003860Y005391D01*
X004240Y005011D01*
X004351Y004900D01*
X005619Y004900D01*
X005631Y004895D01*
X005749Y004895D01*
X005761Y004900D01*
X007651Y004900D01*
X007815Y004736D01*
X007815Y004651D01*
X007860Y004543D01*
X007943Y004460D01*
X008051Y004415D01*
X008169Y004415D01*
X008277Y004460D01*
X008360Y004543D01*
X008405Y004651D01*
X008405Y004769D01*
X008360Y004877D01*
X008277Y004960D01*
X008169Y005005D01*
X008084Y005005D01*
X007920Y005169D01*
X007809Y005280D01*
X005972Y005280D01*
X005940Y005357D01*
X005857Y005440D01*
X005749Y005485D01*
X005631Y005485D01*
X005523Y005440D01*
X005440Y005357D01*
X005408Y005280D01*
X004797Y005280D01*
X004800Y005283D01*
X004845Y005391D01*
X004845Y005476D01*
X005329Y005960D01*
X010771Y005960D01*
X011280Y005451D01*
X011280Y005009D01*
X011176Y004905D01*
X011091Y004905D01*
X010983Y004860D01*
X010900Y004777D01*
X010855Y004669D01*
X010855Y004551D01*
X010900Y004443D01*
X010983Y004360D01*
X011091Y004315D01*
X011209Y004315D01*
X011317Y004360D01*
X011400Y004443D01*
X011445Y004551D01*
X011445Y004636D01*
X011660Y004851D01*
X011660Y005609D01*
X011549Y005720D01*
X010952Y006317D01*
X010991Y006355D01*
X011050Y006498D01*
X011109Y006355D01*
X011255Y006209D01*
X011447Y006130D01*
X011653Y006130D01*
X011845Y006209D01*
X011991Y006355D01*
X012050Y006498D01*
X012109Y006355D01*
X012255Y006209D01*
X012330Y006178D01*
X012171Y006020D01*
X012060Y005909D01*
X012060Y004569D01*
X011776Y004285D01*
X011691Y004285D01*
X011583Y004240D01*
X011500Y004157D01*
X011455Y004049D01*
X011455Y003931D01*
X011500Y003823D01*
X011583Y003740D01*
X011691Y003695D01*
X011726Y003695D01*
X011715Y003669D01*
X011715Y003551D01*
X011760Y003443D01*
X011843Y003360D01*
X011919Y003328D01*
X011411Y002820D01*
X011397Y002820D01*
X011337Y002880D01*
X011229Y002925D01*
X011111Y002925D01*
X011003Y002880D01*
X010920Y002797D01*
X010875Y002689D01*
X010875Y002571D01*
X010920Y002463D01*
X011003Y002380D01*
X011111Y002335D01*
X011229Y002335D01*
X011337Y002380D01*
X011397Y002440D01*
X011569Y002440D01*
X012489Y003360D01*
X012600Y003471D01*
X012600Y003751D01*
X013129Y004280D01*
X014580Y004280D01*
X014580Y003571D01*
X014691Y003460D01*
X017031Y003460D01*
X016980Y003409D01*
X016591Y003020D01*
X013292Y003020D01*
X013260Y003097D01*
X013177Y003180D01*
X013069Y003225D01*
X012951Y003225D01*
X012843Y003180D01*
X012760Y003097D01*
X012715Y002989D01*
X012715Y002871D01*
X012760Y002763D01*
X012843Y002680D01*
X012861Y002672D01*
X012835Y002609D01*
X012835Y002491D01*
X012880Y002383D01*
X012963Y002300D01*
X013071Y002255D01*
X013189Y002255D01*
X013297Y002300D01*
X013380Y002383D01*
X013412Y002460D01*
X018289Y002460D01*
X018673Y002844D01*
X018673Y002709D01*
X018730Y002570D01*
X018836Y002464D01*
X018975Y002407D01*
X019125Y002407D01*
X019264Y002464D01*
X019370Y002570D01*
X019427Y002709D01*
X019427Y002859D01*
X019370Y002998D01*
X019264Y003104D01*
X019125Y003161D01*
X018990Y003161D01*
X019063Y003234D01*
X019077Y003240D01*
X019160Y003323D01*
X019205Y003431D01*
X019205Y003549D01*
X019160Y003657D01*
X019077Y003740D01*
X018969Y003785D01*
X018851Y003785D01*
X018743Y003740D01*
X018660Y003657D01*
X018615Y003549D01*
X018615Y003431D01*
X018647Y003355D01*
X018131Y002840D01*
X016949Y002840D01*
X017181Y003072D01*
X017271Y003035D01*
X017389Y003035D01*
X017497Y003080D01*
X017580Y003163D01*
X017625Y003271D01*
X017625Y003389D01*
X017595Y003460D01*
X018129Y003460D01*
X018240Y003571D01*
X018240Y005969D01*
X018240Y005863D02*
X018655Y005863D01*
X018674Y005765D02*
X018240Y005765D01*
X018240Y005666D02*
X018737Y005666D01*
X018240Y005568D02*
X020850Y005568D01*
X020850Y005666D02*
X019891Y005666D01*
X019990Y005765D02*
X020850Y005765D01*
X020850Y005863D02*
X020088Y005863D01*
X020187Y005962D02*
X020850Y005962D01*
X020850Y006060D02*
X020285Y006060D01*
X020722Y006159D02*
X020850Y006159D01*
X019733Y006159D02*
X019722Y006159D01*
X019378Y006159D02*
X019024Y006159D01*
X018876Y006159D02*
X018720Y006159D01*
X018723Y006060D02*
X018149Y006060D01*
X018380Y006159D02*
X017722Y006159D01*
X017892Y006257D02*
X018208Y006257D01*
X018121Y006356D02*
X017991Y006356D01*
X018032Y006454D02*
X018067Y006454D01*
X018500Y006454D02*
X018600Y006454D01*
X018600Y006356D02*
X018500Y006356D01*
X018500Y006257D02*
X018600Y006257D01*
X018600Y006159D02*
X018500Y006159D01*
X018892Y006257D02*
X019208Y006257D01*
X019109Y006356D02*
X018979Y006356D01*
X019033Y006454D02*
X019068Y006454D01*
X018600Y006553D02*
X018500Y006553D01*
X017378Y006159D02*
X017327Y006159D01*
X018240Y005469D02*
X020850Y005469D01*
X020850Y005371D02*
X018240Y005371D01*
X018240Y005272D02*
X020850Y005272D01*
X020850Y005174D02*
X018240Y005174D01*
X018240Y005075D02*
X020850Y005075D01*
X020850Y004977D02*
X018240Y004977D01*
X018240Y004878D02*
X018938Y004878D01*
X018975Y004893D02*
X018836Y004836D01*
X018730Y004730D01*
X018673Y004591D01*
X018673Y004441D01*
X018730Y004302D01*
X018836Y004196D01*
X018975Y004139D01*
X019125Y004139D01*
X019264Y004196D01*
X019370Y004302D01*
X019427Y004441D01*
X019427Y004591D01*
X019370Y004730D01*
X019264Y004836D01*
X019125Y004893D01*
X018975Y004893D01*
X019162Y004878D02*
X020850Y004878D01*
X020850Y004780D02*
X019320Y004780D01*
X019390Y004681D02*
X020850Y004681D01*
X020850Y004583D02*
X019427Y004583D01*
X019427Y004484D02*
X020850Y004484D01*
X020850Y004386D02*
X019404Y004386D01*
X019354Y004287D02*
X020850Y004287D01*
X020850Y004189D02*
X019245Y004189D01*
X018855Y004189D02*
X018240Y004189D01*
X018240Y004287D02*
X018746Y004287D01*
X018696Y004386D02*
X018240Y004386D01*
X018240Y004484D02*
X018673Y004484D01*
X018673Y004583D02*
X018240Y004583D01*
X018240Y004681D02*
X018710Y004681D01*
X018780Y004780D02*
X018240Y004780D01*
X018240Y004090D02*
X020113Y004090D01*
X020053Y003992D02*
X018240Y003992D01*
X018240Y003893D02*
X020035Y003893D01*
X019966Y003795D02*
X018240Y003795D01*
X018240Y003696D02*
X018699Y003696D01*
X018635Y003598D02*
X018240Y003598D01*
X018168Y003499D02*
X018615Y003499D01*
X018628Y003401D02*
X017620Y003401D01*
X017625Y003302D02*
X018593Y003302D01*
X018495Y003204D02*
X017597Y003204D01*
X017522Y003105D02*
X018396Y003105D01*
X018298Y003007D02*
X017115Y003007D01*
X017017Y002908D02*
X018199Y002908D01*
X018540Y002711D02*
X018673Y002711D01*
X018673Y002810D02*
X018638Y002810D01*
X018713Y002613D02*
X018441Y002613D01*
X018343Y002514D02*
X018786Y002514D01*
X018954Y002416D02*
X013394Y002416D01*
X013314Y002317D02*
X019488Y002317D01*
X019390Y002219D02*
X015879Y002219D01*
X015967Y002120D02*
X019291Y002120D01*
X019193Y002022D02*
X016005Y002022D01*
X015541Y002219D02*
X010656Y002219D01*
X010640Y002120D02*
X015453Y002120D01*
X015415Y002022D02*
X010640Y002022D01*
X010640Y001923D02*
X015394Y001923D01*
X015296Y001825D02*
X010640Y001825D01*
X010640Y001726D02*
X015197Y001726D01*
X015099Y001628D02*
X010640Y001628D01*
X010640Y001529D02*
X015000Y001529D01*
X014902Y001431D02*
X010640Y001431D01*
X010260Y001431D02*
X007399Y001431D01*
X007301Y001332D02*
X007963Y001332D01*
X007865Y001234D02*
X007202Y001234D01*
X007104Y001135D02*
X007362Y001135D01*
X007201Y001037D02*
X007005Y001037D01*
X006994Y000938D02*
X007106Y000938D01*
X007066Y000840D02*
X007034Y000840D01*
X007738Y001135D02*
X007766Y001135D01*
X008738Y001529D02*
X010260Y001529D01*
X010260Y001628D02*
X008836Y001628D01*
X008935Y001726D02*
X010260Y001726D01*
X010260Y001825D02*
X009033Y001825D01*
X009132Y001923D02*
X010260Y001923D01*
X010260Y002022D02*
X009230Y002022D01*
X009329Y002120D02*
X010260Y002120D01*
X010244Y002219D02*
X009427Y002219D01*
X009526Y002317D02*
X010177Y002317D01*
X010155Y002416D02*
X009624Y002416D01*
X009723Y002514D02*
X010165Y002514D01*
X010215Y002613D02*
X009821Y002613D01*
X009920Y002711D02*
X010358Y002711D01*
X010542Y002711D02*
X010884Y002711D01*
X010932Y002810D02*
X010018Y002810D01*
X010020Y002908D02*
X011070Y002908D01*
X011270Y002908D02*
X011499Y002908D01*
X011598Y003007D02*
X010020Y003007D01*
X010062Y003105D02*
X011696Y003105D01*
X011795Y003204D02*
X010113Y003204D01*
X010125Y003302D02*
X011893Y003302D01*
X011802Y003401D02*
X010104Y003401D01*
X010038Y003499D02*
X011737Y003499D01*
X011715Y003598D02*
X009845Y003598D01*
X009842Y003696D02*
X011689Y003696D01*
X011528Y003795D02*
X009801Y003795D01*
X009686Y003893D02*
X011471Y003893D01*
X011455Y003992D02*
X009547Y003992D01*
X009487Y004090D02*
X011472Y004090D01*
X011531Y004189D02*
X009297Y004189D01*
X009396Y004287D02*
X009716Y004287D01*
X010104Y004287D02*
X011778Y004287D01*
X011877Y004386D02*
X011343Y004386D01*
X011417Y004484D02*
X011975Y004484D01*
X012060Y004583D02*
X011445Y004583D01*
X011490Y004681D02*
X012060Y004681D01*
X012060Y004780D02*
X011588Y004780D01*
X011660Y004878D02*
X012060Y004878D01*
X012060Y004977D02*
X011660Y004977D01*
X011660Y005075D02*
X012060Y005075D01*
X012060Y005174D02*
X011660Y005174D01*
X011660Y005272D02*
X012060Y005272D01*
X012060Y005371D02*
X011660Y005371D01*
X011660Y005469D02*
X012060Y005469D01*
X012060Y005568D02*
X011660Y005568D01*
X011603Y005666D02*
X012060Y005666D01*
X012060Y005765D02*
X011504Y005765D01*
X011406Y005863D02*
X012060Y005863D01*
X012113Y005962D02*
X011307Y005962D01*
X011209Y006060D02*
X012211Y006060D01*
X012310Y006159D02*
X011722Y006159D01*
X011892Y006257D02*
X012208Y006257D01*
X012109Y006356D02*
X011991Y006356D01*
X012032Y006454D02*
X012068Y006454D01*
X011378Y006159D02*
X011110Y006159D01*
X011012Y006257D02*
X011208Y006257D01*
X011109Y006356D02*
X010991Y006356D01*
X011032Y006454D02*
X011068Y006454D01*
X010868Y005863D02*
X005232Y005863D01*
X005133Y005765D02*
X010967Y005765D01*
X011065Y005666D02*
X005035Y005666D01*
X004936Y005568D02*
X011164Y005568D01*
X011262Y005469D02*
X005787Y005469D01*
X005927Y005371D02*
X011280Y005371D01*
X011280Y005272D02*
X007817Y005272D01*
X007915Y005174D02*
X011280Y005174D01*
X011280Y005075D02*
X008014Y005075D01*
X007920Y005169D02*
X007920Y005169D01*
X008237Y004977D02*
X009268Y004977D01*
X009169Y004878D02*
X008359Y004878D01*
X008401Y004780D02*
X009071Y004780D01*
X008972Y004681D02*
X008405Y004681D01*
X008376Y004583D02*
X008874Y004583D01*
X008775Y004484D02*
X008301Y004484D01*
X008677Y004386D02*
X006865Y004386D01*
X006768Y004484D02*
X007919Y004484D01*
X007844Y004583D02*
X006526Y004583D01*
X006428Y004681D02*
X007815Y004681D01*
X007772Y004780D02*
X003949Y004780D01*
X003851Y004878D02*
X007673Y004878D01*
X007980Y004287D02*
X006905Y004287D01*
X006905Y004189D02*
X007876Y004189D01*
X008280Y004287D02*
X008578Y004287D01*
X008480Y004189D02*
X008384Y004189D01*
X010178Y004386D02*
X010957Y004386D01*
X010883Y004484D02*
X010461Y004484D01*
X010536Y004583D02*
X010855Y004583D01*
X010860Y004681D02*
X010565Y004681D01*
X010561Y004780D02*
X010902Y004780D01*
X011026Y004878D02*
X010519Y004878D01*
X010397Y004977D02*
X011248Y004977D01*
X013037Y004189D02*
X014580Y004189D01*
X014580Y004090D02*
X012939Y004090D01*
X012840Y003992D02*
X014580Y003992D01*
X014580Y003893D02*
X012742Y003893D01*
X012643Y003795D02*
X014580Y003795D01*
X014580Y003696D02*
X012600Y003696D01*
X012600Y003598D02*
X014580Y003598D01*
X014652Y003499D02*
X012600Y003499D01*
X012529Y003401D02*
X016972Y003401D01*
X016873Y003302D02*
X012431Y003302D01*
X012332Y003204D02*
X012899Y003204D01*
X012768Y003105D02*
X012234Y003105D01*
X012135Y003007D02*
X012722Y003007D01*
X012715Y002908D02*
X012037Y002908D01*
X011938Y002810D02*
X012741Y002810D01*
X012812Y002711D02*
X011840Y002711D01*
X011741Y002613D02*
X012837Y002613D01*
X012835Y002514D02*
X011643Y002514D01*
X011373Y002416D02*
X012866Y002416D01*
X012946Y002317D02*
X010723Y002317D01*
X010745Y002416D02*
X010967Y002416D01*
X010899Y002514D02*
X010735Y002514D01*
X010685Y002613D02*
X010875Y002613D01*
X013121Y003204D02*
X016775Y003204D01*
X016676Y003105D02*
X013252Y003105D01*
X019032Y003204D02*
X019700Y003204D01*
X019700Y003105D02*
X019260Y003105D01*
X019361Y003007D02*
X019700Y003007D01*
X019700Y002908D02*
X019407Y002908D01*
X019427Y002810D02*
X019700Y002810D01*
X019700Y002711D02*
X019427Y002711D01*
X019387Y002613D02*
X019700Y002613D01*
X019685Y002514D02*
X019314Y002514D01*
X019146Y002416D02*
X019587Y002416D01*
X020309Y002120D02*
X020850Y002120D01*
X020850Y002219D02*
X020407Y002219D01*
X020506Y002317D02*
X020850Y002317D01*
X020850Y002416D02*
X020520Y002416D01*
X020520Y002514D02*
X020850Y002514D01*
X020850Y002613D02*
X020520Y002613D01*
X020520Y002711D02*
X020850Y002711D01*
X020850Y002810D02*
X020520Y002810D01*
X020582Y002908D02*
X020850Y002908D01*
X020850Y003007D02*
X020623Y003007D01*
X020625Y003105D02*
X020850Y003105D01*
X020850Y003204D02*
X020594Y003204D01*
X020559Y003302D02*
X020850Y003302D01*
X020850Y003401D02*
X020612Y003401D01*
X020625Y003499D02*
X020850Y003499D01*
X020850Y003598D02*
X020605Y003598D01*
X020553Y003696D02*
X020850Y003696D01*
X020850Y003795D02*
X020610Y003795D01*
X020625Y003893D02*
X020850Y003893D01*
X020850Y003992D02*
X020607Y003992D01*
X020547Y004090D02*
X020850Y004090D01*
X019867Y003696D02*
X019121Y003696D01*
X019185Y003598D02*
X019769Y003598D01*
X019700Y003499D02*
X019205Y003499D01*
X019192Y003401D02*
X019700Y003401D01*
X019700Y003302D02*
X019139Y003302D01*
X020210Y002022D02*
X020850Y002022D01*
X020850Y001923D02*
X020112Y001923D01*
X020013Y001825D02*
X020850Y001825D01*
X020850Y001726D02*
X019915Y001726D01*
X019816Y001628D02*
X020850Y001628D01*
X020850Y001529D02*
X019718Y001529D01*
X020095Y001431D02*
X020850Y001431D01*
X020850Y001332D02*
X020193Y001332D01*
X020292Y001234D02*
X020850Y001234D01*
X020850Y001135D02*
X020738Y001135D01*
X005593Y005469D02*
X004845Y005469D01*
X004836Y005371D02*
X005453Y005371D01*
X004275Y004977D02*
X003752Y004977D01*
X003654Y005075D02*
X004176Y005075D01*
X004240Y005011D02*
X004240Y005011D01*
X004078Y005174D02*
X003555Y005174D01*
X003525Y005272D02*
X003979Y005272D01*
X003881Y005371D02*
X003491Y005371D01*
X003408Y005469D02*
X003860Y005469D01*
X003860Y005568D02*
X002070Y005568D01*
X002070Y005666D02*
X003860Y005666D01*
X003860Y005765D02*
X002065Y005765D01*
X002025Y005863D02*
X003860Y005863D01*
X003860Y005962D02*
X001974Y005962D01*
X001875Y006060D02*
X003860Y006060D01*
X003773Y006159D02*
X003722Y006159D01*
X003378Y006159D02*
X002722Y006159D01*
X002892Y006257D02*
X003208Y006257D01*
X003109Y006356D02*
X002991Y006356D01*
X003032Y006454D02*
X003068Y006454D01*
X002378Y006159D02*
X001722Y006159D01*
X001892Y006257D02*
X002208Y006257D01*
X002109Y006356D02*
X001991Y006356D01*
X002032Y006454D02*
X002068Y006454D01*
X002038Y005469D02*
X003052Y005469D01*
X002969Y005371D02*
X001997Y005371D01*
X001907Y005272D02*
X002935Y005272D01*
X002935Y005174D02*
X001758Y005174D01*
X001850Y005075D02*
X002398Y005075D01*
X002323Y004977D02*
X001956Y004977D01*
X002017Y004878D02*
X002295Y004878D01*
X002300Y004780D02*
X002055Y004780D01*
X002342Y004681D02*
X001600Y004681D01*
X002066Y004583D02*
X002465Y004583D01*
X002715Y004583D02*
X003249Y004583D01*
X003347Y004484D02*
X002043Y004484D01*
X001999Y004386D02*
X003446Y004386D01*
X003544Y004287D02*
X001922Y004287D01*
X001790Y004189D02*
X003575Y004189D01*
X003609Y004090D02*
X001845Y004090D01*
X001944Y003992D02*
X003691Y003992D01*
X002324Y003893D02*
X002012Y003893D01*
X002053Y003795D02*
X002226Y003795D01*
X002127Y003696D02*
X002070Y003696D01*
X002782Y005075D02*
X002975Y005075D01*
D14*
X003230Y005230D02*
X003910Y004550D01*
X006290Y004550D01*
X006610Y004230D01*
X006470Y003950D02*
X006190Y004230D01*
X003870Y004230D01*
X003250Y004850D01*
X002590Y004850D01*
X004050Y005470D02*
X004430Y005090D01*
X005696Y005090D01*
X005696Y005184D01*
X005690Y005190D01*
X005696Y005090D02*
X007730Y005090D01*
X008110Y004710D01*
X008330Y003770D02*
X009370Y004810D01*
X010170Y004810D01*
X010270Y004710D01*
X009910Y004510D02*
X009350Y004510D01*
X008430Y003590D01*
X002550Y003590D01*
X002150Y003190D01*
X002150Y002250D01*
X001550Y001650D01*
X002090Y001190D02*
X002850Y001190D01*
X003670Y002010D01*
X004270Y002010D01*
X004990Y002730D01*
X007370Y002730D01*
X007950Y003310D01*
X008370Y002990D02*
X007830Y002450D01*
X007030Y002450D01*
X006670Y002090D01*
X005350Y002090D01*
X004990Y001730D01*
X004910Y001650D01*
X003550Y001650D01*
X002550Y000650D01*
X003550Y000650D02*
X004050Y001150D01*
X005070Y001150D01*
X005250Y001330D01*
X005810Y001330D01*
X005950Y001470D01*
X006350Y001470D01*
X007110Y002230D01*
X008390Y002230D01*
X008930Y002770D01*
X008930Y003670D01*
X009270Y003890D02*
X009270Y002850D01*
X008470Y002050D01*
X007210Y002050D01*
X006470Y001310D01*
X006030Y001310D01*
X005870Y001150D01*
X005310Y001150D01*
X004810Y000650D01*
X004550Y000650D01*
X005550Y000650D02*
X005810Y000910D01*
X005890Y000910D01*
X006130Y001150D01*
X006590Y001150D01*
X007270Y001830D01*
X008490Y001830D01*
X009550Y002890D01*
X009550Y003630D01*
X009830Y003290D02*
X009830Y002890D01*
X008570Y001630D01*
X007330Y001630D01*
X006550Y000850D01*
X006550Y000650D01*
X007550Y000650D02*
X008050Y001150D01*
X010450Y001150D01*
X010450Y002430D01*
X011170Y002630D02*
X011490Y002630D01*
X012410Y003550D01*
X012410Y003830D01*
X013050Y004470D01*
X014930Y004470D01*
X014770Y004468D02*
X018050Y004468D01*
X018050Y004546D02*
X014770Y004546D01*
X014770Y004625D02*
X018050Y004625D01*
X018050Y004703D02*
X014770Y004703D01*
X014770Y004782D02*
X018050Y004782D01*
X018050Y004860D02*
X014770Y004860D01*
X014770Y004939D02*
X018050Y004939D01*
X018050Y005017D02*
X014770Y005017D01*
X014770Y005096D02*
X018050Y005096D01*
X018050Y005174D02*
X014770Y005174D01*
X014770Y005253D02*
X018050Y005253D01*
X018050Y005331D02*
X014770Y005331D01*
X014770Y005410D02*
X018050Y005410D01*
X018050Y005488D02*
X014770Y005488D01*
X014770Y005567D02*
X018050Y005567D01*
X018050Y005645D02*
X015303Y005645D01*
X015248Y005590D02*
X015448Y005790D01*
X016228Y005790D01*
X016328Y005890D01*
X018050Y005890D01*
X018050Y003650D01*
X014770Y003650D01*
X014770Y005590D01*
X015248Y005590D01*
X015190Y005730D02*
X015390Y005930D01*
X016170Y005930D01*
X016350Y006110D01*
X017010Y006110D01*
X017550Y006650D01*
X016550Y006650D02*
X016010Y006110D01*
X015290Y006110D01*
X015110Y005930D01*
X014410Y005930D01*
X013850Y005370D01*
X013510Y005370D01*
X013230Y005670D02*
X013090Y005530D01*
X013230Y005670D02*
X013850Y005670D01*
X014290Y006110D01*
X015010Y006110D01*
X015550Y006650D01*
X014550Y006650D02*
X013810Y005910D01*
X012990Y005910D01*
X012610Y005530D01*
X012250Y005830D02*
X012250Y004490D01*
X011750Y003990D01*
X012010Y003730D02*
X013170Y004890D01*
X013670Y004890D01*
X014490Y005710D01*
X014490Y005730D01*
X015190Y005730D01*
X015382Y005724D02*
X018050Y005724D01*
X018050Y005802D02*
X016240Y005802D01*
X016319Y005881D02*
X018050Y005881D01*
X018050Y004389D02*
X014770Y004389D01*
X014770Y004311D02*
X018050Y004311D01*
X018050Y004232D02*
X014770Y004232D01*
X014770Y004154D02*
X018050Y004154D01*
X018050Y004075D02*
X014770Y004075D01*
X014770Y003997D02*
X018050Y003997D01*
X018050Y003918D02*
X014770Y003918D01*
X014770Y003840D02*
X018050Y003840D01*
X018050Y003761D02*
X014770Y003761D01*
X014770Y003683D02*
X018050Y003683D01*
X018910Y003490D02*
X018910Y003350D01*
X018210Y002650D01*
X013230Y002650D01*
X013130Y002550D01*
X013110Y002830D02*
X016670Y002830D01*
X017170Y003330D01*
X017330Y003330D01*
X019210Y001770D02*
X019890Y002450D01*
X019890Y003450D01*
X020330Y003890D01*
X020330Y003490D02*
X020070Y003230D01*
X020070Y002390D01*
X019290Y001610D01*
X016310Y001610D01*
X015550Y000850D01*
X015550Y000650D01*
X016550Y000650D02*
X016550Y001130D01*
X016870Y001450D01*
X019370Y001450D01*
X020330Y002410D01*
X020330Y003070D01*
X019210Y001770D02*
X015910Y001770D01*
X015710Y001970D01*
X014890Y001150D01*
X010450Y001150D01*
X013010Y002930D02*
X013110Y002830D01*
X012010Y003610D02*
X012010Y003730D01*
X011150Y004610D02*
X011470Y004930D01*
X011470Y005530D01*
X010850Y006150D01*
X005250Y006150D01*
X004550Y005450D01*
X004050Y005470D02*
X004050Y006150D01*
X003550Y006650D01*
X008050Y003950D02*
X008130Y004030D01*
X008050Y003950D02*
X006470Y003950D01*
X008330Y003770D02*
X002470Y003770D01*
X001550Y002850D01*
X001550Y002650D01*
X002090Y001190D02*
X001550Y000650D01*
X012250Y005830D02*
X012550Y006130D01*
X013030Y006130D01*
X013550Y006650D01*
D15*
X018950Y005870D02*
X019770Y005870D01*
X020550Y006650D01*
X019990Y001210D02*
X017130Y001210D01*
X017070Y001150D01*
X017050Y001150D01*
X019990Y001210D02*
X020550Y000650D01*
M02*
