G75*
G70*
%OFA0B0*%
%FSLAX24Y24*%
%IPPOS*%
%LPD*%
%AMOC8*
5,1,8,0,0,1.08239X$1,22.5*
%
%ADD10C,0.0100*%
%ADD11C,0.0000*%
%ADD12C,0.1340*%
%ADD13OC8,0.1980*%
%ADD14C,0.0780*%
%ADD15R,0.0820X0.0820*%
%ADD16C,0.0820*%
%ADD17C,0.0730*%
%ADD18C,0.0560*%
%ADD19R,0.0880X0.0880*%
%ADD20C,0.0880*%
%ADD21R,0.1030X0.1030*%
%ADD22C,0.1030*%
%ADD23R,0.0730X0.0730*%
%ADD24C,0.0611*%
D10*
X001035Y001833D02*
X001035Y021333D01*
X046535Y021333D01*
X046535Y001833D01*
X001035Y001833D01*
D11*
X001961Y002902D02*
X001963Y002952D01*
X001969Y003002D01*
X001979Y003051D01*
X001993Y003099D01*
X002010Y003146D01*
X002031Y003191D01*
X002056Y003235D01*
X002084Y003276D01*
X002116Y003315D01*
X002150Y003352D01*
X002187Y003386D01*
X002227Y003416D01*
X002269Y003443D01*
X002313Y003467D01*
X002359Y003488D01*
X002406Y003504D01*
X002454Y003517D01*
X002504Y003526D01*
X002553Y003531D01*
X002604Y003532D01*
X002654Y003529D01*
X002703Y003522D01*
X002752Y003511D01*
X002800Y003496D01*
X002846Y003478D01*
X002891Y003456D01*
X002934Y003430D01*
X002975Y003401D01*
X003014Y003369D01*
X003050Y003334D01*
X003082Y003296D01*
X003112Y003256D01*
X003139Y003213D01*
X003162Y003169D01*
X003181Y003123D01*
X003197Y003075D01*
X003209Y003026D01*
X003217Y002977D01*
X003221Y002927D01*
X003221Y002877D01*
X003217Y002827D01*
X003209Y002778D01*
X003197Y002729D01*
X003181Y002681D01*
X003162Y002635D01*
X003139Y002591D01*
X003112Y002548D01*
X003082Y002508D01*
X003050Y002470D01*
X003014Y002435D01*
X002975Y002403D01*
X002934Y002374D01*
X002891Y002348D01*
X002846Y002326D01*
X002800Y002308D01*
X002752Y002293D01*
X002703Y002282D01*
X002654Y002275D01*
X002604Y002272D01*
X002553Y002273D01*
X002504Y002278D01*
X002454Y002287D01*
X002406Y002300D01*
X002359Y002316D01*
X002313Y002337D01*
X002269Y002361D01*
X002227Y002388D01*
X002187Y002418D01*
X002150Y002452D01*
X002116Y002489D01*
X002084Y002528D01*
X002056Y002569D01*
X002031Y002613D01*
X002010Y002658D01*
X001993Y002705D01*
X001979Y002753D01*
X001969Y002802D01*
X001963Y002852D01*
X001961Y002902D01*
X001855Y020333D02*
X001857Y020383D01*
X001863Y020433D01*
X001873Y020482D01*
X001887Y020530D01*
X001904Y020577D01*
X001925Y020622D01*
X001950Y020666D01*
X001978Y020707D01*
X002010Y020746D01*
X002044Y020783D01*
X002081Y020817D01*
X002121Y020847D01*
X002163Y020874D01*
X002207Y020898D01*
X002253Y020919D01*
X002300Y020935D01*
X002348Y020948D01*
X002398Y020957D01*
X002447Y020962D01*
X002498Y020963D01*
X002548Y020960D01*
X002597Y020953D01*
X002646Y020942D01*
X002694Y020927D01*
X002740Y020909D01*
X002785Y020887D01*
X002828Y020861D01*
X002869Y020832D01*
X002908Y020800D01*
X002944Y020765D01*
X002976Y020727D01*
X003006Y020687D01*
X003033Y020644D01*
X003056Y020600D01*
X003075Y020554D01*
X003091Y020506D01*
X003103Y020457D01*
X003111Y020408D01*
X003115Y020358D01*
X003115Y020308D01*
X003111Y020258D01*
X003103Y020209D01*
X003091Y020160D01*
X003075Y020112D01*
X003056Y020066D01*
X003033Y020022D01*
X003006Y019979D01*
X002976Y019939D01*
X002944Y019901D01*
X002908Y019866D01*
X002869Y019834D01*
X002828Y019805D01*
X002785Y019779D01*
X002740Y019757D01*
X002694Y019739D01*
X002646Y019724D01*
X002597Y019713D01*
X002548Y019706D01*
X002498Y019703D01*
X002447Y019704D01*
X002398Y019709D01*
X002348Y019718D01*
X002300Y019731D01*
X002253Y019747D01*
X002207Y019768D01*
X002163Y019792D01*
X002121Y019819D01*
X002081Y019849D01*
X002044Y019883D01*
X002010Y019920D01*
X001978Y019959D01*
X001950Y020000D01*
X001925Y020044D01*
X001904Y020089D01*
X001887Y020136D01*
X001873Y020184D01*
X001863Y020233D01*
X001857Y020283D01*
X001855Y020333D01*
X044355Y020333D02*
X044357Y020383D01*
X044363Y020433D01*
X044373Y020482D01*
X044387Y020530D01*
X044404Y020577D01*
X044425Y020622D01*
X044450Y020666D01*
X044478Y020707D01*
X044510Y020746D01*
X044544Y020783D01*
X044581Y020817D01*
X044621Y020847D01*
X044663Y020874D01*
X044707Y020898D01*
X044753Y020919D01*
X044800Y020935D01*
X044848Y020948D01*
X044898Y020957D01*
X044947Y020962D01*
X044998Y020963D01*
X045048Y020960D01*
X045097Y020953D01*
X045146Y020942D01*
X045194Y020927D01*
X045240Y020909D01*
X045285Y020887D01*
X045328Y020861D01*
X045369Y020832D01*
X045408Y020800D01*
X045444Y020765D01*
X045476Y020727D01*
X045506Y020687D01*
X045533Y020644D01*
X045556Y020600D01*
X045575Y020554D01*
X045591Y020506D01*
X045603Y020457D01*
X045611Y020408D01*
X045615Y020358D01*
X045615Y020308D01*
X045611Y020258D01*
X045603Y020209D01*
X045591Y020160D01*
X045575Y020112D01*
X045556Y020066D01*
X045533Y020022D01*
X045506Y019979D01*
X045476Y019939D01*
X045444Y019901D01*
X045408Y019866D01*
X045369Y019834D01*
X045328Y019805D01*
X045285Y019779D01*
X045240Y019757D01*
X045194Y019739D01*
X045146Y019724D01*
X045097Y019713D01*
X045048Y019706D01*
X044998Y019703D01*
X044947Y019704D01*
X044898Y019709D01*
X044848Y019718D01*
X044800Y019731D01*
X044753Y019747D01*
X044707Y019768D01*
X044663Y019792D01*
X044621Y019819D01*
X044581Y019849D01*
X044544Y019883D01*
X044510Y019920D01*
X044478Y019959D01*
X044450Y020000D01*
X044425Y020044D01*
X044404Y020089D01*
X044387Y020136D01*
X044373Y020184D01*
X044363Y020233D01*
X044357Y020283D01*
X044355Y020333D01*
X044355Y002833D02*
X044357Y002883D01*
X044363Y002933D01*
X044373Y002982D01*
X044387Y003030D01*
X044404Y003077D01*
X044425Y003122D01*
X044450Y003166D01*
X044478Y003207D01*
X044510Y003246D01*
X044544Y003283D01*
X044581Y003317D01*
X044621Y003347D01*
X044663Y003374D01*
X044707Y003398D01*
X044753Y003419D01*
X044800Y003435D01*
X044848Y003448D01*
X044898Y003457D01*
X044947Y003462D01*
X044998Y003463D01*
X045048Y003460D01*
X045097Y003453D01*
X045146Y003442D01*
X045194Y003427D01*
X045240Y003409D01*
X045285Y003387D01*
X045328Y003361D01*
X045369Y003332D01*
X045408Y003300D01*
X045444Y003265D01*
X045476Y003227D01*
X045506Y003187D01*
X045533Y003144D01*
X045556Y003100D01*
X045575Y003054D01*
X045591Y003006D01*
X045603Y002957D01*
X045611Y002908D01*
X045615Y002858D01*
X045615Y002808D01*
X045611Y002758D01*
X045603Y002709D01*
X045591Y002660D01*
X045575Y002612D01*
X045556Y002566D01*
X045533Y002522D01*
X045506Y002479D01*
X045476Y002439D01*
X045444Y002401D01*
X045408Y002366D01*
X045369Y002334D01*
X045328Y002305D01*
X045285Y002279D01*
X045240Y002257D01*
X045194Y002239D01*
X045146Y002224D01*
X045097Y002213D01*
X045048Y002206D01*
X044998Y002203D01*
X044947Y002204D01*
X044898Y002209D01*
X044848Y002218D01*
X044800Y002231D01*
X044753Y002247D01*
X044707Y002268D01*
X044663Y002292D01*
X044621Y002319D01*
X044581Y002349D01*
X044544Y002383D01*
X044510Y002420D01*
X044478Y002459D01*
X044450Y002500D01*
X044425Y002544D01*
X044404Y002589D01*
X044387Y002636D01*
X044373Y002684D01*
X044363Y002733D01*
X044357Y002783D01*
X044355Y002833D01*
D12*
X044985Y002833D03*
X044985Y020333D03*
X002485Y020333D03*
X002591Y002902D03*
D13*
X004255Y005783D03*
X003075Y007753D03*
X005435Y007753D03*
D14*
X007535Y007833D03*
X008535Y007833D03*
X009535Y007833D03*
X010535Y007833D03*
X011535Y007833D03*
X012535Y007833D03*
X013535Y007833D03*
X014535Y007833D03*
X015535Y007833D03*
X016535Y007833D03*
X017535Y007833D03*
X018535Y007833D03*
X019535Y007833D03*
X020535Y007833D03*
X021535Y007833D03*
X022535Y007833D03*
X023535Y007833D03*
X024535Y007833D03*
X025535Y007833D03*
X026535Y007833D03*
X027535Y007833D03*
X028535Y007833D03*
X029535Y007833D03*
X030535Y007833D03*
X031535Y007833D03*
X032535Y007833D03*
X033535Y007833D03*
X034535Y007833D03*
X026535Y009533D03*
X025535Y009533D03*
X024535Y009533D03*
X023535Y009533D03*
X022535Y009533D03*
X021535Y009533D03*
X020535Y009533D03*
X019535Y009533D03*
X018535Y009533D03*
X017535Y009533D03*
X016535Y009533D03*
X015535Y009533D03*
X014535Y009533D03*
X013535Y009533D03*
X012535Y009533D03*
X011535Y009533D03*
X010535Y009533D03*
X009535Y009533D03*
X008535Y009533D03*
X007535Y009533D03*
X007535Y015533D03*
X008535Y015533D03*
X009535Y015533D03*
X010535Y015533D03*
X011535Y015533D03*
X012535Y015533D03*
X013535Y015533D03*
X014535Y015533D03*
X015535Y015533D03*
X016535Y015533D03*
X017535Y015533D03*
X018535Y015533D03*
X019535Y015533D03*
X020535Y015533D03*
X021535Y015533D03*
X022535Y015533D03*
X023535Y015533D03*
X024535Y015533D03*
X025535Y015533D03*
X026535Y015533D03*
X026535Y016833D03*
X025535Y016833D03*
X024535Y016833D03*
X023535Y016833D03*
X022535Y016833D03*
X021535Y016833D03*
X020535Y016833D03*
X019535Y016833D03*
X018535Y016833D03*
X017535Y016833D03*
X016535Y016833D03*
X015535Y016833D03*
X014535Y016833D03*
X013535Y016833D03*
X012535Y016833D03*
X011535Y016833D03*
X010535Y016833D03*
X009535Y016833D03*
X008535Y016833D03*
X007535Y016833D03*
X027535Y016833D03*
X028535Y016833D03*
X029535Y016833D03*
X030535Y016833D03*
X031535Y016833D03*
X032535Y016833D03*
X033535Y016833D03*
X034535Y016833D03*
D15*
X005035Y016333D03*
D16*
X004035Y016333D03*
X003035Y016333D03*
X003035Y018333D03*
X004035Y018333D03*
X005035Y018333D03*
X005535Y019983D03*
X004535Y020083D03*
X006535Y020083D03*
X007535Y019983D03*
X008535Y020083D03*
X009535Y019983D03*
X010535Y020033D03*
X011535Y020033D03*
X012535Y020033D03*
X013535Y020033D03*
X014535Y020033D03*
X015535Y020033D03*
X016535Y020033D03*
X017535Y020033D03*
X018535Y020033D03*
X019535Y020033D03*
X020535Y020033D03*
X021535Y020033D03*
X022535Y020033D03*
X023535Y020033D03*
X024535Y020033D03*
X025535Y020033D03*
X026535Y020033D03*
X027535Y020033D03*
X028535Y020033D03*
X029535Y020033D03*
X030535Y020033D03*
X031535Y020033D03*
X032535Y020033D03*
X033535Y020033D03*
X033535Y019033D03*
X032535Y019033D03*
X031535Y019033D03*
X030535Y019033D03*
X029535Y019033D03*
X028535Y019033D03*
X027535Y019033D03*
X026535Y019033D03*
X025535Y019033D03*
X024535Y019033D03*
X023535Y019033D03*
X022535Y019033D03*
X021535Y019033D03*
X020535Y019033D03*
X019535Y019033D03*
X018535Y019033D03*
X017535Y019033D03*
X016535Y019033D03*
X015535Y019033D03*
X014535Y019033D03*
X013535Y019033D03*
X012535Y019033D03*
X011535Y019033D03*
X010535Y019033D03*
X010535Y018033D03*
X011535Y018033D03*
X012535Y018033D03*
X013535Y018033D03*
X014535Y018033D03*
X015535Y018033D03*
X016535Y018033D03*
X017535Y018033D03*
X018535Y018033D03*
X019535Y018033D03*
X020535Y018033D03*
X021535Y018033D03*
X022535Y018033D03*
X023535Y018033D03*
X024535Y018033D03*
X025535Y018033D03*
X026535Y018033D03*
X027535Y018033D03*
X028535Y018033D03*
X029535Y018033D03*
X030535Y018033D03*
X031535Y018033D03*
X032535Y018033D03*
X033535Y018033D03*
X033535Y005033D03*
X032535Y005033D03*
X031535Y005033D03*
X030535Y005033D03*
X029535Y005033D03*
X028535Y005033D03*
X027535Y005033D03*
X026535Y005033D03*
X025535Y005033D03*
X024535Y005033D03*
X023535Y005033D03*
X022535Y005033D03*
X021535Y005033D03*
X020535Y005033D03*
X019535Y005033D03*
X018535Y005033D03*
X017535Y005033D03*
X016535Y005033D03*
X015535Y005033D03*
X014535Y005033D03*
X013535Y005033D03*
X012535Y005033D03*
X011535Y005033D03*
X010535Y005033D03*
X010535Y004033D03*
X011535Y004033D03*
X012535Y004033D03*
X013535Y004033D03*
X014535Y004033D03*
X015535Y004033D03*
X016535Y004033D03*
X017535Y004033D03*
X018535Y004033D03*
X019535Y004033D03*
X020535Y004033D03*
X021535Y004033D03*
X022535Y004033D03*
X023535Y004033D03*
X024535Y004033D03*
X025535Y004033D03*
X026535Y004033D03*
X027535Y004033D03*
X028535Y004033D03*
X029535Y004033D03*
X030535Y004033D03*
X031535Y004033D03*
X032535Y004033D03*
X033535Y004033D03*
X033535Y003033D03*
X032535Y003033D03*
X031535Y003033D03*
X030535Y003033D03*
X029535Y003033D03*
X028535Y003033D03*
X027535Y003033D03*
X026535Y003033D03*
X025535Y003033D03*
X024535Y003033D03*
X023535Y003033D03*
X022535Y003033D03*
X021535Y003033D03*
X020535Y003033D03*
X019535Y003033D03*
X018535Y003033D03*
X017535Y003033D03*
X016535Y003033D03*
X015535Y003033D03*
X014535Y003033D03*
X013535Y003033D03*
X012535Y003033D03*
X011535Y003033D03*
X010535Y003033D03*
X036035Y003033D03*
X041535Y003033D03*
D17*
X039035Y002833D03*
X038035Y002833D03*
X041385Y004833D03*
X042385Y004833D03*
X042385Y006333D03*
X041385Y006333D03*
X041385Y007833D03*
X042385Y007833D03*
X042385Y009333D03*
X041385Y009333D03*
X041835Y010833D03*
X041335Y013333D03*
X042335Y013333D03*
X042335Y014833D03*
X041335Y014833D03*
X041335Y016333D03*
X042335Y016333D03*
X042335Y017833D03*
X041335Y017833D03*
X042035Y019333D03*
X035535Y020733D03*
X034535Y020733D03*
X034535Y012333D03*
X033535Y012333D03*
X008435Y006183D03*
X008235Y003833D03*
X008235Y002833D03*
D18*
X036795Y003833D02*
X037275Y003833D01*
X037275Y004833D02*
X036795Y004833D01*
X036795Y005833D02*
X037275Y005833D01*
X037275Y006833D02*
X036795Y006833D01*
X036795Y007833D02*
X037275Y007833D01*
X037275Y008833D02*
X036795Y008833D01*
X036795Y009833D02*
X037275Y009833D01*
X037275Y010833D02*
X036795Y010833D01*
X039795Y010833D02*
X040275Y010833D01*
X040275Y009833D02*
X039795Y009833D01*
X039795Y008833D02*
X040275Y008833D01*
X040275Y007833D02*
X039795Y007833D01*
X039795Y006833D02*
X040275Y006833D01*
X040275Y005833D02*
X039795Y005833D01*
X039795Y004833D02*
X040275Y004833D01*
X040275Y003833D02*
X039795Y003833D01*
X039795Y012833D02*
X040275Y012833D01*
X040275Y013833D02*
X039795Y013833D01*
X039795Y014833D02*
X040275Y014833D01*
X040275Y015833D02*
X039795Y015833D01*
X039795Y016833D02*
X040275Y016833D01*
X040275Y017833D02*
X039795Y017833D01*
X039795Y018833D02*
X040275Y018833D01*
X040275Y019833D02*
X039795Y019833D01*
X037275Y019833D02*
X036795Y019833D01*
X036795Y018833D02*
X037275Y018833D01*
X037275Y017833D02*
X036795Y017833D01*
X036795Y016833D02*
X037275Y016833D01*
X037275Y015833D02*
X036795Y015833D01*
X036795Y014833D02*
X037275Y014833D01*
X037275Y013833D02*
X036795Y013833D01*
X036795Y012833D02*
X037275Y012833D01*
D19*
X045035Y009533D03*
X045035Y016883D03*
X005035Y003233D03*
D20*
X006413Y003233D03*
X045035Y010911D03*
X045035Y018261D03*
D21*
X045035Y012533D03*
X045035Y005183D03*
D22*
X045035Y006561D03*
X045035Y007939D03*
X045035Y013911D03*
X045035Y015289D03*
D23*
X041835Y011833D03*
X042035Y020333D03*
X008435Y005183D03*
D24*
X012035Y014683D03*
X032535Y015333D03*
X035535Y015333D03*
M02*
