G75*
G70*
%OFA0B0*%
%FSLAX24Y24*%
%IPPOS*%
%LPD*%
%AMOC8*
5,1,8,0,0,1.08239X$1,22.5*
%
%ADD10C,0.0100*%
%ADD11C,0.0000*%
%ADD12C,0.0030*%
%ADD13C,0.0160*%
%ADD14C,0.0050*%
%ADD15C,0.0080*%
%ADD16C,0.0040*%
%ADD17C,0.0060*%
%ADD18C,0.0059*%
D10*
X001035Y001833D02*
X001035Y021333D01*
X046535Y021333D01*
X046535Y001833D01*
X001035Y001833D01*
X007035Y007333D02*
X007035Y008333D01*
X008035Y008333D01*
X008035Y007333D01*
X035035Y007333D01*
X035035Y017333D01*
X007035Y017333D01*
X007035Y008333D01*
X007035Y009033D02*
X007035Y010033D01*
X008035Y010033D01*
X008035Y009033D01*
X027035Y009033D01*
X027035Y016033D01*
X007035Y016033D01*
X007035Y010033D01*
X007035Y009033D02*
X008035Y009033D01*
X008035Y007333D02*
X007035Y007333D01*
X004035Y020733D02*
X004385Y021083D01*
X006085Y021083D01*
X007685Y021083D02*
X009685Y021083D01*
X010035Y020733D01*
X035185Y017983D02*
X035385Y017783D01*
X035485Y017983D02*
X035185Y017983D01*
X035385Y018183D01*
X035485Y017983D02*
X035835Y017633D01*
X035835Y016683D01*
X042935Y016783D02*
X043235Y016483D01*
X043485Y016483D01*
X042935Y016783D02*
X042935Y017133D01*
X042935Y018083D02*
X042935Y018433D01*
X043235Y018733D01*
X043485Y018733D01*
X043535Y014333D02*
X043235Y014333D01*
X042985Y014083D01*
X042985Y013633D01*
X042985Y012733D02*
X042985Y012333D01*
X043235Y012083D01*
X043535Y012083D01*
X043535Y011283D02*
X043385Y011283D01*
X043135Y011033D01*
X043135Y010683D01*
X043135Y009783D02*
X043135Y009383D01*
X043385Y009133D01*
X043535Y009133D01*
X043535Y007033D02*
X043235Y007033D01*
X043035Y006833D01*
X043035Y006333D01*
X043035Y005433D02*
X043035Y004983D01*
X043285Y004733D01*
X043535Y004733D01*
X035735Y005283D02*
X035535Y005083D01*
X035235Y005083D01*
X035435Y004883D01*
X035235Y005083D02*
X035435Y005283D01*
X035735Y005283D02*
X035735Y006033D01*
D11*
X044355Y002833D02*
X044357Y002883D01*
X044363Y002933D01*
X044373Y002982D01*
X044387Y003030D01*
X044404Y003077D01*
X044425Y003122D01*
X044450Y003166D01*
X044478Y003207D01*
X044510Y003246D01*
X044544Y003283D01*
X044581Y003317D01*
X044621Y003347D01*
X044663Y003374D01*
X044707Y003398D01*
X044753Y003419D01*
X044800Y003435D01*
X044848Y003448D01*
X044898Y003457D01*
X044947Y003462D01*
X044998Y003463D01*
X045048Y003460D01*
X045097Y003453D01*
X045146Y003442D01*
X045194Y003427D01*
X045240Y003409D01*
X045285Y003387D01*
X045328Y003361D01*
X045369Y003332D01*
X045408Y003300D01*
X045444Y003265D01*
X045476Y003227D01*
X045506Y003187D01*
X045533Y003144D01*
X045556Y003100D01*
X045575Y003054D01*
X045591Y003006D01*
X045603Y002957D01*
X045611Y002908D01*
X045615Y002858D01*
X045615Y002808D01*
X045611Y002758D01*
X045603Y002709D01*
X045591Y002660D01*
X045575Y002612D01*
X045556Y002566D01*
X045533Y002522D01*
X045506Y002479D01*
X045476Y002439D01*
X045444Y002401D01*
X045408Y002366D01*
X045369Y002334D01*
X045328Y002305D01*
X045285Y002279D01*
X045240Y002257D01*
X045194Y002239D01*
X045146Y002224D01*
X045097Y002213D01*
X045048Y002206D01*
X044998Y002203D01*
X044947Y002204D01*
X044898Y002209D01*
X044848Y002218D01*
X044800Y002231D01*
X044753Y002247D01*
X044707Y002268D01*
X044663Y002292D01*
X044621Y002319D01*
X044581Y002349D01*
X044544Y002383D01*
X044510Y002420D01*
X044478Y002459D01*
X044450Y002500D01*
X044425Y002544D01*
X044404Y002589D01*
X044387Y002636D01*
X044373Y002684D01*
X044363Y002733D01*
X044357Y002783D01*
X044355Y002833D01*
X044355Y020333D02*
X044357Y020383D01*
X044363Y020433D01*
X044373Y020482D01*
X044387Y020530D01*
X044404Y020577D01*
X044425Y020622D01*
X044450Y020666D01*
X044478Y020707D01*
X044510Y020746D01*
X044544Y020783D01*
X044581Y020817D01*
X044621Y020847D01*
X044663Y020874D01*
X044707Y020898D01*
X044753Y020919D01*
X044800Y020935D01*
X044848Y020948D01*
X044898Y020957D01*
X044947Y020962D01*
X044998Y020963D01*
X045048Y020960D01*
X045097Y020953D01*
X045146Y020942D01*
X045194Y020927D01*
X045240Y020909D01*
X045285Y020887D01*
X045328Y020861D01*
X045369Y020832D01*
X045408Y020800D01*
X045444Y020765D01*
X045476Y020727D01*
X045506Y020687D01*
X045533Y020644D01*
X045556Y020600D01*
X045575Y020554D01*
X045591Y020506D01*
X045603Y020457D01*
X045611Y020408D01*
X045615Y020358D01*
X045615Y020308D01*
X045611Y020258D01*
X045603Y020209D01*
X045591Y020160D01*
X045575Y020112D01*
X045556Y020066D01*
X045533Y020022D01*
X045506Y019979D01*
X045476Y019939D01*
X045444Y019901D01*
X045408Y019866D01*
X045369Y019834D01*
X045328Y019805D01*
X045285Y019779D01*
X045240Y019757D01*
X045194Y019739D01*
X045146Y019724D01*
X045097Y019713D01*
X045048Y019706D01*
X044998Y019703D01*
X044947Y019704D01*
X044898Y019709D01*
X044848Y019718D01*
X044800Y019731D01*
X044753Y019747D01*
X044707Y019768D01*
X044663Y019792D01*
X044621Y019819D01*
X044581Y019849D01*
X044544Y019883D01*
X044510Y019920D01*
X044478Y019959D01*
X044450Y020000D01*
X044425Y020044D01*
X044404Y020089D01*
X044387Y020136D01*
X044373Y020184D01*
X044363Y020233D01*
X044357Y020283D01*
X044355Y020333D01*
X001855Y020333D02*
X001857Y020383D01*
X001863Y020433D01*
X001873Y020482D01*
X001887Y020530D01*
X001904Y020577D01*
X001925Y020622D01*
X001950Y020666D01*
X001978Y020707D01*
X002010Y020746D01*
X002044Y020783D01*
X002081Y020817D01*
X002121Y020847D01*
X002163Y020874D01*
X002207Y020898D01*
X002253Y020919D01*
X002300Y020935D01*
X002348Y020948D01*
X002398Y020957D01*
X002447Y020962D01*
X002498Y020963D01*
X002548Y020960D01*
X002597Y020953D01*
X002646Y020942D01*
X002694Y020927D01*
X002740Y020909D01*
X002785Y020887D01*
X002828Y020861D01*
X002869Y020832D01*
X002908Y020800D01*
X002944Y020765D01*
X002976Y020727D01*
X003006Y020687D01*
X003033Y020644D01*
X003056Y020600D01*
X003075Y020554D01*
X003091Y020506D01*
X003103Y020457D01*
X003111Y020408D01*
X003115Y020358D01*
X003115Y020308D01*
X003111Y020258D01*
X003103Y020209D01*
X003091Y020160D01*
X003075Y020112D01*
X003056Y020066D01*
X003033Y020022D01*
X003006Y019979D01*
X002976Y019939D01*
X002944Y019901D01*
X002908Y019866D01*
X002869Y019834D01*
X002828Y019805D01*
X002785Y019779D01*
X002740Y019757D01*
X002694Y019739D01*
X002646Y019724D01*
X002597Y019713D01*
X002548Y019706D01*
X002498Y019703D01*
X002447Y019704D01*
X002398Y019709D01*
X002348Y019718D01*
X002300Y019731D01*
X002253Y019747D01*
X002207Y019768D01*
X002163Y019792D01*
X002121Y019819D01*
X002081Y019849D01*
X002044Y019883D01*
X002010Y019920D01*
X001978Y019959D01*
X001950Y020000D01*
X001925Y020044D01*
X001904Y020089D01*
X001887Y020136D01*
X001873Y020184D01*
X001863Y020233D01*
X001857Y020283D01*
X001855Y020333D01*
X001961Y002902D02*
X001963Y002952D01*
X001969Y003002D01*
X001979Y003051D01*
X001993Y003099D01*
X002010Y003146D01*
X002031Y003191D01*
X002056Y003235D01*
X002084Y003276D01*
X002116Y003315D01*
X002150Y003352D01*
X002187Y003386D01*
X002227Y003416D01*
X002269Y003443D01*
X002313Y003467D01*
X002359Y003488D01*
X002406Y003504D01*
X002454Y003517D01*
X002504Y003526D01*
X002553Y003531D01*
X002604Y003532D01*
X002654Y003529D01*
X002703Y003522D01*
X002752Y003511D01*
X002800Y003496D01*
X002846Y003478D01*
X002891Y003456D01*
X002934Y003430D01*
X002975Y003401D01*
X003014Y003369D01*
X003050Y003334D01*
X003082Y003296D01*
X003112Y003256D01*
X003139Y003213D01*
X003162Y003169D01*
X003181Y003123D01*
X003197Y003075D01*
X003209Y003026D01*
X003217Y002977D01*
X003221Y002927D01*
X003221Y002877D01*
X003217Y002827D01*
X003209Y002778D01*
X003197Y002729D01*
X003181Y002681D01*
X003162Y002635D01*
X003139Y002591D01*
X003112Y002548D01*
X003082Y002508D01*
X003050Y002470D01*
X003014Y002435D01*
X002975Y002403D01*
X002934Y002374D01*
X002891Y002348D01*
X002846Y002326D01*
X002800Y002308D01*
X002752Y002293D01*
X002703Y002282D01*
X002654Y002275D01*
X002604Y002272D01*
X002553Y002273D01*
X002504Y002278D01*
X002454Y002287D01*
X002406Y002300D01*
X002359Y002316D01*
X002313Y002337D01*
X002269Y002361D01*
X002227Y002388D01*
X002187Y002418D01*
X002150Y002452D01*
X002116Y002489D01*
X002084Y002528D01*
X002056Y002569D01*
X002031Y002613D01*
X002010Y002658D01*
X001993Y002705D01*
X001979Y002753D01*
X001969Y002802D01*
X001963Y002852D01*
X001961Y002902D01*
D12*
X003900Y002343D02*
X004093Y002343D01*
X007350Y002343D02*
X007543Y002343D01*
X007447Y002247D02*
X007447Y002440D01*
X007622Y002998D02*
X007622Y003047D01*
X007670Y003047D01*
X007670Y002998D01*
X007622Y002998D01*
X007670Y003146D02*
X007670Y003339D01*
X007670Y003242D02*
X007380Y003242D01*
X007477Y003146D01*
X007477Y003440D02*
X007622Y003440D01*
X007670Y003489D01*
X007670Y003634D01*
X007477Y003634D01*
X007525Y003735D02*
X007525Y003832D01*
X007380Y003928D02*
X007380Y003735D01*
X007670Y003735D01*
X009000Y003993D02*
X009193Y003993D01*
X009295Y003993D02*
X009391Y004042D01*
X009440Y004042D01*
X009488Y003993D01*
X009488Y003897D01*
X009440Y003848D01*
X009343Y003848D01*
X009295Y003897D01*
X009295Y003993D02*
X009295Y004139D01*
X009488Y004139D01*
X009589Y004139D02*
X009589Y003945D01*
X009686Y003848D01*
X009783Y003945D01*
X009783Y004139D01*
X009097Y004090D02*
X009097Y003897D01*
X009098Y003189D02*
X009050Y003140D01*
X009050Y002947D01*
X009098Y002898D01*
X009195Y002898D01*
X009243Y002947D01*
X009243Y003043D01*
X009147Y003043D01*
X009243Y003140D02*
X009195Y003189D01*
X009098Y003189D01*
X009345Y003189D02*
X009538Y002898D01*
X009538Y003189D01*
X009639Y003189D02*
X009784Y003189D01*
X009833Y003140D01*
X009833Y002947D01*
X009784Y002898D01*
X009639Y002898D01*
X009639Y003189D01*
X009345Y003189D02*
X009345Y002898D01*
X010450Y002290D02*
X010498Y002339D01*
X010595Y002339D01*
X010643Y002290D01*
X010450Y002097D01*
X010498Y002048D01*
X010595Y002048D01*
X010643Y002097D01*
X010643Y002290D01*
X010450Y002290D02*
X010450Y002097D01*
X011450Y002048D02*
X011643Y002048D01*
X011547Y002048D02*
X011547Y002339D01*
X011450Y002242D01*
X012450Y002290D02*
X012498Y002339D01*
X012595Y002339D01*
X012643Y002290D01*
X012643Y002242D01*
X012450Y002048D01*
X012643Y002048D01*
X013450Y002097D02*
X013498Y002048D01*
X013595Y002048D01*
X013643Y002097D01*
X013643Y002145D01*
X013595Y002193D01*
X013547Y002193D01*
X013595Y002193D02*
X013643Y002242D01*
X013643Y002290D01*
X013595Y002339D01*
X013498Y002339D01*
X013450Y002290D01*
X014450Y002193D02*
X014643Y002193D01*
X014595Y002048D02*
X014595Y002339D01*
X014450Y002193D01*
X015450Y002193D02*
X015547Y002242D01*
X015595Y002242D01*
X015643Y002193D01*
X015643Y002097D01*
X015595Y002048D01*
X015498Y002048D01*
X015450Y002097D01*
X015450Y002193D02*
X015450Y002339D01*
X015643Y002339D01*
X016450Y002193D02*
X016450Y002097D01*
X016498Y002048D01*
X016595Y002048D01*
X016643Y002097D01*
X016643Y002145D01*
X016595Y002193D01*
X016450Y002193D01*
X016547Y002290D01*
X016643Y002339D01*
X017450Y002339D02*
X017643Y002339D01*
X017643Y002290D01*
X017450Y002097D01*
X017450Y002048D01*
X018450Y002097D02*
X018450Y002145D01*
X018498Y002193D01*
X018595Y002193D01*
X018643Y002145D01*
X018643Y002097D01*
X018595Y002048D01*
X018498Y002048D01*
X018450Y002097D01*
X018498Y002193D02*
X018450Y002242D01*
X018450Y002290D01*
X018498Y002339D01*
X018595Y002339D01*
X018643Y002290D01*
X018643Y002242D01*
X018595Y002193D01*
X019450Y002242D02*
X019498Y002193D01*
X019643Y002193D01*
X019643Y002097D02*
X019643Y002290D01*
X019595Y002339D01*
X019498Y002339D01*
X019450Y002290D01*
X019450Y002242D01*
X019450Y002097D02*
X019498Y002048D01*
X019595Y002048D01*
X019643Y002097D01*
X020300Y002048D02*
X020493Y002048D01*
X020397Y002048D02*
X020397Y002339D01*
X020300Y002242D01*
X020595Y002290D02*
X020595Y002097D01*
X020788Y002290D01*
X020788Y002097D01*
X020740Y002048D01*
X020643Y002048D01*
X020595Y002097D01*
X020595Y002290D02*
X020643Y002339D01*
X020740Y002339D01*
X020788Y002290D01*
X021300Y002242D02*
X021397Y002339D01*
X021397Y002048D01*
X021493Y002048D02*
X021300Y002048D01*
X021595Y002048D02*
X021788Y002048D01*
X021691Y002048D02*
X021691Y002339D01*
X021595Y002242D01*
X022300Y002242D02*
X022397Y002339D01*
X022397Y002048D01*
X022493Y002048D02*
X022300Y002048D01*
X022595Y002048D02*
X022788Y002242D01*
X022788Y002290D01*
X022740Y002339D01*
X022643Y002339D01*
X022595Y002290D01*
X022595Y002048D02*
X022788Y002048D01*
X023300Y002048D02*
X023493Y002048D01*
X023397Y002048D02*
X023397Y002339D01*
X023300Y002242D01*
X023595Y002290D02*
X023643Y002339D01*
X023740Y002339D01*
X023788Y002290D01*
X023788Y002242D01*
X023740Y002193D01*
X023788Y002145D01*
X023788Y002097D01*
X023740Y002048D01*
X023643Y002048D01*
X023595Y002097D01*
X023691Y002193D02*
X023740Y002193D01*
X024300Y002242D02*
X024397Y002339D01*
X024397Y002048D01*
X024493Y002048D02*
X024300Y002048D01*
X024595Y002193D02*
X024788Y002193D01*
X024740Y002048D02*
X024740Y002339D01*
X024595Y002193D01*
X025300Y002242D02*
X025397Y002339D01*
X025397Y002048D01*
X025493Y002048D02*
X025300Y002048D01*
X025595Y002097D02*
X025643Y002048D01*
X025740Y002048D01*
X025788Y002097D01*
X025788Y002193D01*
X025740Y002242D01*
X025691Y002242D01*
X025595Y002193D01*
X025595Y002339D01*
X025788Y002339D01*
X026300Y002242D02*
X026397Y002339D01*
X026397Y002048D01*
X026493Y002048D02*
X026300Y002048D01*
X026595Y002097D02*
X026643Y002048D01*
X026740Y002048D01*
X026788Y002097D01*
X026788Y002145D01*
X026740Y002193D01*
X026595Y002193D01*
X026595Y002097D01*
X026595Y002193D02*
X026691Y002290D01*
X026788Y002339D01*
X027300Y002242D02*
X027397Y002339D01*
X027397Y002048D01*
X027493Y002048D02*
X027300Y002048D01*
X027595Y002048D02*
X027595Y002097D01*
X027788Y002290D01*
X027788Y002339D01*
X027595Y002339D01*
X028300Y002242D02*
X028397Y002339D01*
X028397Y002048D01*
X028493Y002048D02*
X028300Y002048D01*
X028595Y002097D02*
X028595Y002145D01*
X028643Y002193D01*
X028740Y002193D01*
X028788Y002145D01*
X028788Y002097D01*
X028740Y002048D01*
X028643Y002048D01*
X028595Y002097D01*
X028643Y002193D02*
X028595Y002242D01*
X028595Y002290D01*
X028643Y002339D01*
X028740Y002339D01*
X028788Y002290D01*
X028788Y002242D01*
X028740Y002193D01*
X029300Y002242D02*
X029397Y002339D01*
X029397Y002048D01*
X029493Y002048D02*
X029300Y002048D01*
X029595Y002097D02*
X029643Y002048D01*
X029740Y002048D01*
X029788Y002097D01*
X029788Y002290D01*
X029740Y002339D01*
X029643Y002339D01*
X029595Y002290D01*
X029595Y002242D01*
X029643Y002193D01*
X029788Y002193D01*
X030300Y002290D02*
X030348Y002339D01*
X030445Y002339D01*
X030493Y002290D01*
X030493Y002242D01*
X030300Y002048D01*
X030493Y002048D01*
X030595Y002097D02*
X030788Y002290D01*
X030788Y002097D01*
X030740Y002048D01*
X030643Y002048D01*
X030595Y002097D01*
X030595Y002290D01*
X030643Y002339D01*
X030740Y002339D01*
X030788Y002290D01*
X031300Y002290D02*
X031348Y002339D01*
X031445Y002339D01*
X031493Y002290D01*
X031493Y002242D01*
X031300Y002048D01*
X031493Y002048D01*
X031595Y002048D02*
X031788Y002048D01*
X031691Y002048D02*
X031691Y002339D01*
X031595Y002242D01*
X032300Y002290D02*
X032348Y002339D01*
X032445Y002339D01*
X032493Y002290D01*
X032493Y002242D01*
X032300Y002048D01*
X032493Y002048D01*
X032595Y002048D02*
X032788Y002242D01*
X032788Y002290D01*
X032740Y002339D01*
X032643Y002339D01*
X032595Y002290D01*
X032595Y002048D02*
X032788Y002048D01*
X033300Y002048D02*
X033493Y002242D01*
X033493Y002290D01*
X033445Y002339D01*
X033348Y002339D01*
X033300Y002290D01*
X033300Y002048D02*
X033493Y002048D01*
X033595Y002097D02*
X033643Y002048D01*
X033740Y002048D01*
X033788Y002097D01*
X033788Y002145D01*
X033740Y002193D01*
X033691Y002193D01*
X033740Y002193D02*
X033788Y002242D01*
X033788Y002290D01*
X033740Y002339D01*
X033643Y002339D01*
X033595Y002290D01*
X034300Y002947D02*
X034348Y002898D01*
X034445Y002898D01*
X034493Y002947D01*
X034493Y003043D01*
X034397Y003043D01*
X034300Y002947D02*
X034300Y003140D01*
X034348Y003189D01*
X034445Y003189D01*
X034493Y003140D01*
X034595Y003189D02*
X034788Y002898D01*
X034788Y003189D01*
X034889Y003189D02*
X035034Y003189D01*
X035083Y003140D01*
X035083Y002947D01*
X035034Y002898D01*
X034889Y002898D01*
X034889Y003189D01*
X034595Y003189D02*
X034595Y002898D01*
X035650Y003747D02*
X035698Y003698D01*
X035795Y003698D01*
X035843Y003747D01*
X035843Y003843D01*
X035747Y003843D01*
X035650Y003747D02*
X035650Y003940D01*
X035698Y003989D01*
X035795Y003989D01*
X035843Y003940D01*
X035945Y003989D02*
X035945Y003698D01*
X036138Y003698D02*
X036138Y003989D01*
X036239Y003989D02*
X036384Y003989D01*
X036433Y003940D01*
X036433Y003747D01*
X036384Y003698D01*
X036239Y003698D01*
X036239Y003989D01*
X035945Y003989D02*
X036138Y003698D01*
X035033Y003995D02*
X035033Y004189D01*
X034839Y004189D02*
X034839Y003995D01*
X034936Y003898D01*
X035033Y003995D01*
X034738Y003947D02*
X034690Y003898D01*
X034593Y003898D01*
X034545Y003947D01*
X034545Y004043D02*
X034641Y004092D01*
X034690Y004092D01*
X034738Y004043D01*
X034738Y003947D01*
X034545Y004043D02*
X034545Y004189D01*
X034738Y004189D01*
X034443Y004043D02*
X034250Y004043D01*
X034347Y003947D02*
X034347Y004140D01*
X034398Y004898D02*
X034350Y004947D01*
X034398Y004898D02*
X034495Y004898D01*
X034543Y004947D01*
X034543Y004995D01*
X034495Y005043D01*
X034398Y005043D01*
X034350Y005092D01*
X034350Y005140D01*
X034398Y005189D01*
X034495Y005189D01*
X034543Y005140D01*
X034645Y005189D02*
X034741Y005189D01*
X034693Y005189D02*
X034693Y004898D01*
X034645Y004898D02*
X034741Y004898D01*
X034841Y004947D02*
X034889Y004898D01*
X034986Y004898D01*
X035035Y004947D01*
X035035Y005043D01*
X034938Y005043D01*
X034841Y004947D02*
X034841Y005140D01*
X034889Y005189D01*
X034986Y005189D01*
X035035Y005140D01*
X033670Y005798D02*
X033380Y005798D01*
X033380Y005943D01*
X033428Y005992D01*
X033525Y005992D01*
X033573Y005943D01*
X033573Y005798D01*
X033670Y006093D02*
X033670Y006190D01*
X033670Y006141D02*
X033380Y006141D01*
X033380Y006093D02*
X033380Y006190D01*
X033380Y006289D02*
X033670Y006483D01*
X033380Y006483D01*
X033428Y006584D02*
X033380Y006632D01*
X033380Y006729D01*
X033428Y006778D01*
X033477Y006778D01*
X033670Y006584D01*
X033670Y006778D01*
X033622Y006879D02*
X033670Y006927D01*
X033670Y007024D01*
X033622Y007072D01*
X033573Y007072D01*
X033525Y007024D01*
X033525Y006975D01*
X033525Y007024D02*
X033477Y007072D01*
X033428Y007072D01*
X033380Y007024D01*
X033380Y006927D01*
X033428Y006879D01*
X032670Y006879D02*
X032477Y007072D01*
X032428Y007072D01*
X032380Y007024D01*
X032380Y006927D01*
X032428Y006879D01*
X032428Y006778D02*
X032380Y006729D01*
X032380Y006632D01*
X032428Y006584D01*
X032380Y006483D02*
X032670Y006483D01*
X032380Y006289D01*
X032670Y006289D01*
X032670Y006190D02*
X032670Y006093D01*
X032670Y006141D02*
X032380Y006141D01*
X032380Y006093D02*
X032380Y006190D01*
X032428Y005992D02*
X032525Y005992D01*
X032573Y005943D01*
X032573Y005798D01*
X032670Y005798D02*
X032380Y005798D01*
X032380Y005943D01*
X032428Y005992D01*
X031670Y006093D02*
X031670Y006190D01*
X031670Y006141D02*
X031380Y006141D01*
X031380Y006093D02*
X031380Y006190D01*
X031380Y006289D02*
X031670Y006483D01*
X031380Y006483D01*
X031428Y006584D02*
X031380Y006632D01*
X031380Y006729D01*
X031428Y006778D01*
X031477Y006778D01*
X031670Y006584D01*
X031670Y006778D01*
X031670Y006879D02*
X031670Y007072D01*
X031670Y006975D02*
X031380Y006975D01*
X031477Y006879D01*
X030670Y006927D02*
X030622Y006879D01*
X030428Y007072D01*
X030622Y007072D01*
X030670Y007024D01*
X030670Y006927D01*
X030622Y006879D02*
X030428Y006879D01*
X030380Y006927D01*
X030380Y007024D01*
X030428Y007072D01*
X030428Y006778D02*
X030380Y006729D01*
X030380Y006632D01*
X030428Y006584D01*
X030380Y006483D02*
X030670Y006483D01*
X030380Y006289D01*
X030670Y006289D01*
X030670Y006190D02*
X030670Y006093D01*
X030670Y006141D02*
X030380Y006141D01*
X030380Y006093D02*
X030380Y006190D01*
X030428Y005992D02*
X030525Y005992D01*
X030573Y005943D01*
X030573Y005798D01*
X030670Y005798D02*
X030380Y005798D01*
X030380Y005943D01*
X030428Y005992D01*
X029670Y006093D02*
X029670Y006190D01*
X029670Y006141D02*
X029380Y006141D01*
X029380Y006093D02*
X029380Y006190D01*
X029380Y006289D02*
X029670Y006483D01*
X029380Y006483D01*
X029477Y006584D02*
X029380Y006681D01*
X029670Y006681D01*
X029670Y006584D02*
X029670Y006778D01*
X029622Y006879D02*
X029670Y006927D01*
X029670Y007024D01*
X029622Y007072D01*
X029428Y007072D01*
X029380Y007024D01*
X029380Y006927D01*
X029428Y006879D01*
X029477Y006879D01*
X029525Y006927D01*
X029525Y007072D01*
X028670Y007024D02*
X028670Y006927D01*
X028622Y006879D01*
X028573Y006879D01*
X028525Y006927D01*
X028525Y007024D01*
X028573Y007072D01*
X028622Y007072D01*
X028670Y007024D01*
X028525Y007024D02*
X028477Y007072D01*
X028428Y007072D01*
X028380Y007024D01*
X028380Y006927D01*
X028428Y006879D01*
X028477Y006879D01*
X028525Y006927D01*
X028670Y006778D02*
X028670Y006584D01*
X028670Y006681D02*
X028380Y006681D01*
X028477Y006584D01*
X028380Y006483D02*
X028670Y006483D01*
X028380Y006289D01*
X028670Y006289D01*
X028670Y006190D02*
X028670Y006093D01*
X028670Y006141D02*
X028380Y006141D01*
X028380Y006093D02*
X028380Y006190D01*
X028428Y005992D02*
X028525Y005992D01*
X028573Y005943D01*
X028573Y005798D01*
X028670Y005798D02*
X028380Y005798D01*
X028380Y005943D01*
X028428Y005992D01*
X027670Y006093D02*
X027670Y006190D01*
X027670Y006141D02*
X027380Y006141D01*
X027380Y006093D02*
X027380Y006190D01*
X027380Y006289D02*
X027670Y006483D01*
X027380Y006483D01*
X027477Y006584D02*
X027380Y006681D01*
X027670Y006681D01*
X027670Y006584D02*
X027670Y006778D01*
X027670Y006879D02*
X027622Y006879D01*
X027428Y007072D01*
X027380Y007072D01*
X027380Y006879D01*
X026670Y006927D02*
X026670Y007024D01*
X026622Y007072D01*
X026573Y007072D01*
X026525Y007024D01*
X026525Y006879D01*
X026622Y006879D01*
X026670Y006927D01*
X026670Y006778D02*
X026670Y006584D01*
X026670Y006681D02*
X026380Y006681D01*
X026477Y006584D01*
X026380Y006483D02*
X026670Y006483D01*
X026380Y006289D01*
X026670Y006289D01*
X026670Y006190D02*
X026670Y006093D01*
X026670Y006141D02*
X026380Y006141D01*
X026380Y006093D02*
X026380Y006190D01*
X026428Y005992D02*
X026525Y005992D01*
X026573Y005943D01*
X026573Y005798D01*
X026670Y005798D02*
X026380Y005798D01*
X026380Y005943D01*
X026428Y005992D01*
X025670Y006093D02*
X025670Y006190D01*
X025670Y006141D02*
X025380Y006141D01*
X025380Y006093D02*
X025380Y006190D01*
X025380Y006289D02*
X025670Y006483D01*
X025380Y006483D01*
X025477Y006584D02*
X025380Y006681D01*
X025670Y006681D01*
X025670Y006584D02*
X025670Y006778D01*
X025622Y006879D02*
X025670Y006927D01*
X025670Y007024D01*
X025622Y007072D01*
X025525Y007072D01*
X025477Y007024D01*
X025477Y006975D01*
X025525Y006879D01*
X025380Y006879D01*
X025380Y007072D01*
X024670Y007024D02*
X024380Y007024D01*
X024525Y006879D01*
X024525Y007072D01*
X024670Y006778D02*
X024670Y006584D01*
X024670Y006681D02*
X024380Y006681D01*
X024477Y006584D01*
X024380Y006483D02*
X024670Y006483D01*
X024380Y006289D01*
X024670Y006289D01*
X024670Y006190D02*
X024670Y006093D01*
X024670Y006141D02*
X024380Y006141D01*
X024380Y006093D02*
X024380Y006190D01*
X024428Y005992D02*
X024525Y005992D01*
X024573Y005943D01*
X024573Y005798D01*
X024670Y005798D02*
X024380Y005798D01*
X024380Y005943D01*
X024428Y005992D01*
X023670Y006093D02*
X023670Y006190D01*
X023670Y006141D02*
X023380Y006141D01*
X023380Y006093D02*
X023380Y006190D01*
X023380Y006289D02*
X023670Y006483D01*
X023380Y006483D01*
X023477Y006584D02*
X023380Y006681D01*
X023670Y006681D01*
X023670Y006584D02*
X023670Y006778D01*
X023622Y006879D02*
X023670Y006927D01*
X023670Y007024D01*
X023622Y007072D01*
X023573Y007072D01*
X023525Y007024D01*
X023525Y006975D01*
X023525Y007024D02*
X023477Y007072D01*
X023428Y007072D01*
X023380Y007024D01*
X023380Y006927D01*
X023428Y006879D01*
X022670Y006879D02*
X022477Y007072D01*
X022428Y007072D01*
X022380Y007024D01*
X022380Y006927D01*
X022428Y006879D01*
X022380Y006681D02*
X022670Y006681D01*
X022670Y006584D02*
X022670Y006778D01*
X022670Y006879D02*
X022670Y007072D01*
X022380Y006681D02*
X022477Y006584D01*
X022380Y006483D02*
X022670Y006483D01*
X022380Y006289D01*
X022670Y006289D01*
X022670Y006190D02*
X022670Y006093D01*
X022670Y006141D02*
X022380Y006141D01*
X022380Y006093D02*
X022380Y006190D01*
X022428Y005992D02*
X022380Y005943D01*
X022380Y005798D01*
X022670Y005798D01*
X022573Y005798D02*
X022573Y005943D01*
X022525Y005992D01*
X022428Y005992D01*
X021670Y006093D02*
X021670Y006190D01*
X021670Y006141D02*
X021380Y006141D01*
X021380Y006093D02*
X021380Y006190D01*
X021380Y006289D02*
X021670Y006483D01*
X021380Y006483D01*
X021477Y006584D02*
X021380Y006681D01*
X021670Y006681D01*
X021670Y006584D02*
X021670Y006778D01*
X021670Y006879D02*
X021670Y007072D01*
X021670Y006975D02*
X021380Y006975D01*
X021477Y006879D01*
X020670Y006927D02*
X020622Y006879D01*
X020428Y007072D01*
X020622Y007072D01*
X020670Y007024D01*
X020670Y006927D01*
X020622Y006879D02*
X020428Y006879D01*
X020380Y006927D01*
X020380Y007024D01*
X020428Y007072D01*
X020670Y006778D02*
X020670Y006584D01*
X020670Y006681D02*
X020380Y006681D01*
X020477Y006584D01*
X020380Y006483D02*
X020670Y006483D01*
X020380Y006289D01*
X020670Y006289D01*
X020670Y006190D02*
X020670Y006093D01*
X020670Y006141D02*
X020380Y006141D01*
X020380Y006093D02*
X020380Y006190D01*
X020428Y005992D02*
X020525Y005992D01*
X020573Y005943D01*
X020573Y005798D01*
X020670Y005798D02*
X020380Y005798D01*
X020380Y005943D01*
X020428Y005992D01*
X019670Y006093D02*
X019670Y006190D01*
X019670Y006141D02*
X019380Y006141D01*
X019380Y006093D02*
X019380Y006190D01*
X019380Y006289D02*
X019670Y006483D01*
X019380Y006483D01*
X019428Y006584D02*
X019477Y006584D01*
X019525Y006632D01*
X019525Y006778D01*
X019622Y006778D02*
X019428Y006778D01*
X019380Y006729D01*
X019380Y006632D01*
X019428Y006584D01*
X019622Y006584D02*
X019670Y006632D01*
X019670Y006729D01*
X019622Y006778D01*
X019670Y006289D02*
X019380Y006289D01*
X019428Y005992D02*
X019525Y005992D01*
X019573Y005943D01*
X019573Y005798D01*
X019670Y005798D02*
X019380Y005798D01*
X019380Y005943D01*
X019428Y005992D01*
X018670Y006093D02*
X018670Y006190D01*
X018670Y006141D02*
X018380Y006141D01*
X018380Y006093D02*
X018380Y006190D01*
X018380Y006289D02*
X018670Y006483D01*
X018380Y006483D01*
X018428Y006584D02*
X018477Y006584D01*
X018525Y006632D01*
X018525Y006729D01*
X018573Y006778D01*
X018622Y006778D01*
X018670Y006729D01*
X018670Y006632D01*
X018622Y006584D01*
X018573Y006584D01*
X018525Y006632D01*
X018525Y006729D02*
X018477Y006778D01*
X018428Y006778D01*
X018380Y006729D01*
X018380Y006632D01*
X018428Y006584D01*
X018380Y006289D02*
X018670Y006289D01*
X018525Y005992D02*
X018573Y005943D01*
X018573Y005798D01*
X018670Y005798D02*
X018380Y005798D01*
X018380Y005943D01*
X018428Y005992D01*
X018525Y005992D01*
X017670Y006093D02*
X017670Y006190D01*
X017670Y006141D02*
X017380Y006141D01*
X017380Y006093D02*
X017380Y006190D01*
X017380Y006289D02*
X017670Y006483D01*
X017380Y006483D01*
X017380Y006584D02*
X017380Y006778D01*
X017428Y006778D01*
X017622Y006584D01*
X017670Y006584D01*
X017670Y006289D02*
X017380Y006289D01*
X017428Y005992D02*
X017525Y005992D01*
X017573Y005943D01*
X017573Y005798D01*
X017670Y005798D02*
X017380Y005798D01*
X017380Y005943D01*
X017428Y005992D01*
X016670Y006093D02*
X016670Y006190D01*
X016670Y006141D02*
X016380Y006141D01*
X016380Y006093D02*
X016380Y006190D01*
X016380Y006289D02*
X016670Y006483D01*
X016380Y006483D01*
X016525Y006584D02*
X016525Y006729D01*
X016573Y006778D01*
X016622Y006778D01*
X016670Y006729D01*
X016670Y006632D01*
X016622Y006584D01*
X016525Y006584D01*
X016428Y006681D01*
X016380Y006778D01*
X015670Y006729D02*
X015670Y006632D01*
X015622Y006584D01*
X015525Y006584D02*
X015477Y006681D01*
X015477Y006729D01*
X015525Y006778D01*
X015622Y006778D01*
X015670Y006729D01*
X015525Y006584D02*
X015380Y006584D01*
X015380Y006778D01*
X014670Y006729D02*
X014380Y006729D01*
X014525Y006584D01*
X014525Y006778D01*
X014670Y006483D02*
X014380Y006483D01*
X014380Y006289D02*
X014670Y006483D01*
X014670Y006289D02*
X014380Y006289D01*
X014380Y006190D02*
X014380Y006093D01*
X014380Y006141D02*
X014670Y006141D01*
X014670Y006093D02*
X014670Y006190D01*
X014525Y005992D02*
X014428Y005992D01*
X014380Y005943D01*
X014380Y005798D01*
X014670Y005798D01*
X014573Y005798D02*
X014573Y005943D01*
X014525Y005992D01*
X015380Y005943D02*
X015380Y005798D01*
X015670Y005798D01*
X015573Y005798D02*
X015573Y005943D01*
X015525Y005992D01*
X015428Y005992D01*
X015380Y005943D01*
X015380Y006093D02*
X015380Y006190D01*
X015380Y006141D02*
X015670Y006141D01*
X015670Y006093D02*
X015670Y006190D01*
X015670Y006289D02*
X015380Y006289D01*
X015670Y006483D01*
X015380Y006483D01*
X016380Y006289D02*
X016670Y006289D01*
X016525Y005992D02*
X016573Y005943D01*
X016573Y005798D01*
X016670Y005798D02*
X016380Y005798D01*
X016380Y005943D01*
X016428Y005992D01*
X016525Y005992D01*
X013670Y006093D02*
X013670Y006190D01*
X013670Y006141D02*
X013380Y006141D01*
X013380Y006093D02*
X013380Y006190D01*
X013380Y006289D02*
X013670Y006483D01*
X013380Y006483D01*
X013428Y006584D02*
X013380Y006632D01*
X013380Y006729D01*
X013428Y006778D01*
X013477Y006778D01*
X013525Y006729D01*
X013573Y006778D01*
X013622Y006778D01*
X013670Y006729D01*
X013670Y006632D01*
X013622Y006584D01*
X013525Y006681D02*
X013525Y006729D01*
X012670Y006778D02*
X012670Y006584D01*
X012477Y006778D01*
X012428Y006778D01*
X012380Y006729D01*
X012380Y006632D01*
X012428Y006584D01*
X012380Y006483D02*
X012670Y006483D01*
X012380Y006289D01*
X012670Y006289D01*
X012670Y006190D02*
X012670Y006093D01*
X012670Y006141D02*
X012380Y006141D01*
X012380Y006093D02*
X012380Y006190D01*
X012428Y005992D02*
X012525Y005992D01*
X012573Y005943D01*
X012573Y005798D01*
X012670Y005798D02*
X012380Y005798D01*
X012380Y005943D01*
X012428Y005992D01*
X011670Y006093D02*
X011670Y006190D01*
X011670Y006141D02*
X011380Y006141D01*
X011380Y006093D02*
X011380Y006190D01*
X011380Y006289D02*
X011670Y006483D01*
X011380Y006483D01*
X011477Y006584D02*
X011380Y006681D01*
X011670Y006681D01*
X011670Y006584D02*
X011670Y006778D01*
X010670Y006729D02*
X010670Y006632D01*
X010622Y006584D01*
X010428Y006778D01*
X010622Y006778D01*
X010670Y006729D01*
X010622Y006584D02*
X010428Y006584D01*
X010380Y006632D01*
X010380Y006729D01*
X010428Y006778D01*
X010380Y006483D02*
X010670Y006483D01*
X010380Y006289D01*
X010670Y006289D01*
X010670Y006190D02*
X010670Y006093D01*
X010670Y006141D02*
X010380Y006141D01*
X010380Y006093D02*
X010380Y006190D01*
X010428Y005992D02*
X010525Y005992D01*
X010573Y005943D01*
X010573Y005798D01*
X010670Y005798D02*
X010380Y005798D01*
X010380Y005943D01*
X010428Y005992D01*
X011380Y005943D02*
X011380Y005798D01*
X011670Y005798D01*
X011573Y005798D02*
X011573Y005943D01*
X011525Y005992D01*
X011428Y005992D01*
X011380Y005943D01*
X011380Y006289D02*
X011670Y006289D01*
X013380Y006289D02*
X013670Y006289D01*
X013525Y005992D02*
X013573Y005943D01*
X013573Y005798D01*
X013670Y005798D02*
X013380Y005798D01*
X013380Y005943D01*
X013428Y005992D01*
X013525Y005992D01*
X007120Y005981D02*
X007120Y006126D01*
X006927Y006126D01*
X006975Y006227D02*
X006975Y006324D01*
X006830Y006420D02*
X006830Y006227D01*
X007120Y006227D01*
X007120Y005981D02*
X007072Y005932D01*
X006927Y005932D01*
X006878Y005831D02*
X007072Y005638D01*
X007120Y005686D01*
X007120Y005783D01*
X007072Y005831D01*
X006878Y005831D01*
X006830Y005783D01*
X006830Y005686D01*
X006878Y005638D01*
X007072Y005638D01*
X007072Y005536D02*
X006878Y005536D01*
X007072Y005343D01*
X007120Y005391D01*
X007120Y005488D01*
X007072Y005536D01*
X007072Y005343D02*
X006878Y005343D01*
X006830Y005391D01*
X006830Y005488D01*
X006878Y005536D01*
X007120Y005242D02*
X007120Y005048D01*
X007120Y005145D02*
X006830Y005145D01*
X006927Y005048D01*
X006493Y004893D02*
X006300Y004893D01*
X006397Y004797D02*
X006397Y004990D01*
X005193Y004893D02*
X005000Y004893D01*
X002822Y004939D02*
X002822Y004745D01*
X002725Y004648D01*
X002629Y004745D01*
X002629Y004939D01*
X002527Y004890D02*
X002479Y004939D01*
X002382Y004939D01*
X002334Y004890D01*
X002527Y004890D02*
X002527Y004842D01*
X002334Y004648D01*
X002527Y004648D01*
X002233Y004648D02*
X002039Y004648D01*
X002136Y004648D02*
X002136Y004939D01*
X002039Y004842D01*
X001938Y004793D02*
X001745Y004793D01*
X001643Y004745D02*
X001595Y004793D01*
X001450Y004793D01*
X001450Y004697D01*
X001498Y004648D01*
X001595Y004648D01*
X001643Y004697D01*
X001643Y004745D01*
X001547Y004890D02*
X001450Y004793D01*
X001547Y004890D02*
X001643Y004939D01*
X001595Y005128D02*
X001498Y005128D01*
X001450Y005177D01*
X001450Y005273D02*
X001547Y005322D01*
X001595Y005322D01*
X001643Y005273D01*
X001643Y005177D01*
X001595Y005128D01*
X001745Y005225D02*
X001841Y005128D01*
X001938Y005225D01*
X001938Y005419D01*
X001745Y005419D02*
X001745Y005225D01*
X001643Y005419D02*
X001450Y005419D01*
X001450Y005273D01*
X002334Y005273D02*
X002334Y005177D01*
X002382Y005128D01*
X002479Y005128D01*
X002527Y005177D01*
X002527Y005273D01*
X002479Y005322D01*
X002382Y005322D01*
X002334Y005273D01*
X002629Y005225D02*
X002725Y005322D01*
X002774Y005322D01*
X002629Y005322D02*
X002629Y005128D01*
X021380Y005798D02*
X021380Y005943D01*
X021428Y005992D01*
X021525Y005992D01*
X021573Y005943D01*
X021573Y005798D01*
X021670Y005798D02*
X021380Y005798D01*
X021380Y006289D02*
X021670Y006289D01*
X023380Y006289D02*
X023670Y006289D01*
X023525Y005992D02*
X023573Y005943D01*
X023573Y005798D01*
X023670Y005798D02*
X023380Y005798D01*
X023380Y005943D01*
X023428Y005992D01*
X023525Y005992D01*
X025380Y005943D02*
X025380Y005798D01*
X025670Y005798D01*
X025573Y005798D02*
X025573Y005943D01*
X025525Y005992D01*
X025428Y005992D01*
X025380Y005943D01*
X025380Y006289D02*
X025670Y006289D01*
X026428Y006975D02*
X026525Y006879D01*
X026428Y006975D02*
X026380Y007072D01*
X027380Y006289D02*
X027670Y006289D01*
X027525Y005992D02*
X027573Y005943D01*
X027573Y005798D01*
X027670Y005798D02*
X027380Y005798D01*
X027380Y005943D01*
X027428Y005992D01*
X027525Y005992D01*
X029380Y005943D02*
X029380Y005798D01*
X029670Y005798D01*
X029573Y005798D02*
X029573Y005943D01*
X029525Y005992D01*
X029428Y005992D01*
X029380Y005943D01*
X029380Y006289D02*
X029670Y006289D01*
X030477Y006778D02*
X030670Y006584D01*
X030670Y006778D01*
X030477Y006778D02*
X030428Y006778D01*
X031380Y006289D02*
X031670Y006289D01*
X031525Y005992D02*
X031573Y005943D01*
X031573Y005798D01*
X031670Y005798D02*
X031380Y005798D01*
X031380Y005943D01*
X031428Y005992D01*
X031525Y005992D01*
X032477Y006778D02*
X032670Y006584D01*
X032670Y006778D01*
X032670Y006879D02*
X032670Y007072D01*
X032477Y006778D02*
X032428Y006778D01*
X033380Y006289D02*
X033670Y006289D01*
X035580Y006298D02*
X035725Y006298D01*
X035677Y006395D01*
X035677Y006443D01*
X035725Y006492D01*
X035822Y006492D01*
X035870Y006443D01*
X035870Y006347D01*
X035822Y006298D01*
X035580Y006298D02*
X035580Y006492D01*
X035580Y006593D02*
X035773Y006593D01*
X035870Y006690D01*
X035773Y006786D01*
X035580Y006786D01*
X035580Y007182D02*
X035580Y007327D01*
X035628Y007376D01*
X035725Y007376D01*
X035773Y007327D01*
X035773Y007182D01*
X035870Y007182D02*
X035580Y007182D01*
X035773Y007279D02*
X035870Y007376D01*
X035822Y007477D02*
X035870Y007525D01*
X035870Y007622D01*
X035822Y007670D01*
X035822Y007477D02*
X035628Y007477D01*
X035580Y007525D01*
X035580Y007622D01*
X035628Y007670D01*
X035628Y008066D02*
X035677Y008066D01*
X035725Y008115D01*
X035725Y008211D01*
X035773Y008260D01*
X035822Y008260D01*
X035870Y008211D01*
X035870Y008115D01*
X035822Y008066D01*
X035628Y008066D02*
X035580Y008115D01*
X035580Y008211D01*
X035628Y008260D01*
X035725Y008361D02*
X035677Y008409D01*
X035677Y008506D01*
X035725Y008554D01*
X035773Y008554D01*
X035773Y008361D01*
X035725Y008361D02*
X035822Y008361D01*
X035870Y008409D01*
X035870Y008506D01*
X035870Y008656D02*
X035677Y008656D01*
X035773Y008656D02*
X035677Y008752D01*
X035677Y008801D01*
X035677Y008901D02*
X035870Y008998D01*
X035677Y009095D01*
X035725Y009196D02*
X035822Y009196D01*
X035870Y009244D01*
X035870Y009341D01*
X035822Y009389D01*
X035725Y009389D01*
X035677Y009341D01*
X035677Y009244D01*
X035725Y009196D01*
X035870Y009490D02*
X035580Y009684D01*
X035628Y009785D02*
X035822Y009785D01*
X035870Y009833D01*
X035870Y009930D01*
X035822Y009979D01*
X035725Y009979D01*
X035725Y009882D01*
X035628Y009979D02*
X035580Y009930D01*
X035580Y009833D01*
X035628Y009785D01*
X035580Y010080D02*
X035580Y010225D01*
X035628Y010273D01*
X035725Y010273D01*
X035773Y010225D01*
X035773Y010080D01*
X035870Y010080D02*
X035580Y010080D01*
X035580Y010374D02*
X035580Y010471D01*
X035580Y010423D02*
X035870Y010423D01*
X035870Y010471D02*
X035870Y010374D01*
X035822Y010571D02*
X035870Y010619D01*
X035870Y010716D01*
X035822Y010764D01*
X035628Y010764D01*
X035580Y010716D01*
X035580Y010619D01*
X035628Y010571D01*
X035822Y010571D01*
X035825Y012248D02*
X035825Y012442D01*
X035777Y012442D02*
X035970Y012442D01*
X035970Y012543D02*
X035777Y012543D01*
X035777Y012688D01*
X035825Y012736D01*
X035970Y012736D01*
X035922Y012838D02*
X035873Y012886D01*
X035873Y013031D01*
X035825Y013031D02*
X035970Y013031D01*
X035970Y012886D01*
X035922Y012838D01*
X035777Y012886D02*
X035777Y012983D01*
X035825Y013031D01*
X035970Y013132D02*
X035970Y013229D01*
X035970Y013181D02*
X035680Y013181D01*
X035680Y013132D01*
X035825Y013329D02*
X035922Y013329D01*
X035970Y013377D01*
X035970Y013474D01*
X035922Y013522D01*
X035825Y013522D01*
X035777Y013474D01*
X035777Y013377D01*
X035825Y013329D01*
X035825Y013623D02*
X035922Y013623D01*
X035970Y013672D01*
X035970Y013817D01*
X036018Y013817D02*
X035777Y013817D01*
X035777Y013672D01*
X035825Y013623D01*
X036067Y013720D02*
X036067Y013768D01*
X036018Y013817D01*
X035970Y013918D02*
X035680Y014112D01*
X035728Y014213D02*
X035680Y014261D01*
X035680Y014358D01*
X035728Y014406D01*
X035777Y014406D01*
X035825Y014358D01*
X035873Y014406D01*
X035922Y014406D01*
X035970Y014358D01*
X035970Y014261D01*
X035922Y014213D01*
X035825Y014309D02*
X035825Y014358D01*
X035922Y014507D02*
X035922Y014556D01*
X035970Y014556D01*
X035970Y014507D01*
X035922Y014507D01*
X035922Y014655D02*
X035970Y014703D01*
X035970Y014800D01*
X035922Y014848D01*
X035873Y014848D01*
X035825Y014800D01*
X035825Y014751D01*
X035825Y014800D02*
X035777Y014848D01*
X035728Y014848D01*
X035680Y014800D01*
X035680Y014703D01*
X035728Y014655D01*
X035680Y014949D02*
X035873Y014949D01*
X035970Y015046D01*
X035873Y015143D01*
X035680Y015143D01*
X035728Y015539D02*
X035922Y015539D01*
X035970Y015587D01*
X035970Y015684D01*
X035922Y015732D01*
X035825Y015732D01*
X035825Y015635D01*
X035728Y015539D02*
X035680Y015587D01*
X035680Y015684D01*
X035728Y015732D01*
X035680Y015833D02*
X035680Y015978D01*
X035728Y016027D01*
X035825Y016027D01*
X035873Y015978D01*
X035873Y015833D01*
X035970Y015833D02*
X035680Y015833D01*
X035680Y016128D02*
X035680Y016225D01*
X035680Y016176D02*
X035970Y016176D01*
X035970Y016128D02*
X035970Y016225D01*
X035922Y016324D02*
X035970Y016373D01*
X035970Y016469D01*
X035922Y016518D01*
X035728Y016518D01*
X035680Y016469D01*
X035680Y016373D01*
X035728Y016324D01*
X035922Y016324D01*
X038430Y016422D02*
X038575Y016277D01*
X038575Y016470D01*
X038575Y016572D02*
X038575Y016765D01*
X038527Y016866D02*
X038430Y016963D01*
X038720Y016963D01*
X038720Y016866D02*
X038720Y017060D01*
X038672Y017161D02*
X038478Y017354D01*
X038672Y017354D01*
X038720Y017306D01*
X038720Y017209D01*
X038672Y017161D01*
X038478Y017161D01*
X038430Y017209D01*
X038430Y017306D01*
X038478Y017354D01*
X038430Y017456D02*
X038720Y017649D01*
X038430Y017649D01*
X038430Y017750D02*
X038720Y017750D01*
X038720Y017944D01*
X038575Y017847D02*
X038575Y017750D01*
X038430Y017750D02*
X038430Y017944D01*
X038430Y017456D02*
X038720Y017456D01*
X038720Y016717D02*
X038430Y016717D01*
X038575Y016572D01*
X038720Y016422D02*
X038430Y016422D01*
X038430Y016176D02*
X038430Y015982D01*
X038575Y015982D01*
X038527Y016079D01*
X038527Y016127D01*
X038575Y016176D01*
X038672Y016176D01*
X038720Y016127D01*
X038720Y016031D01*
X038672Y015982D01*
X038478Y015881D02*
X038672Y015688D01*
X038720Y015688D01*
X038720Y015586D02*
X038430Y015586D01*
X038430Y015688D02*
X038430Y015881D01*
X038478Y015881D01*
X038720Y015586D02*
X038430Y015393D01*
X038720Y015393D01*
X038672Y015292D02*
X038720Y015243D01*
X038720Y015147D01*
X038672Y015098D01*
X038575Y015147D02*
X038575Y015243D01*
X038623Y015292D01*
X038672Y015292D01*
X038575Y015147D02*
X038527Y015098D01*
X038478Y015098D01*
X038430Y015147D01*
X038430Y015243D01*
X038478Y015292D01*
X041400Y015648D02*
X041448Y015648D01*
X041448Y015697D01*
X041400Y015697D01*
X041400Y015648D01*
X041547Y015648D02*
X041741Y015648D01*
X041644Y015648D02*
X041644Y015939D01*
X041547Y015842D01*
X041842Y015842D02*
X041842Y015697D01*
X041890Y015648D01*
X042035Y015648D01*
X042035Y015842D01*
X042137Y015793D02*
X042233Y015793D01*
X042137Y015648D02*
X042137Y015939D01*
X042330Y015939D01*
X043130Y015733D02*
X043130Y015588D01*
X043420Y015588D01*
X043420Y015733D01*
X043372Y015781D01*
X043178Y015781D01*
X043130Y015733D01*
X043130Y015486D02*
X043420Y015486D01*
X043130Y015293D01*
X043420Y015293D01*
X043372Y015192D02*
X043420Y015143D01*
X043420Y015047D01*
X043372Y014998D01*
X043178Y014998D01*
X043130Y015047D01*
X043130Y015143D01*
X043178Y015192D01*
X043275Y015192D02*
X043275Y015095D01*
X043275Y015192D02*
X043372Y015192D01*
X042280Y014389D02*
X042087Y014389D01*
X042087Y014098D01*
X041985Y014098D02*
X041985Y014292D01*
X042087Y014243D02*
X042183Y014243D01*
X041985Y014098D02*
X041840Y014098D01*
X041792Y014147D01*
X041792Y014292D01*
X041691Y014098D02*
X041497Y014098D01*
X041594Y014098D02*
X041594Y014389D01*
X041497Y014292D01*
X041398Y014147D02*
X041398Y014098D01*
X041350Y014098D01*
X041350Y014147D01*
X041398Y014147D01*
X042830Y013388D02*
X042830Y013291D01*
X042878Y013243D01*
X042830Y013142D02*
X043120Y013142D01*
X043120Y013243D02*
X042927Y013436D01*
X042878Y013436D01*
X042830Y013388D01*
X042830Y013142D02*
X042927Y013045D01*
X042830Y012948D01*
X043120Y012948D01*
X043120Y013243D02*
X043120Y013436D01*
X042280Y012939D02*
X042087Y012939D01*
X042087Y012648D01*
X041985Y012648D02*
X041985Y012842D01*
X042087Y012793D02*
X042183Y012793D01*
X041985Y012648D02*
X041840Y012648D01*
X041792Y012697D01*
X041792Y012842D01*
X041691Y012648D02*
X041497Y012648D01*
X041594Y012648D02*
X041594Y012939D01*
X041497Y012842D01*
X041398Y012697D02*
X041398Y012648D01*
X041350Y012648D01*
X041350Y012697D01*
X041398Y012697D01*
X040522Y011889D02*
X040329Y011889D01*
X040329Y011598D01*
X040227Y011598D02*
X040227Y011792D01*
X040329Y011743D02*
X040425Y011743D01*
X040227Y011598D02*
X040082Y011598D01*
X040034Y011647D01*
X040034Y011792D01*
X039933Y011840D02*
X039739Y011647D01*
X039788Y011598D01*
X039884Y011598D01*
X039933Y011647D01*
X039933Y011840D01*
X039884Y011889D01*
X039788Y011889D01*
X039739Y011840D01*
X039739Y011647D01*
X039638Y011647D02*
X039638Y011840D01*
X039445Y011647D01*
X039493Y011598D01*
X039590Y011598D01*
X039638Y011647D01*
X039638Y011840D02*
X039590Y011889D01*
X039493Y011889D01*
X039445Y011840D01*
X039445Y011647D01*
X039343Y011598D02*
X039150Y011598D01*
X039247Y011598D02*
X039247Y011889D01*
X039150Y011792D01*
X035970Y012248D02*
X035777Y012248D01*
X035680Y012345D01*
X035777Y012442D01*
X034530Y013089D02*
X034337Y013089D01*
X034337Y012798D01*
X034235Y012798D02*
X034235Y012992D01*
X034337Y012943D02*
X034433Y012943D01*
X034235Y012798D02*
X034090Y012798D01*
X034042Y012847D01*
X034042Y012992D01*
X033941Y012798D02*
X033747Y012798D01*
X033844Y012798D02*
X033844Y013089D01*
X033747Y012992D01*
X033648Y012847D02*
X033600Y012847D01*
X033600Y012798D01*
X033648Y012798D01*
X033648Y012847D01*
X038380Y008894D02*
X038380Y008700D01*
X038670Y008700D01*
X038670Y008894D01*
X038525Y008797D02*
X038525Y008700D01*
X038670Y008599D02*
X038380Y008599D01*
X038380Y008406D02*
X038670Y008599D01*
X038670Y008406D02*
X038380Y008406D01*
X038428Y008304D02*
X038622Y008111D01*
X038670Y008159D01*
X038670Y008256D01*
X038622Y008304D01*
X038428Y008304D01*
X038380Y008256D01*
X038380Y008159D01*
X038428Y008111D01*
X038622Y008111D01*
X038670Y008010D02*
X038670Y007816D01*
X038670Y007913D02*
X038380Y007913D01*
X038477Y007816D01*
X038525Y007715D02*
X038525Y007522D01*
X038380Y007667D01*
X038670Y007667D01*
X038525Y007420D02*
X038525Y007227D01*
X038380Y007372D01*
X038670Y007372D01*
X038622Y007126D02*
X038670Y007077D01*
X038670Y006981D01*
X038622Y006932D01*
X038525Y006932D02*
X038477Y007029D01*
X038477Y007077D01*
X038525Y007126D01*
X038622Y007126D01*
X038525Y006932D02*
X038380Y006932D01*
X038380Y007126D01*
X038380Y006831D02*
X038428Y006831D01*
X038622Y006638D01*
X038670Y006638D01*
X038670Y006536D02*
X038380Y006536D01*
X038380Y006638D02*
X038380Y006831D01*
X038670Y006536D02*
X038380Y006343D01*
X038670Y006343D01*
X038622Y006242D02*
X038670Y006193D01*
X038670Y006097D01*
X038622Y006048D01*
X038525Y006097D02*
X038477Y006048D01*
X038428Y006048D01*
X038380Y006097D01*
X038380Y006193D01*
X038428Y006242D01*
X038525Y006193D02*
X038573Y006242D01*
X038622Y006242D01*
X038525Y006193D02*
X038525Y006097D01*
X041500Y005597D02*
X041548Y005597D01*
X041548Y005548D01*
X041500Y005548D01*
X041500Y005597D01*
X041647Y005548D02*
X041841Y005548D01*
X041744Y005548D02*
X041744Y005839D01*
X041647Y005742D01*
X041942Y005742D02*
X041942Y005597D01*
X041990Y005548D01*
X042135Y005548D01*
X042135Y005742D01*
X042237Y005693D02*
X042333Y005693D01*
X042237Y005548D02*
X042237Y005839D01*
X042430Y005839D01*
X042880Y005842D02*
X043170Y005842D01*
X043025Y005943D02*
X043025Y006136D01*
X043170Y006088D02*
X042880Y006088D01*
X043025Y005943D01*
X042880Y005842D02*
X042977Y005745D01*
X042880Y005648D01*
X043170Y005648D01*
X042280Y004439D02*
X042087Y004439D01*
X042087Y004148D01*
X041985Y004148D02*
X041985Y004342D01*
X042087Y004293D02*
X042183Y004293D01*
X041985Y004148D02*
X041840Y004148D01*
X041792Y004197D01*
X041792Y004342D01*
X041691Y004148D02*
X041497Y004148D01*
X041594Y004148D02*
X041594Y004439D01*
X041497Y004342D01*
X041398Y004197D02*
X041398Y004148D01*
X041350Y004148D01*
X041350Y004197D01*
X041398Y004197D01*
X041445Y003989D02*
X041638Y003698D01*
X041638Y003989D01*
X041739Y003989D02*
X041884Y003989D01*
X041933Y003940D01*
X041933Y003747D01*
X041884Y003698D01*
X041739Y003698D01*
X041739Y003989D01*
X041445Y003989D02*
X041445Y003698D01*
X041343Y003747D02*
X041295Y003698D01*
X041198Y003698D01*
X041150Y003747D01*
X041150Y003940D01*
X041198Y003989D01*
X041295Y003989D01*
X041343Y003940D01*
X041343Y003843D02*
X041247Y003843D01*
X041343Y003843D02*
X041343Y003747D01*
X040530Y002989D02*
X040337Y002989D01*
X040337Y002698D01*
X040235Y002698D02*
X040235Y002892D01*
X040337Y002843D02*
X040433Y002843D01*
X040235Y002698D02*
X040090Y002698D01*
X040042Y002747D01*
X040042Y002892D01*
X039941Y002698D02*
X039747Y002698D01*
X039844Y002698D02*
X039844Y002989D01*
X039747Y002892D01*
X039648Y002747D02*
X039648Y002698D01*
X039600Y002698D01*
X039600Y002747D01*
X039648Y002747D01*
X041500Y007098D02*
X041548Y007098D01*
X041548Y007147D01*
X041500Y007147D01*
X041500Y007098D01*
X041647Y007098D02*
X041841Y007098D01*
X041744Y007098D02*
X041744Y007389D01*
X041647Y007292D01*
X041942Y007292D02*
X041942Y007147D01*
X041990Y007098D01*
X042135Y007098D01*
X042135Y007292D01*
X042237Y007243D02*
X042333Y007243D01*
X042237Y007098D02*
X042237Y007389D01*
X042430Y007389D01*
X043130Y007697D02*
X043130Y007793D01*
X043178Y007842D01*
X043275Y007842D02*
X043275Y007745D01*
X043275Y007842D02*
X043372Y007842D01*
X043420Y007793D01*
X043420Y007697D01*
X043372Y007648D01*
X043178Y007648D01*
X043130Y007697D01*
X043130Y007943D02*
X043420Y008136D01*
X043130Y008136D01*
X043130Y008238D02*
X043130Y008383D01*
X043178Y008431D01*
X043372Y008431D01*
X043420Y008383D01*
X043420Y008238D01*
X043130Y008238D01*
X043130Y007943D02*
X043420Y007943D01*
X042237Y008548D02*
X042237Y008839D01*
X042430Y008839D01*
X042333Y008693D02*
X042237Y008693D01*
X042135Y008742D02*
X042135Y008548D01*
X041990Y008548D01*
X041942Y008597D01*
X041942Y008742D01*
X041841Y008548D02*
X041647Y008548D01*
X041744Y008548D02*
X041744Y008839D01*
X041647Y008742D01*
X041548Y008597D02*
X041548Y008548D01*
X041500Y008548D01*
X041500Y008597D01*
X041548Y008597D01*
X042980Y009998D02*
X043077Y010095D01*
X042980Y010192D01*
X043270Y010192D01*
X043222Y010293D02*
X043270Y010341D01*
X043270Y010438D01*
X043222Y010486D01*
X043173Y010486D01*
X043125Y010438D01*
X043125Y010390D01*
X043125Y010438D02*
X043077Y010486D01*
X043028Y010486D01*
X042980Y010438D01*
X042980Y010341D01*
X043028Y010293D01*
X042980Y009998D02*
X043270Y009998D01*
X042087Y017098D02*
X042087Y017389D01*
X042280Y017389D01*
X042183Y017243D02*
X042087Y017243D01*
X041985Y017292D02*
X041985Y017098D01*
X041840Y017098D01*
X041792Y017147D01*
X041792Y017292D01*
X041691Y017098D02*
X041497Y017098D01*
X041594Y017098D02*
X041594Y017389D01*
X041497Y017292D01*
X041398Y017147D02*
X041398Y017098D01*
X041350Y017098D01*
X041350Y017147D01*
X041398Y017147D01*
X042780Y017348D02*
X042877Y017445D01*
X042780Y017542D01*
X043070Y017542D01*
X043070Y017643D02*
X043070Y017836D01*
X043070Y017740D02*
X042780Y017740D01*
X042877Y017643D01*
X042780Y017348D02*
X043070Y017348D01*
X043627Y019298D02*
X043530Y019395D01*
X043820Y019395D01*
X043820Y019298D02*
X043820Y019492D01*
X043772Y019593D02*
X043578Y019786D01*
X043772Y019786D01*
X043820Y019738D01*
X043820Y019641D01*
X043772Y019593D01*
X043578Y019593D01*
X043530Y019641D01*
X043530Y019738D01*
X043578Y019786D01*
X043578Y019888D02*
X043530Y019936D01*
X043530Y020033D01*
X043578Y020081D01*
X043772Y019888D01*
X043820Y019936D01*
X043820Y020033D01*
X043772Y020081D01*
X043578Y020081D01*
X043627Y020182D02*
X043772Y020182D01*
X043820Y020231D01*
X043820Y020376D01*
X043627Y020376D01*
X043675Y020477D02*
X043675Y020574D01*
X043530Y020670D02*
X043530Y020477D01*
X043820Y020477D01*
X043772Y019888D02*
X043578Y019888D01*
X036370Y020198D02*
X036370Y020247D01*
X036322Y020247D01*
X036322Y020198D01*
X036370Y020198D01*
X036370Y020346D02*
X036370Y020539D01*
X036370Y020442D02*
X036080Y020442D01*
X036177Y020346D01*
X036177Y020640D02*
X036322Y020640D01*
X036370Y020689D01*
X036370Y020834D01*
X036177Y020834D01*
X036225Y020935D02*
X036225Y021032D01*
X036080Y021128D02*
X036080Y020935D01*
X036370Y020935D01*
X035070Y020170D02*
X035022Y020218D01*
X034925Y020218D01*
X034877Y020170D01*
X034877Y020073D01*
X034973Y020073D01*
X034877Y019976D02*
X034925Y019928D01*
X035022Y019928D01*
X035070Y019976D01*
X035070Y020170D01*
X034775Y020218D02*
X034775Y019928D01*
X034582Y020218D01*
X034582Y019928D01*
X034481Y019928D02*
X034481Y020218D01*
X034336Y020218D01*
X034287Y020170D01*
X034287Y019976D01*
X034336Y019928D01*
X034481Y019928D01*
X034388Y019168D02*
X034436Y019120D01*
X034388Y019168D02*
X034291Y019168D01*
X034243Y019120D01*
X034243Y019072D01*
X034291Y019023D01*
X034339Y019023D01*
X034291Y019023D02*
X034243Y018975D01*
X034243Y018926D01*
X034291Y018878D01*
X034388Y018878D01*
X034436Y018926D01*
X034537Y018878D02*
X034537Y019072D01*
X034634Y019168D01*
X034731Y019072D01*
X034731Y018878D01*
X034832Y018926D02*
X034832Y018975D01*
X034880Y019023D01*
X034832Y019072D01*
X034832Y019120D01*
X034880Y019168D01*
X034977Y019168D01*
X035025Y019120D01*
X034929Y019023D02*
X034880Y019023D01*
X034832Y018926D02*
X034880Y018878D01*
X034977Y018878D01*
X035025Y018926D01*
X035127Y019023D02*
X035320Y019023D01*
X035223Y018926D02*
X035223Y019120D01*
X034922Y018168D02*
X034970Y018120D01*
X034922Y018168D02*
X034825Y018168D01*
X034777Y018120D01*
X034777Y018072D01*
X034825Y018023D01*
X034922Y018023D01*
X034970Y017975D01*
X034970Y017926D01*
X034922Y017878D01*
X034825Y017878D01*
X034777Y017926D01*
X034675Y017878D02*
X034579Y017878D01*
X034627Y017878D02*
X034627Y018168D01*
X034675Y018168D02*
X034579Y018168D01*
X034479Y018120D02*
X034479Y017926D01*
X034431Y017878D01*
X034334Y017878D01*
X034285Y017926D01*
X034285Y018023D02*
X034382Y018023D01*
X034285Y018023D02*
X034285Y018120D01*
X034334Y018168D01*
X034431Y018168D01*
X034479Y018120D01*
X033722Y020778D02*
X033770Y020826D01*
X033722Y020778D02*
X033625Y020778D01*
X033577Y020826D01*
X033577Y020875D01*
X033770Y021068D01*
X033577Y021068D01*
X033475Y020923D02*
X033282Y020923D01*
X033330Y020778D02*
X033475Y020923D01*
X033330Y021068D02*
X033330Y020778D01*
X032770Y020826D02*
X032722Y020778D01*
X032625Y020778D01*
X032577Y020826D01*
X032577Y020875D01*
X032770Y021068D01*
X032577Y021068D01*
X032475Y021020D02*
X032427Y021068D01*
X032330Y021068D01*
X032282Y021020D01*
X032282Y020923D01*
X032330Y020875D01*
X032379Y020875D01*
X032475Y020923D01*
X032475Y020778D01*
X032282Y020778D01*
X031770Y020826D02*
X031722Y020778D01*
X031625Y020778D01*
X031577Y020826D01*
X031577Y020875D01*
X031770Y021068D01*
X031577Y021068D01*
X031475Y021020D02*
X031427Y021068D01*
X031330Y021068D01*
X031282Y021020D01*
X031282Y020972D01*
X031330Y020923D01*
X031475Y020923D01*
X031475Y021020D01*
X031475Y020923D02*
X031379Y020826D01*
X031282Y020778D01*
X030770Y020826D02*
X030722Y020778D01*
X030625Y020778D01*
X030577Y020826D01*
X030577Y020875D01*
X030770Y021068D01*
X030577Y021068D01*
X030475Y021068D02*
X030475Y021020D01*
X030282Y020826D01*
X030282Y020778D01*
X030475Y020778D01*
X029920Y020875D02*
X029823Y020778D01*
X029727Y020875D01*
X029727Y021068D01*
X029625Y021068D02*
X029432Y021068D01*
X029529Y021068D02*
X029529Y020778D01*
X029625Y020875D01*
X029727Y020923D02*
X029920Y020923D01*
X029920Y020875D02*
X029920Y021068D01*
X029331Y020923D02*
X029186Y020778D01*
X029186Y021068D01*
X029137Y020923D02*
X029331Y020923D01*
X028920Y020923D02*
X028727Y020923D01*
X028727Y020875D02*
X028727Y021068D01*
X028625Y021068D02*
X028432Y021068D01*
X028529Y021068D02*
X028529Y020778D01*
X028625Y020875D01*
X028727Y020875D02*
X028823Y020778D01*
X028920Y020875D01*
X028920Y021068D01*
X028331Y021020D02*
X028282Y021068D01*
X028186Y021068D01*
X028137Y021020D01*
X028137Y020972D01*
X028186Y020923D01*
X028234Y020923D01*
X028186Y020923D02*
X028137Y020875D01*
X028137Y020826D01*
X028186Y020778D01*
X028282Y020778D01*
X028331Y020826D01*
X027920Y020875D02*
X027823Y020778D01*
X027727Y020875D01*
X027727Y021068D01*
X027625Y021068D02*
X027432Y021068D01*
X027529Y021068D02*
X027529Y020778D01*
X027625Y020875D01*
X027727Y020923D02*
X027920Y020923D01*
X027920Y020875D02*
X027920Y021068D01*
X027331Y021068D02*
X027137Y020875D01*
X027137Y020826D01*
X027186Y020778D01*
X027282Y020778D01*
X027331Y020826D01*
X027331Y021068D02*
X027137Y021068D01*
X026920Y021068D02*
X026920Y020875D01*
X026823Y020778D01*
X026727Y020875D01*
X026727Y021068D01*
X026625Y021068D02*
X026432Y021068D01*
X026529Y021068D02*
X026529Y020778D01*
X026625Y020875D01*
X026727Y020923D02*
X026920Y020923D01*
X026331Y020875D02*
X026234Y020778D01*
X026234Y021068D01*
X026331Y021068D02*
X026137Y021068D01*
X025920Y021068D02*
X025920Y020875D01*
X025823Y020778D01*
X025727Y020875D01*
X025727Y021068D01*
X025625Y021068D02*
X025432Y021068D01*
X025529Y021068D02*
X025529Y020778D01*
X025625Y020875D01*
X025727Y020923D02*
X025920Y020923D01*
X025331Y020826D02*
X025282Y020778D01*
X025186Y020778D01*
X025137Y020826D01*
X025331Y021020D01*
X025282Y021068D01*
X025186Y021068D01*
X025137Y021020D01*
X025137Y020826D01*
X025331Y020826D02*
X025331Y021020D01*
X024920Y021068D02*
X024920Y020778D01*
X024775Y020778D01*
X024727Y020826D01*
X024727Y020923D01*
X024775Y020972D01*
X024920Y020972D01*
X024823Y020972D02*
X024727Y021068D01*
X024625Y021020D02*
X024577Y021068D01*
X024480Y021068D01*
X024432Y021020D01*
X024432Y020972D01*
X024480Y020923D01*
X024577Y020923D01*
X024625Y020875D01*
X024625Y020826D01*
X024577Y020778D01*
X024480Y020778D01*
X024432Y020826D01*
X024331Y020778D02*
X024137Y020778D01*
X024234Y020778D02*
X024234Y021068D01*
X023920Y021020D02*
X023872Y021068D01*
X023775Y021068D01*
X023727Y021020D01*
X023727Y020972D01*
X023775Y020923D01*
X023823Y020923D01*
X023775Y020923D02*
X023727Y020875D01*
X023727Y020826D01*
X023775Y020778D01*
X023872Y020778D01*
X023920Y020826D01*
X023625Y020778D02*
X023625Y020972D01*
X023529Y021068D01*
X023432Y020972D01*
X023432Y020778D01*
X023331Y020826D02*
X023282Y020778D01*
X023186Y020778D01*
X023137Y020826D01*
X023137Y020875D01*
X023186Y020923D01*
X023137Y020972D01*
X023137Y021020D01*
X023186Y021068D01*
X023282Y021068D01*
X023331Y021020D01*
X023234Y020923D02*
X023186Y020923D01*
X022920Y020826D02*
X022920Y021020D01*
X022872Y021068D01*
X022775Y021068D01*
X022727Y021020D01*
X022727Y020923D01*
X022823Y020923D01*
X022727Y020826D02*
X022775Y020778D01*
X022872Y020778D01*
X022920Y020826D01*
X022625Y020778D02*
X022432Y021068D01*
X022432Y020778D01*
X022331Y020778D02*
X022186Y020778D01*
X022137Y020826D01*
X022137Y021020D01*
X022186Y021068D01*
X022331Y021068D01*
X022331Y020778D01*
X022625Y020778D02*
X022625Y021068D01*
X021770Y021068D02*
X021770Y020875D01*
X021673Y020778D01*
X021577Y020875D01*
X021577Y021068D01*
X021475Y021020D02*
X021427Y021068D01*
X021330Y021068D01*
X021282Y021020D01*
X021282Y020826D01*
X021330Y020778D01*
X021427Y020778D01*
X021475Y020826D01*
X021475Y020875D01*
X021427Y020923D01*
X021282Y020923D01*
X021577Y020923D02*
X021770Y020923D01*
X020770Y020923D02*
X020577Y020923D01*
X020577Y020875D02*
X020577Y021068D01*
X020475Y021020D02*
X020475Y020972D01*
X020427Y020923D01*
X020330Y020923D01*
X020282Y020972D01*
X020282Y021020D01*
X020330Y021068D01*
X020427Y021068D01*
X020475Y021020D01*
X020427Y020923D02*
X020475Y020875D01*
X020475Y020826D01*
X020427Y020778D01*
X020330Y020778D01*
X020282Y020826D01*
X020282Y020875D01*
X020330Y020923D01*
X020577Y020875D02*
X020673Y020778D01*
X020770Y020875D01*
X020770Y021068D01*
X019770Y021068D02*
X019770Y020875D01*
X019673Y020778D01*
X019577Y020875D01*
X019577Y021068D01*
X019475Y021068D02*
X019475Y021020D01*
X019282Y020826D01*
X019282Y020778D01*
X019475Y020778D01*
X019577Y020923D02*
X019770Y020923D01*
X018770Y020923D02*
X018577Y020923D01*
X018577Y020875D02*
X018577Y021068D01*
X018475Y021020D02*
X018427Y021068D01*
X018330Y021068D01*
X018282Y021020D01*
X018282Y020972D01*
X018330Y020923D01*
X018475Y020923D01*
X018475Y021020D01*
X018475Y020923D02*
X018379Y020826D01*
X018282Y020778D01*
X018577Y020875D02*
X018673Y020778D01*
X018770Y020875D01*
X018770Y021068D01*
X017770Y021068D02*
X017770Y020875D01*
X017673Y020778D01*
X017577Y020875D01*
X017577Y021068D01*
X017475Y021020D02*
X017427Y021068D01*
X017330Y021068D01*
X017282Y021020D01*
X017282Y020923D01*
X017330Y020875D01*
X017379Y020875D01*
X017475Y020923D01*
X017475Y020778D01*
X017282Y020778D01*
X017577Y020923D02*
X017770Y020923D01*
X016770Y020923D02*
X016577Y020923D01*
X016577Y020875D02*
X016577Y021068D01*
X016475Y020923D02*
X016282Y020923D01*
X016330Y020778D02*
X016475Y020923D01*
X016577Y020875D02*
X016673Y020778D01*
X016770Y020875D01*
X016770Y021068D01*
X016330Y021068D02*
X016330Y020778D01*
X015770Y020875D02*
X015673Y020778D01*
X015577Y020875D01*
X015577Y021068D01*
X015475Y021020D02*
X015427Y021068D01*
X015330Y021068D01*
X015282Y021020D01*
X015282Y020972D01*
X015330Y020923D01*
X015379Y020923D01*
X015330Y020923D02*
X015282Y020875D01*
X015282Y020826D01*
X015330Y020778D01*
X015427Y020778D01*
X015475Y020826D01*
X015577Y020923D02*
X015770Y020923D01*
X015770Y020875D02*
X015770Y021068D01*
X014770Y021068D02*
X014770Y020875D01*
X014673Y020778D01*
X014577Y020875D01*
X014577Y021068D01*
X014475Y021068D02*
X014282Y020875D01*
X014282Y020826D01*
X014330Y020778D01*
X014427Y020778D01*
X014475Y020826D01*
X014577Y020923D02*
X014770Y020923D01*
X014475Y021068D02*
X014282Y021068D01*
X013770Y021068D02*
X013770Y020875D01*
X013673Y020778D01*
X013577Y020875D01*
X013577Y021068D01*
X013475Y021068D02*
X013282Y021068D01*
X013379Y021068D02*
X013379Y020778D01*
X013475Y020875D01*
X013577Y020923D02*
X013770Y020923D01*
X012770Y020923D02*
X012577Y020923D01*
X012577Y020875D02*
X012577Y021068D01*
X012475Y021020D02*
X012427Y021068D01*
X012330Y021068D01*
X012282Y021020D01*
X012282Y020826D01*
X012475Y021020D01*
X012475Y020826D01*
X012427Y020778D01*
X012330Y020778D01*
X012282Y020826D01*
X012577Y020875D02*
X012673Y020778D01*
X012770Y020875D01*
X012770Y021068D01*
X011770Y021068D02*
X011577Y020875D01*
X011577Y020826D01*
X011625Y020778D01*
X011722Y020778D01*
X011770Y020826D01*
X011770Y021068D02*
X011577Y021068D01*
X011475Y021020D02*
X011427Y021068D01*
X011330Y021068D01*
X011282Y021020D01*
X011282Y020972D01*
X011330Y020923D01*
X011427Y020923D01*
X011475Y020875D01*
X011475Y020826D01*
X011427Y020778D01*
X011330Y020778D01*
X011282Y020826D01*
X011282Y020875D01*
X011330Y020923D01*
X011427Y020923D02*
X011475Y020972D01*
X011475Y021020D01*
X010770Y021068D02*
X010577Y020875D01*
X010577Y020826D01*
X010625Y020778D01*
X010722Y020778D01*
X010770Y020826D01*
X010770Y021068D02*
X010577Y021068D01*
X010475Y021020D02*
X010427Y021068D01*
X010330Y021068D01*
X010282Y021020D01*
X010282Y020826D01*
X010330Y020778D01*
X010427Y020778D01*
X010475Y020826D01*
X010475Y020875D01*
X010427Y020923D01*
X010282Y020923D01*
X009823Y019170D02*
X009823Y018976D01*
X009727Y019073D02*
X009920Y019073D01*
X009625Y018976D02*
X009577Y018928D01*
X009480Y018928D01*
X009432Y018976D01*
X009432Y019025D01*
X009480Y019073D01*
X009432Y019122D01*
X009432Y019170D01*
X009480Y019218D01*
X009577Y019218D01*
X009625Y019170D01*
X009529Y019073D02*
X009480Y019073D01*
X009331Y019122D02*
X009234Y019218D01*
X009137Y019122D01*
X009137Y018928D01*
X009036Y018976D02*
X008988Y018928D01*
X008891Y018928D01*
X008843Y018976D01*
X008843Y019025D01*
X008891Y019073D01*
X008843Y019122D01*
X008843Y019170D01*
X008891Y019218D01*
X008988Y019218D01*
X009036Y019170D01*
X008939Y019073D02*
X008891Y019073D01*
X008720Y019132D02*
X008575Y019326D01*
X008430Y019132D01*
X008575Y019031D02*
X008575Y018838D01*
X008720Y018736D02*
X008430Y018543D01*
X008430Y018442D02*
X008430Y018248D01*
X008430Y018345D02*
X008720Y018345D01*
X008720Y018543D02*
X008430Y018736D01*
X009331Y018928D02*
X009331Y019122D01*
X007670Y019031D02*
X007525Y018838D01*
X007380Y019031D01*
X007525Y019132D02*
X007525Y019326D01*
X007670Y018736D02*
X007380Y018543D01*
X007428Y018442D02*
X007525Y018442D01*
X007573Y018393D01*
X007573Y018248D01*
X007670Y018248D02*
X007380Y018248D01*
X007380Y018393D01*
X007428Y018442D01*
X007573Y018345D02*
X007670Y018442D01*
X007670Y018543D02*
X007380Y018736D01*
X006020Y018676D02*
X006020Y018482D01*
X005827Y018676D01*
X005778Y018676D01*
X005730Y018627D01*
X005730Y018531D01*
X005778Y018482D01*
X005730Y018284D02*
X006020Y018284D01*
X006020Y018188D02*
X006020Y018381D01*
X005827Y018188D02*
X005730Y018284D01*
X005875Y018086D02*
X005875Y017893D01*
X005923Y017792D02*
X005875Y017743D01*
X005875Y017598D01*
X005972Y017598D01*
X006020Y017647D01*
X006020Y017743D01*
X005972Y017792D01*
X005923Y017792D01*
X005778Y017695D02*
X005730Y017792D01*
X005778Y017695D02*
X005875Y017598D01*
X004917Y017348D02*
X004723Y017348D01*
X004723Y017639D01*
X004622Y017639D02*
X004429Y017639D01*
X004429Y017348D01*
X004622Y017348D01*
X004525Y017493D02*
X004429Y017493D01*
X004327Y017445D02*
X004327Y017397D01*
X004279Y017348D01*
X004182Y017348D01*
X004134Y017397D01*
X004182Y017493D02*
X004279Y017493D01*
X004327Y017445D01*
X004327Y017590D02*
X004279Y017639D01*
X004182Y017639D01*
X004134Y017590D01*
X004134Y017542D01*
X004182Y017493D01*
X004033Y017493D02*
X003984Y017445D01*
X003839Y017445D01*
X003839Y017348D02*
X003839Y017639D01*
X003984Y017639D01*
X004033Y017590D01*
X004033Y017493D01*
X003936Y017445D02*
X004033Y017348D01*
X003738Y017348D02*
X003738Y017639D01*
X003545Y017639D02*
X003545Y017348D01*
X003641Y017445D01*
X003738Y017348D01*
X003443Y017493D02*
X003443Y017590D01*
X003395Y017639D01*
X003250Y017639D01*
X003250Y017348D01*
X003250Y017445D02*
X003395Y017445D01*
X003443Y017493D01*
X002320Y018197D02*
X002272Y018148D01*
X002320Y018197D02*
X002320Y018293D01*
X002272Y018342D01*
X002175Y018342D01*
X002127Y018293D01*
X002127Y018245D01*
X002175Y018148D01*
X002030Y018148D01*
X002030Y018342D01*
X002030Y018443D02*
X002223Y018443D01*
X002320Y018540D01*
X002223Y018636D01*
X002030Y018636D01*
X004137Y019126D02*
X004186Y019078D01*
X004331Y019078D01*
X004331Y019368D01*
X004186Y019368D01*
X004137Y019320D01*
X004137Y019126D01*
X004432Y019078D02*
X004432Y019368D01*
X004625Y019078D01*
X004625Y019368D01*
X004727Y019320D02*
X004727Y019223D01*
X004823Y019223D01*
X004727Y019126D02*
X004775Y019078D01*
X004872Y019078D01*
X004920Y019126D01*
X004920Y019320D01*
X004872Y019368D01*
X004775Y019368D01*
X004727Y019320D01*
X005730Y018970D02*
X005923Y018970D01*
X006020Y018874D01*
X005923Y018777D01*
X005730Y018777D01*
X009135Y018170D02*
X009135Y018073D01*
X009232Y018073D01*
X009135Y017976D02*
X009184Y017928D01*
X009281Y017928D01*
X009329Y017976D01*
X009329Y018170D01*
X009281Y018218D01*
X009184Y018218D01*
X009135Y018170D01*
X009429Y018218D02*
X009525Y018218D01*
X009477Y018218D02*
X009477Y017928D01*
X009525Y017928D02*
X009429Y017928D01*
X009627Y017976D02*
X009675Y017928D01*
X009772Y017928D01*
X009820Y017976D01*
X009820Y018025D01*
X009772Y018073D01*
X009675Y018073D01*
X009627Y018122D01*
X009627Y018170D01*
X009675Y018218D01*
X009772Y018218D01*
X009820Y018170D01*
X007370Y020828D02*
X007177Y020828D01*
X007075Y020828D02*
X006882Y020828D01*
X006979Y020828D02*
X006979Y021118D01*
X006781Y021118D02*
X006636Y021118D01*
X006587Y021070D01*
X006587Y020876D01*
X006636Y020828D01*
X006781Y020828D01*
X006781Y021118D01*
X006486Y021118D02*
X006389Y021118D01*
X006438Y021118D02*
X006438Y020828D01*
X006486Y020828D02*
X006389Y020828D01*
X007273Y020973D02*
X007370Y020973D01*
X007370Y021118D02*
X007370Y020828D01*
X005497Y014889D02*
X005304Y014889D01*
X005304Y014743D01*
X005400Y014792D01*
X005449Y014792D01*
X005497Y014743D01*
X005497Y014647D01*
X005449Y014598D01*
X005352Y014598D01*
X005304Y014647D01*
X005202Y014743D02*
X005009Y014743D01*
X004908Y014743D02*
X004859Y014695D01*
X004714Y014695D01*
X004714Y014598D02*
X004714Y014889D01*
X004859Y014889D01*
X004908Y014840D01*
X004908Y014743D01*
X004811Y014695D02*
X004908Y014598D01*
X004613Y014647D02*
X004565Y014598D01*
X004468Y014598D01*
X004420Y014647D01*
X004319Y014647D02*
X004270Y014598D01*
X004173Y014598D01*
X004125Y014647D01*
X004125Y014695D01*
X004173Y014743D01*
X004270Y014743D01*
X004319Y014695D01*
X004319Y014647D01*
X004270Y014743D02*
X004319Y014792D01*
X004319Y014840D01*
X004270Y014889D01*
X004173Y014889D01*
X004125Y014840D01*
X004125Y014792D01*
X004173Y014743D01*
X004024Y014840D02*
X003830Y014647D01*
X003830Y014598D01*
X003729Y014743D02*
X003536Y014743D01*
X003436Y014598D02*
X003339Y014598D01*
X003388Y014598D02*
X003388Y014889D01*
X003436Y014889D02*
X003339Y014889D01*
X003238Y014889D02*
X003045Y014695D01*
X003093Y014743D02*
X003238Y014598D01*
X003045Y014598D02*
X003045Y014889D01*
X002943Y014840D02*
X002895Y014889D01*
X002798Y014889D01*
X002750Y014840D01*
X002750Y014647D01*
X002798Y014598D01*
X002895Y014598D01*
X002943Y014647D01*
X002943Y014840D01*
X003830Y014889D02*
X004024Y014889D01*
X004024Y014840D01*
X004420Y014840D02*
X004420Y014792D01*
X004468Y014743D01*
X004565Y014743D01*
X004613Y014695D01*
X004613Y014647D01*
X004613Y014840D02*
X004565Y014889D01*
X004468Y014889D01*
X004420Y014840D01*
D13*
X003664Y020133D02*
X003666Y020149D01*
X003672Y020165D01*
X003681Y020179D01*
X003693Y020190D01*
X003707Y020198D01*
X003723Y020203D01*
X003739Y020204D01*
X003755Y020201D01*
X003770Y020194D01*
X003784Y020185D01*
X003794Y020172D01*
X003802Y020157D01*
X003806Y020141D01*
X003806Y020125D01*
X003802Y020109D01*
X003794Y020094D01*
X003784Y020081D01*
X003771Y020072D01*
X003755Y020065D01*
X003739Y020062D01*
X003723Y020063D01*
X003707Y020068D01*
X003693Y020076D01*
X003681Y020087D01*
X003672Y020101D01*
X003666Y020117D01*
X003664Y020133D01*
X039964Y012333D02*
X039966Y012349D01*
X039972Y012365D01*
X039981Y012379D01*
X039993Y012390D01*
X040007Y012398D01*
X040023Y012403D01*
X040039Y012404D01*
X040055Y012401D01*
X040070Y012394D01*
X040084Y012385D01*
X040094Y012372D01*
X040102Y012357D01*
X040106Y012341D01*
X040106Y012325D01*
X040102Y012309D01*
X040094Y012294D01*
X040084Y012281D01*
X040071Y012272D01*
X040055Y012265D01*
X040039Y012262D01*
X040023Y012263D01*
X040007Y012268D01*
X039993Y012276D01*
X039981Y012287D01*
X039972Y012301D01*
X039966Y012317D01*
X039964Y012333D01*
X039964Y003333D02*
X039966Y003349D01*
X039972Y003365D01*
X039981Y003379D01*
X039993Y003390D01*
X040007Y003398D01*
X040023Y003403D01*
X040039Y003404D01*
X040055Y003401D01*
X040070Y003394D01*
X040084Y003385D01*
X040094Y003372D01*
X040102Y003357D01*
X040106Y003341D01*
X040106Y003325D01*
X040102Y003309D01*
X040094Y003294D01*
X040084Y003281D01*
X040071Y003272D01*
X040055Y003265D01*
X040039Y003262D01*
X040023Y003263D01*
X040007Y003268D01*
X039993Y003276D01*
X039981Y003287D01*
X039972Y003301D01*
X039966Y003317D01*
X039964Y003333D01*
D14*
X005435Y005783D02*
X005310Y005783D01*
X005435Y005783D02*
X005435Y006658D01*
X003185Y005783D02*
X000125Y005783D01*
X000125Y009323D01*
X001495Y009323D01*
X001495Y005793D01*
X005435Y008783D02*
X005435Y009323D01*
X001495Y009323D01*
X002741Y010059D02*
X002891Y009758D01*
X003041Y010059D01*
X003202Y010059D02*
X003352Y010209D01*
X003352Y009758D01*
X003202Y009758D02*
X003502Y009758D01*
X003662Y009758D02*
X003737Y009758D01*
X003737Y009833D01*
X003662Y009833D01*
X003662Y009758D01*
X003892Y009758D02*
X004192Y010059D01*
X004192Y010134D01*
X004117Y010209D01*
X003967Y010209D01*
X003892Y010134D01*
X003887Y010508D02*
X003737Y010508D01*
X003662Y010583D01*
X003737Y010734D02*
X003662Y010809D01*
X003662Y010884D01*
X003737Y010959D01*
X003887Y010959D01*
X003962Y010884D01*
X003887Y010734D02*
X003962Y010658D01*
X003962Y010583D01*
X003887Y010508D01*
X003887Y010734D02*
X003737Y010734D01*
X003502Y010734D02*
X003502Y010884D01*
X003427Y010959D01*
X003202Y010959D01*
X003202Y010508D01*
X003202Y010658D02*
X003427Y010658D01*
X003502Y010734D01*
X003352Y010658D02*
X003502Y010508D01*
X003041Y010508D02*
X003041Y010809D01*
X002891Y010959D01*
X002741Y010809D01*
X002741Y010508D01*
X002581Y010583D02*
X002506Y010508D01*
X002281Y010508D01*
X002281Y010959D01*
X002506Y010959D01*
X002581Y010884D01*
X002581Y010809D01*
X002506Y010734D01*
X002281Y010734D01*
X002121Y010583D02*
X002121Y010959D01*
X001820Y010959D02*
X001820Y010583D01*
X001895Y010508D01*
X002046Y010508D01*
X002121Y010583D01*
X002506Y010734D02*
X002581Y010658D01*
X002581Y010583D01*
X002741Y010734D02*
X003041Y010734D01*
X004122Y010809D02*
X004272Y010809D01*
X004197Y010884D02*
X004197Y010583D01*
X004272Y010508D01*
X004429Y010583D02*
X004504Y010508D01*
X004654Y010508D01*
X004730Y010658D02*
X004429Y010658D01*
X004429Y010583D02*
X004429Y010734D01*
X004504Y010809D01*
X004654Y010809D01*
X004730Y010734D01*
X004730Y010658D01*
X004890Y010508D02*
X005115Y010508D01*
X005190Y010583D01*
X005190Y010734D01*
X005115Y010809D01*
X004890Y010809D01*
X004890Y010358D01*
X004192Y009758D02*
X003892Y009758D01*
X001660Y010959D02*
X001360Y010959D01*
X001360Y010508D01*
X001360Y010734D02*
X001510Y010734D01*
D15*
X004185Y011883D02*
X004735Y011883D01*
X004735Y012133D01*
X004635Y012133D01*
X004635Y011933D01*
X004735Y011883D02*
X005185Y011883D01*
X005185Y012333D01*
X004685Y012333D01*
X004435Y012583D01*
X004185Y012333D01*
X004185Y012633D01*
X005135Y012633D01*
X005135Y012783D01*
X005185Y012783D01*
X005185Y012333D01*
X004185Y012333D02*
X004185Y011883D01*
X006035Y015333D02*
X002035Y015333D01*
X002035Y015583D01*
X006035Y015583D01*
X006035Y015333D01*
X006035Y015583D02*
X006035Y017083D01*
X002035Y017083D01*
X002035Y015583D01*
X002785Y017833D02*
X003285Y017833D01*
X003535Y018083D01*
X003785Y017833D01*
X004285Y017833D01*
X004535Y018083D01*
X004785Y017833D01*
X005285Y017833D01*
X005535Y018083D01*
X005535Y018583D01*
X005285Y018833D01*
X004785Y018833D01*
X004535Y018583D01*
X004285Y018833D01*
X003785Y018833D01*
X003535Y018583D01*
X003285Y018833D01*
X002785Y018833D01*
X002535Y018583D01*
X002535Y018083D01*
X002785Y017833D01*
X004285Y019533D02*
X004035Y019783D01*
X004035Y020283D01*
X004285Y020533D01*
X004785Y020533D01*
X005035Y020283D01*
X005035Y019783D01*
X004785Y019533D01*
X004285Y019533D01*
X005035Y019783D02*
X005285Y019533D01*
X005785Y019533D01*
X006035Y019783D01*
X006035Y020283D01*
X006285Y020533D01*
X006785Y020533D01*
X007035Y020283D01*
X007035Y019783D01*
X006785Y019533D01*
X006285Y019533D01*
X006035Y019783D01*
X006035Y020283D02*
X005785Y020533D01*
X005285Y020533D01*
X005035Y020283D01*
X007035Y020283D02*
X007285Y020533D01*
X007785Y020533D01*
X008035Y020283D01*
X008035Y019783D01*
X007785Y019533D01*
X007285Y019533D01*
X007035Y019783D01*
X008035Y019783D02*
X008285Y019533D01*
X008785Y019533D01*
X009035Y019783D01*
X009035Y020283D01*
X009285Y020533D01*
X009785Y020533D01*
X010035Y020283D01*
X010285Y020533D01*
X010785Y020533D01*
X011035Y020283D01*
X011035Y019783D01*
X010785Y019533D01*
X011035Y019283D01*
X011035Y018783D01*
X010785Y018533D01*
X011035Y018283D01*
X011035Y017783D01*
X010785Y017533D01*
X010285Y017533D01*
X010035Y017783D01*
X010035Y018283D01*
X010285Y018533D01*
X010035Y018783D01*
X010035Y019283D01*
X010285Y019533D01*
X010035Y019783D01*
X010035Y020283D01*
X010035Y019783D01*
X009785Y019533D01*
X009285Y019533D01*
X009035Y019783D01*
X009035Y020283D02*
X008785Y020533D01*
X008285Y020533D01*
X008035Y020283D01*
X011035Y020283D02*
X011035Y019783D01*
X011285Y019533D01*
X011035Y019283D01*
X011035Y018783D01*
X011285Y018533D01*
X011035Y018283D01*
X011035Y017783D01*
X011285Y017533D01*
X011785Y017533D01*
X012035Y017783D01*
X012035Y018283D01*
X011785Y018533D01*
X012035Y018783D01*
X012035Y019283D01*
X011785Y019533D01*
X012035Y019783D01*
X012035Y020283D01*
X011785Y020533D01*
X011285Y020533D01*
X011035Y020283D01*
X012035Y020283D02*
X012035Y019783D01*
X012285Y019533D01*
X012035Y019283D01*
X012035Y018783D01*
X012285Y018533D01*
X012035Y018283D01*
X012035Y017783D01*
X012285Y017533D01*
X012785Y017533D01*
X013035Y017783D01*
X013285Y017533D01*
X013785Y017533D01*
X014035Y017783D01*
X014285Y017533D01*
X014785Y017533D01*
X015035Y017783D01*
X015285Y017533D01*
X015785Y017533D01*
X016035Y017783D01*
X016285Y017533D01*
X016785Y017533D01*
X017035Y017783D01*
X017285Y017533D01*
X017785Y017533D01*
X018035Y017783D01*
X018035Y018283D01*
X017785Y018533D01*
X018035Y018783D01*
X018035Y019283D01*
X017785Y019533D01*
X018035Y019783D01*
X018035Y020283D01*
X017785Y020533D01*
X017285Y020533D01*
X017035Y020283D01*
X017035Y019783D01*
X017285Y019533D01*
X017035Y019283D01*
X017035Y018783D01*
X017285Y018533D01*
X017035Y018283D01*
X017035Y017783D01*
X017035Y018283D01*
X016785Y018533D01*
X017035Y018783D01*
X017035Y019283D01*
X016785Y019533D01*
X017035Y019783D01*
X017035Y020283D01*
X016785Y020533D01*
X016285Y020533D01*
X016035Y020283D01*
X016035Y019783D01*
X016285Y019533D01*
X016035Y019283D01*
X016035Y018783D01*
X016285Y018533D01*
X016035Y018283D01*
X016035Y017783D01*
X016035Y018283D01*
X015785Y018533D01*
X016035Y018783D01*
X016035Y019283D01*
X015785Y019533D01*
X016035Y019783D01*
X016035Y020283D01*
X015785Y020533D01*
X015285Y020533D01*
X015035Y020283D01*
X015035Y019783D01*
X015285Y019533D01*
X015035Y019283D01*
X015035Y018783D01*
X015285Y018533D01*
X015035Y018283D01*
X015035Y017783D01*
X015035Y018283D01*
X014785Y018533D01*
X015035Y018783D01*
X015035Y019283D01*
X014785Y019533D01*
X015035Y019783D01*
X015035Y020283D01*
X014785Y020533D01*
X014285Y020533D01*
X014035Y020283D01*
X014035Y019783D01*
X014285Y019533D01*
X014035Y019283D01*
X014035Y018783D01*
X014285Y018533D01*
X014035Y018283D01*
X014035Y017783D01*
X014035Y018283D01*
X013785Y018533D01*
X014035Y018783D01*
X014035Y019283D01*
X013785Y019533D01*
X014035Y019783D01*
X014035Y020283D01*
X013785Y020533D01*
X013285Y020533D01*
X013035Y020283D01*
X013035Y019783D01*
X013285Y019533D01*
X013035Y019283D01*
X013035Y018783D01*
X013285Y018533D01*
X013035Y018283D01*
X013035Y017783D01*
X013035Y018283D01*
X012785Y018533D01*
X013035Y018783D01*
X013035Y019283D01*
X012785Y019533D01*
X013035Y019783D01*
X013035Y020283D01*
X012785Y020533D01*
X012285Y020533D01*
X012035Y020283D01*
X018035Y020283D02*
X018035Y019783D01*
X018285Y019533D01*
X018035Y019283D01*
X018035Y018783D01*
X018285Y018533D01*
X018035Y018283D01*
X018035Y017783D01*
X018285Y017533D01*
X018785Y017533D01*
X019035Y017783D01*
X019285Y017533D01*
X019785Y017533D01*
X020035Y017783D01*
X020285Y017533D01*
X020785Y017533D01*
X021035Y017783D01*
X021285Y017533D01*
X021785Y017533D01*
X022035Y017783D01*
X022285Y017533D01*
X022785Y017533D01*
X023035Y017783D01*
X023285Y017533D01*
X023785Y017533D01*
X024035Y017783D01*
X024285Y017533D01*
X024785Y017533D01*
X025035Y017783D01*
X025035Y018283D01*
X024785Y018533D01*
X025035Y018783D01*
X025035Y019283D01*
X024785Y019533D01*
X025035Y019783D01*
X025035Y020283D01*
X024785Y020533D01*
X024285Y020533D01*
X024035Y020283D01*
X024035Y019783D01*
X024285Y019533D01*
X024035Y019283D01*
X024035Y018783D01*
X024285Y018533D01*
X024035Y018283D01*
X024035Y017783D01*
X024035Y018283D01*
X023785Y018533D01*
X024035Y018783D01*
X024035Y019283D01*
X023785Y019533D01*
X024035Y019783D01*
X024035Y020283D01*
X023785Y020533D01*
X023285Y020533D01*
X023035Y020283D01*
X023035Y019783D01*
X023285Y019533D01*
X023035Y019283D01*
X023035Y018783D01*
X023285Y018533D01*
X023035Y018283D01*
X023035Y017783D01*
X023035Y018283D01*
X022785Y018533D01*
X023035Y018783D01*
X023035Y019283D01*
X022785Y019533D01*
X023035Y019783D01*
X023035Y020283D01*
X022785Y020533D01*
X022285Y020533D01*
X022035Y020283D01*
X022035Y019783D01*
X022285Y019533D01*
X022035Y019283D01*
X022035Y018783D01*
X022285Y018533D01*
X022035Y018283D01*
X022035Y017783D01*
X022035Y018283D01*
X021785Y018533D01*
X022035Y018783D01*
X022035Y019283D01*
X021785Y019533D01*
X022035Y019783D01*
X022035Y020283D01*
X021785Y020533D01*
X021285Y020533D01*
X021035Y020283D01*
X021035Y019783D01*
X021285Y019533D01*
X021035Y019283D01*
X021035Y018783D01*
X021285Y018533D01*
X021035Y018283D01*
X021035Y017783D01*
X021035Y018283D01*
X020785Y018533D01*
X021035Y018783D01*
X021035Y019283D01*
X020785Y019533D01*
X021035Y019783D01*
X021035Y020283D01*
X020785Y020533D01*
X020285Y020533D01*
X020035Y020283D01*
X020035Y019783D01*
X020285Y019533D01*
X020035Y019283D01*
X020035Y018783D01*
X020285Y018533D01*
X020035Y018283D01*
X020035Y017783D01*
X020035Y018283D01*
X019785Y018533D01*
X020035Y018783D01*
X020035Y019283D01*
X019785Y019533D01*
X020035Y019783D01*
X020035Y020283D01*
X019785Y020533D01*
X019285Y020533D01*
X019035Y020283D01*
X019035Y019783D01*
X019285Y019533D01*
X019035Y019283D01*
X019035Y018783D01*
X019285Y018533D01*
X019035Y018283D01*
X019035Y017783D01*
X019035Y018283D01*
X018785Y018533D01*
X019035Y018783D01*
X019035Y019283D01*
X018785Y019533D01*
X019035Y019783D01*
X019035Y020283D01*
X018785Y020533D01*
X018285Y020533D01*
X018035Y020283D01*
X025035Y020283D02*
X025035Y019783D01*
X025285Y019533D01*
X025035Y019283D01*
X025035Y018783D01*
X025285Y018533D01*
X025035Y018283D01*
X025035Y017783D01*
X025285Y017533D01*
X025785Y017533D01*
X026035Y017783D01*
X026285Y017533D01*
X026785Y017533D01*
X027035Y017783D01*
X027035Y018283D01*
X026785Y018533D01*
X027035Y018783D01*
X027035Y019283D01*
X026785Y019533D01*
X027035Y019783D01*
X027035Y020283D01*
X026785Y020533D01*
X026285Y020533D01*
X026035Y020283D01*
X026035Y019783D01*
X026285Y019533D01*
X026035Y019283D01*
X026035Y018783D01*
X026285Y018533D01*
X026035Y018283D01*
X026035Y017783D01*
X026035Y018283D01*
X025785Y018533D01*
X026035Y018783D01*
X026035Y019283D01*
X025785Y019533D01*
X026035Y019783D01*
X026035Y020283D01*
X025785Y020533D01*
X025285Y020533D01*
X025035Y020283D01*
X027035Y020283D02*
X027035Y019783D01*
X027285Y019533D01*
X027035Y019283D01*
X027035Y018783D01*
X027285Y018533D01*
X027035Y018283D01*
X027035Y017783D01*
X027285Y017533D01*
X027785Y017533D01*
X028035Y017783D01*
X028285Y017533D01*
X028785Y017533D01*
X029035Y017783D01*
X029285Y017533D01*
X029785Y017533D01*
X030035Y017783D01*
X030285Y017533D01*
X030785Y017533D01*
X031035Y017783D01*
X031285Y017533D01*
X031785Y017533D01*
X032035Y017783D01*
X032285Y017533D01*
X032785Y017533D01*
X033035Y017783D01*
X033285Y017533D01*
X033785Y017533D01*
X034035Y017783D01*
X034035Y018283D01*
X033785Y018533D01*
X034035Y018783D01*
X034035Y019283D01*
X033785Y019533D01*
X034035Y019783D01*
X034035Y020283D01*
X033785Y020533D01*
X033285Y020533D01*
X033035Y020283D01*
X033035Y019783D01*
X033285Y019533D01*
X033035Y019283D01*
X033035Y018783D01*
X033285Y018533D01*
X033035Y018283D01*
X033035Y017783D01*
X033035Y018283D01*
X032785Y018533D01*
X033035Y018783D01*
X033035Y019283D01*
X032785Y019533D01*
X033035Y019783D01*
X033035Y020283D01*
X032785Y020533D01*
X032285Y020533D01*
X032035Y020283D01*
X032035Y019783D01*
X032285Y019533D01*
X032035Y019283D01*
X032035Y018783D01*
X032285Y018533D01*
X032035Y018283D01*
X032035Y017783D01*
X032035Y018283D01*
X031785Y018533D01*
X032035Y018783D01*
X032035Y019283D01*
X031785Y019533D01*
X032035Y019783D01*
X032035Y020283D01*
X031785Y020533D01*
X031285Y020533D01*
X031035Y020283D01*
X031035Y019783D01*
X031285Y019533D01*
X031035Y019283D01*
X031035Y018783D01*
X031285Y018533D01*
X031035Y018283D01*
X031035Y017783D01*
X031035Y018283D01*
X030785Y018533D01*
X031035Y018783D01*
X031035Y019283D01*
X030785Y019533D01*
X031035Y019783D01*
X031035Y020283D01*
X030785Y020533D01*
X030285Y020533D01*
X030035Y020283D01*
X030035Y019783D01*
X030285Y019533D01*
X030035Y019283D01*
X030035Y018783D01*
X030285Y018533D01*
X030035Y018283D01*
X030035Y017783D01*
X030035Y018283D01*
X029785Y018533D01*
X030035Y018783D01*
X030035Y019283D01*
X029785Y019533D01*
X030035Y019783D01*
X030035Y020283D01*
X029785Y020533D01*
X029285Y020533D01*
X029035Y020283D01*
X029035Y019783D01*
X029285Y019533D01*
X029035Y019283D01*
X029035Y018783D01*
X029285Y018533D01*
X029035Y018283D01*
X029035Y017783D01*
X029035Y018283D01*
X028785Y018533D01*
X029035Y018783D01*
X029035Y019283D01*
X028785Y019533D01*
X029035Y019783D01*
X029035Y020283D01*
X028785Y020533D01*
X028285Y020533D01*
X028035Y020283D01*
X028035Y019783D01*
X028285Y019533D01*
X028035Y019283D01*
X028035Y018783D01*
X028285Y018533D01*
X028035Y018283D01*
X028035Y017783D01*
X028035Y018283D01*
X027785Y018533D01*
X028035Y018783D01*
X028035Y019283D01*
X027785Y019533D01*
X028035Y019783D01*
X028035Y020283D01*
X027785Y020533D01*
X027285Y020533D01*
X027035Y020283D01*
X035035Y020483D02*
X035035Y020983D01*
X041535Y019583D02*
X041535Y019083D01*
X040685Y019833D02*
X040687Y019906D01*
X040693Y019979D01*
X040703Y020051D01*
X040717Y020123D01*
X040734Y020194D01*
X040756Y020264D01*
X040781Y020333D01*
X040810Y020400D01*
X040842Y020465D01*
X040878Y020529D01*
X040918Y020591D01*
X040960Y020650D01*
X041006Y020707D01*
X041055Y020761D01*
X041107Y020813D01*
X041161Y020862D01*
X041218Y020908D01*
X041277Y020950D01*
X041339Y020990D01*
X041403Y021026D01*
X041468Y021058D01*
X041535Y021087D01*
X041604Y021112D01*
X041674Y021134D01*
X041745Y021151D01*
X041817Y021165D01*
X041889Y021175D01*
X041962Y021181D01*
X042035Y021183D01*
X042108Y021181D01*
X042181Y021175D01*
X042253Y021165D01*
X042325Y021151D01*
X042396Y021134D01*
X042466Y021112D01*
X042535Y021087D01*
X042602Y021058D01*
X042667Y021026D01*
X042731Y020990D01*
X042793Y020950D01*
X042852Y020908D01*
X042909Y020862D01*
X042963Y020813D01*
X043015Y020761D01*
X043064Y020707D01*
X043110Y020650D01*
X043152Y020591D01*
X043192Y020529D01*
X043228Y020465D01*
X043260Y020400D01*
X043289Y020333D01*
X043314Y020264D01*
X043336Y020194D01*
X043353Y020123D01*
X043367Y020051D01*
X043377Y019979D01*
X043383Y019906D01*
X043385Y019833D01*
X043383Y019760D01*
X043377Y019687D01*
X043367Y019615D01*
X043353Y019543D01*
X043336Y019472D01*
X043314Y019402D01*
X043289Y019333D01*
X043260Y019266D01*
X043228Y019201D01*
X043192Y019137D01*
X043152Y019075D01*
X043110Y019016D01*
X043064Y018959D01*
X043015Y018905D01*
X042963Y018853D01*
X042909Y018804D01*
X042852Y018758D01*
X042793Y018716D01*
X042731Y018676D01*
X042667Y018640D01*
X042602Y018608D01*
X042535Y018579D01*
X042466Y018554D01*
X042396Y018532D01*
X042325Y018515D01*
X042253Y018501D01*
X042181Y018491D01*
X042108Y018485D01*
X042035Y018483D01*
X041962Y018485D01*
X041889Y018491D01*
X041817Y018501D01*
X041745Y018515D01*
X041674Y018532D01*
X041604Y018554D01*
X041535Y018579D01*
X041468Y018608D01*
X041403Y018640D01*
X041339Y018676D01*
X041277Y018716D01*
X041218Y018758D01*
X041161Y018804D01*
X041107Y018853D01*
X041055Y018905D01*
X041006Y018959D01*
X040960Y019016D01*
X040918Y019075D01*
X040878Y019137D01*
X040842Y019201D01*
X040810Y019266D01*
X040781Y019333D01*
X040756Y019402D01*
X040734Y019472D01*
X040717Y019543D01*
X040703Y019615D01*
X040693Y019687D01*
X040687Y019760D01*
X040685Y019833D01*
X043696Y018950D02*
X046137Y018950D01*
X046137Y016194D01*
X043696Y016194D01*
X043696Y018950D01*
X041835Y018083D02*
X041835Y017583D01*
X041835Y016583D02*
X041835Y016083D01*
X041835Y015083D02*
X041835Y014583D01*
X041835Y013583D02*
X041835Y013083D01*
X043696Y011628D02*
X046137Y011628D01*
X046137Y016195D01*
X046452Y016195D01*
X046452Y011628D01*
X046137Y011628D01*
X046137Y011600D02*
X046137Y008844D01*
X043696Y008844D01*
X043696Y011600D01*
X046137Y011600D01*
X046452Y011600D01*
X046452Y008844D01*
X046137Y008844D01*
X046137Y008845D02*
X046137Y004278D01*
X043696Y004278D01*
X043696Y008845D01*
X046137Y008845D01*
X046452Y008845D01*
X046452Y004278D01*
X046137Y004278D01*
X042035Y003283D02*
X042035Y002783D01*
X041785Y002533D01*
X041285Y002533D01*
X041035Y002783D01*
X041035Y003283D01*
X041285Y003533D01*
X041785Y003533D01*
X042035Y003283D01*
X041885Y004583D02*
X041885Y005083D01*
X041885Y006083D02*
X041885Y006583D01*
X041885Y007583D02*
X041885Y008083D01*
X041885Y009083D02*
X041885Y009583D01*
X041335Y010583D02*
X041335Y011083D01*
X040485Y011333D02*
X040487Y011406D01*
X040493Y011479D01*
X040503Y011551D01*
X040517Y011623D01*
X040534Y011694D01*
X040556Y011764D01*
X040581Y011833D01*
X040610Y011900D01*
X040642Y011965D01*
X040678Y012029D01*
X040718Y012091D01*
X040760Y012150D01*
X040806Y012207D01*
X040855Y012261D01*
X040907Y012313D01*
X040961Y012362D01*
X041018Y012408D01*
X041077Y012450D01*
X041139Y012490D01*
X041203Y012526D01*
X041268Y012558D01*
X041335Y012587D01*
X041404Y012612D01*
X041474Y012634D01*
X041545Y012651D01*
X041617Y012665D01*
X041689Y012675D01*
X041762Y012681D01*
X041835Y012683D01*
X041908Y012681D01*
X041981Y012675D01*
X042053Y012665D01*
X042125Y012651D01*
X042196Y012634D01*
X042266Y012612D01*
X042335Y012587D01*
X042402Y012558D01*
X042467Y012526D01*
X042531Y012490D01*
X042593Y012450D01*
X042652Y012408D01*
X042709Y012362D01*
X042763Y012313D01*
X042815Y012261D01*
X042864Y012207D01*
X042910Y012150D01*
X042952Y012091D01*
X042992Y012029D01*
X043028Y011965D01*
X043060Y011900D01*
X043089Y011833D01*
X043114Y011764D01*
X043136Y011694D01*
X043153Y011623D01*
X043167Y011551D01*
X043177Y011479D01*
X043183Y011406D01*
X043185Y011333D01*
X043183Y011260D01*
X043177Y011187D01*
X043167Y011115D01*
X043153Y011043D01*
X043136Y010972D01*
X043114Y010902D01*
X043089Y010833D01*
X043060Y010766D01*
X043028Y010701D01*
X042992Y010637D01*
X042952Y010575D01*
X042910Y010516D01*
X042864Y010459D01*
X042815Y010405D01*
X042763Y010353D01*
X042709Y010304D01*
X042652Y010258D01*
X042593Y010216D01*
X042531Y010176D01*
X042467Y010140D01*
X042402Y010108D01*
X042335Y010079D01*
X042266Y010054D01*
X042196Y010032D01*
X042125Y010015D01*
X042053Y010001D01*
X041981Y009991D01*
X041908Y009985D01*
X041835Y009983D01*
X041762Y009985D01*
X041689Y009991D01*
X041617Y010001D01*
X041545Y010015D01*
X041474Y010032D01*
X041404Y010054D01*
X041335Y010079D01*
X041268Y010108D01*
X041203Y010140D01*
X041139Y010176D01*
X041077Y010216D01*
X041018Y010258D01*
X040961Y010304D01*
X040907Y010353D01*
X040855Y010405D01*
X040806Y010459D01*
X040760Y010516D01*
X040718Y010575D01*
X040678Y010637D01*
X040642Y010701D01*
X040610Y010766D01*
X040581Y010833D01*
X040556Y010902D01*
X040534Y010972D01*
X040517Y011043D01*
X040503Y011115D01*
X040493Y011187D01*
X040487Y011260D01*
X040485Y011333D01*
X043696Y011628D02*
X043696Y016195D01*
X046137Y016195D01*
X046137Y016194D02*
X046452Y016194D01*
X046452Y018950D01*
X046137Y018950D01*
X034035Y012583D02*
X034035Y012083D01*
X033785Y005533D02*
X033285Y005533D01*
X033035Y005283D01*
X033035Y004783D01*
X033285Y004533D01*
X033035Y004283D01*
X033035Y003783D01*
X033285Y003533D01*
X033035Y003283D01*
X033035Y002783D01*
X033285Y002533D01*
X033785Y002533D01*
X034035Y002783D01*
X034035Y003283D01*
X033785Y003533D01*
X034035Y003783D01*
X034035Y004283D01*
X033785Y004533D01*
X034035Y004783D01*
X034035Y005283D01*
X033785Y005533D01*
X033035Y005283D02*
X032785Y005533D01*
X032285Y005533D01*
X032035Y005283D01*
X032035Y004783D01*
X032285Y004533D01*
X032035Y004283D01*
X032035Y003783D01*
X032285Y003533D01*
X032035Y003283D01*
X032035Y002783D01*
X032285Y002533D01*
X032785Y002533D01*
X033035Y002783D01*
X033035Y003283D01*
X032785Y003533D01*
X033035Y003783D01*
X033035Y004283D01*
X032785Y004533D01*
X033035Y004783D01*
X033035Y005283D01*
X032035Y005283D02*
X032035Y004783D01*
X031785Y004533D01*
X032035Y004283D01*
X032035Y003783D01*
X031785Y003533D01*
X032035Y003283D01*
X032035Y002783D01*
X031785Y002533D01*
X031285Y002533D01*
X031035Y002783D01*
X031035Y003283D01*
X031285Y003533D01*
X031035Y003783D01*
X031035Y004283D01*
X031285Y004533D01*
X031035Y004783D01*
X031035Y005283D01*
X031285Y005533D01*
X031785Y005533D01*
X032035Y005283D01*
X031035Y005283D02*
X031035Y004783D01*
X030785Y004533D01*
X031035Y004283D01*
X031035Y003783D01*
X030785Y003533D01*
X031035Y003283D01*
X031035Y002783D01*
X030785Y002533D01*
X030285Y002533D01*
X030035Y002783D01*
X030035Y003283D01*
X030285Y003533D01*
X030035Y003783D01*
X030035Y004283D01*
X030285Y004533D01*
X030035Y004783D01*
X030035Y005283D01*
X030285Y005533D01*
X030785Y005533D01*
X031035Y005283D01*
X030035Y005283D02*
X030035Y004783D01*
X029785Y004533D01*
X030035Y004283D01*
X030035Y003783D01*
X029785Y003533D01*
X030035Y003283D01*
X030035Y002783D01*
X029785Y002533D01*
X029285Y002533D01*
X029035Y002783D01*
X029035Y003283D01*
X029285Y003533D01*
X029035Y003783D01*
X029035Y004283D01*
X029285Y004533D01*
X029035Y004783D01*
X029035Y005283D01*
X029285Y005533D01*
X029785Y005533D01*
X030035Y005283D01*
X029035Y005283D02*
X029035Y004783D01*
X028785Y004533D01*
X029035Y004283D01*
X029035Y003783D01*
X028785Y003533D01*
X029035Y003283D01*
X029035Y002783D01*
X028785Y002533D01*
X028285Y002533D01*
X028035Y002783D01*
X028035Y003283D01*
X028285Y003533D01*
X028035Y003783D01*
X028035Y004283D01*
X028285Y004533D01*
X028035Y004783D01*
X028035Y005283D01*
X028285Y005533D01*
X028785Y005533D01*
X029035Y005283D01*
X028035Y005283D02*
X028035Y004783D01*
X027785Y004533D01*
X028035Y004283D01*
X028035Y003783D01*
X027785Y003533D01*
X028035Y003283D01*
X028035Y002783D01*
X027785Y002533D01*
X027285Y002533D01*
X027035Y002783D01*
X026785Y002533D01*
X026285Y002533D01*
X026035Y002783D01*
X026035Y003283D01*
X026285Y003533D01*
X026035Y003783D01*
X026035Y004283D01*
X026285Y004533D01*
X026035Y004783D01*
X026035Y005283D01*
X026285Y005533D01*
X026785Y005533D01*
X027035Y005283D01*
X027035Y004783D01*
X026785Y004533D01*
X027035Y004283D01*
X027035Y003783D01*
X026785Y003533D01*
X027035Y003283D01*
X027035Y002783D01*
X027035Y003283D01*
X027285Y003533D01*
X027035Y003783D01*
X027035Y004283D01*
X027285Y004533D01*
X027035Y004783D01*
X027035Y005283D01*
X027285Y005533D01*
X027785Y005533D01*
X028035Y005283D01*
X026035Y005283D02*
X026035Y004783D01*
X025785Y004533D01*
X026035Y004283D01*
X026035Y003783D01*
X025785Y003533D01*
X026035Y003283D01*
X026035Y002783D01*
X025785Y002533D01*
X025285Y002533D01*
X025035Y002783D01*
X025035Y003283D01*
X025285Y003533D01*
X025035Y003783D01*
X025035Y004283D01*
X025285Y004533D01*
X025035Y004783D01*
X025035Y005283D01*
X025285Y005533D01*
X025785Y005533D01*
X026035Y005283D01*
X025035Y005283D02*
X025035Y004783D01*
X024785Y004533D01*
X025035Y004283D01*
X025035Y003783D01*
X024785Y003533D01*
X025035Y003283D01*
X025035Y002783D01*
X024785Y002533D01*
X024285Y002533D01*
X024035Y002783D01*
X024035Y003283D01*
X024285Y003533D01*
X024035Y003783D01*
X024035Y004283D01*
X024285Y004533D01*
X024035Y004783D01*
X024035Y005283D01*
X024285Y005533D01*
X024785Y005533D01*
X025035Y005283D01*
X024035Y005283D02*
X024035Y004783D01*
X023785Y004533D01*
X024035Y004283D01*
X024035Y003783D01*
X023785Y003533D01*
X024035Y003283D01*
X024035Y002783D01*
X023785Y002533D01*
X023285Y002533D01*
X023035Y002783D01*
X023035Y003283D01*
X023285Y003533D01*
X023035Y003783D01*
X023035Y004283D01*
X023285Y004533D01*
X023035Y004783D01*
X023035Y005283D01*
X023285Y005533D01*
X023785Y005533D01*
X024035Y005283D01*
X023035Y005283D02*
X023035Y004783D01*
X022785Y004533D01*
X023035Y004283D01*
X023035Y003783D01*
X022785Y003533D01*
X023035Y003283D01*
X023035Y002783D01*
X022785Y002533D01*
X022285Y002533D01*
X022035Y002783D01*
X021785Y002533D01*
X021285Y002533D01*
X021035Y002783D01*
X020785Y002533D01*
X020285Y002533D01*
X020035Y002783D01*
X019785Y002533D01*
X019285Y002533D01*
X019035Y002783D01*
X018785Y002533D01*
X018285Y002533D01*
X018035Y002783D01*
X017785Y002533D01*
X017285Y002533D01*
X017035Y002783D01*
X016785Y002533D01*
X016285Y002533D01*
X016035Y002783D01*
X015785Y002533D01*
X015285Y002533D01*
X015035Y002783D01*
X014785Y002533D01*
X014285Y002533D01*
X014035Y002783D01*
X013785Y002533D01*
X013285Y002533D01*
X013035Y002783D01*
X012785Y002533D01*
X012285Y002533D01*
X012035Y002783D01*
X011785Y002533D01*
X011285Y002533D01*
X011035Y002783D01*
X010785Y002533D01*
X010285Y002533D01*
X010035Y002783D01*
X010035Y003283D01*
X010285Y003533D01*
X010035Y003783D01*
X010035Y004283D01*
X010285Y004533D01*
X010035Y004783D01*
X010035Y005283D01*
X010285Y005533D01*
X010785Y005533D01*
X011035Y005283D01*
X011035Y004783D01*
X010785Y004533D01*
X011035Y004283D01*
X011035Y003783D01*
X010785Y003533D01*
X011035Y003283D01*
X011035Y002783D01*
X011035Y003283D01*
X011285Y003533D01*
X011035Y003783D01*
X011035Y004283D01*
X011285Y004533D01*
X011035Y004783D01*
X011035Y005283D01*
X011285Y005533D01*
X011785Y005533D01*
X012035Y005283D01*
X012035Y004783D01*
X011785Y004533D01*
X012035Y004283D01*
X012035Y003783D01*
X011785Y003533D01*
X012035Y003283D01*
X012035Y002783D01*
X012035Y003283D01*
X012285Y003533D01*
X012035Y003783D01*
X012035Y004283D01*
X012285Y004533D01*
X012035Y004783D01*
X012035Y005283D01*
X012285Y005533D01*
X012785Y005533D01*
X013035Y005283D01*
X013035Y004783D01*
X012785Y004533D01*
X013035Y004283D01*
X013035Y003783D01*
X012785Y003533D01*
X013035Y003283D01*
X013035Y002783D01*
X013035Y003283D01*
X013285Y003533D01*
X013035Y003783D01*
X013035Y004283D01*
X013285Y004533D01*
X013035Y004783D01*
X013035Y005283D01*
X013285Y005533D01*
X013785Y005533D01*
X014035Y005283D01*
X014035Y004783D01*
X013785Y004533D01*
X014035Y004283D01*
X014035Y003783D01*
X013785Y003533D01*
X014035Y003283D01*
X014035Y002783D01*
X014035Y003283D01*
X014285Y003533D01*
X014035Y003783D01*
X014035Y004283D01*
X014285Y004533D01*
X014035Y004783D01*
X014035Y005283D01*
X014285Y005533D01*
X014785Y005533D01*
X015035Y005283D01*
X015035Y004783D01*
X014785Y004533D01*
X015035Y004283D01*
X015035Y003783D01*
X014785Y003533D01*
X015035Y003283D01*
X015035Y002783D01*
X015035Y003283D01*
X015285Y003533D01*
X015035Y003783D01*
X015035Y004283D01*
X015285Y004533D01*
X015035Y004783D01*
X015035Y005283D01*
X015285Y005533D01*
X015785Y005533D01*
X016035Y005283D01*
X016035Y004783D01*
X015785Y004533D01*
X016035Y004283D01*
X016035Y003783D01*
X015785Y003533D01*
X016035Y003283D01*
X016035Y002783D01*
X016035Y003283D01*
X016285Y003533D01*
X016035Y003783D01*
X016035Y004283D01*
X016285Y004533D01*
X016035Y004783D01*
X016035Y005283D01*
X016285Y005533D01*
X016785Y005533D01*
X017035Y005283D01*
X017035Y004783D01*
X016785Y004533D01*
X017035Y004283D01*
X017035Y003783D01*
X016785Y003533D01*
X017035Y003283D01*
X017035Y002783D01*
X017035Y003283D01*
X017285Y003533D01*
X017035Y003783D01*
X017035Y004283D01*
X017285Y004533D01*
X017035Y004783D01*
X017035Y005283D01*
X017285Y005533D01*
X017785Y005533D01*
X018035Y005283D01*
X018035Y004783D01*
X017785Y004533D01*
X018035Y004283D01*
X018035Y003783D01*
X017785Y003533D01*
X018035Y003283D01*
X018035Y002783D01*
X018035Y003283D01*
X018285Y003533D01*
X018035Y003783D01*
X018035Y004283D01*
X018285Y004533D01*
X018035Y004783D01*
X018035Y005283D01*
X018285Y005533D01*
X018785Y005533D01*
X019035Y005283D01*
X019035Y004783D01*
X018785Y004533D01*
X019035Y004283D01*
X019035Y003783D01*
X018785Y003533D01*
X019035Y003283D01*
X019035Y002783D01*
X019035Y003283D01*
X019285Y003533D01*
X019035Y003783D01*
X019035Y004283D01*
X019285Y004533D01*
X019035Y004783D01*
X019035Y005283D01*
X019285Y005533D01*
X019785Y005533D01*
X020035Y005283D01*
X020035Y004783D01*
X019785Y004533D01*
X020035Y004283D01*
X020035Y003783D01*
X019785Y003533D01*
X020035Y003283D01*
X020035Y002783D01*
X020035Y003283D01*
X020285Y003533D01*
X020035Y003783D01*
X020035Y004283D01*
X020285Y004533D01*
X020035Y004783D01*
X020035Y005283D01*
X020285Y005533D01*
X020785Y005533D01*
X021035Y005283D01*
X021035Y004783D01*
X020785Y004533D01*
X021035Y004283D01*
X021035Y003783D01*
X020785Y003533D01*
X021035Y003283D01*
X021035Y002783D01*
X021035Y003283D01*
X021285Y003533D01*
X021035Y003783D01*
X021035Y004283D01*
X021285Y004533D01*
X021035Y004783D01*
X021035Y005283D01*
X021285Y005533D01*
X021785Y005533D01*
X022035Y005283D01*
X022035Y004783D01*
X021785Y004533D01*
X022035Y004283D01*
X022035Y003783D01*
X021785Y003533D01*
X022035Y003283D01*
X022035Y002783D01*
X022035Y003283D01*
X022285Y003533D01*
X022035Y003783D01*
X022035Y004283D01*
X022285Y004533D01*
X022035Y004783D01*
X022035Y005283D01*
X022285Y005533D01*
X022785Y005533D01*
X023035Y005283D01*
X035535Y003283D02*
X035535Y002783D01*
X035785Y002533D01*
X036285Y002533D01*
X036535Y002783D01*
X036535Y003283D01*
X036285Y003533D01*
X035785Y003533D01*
X035535Y003283D01*
X038535Y003083D02*
X038535Y002583D01*
X008935Y005933D02*
X008935Y006433D01*
X007085Y005683D02*
X007087Y005756D01*
X007093Y005829D01*
X007103Y005901D01*
X007117Y005973D01*
X007134Y006044D01*
X007156Y006114D01*
X007181Y006183D01*
X007210Y006250D01*
X007242Y006315D01*
X007278Y006379D01*
X007318Y006441D01*
X007360Y006500D01*
X007406Y006557D01*
X007455Y006611D01*
X007507Y006663D01*
X007561Y006712D01*
X007618Y006758D01*
X007677Y006800D01*
X007739Y006840D01*
X007803Y006876D01*
X007868Y006908D01*
X007935Y006937D01*
X008004Y006962D01*
X008074Y006984D01*
X008145Y007001D01*
X008217Y007015D01*
X008289Y007025D01*
X008362Y007031D01*
X008435Y007033D01*
X008508Y007031D01*
X008581Y007025D01*
X008653Y007015D01*
X008725Y007001D01*
X008796Y006984D01*
X008866Y006962D01*
X008935Y006937D01*
X009002Y006908D01*
X009067Y006876D01*
X009131Y006840D01*
X009193Y006800D01*
X009252Y006758D01*
X009309Y006712D01*
X009363Y006663D01*
X009415Y006611D01*
X009464Y006557D01*
X009510Y006500D01*
X009552Y006441D01*
X009592Y006379D01*
X009628Y006315D01*
X009660Y006250D01*
X009689Y006183D01*
X009714Y006114D01*
X009736Y006044D01*
X009753Y005973D01*
X009767Y005901D01*
X009777Y005829D01*
X009783Y005756D01*
X009785Y005683D01*
X009783Y005610D01*
X009777Y005537D01*
X009767Y005465D01*
X009753Y005393D01*
X009736Y005322D01*
X009714Y005252D01*
X009689Y005183D01*
X009660Y005116D01*
X009628Y005051D01*
X009592Y004987D01*
X009552Y004925D01*
X009510Y004866D01*
X009464Y004809D01*
X009415Y004755D01*
X009363Y004703D01*
X009309Y004654D01*
X009252Y004608D01*
X009193Y004566D01*
X009131Y004526D01*
X009067Y004490D01*
X009002Y004458D01*
X008935Y004429D01*
X008866Y004404D01*
X008796Y004382D01*
X008725Y004365D01*
X008653Y004351D01*
X008581Y004341D01*
X008508Y004335D01*
X008435Y004333D01*
X008362Y004335D01*
X008289Y004341D01*
X008217Y004351D01*
X008145Y004365D01*
X008074Y004382D01*
X008004Y004404D01*
X007935Y004429D01*
X007868Y004458D01*
X007803Y004490D01*
X007739Y004526D01*
X007677Y004566D01*
X007618Y004608D01*
X007561Y004654D01*
X007507Y004703D01*
X007455Y004755D01*
X007406Y004809D01*
X007360Y004866D01*
X007318Y004925D01*
X007278Y004987D01*
X007242Y005051D01*
X007210Y005116D01*
X007181Y005183D01*
X007156Y005252D01*
X007134Y005322D01*
X007117Y005393D01*
X007103Y005465D01*
X007093Y005537D01*
X007087Y005610D01*
X007085Y005683D01*
X007102Y004572D02*
X007102Y002131D01*
X004346Y002131D01*
X004346Y004572D01*
X007102Y004572D01*
X007985Y003333D02*
X008485Y003333D01*
X007102Y002131D02*
X007102Y001816D01*
X004346Y001816D01*
X004346Y002131D01*
X003985Y003183D02*
X004135Y003333D01*
X003985Y003483D01*
X003835Y003333D02*
X004135Y003333D01*
X003835Y003333D02*
X002835Y004333D01*
X003135Y004633D01*
X003135Y005133D01*
X003285Y004983D01*
X003135Y005133D02*
X002985Y004983D01*
X002835Y004333D02*
X001485Y004333D01*
D16*
X007355Y008353D02*
X007662Y008353D01*
X007508Y008353D02*
X007508Y008814D01*
X007355Y008660D01*
X007505Y008653D02*
X007812Y008653D01*
X007658Y008653D02*
X007658Y009114D01*
X007505Y008960D01*
X007782Y012253D02*
X007935Y012253D01*
X008012Y012330D01*
X008012Y012714D01*
X008165Y012637D02*
X008165Y012560D01*
X008242Y012484D01*
X008396Y012484D01*
X008472Y012407D01*
X008472Y012330D01*
X008396Y012253D01*
X008242Y012253D01*
X008165Y012330D01*
X007782Y012253D02*
X007705Y012330D01*
X007705Y012714D01*
X008165Y012637D02*
X008242Y012714D01*
X008396Y012714D01*
X008472Y012637D01*
X008626Y012714D02*
X008856Y012714D01*
X008933Y012637D01*
X008933Y012560D01*
X008856Y012484D01*
X008626Y012484D01*
X008626Y012714D02*
X008626Y012253D01*
X008856Y012253D01*
X008933Y012330D01*
X008933Y012407D01*
X008856Y012484D01*
X007896Y015753D02*
X007972Y015830D01*
X007972Y015907D01*
X007896Y015984D01*
X007665Y015984D01*
X007665Y015830D01*
X007742Y015753D01*
X007896Y015753D01*
X007665Y015984D02*
X007819Y016137D01*
X007972Y016214D01*
X007922Y016330D02*
X007846Y016253D01*
X007692Y016253D01*
X007615Y016330D01*
X007922Y016637D01*
X007922Y016330D01*
X007615Y016330D02*
X007615Y016637D01*
X007692Y016714D01*
X007846Y016714D01*
X007922Y016637D01*
X007462Y016484D02*
X007155Y016484D01*
X007385Y016714D01*
X007385Y016253D01*
X007512Y016214D02*
X007205Y016214D01*
X007205Y015984D01*
X007358Y016060D01*
X007435Y016060D01*
X007512Y015984D01*
X007512Y015830D01*
X007435Y015753D01*
X007282Y015753D01*
X007205Y015830D01*
X026155Y016253D02*
X026462Y016560D01*
X026462Y016637D01*
X026385Y016714D01*
X026232Y016714D01*
X026155Y016637D01*
X026615Y016560D02*
X026769Y016714D01*
X026769Y016253D01*
X026922Y016253D02*
X026615Y016253D01*
X026462Y016253D02*
X026155Y016253D01*
X034155Y016137D02*
X034232Y016214D01*
X034385Y016214D01*
X034462Y016137D01*
X034462Y016060D01*
X034155Y015753D01*
X034462Y015753D01*
X034615Y015830D02*
X034692Y015753D01*
X034846Y015753D01*
X034922Y015830D01*
X034922Y016137D01*
X034846Y016214D01*
X034692Y016214D01*
X034615Y016137D01*
X034615Y016060D01*
X034692Y015984D01*
X034922Y015984D01*
X034467Y011714D02*
X034237Y011714D01*
X034237Y011253D01*
X034467Y011253D01*
X034544Y011330D01*
X034544Y011637D01*
X034467Y011714D01*
X034084Y011637D02*
X034007Y011714D01*
X033853Y011714D01*
X033777Y011637D01*
X033777Y011560D01*
X033853Y011484D01*
X034007Y011484D01*
X034084Y011407D01*
X034084Y011330D01*
X034007Y011253D01*
X033853Y011253D01*
X033777Y011330D01*
X033623Y011330D02*
X033623Y011484D01*
X033547Y011560D01*
X033393Y011560D01*
X033316Y011484D01*
X033316Y011330D01*
X033393Y011253D01*
X033547Y011253D01*
X033623Y011330D01*
X033163Y011560D02*
X033086Y011560D01*
X032933Y011407D01*
X032933Y011560D02*
X032933Y011253D01*
X032779Y011253D02*
X032549Y011253D01*
X032472Y011330D01*
X032472Y011484D01*
X032549Y011560D01*
X032779Y011560D01*
X032242Y011560D02*
X032242Y011253D01*
X032165Y011253D02*
X032319Y011253D01*
X032012Y011253D02*
X032012Y011484D01*
X031935Y011560D01*
X031858Y011484D01*
X031858Y011253D01*
X031705Y011253D02*
X031705Y011560D01*
X031782Y011560D01*
X031858Y011484D01*
X032165Y011560D02*
X032242Y011560D01*
X032242Y011714D02*
X032242Y011790D01*
X034232Y008864D02*
X034155Y008787D01*
X034232Y008864D02*
X034385Y008864D01*
X034462Y008787D01*
X034462Y008710D01*
X034155Y008403D01*
X034462Y008403D01*
X034615Y008480D02*
X034615Y008557D01*
X034692Y008634D01*
X034846Y008634D01*
X034922Y008557D01*
X034922Y008480D01*
X034846Y008403D01*
X034692Y008403D01*
X034615Y008480D01*
X034692Y008634D02*
X034615Y008710D01*
X034615Y008787D01*
X034692Y008864D01*
X034846Y008864D01*
X034922Y008787D01*
X034922Y008710D01*
X034846Y008634D01*
X026922Y008737D02*
X026615Y008430D01*
X026692Y008353D01*
X026846Y008353D01*
X026922Y008430D01*
X026922Y008737D01*
X026846Y008814D01*
X026692Y008814D01*
X026615Y008737D01*
X026615Y008430D01*
X026462Y008353D02*
X026155Y008353D01*
X026462Y008660D01*
X026462Y008737D01*
X026385Y008814D01*
X026232Y008814D01*
X026155Y008737D01*
D17*
X025008Y011863D02*
X024688Y011863D01*
X024688Y012504D01*
X025008Y012504D01*
X025115Y012397D01*
X025115Y011970D01*
X025008Y011863D01*
X024471Y011970D02*
X024364Y011863D01*
X024150Y011863D01*
X024044Y011970D01*
X024150Y012184D02*
X024364Y012184D01*
X024471Y012077D01*
X024471Y011970D01*
X024150Y012184D02*
X024044Y012290D01*
X024044Y012397D01*
X024150Y012504D01*
X024364Y012504D01*
X024471Y012397D01*
X023182Y012184D02*
X023182Y011970D01*
X023075Y011863D01*
X022861Y011863D01*
X022755Y011970D01*
X022755Y012184D01*
X022861Y012290D01*
X023075Y012290D01*
X023182Y012184D01*
X022537Y012184D02*
X022537Y011863D01*
X022110Y011863D02*
X022110Y012290D01*
X022430Y012290D01*
X022537Y012184D01*
X021894Y011863D02*
X021680Y011863D01*
X021787Y011863D02*
X021787Y012290D01*
X021680Y012290D01*
X021463Y012290D02*
X021357Y012290D01*
X021143Y012077D01*
X021143Y012290D02*
X021143Y011863D01*
X020926Y011863D02*
X020605Y011863D01*
X020499Y011970D01*
X020605Y012077D01*
X020926Y012077D01*
X020926Y012184D02*
X020926Y011863D01*
X020281Y011970D02*
X020281Y012184D01*
X020174Y012290D01*
X019854Y012290D01*
X019854Y012504D02*
X019854Y011863D01*
X020174Y011863D01*
X020281Y011970D01*
X020605Y012290D02*
X020819Y012290D01*
X020926Y012184D01*
X021787Y012504D02*
X021787Y012611D01*
X019637Y012290D02*
X019637Y011863D01*
X019316Y011863D01*
X019210Y011970D01*
X019210Y012290D01*
X018992Y012504D02*
X018565Y012504D01*
X018565Y011863D01*
X018565Y012184D02*
X018779Y012184D01*
X037385Y012333D02*
X038135Y012333D01*
X038137Y012372D01*
X038143Y012411D01*
X038152Y012449D01*
X038165Y012486D01*
X038182Y012522D01*
X038202Y012555D01*
X038226Y012587D01*
X038252Y012616D01*
X038281Y012642D01*
X038313Y012666D01*
X038346Y012686D01*
X038382Y012703D01*
X038419Y012716D01*
X038457Y012725D01*
X038496Y012731D01*
X038535Y012733D01*
X038574Y012731D01*
X038613Y012725D01*
X038651Y012716D01*
X038688Y012703D01*
X038724Y012686D01*
X038757Y012666D01*
X038789Y012642D01*
X038818Y012616D01*
X038844Y012587D01*
X038868Y012555D01*
X038888Y012522D01*
X038905Y012486D01*
X038918Y012449D01*
X038927Y012411D01*
X038933Y012372D01*
X038935Y012333D01*
X039685Y012333D01*
X039685Y020333D01*
X037385Y020333D01*
X037385Y012333D01*
X037385Y011333D02*
X039685Y011333D01*
X039685Y003333D01*
X038935Y003333D01*
X038933Y003372D01*
X038927Y003411D01*
X038918Y003449D01*
X038905Y003486D01*
X038888Y003522D01*
X038868Y003555D01*
X038844Y003587D01*
X038818Y003616D01*
X038789Y003642D01*
X038757Y003666D01*
X038724Y003686D01*
X038688Y003703D01*
X038651Y003716D01*
X038613Y003725D01*
X038574Y003731D01*
X038535Y003733D01*
X038496Y003731D01*
X038457Y003725D01*
X038419Y003716D01*
X038382Y003703D01*
X038346Y003686D01*
X038313Y003666D01*
X038281Y003642D01*
X038252Y003616D01*
X038226Y003587D01*
X038202Y003555D01*
X038182Y003522D01*
X038165Y003486D01*
X038152Y003449D01*
X038143Y003411D01*
X038137Y003372D01*
X038135Y003333D01*
X037385Y003333D01*
X037385Y011333D01*
D18*
X003462Y012163D02*
X003462Y012403D01*
X003144Y012436D01*
X003110Y012542D01*
X003059Y012642D01*
X003261Y012889D01*
X003091Y013059D01*
X002844Y012857D01*
X002744Y012909D01*
X002637Y012943D01*
X002605Y013260D01*
X002365Y013260D01*
X002333Y012943D01*
X002226Y012909D01*
X002126Y012857D01*
X001879Y013059D01*
X001709Y012889D01*
X001911Y012642D01*
X001860Y012542D01*
X001826Y012436D01*
X001508Y012403D01*
X001508Y012163D01*
X001826Y012131D01*
X001860Y012024D01*
X001911Y011925D01*
X001709Y011677D01*
X001879Y011508D01*
X002126Y011709D01*
X002226Y011658D01*
X002367Y011999D01*
X002314Y012028D01*
X002267Y012066D01*
X002229Y012112D01*
X002201Y012166D01*
X002183Y012223D01*
X002177Y012283D01*
X002184Y012346D01*
X002203Y012406D01*
X002234Y012461D01*
X002276Y012509D01*
X002326Y012547D01*
X002383Y012574D01*
X002445Y012588D01*
X002508Y012590D01*
X002570Y012579D01*
X002629Y012555D01*
X002681Y012520D01*
X002725Y012475D01*
X002760Y012422D01*
X002782Y012363D01*
X002792Y012301D01*
X002789Y012237D01*
X002773Y012176D01*
X002745Y012120D01*
X002707Y012070D01*
X002658Y012029D01*
X002603Y011999D01*
X002744Y011658D01*
X002844Y011709D01*
X003091Y011508D01*
X003261Y011677D01*
X003059Y011925D01*
X003110Y012024D01*
X003144Y012131D01*
X003462Y012163D01*
X003462Y012193D02*
X002778Y012193D01*
X002790Y012251D02*
X003462Y012251D01*
X003462Y012308D02*
X002791Y012308D01*
X002781Y012366D02*
X003462Y012366D01*
X003263Y012424D02*
X002759Y012424D01*
X002720Y012481D02*
X003130Y012481D01*
X003111Y012539D02*
X002654Y012539D01*
X002315Y012539D02*
X001859Y012539D01*
X001840Y012481D02*
X002251Y012481D01*
X002213Y012424D02*
X001707Y012424D01*
X001508Y012366D02*
X002190Y012366D01*
X002180Y012308D02*
X001508Y012308D01*
X001508Y012251D02*
X002181Y012251D01*
X002192Y012193D02*
X001508Y012193D01*
X001780Y012136D02*
X002217Y012136D01*
X002257Y012078D02*
X001843Y012078D01*
X001862Y012021D02*
X002327Y012021D01*
X002352Y011963D02*
X001891Y011963D01*
X001895Y011906D02*
X002328Y011906D01*
X002305Y011848D02*
X001849Y011848D01*
X001802Y011790D02*
X002281Y011790D01*
X002257Y011733D02*
X001755Y011733D01*
X001711Y011675D02*
X002085Y011675D01*
X002014Y011618D02*
X001769Y011618D01*
X001827Y011560D02*
X001943Y011560D01*
X002193Y011675D02*
X002233Y011675D01*
X002665Y011848D02*
X003121Y011848D01*
X003075Y011906D02*
X002642Y011906D01*
X002618Y011963D02*
X003079Y011963D01*
X003108Y012021D02*
X002642Y012021D01*
X002713Y012078D02*
X003127Y012078D01*
X003190Y012136D02*
X002753Y012136D01*
X002689Y011790D02*
X003168Y011790D01*
X003215Y011733D02*
X002713Y011733D01*
X002737Y011675D02*
X002777Y011675D01*
X002885Y011675D02*
X003259Y011675D01*
X003201Y011618D02*
X002956Y011618D01*
X003027Y011560D02*
X003143Y011560D01*
X003082Y012596D02*
X001888Y012596D01*
X001901Y012654D02*
X003069Y012654D01*
X003115Y012711D02*
X001855Y012711D01*
X001808Y012769D02*
X003162Y012769D01*
X003209Y012826D02*
X001761Y012826D01*
X001714Y012884D02*
X002094Y012884D01*
X002178Y012884D02*
X002792Y012884D01*
X002876Y012884D02*
X003256Y012884D01*
X003208Y012942D02*
X002947Y012942D01*
X003018Y012999D02*
X003151Y012999D01*
X003093Y013057D02*
X003088Y013057D01*
X002631Y012999D02*
X002339Y012999D01*
X002344Y013057D02*
X002626Y013057D01*
X002620Y013114D02*
X002350Y013114D01*
X002356Y013172D02*
X002614Y013172D01*
X002608Y013229D02*
X002362Y013229D01*
X002329Y012942D02*
X002641Y012942D01*
X002023Y012942D02*
X001762Y012942D01*
X001819Y012999D02*
X001952Y012999D01*
X001882Y013057D02*
X001877Y013057D01*
M02*
