%
M48
M72
T01C0.0130
T02C0.0276
T03C0.0320
T04C0.0354
T05C0.0394
T06C0.0400
T07C0.0472
T08C0.1260
T09C0.1300
%
T01
X15535Y6983
X16535Y6983
X20535Y7233
X21135Y6733
X24035Y11083
X24535Y11083
X24535Y12833
X24035Y12833
X23035Y12833
X22535Y12833
X21535Y12833
X20535Y12833
X19535Y12833
X19035Y12833
X18535Y12833
X17535Y13133
X17035Y13133
X16535Y13133
X16035Y13133
X15535Y13133
X15035Y13133
X14535Y13133
X14035Y13133
X13535Y13133
X12535Y13833
X25035Y17233
X26035Y17333
X33535Y16033
X36135Y14333
X34935Y13983
X34285Y14083
X34935Y13533
X34935Y13133
X34285Y13033
X36135Y13333
X36185Y10333
X36185Y9333
X34535Y8833
X35285Y4733
X38035Y18333
X34885Y19583
X34335Y18483
T02
X34535Y20733
X35535Y20733
X41335Y17833
X42335Y17833
X42335Y16333
X41335Y16333
X41335Y14833
X42335Y14833
X42335Y13333
X41335Y13333
X34535Y12333
X33535Y12333
X41385Y9333
X42385Y9333
X42385Y7833
X41385Y7833
X41385Y6333
X42385Y6333
X42385Y4833
X41385Y4833
X39035Y2833
X38035Y2833
X8235Y2833
X8235Y3833
T03
X37035Y3833
X37035Y4833
X37035Y5833
X37035Y6833
X37035Y7833
X37035Y8833
X37035Y9833
X37035Y10833
X40035Y10833
X40035Y9833
X40035Y8833
X40035Y7833
X40035Y6833
X40035Y5833
X40035Y4833
X40035Y3833
X40035Y12833
X40035Y13833
X40035Y14833
X40035Y15833
X40035Y16833
X40035Y17833
X40035Y18833
X40035Y19833
X37035Y19833
X37035Y18833
X37035Y17833
X37035Y16833
X37035Y15833
X37035Y14833
X37035Y13833
X37035Y12833
T04
X41835Y11833
X41835Y10833
X35535Y15333
X32535Y15333
X42035Y19333
X42035Y20333
X12035Y14683
X8435Y6183
X8435Y5183
T05
X8535Y7833
X7535Y7833
X9535Y7833
X10535Y7833
X11535Y7833
X12535Y7833
X13535Y7833
X14535Y7833
X15535Y7833
X16535Y7833
X17535Y7833
X18535Y7833
X19535Y7833
X20535Y7833
X21535Y7833
X22535Y7833
X23535Y7833
X24535Y7833
X25535Y7833
X26535Y7833
X27535Y7833
X28535Y7833
X29535Y7833
X30535Y7833
X31535Y7833
X32535Y7833
X33535Y7833
X34535Y7833
X26535Y9533
X25535Y9533
X24535Y9533
X23535Y9533
X22535Y9533
X21535Y9533
X20535Y9533
X19535Y9533
X18535Y9533
X17535Y9533
X16535Y9533
X15535Y9533
X14535Y9533
X13535Y9533
X12535Y9533
X11535Y9533
X10535Y9533
X9535Y9533
X8535Y9533
X7535Y9533
X7535Y15533
X8535Y15533
X9535Y15533
X10535Y15533
X11535Y15533
X12535Y15533
X13535Y15533
X14535Y15533
X15535Y15533
X16535Y15533
X17535Y15533
X18535Y15533
X19535Y15533
X20535Y15533
X21535Y15533
X22535Y15533
X23535Y15533
X24535Y15533
X25535Y15533
X26535Y15533
X26535Y16833
X25535Y16833
X24535Y16833
X23535Y16833
X22535Y16833
X21535Y16833
X20535Y16833
X19535Y16833
X18535Y16833
X17535Y16833
X16535Y16833
X15535Y16833
X14535Y16833
X13535Y16833
X12535Y16833
X11535Y16833
X10535Y16833
X9535Y16833
X8535Y16833
X7535Y16833
X5035Y16333
X4035Y16333
X3035Y16333
X27535Y16833
X28535Y16833
X29535Y16833
X30535Y16833
X31535Y16833
X32535Y16833
X33535Y16833
X34535Y16833
T06
X33535Y18033
X32535Y18033
X31535Y18033
X30535Y18033
X29535Y18033
X28535Y18033
X27535Y18033
X26535Y18033
X25535Y18033
X24535Y18033
X23535Y18033
X22535Y18033
X21535Y18033
X20535Y18033
X19535Y18033
X18535Y18033
X17535Y18033
X16535Y18033
X15535Y18033
X14535Y18033
X13535Y18033
X12535Y18033
X11535Y18033
X10535Y18033
X10535Y19033
X11535Y19033
X12535Y19033
X13535Y19033
X14535Y19033
X15535Y19033
X16535Y19033
X17535Y19033
X18535Y19033
X19535Y19033
X20535Y19033
X21535Y19033
X22535Y19033
X23535Y19033
X24535Y19033
X25535Y19033
X26535Y19033
X27535Y19033
X28535Y19033
X29535Y19033
X30535Y19033
X31535Y19033
X32535Y19033
X33535Y19033
X33535Y20033
X32535Y20033
X31535Y20033
X30535Y20033
X29535Y20033
X28535Y20033
X27535Y20033
X26535Y20033
X25535Y20033
X24535Y20033
X23535Y20033
X22535Y20033
X21535Y20033
X20535Y20033
X19535Y20033
X18535Y20033
X17535Y20033
X16535Y20033
X15535Y20033
X14535Y20033
X13535Y20033
X12535Y20033
X11535Y20033
X10535Y20033
X9535Y19983
X8535Y20083
X7535Y19983
X6535Y20083
X5535Y19983
X4535Y20083
X4035Y18333
X3035Y18333
X5035Y18333
X10535Y5033
X11535Y5033
X12535Y5033
X13535Y5033
X14535Y5033
X15535Y5033
X16535Y5033
X17535Y5033
X18535Y5033
X19535Y5033
X20535Y5033
X21535Y5033
X22535Y5033
X23535Y5033
X24535Y5033
X25535Y5033
X26535Y5033
X27535Y5033
X28535Y5033
X29535Y5033
X30535Y5033
X31535Y5033
X32535Y5033
X33535Y5033
X33535Y4033
X32535Y4033
X31535Y4033
X30535Y4033
X29535Y4033
X28535Y4033
X27535Y4033
X26535Y4033
X25535Y4033
X24535Y4033
X23535Y4033
X22535Y4033
X21535Y4033
X20535Y4033
X19535Y4033
X18535Y4033
X17535Y4033
X16535Y4033
X15535Y4033
X14535Y4033
X13535Y4033
X12535Y4033
X11535Y4033
X10535Y4033
X10535Y3033
X11535Y3033
X12535Y3033
X13535Y3033
X14535Y3033
X15535Y3033
X16535Y3033
X17535Y3033
X18535Y3033
X19535Y3033
X20535Y3033
X21535Y3033
X22535Y3033
X23535Y3033
X24535Y3033
X25535Y3033
X26535Y3033
X27535Y3033
X28535Y3033
X29535Y3033
X30535Y3033
X31535Y3033
X32535Y3033
X33535Y3033
X36035Y3033
X41535Y3033
T07
X45035Y5183
X45035Y6561
X45035Y7939
X45035Y9533
X45035Y10911
X45035Y12533
X45035Y13911
X45035Y15289
X45035Y16883
X45035Y18261
X6413Y3233
X5035Y3233
T08
X2591Y2902
X2485Y20333
X44985Y20333
X44985Y2833
T09
X5435Y7753
X3075Y7753
X4255Y5783
M30
