G75*
G70*
%OFA0B0*%
%FSLAX24Y24*%
%IPPOS*%
%LPD*%
%AMOC8*
5,1,8,0,0,1.08239X$1,22.5*
%
%ADD10C,0.0100*%
%ADD11C,0.0000*%
%ADD12C,0.0070*%
%ADD13R,0.3300X0.2150*%
%ADD14C,0.0039*%
%ADD15R,0.1157X0.0291*%
%ADD16C,0.0010*%
D10*
X001035Y001833D02*
X001035Y021333D01*
X046535Y021333D01*
X046535Y001833D01*
X001035Y001833D01*
D11*
X001961Y002902D02*
X001963Y002952D01*
X001969Y003002D01*
X001979Y003051D01*
X001993Y003099D01*
X002010Y003146D01*
X002031Y003191D01*
X002056Y003235D01*
X002084Y003276D01*
X002116Y003315D01*
X002150Y003352D01*
X002187Y003386D01*
X002227Y003416D01*
X002269Y003443D01*
X002313Y003467D01*
X002359Y003488D01*
X002406Y003504D01*
X002454Y003517D01*
X002504Y003526D01*
X002553Y003531D01*
X002604Y003532D01*
X002654Y003529D01*
X002703Y003522D01*
X002752Y003511D01*
X002800Y003496D01*
X002846Y003478D01*
X002891Y003456D01*
X002934Y003430D01*
X002975Y003401D01*
X003014Y003369D01*
X003050Y003334D01*
X003082Y003296D01*
X003112Y003256D01*
X003139Y003213D01*
X003162Y003169D01*
X003181Y003123D01*
X003197Y003075D01*
X003209Y003026D01*
X003217Y002977D01*
X003221Y002927D01*
X003221Y002877D01*
X003217Y002827D01*
X003209Y002778D01*
X003197Y002729D01*
X003181Y002681D01*
X003162Y002635D01*
X003139Y002591D01*
X003112Y002548D01*
X003082Y002508D01*
X003050Y002470D01*
X003014Y002435D01*
X002975Y002403D01*
X002934Y002374D01*
X002891Y002348D01*
X002846Y002326D01*
X002800Y002308D01*
X002752Y002293D01*
X002703Y002282D01*
X002654Y002275D01*
X002604Y002272D01*
X002553Y002273D01*
X002504Y002278D01*
X002454Y002287D01*
X002406Y002300D01*
X002359Y002316D01*
X002313Y002337D01*
X002269Y002361D01*
X002227Y002388D01*
X002187Y002418D01*
X002150Y002452D01*
X002116Y002489D01*
X002084Y002528D01*
X002056Y002569D01*
X002031Y002613D01*
X002010Y002658D01*
X001993Y002705D01*
X001979Y002753D01*
X001969Y002802D01*
X001963Y002852D01*
X001961Y002902D01*
X001855Y020333D02*
X001857Y020383D01*
X001863Y020433D01*
X001873Y020482D01*
X001887Y020530D01*
X001904Y020577D01*
X001925Y020622D01*
X001950Y020666D01*
X001978Y020707D01*
X002010Y020746D01*
X002044Y020783D01*
X002081Y020817D01*
X002121Y020847D01*
X002163Y020874D01*
X002207Y020898D01*
X002253Y020919D01*
X002300Y020935D01*
X002348Y020948D01*
X002398Y020957D01*
X002447Y020962D01*
X002498Y020963D01*
X002548Y020960D01*
X002597Y020953D01*
X002646Y020942D01*
X002694Y020927D01*
X002740Y020909D01*
X002785Y020887D01*
X002828Y020861D01*
X002869Y020832D01*
X002908Y020800D01*
X002944Y020765D01*
X002976Y020727D01*
X003006Y020687D01*
X003033Y020644D01*
X003056Y020600D01*
X003075Y020554D01*
X003091Y020506D01*
X003103Y020457D01*
X003111Y020408D01*
X003115Y020358D01*
X003115Y020308D01*
X003111Y020258D01*
X003103Y020209D01*
X003091Y020160D01*
X003075Y020112D01*
X003056Y020066D01*
X003033Y020022D01*
X003006Y019979D01*
X002976Y019939D01*
X002944Y019901D01*
X002908Y019866D01*
X002869Y019834D01*
X002828Y019805D01*
X002785Y019779D01*
X002740Y019757D01*
X002694Y019739D01*
X002646Y019724D01*
X002597Y019713D01*
X002548Y019706D01*
X002498Y019703D01*
X002447Y019704D01*
X002398Y019709D01*
X002348Y019718D01*
X002300Y019731D01*
X002253Y019747D01*
X002207Y019768D01*
X002163Y019792D01*
X002121Y019819D01*
X002081Y019849D01*
X002044Y019883D01*
X002010Y019920D01*
X001978Y019959D01*
X001950Y020000D01*
X001925Y020044D01*
X001904Y020089D01*
X001887Y020136D01*
X001873Y020184D01*
X001863Y020233D01*
X001857Y020283D01*
X001855Y020333D01*
X044355Y020333D02*
X044357Y020383D01*
X044363Y020433D01*
X044373Y020482D01*
X044387Y020530D01*
X044404Y020577D01*
X044425Y020622D01*
X044450Y020666D01*
X044478Y020707D01*
X044510Y020746D01*
X044544Y020783D01*
X044581Y020817D01*
X044621Y020847D01*
X044663Y020874D01*
X044707Y020898D01*
X044753Y020919D01*
X044800Y020935D01*
X044848Y020948D01*
X044898Y020957D01*
X044947Y020962D01*
X044998Y020963D01*
X045048Y020960D01*
X045097Y020953D01*
X045146Y020942D01*
X045194Y020927D01*
X045240Y020909D01*
X045285Y020887D01*
X045328Y020861D01*
X045369Y020832D01*
X045408Y020800D01*
X045444Y020765D01*
X045476Y020727D01*
X045506Y020687D01*
X045533Y020644D01*
X045556Y020600D01*
X045575Y020554D01*
X045591Y020506D01*
X045603Y020457D01*
X045611Y020408D01*
X045615Y020358D01*
X045615Y020308D01*
X045611Y020258D01*
X045603Y020209D01*
X045591Y020160D01*
X045575Y020112D01*
X045556Y020066D01*
X045533Y020022D01*
X045506Y019979D01*
X045476Y019939D01*
X045444Y019901D01*
X045408Y019866D01*
X045369Y019834D01*
X045328Y019805D01*
X045285Y019779D01*
X045240Y019757D01*
X045194Y019739D01*
X045146Y019724D01*
X045097Y019713D01*
X045048Y019706D01*
X044998Y019703D01*
X044947Y019704D01*
X044898Y019709D01*
X044848Y019718D01*
X044800Y019731D01*
X044753Y019747D01*
X044707Y019768D01*
X044663Y019792D01*
X044621Y019819D01*
X044581Y019849D01*
X044544Y019883D01*
X044510Y019920D01*
X044478Y019959D01*
X044450Y020000D01*
X044425Y020044D01*
X044404Y020089D01*
X044387Y020136D01*
X044373Y020184D01*
X044363Y020233D01*
X044357Y020283D01*
X044355Y020333D01*
X044355Y002833D02*
X044357Y002883D01*
X044363Y002933D01*
X044373Y002982D01*
X044387Y003030D01*
X044404Y003077D01*
X044425Y003122D01*
X044450Y003166D01*
X044478Y003207D01*
X044510Y003246D01*
X044544Y003283D01*
X044581Y003317D01*
X044621Y003347D01*
X044663Y003374D01*
X044707Y003398D01*
X044753Y003419D01*
X044800Y003435D01*
X044848Y003448D01*
X044898Y003457D01*
X044947Y003462D01*
X044998Y003463D01*
X045048Y003460D01*
X045097Y003453D01*
X045146Y003442D01*
X045194Y003427D01*
X045240Y003409D01*
X045285Y003387D01*
X045328Y003361D01*
X045369Y003332D01*
X045408Y003300D01*
X045444Y003265D01*
X045476Y003227D01*
X045506Y003187D01*
X045533Y003144D01*
X045556Y003100D01*
X045575Y003054D01*
X045591Y003006D01*
X045603Y002957D01*
X045611Y002908D01*
X045615Y002858D01*
X045615Y002808D01*
X045611Y002758D01*
X045603Y002709D01*
X045591Y002660D01*
X045575Y002612D01*
X045556Y002566D01*
X045533Y002522D01*
X045506Y002479D01*
X045476Y002439D01*
X045444Y002401D01*
X045408Y002366D01*
X045369Y002334D01*
X045328Y002305D01*
X045285Y002279D01*
X045240Y002257D01*
X045194Y002239D01*
X045146Y002224D01*
X045097Y002213D01*
X045048Y002206D01*
X044998Y002203D01*
X044947Y002204D01*
X044898Y002209D01*
X044848Y002218D01*
X044800Y002231D01*
X044753Y002247D01*
X044707Y002268D01*
X044663Y002292D01*
X044621Y002319D01*
X044581Y002349D01*
X044544Y002383D01*
X044510Y002420D01*
X044478Y002459D01*
X044450Y002500D01*
X044425Y002544D01*
X044404Y002589D01*
X044387Y002636D01*
X044373Y002684D01*
X044363Y002733D01*
X044357Y002783D01*
X044355Y002833D01*
D12*
X032800Y010273D02*
X032695Y010168D01*
X032590Y010273D01*
X032485Y010168D01*
X032380Y010273D01*
X032380Y010589D01*
X032155Y010589D02*
X032155Y010273D01*
X032050Y010168D01*
X031945Y010273D01*
X031840Y010168D01*
X031735Y010273D01*
X031735Y010589D01*
X031511Y010589D02*
X031511Y010273D01*
X031406Y010168D01*
X031301Y010273D01*
X031196Y010168D01*
X031091Y010273D01*
X031091Y010589D01*
X030544Y010484D02*
X030334Y010484D01*
X030439Y010694D02*
X030439Y010168D01*
X030761Y010168D02*
X030866Y010168D01*
X030866Y010273D01*
X030761Y010273D01*
X030761Y010168D01*
X030114Y010273D02*
X030009Y010168D01*
X029694Y010168D01*
X029694Y010589D01*
X029470Y010589D02*
X029155Y010589D01*
X029049Y010484D01*
X029049Y010273D01*
X029155Y010168D01*
X029470Y010168D01*
X029470Y010799D01*
X030114Y010589D02*
X030114Y010273D01*
X030439Y010694D02*
X030334Y010799D01*
X030229Y011218D02*
X030124Y011323D01*
X030229Y011429D01*
X030439Y011429D01*
X030544Y011534D01*
X030439Y011639D01*
X030124Y011639D01*
X029900Y011534D02*
X029900Y011323D01*
X029794Y011218D01*
X029479Y011218D01*
X029255Y011218D02*
X029255Y011849D01*
X029150Y011639D02*
X028940Y011639D01*
X028835Y011534D01*
X028835Y011218D01*
X028610Y011218D02*
X028610Y011639D01*
X028505Y011639D01*
X028400Y011534D01*
X028295Y011639D01*
X028190Y011534D01*
X028190Y011218D01*
X028400Y011218D02*
X028400Y011534D01*
X027966Y011323D02*
X027861Y011429D01*
X027546Y011429D01*
X027546Y011534D02*
X027546Y011218D01*
X027861Y011218D01*
X027966Y011323D01*
X027861Y011639D02*
X027651Y011639D01*
X027546Y011534D01*
X027321Y011849D02*
X027216Y011849D01*
X027216Y011218D01*
X027321Y011218D02*
X027111Y011218D01*
X026892Y011218D02*
X026471Y011218D01*
X026247Y011218D02*
X026247Y011849D01*
X026142Y011639D02*
X025932Y011639D01*
X025827Y011534D01*
X025827Y011218D01*
X025603Y011323D02*
X025497Y011429D01*
X025182Y011429D01*
X025182Y011534D02*
X025182Y011218D01*
X025497Y011218D01*
X025603Y011323D01*
X025497Y011639D02*
X025287Y011639D01*
X025182Y011534D01*
X024958Y011639D02*
X024958Y011323D01*
X024853Y011218D01*
X024538Y011218D01*
X024538Y011639D01*
X024313Y011534D02*
X024208Y011639D01*
X023893Y011639D01*
X023998Y011429D02*
X024208Y011429D01*
X024313Y011534D01*
X024313Y011218D02*
X023998Y011218D01*
X023893Y011323D01*
X023998Y011429D01*
X023669Y011323D02*
X023564Y011323D01*
X023564Y011218D01*
X023669Y011218D01*
X023669Y011323D01*
X023347Y011323D02*
X023242Y011218D01*
X022926Y011218D01*
X022702Y011323D02*
X022702Y011534D01*
X022597Y011639D01*
X022387Y011639D01*
X022282Y011534D01*
X022282Y011323D01*
X022387Y011218D01*
X022597Y011218D01*
X022702Y011323D01*
X022926Y011639D02*
X023242Y011639D01*
X023347Y011534D01*
X023347Y011323D01*
X023461Y012058D02*
X023356Y012163D01*
X023356Y012689D01*
X023671Y012689D01*
X023776Y012584D01*
X023776Y012373D01*
X023671Y012268D01*
X023356Y012268D01*
X023461Y012058D02*
X023566Y012058D01*
X024313Y012268D02*
X024313Y012689D01*
X024313Y012479D02*
X024103Y012689D01*
X023998Y012689D01*
X024538Y012584D02*
X024643Y012689D01*
X024853Y012689D01*
X024958Y012584D01*
X024958Y012373D01*
X024853Y012268D01*
X024643Y012268D01*
X024538Y012373D01*
X024538Y012584D01*
X025175Y012373D02*
X025175Y012268D01*
X025280Y012268D01*
X025280Y012373D01*
X025175Y012373D01*
X025504Y012373D02*
X025610Y012479D01*
X025820Y012479D01*
X025925Y012584D01*
X025820Y012689D01*
X025504Y012689D01*
X025504Y012373D02*
X025610Y012268D01*
X025925Y012268D01*
X026149Y012373D02*
X026149Y012584D01*
X026254Y012689D01*
X026569Y012689D01*
X026569Y012899D02*
X026569Y012268D01*
X026254Y012268D01*
X026149Y012373D01*
X026794Y012268D02*
X026794Y012584D01*
X026899Y012689D01*
X027109Y012689D01*
X027109Y012479D02*
X026794Y012479D01*
X026794Y012268D02*
X027109Y012268D01*
X027214Y012373D01*
X027109Y012479D01*
X027433Y012268D02*
X027644Y012268D01*
X027539Y012268D02*
X027539Y012899D01*
X027644Y012899D01*
X027865Y012689D02*
X027971Y012689D01*
X028181Y012479D01*
X028181Y012689D02*
X028181Y012268D01*
X028405Y012268D02*
X028720Y012268D01*
X028825Y012373D01*
X028720Y012479D01*
X028405Y012479D01*
X028405Y012584D02*
X028405Y012268D01*
X028405Y012584D02*
X028510Y012689D01*
X028720Y012689D01*
X029049Y012584D02*
X029155Y012689D01*
X029470Y012689D01*
X029470Y012899D02*
X029470Y012268D01*
X029155Y012268D01*
X029049Y012373D01*
X029049Y012584D01*
X029694Y012689D02*
X029694Y012268D01*
X030009Y012268D01*
X030114Y012373D01*
X030114Y012689D01*
X030334Y012584D02*
X030544Y012584D01*
X030439Y012794D02*
X030439Y012268D01*
X030761Y012268D02*
X030866Y012268D01*
X030866Y012373D01*
X030761Y012373D01*
X030761Y012268D01*
X031091Y012373D02*
X031091Y012689D01*
X031511Y012689D02*
X031511Y012373D01*
X031406Y012268D01*
X031301Y012373D01*
X031196Y012268D01*
X031091Y012373D01*
X031735Y012373D02*
X031735Y012689D01*
X032155Y012689D02*
X032155Y012373D01*
X032050Y012268D01*
X031945Y012373D01*
X031840Y012268D01*
X031735Y012373D01*
X032380Y012373D02*
X032380Y012689D01*
X032800Y012689D02*
X032800Y012373D01*
X032695Y012268D01*
X032590Y012373D01*
X032485Y012268D01*
X032380Y012373D01*
X032380Y011639D02*
X032380Y011323D01*
X032485Y011218D01*
X032590Y011323D01*
X032695Y011218D01*
X032800Y011323D01*
X032800Y011639D01*
X032155Y011639D02*
X032155Y011323D01*
X032050Y011218D01*
X031945Y011323D01*
X031840Y011218D01*
X031735Y011323D01*
X031735Y011639D01*
X031511Y011639D02*
X031511Y011323D01*
X031406Y011218D01*
X031301Y011323D01*
X031196Y011218D01*
X031091Y011323D01*
X031091Y011639D01*
X030866Y011323D02*
X030761Y011323D01*
X030761Y011218D01*
X030866Y011218D01*
X030866Y011323D01*
X030544Y011218D02*
X030229Y011218D01*
X029900Y011534D02*
X029794Y011639D01*
X029479Y011639D01*
X029255Y011534D02*
X029150Y011639D01*
X028720Y010589D02*
X028510Y010589D01*
X028405Y010484D01*
X028405Y010168D01*
X028720Y010168D01*
X028825Y010273D01*
X028720Y010379D01*
X028405Y010379D01*
X028181Y010379D02*
X027971Y010589D01*
X027865Y010589D01*
X027644Y010589D02*
X027539Y010589D01*
X027539Y010168D01*
X027644Y010168D02*
X027433Y010168D01*
X027214Y010168D02*
X027214Y010589D01*
X026899Y010589D01*
X026794Y010484D01*
X026794Y010168D01*
X026569Y010273D02*
X026569Y010484D01*
X026464Y010589D01*
X026254Y010589D01*
X026149Y010484D01*
X026149Y010273D01*
X026254Y010168D01*
X026464Y010168D01*
X026569Y010273D01*
X025925Y010273D02*
X025820Y010273D01*
X025820Y010168D01*
X025925Y010168D01*
X025925Y010273D01*
X025603Y010273D02*
X025603Y010484D01*
X025497Y010589D01*
X025287Y010589D01*
X025182Y010484D01*
X025182Y010273D01*
X025287Y010168D01*
X025497Y010168D01*
X025603Y010273D01*
X024958Y010168D02*
X024958Y010589D01*
X024748Y010589D02*
X024643Y010589D01*
X024748Y010589D02*
X024958Y010379D01*
X024421Y010484D02*
X024421Y010273D01*
X024316Y010168D01*
X024000Y010168D01*
X024000Y010063D02*
X024000Y010589D01*
X024316Y010589D01*
X024421Y010484D01*
X024000Y010063D02*
X024106Y009958D01*
X024211Y009958D01*
X022058Y011218D02*
X022058Y011639D01*
X021952Y011639D01*
X021847Y011534D01*
X021742Y011639D01*
X021637Y011534D01*
X021637Y011218D01*
X021847Y011218D02*
X021847Y011534D01*
X021745Y013318D02*
X022165Y013318D01*
X022165Y013949D01*
X022389Y013844D02*
X022389Y013634D01*
X022494Y013529D01*
X022809Y013529D01*
X022599Y013529D02*
X022389Y013318D01*
X022809Y013318D02*
X022809Y013949D01*
X022494Y013949D01*
X022389Y013844D01*
X023034Y013739D02*
X023034Y013318D01*
X023454Y013318D02*
X023454Y013739D01*
X023244Y013949D01*
X023034Y013739D01*
X023034Y013634D02*
X023454Y013634D01*
X023678Y013739D02*
X023783Y013634D01*
X024099Y013634D01*
X024323Y013423D02*
X024323Y013949D01*
X024099Y013949D02*
X023783Y013949D01*
X023678Y013844D01*
X023678Y013739D01*
X023783Y013634D02*
X023678Y013529D01*
X023678Y013423D01*
X023783Y013318D01*
X024099Y013318D01*
X024099Y013949D01*
X024323Y013423D02*
X024428Y013318D01*
X024638Y013318D01*
X024743Y013423D01*
X024743Y013949D01*
X024967Y013949D02*
X025388Y013949D01*
X025388Y013318D01*
X025388Y013634D02*
X025177Y013634D01*
X025175Y014368D02*
X025280Y014368D01*
X025280Y014473D01*
X025175Y014473D01*
X025175Y014368D01*
X024958Y014368D02*
X024538Y014789D01*
X024538Y014894D01*
X024643Y014999D01*
X024853Y014999D01*
X024958Y014894D01*
X024958Y014368D02*
X024538Y014368D01*
X025504Y014368D02*
X025925Y014368D01*
X025715Y014368D02*
X025715Y014999D01*
X025925Y014789D01*
X026149Y014789D02*
X026359Y014368D01*
X026569Y014789D01*
X027438Y014684D02*
X027438Y014473D01*
X027543Y014368D01*
X027858Y014368D01*
X027858Y014158D02*
X027858Y014789D01*
X027543Y014789D01*
X027438Y014684D01*
X028083Y014684D02*
X028083Y014579D01*
X028503Y014579D01*
X028503Y014684D02*
X028398Y014789D01*
X028188Y014789D01*
X028083Y014684D01*
X028188Y014368D02*
X028398Y014368D01*
X028503Y014473D01*
X028503Y014684D01*
X028723Y014789D02*
X028933Y014789D01*
X028828Y014894D02*
X028828Y014473D01*
X028723Y014368D01*
X029157Y014473D02*
X029157Y014579D01*
X029262Y014684D01*
X029472Y014684D01*
X029577Y014789D01*
X029577Y014894D01*
X029472Y014999D01*
X029262Y014999D01*
X029157Y014894D01*
X029801Y014894D02*
X029801Y014684D01*
X029907Y014579D01*
X030222Y014579D01*
X030012Y014579D02*
X029801Y014368D01*
X029577Y014473D02*
X029472Y014368D01*
X029262Y014368D01*
X029157Y014473D01*
X029479Y013949D02*
X029479Y013318D01*
X029794Y013318D01*
X029900Y013423D01*
X029900Y013634D01*
X029794Y013739D01*
X029479Y013739D01*
X029255Y013634D02*
X029255Y013423D01*
X029150Y013318D01*
X028940Y013318D01*
X028835Y013529D02*
X029255Y013529D01*
X029255Y013634D02*
X029150Y013739D01*
X028940Y013739D01*
X028835Y013634D01*
X028835Y013529D01*
X028610Y013423D02*
X028610Y013634D01*
X028505Y013739D01*
X028190Y013739D01*
X028190Y013949D02*
X028190Y013318D01*
X028505Y013318D01*
X028610Y013423D01*
X027321Y013318D02*
X027006Y013318D01*
X026901Y013423D01*
X026901Y013634D01*
X027006Y013739D01*
X027321Y013739D01*
X027321Y013949D02*
X027321Y013318D01*
X026677Y013423D02*
X026572Y013318D01*
X026256Y013318D01*
X026256Y013213D02*
X026362Y013108D01*
X026467Y013108D01*
X026256Y013213D02*
X026256Y013739D01*
X026677Y013739D02*
X026677Y013423D01*
X029801Y014894D02*
X029907Y014999D01*
X030222Y014999D01*
X030222Y014368D01*
X030446Y014368D02*
X030446Y014789D01*
X030656Y014999D01*
X030866Y014789D01*
X030866Y014368D01*
X031091Y014473D02*
X031196Y014368D01*
X031511Y014368D01*
X031511Y014999D01*
X031196Y014999D01*
X031091Y014894D01*
X031091Y014789D01*
X031196Y014684D01*
X031511Y014684D01*
X031735Y014473D02*
X031735Y014999D01*
X032155Y014999D02*
X032155Y014473D01*
X032050Y014368D01*
X031840Y014368D01*
X031735Y014473D01*
X031196Y014684D02*
X031091Y014579D01*
X031091Y014473D01*
X030866Y014684D02*
X030446Y014684D01*
X030224Y013844D02*
X030224Y013423D01*
X030119Y013318D01*
X030553Y013318D02*
X030869Y013318D01*
X030974Y013423D01*
X030869Y013529D01*
X030553Y013529D01*
X030553Y013634D02*
X030553Y013318D01*
X030334Y012899D02*
X030439Y012794D01*
X031303Y013318D02*
X031513Y013318D01*
X031618Y013423D01*
X031618Y013634D01*
X031513Y013739D01*
X031303Y013739D01*
X031198Y013634D01*
X031198Y013529D01*
X031618Y013529D01*
X031840Y013739D02*
X031945Y013739D01*
X032155Y013529D01*
X032155Y013739D02*
X032155Y013318D01*
X032380Y013423D02*
X032485Y013318D01*
X032695Y013318D01*
X032800Y013423D01*
X032800Y013844D01*
X032695Y013949D01*
X032485Y013949D01*
X032380Y013844D01*
X032800Y014368D02*
X032800Y014999D01*
X032380Y014999D01*
X032590Y014684D02*
X032800Y014684D01*
X030869Y013739D02*
X030659Y013739D01*
X030553Y013634D01*
X030329Y013739D02*
X030119Y013739D01*
X026892Y011639D02*
X026471Y011639D01*
X026892Y011218D01*
X026247Y011534D02*
X026142Y011639D01*
X027539Y010904D02*
X027539Y010799D01*
X028181Y010589D02*
X028181Y010168D01*
X032800Y010273D02*
X032800Y010589D01*
X021520Y013423D02*
X021415Y013529D01*
X021100Y013529D01*
X021100Y013634D02*
X021100Y013318D01*
X021415Y013318D01*
X021520Y013423D01*
X021415Y013739D02*
X021205Y013739D01*
X021100Y013634D01*
X020876Y013739D02*
X020561Y013739D01*
X020455Y013634D01*
X020455Y013423D01*
X020561Y013318D01*
X020876Y013318D01*
X020876Y013949D01*
X020231Y013634D02*
X020126Y013739D01*
X019811Y013739D01*
X019916Y013529D02*
X020126Y013529D01*
X020231Y013634D01*
X019916Y013529D02*
X019811Y013423D01*
X019916Y013318D01*
X020231Y013318D01*
X018942Y013423D02*
X018837Y013318D01*
X018522Y013318D01*
X018522Y013634D01*
X018627Y013739D01*
X018837Y013739D01*
X018837Y013529D02*
X018522Y013529D01*
X018298Y013739D02*
X017982Y013739D01*
X017877Y013634D01*
X017877Y013318D01*
X017653Y013423D02*
X017653Y013634D01*
X017548Y013739D01*
X017233Y013739D01*
X017233Y013949D02*
X017233Y013318D01*
X017548Y013318D01*
X017653Y013423D01*
X018298Y013318D02*
X018298Y013739D01*
X018837Y013529D02*
X018942Y013423D01*
X016364Y013423D02*
X016259Y013318D01*
X016049Y013318D01*
X015944Y013423D01*
X015944Y013529D01*
X016049Y013634D01*
X016259Y013634D01*
X016364Y013739D01*
X016364Y013844D01*
X016259Y013949D01*
X016049Y013949D01*
X015944Y013844D01*
X015719Y013634D02*
X015719Y013423D01*
X015614Y013318D01*
X015299Y013318D01*
X015075Y013318D02*
X015075Y013949D01*
X014970Y013739D02*
X014760Y013739D01*
X014655Y013634D01*
X014655Y013318D01*
X014430Y013318D02*
X014430Y013739D01*
X014325Y013739D01*
X014220Y013634D01*
X014115Y013739D01*
X014010Y013634D01*
X014010Y013318D01*
X014220Y013318D02*
X014220Y013634D01*
X013786Y013423D02*
X013681Y013529D01*
X013365Y013529D01*
X013365Y013634D02*
X013365Y013318D01*
X013681Y013318D01*
X013786Y013423D01*
X013681Y013739D02*
X013471Y013739D01*
X013365Y013634D01*
X013141Y013949D02*
X013036Y013949D01*
X013036Y013318D01*
X013141Y013318D02*
X012931Y013318D01*
X012712Y013318D02*
X012291Y013318D01*
X012291Y013739D02*
X012712Y013318D01*
X012712Y013739D02*
X012291Y013739D01*
X011422Y013634D02*
X011002Y013634D01*
X010778Y013423D02*
X010673Y013529D01*
X010358Y013529D01*
X010358Y013634D02*
X010358Y013318D01*
X010673Y013318D01*
X010778Y013423D01*
X011002Y013318D02*
X011002Y013949D01*
X010673Y013739D02*
X010463Y013739D01*
X010358Y013634D01*
X010133Y013739D02*
X010133Y013423D01*
X010028Y013318D01*
X009713Y013318D01*
X009713Y013739D01*
X009489Y013634D02*
X009384Y013739D01*
X009068Y013739D01*
X009174Y013529D02*
X009384Y013529D01*
X009489Y013634D01*
X009174Y013529D02*
X009068Y013423D01*
X009174Y013318D01*
X009489Y013318D01*
X011422Y013318D02*
X011422Y013949D01*
X014970Y013739D02*
X015075Y013634D01*
X015299Y013739D02*
X015614Y013739D01*
X015719Y013634D01*
D13*
X017835Y011358D03*
D14*
X015485Y010935D02*
X014186Y012273D01*
X014426Y012135D02*
X014422Y012116D01*
X014426Y012100D01*
X014434Y012092D01*
X014454Y012084D01*
X014461Y012084D01*
X015186Y012088D01*
X015186Y012064D01*
X014461Y012060D01*
X014461Y012084D01*
X014477Y012084D01*
X014481Y012100D01*
X014457Y012116D01*
X014450Y012151D02*
X014438Y012147D01*
X014426Y012135D01*
X014450Y012151D02*
X014469Y012151D01*
X014485Y012139D01*
X014493Y012123D01*
X014509Y012120D02*
X014493Y012076D01*
X014493Y012005D01*
X014418Y012005D01*
X014418Y011891D01*
X014505Y011891D01*
X014560Y011261D01*
X014595Y011265D01*
X014635Y011261D01*
X014674Y011238D01*
X014686Y011214D01*
X014698Y011186D01*
X014698Y011155D01*
X014682Y011120D01*
X014662Y011096D01*
X014635Y011080D01*
X014599Y011076D01*
X014560Y011084D01*
X014532Y011104D01*
X014513Y011135D01*
X014509Y011171D01*
X014513Y011206D01*
X014528Y011234D01*
X014552Y011249D01*
X014587Y011190D02*
X014579Y011179D01*
X014579Y011163D01*
X014587Y011151D01*
X014599Y011147D01*
X014611Y011147D01*
X014623Y011155D01*
X014627Y011167D01*
X014627Y011179D01*
X014619Y011190D01*
X014607Y011194D01*
X014603Y011175D01*
X014599Y011194D02*
X014587Y011190D01*
X014694Y011151D02*
X014965Y011151D01*
X014993Y011151D01*
X014993Y011064D01*
X014965Y011053D02*
X014965Y011151D01*
X014993Y011151D02*
X015044Y011151D01*
X015123Y012068D01*
X015111Y012120D01*
X015087Y012151D01*
X015056Y012175D01*
X015016Y012190D01*
X014969Y012206D01*
X014934Y012210D01*
X014902Y012214D01*
X014879Y012214D01*
X014879Y012186D01*
X014702Y012186D01*
X014702Y012246D01*
X014875Y012246D01*
X014875Y012198D01*
X015020Y012218D02*
X015020Y012092D01*
X015052Y012092D01*
X015052Y012214D01*
X015052Y012218D02*
X015020Y012218D01*
X014698Y012214D02*
X014650Y012206D01*
X014599Y012194D01*
X014564Y012179D01*
X014536Y012155D01*
X014509Y012120D01*
X014493Y012005D02*
X014532Y012005D01*
X014532Y011891D01*
X014505Y011891D01*
X014658Y011856D02*
X014879Y011856D01*
X014879Y011820D01*
X014678Y011820D01*
X014658Y011785D02*
X014658Y011856D01*
X014658Y011785D02*
X014879Y011785D01*
X014879Y011820D01*
X015485Y012273D02*
X014225Y010974D01*
X014965Y011053D02*
X015024Y011053D01*
X015024Y011147D01*
D15*
X014800Y010525D03*
D16*
X016605Y010529D02*
X017137Y010529D01*
X017125Y010523D02*
X017228Y010574D01*
X017328Y010637D01*
X017409Y010708D01*
X017470Y010773D01*
X017515Y010830D01*
X017570Y010915D01*
X017617Y011011D01*
X017659Y011133D01*
X017680Y011244D01*
X017688Y011356D01*
X017684Y011462D01*
X017666Y011566D01*
X017667Y011566D02*
X017323Y011566D01*
X017326Y011558D02*
X017668Y011558D01*
X017666Y011566D02*
X017647Y011635D01*
X017625Y011696D01*
X017580Y011793D01*
X017535Y011870D01*
X017489Y011931D01*
X017424Y012003D01*
X017379Y012045D01*
X017334Y012082D01*
X017257Y012135D01*
X017180Y012177D01*
X017141Y012194D01*
X017102Y012210D01*
X017066Y012224D01*
X017005Y012242D01*
X016950Y012253D01*
X016883Y012263D01*
X016794Y012269D01*
X016604Y012269D01*
X016604Y011954D01*
X016787Y011954D01*
X016863Y011948D01*
X016922Y011936D01*
X016987Y011917D01*
X017060Y011881D01*
X017137Y011830D01*
X017190Y011783D01*
X017265Y011690D01*
X017320Y011578D01*
X017336Y011521D01*
X016802Y011521D01*
X016802Y011246D01*
X017338Y011246D01*
X017304Y011153D01*
X017275Y011096D01*
X017233Y011033D01*
X017139Y010936D01*
X017072Y010889D01*
X016997Y010854D01*
X016903Y010826D01*
X016848Y010816D01*
X016794Y010812D01*
X016605Y010812D01*
X016605Y010456D01*
X016794Y010456D01*
X016881Y010462D01*
X016964Y010476D01*
X017041Y010496D01*
X017125Y010523D01*
X017117Y010521D02*
X016605Y010521D01*
X016605Y010512D02*
X017091Y010512D01*
X017065Y010504D02*
X016605Y010504D01*
X016605Y010495D02*
X017039Y010495D01*
X017006Y010487D02*
X016605Y010487D01*
X016605Y010478D02*
X016972Y010478D01*
X016926Y010470D02*
X016605Y010470D01*
X016605Y010461D02*
X016867Y010461D01*
X016605Y010538D02*
X017154Y010538D01*
X017171Y010546D02*
X016605Y010546D01*
X016605Y010555D02*
X017188Y010555D01*
X017205Y010563D02*
X016605Y010563D01*
X016605Y010572D02*
X017222Y010572D01*
X017237Y010580D02*
X016605Y010580D01*
X016605Y010589D02*
X017250Y010589D01*
X017264Y010597D02*
X016605Y010597D01*
X016605Y010606D02*
X017277Y010606D01*
X017291Y010614D02*
X016605Y010614D01*
X016605Y010623D02*
X017305Y010623D01*
X017318Y010631D02*
X016605Y010631D01*
X016605Y010640D02*
X017331Y010640D01*
X017340Y010648D02*
X016605Y010648D01*
X016605Y010657D02*
X017350Y010657D01*
X017360Y010665D02*
X016605Y010665D01*
X016605Y010674D02*
X017369Y010674D01*
X017379Y010682D02*
X016605Y010682D01*
X016605Y010691D02*
X017389Y010691D01*
X017398Y010699D02*
X016605Y010699D01*
X016605Y010708D02*
X017408Y010708D01*
X017416Y010716D02*
X016605Y010716D01*
X016605Y010725D02*
X017424Y010725D01*
X017432Y010733D02*
X016605Y010733D01*
X016605Y010742D02*
X017440Y010742D01*
X017448Y010750D02*
X016605Y010750D01*
X016605Y010759D02*
X017456Y010759D01*
X017464Y010767D02*
X016605Y010767D01*
X016605Y010776D02*
X017472Y010776D01*
X017478Y010784D02*
X016605Y010784D01*
X016605Y010793D02*
X017485Y010793D01*
X017492Y010801D02*
X016605Y010801D01*
X016605Y010810D02*
X017499Y010810D01*
X017505Y010818D02*
X016857Y010818D01*
X016904Y010827D02*
X017512Y010827D01*
X017518Y010835D02*
X016933Y010835D01*
X016962Y010844D02*
X017524Y010844D01*
X017529Y010852D02*
X016991Y010852D01*
X017012Y010861D02*
X017535Y010861D01*
X017540Y010869D02*
X017029Y010869D01*
X017047Y010878D02*
X017546Y010878D01*
X017551Y010886D02*
X017065Y010886D01*
X017080Y010895D02*
X017557Y010895D01*
X017562Y010903D02*
X017092Y010903D01*
X017104Y010912D02*
X017568Y010912D01*
X017573Y010920D02*
X017116Y010920D01*
X017128Y010929D02*
X017577Y010929D01*
X017581Y010937D02*
X017140Y010937D01*
X017148Y010946D02*
X017585Y010946D01*
X017589Y010954D02*
X017156Y010954D01*
X017165Y010963D02*
X017593Y010963D01*
X017598Y010971D02*
X017173Y010971D01*
X017181Y010980D02*
X017602Y010980D01*
X017606Y010988D02*
X017189Y010988D01*
X017198Y010997D02*
X017610Y010997D01*
X017614Y011005D02*
X017206Y011005D01*
X017214Y011014D02*
X017618Y011014D01*
X017621Y011022D02*
X017223Y011022D01*
X017231Y011031D02*
X017624Y011031D01*
X017627Y011039D02*
X017237Y011039D01*
X017243Y011048D02*
X017630Y011048D01*
X017632Y011056D02*
X017249Y011056D01*
X017254Y011065D02*
X017635Y011065D01*
X017638Y011073D02*
X017260Y011073D01*
X017265Y011082D02*
X017641Y011082D01*
X017644Y011090D02*
X017271Y011090D01*
X017276Y011099D02*
X017647Y011099D01*
X017650Y011107D02*
X017281Y011107D01*
X017285Y011116D02*
X017653Y011116D01*
X017655Y011124D02*
X017289Y011124D01*
X017294Y011133D02*
X017658Y011133D01*
X017660Y011141D02*
X017298Y011141D01*
X017303Y011150D02*
X017662Y011150D01*
X017663Y011158D02*
X017306Y011158D01*
X017309Y011167D02*
X017665Y011167D01*
X017667Y011175D02*
X017312Y011175D01*
X017315Y011184D02*
X017668Y011184D01*
X017670Y011192D02*
X017318Y011192D01*
X017322Y011201D02*
X017672Y011201D01*
X017674Y011209D02*
X017325Y011209D01*
X017328Y011218D02*
X017675Y011218D01*
X017677Y011226D02*
X017331Y011226D01*
X017334Y011235D02*
X017679Y011235D01*
X017680Y011243D02*
X017337Y011243D01*
X017335Y011524D02*
X017674Y011524D01*
X017672Y011532D02*
X017333Y011532D01*
X017330Y011541D02*
X017671Y011541D01*
X017669Y011549D02*
X017328Y011549D01*
X017321Y011575D02*
X017664Y011575D01*
X017662Y011583D02*
X017318Y011583D01*
X017313Y011592D02*
X017659Y011592D01*
X017657Y011600D02*
X017309Y011600D01*
X017305Y011609D02*
X017654Y011609D01*
X017652Y011617D02*
X017301Y011617D01*
X017297Y011626D02*
X017650Y011626D01*
X017647Y011634D02*
X017293Y011634D01*
X017288Y011643D02*
X017644Y011643D01*
X017641Y011651D02*
X017284Y011651D01*
X017280Y011660D02*
X017638Y011660D01*
X017635Y011668D02*
X017276Y011668D01*
X017272Y011677D02*
X017632Y011677D01*
X017629Y011685D02*
X017268Y011685D01*
X017262Y011694D02*
X017626Y011694D01*
X017622Y011702D02*
X017255Y011702D01*
X017249Y011711D02*
X017618Y011711D01*
X017614Y011719D02*
X017242Y011719D01*
X017235Y011728D02*
X017610Y011728D01*
X017606Y011736D02*
X017228Y011736D01*
X017221Y011745D02*
X017602Y011745D01*
X017598Y011753D02*
X017214Y011753D01*
X017207Y011762D02*
X017595Y011762D01*
X017591Y011770D02*
X017200Y011770D01*
X017194Y011779D02*
X017587Y011779D01*
X017583Y011787D02*
X017185Y011787D01*
X017176Y011796D02*
X017578Y011796D01*
X017573Y011804D02*
X017166Y011804D01*
X017157Y011813D02*
X017568Y011813D01*
X017563Y011821D02*
X017147Y011821D01*
X017138Y011830D02*
X017558Y011830D01*
X017553Y011838D02*
X017125Y011838D01*
X017112Y011847D02*
X017548Y011847D01*
X017543Y011855D02*
X017100Y011855D01*
X017087Y011864D02*
X017538Y011864D01*
X017533Y011872D02*
X017074Y011872D01*
X017061Y011881D02*
X017526Y011881D01*
X017520Y011889D02*
X017044Y011889D01*
X017027Y011898D02*
X017514Y011898D01*
X017507Y011906D02*
X017009Y011906D01*
X016992Y011915D02*
X017501Y011915D01*
X017495Y011923D02*
X016966Y011923D01*
X016938Y011932D02*
X017488Y011932D01*
X017481Y011940D02*
X016904Y011940D01*
X016859Y011949D02*
X017473Y011949D01*
X017466Y011957D02*
X016604Y011957D01*
X016604Y011966D02*
X017458Y011966D01*
X017450Y011974D02*
X016604Y011974D01*
X016604Y011983D02*
X017443Y011983D01*
X017435Y011991D02*
X016604Y011991D01*
X016604Y012000D02*
X017428Y012000D01*
X017419Y012008D02*
X016604Y012008D01*
X016604Y012017D02*
X017410Y012017D01*
X017401Y012025D02*
X016604Y012025D01*
X016604Y012034D02*
X017391Y012034D01*
X017382Y012042D02*
X016604Y012042D01*
X016604Y012051D02*
X017372Y012051D01*
X017362Y012059D02*
X016604Y012059D01*
X016604Y012068D02*
X017351Y012068D01*
X017341Y012076D02*
X016604Y012076D01*
X016604Y012085D02*
X017330Y012085D01*
X017318Y012093D02*
X016604Y012093D01*
X016604Y012102D02*
X017306Y012102D01*
X017293Y012110D02*
X016604Y012110D01*
X016604Y012119D02*
X017281Y012119D01*
X017269Y012127D02*
X016604Y012127D01*
X016604Y012136D02*
X017256Y012136D01*
X017241Y012144D02*
X016604Y012144D01*
X016604Y012153D02*
X017225Y012153D01*
X017209Y012161D02*
X016604Y012161D01*
X016604Y012170D02*
X017193Y012170D01*
X017177Y012178D02*
X016604Y012178D01*
X016604Y012187D02*
X017158Y012187D01*
X017139Y012195D02*
X016604Y012195D01*
X016604Y012204D02*
X017118Y012204D01*
X017096Y012212D02*
X016604Y012212D01*
X016604Y012221D02*
X017074Y012221D01*
X017048Y012229D02*
X016604Y012229D01*
X016604Y012238D02*
X017019Y012238D01*
X016984Y012246D02*
X016604Y012246D01*
X016604Y012255D02*
X016942Y012255D01*
X016884Y012263D02*
X016604Y012263D01*
X016802Y011515D02*
X017675Y011515D01*
X017677Y011507D02*
X016802Y011507D01*
X016802Y011498D02*
X017678Y011498D01*
X017680Y011490D02*
X016802Y011490D01*
X016802Y011481D02*
X017681Y011481D01*
X017682Y011473D02*
X016802Y011473D01*
X016802Y011464D02*
X017684Y011464D01*
X017684Y011456D02*
X016802Y011456D01*
X016802Y011447D02*
X017685Y011447D01*
X017685Y011439D02*
X016802Y011439D01*
X016802Y011430D02*
X017685Y011430D01*
X017686Y011422D02*
X016802Y011422D01*
X016802Y011413D02*
X017686Y011413D01*
X017686Y011405D02*
X016802Y011405D01*
X016802Y011396D02*
X017687Y011396D01*
X017687Y011388D02*
X016802Y011388D01*
X016802Y011379D02*
X017687Y011379D01*
X017688Y011371D02*
X016802Y011371D01*
X016802Y011362D02*
X017688Y011362D01*
X017688Y011354D02*
X016802Y011354D01*
X016802Y011345D02*
X017687Y011345D01*
X017687Y011337D02*
X016802Y011337D01*
X016802Y011328D02*
X017686Y011328D01*
X017686Y011320D02*
X016802Y011320D01*
X016802Y011311D02*
X017685Y011311D01*
X017684Y011303D02*
X016802Y011303D01*
X016802Y011294D02*
X017684Y011294D01*
X017683Y011286D02*
X016802Y011286D01*
X016802Y011277D02*
X017683Y011277D01*
X017682Y011269D02*
X016802Y011269D01*
X016802Y011260D02*
X017681Y011260D01*
X017681Y011252D02*
X016802Y011252D01*
X018139Y010812D02*
X018139Y010456D01*
X018296Y010456D01*
X018371Y010462D01*
X018444Y010474D01*
X018521Y010492D01*
X018584Y010511D01*
X018629Y010529D01*
X018682Y010553D01*
X018731Y010578D01*
X018792Y010618D01*
X018840Y010651D01*
X018885Y010690D01*
X018920Y010724D01*
X018966Y010773D01*
X018999Y010812D01*
X019031Y010860D01*
X019064Y010911D01*
X019100Y010978D01*
X019121Y011031D01*
X019141Y011088D01*
X019163Y011167D01*
X019174Y011228D01*
X019182Y011299D01*
X019184Y011356D01*
X019182Y011415D01*
X019180Y011440D01*
X019176Y011480D01*
X019170Y011523D01*
X019157Y011588D01*
X019141Y011639D01*
X019127Y011679D01*
X019113Y011716D01*
X019090Y011765D01*
X019074Y011799D01*
X019041Y011854D01*
X019021Y011881D01*
X019005Y011905D01*
X018989Y011927D01*
X018948Y011974D01*
X018924Y011999D01*
X018893Y012029D01*
X018865Y012053D01*
X018828Y012084D01*
X018777Y012122D01*
X018708Y012161D01*
X018627Y012200D01*
X018542Y012230D01*
X018460Y012251D01*
X018381Y012263D01*
X018292Y012271D01*
X018139Y012271D01*
X018139Y011954D01*
X018287Y011954D01*
X018340Y011950D01*
X018391Y011942D01*
X018426Y011935D01*
X018462Y011925D01*
X018541Y011891D01*
X018607Y011850D01*
X018663Y011805D01*
X018708Y011759D01*
X018751Y011704D01*
X018783Y011649D01*
X018812Y011584D01*
X018836Y011513D01*
X018848Y011438D01*
X018850Y011364D01*
X018844Y011307D01*
X018830Y011238D01*
X018810Y011175D01*
X019164Y011175D01*
X019163Y011167D02*
X018807Y011167D01*
X018810Y011175D02*
X018779Y011106D01*
X018735Y011041D01*
X018688Y010986D01*
X018639Y010940D01*
X018584Y010905D01*
X018527Y010870D01*
X018483Y010850D01*
X018422Y010830D01*
X018367Y010818D01*
X018326Y010812D01*
X018139Y010812D01*
X018139Y010810D02*
X018997Y010810D01*
X019003Y010818D02*
X018365Y010818D01*
X018406Y010827D02*
X019009Y010827D01*
X019014Y010835D02*
X018438Y010835D01*
X018464Y010844D02*
X019020Y010844D01*
X019026Y010852D02*
X018488Y010852D01*
X018507Y010861D02*
X019031Y010861D01*
X019037Y010869D02*
X018526Y010869D01*
X018540Y010878D02*
X019042Y010878D01*
X019048Y010886D02*
X018553Y010886D01*
X018567Y010895D02*
X019053Y010895D01*
X019059Y010903D02*
X018581Y010903D01*
X018594Y010912D02*
X019065Y010912D01*
X019069Y010920D02*
X018607Y010920D01*
X018621Y010929D02*
X019074Y010929D01*
X019078Y010937D02*
X018634Y010937D01*
X018645Y010946D02*
X019083Y010946D01*
X019087Y010954D02*
X018654Y010954D01*
X018663Y010963D02*
X019092Y010963D01*
X019096Y010971D02*
X018672Y010971D01*
X018682Y010980D02*
X019100Y010980D01*
X019104Y010988D02*
X018690Y010988D01*
X018697Y010997D02*
X019107Y010997D01*
X019111Y011005D02*
X018705Y011005D01*
X018712Y011014D02*
X019114Y011014D01*
X019118Y011022D02*
X018719Y011022D01*
X018727Y011031D02*
X019121Y011031D01*
X019124Y011039D02*
X018734Y011039D01*
X018740Y011048D02*
X019127Y011048D01*
X019130Y011056D02*
X018746Y011056D01*
X018751Y011065D02*
X019133Y011065D01*
X019136Y011073D02*
X018757Y011073D01*
X018763Y011082D02*
X019139Y011082D01*
X019141Y011090D02*
X018768Y011090D01*
X018774Y011099D02*
X019144Y011099D01*
X019146Y011107D02*
X018779Y011107D01*
X018783Y011116D02*
X019148Y011116D01*
X019151Y011124D02*
X018787Y011124D01*
X018791Y011133D02*
X019153Y011133D01*
X019155Y011141D02*
X018795Y011141D01*
X018799Y011150D02*
X019158Y011150D01*
X019160Y011158D02*
X018803Y011158D01*
X018813Y011184D02*
X019166Y011184D01*
X019167Y011192D02*
X018816Y011192D01*
X018818Y011201D02*
X019169Y011201D01*
X019171Y011209D02*
X018821Y011209D01*
X018824Y011218D02*
X019172Y011218D01*
X019174Y011226D02*
X018826Y011226D01*
X018829Y011235D02*
X019175Y011235D01*
X019176Y011243D02*
X018831Y011243D01*
X018833Y011252D02*
X019177Y011252D01*
X019178Y011260D02*
X018834Y011260D01*
X018836Y011269D02*
X019179Y011269D01*
X019180Y011277D02*
X018838Y011277D01*
X018839Y011286D02*
X019181Y011286D01*
X019182Y011294D02*
X018841Y011294D01*
X018843Y011303D02*
X019182Y011303D01*
X019183Y011311D02*
X018844Y011311D01*
X018845Y011320D02*
X019183Y011320D01*
X019183Y011328D02*
X018846Y011328D01*
X018847Y011337D02*
X019184Y011337D01*
X019184Y011345D02*
X018848Y011345D01*
X018849Y011354D02*
X019184Y011354D01*
X019184Y011362D02*
X018849Y011362D01*
X018849Y011371D02*
X019184Y011371D01*
X019183Y011379D02*
X018849Y011379D01*
X018849Y011388D02*
X019183Y011388D01*
X019183Y011396D02*
X018849Y011396D01*
X018848Y011405D02*
X019183Y011405D01*
X019182Y011413D02*
X018848Y011413D01*
X018848Y011422D02*
X019182Y011422D01*
X019181Y011430D02*
X018848Y011430D01*
X018848Y011439D02*
X019180Y011439D01*
X019180Y011447D02*
X018846Y011447D01*
X018845Y011456D02*
X019179Y011456D01*
X019178Y011464D02*
X018844Y011464D01*
X018842Y011473D02*
X019177Y011473D01*
X019176Y011481D02*
X018841Y011481D01*
X018840Y011490D02*
X019175Y011490D01*
X019174Y011498D02*
X018838Y011498D01*
X018837Y011507D02*
X019173Y011507D01*
X019172Y011515D02*
X018835Y011515D01*
X018832Y011524D02*
X019170Y011524D01*
X019169Y011532D02*
X018830Y011532D01*
X018827Y011541D02*
X019167Y011541D01*
X019165Y011549D02*
X018824Y011549D01*
X018821Y011558D02*
X019163Y011558D01*
X019161Y011566D02*
X018818Y011566D01*
X018815Y011575D02*
X019160Y011575D01*
X019158Y011583D02*
X018813Y011583D01*
X018809Y011592D02*
X019156Y011592D01*
X019153Y011600D02*
X018805Y011600D01*
X018801Y011609D02*
X019150Y011609D01*
X019148Y011617D02*
X018797Y011617D01*
X018793Y011626D02*
X019145Y011626D01*
X019142Y011634D02*
X018789Y011634D01*
X018786Y011643D02*
X019140Y011643D01*
X019137Y011651D02*
X018781Y011651D01*
X018777Y011660D02*
X019134Y011660D01*
X019131Y011668D02*
X018772Y011668D01*
X018767Y011677D02*
X019128Y011677D01*
X019125Y011685D02*
X018762Y011685D01*
X018757Y011694D02*
X019122Y011694D01*
X019118Y011702D02*
X018752Y011702D01*
X018746Y011711D02*
X019115Y011711D01*
X019112Y011719D02*
X018739Y011719D01*
X018733Y011728D02*
X019108Y011728D01*
X019104Y011736D02*
X018726Y011736D01*
X018719Y011745D02*
X019100Y011745D01*
X019096Y011753D02*
X018713Y011753D01*
X018706Y011762D02*
X019091Y011762D01*
X019087Y011770D02*
X018697Y011770D01*
X018689Y011779D02*
X019083Y011779D01*
X019079Y011787D02*
X018680Y011787D01*
X018672Y011796D02*
X019075Y011796D01*
X019071Y011804D02*
X018663Y011804D01*
X018653Y011813D02*
X019066Y011813D01*
X019060Y011821D02*
X018642Y011821D01*
X018632Y011830D02*
X019055Y011830D01*
X019050Y011838D02*
X018622Y011838D01*
X018611Y011847D02*
X019045Y011847D01*
X019040Y011855D02*
X018599Y011855D01*
X018585Y011864D02*
X019033Y011864D01*
X019027Y011872D02*
X018571Y011872D01*
X018558Y011881D02*
X019021Y011881D01*
X019016Y011889D02*
X018544Y011889D01*
X018525Y011898D02*
X019010Y011898D01*
X019004Y011906D02*
X018505Y011906D01*
X018485Y011915D02*
X018998Y011915D01*
X018992Y011923D02*
X018465Y011923D01*
X018437Y011932D02*
X018985Y011932D01*
X018978Y011940D02*
X018401Y011940D01*
X018350Y011949D02*
X018970Y011949D01*
X018963Y011957D02*
X018139Y011957D01*
X018139Y011966D02*
X018955Y011966D01*
X018948Y011974D02*
X018139Y011974D01*
X018139Y011983D02*
X018940Y011983D01*
X018932Y011991D02*
X018139Y011991D01*
X018139Y012000D02*
X018924Y012000D01*
X018915Y012008D02*
X018139Y012008D01*
X018139Y012017D02*
X018906Y012017D01*
X018897Y012025D02*
X018139Y012025D01*
X018139Y012034D02*
X018887Y012034D01*
X018878Y012042D02*
X018139Y012042D01*
X018139Y012051D02*
X018868Y012051D01*
X018858Y012059D02*
X018139Y012059D01*
X018139Y012068D02*
X018847Y012068D01*
X018837Y012076D02*
X018139Y012076D01*
X018139Y012085D02*
X018827Y012085D01*
X018816Y012093D02*
X018139Y012093D01*
X018139Y012102D02*
X018804Y012102D01*
X018792Y012110D02*
X018139Y012110D01*
X018139Y012119D02*
X018781Y012119D01*
X018767Y012127D02*
X018139Y012127D01*
X018139Y012136D02*
X018752Y012136D01*
X018737Y012144D02*
X018139Y012144D01*
X018139Y012153D02*
X018722Y012153D01*
X018707Y012161D02*
X018139Y012161D01*
X018139Y012170D02*
X018690Y012170D01*
X018672Y012178D02*
X018139Y012178D01*
X018139Y012187D02*
X018655Y012187D01*
X018638Y012195D02*
X018139Y012195D01*
X018139Y012204D02*
X018617Y012204D01*
X018593Y012212D02*
X018139Y012212D01*
X018139Y012221D02*
X018569Y012221D01*
X018544Y012229D02*
X018139Y012229D01*
X018139Y012238D02*
X018513Y012238D01*
X018480Y012246D02*
X018139Y012246D01*
X018139Y012255D02*
X018439Y012255D01*
X018382Y012263D02*
X018139Y012263D01*
X018139Y010801D02*
X018990Y010801D01*
X018982Y010793D02*
X018139Y010793D01*
X018139Y010784D02*
X018975Y010784D01*
X018968Y010776D02*
X018139Y010776D01*
X018139Y010767D02*
X018960Y010767D01*
X018952Y010759D02*
X018139Y010759D01*
X018139Y010750D02*
X018945Y010750D01*
X018937Y010742D02*
X018139Y010742D01*
X018139Y010733D02*
X018929Y010733D01*
X018921Y010725D02*
X018139Y010725D01*
X018139Y010716D02*
X018912Y010716D01*
X018903Y010708D02*
X018139Y010708D01*
X018139Y010699D02*
X018894Y010699D01*
X018885Y010691D02*
X018139Y010691D01*
X018139Y010682D02*
X018875Y010682D01*
X018866Y010674D02*
X018139Y010674D01*
X018139Y010665D02*
X018856Y010665D01*
X018846Y010657D02*
X018139Y010657D01*
X018139Y010648D02*
X018836Y010648D01*
X018824Y010640D02*
X018139Y010640D01*
X018139Y010631D02*
X018812Y010631D01*
X018800Y010623D02*
X018139Y010623D01*
X018139Y010614D02*
X018787Y010614D01*
X018774Y010606D02*
X018139Y010606D01*
X018139Y010597D02*
X018761Y010597D01*
X018748Y010589D02*
X018139Y010589D01*
X018139Y010580D02*
X018734Y010580D01*
X018719Y010572D02*
X018139Y010572D01*
X018139Y010563D02*
X018702Y010563D01*
X018686Y010555D02*
X018139Y010555D01*
X018139Y010546D02*
X018668Y010546D01*
X018648Y010538D02*
X018139Y010538D01*
X018139Y010529D02*
X018629Y010529D01*
X018608Y010521D02*
X018139Y010521D01*
X018139Y010512D02*
X018586Y010512D01*
X018559Y010504D02*
X018139Y010504D01*
X018139Y010495D02*
X018532Y010495D01*
X018499Y010487D02*
X018139Y010487D01*
X018139Y010478D02*
X018462Y010478D01*
X018418Y010470D02*
X018139Y010470D01*
X018139Y010461D02*
X018359Y010461D01*
M02*
