G75*
G70*
%OFA0B0*%
%FSLAX24Y24*%
%IPPOS*%
%LPD*%
%AMOC8*
5,1,8,0,0,1.08239X$1,22.5*
%
%ADD10C,0.1340*%
%ADD11OC8,0.1980*%
%ADD12C,0.0780*%
%ADD13R,0.0820X0.0820*%
%ADD14C,0.0820*%
%ADD15C,0.0730*%
%ADD16C,0.0560*%
%ADD17R,0.0730X0.0730*%
%ADD18R,0.0880X0.0880*%
%ADD19C,0.0880*%
%ADD20R,0.1030X0.1030*%
%ADD21C,0.1030*%
D10*
X003206Y003402D03*
X003100Y021833D03*
X039600Y021833D03*
X039600Y003333D03*
D11*
X007050Y007253D03*
X005870Y005283D03*
X004690Y007253D03*
D12*
X005150Y009533D03*
X004150Y009533D03*
X003150Y009533D03*
X002150Y009533D03*
X002150Y011033D03*
X003150Y011033D03*
X004150Y011033D03*
X005150Y011033D03*
X006150Y011033D03*
X007150Y011033D03*
X008150Y011033D03*
X009150Y011033D03*
X010150Y011033D03*
X011150Y011033D03*
X012150Y011033D03*
X013150Y011033D03*
X014150Y011033D03*
X015150Y011033D03*
X016150Y011033D03*
X017150Y011033D03*
X018150Y011033D03*
X019150Y011033D03*
X020150Y011033D03*
X021150Y011033D03*
X021150Y009533D03*
X022150Y009533D03*
X023150Y009533D03*
X024150Y009533D03*
X025150Y009533D03*
X026150Y009533D03*
X027150Y009533D03*
X028150Y009533D03*
X029150Y009533D03*
X021150Y017033D03*
X020150Y017033D03*
X019150Y017033D03*
X018150Y017033D03*
X017150Y017033D03*
X016150Y017033D03*
X015150Y017033D03*
X014150Y017033D03*
X013150Y017033D03*
X012150Y017033D03*
X011150Y017033D03*
X010150Y017033D03*
X009150Y017033D03*
X008150Y017033D03*
X007150Y017033D03*
X006150Y017033D03*
X005150Y017033D03*
X004150Y017033D03*
X003150Y017033D03*
X002150Y017033D03*
X002150Y018533D03*
X003150Y018533D03*
X004150Y018533D03*
X005150Y018533D03*
X006150Y018533D03*
X007150Y018533D03*
X008150Y018533D03*
X009150Y018533D03*
X010150Y018533D03*
X011150Y018533D03*
X012150Y018533D03*
X013150Y018533D03*
X014150Y018533D03*
X015150Y018533D03*
X016150Y018533D03*
X017150Y018533D03*
X018150Y018533D03*
X019150Y018533D03*
X020150Y018533D03*
X021150Y018533D03*
X022150Y018533D03*
X023150Y018533D03*
X024150Y018533D03*
X025150Y018533D03*
X026150Y018533D03*
X027150Y018533D03*
X028150Y018533D03*
X029150Y018533D03*
X020150Y009533D03*
X019150Y009533D03*
X018150Y009533D03*
X017150Y009533D03*
X016150Y009533D03*
X015150Y009533D03*
X014150Y009533D03*
X013150Y009533D03*
X012150Y009533D03*
X011150Y009533D03*
X010150Y009533D03*
X009150Y009533D03*
X008150Y009533D03*
X007150Y009533D03*
X006150Y009533D03*
D13*
X009650Y006833D03*
D14*
X010650Y006833D03*
X011650Y006833D03*
X011150Y004333D03*
X012150Y004333D03*
X013150Y004333D03*
X017150Y004383D03*
X017150Y003383D03*
X018150Y003383D03*
X019150Y003383D03*
X020150Y003383D03*
X020150Y004383D03*
X019150Y004383D03*
X018150Y004383D03*
X018150Y005383D03*
X019150Y005383D03*
X020150Y005383D03*
X021150Y005383D03*
X022150Y005383D03*
X022150Y004383D03*
X022150Y003383D03*
X021150Y003383D03*
X021150Y004383D03*
X023150Y004383D03*
X023150Y003383D03*
X024150Y003383D03*
X024150Y004383D03*
X025150Y004383D03*
X025150Y003383D03*
X026150Y003383D03*
X027150Y003383D03*
X027150Y004383D03*
X026150Y004383D03*
X026150Y005383D03*
X025150Y005383D03*
X024150Y005383D03*
X023150Y005383D03*
X027150Y005383D03*
X028150Y005383D03*
X028150Y004383D03*
X028150Y003383D03*
X030650Y004333D03*
X036150Y004333D03*
X026150Y019783D03*
X025150Y019783D03*
X024150Y019783D03*
X023150Y019783D03*
X022150Y019783D03*
X021150Y019683D03*
X020150Y019783D03*
X019150Y019683D03*
X018150Y019783D03*
X017150Y019683D03*
X016150Y019783D03*
X015150Y019783D03*
X014150Y019783D03*
X013150Y019783D03*
X012150Y019783D03*
X011150Y019783D03*
X010150Y019783D03*
X009150Y019783D03*
X008150Y019783D03*
X007150Y019783D03*
X006150Y019783D03*
X006150Y020783D03*
X006150Y021783D03*
X007150Y021783D03*
X007150Y020783D03*
X008150Y020783D03*
X008150Y021783D03*
X009150Y021783D03*
X009150Y020783D03*
X010150Y020783D03*
X010150Y021783D03*
X011150Y021783D03*
X011150Y020783D03*
X012150Y020783D03*
X013150Y020783D03*
X013150Y021783D03*
X012150Y021783D03*
X014150Y021783D03*
X014150Y020783D03*
X015150Y020783D03*
X015150Y021783D03*
X022150Y021783D03*
X022150Y020783D03*
X023150Y020783D03*
X024150Y020783D03*
X024150Y021783D03*
X023150Y021783D03*
X025150Y021783D03*
X025150Y020783D03*
X026150Y020783D03*
X026150Y021783D03*
X017150Y005383D03*
D15*
X016150Y004333D03*
X016150Y003333D03*
X014650Y007033D03*
X028150Y013833D03*
X029150Y013833D03*
X035950Y014333D03*
X036950Y014333D03*
X036950Y015833D03*
X035950Y015833D03*
X035950Y017333D03*
X036950Y017333D03*
X036950Y018833D03*
X035950Y018833D03*
X036650Y020333D03*
X036450Y011833D03*
X036000Y010333D03*
X037000Y010333D03*
X037000Y008833D03*
X036000Y008833D03*
X036000Y007333D03*
X037000Y007333D03*
X037000Y005833D03*
X036000Y005833D03*
X033650Y003833D03*
X032650Y003833D03*
X027150Y020783D03*
X027150Y021783D03*
D16*
X031410Y020833D02*
X031890Y020833D01*
X031890Y019833D02*
X031410Y019833D01*
X031410Y018833D02*
X031890Y018833D01*
X031890Y017833D02*
X031410Y017833D01*
X031410Y016833D02*
X031890Y016833D01*
X031890Y015833D02*
X031410Y015833D01*
X031410Y014833D02*
X031890Y014833D01*
X031890Y013833D02*
X031410Y013833D01*
X031410Y011833D02*
X031890Y011833D01*
X031890Y010833D02*
X031410Y010833D01*
X031410Y009833D02*
X031890Y009833D01*
X031890Y008833D02*
X031410Y008833D01*
X031410Y007833D02*
X031890Y007833D01*
X031890Y006833D02*
X031410Y006833D01*
X031410Y005833D02*
X031890Y005833D01*
X031890Y004833D02*
X031410Y004833D01*
X034410Y004833D02*
X034890Y004833D01*
X034890Y005833D02*
X034410Y005833D01*
X034410Y006833D02*
X034890Y006833D01*
X034890Y007833D02*
X034410Y007833D01*
X034410Y008833D02*
X034890Y008833D01*
X034890Y009833D02*
X034410Y009833D01*
X034410Y010833D02*
X034890Y010833D01*
X034890Y011833D02*
X034410Y011833D01*
X034410Y013833D02*
X034890Y013833D01*
X034890Y014833D02*
X034410Y014833D01*
X034410Y015833D02*
X034890Y015833D01*
X034890Y016833D02*
X034410Y016833D01*
X034410Y017833D02*
X034890Y017833D01*
X034890Y018833D02*
X034410Y018833D01*
X034410Y019833D02*
X034890Y019833D01*
X034890Y020833D02*
X034410Y020833D01*
D17*
X036650Y021333D03*
X036450Y012833D03*
X014650Y006033D03*
D18*
X008150Y004233D03*
X039650Y010533D03*
X039650Y017883D03*
D19*
X039650Y019261D03*
X039650Y011911D03*
X009528Y004233D03*
D20*
X039650Y006183D03*
X039650Y013533D03*
D21*
X039650Y014911D03*
X039650Y016289D03*
X039650Y008939D03*
X039650Y007561D03*
M02*
