G75*
G70*
%OFA0B0*%
%FSLAX24Y24*%
%IPPOS*%
%LPD*%
%AMOC8*
5,1,8,0,0,1.08239X$1,22.5*
%
%ADD10C,0.0100*%
%ADD11C,0.0000*%
%ADD12C,0.0040*%
%ADD13C,0.0160*%
%ADD14C,0.0120*%
%ADD15C,0.0060*%
%ADD16C,0.0050*%
%ADD17C,0.0080*%
%ADD18C,0.0059*%
D10*
X001600Y001833D02*
X001600Y023333D01*
X041000Y023333D01*
X041000Y001833D01*
X001600Y001833D01*
X001650Y009033D02*
X001650Y010033D01*
X002650Y010033D01*
X002650Y009033D01*
X029650Y009033D01*
X029650Y019033D01*
X001650Y019033D01*
X001650Y010033D01*
X001650Y010533D02*
X001650Y011533D01*
X002650Y011533D01*
X002650Y010533D01*
X021650Y010533D01*
X021650Y017533D01*
X001650Y017533D01*
X001650Y011533D01*
X001650Y010533D02*
X002650Y010533D01*
X002650Y009033D02*
X001650Y009033D01*
X015650Y022983D02*
X015800Y022833D01*
X015650Y022983D02*
X015800Y023133D01*
X015650Y022983D02*
X017750Y022983D01*
X017400Y021983D02*
X016450Y021983D01*
X016150Y021683D01*
X018900Y021983D02*
X020850Y021983D01*
X021150Y021683D01*
X021450Y022833D02*
X021600Y022983D01*
X021450Y023133D01*
X021600Y022983D02*
X018900Y022983D01*
X037750Y019433D02*
X037750Y019083D01*
X037750Y019433D02*
X038050Y019733D01*
X038300Y019733D01*
X037750Y018133D02*
X037750Y017783D01*
X038050Y017483D01*
X038300Y017483D01*
X038300Y015333D02*
X038050Y015333D01*
X037750Y015033D01*
X037750Y014783D01*
X037750Y013733D02*
X037750Y013383D01*
X038050Y013083D01*
X038300Y013083D01*
X038300Y012283D02*
X038050Y012283D01*
X037800Y012033D01*
X037800Y011783D01*
X037800Y010783D02*
X037800Y010383D01*
X038050Y010133D01*
X038300Y010133D01*
X038300Y008033D02*
X037950Y008033D01*
X037700Y007783D01*
X037700Y007433D01*
X037700Y006383D02*
X037700Y005983D01*
X037950Y005733D01*
X038300Y005733D01*
X031600Y002133D02*
X028700Y002133D01*
X028850Y001983D01*
X028700Y002133D02*
X028850Y002283D01*
D11*
X038970Y003333D02*
X038972Y003383D01*
X038978Y003433D01*
X038988Y003482D01*
X039002Y003530D01*
X039019Y003577D01*
X039040Y003622D01*
X039065Y003666D01*
X039093Y003707D01*
X039125Y003746D01*
X039159Y003783D01*
X039196Y003817D01*
X039236Y003847D01*
X039278Y003874D01*
X039322Y003898D01*
X039368Y003919D01*
X039415Y003935D01*
X039463Y003948D01*
X039513Y003957D01*
X039562Y003962D01*
X039613Y003963D01*
X039663Y003960D01*
X039712Y003953D01*
X039761Y003942D01*
X039809Y003927D01*
X039855Y003909D01*
X039900Y003887D01*
X039943Y003861D01*
X039984Y003832D01*
X040023Y003800D01*
X040059Y003765D01*
X040091Y003727D01*
X040121Y003687D01*
X040148Y003644D01*
X040171Y003600D01*
X040190Y003554D01*
X040206Y003506D01*
X040218Y003457D01*
X040226Y003408D01*
X040230Y003358D01*
X040230Y003308D01*
X040226Y003258D01*
X040218Y003209D01*
X040206Y003160D01*
X040190Y003112D01*
X040171Y003066D01*
X040148Y003022D01*
X040121Y002979D01*
X040091Y002939D01*
X040059Y002901D01*
X040023Y002866D01*
X039984Y002834D01*
X039943Y002805D01*
X039900Y002779D01*
X039855Y002757D01*
X039809Y002739D01*
X039761Y002724D01*
X039712Y002713D01*
X039663Y002706D01*
X039613Y002703D01*
X039562Y002704D01*
X039513Y002709D01*
X039463Y002718D01*
X039415Y002731D01*
X039368Y002747D01*
X039322Y002768D01*
X039278Y002792D01*
X039236Y002819D01*
X039196Y002849D01*
X039159Y002883D01*
X039125Y002920D01*
X039093Y002959D01*
X039065Y003000D01*
X039040Y003044D01*
X039019Y003089D01*
X039002Y003136D01*
X038988Y003184D01*
X038978Y003233D01*
X038972Y003283D01*
X038970Y003333D01*
X038970Y021833D02*
X038972Y021883D01*
X038978Y021933D01*
X038988Y021982D01*
X039002Y022030D01*
X039019Y022077D01*
X039040Y022122D01*
X039065Y022166D01*
X039093Y022207D01*
X039125Y022246D01*
X039159Y022283D01*
X039196Y022317D01*
X039236Y022347D01*
X039278Y022374D01*
X039322Y022398D01*
X039368Y022419D01*
X039415Y022435D01*
X039463Y022448D01*
X039513Y022457D01*
X039562Y022462D01*
X039613Y022463D01*
X039663Y022460D01*
X039712Y022453D01*
X039761Y022442D01*
X039809Y022427D01*
X039855Y022409D01*
X039900Y022387D01*
X039943Y022361D01*
X039984Y022332D01*
X040023Y022300D01*
X040059Y022265D01*
X040091Y022227D01*
X040121Y022187D01*
X040148Y022144D01*
X040171Y022100D01*
X040190Y022054D01*
X040206Y022006D01*
X040218Y021957D01*
X040226Y021908D01*
X040230Y021858D01*
X040230Y021808D01*
X040226Y021758D01*
X040218Y021709D01*
X040206Y021660D01*
X040190Y021612D01*
X040171Y021566D01*
X040148Y021522D01*
X040121Y021479D01*
X040091Y021439D01*
X040059Y021401D01*
X040023Y021366D01*
X039984Y021334D01*
X039943Y021305D01*
X039900Y021279D01*
X039855Y021257D01*
X039809Y021239D01*
X039761Y021224D01*
X039712Y021213D01*
X039663Y021206D01*
X039613Y021203D01*
X039562Y021204D01*
X039513Y021209D01*
X039463Y021218D01*
X039415Y021231D01*
X039368Y021247D01*
X039322Y021268D01*
X039278Y021292D01*
X039236Y021319D01*
X039196Y021349D01*
X039159Y021383D01*
X039125Y021420D01*
X039093Y021459D01*
X039065Y021500D01*
X039040Y021544D01*
X039019Y021589D01*
X039002Y021636D01*
X038988Y021684D01*
X038978Y021733D01*
X038972Y021783D01*
X038970Y021833D01*
X002470Y021833D02*
X002472Y021883D01*
X002478Y021933D01*
X002488Y021982D01*
X002502Y022030D01*
X002519Y022077D01*
X002540Y022122D01*
X002565Y022166D01*
X002593Y022207D01*
X002625Y022246D01*
X002659Y022283D01*
X002696Y022317D01*
X002736Y022347D01*
X002778Y022374D01*
X002822Y022398D01*
X002868Y022419D01*
X002915Y022435D01*
X002963Y022448D01*
X003013Y022457D01*
X003062Y022462D01*
X003113Y022463D01*
X003163Y022460D01*
X003212Y022453D01*
X003261Y022442D01*
X003309Y022427D01*
X003355Y022409D01*
X003400Y022387D01*
X003443Y022361D01*
X003484Y022332D01*
X003523Y022300D01*
X003559Y022265D01*
X003591Y022227D01*
X003621Y022187D01*
X003648Y022144D01*
X003671Y022100D01*
X003690Y022054D01*
X003706Y022006D01*
X003718Y021957D01*
X003726Y021908D01*
X003730Y021858D01*
X003730Y021808D01*
X003726Y021758D01*
X003718Y021709D01*
X003706Y021660D01*
X003690Y021612D01*
X003671Y021566D01*
X003648Y021522D01*
X003621Y021479D01*
X003591Y021439D01*
X003559Y021401D01*
X003523Y021366D01*
X003484Y021334D01*
X003443Y021305D01*
X003400Y021279D01*
X003355Y021257D01*
X003309Y021239D01*
X003261Y021224D01*
X003212Y021213D01*
X003163Y021206D01*
X003113Y021203D01*
X003062Y021204D01*
X003013Y021209D01*
X002963Y021218D01*
X002915Y021231D01*
X002868Y021247D01*
X002822Y021268D01*
X002778Y021292D01*
X002736Y021319D01*
X002696Y021349D01*
X002659Y021383D01*
X002625Y021420D01*
X002593Y021459D01*
X002565Y021500D01*
X002540Y021544D01*
X002519Y021589D01*
X002502Y021636D01*
X002488Y021684D01*
X002478Y021733D01*
X002472Y021783D01*
X002470Y021833D01*
X002576Y003402D02*
X002578Y003452D01*
X002584Y003502D01*
X002594Y003551D01*
X002608Y003599D01*
X002625Y003646D01*
X002646Y003691D01*
X002671Y003735D01*
X002699Y003776D01*
X002731Y003815D01*
X002765Y003852D01*
X002802Y003886D01*
X002842Y003916D01*
X002884Y003943D01*
X002928Y003967D01*
X002974Y003988D01*
X003021Y004004D01*
X003069Y004017D01*
X003119Y004026D01*
X003168Y004031D01*
X003219Y004032D01*
X003269Y004029D01*
X003318Y004022D01*
X003367Y004011D01*
X003415Y003996D01*
X003461Y003978D01*
X003506Y003956D01*
X003549Y003930D01*
X003590Y003901D01*
X003629Y003869D01*
X003665Y003834D01*
X003697Y003796D01*
X003727Y003756D01*
X003754Y003713D01*
X003777Y003669D01*
X003796Y003623D01*
X003812Y003575D01*
X003824Y003526D01*
X003832Y003477D01*
X003836Y003427D01*
X003836Y003377D01*
X003832Y003327D01*
X003824Y003278D01*
X003812Y003229D01*
X003796Y003181D01*
X003777Y003135D01*
X003754Y003091D01*
X003727Y003048D01*
X003697Y003008D01*
X003665Y002970D01*
X003629Y002935D01*
X003590Y002903D01*
X003549Y002874D01*
X003506Y002848D01*
X003461Y002826D01*
X003415Y002808D01*
X003367Y002793D01*
X003318Y002782D01*
X003269Y002775D01*
X003219Y002772D01*
X003168Y002773D01*
X003119Y002778D01*
X003069Y002787D01*
X003021Y002800D01*
X002974Y002816D01*
X002928Y002837D01*
X002884Y002861D01*
X002842Y002888D01*
X002802Y002918D01*
X002765Y002952D01*
X002731Y002989D01*
X002699Y003028D01*
X002671Y003069D01*
X002646Y003113D01*
X002625Y003158D01*
X002608Y003205D01*
X002594Y003253D01*
X002584Y003302D01*
X002578Y003352D01*
X002576Y003402D01*
D12*
X005470Y003233D02*
X005650Y003233D01*
X005710Y003173D01*
X005710Y003113D01*
X005650Y003053D01*
X005530Y003053D01*
X005470Y003113D01*
X005470Y003233D01*
X005590Y003354D01*
X005710Y003414D01*
X005838Y003233D02*
X006079Y003233D01*
X006207Y003294D02*
X006327Y003414D01*
X006327Y003053D01*
X006207Y003053D02*
X006447Y003053D01*
X006575Y003053D02*
X006815Y003294D01*
X006815Y003354D01*
X006755Y003414D01*
X006635Y003414D01*
X006575Y003354D01*
X006575Y003053D02*
X006815Y003053D01*
X006943Y003173D02*
X007063Y003053D01*
X007183Y003173D01*
X007183Y003414D01*
X006943Y003414D02*
X006943Y003173D01*
X006943Y003653D02*
X006943Y003894D01*
X007063Y003894D02*
X006943Y003773D01*
X006815Y003713D02*
X006815Y003833D01*
X006755Y003894D01*
X006635Y003894D01*
X006575Y003833D01*
X006575Y003713D01*
X006635Y003653D01*
X006755Y003653D01*
X006815Y003713D01*
X007063Y003894D02*
X007123Y003894D01*
X006079Y003773D02*
X006079Y004014D01*
X006079Y003773D02*
X005958Y003653D01*
X005838Y003773D01*
X005838Y004014D01*
X005710Y004014D02*
X005470Y004014D01*
X005470Y003833D01*
X005590Y003894D01*
X005650Y003894D01*
X005710Y003833D01*
X005710Y003713D01*
X005650Y003653D01*
X005530Y003653D01*
X005470Y003713D01*
X008020Y005883D02*
X008260Y005883D01*
X009370Y005883D02*
X009610Y005883D01*
X009490Y005763D02*
X009490Y006004D01*
X011120Y005464D02*
X011120Y005103D01*
X011120Y005223D02*
X011300Y005223D01*
X011360Y005283D01*
X011360Y005404D01*
X011300Y005464D01*
X011120Y005464D01*
X011488Y005464D02*
X011488Y005103D01*
X011608Y005223D01*
X011729Y005103D01*
X011729Y005464D01*
X011857Y005464D02*
X012037Y005464D01*
X012097Y005404D01*
X012097Y005283D01*
X012037Y005223D01*
X011857Y005223D01*
X011857Y005103D02*
X011857Y005464D01*
X011977Y005223D02*
X012097Y005103D01*
X012225Y005163D02*
X012285Y005103D01*
X012405Y005103D01*
X012465Y005163D01*
X012465Y005223D01*
X012405Y005283D01*
X012285Y005283D01*
X012225Y005344D01*
X012225Y005404D01*
X012285Y005464D01*
X012405Y005464D01*
X012465Y005404D01*
X012593Y005464D02*
X012593Y005103D01*
X012833Y005103D01*
X012962Y005103D02*
X013202Y005103D01*
X012962Y005103D02*
X012962Y005464D01*
X012833Y005464D02*
X012593Y005464D01*
X012593Y005283D02*
X012713Y005283D01*
X013820Y005773D02*
X014180Y005773D01*
X014180Y005653D02*
X014180Y005894D01*
X014120Y006022D02*
X013880Y006262D01*
X014120Y006262D01*
X014180Y006202D01*
X014180Y006082D01*
X014120Y006022D01*
X013880Y006022D01*
X013820Y006082D01*
X013820Y006202D01*
X013880Y006262D01*
X013880Y006390D02*
X013820Y006450D01*
X013820Y006570D01*
X013880Y006630D01*
X014120Y006390D01*
X014180Y006450D01*
X014180Y006570D01*
X014120Y006630D01*
X013880Y006630D01*
X013940Y006758D02*
X014120Y006758D01*
X014180Y006818D01*
X014180Y006998D01*
X013940Y006998D01*
X014000Y007127D02*
X014000Y007247D01*
X013820Y007127D02*
X013820Y007367D01*
X013820Y007127D02*
X014180Y007127D01*
X014120Y006390D02*
X013880Y006390D01*
X013820Y005773D02*
X013940Y005653D01*
X015270Y004464D02*
X015270Y004224D01*
X015630Y004224D01*
X015630Y004096D02*
X015390Y004096D01*
X015450Y004224D02*
X015450Y004344D01*
X015630Y004096D02*
X015630Y003916D01*
X015570Y003856D01*
X015390Y003856D01*
X015630Y003728D02*
X015630Y003487D01*
X015630Y003608D02*
X015270Y003608D01*
X015390Y003487D01*
X015570Y003363D02*
X015630Y003363D01*
X015630Y003303D01*
X015570Y003303D01*
X015570Y003363D01*
X015570Y002564D02*
X015750Y002564D01*
X015810Y002504D01*
X015810Y002383D01*
X015750Y002323D01*
X015570Y002323D01*
X015570Y002203D02*
X015570Y002564D01*
X015938Y002564D02*
X016058Y002564D01*
X015998Y002564D02*
X015998Y002203D01*
X015938Y002203D02*
X016058Y002203D01*
X016184Y002203D02*
X016184Y002564D01*
X016424Y002203D01*
X016424Y002564D01*
X016970Y002602D02*
X016970Y002482D01*
X017030Y002422D01*
X016970Y002602D02*
X017030Y002662D01*
X017090Y002662D01*
X017330Y002422D01*
X017330Y002662D01*
X017330Y002294D02*
X017330Y002053D01*
X017330Y002173D02*
X016970Y002173D01*
X017090Y002053D01*
X017970Y002173D02*
X018090Y002053D01*
X017970Y002173D02*
X018330Y002173D01*
X018330Y002053D02*
X018330Y002294D01*
X018270Y002422D02*
X018330Y002482D01*
X018330Y002602D01*
X018270Y002662D01*
X018210Y002662D01*
X018150Y002602D01*
X018150Y002542D01*
X018150Y002602D02*
X018090Y002662D01*
X018030Y002662D01*
X017970Y002602D01*
X017970Y002482D01*
X018030Y002422D01*
X018970Y002602D02*
X019150Y002422D01*
X019150Y002662D01*
X019330Y002602D02*
X018970Y002602D01*
X018970Y002173D02*
X019330Y002173D01*
X019330Y002053D02*
X019330Y002294D01*
X019090Y002053D02*
X018970Y002173D01*
X019970Y002173D02*
X020090Y002053D01*
X019970Y002173D02*
X020330Y002173D01*
X020330Y002053D02*
X020330Y002294D01*
X020270Y002422D02*
X020330Y002482D01*
X020330Y002602D01*
X020270Y002662D01*
X020150Y002662D01*
X020090Y002602D01*
X020090Y002542D01*
X020150Y002422D01*
X019970Y002422D01*
X019970Y002662D01*
X020970Y002662D02*
X021030Y002542D01*
X021150Y002422D01*
X021150Y002602D01*
X021210Y002662D01*
X021270Y002662D01*
X021330Y002602D01*
X021330Y002482D01*
X021270Y002422D01*
X021150Y002422D01*
X021330Y002294D02*
X021330Y002053D01*
X021330Y002173D02*
X020970Y002173D01*
X021090Y002053D01*
X021970Y002173D02*
X022090Y002053D01*
X021970Y002173D02*
X022330Y002173D01*
X022330Y002053D02*
X022330Y002294D01*
X022330Y002422D02*
X022270Y002422D01*
X022030Y002662D01*
X021970Y002662D01*
X021970Y002422D01*
X022970Y002482D02*
X023030Y002422D01*
X023090Y002422D01*
X023150Y002482D01*
X023150Y002602D01*
X023210Y002662D01*
X023270Y002662D01*
X023330Y002602D01*
X023330Y002482D01*
X023270Y002422D01*
X023210Y002422D01*
X023150Y002482D01*
X023150Y002602D02*
X023090Y002662D01*
X023030Y002662D01*
X022970Y002602D01*
X022970Y002482D01*
X022970Y002173D02*
X023330Y002173D01*
X023330Y002053D02*
X023330Y002294D01*
X023090Y002053D02*
X022970Y002173D01*
X023970Y002173D02*
X024090Y002053D01*
X023970Y002173D02*
X024330Y002173D01*
X024330Y002053D02*
X024330Y002294D01*
X024270Y002422D02*
X024330Y002482D01*
X024330Y002602D01*
X024270Y002662D01*
X024030Y002662D01*
X023970Y002602D01*
X023970Y002482D01*
X024030Y002422D01*
X024090Y002422D01*
X024150Y002482D01*
X024150Y002662D01*
X024970Y002602D02*
X025030Y002662D01*
X025270Y002422D01*
X025330Y002482D01*
X025330Y002602D01*
X025270Y002662D01*
X025030Y002662D01*
X024970Y002602D02*
X024970Y002482D01*
X025030Y002422D01*
X025270Y002422D01*
X025330Y002294D02*
X025330Y002053D01*
X025090Y002294D01*
X025030Y002294D01*
X024970Y002233D01*
X024970Y002113D01*
X025030Y002053D01*
X025970Y002113D02*
X026030Y002053D01*
X025970Y002113D02*
X025970Y002233D01*
X026030Y002294D01*
X026090Y002294D01*
X026330Y002053D01*
X026330Y002294D01*
X026330Y002422D02*
X026330Y002662D01*
X026330Y002542D02*
X025970Y002542D01*
X026090Y002422D01*
X026970Y002482D02*
X027030Y002422D01*
X026970Y002482D02*
X026970Y002602D01*
X027030Y002662D01*
X027090Y002662D01*
X027330Y002422D01*
X027330Y002662D01*
X027330Y002294D02*
X027330Y002053D01*
X027090Y002294D01*
X027030Y002294D01*
X026970Y002233D01*
X026970Y002113D01*
X027030Y002053D01*
X027970Y002113D02*
X028030Y002053D01*
X027970Y002113D02*
X027970Y002233D01*
X028030Y002294D01*
X028090Y002294D01*
X028330Y002053D01*
X028330Y002294D01*
X028270Y002422D02*
X028330Y002482D01*
X028330Y002602D01*
X028270Y002662D01*
X028210Y002662D01*
X028150Y002602D01*
X028150Y002542D01*
X028150Y002602D02*
X028090Y002662D01*
X028030Y002662D01*
X027970Y002602D01*
X027970Y002482D01*
X028030Y002422D01*
X028820Y002463D02*
X028880Y002403D01*
X029000Y002403D01*
X029060Y002463D01*
X029060Y002583D01*
X029000Y002644D01*
X028940Y002644D01*
X028820Y002583D01*
X028820Y002764D01*
X029060Y002764D01*
X029188Y002764D02*
X029188Y002523D01*
X029308Y002403D01*
X029429Y002523D01*
X029429Y002764D01*
X029429Y003253D02*
X029429Y003614D01*
X029557Y003614D02*
X029737Y003614D01*
X029797Y003554D01*
X029797Y003313D01*
X029737Y003253D01*
X029557Y003253D01*
X029557Y003614D01*
X029188Y003614D02*
X029188Y003253D01*
X029060Y003313D02*
X029000Y003253D01*
X028880Y003253D01*
X028820Y003313D01*
X028820Y003554D01*
X028880Y003614D01*
X029000Y003614D01*
X029060Y003554D01*
X029060Y003433D02*
X028940Y003433D01*
X029060Y003433D02*
X029060Y003313D01*
X029188Y003614D02*
X029429Y003253D01*
X029925Y002764D02*
X030105Y002764D01*
X030165Y002704D01*
X030165Y002583D01*
X030105Y002523D01*
X029925Y002523D01*
X029925Y002403D02*
X029925Y002764D01*
X030045Y002523D02*
X030165Y002403D01*
X030293Y002463D02*
X030353Y002403D01*
X030473Y002403D01*
X030533Y002463D01*
X030293Y002463D02*
X030293Y002704D01*
X030353Y002764D01*
X030473Y002764D01*
X030533Y002704D01*
X031030Y002704D02*
X031030Y002644D01*
X031090Y002583D01*
X031210Y002583D01*
X031270Y002523D01*
X031270Y002463D01*
X031210Y002403D01*
X031090Y002403D01*
X031030Y002463D01*
X031030Y002704D02*
X031090Y002764D01*
X031210Y002764D01*
X031270Y002704D01*
X031398Y002583D02*
X031398Y002463D01*
X031458Y002403D01*
X031578Y002403D01*
X031638Y002523D02*
X031398Y002523D01*
X031398Y002583D02*
X031458Y002644D01*
X031578Y002644D01*
X031638Y002583D01*
X031638Y002523D01*
X031767Y002523D02*
X031887Y002644D01*
X031947Y002644D01*
X032073Y002644D02*
X032194Y002403D01*
X032314Y002644D01*
X032442Y002583D02*
X032442Y002463D01*
X032502Y002403D01*
X032622Y002403D01*
X032682Y002463D01*
X032682Y002583D01*
X032622Y002644D01*
X032502Y002644D01*
X032442Y002583D01*
X032810Y002403D02*
X033050Y002764D01*
X033178Y002704D02*
X033178Y002463D01*
X033238Y002403D01*
X033359Y002403D01*
X033419Y002463D01*
X033419Y002583D01*
X033298Y002583D01*
X033178Y002704D02*
X033238Y002764D01*
X033359Y002764D01*
X033419Y002704D01*
X033547Y002764D02*
X033727Y002764D01*
X033787Y002704D01*
X033787Y002583D01*
X033727Y002523D01*
X033547Y002523D01*
X033547Y002403D02*
X033547Y002764D01*
X033441Y003003D02*
X033441Y003364D01*
X033681Y003364D01*
X033561Y003183D02*
X033441Y003183D01*
X033313Y003244D02*
X033313Y003003D01*
X033133Y003003D01*
X033072Y003063D01*
X033072Y003244D01*
X032944Y003003D02*
X032704Y003003D01*
X032824Y003003D02*
X032824Y003364D01*
X032704Y003244D01*
X032580Y003063D02*
X032580Y003003D01*
X032520Y003003D01*
X032520Y003063D01*
X032580Y003063D01*
X031767Y002644D02*
X031767Y002403D01*
X031087Y003303D02*
X031147Y003363D01*
X031147Y003604D01*
X031087Y003664D01*
X030907Y003664D01*
X030907Y003303D01*
X031087Y003303D01*
X030779Y003303D02*
X030779Y003664D01*
X030538Y003664D02*
X030779Y003303D01*
X030538Y003303D02*
X030538Y003664D01*
X030410Y003604D02*
X030350Y003664D01*
X030230Y003664D01*
X030170Y003604D01*
X030170Y003363D01*
X030230Y003303D01*
X030350Y003303D01*
X030410Y003363D01*
X030410Y003483D01*
X030290Y003483D01*
X029627Y004203D02*
X029747Y004323D01*
X029747Y004564D01*
X029507Y004564D02*
X029507Y004323D01*
X029627Y004203D01*
X029379Y004263D02*
X029318Y004203D01*
X029198Y004203D01*
X029138Y004263D01*
X029138Y004383D02*
X029258Y004444D01*
X029318Y004444D01*
X029379Y004383D01*
X029379Y004263D01*
X029138Y004383D02*
X029138Y004564D01*
X029379Y004564D01*
X029010Y004383D02*
X028770Y004383D01*
X028890Y004263D02*
X028890Y004504D01*
X028880Y005253D02*
X028820Y005313D01*
X028880Y005253D02*
X029000Y005253D01*
X029060Y005313D01*
X029060Y005373D01*
X029000Y005433D01*
X028880Y005433D01*
X028820Y005494D01*
X028820Y005554D01*
X028880Y005614D01*
X029000Y005614D01*
X029060Y005554D01*
X029188Y005494D02*
X029248Y005494D01*
X029248Y005253D01*
X029188Y005253D02*
X029308Y005253D01*
X029434Y005313D02*
X029494Y005253D01*
X029674Y005253D01*
X029674Y005193D02*
X029674Y005494D01*
X029494Y005494D01*
X029434Y005433D01*
X029434Y005313D01*
X029554Y005133D02*
X029614Y005133D01*
X029674Y005193D01*
X029248Y005614D02*
X029248Y005674D01*
X028280Y006103D02*
X027920Y006103D01*
X027920Y006283D01*
X027980Y006344D01*
X028100Y006344D01*
X028160Y006283D01*
X028160Y006103D01*
X028280Y006472D02*
X028280Y006592D01*
X028280Y006532D02*
X027920Y006532D01*
X027920Y006472D02*
X027920Y006592D01*
X027920Y006717D02*
X028280Y006957D01*
X027920Y006957D01*
X027980Y007086D02*
X027920Y007146D01*
X027920Y007266D01*
X027980Y007326D01*
X028040Y007326D01*
X028280Y007086D01*
X028280Y007326D01*
X028220Y007454D02*
X028280Y007514D01*
X028280Y007634D01*
X028220Y007694D01*
X028160Y007694D01*
X028100Y007634D01*
X028100Y007574D01*
X028100Y007634D02*
X028040Y007694D01*
X027980Y007694D01*
X027920Y007634D01*
X027920Y007514D01*
X027980Y007454D01*
X027280Y007454D02*
X027040Y007694D01*
X026980Y007694D01*
X026920Y007634D01*
X026920Y007514D01*
X026980Y007454D01*
X026980Y007326D02*
X026920Y007266D01*
X026920Y007146D01*
X026980Y007086D01*
X026920Y006957D02*
X027280Y006957D01*
X026920Y006717D01*
X027280Y006717D01*
X027280Y006592D02*
X027280Y006472D01*
X027280Y006532D02*
X026920Y006532D01*
X026920Y006472D02*
X026920Y006592D01*
X026980Y006344D02*
X027100Y006344D01*
X027160Y006283D01*
X027160Y006103D01*
X027280Y006103D02*
X026920Y006103D01*
X026920Y006283D01*
X026980Y006344D01*
X026280Y006472D02*
X026280Y006592D01*
X026280Y006532D02*
X025920Y006532D01*
X025920Y006472D02*
X025920Y006592D01*
X025920Y006717D02*
X026280Y006957D01*
X025920Y006957D01*
X025980Y007086D02*
X025920Y007146D01*
X025920Y007266D01*
X025980Y007326D01*
X026040Y007326D01*
X026280Y007086D01*
X026280Y007326D01*
X026280Y007454D02*
X026280Y007694D01*
X026280Y007574D02*
X025920Y007574D01*
X026040Y007454D01*
X025920Y006717D02*
X026280Y006717D01*
X026100Y006344D02*
X026160Y006283D01*
X026160Y006103D01*
X026280Y006103D02*
X025920Y006103D01*
X025920Y006283D01*
X025980Y006344D01*
X026100Y006344D01*
X025280Y006472D02*
X025280Y006592D01*
X025280Y006532D02*
X024920Y006532D01*
X024920Y006472D02*
X024920Y006592D01*
X024920Y006717D02*
X025280Y006957D01*
X024920Y006957D01*
X024980Y007086D02*
X024920Y007146D01*
X024920Y007266D01*
X024980Y007326D01*
X025040Y007326D01*
X025280Y007086D01*
X025280Y007326D01*
X025220Y007454D02*
X024980Y007694D01*
X025220Y007694D01*
X025280Y007634D01*
X025280Y007514D01*
X025220Y007454D01*
X024980Y007454D01*
X024920Y007514D01*
X024920Y007634D01*
X024980Y007694D01*
X024280Y007634D02*
X024220Y007694D01*
X023980Y007694D01*
X023920Y007634D01*
X023920Y007514D01*
X023980Y007454D01*
X024040Y007454D01*
X024100Y007514D01*
X024100Y007694D01*
X024280Y007634D02*
X024280Y007514D01*
X024220Y007454D01*
X024280Y007326D02*
X024280Y007086D01*
X024280Y007206D02*
X023920Y007206D01*
X024040Y007086D01*
X023920Y006957D02*
X024280Y006957D01*
X023920Y006717D01*
X024280Y006717D01*
X024280Y006592D02*
X024280Y006472D01*
X024280Y006532D02*
X023920Y006532D01*
X023920Y006472D02*
X023920Y006592D01*
X023980Y006344D02*
X024100Y006344D01*
X024160Y006283D01*
X024160Y006103D01*
X024280Y006103D02*
X023920Y006103D01*
X023920Y006283D01*
X023980Y006344D01*
X023280Y006472D02*
X023280Y006592D01*
X023280Y006532D02*
X022920Y006532D01*
X022920Y006472D02*
X022920Y006592D01*
X022920Y006717D02*
X023280Y006957D01*
X022920Y006957D01*
X023040Y007086D02*
X022920Y007206D01*
X023280Y007206D01*
X023280Y007086D02*
X023280Y007326D01*
X023220Y007454D02*
X023160Y007454D01*
X023100Y007514D01*
X023100Y007634D01*
X023160Y007694D01*
X023220Y007694D01*
X023280Y007634D01*
X023280Y007514D01*
X023220Y007454D01*
X023100Y007514D02*
X023040Y007454D01*
X022980Y007454D01*
X022920Y007514D01*
X022920Y007634D01*
X022980Y007694D01*
X023040Y007694D01*
X023100Y007634D01*
X022280Y007454D02*
X022220Y007454D01*
X021980Y007694D01*
X021920Y007694D01*
X021920Y007454D01*
X021920Y007206D02*
X022280Y007206D01*
X022280Y007086D02*
X022280Y007326D01*
X022040Y007086D02*
X021920Y007206D01*
X021920Y006957D02*
X022280Y006957D01*
X021920Y006717D01*
X022280Y006717D01*
X022280Y006592D02*
X022280Y006472D01*
X022280Y006532D02*
X021920Y006532D01*
X021920Y006472D02*
X021920Y006592D01*
X021980Y006344D02*
X022100Y006344D01*
X022160Y006283D01*
X022160Y006103D01*
X022280Y006103D02*
X021920Y006103D01*
X021920Y006283D01*
X021980Y006344D01*
X021280Y006472D02*
X021280Y006592D01*
X021280Y006532D02*
X020920Y006532D01*
X020920Y006472D02*
X020920Y006592D01*
X020920Y006717D02*
X021280Y006957D01*
X020920Y006957D01*
X021040Y007086D02*
X020920Y007206D01*
X021280Y007206D01*
X021280Y007086D02*
X021280Y007326D01*
X021220Y007454D02*
X021280Y007514D01*
X021280Y007634D01*
X021220Y007694D01*
X021160Y007694D01*
X021100Y007634D01*
X021100Y007454D01*
X021220Y007454D01*
X021100Y007454D02*
X020980Y007574D01*
X020920Y007694D01*
X020280Y007634D02*
X020280Y007514D01*
X020220Y007454D01*
X020100Y007454D02*
X020040Y007574D01*
X020040Y007634D01*
X020100Y007694D01*
X020220Y007694D01*
X020280Y007634D01*
X020100Y007454D02*
X019920Y007454D01*
X019920Y007694D01*
X019920Y007206D02*
X020280Y007206D01*
X020280Y007086D02*
X020280Y007326D01*
X020040Y007086D02*
X019920Y007206D01*
X019920Y006957D02*
X020280Y006957D01*
X019920Y006717D01*
X020280Y006717D01*
X020280Y006592D02*
X020280Y006472D01*
X020280Y006532D02*
X019920Y006532D01*
X019920Y006472D02*
X019920Y006592D01*
X019980Y006344D02*
X020100Y006344D01*
X020160Y006283D01*
X020160Y006103D01*
X020280Y006103D02*
X019920Y006103D01*
X019920Y006283D01*
X019980Y006344D01*
X019280Y006472D02*
X019280Y006592D01*
X019280Y006532D02*
X018920Y006532D01*
X018920Y006472D02*
X018920Y006592D01*
X018920Y006717D02*
X019280Y006957D01*
X018920Y006957D01*
X019040Y007086D02*
X018920Y007206D01*
X019280Y007206D01*
X019280Y007086D02*
X019280Y007326D01*
X019100Y007454D02*
X018920Y007634D01*
X019280Y007634D01*
X019100Y007694D02*
X019100Y007454D01*
X019280Y006717D02*
X018920Y006717D01*
X018980Y006344D02*
X018920Y006283D01*
X018920Y006103D01*
X019280Y006103D01*
X019160Y006103D02*
X019160Y006283D01*
X019100Y006344D01*
X018980Y006344D01*
X018280Y006472D02*
X018280Y006592D01*
X018280Y006532D02*
X017920Y006532D01*
X017920Y006472D02*
X017920Y006592D01*
X017920Y006717D02*
X018280Y006957D01*
X017920Y006957D01*
X018040Y007086D02*
X017920Y007206D01*
X018280Y007206D01*
X018280Y007086D02*
X018280Y007326D01*
X018220Y007454D02*
X018280Y007514D01*
X018280Y007634D01*
X018220Y007694D01*
X018160Y007694D01*
X018100Y007634D01*
X018100Y007574D01*
X018100Y007634D02*
X018040Y007694D01*
X017980Y007694D01*
X017920Y007634D01*
X017920Y007514D01*
X017980Y007454D01*
X017280Y007454D02*
X017040Y007694D01*
X016980Y007694D01*
X016920Y007634D01*
X016920Y007514D01*
X016980Y007454D01*
X016920Y007206D02*
X017280Y007206D01*
X017280Y007086D02*
X017280Y007326D01*
X017280Y007454D02*
X017280Y007694D01*
X016920Y007206D02*
X017040Y007086D01*
X016920Y006957D02*
X017280Y006957D01*
X016920Y006717D01*
X017280Y006717D01*
X017280Y006592D02*
X017280Y006472D01*
X017280Y006532D02*
X016920Y006532D01*
X016920Y006472D02*
X016920Y006592D01*
X016980Y006344D02*
X017100Y006344D01*
X017160Y006283D01*
X017160Y006103D01*
X017280Y006103D02*
X016920Y006103D01*
X016920Y006283D01*
X016980Y006344D01*
X017920Y006283D02*
X017920Y006103D01*
X018280Y006103D01*
X018160Y006103D02*
X018160Y006283D01*
X018100Y006344D01*
X017980Y006344D01*
X017920Y006283D01*
X017920Y006717D02*
X018280Y006717D01*
X020920Y006717D02*
X021280Y006717D01*
X021100Y006344D02*
X020980Y006344D01*
X020920Y006283D01*
X020920Y006103D01*
X021280Y006103D01*
X021160Y006103D02*
X021160Y006283D01*
X021100Y006344D01*
X022920Y006283D02*
X022920Y006103D01*
X023280Y006103D01*
X023160Y006103D02*
X023160Y006283D01*
X023100Y006344D01*
X022980Y006344D01*
X022920Y006283D01*
X022920Y006717D02*
X023280Y006717D01*
X024920Y006717D02*
X025280Y006717D01*
X025100Y006344D02*
X025160Y006283D01*
X025160Y006103D01*
X025280Y006103D02*
X024920Y006103D01*
X024920Y006283D01*
X024980Y006344D01*
X025100Y006344D01*
X026980Y007326D02*
X027040Y007326D01*
X027280Y007086D01*
X027280Y007326D01*
X027280Y007454D02*
X027280Y007694D01*
X027920Y006717D02*
X028280Y006717D01*
X028770Y010103D02*
X029077Y010410D01*
X029077Y010487D01*
X029000Y010564D01*
X028847Y010564D01*
X028770Y010487D01*
X028770Y010103D02*
X029077Y010103D01*
X029230Y010180D02*
X029230Y010257D01*
X029307Y010334D01*
X029461Y010334D01*
X029537Y010257D01*
X029537Y010180D01*
X029461Y010103D01*
X029307Y010103D01*
X029230Y010180D01*
X029307Y010334D02*
X029230Y010410D01*
X029230Y010487D01*
X029307Y010564D01*
X029461Y010564D01*
X029537Y010487D01*
X029537Y010410D01*
X029461Y010334D01*
X029082Y012953D02*
X029159Y013030D01*
X029159Y013337D01*
X029082Y013414D01*
X028852Y013414D01*
X028852Y012953D01*
X029082Y012953D01*
X028699Y013030D02*
X028622Y012953D01*
X028468Y012953D01*
X028392Y013030D01*
X028238Y013030D02*
X028238Y013184D01*
X028162Y013260D01*
X028008Y013260D01*
X027931Y013184D01*
X027931Y013030D01*
X028008Y012953D01*
X028162Y012953D01*
X028238Y013030D01*
X028392Y013260D02*
X028468Y013184D01*
X028622Y013184D01*
X028699Y013107D01*
X028699Y013030D01*
X028699Y013337D02*
X028622Y013414D01*
X028468Y013414D01*
X028392Y013337D01*
X028392Y013260D01*
X027778Y013260D02*
X027701Y013260D01*
X027548Y013107D01*
X027548Y013260D02*
X027548Y012953D01*
X027394Y012953D02*
X027164Y012953D01*
X027087Y013030D01*
X027087Y013184D01*
X027164Y013260D01*
X027394Y013260D01*
X026857Y013260D02*
X026857Y012953D01*
X026780Y012953D02*
X026934Y012953D01*
X026627Y012953D02*
X026627Y013184D01*
X026550Y013260D01*
X026473Y013184D01*
X026473Y012953D01*
X026320Y012953D02*
X026320Y013260D01*
X026397Y013260D01*
X026473Y013184D01*
X026780Y013260D02*
X026857Y013260D01*
X026857Y013414D02*
X026857Y013490D01*
X028120Y014503D02*
X028180Y014503D01*
X028180Y014563D01*
X028120Y014563D01*
X028120Y014503D01*
X028304Y014503D02*
X028544Y014503D01*
X028424Y014503D02*
X028424Y014864D01*
X028304Y014744D01*
X028672Y014744D02*
X028672Y014563D01*
X028733Y014503D01*
X028913Y014503D01*
X028913Y014744D01*
X029041Y014683D02*
X029161Y014683D01*
X029041Y014503D02*
X029041Y014864D01*
X029281Y014864D01*
X029307Y017453D02*
X029230Y017530D01*
X029307Y017453D02*
X029461Y017453D01*
X029537Y017530D01*
X029537Y017837D01*
X029461Y017914D01*
X029307Y017914D01*
X029230Y017837D01*
X029230Y017760D01*
X029307Y017684D01*
X029537Y017684D01*
X029077Y017760D02*
X029077Y017837D01*
X029000Y017914D01*
X028847Y017914D01*
X028770Y017837D01*
X029077Y017760D02*
X028770Y017453D01*
X029077Y017453D01*
X027770Y019603D02*
X027830Y019663D01*
X027830Y019723D01*
X027770Y019783D01*
X027650Y019783D01*
X027590Y019843D01*
X027590Y019903D01*
X027650Y019963D01*
X027770Y019963D01*
X027830Y019903D01*
X027770Y019603D02*
X027650Y019603D01*
X027590Y019663D01*
X027462Y019603D02*
X027342Y019603D01*
X027402Y019603D02*
X027402Y019963D01*
X027462Y019963D02*
X027342Y019963D01*
X027216Y019903D02*
X027156Y019963D01*
X027036Y019963D01*
X026976Y019903D01*
X026976Y019783D01*
X027096Y019783D01*
X026976Y019663D02*
X027036Y019603D01*
X027156Y019603D01*
X027216Y019663D01*
X027216Y019903D01*
X027970Y020703D02*
X027970Y020763D01*
X028030Y020763D01*
X028030Y020703D01*
X027970Y020703D01*
X028030Y020887D02*
X028030Y021128D01*
X028030Y021008D02*
X027670Y021008D01*
X027790Y020887D01*
X027790Y021256D02*
X027970Y021256D01*
X028030Y021316D01*
X028030Y021496D01*
X027790Y021496D01*
X027850Y021624D02*
X027850Y021744D01*
X028030Y021624D02*
X027670Y021624D01*
X027670Y021864D01*
X026510Y023010D02*
X026256Y023265D01*
X026256Y023010D01*
X026425Y023180D01*
X026292Y022792D02*
X026123Y022622D01*
X026207Y022707D02*
X025953Y022962D01*
X025953Y022792D01*
X025862Y022701D02*
X026032Y022531D01*
X025905Y022659D02*
X025735Y022489D01*
X025692Y022531D02*
X025692Y022701D01*
X025862Y022701D01*
X025692Y022531D02*
X025862Y022362D01*
X025425Y022925D02*
X025341Y022925D01*
X025425Y022925D02*
X025510Y023010D01*
X025510Y023095D01*
X025468Y023137D01*
X025383Y023137D01*
X025341Y023095D01*
X025383Y023137D02*
X025383Y023222D01*
X025341Y023265D01*
X025256Y023265D01*
X025171Y023180D01*
X025171Y023095D01*
X024953Y022962D02*
X025207Y022707D01*
X025123Y022622D02*
X025292Y022792D01*
X024953Y022792D02*
X024953Y022962D01*
X024862Y022701D02*
X024692Y022701D01*
X024692Y022531D01*
X024862Y022362D01*
X024735Y022489D02*
X024905Y022659D01*
X024862Y022701D02*
X025032Y022531D01*
X024553Y023052D02*
X024383Y022882D01*
X024383Y023222D01*
X024341Y023265D01*
X024256Y023265D01*
X024171Y023180D01*
X024171Y023095D01*
X023953Y022962D02*
X024207Y022707D01*
X024123Y022622D02*
X024292Y022792D01*
X023953Y022792D02*
X023953Y022962D01*
X023862Y022701D02*
X024032Y022531D01*
X023905Y022659D02*
X023735Y022489D01*
X023692Y022531D02*
X023692Y022701D01*
X023862Y022701D01*
X023692Y022531D02*
X023862Y022362D01*
X023383Y022882D02*
X023553Y023052D01*
X023468Y022967D02*
X023213Y023222D01*
X023213Y023052D01*
X023292Y022792D02*
X023123Y022622D01*
X023207Y022707D02*
X022953Y022962D01*
X022953Y022792D01*
X022862Y022701D02*
X023032Y022531D01*
X022905Y022659D02*
X022735Y022489D01*
X022692Y022531D02*
X022692Y022701D01*
X022862Y022701D01*
X022692Y022531D02*
X022862Y022362D01*
X022413Y022896D02*
X022328Y022896D01*
X022328Y023235D01*
X022498Y023066D01*
X022498Y022981D01*
X022413Y022896D01*
X022328Y022896D02*
X022159Y023066D01*
X022159Y023150D01*
X022243Y023235D01*
X022328Y023235D01*
X022280Y022763D02*
X022110Y022593D01*
X022195Y022678D02*
X021941Y022932D01*
X021941Y022763D01*
X021850Y022672D02*
X021680Y022672D01*
X021680Y022502D01*
X021850Y022332D01*
X021723Y022460D02*
X021892Y022630D01*
X021850Y022672D02*
X022020Y022502D01*
X021255Y022463D02*
X021255Y022704D01*
X021195Y022764D01*
X021075Y022764D01*
X021015Y022704D01*
X021015Y022463D01*
X021075Y022403D01*
X021195Y022403D01*
X021255Y022463D01*
X020890Y022403D02*
X020769Y022403D01*
X020830Y022403D02*
X020830Y022764D01*
X020890Y022764D02*
X020769Y022764D01*
X020641Y022704D02*
X020641Y022583D01*
X020581Y022523D01*
X020401Y022523D01*
X020401Y022403D02*
X020401Y022764D01*
X020581Y022764D01*
X020641Y022704D01*
X020273Y022704D02*
X020213Y022764D01*
X020093Y022764D01*
X020033Y022704D01*
X020033Y022463D01*
X020093Y022403D01*
X020213Y022403D01*
X020273Y022463D01*
X020273Y022583D01*
X020153Y022583D01*
X019536Y022523D02*
X019536Y022764D01*
X019296Y022764D02*
X019296Y022523D01*
X019416Y022403D01*
X019536Y022523D01*
X019168Y022523D02*
X019168Y022463D01*
X019108Y022403D01*
X018988Y022403D01*
X018928Y022463D01*
X018804Y022463D02*
X018804Y022403D01*
X018744Y022403D01*
X018744Y022463D01*
X018804Y022463D01*
X018616Y022463D02*
X018556Y022403D01*
X018435Y022403D01*
X018375Y022463D01*
X018496Y022583D02*
X018556Y022583D01*
X018616Y022523D01*
X018616Y022463D01*
X018556Y022583D02*
X018616Y022644D01*
X018616Y022704D01*
X018556Y022764D01*
X018435Y022764D01*
X018375Y022704D01*
X018247Y022764D02*
X018007Y022403D01*
X017879Y022403D02*
X017699Y022403D01*
X017639Y022463D01*
X017639Y022583D01*
X017699Y022644D01*
X017879Y022644D01*
X017879Y022343D01*
X017819Y022283D01*
X017759Y022283D01*
X017760Y022164D02*
X017520Y022164D01*
X017520Y021803D01*
X017520Y021983D02*
X017640Y021983D01*
X017888Y022164D02*
X018129Y022164D01*
X018008Y022164D02*
X018008Y021803D01*
X018257Y021803D02*
X018257Y022164D01*
X018437Y022164D01*
X018497Y022104D01*
X018497Y021863D01*
X018437Y021803D01*
X018257Y021803D01*
X018625Y021803D02*
X018745Y021803D01*
X018685Y021803D02*
X018685Y022164D01*
X018625Y022164D02*
X018745Y022164D01*
X019048Y022583D02*
X019108Y022583D01*
X019168Y022523D01*
X019108Y022583D02*
X019168Y022644D01*
X019168Y022704D01*
X019108Y022764D01*
X018988Y022764D01*
X018928Y022704D01*
X019150Y021798D02*
X019330Y021558D01*
X019150Y021430D02*
X019150Y021190D01*
X019330Y021062D02*
X018970Y020822D01*
X018970Y020694D02*
X018970Y020453D01*
X018970Y020573D02*
X019330Y020573D01*
X019330Y020822D02*
X018970Y021062D01*
X018970Y021558D02*
X019150Y021798D01*
X019920Y021430D02*
X020100Y021190D01*
X020280Y021430D01*
X020100Y021558D02*
X020100Y021798D01*
X020280Y021062D02*
X019920Y020822D01*
X019980Y020694D02*
X020100Y020694D01*
X020160Y020633D01*
X020160Y020453D01*
X020280Y020453D02*
X019920Y020453D01*
X019920Y020633D01*
X019980Y020694D01*
X020160Y020573D02*
X020280Y020694D01*
X020280Y020822D02*
X019920Y021062D01*
X017511Y022463D02*
X017511Y022583D01*
X017451Y022644D01*
X017331Y022644D01*
X017270Y022583D01*
X017270Y022463D01*
X017331Y022403D01*
X017451Y022403D01*
X017511Y022463D01*
X017145Y022403D02*
X017025Y022403D01*
X017085Y022403D02*
X017085Y022764D01*
X017025Y022764D01*
X016897Y022583D02*
X016837Y022644D01*
X016717Y022644D01*
X016717Y022523D02*
X016897Y022523D01*
X016897Y022583D02*
X016897Y022403D01*
X016717Y022403D01*
X016657Y022463D01*
X016717Y022523D01*
X016529Y022583D02*
X016529Y022403D01*
X016529Y022583D02*
X016468Y022644D01*
X016288Y022644D01*
X016288Y022403D01*
X016160Y022403D02*
X016160Y022644D01*
X016040Y022764D01*
X015920Y022644D01*
X015920Y022403D01*
X015920Y022583D02*
X016160Y022583D01*
X015280Y022503D02*
X015040Y022503D01*
X014920Y022623D01*
X015040Y022744D01*
X015280Y022744D01*
X015220Y022872D02*
X015280Y022932D01*
X015280Y023052D01*
X015220Y023112D01*
X014980Y023112D01*
X014920Y023052D01*
X014920Y022932D01*
X014980Y022872D01*
X015040Y022872D01*
X015100Y022932D01*
X015100Y023112D01*
X015100Y022744D02*
X015100Y022503D01*
X014280Y022503D02*
X014040Y022503D01*
X013920Y022623D01*
X014040Y022744D01*
X014280Y022744D01*
X014220Y022872D02*
X014160Y022872D01*
X014100Y022932D01*
X014100Y023052D01*
X014160Y023112D01*
X014220Y023112D01*
X014280Y023052D01*
X014280Y022932D01*
X014220Y022872D01*
X014100Y022932D02*
X014040Y022872D01*
X013980Y022872D01*
X013920Y022932D01*
X013920Y023052D01*
X013980Y023112D01*
X014040Y023112D01*
X014100Y023052D01*
X014100Y022744D02*
X014100Y022503D01*
X013280Y022503D02*
X013040Y022503D01*
X012920Y022623D01*
X013040Y022744D01*
X013280Y022744D01*
X013280Y022872D02*
X013220Y022872D01*
X012980Y023112D01*
X012920Y023112D01*
X012920Y022872D01*
X013100Y022744D02*
X013100Y022503D01*
X012280Y022503D02*
X012040Y022503D01*
X011920Y022623D01*
X012040Y022744D01*
X012280Y022744D01*
X012220Y022872D02*
X012280Y022932D01*
X012280Y023052D01*
X012220Y023112D01*
X012160Y023112D01*
X012100Y023052D01*
X012100Y022872D01*
X012220Y022872D01*
X012100Y022872D02*
X011980Y022992D01*
X011920Y023112D01*
X012100Y022744D02*
X012100Y022503D01*
X011280Y022503D02*
X011040Y022503D01*
X010920Y022623D01*
X011040Y022744D01*
X011280Y022744D01*
X011220Y022872D02*
X011280Y022932D01*
X011280Y023052D01*
X011220Y023112D01*
X011100Y023112D01*
X011040Y023052D01*
X011040Y022992D01*
X011100Y022872D01*
X010920Y022872D01*
X010920Y023112D01*
X011100Y022744D02*
X011100Y022503D01*
X010280Y022503D02*
X010040Y022503D01*
X009920Y022623D01*
X010040Y022744D01*
X010280Y022744D01*
X010100Y022744D02*
X010100Y022503D01*
X010100Y022872D02*
X010100Y023112D01*
X010280Y023052D02*
X009920Y023052D01*
X010100Y022872D01*
X009280Y022932D02*
X009220Y022872D01*
X009280Y022932D02*
X009280Y023052D01*
X009220Y023112D01*
X009160Y023112D01*
X009100Y023052D01*
X009100Y022992D01*
X009100Y023052D02*
X009040Y023112D01*
X008980Y023112D01*
X008920Y023052D01*
X008920Y022932D01*
X008980Y022872D01*
X009040Y022744D02*
X009280Y022744D01*
X009100Y022744D02*
X009100Y022503D01*
X009040Y022503D02*
X009280Y022503D01*
X009040Y022503D02*
X008920Y022623D01*
X009040Y022744D01*
X008280Y022744D02*
X008040Y022744D01*
X007920Y022623D01*
X008040Y022503D01*
X008280Y022503D01*
X008100Y022503D02*
X008100Y022744D01*
X007980Y022872D02*
X007920Y022932D01*
X007920Y023052D01*
X007980Y023112D01*
X008040Y023112D01*
X008280Y022872D01*
X008280Y023112D01*
X007280Y023112D02*
X007280Y022872D01*
X007280Y022992D02*
X006920Y022992D01*
X007040Y022872D01*
X007040Y022744D02*
X007280Y022744D01*
X007100Y022744D02*
X007100Y022503D01*
X007040Y022503D02*
X006920Y022623D01*
X007040Y022744D01*
X007040Y022503D02*
X007280Y022503D01*
X006280Y022503D02*
X006040Y022503D01*
X005920Y022623D01*
X006040Y022744D01*
X006280Y022744D01*
X006220Y022872D02*
X005980Y023112D01*
X006220Y023112D01*
X006280Y023052D01*
X006280Y022932D01*
X006220Y022872D01*
X005980Y022872D01*
X005920Y022932D01*
X005920Y023052D01*
X005980Y023112D01*
X006100Y022744D02*
X006100Y022503D01*
X005430Y021953D02*
X005370Y022013D01*
X005250Y022013D01*
X005190Y021953D01*
X005190Y021833D01*
X005310Y021833D01*
X005430Y021713D02*
X005430Y021953D01*
X005430Y021713D02*
X005370Y021653D01*
X005250Y021653D01*
X005190Y021713D01*
X005062Y021653D02*
X004821Y022013D01*
X004821Y021653D01*
X004693Y021653D02*
X004513Y021653D01*
X004453Y021713D01*
X004453Y021953D01*
X004513Y022013D01*
X004693Y022013D01*
X004693Y021653D01*
X005062Y021653D02*
X005062Y022013D01*
X005002Y021013D02*
X004882Y021013D01*
X004821Y020953D01*
X004821Y020893D01*
X004882Y020833D01*
X004942Y020833D01*
X004882Y020833D02*
X004821Y020773D01*
X004821Y020713D01*
X004882Y020653D01*
X005002Y020653D01*
X005062Y020713D01*
X005190Y020833D02*
X005430Y020833D01*
X005310Y020713D02*
X005310Y020953D01*
X005062Y020953D02*
X005002Y021013D01*
X004693Y020893D02*
X004573Y021013D01*
X004453Y020893D01*
X004453Y020653D01*
X004325Y020713D02*
X004265Y020653D01*
X004145Y020653D01*
X004085Y020713D01*
X004085Y020773D01*
X004145Y020833D01*
X004085Y020893D01*
X004085Y020953D01*
X004145Y021013D01*
X004265Y021013D01*
X004325Y020953D01*
X004205Y020833D02*
X004145Y020833D01*
X004693Y020893D02*
X004693Y020653D01*
X004636Y020013D02*
X004576Y019953D01*
X004576Y019833D01*
X004696Y019833D01*
X004576Y019713D02*
X004636Y019653D01*
X004756Y019653D01*
X004816Y019713D01*
X004816Y019953D01*
X004756Y020013D01*
X004636Y020013D01*
X004942Y020013D02*
X005062Y020013D01*
X005002Y020013D02*
X005002Y019653D01*
X005062Y019653D02*
X004942Y019653D01*
X005190Y019713D02*
X005250Y019653D01*
X005370Y019653D01*
X005430Y019713D01*
X005430Y019773D01*
X005370Y019833D01*
X005250Y019833D01*
X005190Y019893D01*
X005190Y019953D01*
X005250Y020013D01*
X005370Y020013D01*
X005430Y019953D01*
X002537Y018137D02*
X002230Y017830D01*
X002307Y017753D01*
X002461Y017753D01*
X002537Y017830D01*
X002537Y018137D01*
X002461Y018214D01*
X002307Y018214D01*
X002230Y018137D01*
X002230Y017830D01*
X002127Y017914D02*
X001820Y017914D01*
X001820Y017684D01*
X001973Y017760D01*
X002050Y017760D01*
X002127Y017684D01*
X002127Y017530D01*
X002050Y017453D01*
X001897Y017453D01*
X001820Y017530D01*
X002000Y017753D02*
X002000Y018214D01*
X001770Y017984D01*
X002077Y017984D01*
X002280Y017684D02*
X002434Y017837D01*
X002587Y017914D01*
X002511Y017684D02*
X002280Y017684D01*
X002280Y017530D01*
X002357Y017453D01*
X002511Y017453D01*
X002587Y017530D01*
X002587Y017607D01*
X002511Y017684D01*
X002627Y014414D02*
X002627Y014030D01*
X002550Y013953D01*
X002397Y013953D01*
X002320Y014030D01*
X002320Y014414D01*
X002780Y014337D02*
X002780Y014260D01*
X002857Y014184D01*
X003011Y014184D01*
X003087Y014107D01*
X003087Y014030D01*
X003011Y013953D01*
X002857Y013953D01*
X002780Y014030D01*
X002780Y014337D02*
X002857Y014414D01*
X003011Y014414D01*
X003087Y014337D01*
X003241Y014414D02*
X003471Y014414D01*
X003548Y014337D01*
X003548Y014260D01*
X003471Y014184D01*
X003241Y014184D01*
X003241Y014414D02*
X003241Y013953D01*
X003471Y013953D01*
X003548Y014030D01*
X003548Y014107D01*
X003471Y014184D01*
X002273Y010814D02*
X002273Y010353D01*
X002120Y010353D02*
X002427Y010353D01*
X002123Y010314D02*
X001970Y010160D01*
X002123Y010314D02*
X002123Y009853D01*
X001970Y009853D02*
X002277Y009853D01*
X002120Y010660D02*
X002273Y010814D01*
X008870Y008404D02*
X008870Y008163D01*
X008930Y008103D01*
X009050Y008103D01*
X009110Y008163D01*
X009110Y008404D01*
X009050Y008464D01*
X008930Y008464D01*
X008870Y008404D01*
X009238Y008464D02*
X009238Y008103D01*
X009238Y008223D02*
X009479Y008464D01*
X009607Y008464D02*
X009727Y008464D01*
X009667Y008464D02*
X009667Y008103D01*
X009607Y008103D02*
X009727Y008103D01*
X009852Y008283D02*
X010092Y008283D01*
X010220Y008163D02*
X010220Y008103D01*
X010220Y008163D02*
X010461Y008404D01*
X010461Y008464D01*
X010220Y008464D01*
X010589Y008404D02*
X010589Y008344D01*
X010649Y008283D01*
X010769Y008283D01*
X010829Y008223D01*
X010829Y008163D01*
X010769Y008103D01*
X010649Y008103D01*
X010589Y008163D01*
X010589Y008223D01*
X010649Y008283D01*
X010769Y008283D02*
X010829Y008344D01*
X010829Y008404D01*
X010769Y008464D01*
X010649Y008464D01*
X010589Y008404D01*
X010957Y008404D02*
X010957Y008344D01*
X011017Y008283D01*
X011137Y008283D01*
X011197Y008223D01*
X011197Y008163D01*
X011137Y008103D01*
X011017Y008103D01*
X010957Y008163D01*
X010957Y008404D02*
X011017Y008464D01*
X011137Y008464D01*
X011197Y008404D01*
X011325Y008464D02*
X011506Y008464D01*
X011566Y008404D01*
X011566Y008283D01*
X011506Y008223D01*
X011325Y008223D01*
X011325Y008103D02*
X011325Y008464D01*
X011446Y008223D02*
X011566Y008103D01*
X011694Y008283D02*
X011934Y008283D01*
X012062Y008283D02*
X012182Y008344D01*
X012242Y008344D01*
X012302Y008283D01*
X012302Y008163D01*
X012242Y008103D01*
X012122Y008103D01*
X012062Y008163D01*
X012062Y008283D02*
X012062Y008464D01*
X012302Y008464D01*
X009479Y008103D02*
X009298Y008283D01*
X010990Y003364D02*
X010990Y003003D01*
X010870Y003003D02*
X011110Y003003D01*
X011238Y003003D02*
X011479Y003244D01*
X011479Y003304D01*
X011418Y003364D01*
X011298Y003364D01*
X011238Y003304D01*
X010990Y003364D02*
X010870Y003244D01*
X011238Y003003D02*
X011479Y003003D01*
X011607Y003123D02*
X011607Y003364D01*
X011847Y003364D02*
X011847Y003123D01*
X011727Y003003D01*
X011607Y003123D01*
X012470Y003063D02*
X012530Y003003D01*
X012650Y003003D01*
X012710Y003063D01*
X012710Y003183D01*
X012650Y003244D01*
X012590Y003244D01*
X012470Y003183D01*
X012470Y003364D01*
X012710Y003364D01*
X012838Y003364D02*
X012838Y003123D01*
X012958Y003003D01*
X013079Y003123D01*
X013079Y003364D01*
X020770Y009853D02*
X021077Y010160D01*
X021077Y010237D01*
X021000Y010314D01*
X020847Y010314D01*
X020770Y010237D01*
X020770Y009853D02*
X021077Y009853D01*
X021230Y009930D02*
X021307Y009853D01*
X021461Y009853D01*
X021537Y009930D01*
X021537Y010237D01*
X021230Y009930D01*
X021230Y010237D01*
X021307Y010314D01*
X021461Y010314D01*
X021537Y010237D01*
X021537Y017753D02*
X021230Y017753D01*
X021077Y017753D02*
X020770Y017753D01*
X021077Y018060D01*
X021077Y018137D01*
X021000Y018214D01*
X020847Y018214D01*
X020770Y018137D01*
X021230Y018060D02*
X021384Y018214D01*
X021384Y017753D01*
X016330Y020563D02*
X016330Y020683D01*
X016270Y020744D01*
X016150Y020744D01*
X016150Y020623D01*
X016270Y020503D02*
X016330Y020563D01*
X016270Y020503D02*
X016030Y020503D01*
X015970Y020563D01*
X015970Y020683D01*
X016030Y020744D01*
X015970Y020872D02*
X016330Y021112D01*
X015970Y021112D01*
X015970Y021240D02*
X015970Y021420D01*
X016030Y021480D01*
X016270Y021480D01*
X016330Y021420D01*
X016330Y021240D01*
X015970Y021240D01*
X015970Y020872D02*
X016330Y020872D01*
X033170Y019258D02*
X033170Y019018D01*
X033530Y019018D01*
X033530Y019258D01*
X033350Y019138D02*
X033350Y019018D01*
X033530Y018890D02*
X033170Y018890D01*
X033170Y018650D02*
X033530Y018890D01*
X033530Y018650D02*
X033170Y018650D01*
X033230Y018522D02*
X033470Y018282D01*
X033530Y018342D01*
X033530Y018462D01*
X033470Y018522D01*
X033230Y018522D01*
X033170Y018462D01*
X033170Y018342D01*
X033230Y018282D01*
X033470Y018282D01*
X033530Y018153D02*
X033530Y017913D01*
X033530Y018033D02*
X033170Y018033D01*
X033290Y017913D01*
X033350Y017785D02*
X033350Y017545D01*
X033170Y017725D01*
X033530Y017725D01*
X033350Y017417D02*
X033350Y017177D01*
X033170Y017357D01*
X033530Y017357D01*
X033470Y017048D02*
X033350Y017048D01*
X033290Y016988D01*
X033290Y016928D01*
X033350Y016808D01*
X033170Y016808D01*
X033170Y017048D01*
X033470Y017048D02*
X033530Y016988D01*
X033530Y016868D01*
X033470Y016808D01*
X033230Y016680D02*
X033470Y016440D01*
X033530Y016440D01*
X033530Y016312D02*
X033170Y016312D01*
X033170Y016440D02*
X033170Y016680D01*
X033230Y016680D01*
X033530Y016312D02*
X033170Y016072D01*
X033530Y016072D01*
X033470Y015944D02*
X033530Y015883D01*
X033530Y015763D01*
X033470Y015703D01*
X033350Y015763D02*
X033350Y015883D01*
X033410Y015944D01*
X033470Y015944D01*
X033350Y015763D02*
X033290Y015703D01*
X033230Y015703D01*
X033170Y015763D01*
X033170Y015883D01*
X033230Y015944D01*
X035470Y013267D02*
X035470Y013027D01*
X035830Y013027D01*
X035830Y012898D02*
X035590Y012898D01*
X035650Y013027D02*
X035650Y013147D01*
X035830Y012898D02*
X035830Y012718D01*
X035770Y012658D01*
X035590Y012658D01*
X035530Y012530D02*
X035770Y012290D01*
X035830Y012350D01*
X035830Y012470D01*
X035770Y012530D01*
X035530Y012530D01*
X035470Y012470D01*
X035470Y012350D01*
X035530Y012290D01*
X035770Y012290D01*
X035770Y012162D02*
X035830Y012102D01*
X035830Y011982D01*
X035770Y011922D01*
X035530Y012162D01*
X035770Y012162D01*
X035530Y012162D02*
X035470Y012102D01*
X035470Y011982D01*
X035530Y011922D01*
X035770Y011922D01*
X035830Y011794D02*
X035830Y011553D01*
X035830Y011673D02*
X035470Y011673D01*
X035590Y011553D01*
X036274Y009864D02*
X036154Y009744D01*
X036274Y009864D02*
X036274Y009503D01*
X036154Y009503D02*
X036394Y009503D01*
X036522Y009563D02*
X036583Y009503D01*
X036763Y009503D01*
X036763Y009744D01*
X036891Y009683D02*
X037011Y009683D01*
X036891Y009503D02*
X036891Y009864D01*
X037131Y009864D01*
X037520Y009470D02*
X037520Y009290D01*
X037880Y009290D01*
X037880Y009470D01*
X037820Y009530D01*
X037580Y009530D01*
X037520Y009470D01*
X037520Y009162D02*
X037880Y009162D01*
X037520Y008922D01*
X037880Y008922D01*
X037820Y008794D02*
X037700Y008794D01*
X037700Y008673D01*
X037820Y008553D02*
X037880Y008613D01*
X037880Y008733D01*
X037820Y008794D01*
X037580Y008794D02*
X037520Y008733D01*
X037520Y008613D01*
X037580Y008553D01*
X037820Y008553D01*
X037131Y008364D02*
X036891Y008364D01*
X036891Y008003D01*
X036763Y008003D02*
X036763Y008244D01*
X036891Y008183D02*
X037011Y008183D01*
X036763Y008003D02*
X036583Y008003D01*
X036522Y008063D01*
X036522Y008244D01*
X036394Y008003D02*
X036154Y008003D01*
X036274Y008003D02*
X036274Y008364D01*
X036154Y008244D01*
X036030Y008063D02*
X036030Y008003D01*
X035970Y008003D01*
X035970Y008063D01*
X036030Y008063D01*
X036274Y006864D02*
X036154Y006744D01*
X036274Y006864D02*
X036274Y006503D01*
X036154Y006503D02*
X036394Y006503D01*
X036522Y006563D02*
X036583Y006503D01*
X036763Y006503D01*
X036763Y006744D01*
X036891Y006683D02*
X037011Y006683D01*
X036891Y006503D02*
X036891Y006864D01*
X037131Y006864D01*
X037520Y006844D02*
X037880Y006844D01*
X037700Y006972D02*
X037700Y007212D01*
X037880Y007152D02*
X037520Y007152D01*
X037700Y006972D01*
X037520Y006844D02*
X037640Y006723D01*
X037520Y006603D01*
X037880Y006603D01*
X036522Y006563D02*
X036522Y006744D01*
X036030Y006563D02*
X036030Y006503D01*
X035970Y006503D01*
X035970Y006563D01*
X036030Y006563D01*
X036274Y005364D02*
X036154Y005244D01*
X036274Y005364D02*
X036274Y005003D01*
X036154Y005003D02*
X036394Y005003D01*
X036522Y005063D02*
X036583Y005003D01*
X036763Y005003D01*
X036763Y005244D01*
X036891Y005183D02*
X037011Y005183D01*
X036891Y005003D02*
X036891Y005364D01*
X037131Y005364D01*
X036522Y005244D02*
X036522Y005063D01*
X036030Y005063D02*
X036030Y005003D01*
X035970Y005003D01*
X035970Y005063D01*
X036030Y005063D01*
X036038Y003664D02*
X036279Y003303D01*
X036279Y003664D01*
X036407Y003664D02*
X036587Y003664D01*
X036647Y003604D01*
X036647Y003363D01*
X036587Y003303D01*
X036407Y003303D01*
X036407Y003664D01*
X036038Y003664D02*
X036038Y003303D01*
X035910Y003363D02*
X035910Y003483D01*
X035790Y003483D01*
X035670Y003363D02*
X035730Y003303D01*
X035850Y003303D01*
X035910Y003363D01*
X035670Y003363D02*
X035670Y003604D01*
X035730Y003664D01*
X035850Y003664D01*
X035910Y003604D01*
X034401Y002704D02*
X034401Y002463D01*
X034341Y002403D01*
X034221Y002403D01*
X034161Y002463D01*
X034161Y002704D01*
X034221Y002764D01*
X034341Y002764D01*
X034401Y002704D01*
X034035Y002764D02*
X033915Y002764D01*
X033975Y002764D02*
X033975Y002403D01*
X033915Y002403D02*
X034035Y002403D01*
X033470Y006703D02*
X033530Y006763D01*
X033530Y006883D01*
X033470Y006944D01*
X033410Y006944D01*
X033350Y006883D01*
X033350Y006763D01*
X033290Y006703D01*
X033230Y006703D01*
X033170Y006763D01*
X033170Y006883D01*
X033230Y006944D01*
X033170Y007072D02*
X033530Y007312D01*
X033170Y007312D01*
X033170Y007440D02*
X033170Y007680D01*
X033230Y007680D01*
X033470Y007440D01*
X033530Y007440D01*
X033530Y007072D02*
X033170Y007072D01*
X033170Y007808D02*
X033350Y007808D01*
X033290Y007928D01*
X033290Y007988D01*
X033350Y008048D01*
X033470Y008048D01*
X033530Y007988D01*
X033530Y007868D01*
X033470Y007808D01*
X033170Y007808D02*
X033170Y008048D01*
X033350Y008177D02*
X033350Y008417D01*
X033350Y008545D02*
X033350Y008785D01*
X033290Y008913D02*
X033170Y009033D01*
X033530Y009033D01*
X033530Y008913D02*
X033530Y009153D01*
X033470Y009282D02*
X033230Y009522D01*
X033470Y009522D01*
X033530Y009462D01*
X033530Y009342D01*
X033470Y009282D01*
X033230Y009282D01*
X033170Y009342D01*
X033170Y009462D01*
X033230Y009522D01*
X033170Y009650D02*
X033530Y009890D01*
X033170Y009890D01*
X033170Y010018D02*
X033530Y010018D01*
X033530Y010258D01*
X033350Y010138D02*
X033350Y010018D01*
X033170Y010018D02*
X033170Y010258D01*
X033170Y009650D02*
X033530Y009650D01*
X033530Y008725D02*
X033170Y008725D01*
X033350Y008545D01*
X033530Y008357D02*
X033170Y008357D01*
X033350Y008177D01*
X035970Y009503D02*
X036030Y009503D01*
X036030Y009563D01*
X035970Y009563D01*
X035970Y009503D01*
X036522Y009563D02*
X036522Y009744D01*
X037570Y011003D02*
X037690Y011123D01*
X037570Y011244D01*
X037930Y011244D01*
X037870Y011372D02*
X037930Y011432D01*
X037930Y011552D01*
X037870Y011612D01*
X037810Y011612D01*
X037750Y011552D01*
X037750Y011492D01*
X037750Y011552D02*
X037690Y011612D01*
X037630Y011612D01*
X037570Y011552D01*
X037570Y011432D01*
X037630Y011372D01*
X037570Y011003D02*
X037930Y011003D01*
X037930Y013953D02*
X037570Y013953D01*
X037690Y014073D01*
X037570Y014194D01*
X037930Y014194D01*
X037930Y014322D02*
X037690Y014562D01*
X037630Y014562D01*
X037570Y014502D01*
X037570Y014382D01*
X037630Y014322D01*
X037930Y014322D02*
X037930Y014562D01*
X037081Y015214D02*
X036841Y015214D01*
X036841Y014853D01*
X036713Y014853D02*
X036713Y015094D01*
X036841Y015033D02*
X036961Y015033D01*
X036713Y014853D02*
X036533Y014853D01*
X036472Y014913D01*
X036472Y015094D01*
X036344Y014853D02*
X036104Y014853D01*
X036224Y014853D02*
X036224Y015214D01*
X036104Y015094D01*
X035980Y014913D02*
X035980Y014853D01*
X035920Y014853D01*
X035920Y014913D01*
X035980Y014913D01*
X035930Y016403D02*
X035870Y016403D01*
X035870Y016463D01*
X035930Y016463D01*
X035930Y016403D01*
X036054Y016403D02*
X036294Y016403D01*
X036174Y016403D02*
X036174Y016764D01*
X036054Y016644D01*
X036422Y016644D02*
X036422Y016463D01*
X036483Y016403D01*
X036663Y016403D01*
X036663Y016644D01*
X036791Y016583D02*
X036911Y016583D01*
X036791Y016403D02*
X036791Y016764D01*
X037031Y016764D01*
X037570Y016770D02*
X037570Y016590D01*
X037930Y016590D01*
X037930Y016770D01*
X037870Y016830D01*
X037630Y016830D01*
X037570Y016770D01*
X037570Y016462D02*
X037930Y016462D01*
X037570Y016222D01*
X037930Y016222D01*
X037870Y016094D02*
X037750Y016094D01*
X037750Y015973D01*
X037870Y015853D02*
X037930Y015913D01*
X037930Y016033D01*
X037870Y016094D01*
X037630Y016094D02*
X037570Y016033D01*
X037570Y015913D01*
X037630Y015853D01*
X037870Y015853D01*
X036791Y017903D02*
X036791Y018264D01*
X037031Y018264D01*
X036911Y018083D02*
X036791Y018083D01*
X036663Y018144D02*
X036663Y017903D01*
X036483Y017903D01*
X036422Y017963D01*
X036422Y018144D01*
X036294Y017903D02*
X036054Y017903D01*
X036174Y017903D02*
X036174Y018264D01*
X036054Y018144D01*
X035930Y017963D02*
X035930Y017903D01*
X035870Y017903D01*
X035870Y017963D01*
X035930Y017963D01*
X036420Y019303D02*
X036480Y019303D01*
X036480Y019363D01*
X036420Y019363D01*
X036420Y019303D01*
X036604Y019303D02*
X036844Y019303D01*
X036724Y019303D02*
X036724Y019664D01*
X036604Y019544D01*
X036972Y019544D02*
X036972Y019363D01*
X037033Y019303D01*
X037213Y019303D01*
X037213Y019544D01*
X037341Y019483D02*
X037461Y019483D01*
X037341Y019303D02*
X037341Y019664D01*
X037581Y019664D01*
X037530Y020003D02*
X037530Y020244D01*
X037530Y020123D02*
X037170Y020123D01*
X037290Y020003D01*
X037230Y020372D02*
X037170Y020432D01*
X037170Y020552D01*
X037230Y020612D01*
X037470Y020372D01*
X037530Y020432D01*
X037530Y020552D01*
X037470Y020612D01*
X037230Y020612D01*
X037230Y020740D02*
X037170Y020800D01*
X037170Y020920D01*
X037230Y020980D01*
X037470Y020740D01*
X037530Y020800D01*
X037530Y020920D01*
X037470Y020980D01*
X037230Y020980D01*
X037290Y021108D02*
X037470Y021108D01*
X037530Y021168D01*
X037530Y021348D01*
X037290Y021348D01*
X037350Y021477D02*
X037350Y021597D01*
X037170Y021477D02*
X037170Y021717D01*
X037170Y021477D02*
X037530Y021477D01*
X037470Y020740D02*
X037230Y020740D01*
X037230Y020372D02*
X037470Y020372D01*
X037880Y018962D02*
X037880Y018722D01*
X037880Y018842D02*
X037520Y018842D01*
X037640Y018722D01*
X037520Y018594D02*
X037880Y018594D01*
X037880Y018353D02*
X037520Y018353D01*
X037640Y018473D01*
X037520Y018594D01*
D13*
X034629Y013233D02*
X034631Y013249D01*
X034637Y013265D01*
X034646Y013279D01*
X034658Y013290D01*
X034672Y013298D01*
X034688Y013303D01*
X034704Y013304D01*
X034720Y013301D01*
X034735Y013294D01*
X034749Y013285D01*
X034759Y013272D01*
X034767Y013257D01*
X034771Y013241D01*
X034771Y013225D01*
X034767Y013209D01*
X034759Y013194D01*
X034749Y013181D01*
X034736Y013172D01*
X034720Y013165D01*
X034704Y013162D01*
X034688Y013163D01*
X034672Y013168D01*
X034658Y013176D01*
X034646Y013187D01*
X034637Y013201D01*
X034631Y013217D01*
X034629Y013233D01*
X034629Y004233D02*
X034631Y004249D01*
X034637Y004265D01*
X034646Y004279D01*
X034658Y004290D01*
X034672Y004298D01*
X034688Y004303D01*
X034704Y004304D01*
X034720Y004301D01*
X034735Y004294D01*
X034749Y004285D01*
X034759Y004272D01*
X034767Y004257D01*
X034771Y004241D01*
X034771Y004225D01*
X034767Y004209D01*
X034759Y004194D01*
X034749Y004181D01*
X034736Y004172D01*
X034720Y004165D01*
X034704Y004162D01*
X034688Y004163D01*
X034672Y004168D01*
X034658Y004176D01*
X034646Y004187D01*
X034637Y004201D01*
X034631Y004217D01*
X034629Y004233D01*
D14*
X034207Y022016D02*
X034207Y022697D01*
X034548Y022697D01*
X034661Y022584D01*
X034661Y022357D01*
X034548Y022243D01*
X034207Y022243D01*
X033925Y022470D02*
X033471Y022470D01*
X033471Y022357D02*
X033471Y022584D01*
X033584Y022697D01*
X033811Y022697D01*
X033925Y022584D01*
X033925Y022470D01*
X033811Y022243D02*
X033584Y022243D01*
X033471Y022357D01*
X033207Y022243D02*
X033093Y022357D01*
X033093Y022810D01*
X032980Y022697D02*
X033207Y022697D01*
X032697Y022810D02*
X032583Y022924D01*
X032357Y022924D01*
X032243Y022810D01*
X032243Y022697D01*
X032357Y022584D01*
X032583Y022584D01*
X032697Y022470D01*
X032697Y022357D01*
X032583Y022243D01*
X032357Y022243D01*
X032243Y022357D01*
X031960Y022243D02*
X031733Y022470D01*
X031847Y022470D02*
X031507Y022470D01*
X031507Y022243D02*
X031507Y022924D01*
X031847Y022924D01*
X031960Y022810D01*
X031960Y022584D01*
X031847Y022470D01*
X031224Y022584D02*
X030770Y022584D01*
X030770Y022697D02*
X030997Y022924D01*
X031224Y022697D01*
X031224Y022243D01*
X030770Y022243D02*
X030770Y022697D01*
X030487Y022697D02*
X030487Y022810D01*
X030374Y022924D01*
X030033Y022924D01*
X030033Y022243D01*
X030374Y022243D01*
X030487Y022357D01*
X030487Y022470D01*
X030374Y022584D01*
X030033Y022584D01*
X030374Y022584D02*
X030487Y022697D01*
X029750Y022924D02*
X029750Y022357D01*
X029637Y022243D01*
X029410Y022243D01*
X029297Y022357D01*
X029297Y022924D01*
X029014Y022924D02*
X028560Y022924D01*
X028560Y022243D01*
X028560Y022584D02*
X028787Y022584D01*
X035681Y022697D02*
X035908Y022243D01*
X036134Y022697D01*
X036417Y022697D02*
X036644Y022924D01*
X036644Y022243D01*
X036417Y022243D02*
X036871Y022243D01*
X037154Y022243D02*
X037154Y022357D01*
X037267Y022357D01*
X037267Y022243D01*
X037154Y022243D01*
X037522Y022243D02*
X037976Y022243D01*
X037749Y022243D02*
X037749Y022924D01*
X037522Y022697D01*
X013200Y003583D02*
X012300Y003583D01*
X012000Y003583D02*
X011150Y003583D01*
D15*
X009714Y002414D02*
X009380Y002414D01*
X009547Y002580D02*
X009547Y002247D01*
X008314Y002414D02*
X007980Y002414D01*
X013180Y013563D02*
X013180Y014204D01*
X013607Y014204D01*
X013825Y013990D02*
X013825Y013670D01*
X013931Y013563D01*
X014252Y013563D01*
X014252Y013990D01*
X014469Y013990D02*
X014789Y013990D01*
X014896Y013884D01*
X014896Y013670D01*
X014789Y013563D01*
X014469Y013563D01*
X014469Y014204D01*
X015220Y013990D02*
X015434Y013990D01*
X015541Y013884D01*
X015541Y013563D01*
X015220Y013563D01*
X015114Y013670D01*
X015220Y013777D01*
X015541Y013777D01*
X015758Y013777D02*
X015972Y013990D01*
X016078Y013990D01*
X016295Y013990D02*
X016402Y013990D01*
X016402Y013563D01*
X016295Y013563D02*
X016509Y013563D01*
X016725Y013563D02*
X016725Y013990D01*
X017045Y013990D01*
X017152Y013884D01*
X017152Y013563D01*
X017370Y013670D02*
X017476Y013563D01*
X017690Y013563D01*
X017797Y013670D01*
X017797Y013884D01*
X017690Y013990D01*
X017476Y013990D01*
X017370Y013884D01*
X017370Y013670D01*
X016402Y014204D02*
X016402Y014311D01*
X015758Y013990D02*
X015758Y013563D01*
X013394Y013884D02*
X013180Y013884D01*
X018659Y013990D02*
X018765Y013884D01*
X018979Y013884D01*
X019086Y013777D01*
X019086Y013670D01*
X018979Y013563D01*
X018765Y013563D01*
X018659Y013670D01*
X018659Y013990D02*
X018659Y014097D01*
X018765Y014204D01*
X018979Y014204D01*
X019086Y014097D01*
X019303Y014204D02*
X019623Y014204D01*
X019730Y014097D01*
X019730Y013670D01*
X019623Y013563D01*
X019303Y013563D01*
X019303Y014204D01*
X032000Y013333D02*
X032750Y013333D01*
X032752Y013372D01*
X032758Y013411D01*
X032767Y013449D01*
X032780Y013486D01*
X032797Y013522D01*
X032817Y013555D01*
X032841Y013587D01*
X032867Y013616D01*
X032896Y013642D01*
X032928Y013666D01*
X032961Y013686D01*
X032997Y013703D01*
X033034Y013716D01*
X033072Y013725D01*
X033111Y013731D01*
X033150Y013733D01*
X033189Y013731D01*
X033228Y013725D01*
X033266Y013716D01*
X033303Y013703D01*
X033339Y013686D01*
X033372Y013666D01*
X033404Y013642D01*
X033433Y013616D01*
X033459Y013587D01*
X033483Y013555D01*
X033503Y013522D01*
X033520Y013486D01*
X033533Y013449D01*
X033542Y013411D01*
X033548Y013372D01*
X033550Y013333D01*
X034300Y013333D01*
X034300Y021333D01*
X032000Y021333D01*
X032000Y013333D01*
X032000Y012333D02*
X034300Y012333D01*
X034300Y004333D01*
X033550Y004333D01*
X033548Y004372D01*
X033542Y004411D01*
X033533Y004449D01*
X033520Y004486D01*
X033503Y004522D01*
X033483Y004555D01*
X033459Y004587D01*
X033433Y004616D01*
X033404Y004642D01*
X033372Y004666D01*
X033339Y004686D01*
X033303Y004703D01*
X033266Y004716D01*
X033228Y004725D01*
X033189Y004731D01*
X033150Y004733D01*
X033111Y004731D01*
X033072Y004725D01*
X033034Y004716D01*
X032997Y004703D01*
X032961Y004686D01*
X032928Y004666D01*
X032896Y004642D01*
X032867Y004616D01*
X032841Y004587D01*
X032817Y004555D01*
X032797Y004522D01*
X032780Y004486D01*
X032767Y004449D01*
X032758Y004411D01*
X032752Y004372D01*
X032750Y004333D01*
X032000Y004333D01*
X032000Y012333D01*
D16*
X007050Y008823D02*
X007050Y008283D01*
X007050Y008823D02*
X003110Y008823D01*
X003110Y005293D01*
X001740Y005283D02*
X004800Y005283D01*
X006925Y005283D02*
X007050Y005283D01*
X007050Y006158D01*
X003110Y008823D02*
X001740Y008823D01*
X001740Y005283D01*
D17*
X007461Y005572D02*
X007461Y003131D01*
X010217Y003131D01*
X010217Y002816D01*
X007461Y002816D01*
X007461Y003131D01*
X007461Y005572D02*
X010217Y005572D01*
X010217Y003131D01*
X010900Y003833D02*
X010650Y004083D01*
X010650Y004583D01*
X010900Y004833D01*
X011400Y004833D01*
X011650Y004583D01*
X011900Y004833D01*
X012400Y004833D01*
X012650Y004583D01*
X012900Y004833D01*
X013400Y004833D01*
X013650Y004583D01*
X013650Y004083D01*
X013400Y003833D01*
X012900Y003833D01*
X012650Y004083D01*
X012400Y003833D01*
X011900Y003833D01*
X011650Y004083D01*
X011400Y003833D01*
X010900Y003833D01*
X012650Y006083D02*
X012650Y007583D01*
X008650Y007583D01*
X008650Y007833D01*
X012650Y007833D01*
X012650Y007583D01*
X012650Y006083D02*
X008650Y006083D01*
X008650Y007583D01*
X013370Y006533D02*
X013372Y006604D01*
X013378Y006675D01*
X013388Y006746D01*
X013402Y006815D01*
X013419Y006884D01*
X013441Y006952D01*
X013466Y007019D01*
X013495Y007084D01*
X013527Y007147D01*
X013563Y007209D01*
X013602Y007268D01*
X013645Y007325D01*
X013690Y007380D01*
X013739Y007432D01*
X013790Y007481D01*
X013844Y007527D01*
X013901Y007571D01*
X013959Y007611D01*
X014020Y007647D01*
X014083Y007681D01*
X014148Y007710D01*
X014214Y007736D01*
X014282Y007759D01*
X014350Y007777D01*
X014420Y007792D01*
X014490Y007803D01*
X014561Y007810D01*
X014632Y007813D01*
X014703Y007812D01*
X014774Y007807D01*
X014845Y007798D01*
X014915Y007785D01*
X014984Y007769D01*
X015052Y007748D01*
X015119Y007724D01*
X015185Y007696D01*
X015248Y007664D01*
X015310Y007629D01*
X015370Y007591D01*
X015428Y007549D01*
X015483Y007505D01*
X015536Y007457D01*
X015586Y007406D01*
X015633Y007353D01*
X015677Y007297D01*
X015718Y007239D01*
X015756Y007178D01*
X015790Y007116D01*
X015820Y007051D01*
X015847Y006986D01*
X015871Y006918D01*
X015890Y006850D01*
X015906Y006781D01*
X015918Y006710D01*
X015926Y006640D01*
X015930Y006569D01*
X015930Y006497D01*
X015926Y006426D01*
X015918Y006356D01*
X015906Y006285D01*
X015890Y006216D01*
X015871Y006148D01*
X015847Y006080D01*
X015820Y006015D01*
X015790Y005950D01*
X015756Y005888D01*
X015718Y005827D01*
X015677Y005769D01*
X015633Y005713D01*
X015586Y005660D01*
X015536Y005609D01*
X015483Y005561D01*
X015428Y005517D01*
X015370Y005475D01*
X015310Y005437D01*
X015248Y005402D01*
X015185Y005370D01*
X015119Y005342D01*
X015052Y005318D01*
X014984Y005297D01*
X014915Y005281D01*
X014845Y005268D01*
X014774Y005259D01*
X014703Y005254D01*
X014632Y005253D01*
X014561Y005256D01*
X014490Y005263D01*
X014420Y005274D01*
X014350Y005289D01*
X014282Y005307D01*
X014214Y005330D01*
X014148Y005356D01*
X014083Y005385D01*
X014020Y005419D01*
X013959Y005455D01*
X013901Y005495D01*
X013844Y005539D01*
X013790Y005585D01*
X013739Y005634D01*
X013690Y005686D01*
X013645Y005741D01*
X013602Y005798D01*
X013563Y005857D01*
X013527Y005919D01*
X013495Y005982D01*
X013466Y006047D01*
X013441Y006114D01*
X013419Y006182D01*
X013402Y006251D01*
X013388Y006320D01*
X013378Y006391D01*
X013372Y006462D01*
X013370Y006533D01*
X015150Y006783D02*
X015150Y007283D01*
X016650Y005633D02*
X016650Y005133D01*
X016900Y004883D01*
X016650Y004633D01*
X016650Y004133D01*
X016900Y003883D01*
X016650Y003633D01*
X016650Y003133D01*
X016900Y002883D01*
X017400Y002883D01*
X017650Y003133D01*
X017650Y003633D01*
X017900Y003883D01*
X017650Y004133D01*
X017650Y004633D01*
X017900Y004883D01*
X017650Y005133D01*
X017650Y005633D01*
X017900Y005883D01*
X018400Y005883D01*
X018650Y005633D01*
X018650Y005133D01*
X018900Y004883D01*
X018650Y004633D01*
X018650Y004133D01*
X018900Y003883D01*
X018650Y003633D01*
X018650Y003133D01*
X018900Y002883D01*
X019400Y002883D01*
X019650Y003133D01*
X019650Y003633D01*
X019900Y003883D01*
X019650Y004133D01*
X019650Y004633D01*
X019900Y004883D01*
X019650Y005133D01*
X019650Y005633D01*
X019900Y005883D01*
X020400Y005883D01*
X020650Y005633D01*
X020650Y005133D01*
X020900Y004883D01*
X020650Y004633D01*
X020650Y004133D01*
X020900Y003883D01*
X020650Y003633D01*
X020650Y003133D01*
X020900Y002883D01*
X021400Y002883D01*
X021650Y003133D01*
X021650Y003633D01*
X021400Y003883D01*
X021650Y004133D01*
X021650Y004633D01*
X021400Y004883D01*
X021650Y005133D01*
X021650Y005633D01*
X021400Y005883D01*
X020900Y005883D01*
X020650Y005633D01*
X020650Y005133D01*
X020400Y004883D01*
X020650Y004633D01*
X020650Y004133D01*
X020400Y003883D01*
X020650Y003633D01*
X020650Y003133D01*
X020400Y002883D01*
X019900Y002883D01*
X019650Y003133D01*
X019650Y003633D01*
X019400Y003883D01*
X019650Y004133D01*
X019650Y004633D01*
X019400Y004883D01*
X019650Y005133D01*
X019650Y005633D01*
X019400Y005883D01*
X018900Y005883D01*
X018650Y005633D01*
X018650Y005133D01*
X018400Y004883D01*
X018650Y004633D01*
X018650Y004133D01*
X018400Y003883D01*
X018650Y003633D01*
X018650Y003133D01*
X018400Y002883D01*
X017900Y002883D01*
X017650Y003133D01*
X017650Y003633D01*
X017400Y003883D01*
X017650Y004133D01*
X017650Y004633D01*
X017400Y004883D01*
X017650Y005133D01*
X017650Y005633D01*
X017400Y005883D01*
X016900Y005883D01*
X016650Y005633D01*
X016400Y003833D02*
X015900Y003833D01*
X021650Y003633D02*
X021650Y003133D01*
X021900Y002883D01*
X022400Y002883D01*
X022650Y003133D01*
X022650Y003633D01*
X022900Y003883D01*
X022650Y004133D01*
X022650Y004633D01*
X022900Y004883D01*
X022650Y005133D01*
X022650Y005633D01*
X022900Y005883D01*
X023400Y005883D01*
X023650Y005633D01*
X023650Y005133D01*
X023900Y004883D01*
X023650Y004633D01*
X023650Y004133D01*
X023900Y003883D01*
X023650Y003633D01*
X023650Y003133D01*
X023900Y002883D01*
X024400Y002883D01*
X024650Y003133D01*
X024650Y003633D01*
X024900Y003883D01*
X024650Y004133D01*
X024650Y004633D01*
X024900Y004883D01*
X024650Y005133D01*
X024650Y005633D01*
X024900Y005883D01*
X025400Y005883D01*
X025650Y005633D01*
X025650Y005133D01*
X025900Y004883D01*
X025650Y004633D01*
X025650Y004133D01*
X025900Y003883D01*
X025650Y003633D01*
X025650Y003133D01*
X025900Y002883D01*
X026400Y002883D01*
X026650Y003133D01*
X026650Y003633D01*
X026900Y003883D01*
X026650Y004133D01*
X026650Y004633D01*
X026900Y004883D01*
X026650Y005133D01*
X026650Y005633D01*
X026900Y005883D01*
X027400Y005883D01*
X027650Y005633D01*
X027650Y005133D01*
X027900Y004883D01*
X027650Y004633D01*
X027650Y004133D01*
X027900Y003883D01*
X027650Y003633D01*
X027650Y003133D01*
X027900Y002883D01*
X028400Y002883D01*
X028650Y003133D01*
X028650Y003633D01*
X028400Y003883D01*
X028650Y004133D01*
X028650Y004633D01*
X028400Y004883D01*
X028650Y005133D01*
X028650Y005633D01*
X028400Y005883D01*
X027900Y005883D01*
X027650Y005633D01*
X027650Y005133D01*
X027400Y004883D01*
X027650Y004633D01*
X027650Y004133D01*
X027400Y003883D01*
X027650Y003633D01*
X027650Y003133D01*
X027400Y002883D01*
X026900Y002883D01*
X026650Y003133D01*
X026650Y003633D01*
X026400Y003883D01*
X026650Y004133D01*
X026650Y004633D01*
X026400Y004883D01*
X026650Y005133D01*
X026650Y005633D01*
X026400Y005883D01*
X025900Y005883D01*
X025650Y005633D01*
X025650Y005133D01*
X025400Y004883D01*
X025650Y004633D01*
X025650Y004133D01*
X025400Y003883D01*
X025650Y003633D01*
X025650Y003133D01*
X025400Y002883D01*
X024900Y002883D01*
X024650Y003133D01*
X024650Y003633D01*
X024400Y003883D01*
X024650Y004133D01*
X024650Y004633D01*
X024400Y004883D01*
X024650Y005133D01*
X024650Y005633D01*
X024400Y005883D01*
X023900Y005883D01*
X023650Y005633D01*
X023650Y005133D01*
X023400Y004883D01*
X023650Y004633D01*
X023650Y004133D01*
X023400Y003883D01*
X023650Y003633D01*
X023650Y003133D01*
X023400Y002883D01*
X022900Y002883D01*
X022650Y003133D01*
X022650Y003633D01*
X022400Y003883D01*
X022650Y004133D01*
X022650Y004633D01*
X022400Y004883D01*
X022650Y005133D01*
X022650Y005633D01*
X022400Y005883D01*
X021900Y005883D01*
X021650Y005633D01*
X021650Y005133D01*
X021900Y004883D01*
X021650Y004633D01*
X021650Y004133D01*
X021900Y003883D01*
X021650Y003633D01*
X030150Y004083D02*
X030400Y003833D01*
X030900Y003833D01*
X031150Y004083D01*
X031150Y004583D01*
X030900Y004833D01*
X030400Y004833D01*
X030150Y004583D01*
X030150Y004083D01*
X033150Y004083D02*
X033150Y003583D01*
X035650Y004083D02*
X035900Y003833D01*
X036400Y003833D01*
X036650Y004083D01*
X036650Y004583D01*
X036400Y004833D01*
X035900Y004833D01*
X035650Y004583D01*
X035650Y004083D01*
X037150Y004283D02*
X037150Y003833D01*
X037700Y003833D01*
X037700Y004083D01*
X037600Y004083D01*
X037600Y003883D01*
X037700Y003833D02*
X038150Y003833D01*
X038150Y004283D01*
X037650Y004283D01*
X037400Y004533D01*
X037150Y004283D01*
X037150Y004583D01*
X038100Y004583D01*
X038100Y004733D01*
X038150Y004733D01*
X038150Y004283D01*
X038311Y005278D02*
X040752Y005278D01*
X040752Y009845D01*
X041067Y009845D01*
X041067Y005278D01*
X040752Y005278D01*
X038311Y005278D02*
X038311Y009845D01*
X040752Y009845D01*
X040752Y009844D02*
X040752Y012600D01*
X041067Y012600D01*
X041067Y009844D01*
X040752Y009844D01*
X038311Y009844D01*
X038311Y012600D01*
X040752Y012600D01*
X040752Y012628D02*
X040752Y017195D01*
X041067Y017195D01*
X041067Y012628D01*
X040752Y012628D01*
X038311Y012628D01*
X038311Y017195D01*
X040752Y017195D01*
X040752Y017194D02*
X040752Y019950D01*
X041067Y019950D01*
X041067Y017194D01*
X040752Y017194D01*
X038311Y017194D01*
X038311Y019950D01*
X040752Y019950D01*
X035370Y020833D02*
X035372Y020904D01*
X035378Y020975D01*
X035388Y021046D01*
X035402Y021115D01*
X035419Y021184D01*
X035441Y021252D01*
X035466Y021319D01*
X035495Y021384D01*
X035527Y021447D01*
X035563Y021509D01*
X035602Y021568D01*
X035645Y021625D01*
X035690Y021680D01*
X035739Y021732D01*
X035790Y021781D01*
X035844Y021827D01*
X035901Y021871D01*
X035959Y021911D01*
X036020Y021947D01*
X036083Y021981D01*
X036148Y022010D01*
X036214Y022036D01*
X036282Y022059D01*
X036350Y022077D01*
X036420Y022092D01*
X036490Y022103D01*
X036561Y022110D01*
X036632Y022113D01*
X036703Y022112D01*
X036774Y022107D01*
X036845Y022098D01*
X036915Y022085D01*
X036984Y022069D01*
X037052Y022048D01*
X037119Y022024D01*
X037185Y021996D01*
X037248Y021964D01*
X037310Y021929D01*
X037370Y021891D01*
X037428Y021849D01*
X037483Y021805D01*
X037536Y021757D01*
X037586Y021706D01*
X037633Y021653D01*
X037677Y021597D01*
X037718Y021539D01*
X037756Y021478D01*
X037790Y021416D01*
X037820Y021351D01*
X037847Y021286D01*
X037871Y021218D01*
X037890Y021150D01*
X037906Y021081D01*
X037918Y021010D01*
X037926Y020940D01*
X037930Y020869D01*
X037930Y020797D01*
X037926Y020726D01*
X037918Y020656D01*
X037906Y020585D01*
X037890Y020516D01*
X037871Y020448D01*
X037847Y020380D01*
X037820Y020315D01*
X037790Y020250D01*
X037756Y020188D01*
X037718Y020127D01*
X037677Y020069D01*
X037633Y020013D01*
X037586Y019960D01*
X037536Y019909D01*
X037483Y019861D01*
X037428Y019817D01*
X037370Y019775D01*
X037310Y019737D01*
X037248Y019702D01*
X037185Y019670D01*
X037119Y019642D01*
X037052Y019618D01*
X036984Y019597D01*
X036915Y019581D01*
X036845Y019568D01*
X036774Y019559D01*
X036703Y019554D01*
X036632Y019553D01*
X036561Y019556D01*
X036490Y019563D01*
X036420Y019574D01*
X036350Y019589D01*
X036282Y019607D01*
X036214Y019630D01*
X036148Y019656D01*
X036083Y019685D01*
X036020Y019719D01*
X035959Y019755D01*
X035901Y019795D01*
X035844Y019839D01*
X035790Y019885D01*
X035739Y019934D01*
X035690Y019986D01*
X035645Y020041D01*
X035602Y020098D01*
X035563Y020157D01*
X035527Y020219D01*
X035495Y020282D01*
X035466Y020347D01*
X035441Y020414D01*
X035419Y020482D01*
X035402Y020551D01*
X035388Y020620D01*
X035378Y020691D01*
X035372Y020762D01*
X035370Y020833D01*
X036150Y020583D02*
X036150Y020083D01*
X036450Y019083D02*
X036450Y018583D01*
X036450Y017583D02*
X036450Y017083D01*
X036450Y016083D02*
X036450Y015583D01*
X036450Y014583D02*
X036450Y014083D01*
X035170Y012333D02*
X035172Y012404D01*
X035178Y012475D01*
X035188Y012546D01*
X035202Y012615D01*
X035219Y012684D01*
X035241Y012752D01*
X035266Y012819D01*
X035295Y012884D01*
X035327Y012947D01*
X035363Y013009D01*
X035402Y013068D01*
X035445Y013125D01*
X035490Y013180D01*
X035539Y013232D01*
X035590Y013281D01*
X035644Y013327D01*
X035701Y013371D01*
X035759Y013411D01*
X035820Y013447D01*
X035883Y013481D01*
X035948Y013510D01*
X036014Y013536D01*
X036082Y013559D01*
X036150Y013577D01*
X036220Y013592D01*
X036290Y013603D01*
X036361Y013610D01*
X036432Y013613D01*
X036503Y013612D01*
X036574Y013607D01*
X036645Y013598D01*
X036715Y013585D01*
X036784Y013569D01*
X036852Y013548D01*
X036919Y013524D01*
X036985Y013496D01*
X037048Y013464D01*
X037110Y013429D01*
X037170Y013391D01*
X037228Y013349D01*
X037283Y013305D01*
X037336Y013257D01*
X037386Y013206D01*
X037433Y013153D01*
X037477Y013097D01*
X037518Y013039D01*
X037556Y012978D01*
X037590Y012916D01*
X037620Y012851D01*
X037647Y012786D01*
X037671Y012718D01*
X037690Y012650D01*
X037706Y012581D01*
X037718Y012510D01*
X037726Y012440D01*
X037730Y012369D01*
X037730Y012297D01*
X037726Y012226D01*
X037718Y012156D01*
X037706Y012085D01*
X037690Y012016D01*
X037671Y011948D01*
X037647Y011880D01*
X037620Y011815D01*
X037590Y011750D01*
X037556Y011688D01*
X037518Y011627D01*
X037477Y011569D01*
X037433Y011513D01*
X037386Y011460D01*
X037336Y011409D01*
X037283Y011361D01*
X037228Y011317D01*
X037170Y011275D01*
X037110Y011237D01*
X037048Y011202D01*
X036985Y011170D01*
X036919Y011142D01*
X036852Y011118D01*
X036784Y011097D01*
X036715Y011081D01*
X036645Y011068D01*
X036574Y011059D01*
X036503Y011054D01*
X036432Y011053D01*
X036361Y011056D01*
X036290Y011063D01*
X036220Y011074D01*
X036150Y011089D01*
X036082Y011107D01*
X036014Y011130D01*
X035948Y011156D01*
X035883Y011185D01*
X035820Y011219D01*
X035759Y011255D01*
X035701Y011295D01*
X035644Y011339D01*
X035590Y011385D01*
X035539Y011434D01*
X035490Y011486D01*
X035445Y011541D01*
X035402Y011598D01*
X035363Y011657D01*
X035327Y011719D01*
X035295Y011782D01*
X035266Y011847D01*
X035241Y011914D01*
X035219Y011982D01*
X035202Y012051D01*
X035188Y012120D01*
X035178Y012191D01*
X035172Y012262D01*
X035170Y012333D01*
X035950Y012083D02*
X035950Y011583D01*
X036500Y010583D02*
X036500Y010083D01*
X036500Y009083D02*
X036500Y008583D01*
X036500Y007583D02*
X036500Y007083D01*
X036500Y006083D02*
X036500Y005583D01*
X028650Y013583D02*
X028650Y014083D01*
X026400Y019283D02*
X025900Y019283D01*
X025650Y019533D01*
X025650Y020033D01*
X025900Y020283D01*
X025650Y020533D01*
X025650Y021033D01*
X025900Y021283D01*
X025650Y021533D01*
X025650Y022033D01*
X025900Y022283D01*
X026400Y022283D01*
X026650Y022033D01*
X026650Y021533D01*
X026400Y021283D01*
X026650Y021033D01*
X026650Y020533D01*
X026400Y020283D01*
X026650Y020033D01*
X026650Y019533D01*
X026400Y019283D01*
X025650Y019533D02*
X025650Y020033D01*
X025400Y020283D01*
X025650Y020533D01*
X025650Y021033D01*
X025400Y021283D01*
X025650Y021533D01*
X025650Y022033D01*
X025400Y022283D01*
X024900Y022283D01*
X024650Y022033D01*
X024650Y021533D01*
X024900Y021283D01*
X024650Y021033D01*
X024650Y020533D01*
X024900Y020283D01*
X024650Y020033D01*
X024650Y019533D01*
X024900Y019283D01*
X025400Y019283D01*
X025650Y019533D01*
X024650Y019533D02*
X024400Y019283D01*
X023900Y019283D01*
X023650Y019533D01*
X023650Y020033D01*
X023400Y020283D01*
X023650Y020533D01*
X023650Y021033D01*
X023400Y021283D01*
X023650Y021533D01*
X023650Y022033D01*
X023400Y022283D01*
X022900Y022283D01*
X022650Y022033D01*
X022650Y021533D01*
X022900Y021283D01*
X022650Y021033D01*
X022650Y020533D01*
X022900Y020283D01*
X022650Y020033D01*
X022650Y019533D01*
X022900Y019283D01*
X023400Y019283D01*
X023650Y019533D01*
X023650Y020033D01*
X023900Y020283D01*
X023650Y020533D01*
X023650Y021033D01*
X023900Y021283D01*
X023650Y021533D01*
X023650Y022033D01*
X023900Y022283D01*
X024400Y022283D01*
X024650Y022033D01*
X024650Y021533D01*
X024400Y021283D01*
X024650Y021033D01*
X024650Y020533D01*
X024400Y020283D01*
X024650Y020033D01*
X024650Y019533D01*
X022650Y019533D02*
X022400Y019283D01*
X021900Y019283D01*
X021650Y019533D01*
X021650Y020033D01*
X021900Y020283D01*
X021650Y020533D01*
X021650Y021033D01*
X021900Y021283D01*
X021650Y021533D01*
X021650Y022033D01*
X021900Y022283D01*
X022400Y022283D01*
X022650Y022033D01*
X022650Y021533D01*
X022400Y021283D01*
X022650Y021033D01*
X022650Y020533D01*
X022400Y020283D01*
X022650Y020033D01*
X022650Y019533D01*
X021650Y019483D02*
X021400Y019233D01*
X020900Y019233D01*
X020650Y019483D01*
X020650Y019983D01*
X020900Y020233D01*
X021400Y020233D01*
X021650Y019983D01*
X021650Y019483D01*
X020650Y019483D02*
X020400Y019233D01*
X019900Y019233D01*
X019650Y019483D01*
X019650Y019983D01*
X019900Y020233D01*
X020400Y020233D01*
X020650Y019983D01*
X019650Y019983D02*
X019400Y020233D01*
X018900Y020233D01*
X018650Y019983D01*
X018650Y019483D01*
X018400Y019233D01*
X017900Y019233D01*
X017650Y019483D01*
X017650Y019983D01*
X017900Y020233D01*
X018400Y020233D01*
X018650Y019983D01*
X018650Y019483D02*
X018900Y019233D01*
X019400Y019233D01*
X019650Y019483D01*
X017650Y019483D02*
X017400Y019233D01*
X016900Y019233D01*
X016650Y019483D01*
X016650Y019983D01*
X016900Y020233D01*
X017400Y020233D01*
X017650Y019983D01*
X016650Y019983D02*
X016400Y020233D01*
X015900Y020233D01*
X015650Y019983D01*
X015650Y019483D01*
X015900Y019233D01*
X016400Y019233D01*
X016650Y019483D01*
X015650Y019533D02*
X015400Y019283D01*
X014900Y019283D01*
X014650Y019533D01*
X014650Y020033D01*
X014900Y020283D01*
X014650Y020533D01*
X014650Y021033D01*
X014900Y021283D01*
X014650Y021533D01*
X014650Y022033D01*
X014900Y022283D01*
X015400Y022283D01*
X015650Y022033D01*
X015650Y021533D01*
X015400Y021283D01*
X015650Y021033D01*
X015650Y020533D01*
X015400Y020283D01*
X015650Y020033D01*
X015650Y019533D01*
X014650Y019533D02*
X014650Y020033D01*
X014400Y020283D01*
X014650Y020533D01*
X014650Y021033D01*
X014400Y021283D01*
X014650Y021533D01*
X014650Y022033D01*
X014400Y022283D01*
X013900Y022283D01*
X013650Y022033D01*
X013650Y021533D01*
X013900Y021283D01*
X013650Y021033D01*
X013650Y020533D01*
X013900Y020283D01*
X013650Y020033D01*
X013650Y019533D01*
X013900Y019283D01*
X014400Y019283D01*
X014650Y019533D01*
X013650Y019533D02*
X013650Y020033D01*
X013400Y020283D01*
X013650Y020533D01*
X013650Y021033D01*
X013400Y021283D01*
X013650Y021533D01*
X013650Y022033D01*
X013400Y022283D01*
X012900Y022283D01*
X012650Y022033D01*
X012650Y021533D01*
X012900Y021283D01*
X012650Y021033D01*
X012650Y020533D01*
X012900Y020283D01*
X012650Y020033D01*
X012650Y019533D01*
X012900Y019283D01*
X013400Y019283D01*
X013650Y019533D01*
X012650Y019533D02*
X012400Y019283D01*
X011900Y019283D01*
X011650Y019533D01*
X011650Y020033D01*
X011400Y020283D01*
X011650Y020533D01*
X011650Y021033D01*
X011400Y021283D01*
X011650Y021533D01*
X011650Y022033D01*
X011400Y022283D01*
X010900Y022283D01*
X010650Y022033D01*
X010650Y021533D01*
X010900Y021283D01*
X010650Y021033D01*
X010650Y020533D01*
X010900Y020283D01*
X010650Y020033D01*
X010650Y019533D01*
X010900Y019283D01*
X011400Y019283D01*
X011650Y019533D01*
X011650Y020033D01*
X011900Y020283D01*
X011650Y020533D01*
X011650Y021033D01*
X011900Y021283D01*
X011650Y021533D01*
X011650Y022033D01*
X011900Y022283D01*
X012400Y022283D01*
X012650Y022033D01*
X012650Y021533D01*
X012400Y021283D01*
X012650Y021033D01*
X012650Y020533D01*
X012400Y020283D01*
X012650Y020033D01*
X012650Y019533D01*
X010650Y019533D02*
X010400Y019283D01*
X009900Y019283D01*
X009650Y019533D01*
X009650Y020033D01*
X009900Y020283D01*
X009650Y020533D01*
X009650Y021033D01*
X009900Y021283D01*
X009650Y021533D01*
X009650Y022033D01*
X009900Y022283D01*
X010400Y022283D01*
X010650Y022033D01*
X010650Y021533D01*
X010400Y021283D01*
X010650Y021033D01*
X010650Y020533D01*
X010400Y020283D01*
X010650Y020033D01*
X010650Y019533D01*
X009650Y019533D02*
X009650Y020033D01*
X009400Y020283D01*
X009650Y020533D01*
X009650Y021033D01*
X009400Y021283D01*
X009650Y021533D01*
X009650Y022033D01*
X009400Y022283D01*
X008900Y022283D01*
X008650Y022033D01*
X008650Y021533D01*
X008900Y021283D01*
X008650Y021033D01*
X008650Y020533D01*
X008900Y020283D01*
X008650Y020033D01*
X008650Y019533D01*
X008900Y019283D01*
X009400Y019283D01*
X009650Y019533D01*
X008650Y019533D02*
X008400Y019283D01*
X007900Y019283D01*
X007650Y019533D01*
X007650Y020033D01*
X007900Y020283D01*
X007650Y020533D01*
X007650Y021033D01*
X007900Y021283D01*
X007650Y021533D01*
X007650Y022033D01*
X007900Y022283D01*
X008400Y022283D01*
X008650Y022033D01*
X008650Y021533D01*
X008400Y021283D01*
X008650Y021033D01*
X008650Y020533D01*
X008400Y020283D01*
X008650Y020033D01*
X008650Y019533D01*
X007650Y019533D02*
X007650Y020033D01*
X007400Y020283D01*
X007650Y020533D01*
X007650Y021033D01*
X007400Y021283D01*
X007650Y021533D01*
X007650Y022033D01*
X007400Y022283D01*
X006900Y022283D01*
X006650Y022033D01*
X006650Y021533D01*
X006900Y021283D01*
X006650Y021033D01*
X006650Y020533D01*
X006900Y020283D01*
X006650Y020033D01*
X006650Y019533D01*
X006900Y019283D01*
X007400Y019283D01*
X007650Y019533D01*
X006650Y019533D02*
X006650Y020033D01*
X006400Y020283D01*
X006650Y020533D01*
X006650Y021033D01*
X006400Y021283D01*
X006650Y021533D01*
X006650Y022033D01*
X006400Y022283D01*
X005900Y022283D01*
X005650Y022033D01*
X005650Y021533D01*
X005900Y021283D01*
X005650Y021033D01*
X005650Y020533D01*
X005900Y020283D01*
X005650Y020033D01*
X005650Y019533D01*
X005900Y019283D01*
X006400Y019283D01*
X006650Y019533D01*
X026900Y021283D02*
X027400Y021283D01*
D18*
X028673Y020953D02*
X028673Y020713D01*
X028991Y020681D01*
X029025Y020574D01*
X029076Y020475D01*
X028874Y020227D01*
X029044Y020058D01*
X029291Y020259D01*
X029391Y020208D01*
X029532Y020549D01*
X029479Y020578D01*
X029432Y020616D01*
X029394Y020662D01*
X029366Y020716D01*
X029348Y020773D01*
X029342Y020833D01*
X029349Y020896D01*
X029368Y020956D01*
X029399Y021011D01*
X029441Y021059D01*
X029491Y021097D01*
X029548Y021124D01*
X029610Y021138D01*
X029673Y021140D01*
X029735Y021129D01*
X029794Y021105D01*
X029846Y021070D01*
X029890Y021025D01*
X029925Y020972D01*
X029947Y020913D01*
X029957Y020851D01*
X029954Y020787D01*
X029938Y020726D01*
X029910Y020670D01*
X029872Y020620D01*
X029823Y020579D01*
X029768Y020549D01*
X029909Y020208D01*
X030009Y020259D01*
X030256Y020058D01*
X030426Y020227D01*
X030224Y020475D01*
X030275Y020574D01*
X030309Y020681D01*
X030627Y020713D01*
X030627Y020953D01*
X030309Y020986D01*
X030275Y021092D01*
X030224Y021192D01*
X030426Y021439D01*
X030256Y021609D01*
X030009Y021407D01*
X029909Y021459D01*
X029802Y021493D01*
X029770Y021810D01*
X029530Y021810D01*
X029498Y021493D01*
X029391Y021459D01*
X029291Y021407D01*
X029044Y021609D01*
X028874Y021439D01*
X029076Y021192D01*
X029025Y021092D01*
X028991Y020986D01*
X028673Y020953D01*
X028673Y020942D02*
X029363Y020942D01*
X029348Y020884D02*
X028673Y020884D01*
X028673Y020827D02*
X029343Y020827D01*
X029350Y020769D02*
X028673Y020769D01*
X028692Y020711D02*
X029368Y020711D01*
X029401Y020654D02*
X028999Y020654D01*
X029018Y020596D02*
X029456Y020596D01*
X029528Y020539D02*
X029043Y020539D01*
X029073Y020481D02*
X029504Y020481D01*
X029480Y020424D02*
X029035Y020424D01*
X028988Y020366D02*
X029456Y020366D01*
X029433Y020309D02*
X028941Y020309D01*
X028894Y020251D02*
X029281Y020251D01*
X029308Y020251D02*
X029409Y020251D01*
X029210Y020193D02*
X028908Y020193D01*
X028966Y020136D02*
X029140Y020136D01*
X029069Y020078D02*
X029023Y020078D01*
X029820Y020424D02*
X030265Y020424D01*
X030227Y020481D02*
X029796Y020481D01*
X029772Y020539D02*
X030257Y020539D01*
X030282Y020596D02*
X029844Y020596D01*
X029898Y020654D02*
X030301Y020654D01*
X030312Y020366D02*
X029844Y020366D01*
X029867Y020309D02*
X030359Y020309D01*
X030406Y020251D02*
X030019Y020251D01*
X029992Y020251D02*
X029891Y020251D01*
X030089Y020193D02*
X030392Y020193D01*
X030334Y020136D02*
X030160Y020136D01*
X030231Y020078D02*
X030277Y020078D01*
X030608Y020711D02*
X029931Y020711D01*
X029949Y020769D02*
X030627Y020769D01*
X030627Y020827D02*
X029956Y020827D01*
X029952Y020884D02*
X030627Y020884D01*
X030627Y020942D02*
X029936Y020942D01*
X029907Y020999D02*
X030305Y020999D01*
X030287Y021057D02*
X029859Y021057D01*
X029771Y021114D02*
X030264Y021114D01*
X030234Y021172D02*
X029066Y021172D01*
X029046Y021229D02*
X030254Y021229D01*
X030301Y021287D02*
X028999Y021287D01*
X028952Y021345D02*
X030348Y021345D01*
X030395Y021402D02*
X028905Y021402D01*
X028895Y021460D02*
X029227Y021460D01*
X029156Y021517D02*
X028952Y021517D01*
X029010Y021575D02*
X029086Y021575D01*
X029395Y021460D02*
X029905Y021460D01*
X029800Y021517D02*
X029500Y021517D01*
X029506Y021575D02*
X029794Y021575D01*
X029788Y021632D02*
X029512Y021632D01*
X029518Y021690D02*
X029782Y021690D01*
X029776Y021747D02*
X029524Y021747D01*
X029530Y021805D02*
X029770Y021805D01*
X030073Y021460D02*
X030405Y021460D01*
X030348Y021517D02*
X030144Y021517D01*
X030214Y021575D02*
X030290Y021575D01*
X029529Y021114D02*
X029036Y021114D01*
X029013Y021057D02*
X029439Y021057D01*
X029392Y020999D02*
X028995Y020999D01*
M02*
