%
M48
M72
T01C0.0130
T02C0.0276
T03C0.0320
T04C0.0394
T05C0.0400
T06C0.0472
T07C0.1260
T08C0.1300
%
T01
X4150Y12133
X4150Y13283
X7150Y15333
X8150Y14833
X8650Y14833
X9150Y14833
X9650Y14683
X10150Y14683
X10400Y14433
X10650Y14683
X11150Y14683
X11450Y14433
X12650Y14033
X13150Y14033
X13650Y14033
X14150Y14033
X15150Y14033
X16150Y14033
X17150Y14033
X17650Y14033
X18150Y14033
X19150Y14033
X20150Y14033
X21150Y14033
X18650Y16283
X18150Y16283
X18150Y12233
X17650Y12233
X13650Y15883
X12650Y15133
X11450Y15883
X10400Y15883
X9650Y15883
X8650Y15883
X15550Y7633
X15600Y7183
X15950Y6683
X16650Y6683
X16800Y7633
X16350Y7733
X28150Y17533
X29450Y15333
X29400Y14833
X29650Y14533
X30750Y14333
X30750Y15333
X31150Y19333
X29700Y20833
X28650Y19833
X31150Y10383
X30200Y8083
X30200Y7583
X29600Y7883
X28650Y9033
T02
X28150Y13833
X29150Y13833
X35950Y14333
X36950Y14333
X36450Y12833
X36450Y11833
X36000Y10333
X37000Y10333
X37000Y8833
X36000Y8833
X36000Y7333
X37000Y7333
X37000Y5833
X36000Y5833
X33650Y3833
X32650Y3833
X35950Y15833
X36950Y15833
X36950Y17333
X35950Y17333
X35950Y18833
X36950Y18833
X36650Y20333
X36650Y21333
X27150Y21783
X27150Y20783
X14650Y7033
X14650Y6033
X16150Y4333
X16150Y3333
T03
X31650Y4833
X31650Y5833
X31650Y6833
X31650Y7833
X31650Y8833
X31650Y9833
X31650Y10833
X31650Y11833
X31650Y13833
X31650Y14833
X31650Y15833
X31650Y16833
X31650Y17833
X31650Y18833
X31650Y19833
X31650Y20833
X34650Y20833
X34650Y19833
X34650Y18833
X34650Y17833
X34650Y16833
X34650Y15833
X34650Y14833
X34650Y13833
X34650Y11833
X34650Y10833
X34650Y9833
X34650Y8833
X34650Y7833
X34650Y6833
X34650Y5833
X34650Y4833
T04
X29150Y9533
X28150Y9533
X27150Y9533
X26150Y9533
X25150Y9533
X24150Y9533
X23150Y9533
X22150Y9533
X21150Y9533
X20150Y9533
X19150Y9533
X18150Y9533
X17150Y9533
X16150Y9533
X15150Y9533
X14150Y9533
X13150Y9533
X12150Y9533
X11150Y9533
X10150Y9533
X9150Y9533
X8150Y9533
X7150Y9533
X6150Y9533
X5150Y9533
X4150Y9533
X3150Y9533
X2150Y9533
X2150Y11033
X3150Y11033
X4150Y11033
X5150Y11033
X6150Y11033
X7150Y11033
X8150Y11033
X9150Y11033
X10150Y11033
X11150Y11033
X12150Y11033
X13150Y11033
X14150Y11033
X15150Y11033
X16150Y11033
X17150Y11033
X18150Y11033
X19150Y11033
X20150Y11033
X21150Y11033
X21150Y17033
X20150Y17033
X19150Y17033
X18150Y17033
X17150Y17033
X16150Y17033
X15150Y17033
X14150Y17033
X13150Y17033
X12150Y17033
X11150Y17033
X10150Y17033
X9150Y17033
X8150Y17033
X7150Y17033
X6150Y17033
X5150Y17033
X4150Y17033
X3150Y17033
X2150Y17033
X2150Y18533
X3150Y18533
X4150Y18533
X5150Y18533
X6150Y18533
X7150Y18533
X8150Y18533
X9150Y18533
X10150Y18533
X11150Y18533
X12150Y18533
X13150Y18533
X14150Y18533
X15150Y18533
X16150Y18533
X17150Y18533
X18150Y18533
X19150Y18533
X20150Y18533
X21150Y18533
X22150Y18533
X23150Y18533
X24150Y18533
X25150Y18533
X26150Y18533
X27150Y18533
X28150Y18533
X29150Y18533
X11650Y6833
X10650Y6833
X9650Y6833
T05
X11150Y4333
X12150Y4333
X13150Y4333
X17150Y4383
X17150Y3383
X18150Y3383
X19150Y3383
X20150Y3383
X20150Y4383
X19150Y4383
X18150Y4383
X18150Y5383
X19150Y5383
X20150Y5383
X21150Y5383
X22150Y5383
X22150Y4383
X22150Y3383
X21150Y3383
X21150Y4383
X23150Y4383
X23150Y3383
X24150Y3383
X24150Y4383
X25150Y4383
X25150Y3383
X26150Y3383
X27150Y3383
X27150Y4383
X26150Y4383
X26150Y5383
X25150Y5383
X24150Y5383
X23150Y5383
X27150Y5383
X28150Y5383
X28150Y4383
X28150Y3383
X30650Y4333
X36150Y4333
X26150Y19783
X25150Y19783
X24150Y19783
X23150Y19783
X22150Y19783
X21150Y19683
X20150Y19783
X19150Y19683
X18150Y19783
X17150Y19683
X16150Y19783
X15150Y19783
X14150Y19783
X13150Y19783
X12150Y19783
X11150Y19783
X10150Y19783
X9150Y19783
X8150Y19783
X7150Y19783
X6150Y19783
X6150Y20783
X6150Y21783
X7150Y21783
X7150Y20783
X8150Y20783
X8150Y21783
X9150Y21783
X9150Y20783
X10150Y20783
X10150Y21783
X11150Y21783
X11150Y20783
X12150Y20783
X13150Y20783
X13150Y21783
X12150Y21783
X14150Y21783
X14150Y20783
X15150Y20783
X15150Y21783
X22150Y21783
X22150Y20783
X23150Y20783
X24150Y20783
X24150Y21783
X23150Y21783
X25150Y21783
X25150Y20783
X26150Y20783
X26150Y21783
X17150Y5383
T06
X9528Y4233
X8150Y4233
X39650Y6183
X39650Y7561
X39650Y8939
X39650Y10533
X39650Y11911
X39650Y13533
X39650Y14911
X39650Y16289
X39650Y17883
X39650Y19261
T07
X3206Y3402
X3100Y21833
X39600Y21833
X39600Y3333
T08
X7050Y7253
X5870Y5283
X4690Y7253
M30
