G75*
G70*
%OFA0B0*%
%FSLAX24Y24*%
%IPPOS*%
%LPD*%
%AMOC8*
5,1,8,0,0,1.08239X$1,22.5*
%
%ADD10C,0.0100*%
%ADD11C,0.0000*%
%ADD12C,0.0060*%
%ADD13C,0.0160*%
%ADD14C,0.0110*%
%ADD15C,0.0080*%
%ADD16C,0.0050*%
%ADD17C,0.0040*%
%ADD18C,0.0059*%
D10*
X001035Y001833D02*
X001035Y021333D01*
X046535Y021333D01*
X046535Y001833D01*
X001035Y001833D01*
X009835Y002233D02*
X010185Y002233D01*
X010035Y002083D01*
X010185Y002233D02*
X010035Y002383D01*
X010985Y006233D02*
X011185Y006333D01*
X011085Y006533D01*
X011185Y006333D02*
X010235Y006633D01*
X008035Y007333D02*
X008035Y008333D01*
X007035Y008333D01*
X007035Y007333D01*
X008035Y007333D01*
X035035Y007333D01*
X035035Y017333D01*
X007035Y017333D01*
X007035Y008333D01*
X007035Y009333D02*
X007035Y010333D01*
X008035Y010333D01*
X008035Y009333D01*
X027035Y009333D01*
X027035Y016333D01*
X007035Y016333D01*
X007035Y010333D01*
X007035Y009333D02*
X008035Y009333D01*
X001835Y012483D02*
X001835Y014833D01*
X002335Y014833D01*
X002135Y014633D01*
X002335Y014833D02*
X002135Y015033D01*
X001835Y014833D02*
X001835Y018783D01*
X004035Y020583D02*
X004385Y020933D01*
X006135Y020933D01*
X007835Y020933D02*
X009685Y020933D01*
X010035Y020583D01*
X008735Y019133D02*
X008535Y019333D01*
X008335Y019133D01*
X008535Y019333D02*
X008535Y018933D01*
X007735Y019133D02*
X007535Y018933D01*
X007335Y019133D01*
X007535Y019333D02*
X007535Y018933D01*
X029435Y006383D02*
X029985Y006933D01*
X033035Y006933D01*
X033585Y006383D01*
X034135Y006383D01*
X034535Y005983D01*
X034535Y005533D01*
X029435Y006383D02*
X022585Y006383D01*
X022135Y005933D01*
X022135Y001833D01*
X043035Y005183D02*
X043285Y004933D01*
X043535Y004933D01*
X043035Y005183D02*
X043035Y005583D01*
X043035Y006683D02*
X043035Y007033D01*
X043235Y007233D01*
X043535Y007233D01*
X043535Y009133D02*
X043285Y009133D01*
X043035Y009383D01*
X043035Y009483D01*
X043135Y010583D02*
X043135Y010883D01*
X043485Y011233D01*
X043535Y011233D01*
X043535Y011833D02*
X043335Y011833D01*
X043035Y012133D01*
X043035Y012483D01*
X043035Y013583D02*
X043035Y013833D01*
X043285Y014083D01*
X043535Y014083D01*
X043535Y016033D02*
X043285Y016033D01*
X043035Y016283D01*
X043035Y016583D01*
X043035Y017633D02*
X043035Y017933D01*
X043285Y018183D01*
X043535Y018183D01*
X035935Y017733D02*
X035935Y017033D01*
X035935Y017733D02*
X035635Y018033D01*
X035285Y018033D01*
X035435Y017883D01*
X035285Y018033D02*
X035435Y018183D01*
D11*
X044355Y020333D02*
X044357Y020383D01*
X044363Y020433D01*
X044373Y020482D01*
X044387Y020530D01*
X044404Y020577D01*
X044425Y020622D01*
X044450Y020666D01*
X044478Y020707D01*
X044510Y020746D01*
X044544Y020783D01*
X044581Y020817D01*
X044621Y020847D01*
X044663Y020874D01*
X044707Y020898D01*
X044753Y020919D01*
X044800Y020935D01*
X044848Y020948D01*
X044898Y020957D01*
X044947Y020962D01*
X044998Y020963D01*
X045048Y020960D01*
X045097Y020953D01*
X045146Y020942D01*
X045194Y020927D01*
X045240Y020909D01*
X045285Y020887D01*
X045328Y020861D01*
X045369Y020832D01*
X045408Y020800D01*
X045444Y020765D01*
X045476Y020727D01*
X045506Y020687D01*
X045533Y020644D01*
X045556Y020600D01*
X045575Y020554D01*
X045591Y020506D01*
X045603Y020457D01*
X045611Y020408D01*
X045615Y020358D01*
X045615Y020308D01*
X045611Y020258D01*
X045603Y020209D01*
X045591Y020160D01*
X045575Y020112D01*
X045556Y020066D01*
X045533Y020022D01*
X045506Y019979D01*
X045476Y019939D01*
X045444Y019901D01*
X045408Y019866D01*
X045369Y019834D01*
X045328Y019805D01*
X045285Y019779D01*
X045240Y019757D01*
X045194Y019739D01*
X045146Y019724D01*
X045097Y019713D01*
X045048Y019706D01*
X044998Y019703D01*
X044947Y019704D01*
X044898Y019709D01*
X044848Y019718D01*
X044800Y019731D01*
X044753Y019747D01*
X044707Y019768D01*
X044663Y019792D01*
X044621Y019819D01*
X044581Y019849D01*
X044544Y019883D01*
X044510Y019920D01*
X044478Y019959D01*
X044450Y020000D01*
X044425Y020044D01*
X044404Y020089D01*
X044387Y020136D01*
X044373Y020184D01*
X044363Y020233D01*
X044357Y020283D01*
X044355Y020333D01*
X044355Y002833D02*
X044357Y002883D01*
X044363Y002933D01*
X044373Y002982D01*
X044387Y003030D01*
X044404Y003077D01*
X044425Y003122D01*
X044450Y003166D01*
X044478Y003207D01*
X044510Y003246D01*
X044544Y003283D01*
X044581Y003317D01*
X044621Y003347D01*
X044663Y003374D01*
X044707Y003398D01*
X044753Y003419D01*
X044800Y003435D01*
X044848Y003448D01*
X044898Y003457D01*
X044947Y003462D01*
X044998Y003463D01*
X045048Y003460D01*
X045097Y003453D01*
X045146Y003442D01*
X045194Y003427D01*
X045240Y003409D01*
X045285Y003387D01*
X045328Y003361D01*
X045369Y003332D01*
X045408Y003300D01*
X045444Y003265D01*
X045476Y003227D01*
X045506Y003187D01*
X045533Y003144D01*
X045556Y003100D01*
X045575Y003054D01*
X045591Y003006D01*
X045603Y002957D01*
X045611Y002908D01*
X045615Y002858D01*
X045615Y002808D01*
X045611Y002758D01*
X045603Y002709D01*
X045591Y002660D01*
X045575Y002612D01*
X045556Y002566D01*
X045533Y002522D01*
X045506Y002479D01*
X045476Y002439D01*
X045444Y002401D01*
X045408Y002366D01*
X045369Y002334D01*
X045328Y002305D01*
X045285Y002279D01*
X045240Y002257D01*
X045194Y002239D01*
X045146Y002224D01*
X045097Y002213D01*
X045048Y002206D01*
X044998Y002203D01*
X044947Y002204D01*
X044898Y002209D01*
X044848Y002218D01*
X044800Y002231D01*
X044753Y002247D01*
X044707Y002268D01*
X044663Y002292D01*
X044621Y002319D01*
X044581Y002349D01*
X044544Y002383D01*
X044510Y002420D01*
X044478Y002459D01*
X044450Y002500D01*
X044425Y002544D01*
X044404Y002589D01*
X044387Y002636D01*
X044373Y002684D01*
X044363Y002733D01*
X044357Y002783D01*
X044355Y002833D01*
X001905Y002833D02*
X001907Y002883D01*
X001913Y002933D01*
X001923Y002982D01*
X001937Y003030D01*
X001954Y003077D01*
X001975Y003122D01*
X002000Y003166D01*
X002028Y003207D01*
X002060Y003246D01*
X002094Y003283D01*
X002131Y003317D01*
X002171Y003347D01*
X002213Y003374D01*
X002257Y003398D01*
X002303Y003419D01*
X002350Y003435D01*
X002398Y003448D01*
X002448Y003457D01*
X002497Y003462D01*
X002548Y003463D01*
X002598Y003460D01*
X002647Y003453D01*
X002696Y003442D01*
X002744Y003427D01*
X002790Y003409D01*
X002835Y003387D01*
X002878Y003361D01*
X002919Y003332D01*
X002958Y003300D01*
X002994Y003265D01*
X003026Y003227D01*
X003056Y003187D01*
X003083Y003144D01*
X003106Y003100D01*
X003125Y003054D01*
X003141Y003006D01*
X003153Y002957D01*
X003161Y002908D01*
X003165Y002858D01*
X003165Y002808D01*
X003161Y002758D01*
X003153Y002709D01*
X003141Y002660D01*
X003125Y002612D01*
X003106Y002566D01*
X003083Y002522D01*
X003056Y002479D01*
X003026Y002439D01*
X002994Y002401D01*
X002958Y002366D01*
X002919Y002334D01*
X002878Y002305D01*
X002835Y002279D01*
X002790Y002257D01*
X002744Y002239D01*
X002696Y002224D01*
X002647Y002213D01*
X002598Y002206D01*
X002548Y002203D01*
X002497Y002204D01*
X002448Y002209D01*
X002398Y002218D01*
X002350Y002231D01*
X002303Y002247D01*
X002257Y002268D01*
X002213Y002292D01*
X002171Y002319D01*
X002131Y002349D01*
X002094Y002383D01*
X002060Y002420D01*
X002028Y002459D01*
X002000Y002500D01*
X001975Y002544D01*
X001954Y002589D01*
X001937Y002636D01*
X001923Y002684D01*
X001913Y002733D01*
X001907Y002783D01*
X001905Y002833D01*
X001855Y020333D02*
X001857Y020383D01*
X001863Y020433D01*
X001873Y020482D01*
X001887Y020530D01*
X001904Y020577D01*
X001925Y020622D01*
X001950Y020666D01*
X001978Y020707D01*
X002010Y020746D01*
X002044Y020783D01*
X002081Y020817D01*
X002121Y020847D01*
X002163Y020874D01*
X002207Y020898D01*
X002253Y020919D01*
X002300Y020935D01*
X002348Y020948D01*
X002398Y020957D01*
X002447Y020962D01*
X002498Y020963D01*
X002548Y020960D01*
X002597Y020953D01*
X002646Y020942D01*
X002694Y020927D01*
X002740Y020909D01*
X002785Y020887D01*
X002828Y020861D01*
X002869Y020832D01*
X002908Y020800D01*
X002944Y020765D01*
X002976Y020727D01*
X003006Y020687D01*
X003033Y020644D01*
X003056Y020600D01*
X003075Y020554D01*
X003091Y020506D01*
X003103Y020457D01*
X003111Y020408D01*
X003115Y020358D01*
X003115Y020308D01*
X003111Y020258D01*
X003103Y020209D01*
X003091Y020160D01*
X003075Y020112D01*
X003056Y020066D01*
X003033Y020022D01*
X003006Y019979D01*
X002976Y019939D01*
X002944Y019901D01*
X002908Y019866D01*
X002869Y019834D01*
X002828Y019805D01*
X002785Y019779D01*
X002740Y019757D01*
X002694Y019739D01*
X002646Y019724D01*
X002597Y019713D01*
X002548Y019706D01*
X002498Y019703D01*
X002447Y019704D01*
X002398Y019709D01*
X002348Y019718D01*
X002300Y019731D01*
X002253Y019747D01*
X002207Y019768D01*
X002163Y019792D01*
X002121Y019819D01*
X002081Y019849D01*
X002044Y019883D01*
X002010Y019920D01*
X001978Y019959D01*
X001950Y020000D01*
X001925Y020044D01*
X001904Y020089D01*
X001887Y020136D01*
X001873Y020184D01*
X001863Y020233D01*
X001857Y020283D01*
X001855Y020333D01*
D12*
X004042Y019347D02*
X004042Y019120D01*
X004098Y019063D01*
X004268Y019063D01*
X004268Y019403D01*
X004098Y019403D01*
X004042Y019347D01*
X004410Y019403D02*
X004410Y019063D01*
X004637Y019063D02*
X004410Y019403D01*
X004637Y019403D02*
X004637Y019063D01*
X004778Y019120D02*
X004835Y019063D01*
X004948Y019063D01*
X005005Y019120D01*
X005005Y019347D01*
X004948Y019403D01*
X004835Y019403D01*
X004778Y019347D01*
X004778Y019233D01*
X004892Y019233D01*
X004835Y018803D02*
X005005Y018803D01*
X005005Y018463D01*
X004835Y018463D01*
X004778Y018520D01*
X004778Y018576D01*
X004835Y018633D01*
X005005Y018633D01*
X004835Y018633D02*
X004778Y018690D01*
X004778Y018747D01*
X004835Y018803D01*
X004637Y018803D02*
X004637Y018463D01*
X004637Y018803D02*
X004410Y018803D01*
X004268Y018803D02*
X004268Y018463D01*
X004212Y018633D02*
X004042Y018803D01*
X004268Y018690D02*
X004042Y018463D01*
X004141Y018054D02*
X004254Y018054D01*
X004311Y017997D01*
X004311Y017940D01*
X004254Y017883D01*
X004141Y017883D01*
X004084Y017940D01*
X004084Y017997D01*
X004141Y018054D01*
X004141Y017883D02*
X004084Y017827D01*
X004084Y017770D01*
X004141Y017713D01*
X004254Y017713D01*
X004311Y017770D01*
X004311Y017827D01*
X004254Y017883D01*
X004452Y017940D02*
X004509Y017883D01*
X004622Y017883D01*
X004679Y017827D01*
X004679Y017770D01*
X004622Y017713D01*
X004509Y017713D01*
X004452Y017770D01*
X004452Y017940D02*
X004452Y017997D01*
X004509Y018054D01*
X004622Y018054D01*
X004679Y017997D01*
X004820Y018054D02*
X004991Y018054D01*
X005047Y017997D01*
X005047Y017883D01*
X004991Y017827D01*
X004820Y017827D01*
X004820Y017713D02*
X004820Y018054D01*
X004934Y017827D02*
X005047Y017713D01*
X005189Y017883D02*
X005416Y017883D01*
X005557Y017883D02*
X005670Y017940D01*
X005727Y017940D01*
X005784Y017883D01*
X005784Y017770D01*
X005727Y017713D01*
X005614Y017713D01*
X005557Y017770D01*
X005557Y017883D02*
X005557Y018054D01*
X005784Y018054D01*
X007365Y018163D02*
X007365Y018333D01*
X007421Y018390D01*
X007535Y018390D01*
X007592Y018333D01*
X007592Y018163D01*
X007705Y018163D02*
X007365Y018163D01*
X007592Y018277D02*
X007705Y018390D01*
X007705Y018532D02*
X007365Y018759D01*
X007365Y018532D02*
X007705Y018759D01*
X008365Y018759D02*
X008705Y018532D01*
X008705Y018759D02*
X008365Y018532D01*
X008365Y018390D02*
X008365Y018163D01*
X008365Y018277D02*
X008705Y018277D01*
X008964Y018147D02*
X008964Y018033D01*
X009078Y018033D01*
X009191Y017920D02*
X009191Y018147D01*
X009134Y018203D01*
X009021Y018203D01*
X008964Y018147D01*
X008964Y017920D02*
X009021Y017863D01*
X009134Y017863D01*
X009191Y017920D01*
X009323Y017863D02*
X009437Y017863D01*
X009380Y017863D02*
X009380Y018203D01*
X009437Y018203D02*
X009323Y018203D01*
X009578Y018147D02*
X009635Y018203D01*
X009748Y018203D01*
X009805Y018147D01*
X009748Y018033D02*
X009805Y017976D01*
X009805Y017920D01*
X009748Y017863D01*
X009635Y017863D01*
X009578Y017920D01*
X009635Y018033D02*
X009578Y018090D01*
X009578Y018147D01*
X009635Y018033D02*
X009748Y018033D01*
X009798Y018863D02*
X009685Y018863D01*
X009628Y018920D01*
X009628Y018976D01*
X009685Y019033D01*
X009628Y019090D01*
X009628Y019147D01*
X009685Y019203D01*
X009798Y019203D01*
X009855Y019147D01*
X009742Y019033D02*
X009685Y019033D01*
X009855Y018920D02*
X009798Y018863D01*
X009487Y018863D02*
X009487Y019090D01*
X009373Y019203D01*
X009260Y019090D01*
X009260Y018863D01*
X009118Y018920D02*
X009062Y018863D01*
X008948Y018863D01*
X008892Y018920D01*
X008892Y018976D01*
X008948Y019033D01*
X008892Y019090D01*
X008892Y019147D01*
X008948Y019203D01*
X009062Y019203D01*
X009118Y019147D01*
X009005Y019033D02*
X008948Y019033D01*
X010267Y020663D02*
X010380Y020663D01*
X010437Y020720D01*
X010437Y020776D01*
X010380Y020833D01*
X010210Y020833D01*
X010210Y020720D02*
X010210Y020947D01*
X010267Y021003D01*
X010380Y021003D01*
X010437Y020947D01*
X010578Y021003D02*
X010805Y021003D01*
X010578Y020776D01*
X010578Y020720D01*
X010635Y020663D01*
X010748Y020663D01*
X010805Y020720D01*
X011210Y020720D02*
X011210Y020776D01*
X011267Y020833D01*
X011380Y020833D01*
X011437Y020776D01*
X011437Y020720D01*
X011380Y020663D01*
X011267Y020663D01*
X011210Y020720D01*
X011267Y020833D02*
X011210Y020890D01*
X011210Y020947D01*
X011267Y021003D01*
X011380Y021003D01*
X011437Y020947D01*
X011437Y020890D01*
X011380Y020833D01*
X011578Y020776D02*
X011578Y020720D01*
X011635Y020663D01*
X011748Y020663D01*
X011805Y020720D01*
X011578Y020776D02*
X011805Y021003D01*
X011578Y021003D01*
X012210Y020947D02*
X012210Y020720D01*
X012437Y020947D01*
X012380Y021003D01*
X012267Y021003D01*
X012210Y020947D01*
X012437Y020947D02*
X012437Y020720D01*
X012380Y020663D01*
X012267Y020663D01*
X012210Y020720D01*
X012578Y020776D02*
X012578Y021003D01*
X012578Y020833D02*
X012805Y020833D01*
X012805Y020776D02*
X012805Y021003D01*
X012805Y020776D02*
X012692Y020663D01*
X012578Y020776D01*
X013210Y021003D02*
X013437Y021003D01*
X013323Y021003D02*
X013323Y020663D01*
X013437Y020776D01*
X013578Y020776D02*
X013578Y021003D01*
X013578Y020833D02*
X013805Y020833D01*
X013805Y020776D02*
X013805Y021003D01*
X013805Y020776D02*
X013692Y020663D01*
X013578Y020776D01*
X014210Y020776D02*
X014437Y021003D01*
X014210Y021003D01*
X014210Y020776D02*
X014210Y020720D01*
X014267Y020663D01*
X014380Y020663D01*
X014437Y020720D01*
X014578Y020776D02*
X014578Y021003D01*
X014578Y020833D02*
X014805Y020833D01*
X014805Y020776D02*
X014805Y021003D01*
X014805Y020776D02*
X014692Y020663D01*
X014578Y020776D01*
X015210Y020776D02*
X015267Y020833D01*
X015210Y020890D01*
X015210Y020947D01*
X015267Y021003D01*
X015380Y021003D01*
X015437Y020947D01*
X015578Y021003D02*
X015578Y020776D01*
X015692Y020663D01*
X015805Y020776D01*
X015805Y021003D01*
X015805Y020833D02*
X015578Y020833D01*
X015437Y020720D02*
X015380Y020663D01*
X015267Y020663D01*
X015210Y020720D01*
X015210Y020776D01*
X015267Y020833D02*
X015323Y020833D01*
X016210Y020833D02*
X016437Y020833D01*
X016267Y020663D01*
X016267Y021003D01*
X016578Y021003D02*
X016578Y020776D01*
X016692Y020663D01*
X016805Y020776D01*
X016805Y021003D01*
X016805Y020833D02*
X016578Y020833D01*
X017210Y020833D02*
X017267Y020776D01*
X017323Y020776D01*
X017437Y020833D01*
X017437Y020663D01*
X017210Y020663D01*
X017210Y020833D02*
X017210Y020947D01*
X017267Y021003D01*
X017380Y021003D01*
X017437Y020947D01*
X017578Y021003D02*
X017578Y020776D01*
X017692Y020663D01*
X017805Y020776D01*
X017805Y021003D01*
X017805Y020833D02*
X017578Y020833D01*
X018210Y020890D02*
X018267Y020833D01*
X018437Y020833D01*
X018437Y020947D01*
X018380Y021003D01*
X018267Y021003D01*
X018210Y020947D01*
X018210Y020890D01*
X018323Y020720D02*
X018437Y020833D01*
X018578Y020833D02*
X018805Y020833D01*
X018805Y020776D02*
X018805Y021003D01*
X018805Y020776D02*
X018692Y020663D01*
X018578Y020776D01*
X018578Y021003D01*
X018323Y020720D02*
X018210Y020663D01*
X019210Y020663D02*
X019210Y020720D01*
X019437Y020947D01*
X019437Y021003D01*
X019578Y021003D02*
X019578Y020776D01*
X019692Y020663D01*
X019805Y020776D01*
X019805Y021003D01*
X019805Y020833D02*
X019578Y020833D01*
X019437Y020663D02*
X019210Y020663D01*
X020210Y020720D02*
X020210Y020776D01*
X020267Y020833D01*
X020380Y020833D01*
X020437Y020776D01*
X020437Y020720D01*
X020380Y020663D01*
X020267Y020663D01*
X020210Y020720D01*
X020267Y020833D02*
X020210Y020890D01*
X020210Y020947D01*
X020267Y021003D01*
X020380Y021003D01*
X020437Y020947D01*
X020437Y020890D01*
X020380Y020833D01*
X020578Y020833D02*
X020805Y020833D01*
X020805Y020776D02*
X020805Y021003D01*
X020805Y020776D02*
X020692Y020663D01*
X020578Y020776D01*
X020578Y021003D01*
X021210Y020947D02*
X021210Y020720D01*
X021267Y020663D01*
X021380Y020663D01*
X021437Y020720D01*
X021437Y020776D01*
X021380Y020833D01*
X021210Y020833D01*
X021210Y020947D02*
X021267Y021003D01*
X021380Y021003D01*
X021437Y020947D01*
X021578Y021003D02*
X021578Y020776D01*
X021692Y020663D01*
X021805Y020776D01*
X021805Y021003D01*
X021805Y020833D02*
X021578Y020833D01*
X022142Y020910D02*
X022142Y020736D01*
X022186Y020693D01*
X022316Y020693D01*
X022316Y020953D01*
X022186Y020953D01*
X022142Y020910D01*
X022437Y020953D02*
X022437Y020693D01*
X022610Y020693D02*
X022437Y020953D01*
X022610Y020953D02*
X022610Y020693D01*
X022732Y020736D02*
X022775Y020693D01*
X022862Y020693D01*
X022905Y020736D01*
X022905Y020910D01*
X022862Y020953D01*
X022775Y020953D01*
X022732Y020910D01*
X022732Y020823D01*
X022818Y020823D01*
X023142Y020780D02*
X023186Y020823D01*
X023142Y020867D01*
X023142Y020910D01*
X023186Y020953D01*
X023272Y020953D01*
X023316Y020910D01*
X023229Y020823D02*
X023186Y020823D01*
X023142Y020780D02*
X023142Y020736D01*
X023186Y020693D01*
X023272Y020693D01*
X023316Y020736D01*
X023437Y020693D02*
X023437Y020867D01*
X023524Y020953D01*
X023610Y020867D01*
X023610Y020693D01*
X023732Y020736D02*
X023732Y020780D01*
X023775Y020823D01*
X023732Y020867D01*
X023732Y020910D01*
X023775Y020953D01*
X023862Y020953D01*
X023905Y020910D01*
X023818Y020823D02*
X023775Y020823D01*
X023732Y020736D02*
X023775Y020693D01*
X023862Y020693D01*
X023905Y020736D01*
X024142Y020693D02*
X024316Y020693D01*
X024229Y020693D02*
X024229Y020953D01*
X024437Y020910D02*
X024480Y020953D01*
X024567Y020953D01*
X024610Y020910D01*
X024567Y020823D02*
X024480Y020823D01*
X024437Y020867D01*
X024437Y020910D01*
X024567Y020823D02*
X024610Y020780D01*
X024610Y020736D01*
X024567Y020693D01*
X024480Y020693D01*
X024437Y020736D01*
X024732Y020736D02*
X024732Y020823D01*
X024775Y020867D01*
X024905Y020867D01*
X024905Y020953D02*
X024905Y020693D01*
X024775Y020693D01*
X024732Y020736D01*
X024818Y020867D02*
X024732Y020953D01*
X025142Y020910D02*
X025142Y020736D01*
X025316Y020910D01*
X025272Y020953D01*
X025186Y020953D01*
X025142Y020910D01*
X025142Y020736D02*
X025186Y020693D01*
X025272Y020693D01*
X025316Y020736D01*
X025316Y020910D01*
X025437Y020953D02*
X025610Y020953D01*
X025524Y020953D02*
X025524Y020693D01*
X025610Y020780D01*
X025732Y020780D02*
X025732Y020953D01*
X025732Y020823D02*
X025905Y020823D01*
X025905Y020780D02*
X025905Y020953D01*
X025905Y020780D02*
X025818Y020693D01*
X025732Y020780D01*
X026142Y020953D02*
X026316Y020953D01*
X026229Y020953D02*
X026229Y020693D01*
X026316Y020780D01*
X026437Y020953D02*
X026610Y020953D01*
X026524Y020953D02*
X026524Y020693D01*
X026610Y020780D01*
X026732Y020780D02*
X026732Y020953D01*
X026732Y020823D02*
X026905Y020823D01*
X026905Y020780D02*
X026905Y020953D01*
X026905Y020780D02*
X026818Y020693D01*
X026732Y020780D01*
X027142Y020780D02*
X027316Y020953D01*
X027142Y020953D01*
X027142Y020780D02*
X027142Y020736D01*
X027186Y020693D01*
X027272Y020693D01*
X027316Y020736D01*
X027524Y020693D02*
X027524Y020953D01*
X027610Y020953D02*
X027437Y020953D01*
X027610Y020780D02*
X027524Y020693D01*
X027732Y020780D02*
X027732Y020953D01*
X027732Y020823D02*
X027905Y020823D01*
X027905Y020780D02*
X027905Y020953D01*
X027905Y020780D02*
X027818Y020693D01*
X027732Y020780D01*
X028142Y020780D02*
X028186Y020823D01*
X028142Y020867D01*
X028142Y020910D01*
X028186Y020953D01*
X028272Y020953D01*
X028316Y020910D01*
X028229Y020823D02*
X028186Y020823D01*
X028142Y020780D02*
X028142Y020736D01*
X028186Y020693D01*
X028272Y020693D01*
X028316Y020736D01*
X028524Y020693D02*
X028524Y020953D01*
X028610Y020953D02*
X028437Y020953D01*
X028610Y020780D02*
X028524Y020693D01*
X028732Y020780D02*
X028732Y020953D01*
X028732Y020823D02*
X028905Y020823D01*
X028905Y020780D02*
X028905Y020953D01*
X028905Y020780D02*
X028818Y020693D01*
X028732Y020780D01*
X029142Y020823D02*
X029316Y020823D01*
X029186Y020693D01*
X029186Y020953D01*
X029437Y020953D02*
X029610Y020953D01*
X029524Y020953D02*
X029524Y020693D01*
X029610Y020780D01*
X029732Y020780D02*
X029732Y020953D01*
X029732Y020823D02*
X029905Y020823D01*
X029905Y020780D02*
X029905Y020953D01*
X029905Y020780D02*
X029818Y020693D01*
X029732Y020780D01*
X030210Y020720D02*
X030437Y020947D01*
X030437Y021003D01*
X030578Y021003D02*
X030805Y021003D01*
X030578Y020776D01*
X030578Y020720D01*
X030635Y020663D01*
X030748Y020663D01*
X030805Y020720D01*
X030437Y020663D02*
X030210Y020663D01*
X030210Y020720D01*
X031210Y020663D02*
X031323Y020720D01*
X031437Y020833D01*
X031267Y020833D01*
X031210Y020890D01*
X031210Y020947D01*
X031267Y021003D01*
X031380Y021003D01*
X031437Y020947D01*
X031437Y020833D01*
X031578Y020776D02*
X031578Y020720D01*
X031635Y020663D01*
X031748Y020663D01*
X031805Y020720D01*
X031578Y020776D02*
X031805Y021003D01*
X031578Y021003D01*
X032210Y020947D02*
X032267Y021003D01*
X032380Y021003D01*
X032437Y020947D01*
X032437Y020833D02*
X032323Y020776D01*
X032267Y020776D01*
X032210Y020833D01*
X032210Y020947D01*
X032437Y020833D02*
X032437Y020663D01*
X032210Y020663D01*
X032578Y020720D02*
X032635Y020663D01*
X032748Y020663D01*
X032805Y020720D01*
X032578Y020720D02*
X032578Y020776D01*
X032805Y021003D01*
X032578Y021003D01*
X033210Y020833D02*
X033437Y020833D01*
X033267Y020663D01*
X033267Y021003D01*
X033578Y021003D02*
X033805Y021003D01*
X033578Y020776D01*
X033578Y020720D01*
X033635Y020663D01*
X033748Y020663D01*
X033805Y020720D01*
X034298Y020203D02*
X034242Y020147D01*
X034242Y019920D01*
X034298Y019863D01*
X034468Y019863D01*
X034468Y020203D01*
X034298Y020203D01*
X034610Y020203D02*
X034610Y019863D01*
X034837Y019863D02*
X034610Y020203D01*
X034837Y020203D02*
X034837Y019863D01*
X034978Y019920D02*
X035035Y019863D01*
X035148Y019863D01*
X035205Y019920D01*
X035205Y020147D01*
X035148Y020203D01*
X035035Y020203D01*
X034978Y020147D01*
X034978Y020033D01*
X035092Y020033D01*
X035130Y019203D02*
X035187Y019147D01*
X035130Y019203D02*
X035017Y019203D01*
X034960Y019147D01*
X034960Y019090D01*
X035017Y019033D01*
X035073Y019033D01*
X035017Y019033D02*
X034960Y018976D01*
X034960Y018920D01*
X035017Y018863D01*
X035130Y018863D01*
X035187Y018920D01*
X035328Y019033D02*
X035555Y019033D01*
X035442Y018920D02*
X035442Y019147D01*
X034818Y019090D02*
X034818Y018863D01*
X034592Y018863D02*
X034592Y019090D01*
X034705Y019203D01*
X034818Y019090D01*
X034450Y019147D02*
X034393Y019203D01*
X034280Y019203D01*
X034223Y019147D01*
X034223Y019090D01*
X034280Y019033D01*
X034337Y019033D01*
X034280Y019033D02*
X034223Y018976D01*
X034223Y018920D01*
X034280Y018863D01*
X034393Y018863D01*
X034450Y018920D01*
X034434Y018203D02*
X034321Y018203D01*
X034264Y018147D01*
X034264Y018033D01*
X034378Y018033D01*
X034491Y017920D02*
X034491Y018147D01*
X034434Y018203D01*
X034623Y018203D02*
X034737Y018203D01*
X034680Y018203D02*
X034680Y017863D01*
X034737Y017863D02*
X034623Y017863D01*
X034491Y017920D02*
X034434Y017863D01*
X034321Y017863D01*
X034264Y017920D01*
X034878Y017920D02*
X034935Y017863D01*
X035048Y017863D01*
X035105Y017920D01*
X035105Y017976D01*
X035048Y018033D01*
X034935Y018033D01*
X034878Y018090D01*
X034878Y018147D01*
X034935Y018203D01*
X035048Y018203D01*
X035105Y018147D01*
X035165Y017014D02*
X035505Y016787D01*
X035505Y016646D02*
X035505Y016475D01*
X035448Y016419D01*
X035335Y016419D01*
X035278Y016475D01*
X035278Y016646D01*
X035562Y016646D01*
X035618Y016589D01*
X035618Y016532D01*
X035765Y016471D02*
X035765Y016357D01*
X035765Y016414D02*
X036105Y016414D01*
X036105Y016357D02*
X036105Y016471D01*
X036048Y016603D02*
X035821Y016603D01*
X035765Y016660D01*
X035765Y016773D01*
X035821Y016830D01*
X036048Y016830D01*
X036105Y016773D01*
X036105Y016660D01*
X036048Y016603D01*
X035935Y016216D02*
X035992Y016159D01*
X035992Y015989D01*
X036105Y015989D02*
X035765Y015989D01*
X035765Y016159D01*
X035821Y016216D01*
X035935Y016216D01*
X035505Y016221D02*
X035448Y016277D01*
X035335Y016277D01*
X035278Y016221D01*
X035278Y016107D01*
X035335Y016050D01*
X035448Y016050D01*
X035505Y016107D01*
X035505Y016221D01*
X035505Y015918D02*
X035505Y015805D01*
X035505Y015862D02*
X035165Y015862D01*
X035165Y015805D01*
X035335Y015663D02*
X035505Y015663D01*
X035505Y015493D01*
X035448Y015437D01*
X035392Y015493D01*
X035392Y015663D01*
X035335Y015663D02*
X035278Y015607D01*
X035278Y015493D01*
X035335Y015295D02*
X035505Y015295D01*
X035335Y015295D02*
X035278Y015238D01*
X035278Y015068D01*
X035505Y015068D01*
X035505Y014927D02*
X035278Y014927D01*
X035165Y014813D01*
X035278Y014700D01*
X035505Y014700D01*
X035335Y014700D02*
X035335Y014927D01*
X035765Y014884D02*
X035992Y014884D01*
X036105Y014998D01*
X035992Y015111D01*
X035765Y015111D01*
X035821Y014743D02*
X035878Y014743D01*
X035935Y014686D01*
X035992Y014743D01*
X036048Y014743D01*
X036105Y014686D01*
X036105Y014573D01*
X036048Y014516D01*
X036048Y014388D02*
X036105Y014388D01*
X036105Y014332D01*
X036048Y014332D01*
X036048Y014388D01*
X036048Y014190D02*
X036105Y014133D01*
X036105Y014020D01*
X036048Y013963D01*
X035935Y014077D02*
X035935Y014133D01*
X035992Y014190D01*
X036048Y014190D01*
X035935Y014133D02*
X035878Y014190D01*
X035821Y014190D01*
X035765Y014133D01*
X035765Y014020D01*
X035821Y013963D01*
X035821Y014516D02*
X035765Y014573D01*
X035765Y014686D01*
X035821Y014743D01*
X035935Y014686D02*
X035935Y014629D01*
X035821Y015621D02*
X036048Y015621D01*
X036105Y015677D01*
X036105Y015791D01*
X036048Y015848D01*
X035935Y015848D01*
X035935Y015734D01*
X035821Y015621D02*
X035765Y015677D01*
X035765Y015791D01*
X035821Y015848D01*
X038115Y015895D02*
X038115Y015668D01*
X038285Y015668D01*
X038228Y015782D01*
X038228Y015838D01*
X038285Y015895D01*
X038398Y015895D01*
X038455Y015838D01*
X038455Y015725D01*
X038398Y015668D01*
X038171Y015527D02*
X038398Y015300D01*
X038455Y015300D01*
X038455Y015159D02*
X038115Y015159D01*
X038115Y015300D02*
X038115Y015527D01*
X038171Y015527D01*
X038455Y015159D02*
X038115Y014932D01*
X038455Y014932D01*
X038398Y014790D02*
X038455Y014733D01*
X038455Y014620D01*
X038398Y014563D01*
X038285Y014620D02*
X038285Y014733D01*
X038342Y014790D01*
X038398Y014790D01*
X038285Y014620D02*
X038228Y014563D01*
X038171Y014563D01*
X038115Y014620D01*
X038115Y014733D01*
X038171Y014790D01*
X038285Y016037D02*
X038285Y016263D01*
X038285Y016405D02*
X038115Y016575D01*
X038455Y016575D01*
X038285Y016632D02*
X038285Y016405D01*
X038455Y016207D02*
X038115Y016207D01*
X038285Y016037D01*
X038228Y016773D02*
X038115Y016887D01*
X038455Y016887D01*
X038455Y017000D02*
X038455Y016773D01*
X038398Y017142D02*
X038171Y017142D01*
X038115Y017198D01*
X038115Y017312D01*
X038171Y017368D01*
X038398Y017142D01*
X038455Y017198D01*
X038455Y017312D01*
X038398Y017368D01*
X038171Y017368D01*
X038115Y017510D02*
X038455Y017737D01*
X038115Y017737D01*
X038115Y017878D02*
X038455Y017878D01*
X038455Y018105D01*
X038285Y017992D02*
X038285Y017878D01*
X038115Y017878D02*
X038115Y018105D01*
X038115Y017510D02*
X038455Y017510D01*
X040915Y017070D02*
X040915Y017013D01*
X040972Y017013D01*
X040972Y017070D01*
X040915Y017070D01*
X041099Y017013D02*
X041326Y017013D01*
X041213Y017013D02*
X041213Y017354D01*
X041099Y017240D01*
X041467Y017240D02*
X041467Y017070D01*
X041524Y017013D01*
X041694Y017013D01*
X041694Y017240D01*
X041836Y017183D02*
X041949Y017183D01*
X041836Y017013D02*
X041836Y017354D01*
X042063Y017354D01*
X042063Y015854D02*
X041836Y015854D01*
X041836Y015513D01*
X041694Y015513D02*
X041694Y015740D01*
X041836Y015683D02*
X041949Y015683D01*
X041694Y015513D02*
X041524Y015513D01*
X041467Y015570D01*
X041467Y015740D01*
X041326Y015513D02*
X041099Y015513D01*
X041213Y015513D02*
X041213Y015854D01*
X041099Y015740D01*
X040972Y015570D02*
X040972Y015513D01*
X040915Y015513D01*
X040915Y015570D01*
X040972Y015570D01*
X041213Y014304D02*
X041213Y013963D01*
X041326Y013963D02*
X041099Y013963D01*
X040972Y013963D02*
X040972Y014020D01*
X040915Y014020D01*
X040915Y013963D01*
X040972Y013963D01*
X041099Y014190D02*
X041213Y014304D01*
X041467Y014190D02*
X041467Y014020D01*
X041524Y013963D01*
X041694Y013963D01*
X041694Y014190D01*
X041836Y014133D02*
X041949Y014133D01*
X041836Y013963D02*
X041836Y014304D01*
X042063Y014304D01*
X040805Y013634D02*
X040465Y013634D01*
X040465Y013861D01*
X040635Y013748D02*
X040635Y013634D01*
X040578Y013493D02*
X040805Y013493D01*
X040805Y013323D01*
X040748Y013266D01*
X040578Y013266D01*
X040805Y013124D02*
X040805Y012897D01*
X040805Y013011D02*
X040465Y013011D01*
X040578Y012897D01*
X040748Y012770D02*
X040805Y012770D01*
X040805Y012713D01*
X040748Y012713D01*
X040748Y012770D01*
X039435Y012333D02*
X038685Y012333D01*
X038683Y012372D01*
X038677Y012411D01*
X038668Y012449D01*
X038655Y012486D01*
X038638Y012522D01*
X038618Y012555D01*
X038594Y012587D01*
X038568Y012616D01*
X038539Y012642D01*
X038507Y012666D01*
X038474Y012686D01*
X038438Y012703D01*
X038401Y012716D01*
X038363Y012725D01*
X038324Y012731D01*
X038285Y012733D01*
X038246Y012731D01*
X038207Y012725D01*
X038169Y012716D01*
X038132Y012703D01*
X038096Y012686D01*
X038063Y012666D01*
X038031Y012642D01*
X038002Y012616D01*
X037976Y012587D01*
X037952Y012555D01*
X037932Y012522D01*
X037915Y012486D01*
X037902Y012449D01*
X037893Y012411D01*
X037887Y012372D01*
X037885Y012333D01*
X037135Y012333D01*
X037135Y020333D01*
X039435Y020333D01*
X039435Y012333D01*
X039458Y011854D02*
X039572Y011854D01*
X039628Y011797D01*
X039402Y011570D01*
X039458Y011513D01*
X039572Y011513D01*
X039628Y011570D01*
X039628Y011797D01*
X039770Y011740D02*
X039770Y011570D01*
X039827Y011513D01*
X039997Y011513D01*
X039997Y011740D01*
X040138Y011683D02*
X040252Y011683D01*
X040138Y011513D02*
X040138Y011854D01*
X040365Y011854D01*
X039458Y011854D02*
X039402Y011797D01*
X039402Y011570D01*
X039260Y011570D02*
X039203Y011513D01*
X039090Y011513D01*
X039033Y011570D01*
X039260Y011797D01*
X039260Y011570D01*
X039033Y011570D02*
X039033Y011797D01*
X039090Y011854D01*
X039203Y011854D01*
X039260Y011797D01*
X038892Y011513D02*
X038665Y011513D01*
X038778Y011513D02*
X038778Y011854D01*
X038665Y011740D01*
X039435Y011333D02*
X037135Y011333D01*
X037135Y003333D01*
X037885Y003333D01*
X037887Y003372D01*
X037893Y003411D01*
X037902Y003449D01*
X037915Y003486D01*
X037932Y003522D01*
X037952Y003555D01*
X037976Y003587D01*
X038002Y003616D01*
X038031Y003642D01*
X038063Y003666D01*
X038096Y003686D01*
X038132Y003703D01*
X038169Y003716D01*
X038207Y003725D01*
X038246Y003731D01*
X038285Y003733D01*
X038324Y003731D01*
X038363Y003725D01*
X038401Y003716D01*
X038438Y003703D01*
X038474Y003686D01*
X038507Y003666D01*
X038539Y003642D01*
X038568Y003616D01*
X038594Y003587D01*
X038618Y003555D01*
X038638Y003522D01*
X038655Y003486D01*
X038668Y003449D01*
X038677Y003411D01*
X038683Y003372D01*
X038685Y003333D01*
X039435Y003333D01*
X039435Y011333D01*
X038455Y009105D02*
X038455Y008878D01*
X038115Y008878D01*
X038115Y009105D01*
X038285Y008992D02*
X038285Y008878D01*
X038455Y008737D02*
X038115Y008737D01*
X038115Y008510D02*
X038455Y008737D01*
X038455Y008510D02*
X038115Y008510D01*
X038171Y008368D02*
X038398Y008142D01*
X038455Y008198D01*
X038455Y008312D01*
X038398Y008368D01*
X038171Y008368D01*
X038115Y008312D01*
X038115Y008198D01*
X038171Y008142D01*
X038398Y008142D01*
X038455Y008000D02*
X038455Y007773D01*
X038455Y007887D02*
X038115Y007887D01*
X038228Y007773D01*
X038285Y007632D02*
X038285Y007405D01*
X038115Y007575D01*
X038455Y007575D01*
X038285Y007263D02*
X038285Y007037D01*
X038115Y007207D01*
X038455Y007207D01*
X038398Y006895D02*
X038455Y006838D01*
X038455Y006725D01*
X038398Y006668D01*
X038285Y006668D02*
X038228Y006782D01*
X038228Y006838D01*
X038285Y006895D01*
X038398Y006895D01*
X038285Y006668D02*
X038115Y006668D01*
X038115Y006895D01*
X038115Y006527D02*
X038171Y006527D01*
X038398Y006300D01*
X038455Y006300D01*
X038455Y006159D02*
X038115Y006159D01*
X038115Y006300D02*
X038115Y006527D01*
X038455Y006159D02*
X038115Y005932D01*
X038455Y005932D01*
X038398Y005790D02*
X038455Y005733D01*
X038455Y005620D01*
X038398Y005563D01*
X038285Y005620D02*
X038285Y005733D01*
X038342Y005790D01*
X038398Y005790D01*
X038285Y005620D02*
X038228Y005563D01*
X038171Y005563D01*
X038115Y005620D01*
X038115Y005733D01*
X038171Y005790D01*
X035556Y005197D02*
X035499Y005254D01*
X035386Y005254D01*
X035329Y005197D01*
X035329Y004970D01*
X035386Y004913D01*
X035499Y004913D01*
X035556Y004970D01*
X035556Y005083D01*
X035442Y005083D01*
X035197Y004913D02*
X035083Y004913D01*
X035140Y004913D02*
X035140Y005254D01*
X035083Y005254D02*
X035197Y005254D01*
X034942Y005197D02*
X034885Y005254D01*
X034772Y005254D01*
X034715Y005197D01*
X034715Y005140D01*
X034772Y005083D01*
X034885Y005083D01*
X034942Y005027D01*
X034942Y004970D01*
X034885Y004913D01*
X034772Y004913D01*
X034715Y004970D01*
X034778Y004147D02*
X034778Y003920D01*
X034665Y004033D02*
X034892Y004033D01*
X035033Y004033D02*
X035147Y004090D01*
X035203Y004090D01*
X035260Y004033D01*
X035260Y003920D01*
X035203Y003863D01*
X035090Y003863D01*
X035033Y003920D01*
X035033Y004033D02*
X035033Y004204D01*
X035260Y004204D01*
X035402Y004204D02*
X035402Y003977D01*
X035515Y003863D01*
X035628Y003977D01*
X035628Y004204D01*
X035572Y003204D02*
X035402Y003204D01*
X035402Y002863D01*
X035572Y002863D01*
X035628Y002920D01*
X035628Y003147D01*
X035572Y003204D01*
X035260Y003204D02*
X035260Y002863D01*
X035033Y003204D01*
X035033Y002863D01*
X034892Y002920D02*
X034892Y003033D01*
X034778Y003033D01*
X034665Y002920D02*
X034722Y002863D01*
X034835Y002863D01*
X034892Y002920D01*
X034892Y003147D02*
X034835Y003204D01*
X034722Y003204D01*
X034665Y003147D01*
X034665Y002920D01*
X034203Y002404D02*
X034260Y002347D01*
X034260Y002290D01*
X034203Y002233D01*
X034260Y002177D01*
X034260Y002120D01*
X034203Y002063D01*
X034090Y002063D01*
X034033Y002120D01*
X033892Y002063D02*
X033665Y002063D01*
X033892Y002290D01*
X033892Y002347D01*
X033835Y002404D01*
X033722Y002404D01*
X033665Y002347D01*
X034033Y002347D02*
X034090Y002404D01*
X034203Y002404D01*
X034203Y002233D02*
X034147Y002233D01*
X033260Y002290D02*
X033260Y002347D01*
X033203Y002404D01*
X033090Y002404D01*
X033033Y002347D01*
X032892Y002347D02*
X032835Y002404D01*
X032722Y002404D01*
X032665Y002347D01*
X032892Y002347D02*
X032892Y002290D01*
X032665Y002063D01*
X032892Y002063D01*
X033033Y002063D02*
X033260Y002290D01*
X033260Y002063D02*
X033033Y002063D01*
X032260Y002063D02*
X032033Y002063D01*
X032147Y002063D02*
X032147Y002404D01*
X032033Y002290D01*
X031892Y002290D02*
X031892Y002347D01*
X031835Y002404D01*
X031722Y002404D01*
X031665Y002347D01*
X031892Y002290D02*
X031665Y002063D01*
X031892Y002063D01*
X031260Y002120D02*
X031260Y002347D01*
X031033Y002120D01*
X031090Y002063D01*
X031203Y002063D01*
X031260Y002120D01*
X031033Y002120D02*
X031033Y002347D01*
X031090Y002404D01*
X031203Y002404D01*
X031260Y002347D01*
X030892Y002347D02*
X030835Y002404D01*
X030722Y002404D01*
X030665Y002347D01*
X030892Y002347D02*
X030892Y002290D01*
X030665Y002063D01*
X030892Y002063D01*
X030160Y002120D02*
X030160Y002347D01*
X030103Y002404D01*
X029990Y002404D01*
X029933Y002347D01*
X029933Y002290D01*
X029990Y002233D01*
X030160Y002233D01*
X030160Y002120D02*
X030103Y002063D01*
X029990Y002063D01*
X029933Y002120D01*
X029792Y002063D02*
X029565Y002063D01*
X029678Y002063D02*
X029678Y002404D01*
X029565Y002290D01*
X029160Y002290D02*
X029160Y002347D01*
X029103Y002404D01*
X028990Y002404D01*
X028933Y002347D01*
X028933Y002290D01*
X028990Y002233D01*
X029103Y002233D01*
X029160Y002177D01*
X029160Y002120D01*
X029103Y002063D01*
X028990Y002063D01*
X028933Y002120D01*
X028933Y002177D01*
X028990Y002233D01*
X029103Y002233D02*
X029160Y002290D01*
X028792Y002063D02*
X028565Y002063D01*
X028678Y002063D02*
X028678Y002404D01*
X028565Y002290D01*
X028160Y002347D02*
X027933Y002120D01*
X027933Y002063D01*
X027792Y002063D02*
X027565Y002063D01*
X027678Y002063D02*
X027678Y002404D01*
X027565Y002290D01*
X027933Y002404D02*
X028160Y002404D01*
X028160Y002347D01*
X027160Y002404D02*
X027047Y002347D01*
X026933Y002233D01*
X027103Y002233D01*
X027160Y002177D01*
X027160Y002120D01*
X027103Y002063D01*
X026990Y002063D01*
X026933Y002120D01*
X026933Y002233D01*
X026792Y002063D02*
X026565Y002063D01*
X026678Y002063D02*
X026678Y002404D01*
X026565Y002290D01*
X026010Y002233D02*
X026010Y002120D01*
X025953Y002063D01*
X025840Y002063D01*
X025783Y002120D01*
X025783Y002233D02*
X025897Y002290D01*
X025953Y002290D01*
X026010Y002233D01*
X026010Y002404D02*
X025783Y002404D01*
X025783Y002233D01*
X025642Y002063D02*
X025415Y002063D01*
X025528Y002063D02*
X025528Y002404D01*
X025415Y002290D01*
X025010Y002233D02*
X024783Y002233D01*
X024953Y002404D01*
X024953Y002063D01*
X024642Y002063D02*
X024415Y002063D01*
X024528Y002063D02*
X024528Y002404D01*
X024415Y002290D01*
X024010Y002290D02*
X024010Y002347D01*
X023953Y002404D01*
X023840Y002404D01*
X023783Y002347D01*
X023897Y002233D02*
X023953Y002233D01*
X024010Y002177D01*
X024010Y002120D01*
X023953Y002063D01*
X023840Y002063D01*
X023783Y002120D01*
X023642Y002063D02*
X023415Y002063D01*
X023528Y002063D02*
X023528Y002404D01*
X023415Y002290D01*
X023010Y002290D02*
X023010Y002347D01*
X022953Y002404D01*
X022840Y002404D01*
X022783Y002347D01*
X023010Y002290D02*
X022783Y002063D01*
X023010Y002063D01*
X022642Y002063D02*
X022415Y002063D01*
X022528Y002063D02*
X022528Y002404D01*
X022415Y002290D01*
X021860Y002063D02*
X021633Y002063D01*
X021747Y002063D02*
X021747Y002404D01*
X021633Y002290D01*
X021492Y002063D02*
X021265Y002063D01*
X021378Y002063D02*
X021378Y002404D01*
X021265Y002290D01*
X020860Y002347D02*
X020633Y002120D01*
X020690Y002063D01*
X020803Y002063D01*
X020860Y002120D01*
X020860Y002347D01*
X020803Y002404D01*
X020690Y002404D01*
X020633Y002347D01*
X020633Y002120D01*
X020492Y002063D02*
X020265Y002063D01*
X020378Y002063D02*
X020378Y002404D01*
X020265Y002290D01*
X019642Y002233D02*
X019472Y002233D01*
X019415Y002290D01*
X019415Y002347D01*
X019472Y002404D01*
X019585Y002404D01*
X019642Y002347D01*
X019642Y002120D01*
X019585Y002063D01*
X019472Y002063D01*
X019415Y002120D01*
X018642Y002120D02*
X018585Y002063D01*
X018472Y002063D01*
X018415Y002120D01*
X018415Y002177D01*
X018472Y002233D01*
X018585Y002233D01*
X018642Y002177D01*
X018642Y002120D01*
X018585Y002233D02*
X018642Y002290D01*
X018642Y002347D01*
X018585Y002404D01*
X018472Y002404D01*
X018415Y002347D01*
X018415Y002290D01*
X018472Y002233D01*
X017642Y002347D02*
X017415Y002120D01*
X017415Y002063D01*
X017415Y002404D02*
X017642Y002404D01*
X017642Y002347D01*
X016642Y002404D02*
X016528Y002347D01*
X016415Y002233D01*
X016585Y002233D01*
X016642Y002177D01*
X016642Y002120D01*
X016585Y002063D01*
X016472Y002063D01*
X016415Y002120D01*
X016415Y002233D01*
X015642Y002233D02*
X015642Y002120D01*
X015585Y002063D01*
X015472Y002063D01*
X015415Y002120D01*
X015415Y002233D02*
X015528Y002290D01*
X015585Y002290D01*
X015642Y002233D01*
X015642Y002404D02*
X015415Y002404D01*
X015415Y002233D01*
X014642Y002233D02*
X014415Y002233D01*
X014585Y002404D01*
X014585Y002063D01*
X013642Y002120D02*
X013585Y002063D01*
X013472Y002063D01*
X013415Y002120D01*
X013528Y002233D02*
X013585Y002233D01*
X013642Y002177D01*
X013642Y002120D01*
X013585Y002233D02*
X013642Y002290D01*
X013642Y002347D01*
X013585Y002404D01*
X013472Y002404D01*
X013415Y002347D01*
X012642Y002347D02*
X012642Y002290D01*
X012415Y002063D01*
X012642Y002063D01*
X012642Y002347D02*
X012585Y002404D01*
X012472Y002404D01*
X012415Y002347D01*
X011642Y002063D02*
X011415Y002063D01*
X011528Y002063D02*
X011528Y002404D01*
X011415Y002290D01*
X010642Y002347D02*
X010415Y002120D01*
X010472Y002063D01*
X010585Y002063D01*
X010642Y002120D01*
X010642Y002347D01*
X010585Y002404D01*
X010472Y002404D01*
X010415Y002347D01*
X010415Y002120D01*
X009697Y002120D02*
X009640Y002063D01*
X009470Y002063D01*
X009470Y002404D01*
X009640Y002404D01*
X009697Y002347D01*
X009697Y002120D01*
X009328Y002120D02*
X009272Y002063D01*
X009158Y002063D01*
X009102Y002120D01*
X009158Y002233D02*
X009272Y002233D01*
X009328Y002177D01*
X009328Y002120D01*
X009158Y002233D02*
X009102Y002290D01*
X009102Y002347D01*
X009158Y002404D01*
X009272Y002404D01*
X009328Y002347D01*
X008960Y002347D02*
X008960Y002290D01*
X008903Y002233D01*
X008733Y002233D01*
X008733Y002063D02*
X008903Y002063D01*
X008960Y002120D01*
X008960Y002177D01*
X008903Y002233D01*
X008960Y002347D02*
X008903Y002404D01*
X008733Y002404D01*
X008733Y002063D01*
X008478Y002233D02*
X008365Y002233D01*
X008365Y002063D02*
X008365Y002404D01*
X008592Y002404D01*
X008922Y002863D02*
X008865Y002920D01*
X008865Y003147D01*
X008922Y003204D01*
X009035Y003204D01*
X009092Y003147D01*
X009092Y003033D02*
X008978Y003033D01*
X009092Y003033D02*
X009092Y002920D01*
X009035Y002863D01*
X008922Y002863D01*
X009233Y002863D02*
X009233Y003204D01*
X009460Y002863D01*
X009460Y003204D01*
X009602Y003204D02*
X009772Y003204D01*
X009828Y003147D01*
X009828Y002920D01*
X009772Y002863D01*
X009602Y002863D01*
X009602Y003204D01*
X009715Y003863D02*
X009828Y003977D01*
X009828Y004204D01*
X009602Y004204D02*
X009602Y003977D01*
X009715Y003863D01*
X009460Y003920D02*
X009403Y003863D01*
X009290Y003863D01*
X009233Y003920D01*
X009233Y004033D02*
X009347Y004090D01*
X009403Y004090D01*
X009460Y004033D01*
X009460Y003920D01*
X009233Y004033D02*
X009233Y004204D01*
X009460Y004204D01*
X009092Y004033D02*
X008865Y004033D01*
X008978Y003920D02*
X008978Y004147D01*
X008413Y004304D02*
X008186Y004304D01*
X008186Y003963D01*
X008044Y003963D02*
X008044Y004190D01*
X008186Y004133D02*
X008299Y004133D01*
X008044Y003963D02*
X007874Y003963D01*
X007817Y004020D01*
X007817Y004190D01*
X007676Y003963D02*
X007449Y003963D01*
X007563Y003963D02*
X007563Y004304D01*
X007449Y004190D01*
X007322Y004020D02*
X007322Y003963D01*
X007265Y003963D01*
X007265Y004020D01*
X007322Y004020D01*
X010215Y005820D02*
X010272Y005763D01*
X010385Y005763D01*
X010442Y005820D01*
X010442Y005877D01*
X010385Y005933D01*
X010328Y005933D01*
X010385Y005933D02*
X010442Y005990D01*
X010442Y006047D01*
X010385Y006104D01*
X010272Y006104D01*
X010215Y006047D01*
X010583Y006047D02*
X010640Y006104D01*
X010753Y006104D01*
X010810Y006047D01*
X010810Y005990D01*
X010583Y005763D01*
X010810Y005763D01*
X011215Y005820D02*
X011272Y005763D01*
X011385Y005763D01*
X011442Y005820D01*
X011442Y005877D01*
X011385Y005933D01*
X011328Y005933D01*
X011385Y005933D02*
X011442Y005990D01*
X011442Y006047D01*
X011385Y006104D01*
X011272Y006104D01*
X011215Y006047D01*
X011583Y005990D02*
X011697Y006104D01*
X011697Y005763D01*
X011810Y005763D02*
X011583Y005763D01*
X012215Y005820D02*
X012272Y005763D01*
X012385Y005763D01*
X012442Y005820D01*
X012442Y005877D01*
X012385Y005933D01*
X012328Y005933D01*
X012385Y005933D02*
X012442Y005990D01*
X012442Y006047D01*
X012385Y006104D01*
X012272Y006104D01*
X012215Y006047D01*
X012583Y006047D02*
X012640Y006104D01*
X012753Y006104D01*
X012810Y006047D01*
X012583Y005820D01*
X012640Y005763D01*
X012753Y005763D01*
X012810Y005820D01*
X012810Y006047D01*
X012583Y006047D02*
X012583Y005820D01*
X013215Y005763D02*
X013442Y005990D01*
X013442Y006047D01*
X013385Y006104D01*
X013272Y006104D01*
X013215Y006047D01*
X013215Y005763D02*
X013442Y005763D01*
X013583Y005820D02*
X013640Y005763D01*
X013753Y005763D01*
X013810Y005820D01*
X013810Y006047D01*
X013753Y006104D01*
X013640Y006104D01*
X013583Y006047D01*
X013583Y005990D01*
X013640Y005933D01*
X013810Y005933D01*
X014215Y006047D02*
X014272Y006104D01*
X014385Y006104D01*
X014442Y006047D01*
X014442Y005990D01*
X014215Y005763D01*
X014442Y005763D01*
X014583Y005820D02*
X014583Y005877D01*
X014640Y005933D01*
X014753Y005933D01*
X014810Y005877D01*
X014810Y005820D01*
X014753Y005763D01*
X014640Y005763D01*
X014583Y005820D01*
X014640Y005933D02*
X014583Y005990D01*
X014583Y006047D01*
X014640Y006104D01*
X014753Y006104D01*
X014810Y006047D01*
X014810Y005990D01*
X014753Y005933D01*
X015215Y005963D02*
X015442Y006190D01*
X015442Y006247D01*
X015385Y006304D01*
X015272Y006304D01*
X015215Y006247D01*
X015215Y005963D02*
X015442Y005963D01*
X015583Y005963D02*
X015583Y006020D01*
X015810Y006247D01*
X015810Y006304D01*
X015583Y006304D01*
X016215Y006397D02*
X016272Y006454D01*
X016385Y006454D01*
X016442Y006397D01*
X016442Y006340D01*
X016215Y006113D01*
X016442Y006113D01*
X016583Y006170D02*
X016640Y006113D01*
X016753Y006113D01*
X016810Y006170D01*
X016810Y006227D01*
X016753Y006283D01*
X016583Y006283D01*
X016583Y006170D01*
X016583Y006283D02*
X016697Y006397D01*
X016810Y006454D01*
X017415Y006104D02*
X017642Y006104D01*
X017642Y006047D01*
X017415Y005820D01*
X017415Y005763D01*
X018415Y005820D02*
X018415Y005877D01*
X018472Y005933D01*
X018585Y005933D01*
X018642Y005877D01*
X018642Y005820D01*
X018585Y005763D01*
X018472Y005763D01*
X018415Y005820D01*
X018472Y005933D02*
X018415Y005990D01*
X018415Y006047D01*
X018472Y006104D01*
X018585Y006104D01*
X018642Y006047D01*
X018642Y005990D01*
X018585Y005933D01*
X019415Y005990D02*
X019472Y005933D01*
X019642Y005933D01*
X019642Y005820D02*
X019642Y006047D01*
X019585Y006104D01*
X019472Y006104D01*
X019415Y006047D01*
X019415Y005990D01*
X019415Y005820D02*
X019472Y005763D01*
X019585Y005763D01*
X019642Y005820D01*
X020215Y005763D02*
X020442Y005763D01*
X020328Y005763D02*
X020328Y006104D01*
X020215Y005990D01*
X020583Y006047D02*
X020583Y005820D01*
X020810Y006047D01*
X020810Y005820D01*
X020753Y005763D01*
X020640Y005763D01*
X020583Y005820D01*
X020583Y006047D02*
X020640Y006104D01*
X020753Y006104D01*
X020810Y006047D01*
X021215Y006047D02*
X021272Y006104D01*
X021385Y006104D01*
X021442Y006047D01*
X021442Y005990D01*
X021215Y005763D01*
X021442Y005763D01*
X021583Y005820D02*
X021640Y005763D01*
X021753Y005763D01*
X021810Y005820D01*
X021810Y005933D01*
X021753Y005990D01*
X021697Y005990D01*
X021583Y005933D01*
X021583Y006104D01*
X021810Y006104D01*
X021903Y006763D02*
X021903Y006990D01*
X022016Y007104D01*
X022129Y006990D01*
X022129Y006763D01*
X022271Y006763D02*
X022498Y006763D01*
X022639Y006763D02*
X022866Y006763D01*
X022639Y006763D02*
X022639Y007104D01*
X022271Y007104D02*
X022271Y006763D01*
X022129Y006933D02*
X021903Y006933D01*
X021393Y006763D02*
X021166Y006763D01*
X021166Y007104D01*
X021393Y007104D01*
X021279Y006933D02*
X021166Y006933D01*
X021025Y006820D02*
X021025Y007047D01*
X020968Y007104D01*
X020798Y007104D01*
X020798Y006763D01*
X020968Y006763D01*
X021025Y006820D01*
X020666Y006763D02*
X020552Y006763D01*
X020609Y006763D02*
X020609Y007104D01*
X020552Y007104D02*
X020666Y007104D01*
X020411Y007047D02*
X020354Y007104D01*
X020241Y007104D01*
X020184Y007047D01*
X020184Y006990D01*
X020241Y006933D01*
X020354Y006933D01*
X020411Y006877D01*
X020411Y006820D01*
X020354Y006763D01*
X020241Y006763D01*
X020184Y006820D01*
X019674Y006820D02*
X019617Y006763D01*
X019504Y006763D01*
X019447Y006820D01*
X019504Y006933D02*
X019617Y006933D01*
X019674Y006877D01*
X019674Y006820D01*
X019504Y006933D02*
X019447Y006990D01*
X019447Y007047D01*
X019504Y007104D01*
X019617Y007104D01*
X019674Y007047D01*
X019315Y007104D02*
X019202Y007104D01*
X019258Y007104D02*
X019258Y006763D01*
X019202Y006763D02*
X019315Y006763D01*
X019060Y006763D02*
X019060Y007104D01*
X019060Y006933D02*
X018833Y006933D01*
X018833Y006763D02*
X018833Y007104D01*
X018692Y007104D02*
X018465Y007104D01*
X018578Y007104D02*
X018578Y006763D01*
X022565Y005990D02*
X022678Y006104D01*
X022678Y005763D01*
X022565Y005763D02*
X022792Y005763D01*
X023565Y005763D02*
X023792Y005990D01*
X023792Y006047D01*
X023735Y006104D01*
X023622Y006104D01*
X023565Y006047D01*
X023565Y005763D02*
X023792Y005763D01*
X024365Y005763D02*
X024592Y005763D01*
X024478Y005763D02*
X024478Y006104D01*
X024365Y005990D01*
X024733Y005933D02*
X024960Y005933D01*
X024903Y005763D02*
X024903Y006104D01*
X024733Y005933D01*
X025365Y005990D02*
X025478Y006104D01*
X025478Y005763D01*
X025365Y005763D02*
X025592Y005763D01*
X025733Y005820D02*
X025790Y005763D01*
X025903Y005763D01*
X025960Y005820D01*
X025960Y005933D01*
X025903Y005990D01*
X025847Y005990D01*
X025733Y005933D01*
X025733Y006104D01*
X025960Y006104D01*
X026515Y005990D02*
X026628Y006104D01*
X026628Y005763D01*
X026515Y005763D02*
X026742Y005763D01*
X026883Y005820D02*
X026940Y005763D01*
X027053Y005763D01*
X027110Y005820D01*
X027110Y005877D01*
X027053Y005933D01*
X026883Y005933D01*
X026883Y005820D01*
X026883Y005933D02*
X026997Y006047D01*
X027110Y006104D01*
X027515Y006047D02*
X027572Y006104D01*
X027685Y006104D01*
X027742Y006047D01*
X027742Y005990D01*
X027515Y005763D01*
X027742Y005763D01*
X027883Y005933D02*
X028110Y005933D01*
X028053Y005763D02*
X028053Y006104D01*
X027883Y005933D01*
X028515Y006047D02*
X028572Y006104D01*
X028685Y006104D01*
X028742Y006047D01*
X028742Y005990D01*
X028515Y005763D01*
X028742Y005763D01*
X028883Y005820D02*
X028940Y005763D01*
X029053Y005763D01*
X029110Y005820D01*
X029110Y005877D01*
X029053Y005933D01*
X028997Y005933D01*
X029053Y005933D02*
X029110Y005990D01*
X029110Y006047D01*
X029053Y006104D01*
X028940Y006104D01*
X028883Y006047D01*
X029515Y006047D02*
X029572Y006104D01*
X029685Y006104D01*
X029742Y006047D01*
X029742Y005990D01*
X029515Y005763D01*
X029742Y005763D01*
X029883Y005763D02*
X030110Y005990D01*
X030110Y006047D01*
X030053Y006104D01*
X029940Y006104D01*
X029883Y006047D01*
X029883Y005763D02*
X030110Y005763D01*
X030715Y005763D02*
X030942Y005990D01*
X030942Y006047D01*
X030885Y006104D01*
X030772Y006104D01*
X030715Y006047D01*
X030715Y005763D02*
X030942Y005763D01*
X031083Y005763D02*
X031310Y005763D01*
X031197Y005763D02*
X031197Y006104D01*
X031083Y005990D01*
X031715Y005990D02*
X031828Y006104D01*
X031828Y005763D01*
X031715Y005763D02*
X031942Y005763D01*
X032083Y005820D02*
X032140Y005763D01*
X032253Y005763D01*
X032310Y005820D01*
X032310Y006047D01*
X032253Y006104D01*
X032140Y006104D01*
X032083Y006047D01*
X032083Y005990D01*
X032140Y005933D01*
X032310Y005933D01*
X032413Y006363D02*
X032357Y006420D01*
X032413Y006363D02*
X032527Y006363D01*
X032583Y006420D01*
X032583Y006477D01*
X032527Y006533D01*
X032413Y006533D01*
X032357Y006590D01*
X032357Y006647D01*
X032413Y006704D01*
X032527Y006704D01*
X032583Y006647D01*
X032215Y006647D02*
X032158Y006704D01*
X032045Y006704D01*
X031988Y006647D01*
X031988Y006420D01*
X032045Y006363D01*
X032158Y006363D01*
X032215Y006420D01*
X032215Y006647D01*
X031847Y006704D02*
X031847Y006477D01*
X031733Y006363D01*
X031620Y006477D01*
X031620Y006704D01*
X031478Y006647D02*
X031478Y006533D01*
X031422Y006477D01*
X031252Y006477D01*
X031365Y006477D02*
X031478Y006363D01*
X031252Y006363D02*
X031252Y006704D01*
X031422Y006704D01*
X031478Y006647D01*
X031110Y006704D02*
X030883Y006704D01*
X030883Y006363D01*
X031110Y006363D01*
X030997Y006533D02*
X030883Y006533D01*
X030742Y006477D02*
X030742Y006420D01*
X030685Y006363D01*
X030572Y006363D01*
X030515Y006420D01*
X030572Y006533D02*
X030685Y006533D01*
X030742Y006477D01*
X030742Y006647D02*
X030685Y006704D01*
X030572Y006704D01*
X030515Y006647D01*
X030515Y006590D01*
X030572Y006533D01*
X025444Y006763D02*
X025331Y006877D01*
X025388Y006877D02*
X025217Y006877D01*
X025217Y006763D02*
X025217Y007104D01*
X025388Y007104D01*
X025444Y007047D01*
X025444Y006933D01*
X025388Y006877D01*
X025076Y006763D02*
X025076Y007104D01*
X024849Y007104D02*
X024849Y006763D01*
X024963Y006877D01*
X025076Y006763D01*
X024708Y006933D02*
X024651Y006877D01*
X024481Y006877D01*
X024481Y006763D02*
X024481Y007104D01*
X024651Y007104D01*
X024708Y007047D01*
X024708Y006933D01*
X023971Y006877D02*
X023858Y006763D01*
X023744Y006877D01*
X023744Y007104D01*
X023603Y007104D02*
X023376Y007104D01*
X023376Y006933D01*
X023489Y006990D01*
X023546Y006990D01*
X023603Y006933D01*
X023603Y006820D01*
X023546Y006763D01*
X023433Y006763D01*
X023376Y006820D01*
X023971Y006877D02*
X023971Y007104D01*
X023944Y010913D02*
X023944Y011554D01*
X024157Y011340D01*
X024371Y011554D01*
X024371Y010913D01*
X024588Y010913D02*
X024802Y010913D01*
X024695Y010913D02*
X024695Y011340D01*
X024588Y011340D01*
X024695Y011554D02*
X024695Y011661D01*
X024688Y011863D02*
X025008Y011863D01*
X025115Y011970D01*
X025115Y012397D01*
X025008Y012504D01*
X024688Y012504D01*
X024688Y011863D01*
X024471Y011970D02*
X024364Y011863D01*
X024150Y011863D01*
X024044Y011970D01*
X024150Y012184D02*
X024364Y012184D01*
X024471Y012077D01*
X024471Y011970D01*
X024150Y012184D02*
X024044Y012290D01*
X024044Y012397D01*
X024150Y012504D01*
X024364Y012504D01*
X024471Y012397D01*
X023182Y012184D02*
X023182Y011970D01*
X023075Y011863D01*
X022861Y011863D01*
X022755Y011970D01*
X022755Y012184D01*
X022861Y012290D01*
X023075Y012290D01*
X023182Y012184D01*
X022537Y012184D02*
X022537Y011863D01*
X022110Y011863D02*
X022110Y012290D01*
X022430Y012290D01*
X022537Y012184D01*
X021894Y011863D02*
X021680Y011863D01*
X021787Y011863D02*
X021787Y012290D01*
X021680Y012290D01*
X021463Y012290D02*
X021357Y012290D01*
X021143Y012077D01*
X021143Y012290D02*
X021143Y011863D01*
X020926Y011863D02*
X020605Y011863D01*
X020499Y011970D01*
X020605Y012077D01*
X020926Y012077D01*
X020926Y012184D02*
X020926Y011863D01*
X020281Y011970D02*
X020281Y012184D01*
X020174Y012290D01*
X019854Y012290D01*
X019854Y012504D02*
X019854Y011863D01*
X020174Y011863D01*
X020281Y011970D01*
X020605Y012290D02*
X020819Y012290D01*
X020926Y012184D01*
X021787Y012504D02*
X021787Y012611D01*
X021687Y011661D02*
X021687Y011554D01*
X021687Y011340D02*
X021687Y010913D01*
X021580Y010913D02*
X021794Y010913D01*
X022010Y010913D02*
X022010Y011340D01*
X022330Y011340D01*
X022437Y011234D01*
X022437Y010913D01*
X022655Y011020D02*
X022761Y010913D01*
X022975Y010913D01*
X023082Y011020D01*
X023082Y011234D01*
X022975Y011340D01*
X022761Y011340D01*
X022655Y011234D01*
X022655Y011020D01*
X021687Y011340D02*
X021580Y011340D01*
X021363Y011340D02*
X021257Y011340D01*
X021043Y011127D01*
X021043Y011340D02*
X021043Y010913D01*
X020826Y010913D02*
X020505Y010913D01*
X020399Y011020D01*
X020505Y011127D01*
X020826Y011127D01*
X020826Y011234D02*
X020826Y010913D01*
X020181Y011020D02*
X020181Y011234D01*
X020074Y011340D01*
X019754Y011340D01*
X019754Y011554D02*
X019754Y010913D01*
X020074Y010913D01*
X020181Y011020D01*
X020505Y011340D02*
X020719Y011340D01*
X020826Y011234D01*
X019637Y011863D02*
X019637Y012290D01*
X019210Y012290D02*
X019210Y011970D01*
X019316Y011863D01*
X019637Y011863D01*
X019537Y011340D02*
X019537Y010913D01*
X019216Y010913D01*
X019110Y011020D01*
X019110Y011340D01*
X018892Y011554D02*
X018465Y011554D01*
X018465Y010913D01*
X018465Y011234D02*
X018679Y011234D01*
X018565Y011863D02*
X018565Y012504D01*
X018992Y012504D01*
X018779Y012184D02*
X018565Y012184D01*
X025018Y011340D02*
X025018Y010913D01*
X025445Y010913D02*
X025445Y011234D01*
X025338Y011340D01*
X025018Y011340D01*
X025662Y011340D02*
X025769Y011340D01*
X025769Y010913D01*
X025662Y010913D02*
X025876Y010913D01*
X025769Y011554D02*
X025769Y011661D01*
X033615Y012813D02*
X033672Y012813D01*
X033672Y012870D01*
X033615Y012870D01*
X033615Y012813D01*
X033799Y012813D02*
X034026Y012813D01*
X033913Y012813D02*
X033913Y013154D01*
X033799Y013040D01*
X034167Y013040D02*
X034167Y012870D01*
X034224Y012813D01*
X034394Y012813D01*
X034394Y013040D01*
X034536Y012983D02*
X034649Y012983D01*
X034536Y012813D02*
X034536Y013154D01*
X034763Y013154D01*
X041099Y008690D02*
X041213Y008804D01*
X041213Y008463D01*
X041326Y008463D02*
X041099Y008463D01*
X040972Y008463D02*
X040915Y008463D01*
X040915Y008520D01*
X040972Y008520D01*
X040972Y008463D01*
X041467Y008520D02*
X041467Y008690D01*
X041467Y008520D02*
X041524Y008463D01*
X041694Y008463D01*
X041694Y008690D01*
X041836Y008633D02*
X041949Y008633D01*
X041836Y008463D02*
X041836Y008804D01*
X042063Y008804D01*
X042063Y007304D02*
X041836Y007304D01*
X041836Y006963D01*
X041694Y006963D02*
X041694Y007190D01*
X041836Y007133D02*
X041949Y007133D01*
X041694Y006963D02*
X041524Y006963D01*
X041467Y007020D01*
X041467Y007190D01*
X041326Y006963D02*
X041099Y006963D01*
X041213Y006963D02*
X041213Y007304D01*
X041099Y007190D01*
X040972Y007020D02*
X040972Y006963D01*
X040915Y006963D01*
X040915Y007020D01*
X040972Y007020D01*
X041213Y005804D02*
X041213Y005463D01*
X041326Y005463D02*
X041099Y005463D01*
X040972Y005463D02*
X040915Y005463D01*
X040915Y005520D01*
X040972Y005520D01*
X040972Y005463D01*
X041099Y005690D02*
X041213Y005804D01*
X041467Y005690D02*
X041467Y005520D01*
X041524Y005463D01*
X041694Y005463D01*
X041694Y005690D01*
X041836Y005633D02*
X041949Y005633D01*
X041836Y005463D02*
X041836Y005804D01*
X042063Y005804D01*
X042063Y004304D02*
X041836Y004304D01*
X041836Y003963D01*
X041694Y003963D02*
X041694Y004190D01*
X041836Y004133D02*
X041949Y004133D01*
X041694Y003963D02*
X041524Y003963D01*
X041467Y004020D01*
X041467Y004190D01*
X041326Y003963D02*
X041099Y003963D01*
X041213Y003963D02*
X041213Y004304D01*
X041099Y004190D01*
X040972Y004020D02*
X040972Y003963D01*
X040915Y003963D01*
X040915Y004020D01*
X040972Y004020D01*
X040463Y002654D02*
X040236Y002654D01*
X040236Y002313D01*
X040094Y002313D02*
X040094Y002540D01*
X040236Y002483D02*
X040349Y002483D01*
X040094Y002313D02*
X039924Y002313D01*
X039867Y002370D01*
X039867Y002540D01*
X039726Y002313D02*
X039499Y002313D01*
X039613Y002313D02*
X039613Y002654D01*
X039499Y002540D01*
X039372Y002370D02*
X039372Y002313D01*
X039315Y002313D01*
X039315Y002370D01*
X039372Y002370D01*
X037928Y002347D02*
X037928Y002120D01*
X037872Y002063D01*
X037702Y002063D01*
X037702Y002404D01*
X037872Y002404D01*
X037928Y002347D01*
X037560Y002404D02*
X037560Y002063D01*
X037333Y002404D01*
X037333Y002063D01*
X037192Y002120D02*
X037135Y002063D01*
X037022Y002063D01*
X036965Y002120D01*
X036965Y002347D01*
X037022Y002404D01*
X037135Y002404D01*
X037192Y002347D01*
X037192Y002233D02*
X037078Y002233D01*
X037192Y002233D02*
X037192Y002120D01*
X041965Y002120D02*
X042022Y002063D01*
X042135Y002063D01*
X042192Y002120D01*
X042192Y002233D01*
X042078Y002233D01*
X041965Y002120D02*
X041965Y002347D01*
X042022Y002404D01*
X042135Y002404D01*
X042192Y002347D01*
X042333Y002404D02*
X042560Y002063D01*
X042560Y002404D01*
X042702Y002404D02*
X042872Y002404D01*
X042928Y002347D01*
X042928Y002120D01*
X042872Y002063D01*
X042702Y002063D01*
X042702Y002404D01*
X042333Y002404D02*
X042333Y002063D01*
X024010Y002290D02*
X023953Y002233D01*
X014043Y006877D02*
X013816Y006877D01*
X013816Y006990D02*
X013987Y006990D01*
X014043Y006990D01*
X013987Y007104D02*
X013987Y006763D01*
X013873Y006763D02*
X013873Y007104D01*
X013307Y007104D02*
X013307Y006763D01*
X013080Y007104D01*
X013080Y006763D01*
X012948Y006763D02*
X012834Y006763D01*
X012891Y006763D02*
X012891Y007104D01*
X012834Y007104D02*
X012948Y007104D01*
X012693Y007047D02*
X012693Y006933D01*
X012636Y006877D01*
X012466Y006877D01*
X012466Y006763D02*
X012466Y007104D01*
X012636Y007104D01*
X012693Y007047D01*
X011966Y007104D02*
X011852Y007104D01*
X011909Y007104D02*
X011909Y006763D01*
X011852Y006763D02*
X011966Y006763D01*
X011711Y006763D02*
X011711Y007104D01*
X011484Y007104D02*
X011711Y006763D01*
X011484Y006763D02*
X011484Y007104D01*
X011352Y007104D02*
X011238Y007104D01*
X011295Y007104D02*
X011295Y006763D01*
X011238Y006763D02*
X011352Y006763D01*
X011097Y006763D02*
X011097Y007104D01*
X010983Y006990D01*
X010870Y007104D01*
X010870Y006763D01*
X010360Y006820D02*
X010303Y006763D01*
X010133Y006763D01*
X010133Y007104D01*
X010303Y007104D01*
X010360Y007047D01*
X010360Y006990D01*
X010303Y006933D01*
X010133Y006933D01*
X010303Y006933D02*
X010360Y006877D01*
X010360Y006820D01*
X009992Y007104D02*
X009765Y007104D01*
X009765Y006763D01*
X009765Y006933D02*
X009878Y006933D01*
X007265Y006604D02*
X007038Y006604D01*
X007038Y006263D01*
X006897Y006263D02*
X006897Y006490D01*
X007038Y006433D02*
X007152Y006433D01*
X006897Y006263D02*
X006727Y006263D01*
X006670Y006320D01*
X006670Y006490D01*
X006528Y006547D02*
X006302Y006320D01*
X006358Y006263D01*
X006472Y006263D01*
X006528Y006320D01*
X006528Y006547D01*
X006472Y006604D01*
X006358Y006604D01*
X006302Y006547D01*
X006302Y006320D01*
X006160Y006320D02*
X006103Y006263D01*
X005990Y006263D01*
X005933Y006320D01*
X006160Y006547D01*
X006160Y006320D01*
X005933Y006320D02*
X005933Y006547D01*
X005990Y006604D01*
X006103Y006604D01*
X006160Y006547D01*
X005678Y006604D02*
X005678Y006263D01*
X005565Y006263D02*
X005792Y006263D01*
X005565Y006490D02*
X005678Y006604D01*
X002908Y005190D02*
X002852Y005190D01*
X002738Y005077D01*
X002738Y005190D02*
X002738Y004963D01*
X002597Y005020D02*
X002597Y005133D01*
X002540Y005190D01*
X002427Y005190D01*
X002370Y005133D01*
X002370Y005020D01*
X002427Y004963D01*
X002540Y004963D01*
X002597Y005020D01*
X002540Y004704D02*
X002427Y004704D01*
X002370Y004647D01*
X002540Y004704D02*
X002597Y004647D01*
X002597Y004590D01*
X002370Y004363D01*
X002597Y004363D01*
X002738Y004477D02*
X002852Y004363D01*
X002965Y004477D01*
X002965Y004704D01*
X002738Y004704D02*
X002738Y004477D01*
X002228Y004363D02*
X002002Y004363D01*
X002115Y004363D02*
X002115Y004704D01*
X002002Y004590D01*
X001860Y004533D02*
X001633Y004533D01*
X001492Y004477D02*
X001435Y004533D01*
X001265Y004533D01*
X001265Y004420D01*
X001322Y004363D01*
X001435Y004363D01*
X001492Y004420D01*
X001492Y004477D01*
X001378Y004647D02*
X001492Y004704D01*
X001378Y004647D02*
X001265Y004533D01*
X001322Y004963D02*
X001265Y005020D01*
X001322Y004963D02*
X001435Y004963D01*
X001492Y005020D01*
X001492Y005133D01*
X001435Y005190D01*
X001378Y005190D01*
X001265Y005133D01*
X001265Y005304D01*
X001492Y005304D01*
X001633Y005304D02*
X001633Y005077D01*
X001747Y004963D01*
X001860Y005077D01*
X001860Y005304D01*
X001655Y012513D02*
X001655Y012627D01*
X001655Y012570D02*
X001315Y012570D01*
X001315Y012513D02*
X001315Y012627D01*
X001428Y012759D02*
X001428Y012929D01*
X001485Y012986D01*
X001655Y012986D01*
X001655Y013127D02*
X001655Y013297D01*
X001598Y013354D01*
X001485Y013354D01*
X001428Y013297D01*
X001428Y013127D01*
X001768Y013127D01*
X002165Y013077D02*
X002165Y013190D01*
X002278Y013304D01*
X002411Y013304D02*
X002411Y012963D01*
X002411Y013077D02*
X002581Y013077D01*
X002637Y013133D01*
X002637Y013247D01*
X002581Y013304D01*
X002411Y013304D01*
X002524Y013077D02*
X002637Y012963D01*
X002779Y012963D02*
X003006Y012963D01*
X003147Y013020D02*
X003204Y012963D01*
X003317Y012963D01*
X003374Y013020D01*
X003374Y013133D01*
X003261Y013133D01*
X003147Y013020D02*
X003147Y013247D01*
X003204Y013304D01*
X003317Y013304D01*
X003374Y013247D01*
X003515Y013304D02*
X003629Y013190D01*
X003629Y013077D01*
X003515Y012963D01*
X003006Y013304D02*
X002779Y013304D01*
X002779Y012963D01*
X002779Y013133D02*
X002892Y013133D01*
X002902Y013563D02*
X003128Y013563D01*
X003015Y013563D02*
X003015Y013904D01*
X002902Y013790D01*
X002760Y013733D02*
X002533Y013733D01*
X002392Y013677D02*
X002335Y013733D01*
X002165Y013733D01*
X002165Y013620D01*
X002222Y013563D01*
X002335Y013563D01*
X002392Y013620D01*
X002392Y013677D01*
X002278Y013847D02*
X002165Y013733D01*
X002278Y013847D02*
X002392Y013904D01*
X001655Y013977D02*
X001598Y013921D01*
X001371Y013921D01*
X001428Y013977D02*
X001428Y013864D01*
X001428Y013722D02*
X001655Y013722D01*
X001655Y013552D01*
X001598Y013496D01*
X001428Y013496D01*
X002165Y013077D02*
X002278Y012963D01*
X001655Y012759D02*
X001428Y012759D01*
X003270Y013563D02*
X003497Y013790D01*
X003497Y013847D01*
X003440Y013904D01*
X003327Y013904D01*
X003270Y013847D01*
X003270Y013563D02*
X003497Y013563D01*
X003638Y013677D02*
X003752Y013563D01*
X003865Y013677D01*
X003865Y013904D01*
X003638Y013904D02*
X003638Y013677D01*
X004365Y013733D02*
X004478Y013790D01*
X004535Y013790D01*
X004592Y013733D01*
X004592Y013620D01*
X004535Y013563D01*
X004422Y013563D01*
X004365Y013620D01*
X004365Y013733D02*
X004365Y013904D01*
X004592Y013904D01*
X004733Y013904D02*
X004733Y013677D01*
X004847Y013563D01*
X004960Y013677D01*
X004960Y013904D01*
X005470Y013904D02*
X005583Y013904D01*
X005527Y013904D02*
X005527Y013563D01*
X005583Y013563D02*
X005470Y013563D01*
X005715Y013563D02*
X005715Y013904D01*
X005942Y013563D01*
X005942Y013904D01*
X005715Y013304D02*
X005829Y013190D01*
X005829Y013077D01*
X005715Y012963D01*
X005574Y012963D02*
X005574Y013304D01*
X005347Y013304D02*
X005347Y012963D01*
X005461Y013077D01*
X005574Y012963D01*
X005206Y012963D02*
X005206Y013190D01*
X005092Y013304D01*
X004979Y013190D01*
X004979Y012963D01*
X004837Y012963D02*
X004724Y013077D01*
X004781Y013077D02*
X004611Y013077D01*
X004611Y012963D02*
X004611Y013304D01*
X004781Y013304D01*
X004837Y013247D01*
X004837Y013133D01*
X004781Y013077D01*
X004979Y013133D02*
X005206Y013133D01*
X004478Y012963D02*
X004365Y013077D01*
X004365Y013190D01*
X004478Y013304D01*
X001655Y014846D02*
X001315Y014846D01*
X001315Y015016D01*
X001371Y015073D01*
X001485Y015073D01*
X001542Y015016D01*
X001542Y014846D01*
X001598Y015214D02*
X001655Y015271D01*
X001655Y015384D01*
X001598Y015441D01*
X001485Y015441D01*
X001428Y015384D01*
X001428Y015271D01*
X001485Y015214D01*
X001598Y015214D01*
X001598Y015583D02*
X001655Y015639D01*
X001598Y015696D01*
X001655Y015753D01*
X001598Y015809D01*
X001428Y015809D01*
X001485Y015951D02*
X001428Y016008D01*
X001428Y016121D01*
X001485Y016178D01*
X001542Y016178D01*
X001542Y015951D01*
X001598Y015951D02*
X001485Y015951D01*
X001598Y015951D02*
X001655Y016008D01*
X001655Y016121D01*
X001655Y016319D02*
X001428Y016319D01*
X001542Y016319D02*
X001428Y016433D01*
X001428Y016489D01*
X001428Y016994D02*
X001371Y016994D01*
X001315Y017051D01*
X001315Y017165D01*
X001371Y017221D01*
X001485Y017165D02*
X001485Y017051D01*
X001428Y016994D01*
X001598Y016994D02*
X001655Y017051D01*
X001655Y017165D01*
X001598Y017221D01*
X001542Y017221D01*
X001485Y017165D01*
X001485Y017363D02*
X001428Y017420D01*
X001428Y017533D01*
X001485Y017590D01*
X001542Y017590D01*
X001542Y017363D01*
X001598Y017363D02*
X001485Y017363D01*
X001598Y017363D02*
X001655Y017420D01*
X001655Y017533D01*
X001655Y017731D02*
X001655Y017845D01*
X001655Y017788D02*
X001315Y017788D01*
X001315Y017731D01*
X001485Y017977D02*
X001428Y018033D01*
X001428Y018147D01*
X001485Y018204D01*
X001542Y018204D01*
X001542Y017977D01*
X001598Y017977D02*
X001485Y017977D01*
X001598Y017977D02*
X001655Y018033D01*
X001655Y018147D01*
X001598Y018345D02*
X001655Y018402D01*
X001655Y018572D01*
X001598Y018770D02*
X001371Y018770D01*
X001428Y018713D02*
X001428Y018827D01*
X001598Y018770D02*
X001655Y018827D01*
X001428Y018572D02*
X001428Y018402D01*
X001485Y018345D01*
X001598Y018345D01*
X002365Y017997D02*
X002365Y017770D01*
X002422Y017713D01*
X002535Y017713D01*
X002592Y017770D01*
X002592Y017997D01*
X002535Y018054D01*
X002422Y018054D01*
X002365Y017997D01*
X002733Y018054D02*
X002733Y017713D01*
X002733Y017827D02*
X002960Y018054D01*
X003102Y018054D02*
X003215Y018054D01*
X003158Y018054D02*
X003158Y017713D01*
X003102Y017713D02*
X003215Y017713D01*
X003347Y017883D02*
X003574Y017883D01*
X003715Y017770D02*
X003715Y017713D01*
X003715Y017770D02*
X003942Y017997D01*
X003942Y018054D01*
X003715Y018054D01*
X002960Y017713D02*
X002790Y017883D01*
X001598Y015583D02*
X001428Y015583D01*
X006387Y020713D02*
X006500Y020713D01*
X006443Y020713D02*
X006443Y021053D01*
X006387Y021053D02*
X006500Y021053D01*
X006642Y020997D02*
X006642Y020770D01*
X006698Y020713D01*
X006868Y020713D01*
X006868Y021053D01*
X006698Y021053D01*
X006642Y020997D01*
X007010Y020713D02*
X007237Y020713D01*
X007123Y020713D02*
X007123Y021053D01*
X007492Y020883D02*
X007605Y020883D01*
X007605Y020713D02*
X007378Y020713D01*
X007605Y020713D02*
X007605Y021053D01*
X010210Y020720D02*
X010267Y020663D01*
X036057Y020563D02*
X036284Y020563D01*
X036284Y020903D01*
X036426Y020903D02*
X036426Y020676D01*
X036284Y020733D02*
X036171Y020733D01*
X036426Y020903D02*
X036596Y020903D01*
X036653Y020847D01*
X036653Y020676D01*
X036794Y020903D02*
X037021Y020903D01*
X036907Y020903D02*
X036907Y020563D01*
X037021Y020676D01*
X037148Y020847D02*
X037148Y020903D01*
X037205Y020903D01*
X037205Y020847D01*
X037148Y020847D01*
X043465Y020787D02*
X043465Y021013D01*
X043635Y020900D02*
X043635Y020787D01*
X043578Y020645D02*
X043805Y020645D01*
X043805Y020475D01*
X043748Y020418D01*
X043578Y020418D01*
X043521Y020277D02*
X043748Y020050D01*
X043805Y020107D01*
X043805Y020220D01*
X043748Y020277D01*
X043521Y020277D01*
X043465Y020220D01*
X043465Y020107D01*
X043521Y020050D01*
X043748Y020050D01*
X043748Y019909D02*
X043805Y019852D01*
X043805Y019738D01*
X043748Y019682D01*
X043521Y019909D01*
X043748Y019909D01*
X043521Y019909D02*
X043465Y019852D01*
X043465Y019738D01*
X043521Y019682D01*
X043748Y019682D01*
X043805Y019540D02*
X043805Y019313D01*
X043805Y019427D02*
X043465Y019427D01*
X043578Y019313D01*
X043465Y020787D02*
X043805Y020787D01*
D13*
X039814Y012083D02*
X039816Y012099D01*
X039822Y012115D01*
X039831Y012129D01*
X039843Y012140D01*
X039857Y012148D01*
X039873Y012153D01*
X039889Y012154D01*
X039905Y012151D01*
X039920Y012144D01*
X039934Y012135D01*
X039944Y012122D01*
X039952Y012107D01*
X039956Y012091D01*
X039956Y012075D01*
X039952Y012059D01*
X039944Y012044D01*
X039934Y012031D01*
X039921Y012022D01*
X039905Y012015D01*
X039889Y012012D01*
X039873Y012013D01*
X039857Y012018D01*
X039843Y012026D01*
X039831Y012037D01*
X039822Y012051D01*
X039816Y012067D01*
X039814Y012083D01*
X039864Y003083D02*
X039866Y003099D01*
X039872Y003115D01*
X039881Y003129D01*
X039893Y003140D01*
X039907Y003148D01*
X039923Y003153D01*
X039939Y003154D01*
X039955Y003151D01*
X039970Y003144D01*
X039984Y003135D01*
X039994Y003122D01*
X040002Y003107D01*
X040006Y003091D01*
X040006Y003075D01*
X040002Y003059D01*
X039994Y003044D01*
X039984Y003031D01*
X039971Y003022D01*
X039955Y003015D01*
X039939Y003012D01*
X039923Y003013D01*
X039907Y003018D01*
X039893Y003026D01*
X039881Y003037D01*
X039872Y003051D01*
X039866Y003067D01*
X039864Y003083D01*
X005614Y017233D02*
X005616Y017249D01*
X005622Y017265D01*
X005631Y017279D01*
X005643Y017290D01*
X005657Y017298D01*
X005673Y017303D01*
X005689Y017304D01*
X005705Y017301D01*
X005720Y017294D01*
X005734Y017285D01*
X005744Y017272D01*
X005752Y017257D01*
X005756Y017241D01*
X005756Y017225D01*
X005752Y017209D01*
X005744Y017194D01*
X005734Y017181D01*
X005721Y017172D01*
X005705Y017165D01*
X005689Y017162D01*
X005673Y017163D01*
X005657Y017168D01*
X005643Y017176D01*
X005631Y017187D01*
X005622Y017201D01*
X005616Y017217D01*
X005614Y017233D01*
X005035Y014133D02*
X004185Y014133D01*
X003835Y014133D02*
X003085Y014133D01*
X003664Y020133D02*
X003666Y020149D01*
X003672Y020165D01*
X003681Y020179D01*
X003693Y020190D01*
X003707Y020198D01*
X003723Y020203D01*
X003739Y020204D01*
X003755Y020201D01*
X003770Y020194D01*
X003784Y020185D01*
X003794Y020172D01*
X003802Y020157D01*
X003806Y020141D01*
X003806Y020125D01*
X003802Y020109D01*
X003794Y020094D01*
X003784Y020081D01*
X003771Y020072D01*
X003755Y020065D01*
X003739Y020062D01*
X003723Y020063D01*
X003707Y020068D01*
X003693Y020076D01*
X003681Y020087D01*
X003672Y020101D01*
X003666Y020117D01*
X003664Y020133D01*
D14*
X003603Y010979D02*
X003828Y010979D01*
X003903Y010904D01*
X003903Y010754D01*
X003828Y010678D01*
X003603Y010678D01*
X003603Y010528D02*
X003603Y010979D01*
X003387Y010829D02*
X003387Y010528D01*
X003387Y010754D02*
X003087Y010754D01*
X003087Y010829D02*
X003237Y010979D01*
X003387Y010829D01*
X003087Y010829D02*
X003087Y010528D01*
X002872Y010603D02*
X002796Y010528D01*
X002571Y010528D01*
X002571Y010979D01*
X002796Y010979D01*
X002872Y010904D01*
X002872Y010829D01*
X002796Y010754D01*
X002571Y010754D01*
X002796Y010754D02*
X002872Y010678D01*
X002872Y010603D01*
X002356Y010603D02*
X002356Y010979D01*
X002056Y010979D02*
X002056Y010603D01*
X002131Y010528D01*
X002281Y010528D01*
X002356Y010603D01*
X001840Y010979D02*
X001540Y010979D01*
X001540Y010528D01*
X001540Y010754D02*
X001690Y010754D01*
X003087Y009989D02*
X003237Y009688D01*
X003387Y009989D01*
X003603Y009989D02*
X003753Y010139D01*
X003753Y009688D01*
X003603Y009688D02*
X003903Y009688D01*
X004118Y009688D02*
X004193Y009688D01*
X004193Y009763D01*
X004118Y009763D01*
X004118Y009688D01*
X004376Y009763D02*
X004451Y009688D01*
X004601Y009688D01*
X004676Y009763D01*
X004676Y009838D01*
X004601Y009914D01*
X004526Y009914D01*
X004601Y009914D02*
X004676Y009989D01*
X004676Y010064D01*
X004601Y010139D01*
X004451Y010139D01*
X004376Y010064D01*
X004343Y010528D02*
X004193Y010528D01*
X004118Y010603D01*
X004193Y010754D02*
X004343Y010754D01*
X004418Y010678D01*
X004418Y010603D01*
X004343Y010528D01*
X004193Y010754D02*
X004118Y010829D01*
X004118Y010904D01*
X004193Y010979D01*
X004343Y010979D01*
X004418Y010904D01*
X004634Y010829D02*
X004784Y010829D01*
X004709Y010904D02*
X004709Y010603D01*
X004784Y010528D01*
X004978Y010603D02*
X004978Y010754D01*
X005053Y010829D01*
X005203Y010829D01*
X005278Y010754D01*
X005278Y010678D01*
X004978Y010678D01*
X004978Y010603D02*
X005053Y010528D01*
X005203Y010528D01*
X005493Y010528D02*
X005718Y010528D01*
X005793Y010603D01*
X005793Y010754D01*
X005718Y010829D01*
X005493Y010829D01*
X005493Y010378D01*
X003903Y010528D02*
X003753Y010678D01*
D15*
X002585Y011383D02*
X002135Y011383D01*
X002135Y011633D01*
X002035Y011633D01*
X002035Y011433D01*
X002135Y011383D02*
X001585Y011383D01*
X001585Y011833D01*
X001835Y012083D01*
X002085Y011833D01*
X002585Y011833D01*
X002585Y011383D01*
X002585Y011833D02*
X002585Y012283D01*
X002535Y012283D01*
X002535Y012133D01*
X001585Y012133D01*
X001585Y011833D01*
X002785Y014333D02*
X003285Y014333D01*
X003535Y014583D01*
X003785Y014333D01*
X004285Y014333D01*
X004535Y014583D01*
X004785Y014333D01*
X005285Y014333D01*
X005535Y014583D01*
X005535Y015083D01*
X005285Y015333D01*
X004785Y015333D01*
X004535Y015083D01*
X004285Y015333D01*
X003785Y015333D01*
X003535Y015083D01*
X003285Y015333D01*
X002785Y015333D01*
X002535Y015083D01*
X002535Y014583D01*
X002785Y014333D01*
X002035Y015833D02*
X002035Y016083D01*
X006035Y016083D01*
X006035Y015833D01*
X002035Y015833D01*
X002035Y016083D02*
X002035Y017583D01*
X006035Y017583D01*
X006035Y016083D01*
X010035Y017783D02*
X010285Y017533D01*
X010785Y017533D01*
X011035Y017783D01*
X011035Y018283D01*
X010785Y018533D01*
X011035Y018783D01*
X011035Y019283D01*
X010785Y019533D01*
X011035Y019783D01*
X011035Y020283D01*
X010785Y020533D01*
X010285Y020533D01*
X010035Y020283D01*
X010035Y019783D01*
X010285Y019533D01*
X010035Y019283D01*
X010035Y018783D01*
X010285Y018533D01*
X010035Y018283D01*
X010035Y017783D01*
X011035Y017783D02*
X011035Y018283D01*
X011285Y018533D01*
X011035Y018783D01*
X011035Y019283D01*
X011285Y019533D01*
X011035Y019783D01*
X011035Y020283D01*
X011285Y020533D01*
X011785Y020533D01*
X012035Y020283D01*
X012035Y019783D01*
X011785Y019533D01*
X012035Y019283D01*
X012035Y018783D01*
X011785Y018533D01*
X012035Y018283D01*
X012035Y017783D01*
X011785Y017533D01*
X011285Y017533D01*
X011035Y017783D01*
X012035Y017783D02*
X012035Y018283D01*
X012285Y018533D01*
X012035Y018783D01*
X012035Y019283D01*
X012285Y019533D01*
X012035Y019783D01*
X012035Y020283D01*
X012285Y020533D01*
X012785Y020533D01*
X013035Y020283D01*
X013285Y020533D01*
X013785Y020533D01*
X014035Y020283D01*
X014285Y020533D01*
X014785Y020533D01*
X015035Y020283D01*
X015285Y020533D01*
X015785Y020533D01*
X016035Y020283D01*
X016285Y020533D01*
X016785Y020533D01*
X017035Y020283D01*
X017285Y020533D01*
X017785Y020533D01*
X018035Y020283D01*
X018035Y019783D01*
X017785Y019533D01*
X018035Y019283D01*
X018035Y018783D01*
X017785Y018533D01*
X018035Y018283D01*
X018035Y017783D01*
X017785Y017533D01*
X017285Y017533D01*
X017035Y017783D01*
X017035Y018283D01*
X017285Y018533D01*
X017035Y018783D01*
X017035Y019283D01*
X017285Y019533D01*
X017035Y019783D01*
X017035Y020283D01*
X017035Y019783D01*
X016785Y019533D01*
X017035Y019283D01*
X017035Y018783D01*
X016785Y018533D01*
X017035Y018283D01*
X017035Y017783D01*
X016785Y017533D01*
X016285Y017533D01*
X016035Y017783D01*
X016035Y018283D01*
X016285Y018533D01*
X016035Y018783D01*
X016035Y019283D01*
X016285Y019533D01*
X016035Y019783D01*
X016035Y020283D01*
X016035Y019783D01*
X015785Y019533D01*
X016035Y019283D01*
X016035Y018783D01*
X015785Y018533D01*
X016035Y018283D01*
X016035Y017783D01*
X015785Y017533D01*
X015285Y017533D01*
X015035Y017783D01*
X015035Y018283D01*
X015285Y018533D01*
X015035Y018783D01*
X015035Y019283D01*
X015285Y019533D01*
X015035Y019783D01*
X015035Y020283D01*
X015035Y019783D01*
X014785Y019533D01*
X015035Y019283D01*
X015035Y018783D01*
X014785Y018533D01*
X015035Y018283D01*
X015035Y017783D01*
X014785Y017533D01*
X014285Y017533D01*
X014035Y017783D01*
X014035Y018283D01*
X014285Y018533D01*
X014035Y018783D01*
X014035Y019283D01*
X014285Y019533D01*
X014035Y019783D01*
X014035Y020283D01*
X014035Y019783D01*
X013785Y019533D01*
X014035Y019283D01*
X014035Y018783D01*
X013785Y018533D01*
X014035Y018283D01*
X014035Y017783D01*
X013785Y017533D01*
X013285Y017533D01*
X013035Y017783D01*
X013035Y018283D01*
X013285Y018533D01*
X013035Y018783D01*
X013035Y019283D01*
X013285Y019533D01*
X013035Y019783D01*
X013035Y020283D01*
X013035Y019783D01*
X012785Y019533D01*
X013035Y019283D01*
X013035Y018783D01*
X012785Y018533D01*
X013035Y018283D01*
X013035Y017783D01*
X012785Y017533D01*
X012285Y017533D01*
X012035Y017783D01*
X010035Y019783D02*
X009785Y019533D01*
X009285Y019533D01*
X009035Y019783D01*
X009035Y020283D01*
X009285Y020533D01*
X009785Y020533D01*
X010035Y020283D01*
X010035Y019783D01*
X009035Y019783D02*
X008785Y019533D01*
X008285Y019533D01*
X008035Y019783D01*
X008035Y020283D01*
X008285Y020533D01*
X008785Y020533D01*
X009035Y020283D01*
X008035Y020283D02*
X007785Y020533D01*
X007285Y020533D01*
X007035Y020283D01*
X007035Y019783D01*
X006785Y019533D01*
X006285Y019533D01*
X006035Y019783D01*
X006035Y020283D01*
X006285Y020533D01*
X006785Y020533D01*
X007035Y020283D01*
X007035Y019783D02*
X007285Y019533D01*
X007785Y019533D01*
X008035Y019783D01*
X006035Y019783D02*
X005785Y019533D01*
X005285Y019533D01*
X005035Y019783D01*
X005035Y020283D01*
X005285Y020533D01*
X005785Y020533D01*
X006035Y020283D01*
X005035Y020283D02*
X004785Y020533D01*
X004285Y020533D01*
X004035Y020283D01*
X004035Y019783D01*
X004285Y019533D01*
X004785Y019533D01*
X005035Y019783D01*
X018035Y019783D02*
X018035Y020283D01*
X018285Y020533D01*
X018785Y020533D01*
X019035Y020283D01*
X019285Y020533D01*
X019785Y020533D01*
X020035Y020283D01*
X020285Y020533D01*
X020785Y020533D01*
X021035Y020283D01*
X021285Y020533D01*
X021785Y020533D01*
X022035Y020283D01*
X022285Y020533D01*
X022785Y020533D01*
X023035Y020283D01*
X023285Y020533D01*
X023785Y020533D01*
X024035Y020283D01*
X024285Y020533D01*
X024785Y020533D01*
X025035Y020283D01*
X025035Y019783D01*
X024785Y019533D01*
X025035Y019283D01*
X025035Y018783D01*
X024785Y018533D01*
X025035Y018283D01*
X025035Y017783D01*
X024785Y017533D01*
X024285Y017533D01*
X024035Y017783D01*
X024035Y018283D01*
X024285Y018533D01*
X024035Y018783D01*
X024035Y019283D01*
X024285Y019533D01*
X024035Y019783D01*
X024035Y020283D01*
X024035Y019783D01*
X023785Y019533D01*
X024035Y019283D01*
X024035Y018783D01*
X023785Y018533D01*
X024035Y018283D01*
X024035Y017783D01*
X023785Y017533D01*
X023285Y017533D01*
X023035Y017783D01*
X023035Y018283D01*
X023285Y018533D01*
X023035Y018783D01*
X023035Y019283D01*
X023285Y019533D01*
X023035Y019783D01*
X023035Y020283D01*
X023035Y019783D01*
X022785Y019533D01*
X023035Y019283D01*
X023035Y018783D01*
X022785Y018533D01*
X023035Y018283D01*
X023035Y017783D01*
X022785Y017533D01*
X022285Y017533D01*
X022035Y017783D01*
X022035Y018283D01*
X022285Y018533D01*
X022035Y018783D01*
X022035Y019283D01*
X022285Y019533D01*
X022035Y019783D01*
X022035Y020283D01*
X022035Y019783D01*
X021785Y019533D01*
X022035Y019283D01*
X022035Y018783D01*
X021785Y018533D01*
X022035Y018283D01*
X022035Y017783D01*
X021785Y017533D01*
X021285Y017533D01*
X021035Y017783D01*
X021035Y018283D01*
X021285Y018533D01*
X021035Y018783D01*
X021035Y019283D01*
X021285Y019533D01*
X021035Y019783D01*
X021035Y020283D01*
X021035Y019783D01*
X020785Y019533D01*
X021035Y019283D01*
X021035Y018783D01*
X020785Y018533D01*
X021035Y018283D01*
X021035Y017783D01*
X020785Y017533D01*
X020285Y017533D01*
X020035Y017783D01*
X020035Y018283D01*
X020285Y018533D01*
X020035Y018783D01*
X020035Y019283D01*
X020285Y019533D01*
X020035Y019783D01*
X020035Y020283D01*
X020035Y019783D01*
X019785Y019533D01*
X020035Y019283D01*
X020035Y018783D01*
X019785Y018533D01*
X020035Y018283D01*
X020035Y017783D01*
X019785Y017533D01*
X019285Y017533D01*
X019035Y017783D01*
X019035Y018283D01*
X019285Y018533D01*
X019035Y018783D01*
X019035Y019283D01*
X019285Y019533D01*
X019035Y019783D01*
X019035Y020283D01*
X019035Y019783D01*
X018785Y019533D01*
X019035Y019283D01*
X019035Y018783D01*
X018785Y018533D01*
X019035Y018283D01*
X019035Y017783D01*
X018785Y017533D01*
X018285Y017533D01*
X018035Y017783D01*
X018035Y018283D01*
X018285Y018533D01*
X018035Y018783D01*
X018035Y019283D01*
X018285Y019533D01*
X018035Y019783D01*
X025035Y019783D02*
X025035Y020283D01*
X025285Y020533D01*
X025785Y020533D01*
X026035Y020283D01*
X026285Y020533D01*
X026785Y020533D01*
X027035Y020283D01*
X027035Y019783D01*
X026785Y019533D01*
X027035Y019283D01*
X027035Y018783D01*
X026785Y018533D01*
X027035Y018283D01*
X027035Y017783D01*
X026785Y017533D01*
X026285Y017533D01*
X026035Y017783D01*
X026035Y018283D01*
X026285Y018533D01*
X026035Y018783D01*
X026035Y019283D01*
X026285Y019533D01*
X026035Y019783D01*
X026035Y020283D01*
X026035Y019783D01*
X025785Y019533D01*
X026035Y019283D01*
X026035Y018783D01*
X025785Y018533D01*
X026035Y018283D01*
X026035Y017783D01*
X025785Y017533D01*
X025285Y017533D01*
X025035Y017783D01*
X025035Y018283D01*
X025285Y018533D01*
X025035Y018783D01*
X025035Y019283D01*
X025285Y019533D01*
X025035Y019783D01*
X027035Y019783D02*
X027035Y020283D01*
X027285Y020533D01*
X027785Y020533D01*
X028035Y020283D01*
X028285Y020533D01*
X028785Y020533D01*
X029035Y020283D01*
X029285Y020533D01*
X029785Y020533D01*
X030035Y020283D01*
X030285Y020533D01*
X030785Y020533D01*
X031035Y020283D01*
X031285Y020533D01*
X031785Y020533D01*
X032035Y020283D01*
X032285Y020533D01*
X032785Y020533D01*
X033035Y020283D01*
X033285Y020533D01*
X033785Y020533D01*
X034035Y020283D01*
X034035Y019783D01*
X033785Y019533D01*
X034035Y019283D01*
X034035Y018783D01*
X033785Y018533D01*
X034035Y018283D01*
X034035Y017783D01*
X033785Y017533D01*
X033285Y017533D01*
X033035Y017783D01*
X033035Y018283D01*
X033285Y018533D01*
X033035Y018783D01*
X033035Y019283D01*
X033285Y019533D01*
X033035Y019783D01*
X033035Y020283D01*
X033035Y019783D01*
X032785Y019533D01*
X033035Y019283D01*
X033035Y018783D01*
X032785Y018533D01*
X033035Y018283D01*
X033035Y017783D01*
X032785Y017533D01*
X032285Y017533D01*
X032035Y017783D01*
X032035Y018283D01*
X032285Y018533D01*
X032035Y018783D01*
X032035Y019283D01*
X032285Y019533D01*
X032035Y019783D01*
X032035Y020283D01*
X032035Y019783D01*
X031785Y019533D01*
X032035Y019283D01*
X032035Y018783D01*
X031785Y018533D01*
X032035Y018283D01*
X032035Y017783D01*
X031785Y017533D01*
X031285Y017533D01*
X031035Y017783D01*
X031035Y018283D01*
X031285Y018533D01*
X031035Y018783D01*
X031035Y019283D01*
X031285Y019533D01*
X031035Y019783D01*
X031035Y020283D01*
X031035Y019783D01*
X030785Y019533D01*
X031035Y019283D01*
X031035Y018783D01*
X030785Y018533D01*
X031035Y018283D01*
X031035Y017783D01*
X030785Y017533D01*
X030285Y017533D01*
X030035Y017783D01*
X030035Y018283D01*
X030285Y018533D01*
X030035Y018783D01*
X030035Y019283D01*
X030285Y019533D01*
X030035Y019783D01*
X030035Y020283D01*
X030035Y019783D01*
X029785Y019533D01*
X030035Y019283D01*
X030035Y018783D01*
X029785Y018533D01*
X030035Y018283D01*
X030035Y017783D01*
X029785Y017533D01*
X029285Y017533D01*
X029035Y017783D01*
X029035Y018283D01*
X029285Y018533D01*
X029035Y018783D01*
X029035Y019283D01*
X029285Y019533D01*
X029035Y019783D01*
X029035Y020283D01*
X029035Y019783D01*
X028785Y019533D01*
X029035Y019283D01*
X029035Y018783D01*
X028785Y018533D01*
X029035Y018283D01*
X029035Y017783D01*
X028785Y017533D01*
X028285Y017533D01*
X028035Y017783D01*
X028035Y018283D01*
X028285Y018533D01*
X028035Y018783D01*
X028035Y019283D01*
X028285Y019533D01*
X028035Y019783D01*
X028035Y020283D01*
X028035Y019783D01*
X027785Y019533D01*
X028035Y019283D01*
X028035Y018783D01*
X027785Y018533D01*
X028035Y018283D01*
X028035Y017783D01*
X027785Y017533D01*
X027285Y017533D01*
X027035Y017783D01*
X027035Y018283D01*
X027285Y018533D01*
X027035Y018783D01*
X027035Y019283D01*
X027285Y019533D01*
X027035Y019783D01*
X035035Y020483D02*
X035035Y020983D01*
X041435Y019433D02*
X041435Y018933D01*
X040585Y019683D02*
X040587Y019756D01*
X040593Y019829D01*
X040603Y019901D01*
X040617Y019973D01*
X040634Y020044D01*
X040656Y020114D01*
X040681Y020183D01*
X040710Y020250D01*
X040742Y020315D01*
X040778Y020379D01*
X040818Y020441D01*
X040860Y020500D01*
X040906Y020557D01*
X040955Y020611D01*
X041007Y020663D01*
X041061Y020712D01*
X041118Y020758D01*
X041177Y020800D01*
X041239Y020840D01*
X041303Y020876D01*
X041368Y020908D01*
X041435Y020937D01*
X041504Y020962D01*
X041574Y020984D01*
X041645Y021001D01*
X041717Y021015D01*
X041789Y021025D01*
X041862Y021031D01*
X041935Y021033D01*
X042008Y021031D01*
X042081Y021025D01*
X042153Y021015D01*
X042225Y021001D01*
X042296Y020984D01*
X042366Y020962D01*
X042435Y020937D01*
X042502Y020908D01*
X042567Y020876D01*
X042631Y020840D01*
X042693Y020800D01*
X042752Y020758D01*
X042809Y020712D01*
X042863Y020663D01*
X042915Y020611D01*
X042964Y020557D01*
X043010Y020500D01*
X043052Y020441D01*
X043092Y020379D01*
X043128Y020315D01*
X043160Y020250D01*
X043189Y020183D01*
X043214Y020114D01*
X043236Y020044D01*
X043253Y019973D01*
X043267Y019901D01*
X043277Y019829D01*
X043283Y019756D01*
X043285Y019683D01*
X043283Y019610D01*
X043277Y019537D01*
X043267Y019465D01*
X043253Y019393D01*
X043236Y019322D01*
X043214Y019252D01*
X043189Y019183D01*
X043160Y019116D01*
X043128Y019051D01*
X043092Y018987D01*
X043052Y018925D01*
X043010Y018866D01*
X042964Y018809D01*
X042915Y018755D01*
X042863Y018703D01*
X042809Y018654D01*
X042752Y018608D01*
X042693Y018566D01*
X042631Y018526D01*
X042567Y018490D01*
X042502Y018458D01*
X042435Y018429D01*
X042366Y018404D01*
X042296Y018382D01*
X042225Y018365D01*
X042153Y018351D01*
X042081Y018341D01*
X042008Y018335D01*
X041935Y018333D01*
X041862Y018335D01*
X041789Y018341D01*
X041717Y018351D01*
X041645Y018365D01*
X041574Y018382D01*
X041504Y018404D01*
X041435Y018429D01*
X041368Y018458D01*
X041303Y018490D01*
X041239Y018526D01*
X041177Y018566D01*
X041118Y018608D01*
X041061Y018654D01*
X041007Y018703D01*
X040955Y018755D01*
X040906Y018809D01*
X040860Y018866D01*
X040818Y018925D01*
X040778Y018987D01*
X040742Y019051D01*
X040710Y019116D01*
X040681Y019183D01*
X040656Y019252D01*
X040634Y019322D01*
X040617Y019393D01*
X040603Y019465D01*
X040593Y019537D01*
X040587Y019610D01*
X040585Y019683D01*
X041835Y018083D02*
X041835Y017583D01*
X042775Y017374D02*
X042915Y017234D01*
X042775Y017374D02*
X043195Y017374D01*
X043195Y017234D02*
X043195Y017514D01*
X043195Y017054D02*
X042775Y017054D01*
X042915Y016913D01*
X042775Y016773D01*
X043195Y016773D01*
X043696Y015928D02*
X046137Y015928D01*
X046137Y011361D01*
X043696Y011361D01*
X043696Y015928D01*
X043696Y015711D02*
X046137Y015711D01*
X046137Y018467D01*
X046452Y018467D01*
X046452Y015711D01*
X046137Y015711D01*
X046137Y015928D02*
X046452Y015928D01*
X046452Y011361D01*
X046137Y011361D01*
X046137Y011577D02*
X046137Y008822D01*
X043696Y008822D01*
X043696Y011577D01*
X046137Y011577D01*
X046452Y011577D01*
X046452Y008822D01*
X046137Y008822D01*
X046137Y009042D02*
X046137Y004475D01*
X043696Y004475D01*
X043696Y009042D01*
X046137Y009042D01*
X046452Y009042D01*
X046452Y004475D01*
X046137Y004475D01*
X043295Y005773D02*
X042875Y005773D01*
X043015Y005913D01*
X042875Y006054D01*
X043295Y006054D01*
X043085Y006234D02*
X043085Y006514D01*
X043295Y006444D02*
X042875Y006444D01*
X043085Y006234D01*
X041885Y006083D02*
X041885Y006583D01*
X041885Y007583D02*
X041885Y008083D01*
X042875Y008034D02*
X043295Y008314D01*
X042875Y008314D01*
X042875Y008494D02*
X042875Y008704D01*
X042945Y008774D01*
X043225Y008774D01*
X043295Y008704D01*
X043295Y008494D01*
X042875Y008494D01*
X042875Y008034D02*
X043295Y008034D01*
X043225Y007854D02*
X043085Y007854D01*
X043085Y007713D01*
X042945Y007573D02*
X043225Y007573D01*
X043295Y007643D01*
X043295Y007784D01*
X043225Y007854D01*
X042945Y007854D02*
X042875Y007784D01*
X042875Y007643D01*
X042945Y007573D01*
X041885Y009083D02*
X041885Y009583D01*
X042825Y009673D02*
X042965Y009813D01*
X042825Y009954D01*
X043245Y009954D01*
X043175Y010134D02*
X043245Y010204D01*
X043245Y010344D01*
X043175Y010414D01*
X043105Y010414D01*
X043035Y010344D01*
X043035Y010274D01*
X043035Y010344D02*
X042965Y010414D01*
X042895Y010414D01*
X042825Y010344D01*
X042825Y010204D01*
X042895Y010134D01*
X042825Y009673D02*
X043245Y009673D01*
X041235Y010583D02*
X041235Y011083D01*
X040385Y011333D02*
X040387Y011406D01*
X040393Y011479D01*
X040403Y011551D01*
X040417Y011623D01*
X040434Y011694D01*
X040456Y011764D01*
X040481Y011833D01*
X040510Y011900D01*
X040542Y011965D01*
X040578Y012029D01*
X040618Y012091D01*
X040660Y012150D01*
X040706Y012207D01*
X040755Y012261D01*
X040807Y012313D01*
X040861Y012362D01*
X040918Y012408D01*
X040977Y012450D01*
X041039Y012490D01*
X041103Y012526D01*
X041168Y012558D01*
X041235Y012587D01*
X041304Y012612D01*
X041374Y012634D01*
X041445Y012651D01*
X041517Y012665D01*
X041589Y012675D01*
X041662Y012681D01*
X041735Y012683D01*
X041808Y012681D01*
X041881Y012675D01*
X041953Y012665D01*
X042025Y012651D01*
X042096Y012634D01*
X042166Y012612D01*
X042235Y012587D01*
X042302Y012558D01*
X042367Y012526D01*
X042431Y012490D01*
X042493Y012450D01*
X042552Y012408D01*
X042609Y012362D01*
X042663Y012313D01*
X042715Y012261D01*
X042764Y012207D01*
X042810Y012150D01*
X042852Y012091D01*
X042892Y012029D01*
X042928Y011965D01*
X042960Y011900D01*
X042989Y011833D01*
X043014Y011764D01*
X043036Y011694D01*
X043053Y011623D01*
X043067Y011551D01*
X043077Y011479D01*
X043083Y011406D01*
X043085Y011333D01*
X043083Y011260D01*
X043077Y011187D01*
X043067Y011115D01*
X043053Y011043D01*
X043036Y010972D01*
X043014Y010902D01*
X042989Y010833D01*
X042960Y010766D01*
X042928Y010701D01*
X042892Y010637D01*
X042852Y010575D01*
X042810Y010516D01*
X042764Y010459D01*
X042715Y010405D01*
X042663Y010353D01*
X042609Y010304D01*
X042552Y010258D01*
X042493Y010216D01*
X042431Y010176D01*
X042367Y010140D01*
X042302Y010108D01*
X042235Y010079D01*
X042166Y010054D01*
X042096Y010032D01*
X042025Y010015D01*
X041953Y010001D01*
X041881Y009991D01*
X041808Y009985D01*
X041735Y009983D01*
X041662Y009985D01*
X041589Y009991D01*
X041517Y010001D01*
X041445Y010015D01*
X041374Y010032D01*
X041304Y010054D01*
X041235Y010079D01*
X041168Y010108D01*
X041103Y010140D01*
X041039Y010176D01*
X040977Y010216D01*
X040918Y010258D01*
X040861Y010304D01*
X040807Y010353D01*
X040755Y010405D01*
X040706Y010459D01*
X040660Y010516D01*
X040618Y010575D01*
X040578Y010637D01*
X040542Y010701D01*
X040510Y010766D01*
X040481Y010833D01*
X040456Y010902D01*
X040434Y010972D01*
X040417Y011043D01*
X040403Y011115D01*
X040393Y011187D01*
X040387Y011260D01*
X040385Y011333D01*
X042825Y012673D02*
X042965Y012813D01*
X042825Y012954D01*
X043245Y012954D01*
X043245Y013134D02*
X042965Y013414D01*
X042895Y013414D01*
X042825Y013344D01*
X042825Y013204D01*
X042895Y013134D01*
X043245Y013134D02*
X043245Y013414D01*
X043245Y012673D02*
X042825Y012673D01*
X041835Y013083D02*
X041835Y013583D01*
X042825Y014493D02*
X042895Y014423D01*
X043175Y014423D01*
X043245Y014493D01*
X043245Y014634D01*
X043175Y014704D01*
X043035Y014704D01*
X043035Y014563D01*
X042895Y014704D02*
X042825Y014634D01*
X042825Y014493D01*
X042825Y014884D02*
X043245Y015164D01*
X042825Y015164D01*
X042825Y015344D02*
X042825Y015554D01*
X042895Y015624D01*
X043175Y015624D01*
X043245Y015554D01*
X043245Y015344D01*
X042825Y015344D01*
X042825Y014884D02*
X043245Y014884D01*
X041835Y015083D02*
X041835Y014583D01*
X043696Y015711D02*
X043696Y018467D01*
X046137Y018467D01*
X041835Y016583D02*
X041835Y016083D01*
X034035Y012583D02*
X034035Y012083D01*
X026535Y009333D02*
X026035Y009333D01*
X026035Y008333D01*
X026535Y008333D01*
X026035Y008333D02*
X021535Y008333D01*
X021491Y008335D01*
X021448Y008341D01*
X021406Y008350D01*
X021364Y008363D01*
X021324Y008380D01*
X021285Y008400D01*
X021248Y008423D01*
X021214Y008450D01*
X021181Y008479D01*
X021152Y008512D01*
X021125Y008546D01*
X021102Y008583D01*
X021082Y008622D01*
X021065Y008662D01*
X021052Y008704D01*
X021043Y008746D01*
X021037Y008789D01*
X021035Y008833D01*
X021037Y008877D01*
X021043Y008920D01*
X021052Y008962D01*
X021065Y009004D01*
X021082Y009044D01*
X021102Y009083D01*
X021125Y009120D01*
X021152Y009154D01*
X021181Y009187D01*
X021214Y009216D01*
X021248Y009243D01*
X021285Y009266D01*
X021324Y009286D01*
X021364Y009303D01*
X021406Y009316D01*
X021448Y009325D01*
X021491Y009331D01*
X021535Y009333D01*
X026035Y009333D01*
X026535Y009333D02*
X026579Y009331D01*
X026622Y009325D01*
X026664Y009316D01*
X026706Y009303D01*
X026746Y009286D01*
X026785Y009266D01*
X026822Y009243D01*
X026856Y009216D01*
X026889Y009187D01*
X026918Y009154D01*
X026945Y009120D01*
X026968Y009083D01*
X026988Y009044D01*
X027005Y009004D01*
X027018Y008962D01*
X027027Y008920D01*
X027033Y008877D01*
X027035Y008833D01*
X027033Y008789D01*
X027027Y008746D01*
X027018Y008704D01*
X027005Y008662D01*
X026988Y008622D01*
X026968Y008583D01*
X026945Y008546D01*
X026918Y008512D01*
X026889Y008479D01*
X026856Y008450D01*
X026822Y008423D01*
X026785Y008400D01*
X026746Y008380D01*
X026706Y008363D01*
X026664Y008350D01*
X026622Y008341D01*
X026579Y008335D01*
X026535Y008333D01*
X026585Y005533D02*
X026335Y005283D01*
X026335Y004783D01*
X026585Y004533D01*
X026335Y004283D01*
X026335Y003783D01*
X026585Y003533D01*
X026335Y003283D01*
X026335Y002783D01*
X026585Y002533D01*
X027085Y002533D01*
X027335Y002783D01*
X027335Y003283D01*
X027085Y003533D01*
X027335Y003783D01*
X027335Y004283D01*
X027085Y004533D01*
X027335Y004783D01*
X027335Y005283D01*
X027085Y005533D01*
X026585Y005533D01*
X026185Y005283D02*
X025935Y005533D01*
X025435Y005533D01*
X025185Y005283D01*
X025185Y004783D01*
X025435Y004533D01*
X025185Y004283D01*
X025185Y003783D01*
X025435Y003533D01*
X025185Y003283D01*
X025185Y002783D01*
X025435Y002533D01*
X025935Y002533D01*
X026185Y002783D01*
X026185Y003283D01*
X025935Y003533D01*
X026185Y003783D01*
X026185Y004283D01*
X025935Y004533D01*
X026185Y004783D01*
X026185Y005283D01*
X027335Y005283D02*
X027335Y004783D01*
X027585Y004533D01*
X027335Y004283D01*
X027335Y003783D01*
X027585Y003533D01*
X027335Y003283D01*
X027335Y002783D01*
X027585Y002533D01*
X028085Y002533D01*
X028335Y002783D01*
X028335Y003283D01*
X028585Y003533D01*
X028335Y003783D01*
X028335Y004283D01*
X028585Y004533D01*
X028335Y004783D01*
X028335Y005283D01*
X028585Y005533D01*
X029085Y005533D01*
X029335Y005283D01*
X029335Y004783D01*
X029585Y004533D01*
X029335Y004283D01*
X029335Y003783D01*
X029585Y003533D01*
X029335Y003283D01*
X029335Y002783D01*
X029585Y002533D01*
X030085Y002533D01*
X030335Y002783D01*
X030335Y003283D01*
X030085Y003533D01*
X030335Y003783D01*
X030335Y004283D01*
X030085Y004533D01*
X030335Y004783D01*
X030335Y005283D01*
X030085Y005533D01*
X029585Y005533D01*
X029335Y005283D01*
X029335Y004783D01*
X029085Y004533D01*
X029335Y004283D01*
X029335Y003783D01*
X029085Y003533D01*
X029335Y003283D01*
X029335Y002783D01*
X029085Y002533D01*
X028585Y002533D01*
X028335Y002783D01*
X028335Y003283D01*
X028085Y003533D01*
X028335Y003783D01*
X028335Y004283D01*
X028085Y004533D01*
X028335Y004783D01*
X028335Y005283D01*
X028085Y005533D01*
X027585Y005533D01*
X027335Y005283D01*
X025185Y005283D02*
X025185Y004783D01*
X024935Y004533D01*
X025185Y004283D01*
X025185Y003783D01*
X024935Y003533D01*
X025185Y003283D01*
X025185Y002783D01*
X024935Y002533D01*
X024435Y002533D01*
X024185Y002783D01*
X024185Y003283D01*
X024435Y003533D01*
X024185Y003783D01*
X024185Y004283D01*
X024435Y004533D01*
X024185Y004783D01*
X024185Y005283D01*
X024435Y005533D01*
X024935Y005533D01*
X025185Y005283D01*
X024185Y005283D02*
X024185Y004783D01*
X023935Y004533D01*
X024185Y004283D01*
X024185Y003783D01*
X023935Y003533D01*
X024185Y003283D01*
X024185Y002783D01*
X023935Y002533D01*
X023435Y002533D01*
X023185Y002783D01*
X023185Y003283D01*
X023435Y003533D01*
X023185Y003783D01*
X023185Y004283D01*
X023435Y004533D01*
X023185Y004783D01*
X023185Y005283D01*
X023435Y005533D01*
X023935Y005533D01*
X024185Y005283D01*
X023185Y005283D02*
X023185Y004783D01*
X022935Y004533D01*
X023185Y004283D01*
X023185Y003783D01*
X022935Y003533D01*
X023185Y003283D01*
X023185Y002783D01*
X022935Y002533D01*
X022435Y002533D01*
X022185Y002783D01*
X022185Y003283D01*
X022435Y003533D01*
X022185Y003783D01*
X022185Y004283D01*
X022435Y004533D01*
X022185Y004783D01*
X022185Y005283D01*
X022435Y005533D01*
X022935Y005533D01*
X023185Y005283D01*
X022035Y005283D02*
X022035Y004783D01*
X021785Y004533D01*
X022035Y004283D01*
X022035Y003783D01*
X021785Y003533D01*
X022035Y003283D01*
X022035Y002783D01*
X021785Y002533D01*
X021285Y002533D01*
X021035Y002783D01*
X020785Y002533D01*
X020285Y002533D01*
X020035Y002783D01*
X019785Y002533D01*
X019285Y002533D01*
X019035Y002783D01*
X018785Y002533D01*
X018285Y002533D01*
X018035Y002783D01*
X017785Y002533D01*
X017285Y002533D01*
X017035Y002783D01*
X016785Y002533D01*
X016285Y002533D01*
X016035Y002783D01*
X015785Y002533D01*
X015285Y002533D01*
X015035Y002783D01*
X014785Y002533D01*
X014285Y002533D01*
X014035Y002783D01*
X013785Y002533D01*
X013285Y002533D01*
X013035Y002783D01*
X012785Y002533D01*
X012285Y002533D01*
X012035Y002783D01*
X011785Y002533D01*
X011285Y002533D01*
X011035Y002783D01*
X010785Y002533D01*
X010285Y002533D01*
X010035Y002783D01*
X010035Y003283D01*
X010285Y003533D01*
X010035Y003783D01*
X010035Y004283D01*
X010285Y004533D01*
X010035Y004783D01*
X010035Y005283D01*
X010285Y005533D01*
X010785Y005533D01*
X011035Y005283D01*
X011035Y004783D01*
X010785Y004533D01*
X011035Y004283D01*
X011035Y003783D01*
X010785Y003533D01*
X011035Y003283D01*
X011035Y002783D01*
X011035Y003283D01*
X011285Y003533D01*
X011035Y003783D01*
X011035Y004283D01*
X011285Y004533D01*
X011035Y004783D01*
X011035Y005283D01*
X011285Y005533D01*
X011785Y005533D01*
X012035Y005283D01*
X012035Y004783D01*
X011785Y004533D01*
X012035Y004283D01*
X012035Y003783D01*
X011785Y003533D01*
X012035Y003283D01*
X012035Y002783D01*
X012035Y003283D01*
X012285Y003533D01*
X012035Y003783D01*
X012035Y004283D01*
X012285Y004533D01*
X012035Y004783D01*
X012035Y005283D01*
X012285Y005533D01*
X012785Y005533D01*
X013035Y005283D01*
X013035Y004783D01*
X012785Y004533D01*
X013035Y004283D01*
X013035Y003783D01*
X012785Y003533D01*
X013035Y003283D01*
X013035Y002783D01*
X013035Y003283D01*
X013285Y003533D01*
X013035Y003783D01*
X013035Y004283D01*
X013285Y004533D01*
X013035Y004783D01*
X013035Y005283D01*
X013285Y005533D01*
X013785Y005533D01*
X014035Y005283D01*
X014035Y004783D01*
X013785Y004533D01*
X014035Y004283D01*
X014035Y003783D01*
X013785Y003533D01*
X014035Y003283D01*
X014035Y002783D01*
X014035Y003283D01*
X014285Y003533D01*
X014035Y003783D01*
X014035Y004283D01*
X014285Y004533D01*
X014035Y004783D01*
X014035Y005283D01*
X014285Y005533D01*
X014785Y005533D01*
X015035Y005283D01*
X015035Y004783D01*
X014785Y004533D01*
X015035Y004283D01*
X015035Y003783D01*
X014785Y003533D01*
X015035Y003283D01*
X015035Y002783D01*
X015035Y003283D01*
X015285Y003533D01*
X015035Y003783D01*
X015035Y004283D01*
X015285Y004533D01*
X015035Y004783D01*
X015035Y005283D01*
X015285Y005533D01*
X015785Y005533D01*
X016035Y005283D01*
X016035Y004783D01*
X015785Y004533D01*
X016035Y004283D01*
X016035Y003783D01*
X015785Y003533D01*
X016035Y003283D01*
X016035Y002783D01*
X016035Y003283D01*
X016285Y003533D01*
X016035Y003783D01*
X016035Y004283D01*
X016285Y004533D01*
X016035Y004783D01*
X016035Y005283D01*
X016285Y005533D01*
X016785Y005533D01*
X017035Y005283D01*
X017035Y004783D01*
X016785Y004533D01*
X017035Y004283D01*
X017035Y003783D01*
X016785Y003533D01*
X017035Y003283D01*
X017035Y002783D01*
X017035Y003283D01*
X017285Y003533D01*
X017035Y003783D01*
X017035Y004283D01*
X017285Y004533D01*
X017035Y004783D01*
X017035Y005283D01*
X017285Y005533D01*
X017785Y005533D01*
X018035Y005283D01*
X018035Y004783D01*
X017785Y004533D01*
X018035Y004283D01*
X018035Y003783D01*
X017785Y003533D01*
X018035Y003283D01*
X018035Y002783D01*
X018035Y003283D01*
X018285Y003533D01*
X018035Y003783D01*
X018035Y004283D01*
X018285Y004533D01*
X018035Y004783D01*
X018035Y005283D01*
X018285Y005533D01*
X018785Y005533D01*
X019035Y005283D01*
X019035Y004783D01*
X018785Y004533D01*
X019035Y004283D01*
X019035Y003783D01*
X018785Y003533D01*
X019035Y003283D01*
X019035Y002783D01*
X019035Y003283D01*
X019285Y003533D01*
X019035Y003783D01*
X019035Y004283D01*
X019285Y004533D01*
X019035Y004783D01*
X019035Y005283D01*
X019285Y005533D01*
X019785Y005533D01*
X020035Y005283D01*
X020035Y004783D01*
X019785Y004533D01*
X020035Y004283D01*
X020035Y003783D01*
X019785Y003533D01*
X020035Y003283D01*
X020035Y002783D01*
X020035Y003283D01*
X020285Y003533D01*
X020035Y003783D01*
X020035Y004283D01*
X020285Y004533D01*
X020035Y004783D01*
X020035Y005283D01*
X020285Y005533D01*
X020785Y005533D01*
X021035Y005283D01*
X021035Y004783D01*
X020785Y004533D01*
X021035Y004283D01*
X021035Y003783D01*
X020785Y003533D01*
X021035Y003283D01*
X021035Y002783D01*
X021035Y003283D01*
X021285Y003533D01*
X021035Y003783D01*
X021035Y004283D01*
X021285Y004533D01*
X021035Y004783D01*
X021035Y005283D01*
X021285Y005533D01*
X021785Y005533D01*
X022035Y005283D01*
X020445Y006533D02*
X020447Y006552D01*
X020453Y006570D01*
X020462Y006586D01*
X020475Y006600D01*
X020490Y006611D01*
X020507Y006619D01*
X020526Y006623D01*
X020544Y006623D01*
X020563Y006619D01*
X020580Y006611D01*
X020595Y006600D01*
X020608Y006586D01*
X020617Y006570D01*
X020623Y006552D01*
X020625Y006533D01*
X020623Y006514D01*
X020617Y006496D01*
X020608Y006480D01*
X020595Y006466D01*
X020580Y006455D01*
X020563Y006447D01*
X020544Y006443D01*
X020526Y006443D01*
X020507Y006447D01*
X020490Y006455D01*
X020475Y006466D01*
X020462Y006480D01*
X020453Y006496D01*
X020447Y006514D01*
X020445Y006533D01*
X019445Y006383D02*
X019447Y006402D01*
X019453Y006420D01*
X019462Y006436D01*
X019475Y006450D01*
X019490Y006461D01*
X019507Y006469D01*
X019526Y006473D01*
X019544Y006473D01*
X019563Y006469D01*
X019580Y006461D01*
X019595Y006450D01*
X019608Y006436D01*
X019617Y006420D01*
X019623Y006402D01*
X019625Y006383D01*
X019623Y006364D01*
X019617Y006346D01*
X019608Y006330D01*
X019595Y006316D01*
X019580Y006305D01*
X019563Y006297D01*
X019544Y006293D01*
X019526Y006293D01*
X019507Y006297D01*
X019490Y006305D01*
X019475Y006316D01*
X019462Y006330D01*
X019453Y006346D01*
X019447Y006364D01*
X019445Y006383D01*
X018445Y006383D02*
X018447Y006402D01*
X018453Y006420D01*
X018462Y006436D01*
X018475Y006450D01*
X018490Y006461D01*
X018507Y006469D01*
X018526Y006473D01*
X018544Y006473D01*
X018563Y006469D01*
X018580Y006461D01*
X018595Y006450D01*
X018608Y006436D01*
X018617Y006420D01*
X018623Y006402D01*
X018625Y006383D01*
X018623Y006364D01*
X018617Y006346D01*
X018608Y006330D01*
X018595Y006316D01*
X018580Y006305D01*
X018563Y006297D01*
X018544Y006293D01*
X018526Y006293D01*
X018507Y006297D01*
X018490Y006305D01*
X018475Y006316D01*
X018462Y006330D01*
X018453Y006346D01*
X018447Y006364D01*
X018445Y006383D01*
X017445Y006383D02*
X017447Y006402D01*
X017453Y006420D01*
X017462Y006436D01*
X017475Y006450D01*
X017490Y006461D01*
X017507Y006469D01*
X017526Y006473D01*
X017544Y006473D01*
X017563Y006469D01*
X017580Y006461D01*
X017595Y006450D01*
X017608Y006436D01*
X017617Y006420D01*
X017623Y006402D01*
X017625Y006383D01*
X017623Y006364D01*
X017617Y006346D01*
X017608Y006330D01*
X017595Y006316D01*
X017580Y006305D01*
X017563Y006297D01*
X017544Y006293D01*
X017526Y006293D01*
X017507Y006297D01*
X017490Y006305D01*
X017475Y006316D01*
X017462Y006330D01*
X017453Y006346D01*
X017447Y006364D01*
X017445Y006383D01*
X015535Y008333D02*
X020035Y008333D01*
X020035Y009333D01*
X015535Y009333D01*
X015491Y009331D01*
X015448Y009325D01*
X015406Y009316D01*
X015364Y009303D01*
X015324Y009286D01*
X015285Y009266D01*
X015248Y009243D01*
X015214Y009216D01*
X015181Y009187D01*
X015152Y009154D01*
X015125Y009120D01*
X015102Y009083D01*
X015082Y009044D01*
X015065Y009004D01*
X015052Y008962D01*
X015043Y008920D01*
X015037Y008877D01*
X015035Y008833D01*
X015037Y008789D01*
X015043Y008746D01*
X015052Y008704D01*
X015065Y008662D01*
X015082Y008622D01*
X015102Y008583D01*
X015125Y008546D01*
X015152Y008512D01*
X015181Y008479D01*
X015214Y008450D01*
X015248Y008423D01*
X015285Y008400D01*
X015324Y008380D01*
X015364Y008363D01*
X015406Y008350D01*
X015448Y008341D01*
X015491Y008335D01*
X015535Y008333D01*
X014535Y008333D02*
X010035Y008333D01*
X010035Y009333D01*
X009535Y009333D01*
X010035Y009333D02*
X014535Y009333D01*
X014579Y009331D01*
X014622Y009325D01*
X014664Y009316D01*
X014706Y009303D01*
X014746Y009286D01*
X014785Y009266D01*
X014822Y009243D01*
X014856Y009216D01*
X014889Y009187D01*
X014918Y009154D01*
X014945Y009120D01*
X014968Y009083D01*
X014988Y009044D01*
X015005Y009004D01*
X015018Y008962D01*
X015027Y008920D01*
X015033Y008877D01*
X015035Y008833D01*
X015033Y008789D01*
X015027Y008746D01*
X015018Y008704D01*
X015005Y008662D01*
X014988Y008622D01*
X014968Y008583D01*
X014945Y008546D01*
X014918Y008512D01*
X014889Y008479D01*
X014856Y008450D01*
X014822Y008423D01*
X014785Y008400D01*
X014746Y008380D01*
X014706Y008363D01*
X014664Y008350D01*
X014622Y008341D01*
X014579Y008335D01*
X014535Y008333D01*
X010035Y008333D02*
X009535Y008333D01*
X009491Y008335D01*
X009448Y008341D01*
X009406Y008350D01*
X009364Y008363D01*
X009324Y008380D01*
X009285Y008400D01*
X009248Y008423D01*
X009214Y008450D01*
X009181Y008479D01*
X009152Y008512D01*
X009125Y008546D01*
X009102Y008583D01*
X009082Y008622D01*
X009065Y008662D01*
X009052Y008704D01*
X009043Y008746D01*
X009037Y008789D01*
X009035Y008833D01*
X009037Y008877D01*
X009043Y008920D01*
X009052Y008962D01*
X009065Y009004D01*
X009082Y009044D01*
X009102Y009083D01*
X009125Y009120D01*
X009152Y009154D01*
X009181Y009187D01*
X009214Y009216D01*
X009248Y009243D01*
X009285Y009266D01*
X009324Y009286D01*
X009364Y009303D01*
X009406Y009316D01*
X009448Y009325D01*
X009491Y009331D01*
X009535Y009333D01*
X007085Y005683D02*
X007087Y005756D01*
X007093Y005829D01*
X007103Y005901D01*
X007117Y005973D01*
X007134Y006044D01*
X007156Y006114D01*
X007181Y006183D01*
X007210Y006250D01*
X007242Y006315D01*
X007278Y006379D01*
X007318Y006441D01*
X007360Y006500D01*
X007406Y006557D01*
X007455Y006611D01*
X007507Y006663D01*
X007561Y006712D01*
X007618Y006758D01*
X007677Y006800D01*
X007739Y006840D01*
X007803Y006876D01*
X007868Y006908D01*
X007935Y006937D01*
X008004Y006962D01*
X008074Y006984D01*
X008145Y007001D01*
X008217Y007015D01*
X008289Y007025D01*
X008362Y007031D01*
X008435Y007033D01*
X008508Y007031D01*
X008581Y007025D01*
X008653Y007015D01*
X008725Y007001D01*
X008796Y006984D01*
X008866Y006962D01*
X008935Y006937D01*
X009002Y006908D01*
X009067Y006876D01*
X009131Y006840D01*
X009193Y006800D01*
X009252Y006758D01*
X009309Y006712D01*
X009363Y006663D01*
X009415Y006611D01*
X009464Y006557D01*
X009510Y006500D01*
X009552Y006441D01*
X009592Y006379D01*
X009628Y006315D01*
X009660Y006250D01*
X009689Y006183D01*
X009714Y006114D01*
X009736Y006044D01*
X009753Y005973D01*
X009767Y005901D01*
X009777Y005829D01*
X009783Y005756D01*
X009785Y005683D01*
X009783Y005610D01*
X009777Y005537D01*
X009767Y005465D01*
X009753Y005393D01*
X009736Y005322D01*
X009714Y005252D01*
X009689Y005183D01*
X009660Y005116D01*
X009628Y005051D01*
X009592Y004987D01*
X009552Y004925D01*
X009510Y004866D01*
X009464Y004809D01*
X009415Y004755D01*
X009363Y004703D01*
X009309Y004654D01*
X009252Y004608D01*
X009193Y004566D01*
X009131Y004526D01*
X009067Y004490D01*
X009002Y004458D01*
X008935Y004429D01*
X008866Y004404D01*
X008796Y004382D01*
X008725Y004365D01*
X008653Y004351D01*
X008581Y004341D01*
X008508Y004335D01*
X008435Y004333D01*
X008362Y004335D01*
X008289Y004341D01*
X008217Y004351D01*
X008145Y004365D01*
X008074Y004382D01*
X008004Y004404D01*
X007935Y004429D01*
X007868Y004458D01*
X007803Y004490D01*
X007739Y004526D01*
X007677Y004566D01*
X007618Y004608D01*
X007561Y004654D01*
X007507Y004703D01*
X007455Y004755D01*
X007406Y004809D01*
X007360Y004866D01*
X007318Y004925D01*
X007278Y004987D01*
X007242Y005051D01*
X007210Y005116D01*
X007181Y005183D01*
X007156Y005252D01*
X007134Y005322D01*
X007117Y005393D01*
X007103Y005465D01*
X007093Y005537D01*
X007087Y005610D01*
X007085Y005683D01*
X006505Y004984D02*
X006225Y004984D01*
X006365Y005124D02*
X006365Y004843D01*
X007102Y004572D02*
X007102Y002131D01*
X004346Y002131D01*
X004346Y004572D01*
X007102Y004572D01*
X008685Y005183D02*
X009185Y005183D01*
X008035Y003733D02*
X008035Y003233D01*
X007615Y002474D02*
X007615Y002193D01*
X007475Y002334D02*
X007755Y002334D01*
X007102Y002131D02*
X007102Y001816D01*
X004346Y001816D01*
X004346Y002131D01*
X004005Y002284D02*
X003725Y002284D01*
X003985Y003183D02*
X004135Y003333D01*
X003985Y003483D01*
X004135Y003333D02*
X003635Y003333D01*
X002885Y004133D01*
X003185Y004433D01*
X003185Y005133D01*
X003335Y004983D01*
X003185Y005133D02*
X003035Y004983D01*
X002885Y004133D02*
X001285Y004133D01*
X004975Y004934D02*
X005255Y004934D01*
X020035Y008333D02*
X020535Y008333D01*
X020579Y008335D01*
X020622Y008341D01*
X020664Y008350D01*
X020706Y008363D01*
X020746Y008380D01*
X020785Y008400D01*
X020822Y008423D01*
X020856Y008450D01*
X020889Y008479D01*
X020918Y008512D01*
X020945Y008546D01*
X020968Y008583D01*
X020988Y008622D01*
X021005Y008662D01*
X021018Y008704D01*
X021027Y008746D01*
X021033Y008789D01*
X021035Y008833D01*
X021033Y008877D01*
X021027Y008920D01*
X021018Y008962D01*
X021005Y009004D01*
X020988Y009044D01*
X020968Y009083D01*
X020945Y009120D01*
X020918Y009154D01*
X020889Y009187D01*
X020856Y009216D01*
X020822Y009243D01*
X020785Y009266D01*
X020746Y009286D01*
X020706Y009303D01*
X020664Y009316D01*
X020622Y009325D01*
X020579Y009331D01*
X020535Y009333D01*
X020035Y009333D01*
X030485Y005283D02*
X030485Y004783D01*
X030735Y004533D01*
X030485Y004283D01*
X030485Y003783D01*
X030735Y003533D01*
X030485Y003283D01*
X030485Y002783D01*
X030735Y002533D01*
X031235Y002533D01*
X031485Y002783D01*
X031485Y003283D01*
X031735Y003533D01*
X031485Y003783D01*
X031485Y004283D01*
X031735Y004533D01*
X031485Y004783D01*
X031485Y005283D01*
X031735Y005533D01*
X032235Y005533D01*
X032485Y005283D01*
X032485Y004783D01*
X032735Y004533D01*
X032485Y004283D01*
X032485Y003783D01*
X032735Y003533D01*
X032485Y003283D01*
X032485Y002783D01*
X032735Y002533D01*
X033235Y002533D01*
X033485Y002783D01*
X033485Y003283D01*
X033735Y003533D01*
X033485Y003783D01*
X033485Y004283D01*
X033735Y004533D01*
X033485Y004783D01*
X033485Y005283D01*
X033735Y005533D01*
X034235Y005533D01*
X034485Y005283D01*
X034485Y004783D01*
X034235Y004533D01*
X034485Y004283D01*
X034485Y003783D01*
X034235Y003533D01*
X034485Y003283D01*
X034485Y002783D01*
X034235Y002533D01*
X033735Y002533D01*
X033485Y002783D01*
X033485Y003283D01*
X033235Y003533D01*
X033485Y003783D01*
X033485Y004283D01*
X033235Y004533D01*
X033485Y004783D01*
X033485Y005283D01*
X033235Y005533D01*
X032735Y005533D01*
X032485Y005283D01*
X032485Y004783D01*
X032235Y004533D01*
X032485Y004283D01*
X032485Y003783D01*
X032235Y003533D01*
X032485Y003283D01*
X032485Y002783D01*
X032235Y002533D01*
X031735Y002533D01*
X031485Y002783D01*
X031485Y003283D01*
X031235Y003533D01*
X031485Y003783D01*
X031485Y004283D01*
X031235Y004533D01*
X031485Y004783D01*
X031485Y005283D01*
X031235Y005533D01*
X030735Y005533D01*
X030485Y005283D01*
X036035Y003083D02*
X036035Y002583D01*
X036285Y002333D01*
X036785Y002333D01*
X037035Y002583D01*
X037035Y003083D01*
X036785Y003333D01*
X036285Y003333D01*
X036035Y003083D01*
X038535Y003083D02*
X038535Y002583D01*
X041035Y002583D02*
X041285Y002333D01*
X041785Y002333D01*
X042035Y002583D01*
X042035Y003083D01*
X041785Y003333D01*
X041285Y003333D01*
X041035Y003083D01*
X041035Y002583D01*
X041885Y004583D02*
X041885Y005083D01*
D16*
X005435Y005783D02*
X005310Y005783D01*
X005435Y005783D02*
X005435Y006658D01*
X003185Y005783D02*
X000125Y005783D01*
X000125Y009323D01*
X001495Y009323D01*
X001495Y005793D01*
X005435Y008783D02*
X005435Y009323D01*
X001495Y009323D01*
D17*
X007355Y008960D02*
X007508Y009114D01*
X007508Y008653D01*
X007505Y008653D02*
X007812Y008653D01*
X007662Y008653D02*
X007355Y008653D01*
X007658Y008653D02*
X007658Y009114D01*
X007505Y008960D01*
X007782Y012253D02*
X007935Y012253D01*
X008012Y012330D01*
X008012Y012714D01*
X008165Y012637D02*
X008165Y012560D01*
X008242Y012484D01*
X008396Y012484D01*
X008472Y012407D01*
X008472Y012330D01*
X008396Y012253D01*
X008242Y012253D01*
X008165Y012330D01*
X007782Y012253D02*
X007705Y012330D01*
X007705Y012714D01*
X008165Y012637D02*
X008242Y012714D01*
X008396Y012714D01*
X008472Y012637D01*
X008626Y012714D02*
X008856Y012714D01*
X008933Y012637D01*
X008933Y012560D01*
X008856Y012484D01*
X008626Y012484D01*
X008626Y012714D02*
X008626Y012253D01*
X008856Y012253D01*
X008933Y012330D01*
X008933Y012407D01*
X008856Y012484D01*
X007896Y015753D02*
X007972Y015830D01*
X007972Y015907D01*
X007896Y015984D01*
X007665Y015984D01*
X007665Y015830D01*
X007742Y015753D01*
X007896Y015753D01*
X007665Y015984D02*
X007819Y016137D01*
X007972Y016214D01*
X007846Y016553D02*
X007692Y016553D01*
X007615Y016630D01*
X007922Y016937D01*
X007922Y016630D01*
X007846Y016553D01*
X007615Y016630D02*
X007615Y016937D01*
X007692Y017014D01*
X007846Y017014D01*
X007922Y016937D01*
X007462Y016784D02*
X007155Y016784D01*
X007385Y017014D01*
X007385Y016553D01*
X007512Y016214D02*
X007205Y016214D01*
X007205Y015984D01*
X007358Y016060D01*
X007435Y016060D01*
X007512Y015984D01*
X007512Y015830D01*
X007435Y015753D01*
X007282Y015753D01*
X007205Y015830D01*
X026155Y016553D02*
X026462Y016860D01*
X026462Y016937D01*
X026385Y017014D01*
X026232Y017014D01*
X026155Y016937D01*
X026615Y016860D02*
X026769Y017014D01*
X026769Y016553D01*
X026922Y016553D02*
X026615Y016553D01*
X026462Y016553D02*
X026155Y016553D01*
X034155Y016137D02*
X034232Y016214D01*
X034385Y016214D01*
X034462Y016137D01*
X034462Y016060D01*
X034155Y015753D01*
X034462Y015753D01*
X034615Y015830D02*
X034692Y015753D01*
X034846Y015753D01*
X034922Y015830D01*
X034922Y016137D01*
X034846Y016214D01*
X034692Y016214D01*
X034615Y016137D01*
X034615Y016060D01*
X034692Y015984D01*
X034922Y015984D01*
X034467Y011714D02*
X034237Y011714D01*
X034237Y011253D01*
X034467Y011253D01*
X034544Y011330D01*
X034544Y011637D01*
X034467Y011714D01*
X034084Y011637D02*
X034007Y011714D01*
X033853Y011714D01*
X033777Y011637D01*
X033777Y011560D01*
X033853Y011484D01*
X034007Y011484D01*
X034084Y011407D01*
X034084Y011330D01*
X034007Y011253D01*
X033853Y011253D01*
X033777Y011330D01*
X033623Y011330D02*
X033623Y011484D01*
X033547Y011560D01*
X033393Y011560D01*
X033316Y011484D01*
X033316Y011330D01*
X033393Y011253D01*
X033547Y011253D01*
X033623Y011330D01*
X033163Y011560D02*
X033086Y011560D01*
X032933Y011407D01*
X032933Y011560D02*
X032933Y011253D01*
X032779Y011253D02*
X032549Y011253D01*
X032472Y011330D01*
X032472Y011484D01*
X032549Y011560D01*
X032779Y011560D01*
X032242Y011560D02*
X032242Y011253D01*
X032165Y011253D02*
X032319Y011253D01*
X032012Y011253D02*
X032012Y011484D01*
X031935Y011560D01*
X031858Y011484D01*
X031858Y011253D01*
X031705Y011253D02*
X031705Y011560D01*
X031782Y011560D01*
X031858Y011484D01*
X032165Y011560D02*
X032242Y011560D01*
X032242Y011714D02*
X032242Y011790D01*
X026922Y009037D02*
X026615Y008730D01*
X026692Y008653D01*
X026846Y008653D01*
X026922Y008730D01*
X026922Y009037D01*
X026846Y009114D01*
X026692Y009114D01*
X026615Y009037D01*
X026615Y008730D01*
X026462Y008653D02*
X026155Y008653D01*
X026462Y008960D01*
X026462Y009037D01*
X026385Y009114D01*
X026232Y009114D01*
X026155Y009037D01*
X034155Y008787D02*
X034232Y008864D01*
X034385Y008864D01*
X034462Y008787D01*
X034462Y008710D01*
X034155Y008403D01*
X034462Y008403D01*
X034615Y008480D02*
X034615Y008557D01*
X034692Y008634D01*
X034846Y008634D01*
X034922Y008557D01*
X034922Y008480D01*
X034846Y008403D01*
X034692Y008403D01*
X034615Y008480D01*
X034692Y008634D02*
X034615Y008710D01*
X034615Y008787D01*
X034692Y008864D01*
X034846Y008864D01*
X034922Y008787D01*
X034922Y008710D01*
X034846Y008634D01*
D18*
X006762Y011713D02*
X006762Y011953D01*
X006444Y011986D01*
X006410Y012092D01*
X006359Y012192D01*
X006561Y012439D01*
X006391Y012609D01*
X006144Y012407D01*
X006044Y012459D01*
X005937Y012493D01*
X005905Y012810D01*
X005665Y012810D01*
X005633Y012493D01*
X005526Y012459D01*
X005426Y012407D01*
X005179Y012609D01*
X005009Y012439D01*
X005211Y012192D01*
X005160Y012092D01*
X005126Y011986D01*
X004808Y011953D01*
X004808Y011713D01*
X005126Y011681D01*
X005160Y011574D01*
X005211Y011475D01*
X005009Y011227D01*
X005179Y011058D01*
X005426Y011259D01*
X005526Y011208D01*
X005667Y011549D01*
X005614Y011578D01*
X005567Y011616D01*
X005529Y011662D01*
X005501Y011716D01*
X005483Y011773D01*
X005477Y011833D01*
X005484Y011896D01*
X005503Y011956D01*
X005534Y012011D01*
X005576Y012059D01*
X005626Y012097D01*
X005683Y012124D01*
X005745Y012138D01*
X005808Y012140D01*
X005870Y012129D01*
X005929Y012105D01*
X005981Y012070D01*
X006025Y012025D01*
X006060Y011972D01*
X006082Y011913D01*
X006092Y011851D01*
X006089Y011787D01*
X006073Y011726D01*
X006045Y011670D01*
X006007Y011620D01*
X005958Y011579D01*
X005903Y011549D01*
X006044Y011208D01*
X006144Y011259D01*
X006391Y011058D01*
X006561Y011227D01*
X006359Y011475D01*
X006410Y011574D01*
X006444Y011681D01*
X006762Y011713D01*
X006762Y011733D02*
X006075Y011733D01*
X006089Y011790D02*
X006762Y011790D01*
X006762Y011848D02*
X006092Y011848D01*
X006083Y011906D02*
X006762Y011906D01*
X006666Y011963D02*
X006063Y011963D01*
X006028Y012021D02*
X006433Y012021D01*
X006415Y012078D02*
X005969Y012078D01*
X005832Y012136D02*
X006388Y012136D01*
X006360Y012193D02*
X005210Y012193D01*
X005182Y012136D02*
X005734Y012136D01*
X005602Y012078D02*
X005155Y012078D01*
X005137Y012021D02*
X005542Y012021D01*
X005507Y011963D02*
X004904Y011963D01*
X004808Y011906D02*
X005487Y011906D01*
X005479Y011848D02*
X004808Y011848D01*
X004808Y011790D02*
X005482Y011790D01*
X005496Y011733D02*
X004808Y011733D01*
X005128Y011675D02*
X005522Y011675D01*
X005566Y011618D02*
X005146Y011618D01*
X005167Y011560D02*
X005647Y011560D01*
X005648Y011503D02*
X005197Y011503D01*
X005187Y011445D02*
X005624Y011445D01*
X005600Y011388D02*
X005140Y011388D01*
X005093Y011330D02*
X005576Y011330D01*
X005553Y011272D02*
X005046Y011272D01*
X005022Y011215D02*
X005372Y011215D01*
X005301Y011157D02*
X005079Y011157D01*
X005137Y011100D02*
X005231Y011100D01*
X005513Y011215D02*
X005529Y011215D01*
X005970Y011388D02*
X006430Y011388D01*
X006383Y011445D02*
X005946Y011445D01*
X005922Y011503D02*
X006373Y011503D01*
X006403Y011560D02*
X005923Y011560D01*
X006004Y011618D02*
X006424Y011618D01*
X006442Y011675D02*
X006048Y011675D01*
X005994Y011330D02*
X006477Y011330D01*
X006524Y011272D02*
X006017Y011272D01*
X006041Y011215D02*
X006057Y011215D01*
X006198Y011215D02*
X006548Y011215D01*
X006491Y011157D02*
X006269Y011157D01*
X006339Y011100D02*
X006433Y011100D01*
X006407Y012251D02*
X005163Y012251D01*
X005116Y012308D02*
X006454Y012308D01*
X006501Y012366D02*
X005069Y012366D01*
X005022Y012424D02*
X005406Y012424D01*
X005458Y012424D02*
X006112Y012424D01*
X006164Y012424D02*
X006548Y012424D01*
X006519Y012481D02*
X006234Y012481D01*
X006305Y012539D02*
X006461Y012539D01*
X006404Y012596D02*
X006375Y012596D01*
X005973Y012481D02*
X005597Y012481D01*
X005637Y012539D02*
X005933Y012539D01*
X005927Y012596D02*
X005643Y012596D01*
X005649Y012654D02*
X005921Y012654D01*
X005915Y012711D02*
X005655Y012711D01*
X005661Y012769D02*
X005909Y012769D01*
X005336Y012481D02*
X005051Y012481D01*
X005109Y012539D02*
X005265Y012539D01*
X005195Y012596D02*
X005166Y012596D01*
M02*
