%
M48
M72
T01C0.0130
T02C0.0150
T03C0.0276
T04C0.0315
T05C0.0320
T06C0.0354
T07C0.0394
T08C0.0400
T09C0.0472
T10C0.1260
T11C0.1300
%
T01
X15535Y5783
X16535Y5933
X20535Y6233
X21535Y6233
X24535Y11583
X24035Y11733
X24035Y12833
X24535Y12833
X23035Y12833
X22535Y12833
X21535Y12833
X20535Y12833
X19535Y12833
X19035Y12833
X18535Y12833
X17535Y13133
X17035Y13133
X16535Y13133
X16035Y13133
X15535Y13133
X15035Y13133
X14535Y13133
X14035Y13133
X13535Y13133
X12535Y13833
X25035Y17233
X26035Y17533
X33535Y16033
X36135Y14333
X34935Y13983
X34285Y14083
X34935Y13533
X34935Y13133
X34285Y13033
X36135Y13333
X35985Y10333
X35985Y9333
X34535Y8933
X35285Y4733
X38035Y18333
X34885Y19583
X34335Y18483
T02
X23535Y6583
X22535Y6583
T03
X33535Y12333
X34535Y12333
X41335Y13333
X42335Y13333
X42335Y14833
X41335Y14833
X41335Y16333
X42335Y16333
X42335Y17833
X41335Y17833
X35535Y20733
X34535Y20733
X41385Y9333
X42385Y9333
X42385Y7833
X41385Y7833
X41385Y6333
X42385Y6333
X42385Y4833
X41385Y4833
X39035Y2833
X38035Y2833
X8535Y3483
X7535Y3483
T04
X9535Y8833
X10535Y8833
X11535Y8833
X12535Y8833
X13535Y8833
X14535Y8833
X15535Y8833
X16535Y8833
X17535Y8833
X18535Y8833
X19535Y8833
X20535Y8833
X21535Y8833
X22535Y8833
X23535Y8833
X24535Y8833
X25535Y8833
X26535Y8833
T05
X36785Y8833
X36785Y7833
X36785Y6833
X36785Y5833
X36785Y4833
X36785Y3833
X39785Y3833
X39785Y4833
X39785Y5833
X39785Y6833
X39785Y7833
X39785Y8833
X39785Y9833
X39785Y10833
X36785Y10833
X36785Y9833
X36785Y12833
X36785Y13833
X36785Y14833
X36785Y15833
X36785Y16833
X36785Y17833
X36785Y18833
X36785Y19833
X39785Y19833
X39785Y18833
X39785Y17833
X39785Y16833
X39785Y15833
X39785Y14833
X39785Y13833
X39785Y12833
T06
X41735Y11833
X41735Y10833
X34885Y15333
X32535Y15333
X41935Y19183
X41935Y20183
X12035Y14683
X8935Y5683
X7935Y5683
T07
X7535Y7833
X8535Y7833
X9535Y7833
X10535Y7833
X11535Y7833
X12535Y7833
X13535Y7833
X14535Y7833
X15535Y7833
X16535Y7833
X17535Y7833
X18535Y7833
X19535Y7833
X20535Y7833
X21535Y7833
X22535Y7833
X23535Y7833
X24535Y7833
X25535Y7833
X26535Y7833
X27535Y7833
X28535Y7833
X29535Y7833
X30535Y7833
X31535Y7833
X32535Y7833
X33535Y7833
X34535Y7833
X26535Y9833
X25535Y9833
X24535Y9833
X23535Y9833
X22535Y9833
X21535Y9833
X20535Y9833
X19535Y9833
X18535Y9833
X17535Y9833
X16535Y9833
X15535Y9833
X14535Y9833
X13535Y9833
X12535Y9833
X11535Y9833
X10535Y9833
X9535Y9833
X8535Y9833
X7535Y9833
X7535Y15833
X8535Y15833
X9535Y15833
X10535Y15833
X11535Y15833
X12535Y15833
X13535Y15833
X14535Y15833
X15535Y15833
X16535Y15833
X17535Y15833
X18535Y15833
X19535Y15833
X20535Y15833
X21535Y15833
X22535Y15833
X23535Y15833
X24535Y15833
X25535Y15833
X26535Y15833
X26535Y16833
X25535Y16833
X24535Y16833
X23535Y16833
X22535Y16833
X21535Y16833
X20535Y16833
X19535Y16833
X18535Y16833
X17535Y16833
X16535Y16833
X15535Y16833
X14535Y16833
X13535Y16833
X12535Y16833
X11535Y16833
X10535Y16833
X9535Y16833
X8535Y16833
X7535Y16833
X5035Y16833
X4035Y16833
X3035Y16833
X27535Y16833
X28535Y16833
X29535Y16833
X30535Y16833
X31535Y16833
X32535Y16833
X33535Y16833
X34535Y16833
T08
X33535Y18033
X32535Y18033
X31535Y18033
X30535Y18033
X29535Y18033
X28535Y18033
X27535Y18033
X26535Y18033
X25535Y18033
X24535Y18033
X23535Y18033
X22535Y18033
X21535Y18033
X20535Y18033
X19535Y18033
X18535Y18033
X17535Y18033
X16535Y18033
X15535Y18033
X14535Y18033
X13535Y18033
X12535Y18033
X11535Y18033
X10535Y18033
X10535Y19033
X11535Y19033
X12535Y19033
X13535Y19033
X14535Y19033
X15535Y19033
X16535Y19033
X17535Y19033
X18535Y19033
X19535Y19033
X20535Y19033
X21535Y19033
X22535Y19033
X23535Y19033
X24535Y19033
X25535Y19033
X26535Y19033
X27535Y19033
X28535Y19033
X29535Y19033
X30535Y19033
X31535Y19033
X32535Y19033
X33535Y19033
X33535Y20033
X32535Y20033
X31535Y20033
X30535Y20033
X29535Y20033
X28535Y20033
X27535Y20033
X26535Y20033
X25535Y20033
X24535Y20033
X23535Y20033
X22535Y20033
X21535Y20033
X20535Y20033
X19535Y20033
X18535Y20033
X17535Y20033
X16535Y20033
X15535Y20033
X14535Y20033
X13535Y20033
X12535Y20033
X11535Y20033
X10535Y20033
X9535Y19983
X8535Y20083
X7535Y19983
X6535Y20083
X5535Y19983
X4535Y20083
X4035Y14833
X3035Y14833
X5035Y14833
X10535Y5033
X11535Y5033
X12535Y5033
X13535Y5033
X14535Y5033
X15535Y5033
X16535Y5033
X17535Y5033
X18535Y5033
X19535Y5033
X20535Y5033
X21535Y5033
X22685Y5033
X23685Y5033
X24685Y5033
X25685Y5033
X26835Y5033
X27835Y5033
X28835Y5033
X29835Y5033
X30985Y5033
X31985Y5033
X32985Y5033
X33985Y5033
X33985Y4033
X32985Y4033
X31985Y4033
X30985Y4033
X29835Y4033
X28835Y4033
X27835Y4033
X26835Y4033
X25685Y4033
X24685Y4033
X23685Y4033
X22685Y4033
X21535Y4033
X20535Y4033
X19535Y4033
X18535Y4033
X17535Y4033
X16535Y4033
X15535Y4033
X14535Y4033
X13535Y4033
X12535Y4033
X11535Y4033
X10535Y4033
X10535Y3033
X11535Y3033
X12535Y3033
X13535Y3033
X14535Y3033
X15535Y3033
X16535Y3033
X17535Y3033
X18535Y3033
X19535Y3033
X20535Y3033
X21535Y3033
X22685Y3033
X23685Y3033
X24685Y3033
X25685Y3033
X26835Y3033
X27835Y3033
X28835Y3033
X29835Y3033
X30985Y3033
X31985Y3033
X32985Y3033
X33985Y3033
X36535Y2833
X41535Y2833
T09
X45035Y5380
X45035Y6758
X45035Y8136
X45035Y9510
X45035Y10888
X45035Y12266
X45035Y13644
X45035Y15022
X45035Y16400
X45035Y17778
X6413Y3233
X5035Y3233
T10
X2535Y2833
X2485Y20333
X44985Y20333
X44985Y2833
T11
X5435Y7753
X3075Y7753
X4255Y5783
M30
