G75*
G70*
%OFA0B0*%
%FSLAX24Y24*%
%IPPOS*%
%LPD*%
%AMOC8*
5,1,8,0,0,1.08239X$1,22.5*
%
%ADD10C,0.1300*%
%ADD11OC8,0.1940*%
%ADD12R,0.1940X0.1940*%
%ADD13C,0.0740*%
%ADD14R,0.0780X0.0780*%
%ADD15C,0.0780*%
%ADD16C,0.0690*%
%ADD17C,0.0560*%
%ADD18R,0.0840X0.0840*%
%ADD19C,0.0840*%
%ADD20R,0.0990X0.0990*%
%ADD21C,0.0990*%
%ADD22R,0.0690X0.0690*%
%ADD23R,0.0700X0.0700*%
%ADD24C,0.0700*%
D10*
X002535Y002833D03*
X002485Y020333D03*
X044985Y020333D03*
X044985Y002833D03*
D11*
X005435Y007753D03*
X004255Y005783D03*
D12*
X003075Y007753D03*
D13*
X007535Y007833D03*
X008535Y007833D03*
X009535Y007833D03*
X010535Y007833D03*
X011535Y007833D03*
X012535Y007833D03*
X013535Y007833D03*
X014535Y007833D03*
X015535Y007833D03*
X016535Y007833D03*
X017535Y007833D03*
X018535Y007833D03*
X019535Y007833D03*
X020535Y007833D03*
X021535Y007833D03*
X022535Y007833D03*
X023535Y007833D03*
X024535Y007833D03*
X025535Y007833D03*
X026535Y007833D03*
X027535Y007833D03*
X028535Y007833D03*
X029535Y007833D03*
X030535Y007833D03*
X031535Y007833D03*
X032535Y007833D03*
X033535Y007833D03*
X034535Y007833D03*
X026535Y009833D03*
X025535Y009833D03*
X024535Y009833D03*
X023535Y009833D03*
X022535Y009833D03*
X021535Y009833D03*
X020535Y009833D03*
X019535Y009833D03*
X018535Y009833D03*
X017535Y009833D03*
X016535Y009833D03*
X015535Y009833D03*
X014535Y009833D03*
X013535Y009833D03*
X012535Y009833D03*
X011535Y009833D03*
X010535Y009833D03*
X009535Y009833D03*
X008535Y009833D03*
X007535Y009833D03*
X007535Y015833D03*
X008535Y015833D03*
X009535Y015833D03*
X010535Y015833D03*
X011535Y015833D03*
X012535Y015833D03*
X013535Y015833D03*
X014535Y015833D03*
X015535Y015833D03*
X016535Y015833D03*
X017535Y015833D03*
X018535Y015833D03*
X019535Y015833D03*
X020535Y015833D03*
X021535Y015833D03*
X022535Y015833D03*
X023535Y015833D03*
X024535Y015833D03*
X025535Y015833D03*
X026535Y015833D03*
X026535Y016833D03*
X025535Y016833D03*
X024535Y016833D03*
X023535Y016833D03*
X022535Y016833D03*
X021535Y016833D03*
X020535Y016833D03*
X019535Y016833D03*
X018535Y016833D03*
X017535Y016833D03*
X016535Y016833D03*
X015535Y016833D03*
X014535Y016833D03*
X013535Y016833D03*
X012535Y016833D03*
X011535Y016833D03*
X010535Y016833D03*
X009535Y016833D03*
X008535Y016833D03*
X007535Y016833D03*
X027535Y016833D03*
X028535Y016833D03*
X029535Y016833D03*
X030535Y016833D03*
X031535Y016833D03*
X032535Y016833D03*
X033535Y016833D03*
X034535Y016833D03*
D14*
X005035Y016833D03*
D15*
X004035Y016833D03*
X003035Y016833D03*
X003035Y014833D03*
X004035Y014833D03*
X005035Y014833D03*
X010535Y018033D03*
X011535Y018033D03*
X012535Y018033D03*
X013535Y018033D03*
X014535Y018033D03*
X015535Y018033D03*
X016535Y018033D03*
X017535Y018033D03*
X018535Y018033D03*
X019535Y018033D03*
X020535Y018033D03*
X021535Y018033D03*
X022535Y018033D03*
X023535Y018033D03*
X024535Y018033D03*
X025535Y018033D03*
X026535Y018033D03*
X027535Y018033D03*
X028535Y018033D03*
X029535Y018033D03*
X030535Y018033D03*
X031535Y018033D03*
X032535Y018033D03*
X033535Y018033D03*
X033535Y019033D03*
X032535Y019033D03*
X031535Y019033D03*
X030535Y019033D03*
X029535Y019033D03*
X028535Y019033D03*
X027535Y019033D03*
X026535Y019033D03*
X025535Y019033D03*
X024535Y019033D03*
X023535Y019033D03*
X022535Y019033D03*
X021535Y019033D03*
X020535Y019033D03*
X019535Y019033D03*
X018535Y019033D03*
X017535Y019033D03*
X016535Y019033D03*
X015535Y019033D03*
X014535Y019033D03*
X013535Y019033D03*
X012535Y019033D03*
X011535Y019033D03*
X010535Y019033D03*
X010535Y020033D03*
X011535Y020033D03*
X012535Y020033D03*
X013535Y020033D03*
X014535Y020033D03*
X015535Y020033D03*
X016535Y020033D03*
X017535Y020033D03*
X018535Y020033D03*
X019535Y020033D03*
X020535Y020033D03*
X021535Y020033D03*
X022535Y020033D03*
X023535Y020033D03*
X024535Y020033D03*
X025535Y020033D03*
X026535Y020033D03*
X027535Y020033D03*
X028535Y020033D03*
X029535Y020033D03*
X030535Y020033D03*
X031535Y020033D03*
X032535Y020033D03*
X033535Y020033D03*
X009535Y019983D03*
X008535Y020083D03*
X007535Y019983D03*
X006535Y020083D03*
X005535Y019983D03*
X004535Y020083D03*
X010535Y005033D03*
X011535Y005033D03*
X012535Y005033D03*
X013535Y005033D03*
X014535Y005033D03*
X015535Y005033D03*
X016535Y005033D03*
X017535Y005033D03*
X018535Y005033D03*
X019535Y005033D03*
X020535Y005033D03*
X021535Y005033D03*
X022685Y005033D03*
X023685Y005033D03*
X024685Y005033D03*
X025685Y005033D03*
X026835Y005033D03*
X027835Y005033D03*
X028835Y005033D03*
X029835Y005033D03*
X030985Y005033D03*
X031985Y005033D03*
X032985Y005033D03*
X033985Y005033D03*
X033985Y004033D03*
X032985Y004033D03*
X031985Y004033D03*
X030985Y004033D03*
X029835Y004033D03*
X028835Y004033D03*
X027835Y004033D03*
X026835Y004033D03*
X025685Y004033D03*
X024685Y004033D03*
X023685Y004033D03*
X022685Y004033D03*
X021535Y004033D03*
X020535Y004033D03*
X019535Y004033D03*
X018535Y004033D03*
X017535Y004033D03*
X016535Y004033D03*
X015535Y004033D03*
X014535Y004033D03*
X013535Y004033D03*
X012535Y004033D03*
X011535Y004033D03*
X010535Y004033D03*
X010535Y003033D03*
X011535Y003033D03*
X012535Y003033D03*
X013535Y003033D03*
X014535Y003033D03*
X015535Y003033D03*
X016535Y003033D03*
X017535Y003033D03*
X018535Y003033D03*
X019535Y003033D03*
X020535Y003033D03*
X021535Y003033D03*
X022685Y003033D03*
X023685Y003033D03*
X024685Y003033D03*
X025685Y003033D03*
X026835Y003033D03*
X027835Y003033D03*
X028835Y003033D03*
X029835Y003033D03*
X030985Y003033D03*
X031985Y003033D03*
X032985Y003033D03*
X033985Y003033D03*
X036535Y002833D03*
X041535Y002833D03*
D16*
X039035Y002833D03*
X038035Y002833D03*
X041385Y004833D03*
X042385Y004833D03*
X042385Y006333D03*
X041385Y006333D03*
X041385Y007833D03*
X042385Y007833D03*
X042385Y009333D03*
X041385Y009333D03*
X041735Y010833D03*
X041335Y013333D03*
X042335Y013333D03*
X042335Y014833D03*
X041335Y014833D03*
X041335Y016333D03*
X042335Y016333D03*
X042335Y017833D03*
X041335Y017833D03*
X041935Y019183D03*
X035535Y020733D03*
X034535Y020733D03*
X034535Y012333D03*
X033535Y012333D03*
X008935Y005683D03*
X008535Y003483D03*
X007535Y003483D03*
D17*
X036525Y003833D02*
X037045Y003833D01*
X037045Y004833D02*
X036525Y004833D01*
X036525Y005833D02*
X037045Y005833D01*
X037045Y006833D02*
X036525Y006833D01*
X036525Y007833D02*
X037045Y007833D01*
X037045Y008833D02*
X036525Y008833D01*
X036525Y009833D02*
X037045Y009833D01*
X037045Y010833D02*
X036525Y010833D01*
X039525Y010833D02*
X040045Y010833D01*
X040045Y009833D02*
X039525Y009833D01*
X039525Y008833D02*
X040045Y008833D01*
X040045Y007833D02*
X039525Y007833D01*
X039525Y006833D02*
X040045Y006833D01*
X040045Y005833D02*
X039525Y005833D01*
X039525Y004833D02*
X040045Y004833D01*
X040045Y003833D02*
X039525Y003833D01*
X039525Y012833D02*
X040045Y012833D01*
X040045Y013833D02*
X039525Y013833D01*
X039525Y014833D02*
X040045Y014833D01*
X040045Y015833D02*
X039525Y015833D01*
X039525Y016833D02*
X040045Y016833D01*
X040045Y017833D02*
X039525Y017833D01*
X039525Y018833D02*
X040045Y018833D01*
X040045Y019833D02*
X039525Y019833D01*
X037045Y019833D02*
X036525Y019833D01*
X036525Y018833D02*
X037045Y018833D01*
X037045Y017833D02*
X036525Y017833D01*
X036525Y016833D02*
X037045Y016833D01*
X037045Y015833D02*
X036525Y015833D01*
X036525Y014833D02*
X037045Y014833D01*
X037045Y013833D02*
X036525Y013833D01*
X036525Y012833D02*
X037045Y012833D01*
D18*
X045035Y009510D03*
X045035Y016400D03*
X005035Y003233D03*
D19*
X006413Y003233D03*
X045035Y010888D03*
X045035Y017778D03*
D20*
X045035Y012266D03*
X045035Y005380D03*
D21*
X045035Y006758D03*
X045035Y008136D03*
X045035Y013644D03*
X045035Y015022D03*
D22*
X041735Y011833D03*
X041935Y020183D03*
X007935Y005683D03*
D23*
X009535Y008833D03*
X020535Y008833D03*
X026535Y008833D03*
D24*
X025535Y008833D03*
X024535Y008833D03*
X023535Y008833D03*
X022535Y008833D03*
X021535Y008833D03*
X019535Y008833D03*
X018535Y008833D03*
X017535Y008833D03*
X016535Y008833D03*
X015535Y008833D03*
X014535Y008833D03*
X013535Y008833D03*
X012535Y008833D03*
X011535Y008833D03*
X010535Y008833D03*
M02*
