G75*
G70*
%OFA0B0*%
%FSLAX24Y24*%
%IPPOS*%
%LPD*%
%AMOC8*
5,1,8,0,0,1.08239X$1,22.5*
%
%ADD10C,0.0100*%
%ADD11C,0.0000*%
D10*
X001035Y001833D02*
X001035Y021333D01*
X046535Y021333D01*
X046535Y001833D01*
X001035Y001833D01*
D11*
X001905Y002833D02*
X001907Y002883D01*
X001913Y002933D01*
X001923Y002982D01*
X001937Y003030D01*
X001954Y003077D01*
X001975Y003122D01*
X002000Y003166D01*
X002028Y003207D01*
X002060Y003246D01*
X002094Y003283D01*
X002131Y003317D01*
X002171Y003347D01*
X002213Y003374D01*
X002257Y003398D01*
X002303Y003419D01*
X002350Y003435D01*
X002398Y003448D01*
X002448Y003457D01*
X002497Y003462D01*
X002548Y003463D01*
X002598Y003460D01*
X002647Y003453D01*
X002696Y003442D01*
X002744Y003427D01*
X002790Y003409D01*
X002835Y003387D01*
X002878Y003361D01*
X002919Y003332D01*
X002958Y003300D01*
X002994Y003265D01*
X003026Y003227D01*
X003056Y003187D01*
X003083Y003144D01*
X003106Y003100D01*
X003125Y003054D01*
X003141Y003006D01*
X003153Y002957D01*
X003161Y002908D01*
X003165Y002858D01*
X003165Y002808D01*
X003161Y002758D01*
X003153Y002709D01*
X003141Y002660D01*
X003125Y002612D01*
X003106Y002566D01*
X003083Y002522D01*
X003056Y002479D01*
X003026Y002439D01*
X002994Y002401D01*
X002958Y002366D01*
X002919Y002334D01*
X002878Y002305D01*
X002835Y002279D01*
X002790Y002257D01*
X002744Y002239D01*
X002696Y002224D01*
X002647Y002213D01*
X002598Y002206D01*
X002548Y002203D01*
X002497Y002204D01*
X002448Y002209D01*
X002398Y002218D01*
X002350Y002231D01*
X002303Y002247D01*
X002257Y002268D01*
X002213Y002292D01*
X002171Y002319D01*
X002131Y002349D01*
X002094Y002383D01*
X002060Y002420D01*
X002028Y002459D01*
X002000Y002500D01*
X001975Y002544D01*
X001954Y002589D01*
X001937Y002636D01*
X001923Y002684D01*
X001913Y002733D01*
X001907Y002783D01*
X001905Y002833D01*
X001855Y020333D02*
X001857Y020383D01*
X001863Y020433D01*
X001873Y020482D01*
X001887Y020530D01*
X001904Y020577D01*
X001925Y020622D01*
X001950Y020666D01*
X001978Y020707D01*
X002010Y020746D01*
X002044Y020783D01*
X002081Y020817D01*
X002121Y020847D01*
X002163Y020874D01*
X002207Y020898D01*
X002253Y020919D01*
X002300Y020935D01*
X002348Y020948D01*
X002398Y020957D01*
X002447Y020962D01*
X002498Y020963D01*
X002548Y020960D01*
X002597Y020953D01*
X002646Y020942D01*
X002694Y020927D01*
X002740Y020909D01*
X002785Y020887D01*
X002828Y020861D01*
X002869Y020832D01*
X002908Y020800D01*
X002944Y020765D01*
X002976Y020727D01*
X003006Y020687D01*
X003033Y020644D01*
X003056Y020600D01*
X003075Y020554D01*
X003091Y020506D01*
X003103Y020457D01*
X003111Y020408D01*
X003115Y020358D01*
X003115Y020308D01*
X003111Y020258D01*
X003103Y020209D01*
X003091Y020160D01*
X003075Y020112D01*
X003056Y020066D01*
X003033Y020022D01*
X003006Y019979D01*
X002976Y019939D01*
X002944Y019901D01*
X002908Y019866D01*
X002869Y019834D01*
X002828Y019805D01*
X002785Y019779D01*
X002740Y019757D01*
X002694Y019739D01*
X002646Y019724D01*
X002597Y019713D01*
X002548Y019706D01*
X002498Y019703D01*
X002447Y019704D01*
X002398Y019709D01*
X002348Y019718D01*
X002300Y019731D01*
X002253Y019747D01*
X002207Y019768D01*
X002163Y019792D01*
X002121Y019819D01*
X002081Y019849D01*
X002044Y019883D01*
X002010Y019920D01*
X001978Y019959D01*
X001950Y020000D01*
X001925Y020044D01*
X001904Y020089D01*
X001887Y020136D01*
X001873Y020184D01*
X001863Y020233D01*
X001857Y020283D01*
X001855Y020333D01*
X044355Y020333D02*
X044357Y020383D01*
X044363Y020433D01*
X044373Y020482D01*
X044387Y020530D01*
X044404Y020577D01*
X044425Y020622D01*
X044450Y020666D01*
X044478Y020707D01*
X044510Y020746D01*
X044544Y020783D01*
X044581Y020817D01*
X044621Y020847D01*
X044663Y020874D01*
X044707Y020898D01*
X044753Y020919D01*
X044800Y020935D01*
X044848Y020948D01*
X044898Y020957D01*
X044947Y020962D01*
X044998Y020963D01*
X045048Y020960D01*
X045097Y020953D01*
X045146Y020942D01*
X045194Y020927D01*
X045240Y020909D01*
X045285Y020887D01*
X045328Y020861D01*
X045369Y020832D01*
X045408Y020800D01*
X045444Y020765D01*
X045476Y020727D01*
X045506Y020687D01*
X045533Y020644D01*
X045556Y020600D01*
X045575Y020554D01*
X045591Y020506D01*
X045603Y020457D01*
X045611Y020408D01*
X045615Y020358D01*
X045615Y020308D01*
X045611Y020258D01*
X045603Y020209D01*
X045591Y020160D01*
X045575Y020112D01*
X045556Y020066D01*
X045533Y020022D01*
X045506Y019979D01*
X045476Y019939D01*
X045444Y019901D01*
X045408Y019866D01*
X045369Y019834D01*
X045328Y019805D01*
X045285Y019779D01*
X045240Y019757D01*
X045194Y019739D01*
X045146Y019724D01*
X045097Y019713D01*
X045048Y019706D01*
X044998Y019703D01*
X044947Y019704D01*
X044898Y019709D01*
X044848Y019718D01*
X044800Y019731D01*
X044753Y019747D01*
X044707Y019768D01*
X044663Y019792D01*
X044621Y019819D01*
X044581Y019849D01*
X044544Y019883D01*
X044510Y019920D01*
X044478Y019959D01*
X044450Y020000D01*
X044425Y020044D01*
X044404Y020089D01*
X044387Y020136D01*
X044373Y020184D01*
X044363Y020233D01*
X044357Y020283D01*
X044355Y020333D01*
X044355Y002833D02*
X044357Y002883D01*
X044363Y002933D01*
X044373Y002982D01*
X044387Y003030D01*
X044404Y003077D01*
X044425Y003122D01*
X044450Y003166D01*
X044478Y003207D01*
X044510Y003246D01*
X044544Y003283D01*
X044581Y003317D01*
X044621Y003347D01*
X044663Y003374D01*
X044707Y003398D01*
X044753Y003419D01*
X044800Y003435D01*
X044848Y003448D01*
X044898Y003457D01*
X044947Y003462D01*
X044998Y003463D01*
X045048Y003460D01*
X045097Y003453D01*
X045146Y003442D01*
X045194Y003427D01*
X045240Y003409D01*
X045285Y003387D01*
X045328Y003361D01*
X045369Y003332D01*
X045408Y003300D01*
X045444Y003265D01*
X045476Y003227D01*
X045506Y003187D01*
X045533Y003144D01*
X045556Y003100D01*
X045575Y003054D01*
X045591Y003006D01*
X045603Y002957D01*
X045611Y002908D01*
X045615Y002858D01*
X045615Y002808D01*
X045611Y002758D01*
X045603Y002709D01*
X045591Y002660D01*
X045575Y002612D01*
X045556Y002566D01*
X045533Y002522D01*
X045506Y002479D01*
X045476Y002439D01*
X045444Y002401D01*
X045408Y002366D01*
X045369Y002334D01*
X045328Y002305D01*
X045285Y002279D01*
X045240Y002257D01*
X045194Y002239D01*
X045146Y002224D01*
X045097Y002213D01*
X045048Y002206D01*
X044998Y002203D01*
X044947Y002204D01*
X044898Y002209D01*
X044848Y002218D01*
X044800Y002231D01*
X044753Y002247D01*
X044707Y002268D01*
X044663Y002292D01*
X044621Y002319D01*
X044581Y002349D01*
X044544Y002383D01*
X044510Y002420D01*
X044478Y002459D01*
X044450Y002500D01*
X044425Y002544D01*
X044404Y002589D01*
X044387Y002636D01*
X044373Y002684D01*
X044363Y002733D01*
X044357Y002783D01*
X044355Y002833D01*
M02*
