%
M48
M72
T01C0.0150
T02C0.0320
T03C0.0350
T04C0.0400
%
T01
X17560Y19400
X17410Y20060
X18060Y19900
X19270Y19660
X19460Y20010
X19670Y19640
X20960Y20100
X22050Y21240
X22260Y21790
X22760Y22000
X22410Y22590
X23880Y23100
X23970Y22590
X24920Y23300
X26560Y23200
X27360Y23200
X27960Y23200
X28360Y23800
X28360Y24300
X27960Y24800
X27360Y24800
X26560Y24800
X29460Y23300
X29260Y22700
X29660Y22600
X29060Y21550
X26660Y20300
X22960Y19800
X20560Y21500
X20560Y22300
X20760Y22700
X20960Y23690
X20260Y24000
X19920Y23780
X19550Y24340
X18460Y24550
X17700Y24200
X17620Y23800
X18860Y23100
X17660Y22800
X17700Y22190
X18080Y22000
X18020Y21620
X17640Y21420
X16420Y21560
X15970Y21970
X15550Y22260
X15950Y22720
X15690Y23400
X15690Y23800
X14060Y24300
X14340Y25080
X14780Y25220
X13360Y24800
X13060Y25100
X11860Y24400
X10560Y23200
X11960Y22800
X12160Y22200
X10360Y21600
X8760Y20300
X7100Y22460
X7760Y22900
X7120Y23330
X5260Y23300
X5611Y24629
X8240Y25560
X14030Y21870
X17220Y25280
X18530Y25660
X19660Y25800
X20960Y24090
X22060Y23600
X22460Y23400
X30760Y25300
T02
X24260Y25050
X24260Y26050
T03
X6938Y24514
X6938Y21364
T04
X4760Y18300
X5760Y18300
X6760Y18300
X7760Y18300
X8760Y18300
X9760Y18300
X10760Y18300
X11760Y18300
X12760Y18300
X13760Y18300
X14760Y18300
X15760Y18300
X16760Y18300
X17760Y18300
X18760Y18300
X19760Y18300
X20760Y18300
X21760Y18300
X22760Y18300
X23760Y18300
X24760Y18300
X25760Y18300
X26760Y18300
X27760Y18300
X28760Y18300
X29760Y18300
X30760Y18300
X31760Y18300
X31760Y27300
X30760Y27300
X29760Y27300
X28760Y27300
X27760Y27300
X26760Y27300
X25760Y27300
X24760Y27300
X23760Y27300
X22760Y27300
X21760Y27300
X20760Y27300
X19760Y27300
X18760Y27300
X17760Y27300
X16760Y27300
X15760Y27300
X14760Y27300
X13760Y27300
X12760Y27300
X11760Y27300
X10760Y27300
X9760Y27300
X8760Y27300
X7760Y27300
X6760Y27300
X5760Y27300
X4760Y27300
M30
