G75*
%MOIN*%
%OFA0B0*%
%FSLAX24Y24*%
%IPPOS*%
%LPD*%
%AMOC8*
5,1,8,0,0,1.08239X$1,22.5*
%
%ADD10C,0.0000*%
%ADD11C,0.0088*%
%ADD12C,0.0100*%
%ADD13R,0.0748X0.0551*%
%ADD14R,0.0551X0.0709*%
%ADD15R,0.0591X0.0315*%
%ADD16C,0.0740*%
%ADD17R,0.0740X0.0740*%
%ADD18C,0.0660*%
%ADD19R,0.0591X0.0394*%
%ADD20R,0.0787X0.0394*%
%ADD21C,0.0866*%
%ADD22R,0.0327X0.0248*%
%ADD23R,0.0472X0.0118*%
%ADD24R,0.0118X0.0472*%
%ADD25C,0.0075*%
%ADD26R,0.0598X0.0150*%
%ADD27C,0.0180*%
%ADD28R,0.0748X0.0748*%
%ADD29R,0.0354X0.0394*%
%ADD30R,0.0394X0.0354*%
%ADD31R,0.0500X0.0250*%
%ADD32R,0.0600X0.0300*%
%ADD33R,0.0600X0.0400*%
%ADD34R,0.0800X0.0600*%
%ADD35R,0.0600X0.0600*%
%ADD36C,0.0160*%
%ADD37C,0.0080*%
%ADD38C,0.0270*%
D10*
X004240Y017780D02*
X004240Y027820D01*
X032280Y027820D01*
X032280Y017780D01*
X004240Y017780D01*
X006763Y021364D02*
X006765Y021390D01*
X006771Y021416D01*
X006780Y021440D01*
X006793Y021463D01*
X006810Y021483D01*
X006829Y021501D01*
X006851Y021516D01*
X006874Y021527D01*
X006899Y021535D01*
X006925Y021539D01*
X006951Y021539D01*
X006977Y021535D01*
X007002Y021527D01*
X007026Y021516D01*
X007047Y021501D01*
X007066Y021483D01*
X007083Y021463D01*
X007096Y021440D01*
X007105Y021416D01*
X007111Y021390D01*
X007113Y021364D01*
X007111Y021338D01*
X007105Y021312D01*
X007096Y021288D01*
X007083Y021265D01*
X007066Y021245D01*
X007047Y021227D01*
X007025Y021212D01*
X007002Y021201D01*
X006977Y021193D01*
X006951Y021189D01*
X006925Y021189D01*
X006899Y021193D01*
X006874Y021201D01*
X006850Y021212D01*
X006829Y021227D01*
X006810Y021245D01*
X006793Y021265D01*
X006780Y021288D01*
X006771Y021312D01*
X006765Y021338D01*
X006763Y021364D01*
X006763Y024514D02*
X006765Y024540D01*
X006771Y024566D01*
X006780Y024590D01*
X006793Y024613D01*
X006810Y024633D01*
X006829Y024651D01*
X006851Y024666D01*
X006874Y024677D01*
X006899Y024685D01*
X006925Y024689D01*
X006951Y024689D01*
X006977Y024685D01*
X007002Y024677D01*
X007026Y024666D01*
X007047Y024651D01*
X007066Y024633D01*
X007083Y024613D01*
X007096Y024590D01*
X007105Y024566D01*
X007111Y024540D01*
X007113Y024514D01*
X007111Y024488D01*
X007105Y024462D01*
X007096Y024438D01*
X007083Y024415D01*
X007066Y024395D01*
X007047Y024377D01*
X007025Y024362D01*
X007002Y024351D01*
X006977Y024343D01*
X006951Y024339D01*
X006925Y024339D01*
X006899Y024343D01*
X006874Y024351D01*
X006850Y024362D01*
X006829Y024377D01*
X006810Y024395D01*
X006793Y024415D01*
X006780Y024438D01*
X006771Y024462D01*
X006765Y024488D01*
X006763Y024514D01*
D11*
X012529Y022831D02*
X012791Y022831D01*
X012791Y022569D01*
X012529Y022569D01*
X012529Y022831D01*
X012529Y022656D02*
X012791Y022656D01*
X012791Y022743D02*
X012529Y022743D01*
X012529Y022830D02*
X012791Y022830D01*
X013129Y022831D02*
X013391Y022831D01*
X013391Y022569D01*
X013129Y022569D01*
X013129Y022831D01*
X013129Y022656D02*
X013391Y022656D01*
X013391Y022743D02*
X013129Y022743D01*
X013129Y022830D02*
X013391Y022830D01*
X013391Y022069D02*
X013129Y022069D01*
X013129Y022331D01*
X013391Y022331D01*
X013391Y022069D01*
X013391Y022156D02*
X013129Y022156D01*
X013129Y022243D02*
X013391Y022243D01*
X013391Y022330D02*
X013129Y022330D01*
X012791Y022069D02*
X012529Y022069D01*
X012529Y022331D01*
X012791Y022331D01*
X012791Y022069D01*
X012791Y022156D02*
X012529Y022156D01*
X012529Y022243D02*
X012791Y022243D01*
X012791Y022330D02*
X012529Y022330D01*
X014329Y022571D02*
X014591Y022571D01*
X014591Y022309D01*
X014329Y022309D01*
X014329Y022571D01*
X014329Y022396D02*
X014591Y022396D01*
X014591Y022483D02*
X014329Y022483D01*
X014329Y022570D02*
X014591Y022570D01*
X014591Y022879D02*
X014329Y022879D01*
X014329Y023141D01*
X014591Y023141D01*
X014591Y022879D01*
X014591Y022966D02*
X014329Y022966D01*
X014329Y023053D02*
X014591Y023053D01*
X014591Y023140D02*
X014329Y023140D01*
X014929Y022879D02*
X015191Y022879D01*
X014929Y022879D02*
X014929Y023141D01*
X015191Y023141D01*
X015191Y022879D01*
X015191Y022966D02*
X014929Y022966D01*
X014929Y023053D02*
X015191Y023053D01*
X015191Y023140D02*
X014929Y023140D01*
X014929Y023861D02*
X015191Y023861D01*
X015191Y023599D01*
X014929Y023599D01*
X014929Y023861D01*
X014929Y023686D02*
X015191Y023686D01*
X015191Y023773D02*
X014929Y023773D01*
X014929Y023860D02*
X015191Y023860D01*
X014591Y023861D02*
X014329Y023861D01*
X014591Y023861D02*
X014591Y023599D01*
X014329Y023599D01*
X014329Y023861D01*
X014329Y023686D02*
X014591Y023686D01*
X014591Y023773D02*
X014329Y023773D01*
X014329Y023860D02*
X014591Y023860D01*
X013729Y024669D02*
X013729Y024931D01*
X013991Y024931D01*
X013991Y024669D01*
X013729Y024669D01*
X013729Y024756D02*
X013991Y024756D01*
X013991Y024843D02*
X013729Y024843D01*
X013729Y024930D02*
X013991Y024930D01*
X013729Y025269D02*
X013729Y025531D01*
X013991Y025531D01*
X013991Y025269D01*
X013729Y025269D01*
X013729Y025356D02*
X013991Y025356D01*
X013991Y025443D02*
X013729Y025443D01*
X013729Y025530D02*
X013991Y025530D01*
X015829Y025431D02*
X016091Y025431D01*
X016091Y025169D01*
X015829Y025169D01*
X015829Y025431D01*
X015829Y025256D02*
X016091Y025256D01*
X016091Y025343D02*
X015829Y025343D01*
X015829Y025430D02*
X016091Y025430D01*
X016429Y025431D02*
X016691Y025431D01*
X016691Y025169D01*
X016429Y025169D01*
X016429Y025431D01*
X016429Y025256D02*
X016691Y025256D01*
X016691Y025343D02*
X016429Y025343D01*
X016429Y025430D02*
X016691Y025430D01*
X015191Y022571D02*
X014929Y022571D01*
X015191Y022571D02*
X015191Y022309D01*
X014929Y022309D01*
X014929Y022571D01*
X014929Y022396D02*
X015191Y022396D01*
X015191Y022483D02*
X014929Y022483D01*
X014929Y022570D02*
X015191Y022570D01*
X015191Y022001D02*
X014929Y022001D01*
X015191Y022001D02*
X015191Y021739D01*
X014929Y021739D01*
X014929Y022001D01*
X014929Y021826D02*
X015191Y021826D01*
X015191Y021913D02*
X014929Y021913D01*
X014929Y022000D02*
X015191Y022000D01*
X014591Y022001D02*
X014329Y022001D01*
X014591Y022001D02*
X014591Y021739D01*
X014329Y021739D01*
X014329Y022001D01*
X014329Y021826D02*
X014591Y021826D01*
X014591Y021913D02*
X014329Y021913D01*
X014329Y022000D02*
X014591Y022000D01*
X014591Y021169D02*
X014329Y021169D01*
X014329Y021431D01*
X014591Y021431D01*
X014591Y021169D01*
X014591Y021256D02*
X014329Y021256D01*
X014329Y021343D02*
X014591Y021343D01*
X014591Y021430D02*
X014329Y021430D01*
X014929Y021169D02*
X015191Y021169D01*
X014929Y021169D02*
X014929Y021431D01*
X015191Y021431D01*
X015191Y021169D01*
X015191Y021256D02*
X014929Y021256D01*
X014929Y021343D02*
X015191Y021343D01*
X015191Y021430D02*
X014929Y021430D01*
X022729Y022469D02*
X022991Y022469D01*
X022729Y022469D02*
X022729Y022731D01*
X022991Y022731D01*
X022991Y022469D01*
X022991Y022556D02*
X022729Y022556D01*
X022729Y022643D02*
X022991Y022643D01*
X022991Y022730D02*
X022729Y022730D01*
X022729Y023231D02*
X022991Y023231D01*
X022991Y022969D01*
X022729Y022969D01*
X022729Y023231D01*
X022729Y023056D02*
X022991Y023056D01*
X022991Y023143D02*
X022729Y023143D01*
X022729Y023230D02*
X022991Y023230D01*
X023329Y023231D02*
X023591Y023231D01*
X023591Y022969D01*
X023329Y022969D01*
X023329Y023231D01*
X023329Y023056D02*
X023591Y023056D01*
X023591Y023143D02*
X023329Y023143D01*
X023329Y023230D02*
X023591Y023230D01*
X023591Y022469D02*
X023329Y022469D01*
X023329Y022731D01*
X023591Y022731D01*
X023591Y022469D01*
X023591Y022556D02*
X023329Y022556D01*
X023329Y022643D02*
X023591Y022643D01*
X023591Y022730D02*
X023329Y022730D01*
X023291Y021589D02*
X023029Y021589D01*
X023029Y021851D01*
X023291Y021851D01*
X023291Y021589D01*
X023291Y021676D02*
X023029Y021676D01*
X023029Y021763D02*
X023291Y021763D01*
X023291Y021850D02*
X023029Y021850D01*
X023629Y021589D02*
X023891Y021589D01*
X023629Y021589D02*
X023629Y021851D01*
X023891Y021851D01*
X023891Y021589D01*
X023891Y021676D02*
X023629Y021676D01*
X023629Y021763D02*
X023891Y021763D01*
X023891Y021850D02*
X023629Y021850D01*
X025889Y021869D02*
X025889Y022131D01*
X026151Y022131D01*
X026151Y021869D01*
X025889Y021869D01*
X025889Y021956D02*
X026151Y021956D01*
X026151Y022043D02*
X025889Y022043D01*
X025889Y022130D02*
X026151Y022130D01*
X025889Y022469D02*
X025889Y022731D01*
X026151Y022731D01*
X026151Y022469D01*
X025889Y022469D01*
X025889Y022556D02*
X026151Y022556D01*
X026151Y022643D02*
X025889Y022643D01*
X025889Y022730D02*
X026151Y022730D01*
X023691Y024919D02*
X023429Y024919D01*
X023429Y025181D01*
X023691Y025181D01*
X023691Y024919D01*
X023691Y025006D02*
X023429Y025006D01*
X023429Y025093D02*
X023691Y025093D01*
X023691Y025180D02*
X023429Y025180D01*
X023091Y024919D02*
X022829Y024919D01*
X022829Y025181D01*
X023091Y025181D01*
X023091Y024919D01*
X023091Y025006D02*
X022829Y025006D01*
X022829Y025093D02*
X023091Y025093D01*
X023091Y025180D02*
X022829Y025180D01*
X022829Y025819D02*
X023091Y025819D01*
X022829Y025819D02*
X022829Y026081D01*
X023091Y026081D01*
X023091Y025819D01*
X023091Y025906D02*
X022829Y025906D01*
X022829Y025993D02*
X023091Y025993D01*
X023091Y026080D02*
X022829Y026080D01*
X023429Y025819D02*
X023691Y025819D01*
X023429Y025819D02*
X023429Y026081D01*
X023691Y026081D01*
X023691Y025819D01*
X023691Y025906D02*
X023429Y025906D01*
X023429Y025993D02*
X023691Y025993D01*
X023691Y026080D02*
X023429Y026080D01*
D12*
X023256Y026183D02*
X023246Y026200D01*
X023210Y026236D01*
X023166Y026262D01*
X023116Y026275D01*
X022997Y026275D01*
X022997Y025988D01*
X022922Y025988D01*
X022922Y026275D01*
X022803Y026275D01*
X022753Y026262D01*
X022709Y026236D01*
X022673Y026200D01*
X022648Y026156D01*
X022635Y026107D01*
X022635Y025988D01*
X022922Y025988D01*
X022922Y025912D01*
X022997Y025912D01*
X022997Y025625D01*
X023116Y025625D01*
X023166Y025638D01*
X023210Y025664D01*
X023246Y025700D01*
X023256Y025717D01*
X023348Y025625D01*
X023771Y025625D01*
X023885Y025738D01*
X023885Y025746D01*
X023988Y025643D01*
X024164Y025570D01*
X024355Y025570D01*
X024437Y025604D01*
X024520Y025521D01*
X024520Y025462D01*
X024355Y025530D01*
X024164Y025530D01*
X023988Y025457D01*
X023853Y025322D01*
X023844Y025302D01*
X023771Y025375D01*
X023348Y025375D01*
X023256Y025283D01*
X023246Y025300D01*
X023210Y025336D01*
X023166Y025362D01*
X023116Y025375D01*
X022997Y025375D01*
X022997Y025088D01*
X022922Y025088D01*
X022922Y025375D01*
X022803Y025375D01*
X022753Y025362D01*
X022709Y025336D01*
X022673Y025300D01*
X022648Y025256D01*
X022635Y025207D01*
X022635Y025088D01*
X022922Y025088D01*
X022922Y025012D01*
X022635Y025012D01*
X022635Y024893D01*
X022648Y024844D01*
X022673Y024800D01*
X022709Y024764D01*
X022738Y024747D01*
X022720Y024729D01*
X022457Y024466D01*
X021821Y024466D01*
X021802Y024485D01*
X021205Y024485D01*
X021117Y024398D01*
X021117Y024333D01*
X021016Y024375D01*
X020903Y024375D01*
X020798Y024332D01*
X020718Y024251D01*
X020675Y024147D01*
X020675Y024033D01*
X020718Y023929D01*
X020756Y023890D01*
X020718Y023851D01*
X020675Y023747D01*
X020675Y023633D01*
X020718Y023529D01*
X020798Y023448D01*
X020903Y023405D01*
X021016Y023405D01*
X021117Y023447D01*
X021117Y023285D01*
X020676Y023285D01*
X020381Y022990D01*
X020270Y022879D01*
X020270Y022321D01*
X020275Y022316D01*
X020275Y022243D01*
X020318Y022139D01*
X020398Y022058D01*
X020503Y022015D01*
X020616Y022015D01*
X020721Y022058D01*
X020801Y022139D01*
X020845Y022243D01*
X020845Y022357D01*
X020820Y022416D01*
X020921Y022458D01*
X021001Y022539D01*
X021045Y022643D01*
X021045Y022708D01*
X021117Y022708D01*
X021117Y022702D01*
X021193Y022702D01*
X021193Y022702D01*
X021193Y022702D01*
X021117Y022702D01*
X021117Y022477D01*
X021027Y022387D01*
X020920Y022279D01*
X020920Y022129D01*
X020781Y021990D01*
X020338Y021990D01*
X020050Y022279D01*
X020050Y023221D01*
X020450Y023621D01*
X020450Y023787D01*
X020501Y023839D01*
X020545Y023943D01*
X020545Y024057D01*
X020501Y024161D01*
X020421Y024242D01*
X020316Y024285D01*
X020203Y024285D01*
X020098Y024242D01*
X020018Y024161D01*
X019978Y024064D01*
X019976Y024065D01*
X019863Y024065D01*
X019758Y024022D01*
X019678Y023941D01*
X019635Y023837D01*
X019635Y023744D01*
X019581Y023690D01*
X019470Y023579D01*
X019470Y022021D01*
X020070Y021421D01*
X020181Y021310D01*
X020346Y021310D01*
X020398Y021258D01*
X020503Y021215D01*
X020616Y021215D01*
X020721Y021258D01*
X020801Y021339D01*
X020845Y021443D01*
X020845Y021557D01*
X020822Y021610D01*
X020938Y021610D01*
X021117Y021789D01*
X021117Y021717D01*
X021117Y021202D01*
X021205Y021115D01*
X021793Y021115D01*
X021808Y021079D01*
X021888Y020998D01*
X021993Y020955D01*
X022106Y020955D01*
X022211Y020998D01*
X022291Y021079D01*
X022335Y021183D01*
X022335Y021297D01*
X022321Y021330D01*
X022470Y021330D01*
X022470Y021121D01*
X022570Y021021D01*
X022681Y020910D01*
X022740Y020910D01*
X022740Y020752D01*
X022857Y020635D01*
X023322Y020635D01*
X023440Y020752D01*
X023440Y021368D01*
X023392Y021416D01*
X023463Y021487D01*
X023473Y021470D01*
X023507Y021436D01*
X023479Y021408D01*
X023453Y021362D01*
X023440Y021311D01*
X023440Y021110D01*
X023740Y021110D01*
X023740Y021485D01*
X023722Y021485D01*
X023722Y021682D01*
X023797Y021682D01*
X023797Y021395D01*
X023840Y021395D01*
X023840Y021110D01*
X024140Y021110D01*
X024140Y021311D01*
X024126Y021362D01*
X024100Y021408D01*
X024062Y021445D01*
X024036Y021460D01*
X024046Y021470D01*
X024071Y021514D01*
X024085Y021563D01*
X024085Y021682D01*
X023797Y021682D01*
X023797Y021758D01*
X023722Y021758D01*
X023722Y022045D01*
X023603Y022045D01*
X023553Y022032D01*
X023509Y022006D01*
X023473Y021970D01*
X023463Y021953D01*
X023371Y022045D01*
X023045Y022045D01*
X023045Y022057D01*
X023019Y022118D01*
X023766Y022118D01*
X023877Y022229D01*
X023953Y022305D01*
X024026Y022305D01*
X024131Y022348D01*
X024211Y022429D01*
X024255Y022533D01*
X024255Y022647D01*
X024211Y022751D01*
X024131Y022832D01*
X024048Y022866D01*
X024121Y022939D01*
X024165Y023043D01*
X024165Y023157D01*
X024121Y023261D01*
X024041Y023342D01*
X023936Y023385D01*
X023823Y023385D01*
X023744Y023352D01*
X023671Y023425D01*
X023248Y023425D01*
X023156Y023333D01*
X023146Y023350D01*
X023110Y023386D01*
X023066Y023412D01*
X023016Y023425D01*
X022897Y023425D01*
X022897Y023138D01*
X022822Y023138D01*
X022822Y023425D01*
X022745Y023425D01*
X022745Y023457D01*
X022701Y023561D01*
X022621Y023642D01*
X022516Y023685D01*
X022403Y023685D01*
X022343Y023660D01*
X022301Y023761D01*
X022221Y023842D01*
X022116Y023885D01*
X022003Y023885D01*
X021898Y023842D01*
X021890Y023833D01*
X021890Y023890D01*
X022668Y023890D01*
X023038Y024260D01*
X023638Y024260D01*
X023788Y024410D01*
X024538Y024410D01*
X024788Y024660D01*
X024788Y024660D01*
X024900Y024771D01*
X024900Y025679D01*
X024706Y025873D01*
X024740Y025955D01*
X024740Y026145D01*
X024666Y026322D01*
X024531Y026457D01*
X024355Y026530D01*
X024164Y026530D01*
X023988Y026457D01*
X023853Y026322D01*
X023815Y026231D01*
X023771Y026275D01*
X023348Y026275D01*
X023256Y026183D01*
X023344Y026271D02*
X023131Y026271D01*
X022997Y026271D02*
X022922Y026271D01*
X022922Y026173D02*
X022997Y026173D01*
X022997Y026074D02*
X022922Y026074D01*
X022922Y025976D02*
X020926Y025976D01*
X020926Y026074D02*
X022635Y026074D01*
X022657Y026173D02*
X020926Y026173D01*
X020926Y026198D02*
X021552Y026823D01*
X021656Y026780D01*
X021863Y026780D01*
X022054Y026859D01*
X022200Y027005D01*
X022260Y027148D01*
X022319Y027005D01*
X022465Y026859D01*
X022656Y026780D01*
X022863Y026780D01*
X023054Y026859D01*
X023200Y027005D01*
X023260Y027148D01*
X023319Y027005D01*
X023465Y026859D01*
X023656Y026780D01*
X023863Y026780D01*
X024054Y026859D01*
X024200Y027005D01*
X024260Y027148D01*
X024319Y027005D01*
X024465Y026859D01*
X024656Y026780D01*
X024863Y026780D01*
X025054Y026859D01*
X025200Y027005D01*
X025260Y027148D01*
X025319Y027005D01*
X025465Y026859D01*
X025656Y026780D01*
X025863Y026780D01*
X026054Y026859D01*
X026200Y027005D01*
X026260Y027148D01*
X026319Y027005D01*
X026465Y026859D01*
X026656Y026780D01*
X026863Y026780D01*
X027054Y026859D01*
X027200Y027005D01*
X027260Y027148D01*
X027319Y027005D01*
X027465Y026859D01*
X027656Y026780D01*
X027863Y026780D01*
X028054Y026859D01*
X028200Y027005D01*
X028260Y027148D01*
X028319Y027005D01*
X028465Y026859D01*
X028656Y026780D01*
X028863Y026780D01*
X029054Y026859D01*
X029200Y027005D01*
X029260Y027148D01*
X029319Y027005D01*
X029465Y026859D01*
X029656Y026780D01*
X029863Y026780D01*
X030054Y026859D01*
X030200Y027005D01*
X030261Y027152D01*
X030278Y027100D01*
X030315Y027027D01*
X030363Y026961D01*
X030421Y026903D01*
X030487Y026855D01*
X030560Y026818D01*
X030638Y026793D01*
X030710Y026781D01*
X030710Y027250D01*
X030810Y027250D01*
X030810Y026781D01*
X030881Y026793D01*
X030959Y026818D01*
X031032Y026855D01*
X031098Y026903D01*
X031156Y026961D01*
X031204Y027027D01*
X031240Y027097D01*
X031240Y026868D01*
X031327Y026780D01*
X031530Y026780D01*
X031530Y025895D01*
X031164Y025530D01*
X030933Y025530D01*
X030921Y025542D01*
X030816Y025585D01*
X030703Y025585D01*
X030598Y025542D01*
X030518Y025461D01*
X030475Y025357D01*
X030475Y025243D01*
X030518Y025139D01*
X030598Y025058D01*
X030703Y025015D01*
X030816Y025015D01*
X030921Y025058D01*
X030933Y025070D01*
X031355Y025070D01*
X031855Y025570D01*
X031990Y025705D01*
X031990Y026780D01*
X032130Y026780D01*
X032130Y018665D01*
X032054Y018741D01*
X031863Y018820D01*
X031656Y018820D01*
X031465Y018741D01*
X031319Y018595D01*
X031258Y018448D01*
X031241Y018500D01*
X031204Y018573D01*
X031156Y018639D01*
X031098Y018697D01*
X031032Y018745D01*
X030959Y018782D01*
X030881Y018807D01*
X030810Y018819D01*
X030810Y018350D01*
X030710Y018350D01*
X030710Y018819D01*
X030638Y018807D01*
X030560Y018782D01*
X030487Y018745D01*
X030421Y018697D01*
X030363Y018639D01*
X030315Y018573D01*
X030278Y018500D01*
X030261Y018448D01*
X030200Y018595D01*
X030054Y018741D01*
X029863Y018820D01*
X029656Y018820D01*
X029465Y018741D01*
X029319Y018595D01*
X029260Y018452D01*
X029200Y018595D01*
X029054Y018741D01*
X028863Y018820D01*
X028656Y018820D01*
X028465Y018741D01*
X028319Y018595D01*
X028260Y018452D01*
X028200Y018595D01*
X028054Y018741D01*
X027863Y018820D01*
X027656Y018820D01*
X027465Y018741D01*
X027319Y018595D01*
X027260Y018452D01*
X027200Y018595D01*
X027054Y018741D01*
X026863Y018820D01*
X026656Y018820D01*
X026559Y018780D01*
X026410Y018929D01*
X026298Y019040D01*
X025548Y019040D01*
X025490Y019099D01*
X025378Y019210D01*
X024618Y019210D01*
X024560Y019269D01*
X024448Y019380D01*
X021678Y019380D01*
X021670Y019389D01*
X021579Y019479D01*
X021785Y019479D01*
X021873Y019567D01*
X021873Y020085D01*
X021785Y020173D01*
X021307Y020173D01*
X021245Y020111D01*
X021245Y020157D01*
X021201Y020261D01*
X021121Y020342D01*
X021016Y020385D01*
X020945Y020385D01*
X020945Y020854D01*
X020857Y020942D01*
X019434Y020942D01*
X019358Y020942D01*
X019358Y020866D01*
X019358Y020866D01*
X019358Y020866D01*
X019358Y020942D01*
X018449Y020942D01*
X018374Y020942D01*
X018374Y020866D01*
X018374Y020866D01*
X018374Y020866D01*
X018374Y020942D01*
X017859Y020942D01*
X017662Y020942D01*
X017574Y020854D01*
X017574Y020298D01*
X017571Y020302D01*
X017466Y020345D01*
X017353Y020345D01*
X017248Y020302D01*
X017168Y020221D01*
X017125Y020117D01*
X017125Y020003D01*
X017168Y019899D01*
X017248Y019818D01*
X017353Y019775D01*
X017370Y019775D01*
X017370Y019613D01*
X017318Y019561D01*
X017275Y019457D01*
X017275Y019343D01*
X017318Y019239D01*
X017398Y019158D01*
X017503Y019115D01*
X017616Y019115D01*
X017721Y019158D01*
X017801Y019239D01*
X017845Y019343D01*
X017845Y019457D01*
X017801Y019561D01*
X017750Y019613D01*
X017750Y019691D01*
X017812Y019754D01*
X017818Y019739D01*
X017898Y019658D01*
X018003Y019615D01*
X018116Y019615D01*
X018221Y019658D01*
X018301Y019739D01*
X018345Y019843D01*
X018345Y019916D01*
X018367Y019939D01*
X018367Y020170D01*
X018374Y020170D01*
X018381Y020170D01*
X018381Y019190D01*
X018492Y019079D01*
X018751Y018820D01*
X018656Y018820D01*
X018465Y018741D01*
X018319Y018595D01*
X018260Y018452D01*
X018200Y018595D01*
X018054Y018741D01*
X017863Y018820D01*
X017656Y018820D01*
X017465Y018741D01*
X017319Y018595D01*
X017258Y018448D01*
X017241Y018500D01*
X017204Y018573D01*
X017156Y018639D01*
X017098Y018697D01*
X017032Y018745D01*
X016959Y018782D01*
X016881Y018807D01*
X016810Y018819D01*
X016810Y018350D01*
X016710Y018350D01*
X016710Y018819D01*
X016638Y018807D01*
X016560Y018782D01*
X016487Y018745D01*
X016421Y018697D01*
X016363Y018639D01*
X016315Y018573D01*
X016278Y018500D01*
X016261Y018448D01*
X016200Y018595D01*
X016054Y018741D01*
X015863Y018820D01*
X015656Y018820D01*
X015465Y018741D01*
X015319Y018595D01*
X015260Y018452D01*
X015200Y018595D01*
X015054Y018741D01*
X014863Y018820D01*
X014656Y018820D01*
X014465Y018741D01*
X014319Y018595D01*
X014260Y018452D01*
X014200Y018595D01*
X014054Y018741D01*
X013863Y018820D01*
X013656Y018820D01*
X013465Y018741D01*
X013319Y018595D01*
X013260Y018452D01*
X013200Y018595D01*
X013054Y018741D01*
X012863Y018820D01*
X012656Y018820D01*
X012465Y018741D01*
X012319Y018595D01*
X012260Y018452D01*
X012200Y018595D01*
X012054Y018741D01*
X011863Y018820D01*
X011656Y018820D01*
X011465Y018741D01*
X011319Y018595D01*
X011260Y018452D01*
X011200Y018595D01*
X011054Y018741D01*
X010863Y018820D01*
X010656Y018820D01*
X010465Y018741D01*
X010319Y018595D01*
X010260Y018452D01*
X010200Y018595D01*
X010054Y018741D01*
X009863Y018820D01*
X009656Y018820D01*
X009465Y018741D01*
X009319Y018595D01*
X009260Y018452D01*
X009200Y018595D01*
X009054Y018741D01*
X008950Y018784D01*
X008950Y020087D01*
X009001Y020139D01*
X009045Y020243D01*
X009045Y020357D01*
X009001Y020461D01*
X008921Y020542D01*
X008816Y020585D01*
X008703Y020585D01*
X008598Y020542D01*
X008518Y020461D01*
X008475Y020357D01*
X008475Y020243D01*
X008518Y020139D01*
X008570Y020087D01*
X008570Y018784D01*
X008465Y018741D01*
X008319Y018595D01*
X008260Y018452D01*
X008200Y018595D01*
X008054Y018741D01*
X007950Y018784D01*
X007950Y022687D01*
X008001Y022739D01*
X008045Y022843D01*
X008045Y022957D01*
X008001Y023061D01*
X007921Y023142D01*
X007816Y023185D01*
X007703Y023185D01*
X007598Y023142D01*
X007543Y023086D01*
X007276Y023086D01*
X007281Y023088D01*
X007361Y023169D01*
X007405Y023273D01*
X007405Y023387D01*
X007361Y023491D01*
X007281Y023572D01*
X007209Y023601D01*
X007650Y024041D01*
X008391Y023300D01*
X010292Y023300D01*
X010275Y023257D01*
X010275Y023143D01*
X010318Y023039D01*
X010392Y022964D01*
X010392Y022549D01*
X010292Y022549D01*
X010292Y023003D01*
X010047Y023003D01*
X010009Y022993D01*
X009974Y022973D01*
X009946Y022945D01*
X009927Y022911D01*
X009916Y022873D01*
X009916Y022549D01*
X010292Y022549D01*
X010292Y022449D01*
X009916Y022449D01*
X009916Y022125D01*
X009927Y022087D01*
X009946Y022052D01*
X009974Y022024D01*
X010009Y022005D01*
X010047Y021994D01*
X010292Y021994D01*
X010292Y022449D01*
X010392Y022449D01*
X010392Y022549D01*
X010768Y022549D01*
X010768Y022867D01*
X010780Y022867D01*
X010780Y022845D01*
X010784Y022840D01*
X010780Y022836D01*
X010780Y022412D01*
X010784Y022407D01*
X010780Y022403D01*
X010780Y022381D01*
X010772Y022381D01*
X010768Y022377D01*
X010768Y022449D01*
X010392Y022449D01*
X010392Y021994D01*
X010485Y021994D01*
X010376Y021885D01*
X010303Y021885D01*
X010198Y021842D01*
X010118Y021761D01*
X010075Y021657D01*
X010075Y021543D01*
X007950Y021543D01*
X007950Y021445D02*
X010115Y021445D01*
X010118Y021439D02*
X010198Y021358D01*
X010303Y021315D01*
X010416Y021315D01*
X010521Y021358D01*
X010601Y021439D01*
X010645Y021543D01*
X010645Y021616D01*
X010780Y021751D01*
X010780Y021546D01*
X010867Y021458D01*
X011592Y021458D01*
X011680Y021546D01*
X011680Y021970D01*
X011675Y021974D01*
X011680Y021979D01*
X011680Y022403D01*
X011675Y022407D01*
X011680Y022412D01*
X011680Y022434D01*
X011862Y022434D01*
X011943Y022515D01*
X012016Y022515D01*
X012121Y022558D01*
X012201Y022639D01*
X012245Y022743D01*
X012245Y022857D01*
X012201Y022961D01*
X012121Y023042D01*
X012016Y023085D01*
X011903Y023085D01*
X011798Y023042D01*
X011718Y022961D01*
X011680Y022869D01*
X011680Y023269D01*
X011675Y023273D01*
X011680Y023278D01*
X011680Y023702D01*
X011668Y023713D01*
X011669Y023715D01*
X011680Y023753D01*
X011680Y023898D01*
X011255Y023898D01*
X011255Y023948D01*
X011680Y023948D01*
X011680Y024093D01*
X011669Y024131D01*
X011668Y024133D01*
X011680Y024144D01*
X011680Y024166D01*
X011690Y024166D01*
X011698Y024158D01*
X011803Y024115D01*
X011916Y024115D01*
X012021Y024158D01*
X012101Y024239D01*
X012145Y024343D01*
X012145Y024457D01*
X012101Y024561D01*
X012021Y024642D01*
X011916Y024685D01*
X011803Y024685D01*
X011698Y024642D01*
X011680Y024623D01*
X011680Y025001D01*
X011675Y025006D01*
X011680Y025010D01*
X011680Y025434D01*
X011592Y025522D01*
X011441Y025522D01*
X011443Y025532D01*
X011443Y025702D01*
X011043Y025702D01*
X011043Y025802D01*
X010943Y025802D01*
X010943Y025702D01*
X010543Y025702D01*
X010543Y025532D01*
X010554Y025494D01*
X010573Y025460D01*
X010601Y025432D01*
X010635Y025412D01*
X010674Y025402D01*
X010780Y025402D01*
X010780Y025010D01*
X010784Y025006D01*
X010780Y025001D01*
X010780Y024577D01*
X010784Y024573D01*
X010780Y024568D01*
X010780Y024144D01*
X010791Y024133D01*
X010790Y024131D01*
X010780Y024093D01*
X010780Y023948D01*
X011205Y023948D01*
X011205Y023898D01*
X010780Y023898D01*
X010780Y023753D01*
X010790Y023715D01*
X010791Y023713D01*
X010780Y023702D01*
X010780Y023680D01*
X008548Y023680D01*
X007918Y024310D01*
X008318Y024710D01*
X008430Y024821D01*
X008430Y025347D01*
X008481Y025399D01*
X008525Y025503D01*
X008525Y025617D01*
X008481Y025721D01*
X008401Y025802D01*
X008296Y025845D01*
X008183Y025845D01*
X008078Y025802D01*
X007998Y025721D01*
X007955Y025617D01*
X007955Y025503D01*
X007998Y025399D01*
X008050Y025347D01*
X008050Y024979D01*
X007460Y024389D01*
X007023Y023953D01*
X006732Y023953D01*
X006732Y023982D01*
X006653Y024061D01*
X006653Y024167D01*
X006237Y024167D01*
X006237Y024224D01*
X006653Y024224D01*
X006653Y024330D01*
X006660Y024337D01*
X006663Y024330D01*
X006754Y024238D01*
X006874Y024189D01*
X007003Y024189D01*
X007122Y024238D01*
X007214Y024330D01*
X007263Y024449D01*
X007263Y024578D01*
X007214Y024698D01*
X007122Y024789D01*
X007003Y024839D01*
X006874Y024839D01*
X006754Y024789D01*
X006732Y024767D01*
X006732Y025166D01*
X007096Y025166D01*
X007096Y025566D01*
X007196Y025566D01*
X007196Y025666D01*
X007696Y025666D01*
X007696Y025936D01*
X007685Y025974D01*
X007666Y026008D01*
X007638Y026036D01*
X007604Y026056D01*
X007565Y026066D01*
X007196Y026066D01*
X007196Y025666D01*
X007096Y025666D01*
X007096Y026066D01*
X006726Y026066D01*
X006688Y026056D01*
X006654Y026036D01*
X006626Y026008D01*
X006606Y025974D01*
X006596Y025936D01*
X006596Y025666D01*
X007096Y025666D01*
X007096Y025566D01*
X006596Y025566D01*
X006596Y025369D01*
X005930Y025369D01*
X005842Y025281D01*
X005842Y024819D01*
X005824Y024819D01*
X005772Y024870D01*
X005667Y024914D01*
X005554Y024914D01*
X005449Y024870D01*
X005369Y024790D01*
X005326Y024685D01*
X005326Y024572D01*
X005369Y024467D01*
X005449Y024387D01*
X005554Y024344D01*
X005667Y024344D01*
X005766Y024385D01*
X005763Y024373D01*
X005763Y024224D01*
X006179Y024224D01*
X006179Y024167D01*
X005763Y024167D01*
X005763Y024018D01*
X005773Y023980D01*
X005789Y023953D01*
X005643Y023953D01*
X005276Y023585D01*
X005203Y023585D01*
X005098Y023542D01*
X005018Y023461D01*
X004975Y023357D01*
X004975Y023243D01*
X005018Y023139D01*
X005098Y023058D01*
X005203Y023015D01*
X005316Y023015D01*
X005421Y023058D01*
X005501Y023139D01*
X005545Y023243D01*
X005545Y023316D01*
X005763Y023316D01*
X005763Y023218D02*
X005534Y023218D01*
X005545Y023316D02*
X005763Y023535D01*
X005763Y023110D01*
X005842Y023031D01*
X005842Y022677D01*
X005930Y022589D01*
X005999Y022589D01*
X005999Y022338D01*
X005930Y022338D01*
X005842Y022250D01*
X005842Y021811D01*
X005930Y021723D01*
X006644Y021723D01*
X006732Y021811D01*
X006732Y022156D01*
X006802Y022156D01*
X006890Y022244D01*
X006890Y022267D01*
X006938Y022218D01*
X007043Y022175D01*
X007156Y022175D01*
X007261Y022218D01*
X007341Y022299D01*
X007385Y022403D01*
X007385Y022517D01*
X007341Y022621D01*
X007261Y022702D01*
X007249Y022706D01*
X007550Y022706D01*
X007570Y022687D01*
X007570Y020002D01*
X007565Y020003D01*
X007196Y020003D01*
X007196Y019603D01*
X007096Y019603D01*
X007096Y020003D01*
X006726Y020003D01*
X006688Y019993D01*
X006654Y019973D01*
X006626Y019945D01*
X006606Y019911D01*
X006596Y019873D01*
X006596Y019603D01*
X007096Y019603D01*
X007096Y019503D01*
X007196Y019503D01*
X007196Y019103D01*
X007565Y019103D01*
X007570Y019104D01*
X007570Y018784D01*
X007465Y018741D01*
X007319Y018595D01*
X007260Y018452D01*
X007200Y018595D01*
X007054Y018741D01*
X006863Y018820D01*
X006656Y018820D01*
X006465Y018741D01*
X006319Y018595D01*
X006260Y018452D01*
X006200Y018595D01*
X006054Y018741D01*
X005863Y018820D01*
X005656Y018820D01*
X005465Y018741D01*
X005319Y018595D01*
X005258Y018448D01*
X005241Y018500D01*
X005204Y018573D01*
X005156Y018639D01*
X005098Y018697D01*
X005032Y018745D01*
X004959Y018782D01*
X004881Y018807D01*
X004810Y018819D01*
X004810Y018350D01*
X004710Y018350D01*
X004710Y018819D01*
X004638Y018807D01*
X004560Y018782D01*
X004487Y018745D01*
X004421Y018697D01*
X004390Y018665D01*
X004390Y019770D01*
X006596Y019770D01*
X006596Y019672D02*
X004390Y019672D01*
X004390Y019770D02*
X004721Y019770D01*
X004721Y020146D01*
X004821Y020146D01*
X004821Y020246D01*
X004721Y020246D01*
X004721Y020621D01*
X004390Y020621D01*
X004390Y026935D01*
X004421Y026903D01*
X004487Y026855D01*
X004560Y026818D01*
X004638Y026793D01*
X004710Y026781D01*
X004710Y027250D01*
X004810Y027250D01*
X004810Y026781D01*
X004881Y026793D01*
X004959Y026818D01*
X005032Y026855D01*
X005098Y026903D01*
X005156Y026961D01*
X005204Y027027D01*
X005241Y027100D01*
X005258Y027152D01*
X005319Y027005D01*
X005465Y026859D01*
X005656Y026780D01*
X005863Y026780D01*
X006054Y026859D01*
X006200Y027005D01*
X006260Y027148D01*
X006319Y027005D01*
X006465Y026859D01*
X006656Y026780D01*
X006863Y026780D01*
X007054Y026859D01*
X007200Y027005D01*
X007260Y027148D01*
X007319Y027005D01*
X007465Y026859D01*
X007656Y026780D01*
X007863Y026780D01*
X008054Y026859D01*
X008200Y027005D01*
X008260Y027148D01*
X008319Y027005D01*
X008465Y026859D01*
X008656Y026780D01*
X008863Y026780D01*
X008968Y026823D01*
X009221Y026570D01*
X009941Y026570D01*
X010101Y026410D01*
X010861Y026410D01*
X010910Y026361D01*
X011021Y026250D01*
X012351Y026250D01*
X012298Y026196D01*
X012298Y025718D01*
X012386Y025630D01*
X012904Y025630D01*
X012960Y025686D01*
X012986Y025660D01*
X013020Y025640D01*
X013058Y025630D01*
X013236Y025630D01*
X013236Y025918D01*
X013313Y025918D01*
X013313Y025630D01*
X013491Y025630D01*
X013529Y025640D01*
X013563Y025660D01*
X013591Y025688D01*
X013611Y025722D01*
X013621Y025760D01*
X013621Y025919D01*
X013313Y025919D01*
X013313Y025996D01*
X013621Y025996D01*
X013621Y026090D01*
X013981Y026090D01*
X014030Y026041D01*
X014141Y025930D01*
X014661Y025930D01*
X014821Y025770D01*
X016541Y025770D01*
X016550Y025761D01*
X016661Y025650D01*
X017461Y025650D01*
X017593Y025518D01*
X017593Y025362D01*
X017574Y025342D01*
X017574Y024746D01*
X017662Y024658D01*
X018196Y024658D01*
X018175Y024607D01*
X018175Y024493D01*
X018218Y024389D01*
X018298Y024308D01*
X018403Y024265D01*
X018516Y024265D01*
X018621Y024308D01*
X018701Y024389D01*
X018745Y024493D01*
X018745Y024566D01*
X018761Y024582D01*
X018761Y024658D01*
X018767Y024658D01*
X018767Y024734D01*
X018767Y024734D01*
X018767Y024734D01*
X018767Y024658D01*
X019555Y024658D01*
X019562Y024658D01*
X019562Y024625D01*
X019493Y024625D01*
X019388Y024582D01*
X019308Y024501D01*
X019265Y024397D01*
X019265Y024283D01*
X019308Y024179D01*
X019388Y024098D01*
X019493Y024055D01*
X019606Y024055D01*
X019711Y024098D01*
X019791Y024179D01*
X019835Y024283D01*
X019835Y024352D01*
X019942Y024459D01*
X019942Y024658D01*
X020857Y024658D01*
X020945Y024746D01*
X020945Y025342D01*
X020926Y025362D01*
X020926Y026198D01*
X020999Y026271D02*
X022788Y026271D01*
X022922Y025912D02*
X022635Y025912D01*
X022635Y025793D01*
X022648Y025744D01*
X022673Y025700D01*
X022709Y025664D01*
X022753Y025638D01*
X022803Y025625D01*
X022922Y025625D01*
X022922Y025912D01*
X022922Y025877D02*
X022997Y025877D01*
X022997Y025779D02*
X022922Y025779D01*
X022922Y025680D02*
X022997Y025680D01*
X023226Y025680D02*
X023293Y025680D01*
X023254Y025286D02*
X023259Y025286D01*
X022997Y025286D02*
X022922Y025286D01*
X022922Y025188D02*
X022997Y025188D01*
X022997Y025089D02*
X022922Y025089D01*
X022635Y025089D02*
X020945Y025089D01*
X020945Y024991D02*
X022635Y024991D01*
X022635Y024892D02*
X020945Y024892D01*
X020945Y024794D02*
X022679Y024794D01*
X022686Y024695D02*
X020894Y024695D01*
X021119Y024400D02*
X019882Y024400D01*
X019835Y024301D02*
X020767Y024301D01*
X020698Y024203D02*
X020460Y024203D01*
X020525Y024104D02*
X020675Y024104D01*
X020686Y024006D02*
X020545Y024006D01*
X020529Y023907D02*
X020739Y023907D01*
X020700Y023809D02*
X020471Y023809D01*
X020450Y023710D02*
X020675Y023710D01*
X020684Y023612D02*
X020440Y023612D01*
X020341Y023513D02*
X020733Y023513D01*
X020880Y023415D02*
X020243Y023415D01*
X020144Y023316D02*
X021117Y023316D01*
X021117Y023415D02*
X021039Y023415D01*
X020608Y023218D02*
X020050Y023218D01*
X020050Y023119D02*
X020510Y023119D01*
X020411Y023021D02*
X020050Y023021D01*
X020050Y022922D02*
X020313Y022922D01*
X020270Y022824D02*
X020050Y022824D01*
X020050Y022725D02*
X020270Y022725D01*
X020270Y022627D02*
X020050Y022627D01*
X020050Y022528D02*
X020270Y022528D01*
X020270Y022430D02*
X020050Y022430D01*
X020050Y022331D02*
X020270Y022331D01*
X020279Y022233D02*
X020096Y022233D01*
X020194Y022134D02*
X020322Y022134D01*
X020293Y022036D02*
X020453Y022036D01*
X020666Y022036D02*
X020826Y022036D01*
X020797Y022134D02*
X020920Y022134D01*
X020920Y022233D02*
X020840Y022233D01*
X020845Y022331D02*
X020972Y022331D01*
X021070Y022430D02*
X020851Y022430D01*
X020991Y022528D02*
X021117Y022528D01*
X021117Y022627D02*
X021038Y022627D01*
X021814Y022702D02*
X021814Y022702D01*
X021890Y022702D01*
X021890Y023102D01*
X022430Y023102D01*
X022443Y023115D01*
X022516Y023115D01*
X022571Y023138D01*
X022822Y023138D01*
X022822Y023062D01*
X022535Y023062D01*
X022535Y022943D01*
X022548Y022894D01*
X022573Y022850D01*
X022559Y022836D01*
X022466Y022875D01*
X022353Y022875D01*
X022248Y022832D01*
X022168Y022751D01*
X022144Y022695D01*
X021890Y022695D01*
X021890Y022702D01*
X021814Y022702D01*
X021814Y022702D01*
X021890Y022725D02*
X022157Y022725D01*
X022240Y022824D02*
X021890Y022824D01*
X021890Y022922D02*
X022540Y022922D01*
X022535Y023021D02*
X021890Y023021D01*
X022526Y023119D02*
X022822Y023119D01*
X022822Y023218D02*
X022897Y023218D01*
X022897Y023316D02*
X022822Y023316D01*
X022822Y023415D02*
X022897Y023415D01*
X023055Y023415D02*
X023238Y023415D01*
X023682Y023415D02*
X024658Y023415D01*
X024678Y023461D02*
X024635Y023357D01*
X024635Y023243D01*
X024678Y023139D01*
X024758Y023058D01*
X024863Y023015D01*
X024976Y023015D01*
X025030Y023037D01*
X025030Y023000D01*
X024952Y023000D01*
X024835Y022883D01*
X024835Y022417D01*
X024952Y022300D01*
X025070Y022300D01*
X025008Y022300D01*
X024957Y022286D01*
X024912Y022260D01*
X024874Y022223D01*
X024848Y022177D01*
X024835Y022126D01*
X024835Y022000D01*
X025210Y022000D01*
X025210Y021900D01*
X025310Y021900D01*
X025310Y022000D01*
X025685Y022000D01*
X025685Y022126D01*
X025684Y022130D01*
X025695Y022130D01*
X025695Y022038D01*
X025982Y022038D01*
X025982Y021962D01*
X026057Y021962D01*
X026057Y021675D01*
X026176Y021675D01*
X026226Y021688D01*
X026270Y021714D01*
X026306Y021750D01*
X026331Y021794D01*
X026345Y021843D01*
X026345Y021962D01*
X026057Y021962D01*
X026057Y022038D01*
X026345Y022038D01*
X026345Y022130D01*
X027620Y022130D01*
X027620Y021876D01*
X027707Y021788D01*
X027790Y021788D01*
X027790Y021777D01*
X027629Y021777D01*
X027585Y021821D01*
X027134Y021821D01*
X027046Y021733D01*
X027046Y021361D01*
X027134Y021273D01*
X027585Y021273D01*
X027629Y021317D01*
X028889Y021317D01*
X028898Y021308D01*
X029003Y021265D01*
X029116Y021265D01*
X029221Y021308D01*
X029301Y021389D01*
X029345Y021493D01*
X029345Y021510D01*
X029903Y022068D01*
X030355Y022068D01*
X030360Y022073D01*
X030621Y022073D01*
X030709Y022161D01*
X030709Y023203D01*
X030704Y023208D01*
X030709Y023227D01*
X030709Y023322D01*
X030709Y023416D01*
X030699Y023455D01*
X030679Y023489D01*
X030651Y023517D01*
X030617Y023536D01*
X030578Y023547D01*
X030260Y023547D01*
X030260Y023322D01*
X030709Y023322D01*
X030260Y023322D01*
X030260Y023322D01*
X030260Y023322D01*
X030260Y023547D01*
X029941Y023547D01*
X029902Y023536D01*
X029878Y023523D01*
X030197Y023868D01*
X030250Y023921D01*
X030250Y023926D01*
X030253Y023929D01*
X030250Y024004D01*
X030250Y026379D01*
X030138Y026490D01*
X029981Y026490D01*
X025338Y026490D01*
X025181Y026490D01*
X025070Y026379D01*
X025070Y023660D01*
X024954Y023660D01*
X024879Y023585D01*
X024863Y023585D01*
X024758Y023542D01*
X024678Y023461D01*
X024729Y023513D02*
X022721Y023513D01*
X022651Y023612D02*
X024906Y023612D01*
X025070Y023710D02*
X022322Y023710D01*
X022254Y023809D02*
X025070Y023809D01*
X025070Y023907D02*
X022685Y023907D01*
X022784Y024006D02*
X025070Y024006D01*
X025070Y024104D02*
X022882Y024104D01*
X022981Y024203D02*
X025070Y024203D01*
X025070Y024301D02*
X023679Y024301D01*
X023778Y024400D02*
X025070Y024400D01*
X025070Y024498D02*
X024626Y024498D01*
X024725Y024597D02*
X025070Y024597D01*
X025070Y024695D02*
X024823Y024695D01*
X024900Y024794D02*
X025070Y024794D01*
X025070Y024892D02*
X024900Y024892D01*
X024900Y024991D02*
X025070Y024991D01*
X025070Y025089D02*
X024900Y025089D01*
X024900Y025188D02*
X025070Y025188D01*
X025070Y025286D02*
X024900Y025286D01*
X024900Y025385D02*
X025070Y025385D01*
X025070Y025483D02*
X024900Y025483D01*
X024900Y025582D02*
X025070Y025582D01*
X025070Y025680D02*
X024898Y025680D01*
X024800Y025779D02*
X025070Y025779D01*
X025070Y025877D02*
X024707Y025877D01*
X024740Y025976D02*
X025070Y025976D01*
X025070Y026074D02*
X024740Y026074D01*
X024728Y026173D02*
X025070Y026173D01*
X025070Y026271D02*
X024688Y026271D01*
X024619Y026370D02*
X025070Y026370D01*
X025159Y026468D02*
X024505Y026468D01*
X024462Y026862D02*
X024057Y026862D01*
X024155Y026961D02*
X024364Y026961D01*
X024296Y027059D02*
X024223Y027059D01*
X023462Y026862D02*
X023057Y026862D01*
X023155Y026961D02*
X023364Y026961D01*
X023296Y027059D02*
X023223Y027059D01*
X022462Y026862D02*
X022057Y026862D01*
X022155Y026961D02*
X022364Y026961D01*
X022296Y027059D02*
X022223Y027059D01*
X021492Y026764D02*
X031530Y026764D01*
X031530Y026665D02*
X021393Y026665D01*
X021295Y026567D02*
X031530Y026567D01*
X031530Y026468D02*
X030160Y026468D01*
X030250Y026370D02*
X031530Y026370D01*
X031530Y026271D02*
X030250Y026271D01*
X030250Y026173D02*
X031530Y026173D01*
X031530Y026074D02*
X030250Y026074D01*
X030250Y025976D02*
X031530Y025976D01*
X031511Y025877D02*
X030250Y025877D01*
X030250Y025779D02*
X031413Y025779D01*
X031314Y025680D02*
X030250Y025680D01*
X030250Y025582D02*
X030694Y025582D01*
X030825Y025582D02*
X031216Y025582D01*
X031571Y025286D02*
X032130Y025286D01*
X032130Y025188D02*
X031472Y025188D01*
X031374Y025089D02*
X032130Y025089D01*
X032130Y024991D02*
X030250Y024991D01*
X030250Y025089D02*
X030567Y025089D01*
X030498Y025188D02*
X030250Y025188D01*
X030250Y025286D02*
X030475Y025286D01*
X030486Y025385D02*
X030250Y025385D01*
X030250Y025483D02*
X030539Y025483D01*
X030250Y024892D02*
X032130Y024892D01*
X032130Y024794D02*
X031924Y024794D01*
X031923Y024797D02*
X031904Y024831D01*
X031876Y024859D01*
X031841Y024879D01*
X031803Y024889D01*
X031460Y024889D01*
X031460Y024415D01*
X031934Y024415D01*
X031934Y024759D01*
X031923Y024797D01*
X031934Y024695D02*
X032130Y024695D01*
X032130Y024597D02*
X031934Y024597D01*
X031934Y024498D02*
X032130Y024498D01*
X032130Y024400D02*
X031460Y024400D01*
X031460Y024415D02*
X031460Y024315D01*
X031934Y024315D01*
X031934Y023971D01*
X031923Y023933D01*
X031904Y023899D01*
X031876Y023871D01*
X031841Y023851D01*
X031803Y023841D01*
X031460Y023841D01*
X031460Y024315D01*
X031360Y024315D01*
X031360Y023841D01*
X031016Y023841D01*
X030978Y023851D01*
X030943Y023871D01*
X030915Y023899D01*
X030896Y023933D01*
X030885Y023971D01*
X030885Y024315D01*
X031360Y024315D01*
X031360Y024415D01*
X031360Y024889D01*
X031016Y024889D01*
X030978Y024879D01*
X030943Y024859D01*
X030915Y024831D01*
X030896Y024797D01*
X030885Y024759D01*
X030885Y024415D01*
X031360Y024415D01*
X031460Y024415D01*
X031460Y024498D02*
X031360Y024498D01*
X031360Y024400D02*
X030250Y024400D01*
X030250Y024498D02*
X030885Y024498D01*
X030885Y024597D02*
X030250Y024597D01*
X030250Y024695D02*
X030885Y024695D01*
X030895Y024794D02*
X030250Y024794D01*
X030250Y024301D02*
X030885Y024301D01*
X030885Y024203D02*
X030250Y024203D01*
X030250Y024104D02*
X030885Y024104D01*
X030885Y024006D02*
X030250Y024006D01*
X030235Y023907D02*
X030911Y023907D01*
X031086Y023633D02*
X031047Y023606D01*
X031013Y023573D01*
X030987Y023534D01*
X030969Y023490D01*
X030960Y023444D01*
X030960Y023260D01*
X031360Y023260D01*
X031360Y023660D01*
X031176Y023660D01*
X031130Y023651D01*
X031086Y023633D01*
X031054Y023612D02*
X029960Y023612D01*
X030051Y023710D02*
X032130Y023710D01*
X032130Y023612D02*
X031765Y023612D01*
X031773Y023606D02*
X031733Y023633D01*
X031690Y023651D01*
X031643Y023660D01*
X031460Y023660D01*
X031460Y023260D01*
X031860Y023260D01*
X031860Y023444D01*
X031850Y023490D01*
X031832Y023534D01*
X031806Y023573D01*
X031773Y023606D01*
X031841Y023513D02*
X032130Y023513D01*
X032130Y023415D02*
X031860Y023415D01*
X031860Y023316D02*
X032130Y023316D01*
X032130Y023218D02*
X031460Y023218D01*
X031460Y023260D02*
X031460Y023160D01*
X031860Y023160D01*
X031860Y022976D01*
X031850Y022930D01*
X031832Y022886D01*
X031806Y022847D01*
X031773Y022814D01*
X031767Y022810D01*
X031773Y022806D01*
X031806Y022773D01*
X031832Y022734D01*
X031850Y022690D01*
X031860Y022644D01*
X031860Y022460D01*
X031460Y022460D01*
X031460Y022360D01*
X031860Y022360D01*
X031860Y022176D01*
X031850Y022130D01*
X031832Y022086D01*
X031806Y022047D01*
X031773Y022014D01*
X031733Y021987D01*
X031690Y021969D01*
X031643Y021960D01*
X031460Y021960D01*
X031460Y022360D01*
X031360Y022360D01*
X031360Y021960D01*
X031176Y021960D01*
X031130Y021969D01*
X031086Y021987D01*
X031047Y022014D01*
X031013Y022047D01*
X030987Y022086D01*
X030969Y022130D01*
X030960Y022176D01*
X030960Y022360D01*
X031360Y022360D01*
X031360Y022460D01*
X031360Y023160D01*
X031460Y023160D01*
X031460Y022760D01*
X031460Y022460D01*
X031360Y022460D01*
X030960Y022460D01*
X030960Y022644D01*
X030969Y022690D01*
X030987Y022734D01*
X031013Y022773D01*
X031047Y022806D01*
X031052Y022810D01*
X031047Y022814D01*
X031013Y022847D01*
X030987Y022886D01*
X030969Y022930D01*
X030960Y022976D01*
X030960Y023160D01*
X031360Y023160D01*
X031360Y023260D01*
X031460Y023260D01*
X031460Y023316D02*
X031360Y023316D01*
X031360Y023218D02*
X030706Y023218D01*
X030709Y023316D02*
X030960Y023316D01*
X030960Y023415D02*
X030709Y023415D01*
X030654Y023513D02*
X030978Y023513D01*
X031360Y023513D02*
X031460Y023513D01*
X031460Y023415D02*
X031360Y023415D01*
X031360Y023612D02*
X031460Y023612D01*
X031460Y023907D02*
X031360Y023907D01*
X031360Y024006D02*
X031460Y024006D01*
X031460Y024104D02*
X031360Y024104D01*
X031360Y024203D02*
X031460Y024203D01*
X031460Y024301D02*
X031360Y024301D01*
X031360Y024597D02*
X031460Y024597D01*
X031460Y024695D02*
X031360Y024695D01*
X031360Y024794D02*
X031460Y024794D01*
X031669Y025385D02*
X032130Y025385D01*
X032130Y025483D02*
X031768Y025483D01*
X031866Y025582D02*
X032130Y025582D01*
X032130Y025680D02*
X031965Y025680D01*
X031990Y025779D02*
X032130Y025779D01*
X032130Y025877D02*
X031990Y025877D01*
X031990Y025976D02*
X032130Y025976D01*
X032130Y026074D02*
X031990Y026074D01*
X031990Y026173D02*
X032130Y026173D01*
X032130Y026271D02*
X031990Y026271D01*
X031990Y026370D02*
X032130Y026370D01*
X032130Y026468D02*
X031990Y026468D01*
X031990Y026567D02*
X032130Y026567D01*
X032130Y026665D02*
X031990Y026665D01*
X031990Y026764D02*
X032130Y026764D01*
X031245Y026862D02*
X031041Y026862D01*
X031155Y026961D02*
X031240Y026961D01*
X031240Y027059D02*
X031220Y027059D01*
X030810Y027059D02*
X030710Y027059D01*
X030710Y026961D02*
X030810Y026961D01*
X030810Y026862D02*
X030710Y026862D01*
X030478Y026862D02*
X030057Y026862D01*
X030155Y026961D02*
X030364Y026961D01*
X030299Y027059D02*
X030223Y027059D01*
X030710Y027158D02*
X030810Y027158D01*
X029462Y026862D02*
X029057Y026862D01*
X029155Y026961D02*
X029364Y026961D01*
X029296Y027059D02*
X029223Y027059D01*
X028462Y026862D02*
X028057Y026862D01*
X028155Y026961D02*
X028364Y026961D01*
X028296Y027059D02*
X028223Y027059D01*
X027462Y026862D02*
X027057Y026862D01*
X027155Y026961D02*
X027364Y026961D01*
X027296Y027059D02*
X027223Y027059D01*
X026462Y026862D02*
X026057Y026862D01*
X026155Y026961D02*
X026364Y026961D01*
X026296Y027059D02*
X026223Y027059D01*
X025462Y026862D02*
X025057Y026862D01*
X025155Y026961D02*
X025364Y026961D01*
X025296Y027059D02*
X025223Y027059D01*
X024014Y026468D02*
X021196Y026468D01*
X021098Y026370D02*
X023900Y026370D01*
X023832Y026271D02*
X023775Y026271D01*
X023826Y025680D02*
X023951Y025680D01*
X024136Y025582D02*
X020926Y025582D01*
X020926Y025680D02*
X022693Y025680D01*
X022638Y025779D02*
X020926Y025779D01*
X020926Y025877D02*
X022635Y025877D01*
X022665Y025286D02*
X020945Y025286D01*
X020945Y025188D02*
X022635Y025188D01*
X022587Y024597D02*
X019942Y024597D01*
X019942Y024498D02*
X022489Y024498D01*
X023915Y025385D02*
X020926Y025385D01*
X020926Y025483D02*
X024051Y025483D01*
X024383Y025582D02*
X024459Y025582D01*
X024468Y025483D02*
X024520Y025483D01*
X027690Y025710D02*
X027690Y025210D01*
X028690Y025210D01*
X028690Y025710D01*
X028190Y025710D01*
X027940Y025960D01*
X027690Y025710D01*
X027690Y025960D01*
X027940Y025960D01*
X028690Y025960D01*
X028690Y026110D01*
X028640Y026110D01*
X028640Y026010D01*
X028690Y025960D02*
X028690Y025710D01*
X028640Y025810D02*
X028640Y025910D01*
X028190Y025910D01*
X028090Y025910D02*
X028190Y025810D01*
X028640Y025810D01*
X028490Y025510D02*
X028490Y025360D01*
X028390Y025360D01*
X028390Y025510D01*
X028490Y025510D01*
X027990Y025510D02*
X027990Y025360D01*
X027890Y025360D01*
X027890Y025510D01*
X027990Y025510D01*
X027740Y025860D02*
X027790Y025910D01*
X027740Y025910D01*
X030142Y023809D02*
X032130Y023809D01*
X032130Y023907D02*
X031908Y023907D01*
X031934Y024006D02*
X032130Y024006D01*
X032130Y024104D02*
X031934Y024104D01*
X031934Y024203D02*
X032130Y024203D01*
X032130Y024301D02*
X031934Y024301D01*
X031860Y023119D02*
X032130Y023119D01*
X032130Y023021D02*
X031860Y023021D01*
X031847Y022922D02*
X032130Y022922D01*
X032130Y022824D02*
X031782Y022824D01*
X031836Y022725D02*
X032130Y022725D01*
X032130Y022627D02*
X031860Y022627D01*
X031860Y022528D02*
X032130Y022528D01*
X032130Y022430D02*
X031460Y022430D01*
X031460Y022528D02*
X031360Y022528D01*
X031360Y022430D02*
X030709Y022430D01*
X030709Y022528D02*
X030960Y022528D01*
X030960Y022627D02*
X030709Y022627D01*
X030709Y022725D02*
X030983Y022725D01*
X031037Y022824D02*
X030709Y022824D01*
X030709Y022922D02*
X030972Y022922D01*
X030960Y023021D02*
X030709Y023021D01*
X030709Y023119D02*
X030960Y023119D01*
X031360Y023119D02*
X031460Y023119D01*
X031460Y023021D02*
X031360Y023021D01*
X031360Y022922D02*
X031460Y022922D01*
X031460Y022824D02*
X031360Y022824D01*
X031360Y022725D02*
X031460Y022725D01*
X031460Y022627D02*
X031360Y022627D01*
X031360Y022331D02*
X031460Y022331D01*
X031460Y022233D02*
X031360Y022233D01*
X031360Y022134D02*
X031460Y022134D01*
X031460Y022036D02*
X031360Y022036D01*
X031360Y021779D02*
X031016Y021779D01*
X030978Y021769D01*
X030943Y021749D01*
X030915Y021721D01*
X030896Y021687D01*
X030885Y021649D01*
X030885Y021305D01*
X031360Y021305D01*
X031360Y021779D01*
X031360Y021740D02*
X031460Y021740D01*
X031460Y021779D02*
X031460Y021305D01*
X031934Y021305D01*
X031934Y021649D01*
X031923Y021687D01*
X031904Y021721D01*
X031876Y021749D01*
X031841Y021769D01*
X031803Y021779D01*
X031460Y021779D01*
X031460Y021642D02*
X031360Y021642D01*
X031360Y021543D02*
X031460Y021543D01*
X031460Y021445D02*
X031360Y021445D01*
X031360Y021346D02*
X031460Y021346D01*
X031460Y021305D02*
X031360Y021305D01*
X031360Y021205D01*
X031460Y021205D01*
X031460Y021305D01*
X031460Y021248D02*
X032130Y021248D01*
X032130Y021346D02*
X031934Y021346D01*
X031934Y021445D02*
X032130Y021445D01*
X032130Y021543D02*
X031934Y021543D01*
X031934Y021642D02*
X032130Y021642D01*
X032130Y021740D02*
X031885Y021740D01*
X032130Y021839D02*
X029673Y021839D01*
X029772Y021937D02*
X032130Y021937D01*
X032130Y022036D02*
X031794Y022036D01*
X031851Y022134D02*
X032130Y022134D01*
X032130Y022233D02*
X031860Y022233D01*
X031860Y022331D02*
X032130Y022331D01*
X031025Y022036D02*
X029870Y022036D01*
X029575Y021740D02*
X030934Y021740D01*
X030885Y021642D02*
X029476Y021642D01*
X029378Y021543D02*
X030885Y021543D01*
X030885Y021445D02*
X029324Y021445D01*
X029259Y021346D02*
X030885Y021346D01*
X030885Y021205D02*
X030885Y020861D01*
X030896Y020823D01*
X030915Y020789D01*
X030943Y020761D01*
X030978Y020741D01*
X031016Y020731D01*
X031360Y020731D01*
X031360Y021205D01*
X030885Y021205D01*
X030885Y021149D02*
X026890Y021149D01*
X026890Y021051D02*
X030885Y021051D01*
X030885Y020952D02*
X026890Y020952D01*
X026890Y020854D02*
X030888Y020854D01*
X030953Y020755D02*
X026890Y020755D01*
X026890Y020657D02*
X032130Y020657D01*
X032130Y020755D02*
X031866Y020755D01*
X031876Y020761D02*
X031904Y020789D01*
X031923Y020823D01*
X031934Y020861D01*
X031934Y021205D01*
X031460Y021205D01*
X031460Y020731D01*
X031803Y020731D01*
X031841Y020741D01*
X031876Y020761D01*
X031931Y020854D02*
X032130Y020854D01*
X032130Y020952D02*
X031934Y020952D01*
X031934Y021051D02*
X032130Y021051D01*
X032130Y021149D02*
X031934Y021149D01*
X031460Y021149D02*
X031360Y021149D01*
X031360Y021051D02*
X031460Y021051D01*
X031460Y020952D02*
X031360Y020952D01*
X031360Y020854D02*
X031460Y020854D01*
X031460Y020755D02*
X031360Y020755D01*
X031360Y021248D02*
X026890Y021248D01*
X026890Y021278D02*
X026973Y021361D01*
X026973Y021733D01*
X026885Y021821D01*
X026434Y021821D01*
X026346Y021733D01*
X026346Y021361D01*
X026430Y021278D01*
X026430Y020473D01*
X026418Y020461D01*
X026375Y020357D01*
X026375Y020243D01*
X026418Y020139D01*
X026498Y020058D01*
X026603Y020015D01*
X026716Y020015D01*
X026821Y020058D01*
X026901Y020139D01*
X026945Y020243D01*
X026945Y020357D01*
X026901Y020461D01*
X026890Y020473D01*
X026890Y021278D01*
X026958Y021346D02*
X027061Y021346D01*
X027046Y021445D02*
X026973Y021445D01*
X026973Y021543D02*
X027046Y021543D01*
X027046Y021642D02*
X026973Y021642D01*
X026966Y021740D02*
X027053Y021740D01*
X027620Y021937D02*
X026345Y021937D01*
X026343Y021839D02*
X027657Y021839D01*
X027620Y022036D02*
X026057Y022036D01*
X025982Y022036D02*
X025685Y022036D01*
X025695Y021962D02*
X025695Y021843D01*
X025708Y021794D01*
X025733Y021750D01*
X025769Y021714D01*
X025813Y021688D01*
X025863Y021675D01*
X025982Y021675D01*
X025982Y021962D01*
X025695Y021962D01*
X025695Y021937D02*
X025310Y021937D01*
X025310Y021900D02*
X025685Y021900D01*
X025685Y021774D01*
X025671Y021723D01*
X025645Y021677D01*
X025607Y021640D01*
X025562Y021614D01*
X025511Y021600D01*
X025310Y021600D01*
X025310Y021900D01*
X025310Y021839D02*
X025210Y021839D01*
X025210Y021900D02*
X025210Y021600D01*
X025008Y021600D01*
X024957Y021614D01*
X024912Y021640D01*
X024874Y021677D01*
X024848Y021723D01*
X024835Y021774D01*
X024835Y021900D01*
X025210Y021900D01*
X025210Y021937D02*
X024065Y021937D01*
X024071Y021926D02*
X024046Y021970D01*
X024010Y022006D01*
X023966Y022032D01*
X023916Y022045D01*
X023797Y022045D01*
X023797Y021758D01*
X024085Y021758D01*
X024085Y021877D01*
X024071Y021926D01*
X024085Y021839D02*
X024835Y021839D01*
X024844Y021740D02*
X023797Y021740D01*
X023797Y021642D02*
X023722Y021642D01*
X023722Y021543D02*
X023797Y021543D01*
X023797Y021445D02*
X023740Y021445D01*
X023740Y021346D02*
X023840Y021346D01*
X023840Y021248D02*
X023740Y021248D01*
X023740Y021149D02*
X023840Y021149D01*
X023840Y021110D02*
X023740Y021110D01*
X023740Y021010D01*
X023840Y021010D01*
X023840Y021110D01*
X023840Y021051D02*
X026430Y021051D01*
X026430Y021149D02*
X024140Y021149D01*
X024140Y021248D02*
X026430Y021248D01*
X026361Y021346D02*
X024130Y021346D01*
X024063Y021445D02*
X026346Y021445D01*
X026346Y021543D02*
X024079Y021543D01*
X024085Y021642D02*
X024910Y021642D01*
X025210Y021642D02*
X025310Y021642D01*
X025310Y021740D02*
X025210Y021740D01*
X025035Y021800D02*
X025035Y022100D01*
X025485Y022100D01*
X025485Y021800D01*
X025035Y021800D01*
X025035Y021899D02*
X025485Y021899D01*
X025485Y021998D02*
X025035Y021998D01*
X025035Y022097D02*
X025485Y022097D01*
X025685Y021839D02*
X025696Y021839D01*
X025675Y021740D02*
X025743Y021740D01*
X025609Y021642D02*
X026346Y021642D01*
X026353Y021740D02*
X026296Y021740D01*
X026057Y021740D02*
X025982Y021740D01*
X025982Y021839D02*
X026057Y021839D01*
X026057Y021937D02*
X025982Y021937D01*
X025070Y022300D02*
X025070Y022300D01*
X024921Y022331D02*
X024089Y022331D01*
X024212Y022430D02*
X024835Y022430D01*
X024835Y022528D02*
X024252Y022528D01*
X024255Y022627D02*
X024835Y022627D01*
X024835Y022725D02*
X024222Y022725D01*
X024139Y022824D02*
X024835Y022824D01*
X024874Y022922D02*
X024105Y022922D01*
X024155Y023021D02*
X024850Y023021D01*
X024990Y023021D02*
X025030Y023021D01*
X024697Y023119D02*
X024165Y023119D01*
X024139Y023218D02*
X024645Y023218D01*
X024635Y023316D02*
X024067Y023316D01*
X025035Y022800D02*
X025035Y022500D01*
X025035Y022800D02*
X025485Y022800D01*
X025485Y022500D01*
X025035Y022500D01*
X025035Y022599D02*
X025485Y022599D01*
X025485Y022698D02*
X025035Y022698D01*
X025035Y022797D02*
X025485Y022797D01*
X024884Y022233D02*
X023881Y022233D01*
X023877Y022229D02*
X023877Y022229D01*
X023782Y022134D02*
X024837Y022134D01*
X024835Y022036D02*
X023952Y022036D01*
X023797Y022036D02*
X023722Y022036D01*
X023722Y021937D02*
X023797Y021937D01*
X023797Y021839D02*
X023722Y021839D01*
X023567Y022036D02*
X023381Y022036D01*
X023421Y021445D02*
X023499Y021445D01*
X023449Y021346D02*
X023440Y021346D01*
X023440Y021248D02*
X023440Y021248D01*
X023440Y021149D02*
X023440Y021149D01*
X023440Y021051D02*
X023740Y021051D01*
X023740Y021010D02*
X023440Y021010D01*
X023440Y020809D01*
X023453Y020758D01*
X023479Y020712D01*
X023517Y020675D01*
X023562Y020649D01*
X023613Y020635D01*
X023740Y020635D01*
X023740Y021010D01*
X023740Y020952D02*
X023840Y020952D01*
X023840Y021010D02*
X023840Y020635D01*
X023966Y020635D01*
X024017Y020649D01*
X024062Y020675D01*
X024100Y020712D01*
X024126Y020758D01*
X024140Y020809D01*
X024140Y021010D01*
X023840Y021010D01*
X023940Y020835D02*
X023640Y020835D01*
X023640Y021285D01*
X023940Y021285D01*
X023940Y020835D01*
X023940Y020934D02*
X023640Y020934D01*
X023640Y021033D02*
X023940Y021033D01*
X023940Y021132D02*
X023640Y021132D01*
X023640Y021231D02*
X023940Y021231D01*
X024140Y020952D02*
X026430Y020952D01*
X026430Y020854D02*
X024140Y020854D01*
X024124Y020755D02*
X026430Y020755D01*
X026430Y020657D02*
X024030Y020657D01*
X023840Y020657D02*
X023740Y020657D01*
X023740Y020755D02*
X023840Y020755D01*
X023840Y020854D02*
X023740Y020854D01*
X023549Y020657D02*
X023344Y020657D01*
X023440Y020755D02*
X023455Y020755D01*
X023440Y020854D02*
X023440Y020854D01*
X023440Y020952D02*
X023440Y020952D01*
X023240Y020835D02*
X022940Y020835D01*
X022940Y021285D01*
X023240Y021285D01*
X023240Y020835D01*
X023240Y020934D02*
X022940Y020934D01*
X022940Y021033D02*
X023240Y021033D01*
X023240Y021132D02*
X022940Y021132D01*
X022940Y021231D02*
X023240Y021231D01*
X022740Y020854D02*
X022680Y020854D01*
X022700Y020833D02*
X022612Y020921D01*
X022134Y020921D01*
X022046Y020833D01*
X022046Y020315D01*
X022134Y020227D01*
X022612Y020227D01*
X022700Y020315D01*
X022700Y020833D01*
X022700Y020755D02*
X022740Y020755D01*
X022700Y020657D02*
X022835Y020657D01*
X022700Y020558D02*
X026430Y020558D01*
X026417Y020460D02*
X022700Y020460D01*
X022700Y020361D02*
X026376Y020361D01*
X026375Y020263D02*
X022648Y020263D01*
X022612Y020173D02*
X022134Y020173D01*
X022046Y020085D01*
X022046Y019567D01*
X022134Y019479D01*
X022612Y019479D01*
X022700Y019567D01*
X022700Y019636D01*
X022720Y019636D01*
X022798Y019558D01*
X022903Y019515D01*
X023016Y019515D01*
X023121Y019558D01*
X023201Y019639D01*
X023245Y019743D01*
X023245Y019857D01*
X023201Y019961D01*
X023121Y020042D01*
X023016Y020085D01*
X022903Y020085D01*
X022798Y020042D01*
X022772Y020016D01*
X022700Y020016D01*
X022700Y020085D01*
X022612Y020173D01*
X022621Y020164D02*
X026407Y020164D01*
X026491Y020066D02*
X023063Y020066D01*
X023196Y019967D02*
X032130Y019967D01*
X032130Y019869D02*
X023240Y019869D01*
X023245Y019770D02*
X032130Y019770D01*
X032130Y019672D02*
X023215Y019672D01*
X023136Y019573D02*
X032130Y019573D01*
X032130Y019475D02*
X021584Y019475D01*
X021873Y019573D02*
X022046Y019573D01*
X022046Y019672D02*
X021873Y019672D01*
X021873Y019770D02*
X022046Y019770D01*
X022046Y019869D02*
X021873Y019869D01*
X021873Y019967D02*
X022046Y019967D01*
X022046Y020066D02*
X021873Y020066D01*
X021794Y020164D02*
X022125Y020164D01*
X022098Y020263D02*
X021821Y020263D01*
X021815Y020257D02*
X021843Y020285D01*
X021863Y020319D01*
X021873Y020357D01*
X021873Y020535D01*
X021585Y020535D01*
X021585Y020227D01*
X021743Y020227D01*
X021781Y020237D01*
X021815Y020257D01*
X021873Y020361D02*
X022046Y020361D01*
X022046Y020460D02*
X021873Y020460D01*
X021873Y020613D02*
X021873Y020791D01*
X021863Y020829D01*
X021843Y020863D01*
X021815Y020891D01*
X021781Y020911D01*
X021743Y020921D01*
X021585Y020921D01*
X021585Y020613D01*
X021508Y020613D01*
X021508Y020921D01*
X021349Y020921D01*
X021311Y020911D01*
X021277Y020891D01*
X021249Y020863D01*
X021229Y020829D01*
X021219Y020791D01*
X021219Y020613D01*
X021508Y020613D01*
X021508Y020535D01*
X021585Y020535D01*
X021585Y020613D01*
X021873Y020613D01*
X021873Y020657D02*
X022046Y020657D01*
X022046Y020755D02*
X021873Y020755D01*
X021849Y020854D02*
X022066Y020854D01*
X022263Y021051D02*
X022540Y021051D01*
X022470Y021149D02*
X022320Y021149D01*
X022335Y021248D02*
X022470Y021248D01*
X022639Y020952D02*
X015340Y020952D01*
X015347Y020940D02*
X015322Y020983D01*
X015300Y021004D01*
X015385Y021088D01*
X015385Y021512D01*
X015311Y021585D01*
X015385Y021658D01*
X015385Y021980D01*
X015481Y021980D01*
X015493Y021975D01*
X015606Y021975D01*
X015685Y022007D01*
X015685Y021913D01*
X015728Y021809D01*
X015808Y021728D01*
X015913Y021685D01*
X016026Y021685D01*
X016131Y021728D01*
X016211Y021809D01*
X016255Y021913D01*
X016255Y021986D01*
X016583Y022315D01*
X016629Y022315D01*
X016629Y022104D01*
X016615Y022104D01*
X016504Y021993D01*
X016351Y021840D01*
X016258Y021802D01*
X016178Y021721D01*
X016135Y021617D01*
X016135Y021503D01*
X016178Y021399D01*
X016258Y021318D01*
X016363Y021275D01*
X016476Y021275D01*
X016581Y021318D01*
X016629Y021367D01*
X016629Y021202D01*
X016717Y021115D01*
X017314Y021115D01*
X017333Y021134D01*
X017622Y021134D01*
X017623Y021135D01*
X017696Y021135D01*
X017801Y021178D01*
X017881Y021259D01*
X017920Y021353D01*
X017963Y021335D01*
X018076Y021335D01*
X018181Y021378D01*
X018261Y021459D01*
X018305Y021563D01*
X018305Y021677D01*
X018262Y021779D01*
X018321Y021839D01*
X018365Y021943D01*
X018365Y022057D01*
X018321Y022161D01*
X018241Y022242D01*
X018136Y022285D01*
X018023Y022285D01*
X018006Y022278D01*
X018100Y022371D01*
X018638Y022910D01*
X018646Y022910D01*
X018698Y022858D01*
X018803Y022815D01*
X018916Y022815D01*
X019021Y022858D01*
X019101Y022939D01*
X019145Y023043D01*
X019145Y023157D01*
X019101Y023261D01*
X019021Y023342D01*
X018916Y023385D01*
X018803Y023385D01*
X018698Y023342D01*
X018646Y023290D01*
X018481Y023290D01*
X017945Y022754D01*
X017945Y022857D01*
X017901Y022961D01*
X017821Y023042D01*
X017716Y023085D01*
X017603Y023085D01*
X017498Y023042D01*
X017418Y022961D01*
X017402Y022922D01*
X017402Y023095D01*
X017326Y023095D01*
X017326Y023095D01*
X017326Y023095D01*
X017402Y023095D01*
X017402Y023615D01*
X017458Y023558D01*
X017563Y023515D01*
X017676Y023515D01*
X017781Y023558D01*
X017861Y023639D01*
X017905Y023743D01*
X017905Y023857D01*
X017862Y023959D01*
X017941Y024039D01*
X017985Y024143D01*
X017985Y024257D01*
X017941Y024361D01*
X017861Y024442D01*
X017756Y024485D01*
X017643Y024485D01*
X017598Y024466D01*
X017333Y024466D01*
X017314Y024485D01*
X016717Y024485D01*
X016629Y024398D01*
X016629Y024073D01*
X016316Y024073D01*
X015390Y024999D01*
X015278Y025110D01*
X015158Y025110D01*
X015065Y025204D01*
X015065Y025277D01*
X015021Y025381D01*
X014941Y025462D01*
X014836Y025505D01*
X014723Y025505D01*
X014618Y025462D01*
X014538Y025381D01*
X014510Y025313D01*
X014501Y025322D01*
X014396Y025365D01*
X014283Y025365D01*
X014185Y025324D01*
X014185Y025612D01*
X014071Y025725D01*
X013648Y025725D01*
X013535Y025612D01*
X013535Y025544D01*
X013281Y025290D01*
X013273Y025290D01*
X013221Y025342D01*
X013116Y025385D01*
X013003Y025385D01*
X012898Y025342D01*
X012818Y025261D01*
X012775Y025157D01*
X012775Y025043D01*
X012797Y024990D01*
X012781Y024990D01*
X012581Y024790D01*
X012470Y024679D01*
X012470Y024670D01*
X012386Y024670D01*
X012298Y024582D01*
X012298Y024104D01*
X011677Y024104D01*
X011680Y024006D02*
X014199Y024006D01*
X014209Y024016D02*
X014173Y023980D01*
X014148Y023936D01*
X014135Y023887D01*
X014135Y023768D01*
X014422Y023768D01*
X014422Y023692D01*
X014497Y023692D01*
X014497Y023405D01*
X014616Y023405D01*
X014666Y023418D01*
X014710Y023444D01*
X014746Y023480D01*
X014756Y023497D01*
X014848Y023405D01*
X015271Y023405D01*
X015385Y023518D01*
X015385Y023942D01*
X015300Y024026D01*
X015360Y024085D01*
X015360Y024251D01*
X015557Y024054D01*
X015528Y024042D01*
X015448Y023961D01*
X015405Y023857D01*
X015405Y023743D01*
X015448Y023639D01*
X015486Y023600D01*
X015448Y023561D01*
X015405Y023457D01*
X015405Y023343D01*
X015448Y023239D01*
X015528Y023158D01*
X015633Y023115D01*
X015706Y023115D01*
X015719Y023102D01*
X016629Y023102D01*
X016629Y023095D01*
X016629Y023088D01*
X016049Y023088D01*
X015966Y023005D01*
X015893Y023005D01*
X015788Y022962D01*
X015727Y022901D01*
X015550Y023079D01*
X015438Y023190D01*
X015385Y023190D01*
X015385Y023222D01*
X015271Y023335D01*
X014848Y023335D01*
X014760Y023247D01*
X014671Y023335D01*
X014248Y023335D01*
X014135Y023222D01*
X014135Y023190D01*
X013881Y023190D01*
X013770Y023079D01*
X013585Y022894D01*
X013585Y022912D01*
X013471Y023025D01*
X013048Y023025D01*
X012956Y022933D01*
X012946Y022950D01*
X012910Y022986D01*
X012866Y023012D01*
X012816Y023025D01*
X012697Y023025D01*
X012697Y022738D01*
X012622Y022738D01*
X012622Y023025D01*
X012503Y023025D01*
X012453Y023012D01*
X012409Y022986D01*
X012373Y022950D01*
X012348Y022906D01*
X012335Y022857D01*
X012335Y022738D01*
X012622Y022738D01*
X012622Y022662D01*
X012335Y022662D01*
X012335Y022543D01*
X012348Y022494D01*
X012373Y022450D01*
X012343Y022420D01*
X012321Y022442D01*
X012216Y022485D01*
X012103Y022485D01*
X011998Y022442D01*
X011918Y022361D01*
X011875Y022257D01*
X011875Y022143D01*
X011918Y022039D01*
X011998Y021958D01*
X012103Y021915D01*
X012216Y021915D01*
X012321Y021958D01*
X012343Y021980D01*
X012448Y021875D01*
X012871Y021875D01*
X012960Y021963D01*
X013048Y021875D01*
X013084Y021875D01*
X013084Y021434D01*
X013015Y021434D01*
X012960Y021378D01*
X012934Y021404D01*
X012899Y021424D01*
X012861Y021434D01*
X012683Y021434D01*
X012683Y021146D01*
X012606Y021146D01*
X012606Y021434D01*
X012428Y021434D01*
X012390Y021424D01*
X012356Y021404D01*
X012328Y021376D01*
X012308Y021342D01*
X012298Y021304D01*
X012298Y021146D01*
X012606Y021146D01*
X012606Y021069D01*
X012298Y021069D01*
X012298Y020910D01*
X012308Y020872D01*
X012328Y020838D01*
X012356Y020810D01*
X012390Y020790D01*
X012428Y020780D01*
X012606Y020780D01*
X012606Y021068D01*
X012683Y021068D01*
X012683Y020780D01*
X012861Y020780D01*
X012899Y020790D01*
X012934Y020810D01*
X012960Y020836D01*
X013015Y020780D01*
X013533Y020780D01*
X013621Y020868D01*
X013621Y021346D01*
X014135Y021346D01*
X014135Y021248D02*
X013621Y021248D01*
X013621Y021346D02*
X013533Y021434D01*
X013464Y021434D01*
X013464Y021875D01*
X013471Y021875D01*
X013585Y021988D01*
X013585Y022412D01*
X013546Y022450D01*
X013585Y022488D01*
X013585Y022510D01*
X013738Y022510D01*
X013850Y022621D01*
X013850Y022621D01*
X014038Y022810D01*
X014135Y022810D01*
X014135Y022798D01*
X014208Y022725D01*
X014173Y022690D01*
X014148Y022646D01*
X014135Y022597D01*
X014135Y022478D01*
X014422Y022478D01*
X014422Y022402D01*
X014135Y022402D01*
X014135Y022283D01*
X014148Y022234D01*
X014173Y022190D01*
X014208Y022155D01*
X014172Y022119D01*
X014086Y022155D01*
X013973Y022155D01*
X013868Y022112D01*
X013788Y022031D01*
X013745Y021927D01*
X013745Y021813D01*
X013788Y021709D01*
X013868Y021628D01*
X013973Y021585D01*
X014086Y021585D01*
X014172Y021621D01*
X014208Y021585D01*
X014135Y021512D01*
X014135Y021088D01*
X014219Y021004D01*
X014160Y020945D01*
X014160Y020515D01*
X014269Y020405D01*
X014650Y020405D01*
X014760Y020515D01*
X014760Y020945D01*
X014700Y021004D01*
X014760Y021063D01*
X014819Y021004D01*
X014797Y020983D01*
X014772Y020940D01*
X014760Y020892D01*
X014760Y020755D01*
X014760Y020755D01*
X015035Y020755D01*
X015035Y020705D01*
X015085Y020705D01*
X015085Y020755D01*
X015360Y020755D01*
X017574Y020755D01*
X017574Y020657D02*
X015360Y020657D01*
X015360Y020705D02*
X015085Y020705D01*
X015085Y020405D01*
X015197Y020405D01*
X015244Y020418D01*
X015287Y020442D01*
X015322Y020477D01*
X015347Y020520D01*
X015360Y020568D01*
X015360Y020705D01*
X015360Y020755D02*
X015360Y020892D01*
X015347Y020940D01*
X015360Y020854D02*
X017574Y020854D01*
X017574Y020558D02*
X015357Y020558D01*
X015304Y020460D02*
X017574Y020460D01*
X017574Y020361D02*
X009043Y020361D01*
X009045Y020263D02*
X010652Y020263D01*
X010655Y020268D02*
X010635Y020233D01*
X010625Y020195D01*
X010625Y019925D01*
X011025Y019925D01*
X011025Y019825D01*
X011125Y019825D01*
X011125Y019425D01*
X011395Y019425D01*
X011433Y019436D01*
X011467Y019455D01*
X011495Y019483D01*
X011515Y019518D01*
X011525Y019556D01*
X011525Y019825D01*
X011125Y019825D01*
X011125Y019925D01*
X011525Y019925D01*
X011525Y020195D01*
X011515Y020233D01*
X011495Y020268D01*
X011467Y020295D01*
X011433Y020315D01*
X011395Y020325D01*
X011125Y020325D01*
X011125Y019925D01*
X011025Y019925D01*
X011025Y020325D01*
X010755Y020325D01*
X010717Y020315D01*
X010683Y020295D01*
X010655Y020268D01*
X010625Y020164D02*
X009012Y020164D01*
X008950Y020066D02*
X010625Y020066D01*
X010625Y019967D02*
X008950Y019967D01*
X008950Y019869D02*
X011025Y019869D01*
X011025Y019825D02*
X010625Y019825D01*
X010625Y019556D01*
X010635Y019518D01*
X010655Y019483D01*
X010683Y019455D01*
X010717Y019436D01*
X010755Y019425D01*
X011025Y019425D01*
X011025Y019825D01*
X011025Y019770D02*
X011125Y019770D01*
X011125Y019672D02*
X011025Y019672D01*
X011025Y019573D02*
X011125Y019573D01*
X011125Y019475D02*
X011025Y019475D01*
X010664Y019475D02*
X008950Y019475D01*
X008950Y019573D02*
X010625Y019573D01*
X010625Y019672D02*
X008950Y019672D01*
X008950Y019770D02*
X010625Y019770D01*
X011025Y019967D02*
X011125Y019967D01*
X011125Y019869D02*
X017198Y019869D01*
X017140Y019967D02*
X011525Y019967D01*
X011525Y020066D02*
X017125Y020066D01*
X017144Y020164D02*
X011525Y020164D01*
X011498Y020263D02*
X017209Y020263D01*
X017370Y019770D02*
X013584Y019770D01*
X013621Y019732D02*
X013533Y019820D01*
X013015Y019820D01*
X012960Y019764D01*
X012934Y019790D01*
X012899Y019810D01*
X012861Y019820D01*
X012683Y019820D01*
X012683Y019532D01*
X012606Y019532D01*
X012606Y019820D01*
X012428Y019820D01*
X012390Y019810D01*
X012356Y019790D01*
X012328Y019762D01*
X012308Y019728D01*
X012298Y019690D01*
X012298Y019531D01*
X012606Y019531D01*
X012606Y019454D01*
X012683Y019454D01*
X012683Y019166D01*
X012861Y019166D01*
X012899Y019176D01*
X012934Y019196D01*
X012960Y019222D01*
X013015Y019166D01*
X013533Y019166D01*
X013621Y019254D01*
X013621Y019732D01*
X013621Y019672D02*
X017370Y019672D01*
X017329Y019573D02*
X013621Y019573D01*
X013621Y019475D02*
X017282Y019475D01*
X017275Y019376D02*
X013621Y019376D01*
X013621Y019278D02*
X017302Y019278D01*
X017377Y019179D02*
X013547Y019179D01*
X013572Y018785D02*
X012947Y018785D01*
X013108Y018687D02*
X013411Y018687D01*
X013316Y018588D02*
X013203Y018588D01*
X013244Y018490D02*
X013275Y018490D01*
X013947Y018785D02*
X014572Y018785D01*
X014411Y018687D02*
X014108Y018687D01*
X014203Y018588D02*
X014316Y018588D01*
X014275Y018490D02*
X014244Y018490D01*
X014947Y018785D02*
X015572Y018785D01*
X015411Y018687D02*
X015108Y018687D01*
X015203Y018588D02*
X015316Y018588D01*
X015275Y018490D02*
X015244Y018490D01*
X015947Y018785D02*
X016569Y018785D01*
X016710Y018785D02*
X016810Y018785D01*
X016810Y018687D02*
X016710Y018687D01*
X016710Y018588D02*
X016810Y018588D01*
X016810Y018490D02*
X016710Y018490D01*
X016710Y018391D02*
X016810Y018391D01*
X016950Y018785D02*
X017572Y018785D01*
X017411Y018687D02*
X017108Y018687D01*
X017193Y018588D02*
X017316Y018588D01*
X017275Y018490D02*
X017245Y018490D01*
X017947Y018785D02*
X018572Y018785D01*
X018687Y018884D02*
X008950Y018884D01*
X008950Y018982D02*
X018589Y018982D01*
X018490Y019081D02*
X008950Y019081D01*
X008950Y019179D02*
X012385Y019179D01*
X012390Y019176D02*
X012428Y019166D01*
X012606Y019166D01*
X012606Y019454D01*
X012298Y019454D01*
X012298Y019296D01*
X012308Y019258D01*
X012328Y019224D01*
X012356Y019196D01*
X012390Y019176D01*
X012303Y019278D02*
X008950Y019278D01*
X008950Y019376D02*
X012298Y019376D01*
X012298Y019573D02*
X011525Y019573D01*
X011525Y019672D02*
X012298Y019672D01*
X012335Y019770D02*
X011525Y019770D01*
X011486Y019475D02*
X012606Y019475D01*
X012606Y019573D02*
X012683Y019573D01*
X012683Y019672D02*
X012606Y019672D01*
X012606Y019770D02*
X012683Y019770D01*
X012954Y019770D02*
X012965Y019770D01*
X012683Y019376D02*
X012606Y019376D01*
X012606Y019278D02*
X012683Y019278D01*
X012683Y019179D02*
X012606Y019179D01*
X012905Y019179D02*
X013002Y019179D01*
X012572Y018785D02*
X011947Y018785D01*
X012108Y018687D02*
X012411Y018687D01*
X012316Y018588D02*
X012203Y018588D01*
X012244Y018490D02*
X012275Y018490D01*
X011572Y018785D02*
X010947Y018785D01*
X011108Y018687D02*
X011411Y018687D01*
X011316Y018588D02*
X011203Y018588D01*
X011244Y018490D02*
X011275Y018490D01*
X010572Y018785D02*
X009947Y018785D01*
X010108Y018687D02*
X010411Y018687D01*
X010316Y018588D02*
X010203Y018588D01*
X010244Y018490D02*
X010275Y018490D01*
X009572Y018785D02*
X008950Y018785D01*
X009108Y018687D02*
X009411Y018687D01*
X009316Y018588D02*
X009203Y018588D01*
X009244Y018490D02*
X009275Y018490D01*
X008570Y018785D02*
X007950Y018785D01*
X007950Y018884D02*
X008570Y018884D01*
X008570Y018982D02*
X007950Y018982D01*
X007950Y019081D02*
X008570Y019081D01*
X008570Y019179D02*
X007950Y019179D01*
X007950Y019278D02*
X008570Y019278D01*
X008570Y019376D02*
X007950Y019376D01*
X007950Y019475D02*
X008570Y019475D01*
X008570Y019573D02*
X007950Y019573D01*
X007950Y019672D02*
X008570Y019672D01*
X008570Y019770D02*
X007950Y019770D01*
X007950Y019869D02*
X008570Y019869D01*
X008570Y019967D02*
X007950Y019967D01*
X007950Y020066D02*
X008570Y020066D01*
X008507Y020164D02*
X007950Y020164D01*
X007950Y020263D02*
X008475Y020263D01*
X008476Y020361D02*
X007950Y020361D01*
X007950Y020460D02*
X008517Y020460D01*
X008638Y020558D02*
X007950Y020558D01*
X007950Y020657D02*
X014160Y020657D01*
X014160Y020755D02*
X007950Y020755D01*
X007950Y020854D02*
X012319Y020854D01*
X012298Y020952D02*
X007950Y020952D01*
X007950Y021051D02*
X012298Y021051D01*
X012298Y021149D02*
X007950Y021149D01*
X007950Y021248D02*
X012298Y021248D01*
X012310Y021346D02*
X010491Y021346D01*
X010604Y021445D02*
X013084Y021445D01*
X013084Y021543D02*
X011677Y021543D01*
X011680Y021642D02*
X013084Y021642D01*
X013084Y021740D02*
X011680Y021740D01*
X011680Y021839D02*
X013084Y021839D01*
X012986Y021937D02*
X012933Y021937D01*
X013464Y021839D02*
X013745Y021839D01*
X013749Y021937D02*
X013533Y021937D01*
X013585Y022036D02*
X013792Y022036D01*
X013922Y022134D02*
X013585Y022134D01*
X013585Y022233D02*
X014149Y022233D01*
X014135Y022331D02*
X013585Y022331D01*
X013567Y022430D02*
X014422Y022430D01*
X014135Y022528D02*
X013756Y022528D01*
X013855Y022627D02*
X014142Y022627D01*
X014208Y022725D02*
X013953Y022725D01*
X013711Y023021D02*
X013476Y023021D01*
X013574Y022922D02*
X013613Y022922D01*
X013770Y023079D02*
X013770Y023079D01*
X013810Y023119D02*
X011680Y023119D01*
X011680Y023021D02*
X011777Y023021D01*
X011702Y022922D02*
X011680Y022922D01*
X011680Y023218D02*
X014135Y023218D01*
X014229Y023316D02*
X011680Y023316D01*
X011680Y023415D02*
X014267Y023415D01*
X014253Y023418D02*
X014303Y023405D01*
X014422Y023405D01*
X014422Y023692D01*
X014135Y023692D01*
X014135Y023573D01*
X014148Y023524D01*
X014173Y023480D01*
X014209Y023444D01*
X014253Y023418D01*
X014154Y023513D02*
X011680Y023513D01*
X011680Y023612D02*
X014135Y023612D01*
X014135Y023809D02*
X011680Y023809D01*
X011672Y023710D02*
X014422Y023710D01*
X014422Y023612D02*
X014497Y023612D01*
X014497Y023513D02*
X014422Y023513D01*
X014422Y023415D02*
X014497Y023415D01*
X014652Y023415D02*
X014838Y023415D01*
X014829Y023316D02*
X014690Y023316D01*
X015281Y023415D02*
X015405Y023415D01*
X015416Y023316D02*
X015290Y023316D01*
X015385Y023218D02*
X015469Y023218D01*
X015509Y023119D02*
X015623Y023119D01*
X015550Y023079D02*
X015550Y023079D01*
X015608Y023021D02*
X015981Y023021D01*
X015748Y022922D02*
X015706Y022922D01*
X016629Y023095D02*
X016705Y023095D01*
X016705Y023095D01*
X016705Y023095D01*
X016629Y023095D01*
X017402Y023119D02*
X018310Y023119D01*
X018408Y023218D02*
X017402Y023218D01*
X017402Y023316D02*
X018672Y023316D01*
X019047Y023316D02*
X019470Y023316D01*
X019470Y023218D02*
X019119Y023218D01*
X019145Y023119D02*
X019470Y023119D01*
X019470Y023021D02*
X019135Y023021D01*
X019085Y022922D02*
X019470Y022922D01*
X019470Y022824D02*
X018937Y022824D01*
X018782Y022824D02*
X018552Y022824D01*
X018453Y022725D02*
X019470Y022725D01*
X019470Y022627D02*
X018355Y022627D01*
X018256Y022528D02*
X019470Y022528D01*
X019470Y022430D02*
X018158Y022430D01*
X018059Y022331D02*
X019470Y022331D01*
X019470Y022233D02*
X018250Y022233D01*
X018332Y022134D02*
X019470Y022134D01*
X019470Y022036D02*
X018365Y022036D01*
X018362Y021937D02*
X019554Y021937D01*
X019652Y021839D02*
X018321Y021839D01*
X018278Y021740D02*
X019751Y021740D01*
X019849Y021642D02*
X018305Y021642D01*
X018296Y021543D02*
X019948Y021543D01*
X020046Y021445D02*
X018247Y021445D01*
X018103Y021346D02*
X020145Y021346D01*
X020424Y021248D02*
X017870Y021248D01*
X017917Y021346D02*
X017936Y021346D01*
X017730Y021149D02*
X021171Y021149D01*
X021117Y021248D02*
X020695Y021248D01*
X020804Y021346D02*
X021117Y021346D01*
X021117Y021445D02*
X020845Y021445D01*
X020845Y021543D02*
X021117Y021543D01*
X021117Y021642D02*
X020970Y021642D01*
X021068Y021740D02*
X021117Y021740D01*
X021117Y021717D02*
X021193Y021717D01*
X021117Y021717D01*
X021193Y021717D02*
X021193Y021717D01*
X021193Y021717D01*
X021836Y021051D02*
X015347Y021051D01*
X015385Y021149D02*
X016683Y021149D01*
X016629Y021248D02*
X015385Y021248D01*
X015385Y021346D02*
X016230Y021346D01*
X016159Y021445D02*
X015385Y021445D01*
X015353Y021543D02*
X016135Y021543D01*
X016145Y021642D02*
X015368Y021642D01*
X015385Y021740D02*
X015796Y021740D01*
X015715Y021839D02*
X015385Y021839D01*
X015385Y021937D02*
X015685Y021937D01*
X016143Y021740D02*
X016196Y021740D01*
X016224Y021839D02*
X016347Y021839D01*
X016255Y021937D02*
X016448Y021937D01*
X016504Y021993D02*
X016504Y021993D01*
X016546Y022036D02*
X016304Y022036D01*
X016402Y022134D02*
X016629Y022134D01*
X016629Y022233D02*
X016501Y022233D01*
X016609Y021346D02*
X016629Y021346D01*
X015085Y020657D02*
X015035Y020657D01*
X015035Y020705D02*
X015035Y020405D01*
X014922Y020405D01*
X014875Y020418D01*
X014832Y020442D01*
X014797Y020477D01*
X014772Y020520D01*
X014760Y020568D01*
X014760Y020705D01*
X015035Y020705D01*
X015035Y020558D02*
X015085Y020558D01*
X015085Y020460D02*
X015035Y020460D01*
X014815Y020460D02*
X014704Y020460D01*
X014760Y020558D02*
X014762Y020558D01*
X014760Y020657D02*
X014760Y020657D01*
X014760Y020854D02*
X014760Y020854D01*
X014753Y020952D02*
X014779Y020952D01*
X014773Y021051D02*
X014747Y021051D01*
X014173Y021051D02*
X013621Y021051D01*
X013621Y021149D02*
X014135Y021149D01*
X014166Y020952D02*
X013621Y020952D01*
X013607Y020854D02*
X014160Y020854D01*
X014160Y020558D02*
X008881Y020558D01*
X009002Y020460D02*
X014215Y020460D01*
X012683Y020854D02*
X012606Y020854D01*
X012606Y020952D02*
X012683Y020952D01*
X012683Y021051D02*
X012606Y021051D01*
X012606Y021149D02*
X012683Y021149D01*
X012683Y021248D02*
X012606Y021248D01*
X012606Y021346D02*
X012683Y021346D01*
X012386Y021937D02*
X012269Y021937D01*
X012050Y021937D02*
X011680Y021937D01*
X011680Y022036D02*
X011921Y022036D01*
X011878Y022134D02*
X011680Y022134D01*
X011680Y022233D02*
X011875Y022233D01*
X011905Y022331D02*
X011680Y022331D01*
X011680Y022430D02*
X011986Y022430D01*
X012048Y022528D02*
X012339Y022528D01*
X012335Y022627D02*
X012189Y022627D01*
X012237Y022725D02*
X012622Y022725D01*
X012622Y022824D02*
X012697Y022824D01*
X012697Y022922D02*
X012622Y022922D01*
X012622Y023021D02*
X012697Y023021D01*
X012833Y023021D02*
X013044Y023021D01*
X012486Y023021D02*
X012142Y023021D01*
X012217Y022922D02*
X012357Y022922D01*
X012335Y022824D02*
X012245Y022824D01*
X012333Y022430D02*
X012353Y022430D01*
X013464Y021740D02*
X013775Y021740D01*
X013855Y021642D02*
X013464Y021642D01*
X013464Y021543D02*
X014166Y021543D01*
X014135Y021445D02*
X013464Y021445D01*
X014137Y022134D02*
X014187Y022134D01*
X015379Y023513D02*
X015428Y023513D01*
X015385Y023612D02*
X015475Y023612D01*
X015418Y023710D02*
X015385Y023710D01*
X015385Y023809D02*
X015405Y023809D01*
X015385Y023907D02*
X015425Y023907D01*
X015492Y024006D02*
X015321Y024006D01*
X015360Y024104D02*
X015507Y024104D01*
X015408Y024203D02*
X015360Y024203D01*
X015792Y024597D02*
X018175Y024597D01*
X018175Y024498D02*
X015890Y024498D01*
X015989Y024400D02*
X016631Y024400D01*
X016629Y024301D02*
X016087Y024301D01*
X016186Y024203D02*
X016629Y024203D01*
X016629Y024104D02*
X016284Y024104D01*
X015693Y024695D02*
X017625Y024695D01*
X017574Y024794D02*
X015595Y024794D01*
X015496Y024892D02*
X017574Y024892D01*
X017574Y024991D02*
X016787Y024991D01*
X016771Y024975D02*
X016885Y025088D01*
X016885Y025110D01*
X016986Y025110D01*
X017058Y025038D01*
X017163Y024995D01*
X017276Y024995D01*
X017381Y025038D01*
X017461Y025119D01*
X017505Y025223D01*
X017505Y025337D01*
X017461Y025441D01*
X017381Y025522D01*
X017276Y025565D01*
X017163Y025565D01*
X017058Y025522D01*
X017026Y025490D01*
X016885Y025490D01*
X016885Y025512D01*
X016771Y025625D01*
X016348Y025625D01*
X016256Y025533D01*
X016246Y025550D01*
X016210Y025586D01*
X016166Y025612D01*
X016116Y025625D01*
X015997Y025625D01*
X015997Y025338D01*
X015922Y025338D01*
X015922Y025625D01*
X015803Y025625D01*
X015753Y025612D01*
X015709Y025586D01*
X015673Y025550D01*
X015648Y025506D01*
X015635Y025457D01*
X015635Y025338D01*
X015922Y025338D01*
X015922Y025262D01*
X015997Y025262D01*
X015997Y024975D01*
X016116Y024975D01*
X016166Y024988D01*
X016210Y025014D01*
X016246Y025050D01*
X016256Y025067D01*
X016348Y024975D01*
X016771Y024975D01*
X016885Y025089D02*
X017007Y025089D01*
X017432Y025089D02*
X017574Y025089D01*
X017574Y025188D02*
X017490Y025188D01*
X017505Y025286D02*
X017574Y025286D01*
X017593Y025385D02*
X017485Y025385D01*
X017420Y025483D02*
X017593Y025483D01*
X017529Y025582D02*
X016814Y025582D01*
X016631Y025680D02*
X014116Y025680D01*
X014185Y025582D02*
X015705Y025582D01*
X015642Y025483D02*
X014889Y025483D01*
X015018Y025385D02*
X015635Y025385D01*
X015635Y025262D02*
X015635Y025143D01*
X015648Y025094D01*
X015673Y025050D01*
X015709Y025014D01*
X015753Y024988D01*
X015803Y024975D01*
X015922Y024975D01*
X015922Y025262D01*
X015635Y025262D01*
X015635Y025188D02*
X015081Y025188D01*
X015061Y025286D02*
X015922Y025286D01*
X015922Y025188D02*
X015997Y025188D01*
X015997Y025089D02*
X015922Y025089D01*
X015922Y024991D02*
X015997Y024991D01*
X016170Y024991D02*
X016332Y024991D01*
X015997Y025385D02*
X015922Y025385D01*
X015922Y025483D02*
X015997Y025483D01*
X015997Y025582D02*
X015922Y025582D01*
X016214Y025582D02*
X016305Y025582D01*
X015749Y024991D02*
X015398Y024991D01*
X015299Y025089D02*
X015651Y025089D01*
X014670Y025483D02*
X014185Y025483D01*
X014185Y025385D02*
X014541Y025385D01*
X014812Y025779D02*
X013621Y025779D01*
X013621Y025877D02*
X014714Y025877D01*
X014095Y025976D02*
X013313Y025976D01*
X013313Y025877D02*
X013236Y025877D01*
X013236Y025779D02*
X013313Y025779D01*
X013313Y025680D02*
X013236Y025680D01*
X012965Y025680D02*
X012954Y025680D01*
X013002Y025385D02*
X011680Y025385D01*
X011680Y025286D02*
X012842Y025286D01*
X012787Y025188D02*
X011680Y025188D01*
X011680Y025089D02*
X012775Y025089D01*
X012796Y024991D02*
X011680Y024991D01*
X011680Y024892D02*
X012683Y024892D01*
X012584Y024794D02*
X011680Y024794D01*
X011680Y024695D02*
X012486Y024695D01*
X012312Y024597D02*
X012066Y024597D01*
X012127Y024498D02*
X012298Y024498D01*
X012298Y024400D02*
X012145Y024400D01*
X012127Y024301D02*
X012298Y024301D01*
X012298Y024203D02*
X012065Y024203D01*
X012298Y024104D02*
X012386Y024016D01*
X012904Y024016D01*
X012960Y024072D01*
X012986Y024046D01*
X013020Y024026D01*
X013058Y024016D01*
X013236Y024016D01*
X013236Y024304D01*
X013313Y024304D01*
X013313Y024016D01*
X013491Y024016D01*
X013529Y024026D01*
X013563Y024046D01*
X013591Y024074D01*
X013611Y024108D01*
X013621Y024146D01*
X013621Y024304D01*
X013313Y024304D01*
X013313Y024381D01*
X013621Y024381D01*
X013621Y024502D01*
X013648Y024475D01*
X013831Y024475D01*
X013818Y024461D01*
X013775Y024357D01*
X013775Y024243D01*
X013818Y024139D01*
X013898Y024058D01*
X014003Y024015D01*
X014116Y024015D01*
X014196Y024048D01*
X014221Y024023D01*
X014209Y024016D01*
X014140Y023907D02*
X011255Y023907D01*
X011205Y023907D02*
X008321Y023907D01*
X008223Y024006D02*
X010780Y024006D01*
X010783Y024104D02*
X008124Y024104D01*
X008026Y024203D02*
X010780Y024203D01*
X010710Y024269D02*
X010738Y024296D01*
X010757Y024331D01*
X010768Y024369D01*
X010768Y024693D01*
X010392Y024693D01*
X010392Y024793D01*
X010292Y024793D01*
X010292Y025247D01*
X010047Y025247D01*
X010009Y025237D01*
X009974Y025217D01*
X009946Y025189D01*
X009927Y025155D01*
X009916Y025117D01*
X009916Y024793D01*
X010292Y024793D01*
X010292Y024693D01*
X009916Y024693D01*
X009916Y024369D01*
X009927Y024331D01*
X009946Y024296D01*
X009974Y024269D01*
X010009Y024249D01*
X010047Y024239D01*
X010292Y024239D01*
X010292Y024693D01*
X010392Y024693D01*
X010392Y024239D01*
X010637Y024239D01*
X010676Y024249D01*
X010710Y024269D01*
X010740Y024301D02*
X010780Y024301D01*
X010768Y024400D02*
X010780Y024400D01*
X010768Y024498D02*
X010780Y024498D01*
X010768Y024597D02*
X010780Y024597D01*
X010780Y024695D02*
X010392Y024695D01*
X010392Y024793D02*
X010768Y024793D01*
X010768Y025117D01*
X010757Y025155D01*
X010738Y025189D01*
X010710Y025217D01*
X010676Y025237D01*
X010637Y025247D01*
X010392Y025247D01*
X010392Y024793D01*
X010392Y024794D02*
X010292Y024794D01*
X010292Y024892D02*
X010392Y024892D01*
X010392Y024991D02*
X010292Y024991D01*
X010292Y025089D02*
X010392Y025089D01*
X010392Y025188D02*
X010292Y025188D01*
X009945Y025188D02*
X008430Y025188D01*
X008430Y025286D02*
X010780Y025286D01*
X010780Y025188D02*
X010739Y025188D01*
X010768Y025089D02*
X010780Y025089D01*
X010768Y024991D02*
X010780Y024991D01*
X010768Y024892D02*
X010780Y024892D01*
X010768Y024794D02*
X010780Y024794D01*
X010392Y024597D02*
X010292Y024597D01*
X010292Y024695D02*
X008303Y024695D01*
X008205Y024597D02*
X009916Y024597D01*
X009916Y024498D02*
X008106Y024498D01*
X008008Y024400D02*
X009916Y024400D01*
X009944Y024301D02*
X007927Y024301D01*
X007685Y024006D02*
X007614Y024006D01*
X007515Y023907D02*
X007784Y023907D01*
X007882Y023809D02*
X007417Y023809D01*
X007318Y023710D02*
X007981Y023710D01*
X008079Y023612D02*
X007220Y023612D01*
X007340Y023513D02*
X008178Y023513D01*
X008276Y023415D02*
X007393Y023415D01*
X007405Y023316D02*
X008375Y023316D01*
X008518Y023710D02*
X010787Y023710D01*
X010780Y023809D02*
X008420Y023809D01*
X007470Y024400D02*
X007243Y024400D01*
X007263Y024498D02*
X007569Y024498D01*
X007667Y024597D02*
X007256Y024597D01*
X007215Y024695D02*
X007766Y024695D01*
X007864Y024794D02*
X007112Y024794D01*
X006765Y024794D02*
X006732Y024794D01*
X006732Y024892D02*
X007963Y024892D01*
X008050Y024991D02*
X006732Y024991D01*
X006732Y025089D02*
X008050Y025089D01*
X008050Y025188D02*
X007623Y025188D01*
X007638Y025196D02*
X007666Y025224D01*
X007685Y025258D01*
X007696Y025296D01*
X007696Y025566D01*
X007196Y025566D01*
X007196Y025166D01*
X007565Y025166D01*
X007604Y025176D01*
X007638Y025196D01*
X007693Y025286D02*
X008050Y025286D01*
X008012Y025385D02*
X007696Y025385D01*
X007696Y025483D02*
X007963Y025483D01*
X007955Y025582D02*
X007196Y025582D01*
X007196Y025680D02*
X007096Y025680D01*
X007096Y025582D02*
X005689Y025582D01*
X005689Y025668D02*
X005679Y025706D01*
X005659Y025741D01*
X005631Y025768D01*
X005597Y025788D01*
X005559Y025798D01*
X005215Y025798D01*
X005215Y025423D01*
X005115Y025423D01*
X005115Y025798D01*
X004771Y025798D01*
X004733Y025788D01*
X004699Y025768D01*
X004671Y025741D01*
X004651Y025706D01*
X004641Y025668D01*
X004641Y025423D01*
X005115Y025423D01*
X005115Y025323D01*
X004641Y025323D01*
X004641Y025077D01*
X004651Y025039D01*
X004671Y025005D01*
X004699Y024977D01*
X004733Y024957D01*
X004771Y024947D01*
X005115Y024947D01*
X005115Y025323D01*
X005215Y025323D01*
X005215Y025423D01*
X005689Y025423D01*
X005689Y025668D01*
X005686Y025680D02*
X006596Y025680D01*
X006596Y025779D02*
X005614Y025779D01*
X005689Y025483D02*
X006596Y025483D01*
X006596Y025385D02*
X005215Y025385D01*
X005215Y025323D02*
X005689Y025323D01*
X005689Y025077D01*
X005679Y025039D01*
X005659Y025005D01*
X005631Y024977D01*
X005597Y024957D01*
X005559Y024947D01*
X005215Y024947D01*
X005215Y025323D01*
X005215Y025286D02*
X005115Y025286D01*
X005115Y025188D02*
X005215Y025188D01*
X005215Y025089D02*
X005115Y025089D01*
X005115Y024991D02*
X005215Y024991D01*
X005373Y024794D02*
X004390Y024794D01*
X004390Y024892D02*
X005502Y024892D01*
X005644Y024991D02*
X005842Y024991D01*
X005842Y025089D02*
X005689Y025089D01*
X005689Y025188D02*
X005842Y025188D01*
X005846Y025286D02*
X005689Y025286D01*
X005720Y024892D02*
X005842Y024892D01*
X005330Y024695D02*
X004390Y024695D01*
X004390Y024597D02*
X005326Y024597D01*
X005356Y024498D02*
X004390Y024498D01*
X004390Y024400D02*
X005437Y024400D01*
X005763Y024301D02*
X004390Y024301D01*
X004390Y024203D02*
X006179Y024203D01*
X006237Y024203D02*
X006840Y024203D01*
X006691Y024301D02*
X006653Y024301D01*
X006653Y024104D02*
X007175Y024104D01*
X007273Y024203D02*
X007036Y024203D01*
X007185Y024301D02*
X007372Y024301D01*
X007076Y024006D02*
X006709Y024006D01*
X005766Y024006D02*
X004390Y024006D01*
X004390Y024104D02*
X005763Y024104D01*
X005598Y023907D02*
X004390Y023907D01*
X004390Y023809D02*
X005499Y023809D01*
X005401Y023710D02*
X004390Y023710D01*
X004390Y023612D02*
X005302Y023612D01*
X005069Y023513D02*
X004390Y023513D01*
X004390Y023415D02*
X004998Y023415D01*
X004975Y023316D02*
X004390Y023316D01*
X004390Y023218D02*
X004985Y023218D01*
X005037Y023119D02*
X004390Y023119D01*
X004390Y023021D02*
X005190Y023021D01*
X005330Y023021D02*
X005842Y023021D01*
X005842Y022922D02*
X004390Y022922D01*
X004390Y022824D02*
X005842Y022824D01*
X005842Y022725D02*
X004390Y022725D01*
X004390Y022627D02*
X005892Y022627D01*
X005999Y022528D02*
X004390Y022528D01*
X004390Y022430D02*
X005999Y022430D01*
X005923Y022331D02*
X004390Y022331D01*
X004390Y022233D02*
X005842Y022233D01*
X005842Y022134D02*
X004390Y022134D01*
X004390Y022036D02*
X005842Y022036D01*
X005842Y021937D02*
X004390Y021937D01*
X004390Y021839D02*
X005842Y021839D01*
X005912Y021740D02*
X004390Y021740D01*
X004390Y021642D02*
X006759Y021642D01*
X006754Y021640D02*
X006663Y021548D01*
X006613Y021429D01*
X006613Y021299D01*
X006663Y021180D01*
X006754Y021088D01*
X006874Y021039D01*
X007003Y021039D01*
X007122Y021088D01*
X007214Y021180D01*
X007263Y021299D01*
X007263Y021429D01*
X007214Y021548D01*
X007122Y021640D01*
X007003Y021689D01*
X006874Y021689D01*
X006754Y021640D01*
X006661Y021543D02*
X004390Y021543D01*
X004390Y021445D02*
X006620Y021445D01*
X006613Y021346D02*
X004390Y021346D01*
X004390Y021248D02*
X006635Y021248D01*
X006694Y021149D02*
X004390Y021149D01*
X004390Y021051D02*
X006846Y021051D01*
X007031Y021051D02*
X007570Y021051D01*
X007570Y021149D02*
X007183Y021149D01*
X007242Y021248D02*
X007570Y021248D01*
X007570Y021346D02*
X007263Y021346D01*
X007257Y021445D02*
X007570Y021445D01*
X007570Y021543D02*
X007216Y021543D01*
X007118Y021642D02*
X007570Y021642D01*
X007570Y021740D02*
X006661Y021740D01*
X006732Y021839D02*
X007570Y021839D01*
X007570Y021937D02*
X006732Y021937D01*
X006732Y022036D02*
X007570Y022036D01*
X007570Y022134D02*
X006732Y022134D01*
X006878Y022233D02*
X006924Y022233D01*
X007275Y022233D02*
X007570Y022233D01*
X007570Y022331D02*
X007355Y022331D01*
X007385Y022430D02*
X007570Y022430D01*
X007570Y022528D02*
X007380Y022528D01*
X007336Y022627D02*
X007570Y022627D01*
X007950Y022627D02*
X009916Y022627D01*
X009916Y022725D02*
X007988Y022725D01*
X008036Y022824D02*
X009916Y022824D01*
X009933Y022922D02*
X008045Y022922D01*
X008018Y023021D02*
X010336Y023021D01*
X010292Y022922D02*
X010392Y022922D01*
X010392Y022824D02*
X010292Y022824D01*
X010292Y022725D02*
X010392Y022725D01*
X010392Y022627D02*
X010292Y022627D01*
X010292Y022528D02*
X007950Y022528D01*
X007950Y022430D02*
X009916Y022430D01*
X009916Y022331D02*
X007950Y022331D01*
X007950Y022233D02*
X009916Y022233D01*
X009916Y022134D02*
X007950Y022134D01*
X007950Y022036D02*
X009963Y022036D01*
X010195Y021839D02*
X007950Y021839D01*
X007950Y021937D02*
X010428Y021937D01*
X010392Y022036D02*
X010292Y022036D01*
X010292Y022134D02*
X010392Y022134D01*
X010392Y022233D02*
X010292Y022233D01*
X010292Y022331D02*
X010392Y022331D01*
X010392Y022430D02*
X010292Y022430D01*
X010392Y022528D02*
X010780Y022528D01*
X010768Y022430D02*
X010780Y022430D01*
X010768Y022627D02*
X010780Y022627D01*
X010768Y022725D02*
X010780Y022725D01*
X010768Y022824D02*
X010780Y022824D01*
X010285Y023119D02*
X007944Y023119D01*
X007575Y023119D02*
X007312Y023119D01*
X007381Y023218D02*
X010275Y023218D01*
X010292Y024301D02*
X010392Y024301D01*
X010392Y024400D02*
X010292Y024400D01*
X010292Y024498D02*
X010392Y024498D01*
X009916Y024794D02*
X008402Y024794D01*
X008430Y024892D02*
X009916Y024892D01*
X009916Y024991D02*
X008430Y024991D01*
X008430Y025089D02*
X009916Y025089D01*
X010780Y025385D02*
X008467Y025385D01*
X008516Y025483D02*
X010560Y025483D01*
X010543Y025582D02*
X008525Y025582D01*
X008498Y025680D02*
X010543Y025680D01*
X010543Y025802D02*
X010943Y025802D01*
X010943Y026102D01*
X010674Y026102D01*
X010635Y026092D01*
X010601Y026072D01*
X010573Y026044D01*
X010554Y026010D01*
X010543Y025972D01*
X010543Y025802D01*
X010543Y025877D02*
X007696Y025877D01*
X007696Y025779D02*
X008055Y025779D01*
X007981Y025680D02*
X007696Y025680D01*
X007684Y025976D02*
X010544Y025976D01*
X010604Y026074D02*
X004390Y026074D01*
X004390Y025976D02*
X006607Y025976D01*
X006596Y025877D02*
X004390Y025877D01*
X004390Y025779D02*
X004716Y025779D01*
X004644Y025680D02*
X004390Y025680D01*
X004390Y025582D02*
X004641Y025582D01*
X004641Y025483D02*
X004390Y025483D01*
X004390Y025385D02*
X005115Y025385D01*
X005115Y025483D02*
X005215Y025483D01*
X005215Y025582D02*
X005115Y025582D01*
X005115Y025680D02*
X005215Y025680D01*
X005215Y025779D02*
X005115Y025779D01*
X004641Y025286D02*
X004390Y025286D01*
X004390Y025188D02*
X004641Y025188D01*
X004641Y025089D02*
X004390Y025089D01*
X004390Y024991D02*
X004685Y024991D01*
X007096Y025188D02*
X007196Y025188D01*
X007196Y025286D02*
X007096Y025286D01*
X007096Y025385D02*
X007196Y025385D01*
X007196Y025483D02*
X007096Y025483D01*
X007096Y025779D02*
X007196Y025779D01*
X007196Y025877D02*
X007096Y025877D01*
X007096Y025976D02*
X007196Y025976D01*
X008424Y025779D02*
X010943Y025779D01*
X010943Y025877D02*
X011043Y025877D01*
X011043Y025802D02*
X011043Y026102D01*
X011313Y026102D01*
X011351Y026092D01*
X011385Y026072D01*
X011413Y026044D01*
X011433Y026010D01*
X011443Y025972D01*
X011443Y025802D01*
X011043Y025802D01*
X011043Y025779D02*
X012298Y025779D01*
X012298Y025877D02*
X011443Y025877D01*
X011442Y025976D02*
X012298Y025976D01*
X012298Y026074D02*
X011382Y026074D01*
X011043Y026074D02*
X010943Y026074D01*
X010943Y025976D02*
X011043Y025976D01*
X011000Y026271D02*
X004390Y026271D01*
X004390Y026173D02*
X012298Y026173D01*
X012335Y025680D02*
X011443Y025680D01*
X011443Y025582D02*
X013535Y025582D01*
X013584Y025680D02*
X013603Y025680D01*
X013474Y025483D02*
X011631Y025483D01*
X010901Y026370D02*
X004390Y026370D01*
X004390Y026468D02*
X010043Y026468D01*
X009944Y026567D02*
X004390Y026567D01*
X004390Y026665D02*
X009126Y026665D01*
X009027Y026764D02*
X004390Y026764D01*
X004390Y026862D02*
X004478Y026862D01*
X004710Y026862D02*
X004810Y026862D01*
X004810Y026961D02*
X004710Y026961D01*
X004710Y027059D02*
X004810Y027059D01*
X004810Y027158D02*
X004710Y027158D01*
X005041Y026862D02*
X005462Y026862D01*
X005364Y026961D02*
X005155Y026961D01*
X005220Y027059D02*
X005296Y027059D01*
X006057Y026862D02*
X006462Y026862D01*
X006364Y026961D02*
X006155Y026961D01*
X006223Y027059D02*
X006296Y027059D01*
X007057Y026862D02*
X007462Y026862D01*
X007364Y026961D02*
X007155Y026961D01*
X007223Y027059D02*
X007296Y027059D01*
X008057Y026862D02*
X008462Y026862D01*
X008364Y026961D02*
X008155Y026961D01*
X008223Y027059D02*
X008296Y027059D01*
X013117Y025385D02*
X013375Y025385D01*
X013621Y026074D02*
X013997Y026074D01*
X013625Y024498D02*
X013621Y024498D01*
X013621Y024400D02*
X013792Y024400D01*
X013775Y024301D02*
X013621Y024301D01*
X013621Y024203D02*
X013791Y024203D01*
X013852Y024104D02*
X013609Y024104D01*
X013313Y024104D02*
X013236Y024104D01*
X013236Y024203D02*
X013313Y024203D01*
X013313Y024301D02*
X013236Y024301D01*
X017402Y023612D02*
X017405Y023612D01*
X017402Y023513D02*
X019470Y023513D01*
X019470Y023415D02*
X017402Y023415D01*
X017834Y023612D02*
X019502Y023612D01*
X019601Y023710D02*
X017891Y023710D01*
X017905Y023809D02*
X019635Y023809D01*
X019664Y023907D02*
X017884Y023907D01*
X017908Y024006D02*
X019742Y024006D01*
X019717Y024104D02*
X019994Y024104D01*
X020059Y024203D02*
X019801Y024203D01*
X019382Y024104D02*
X017968Y024104D01*
X017985Y024203D02*
X019298Y024203D01*
X019265Y024301D02*
X018603Y024301D01*
X018706Y024400D02*
X019266Y024400D01*
X019306Y024498D02*
X018745Y024498D01*
X018761Y024597D02*
X019424Y024597D01*
X019555Y024658D02*
X019555Y024734D01*
X019555Y024734D01*
X019555Y024734D01*
X019555Y024658D01*
X019555Y024695D02*
X019555Y024695D01*
X018767Y024695D02*
X018767Y024695D01*
X018316Y024301D02*
X017966Y024301D01*
X017903Y024400D02*
X018213Y024400D01*
X018211Y023021D02*
X017842Y023021D01*
X017917Y022922D02*
X018113Y022922D01*
X018014Y022824D02*
X017945Y022824D01*
X017477Y023021D02*
X017402Y023021D01*
X020945Y020854D02*
X021243Y020854D01*
X021219Y020755D02*
X020945Y020755D01*
X020945Y020657D02*
X021219Y020657D01*
X021219Y020535D02*
X021219Y020357D01*
X021229Y020319D01*
X021249Y020285D01*
X021277Y020257D01*
X021311Y020237D01*
X021349Y020227D01*
X021508Y020227D01*
X021508Y020535D01*
X021219Y020535D01*
X021219Y020460D02*
X020945Y020460D01*
X020945Y020558D02*
X021508Y020558D01*
X021585Y020558D02*
X022046Y020558D01*
X021585Y020460D02*
X021508Y020460D01*
X021508Y020361D02*
X021585Y020361D01*
X021585Y020263D02*
X021508Y020263D01*
X021298Y020164D02*
X021241Y020164D01*
X021271Y020263D02*
X021200Y020263D01*
X021219Y020361D02*
X021074Y020361D01*
X021508Y020657D02*
X021585Y020657D01*
X021585Y020755D02*
X021508Y020755D01*
X021508Y020854D02*
X021585Y020854D01*
X022700Y020066D02*
X022856Y020066D01*
X022783Y019573D02*
X022700Y019573D01*
X024452Y019376D02*
X032130Y019376D01*
X032130Y019278D02*
X024551Y019278D01*
X025409Y019179D02*
X032130Y019179D01*
X032130Y019081D02*
X025508Y019081D01*
X026356Y018982D02*
X032130Y018982D01*
X032130Y018884D02*
X026455Y018884D01*
X026553Y018785D02*
X026572Y018785D01*
X026947Y018785D02*
X027572Y018785D01*
X027411Y018687D02*
X027108Y018687D01*
X027203Y018588D02*
X027316Y018588D01*
X027275Y018490D02*
X027244Y018490D01*
X027947Y018785D02*
X028572Y018785D01*
X028411Y018687D02*
X028108Y018687D01*
X028203Y018588D02*
X028316Y018588D01*
X028275Y018490D02*
X028244Y018490D01*
X028947Y018785D02*
X029572Y018785D01*
X029411Y018687D02*
X029108Y018687D01*
X029203Y018588D02*
X029316Y018588D01*
X029275Y018490D02*
X029244Y018490D01*
X029947Y018785D02*
X030569Y018785D01*
X030710Y018785D02*
X030810Y018785D01*
X030810Y018687D02*
X030710Y018687D01*
X030710Y018588D02*
X030810Y018588D01*
X030810Y018490D02*
X030710Y018490D01*
X030710Y018391D02*
X030810Y018391D01*
X030950Y018785D02*
X031572Y018785D01*
X031411Y018687D02*
X031108Y018687D01*
X031193Y018588D02*
X031316Y018588D01*
X031275Y018490D02*
X031245Y018490D01*
X031947Y018785D02*
X032130Y018785D01*
X032130Y018687D02*
X032108Y018687D01*
X030411Y018687D02*
X030108Y018687D01*
X030203Y018588D02*
X030326Y018588D01*
X030274Y018490D02*
X030244Y018490D01*
X032130Y020066D02*
X026828Y020066D01*
X026912Y020164D02*
X032130Y020164D01*
X032130Y020263D02*
X026945Y020263D01*
X026943Y020361D02*
X032130Y020361D01*
X032130Y020460D02*
X026902Y020460D01*
X026890Y020558D02*
X032130Y020558D01*
X030968Y022134D02*
X030681Y022134D01*
X030709Y022233D02*
X030960Y022233D01*
X030960Y022331D02*
X030709Y022331D01*
X030260Y023322D02*
X029810Y023322D01*
X030260Y023322D01*
X030260Y023322D01*
X030260Y023415D02*
X030260Y023415D01*
X030260Y023513D02*
X030260Y023513D01*
X029828Y023468D02*
X029821Y023455D01*
X029810Y023416D01*
X029810Y023322D01*
X029810Y023256D01*
X029790Y023256D01*
X029790Y023426D01*
X029828Y023468D01*
X029810Y023415D02*
X029790Y023415D01*
X029790Y023316D02*
X029810Y023316D01*
X018374Y020245D02*
X018374Y020170D01*
X018374Y020245D01*
X018374Y020245D01*
X018374Y020245D01*
X018367Y020164D02*
X018381Y020164D01*
X018367Y020066D02*
X018381Y020066D01*
X018367Y019967D02*
X018381Y019967D01*
X018381Y019869D02*
X018345Y019869D01*
X018314Y019770D02*
X018381Y019770D01*
X018381Y019672D02*
X018234Y019672D01*
X018381Y019573D02*
X017790Y019573D01*
X017750Y019672D02*
X017885Y019672D01*
X017837Y019475D02*
X018381Y019475D01*
X018381Y019376D02*
X017845Y019376D01*
X017817Y019278D02*
X018381Y019278D01*
X018392Y019179D02*
X017742Y019179D01*
X018108Y018687D02*
X018411Y018687D01*
X018316Y018588D02*
X018203Y018588D01*
X018244Y018490D02*
X018275Y018490D01*
X016411Y018687D02*
X016108Y018687D01*
X016203Y018588D02*
X016326Y018588D01*
X016274Y018490D02*
X016244Y018490D01*
X011125Y020066D02*
X011025Y020066D01*
X011025Y020164D02*
X011125Y020164D01*
X011125Y020263D02*
X011025Y020263D01*
X010782Y021543D02*
X010644Y021543D01*
X010670Y021642D02*
X010780Y021642D01*
X010768Y021740D02*
X010780Y021740D01*
X010109Y021740D02*
X007950Y021740D01*
X007950Y021642D02*
X010075Y021642D01*
X010075Y021543D02*
X010118Y021439D01*
X010228Y021346D02*
X007950Y021346D01*
X007570Y020952D02*
X004390Y020952D01*
X004390Y020854D02*
X007570Y020854D01*
X007570Y020755D02*
X004390Y020755D01*
X004390Y020657D02*
X007570Y020657D01*
X007570Y020558D02*
X005268Y020558D01*
X005265Y020563D02*
X005237Y020591D01*
X005203Y020611D01*
X005165Y020621D01*
X004821Y020621D01*
X004821Y020246D01*
X005295Y020246D01*
X005295Y020491D01*
X005285Y020529D01*
X005265Y020563D01*
X005295Y020460D02*
X007570Y020460D01*
X007570Y020361D02*
X005295Y020361D01*
X005295Y020263D02*
X007570Y020263D01*
X007570Y020164D02*
X004821Y020164D01*
X004821Y020146D02*
X005295Y020146D01*
X005295Y019900D01*
X005285Y019862D01*
X005265Y019828D01*
X005237Y019800D01*
X005203Y019780D01*
X005165Y019770D01*
X004821Y019770D01*
X004821Y020146D01*
X004821Y020066D02*
X004721Y020066D01*
X004721Y019967D02*
X004821Y019967D01*
X004821Y019869D02*
X004721Y019869D01*
X004390Y019573D02*
X007096Y019573D01*
X007096Y019503D02*
X006596Y019503D01*
X006596Y019233D01*
X006606Y019195D01*
X006626Y019161D01*
X006654Y019133D01*
X006688Y019113D01*
X006726Y019103D01*
X007096Y019103D01*
X007096Y019503D01*
X007096Y019475D02*
X007196Y019475D01*
X007196Y019376D02*
X007096Y019376D01*
X007096Y019278D02*
X007196Y019278D01*
X007196Y019179D02*
X007096Y019179D01*
X006947Y018785D02*
X007570Y018785D01*
X007570Y018884D02*
X004390Y018884D01*
X004390Y018982D02*
X007570Y018982D01*
X007570Y019081D02*
X004390Y019081D01*
X004390Y019179D02*
X006615Y019179D01*
X006596Y019278D02*
X004390Y019278D01*
X004390Y019376D02*
X006596Y019376D01*
X006596Y019475D02*
X004390Y019475D01*
X004390Y018785D02*
X004569Y018785D01*
X004710Y018785D02*
X004810Y018785D01*
X004810Y018687D02*
X004710Y018687D01*
X004710Y018588D02*
X004810Y018588D01*
X004810Y018490D02*
X004710Y018490D01*
X004710Y018391D02*
X004810Y018391D01*
X004950Y018785D02*
X005572Y018785D01*
X005411Y018687D02*
X005108Y018687D01*
X005193Y018588D02*
X005316Y018588D01*
X005275Y018490D02*
X005245Y018490D01*
X005947Y018785D02*
X006572Y018785D01*
X006411Y018687D02*
X006108Y018687D01*
X006203Y018588D02*
X006316Y018588D01*
X006275Y018490D02*
X006244Y018490D01*
X007108Y018687D02*
X007411Y018687D01*
X007316Y018588D02*
X007203Y018588D01*
X007244Y018490D02*
X007275Y018490D01*
X008108Y018687D02*
X008411Y018687D01*
X008316Y018588D02*
X008203Y018588D01*
X008244Y018490D02*
X008275Y018490D01*
X007196Y019672D02*
X007096Y019672D01*
X007096Y019770D02*
X007196Y019770D01*
X007196Y019869D02*
X007096Y019869D01*
X007096Y019967D02*
X007196Y019967D01*
X007570Y020066D02*
X005295Y020066D01*
X005295Y019967D02*
X006648Y019967D01*
X006596Y019869D02*
X005287Y019869D01*
X004821Y020263D02*
X004721Y020263D01*
X004721Y020361D02*
X004821Y020361D01*
X004821Y020460D02*
X004721Y020460D01*
X004721Y020558D02*
X004821Y020558D01*
X004411Y018687D02*
X004390Y018687D01*
X005482Y023119D02*
X005763Y023119D01*
X005763Y023415D02*
X005643Y023415D01*
X005741Y023513D02*
X005763Y023513D01*
D13*
X005165Y025373D03*
X004771Y020196D03*
D14*
X010342Y022499D03*
X010342Y024743D03*
D15*
X006287Y024629D03*
X006287Y025062D03*
X006208Y024196D03*
X006287Y023763D03*
X006208Y023330D03*
X006287Y022896D03*
X006444Y022463D03*
X006287Y022030D03*
D16*
X006760Y018300D03*
X007760Y018300D03*
X008760Y018300D03*
X009760Y018300D03*
X010760Y018300D03*
X011760Y018300D03*
X012760Y018300D03*
X013760Y018300D03*
X014760Y018300D03*
X015760Y018300D03*
X016760Y018300D03*
X017760Y018300D03*
X018760Y018300D03*
X019760Y018300D03*
X020760Y018300D03*
X021760Y018300D03*
X022760Y018300D03*
X023760Y018300D03*
X024760Y018300D03*
X025760Y018300D03*
X026760Y018300D03*
X027760Y018300D03*
X028760Y018300D03*
X029760Y018300D03*
X030760Y018300D03*
X031760Y018300D03*
X030760Y027300D03*
X029760Y027300D03*
X028760Y027300D03*
X027760Y027300D03*
X026760Y027300D03*
X025760Y027300D03*
X024760Y027300D03*
X023760Y027300D03*
X022760Y027300D03*
X021760Y027300D03*
X020760Y027300D03*
X019760Y027300D03*
X018760Y027300D03*
X017760Y027300D03*
X016760Y027300D03*
X015760Y027300D03*
X014760Y027300D03*
X013760Y027300D03*
X012760Y027300D03*
X011760Y027300D03*
X010760Y027300D03*
X009760Y027300D03*
X008760Y027300D03*
X007760Y027300D03*
X006760Y027300D03*
X005760Y027300D03*
X004760Y027300D03*
X004760Y018300D03*
X005760Y018300D03*
D17*
X031760Y027300D03*
D18*
X024260Y026050D03*
X024260Y025050D03*
D19*
X025980Y024610D03*
X025980Y023430D03*
D20*
X026080Y024020D03*
D21*
X026835Y024020D02*
X027425Y024020D01*
D22*
X027360Y022453D03*
X026660Y022453D03*
X026660Y021547D03*
X027360Y021547D03*
D23*
X021504Y021520D03*
X021504Y021324D03*
X021504Y021717D03*
X021504Y021914D03*
X021504Y022111D03*
X021504Y022308D03*
X021504Y022505D03*
X021504Y022702D03*
X021504Y022898D03*
X021504Y023095D03*
X021504Y023292D03*
X021504Y023489D03*
X021504Y023686D03*
X021504Y023883D03*
X021504Y024080D03*
X021504Y024276D03*
X017015Y024276D03*
X017015Y024080D03*
X017015Y023883D03*
X017015Y023686D03*
X017015Y023489D03*
X017015Y023292D03*
X017015Y023095D03*
X017015Y022898D03*
X017015Y022702D03*
X017015Y022505D03*
X017015Y022308D03*
X017015Y022111D03*
X017015Y021914D03*
X017015Y021717D03*
X017015Y021520D03*
X017015Y021324D03*
D24*
X017783Y020556D03*
X017980Y020556D03*
X018177Y020556D03*
X018374Y020556D03*
X018571Y020556D03*
X018767Y020556D03*
X018964Y020556D03*
X019161Y020556D03*
X019358Y020556D03*
X019555Y020556D03*
X019752Y020556D03*
X019948Y020556D03*
X020145Y020556D03*
X020342Y020556D03*
X020539Y020556D03*
X020736Y020556D03*
X020736Y025044D03*
X020539Y025044D03*
X020342Y025044D03*
X020145Y025044D03*
X019948Y025044D03*
X019752Y025044D03*
X019555Y025044D03*
X019358Y025044D03*
X019161Y025044D03*
X018964Y025044D03*
X018767Y025044D03*
X018571Y025044D03*
X018374Y025044D03*
X018177Y025044D03*
X017980Y025044D03*
X017783Y025044D03*
D25*
X015173Y024162D02*
X014947Y024162D01*
X014947Y024438D01*
X015173Y024438D01*
X015173Y024162D01*
X015173Y024236D02*
X014947Y024236D01*
X014947Y024310D02*
X015173Y024310D01*
X015173Y024384D02*
X014947Y024384D01*
X014573Y024162D02*
X014347Y024162D01*
X014347Y024438D01*
X014573Y024438D01*
X014573Y024162D01*
X014573Y024236D02*
X014347Y024236D01*
X014347Y024310D02*
X014573Y024310D01*
X014573Y024384D02*
X014347Y024384D01*
X014347Y020592D02*
X014573Y020592D01*
X014347Y020592D02*
X014347Y020868D01*
X014573Y020868D01*
X014573Y020592D01*
X014573Y020666D02*
X014347Y020666D01*
X014347Y020740D02*
X014573Y020740D01*
X014573Y020814D02*
X014347Y020814D01*
X014947Y020592D02*
X015173Y020592D01*
X014947Y020592D02*
X014947Y020868D01*
X015173Y020868D01*
X015173Y020592D01*
X015173Y020666D02*
X014947Y020666D01*
X014947Y020740D02*
X015173Y020740D01*
X015173Y020814D02*
X014947Y020814D01*
D26*
X030260Y022298D03*
X030260Y022554D03*
X030260Y022810D03*
X030260Y023066D03*
X030260Y023322D03*
D27*
X031620Y023420D02*
X031620Y023000D01*
X031200Y023000D01*
X031200Y023420D01*
X031620Y023420D01*
X031620Y023179D02*
X031200Y023179D01*
X031200Y023358D02*
X031620Y023358D01*
X031620Y022620D02*
X031620Y022200D01*
X031200Y022200D01*
X031200Y022620D01*
X031620Y022620D01*
X031620Y022379D02*
X031200Y022379D01*
X031200Y022558D02*
X031620Y022558D01*
D28*
X031410Y021255D03*
X031410Y024365D03*
D29*
X022373Y020574D03*
X021546Y020574D03*
X021546Y019826D03*
X022373Y019826D03*
D30*
X013274Y019493D03*
X012645Y019493D03*
X012645Y021107D03*
X013274Y021107D03*
X013274Y024343D03*
X012645Y024343D03*
X012645Y025957D03*
X013274Y025957D03*
D31*
X028020Y022417D03*
X028020Y022063D03*
D32*
X011230Y022191D03*
X011230Y022624D03*
X011230Y023057D03*
X011230Y023490D03*
X011230Y023923D03*
X011230Y024356D03*
X011230Y024789D03*
X011230Y025222D03*
X011230Y021758D03*
D33*
X010993Y025752D03*
D34*
X007146Y025616D03*
X007146Y019553D03*
D35*
X011075Y019875D03*
D36*
X024920Y023300D02*
X025049Y023430D01*
X025260Y023430D01*
X025260Y022650D01*
X025260Y023430D02*
X025980Y023430D01*
X025980Y024610D02*
X025050Y024610D01*
X028020Y022063D02*
X028020Y021587D01*
X028060Y021547D01*
X029067Y021547D01*
X029060Y021550D02*
X029808Y022298D01*
X030260Y022298D01*
X028060Y021547D02*
X027360Y021547D01*
X026660Y021547D02*
X026660Y020300D01*
X030760Y025300D02*
X031260Y025300D01*
X031760Y025800D01*
X031760Y027300D01*
D37*
X030060Y026300D02*
X030060Y024000D01*
X029600Y023500D01*
X029600Y023492D01*
X029557Y023535D01*
X029362Y023535D01*
X029225Y023397D01*
X029225Y023203D01*
X029362Y023065D01*
X029497Y023065D01*
X029522Y023040D01*
X029402Y023040D01*
X029297Y022935D01*
X029162Y022935D01*
X029025Y022797D01*
X029025Y022603D01*
X029162Y022465D01*
X029357Y022465D01*
X029425Y022533D01*
X029425Y022503D01*
X029562Y022365D01*
X029600Y022365D01*
X029600Y022345D01*
X029575Y022320D01*
X028410Y022320D01*
X028410Y022395D01*
X028042Y022395D01*
X028042Y022440D01*
X027997Y022440D01*
X027997Y022682D01*
X027751Y022682D01*
X027715Y022673D01*
X027684Y022654D01*
X027657Y022628D01*
X027655Y022624D01*
X027653Y022631D01*
X027635Y022663D01*
X027609Y022689D01*
X027577Y022707D01*
X027541Y022717D01*
X027382Y022717D01*
X027382Y022475D01*
X027630Y022475D01*
X027630Y022440D01*
X027997Y022440D01*
X027997Y022395D01*
X027663Y022395D01*
X027663Y022431D01*
X027382Y022431D01*
X027382Y022475D01*
X027338Y022475D01*
X027338Y022717D01*
X027178Y022717D01*
X027142Y022707D01*
X027110Y022689D01*
X027084Y022663D01*
X027066Y022631D01*
X027056Y022595D01*
X027056Y022475D01*
X027337Y022475D01*
X027337Y022431D01*
X027056Y022431D01*
X027056Y022320D01*
X026963Y022320D01*
X026963Y022431D01*
X026682Y022431D01*
X026682Y022475D01*
X026963Y022475D01*
X026963Y022595D01*
X026953Y022631D01*
X026935Y022663D01*
X026909Y022689D01*
X026877Y022707D01*
X026841Y022717D01*
X026682Y022717D01*
X026682Y022475D01*
X026638Y022475D01*
X026638Y022717D01*
X026478Y022717D01*
X026442Y022707D01*
X026410Y022689D01*
X026384Y022663D01*
X026366Y022631D01*
X026356Y022595D01*
X026356Y022475D01*
X026637Y022475D01*
X026637Y022431D01*
X026356Y022431D01*
X026356Y022320D01*
X026261Y022320D01*
X026264Y022322D01*
X026298Y022356D01*
X026322Y022398D01*
X026335Y022445D01*
X026335Y022560D01*
X026060Y022560D01*
X026060Y022640D01*
X026335Y022640D01*
X026335Y022755D01*
X026322Y022802D01*
X026298Y022844D01*
X026264Y022878D01*
X026222Y022902D01*
X026175Y022915D01*
X026060Y022915D01*
X026060Y022640D01*
X025980Y022640D01*
X025980Y022915D01*
X025864Y022915D01*
X025817Y022902D01*
X025775Y022878D01*
X025741Y022844D01*
X025717Y022802D01*
X025705Y022755D01*
X025705Y022640D01*
X025980Y022640D01*
X025980Y022560D01*
X025705Y022560D01*
X025705Y022445D01*
X025717Y022398D01*
X025741Y022356D01*
X025775Y022322D01*
X025778Y022320D01*
X025260Y022320D01*
X025260Y022350D01*
X025547Y022350D01*
X025635Y022438D01*
X025635Y022862D01*
X025547Y022950D01*
X025440Y022950D01*
X025440Y023250D01*
X025584Y023250D01*
X025584Y023192D01*
X025643Y023133D01*
X026316Y023133D01*
X026375Y023192D01*
X026375Y023668D01*
X026360Y023683D01*
X026371Y023683D01*
X026397Y023647D01*
X026461Y023583D01*
X026534Y023530D01*
X026614Y023489D01*
X026700Y023461D01*
X026789Y023447D01*
X027090Y023447D01*
X027090Y023980D01*
X027170Y023980D01*
X027170Y024060D01*
X027998Y024060D01*
X027998Y024065D01*
X027984Y024154D01*
X027956Y024240D01*
X027915Y024320D01*
X027862Y024393D01*
X027798Y024457D01*
X027725Y024510D01*
X027645Y024551D01*
X030060Y024551D01*
X030060Y024473D02*
X027777Y024473D01*
X027861Y024394D02*
X030060Y024394D01*
X030060Y024316D02*
X027917Y024316D01*
X027957Y024237D02*
X030060Y024237D01*
X030060Y024159D02*
X027982Y024159D01*
X027996Y024080D02*
X030060Y024080D01*
X030060Y024002D02*
X027170Y024002D01*
X027170Y023980D02*
X027998Y023980D01*
X027998Y023975D01*
X027984Y023886D01*
X027956Y023800D01*
X027915Y023720D01*
X027862Y023647D01*
X027798Y023583D01*
X027725Y023530D01*
X027645Y023489D01*
X027559Y023461D01*
X027470Y023447D01*
X027170Y023447D01*
X027170Y023980D01*
X027170Y023923D02*
X027090Y023923D01*
X027090Y023980D02*
X026613Y023980D01*
X026120Y023980D01*
X026120Y024060D01*
X027090Y024060D01*
X027090Y024593D01*
X026789Y024593D01*
X026700Y024579D01*
X026614Y024551D01*
X026375Y024551D01*
X026375Y024473D02*
X026482Y024473D01*
X026461Y024457D02*
X026397Y024393D01*
X026371Y024357D01*
X026360Y024357D01*
X026375Y024372D01*
X026375Y024848D01*
X026316Y024907D01*
X025643Y024907D01*
X025584Y024848D01*
X025584Y024790D01*
X025260Y024790D01*
X025260Y026300D01*
X030060Y026300D01*
X030060Y026278D02*
X025260Y026278D01*
X025260Y026200D02*
X028517Y026200D01*
X028490Y026172D02*
X028490Y026110D01*
X027627Y026110D01*
X027540Y026022D01*
X027540Y025272D01*
X027540Y025148D01*
X027627Y025060D01*
X028752Y025060D01*
X028840Y025148D01*
X028840Y026172D01*
X028752Y026260D01*
X028577Y026260D01*
X028490Y026172D01*
X028490Y026121D02*
X025260Y026121D01*
X025260Y026043D02*
X027560Y026043D01*
X027540Y025964D02*
X025260Y025964D01*
X025260Y025886D02*
X027540Y025886D01*
X027540Y025807D02*
X025260Y025807D01*
X025260Y025729D02*
X027540Y025729D01*
X027540Y025650D02*
X025260Y025650D01*
X025260Y025572D02*
X027540Y025572D01*
X027540Y025493D02*
X025260Y025493D01*
X025260Y025415D02*
X027540Y025415D01*
X027540Y025336D02*
X025260Y025336D01*
X025260Y025258D02*
X027540Y025258D01*
X027540Y025179D02*
X025260Y025179D01*
X025260Y025101D02*
X027587Y025101D01*
X027470Y024593D02*
X027170Y024593D01*
X027170Y024060D01*
X027090Y024060D01*
X027090Y023980D01*
X027090Y024002D02*
X026120Y024002D01*
X026040Y024002D02*
X025260Y024002D01*
X025260Y024080D02*
X025546Y024080D01*
X025546Y024060D02*
X025546Y024235D01*
X025555Y024271D01*
X025574Y024303D01*
X025600Y024329D01*
X025617Y024339D01*
X025584Y024372D01*
X025584Y024430D01*
X025260Y024430D01*
X025260Y023610D01*
X025584Y023610D01*
X025584Y023668D01*
X025617Y023701D01*
X025600Y023711D01*
X025574Y023737D01*
X025555Y023769D01*
X025546Y023805D01*
X025546Y023980D01*
X026040Y023980D01*
X026040Y024060D01*
X025546Y024060D01*
X025546Y024159D02*
X025260Y024159D01*
X025260Y024237D02*
X025546Y024237D01*
X025587Y024316D02*
X025260Y024316D01*
X025260Y024394D02*
X025584Y024394D01*
X025546Y023923D02*
X025260Y023923D01*
X025260Y023845D02*
X025546Y023845D01*
X025557Y023766D02*
X025260Y023766D01*
X025260Y023688D02*
X025604Y023688D01*
X025584Y023217D02*
X025440Y023217D01*
X025440Y023138D02*
X025638Y023138D01*
X025440Y023060D02*
X029502Y023060D01*
X029460Y022900D02*
X029260Y022700D01*
X029402Y022510D02*
X029425Y022510D01*
X029496Y022432D02*
X028042Y022432D01*
X028042Y022440D02*
X028410Y022440D01*
X028410Y022561D01*
X028400Y022596D01*
X028382Y022628D01*
X028355Y022654D01*
X028324Y022673D01*
X028288Y022682D01*
X028042Y022682D01*
X028042Y022440D01*
X027997Y022432D02*
X027382Y022432D01*
X027337Y022432D02*
X026682Y022432D01*
X026637Y022432D02*
X026331Y022432D01*
X026335Y022510D02*
X026356Y022510D01*
X026356Y022589D02*
X026060Y022589D01*
X026060Y022667D02*
X025980Y022667D01*
X025980Y022589D02*
X025635Y022589D01*
X025635Y022667D02*
X025705Y022667D01*
X025705Y022746D02*
X025635Y022746D01*
X025635Y022824D02*
X025730Y022824D01*
X025817Y022903D02*
X025594Y022903D01*
X025440Y022981D02*
X029343Y022981D01*
X029460Y022900D02*
X029760Y022900D01*
X029850Y022810D01*
X030260Y022810D01*
X030260Y022554D02*
X029705Y022554D01*
X029660Y022600D01*
X029600Y022353D02*
X028410Y022353D01*
X028410Y022510D02*
X029117Y022510D01*
X029039Y022589D02*
X028402Y022589D01*
X028333Y022667D02*
X029025Y022667D01*
X029025Y022746D02*
X026335Y022746D01*
X026335Y022667D02*
X026388Y022667D01*
X026309Y022824D02*
X029051Y022824D01*
X029130Y022903D02*
X026222Y022903D01*
X026060Y022903D02*
X025980Y022903D01*
X025980Y022824D02*
X026060Y022824D01*
X026060Y022746D02*
X025980Y022746D01*
X025705Y022510D02*
X025635Y022510D01*
X025628Y022432D02*
X025708Y022432D01*
X025744Y022353D02*
X025550Y022353D01*
X026295Y022353D02*
X026356Y022353D01*
X026638Y022510D02*
X026682Y022510D01*
X026682Y022589D02*
X026638Y022589D01*
X026638Y022667D02*
X026682Y022667D01*
X026931Y022667D02*
X027088Y022667D01*
X027056Y022589D02*
X026963Y022589D01*
X026963Y022510D02*
X027056Y022510D01*
X027056Y022353D02*
X026963Y022353D01*
X027338Y022510D02*
X027382Y022510D01*
X027382Y022589D02*
X027338Y022589D01*
X027338Y022667D02*
X027382Y022667D01*
X027631Y022667D02*
X027706Y022667D01*
X027997Y022667D02*
X028042Y022667D01*
X028042Y022589D02*
X027997Y022589D01*
X027997Y022510D02*
X028042Y022510D01*
X029225Y023217D02*
X026375Y023217D01*
X026375Y023295D02*
X029225Y023295D01*
X029225Y023374D02*
X026375Y023374D01*
X026375Y023452D02*
X026757Y023452D01*
X026533Y023531D02*
X026375Y023531D01*
X026375Y023609D02*
X026435Y023609D01*
X026321Y023138D02*
X029289Y023138D01*
X029460Y023300D02*
X029694Y023066D01*
X030260Y023066D01*
X029700Y023609D02*
X027824Y023609D01*
X027892Y023688D02*
X029772Y023688D01*
X029844Y023766D02*
X027939Y023766D01*
X027970Y023845D02*
X029916Y023845D01*
X029989Y023923D02*
X027990Y023923D01*
X027726Y023531D02*
X029358Y023531D01*
X029279Y023452D02*
X027502Y023452D01*
X027170Y023452D02*
X027090Y023452D01*
X027090Y023531D02*
X027170Y023531D01*
X027170Y023609D02*
X027090Y023609D01*
X027090Y023688D02*
X027170Y023688D01*
X027170Y023766D02*
X027090Y023766D01*
X027090Y023845D02*
X027170Y023845D01*
X027170Y024080D02*
X027090Y024080D01*
X027090Y024159D02*
X027170Y024159D01*
X027170Y024237D02*
X027090Y024237D01*
X027090Y024316D02*
X027170Y024316D01*
X027170Y024394D02*
X027090Y024394D01*
X027090Y024473D02*
X027170Y024473D01*
X027170Y024551D02*
X027090Y024551D01*
X027470Y024593D02*
X027559Y024579D01*
X027645Y024551D01*
X026614Y024551D02*
X026534Y024510D01*
X026461Y024457D01*
X026398Y024394D02*
X026375Y024394D01*
X026375Y024630D02*
X030060Y024630D01*
X030060Y024708D02*
X026375Y024708D01*
X026375Y024787D02*
X030060Y024787D01*
X030060Y024865D02*
X026358Y024865D01*
X025601Y024865D02*
X025260Y024865D01*
X025260Y024944D02*
X030060Y024944D01*
X030060Y025022D02*
X025260Y025022D01*
X024710Y024850D02*
X024710Y025600D01*
X024260Y026050D01*
X023960Y026050D01*
X023860Y025950D01*
X023560Y025950D01*
X023560Y025050D02*
X024260Y025050D01*
X024460Y024600D02*
X024710Y024850D01*
X024460Y024600D02*
X023710Y024600D01*
X023560Y024450D01*
X022960Y024450D01*
X022589Y024080D01*
X021504Y024080D01*
X021504Y024276D02*
X022536Y024276D01*
X022910Y024650D01*
X023510Y024650D01*
X023560Y024700D01*
X023560Y025050D01*
X021504Y023883D02*
X021207Y023883D01*
X021000Y024090D01*
X020960Y024090D01*
X020260Y024000D02*
X020260Y023700D01*
X019860Y023300D01*
X019860Y022200D01*
X020260Y021800D01*
X020860Y021800D01*
X021110Y022050D01*
X021110Y022200D01*
X021217Y022308D01*
X021504Y022308D01*
X022860Y022308D01*
X022860Y022600D01*
X022860Y022308D02*
X023687Y022308D01*
X023970Y022590D01*
X023460Y022600D02*
X023460Y023100D01*
X023880Y023100D01*
X022460Y023400D02*
X022352Y023292D01*
X021504Y023292D01*
X021504Y023095D02*
X020755Y023095D01*
X020460Y022800D01*
X020460Y022400D01*
X020560Y022300D01*
X021090Y021720D02*
X021092Y021717D01*
X021504Y021717D01*
X021504Y021520D02*
X022639Y021520D01*
X022660Y021500D01*
X022660Y021200D01*
X022760Y021100D01*
X023050Y021100D01*
X023090Y021060D01*
X022660Y021500D02*
X022660Y021600D01*
X022780Y021720D01*
X023160Y021720D01*
X022760Y022000D02*
X022648Y022111D01*
X021504Y022111D01*
X021504Y021914D02*
X022135Y021914D01*
X022260Y021790D01*
X021966Y021324D02*
X022050Y021240D01*
X021966Y021324D02*
X021504Y021324D01*
X020560Y021500D02*
X020260Y021500D01*
X019660Y022100D01*
X019660Y023500D01*
X019920Y023760D01*
X019920Y023780D01*
X019550Y024340D02*
X019747Y024538D01*
X019752Y024538D01*
X019752Y025044D01*
X019948Y025044D02*
X019948Y025871D01*
X019030Y026790D01*
X018540Y026790D01*
X018030Y027300D01*
X017760Y027300D01*
X018760Y027300D02*
X020145Y025914D01*
X020145Y025044D01*
X020342Y025044D02*
X020342Y026717D01*
X019760Y027300D01*
X020539Y027080D02*
X020539Y025044D01*
X020736Y025044D02*
X020736Y026276D01*
X021760Y027300D01*
X020760Y027300D02*
X020539Y027080D01*
X019660Y025800D02*
X018840Y026620D01*
X018460Y026620D01*
X018280Y026800D01*
X017260Y026800D01*
X016760Y027300D01*
X017020Y026760D02*
X015300Y026760D01*
X014760Y027300D01*
X014340Y026960D02*
X014100Y026960D01*
X013760Y027300D01*
X014340Y026960D02*
X014540Y026760D01*
X015060Y026760D01*
X015220Y026600D01*
X016940Y026600D01*
X017060Y026480D01*
X018070Y026480D01*
X018310Y026240D01*
X018610Y026240D01*
X019161Y025688D01*
X019161Y025044D01*
X018964Y025044D02*
X018964Y025625D01*
X018510Y026080D01*
X018230Y026080D01*
X017990Y026320D01*
X016980Y026320D01*
X016860Y026440D01*
X015140Y026440D01*
X014980Y026600D01*
X014460Y026600D01*
X014300Y026760D01*
X013300Y026760D01*
X012760Y027300D01*
X013060Y026760D02*
X011300Y026760D01*
X010760Y027300D01*
X010300Y026760D02*
X009760Y027300D01*
X010020Y026760D02*
X009300Y026760D01*
X008760Y027300D01*
X010020Y026760D02*
X010180Y026600D01*
X010940Y026600D01*
X011100Y026440D01*
X012900Y026440D01*
X013060Y026280D01*
X014060Y026280D01*
X014220Y026120D01*
X014740Y026120D01*
X014900Y025960D01*
X016620Y025960D01*
X016740Y025840D01*
X017540Y025840D01*
X017783Y025596D01*
X017783Y025044D01*
X017980Y025044D02*
X017980Y025740D01*
X017720Y026000D01*
X016820Y026000D01*
X016700Y026120D01*
X014980Y026120D01*
X014820Y026280D01*
X014300Y026280D01*
X014140Y026440D01*
X013140Y026440D01*
X012980Y026600D01*
X011220Y026600D01*
X011060Y026760D01*
X010300Y026760D01*
X008240Y025560D02*
X008240Y024900D01*
X007650Y024310D01*
X008470Y023490D01*
X011230Y023490D01*
X011230Y023057D02*
X010703Y023057D01*
X010560Y023200D01*
X011230Y022624D02*
X011783Y022624D01*
X011960Y022800D01*
X012160Y022200D02*
X012660Y022200D01*
X013260Y022200D02*
X013260Y022700D01*
X013660Y022700D01*
X013960Y023000D01*
X014450Y023000D01*
X014460Y023010D01*
X015060Y023010D02*
X015070Y023000D01*
X015360Y023000D01*
X015660Y022700D01*
X015660Y022600D01*
X015860Y022400D01*
X016060Y022400D01*
X016361Y022702D01*
X017015Y022702D01*
X017561Y022702D01*
X017660Y022800D01*
X017445Y023095D02*
X017450Y023100D01*
X017445Y023095D02*
X017015Y023095D01*
X016155Y023095D01*
X016150Y023090D01*
X016128Y022898D02*
X015950Y022720D01*
X016128Y022898D02*
X017015Y022898D01*
X017015Y022505D02*
X016504Y022505D01*
X015970Y021970D01*
X015550Y022260D02*
X015460Y022170D01*
X015060Y022170D01*
X015060Y021870D01*
X015060Y021300D01*
X014460Y021300D02*
X014460Y020730D01*
X013274Y021107D02*
X013274Y022185D01*
X013260Y022200D01*
X014030Y021870D02*
X014460Y021870D01*
X015060Y022170D02*
X015060Y022440D01*
X015797Y023292D02*
X015690Y023400D01*
X015797Y023292D02*
X017015Y023292D01*
X017015Y023489D02*
X016001Y023489D01*
X015690Y023800D01*
X016194Y023686D02*
X017015Y023686D01*
X017015Y023883D02*
X016237Y023883D01*
X015200Y024920D01*
X015080Y024920D01*
X014780Y025220D01*
X014340Y025120D02*
X014340Y025080D01*
X014340Y025120D02*
X014700Y024760D01*
X015120Y024760D01*
X016194Y023686D01*
X015060Y023730D02*
X015060Y024300D01*
X014460Y024300D02*
X014060Y024300D01*
X013860Y024800D02*
X013360Y024800D01*
X012860Y024800D01*
X012660Y024600D01*
X012660Y024358D01*
X012645Y024343D01*
X011860Y024400D02*
X011816Y024356D01*
X011230Y024356D01*
X013060Y025100D02*
X013360Y025100D01*
X013660Y025400D01*
X013860Y025400D01*
X014380Y026440D02*
X014900Y026440D01*
X015060Y026280D01*
X016780Y026280D01*
X016900Y026160D01*
X017900Y026160D01*
X018177Y025883D01*
X018177Y025044D01*
X018374Y025044D02*
X018374Y025504D01*
X018530Y025660D01*
X018690Y026400D02*
X019358Y025732D01*
X019358Y025044D01*
X019555Y025044D02*
X019555Y024665D01*
X019550Y024660D01*
X019220Y024660D01*
X018767Y024668D02*
X018767Y025044D01*
X018571Y025044D02*
X018571Y024661D01*
X018460Y024550D01*
X018760Y024660D02*
X018767Y024668D01*
X017700Y024200D02*
X017660Y024200D01*
X017583Y024276D01*
X017015Y024276D01*
X017015Y024080D02*
X017340Y024080D01*
X017620Y023800D01*
X018560Y023100D02*
X017910Y022450D01*
X017550Y022450D01*
X017407Y022308D01*
X017015Y022308D01*
X017015Y022111D02*
X017621Y022111D01*
X017620Y022110D01*
X017621Y022111D02*
X017700Y022190D01*
X017500Y021900D02*
X017980Y021900D01*
X018080Y022000D01*
X017930Y021710D02*
X017550Y021710D01*
X017360Y021520D01*
X017015Y021520D01*
X017015Y021324D02*
X017543Y021324D01*
X017640Y021420D01*
X017930Y021710D02*
X018020Y021620D01*
X017500Y021900D02*
X017317Y021717D01*
X017015Y021717D01*
X017015Y021914D02*
X016694Y021914D01*
X016420Y021640D01*
X016420Y021560D01*
X017783Y020556D02*
X017783Y020204D01*
X017640Y020060D01*
X017410Y020060D01*
X017560Y019770D02*
X017980Y020190D01*
X017980Y020556D01*
X018177Y020556D02*
X018177Y020017D01*
X018060Y019900D01*
X018360Y020170D02*
X018374Y020184D01*
X018374Y020556D01*
X018374Y020924D01*
X018380Y020930D01*
X018571Y020556D02*
X018571Y019269D01*
X019180Y018660D01*
X019410Y018660D01*
X019760Y018310D01*
X019760Y018300D01*
X020220Y018840D02*
X019280Y018840D01*
X018767Y019352D01*
X018767Y020556D01*
X018964Y020556D02*
X018964Y019435D01*
X019400Y019000D01*
X020340Y019000D01*
X020500Y018840D01*
X021220Y018840D01*
X021760Y018300D01*
X021460Y018840D02*
X024220Y018840D01*
X024760Y018300D01*
X024460Y018840D02*
X025220Y018840D01*
X025760Y018300D01*
X025470Y018850D02*
X025300Y019020D01*
X024540Y019020D01*
X024370Y019190D01*
X021600Y019190D01*
X021480Y019310D01*
X020810Y019310D01*
X020342Y019777D01*
X020342Y020556D01*
X020145Y020556D02*
X020145Y019724D01*
X020720Y019150D01*
X021400Y019150D01*
X021550Y019000D01*
X024300Y019000D01*
X024460Y018840D01*
X025470Y018850D02*
X026220Y018850D01*
X026760Y018310D01*
X026760Y018300D01*
X022960Y019800D02*
X022934Y019826D01*
X022373Y019826D01*
X021546Y019826D02*
X021520Y019800D01*
X020860Y019800D01*
X020539Y020120D01*
X020539Y020556D01*
X020736Y020556D02*
X020736Y020324D01*
X020960Y020100D01*
X019948Y019671D02*
X019948Y020556D01*
X019752Y020556D02*
X019752Y019718D01*
X019747Y019718D01*
X019670Y019640D01*
X019948Y019671D02*
X020620Y019000D01*
X021300Y019000D01*
X021460Y018840D01*
X020760Y018300D02*
X020220Y018840D01*
X019270Y019660D02*
X019161Y019768D01*
X019161Y020556D01*
X019358Y020556D02*
X019358Y020982D01*
X019340Y021000D01*
X019555Y020556D02*
X019555Y020105D01*
X019460Y020010D01*
X019555Y020556D02*
X019560Y020556D01*
X017560Y019770D02*
X017560Y019400D01*
X021504Y022505D02*
X022324Y022505D01*
X022410Y022590D01*
X021950Y022730D02*
X021921Y022702D01*
X021504Y022702D01*
X021061Y022702D01*
X021060Y022700D01*
X020958Y022898D02*
X020760Y022700D01*
X020958Y022898D02*
X021504Y022898D01*
X021504Y023489D02*
X021948Y023489D01*
X022060Y023600D01*
X021504Y023686D02*
X020964Y023686D01*
X020960Y023690D01*
X018860Y023100D02*
X018560Y023100D01*
X017220Y025280D02*
X017200Y025300D01*
X016560Y025300D01*
X018150Y026640D02*
X018390Y026400D01*
X018690Y026400D01*
X018150Y026640D02*
X017140Y026640D01*
X017020Y026760D01*
X014380Y026440D02*
X014220Y026600D01*
X013220Y026600D01*
X013060Y026760D01*
X007650Y024310D02*
X007102Y023763D01*
X006287Y023763D01*
X005722Y023763D01*
X005260Y023300D01*
X006208Y023330D02*
X007119Y023330D01*
X007120Y023330D01*
X007756Y022896D02*
X006287Y022896D01*
X006444Y022463D02*
X007096Y022463D01*
X007100Y022460D01*
X007756Y022896D02*
X007760Y022900D01*
X007760Y018300D01*
X008760Y018300D02*
X008760Y020300D01*
X010360Y021600D02*
X010760Y022000D01*
X010760Y022100D01*
X010850Y022191D01*
X011230Y022191D01*
X006287Y024629D02*
X005611Y024629D01*
X028792Y025101D02*
X030060Y025101D01*
X030060Y025179D02*
X028840Y025179D01*
X028840Y025258D02*
X030060Y025258D01*
X030060Y025336D02*
X028840Y025336D01*
X028840Y025415D02*
X030060Y025415D01*
X030060Y025493D02*
X028840Y025493D01*
X028840Y025572D02*
X030060Y025572D01*
X030060Y025650D02*
X028840Y025650D01*
X028840Y025729D02*
X030060Y025729D01*
X030060Y025807D02*
X028840Y025807D01*
X028840Y025886D02*
X030060Y025886D01*
X030060Y025964D02*
X028840Y025964D01*
X028840Y026043D02*
X030060Y026043D01*
X030060Y026121D02*
X028840Y026121D01*
X028812Y026200D02*
X030060Y026200D01*
X029628Y023531D02*
X029561Y023531D01*
D38*
X029460Y023300D03*
X029260Y022700D03*
X029660Y022600D03*
X027960Y023200D03*
X027360Y023200D03*
X026560Y023200D03*
X024920Y023300D03*
X023880Y023100D03*
X023970Y022590D03*
X022760Y022000D03*
X022260Y021790D03*
X022050Y021240D03*
X020560Y021500D03*
X020560Y022300D03*
X020760Y022700D03*
X020960Y023690D03*
X020260Y024000D03*
X019920Y023780D03*
X019550Y024340D03*
X018460Y024550D03*
X017700Y024200D03*
X017620Y023800D03*
X018860Y023100D03*
X017660Y022800D03*
X017700Y022190D03*
X018080Y022000D03*
X018020Y021620D03*
X017640Y021420D03*
X016420Y021560D03*
X015970Y021970D03*
X015550Y022260D03*
X015950Y022720D03*
X015690Y023400D03*
X015690Y023800D03*
X014060Y024300D03*
X014340Y025080D03*
X014780Y025220D03*
X013360Y024800D03*
X013060Y025100D03*
X011860Y024400D03*
X010560Y023200D03*
X011960Y022800D03*
X012160Y022200D03*
X010360Y021600D03*
X008760Y020300D03*
X007100Y022460D03*
X007760Y022900D03*
X007120Y023330D03*
X005260Y023300D03*
X005611Y024629D03*
X008240Y025560D03*
X014030Y021870D03*
X017410Y020060D03*
X018060Y019900D03*
X017560Y019400D03*
X019270Y019660D03*
X019460Y020010D03*
X019670Y019640D03*
X020960Y020100D03*
X022960Y019800D03*
X026660Y020300D03*
X029060Y021550D03*
X028360Y023800D03*
X028360Y024300D03*
X027960Y024800D03*
X027360Y024800D03*
X026560Y024800D03*
X022460Y023400D03*
X022060Y023600D03*
X020960Y024090D03*
X019660Y025800D03*
X018530Y025660D03*
X017220Y025280D03*
X022410Y022590D03*
X030760Y025300D03*
M02*
