G75*
%MOIN*%
%OFA0B0*%
%FSLAX24Y24*%
%IPPOS*%
%LPD*%
%AMOC8*
5,1,8,0,0,1.08239X$1,22.5*
%
%ADD10C,0.0000*%
%ADD11C,0.0098*%
%ADD12C,0.0110*%
%ADD13R,0.0788X0.0591*%
%ADD14R,0.0591X0.0749*%
%ADD15R,0.0631X0.0355*%
%ADD16C,0.0780*%
%ADD17R,0.0780X0.0780*%
%ADD18C,0.0700*%
%ADD19C,0.0906*%
%ADD20R,0.0620X0.0413*%
%ADD21R,0.0367X0.0288*%
%ADD22R,0.0512X0.0158*%
%ADD23R,0.0158X0.0512*%
%ADD24C,0.0085*%
%ADD25R,0.0638X0.0190*%
%ADD26C,0.0192*%
%ADD27R,0.0788X0.0788*%
%ADD28R,0.0394X0.0434*%
%ADD29R,0.0434X0.0394*%
%ADD30R,0.0540X0.0290*%
%ADD31R,0.0640X0.0340*%
%ADD32R,0.0640X0.0440*%
%ADD33R,0.0840X0.0640*%
%ADD34R,0.0640X0.0640*%
%ADD35C,0.0390*%
D10*
X004240Y017780D02*
X004240Y027820D01*
X032280Y027820D01*
X032280Y017780D01*
X004240Y017780D01*
X006763Y021364D02*
X006765Y021390D01*
X006771Y021416D01*
X006780Y021440D01*
X006793Y021463D01*
X006810Y021483D01*
X006829Y021501D01*
X006851Y021516D01*
X006874Y021527D01*
X006899Y021535D01*
X006925Y021539D01*
X006951Y021539D01*
X006977Y021535D01*
X007002Y021527D01*
X007026Y021516D01*
X007047Y021501D01*
X007066Y021483D01*
X007083Y021463D01*
X007096Y021440D01*
X007105Y021416D01*
X007111Y021390D01*
X007113Y021364D01*
X007111Y021338D01*
X007105Y021312D01*
X007096Y021288D01*
X007083Y021265D01*
X007066Y021245D01*
X007047Y021227D01*
X007025Y021212D01*
X007002Y021201D01*
X006977Y021193D01*
X006951Y021189D01*
X006925Y021189D01*
X006899Y021193D01*
X006874Y021201D01*
X006850Y021212D01*
X006829Y021227D01*
X006810Y021245D01*
X006793Y021265D01*
X006780Y021288D01*
X006771Y021312D01*
X006765Y021338D01*
X006763Y021364D01*
X006763Y024514D02*
X006765Y024540D01*
X006771Y024566D01*
X006780Y024590D01*
X006793Y024613D01*
X006810Y024633D01*
X006829Y024651D01*
X006851Y024666D01*
X006874Y024677D01*
X006899Y024685D01*
X006925Y024689D01*
X006951Y024689D01*
X006977Y024685D01*
X007002Y024677D01*
X007026Y024666D01*
X007047Y024651D01*
X007066Y024633D01*
X007083Y024613D01*
X007096Y024590D01*
X007105Y024566D01*
X007111Y024540D01*
X007113Y024514D01*
X007111Y024488D01*
X007105Y024462D01*
X007096Y024438D01*
X007083Y024415D01*
X007066Y024395D01*
X007047Y024377D01*
X007025Y024362D01*
X007002Y024351D01*
X006977Y024343D01*
X006951Y024339D01*
X006925Y024339D01*
X006899Y024343D01*
X006874Y024351D01*
X006850Y024362D01*
X006829Y024377D01*
X006810Y024395D01*
X006793Y024415D01*
X006780Y024438D01*
X006771Y024462D01*
X006765Y024488D01*
X006763Y024514D01*
D11*
X012514Y022846D02*
X012806Y022846D01*
X012806Y022554D01*
X012514Y022554D01*
X012514Y022846D01*
X012514Y022651D02*
X012806Y022651D01*
X012806Y022748D02*
X012514Y022748D01*
X012514Y022845D02*
X012806Y022845D01*
X013114Y022846D02*
X013406Y022846D01*
X013406Y022554D01*
X013114Y022554D01*
X013114Y022846D01*
X013114Y022651D02*
X013406Y022651D01*
X013406Y022748D02*
X013114Y022748D01*
X013114Y022845D02*
X013406Y022845D01*
X013406Y022054D02*
X013114Y022054D01*
X013114Y022346D01*
X013406Y022346D01*
X013406Y022054D01*
X013406Y022151D02*
X013114Y022151D01*
X013114Y022248D02*
X013406Y022248D01*
X013406Y022345D02*
X013114Y022345D01*
X012806Y022054D02*
X012514Y022054D01*
X012514Y022346D01*
X012806Y022346D01*
X012806Y022054D01*
X012806Y022151D02*
X012514Y022151D01*
X012514Y022248D02*
X012806Y022248D01*
X012806Y022345D02*
X012514Y022345D01*
X014314Y022586D02*
X014606Y022586D01*
X014606Y022294D01*
X014314Y022294D01*
X014314Y022586D01*
X014314Y022391D02*
X014606Y022391D01*
X014606Y022488D02*
X014314Y022488D01*
X014314Y022585D02*
X014606Y022585D01*
X014606Y022864D02*
X014314Y022864D01*
X014314Y023156D01*
X014606Y023156D01*
X014606Y022864D01*
X014606Y022961D02*
X014314Y022961D01*
X014314Y023058D02*
X014606Y023058D01*
X014606Y023155D02*
X014314Y023155D01*
X014914Y022864D02*
X015206Y022864D01*
X014914Y022864D02*
X014914Y023156D01*
X015206Y023156D01*
X015206Y022864D01*
X015206Y022961D02*
X014914Y022961D01*
X014914Y023058D02*
X015206Y023058D01*
X015206Y023155D02*
X014914Y023155D01*
X014914Y023876D02*
X015206Y023876D01*
X015206Y023584D01*
X014914Y023584D01*
X014914Y023876D01*
X014914Y023681D02*
X015206Y023681D01*
X015206Y023778D02*
X014914Y023778D01*
X014914Y023875D02*
X015206Y023875D01*
X014606Y023876D02*
X014314Y023876D01*
X014606Y023876D02*
X014606Y023584D01*
X014314Y023584D01*
X014314Y023876D01*
X014314Y023681D02*
X014606Y023681D01*
X014606Y023778D02*
X014314Y023778D01*
X014314Y023875D02*
X014606Y023875D01*
X013714Y024654D02*
X013714Y024946D01*
X014006Y024946D01*
X014006Y024654D01*
X013714Y024654D01*
X013714Y024751D02*
X014006Y024751D01*
X014006Y024848D02*
X013714Y024848D01*
X013714Y024945D02*
X014006Y024945D01*
X013714Y025254D02*
X013714Y025546D01*
X014006Y025546D01*
X014006Y025254D01*
X013714Y025254D01*
X013714Y025351D02*
X014006Y025351D01*
X014006Y025448D02*
X013714Y025448D01*
X013714Y025545D02*
X014006Y025545D01*
X015814Y025446D02*
X016106Y025446D01*
X016106Y025154D01*
X015814Y025154D01*
X015814Y025446D01*
X015814Y025251D02*
X016106Y025251D01*
X016106Y025348D02*
X015814Y025348D01*
X015814Y025445D02*
X016106Y025445D01*
X016414Y025446D02*
X016706Y025446D01*
X016706Y025154D01*
X016414Y025154D01*
X016414Y025446D01*
X016414Y025251D02*
X016706Y025251D01*
X016706Y025348D02*
X016414Y025348D01*
X016414Y025445D02*
X016706Y025445D01*
X015206Y022586D02*
X014914Y022586D01*
X015206Y022586D02*
X015206Y022294D01*
X014914Y022294D01*
X014914Y022586D01*
X014914Y022391D02*
X015206Y022391D01*
X015206Y022488D02*
X014914Y022488D01*
X014914Y022585D02*
X015206Y022585D01*
X015206Y022016D02*
X014914Y022016D01*
X015206Y022016D02*
X015206Y021724D01*
X014914Y021724D01*
X014914Y022016D01*
X014914Y021821D02*
X015206Y021821D01*
X015206Y021918D02*
X014914Y021918D01*
X014914Y022015D02*
X015206Y022015D01*
X014606Y022016D02*
X014314Y022016D01*
X014606Y022016D02*
X014606Y021724D01*
X014314Y021724D01*
X014314Y022016D01*
X014314Y021821D02*
X014606Y021821D01*
X014606Y021918D02*
X014314Y021918D01*
X014314Y022015D02*
X014606Y022015D01*
X014606Y021154D02*
X014314Y021154D01*
X014314Y021446D01*
X014606Y021446D01*
X014606Y021154D01*
X014606Y021251D02*
X014314Y021251D01*
X014314Y021348D02*
X014606Y021348D01*
X014606Y021445D02*
X014314Y021445D01*
X014914Y021154D02*
X015206Y021154D01*
X014914Y021154D02*
X014914Y021446D01*
X015206Y021446D01*
X015206Y021154D01*
X015206Y021251D02*
X014914Y021251D01*
X014914Y021348D02*
X015206Y021348D01*
X015206Y021445D02*
X014914Y021445D01*
X022714Y022454D02*
X023006Y022454D01*
X022714Y022454D02*
X022714Y022746D01*
X023006Y022746D01*
X023006Y022454D01*
X023006Y022551D02*
X022714Y022551D01*
X022714Y022648D02*
X023006Y022648D01*
X023006Y022745D02*
X022714Y022745D01*
X022714Y023246D02*
X023006Y023246D01*
X023006Y022954D01*
X022714Y022954D01*
X022714Y023246D01*
X022714Y023051D02*
X023006Y023051D01*
X023006Y023148D02*
X022714Y023148D01*
X022714Y023245D02*
X023006Y023245D01*
X023314Y023246D02*
X023606Y023246D01*
X023606Y022954D01*
X023314Y022954D01*
X023314Y023246D01*
X023314Y023051D02*
X023606Y023051D01*
X023606Y023148D02*
X023314Y023148D01*
X023314Y023245D02*
X023606Y023245D01*
X023606Y022454D02*
X023314Y022454D01*
X023314Y022746D01*
X023606Y022746D01*
X023606Y022454D01*
X023606Y022551D02*
X023314Y022551D01*
X023314Y022648D02*
X023606Y022648D01*
X023606Y022745D02*
X023314Y022745D01*
X023306Y021574D02*
X023014Y021574D01*
X023014Y021866D01*
X023306Y021866D01*
X023306Y021574D01*
X023306Y021671D02*
X023014Y021671D01*
X023014Y021768D02*
X023306Y021768D01*
X023306Y021865D02*
X023014Y021865D01*
X023614Y021574D02*
X023906Y021574D01*
X023614Y021574D02*
X023614Y021866D01*
X023906Y021866D01*
X023906Y021574D01*
X023906Y021671D02*
X023614Y021671D01*
X023614Y021768D02*
X023906Y021768D01*
X023906Y021865D02*
X023614Y021865D01*
X025874Y021854D02*
X025874Y022146D01*
X026166Y022146D01*
X026166Y021854D01*
X025874Y021854D01*
X025874Y021951D02*
X026166Y021951D01*
X026166Y022048D02*
X025874Y022048D01*
X025874Y022145D02*
X026166Y022145D01*
X025874Y022454D02*
X025874Y022746D01*
X026166Y022746D01*
X026166Y022454D01*
X025874Y022454D01*
X025874Y022551D02*
X026166Y022551D01*
X026166Y022648D02*
X025874Y022648D01*
X025874Y022745D02*
X026166Y022745D01*
X023706Y024904D02*
X023414Y024904D01*
X023414Y025196D01*
X023706Y025196D01*
X023706Y024904D01*
X023706Y025001D02*
X023414Y025001D01*
X023414Y025098D02*
X023706Y025098D01*
X023706Y025195D02*
X023414Y025195D01*
X023106Y024904D02*
X022814Y024904D01*
X022814Y025196D01*
X023106Y025196D01*
X023106Y024904D01*
X023106Y025001D02*
X022814Y025001D01*
X022814Y025098D02*
X023106Y025098D01*
X023106Y025195D02*
X022814Y025195D01*
X022814Y025804D02*
X023106Y025804D01*
X022814Y025804D02*
X022814Y026096D01*
X023106Y026096D01*
X023106Y025804D01*
X023106Y025901D02*
X022814Y025901D01*
X022814Y025998D02*
X023106Y025998D01*
X023106Y026095D02*
X022814Y026095D01*
X023414Y025804D02*
X023706Y025804D01*
X023414Y025804D02*
X023414Y026096D01*
X023706Y026096D01*
X023706Y025804D01*
X023706Y025901D02*
X023414Y025901D01*
X023414Y025998D02*
X023706Y025998D01*
X023706Y026095D02*
X023414Y026095D01*
D12*
X025020Y022815D02*
X025020Y022485D01*
X025020Y022815D02*
X025500Y022815D01*
X025500Y022485D01*
X025020Y022485D01*
X025020Y022594D02*
X025500Y022594D01*
X025500Y022703D02*
X025020Y022703D01*
X025020Y022812D02*
X025500Y022812D01*
X025020Y022115D02*
X025020Y021785D01*
X025020Y022115D02*
X025500Y022115D01*
X025500Y021785D01*
X025020Y021785D01*
X025020Y021894D02*
X025500Y021894D01*
X025500Y022003D02*
X025020Y022003D01*
X025020Y022112D02*
X025500Y022112D01*
X023955Y020820D02*
X023625Y020820D01*
X023625Y021300D01*
X023955Y021300D01*
X023955Y020820D01*
X023955Y020929D02*
X023625Y020929D01*
X023625Y021038D02*
X023955Y021038D01*
X023955Y021147D02*
X023625Y021147D01*
X023625Y021256D02*
X023955Y021256D01*
X023255Y020820D02*
X022925Y020820D01*
X022925Y021300D01*
X023255Y021300D01*
X023255Y020820D01*
X023255Y020929D02*
X022925Y020929D01*
X022925Y021038D02*
X023255Y021038D01*
X023255Y021147D02*
X022925Y021147D01*
X022925Y021256D02*
X023255Y021256D01*
D13*
X004771Y020196D03*
X005165Y025373D03*
D14*
X010342Y024743D03*
X010342Y022499D03*
D15*
X006444Y022463D03*
X006287Y022030D03*
X006287Y022896D03*
X006208Y023330D03*
X006287Y023763D03*
X006208Y024196D03*
X006287Y024629D03*
X006287Y025062D03*
D16*
X006760Y027300D03*
X007760Y027300D03*
X008760Y027300D03*
X009760Y027300D03*
X010760Y027300D03*
X011760Y027300D03*
X012760Y027300D03*
X013760Y027300D03*
X014760Y027300D03*
X015760Y027300D03*
X016760Y027300D03*
X017760Y027300D03*
X018760Y027300D03*
X019760Y027300D03*
X020760Y027300D03*
X021760Y027300D03*
X022760Y027300D03*
X023760Y027300D03*
X024760Y027300D03*
X025760Y027300D03*
X026760Y027300D03*
X027760Y027300D03*
X028760Y027300D03*
X029760Y027300D03*
X030760Y027300D03*
X030760Y018300D03*
X031760Y018300D03*
X029760Y018300D03*
X028760Y018300D03*
X027760Y018300D03*
X026760Y018300D03*
X025760Y018300D03*
X024760Y018300D03*
X023760Y018300D03*
X022760Y018300D03*
X021760Y018300D03*
X020760Y018300D03*
X019760Y018300D03*
X018760Y018300D03*
X017760Y018300D03*
X016760Y018300D03*
X015760Y018300D03*
X014760Y018300D03*
X013760Y018300D03*
X012760Y018300D03*
X011760Y018300D03*
X010760Y018300D03*
X009760Y018300D03*
X008760Y018300D03*
X007760Y018300D03*
X006760Y018300D03*
X005760Y018300D03*
X004760Y018300D03*
X004760Y027300D03*
X005760Y027300D03*
D17*
X031760Y027300D03*
D18*
X024260Y026050D03*
X024260Y025050D03*
D19*
X026835Y024020D02*
X027425Y024020D01*
D20*
X025977Y024020D03*
X025977Y023429D03*
X025977Y024611D03*
D21*
X026660Y022453D03*
X027360Y022453D03*
X027360Y021547D03*
X026660Y021547D03*
D22*
X021504Y021520D03*
X021504Y021324D03*
X021504Y021717D03*
X021504Y021914D03*
X021504Y022111D03*
X021504Y022308D03*
X021504Y022505D03*
X021504Y022702D03*
X021504Y022898D03*
X021504Y023095D03*
X021504Y023292D03*
X021504Y023489D03*
X021504Y023686D03*
X021504Y023883D03*
X021504Y024080D03*
X021504Y024276D03*
X017015Y024276D03*
X017015Y024080D03*
X017015Y023883D03*
X017015Y023686D03*
X017015Y023489D03*
X017015Y023292D03*
X017015Y023095D03*
X017015Y022898D03*
X017015Y022702D03*
X017015Y022505D03*
X017015Y022308D03*
X017015Y022111D03*
X017015Y021914D03*
X017015Y021717D03*
X017015Y021520D03*
X017015Y021324D03*
D23*
X017783Y020556D03*
X017980Y020556D03*
X018177Y020556D03*
X018374Y020556D03*
X018571Y020556D03*
X018767Y020556D03*
X018964Y020556D03*
X019161Y020556D03*
X019358Y020556D03*
X019555Y020556D03*
X019752Y020556D03*
X019948Y020556D03*
X020145Y020556D03*
X020342Y020556D03*
X020539Y020556D03*
X020736Y020556D03*
X020736Y025044D03*
X020539Y025044D03*
X020342Y025044D03*
X020145Y025044D03*
X019948Y025044D03*
X019752Y025044D03*
X019555Y025044D03*
X019358Y025044D03*
X019161Y025044D03*
X018964Y025044D03*
X018767Y025044D03*
X018571Y025044D03*
X018374Y025044D03*
X018177Y025044D03*
X017980Y025044D03*
X017783Y025044D03*
D24*
X015188Y024147D02*
X014932Y024147D01*
X014932Y024453D01*
X015188Y024453D01*
X015188Y024147D01*
X015188Y024231D02*
X014932Y024231D01*
X014932Y024315D02*
X015188Y024315D01*
X015188Y024399D02*
X014932Y024399D01*
X014588Y024147D02*
X014332Y024147D01*
X014332Y024453D01*
X014588Y024453D01*
X014588Y024147D01*
X014588Y024231D02*
X014332Y024231D01*
X014332Y024315D02*
X014588Y024315D01*
X014588Y024399D02*
X014332Y024399D01*
X014332Y020577D02*
X014588Y020577D01*
X014332Y020577D02*
X014332Y020883D01*
X014588Y020883D01*
X014588Y020577D01*
X014588Y020661D02*
X014332Y020661D01*
X014332Y020745D02*
X014588Y020745D01*
X014588Y020829D02*
X014332Y020829D01*
X014932Y020577D02*
X015188Y020577D01*
X014932Y020577D02*
X014932Y020883D01*
X015188Y020883D01*
X015188Y020577D01*
X015188Y020661D02*
X014932Y020661D01*
X014932Y020745D02*
X015188Y020745D01*
X015188Y020829D02*
X014932Y020829D01*
D25*
X030260Y022298D03*
X030260Y022554D03*
X030260Y022810D03*
X030260Y023066D03*
X030260Y023322D03*
D26*
X031634Y023434D02*
X031634Y022986D01*
X031186Y022986D01*
X031186Y023434D01*
X031634Y023434D01*
X031634Y023177D02*
X031186Y023177D01*
X031186Y023368D02*
X031634Y023368D01*
X031634Y022634D02*
X031634Y022186D01*
X031186Y022186D01*
X031186Y022634D01*
X031634Y022634D01*
X031634Y022377D02*
X031186Y022377D01*
X031186Y022568D02*
X031634Y022568D01*
D27*
X031410Y021255D03*
X031410Y024365D03*
D28*
X022373Y020574D03*
X021546Y020574D03*
X021546Y019826D03*
X022373Y019826D03*
D29*
X013274Y019493D03*
X012645Y019493D03*
X012645Y021107D03*
X013274Y021107D03*
X013274Y024343D03*
X012645Y024343D03*
X012645Y025957D03*
X013274Y025957D03*
D30*
X028020Y022417D03*
X028020Y022063D03*
D31*
X011230Y022191D03*
X011230Y022624D03*
X011230Y023057D03*
X011230Y023490D03*
X011230Y023923D03*
X011230Y024356D03*
X011230Y024789D03*
X011230Y025222D03*
X011230Y021758D03*
D32*
X010993Y025752D03*
D33*
X007146Y025616D03*
X007146Y019553D03*
D34*
X011075Y019875D03*
D35*
X006938Y021364D03*
X006938Y024514D03*
M02*
