G75*
%MOIN*%
%OFA0B0*%
%FSLAX24Y24*%
%IPPOS*%
%LPD*%
%AMOC8*
5,1,8,0,0,1.08239X$1,22.5*
%
%ADD10C,0.0000*%
%ADD11C,0.0780*%
%ADD12R,0.0780X0.0780*%
%ADD13C,0.0700*%
%ADD14C,0.0390*%
D10*
X004240Y017780D02*
X004240Y027820D01*
X032280Y027820D01*
X032280Y017780D01*
X004240Y017780D01*
X006763Y021364D02*
X006765Y021390D01*
X006771Y021416D01*
X006780Y021440D01*
X006793Y021463D01*
X006810Y021483D01*
X006829Y021501D01*
X006851Y021516D01*
X006874Y021527D01*
X006899Y021535D01*
X006925Y021539D01*
X006951Y021539D01*
X006977Y021535D01*
X007002Y021527D01*
X007026Y021516D01*
X007047Y021501D01*
X007066Y021483D01*
X007083Y021463D01*
X007096Y021440D01*
X007105Y021416D01*
X007111Y021390D01*
X007113Y021364D01*
X007111Y021338D01*
X007105Y021312D01*
X007096Y021288D01*
X007083Y021265D01*
X007066Y021245D01*
X007047Y021227D01*
X007025Y021212D01*
X007002Y021201D01*
X006977Y021193D01*
X006951Y021189D01*
X006925Y021189D01*
X006899Y021193D01*
X006874Y021201D01*
X006850Y021212D01*
X006829Y021227D01*
X006810Y021245D01*
X006793Y021265D01*
X006780Y021288D01*
X006771Y021312D01*
X006765Y021338D01*
X006763Y021364D01*
X006763Y024514D02*
X006765Y024540D01*
X006771Y024566D01*
X006780Y024590D01*
X006793Y024613D01*
X006810Y024633D01*
X006829Y024651D01*
X006851Y024666D01*
X006874Y024677D01*
X006899Y024685D01*
X006925Y024689D01*
X006951Y024689D01*
X006977Y024685D01*
X007002Y024677D01*
X007026Y024666D01*
X007047Y024651D01*
X007066Y024633D01*
X007083Y024613D01*
X007096Y024590D01*
X007105Y024566D01*
X007111Y024540D01*
X007113Y024514D01*
X007111Y024488D01*
X007105Y024462D01*
X007096Y024438D01*
X007083Y024415D01*
X007066Y024395D01*
X007047Y024377D01*
X007025Y024362D01*
X007002Y024351D01*
X006977Y024343D01*
X006951Y024339D01*
X006925Y024339D01*
X006899Y024343D01*
X006874Y024351D01*
X006850Y024362D01*
X006829Y024377D01*
X006810Y024395D01*
X006793Y024415D01*
X006780Y024438D01*
X006771Y024462D01*
X006765Y024488D01*
X006763Y024514D01*
D11*
X006760Y027300D03*
X007760Y027300D03*
X008760Y027300D03*
X009760Y027300D03*
X010760Y027300D03*
X011760Y027300D03*
X012760Y027300D03*
X013760Y027300D03*
X014760Y027300D03*
X015760Y027300D03*
X016760Y027300D03*
X017760Y027300D03*
X018760Y027300D03*
X019760Y027300D03*
X020760Y027300D03*
X021760Y027300D03*
X022760Y027300D03*
X023760Y027300D03*
X024760Y027300D03*
X025760Y027300D03*
X026760Y027300D03*
X027760Y027300D03*
X028760Y027300D03*
X029760Y027300D03*
X030760Y027300D03*
X030760Y018300D03*
X031760Y018300D03*
X029760Y018300D03*
X028760Y018300D03*
X027760Y018300D03*
X026760Y018300D03*
X025760Y018300D03*
X024760Y018300D03*
X023760Y018300D03*
X022760Y018300D03*
X021760Y018300D03*
X020760Y018300D03*
X019760Y018300D03*
X018760Y018300D03*
X017760Y018300D03*
X016760Y018300D03*
X015760Y018300D03*
X014760Y018300D03*
X013760Y018300D03*
X012760Y018300D03*
X011760Y018300D03*
X010760Y018300D03*
X009760Y018300D03*
X008760Y018300D03*
X007760Y018300D03*
X006760Y018300D03*
X005760Y018300D03*
X004760Y018300D03*
X004760Y027300D03*
X005760Y027300D03*
D12*
X031760Y027300D03*
D13*
X024260Y026050D03*
X024260Y025050D03*
D14*
X006938Y024514D03*
X006938Y021364D03*
M02*
