G75*
%MOIN*%
%OFA0B0*%
%FSLAX24Y24*%
%IPPOS*%
%LPD*%
%AMOC8*
5,1,8,0,0,1.08239X$1,22.5*
%
%ADD10C,0.0000*%
%ADD11C,0.0100*%
%ADD12C,0.0070*%
%ADD13C,0.0060*%
%ADD14C,0.0050*%
%ADD15C,0.0080*%
%ADD16C,0.0090*%
%ADD17C,0.0080*%
%ADD18C,0.0004*%
%ADD19C,0.0020*%
%ADD20R,0.0472X0.0079*%
%ADD21R,0.0079X0.0472*%
D10*
X004240Y017780D02*
X004240Y027820D01*
X032280Y027820D01*
X032280Y017780D01*
X004240Y017780D01*
X006763Y021364D02*
X006765Y021390D01*
X006771Y021416D01*
X006780Y021440D01*
X006793Y021463D01*
X006810Y021483D01*
X006829Y021501D01*
X006851Y021516D01*
X006874Y021527D01*
X006899Y021535D01*
X006925Y021539D01*
X006951Y021539D01*
X006977Y021535D01*
X007002Y021527D01*
X007026Y021516D01*
X007047Y021501D01*
X007066Y021483D01*
X007083Y021463D01*
X007096Y021440D01*
X007105Y021416D01*
X007111Y021390D01*
X007113Y021364D01*
X007111Y021338D01*
X007105Y021312D01*
X007096Y021288D01*
X007083Y021265D01*
X007066Y021245D01*
X007047Y021227D01*
X007025Y021212D01*
X007002Y021201D01*
X006977Y021193D01*
X006951Y021189D01*
X006925Y021189D01*
X006899Y021193D01*
X006874Y021201D01*
X006850Y021212D01*
X006829Y021227D01*
X006810Y021245D01*
X006793Y021265D01*
X006780Y021288D01*
X006771Y021312D01*
X006765Y021338D01*
X006763Y021364D01*
X006763Y024514D02*
X006765Y024540D01*
X006771Y024566D01*
X006780Y024590D01*
X006793Y024613D01*
X006810Y024633D01*
X006829Y024651D01*
X006851Y024666D01*
X006874Y024677D01*
X006899Y024685D01*
X006925Y024689D01*
X006951Y024689D01*
X006977Y024685D01*
X007002Y024677D01*
X007026Y024666D01*
X007047Y024651D01*
X007066Y024633D01*
X007083Y024613D01*
X007096Y024590D01*
X007105Y024566D01*
X007111Y024540D01*
X007113Y024514D01*
X007111Y024488D01*
X007105Y024462D01*
X007096Y024438D01*
X007083Y024415D01*
X007066Y024395D01*
X007047Y024377D01*
X007025Y024362D01*
X007002Y024351D01*
X006977Y024343D01*
X006951Y024339D01*
X006925Y024339D01*
X006899Y024343D01*
X006874Y024351D01*
X006850Y024362D01*
X006829Y024377D01*
X006810Y024395D01*
X006793Y024415D01*
X006780Y024438D01*
X006771Y024462D01*
X006765Y024488D01*
X006763Y024514D01*
D11*
X014260Y018800D02*
X015260Y018800D01*
X015260Y017800D01*
X015260Y018800D02*
X019260Y018800D01*
X019260Y017800D01*
X014260Y017800D02*
X014260Y018800D01*
X017574Y024375D02*
X017576Y024395D01*
X017581Y024415D01*
X017591Y024433D01*
X017603Y024450D01*
X017618Y024464D01*
X017636Y024474D01*
X017655Y024482D01*
X017675Y024486D01*
X017695Y024486D01*
X017715Y024482D01*
X017734Y024474D01*
X017752Y024464D01*
X017767Y024450D01*
X017779Y024433D01*
X017789Y024415D01*
X017794Y024395D01*
X017796Y024375D01*
X017794Y024355D01*
X017789Y024335D01*
X017779Y024317D01*
X017767Y024300D01*
X017752Y024286D01*
X017734Y024276D01*
X017715Y024268D01*
X017695Y024264D01*
X017675Y024264D01*
X017655Y024268D01*
X017636Y024276D01*
X017618Y024286D01*
X017603Y024300D01*
X017591Y024317D01*
X017581Y024335D01*
X017576Y024355D01*
X017574Y024375D01*
X031260Y026800D02*
X032210Y026800D01*
X032210Y027750D01*
X031260Y027750D01*
X031260Y026800D01*
D12*
X030925Y026590D02*
X030925Y026480D01*
X030870Y026425D01*
X030760Y026425D02*
X030760Y026535D01*
X030760Y026425D02*
X030650Y026425D01*
X030595Y026480D01*
X030595Y026590D01*
X030650Y026645D01*
X030870Y026645D01*
X030925Y026590D01*
X030925Y026277D02*
X030595Y026056D01*
X030925Y026056D01*
X030925Y025908D02*
X030925Y025743D01*
X030870Y025688D01*
X030650Y025688D01*
X030595Y025743D01*
X030595Y025908D01*
X030925Y025908D01*
X030925Y026277D02*
X030595Y026277D01*
X029935Y026087D02*
X029935Y025977D01*
X029880Y025922D01*
X029825Y025922D01*
X029770Y025977D01*
X029715Y025922D01*
X029660Y025922D01*
X029605Y025977D01*
X029605Y026087D01*
X029660Y026143D01*
X029660Y026272D02*
X029605Y026272D01*
X029605Y026327D01*
X029660Y026327D01*
X029660Y026272D01*
X029660Y026475D02*
X029605Y026530D01*
X029605Y026640D01*
X029660Y026695D01*
X029770Y026585D02*
X029770Y026530D01*
X029715Y026475D01*
X029660Y026475D01*
X029770Y026530D02*
X029825Y026475D01*
X029880Y026475D01*
X029935Y026530D01*
X029935Y026640D01*
X029880Y026695D01*
X028925Y026710D02*
X028925Y026600D01*
X028870Y026545D01*
X028650Y026765D01*
X028595Y026710D01*
X028595Y026600D01*
X028650Y026545D01*
X028870Y026545D01*
X028925Y026710D02*
X028870Y026765D01*
X028650Y026765D01*
X027925Y026655D02*
X027595Y026655D01*
X027595Y026765D02*
X027595Y026545D01*
X027815Y026765D02*
X027925Y026655D01*
X029770Y026032D02*
X029770Y025977D01*
X029935Y026087D02*
X029880Y026143D01*
X029935Y025774D02*
X029715Y025774D01*
X029605Y025664D01*
X029715Y025554D01*
X029935Y025554D01*
X031595Y025618D02*
X031815Y025618D01*
X031815Y025470D02*
X031815Y025360D01*
X031870Y025415D02*
X031650Y025415D01*
X031595Y025360D01*
X031595Y025618D02*
X031595Y025783D01*
X031650Y025838D01*
X031815Y025838D01*
X031760Y025986D02*
X031815Y026042D01*
X031815Y026152D01*
X031760Y026207D01*
X031650Y026207D01*
X031595Y026152D01*
X031595Y026042D01*
X031650Y025986D01*
X031760Y025986D01*
X031705Y026355D02*
X031925Y026355D01*
X031925Y026575D02*
X031705Y026575D01*
X031595Y026465D01*
X031705Y026355D01*
X025125Y026600D02*
X024960Y026765D01*
X024960Y026545D01*
X024795Y026600D02*
X025125Y026600D01*
X023925Y026545D02*
X023925Y026765D01*
X023760Y026765D01*
X023815Y026655D01*
X023815Y026600D01*
X023760Y026545D01*
X023650Y026545D01*
X023595Y026600D01*
X023595Y026710D01*
X023650Y026765D01*
X022925Y026545D02*
X022870Y026655D01*
X022760Y026765D01*
X022760Y026600D01*
X022705Y026545D01*
X022650Y026545D01*
X022595Y026600D01*
X022595Y026710D01*
X022650Y026765D01*
X022760Y026765D01*
X021905Y026765D02*
X021905Y026545D01*
X021850Y026545D01*
X021630Y026765D01*
X021575Y026765D01*
X021125Y026710D02*
X021125Y026600D01*
X021070Y026545D01*
X021015Y026545D01*
X020960Y026600D01*
X020960Y026710D01*
X021015Y026765D01*
X021070Y026765D01*
X021125Y026710D01*
X020960Y026710D02*
X020905Y026765D01*
X020850Y026765D01*
X020795Y026710D01*
X020795Y026600D01*
X020850Y026545D01*
X020905Y026545D01*
X020960Y026600D01*
X020945Y026305D02*
X020615Y026305D01*
X020725Y026305D02*
X020725Y026140D01*
X020780Y026085D01*
X020890Y026085D01*
X020945Y026140D01*
X020945Y026305D01*
X020725Y026195D02*
X020615Y026085D01*
X020615Y025937D02*
X020945Y025716D01*
X020945Y025937D02*
X020615Y025716D01*
X019125Y026232D02*
X019070Y026176D01*
X018850Y026397D01*
X018795Y026342D01*
X018795Y026232D01*
X018850Y026176D01*
X019070Y026176D01*
X019125Y026232D02*
X019125Y026342D01*
X019070Y026397D01*
X018850Y026397D01*
X018795Y026545D02*
X018795Y026765D01*
X018795Y026655D02*
X019125Y026655D01*
X019015Y026765D01*
X019795Y026710D02*
X019795Y026600D01*
X019850Y026545D01*
X020070Y026545D01*
X020125Y026600D01*
X020125Y026710D01*
X020070Y026765D01*
X020015Y026765D01*
X019960Y026710D01*
X019960Y026545D01*
X019795Y026710D02*
X019850Y026765D01*
X017925Y026655D02*
X017595Y026655D01*
X017595Y026765D02*
X017595Y026545D01*
X017595Y026397D02*
X017595Y026176D01*
X017595Y026287D02*
X017925Y026287D01*
X017815Y026397D01*
X017925Y026655D02*
X017815Y026765D01*
X016975Y026655D02*
X016645Y026655D01*
X016645Y026765D02*
X016645Y026545D01*
X016645Y026397D02*
X016865Y026176D01*
X016920Y026176D01*
X016975Y026232D01*
X016975Y026342D01*
X016920Y026397D01*
X016975Y026655D02*
X016865Y026765D01*
X016645Y026397D02*
X016645Y026176D01*
X015975Y026232D02*
X015920Y026176D01*
X015865Y026176D01*
X015810Y026232D01*
X015755Y026176D01*
X015700Y026176D01*
X015645Y026232D01*
X015645Y026342D01*
X015700Y026397D01*
X015810Y026287D02*
X015810Y026232D01*
X015975Y026232D02*
X015975Y026342D01*
X015920Y026397D01*
X015975Y026655D02*
X015645Y026655D01*
X015645Y026765D02*
X015645Y026545D01*
X015865Y026765D02*
X015975Y026655D01*
X014975Y026655D02*
X014645Y026655D01*
X014645Y026765D02*
X014645Y026545D01*
X014810Y026397D02*
X014810Y026176D01*
X014975Y026232D02*
X014810Y026397D01*
X014645Y026232D02*
X014975Y026232D01*
X014975Y026655D02*
X014865Y026765D01*
X014095Y026655D02*
X013765Y026655D01*
X013765Y026765D02*
X013765Y026545D01*
X013820Y026397D02*
X013765Y026342D01*
X013765Y026232D01*
X013820Y026176D01*
X013930Y026176D01*
X013985Y026232D01*
X013985Y026287D01*
X013930Y026397D01*
X014095Y026397D01*
X014095Y026176D01*
X014095Y026655D02*
X013985Y026765D01*
X013083Y026755D02*
X012973Y026700D01*
X012863Y026590D01*
X013028Y026590D01*
X013083Y026535D01*
X013083Y026480D01*
X013028Y026425D01*
X012918Y026425D01*
X012863Y026480D01*
X012863Y026590D01*
X012715Y026425D02*
X012495Y026425D01*
X012605Y026425D02*
X012605Y026755D01*
X012495Y026645D01*
X012048Y026680D02*
X011828Y026460D01*
X011828Y026405D01*
X011680Y026405D02*
X011460Y026405D01*
X011570Y026405D02*
X011570Y026735D01*
X011460Y026625D01*
X011828Y026735D02*
X012048Y026735D01*
X012048Y026680D01*
X010815Y026655D02*
X010485Y026655D01*
X010485Y026765D02*
X010485Y026545D01*
X010540Y026397D02*
X010595Y026397D01*
X010650Y026342D01*
X010650Y026232D01*
X010595Y026176D01*
X010540Y026176D01*
X010485Y026232D01*
X010485Y026342D01*
X010540Y026397D01*
X010650Y026342D02*
X010705Y026397D01*
X010760Y026397D01*
X010815Y026342D01*
X010815Y026232D01*
X010760Y026176D01*
X010705Y026176D01*
X010650Y026232D01*
X010815Y026655D02*
X010705Y026765D01*
X009975Y026655D02*
X009645Y026655D01*
X009645Y026765D02*
X009645Y026545D01*
X009700Y026397D02*
X009645Y026342D01*
X009645Y026232D01*
X009700Y026176D01*
X009920Y026176D01*
X009975Y026232D01*
X009975Y026342D01*
X009920Y026397D01*
X009865Y026397D01*
X009810Y026342D01*
X009810Y026176D01*
X009975Y026655D02*
X009865Y026765D01*
X008975Y026710D02*
X008920Y026765D01*
X008975Y026710D02*
X008975Y026600D01*
X008920Y026545D01*
X008865Y026545D01*
X008645Y026765D01*
X008645Y026545D01*
X008700Y026397D02*
X008920Y026176D01*
X008700Y026176D01*
X008645Y026232D01*
X008645Y026342D01*
X008700Y026397D01*
X008920Y026397D01*
X008975Y026342D01*
X008975Y026232D01*
X008920Y026176D01*
X007955Y026287D02*
X007625Y026287D01*
X007625Y026397D02*
X007625Y026176D01*
X007845Y026397D02*
X007955Y026287D01*
X007900Y026545D02*
X007955Y026600D01*
X007955Y026710D01*
X007900Y026765D01*
X007900Y026545D02*
X007845Y026545D01*
X007625Y026765D01*
X007625Y026545D01*
X006975Y026600D02*
X006975Y026710D01*
X006920Y026765D01*
X006975Y026600D02*
X006920Y026545D01*
X006865Y026545D01*
X006645Y026765D01*
X006645Y026545D01*
X006645Y026397D02*
X006865Y026176D01*
X006920Y026176D01*
X006975Y026232D01*
X006975Y026342D01*
X006920Y026397D01*
X006645Y026397D02*
X006645Y026176D01*
X005955Y026232D02*
X005900Y026176D01*
X005845Y026176D01*
X005790Y026232D01*
X005735Y026176D01*
X005680Y026176D01*
X005625Y026232D01*
X005625Y026342D01*
X005680Y026397D01*
X005790Y026287D02*
X005790Y026232D01*
X005955Y026232D02*
X005955Y026342D01*
X005900Y026397D01*
X005900Y026545D02*
X005845Y026545D01*
X005625Y026765D01*
X005625Y026545D01*
X005900Y026545D02*
X005955Y026600D01*
X005955Y026710D01*
X005900Y026765D01*
X004925Y026710D02*
X004870Y026765D01*
X004650Y026765D01*
X004595Y026710D01*
X004595Y026600D01*
X004650Y026545D01*
X004760Y026545D01*
X004760Y026655D01*
X004870Y026545D02*
X004925Y026600D01*
X004925Y026710D01*
X004925Y026397D02*
X004595Y026176D01*
X004925Y026176D01*
X004925Y026028D02*
X004925Y025863D01*
X004870Y025808D01*
X004650Y025808D01*
X004595Y025863D01*
X004595Y026028D01*
X004925Y026028D01*
X004925Y026397D02*
X004595Y026397D01*
X012515Y023975D02*
X012515Y023645D01*
X012515Y023755D02*
X012680Y023755D01*
X012735Y023810D01*
X012735Y023920D01*
X012680Y023975D01*
X012515Y023975D01*
X012883Y023975D02*
X013048Y023975D01*
X013103Y023920D01*
X013103Y023810D01*
X013048Y023755D01*
X012883Y023755D01*
X012993Y023755D02*
X013103Y023645D01*
X013251Y023700D02*
X013306Y023645D01*
X013416Y023645D01*
X013471Y023700D01*
X013471Y023810D01*
X013361Y023810D01*
X013251Y023920D02*
X013251Y023700D01*
X013251Y023920D02*
X013306Y023975D01*
X013416Y023975D01*
X013471Y023920D01*
X012883Y023975D02*
X012883Y023645D01*
X015505Y024155D02*
X015725Y024375D01*
X015725Y024430D01*
X015670Y024485D01*
X015560Y024485D01*
X015505Y024430D01*
X015505Y024155D02*
X015725Y024155D01*
X015873Y024155D02*
X016093Y024155D01*
X015983Y024155D02*
X015983Y024485D01*
X015873Y024375D01*
X013808Y021795D02*
X013588Y021795D01*
X013698Y021795D02*
X013698Y021465D01*
X013440Y021465D02*
X013219Y021465D01*
X013219Y021795D01*
X013440Y021795D01*
X013330Y021630D02*
X013219Y021630D01*
X013071Y021575D02*
X013071Y021520D01*
X013016Y021465D01*
X012906Y021465D01*
X012851Y021520D01*
X012906Y021630D02*
X013016Y021630D01*
X013071Y021575D01*
X013071Y021740D02*
X013016Y021795D01*
X012906Y021795D01*
X012851Y021740D01*
X012851Y021685D01*
X012906Y021630D01*
X012703Y021465D02*
X012483Y021465D01*
X012483Y021795D01*
X012703Y021795D01*
X012593Y021630D02*
X012483Y021630D01*
X012335Y021630D02*
X012335Y021740D01*
X012280Y021795D01*
X012115Y021795D01*
X012115Y021465D01*
X012115Y021575D02*
X012280Y021575D01*
X012335Y021630D01*
X012225Y021575D02*
X012335Y021465D01*
X015485Y020885D02*
X015485Y020555D01*
X015485Y020665D02*
X015650Y020665D01*
X015705Y020720D01*
X015705Y020830D01*
X015650Y020885D01*
X015485Y020885D01*
X015853Y020885D02*
X015853Y020555D01*
X015963Y020665D01*
X016073Y020555D01*
X016073Y020885D01*
X016221Y020885D02*
X016386Y020885D01*
X016441Y020830D01*
X016441Y020720D01*
X016386Y020665D01*
X016221Y020665D01*
X016221Y020555D02*
X016221Y020885D01*
X016331Y020665D02*
X016441Y020555D01*
X004925Y019710D02*
X004870Y019765D01*
X004650Y019765D01*
X004595Y019710D01*
X004595Y019600D01*
X004650Y019545D01*
X004760Y019545D01*
X004760Y019655D01*
X004870Y019545D02*
X004925Y019600D01*
X004925Y019710D01*
X004925Y019397D02*
X004595Y019176D01*
X004925Y019176D01*
X004925Y019028D02*
X004925Y018863D01*
X004870Y018808D01*
X004650Y018808D01*
X004595Y018863D01*
X004595Y019028D01*
X004925Y019028D01*
X004925Y019397D02*
X004595Y019397D01*
X029555Y019427D02*
X029610Y019483D01*
X029555Y019427D02*
X029555Y019317D01*
X029610Y019262D01*
X029665Y019262D01*
X029720Y019317D01*
X029720Y019372D01*
X029720Y019317D02*
X029775Y019262D01*
X029830Y019262D01*
X029885Y019317D01*
X029885Y019427D01*
X029830Y019483D01*
X029610Y019612D02*
X029555Y019612D01*
X029555Y019667D01*
X029610Y019667D01*
X029610Y019612D01*
X029610Y019815D02*
X029555Y019870D01*
X029555Y019980D01*
X029610Y020035D01*
X029720Y019925D02*
X029720Y019870D01*
X029665Y019815D01*
X029610Y019815D01*
X029720Y019870D02*
X029775Y019815D01*
X029830Y019815D01*
X029885Y019870D01*
X029885Y019980D01*
X029830Y020035D01*
X030595Y019780D02*
X030595Y019670D01*
X030650Y019615D01*
X030760Y019615D01*
X030760Y019725D01*
X030870Y019835D02*
X030650Y019835D01*
X030595Y019780D01*
X030870Y019835D02*
X030925Y019780D01*
X030925Y019670D01*
X030870Y019615D01*
X030925Y019467D02*
X030595Y019246D01*
X030925Y019246D01*
X030925Y019098D02*
X030925Y018933D01*
X030870Y018878D01*
X030650Y018878D01*
X030595Y018933D01*
X030595Y019098D01*
X030925Y019098D01*
X030925Y019467D02*
X030595Y019467D01*
X031595Y019367D02*
X031595Y019257D01*
X031595Y019312D02*
X031815Y019312D01*
X031815Y019367D01*
X031925Y019312D02*
X031980Y019312D01*
X031925Y019515D02*
X031705Y019515D01*
X031595Y019625D01*
X031705Y019735D01*
X031925Y019735D01*
X031815Y019121D02*
X031815Y018956D01*
X031760Y018901D01*
X031595Y018901D01*
X031595Y019121D02*
X031815Y019121D01*
X029885Y019114D02*
X029665Y019114D01*
X029555Y019004D01*
X029665Y018894D01*
X029885Y018894D01*
D13*
X028015Y018948D02*
X027967Y018900D01*
X027870Y018900D01*
X027822Y018948D01*
X027822Y018997D01*
X027870Y019045D01*
X027967Y019045D01*
X028015Y018997D01*
X028015Y018948D01*
X027967Y019045D02*
X028015Y019093D01*
X028015Y019142D01*
X027967Y019190D01*
X027870Y019190D01*
X027822Y019142D01*
X027822Y019093D01*
X027870Y019045D01*
X027693Y019093D02*
X027693Y019142D01*
X027645Y019190D01*
X027548Y019190D01*
X027500Y019142D01*
X027693Y019093D02*
X027500Y018900D01*
X027693Y018900D01*
X027693Y019370D02*
X027596Y019467D01*
X027645Y019467D02*
X027500Y019467D01*
X027500Y019370D02*
X027500Y019660D01*
X027645Y019660D01*
X027693Y019612D01*
X027693Y019515D01*
X027645Y019467D01*
X027822Y019370D02*
X028015Y019660D01*
X027822Y019660D02*
X028015Y019370D01*
X027110Y019205D02*
X026965Y019350D01*
X026965Y019157D01*
X026965Y019028D02*
X026965Y018834D01*
X027110Y018883D02*
X026965Y019028D01*
X026820Y018883D02*
X027110Y018883D01*
X027110Y019205D02*
X026820Y019205D01*
X026690Y019253D02*
X026593Y019157D01*
X026400Y019157D01*
X026448Y019028D02*
X026641Y018834D01*
X026448Y018834D01*
X026400Y018883D01*
X026400Y018979D01*
X026448Y019028D01*
X026641Y019028D01*
X026690Y018979D01*
X026690Y018883D01*
X026641Y018834D01*
X026545Y019157D02*
X026545Y019350D01*
X026593Y019350D02*
X026690Y019253D01*
X026593Y019350D02*
X026400Y019350D01*
X026110Y019205D02*
X025965Y019350D01*
X025965Y019157D01*
X025820Y019205D02*
X026110Y019205D01*
X026061Y019028D02*
X026110Y018979D01*
X026110Y018883D01*
X026061Y018834D01*
X026013Y018834D01*
X025965Y018883D01*
X025916Y018834D01*
X025868Y018834D01*
X025820Y018883D01*
X025820Y018979D01*
X025868Y019028D01*
X025965Y018931D02*
X025965Y018883D01*
X025700Y018931D02*
X025410Y018931D01*
X025410Y019028D02*
X025410Y018834D01*
X025603Y019028D02*
X025700Y018931D01*
X025603Y019157D02*
X025410Y019157D01*
X025555Y019157D02*
X025555Y019350D01*
X025603Y019350D02*
X025700Y019253D01*
X025603Y019157D01*
X025603Y019350D02*
X025410Y019350D01*
X025110Y019205D02*
X024965Y019350D01*
X024965Y019157D01*
X024820Y019205D02*
X025110Y019205D01*
X025061Y019028D02*
X025110Y018979D01*
X025110Y018883D01*
X025061Y018834D01*
X025013Y018834D01*
X024820Y019028D01*
X024820Y018834D01*
X024700Y018883D02*
X024700Y018979D01*
X024651Y019028D01*
X024603Y019157D02*
X024410Y019157D01*
X024410Y019028D02*
X024603Y018834D01*
X024651Y018834D01*
X024700Y018883D01*
X024603Y019157D02*
X024700Y019253D01*
X024603Y019350D01*
X024410Y019350D01*
X024555Y019350D02*
X024555Y019157D01*
X024410Y019028D02*
X024410Y018834D01*
X024110Y018931D02*
X023820Y018931D01*
X023820Y019028D02*
X023820Y018834D01*
X023700Y018883D02*
X023651Y018834D01*
X023603Y018834D01*
X023555Y018883D01*
X023506Y018834D01*
X023458Y018834D01*
X023410Y018883D01*
X023410Y018979D01*
X023458Y019028D01*
X023555Y018931D02*
X023555Y018883D01*
X023700Y018883D02*
X023700Y018979D01*
X023651Y019028D01*
X023603Y019157D02*
X023410Y019157D01*
X023555Y019157D02*
X023555Y019350D01*
X023603Y019350D02*
X023700Y019253D01*
X023603Y019157D01*
X023603Y019350D02*
X023410Y019350D01*
X023120Y019205D02*
X022975Y019350D01*
X022975Y019157D01*
X022830Y019205D02*
X023120Y019205D01*
X023071Y019028D02*
X023120Y018979D01*
X023120Y018883D01*
X023071Y018834D01*
X022878Y019028D01*
X022830Y018979D01*
X022830Y018883D01*
X022878Y018834D01*
X023071Y018834D01*
X023071Y019028D02*
X022878Y019028D01*
X022700Y018883D02*
X022555Y019028D01*
X022555Y018834D01*
X022410Y018883D02*
X022700Y018883D01*
X022603Y019157D02*
X022410Y019157D01*
X022555Y019157D02*
X022555Y019350D01*
X022603Y019350D02*
X022700Y019253D01*
X022603Y019157D01*
X022603Y019350D02*
X022410Y019350D01*
X022110Y019302D02*
X022110Y019205D01*
X022061Y019157D01*
X022013Y019157D01*
X021965Y019205D01*
X021916Y019157D01*
X021868Y019157D01*
X021820Y019205D01*
X021820Y019302D01*
X021868Y019350D01*
X021965Y019253D02*
X021965Y019205D01*
X022061Y019350D02*
X022110Y019302D01*
X022061Y019028D02*
X022013Y019028D01*
X021965Y018979D01*
X021965Y018834D01*
X022061Y018834D02*
X022110Y018883D01*
X022110Y018979D01*
X022061Y019028D01*
X021868Y019028D02*
X021820Y018979D01*
X021820Y018883D01*
X021868Y018834D01*
X022061Y018834D01*
X021700Y018834D02*
X021700Y019028D01*
X021555Y019028D01*
X021603Y018931D01*
X021603Y018883D01*
X021555Y018834D01*
X021458Y018834D01*
X021410Y018883D01*
X021410Y018979D01*
X021458Y019028D01*
X021410Y019157D02*
X021603Y019157D01*
X021700Y019253D01*
X021603Y019350D01*
X021410Y019350D01*
X021555Y019350D02*
X021555Y019157D01*
X021110Y019205D02*
X021061Y019157D01*
X021013Y019157D01*
X020965Y019205D01*
X020916Y019157D01*
X020868Y019157D01*
X020820Y019205D01*
X020820Y019302D01*
X020868Y019350D01*
X020965Y019253D02*
X020965Y019205D01*
X021110Y019205D02*
X021110Y019302D01*
X021061Y019350D01*
X021061Y019028D02*
X021013Y019028D01*
X020965Y018979D01*
X020965Y018883D01*
X020916Y018834D01*
X020868Y018834D01*
X020820Y018883D01*
X020820Y018979D01*
X020868Y019028D01*
X020916Y019028D01*
X020965Y018979D01*
X020965Y018883D02*
X021013Y018834D01*
X021061Y018834D01*
X021110Y018883D01*
X021110Y018979D01*
X021061Y019028D01*
X020700Y018834D02*
X020651Y018931D01*
X020555Y019028D01*
X020555Y018883D01*
X020506Y018834D01*
X020458Y018834D01*
X020410Y018883D01*
X020410Y018979D01*
X020458Y019028D01*
X020555Y019028D01*
X020555Y019157D02*
X020555Y019350D01*
X020603Y019350D02*
X020700Y019253D01*
X020603Y019157D01*
X020410Y019157D01*
X020410Y019350D02*
X020603Y019350D01*
X020120Y019302D02*
X020120Y019205D01*
X020071Y019157D01*
X020023Y019157D01*
X019975Y019205D01*
X019926Y019157D01*
X019878Y019157D01*
X019830Y019205D01*
X019830Y019302D01*
X019878Y019350D01*
X019975Y019253D02*
X019975Y019205D01*
X020071Y019350D02*
X020120Y019302D01*
X020120Y019028D02*
X020120Y018834D01*
X020071Y018834D01*
X019878Y019028D01*
X019830Y019028D01*
X019700Y019018D02*
X019700Y018824D01*
X019651Y018824D01*
X019458Y019018D01*
X019410Y019018D01*
X019410Y019147D02*
X019603Y019147D01*
X019700Y019243D01*
X019603Y019340D01*
X019410Y019340D01*
X019555Y019340D02*
X019555Y019147D01*
X019120Y018964D02*
X019071Y019061D01*
X018975Y019158D01*
X018975Y019013D01*
X018926Y018964D01*
X018878Y018964D01*
X018830Y019013D01*
X018830Y019109D01*
X018878Y019158D01*
X018975Y019158D01*
X019023Y019287D02*
X018975Y019335D01*
X018926Y019287D01*
X018878Y019287D01*
X018830Y019335D01*
X018830Y019432D01*
X018878Y019480D01*
X018975Y019383D02*
X018975Y019335D01*
X019023Y019287D02*
X019071Y019287D01*
X019120Y019335D01*
X019120Y019432D01*
X019071Y019480D01*
X018690Y019383D02*
X018593Y019287D01*
X018400Y019287D01*
X018448Y019158D02*
X018496Y019158D01*
X018545Y019109D01*
X018545Y019013D01*
X018496Y018964D01*
X018448Y018964D01*
X018400Y019013D01*
X018400Y019109D01*
X018448Y019158D01*
X018545Y019109D02*
X018593Y019158D01*
X018641Y019158D01*
X018690Y019109D01*
X018690Y019013D01*
X018641Y018964D01*
X018593Y018964D01*
X018545Y019013D01*
X018545Y019287D02*
X018545Y019480D01*
X018593Y019480D02*
X018690Y019383D01*
X018593Y019480D02*
X018400Y019480D01*
X018120Y019402D02*
X018120Y019305D01*
X018071Y019257D01*
X018023Y019257D01*
X017975Y019305D01*
X017926Y019257D01*
X017878Y019257D01*
X017830Y019305D01*
X017830Y019402D01*
X017878Y019450D01*
X017975Y019353D02*
X017975Y019305D01*
X018071Y019450D02*
X018120Y019402D01*
X018120Y019128D02*
X017975Y019128D01*
X018023Y019031D01*
X018023Y018983D01*
X017975Y018934D01*
X017878Y018934D01*
X017830Y018983D01*
X017830Y019079D01*
X017878Y019128D01*
X017685Y019095D02*
X017540Y019095D01*
X017492Y019143D01*
X017492Y019192D01*
X017540Y019240D01*
X017637Y019240D01*
X017685Y019192D01*
X017685Y018998D01*
X017637Y018950D01*
X017540Y018950D01*
X017492Y018998D01*
X017363Y018950D02*
X017363Y019143D01*
X017266Y019240D01*
X017170Y019143D01*
X017170Y018950D01*
X017170Y019095D02*
X017363Y019095D01*
X016900Y019165D02*
X016900Y019020D01*
X016851Y018972D01*
X016658Y018972D01*
X016610Y019020D01*
X016610Y019165D01*
X016900Y019165D01*
X016900Y019294D02*
X016610Y019294D01*
X016900Y019488D01*
X016610Y019488D01*
X016658Y019617D02*
X016755Y019617D01*
X016755Y019713D01*
X016851Y019617D02*
X016900Y019665D01*
X016900Y019762D01*
X016851Y019810D01*
X016658Y019810D01*
X016610Y019762D01*
X016610Y019665D01*
X016658Y019617D01*
X015900Y019572D02*
X015900Y019475D01*
X015851Y019427D01*
X015803Y019427D01*
X015755Y019475D01*
X015706Y019427D01*
X015658Y019427D01*
X015610Y019475D01*
X015610Y019572D01*
X015658Y019620D01*
X015755Y019523D02*
X015755Y019475D01*
X015851Y019620D02*
X015900Y019572D01*
X015658Y019298D02*
X015658Y019249D01*
X015610Y019249D01*
X015610Y019298D01*
X015658Y019298D01*
X015658Y019137D02*
X015610Y019088D01*
X015610Y018991D01*
X015658Y018943D01*
X015706Y018943D01*
X015755Y018991D01*
X015755Y019040D01*
X015755Y018991D02*
X015803Y018943D01*
X015851Y018943D01*
X015900Y018991D01*
X015900Y019088D01*
X015851Y019137D01*
X014880Y019135D02*
X014880Y018942D01*
X014880Y019039D02*
X014590Y019039D01*
X014638Y019264D02*
X014590Y019313D01*
X014590Y019409D01*
X014638Y019458D01*
X014735Y019409D02*
X014735Y019313D01*
X014686Y019264D01*
X014638Y019264D01*
X014735Y019409D02*
X014783Y019458D01*
X014831Y019458D01*
X014880Y019409D01*
X014880Y019313D01*
X014831Y019264D01*
X014831Y019587D02*
X014735Y019587D01*
X014686Y019635D01*
X014686Y019780D01*
X014590Y019780D02*
X014880Y019780D01*
X014880Y019635D01*
X014831Y019587D01*
X014686Y019683D02*
X014590Y019587D01*
X013920Y019693D02*
X013823Y019597D01*
X013630Y019597D01*
X013630Y019468D02*
X013630Y019274D01*
X013630Y019371D02*
X013920Y019371D01*
X013823Y019468D01*
X013775Y019597D02*
X013775Y019790D01*
X013823Y019790D02*
X013920Y019693D01*
X013823Y019790D02*
X013630Y019790D01*
X013678Y019145D02*
X013630Y019097D01*
X013630Y019000D01*
X013678Y018952D01*
X013871Y018952D01*
X013678Y019145D01*
X013871Y019145D01*
X013920Y019097D01*
X013920Y019000D01*
X013871Y018952D01*
X013208Y018820D02*
X013014Y018820D01*
X013111Y018820D02*
X013111Y019110D01*
X013014Y019013D01*
X012885Y018820D02*
X012692Y018820D01*
X012789Y018820D02*
X012789Y019110D01*
X012692Y019013D01*
X012563Y019013D02*
X012563Y018820D01*
X012563Y018965D02*
X012370Y018965D01*
X012370Y019013D02*
X012466Y019110D01*
X012563Y019013D01*
X012370Y019013D02*
X012370Y018820D01*
X011910Y018890D02*
X011910Y018987D01*
X011861Y019035D01*
X011910Y018890D02*
X011861Y018842D01*
X011813Y018842D01*
X011620Y019035D01*
X011620Y018842D01*
X011620Y019164D02*
X011620Y019358D01*
X011620Y019261D02*
X011910Y019261D01*
X011813Y019358D01*
X011813Y019487D02*
X011620Y019487D01*
X011765Y019487D02*
X011765Y019680D01*
X011813Y019680D02*
X011910Y019583D01*
X011813Y019487D01*
X011813Y019680D02*
X011620Y019680D01*
X011159Y019100D02*
X011208Y019052D01*
X011208Y019003D01*
X011159Y018955D01*
X011208Y018907D01*
X011208Y018858D01*
X011159Y018810D01*
X011062Y018810D01*
X011014Y018858D01*
X011111Y018955D02*
X011159Y018955D01*
X011159Y019100D02*
X011062Y019100D01*
X011014Y019052D01*
X010789Y019100D02*
X010789Y018810D01*
X010885Y018810D02*
X010692Y018810D01*
X010563Y018810D02*
X010563Y019003D01*
X010466Y019100D01*
X010370Y019003D01*
X010370Y018810D01*
X010370Y018955D02*
X010563Y018955D01*
X010692Y019003D02*
X010789Y019100D01*
X010078Y018955D02*
X009884Y018955D01*
X010029Y019100D01*
X010029Y018810D01*
X009755Y018810D02*
X009562Y018810D01*
X009659Y018810D02*
X009659Y019100D01*
X009562Y019003D01*
X009433Y019003D02*
X009433Y018810D01*
X009433Y018955D02*
X009240Y018955D01*
X009240Y019003D02*
X009336Y019100D01*
X009433Y019003D01*
X009240Y019003D02*
X009240Y018810D01*
X009025Y019052D02*
X008832Y018858D01*
X008832Y018810D01*
X008703Y018810D02*
X008510Y018810D01*
X008703Y019003D01*
X008703Y019052D01*
X008655Y019100D01*
X008558Y019100D01*
X008510Y019052D01*
X008538Y019240D02*
X008490Y019288D01*
X008538Y019240D02*
X008635Y019240D01*
X008683Y019288D01*
X008683Y019337D01*
X008635Y019385D01*
X008538Y019385D01*
X008490Y019433D01*
X008490Y019482D01*
X008538Y019530D01*
X008635Y019530D01*
X008683Y019482D01*
X008812Y019482D02*
X008812Y019433D01*
X008860Y019385D01*
X008957Y019385D01*
X009005Y019337D01*
X009005Y019288D01*
X008957Y019240D01*
X008860Y019240D01*
X008812Y019288D01*
X008832Y019100D02*
X009025Y019100D01*
X009025Y019052D01*
X009005Y019482D02*
X008957Y019530D01*
X008860Y019530D01*
X008812Y019482D01*
X008178Y019472D02*
X008129Y019520D01*
X008032Y019520D01*
X007984Y019472D01*
X007984Y019278D01*
X008032Y019230D01*
X008129Y019230D01*
X008178Y019278D01*
X008178Y019472D01*
X007855Y019472D02*
X007807Y019520D01*
X007662Y019520D01*
X007662Y019230D01*
X007807Y019230D01*
X007855Y019278D01*
X007855Y019472D01*
X007533Y019472D02*
X007485Y019520D01*
X007388Y019520D01*
X007340Y019472D01*
X007340Y019423D01*
X007388Y019375D01*
X007485Y019375D01*
X007533Y019327D01*
X007533Y019278D01*
X007485Y019230D01*
X007388Y019230D01*
X007340Y019278D01*
X007111Y019230D02*
X007014Y019230D01*
X007062Y019230D02*
X007062Y019520D01*
X007014Y019520D02*
X007111Y019520D01*
X006885Y019472D02*
X006837Y019520D01*
X006692Y019520D01*
X006692Y019230D01*
X006837Y019230D01*
X006885Y019278D01*
X006885Y019472D01*
X006563Y019472D02*
X006515Y019520D01*
X006418Y019520D01*
X006370Y019472D01*
X006370Y019423D01*
X006418Y019375D01*
X006515Y019375D01*
X006563Y019327D01*
X006563Y019278D01*
X006515Y019230D01*
X006418Y019230D01*
X006370Y019278D01*
X006538Y019100D02*
X006490Y019052D01*
X006538Y019100D02*
X006635Y019100D01*
X006683Y019052D01*
X006683Y019003D01*
X006490Y018810D01*
X006683Y018810D01*
X006812Y018858D02*
X006860Y018810D01*
X006957Y018810D01*
X007005Y018858D01*
X007005Y018955D01*
X006957Y019003D01*
X006909Y019003D01*
X006812Y018955D01*
X006812Y019100D01*
X007005Y019100D01*
X007500Y019052D02*
X007548Y019100D01*
X007645Y019100D01*
X007693Y019052D01*
X007693Y019003D01*
X007500Y018810D01*
X007693Y018810D01*
X007822Y018858D02*
X007870Y018810D01*
X007967Y018810D01*
X008015Y018858D01*
X008015Y018907D01*
X007967Y018955D01*
X007822Y018955D01*
X007822Y018858D01*
X007822Y018955D02*
X007919Y019052D01*
X008015Y019100D01*
X006078Y019230D02*
X005932Y019375D01*
X005884Y019327D02*
X006078Y019520D01*
X005884Y019520D02*
X005884Y019230D01*
X005755Y019278D02*
X005707Y019230D01*
X005610Y019230D01*
X005562Y019278D01*
X005562Y019472D01*
X005610Y019520D01*
X005707Y019520D01*
X005755Y019472D01*
X005433Y019472D02*
X005385Y019520D01*
X005288Y019520D01*
X005240Y019472D01*
X005240Y019423D01*
X005288Y019375D01*
X005385Y019375D01*
X005433Y019327D01*
X005433Y019278D01*
X005385Y019230D01*
X005288Y019230D01*
X005240Y019278D01*
X005490Y019052D02*
X005538Y019100D01*
X005635Y019100D01*
X005683Y019052D01*
X005683Y019003D01*
X005490Y018810D01*
X005683Y018810D01*
X005812Y018955D02*
X006005Y018955D01*
X005957Y018810D02*
X005957Y019100D01*
X005812Y018955D01*
X018120Y018934D02*
X018120Y019128D01*
X023820Y019205D02*
X024110Y019205D01*
X023965Y019350D01*
X023965Y019157D01*
X024013Y019028D02*
X024110Y018931D01*
X020040Y025725D02*
X019700Y025952D01*
X019700Y025725D02*
X020040Y025952D01*
X020040Y026093D02*
X020040Y026320D01*
X020040Y026207D02*
X019700Y026207D01*
X025640Y026620D02*
X025640Y026720D01*
X025690Y026770D01*
X025790Y026670D02*
X025790Y026620D01*
X025740Y026570D01*
X025690Y026570D01*
X025640Y026620D01*
X025790Y026620D02*
X025840Y026570D01*
X025890Y026570D01*
X025940Y026620D01*
X025940Y026720D01*
X025890Y026770D01*
X026640Y026770D02*
X026840Y026570D01*
X026890Y026570D01*
X026940Y026620D01*
X026940Y026720D01*
X026890Y026770D01*
X026640Y026770D02*
X026640Y026570D01*
D14*
X023810Y026200D02*
X023810Y025700D01*
X022710Y025700D01*
X022710Y026200D01*
X023810Y026200D01*
X023810Y025300D02*
X022710Y025300D01*
X022710Y024800D01*
X023810Y024800D01*
X023810Y025300D01*
X026269Y024900D02*
X027239Y024900D01*
X027239Y023140D02*
X026269Y023140D01*
X026270Y022850D02*
X025770Y022850D01*
X025770Y021750D01*
X026270Y021750D01*
X026270Y022850D01*
X025610Y022950D02*
X025610Y021650D01*
X024910Y021650D01*
X024910Y022950D01*
X025610Y022950D01*
X024010Y021970D02*
X024010Y021470D01*
X022910Y021470D01*
X022910Y021970D01*
X024010Y021970D01*
X024090Y021410D02*
X022790Y021410D01*
X022790Y020710D01*
X024090Y020710D01*
X024090Y021410D01*
X022724Y020602D02*
X022726Y020614D01*
X022731Y020625D01*
X022740Y020634D01*
X022751Y020639D01*
X022763Y020641D01*
X022775Y020639D01*
X022786Y020634D01*
X022795Y020625D01*
X022800Y020614D01*
X022802Y020602D01*
X022800Y020590D01*
X022795Y020579D01*
X022786Y020570D01*
X022775Y020565D01*
X022763Y020563D01*
X022751Y020565D01*
X022740Y020570D01*
X022731Y020579D01*
X022726Y020590D01*
X022724Y020602D01*
X022617Y020692D02*
X022617Y019708D01*
X022129Y019708D02*
X021790Y019708D01*
X021302Y019708D02*
X021302Y020692D01*
X021790Y020692D02*
X022129Y020692D01*
X022610Y022350D02*
X022610Y022850D01*
X023710Y022850D01*
X023710Y022350D01*
X022610Y022350D01*
X022610Y022850D02*
X022610Y023350D01*
X023710Y023350D01*
X023710Y022850D01*
X022610Y022850D01*
X028574Y022540D02*
X028875Y022540D01*
X028875Y022440D02*
X028875Y022640D01*
X028674Y022440D02*
X028574Y022540D01*
X028624Y022317D02*
X028574Y022267D01*
X028574Y022117D01*
X028875Y022117D01*
X028774Y022117D02*
X028774Y022267D01*
X028724Y022317D01*
X028624Y022317D01*
X028574Y021995D02*
X028574Y021895D01*
X028574Y021945D02*
X028824Y021945D01*
X028875Y021895D01*
X028875Y021845D01*
X028824Y021795D01*
X030260Y021560D02*
X030260Y024060D01*
X030262Y024090D01*
X030267Y024120D01*
X030276Y024149D01*
X030289Y024176D01*
X030304Y024202D01*
X030323Y024226D01*
X030344Y024247D01*
X030368Y024266D01*
X030394Y024281D01*
X030421Y024294D01*
X030450Y024303D01*
X030480Y024308D01*
X030510Y024310D01*
X032260Y024310D01*
X032510Y024560D01*
X032510Y021060D01*
X032260Y021310D01*
X030510Y021310D01*
X030480Y021312D01*
X030450Y021317D01*
X030421Y021326D01*
X030394Y021339D01*
X030368Y021354D01*
X030344Y021373D01*
X030323Y021394D01*
X030304Y021418D01*
X030289Y021444D01*
X030276Y021471D01*
X030267Y021500D01*
X030262Y021530D01*
X030260Y021560D01*
X032260Y021560D02*
X032260Y024060D01*
X029017Y019655D02*
X028817Y019355D01*
X028857Y019225D02*
X028807Y019175D01*
X028807Y019125D01*
X028857Y019075D01*
X029007Y019075D01*
X029007Y018975D02*
X029007Y019175D01*
X028957Y019225D01*
X028857Y019225D01*
X028685Y019175D02*
X028635Y019225D01*
X028535Y019225D01*
X028485Y019175D01*
X028685Y019175D02*
X028685Y019125D01*
X028485Y018925D01*
X028685Y018925D01*
X028807Y018975D02*
X028857Y018925D01*
X028957Y018925D01*
X029007Y018975D01*
X029017Y019355D02*
X028817Y019655D01*
X028695Y019655D02*
X028495Y019655D01*
X028595Y019655D02*
X028595Y019355D01*
X016810Y025050D02*
X016810Y025550D01*
X015710Y025550D01*
X015710Y025050D01*
X016810Y025050D01*
X015285Y024550D02*
X015285Y024050D01*
X014235Y024050D01*
X014235Y024550D01*
X015285Y024550D01*
X014810Y024300D02*
X014760Y024375D01*
X014760Y024225D01*
X014810Y024300D01*
X014760Y024375D02*
X014710Y024450D01*
X014710Y024150D01*
X014760Y024225D01*
X014735Y024200D02*
X014735Y024400D01*
X014110Y024550D02*
X013610Y024550D01*
X013610Y025650D01*
X014110Y025650D01*
X014110Y024550D01*
X013562Y024370D02*
X013562Y025933D01*
X013023Y025937D02*
X012904Y025937D01*
X012381Y025933D02*
X012381Y024370D01*
X012900Y024359D02*
X013019Y024359D01*
X014210Y023980D02*
X015310Y023980D01*
X015310Y023480D01*
X014210Y023480D01*
X014210Y023980D01*
X014210Y023260D02*
X014210Y022760D01*
X015310Y022760D01*
X015310Y023260D01*
X014210Y023260D01*
X014210Y022690D02*
X015310Y022690D01*
X015310Y022190D01*
X014210Y022190D01*
X014210Y022690D01*
X013510Y022450D02*
X013510Y022950D01*
X012410Y022950D01*
X012410Y022450D01*
X013510Y022450D01*
X013510Y021950D01*
X012410Y021950D01*
X012410Y022450D01*
X013510Y022450D01*
X014210Y022120D02*
X015310Y022120D01*
X015310Y021620D01*
X014210Y021620D01*
X014210Y022120D01*
X014210Y021550D02*
X014210Y021050D01*
X015310Y021050D01*
X015310Y021550D01*
X014210Y021550D01*
X014235Y020980D02*
X014235Y020480D01*
X015285Y020480D01*
X015285Y020980D01*
X014235Y020980D01*
X014710Y020880D02*
X014760Y020805D01*
X014760Y020655D01*
X014810Y020730D01*
X014760Y020805D01*
X014735Y020830D02*
X014735Y020630D01*
X014760Y020655D02*
X014710Y020580D01*
X014710Y020880D01*
X013538Y021080D02*
X013538Y019517D01*
X013015Y019513D02*
X012897Y019513D01*
X012357Y019517D02*
X012357Y021080D01*
X012900Y021091D02*
X013019Y021091D01*
X011230Y020190D02*
X010780Y020190D01*
X010780Y019640D01*
X005330Y019640D01*
X005330Y020636D01*
X005329Y020637D02*
X005330Y020694D01*
X005335Y020752D01*
X005342Y020809D01*
X005353Y020865D01*
X005366Y020921D01*
X005382Y020976D01*
X005401Y021031D01*
X005730Y022810D02*
X005730Y025540D01*
X011230Y025540D01*
X011230Y020190D01*
X005402Y021030D02*
X005450Y021162D01*
X005495Y021294D01*
X005535Y021428D01*
X005572Y021563D01*
X005605Y021699D01*
X005634Y021836D01*
X005660Y021974D01*
X005681Y022112D01*
X005699Y022251D01*
X005712Y022391D01*
X005722Y022530D01*
X005728Y022670D01*
X005730Y022810D01*
D15*
X005618Y025550D02*
X010500Y025550D01*
X010500Y025156D01*
X008405Y026720D02*
X008407Y026733D01*
X008412Y026744D01*
X008421Y026754D01*
X008431Y026761D01*
X008444Y026765D01*
X008456Y026765D01*
X008469Y026761D01*
X008479Y026754D01*
X008488Y026744D01*
X008493Y026733D01*
X008495Y026720D01*
X008493Y026707D01*
X008488Y026696D01*
X008479Y026686D01*
X008469Y026679D01*
X008456Y026675D01*
X008444Y026675D01*
X008431Y026679D01*
X008421Y026686D01*
X008412Y026696D01*
X008407Y026707D01*
X008405Y026720D01*
X007405Y026720D02*
X007407Y026733D01*
X007412Y026744D01*
X007421Y026754D01*
X007431Y026761D01*
X007444Y026765D01*
X007456Y026765D01*
X007469Y026761D01*
X007479Y026754D01*
X007488Y026744D01*
X007493Y026733D01*
X007495Y026720D01*
X007493Y026707D01*
X007488Y026696D01*
X007479Y026686D01*
X007469Y026679D01*
X007456Y026675D01*
X007444Y026675D01*
X007431Y026679D01*
X007421Y026686D01*
X007412Y026696D01*
X007407Y026707D01*
X007405Y026720D01*
X006405Y026720D02*
X006407Y026733D01*
X006412Y026744D01*
X006421Y026754D01*
X006431Y026761D01*
X006444Y026765D01*
X006456Y026765D01*
X006469Y026761D01*
X006479Y026754D01*
X006488Y026744D01*
X006493Y026733D01*
X006495Y026720D01*
X006493Y026707D01*
X006488Y026696D01*
X006479Y026686D01*
X006469Y026679D01*
X006456Y026675D01*
X006444Y026675D01*
X006431Y026679D01*
X006421Y026686D01*
X006412Y026696D01*
X006407Y026707D01*
X006405Y026720D01*
X005405Y026720D02*
X005407Y026733D01*
X005412Y026744D01*
X005421Y026754D01*
X005431Y026761D01*
X005444Y026765D01*
X005456Y026765D01*
X005469Y026761D01*
X005479Y026754D01*
X005488Y026744D01*
X005493Y026733D01*
X005495Y026720D01*
X005493Y026707D01*
X005488Y026696D01*
X005479Y026686D01*
X005469Y026679D01*
X005456Y026675D01*
X005444Y026675D01*
X005431Y026679D01*
X005421Y026686D01*
X005412Y026696D01*
X005407Y026707D01*
X005405Y026720D01*
X005407Y026733D01*
X005412Y026744D01*
X005421Y026754D01*
X005431Y026761D01*
X005444Y026765D01*
X005456Y026765D01*
X005469Y026761D01*
X005479Y026754D01*
X005488Y026744D01*
X005493Y026733D01*
X005495Y026720D01*
X005493Y026707D01*
X005488Y026696D01*
X005479Y026686D01*
X005469Y026679D01*
X005456Y026675D01*
X005444Y026675D01*
X005431Y026679D01*
X005421Y026686D01*
X005412Y026696D01*
X005407Y026707D01*
X005405Y026720D01*
X010500Y022085D02*
X010500Y020038D01*
X005263Y020038D01*
X006105Y018820D02*
X006107Y018833D01*
X006112Y018844D01*
X006121Y018854D01*
X006131Y018861D01*
X006144Y018865D01*
X006156Y018865D01*
X006169Y018861D01*
X006179Y018854D01*
X006188Y018844D01*
X006193Y018833D01*
X006195Y018820D01*
X006193Y018807D01*
X006188Y018796D01*
X006179Y018786D01*
X006169Y018779D01*
X006156Y018775D01*
X006144Y018775D01*
X006131Y018779D01*
X006121Y018786D01*
X006112Y018796D01*
X006107Y018807D01*
X006105Y018820D01*
X007105Y018820D02*
X007107Y018833D01*
X007112Y018844D01*
X007121Y018854D01*
X007131Y018861D01*
X007144Y018865D01*
X007156Y018865D01*
X007169Y018861D01*
X007179Y018854D01*
X007188Y018844D01*
X007193Y018833D01*
X007195Y018820D01*
X007193Y018807D01*
X007188Y018796D01*
X007179Y018786D01*
X007169Y018779D01*
X007156Y018775D01*
X007144Y018775D01*
X007131Y018779D01*
X007121Y018786D01*
X007112Y018796D01*
X007107Y018807D01*
X007105Y018820D01*
X008105Y018820D02*
X008107Y018833D01*
X008112Y018844D01*
X008121Y018854D01*
X008131Y018861D01*
X008144Y018865D01*
X008156Y018865D01*
X008169Y018861D01*
X008179Y018854D01*
X008188Y018844D01*
X008193Y018833D01*
X008195Y018820D01*
X008193Y018807D01*
X008188Y018796D01*
X008179Y018786D01*
X008169Y018779D01*
X008156Y018775D01*
X008144Y018775D01*
X008131Y018779D01*
X008121Y018786D01*
X008112Y018796D01*
X008107Y018807D01*
X008105Y018820D01*
X009005Y018820D02*
X009007Y018833D01*
X009012Y018844D01*
X009021Y018854D01*
X009031Y018861D01*
X009044Y018865D01*
X009056Y018865D01*
X009069Y018861D01*
X009079Y018854D01*
X009088Y018844D01*
X009093Y018833D01*
X009095Y018820D01*
X009093Y018807D01*
X009088Y018796D01*
X009079Y018786D01*
X009069Y018779D01*
X009056Y018775D01*
X009044Y018775D01*
X009031Y018779D01*
X009021Y018786D01*
X009012Y018796D01*
X009007Y018807D01*
X009005Y018820D01*
X009695Y019300D02*
X009697Y019313D01*
X009702Y019324D01*
X009711Y019334D01*
X009721Y019341D01*
X009734Y019345D01*
X009746Y019345D01*
X009759Y019341D01*
X009769Y019334D01*
X009778Y019324D01*
X009783Y019313D01*
X009785Y019300D01*
X009783Y019287D01*
X009778Y019276D01*
X009769Y019266D01*
X009759Y019259D01*
X009746Y019255D01*
X009734Y019255D01*
X009721Y019259D01*
X009711Y019266D01*
X009702Y019276D01*
X009697Y019287D01*
X009695Y019300D01*
X010775Y019270D02*
X010777Y019283D01*
X010782Y019294D01*
X010791Y019304D01*
X010801Y019311D01*
X010814Y019315D01*
X010826Y019315D01*
X010839Y019311D01*
X010849Y019304D01*
X010858Y019294D01*
X010863Y019283D01*
X010865Y019270D01*
X010863Y019257D01*
X010858Y019246D01*
X010849Y019236D01*
X010839Y019229D01*
X010826Y019225D01*
X010814Y019225D01*
X010801Y019229D01*
X010791Y019236D01*
X010782Y019246D01*
X010777Y019257D01*
X010775Y019270D01*
X011685Y019870D02*
X011687Y019883D01*
X011692Y019894D01*
X011701Y019904D01*
X011711Y019911D01*
X011724Y019915D01*
X011736Y019915D01*
X011749Y019911D01*
X011759Y019904D01*
X011768Y019894D01*
X011773Y019883D01*
X011775Y019870D01*
X011773Y019857D01*
X011768Y019846D01*
X011759Y019836D01*
X011749Y019829D01*
X011736Y019825D01*
X011724Y019825D01*
X011711Y019829D01*
X011701Y019836D01*
X011692Y019846D01*
X011687Y019857D01*
X011685Y019870D01*
X013255Y019090D02*
X013257Y019103D01*
X013262Y019114D01*
X013271Y019124D01*
X013281Y019131D01*
X013294Y019135D01*
X013306Y019135D01*
X013319Y019131D01*
X013329Y019124D01*
X013338Y019114D01*
X013343Y019103D01*
X013345Y019090D01*
X013343Y019077D01*
X013338Y019066D01*
X013329Y019056D01*
X013319Y019049D01*
X013306Y019045D01*
X013294Y019045D01*
X013281Y019049D01*
X013271Y019056D01*
X013262Y019066D01*
X013257Y019077D01*
X013255Y019090D01*
X014005Y018870D02*
X014007Y018883D01*
X014012Y018894D01*
X014021Y018904D01*
X014031Y018911D01*
X014044Y018915D01*
X014056Y018915D01*
X014069Y018911D01*
X014079Y018904D01*
X014088Y018894D01*
X014093Y018883D01*
X014095Y018870D01*
X014093Y018857D01*
X014088Y018846D01*
X014079Y018836D01*
X014069Y018829D01*
X014056Y018825D01*
X014044Y018825D01*
X014031Y018829D01*
X014021Y018836D01*
X014012Y018846D01*
X014007Y018857D01*
X014005Y018870D01*
X017370Y021068D02*
X017527Y020910D01*
X020992Y020910D01*
X021149Y021068D01*
X021149Y024532D01*
X020992Y024690D01*
X017527Y024690D01*
X017370Y024532D01*
X017370Y021068D01*
X017735Y019620D02*
X017737Y019633D01*
X017742Y019644D01*
X017751Y019654D01*
X017761Y019661D01*
X017774Y019665D01*
X017786Y019665D01*
X017799Y019661D01*
X017809Y019654D01*
X017818Y019644D01*
X017823Y019633D01*
X017825Y019620D01*
X017823Y019607D01*
X017818Y019596D01*
X017809Y019586D01*
X017799Y019579D01*
X017786Y019575D01*
X017774Y019575D01*
X017761Y019579D01*
X017751Y019586D01*
X017742Y019596D01*
X017737Y019607D01*
X017735Y019620D01*
X018675Y019650D02*
X018677Y019663D01*
X018682Y019674D01*
X018691Y019684D01*
X018701Y019691D01*
X018714Y019695D01*
X018726Y019695D01*
X018739Y019691D01*
X018749Y019684D01*
X018758Y019674D01*
X018763Y019663D01*
X018765Y019650D01*
X018763Y019637D01*
X018758Y019626D01*
X018749Y019616D01*
X018739Y019609D01*
X018726Y019605D01*
X018714Y019605D01*
X018701Y019609D01*
X018691Y019616D01*
X018682Y019626D01*
X018677Y019637D01*
X018675Y019650D01*
X019815Y019520D02*
X019817Y019533D01*
X019822Y019544D01*
X019831Y019554D01*
X019841Y019561D01*
X019854Y019565D01*
X019866Y019565D01*
X019879Y019561D01*
X019889Y019554D01*
X019898Y019544D01*
X019903Y019533D01*
X019905Y019520D01*
X019903Y019507D01*
X019898Y019496D01*
X019889Y019486D01*
X019879Y019479D01*
X019866Y019475D01*
X019854Y019475D01*
X019841Y019479D01*
X019831Y019486D01*
X019822Y019496D01*
X019817Y019507D01*
X019815Y019520D01*
X020715Y019520D02*
X020717Y019533D01*
X020722Y019544D01*
X020731Y019554D01*
X020741Y019561D01*
X020754Y019565D01*
X020766Y019565D01*
X020779Y019561D01*
X020789Y019554D01*
X020798Y019544D01*
X020803Y019533D01*
X020805Y019520D01*
X020803Y019507D01*
X020798Y019496D01*
X020789Y019486D01*
X020779Y019479D01*
X020766Y019475D01*
X020754Y019475D01*
X020741Y019479D01*
X020731Y019486D01*
X020722Y019496D01*
X020717Y019507D01*
X020715Y019520D01*
X021715Y019520D02*
X021717Y019533D01*
X021722Y019544D01*
X021731Y019554D01*
X021741Y019561D01*
X021754Y019565D01*
X021766Y019565D01*
X021779Y019561D01*
X021789Y019554D01*
X021798Y019544D01*
X021803Y019533D01*
X021805Y019520D01*
X021803Y019507D01*
X021798Y019496D01*
X021789Y019486D01*
X021779Y019479D01*
X021766Y019475D01*
X021754Y019475D01*
X021741Y019479D01*
X021731Y019486D01*
X021722Y019496D01*
X021717Y019507D01*
X021715Y019520D01*
X022715Y019520D02*
X022717Y019533D01*
X022722Y019544D01*
X022731Y019554D01*
X022741Y019561D01*
X022754Y019565D01*
X022766Y019565D01*
X022779Y019561D01*
X022789Y019554D01*
X022798Y019544D01*
X022803Y019533D01*
X022805Y019520D01*
X022803Y019507D01*
X022798Y019496D01*
X022789Y019486D01*
X022779Y019479D01*
X022766Y019475D01*
X022754Y019475D01*
X022741Y019479D01*
X022731Y019486D01*
X022722Y019496D01*
X022717Y019507D01*
X022715Y019520D01*
X022717Y019533D01*
X022722Y019544D01*
X022731Y019554D01*
X022741Y019561D01*
X022754Y019565D01*
X022766Y019565D01*
X022779Y019561D01*
X022789Y019554D01*
X022798Y019544D01*
X022803Y019533D01*
X022805Y019520D01*
X022803Y019507D01*
X022798Y019496D01*
X022789Y019486D01*
X022779Y019479D01*
X022766Y019475D01*
X022754Y019475D01*
X022741Y019479D01*
X022731Y019486D01*
X022722Y019496D01*
X022717Y019507D01*
X022715Y019520D01*
X023715Y019520D02*
X023717Y019533D01*
X023722Y019544D01*
X023731Y019554D01*
X023741Y019561D01*
X023754Y019565D01*
X023766Y019565D01*
X023779Y019561D01*
X023789Y019554D01*
X023798Y019544D01*
X023803Y019533D01*
X023805Y019520D01*
X023803Y019507D01*
X023798Y019496D01*
X023789Y019486D01*
X023779Y019479D01*
X023766Y019475D01*
X023754Y019475D01*
X023741Y019479D01*
X023731Y019486D01*
X023722Y019496D01*
X023717Y019507D01*
X023715Y019520D01*
X024715Y019520D02*
X024717Y019533D01*
X024722Y019544D01*
X024731Y019554D01*
X024741Y019561D01*
X024754Y019565D01*
X024766Y019565D01*
X024779Y019561D01*
X024789Y019554D01*
X024798Y019544D01*
X024803Y019533D01*
X024805Y019520D01*
X024803Y019507D01*
X024798Y019496D01*
X024789Y019486D01*
X024779Y019479D01*
X024766Y019475D01*
X024754Y019475D01*
X024741Y019479D01*
X024731Y019486D01*
X024722Y019496D01*
X024717Y019507D01*
X024715Y019520D01*
X025715Y019520D02*
X025717Y019533D01*
X025722Y019544D01*
X025731Y019554D01*
X025741Y019561D01*
X025754Y019565D01*
X025766Y019565D01*
X025779Y019561D01*
X025789Y019554D01*
X025798Y019544D01*
X025803Y019533D01*
X025805Y019520D01*
X025803Y019507D01*
X025798Y019496D01*
X025789Y019486D01*
X025779Y019479D01*
X025766Y019475D01*
X025754Y019475D01*
X025741Y019479D01*
X025731Y019486D01*
X025722Y019496D01*
X025717Y019507D01*
X025715Y019520D01*
X026715Y019520D02*
X026717Y019533D01*
X026722Y019544D01*
X026731Y019554D01*
X026741Y019561D01*
X026754Y019565D01*
X026766Y019565D01*
X026779Y019561D01*
X026789Y019554D01*
X026798Y019544D01*
X026803Y019533D01*
X026805Y019520D01*
X026803Y019507D01*
X026798Y019496D01*
X026789Y019486D01*
X026779Y019479D01*
X026766Y019475D01*
X026754Y019475D01*
X026741Y019479D01*
X026731Y019486D01*
X026722Y019496D01*
X026717Y019507D01*
X026715Y019520D01*
X026855Y020600D02*
X026995Y020600D01*
X026925Y020600D02*
X026925Y020880D01*
X026855Y020880D01*
X026925Y021020D02*
X026925Y021090D01*
X027162Y020880D02*
X027372Y020880D01*
X027442Y020810D01*
X027442Y020600D01*
X027622Y020670D02*
X027692Y020600D01*
X027832Y020600D01*
X027902Y020670D01*
X027902Y020810D01*
X027832Y020880D01*
X027692Y020880D01*
X027622Y020810D01*
X027622Y020670D01*
X028082Y020670D02*
X028153Y020600D01*
X028293Y020600D01*
X028363Y020670D01*
X028363Y020740D01*
X028293Y020810D01*
X028153Y020810D01*
X028082Y020880D01*
X028082Y020950D01*
X028153Y021020D01*
X028293Y021020D01*
X028363Y020950D01*
X028543Y021020D02*
X028753Y021020D01*
X028823Y020950D01*
X028823Y020670D01*
X028753Y020600D01*
X028543Y020600D01*
X028543Y021020D01*
X029003Y021020D02*
X029283Y021020D01*
X029283Y020950D01*
X029003Y020670D01*
X029003Y020600D01*
X029283Y020600D01*
X028413Y021925D02*
X028413Y022555D01*
X028408Y022571D01*
X028400Y022587D01*
X028390Y022601D01*
X028378Y022613D01*
X028363Y022623D01*
X028347Y022630D01*
X028330Y022634D01*
X028313Y022635D01*
X028295Y022633D01*
X027744Y022633D02*
X027724Y022635D01*
X027705Y022633D01*
X027686Y022627D01*
X027669Y022618D01*
X027653Y022606D01*
X027641Y022591D01*
X027632Y022573D01*
X027626Y022555D01*
X027626Y021925D01*
X027632Y021907D01*
X027641Y021889D01*
X027653Y021874D01*
X027669Y021862D01*
X027686Y021853D01*
X027705Y021847D01*
X027724Y021845D01*
X027744Y021847D01*
X027615Y021646D02*
X027615Y022197D01*
X027104Y022197D01*
X027104Y021646D01*
X026915Y021646D02*
X026915Y022197D01*
X026404Y022197D01*
X026404Y021646D01*
X026404Y022197D02*
X026404Y022354D01*
X026915Y022354D02*
X026915Y022197D01*
X027104Y022197D02*
X027104Y022354D01*
X027615Y022354D02*
X027615Y022197D01*
X028295Y021847D02*
X028313Y021845D01*
X028330Y021846D01*
X028347Y021850D01*
X028363Y021857D01*
X028378Y021867D01*
X028390Y021879D01*
X028400Y021893D01*
X028408Y021909D01*
X028413Y021925D01*
X027162Y020880D02*
X027162Y020600D01*
X026681Y020880D02*
X026611Y020880D01*
X026471Y020740D01*
X026471Y020600D02*
X026471Y020880D01*
X026291Y020810D02*
X026291Y020600D01*
X026081Y020600D01*
X026011Y020670D01*
X026081Y020740D01*
X026291Y020740D01*
X026291Y020810D02*
X026221Y020880D01*
X026081Y020880D01*
X025831Y020810D02*
X025760Y020880D01*
X025550Y020880D01*
X025550Y021020D02*
X025550Y020600D01*
X025760Y020600D01*
X025831Y020670D01*
X025831Y020810D01*
X025370Y020880D02*
X025370Y020600D01*
X025160Y020600D01*
X025090Y020670D01*
X025090Y020880D01*
X024910Y021020D02*
X024630Y021020D01*
X024630Y020600D01*
X024630Y020810D02*
X024770Y020810D01*
X026260Y025310D02*
X026190Y025370D01*
X026250Y025460D01*
X026210Y025550D01*
X026110Y025570D01*
X026110Y025660D01*
X026220Y025680D01*
X026250Y025770D01*
X026190Y025860D01*
X026260Y025930D01*
X026350Y025860D01*
X026430Y025900D01*
X026460Y026010D01*
X026550Y026010D01*
X026570Y025900D01*
X026650Y025860D01*
X026740Y025930D01*
X026810Y025860D01*
X026750Y025770D01*
X026790Y025680D01*
X026890Y025660D01*
X026890Y025570D01*
X026790Y025550D01*
X026750Y025460D01*
X026810Y025370D01*
X026740Y025310D01*
X026660Y025370D01*
X026620Y025350D01*
X026560Y025510D01*
X026440Y025510D02*
X026380Y025350D01*
X026340Y025370D01*
X026260Y025310D01*
X026440Y025510D02*
X026423Y025522D01*
X026408Y025537D01*
X026395Y025554D01*
X026386Y025573D01*
X026381Y025594D01*
X026379Y025615D01*
X026381Y025636D01*
X026386Y025656D01*
X026395Y025675D01*
X026407Y025693D01*
X026422Y025708D01*
X026439Y025720D01*
X026459Y025729D01*
X026479Y025734D01*
X026500Y025736D01*
X026521Y025734D01*
X026541Y025729D01*
X026561Y025720D01*
X026578Y025708D01*
X026593Y025693D01*
X026605Y025675D01*
X026614Y025656D01*
X026619Y025636D01*
X026621Y025615D01*
X026619Y025594D01*
X026614Y025573D01*
X026605Y025554D01*
X026592Y025537D01*
X026577Y025522D01*
X026560Y025510D01*
X027690Y025660D02*
X027690Y025210D01*
X028240Y025210D01*
X028240Y025460D01*
X028140Y025460D01*
X028140Y025260D01*
X028240Y025210D02*
X028690Y025210D01*
X028690Y025660D01*
X028190Y025660D01*
X027940Y025910D01*
X027690Y025660D01*
X027690Y025960D01*
X028640Y025960D01*
X028640Y026110D01*
X028690Y026110D01*
X028690Y025660D01*
X028325Y026810D02*
X028327Y026823D01*
X028332Y026834D01*
X028341Y026844D01*
X028351Y026851D01*
X028364Y026855D01*
X028376Y026855D01*
X028389Y026851D01*
X028399Y026844D01*
X028408Y026834D01*
X028413Y026823D01*
X028415Y026810D01*
X028413Y026797D01*
X028408Y026786D01*
X028399Y026776D01*
X028389Y026769D01*
X028376Y026765D01*
X028364Y026765D01*
X028351Y026769D01*
X028341Y026776D01*
X028332Y026786D01*
X028327Y026797D01*
X028325Y026810D01*
X016405Y026720D02*
X016407Y026733D01*
X016412Y026744D01*
X016421Y026754D01*
X016431Y026761D01*
X016444Y026765D01*
X016456Y026765D01*
X016469Y026761D01*
X016479Y026754D01*
X016488Y026744D01*
X016493Y026733D01*
X016495Y026720D01*
X016493Y026707D01*
X016488Y026696D01*
X016479Y026686D01*
X016469Y026679D01*
X016456Y026675D01*
X016444Y026675D01*
X016431Y026679D01*
X016421Y026686D01*
X016412Y026696D01*
X016407Y026707D01*
X016405Y026720D01*
X015405Y026720D02*
X015407Y026733D01*
X015412Y026744D01*
X015421Y026754D01*
X015431Y026761D01*
X015444Y026765D01*
X015456Y026765D01*
X015469Y026761D01*
X015479Y026754D01*
X015488Y026744D01*
X015493Y026733D01*
X015495Y026720D01*
X015493Y026707D01*
X015488Y026696D01*
X015479Y026686D01*
X015469Y026679D01*
X015456Y026675D01*
X015444Y026675D01*
X015431Y026679D01*
X015421Y026686D01*
X015412Y026696D01*
X015407Y026707D01*
X015405Y026720D01*
D16*
X025075Y020209D02*
X025212Y020345D01*
X025212Y019935D01*
X025348Y019935D02*
X025075Y019935D01*
X024751Y019935D02*
X024888Y020209D01*
X024615Y020209D02*
X024751Y019935D01*
X025535Y019935D02*
X025604Y019935D01*
X025604Y020003D01*
X025535Y020003D01*
X025535Y019935D01*
X025765Y020003D02*
X026039Y020277D01*
X026039Y020003D01*
X025971Y019935D01*
X025834Y019935D01*
X025765Y020003D01*
X025765Y020277D01*
X025834Y020345D01*
X025971Y020345D01*
X026039Y020277D01*
D17*
X010500Y022912D02*
X010500Y024330D01*
X004870Y025038D02*
X004870Y021770D01*
X004437Y021770D01*
X004437Y020550D01*
X005224Y020353D02*
X005263Y020353D01*
X005263Y020038D01*
D18*
X022241Y023893D02*
X022309Y023893D01*
X022310Y023891D02*
X022241Y023891D01*
X022241Y023893D02*
X022253Y023850D01*
X022276Y023814D01*
X022296Y023795D01*
X022339Y023767D01*
X022378Y023759D01*
X022457Y023759D01*
X022489Y023767D01*
X022508Y023775D01*
X022501Y023822D01*
X022493Y023822D01*
X022453Y023814D01*
X022394Y023810D01*
X022375Y023822D01*
X022343Y023838D01*
X022327Y023858D01*
X022315Y023877D01*
X022304Y023905D01*
X022304Y023964D01*
X022315Y023992D01*
X022327Y024011D01*
X022343Y024027D01*
X022367Y024043D01*
X022394Y024055D01*
X022457Y024055D01*
X022497Y024047D01*
X022508Y024094D01*
X022508Y024098D01*
X022493Y024106D01*
X022461Y024114D01*
X022386Y024114D01*
X022359Y024106D01*
X022335Y024094D01*
X022315Y024086D01*
X022506Y024086D01*
X022507Y024088D02*
X022321Y024088D01*
X022315Y024086D02*
X022288Y024066D01*
X022501Y024066D01*
X022501Y024064D02*
X022286Y024064D01*
X022285Y024061D02*
X022500Y024061D01*
X022500Y024059D02*
X022283Y024059D01*
X022281Y024056D02*
X022499Y024056D01*
X022498Y024054D02*
X022460Y024054D01*
X022472Y024052D02*
X022498Y024052D01*
X022497Y024049D02*
X022484Y024049D01*
X022502Y024069D02*
X022291Y024069D01*
X022288Y024066D02*
X022272Y024043D01*
X022253Y024011D01*
X022241Y023980D01*
X022241Y023893D01*
X022241Y023896D02*
X022308Y023896D01*
X022307Y023898D02*
X022241Y023898D01*
X022241Y023900D02*
X022306Y023900D01*
X022305Y023903D02*
X022241Y023903D01*
X022241Y023905D02*
X022304Y023905D01*
X022304Y023908D02*
X022241Y023908D01*
X022241Y023910D02*
X022304Y023910D01*
X022304Y023913D02*
X022241Y023913D01*
X022241Y023915D02*
X022304Y023915D01*
X022304Y023918D02*
X022241Y023918D01*
X022241Y023920D02*
X022304Y023920D01*
X022304Y023922D02*
X022241Y023922D01*
X022241Y023925D02*
X022304Y023925D01*
X022304Y023927D02*
X022241Y023927D01*
X022241Y023930D02*
X022304Y023930D01*
X022304Y023932D02*
X022241Y023932D01*
X022241Y023935D02*
X022304Y023935D01*
X022304Y023937D02*
X022241Y023937D01*
X022241Y023939D02*
X022304Y023939D01*
X022304Y023942D02*
X022241Y023942D01*
X022241Y023944D02*
X022304Y023944D01*
X022304Y023947D02*
X022241Y023947D01*
X022241Y023949D02*
X022304Y023949D01*
X022304Y023952D02*
X022241Y023952D01*
X022241Y023954D02*
X022304Y023954D01*
X022304Y023957D02*
X022241Y023957D01*
X022241Y023959D02*
X022304Y023959D01*
X022304Y023961D02*
X022241Y023961D01*
X022241Y023964D02*
X022304Y023964D01*
X022305Y023966D02*
X022241Y023966D01*
X022241Y023969D02*
X022306Y023969D01*
X022307Y023971D02*
X022241Y023971D01*
X022241Y023974D02*
X022308Y023974D01*
X022309Y023976D02*
X022241Y023976D01*
X022241Y023978D02*
X022310Y023978D01*
X022311Y023981D02*
X022241Y023981D01*
X022242Y023983D02*
X022312Y023983D01*
X022313Y023986D02*
X022243Y023986D01*
X022244Y023988D02*
X022314Y023988D01*
X022315Y023991D02*
X022245Y023991D01*
X022246Y023993D02*
X022316Y023993D01*
X022318Y023995D02*
X022247Y023995D01*
X022248Y023998D02*
X022319Y023998D01*
X022321Y024000D02*
X022248Y024000D01*
X022249Y024003D02*
X022322Y024003D01*
X022324Y024005D02*
X022250Y024005D01*
X022251Y024008D02*
X022325Y024008D01*
X022327Y024010D02*
X022252Y024010D01*
X022253Y024013D02*
X022329Y024013D01*
X022331Y024015D02*
X022255Y024015D01*
X022256Y024017D02*
X022333Y024017D01*
X022336Y024020D02*
X022258Y024020D01*
X022259Y024022D02*
X022338Y024022D01*
X022341Y024025D02*
X022261Y024025D01*
X022262Y024027D02*
X022343Y024027D01*
X022347Y024030D02*
X022264Y024030D01*
X022266Y024032D02*
X022351Y024032D01*
X022354Y024034D02*
X022267Y024034D01*
X022269Y024037D02*
X022358Y024037D01*
X022362Y024039D02*
X022270Y024039D01*
X022272Y024042D02*
X022365Y024042D01*
X022370Y024044D02*
X022273Y024044D01*
X022275Y024047D02*
X022376Y024047D01*
X022382Y024049D02*
X022276Y024049D01*
X022278Y024052D02*
X022387Y024052D01*
X022393Y024054D02*
X022280Y024054D01*
X022294Y024071D02*
X022503Y024071D01*
X022503Y024073D02*
X022298Y024073D01*
X022301Y024076D02*
X022504Y024076D01*
X022505Y024078D02*
X022305Y024078D01*
X022308Y024081D02*
X022505Y024081D01*
X022506Y024083D02*
X022312Y024083D01*
X022327Y024091D02*
X022508Y024091D01*
X022508Y024093D02*
X022333Y024093D01*
X022338Y024095D02*
X022508Y024095D01*
X022508Y024098D02*
X022343Y024098D01*
X022348Y024100D02*
X022504Y024100D01*
X022499Y024103D02*
X022353Y024103D01*
X022358Y024105D02*
X022494Y024105D01*
X022485Y024108D02*
X022365Y024108D01*
X022374Y024110D02*
X022475Y024110D01*
X022466Y024112D02*
X022382Y024112D01*
X022571Y024112D02*
X022634Y024112D01*
X022634Y024110D02*
X022571Y024110D01*
X022571Y024108D02*
X022634Y024108D01*
X022634Y024105D02*
X022571Y024105D01*
X022571Y024103D02*
X022634Y024103D01*
X022634Y024100D02*
X022571Y024100D01*
X022571Y024098D02*
X022634Y024098D01*
X022634Y024095D02*
X022571Y024095D01*
X022571Y024093D02*
X022634Y024093D01*
X022634Y024091D02*
X022571Y024091D01*
X022571Y024088D02*
X022634Y024088D01*
X022634Y024086D02*
X022571Y024086D01*
X022571Y024083D02*
X022634Y024083D01*
X022634Y024081D02*
X022571Y024081D01*
X022571Y024078D02*
X022634Y024078D01*
X022634Y024076D02*
X022571Y024076D01*
X022571Y024073D02*
X022634Y024073D01*
X022634Y024071D02*
X022571Y024071D01*
X022571Y024069D02*
X022634Y024069D01*
X022634Y024066D02*
X022571Y024066D01*
X022571Y024064D02*
X022634Y024064D01*
X022634Y024061D02*
X022571Y024061D01*
X022571Y024059D02*
X022634Y024059D01*
X022634Y024263D01*
X022571Y024263D01*
X022571Y023767D01*
X022634Y023767D01*
X022634Y023988D01*
X022650Y024019D01*
X022674Y024043D01*
X022697Y024051D01*
X022753Y024051D01*
X022776Y024039D01*
X022792Y024015D01*
X022863Y024015D01*
X022863Y024017D02*
X022790Y024017D01*
X022792Y024015D02*
X022800Y023999D01*
X022800Y023767D01*
X022863Y023767D01*
X022863Y024019D01*
X022855Y024043D01*
X022847Y024059D01*
X022639Y024059D01*
X022638Y024059D02*
X022634Y024059D01*
X022638Y024059D02*
X022650Y024074D01*
X022666Y024090D01*
X022697Y024106D01*
X022725Y024114D01*
X022764Y024114D01*
X022776Y024110D01*
X022796Y024102D01*
X022812Y024094D01*
X022823Y024086D01*
X022839Y024070D01*
X022847Y024059D01*
X022848Y024056D02*
X022571Y024056D01*
X022571Y024054D02*
X022849Y024054D01*
X022850Y024052D02*
X022571Y024052D01*
X022571Y024049D02*
X022693Y024049D01*
X022686Y024047D02*
X022571Y024047D01*
X022571Y024044D02*
X022678Y024044D01*
X022673Y024042D02*
X022571Y024042D01*
X022571Y024039D02*
X022670Y024039D01*
X022668Y024037D02*
X022571Y024037D01*
X022571Y024034D02*
X022666Y024034D01*
X022663Y024032D02*
X022571Y024032D01*
X022571Y024030D02*
X022661Y024030D01*
X022658Y024027D02*
X022571Y024027D01*
X022571Y024025D02*
X022656Y024025D01*
X022653Y024022D02*
X022571Y024022D01*
X022571Y024020D02*
X022651Y024020D01*
X022649Y024017D02*
X022571Y024017D01*
X022571Y024015D02*
X022648Y024015D01*
X022647Y024013D02*
X022571Y024013D01*
X022571Y024010D02*
X022646Y024010D01*
X022644Y024008D02*
X022571Y024008D01*
X022571Y024005D02*
X022643Y024005D01*
X022642Y024003D02*
X022571Y024003D01*
X022571Y024000D02*
X022641Y024000D01*
X022640Y023998D02*
X022571Y023998D01*
X022571Y023995D02*
X022638Y023995D01*
X022637Y023993D02*
X022571Y023993D01*
X022571Y023991D02*
X022636Y023991D01*
X022635Y023988D02*
X022571Y023988D01*
X022571Y023986D02*
X022634Y023986D01*
X022634Y023983D02*
X022571Y023983D01*
X022571Y023981D02*
X022634Y023981D01*
X022634Y023978D02*
X022571Y023978D01*
X022571Y023976D02*
X022634Y023976D01*
X022634Y023974D02*
X022571Y023974D01*
X022571Y023971D02*
X022634Y023971D01*
X022634Y023969D02*
X022571Y023969D01*
X022571Y023966D02*
X022634Y023966D01*
X022634Y023964D02*
X022571Y023964D01*
X022571Y023961D02*
X022634Y023961D01*
X022634Y023959D02*
X022571Y023959D01*
X022571Y023957D02*
X022634Y023957D01*
X022634Y023954D02*
X022571Y023954D01*
X022571Y023952D02*
X022634Y023952D01*
X022634Y023949D02*
X022571Y023949D01*
X022571Y023947D02*
X022634Y023947D01*
X022634Y023944D02*
X022571Y023944D01*
X022571Y023942D02*
X022634Y023942D01*
X022634Y023939D02*
X022571Y023939D01*
X022571Y023937D02*
X022634Y023937D01*
X022634Y023935D02*
X022571Y023935D01*
X022571Y023932D02*
X022634Y023932D01*
X022634Y023930D02*
X022571Y023930D01*
X022571Y023927D02*
X022634Y023927D01*
X022634Y023925D02*
X022571Y023925D01*
X022571Y023922D02*
X022634Y023922D01*
X022634Y023920D02*
X022571Y023920D01*
X022571Y023918D02*
X022634Y023918D01*
X022634Y023915D02*
X022571Y023915D01*
X022571Y023913D02*
X022634Y023913D01*
X022634Y023910D02*
X022571Y023910D01*
X022571Y023908D02*
X022634Y023908D01*
X022634Y023905D02*
X022571Y023905D01*
X022571Y023903D02*
X022634Y023903D01*
X022634Y023900D02*
X022571Y023900D01*
X022571Y023898D02*
X022634Y023898D01*
X022634Y023896D02*
X022571Y023896D01*
X022571Y023893D02*
X022634Y023893D01*
X022634Y023891D02*
X022571Y023891D01*
X022571Y023888D02*
X022634Y023888D01*
X022634Y023886D02*
X022571Y023886D01*
X022571Y023883D02*
X022634Y023883D01*
X022634Y023881D02*
X022571Y023881D01*
X022571Y023879D02*
X022634Y023879D01*
X022634Y023876D02*
X022571Y023876D01*
X022571Y023874D02*
X022634Y023874D01*
X022634Y023871D02*
X022571Y023871D01*
X022571Y023869D02*
X022634Y023869D01*
X022634Y023866D02*
X022571Y023866D01*
X022571Y023864D02*
X022634Y023864D01*
X022634Y023861D02*
X022571Y023861D01*
X022571Y023859D02*
X022634Y023859D01*
X022634Y023857D02*
X022571Y023857D01*
X022571Y023854D02*
X022634Y023854D01*
X022634Y023852D02*
X022571Y023852D01*
X022571Y023849D02*
X022634Y023849D01*
X022634Y023847D02*
X022571Y023847D01*
X022571Y023844D02*
X022634Y023844D01*
X022634Y023842D02*
X022571Y023842D01*
X022571Y023840D02*
X022634Y023840D01*
X022634Y023837D02*
X022571Y023837D01*
X022571Y023835D02*
X022634Y023835D01*
X022634Y023832D02*
X022571Y023832D01*
X022571Y023830D02*
X022634Y023830D01*
X022634Y023827D02*
X022571Y023827D01*
X022571Y023825D02*
X022634Y023825D01*
X022634Y023822D02*
X022571Y023822D01*
X022571Y023820D02*
X022634Y023820D01*
X022634Y023818D02*
X022571Y023818D01*
X022571Y023815D02*
X022634Y023815D01*
X022634Y023813D02*
X022571Y023813D01*
X022571Y023810D02*
X022634Y023810D01*
X022634Y023808D02*
X022571Y023808D01*
X022571Y023805D02*
X022634Y023805D01*
X022634Y023803D02*
X022571Y023803D01*
X022571Y023801D02*
X022634Y023801D01*
X022634Y023798D02*
X022571Y023798D01*
X022571Y023796D02*
X022634Y023796D01*
X022634Y023793D02*
X022571Y023793D01*
X022571Y023791D02*
X022634Y023791D01*
X022634Y023788D02*
X022571Y023788D01*
X022571Y023786D02*
X022634Y023786D01*
X022634Y023783D02*
X022571Y023783D01*
X022571Y023781D02*
X022634Y023781D01*
X022634Y023779D02*
X022571Y023779D01*
X022571Y023776D02*
X022634Y023776D01*
X022634Y023774D02*
X022571Y023774D01*
X022571Y023771D02*
X022634Y023771D01*
X022634Y023769D02*
X022571Y023769D01*
X022508Y023776D02*
X022325Y023776D01*
X022329Y023774D02*
X022505Y023774D01*
X022508Y023779D02*
X022321Y023779D01*
X022317Y023781D02*
X022507Y023781D01*
X022507Y023783D02*
X022314Y023783D01*
X022310Y023786D02*
X022507Y023786D01*
X022506Y023788D02*
X022306Y023788D01*
X022302Y023791D02*
X022506Y023791D01*
X022505Y023793D02*
X022298Y023793D01*
X022295Y023796D02*
X022505Y023796D01*
X022505Y023798D02*
X022292Y023798D01*
X022290Y023801D02*
X022504Y023801D01*
X022504Y023803D02*
X022288Y023803D01*
X022285Y023805D02*
X022503Y023805D01*
X022503Y023808D02*
X022283Y023808D01*
X022280Y023810D02*
X022503Y023810D01*
X022502Y023813D02*
X022428Y023813D01*
X022457Y023815D02*
X022502Y023815D01*
X022501Y023818D02*
X022469Y023818D01*
X022481Y023820D02*
X022501Y023820D01*
X022499Y023771D02*
X022333Y023771D01*
X022336Y023769D02*
X022493Y023769D01*
X022486Y023766D02*
X022343Y023766D01*
X022355Y023764D02*
X022476Y023764D01*
X022466Y023762D02*
X022367Y023762D01*
X022391Y023813D02*
X022278Y023813D01*
X022276Y023815D02*
X022386Y023815D01*
X022382Y023818D02*
X022274Y023818D01*
X022272Y023820D02*
X022378Y023820D01*
X022374Y023822D02*
X022271Y023822D01*
X022269Y023825D02*
X022369Y023825D01*
X022364Y023827D02*
X022268Y023827D01*
X022266Y023830D02*
X022360Y023830D01*
X022355Y023832D02*
X022264Y023832D01*
X022263Y023835D02*
X022350Y023835D01*
X022345Y023837D02*
X022261Y023837D01*
X022259Y023840D02*
X022342Y023840D01*
X022340Y023842D02*
X022258Y023842D01*
X022256Y023844D02*
X022338Y023844D01*
X022336Y023847D02*
X022255Y023847D01*
X022253Y023849D02*
X022334Y023849D01*
X022332Y023852D02*
X022252Y023852D01*
X022251Y023854D02*
X022330Y023854D01*
X022328Y023857D02*
X022251Y023857D01*
X022250Y023859D02*
X022327Y023859D01*
X022325Y023861D02*
X022249Y023861D01*
X022249Y023864D02*
X022324Y023864D01*
X022322Y023866D02*
X022248Y023866D01*
X022247Y023869D02*
X022321Y023869D01*
X022319Y023871D02*
X022247Y023871D01*
X022246Y023874D02*
X022318Y023874D01*
X022316Y023876D02*
X022245Y023876D01*
X022245Y023879D02*
X022315Y023879D01*
X022314Y023881D02*
X022244Y023881D01*
X022243Y023883D02*
X022313Y023883D01*
X022312Y023886D02*
X022243Y023886D01*
X022242Y023888D02*
X022311Y023888D01*
X022571Y024115D02*
X022634Y024115D01*
X022634Y024117D02*
X022571Y024117D01*
X022571Y024120D02*
X022634Y024120D01*
X022634Y024122D02*
X022571Y024122D01*
X022571Y024125D02*
X022634Y024125D01*
X022634Y024127D02*
X022571Y024127D01*
X022571Y024130D02*
X022634Y024130D01*
X022634Y024132D02*
X022571Y024132D01*
X022571Y024134D02*
X022634Y024134D01*
X022634Y024137D02*
X022571Y024137D01*
X022571Y024139D02*
X022634Y024139D01*
X022634Y024142D02*
X022571Y024142D01*
X022571Y024144D02*
X022634Y024144D01*
X022634Y024147D02*
X022571Y024147D01*
X022571Y024149D02*
X022634Y024149D01*
X022634Y024151D02*
X022571Y024151D01*
X022571Y024154D02*
X022634Y024154D01*
X022634Y024156D02*
X022571Y024156D01*
X022571Y024159D02*
X022634Y024159D01*
X022634Y024161D02*
X022571Y024161D01*
X022571Y024164D02*
X022634Y024164D01*
X022634Y024166D02*
X022571Y024166D01*
X022571Y024169D02*
X022634Y024169D01*
X022634Y024171D02*
X022571Y024171D01*
X022571Y024173D02*
X022634Y024173D01*
X022634Y024176D02*
X022571Y024176D01*
X022571Y024178D02*
X022634Y024178D01*
X022634Y024181D02*
X022571Y024181D01*
X022571Y024183D02*
X022634Y024183D01*
X022634Y024186D02*
X022571Y024186D01*
X022571Y024188D02*
X022634Y024188D01*
X022634Y024190D02*
X022571Y024190D01*
X022571Y024193D02*
X022634Y024193D01*
X022634Y024195D02*
X022571Y024195D01*
X022571Y024198D02*
X022634Y024198D01*
X022634Y024200D02*
X022571Y024200D01*
X022571Y024203D02*
X022634Y024203D01*
X022634Y024205D02*
X022571Y024205D01*
X022571Y024208D02*
X022634Y024208D01*
X022634Y024210D02*
X022571Y024210D01*
X022571Y024212D02*
X022634Y024212D01*
X022634Y024215D02*
X022571Y024215D01*
X022571Y024217D02*
X022634Y024217D01*
X022634Y024220D02*
X022571Y024220D01*
X022571Y024222D02*
X022634Y024222D01*
X022634Y024225D02*
X022571Y024225D01*
X022571Y024227D02*
X022634Y024227D01*
X022634Y024229D02*
X022571Y024229D01*
X022571Y024232D02*
X022634Y024232D01*
X022634Y024234D02*
X022571Y024234D01*
X022571Y024237D02*
X022634Y024237D01*
X022634Y024239D02*
X022571Y024239D01*
X022571Y024242D02*
X022634Y024242D01*
X022634Y024244D02*
X022571Y024244D01*
X022571Y024247D02*
X022634Y024247D01*
X022634Y024249D02*
X022571Y024249D01*
X022571Y024251D02*
X022634Y024251D01*
X022634Y024254D02*
X022571Y024254D01*
X022571Y024256D02*
X022634Y024256D01*
X022634Y024259D02*
X022571Y024259D01*
X022571Y024261D02*
X022634Y024261D01*
X022696Y024105D02*
X022787Y024105D01*
X022781Y024108D02*
X022704Y024108D01*
X022712Y024110D02*
X022775Y024110D01*
X022768Y024112D02*
X022721Y024112D01*
X022691Y024103D02*
X022793Y024103D01*
X022799Y024100D02*
X022686Y024100D01*
X022682Y024098D02*
X022804Y024098D01*
X022809Y024095D02*
X022677Y024095D01*
X022672Y024093D02*
X022813Y024093D01*
X022817Y024091D02*
X022667Y024091D01*
X022664Y024088D02*
X022820Y024088D01*
X022824Y024086D02*
X022662Y024086D01*
X022659Y024083D02*
X022826Y024083D01*
X022829Y024081D02*
X022657Y024081D01*
X022654Y024078D02*
X022831Y024078D01*
X022834Y024076D02*
X022652Y024076D01*
X022650Y024073D02*
X022836Y024073D01*
X022838Y024071D02*
X022648Y024071D01*
X022646Y024069D02*
X022840Y024069D01*
X022842Y024066D02*
X022644Y024066D01*
X022642Y024064D02*
X022844Y024064D01*
X022845Y024061D02*
X022640Y024061D01*
X022756Y024049D02*
X022852Y024049D01*
X022853Y024047D02*
X022760Y024047D01*
X022765Y024044D02*
X022854Y024044D01*
X022855Y024042D02*
X022770Y024042D01*
X022775Y024039D02*
X022856Y024039D01*
X022857Y024037D02*
X022777Y024037D01*
X022779Y024034D02*
X022858Y024034D01*
X022858Y024032D02*
X022781Y024032D01*
X022782Y024030D02*
X022859Y024030D01*
X022860Y024027D02*
X022784Y024027D01*
X022786Y024025D02*
X022861Y024025D01*
X022862Y024022D02*
X022787Y024022D01*
X022789Y024020D02*
X022862Y024020D01*
X022863Y024013D02*
X022793Y024013D01*
X022794Y024010D02*
X022863Y024010D01*
X022863Y024008D02*
X022796Y024008D01*
X022797Y024005D02*
X022863Y024005D01*
X022863Y024003D02*
X022798Y024003D01*
X022799Y024000D02*
X022863Y024000D01*
X022863Y023998D02*
X022800Y023998D01*
X022800Y023995D02*
X022863Y023995D01*
X022863Y023993D02*
X022800Y023993D01*
X022800Y023991D02*
X022863Y023991D01*
X022863Y023988D02*
X022800Y023988D01*
X022800Y023986D02*
X022863Y023986D01*
X022863Y023983D02*
X022800Y023983D01*
X022800Y023981D02*
X022863Y023981D01*
X022863Y023978D02*
X022800Y023978D01*
X022800Y023976D02*
X022863Y023976D01*
X022863Y023974D02*
X022800Y023974D01*
X022800Y023971D02*
X022863Y023971D01*
X022863Y023969D02*
X022800Y023969D01*
X022800Y023966D02*
X022863Y023966D01*
X022863Y023964D02*
X022800Y023964D01*
X022800Y023961D02*
X022863Y023961D01*
X022863Y023959D02*
X022800Y023959D01*
X022800Y023957D02*
X022863Y023957D01*
X022863Y023954D02*
X022800Y023954D01*
X022800Y023952D02*
X022863Y023952D01*
X022863Y023949D02*
X022800Y023949D01*
X022800Y023947D02*
X022863Y023947D01*
X022863Y023944D02*
X022800Y023944D01*
X022800Y023942D02*
X022863Y023942D01*
X022863Y023939D02*
X022800Y023939D01*
X022800Y023937D02*
X022863Y023937D01*
X022863Y023935D02*
X022800Y023935D01*
X022800Y023932D02*
X022863Y023932D01*
X022863Y023930D02*
X022800Y023930D01*
X022800Y023927D02*
X022863Y023927D01*
X022863Y023925D02*
X022800Y023925D01*
X022800Y023922D02*
X022863Y023922D01*
X022863Y023920D02*
X022800Y023920D01*
X022800Y023918D02*
X022863Y023918D01*
X022863Y023915D02*
X022800Y023915D01*
X022800Y023913D02*
X022863Y023913D01*
X022863Y023910D02*
X022800Y023910D01*
X022800Y023908D02*
X022863Y023908D01*
X022863Y023905D02*
X022800Y023905D01*
X022800Y023903D02*
X022863Y023903D01*
X022863Y023900D02*
X022800Y023900D01*
X022800Y023898D02*
X022863Y023898D01*
X022863Y023896D02*
X022800Y023896D01*
X022800Y023893D02*
X022863Y023893D01*
X022863Y023891D02*
X022800Y023891D01*
X022800Y023888D02*
X022863Y023888D01*
X022863Y023886D02*
X022800Y023886D01*
X022800Y023883D02*
X022863Y023883D01*
X022863Y023881D02*
X022800Y023881D01*
X022800Y023879D02*
X022863Y023879D01*
X022863Y023876D02*
X022800Y023876D01*
X022800Y023874D02*
X022863Y023874D01*
X022863Y023871D02*
X022800Y023871D01*
X022800Y023869D02*
X022863Y023869D01*
X022863Y023866D02*
X022800Y023866D01*
X022800Y023864D02*
X022863Y023864D01*
X022863Y023861D02*
X022800Y023861D01*
X022800Y023859D02*
X022863Y023859D01*
X022863Y023857D02*
X022800Y023857D01*
X022800Y023854D02*
X022863Y023854D01*
X022863Y023852D02*
X022800Y023852D01*
X022800Y023849D02*
X022863Y023849D01*
X022863Y023847D02*
X022800Y023847D01*
X022800Y023844D02*
X022863Y023844D01*
X022863Y023842D02*
X022800Y023842D01*
X022800Y023840D02*
X022863Y023840D01*
X022863Y023837D02*
X022800Y023837D01*
X022800Y023835D02*
X022863Y023835D01*
X022863Y023832D02*
X022800Y023832D01*
X022800Y023830D02*
X022863Y023830D01*
X022863Y023827D02*
X022800Y023827D01*
X022800Y023825D02*
X022863Y023825D01*
X022863Y023822D02*
X022800Y023822D01*
X022800Y023820D02*
X022863Y023820D01*
X022863Y023818D02*
X022800Y023818D01*
X022800Y023815D02*
X022863Y023815D01*
X022863Y023813D02*
X022800Y023813D01*
X022800Y023810D02*
X022863Y023810D01*
X022863Y023808D02*
X022800Y023808D01*
X022800Y023805D02*
X022863Y023805D01*
X022863Y023803D02*
X022800Y023803D01*
X022800Y023801D02*
X022863Y023801D01*
X022863Y023798D02*
X022800Y023798D01*
X022800Y023796D02*
X022863Y023796D01*
X022863Y023793D02*
X022800Y023793D01*
X022800Y023791D02*
X022863Y023791D01*
X022863Y023788D02*
X022800Y023788D01*
X022800Y023786D02*
X022863Y023786D01*
X022863Y023783D02*
X022800Y023783D01*
X022800Y023781D02*
X022863Y023781D01*
X022863Y023779D02*
X022800Y023779D01*
X022800Y023776D02*
X022863Y023776D01*
X022863Y023774D02*
X022800Y023774D01*
X022800Y023771D02*
X022863Y023771D01*
X022863Y023769D02*
X022800Y023769D01*
X022957Y023769D02*
X023020Y023769D01*
X023020Y023767D02*
X022957Y023767D01*
X022957Y024106D01*
X023020Y024106D01*
X023020Y023767D01*
X023020Y023771D02*
X022957Y023771D01*
X022957Y023774D02*
X023020Y023774D01*
X023020Y023776D02*
X022957Y023776D01*
X022957Y023779D02*
X023020Y023779D01*
X023020Y023781D02*
X022957Y023781D01*
X022957Y023783D02*
X023020Y023783D01*
X023020Y023786D02*
X022957Y023786D01*
X022957Y023788D02*
X023020Y023788D01*
X023020Y023791D02*
X022957Y023791D01*
X022957Y023793D02*
X023020Y023793D01*
X023020Y023796D02*
X022957Y023796D01*
X022957Y023798D02*
X023020Y023798D01*
X023020Y023801D02*
X022957Y023801D01*
X022957Y023803D02*
X023020Y023803D01*
X023020Y023805D02*
X022957Y023805D01*
X022957Y023808D02*
X023020Y023808D01*
X023020Y023810D02*
X022957Y023810D01*
X022957Y023813D02*
X023020Y023813D01*
X023020Y023815D02*
X022957Y023815D01*
X022957Y023818D02*
X023020Y023818D01*
X023020Y023820D02*
X022957Y023820D01*
X022957Y023822D02*
X023020Y023822D01*
X023020Y023825D02*
X022957Y023825D01*
X022957Y023827D02*
X023020Y023827D01*
X023020Y023830D02*
X022957Y023830D01*
X022957Y023832D02*
X023020Y023832D01*
X023020Y023835D02*
X022957Y023835D01*
X022957Y023837D02*
X023020Y023837D01*
X023020Y023840D02*
X022957Y023840D01*
X022957Y023842D02*
X023020Y023842D01*
X023020Y023844D02*
X022957Y023844D01*
X022957Y023847D02*
X023020Y023847D01*
X023020Y023849D02*
X022957Y023849D01*
X022957Y023852D02*
X023020Y023852D01*
X023020Y023854D02*
X022957Y023854D01*
X022957Y023857D02*
X023020Y023857D01*
X023020Y023859D02*
X022957Y023859D01*
X022957Y023861D02*
X023020Y023861D01*
X023020Y023864D02*
X022957Y023864D01*
X022957Y023866D02*
X023020Y023866D01*
X023020Y023869D02*
X022957Y023869D01*
X022957Y023871D02*
X023020Y023871D01*
X023020Y023874D02*
X022957Y023874D01*
X022957Y023876D02*
X023020Y023876D01*
X023020Y023879D02*
X022957Y023879D01*
X022957Y023881D02*
X023020Y023881D01*
X023020Y023883D02*
X022957Y023883D01*
X022957Y023886D02*
X023020Y023886D01*
X023020Y023888D02*
X022957Y023888D01*
X022957Y023891D02*
X023020Y023891D01*
X023020Y023893D02*
X022957Y023893D01*
X022957Y023896D02*
X023020Y023896D01*
X023020Y023898D02*
X022957Y023898D01*
X022957Y023900D02*
X023020Y023900D01*
X023020Y023903D02*
X022957Y023903D01*
X022957Y023905D02*
X023020Y023905D01*
X023020Y023908D02*
X022957Y023908D01*
X022957Y023910D02*
X023020Y023910D01*
X023020Y023913D02*
X022957Y023913D01*
X022957Y023915D02*
X023020Y023915D01*
X023020Y023918D02*
X022957Y023918D01*
X022957Y023920D02*
X023020Y023920D01*
X023020Y023922D02*
X022957Y023922D01*
X022957Y023925D02*
X023020Y023925D01*
X023020Y023927D02*
X022957Y023927D01*
X022957Y023930D02*
X023020Y023930D01*
X023020Y023932D02*
X022957Y023932D01*
X022957Y023935D02*
X023020Y023935D01*
X023020Y023937D02*
X022957Y023937D01*
X022957Y023939D02*
X023020Y023939D01*
X023020Y023942D02*
X022957Y023942D01*
X022957Y023944D02*
X023020Y023944D01*
X023020Y023947D02*
X022957Y023947D01*
X022957Y023949D02*
X023020Y023949D01*
X023020Y023952D02*
X022957Y023952D01*
X022957Y023954D02*
X023020Y023954D01*
X023020Y023957D02*
X022957Y023957D01*
X022957Y023959D02*
X023020Y023959D01*
X023020Y023961D02*
X022957Y023961D01*
X022957Y023964D02*
X023020Y023964D01*
X023020Y023966D02*
X022957Y023966D01*
X022957Y023969D02*
X023020Y023969D01*
X023020Y023971D02*
X022957Y023971D01*
X022957Y023974D02*
X023020Y023974D01*
X023020Y023976D02*
X022957Y023976D01*
X022957Y023978D02*
X023020Y023978D01*
X023020Y023981D02*
X022957Y023981D01*
X022957Y023983D02*
X023020Y023983D01*
X023020Y023986D02*
X022957Y023986D01*
X022957Y023988D02*
X023020Y023988D01*
X023020Y023991D02*
X022957Y023991D01*
X022957Y023993D02*
X023020Y023993D01*
X023020Y023995D02*
X022957Y023995D01*
X022957Y023998D02*
X023020Y023998D01*
X023020Y024000D02*
X022957Y024000D01*
X022957Y024003D02*
X023020Y024003D01*
X023020Y024005D02*
X022957Y024005D01*
X022957Y024008D02*
X023020Y024008D01*
X023020Y024010D02*
X022957Y024010D01*
X022957Y024013D02*
X023020Y024013D01*
X023020Y024015D02*
X022957Y024015D01*
X022957Y024017D02*
X023020Y024017D01*
X023020Y024020D02*
X022957Y024020D01*
X022957Y024022D02*
X023020Y024022D01*
X023020Y024025D02*
X022957Y024025D01*
X022957Y024027D02*
X023020Y024027D01*
X023020Y024030D02*
X022957Y024030D01*
X022957Y024032D02*
X023020Y024032D01*
X023020Y024034D02*
X022957Y024034D01*
X022957Y024037D02*
X023020Y024037D01*
X023020Y024039D02*
X022957Y024039D01*
X022957Y024042D02*
X023020Y024042D01*
X023020Y024044D02*
X022957Y024044D01*
X022957Y024047D02*
X023020Y024047D01*
X023020Y024049D02*
X022957Y024049D01*
X022957Y024052D02*
X023020Y024052D01*
X023020Y024054D02*
X022957Y024054D01*
X022957Y024056D02*
X023020Y024056D01*
X023020Y024059D02*
X022957Y024059D01*
X022957Y024061D02*
X023020Y024061D01*
X023020Y024064D02*
X022957Y024064D01*
X022957Y024066D02*
X023020Y024066D01*
X023020Y024069D02*
X022957Y024069D01*
X022957Y024071D02*
X023020Y024071D01*
X023020Y024073D02*
X022957Y024073D01*
X022957Y024076D02*
X023020Y024076D01*
X023020Y024078D02*
X022957Y024078D01*
X022957Y024081D02*
X023020Y024081D01*
X023020Y024083D02*
X022957Y024083D01*
X022957Y024086D02*
X023020Y024086D01*
X023020Y024088D02*
X022957Y024088D01*
X022957Y024091D02*
X023020Y024091D01*
X023020Y024093D02*
X022957Y024093D01*
X022957Y024095D02*
X023020Y024095D01*
X023020Y024098D02*
X022957Y024098D01*
X022957Y024100D02*
X023020Y024100D01*
X023020Y024103D02*
X022957Y024103D01*
X022957Y024105D02*
X023020Y024105D01*
X023004Y024161D02*
X022977Y024161D01*
X022961Y024169D01*
X022949Y024184D01*
X022947Y024208D01*
X022953Y024224D01*
X022969Y024236D01*
X022977Y024240D01*
X023001Y024240D01*
X023018Y024228D01*
X023028Y024208D01*
X023028Y024188D01*
X022949Y024188D01*
X022949Y024186D02*
X023027Y024186D01*
X023028Y024188D02*
X023020Y024173D01*
X023004Y024161D01*
X023005Y024161D02*
X022976Y024161D01*
X022971Y024164D02*
X023008Y024164D01*
X023011Y024166D02*
X022966Y024166D01*
X022962Y024169D02*
X023015Y024169D01*
X023018Y024171D02*
X022959Y024171D01*
X022958Y024173D02*
X023021Y024173D01*
X023022Y024176D02*
X022956Y024176D01*
X022954Y024178D02*
X023023Y024178D01*
X023024Y024181D02*
X022952Y024181D01*
X022950Y024183D02*
X023025Y024183D01*
X023028Y024190D02*
X022949Y024190D01*
X022949Y024193D02*
X023028Y024193D01*
X023028Y024195D02*
X022948Y024195D01*
X022948Y024198D02*
X023028Y024198D01*
X023028Y024200D02*
X022948Y024200D01*
X022948Y024203D02*
X023028Y024203D01*
X023028Y024205D02*
X022948Y024205D01*
X022947Y024208D02*
X023028Y024208D01*
X023027Y024210D02*
X022948Y024210D01*
X022949Y024212D02*
X023026Y024212D01*
X023025Y024215D02*
X022950Y024215D01*
X022951Y024217D02*
X023024Y024217D01*
X023022Y024220D02*
X022952Y024220D01*
X022953Y024222D02*
X023021Y024222D01*
X023020Y024225D02*
X022954Y024225D01*
X022958Y024227D02*
X023019Y024227D01*
X023016Y024229D02*
X022961Y024229D01*
X022964Y024232D02*
X023012Y024232D01*
X023008Y024234D02*
X022967Y024234D01*
X022971Y024237D02*
X023005Y024237D01*
X023001Y024239D02*
X022976Y024239D01*
X023115Y024106D02*
X023170Y024106D01*
X023170Y024043D01*
X023217Y024043D01*
X023209Y024035D01*
X023178Y023988D01*
X023115Y023988D01*
X023115Y023986D02*
X023178Y023986D01*
X023178Y023988D02*
X023178Y023889D01*
X023186Y023866D01*
X023197Y023842D01*
X023213Y023826D01*
X023241Y023810D01*
X023296Y023810D01*
X023323Y023822D01*
X023335Y023834D01*
X023351Y023854D01*
X023425Y023854D01*
X023425Y023857D02*
X023352Y023857D01*
X023352Y023859D02*
X023426Y023859D01*
X023427Y023861D02*
X023353Y023861D01*
X023354Y023864D02*
X023428Y023864D01*
X023429Y023866D02*
X023355Y023866D01*
X023355Y023869D02*
X023429Y023869D01*
X023430Y023871D02*
X023356Y023871D01*
X023357Y023874D02*
X023431Y023874D01*
X023432Y023876D02*
X023357Y023876D01*
X023358Y023879D02*
X023433Y023879D01*
X023433Y023881D02*
X023359Y023881D01*
X023359Y023883D02*
X023434Y023883D01*
X023435Y023886D02*
X023360Y023886D01*
X023361Y023888D02*
X023436Y023888D01*
X023437Y023891D02*
X023361Y023891D01*
X023362Y023893D02*
X023438Y023893D01*
X023438Y023980D01*
X023422Y024027D01*
X023406Y024059D01*
X023181Y024059D01*
X023182Y024061D02*
X023403Y024061D01*
X023401Y024064D02*
X023183Y024064D01*
X023184Y024066D02*
X023398Y024066D01*
X023396Y024069D02*
X023185Y024069D01*
X023186Y024071D02*
X023393Y024071D01*
X023391Y024073D02*
X023187Y024073D01*
X023188Y024074D02*
X023178Y024051D01*
X023170Y024051D01*
X023170Y024043D01*
X023217Y024043D01*
X023241Y024059D01*
X023304Y024059D01*
X023335Y024035D01*
X023351Y024011D01*
X023367Y023964D01*
X023367Y023909D01*
X023351Y023854D01*
X023349Y023852D02*
X023424Y023852D01*
X023423Y023849D02*
X023347Y023849D01*
X023345Y023847D02*
X023422Y023847D01*
X023422Y023846D02*
X023438Y023893D01*
X023438Y023896D02*
X023363Y023896D01*
X023364Y023898D02*
X023438Y023898D01*
X023438Y023900D02*
X023364Y023900D01*
X023365Y023903D02*
X023438Y023903D01*
X023438Y023905D02*
X023366Y023905D01*
X023366Y023908D02*
X023438Y023908D01*
X023438Y023910D02*
X023367Y023910D01*
X023367Y023913D02*
X023438Y023913D01*
X023438Y023915D02*
X023367Y023915D01*
X023367Y023918D02*
X023438Y023918D01*
X023438Y023920D02*
X023367Y023920D01*
X023367Y023922D02*
X023438Y023922D01*
X023438Y023925D02*
X023367Y023925D01*
X023367Y023927D02*
X023438Y023927D01*
X023438Y023930D02*
X023367Y023930D01*
X023367Y023932D02*
X023438Y023932D01*
X023438Y023935D02*
X023367Y023935D01*
X023367Y023937D02*
X023438Y023937D01*
X023438Y023939D02*
X023367Y023939D01*
X023367Y023942D02*
X023438Y023942D01*
X023438Y023944D02*
X023367Y023944D01*
X023367Y023947D02*
X023438Y023947D01*
X023438Y023949D02*
X023367Y023949D01*
X023367Y023952D02*
X023438Y023952D01*
X023438Y023954D02*
X023367Y023954D01*
X023367Y023957D02*
X023438Y023957D01*
X023438Y023959D02*
X023367Y023959D01*
X023367Y023961D02*
X023438Y023961D01*
X023438Y023964D02*
X023367Y023964D01*
X023366Y023966D02*
X023438Y023966D01*
X023438Y023969D02*
X023365Y023969D01*
X023364Y023971D02*
X023438Y023971D01*
X023438Y023974D02*
X023363Y023974D01*
X023363Y023976D02*
X023438Y023976D01*
X023438Y023978D02*
X023362Y023978D01*
X023361Y023981D02*
X023437Y023981D01*
X023436Y023983D02*
X023360Y023983D01*
X023359Y023986D02*
X023436Y023986D01*
X023435Y023988D02*
X023359Y023988D01*
X023358Y023991D02*
X023434Y023991D01*
X023433Y023993D02*
X023357Y023993D01*
X023356Y023995D02*
X023432Y023995D01*
X023431Y023998D02*
X023355Y023998D01*
X023355Y024000D02*
X023431Y024000D01*
X023430Y024003D02*
X023354Y024003D01*
X023353Y024005D02*
X023429Y024005D01*
X023428Y024008D02*
X023352Y024008D01*
X023351Y024010D02*
X023427Y024010D01*
X023427Y024013D02*
X023350Y024013D01*
X023348Y024015D02*
X023426Y024015D01*
X023425Y024017D02*
X023347Y024017D01*
X023345Y024020D02*
X023424Y024020D01*
X023423Y024022D02*
X023344Y024022D01*
X023342Y024025D02*
X023423Y024025D01*
X023422Y024027D02*
X023340Y024027D01*
X023339Y024030D02*
X023420Y024030D01*
X023419Y024032D02*
X023337Y024032D01*
X023335Y024034D02*
X023418Y024034D01*
X023417Y024037D02*
X023332Y024037D01*
X023329Y024039D02*
X023416Y024039D01*
X023414Y024042D02*
X023326Y024042D01*
X023323Y024044D02*
X023413Y024044D01*
X023412Y024047D02*
X023319Y024047D01*
X023316Y024049D02*
X023411Y024049D01*
X023410Y024052D02*
X023313Y024052D01*
X023310Y024054D02*
X023408Y024054D01*
X023407Y024056D02*
X023306Y024056D01*
X023323Y024112D02*
X023253Y024112D01*
X023256Y024114D02*
X023233Y024106D01*
X023203Y024090D01*
X023188Y024074D01*
X023189Y024076D02*
X023389Y024076D01*
X023386Y024078D02*
X023192Y024078D01*
X023194Y024081D02*
X023384Y024081D01*
X023381Y024083D02*
X023197Y024083D01*
X023199Y024086D02*
X023379Y024086D01*
X023376Y024088D02*
X023201Y024088D01*
X023204Y024091D02*
X023373Y024091D01*
X023375Y024090D02*
X023343Y024106D01*
X023319Y024114D01*
X023256Y024114D01*
X023246Y024110D02*
X023330Y024110D01*
X023337Y024108D02*
X023238Y024108D01*
X023232Y024105D02*
X023344Y024105D01*
X023349Y024103D02*
X023227Y024103D01*
X023223Y024100D02*
X023354Y024100D01*
X023359Y024098D02*
X023218Y024098D01*
X023213Y024095D02*
X023364Y024095D01*
X023369Y024093D02*
X023209Y024093D01*
X023170Y024093D02*
X023115Y024093D01*
X023115Y024095D02*
X023170Y024095D01*
X023170Y024098D02*
X023115Y024098D01*
X023115Y024100D02*
X023170Y024100D01*
X023170Y024103D02*
X023115Y024103D01*
X023115Y024105D02*
X023170Y024105D01*
X023170Y024091D02*
X023115Y024091D01*
X023115Y024088D02*
X023170Y024088D01*
X023170Y024086D02*
X023115Y024086D01*
X023115Y024083D02*
X023170Y024083D01*
X023170Y024081D02*
X023115Y024081D01*
X023115Y024078D02*
X023170Y024078D01*
X023170Y024076D02*
X023115Y024076D01*
X023115Y024073D02*
X023170Y024073D01*
X023170Y024071D02*
X023115Y024071D01*
X023115Y024069D02*
X023170Y024069D01*
X023170Y024066D02*
X023115Y024066D01*
X023115Y024064D02*
X023170Y024064D01*
X023170Y024061D02*
X023115Y024061D01*
X023115Y024059D02*
X023170Y024059D01*
X023170Y024056D02*
X023115Y024056D01*
X023115Y024054D02*
X023170Y024054D01*
X023170Y024052D02*
X023115Y024052D01*
X023115Y024049D02*
X023170Y024049D01*
X023227Y024049D01*
X023230Y024052D02*
X023178Y024052D01*
X023179Y024054D02*
X023234Y024054D01*
X023238Y024056D02*
X023180Y024056D01*
X023170Y024047D02*
X023223Y024047D01*
X023219Y024044D02*
X023170Y024044D01*
X023115Y024044D01*
X023115Y024042D02*
X023216Y024042D01*
X023214Y024039D02*
X023115Y024039D01*
X023115Y024037D02*
X023211Y024037D01*
X023209Y024034D02*
X023115Y024034D01*
X023115Y024032D02*
X023207Y024032D01*
X023206Y024030D02*
X023115Y024030D01*
X023115Y024027D02*
X023204Y024027D01*
X023202Y024025D02*
X023115Y024025D01*
X023115Y024022D02*
X023201Y024022D01*
X023199Y024020D02*
X023115Y024020D01*
X023115Y024017D02*
X023198Y024017D01*
X023196Y024015D02*
X023115Y024015D01*
X023115Y024013D02*
X023194Y024013D01*
X023193Y024010D02*
X023115Y024010D01*
X023115Y024008D02*
X023191Y024008D01*
X023189Y024005D02*
X023115Y024005D01*
X023115Y024003D02*
X023188Y024003D01*
X023186Y024000D02*
X023115Y024000D01*
X023115Y023998D02*
X023185Y023998D01*
X023183Y023995D02*
X023115Y023995D01*
X023115Y023993D02*
X023181Y023993D01*
X023180Y023991D02*
X023115Y023991D01*
X023115Y023983D02*
X023178Y023983D01*
X023178Y023981D02*
X023115Y023981D01*
X023115Y023978D02*
X023178Y023978D01*
X023178Y023976D02*
X023115Y023976D01*
X023115Y023974D02*
X023178Y023974D01*
X023178Y023971D02*
X023115Y023971D01*
X023115Y023969D02*
X023178Y023969D01*
X023178Y023966D02*
X023115Y023966D01*
X023115Y023964D02*
X023178Y023964D01*
X023178Y023961D02*
X023115Y023961D01*
X023115Y023959D02*
X023178Y023959D01*
X023178Y023957D02*
X023115Y023957D01*
X023115Y023954D02*
X023178Y023954D01*
X023178Y023952D02*
X023115Y023952D01*
X023115Y023949D02*
X023178Y023949D01*
X023178Y023947D02*
X023115Y023947D01*
X023115Y023944D02*
X023178Y023944D01*
X023178Y023942D02*
X023115Y023942D01*
X023115Y023939D02*
X023178Y023939D01*
X023178Y023937D02*
X023115Y023937D01*
X023115Y023935D02*
X023178Y023935D01*
X023178Y023932D02*
X023115Y023932D01*
X023115Y023930D02*
X023178Y023930D01*
X023178Y023927D02*
X023115Y023927D01*
X023115Y023925D02*
X023178Y023925D01*
X023178Y023922D02*
X023115Y023922D01*
X023115Y023920D02*
X023178Y023920D01*
X023178Y023918D02*
X023115Y023918D01*
X023115Y023915D02*
X023178Y023915D01*
X023178Y023913D02*
X023115Y023913D01*
X023115Y023910D02*
X023178Y023910D01*
X023178Y023908D02*
X023115Y023908D01*
X023115Y023905D02*
X023178Y023905D01*
X023178Y023903D02*
X023115Y023903D01*
X023115Y023900D02*
X023178Y023900D01*
X023178Y023898D02*
X023115Y023898D01*
X023115Y023896D02*
X023178Y023896D01*
X023178Y023893D02*
X023115Y023893D01*
X023115Y023891D02*
X023178Y023891D01*
X023178Y023888D02*
X023115Y023888D01*
X023115Y023886D02*
X023179Y023886D01*
X023180Y023883D02*
X023115Y023883D01*
X023115Y023881D02*
X023180Y023881D01*
X023181Y023879D02*
X023115Y023879D01*
X023115Y023876D02*
X023182Y023876D01*
X023183Y023874D02*
X023115Y023874D01*
X023115Y023871D02*
X023184Y023871D01*
X023185Y023869D02*
X023115Y023869D01*
X023115Y023866D02*
X023185Y023866D01*
X023186Y023864D02*
X023115Y023864D01*
X023115Y023861D02*
X023188Y023861D01*
X023189Y023859D02*
X023115Y023859D01*
X023115Y023857D02*
X023190Y023857D01*
X023191Y023854D02*
X023115Y023854D01*
X023115Y023852D02*
X023193Y023852D01*
X023194Y023849D02*
X023115Y023849D01*
X023115Y023847D02*
X023195Y023847D01*
X023196Y023844D02*
X023115Y023844D01*
X023115Y023842D02*
X023197Y023842D01*
X023200Y023840D02*
X023115Y023840D01*
X023115Y023837D02*
X023202Y023837D01*
X023205Y023835D02*
X023115Y023835D01*
X023115Y023832D02*
X023207Y023832D01*
X023210Y023830D02*
X023115Y023830D01*
X023115Y023827D02*
X023212Y023827D01*
X023215Y023825D02*
X023115Y023825D01*
X023115Y023822D02*
X023220Y023822D01*
X023224Y023820D02*
X023115Y023820D01*
X023115Y023818D02*
X023228Y023818D01*
X023233Y023815D02*
X023115Y023815D01*
X023115Y023813D02*
X023237Y023813D01*
X023214Y023769D02*
X023353Y023769D01*
X023351Y023767D02*
X023359Y023775D01*
X023375Y023783D01*
X023406Y023814D01*
X023422Y023846D01*
X023421Y023844D02*
X023343Y023844D01*
X023341Y023842D02*
X023420Y023842D01*
X023419Y023840D02*
X023340Y023840D01*
X023338Y023837D02*
X023417Y023837D01*
X023416Y023835D02*
X023336Y023835D01*
X023333Y023832D02*
X023415Y023832D01*
X023414Y023830D02*
X023331Y023830D01*
X023328Y023827D02*
X023413Y023827D01*
X023411Y023825D02*
X023326Y023825D01*
X023324Y023822D02*
X023410Y023822D01*
X023409Y023820D02*
X023318Y023820D01*
X023312Y023818D02*
X023408Y023818D01*
X023406Y023815D02*
X023307Y023815D01*
X023301Y023813D02*
X023404Y023813D01*
X023402Y023810D02*
X023115Y023810D01*
X023115Y023808D02*
X023399Y023808D01*
X023397Y023805D02*
X023115Y023805D01*
X023115Y023803D02*
X023395Y023803D01*
X023392Y023801D02*
X023115Y023801D01*
X023115Y023798D02*
X023178Y023798D01*
X023178Y023799D02*
X023186Y023799D01*
X023193Y023783D01*
X023201Y023775D01*
X023233Y023759D01*
X023327Y023759D01*
X023351Y023767D01*
X023349Y023766D02*
X023219Y023766D01*
X023223Y023764D02*
X023341Y023764D01*
X023334Y023762D02*
X023228Y023762D01*
X023209Y023771D02*
X023355Y023771D01*
X023357Y023774D02*
X023204Y023774D01*
X023200Y023776D02*
X023361Y023776D01*
X023366Y023779D02*
X023198Y023779D01*
X023195Y023781D02*
X023371Y023781D01*
X023375Y023783D02*
X023193Y023783D01*
X023192Y023786D02*
X023378Y023786D01*
X023380Y023788D02*
X023191Y023788D01*
X023190Y023791D02*
X023382Y023791D01*
X023385Y023793D02*
X023188Y023793D01*
X023187Y023796D02*
X023387Y023796D01*
X023390Y023798D02*
X023186Y023798D01*
X023178Y023799D02*
X023178Y023621D01*
X023115Y023621D01*
X023115Y024106D01*
X023115Y024047D02*
X023170Y024047D01*
X023375Y024090D02*
X023406Y024059D01*
X023501Y024059D02*
X023642Y024059D01*
X023642Y024061D02*
X023501Y024061D01*
X023501Y024064D02*
X023642Y024064D01*
X023642Y024066D02*
X023501Y024066D01*
X023501Y024069D02*
X023642Y024069D01*
X023642Y024071D02*
X023501Y024071D01*
X023501Y024073D02*
X023642Y024073D01*
X023642Y024076D02*
X023501Y024076D01*
X023501Y024078D02*
X023642Y024078D01*
X023642Y024081D02*
X023501Y024081D01*
X023501Y024083D02*
X023642Y024083D01*
X023642Y024086D02*
X023501Y024086D01*
X023501Y024088D02*
X023642Y024088D01*
X023642Y024091D02*
X023501Y024091D01*
X023501Y024093D02*
X023642Y024093D01*
X023642Y024095D02*
X023501Y024095D01*
X023501Y024098D02*
X023642Y024098D01*
X023642Y024100D02*
X023501Y024100D01*
X023501Y024103D02*
X023642Y024103D01*
X023642Y024105D02*
X023501Y024105D01*
X023501Y024108D02*
X023642Y024108D01*
X023642Y024110D02*
X023501Y024110D01*
X023501Y024112D02*
X023642Y024112D01*
X023642Y024115D02*
X023501Y024115D01*
X023501Y024117D02*
X023642Y024117D01*
X023642Y024120D02*
X023501Y024120D01*
X023501Y024122D02*
X023642Y024122D01*
X023642Y024125D02*
X023501Y024125D01*
X023501Y024127D02*
X023642Y024127D01*
X023642Y024130D02*
X023501Y024130D01*
X023501Y024132D02*
X023642Y024132D01*
X023642Y024134D02*
X023501Y024134D01*
X023501Y024137D02*
X023642Y024137D01*
X023642Y024139D02*
X023501Y024139D01*
X023501Y024142D02*
X023642Y024142D01*
X023642Y024144D02*
X023501Y024144D01*
X023501Y024147D02*
X023642Y024147D01*
X023642Y024149D02*
X023501Y024149D01*
X023501Y024151D02*
X023642Y024151D01*
X023642Y024154D02*
X023501Y024154D01*
X023501Y024156D02*
X023642Y024156D01*
X023642Y024159D02*
X023501Y024159D01*
X023501Y024161D02*
X023642Y024161D01*
X023642Y024164D02*
X023501Y024164D01*
X023501Y024166D02*
X023642Y024166D01*
X023642Y024169D02*
X023501Y024169D01*
X023501Y024171D02*
X023642Y024171D01*
X023642Y024173D02*
X023501Y024173D01*
X023501Y024176D02*
X023642Y024176D01*
X023642Y024178D02*
X023501Y024178D01*
X023501Y024181D02*
X023642Y024181D01*
X023642Y024183D02*
X023501Y024183D01*
X023501Y024186D02*
X023642Y024186D01*
X023642Y024188D02*
X023501Y024188D01*
X023501Y024190D02*
X023642Y024190D01*
X023642Y024193D02*
X023501Y024193D01*
X023501Y024195D02*
X023642Y024195D01*
X023642Y024198D02*
X023501Y024198D01*
X023501Y024200D02*
X023642Y024200D01*
X023642Y024203D02*
X023501Y024203D01*
X023501Y024205D02*
X023642Y024205D01*
X023642Y024208D02*
X023501Y024208D01*
X023501Y024210D02*
X023642Y024210D01*
X023642Y024212D02*
X023501Y024212D01*
X023501Y024215D02*
X023642Y024215D01*
X023642Y024217D02*
X023501Y024217D01*
X023501Y024220D02*
X023642Y024220D01*
X023642Y024222D02*
X023501Y024222D01*
X023501Y024225D02*
X023642Y024225D01*
X023642Y024227D02*
X023501Y024227D01*
X023501Y024229D02*
X023642Y024229D01*
X023642Y024232D02*
X023501Y024232D01*
X023501Y023759D01*
X023642Y023759D01*
X023642Y024232D01*
X023728Y024178D02*
X023881Y024178D01*
X023879Y024176D02*
X023726Y024176D01*
X023725Y024173D02*
X023878Y024173D01*
X023876Y024171D02*
X023723Y024171D01*
X023722Y024169D02*
X023875Y024169D01*
X023873Y024166D02*
X023720Y024166D01*
X023719Y024164D02*
X023872Y024164D01*
X023870Y024161D02*
X023717Y024161D01*
X023716Y024159D02*
X023869Y024159D01*
X023867Y024156D02*
X023714Y024156D01*
X023713Y024154D02*
X023866Y024154D01*
X023864Y024151D02*
X023711Y024151D01*
X023710Y024149D02*
X023863Y024149D01*
X023861Y024147D02*
X023708Y024147D01*
X023707Y024144D02*
X023860Y024144D01*
X023858Y024142D02*
X023705Y024142D01*
X023704Y024139D02*
X023857Y024139D01*
X023855Y024137D02*
X023702Y024137D01*
X023701Y024134D02*
X023854Y024134D01*
X023852Y024132D02*
X023699Y024132D01*
X023698Y024130D02*
X023851Y024130D01*
X023849Y024127D02*
X023696Y024127D01*
X023695Y024125D02*
X023848Y024125D01*
X023846Y024122D02*
X023693Y024122D01*
X023692Y024120D02*
X023845Y024120D01*
X023843Y024117D02*
X023690Y024117D01*
X023689Y024115D02*
X023842Y024115D01*
X023840Y024112D02*
X023687Y024112D01*
X023686Y024110D02*
X023838Y024110D01*
X023837Y024108D02*
X023684Y024108D01*
X023683Y024105D02*
X023835Y024105D01*
X023834Y024103D02*
X023681Y024103D01*
X023680Y024100D02*
X023832Y024100D01*
X023831Y024098D02*
X023678Y024098D01*
X023677Y024095D02*
X023829Y024095D01*
X023828Y024093D02*
X023675Y024093D01*
X023674Y024091D02*
X023826Y024091D01*
X023825Y024088D02*
X023672Y024088D01*
X023671Y024086D02*
X023823Y024086D01*
X023822Y024083D02*
X023669Y024083D01*
X023668Y024081D02*
X023820Y024081D01*
X023819Y024078D02*
X023666Y024078D01*
X023665Y024076D02*
X023817Y024076D01*
X023816Y024073D02*
X023663Y024073D01*
X023662Y024071D02*
X023814Y024071D01*
X023813Y024069D02*
X023661Y024069D01*
X023659Y024066D02*
X023811Y024066D01*
X023810Y024064D02*
X023658Y024064D01*
X023656Y024061D02*
X023808Y024061D01*
X023807Y024059D02*
X023655Y024059D01*
X023653Y024056D02*
X023805Y024056D01*
X023804Y024054D02*
X023652Y024054D01*
X023650Y024052D02*
X023802Y024052D01*
X023801Y024049D02*
X023649Y024049D01*
X023647Y024047D02*
X023799Y024047D01*
X023798Y024044D02*
X023646Y024044D01*
X023644Y024042D02*
X023796Y024042D01*
X023795Y024039D02*
X023643Y024039D01*
X023642Y024039D02*
X023642Y023999D01*
X023753Y023759D01*
X023914Y023759D01*
X023792Y024003D01*
X023642Y024003D01*
X023501Y024003D01*
X023501Y024005D02*
X023642Y024005D01*
X023792Y024005D01*
X023792Y024003D02*
X023792Y024035D01*
X023914Y024232D01*
X023760Y024232D01*
X023642Y024039D01*
X023501Y024039D01*
X023501Y024037D02*
X023642Y024037D01*
X023793Y024037D01*
X023792Y024034D02*
X023642Y024034D01*
X023501Y024034D01*
X023501Y024032D02*
X023642Y024032D01*
X023792Y024032D01*
X023792Y024030D02*
X023642Y024030D01*
X023501Y024030D01*
X023501Y024027D02*
X023642Y024027D01*
X023792Y024027D01*
X023792Y024025D02*
X023642Y024025D01*
X023501Y024025D01*
X023501Y024022D02*
X023642Y024022D01*
X023792Y024022D01*
X023792Y024020D02*
X023642Y024020D01*
X023501Y024020D01*
X023501Y024017D02*
X023642Y024017D01*
X023792Y024017D01*
X023792Y024015D02*
X023642Y024015D01*
X023501Y024015D01*
X023501Y024013D02*
X023642Y024013D01*
X023792Y024013D01*
X023792Y024010D02*
X023642Y024010D01*
X023501Y024010D01*
X023501Y024008D02*
X023642Y024008D01*
X023792Y024008D01*
X023793Y024000D02*
X023642Y024000D01*
X023501Y024000D01*
X023501Y023998D02*
X023642Y023998D01*
X023643Y023998D02*
X023795Y023998D01*
X023796Y023995D02*
X023644Y023995D01*
X023642Y023995D02*
X023501Y023995D01*
X023501Y023993D02*
X023642Y023993D01*
X023642Y023991D02*
X023501Y023991D01*
X023501Y023988D02*
X023642Y023988D01*
X023642Y023986D02*
X023501Y023986D01*
X023501Y023983D02*
X023642Y023983D01*
X023642Y023981D02*
X023501Y023981D01*
X023501Y023978D02*
X023642Y023978D01*
X023642Y023976D02*
X023501Y023976D01*
X023501Y023974D02*
X023642Y023974D01*
X023642Y023971D02*
X023501Y023971D01*
X023501Y023969D02*
X023642Y023969D01*
X023642Y023966D02*
X023501Y023966D01*
X023501Y023964D02*
X023642Y023964D01*
X023642Y023961D02*
X023501Y023961D01*
X023501Y023959D02*
X023642Y023959D01*
X023642Y023957D02*
X023501Y023957D01*
X023501Y023954D02*
X023642Y023954D01*
X023642Y023952D02*
X023501Y023952D01*
X023501Y023949D02*
X023642Y023949D01*
X023642Y023947D02*
X023501Y023947D01*
X023501Y023944D02*
X023642Y023944D01*
X023642Y023942D02*
X023501Y023942D01*
X023501Y023939D02*
X023642Y023939D01*
X023642Y023937D02*
X023501Y023937D01*
X023501Y023935D02*
X023642Y023935D01*
X023642Y023932D02*
X023501Y023932D01*
X023501Y023930D02*
X023642Y023930D01*
X023642Y023927D02*
X023501Y023927D01*
X023501Y023925D02*
X023642Y023925D01*
X023642Y023922D02*
X023501Y023922D01*
X023501Y023920D02*
X023642Y023920D01*
X023642Y023918D02*
X023501Y023918D01*
X023501Y023915D02*
X023642Y023915D01*
X023642Y023913D02*
X023501Y023913D01*
X023501Y023910D02*
X023642Y023910D01*
X023642Y023908D02*
X023501Y023908D01*
X023501Y023905D02*
X023642Y023905D01*
X023642Y023903D02*
X023501Y023903D01*
X023501Y023900D02*
X023642Y023900D01*
X023642Y023898D02*
X023501Y023898D01*
X023501Y023896D02*
X023642Y023896D01*
X023642Y023893D02*
X023501Y023893D01*
X023501Y023891D02*
X023642Y023891D01*
X023642Y023888D02*
X023501Y023888D01*
X023501Y023886D02*
X023642Y023886D01*
X023642Y023883D02*
X023501Y023883D01*
X023501Y023881D02*
X023642Y023881D01*
X023642Y023879D02*
X023501Y023879D01*
X023501Y023876D02*
X023642Y023876D01*
X023642Y023874D02*
X023501Y023874D01*
X023501Y023871D02*
X023642Y023871D01*
X023642Y023869D02*
X023501Y023869D01*
X023501Y023866D02*
X023642Y023866D01*
X023642Y023864D02*
X023501Y023864D01*
X023501Y023861D02*
X023642Y023861D01*
X023642Y023859D02*
X023501Y023859D01*
X023501Y023857D02*
X023642Y023857D01*
X023642Y023854D02*
X023501Y023854D01*
X023501Y023852D02*
X023642Y023852D01*
X023642Y023849D02*
X023501Y023849D01*
X023501Y023847D02*
X023642Y023847D01*
X023642Y023844D02*
X023501Y023844D01*
X023501Y023842D02*
X023642Y023842D01*
X023642Y023840D02*
X023501Y023840D01*
X023501Y023837D02*
X023642Y023837D01*
X023642Y023835D02*
X023501Y023835D01*
X023501Y023832D02*
X023642Y023832D01*
X023642Y023830D02*
X023501Y023830D01*
X023501Y023827D02*
X023642Y023827D01*
X023642Y023825D02*
X023501Y023825D01*
X023501Y023822D02*
X023642Y023822D01*
X023642Y023820D02*
X023501Y023820D01*
X023501Y023818D02*
X023642Y023818D01*
X023642Y023815D02*
X023501Y023815D01*
X023501Y023813D02*
X023642Y023813D01*
X023642Y023810D02*
X023501Y023810D01*
X023501Y023808D02*
X023642Y023808D01*
X023642Y023805D02*
X023501Y023805D01*
X023501Y023803D02*
X023642Y023803D01*
X023642Y023801D02*
X023501Y023801D01*
X023501Y023798D02*
X023642Y023798D01*
X023642Y023796D02*
X023501Y023796D01*
X023501Y023793D02*
X023642Y023793D01*
X023642Y023791D02*
X023501Y023791D01*
X023501Y023788D02*
X023642Y023788D01*
X023642Y023786D02*
X023501Y023786D01*
X023501Y023783D02*
X023642Y023783D01*
X023642Y023781D02*
X023501Y023781D01*
X023501Y023779D02*
X023642Y023779D01*
X023642Y023776D02*
X023501Y023776D01*
X023501Y023774D02*
X023642Y023774D01*
X023642Y023771D02*
X023501Y023771D01*
X023501Y023769D02*
X023642Y023769D01*
X023642Y023766D02*
X023501Y023766D01*
X023501Y023764D02*
X023642Y023764D01*
X023642Y023762D02*
X023501Y023762D01*
X023708Y023857D02*
X023865Y023857D01*
X023864Y023859D02*
X023707Y023859D01*
X023706Y023861D02*
X023863Y023861D01*
X023862Y023864D02*
X023704Y023864D01*
X023703Y023866D02*
X023860Y023866D01*
X023859Y023869D02*
X023702Y023869D01*
X023701Y023871D02*
X023858Y023871D01*
X023857Y023874D02*
X023700Y023874D01*
X023699Y023876D02*
X023856Y023876D01*
X023854Y023879D02*
X023698Y023879D01*
X023697Y023881D02*
X023853Y023881D01*
X023852Y023883D02*
X023696Y023883D01*
X023694Y023886D02*
X023851Y023886D01*
X023849Y023888D02*
X023693Y023888D01*
X023692Y023891D02*
X023848Y023891D01*
X023847Y023893D02*
X023691Y023893D01*
X023690Y023896D02*
X023846Y023896D01*
X023845Y023898D02*
X023689Y023898D01*
X023688Y023900D02*
X023843Y023900D01*
X023842Y023903D02*
X023687Y023903D01*
X023685Y023905D02*
X023841Y023905D01*
X023840Y023908D02*
X023684Y023908D01*
X023683Y023910D02*
X023838Y023910D01*
X023837Y023913D02*
X023682Y023913D01*
X023681Y023915D02*
X023836Y023915D01*
X023835Y023918D02*
X023680Y023918D01*
X023679Y023920D02*
X023834Y023920D01*
X023832Y023922D02*
X023678Y023922D01*
X023677Y023925D02*
X023831Y023925D01*
X023830Y023927D02*
X023675Y023927D01*
X023674Y023930D02*
X023829Y023930D01*
X023828Y023932D02*
X023673Y023932D01*
X023672Y023935D02*
X023826Y023935D01*
X023825Y023937D02*
X023671Y023937D01*
X023670Y023939D02*
X023824Y023939D01*
X023823Y023942D02*
X023669Y023942D01*
X023668Y023944D02*
X023821Y023944D01*
X023820Y023947D02*
X023666Y023947D01*
X023665Y023949D02*
X023819Y023949D01*
X023818Y023952D02*
X023664Y023952D01*
X023663Y023954D02*
X023817Y023954D01*
X023815Y023957D02*
X023662Y023957D01*
X023661Y023959D02*
X023814Y023959D01*
X023813Y023961D02*
X023660Y023961D01*
X023659Y023964D02*
X023812Y023964D01*
X023810Y023966D02*
X023658Y023966D01*
X023656Y023969D02*
X023809Y023969D01*
X023808Y023971D02*
X023655Y023971D01*
X023654Y023974D02*
X023807Y023974D01*
X023806Y023976D02*
X023653Y023976D01*
X023652Y023978D02*
X023804Y023978D01*
X023803Y023981D02*
X023651Y023981D01*
X023650Y023983D02*
X023802Y023983D01*
X023801Y023986D02*
X023649Y023986D01*
X023647Y023988D02*
X023799Y023988D01*
X023798Y023991D02*
X023646Y023991D01*
X023645Y023993D02*
X023797Y023993D01*
X023866Y023854D02*
X023709Y023854D01*
X023710Y023852D02*
X023868Y023852D01*
X023869Y023849D02*
X023711Y023849D01*
X023712Y023847D02*
X023870Y023847D01*
X023871Y023844D02*
X023713Y023844D01*
X023715Y023842D02*
X023873Y023842D01*
X023874Y023840D02*
X023716Y023840D01*
X023717Y023837D02*
X023875Y023837D01*
X023876Y023835D02*
X023718Y023835D01*
X023719Y023832D02*
X023877Y023832D01*
X023879Y023830D02*
X023720Y023830D01*
X023721Y023827D02*
X023880Y023827D01*
X023881Y023825D02*
X023722Y023825D01*
X023724Y023822D02*
X023882Y023822D01*
X023884Y023820D02*
X023725Y023820D01*
X023726Y023818D02*
X023885Y023818D01*
X023886Y023815D02*
X023727Y023815D01*
X023728Y023813D02*
X023887Y023813D01*
X023888Y023810D02*
X023729Y023810D01*
X023730Y023808D02*
X023890Y023808D01*
X023891Y023805D02*
X023731Y023805D01*
X023732Y023803D02*
X023892Y023803D01*
X023893Y023801D02*
X023734Y023801D01*
X023735Y023798D02*
X023895Y023798D01*
X023896Y023796D02*
X023736Y023796D01*
X023737Y023793D02*
X023897Y023793D01*
X023898Y023791D02*
X023738Y023791D01*
X023739Y023788D02*
X023899Y023788D01*
X023901Y023786D02*
X023740Y023786D01*
X023741Y023783D02*
X023902Y023783D01*
X023903Y023781D02*
X023743Y023781D01*
X023744Y023779D02*
X023904Y023779D01*
X023905Y023776D02*
X023745Y023776D01*
X023746Y023774D02*
X023907Y023774D01*
X023908Y023771D02*
X023747Y023771D01*
X023748Y023769D02*
X023909Y023769D01*
X023910Y023766D02*
X023749Y023766D01*
X023750Y023764D02*
X023912Y023764D01*
X023913Y023762D02*
X023751Y023762D01*
X023957Y023762D02*
X024099Y023762D01*
X024099Y023764D02*
X023957Y023764D01*
X023957Y023766D02*
X024099Y023766D01*
X024099Y023769D02*
X023957Y023769D01*
X023957Y023771D02*
X024099Y023771D01*
X024099Y023774D02*
X023957Y023774D01*
X023957Y023776D02*
X024099Y023776D01*
X024099Y023779D02*
X023957Y023779D01*
X023957Y023781D02*
X024099Y023781D01*
X024099Y023783D02*
X023957Y023783D01*
X023957Y023786D02*
X024099Y023786D01*
X024099Y023788D02*
X023957Y023788D01*
X023957Y023791D02*
X024099Y023791D01*
X024099Y023793D02*
X023957Y023793D01*
X023957Y023796D02*
X024099Y023796D01*
X024099Y023798D02*
X023957Y023798D01*
X023957Y023801D02*
X024099Y023801D01*
X024099Y023803D02*
X023957Y023803D01*
X023957Y023805D02*
X024099Y023805D01*
X024099Y023808D02*
X023957Y023808D01*
X023957Y023810D02*
X024099Y023810D01*
X024099Y023813D02*
X023957Y023813D01*
X023957Y023815D02*
X024099Y023815D01*
X024099Y023818D02*
X023957Y023818D01*
X023957Y023820D02*
X024099Y023820D01*
X024099Y023822D02*
X023957Y023822D01*
X023957Y023825D02*
X024099Y023825D01*
X024099Y023827D02*
X023957Y023827D01*
X023957Y023830D02*
X024099Y023830D01*
X024099Y023832D02*
X023957Y023832D01*
X023957Y023835D02*
X024099Y023835D01*
X024099Y023837D02*
X023957Y023837D01*
X023957Y023840D02*
X024099Y023840D01*
X024099Y023842D02*
X023957Y023842D01*
X023957Y023844D02*
X024099Y023844D01*
X024099Y023847D02*
X023957Y023847D01*
X023957Y023849D02*
X024099Y023849D01*
X024099Y023852D02*
X023957Y023852D01*
X023957Y023854D02*
X024099Y023854D01*
X024099Y023857D02*
X023957Y023857D01*
X023957Y023859D02*
X024099Y023859D01*
X024099Y023861D02*
X023957Y023861D01*
X023957Y023864D02*
X024099Y023864D01*
X024099Y023866D02*
X023957Y023866D01*
X023957Y023869D02*
X024099Y023869D01*
X024099Y023871D02*
X023957Y023871D01*
X023957Y023874D02*
X024099Y023874D01*
X024099Y023876D02*
X023957Y023876D01*
X023957Y023879D02*
X024099Y023879D01*
X024099Y023881D02*
X023957Y023881D01*
X023957Y023883D02*
X024099Y023883D01*
X024099Y023886D02*
X023957Y023886D01*
X023957Y023888D02*
X024099Y023888D01*
X024099Y023891D02*
X023957Y023891D01*
X023957Y023893D02*
X024099Y023893D01*
X024099Y023896D02*
X023957Y023896D01*
X023957Y023898D02*
X024099Y023898D01*
X024099Y023900D02*
X023957Y023900D01*
X023957Y023903D02*
X024099Y023903D01*
X024099Y023905D02*
X023957Y023905D01*
X023957Y023908D02*
X024099Y023908D01*
X024099Y023910D02*
X023957Y023910D01*
X023957Y023913D02*
X024099Y023913D01*
X024099Y023915D02*
X023957Y023915D01*
X023957Y023918D02*
X024099Y023918D01*
X024099Y023920D02*
X023957Y023920D01*
X023957Y023922D02*
X024099Y023922D01*
X024099Y023925D02*
X023957Y023925D01*
X023957Y023927D02*
X024099Y023927D01*
X024099Y023930D02*
X023957Y023930D01*
X023957Y023932D02*
X024099Y023932D01*
X024099Y023935D02*
X023957Y023935D01*
X023957Y023937D02*
X024099Y023937D01*
X024099Y023939D02*
X023957Y023939D01*
X023957Y023942D02*
X024099Y023942D01*
X024099Y023944D02*
X023957Y023944D01*
X023957Y023947D02*
X024099Y023947D01*
X024099Y023949D02*
X023957Y023949D01*
X023957Y023952D02*
X024099Y023952D01*
X024099Y023954D02*
X023957Y023954D01*
X023957Y023957D02*
X024099Y023957D01*
X024099Y023959D02*
X023957Y023959D01*
X023957Y023961D02*
X024099Y023961D01*
X024099Y023964D02*
X023957Y023964D01*
X023957Y023966D02*
X024099Y023966D01*
X024099Y023969D02*
X023957Y023969D01*
X023957Y023971D02*
X024099Y023971D01*
X024099Y023974D02*
X023957Y023974D01*
X023957Y023976D02*
X024099Y023976D01*
X024099Y023978D02*
X023957Y023978D01*
X023957Y023981D02*
X024099Y023981D01*
X024099Y023983D02*
X023957Y023983D01*
X023957Y023986D02*
X024099Y023986D01*
X024099Y023988D02*
X023957Y023988D01*
X023957Y023991D02*
X024099Y023991D01*
X024099Y023993D02*
X023957Y023993D01*
X023957Y023995D02*
X024099Y023995D01*
X024099Y023998D02*
X023957Y023998D01*
X023957Y024000D02*
X024099Y024000D01*
X024099Y024003D02*
X023957Y024003D01*
X023957Y024005D02*
X024099Y024005D01*
X024099Y024008D02*
X023957Y024008D01*
X023957Y024010D02*
X024099Y024010D01*
X024099Y024013D02*
X023957Y024013D01*
X023957Y024015D02*
X024099Y024015D01*
X024099Y024017D02*
X023957Y024017D01*
X023957Y024020D02*
X024099Y024020D01*
X024099Y024022D02*
X023957Y024022D01*
X023957Y024025D02*
X024099Y024025D01*
X024099Y024027D02*
X023957Y024027D01*
X023957Y024030D02*
X024099Y024030D01*
X024099Y024032D02*
X023957Y024032D01*
X023957Y024034D02*
X024099Y024034D01*
X024099Y024037D02*
X023957Y024037D01*
X023957Y024039D02*
X024099Y024039D01*
X024099Y024042D02*
X023957Y024042D01*
X023957Y024044D02*
X024099Y024044D01*
X024099Y024047D02*
X023957Y024047D01*
X023957Y024049D02*
X024099Y024049D01*
X024099Y024052D02*
X023957Y024052D01*
X023957Y024054D02*
X024099Y024054D01*
X024099Y024056D02*
X023957Y024056D01*
X023957Y024059D02*
X024099Y024059D01*
X024099Y024061D02*
X023957Y024061D01*
X023957Y024064D02*
X024099Y024064D01*
X024099Y024066D02*
X023957Y024066D01*
X023957Y024069D02*
X024099Y024069D01*
X024099Y024071D02*
X023957Y024071D01*
X023957Y024073D02*
X024099Y024073D01*
X024099Y024076D02*
X023957Y024076D01*
X023957Y024078D02*
X024099Y024078D01*
X024099Y024081D02*
X023957Y024081D01*
X023957Y024083D02*
X024099Y024083D01*
X024099Y024086D02*
X023957Y024086D01*
X023957Y024088D02*
X024099Y024088D01*
X024099Y024091D02*
X023957Y024091D01*
X023957Y024093D02*
X024099Y024093D01*
X024099Y024095D02*
X023957Y024095D01*
X023957Y024098D02*
X024099Y024098D01*
X024099Y024100D02*
X023957Y024100D01*
X023957Y024103D02*
X024099Y024103D01*
X024099Y024105D02*
X023957Y024105D01*
X023957Y024108D02*
X024099Y024108D01*
X024099Y024110D02*
X023957Y024110D01*
X023957Y024112D02*
X024099Y024112D01*
X024099Y024115D02*
X023957Y024115D01*
X023957Y024117D02*
X024099Y024117D01*
X024099Y024120D02*
X023957Y024120D01*
X023957Y024122D02*
X024099Y024122D01*
X024099Y024125D02*
X023957Y024125D01*
X023957Y024127D02*
X024099Y024127D01*
X024099Y024130D02*
X023957Y024130D01*
X023957Y024132D02*
X024099Y024132D01*
X024099Y024134D02*
X023957Y024134D01*
X023957Y024137D02*
X024099Y024137D01*
X024099Y024139D02*
X023957Y024139D01*
X023957Y024142D02*
X024099Y024142D01*
X024099Y024144D02*
X023957Y024144D01*
X023957Y024147D02*
X024099Y024147D01*
X024099Y024149D02*
X023957Y024149D01*
X023957Y024151D02*
X024099Y024151D01*
X024099Y024154D02*
X023957Y024154D01*
X023957Y024156D02*
X024099Y024156D01*
X024099Y024159D02*
X023957Y024159D01*
X023957Y024161D02*
X024099Y024161D01*
X024099Y024164D02*
X023957Y024164D01*
X023957Y024166D02*
X024099Y024166D01*
X024099Y024169D02*
X023957Y024169D01*
X023957Y024171D02*
X024099Y024171D01*
X024099Y024173D02*
X023957Y024173D01*
X023957Y024176D02*
X024099Y024176D01*
X024099Y024178D02*
X023957Y024178D01*
X023957Y024181D02*
X024099Y024181D01*
X024099Y024183D02*
X023957Y024183D01*
X023957Y024186D02*
X024099Y024186D01*
X024099Y024188D02*
X023957Y024188D01*
X023957Y024190D02*
X024099Y024190D01*
X024099Y024193D02*
X023957Y024193D01*
X023957Y024195D02*
X024099Y024195D01*
X024099Y024198D02*
X023957Y024198D01*
X023957Y024200D02*
X024099Y024200D01*
X024099Y024203D02*
X023957Y024203D01*
X023957Y024205D02*
X024099Y024205D01*
X024099Y024208D02*
X023957Y024208D01*
X023957Y024210D02*
X024099Y024210D01*
X024099Y024212D02*
X023957Y024212D01*
X023957Y024215D02*
X024099Y024215D01*
X024099Y024217D02*
X023957Y024217D01*
X023957Y024220D02*
X024099Y024220D01*
X024099Y024222D02*
X023957Y024222D01*
X023957Y024225D02*
X024099Y024225D01*
X024099Y024227D02*
X023957Y024227D01*
X023957Y024229D02*
X024099Y024229D01*
X024099Y024232D02*
X023957Y024232D01*
X023957Y023759D01*
X024099Y023759D01*
X024099Y024232D01*
X024146Y024232D02*
X024501Y024232D01*
X024501Y024098D01*
X024398Y024098D01*
X024398Y023759D01*
X024249Y023759D01*
X024249Y024098D01*
X024146Y024098D01*
X024146Y024232D01*
X024146Y024229D02*
X024501Y024229D01*
X024501Y024227D02*
X024146Y024227D01*
X024146Y024225D02*
X024501Y024225D01*
X024501Y024222D02*
X024146Y024222D01*
X024146Y024220D02*
X024501Y024220D01*
X024501Y024217D02*
X024146Y024217D01*
X024146Y024215D02*
X024501Y024215D01*
X024501Y024212D02*
X024146Y024212D01*
X024146Y024210D02*
X024501Y024210D01*
X024501Y024208D02*
X024146Y024208D01*
X024146Y024205D02*
X024501Y024205D01*
X024501Y024203D02*
X024146Y024203D01*
X024146Y024200D02*
X024501Y024200D01*
X024501Y024198D02*
X024146Y024198D01*
X024146Y024195D02*
X024501Y024195D01*
X024501Y024193D02*
X024146Y024193D01*
X024146Y024190D02*
X024501Y024190D01*
X024501Y024188D02*
X024146Y024188D01*
X024146Y024186D02*
X024501Y024186D01*
X024501Y024183D02*
X024146Y024183D01*
X024146Y024181D02*
X024501Y024181D01*
X024501Y024178D02*
X024146Y024178D01*
X024146Y024176D02*
X024501Y024176D01*
X024501Y024173D02*
X024146Y024173D01*
X024146Y024171D02*
X024501Y024171D01*
X024501Y024169D02*
X024146Y024169D01*
X024146Y024166D02*
X024501Y024166D01*
X024501Y024164D02*
X024146Y024164D01*
X024146Y024161D02*
X024501Y024161D01*
X024501Y024159D02*
X024146Y024159D01*
X024146Y024156D02*
X024501Y024156D01*
X024501Y024154D02*
X024146Y024154D01*
X024146Y024151D02*
X024501Y024151D01*
X024501Y024149D02*
X024146Y024149D01*
X024146Y024147D02*
X024501Y024147D01*
X024501Y024144D02*
X024146Y024144D01*
X024146Y024142D02*
X024501Y024142D01*
X024501Y024139D02*
X024146Y024139D01*
X024146Y024137D02*
X024501Y024137D01*
X024501Y024134D02*
X024146Y024134D01*
X024146Y024132D02*
X024501Y024132D01*
X024501Y024130D02*
X024146Y024130D01*
X024146Y024127D02*
X024501Y024127D01*
X024501Y024125D02*
X024146Y024125D01*
X024146Y024122D02*
X024501Y024122D01*
X024501Y024120D02*
X024146Y024120D01*
X024146Y024117D02*
X024501Y024117D01*
X024501Y024115D02*
X024146Y024115D01*
X024146Y024112D02*
X024501Y024112D01*
X024501Y024110D02*
X024146Y024110D01*
X024146Y024108D02*
X024501Y024108D01*
X024501Y024105D02*
X024146Y024105D01*
X024146Y024103D02*
X024501Y024103D01*
X024501Y024100D02*
X024146Y024100D01*
X024249Y024098D02*
X024398Y024098D01*
X024398Y024095D02*
X024249Y024095D01*
X024249Y024093D02*
X024398Y024093D01*
X024398Y024091D02*
X024249Y024091D01*
X024249Y024088D02*
X024398Y024088D01*
X024398Y024086D02*
X024249Y024086D01*
X024249Y024083D02*
X024398Y024083D01*
X024398Y024081D02*
X024249Y024081D01*
X024249Y024078D02*
X024398Y024078D01*
X024398Y024076D02*
X024249Y024076D01*
X024249Y024073D02*
X024398Y024073D01*
X024398Y024071D02*
X024249Y024071D01*
X024249Y024069D02*
X024398Y024069D01*
X024398Y024066D02*
X024249Y024066D01*
X024249Y024064D02*
X024398Y024064D01*
X024398Y024061D02*
X024249Y024061D01*
X024249Y024059D02*
X024398Y024059D01*
X024398Y024056D02*
X024249Y024056D01*
X024249Y024054D02*
X024398Y024054D01*
X024398Y024052D02*
X024249Y024052D01*
X024249Y024049D02*
X024398Y024049D01*
X024398Y024047D02*
X024249Y024047D01*
X024249Y024044D02*
X024398Y024044D01*
X024398Y024042D02*
X024249Y024042D01*
X024249Y024039D02*
X024398Y024039D01*
X024398Y024037D02*
X024249Y024037D01*
X024249Y024034D02*
X024398Y024034D01*
X024398Y024032D02*
X024249Y024032D01*
X024249Y024030D02*
X024398Y024030D01*
X024398Y024027D02*
X024249Y024027D01*
X024249Y024025D02*
X024398Y024025D01*
X024398Y024022D02*
X024249Y024022D01*
X024249Y024020D02*
X024398Y024020D01*
X024398Y024017D02*
X024249Y024017D01*
X024249Y024015D02*
X024398Y024015D01*
X024398Y024013D02*
X024249Y024013D01*
X024249Y024010D02*
X024398Y024010D01*
X024398Y024008D02*
X024249Y024008D01*
X024249Y024005D02*
X024398Y024005D01*
X024398Y024003D02*
X024249Y024003D01*
X024249Y024000D02*
X024398Y024000D01*
X024398Y023998D02*
X024249Y023998D01*
X024249Y023995D02*
X024398Y023995D01*
X024398Y023993D02*
X024249Y023993D01*
X024249Y023991D02*
X024398Y023991D01*
X024398Y023988D02*
X024249Y023988D01*
X024249Y023986D02*
X024398Y023986D01*
X024398Y023983D02*
X024249Y023983D01*
X024249Y023981D02*
X024398Y023981D01*
X024398Y023978D02*
X024249Y023978D01*
X024249Y023976D02*
X024398Y023976D01*
X024398Y023974D02*
X024249Y023974D01*
X024249Y023971D02*
X024398Y023971D01*
X024398Y023969D02*
X024249Y023969D01*
X024249Y023966D02*
X024398Y023966D01*
X024398Y023964D02*
X024249Y023964D01*
X024249Y023961D02*
X024398Y023961D01*
X024398Y023959D02*
X024249Y023959D01*
X024249Y023957D02*
X024398Y023957D01*
X024398Y023954D02*
X024249Y023954D01*
X024249Y023952D02*
X024398Y023952D01*
X024398Y023949D02*
X024249Y023949D01*
X024249Y023947D02*
X024398Y023947D01*
X024398Y023944D02*
X024249Y023944D01*
X024249Y023942D02*
X024398Y023942D01*
X024398Y023939D02*
X024249Y023939D01*
X024249Y023937D02*
X024398Y023937D01*
X024398Y023935D02*
X024249Y023935D01*
X024249Y023932D02*
X024398Y023932D01*
X024398Y023930D02*
X024249Y023930D01*
X024249Y023927D02*
X024398Y023927D01*
X024398Y023925D02*
X024249Y023925D01*
X024249Y023922D02*
X024398Y023922D01*
X024398Y023920D02*
X024249Y023920D01*
X024249Y023918D02*
X024398Y023918D01*
X024398Y023915D02*
X024249Y023915D01*
X024249Y023913D02*
X024398Y023913D01*
X024398Y023910D02*
X024249Y023910D01*
X024249Y023908D02*
X024398Y023908D01*
X024398Y023905D02*
X024249Y023905D01*
X024249Y023903D02*
X024398Y023903D01*
X024398Y023900D02*
X024249Y023900D01*
X024249Y023898D02*
X024398Y023898D01*
X024398Y023896D02*
X024249Y023896D01*
X024249Y023893D02*
X024398Y023893D01*
X024398Y023891D02*
X024249Y023891D01*
X024249Y023888D02*
X024398Y023888D01*
X024398Y023886D02*
X024249Y023886D01*
X024249Y023883D02*
X024398Y023883D01*
X024398Y023881D02*
X024249Y023881D01*
X024249Y023879D02*
X024398Y023879D01*
X024398Y023876D02*
X024249Y023876D01*
X024249Y023874D02*
X024398Y023874D01*
X024398Y023871D02*
X024249Y023871D01*
X024249Y023869D02*
X024398Y023869D01*
X024398Y023866D02*
X024249Y023866D01*
X024249Y023864D02*
X024398Y023864D01*
X024398Y023861D02*
X024249Y023861D01*
X024249Y023859D02*
X024398Y023859D01*
X024398Y023857D02*
X024249Y023857D01*
X024249Y023854D02*
X024398Y023854D01*
X024398Y023852D02*
X024249Y023852D01*
X024249Y023849D02*
X024398Y023849D01*
X024398Y023847D02*
X024249Y023847D01*
X024249Y023844D02*
X024398Y023844D01*
X024398Y023842D02*
X024249Y023842D01*
X024249Y023840D02*
X024398Y023840D01*
X024398Y023837D02*
X024249Y023837D01*
X024249Y023835D02*
X024398Y023835D01*
X024398Y023832D02*
X024249Y023832D01*
X024249Y023830D02*
X024398Y023830D01*
X024398Y023827D02*
X024249Y023827D01*
X024249Y023825D02*
X024398Y023825D01*
X024398Y023822D02*
X024249Y023822D01*
X024249Y023820D02*
X024398Y023820D01*
X024398Y023818D02*
X024249Y023818D01*
X024249Y023815D02*
X024398Y023815D01*
X024398Y023813D02*
X024249Y023813D01*
X024249Y023810D02*
X024398Y023810D01*
X024398Y023808D02*
X024249Y023808D01*
X024249Y023805D02*
X024398Y023805D01*
X024398Y023803D02*
X024249Y023803D01*
X024249Y023801D02*
X024398Y023801D01*
X024398Y023798D02*
X024249Y023798D01*
X024249Y023796D02*
X024398Y023796D01*
X024398Y023793D02*
X024249Y023793D01*
X024249Y023791D02*
X024398Y023791D01*
X024398Y023788D02*
X024249Y023788D01*
X024249Y023786D02*
X024398Y023786D01*
X024398Y023783D02*
X024249Y023783D01*
X024249Y023781D02*
X024398Y023781D01*
X024398Y023779D02*
X024249Y023779D01*
X024249Y023776D02*
X024398Y023776D01*
X024398Y023774D02*
X024249Y023774D01*
X024249Y023771D02*
X024398Y023771D01*
X024398Y023769D02*
X024249Y023769D01*
X024249Y023766D02*
X024398Y023766D01*
X024398Y023764D02*
X024249Y023764D01*
X024249Y023762D02*
X024398Y023762D01*
X023882Y024181D02*
X023729Y024181D01*
X023731Y024183D02*
X023884Y024183D01*
X023885Y024186D02*
X023732Y024186D01*
X023734Y024188D02*
X023887Y024188D01*
X023888Y024190D02*
X023735Y024190D01*
X023737Y024193D02*
X023890Y024193D01*
X023891Y024195D02*
X023738Y024195D01*
X023740Y024198D02*
X023893Y024198D01*
X023894Y024200D02*
X023741Y024200D01*
X023743Y024203D02*
X023896Y024203D01*
X023897Y024205D02*
X023744Y024205D01*
X023746Y024208D02*
X023899Y024208D01*
X023900Y024210D02*
X023747Y024210D01*
X023749Y024212D02*
X023902Y024212D01*
X023903Y024215D02*
X023750Y024215D01*
X023752Y024217D02*
X023905Y024217D01*
X023906Y024220D02*
X023753Y024220D01*
X023755Y024222D02*
X023908Y024222D01*
X023910Y024225D02*
X023756Y024225D01*
X023758Y024227D02*
X023911Y024227D01*
X023913Y024229D02*
X023759Y024229D01*
X023642Y024056D02*
X023501Y024056D01*
X023501Y024054D02*
X023642Y024054D01*
X023642Y024052D02*
X023501Y024052D01*
X023501Y024049D02*
X023642Y024049D01*
X023642Y024047D02*
X023501Y024047D01*
X023501Y024044D02*
X023642Y024044D01*
X023642Y024042D02*
X023501Y024042D01*
X023178Y023796D02*
X023115Y023796D01*
X023115Y023793D02*
X023178Y023793D01*
X023178Y023791D02*
X023115Y023791D01*
X023115Y023788D02*
X023178Y023788D01*
X023178Y023786D02*
X023115Y023786D01*
X023115Y023783D02*
X023178Y023783D01*
X023178Y023781D02*
X023115Y023781D01*
X023115Y023779D02*
X023178Y023779D01*
X023178Y023776D02*
X023115Y023776D01*
X023115Y023774D02*
X023178Y023774D01*
X023178Y023771D02*
X023115Y023771D01*
X023115Y023769D02*
X023178Y023769D01*
X023178Y023766D02*
X023115Y023766D01*
X023115Y023764D02*
X023178Y023764D01*
X023178Y023762D02*
X023115Y023762D01*
X023115Y023759D02*
X023178Y023759D01*
X023178Y023757D02*
X023115Y023757D01*
X023115Y023754D02*
X023178Y023754D01*
X023178Y023752D02*
X023115Y023752D01*
X023115Y023749D02*
X023178Y023749D01*
X023178Y023747D02*
X023115Y023747D01*
X023115Y023744D02*
X023178Y023744D01*
X023178Y023742D02*
X023115Y023742D01*
X023115Y023740D02*
X023178Y023740D01*
X023178Y023737D02*
X023115Y023737D01*
X023115Y023735D02*
X023178Y023735D01*
X023178Y023732D02*
X023115Y023732D01*
X023115Y023730D02*
X023178Y023730D01*
X023178Y023727D02*
X023115Y023727D01*
X023115Y023725D02*
X023178Y023725D01*
X023178Y023723D02*
X023115Y023723D01*
X023115Y023720D02*
X023178Y023720D01*
X023178Y023718D02*
X023115Y023718D01*
X023115Y023715D02*
X023178Y023715D01*
X023178Y023713D02*
X023115Y023713D01*
X023115Y023710D02*
X023178Y023710D01*
X023178Y023708D02*
X023115Y023708D01*
X023115Y023705D02*
X023178Y023705D01*
X023178Y023703D02*
X023115Y023703D01*
X023115Y023701D02*
X023178Y023701D01*
X023178Y023698D02*
X023115Y023698D01*
X023115Y023696D02*
X023178Y023696D01*
X023178Y023693D02*
X023115Y023693D01*
X023115Y023691D02*
X023178Y023691D01*
X023178Y023688D02*
X023115Y023688D01*
X023115Y023686D02*
X023178Y023686D01*
X023178Y023684D02*
X023115Y023684D01*
X023115Y023681D02*
X023178Y023681D01*
X023178Y023679D02*
X023115Y023679D01*
X023115Y023676D02*
X023178Y023676D01*
X023178Y023674D02*
X023115Y023674D01*
X023115Y023671D02*
X023178Y023671D01*
X023178Y023669D02*
X023115Y023669D01*
X023115Y023666D02*
X023178Y023666D01*
X023178Y023664D02*
X023115Y023664D01*
X023115Y023662D02*
X023178Y023662D01*
X023178Y023659D02*
X023115Y023659D01*
X023115Y023657D02*
X023178Y023657D01*
X023178Y023654D02*
X023115Y023654D01*
X023115Y023652D02*
X023178Y023652D01*
X023178Y023649D02*
X023115Y023649D01*
X023115Y023647D02*
X023178Y023647D01*
X023178Y023645D02*
X023115Y023645D01*
X023115Y023642D02*
X023178Y023642D01*
X023178Y023640D02*
X023115Y023640D01*
X023115Y023637D02*
X023178Y023637D01*
X023178Y023635D02*
X023115Y023635D01*
X023115Y023632D02*
X023178Y023632D01*
X023178Y023630D02*
X023115Y023630D01*
X023115Y023627D02*
X023178Y023627D01*
X023178Y023625D02*
X023115Y023625D01*
X023115Y023623D02*
X023178Y023623D01*
D19*
X024587Y024169D02*
X024587Y024267D01*
X024619Y024267D02*
X024554Y024267D01*
X024663Y024267D02*
X024695Y024234D01*
X024728Y024267D01*
X024728Y024169D01*
X024663Y024169D02*
X024663Y024267D01*
D20*
X021385Y024276D03*
X021385Y024080D03*
X021385Y023883D03*
X021385Y023686D03*
X021385Y023489D03*
X021385Y023292D03*
X021385Y023095D03*
X021385Y022898D03*
X021385Y022702D03*
X021385Y022505D03*
X021385Y022308D03*
X021385Y022111D03*
X021385Y021914D03*
X021385Y021717D03*
X021385Y021520D03*
X021385Y021324D03*
X017134Y021324D03*
X017134Y021520D03*
X017134Y021717D03*
X017134Y021914D03*
X017134Y022111D03*
X017134Y022308D03*
X017134Y022505D03*
X017134Y022702D03*
X017134Y022898D03*
X017134Y023095D03*
X017134Y023292D03*
X017134Y023489D03*
X017134Y023686D03*
X017134Y023883D03*
X017134Y024080D03*
X017134Y024276D03*
D21*
X017783Y024926D03*
X017980Y024926D03*
X018177Y024926D03*
X018374Y024926D03*
X018571Y024926D03*
X018767Y024926D03*
X018964Y024926D03*
X019161Y024926D03*
X019358Y024926D03*
X019555Y024926D03*
X019752Y024926D03*
X019948Y024926D03*
X020145Y024926D03*
X020342Y024926D03*
X020539Y024926D03*
X020736Y024926D03*
X020736Y020674D03*
X020539Y020674D03*
X020342Y020674D03*
X020145Y020674D03*
X019948Y020674D03*
X019752Y020674D03*
X019555Y020674D03*
X019358Y020674D03*
X019161Y020674D03*
X018964Y020674D03*
X018767Y020674D03*
X018571Y020674D03*
X018374Y020674D03*
X018177Y020674D03*
X017980Y020674D03*
X017783Y020674D03*
M02*
