G75*
%MOIN*%
%OFA0B0*%
%FSLAX24Y24*%
%IPPOS*%
%LPD*%
%AMOC8*
5,1,8,0,0,1.08239X$1,22.5*
%
%ADD10C,0.0000*%
%ADD11C,0.0740*%
%ADD12R,0.0740X0.0740*%
%ADD13C,0.0660*%
%ADD14C,0.0270*%
%ADD15C,0.0100*%
%ADD16C,0.0080*%
%ADD17C,0.0160*%
D10*
X004240Y017780D02*
X004240Y027820D01*
X032280Y027820D01*
X032280Y017780D01*
X004240Y017780D01*
X006763Y021364D02*
X006765Y021390D01*
X006771Y021416D01*
X006780Y021440D01*
X006793Y021463D01*
X006810Y021483D01*
X006829Y021501D01*
X006851Y021516D01*
X006874Y021527D01*
X006899Y021535D01*
X006925Y021539D01*
X006951Y021539D01*
X006977Y021535D01*
X007002Y021527D01*
X007026Y021516D01*
X007047Y021501D01*
X007066Y021483D01*
X007083Y021463D01*
X007096Y021440D01*
X007105Y021416D01*
X007111Y021390D01*
X007113Y021364D01*
X007111Y021338D01*
X007105Y021312D01*
X007096Y021288D01*
X007083Y021265D01*
X007066Y021245D01*
X007047Y021227D01*
X007025Y021212D01*
X007002Y021201D01*
X006977Y021193D01*
X006951Y021189D01*
X006925Y021189D01*
X006899Y021193D01*
X006874Y021201D01*
X006850Y021212D01*
X006829Y021227D01*
X006810Y021245D01*
X006793Y021265D01*
X006780Y021288D01*
X006771Y021312D01*
X006765Y021338D01*
X006763Y021364D01*
X006763Y024514D02*
X006765Y024540D01*
X006771Y024566D01*
X006780Y024590D01*
X006793Y024613D01*
X006810Y024633D01*
X006829Y024651D01*
X006851Y024666D01*
X006874Y024677D01*
X006899Y024685D01*
X006925Y024689D01*
X006951Y024689D01*
X006977Y024685D01*
X007002Y024677D01*
X007026Y024666D01*
X007047Y024651D01*
X007066Y024633D01*
X007083Y024613D01*
X007096Y024590D01*
X007105Y024566D01*
X007111Y024540D01*
X007113Y024514D01*
X007111Y024488D01*
X007105Y024462D01*
X007096Y024438D01*
X007083Y024415D01*
X007066Y024395D01*
X007047Y024377D01*
X007025Y024362D01*
X007002Y024351D01*
X006977Y024343D01*
X006951Y024339D01*
X006925Y024339D01*
X006899Y024343D01*
X006874Y024351D01*
X006850Y024362D01*
X006829Y024377D01*
X006810Y024395D01*
X006793Y024415D01*
X006780Y024438D01*
X006771Y024462D01*
X006765Y024488D01*
X006763Y024514D01*
D11*
X006760Y027300D03*
X007760Y027300D03*
X008760Y027300D03*
X009760Y027300D03*
X010760Y027300D03*
X011760Y027300D03*
X012760Y027300D03*
X013760Y027300D03*
X014760Y027300D03*
X015760Y027300D03*
X016760Y027300D03*
X017760Y027300D03*
X018760Y027300D03*
X019760Y027300D03*
X020760Y027300D03*
X021760Y027300D03*
X022760Y027300D03*
X023760Y027300D03*
X024760Y027300D03*
X025760Y027300D03*
X026760Y027300D03*
X027760Y027300D03*
X028760Y027300D03*
X029760Y027300D03*
X030760Y027300D03*
X030760Y018300D03*
X031760Y018300D03*
X029760Y018300D03*
X028760Y018300D03*
X027760Y018300D03*
X026760Y018300D03*
X025760Y018300D03*
X024760Y018300D03*
X023760Y018300D03*
X022760Y018300D03*
X021760Y018300D03*
X020760Y018300D03*
X019760Y018300D03*
X018760Y018300D03*
X017760Y018300D03*
X016760Y018300D03*
X015760Y018300D03*
X014760Y018300D03*
X013760Y018300D03*
X012760Y018300D03*
X011760Y018300D03*
X010760Y018300D03*
X009760Y018300D03*
X008760Y018300D03*
X007760Y018300D03*
X006760Y018300D03*
X005760Y018300D03*
X004760Y018300D03*
X004760Y027300D03*
X005760Y027300D03*
D12*
X031760Y027300D03*
D13*
X024260Y026050D03*
X024260Y025050D03*
D14*
X026560Y024800D03*
X027360Y024800D03*
X027960Y024800D03*
X028360Y024300D03*
X028360Y023800D03*
X027960Y023200D03*
X027360Y023200D03*
X026560Y023200D03*
X024920Y023300D03*
X023880Y023100D03*
X023970Y022590D03*
X022760Y022000D03*
X022260Y021790D03*
X022050Y021240D03*
X020560Y021500D03*
X020560Y022300D03*
X020760Y022700D03*
X020960Y023690D03*
X020260Y024000D03*
X019920Y023780D03*
X019550Y024340D03*
X018460Y024550D03*
X017700Y024200D03*
X017620Y023800D03*
X018860Y023100D03*
X017660Y022800D03*
X017700Y022190D03*
X018080Y022000D03*
X018020Y021620D03*
X017640Y021420D03*
X016420Y021560D03*
X015970Y021970D03*
X015550Y022260D03*
X015950Y022720D03*
X015690Y023400D03*
X015690Y023800D03*
X014060Y024300D03*
X014340Y025080D03*
X014780Y025220D03*
X013360Y024800D03*
X013060Y025100D03*
X011860Y024400D03*
X010560Y023200D03*
X011960Y022800D03*
X012160Y022200D03*
X010360Y021600D03*
X008760Y020300D03*
X007100Y022460D03*
X007760Y022900D03*
X007120Y023330D03*
X005260Y023300D03*
X005611Y024629D03*
X008240Y025560D03*
X014030Y021870D03*
X017410Y020060D03*
X018060Y019900D03*
X017560Y019400D03*
X019270Y019660D03*
X019460Y020010D03*
X019670Y019640D03*
X020960Y020100D03*
X022960Y019800D03*
X026660Y020300D03*
X029060Y021550D03*
X029660Y022600D03*
X029260Y022700D03*
X029460Y023300D03*
X030760Y025300D03*
X022460Y023400D03*
X022060Y023600D03*
X020960Y024090D03*
X019660Y025800D03*
X018530Y025660D03*
X017220Y025280D03*
X022410Y022590D03*
D15*
X022598Y022242D02*
X022518Y022161D01*
X022475Y022057D01*
X022475Y021978D01*
X022421Y022032D01*
X022316Y022075D01*
X022203Y022075D01*
X022098Y022032D01*
X022018Y021951D01*
X021975Y021847D01*
X021975Y021733D01*
X022018Y021629D01*
X022098Y021548D01*
X022142Y021530D01*
X022071Y021530D01*
X022066Y021525D01*
X021993Y021525D01*
X021888Y021482D01*
X021808Y021401D01*
X021765Y021297D01*
X021765Y021183D01*
X021808Y021079D01*
X021888Y020998D01*
X021993Y020955D01*
X022106Y020955D01*
X022211Y020998D01*
X022291Y021079D01*
X022321Y021150D01*
X028928Y021150D01*
X029043Y021265D01*
X029116Y021265D01*
X029221Y021308D01*
X029301Y021389D01*
X029345Y021493D01*
X029345Y021607D01*
X029301Y021711D01*
X029221Y021792D01*
X029149Y021821D01*
X029150Y021821D01*
X029150Y021821D01*
X029338Y022010D01*
X029450Y022121D01*
X029450Y022210D01*
X029538Y022210D01*
X029643Y022315D01*
X029716Y022315D01*
X029821Y022358D01*
X029901Y022439D01*
X029945Y022543D01*
X029945Y022610D01*
X031038Y022610D01*
X031150Y022721D01*
X031150Y026379D01*
X031038Y026490D01*
X028218Y026490D01*
X028552Y026823D01*
X028656Y026780D01*
X028863Y026780D01*
X029054Y026859D01*
X029200Y027005D01*
X029261Y027152D01*
X029278Y027100D01*
X029315Y027027D01*
X029363Y026961D01*
X029421Y026903D01*
X029487Y026855D01*
X029560Y026818D01*
X029638Y026793D01*
X029710Y026781D01*
X029710Y027250D01*
X029810Y027250D01*
X029810Y026781D01*
X029881Y026793D01*
X029959Y026818D01*
X030032Y026855D01*
X030098Y026903D01*
X030156Y026961D01*
X030204Y027027D01*
X030241Y027100D01*
X030258Y027152D01*
X030319Y027005D01*
X030465Y026859D01*
X030656Y026780D01*
X030863Y026780D01*
X031054Y026859D01*
X031200Y027005D01*
X031240Y027100D01*
X031240Y026868D01*
X031327Y026780D01*
X032130Y026780D01*
X032130Y018665D01*
X032054Y018741D01*
X031863Y018820D01*
X031656Y018820D01*
X031592Y018793D01*
X029855Y020530D01*
X026833Y020530D01*
X026821Y020542D01*
X026716Y020585D01*
X026603Y020585D01*
X026498Y020542D01*
X026418Y020461D01*
X026375Y020357D01*
X026375Y020243D01*
X026418Y020139D01*
X026498Y020058D01*
X026603Y020015D01*
X026716Y020015D01*
X026821Y020058D01*
X026833Y020070D01*
X029664Y020070D01*
X030951Y018784D01*
X030863Y018820D01*
X030656Y018820D01*
X030465Y018741D01*
X030319Y018595D01*
X030258Y018448D01*
X030241Y018500D01*
X030204Y018573D01*
X030156Y018639D01*
X030098Y018697D01*
X030032Y018745D01*
X029959Y018782D01*
X029881Y018807D01*
X029810Y018819D01*
X029810Y018350D01*
X029710Y018350D01*
X029710Y018819D01*
X029638Y018807D01*
X029560Y018782D01*
X029487Y018745D01*
X029421Y018697D01*
X029363Y018639D01*
X029315Y018573D01*
X029278Y018500D01*
X029261Y018448D01*
X029200Y018595D01*
X029054Y018741D01*
X028863Y018820D01*
X028656Y018820D01*
X028552Y018777D01*
X028410Y018919D01*
X028298Y019030D01*
X027598Y019030D01*
X027560Y019069D01*
X027560Y019079D01*
X027448Y019190D01*
X023378Y019190D01*
X023320Y019249D01*
X023208Y019360D01*
X022428Y019360D01*
X022298Y019490D01*
X021038Y019490D01*
X020650Y019879D01*
X020650Y020141D01*
X020675Y020116D01*
X020675Y020043D01*
X020718Y019939D01*
X020798Y019858D01*
X020903Y019815D01*
X021016Y019815D01*
X021121Y019858D01*
X021201Y019939D01*
X021245Y020043D01*
X021245Y020157D01*
X021201Y020261D01*
X021121Y020342D01*
X021016Y020385D01*
X020950Y020385D01*
X020950Y021379D01*
X020845Y021484D01*
X020845Y021557D01*
X020801Y021661D01*
X020721Y021742D01*
X020616Y021785D01*
X020503Y021785D01*
X020450Y021763D01*
X020450Y021921D01*
X020543Y022015D01*
X020616Y022015D01*
X020721Y022058D01*
X020801Y022139D01*
X020845Y022243D01*
X020845Y022357D01*
X020820Y022416D01*
X020921Y022458D01*
X021001Y022539D01*
X021045Y022643D01*
X021045Y022757D01*
X021001Y022861D01*
X020921Y022942D01*
X020816Y022985D01*
X020703Y022985D01*
X020598Y022942D01*
X020546Y022890D01*
X020481Y022890D01*
X020370Y022779D01*
X019870Y022279D01*
X019870Y021221D01*
X019981Y021110D01*
X020070Y021021D01*
X020070Y019621D01*
X020181Y019510D01*
X020501Y019190D01*
X020228Y019190D01*
X019919Y019499D01*
X019955Y019583D01*
X019955Y019697D01*
X019911Y019801D01*
X019831Y019882D01*
X019726Y019925D01*
X019613Y019925D01*
X019508Y019882D01*
X019480Y019853D01*
X019431Y019902D01*
X019326Y019945D01*
X019213Y019945D01*
X019108Y019902D01*
X019028Y019821D01*
X018985Y019717D01*
X018985Y019603D01*
X019028Y019499D01*
X019108Y019418D01*
X019213Y019375D01*
X019286Y019375D01*
X019841Y018820D01*
X019656Y018820D01*
X019465Y018741D01*
X019319Y018595D01*
X019260Y018452D01*
X019200Y018595D01*
X019054Y018741D01*
X018863Y018820D01*
X018656Y018820D01*
X018559Y018780D01*
X018550Y018789D01*
X018550Y020129D01*
X018350Y020329D01*
X018238Y020440D01*
X017531Y020440D01*
X017436Y020345D01*
X017353Y020345D01*
X017248Y020302D01*
X017168Y020221D01*
X017125Y020117D01*
X017125Y020003D01*
X017168Y019899D01*
X017248Y019818D01*
X017353Y019775D01*
X017466Y019775D01*
X017571Y019818D01*
X017651Y019899D01*
X017695Y020003D01*
X017695Y020060D01*
X018081Y020060D01*
X018170Y019971D01*
X018170Y018631D01*
X018281Y018520D01*
X018286Y018515D01*
X018260Y018452D01*
X018200Y018595D01*
X018054Y018741D01*
X017863Y018820D01*
X017750Y018820D01*
X017750Y019187D01*
X017801Y019239D01*
X017845Y019343D01*
X017845Y019457D01*
X017801Y019561D01*
X017721Y019642D01*
X017616Y019685D01*
X017503Y019685D01*
X017398Y019642D01*
X017318Y019561D01*
X017275Y019457D01*
X017275Y019343D01*
X017318Y019239D01*
X017370Y019187D01*
X017370Y018645D01*
X017319Y018595D01*
X017260Y018452D01*
X017200Y018595D01*
X017054Y018741D01*
X016863Y018820D01*
X016656Y018820D01*
X016465Y018741D01*
X016319Y018595D01*
X016258Y018448D01*
X016241Y018500D01*
X016204Y018573D01*
X016156Y018639D01*
X016098Y018697D01*
X016032Y018745D01*
X015959Y018782D01*
X015881Y018807D01*
X015810Y018819D01*
X015810Y018350D01*
X015710Y018350D01*
X015710Y018819D01*
X015638Y018807D01*
X015560Y018782D01*
X015487Y018745D01*
X015421Y018697D01*
X015363Y018639D01*
X015315Y018573D01*
X015278Y018500D01*
X015261Y018448D01*
X015200Y018595D01*
X015054Y018741D01*
X014950Y018784D01*
X014950Y018951D01*
X016458Y020460D01*
X017068Y020460D01*
X017548Y020940D01*
X017838Y020940D01*
X018028Y021130D01*
X018218Y021130D01*
X018388Y021300D01*
X018500Y021411D01*
X018500Y021731D01*
X018560Y021791D01*
X018560Y022199D01*
X017945Y022814D01*
X017945Y022857D01*
X017901Y022961D01*
X017821Y023042D01*
X017716Y023085D01*
X017603Y023085D01*
X017498Y023042D01*
X017418Y022961D01*
X017375Y022857D01*
X017375Y022743D01*
X017418Y022639D01*
X017498Y022558D01*
X017603Y022515D01*
X017706Y022515D01*
X017746Y022475D01*
X017643Y022475D01*
X017538Y022432D01*
X017458Y022351D01*
X017437Y022300D01*
X017301Y022300D01*
X017190Y022189D01*
X017091Y022090D01*
X016281Y022090D01*
X016244Y022053D01*
X016211Y022131D01*
X016131Y022212D01*
X016026Y022255D01*
X015913Y022255D01*
X015808Y022212D01*
X015756Y022160D01*
X014051Y022160D01*
X014046Y022155D01*
X013973Y022155D01*
X013868Y022112D01*
X013788Y022031D01*
X013745Y021927D01*
X013745Y021813D01*
X013788Y021709D01*
X013840Y021657D01*
X013840Y020249D01*
X013581Y019990D01*
X009338Y019990D01*
X009045Y020284D01*
X009045Y020357D01*
X009001Y020461D01*
X008950Y020513D01*
X008950Y020879D01*
X008778Y021050D01*
X009138Y021410D01*
X010146Y021410D01*
X010198Y021358D01*
X010303Y021315D01*
X010416Y021315D01*
X010521Y021358D01*
X010601Y021439D01*
X010645Y021543D01*
X010645Y021657D01*
X010601Y021761D01*
X010521Y021842D01*
X010416Y021885D01*
X010303Y021885D01*
X010198Y021842D01*
X010146Y021790D01*
X008981Y021790D01*
X008510Y021319D01*
X007385Y022444D01*
X007385Y022517D01*
X007341Y022621D01*
X007261Y022702D01*
X007156Y022745D01*
X007043Y022745D01*
X006938Y022702D01*
X006858Y022621D01*
X006815Y022517D01*
X006815Y022403D01*
X006858Y022299D01*
X006938Y022218D01*
X007043Y022175D01*
X007116Y022175D01*
X008320Y020971D01*
X008431Y020860D01*
X008570Y020721D01*
X008570Y020513D01*
X008518Y020461D01*
X008475Y020357D01*
X008475Y020243D01*
X008518Y020139D01*
X008598Y020058D01*
X008703Y020015D01*
X008776Y020015D01*
X009070Y019721D01*
X009181Y019610D01*
X013738Y019610D01*
X014220Y020091D01*
X014220Y021657D01*
X014271Y021709D01*
X014301Y021780D01*
X015756Y021780D01*
X015808Y021728D01*
X015887Y021696D01*
X013701Y019510D01*
X012981Y019510D01*
X012821Y019350D01*
X012021Y019350D01*
X011861Y019190D01*
X011141Y019190D01*
X010981Y019030D01*
X010221Y019030D01*
X010110Y018919D01*
X009968Y018777D01*
X009863Y018820D01*
X009656Y018820D01*
X009465Y018741D01*
X009319Y018595D01*
X009260Y018452D01*
X009200Y018595D01*
X009054Y018741D01*
X008863Y018820D01*
X008656Y018820D01*
X008465Y018741D01*
X008319Y018595D01*
X008260Y018452D01*
X008200Y018595D01*
X008054Y018741D01*
X007863Y018820D01*
X007656Y018820D01*
X007465Y018741D01*
X007319Y018595D01*
X007260Y018452D01*
X007200Y018595D01*
X007054Y018741D01*
X006863Y018820D01*
X006656Y018820D01*
X006552Y018777D01*
X006450Y018879D01*
X006450Y023770D01*
X008361Y023770D01*
X007776Y023185D01*
X007703Y023185D01*
X007598Y023142D01*
X007518Y023061D01*
X007475Y022957D01*
X007475Y022843D01*
X007518Y022739D01*
X007598Y022658D01*
X007703Y022615D01*
X007816Y022615D01*
X007921Y022658D01*
X008001Y022739D01*
X008045Y022843D01*
X008045Y022916D01*
X008738Y023610D01*
X011770Y023610D01*
X011770Y023013D01*
X011718Y022961D01*
X011675Y022857D01*
X011675Y022743D01*
X011718Y022639D01*
X011798Y022558D01*
X011903Y022515D01*
X012016Y022515D01*
X012121Y022558D01*
X012201Y022639D01*
X012245Y022743D01*
X012245Y022857D01*
X012201Y022961D01*
X012150Y023013D01*
X012150Y023610D01*
X012781Y023610D01*
X013070Y023321D01*
X013181Y023210D01*
X015476Y023210D01*
X015528Y023158D01*
X015633Y023115D01*
X015746Y023115D01*
X015851Y023158D01*
X015931Y023239D01*
X015975Y023343D01*
X015975Y023457D01*
X015931Y023561D01*
X015893Y023600D01*
X015931Y023639D01*
X015975Y023743D01*
X015975Y023857D01*
X015931Y023961D01*
X015851Y024042D01*
X015746Y024085D01*
X015633Y024085D01*
X015528Y024042D01*
X015448Y023961D01*
X015418Y023890D01*
X013338Y023890D01*
X013078Y024150D01*
X012050Y024150D01*
X012050Y024187D01*
X012101Y024239D01*
X012145Y024343D01*
X012145Y024457D01*
X012101Y024561D01*
X012021Y024642D01*
X011916Y024685D01*
X011803Y024685D01*
X011698Y024642D01*
X011618Y024561D01*
X011575Y024457D01*
X011575Y024343D01*
X011618Y024239D01*
X011670Y024187D01*
X011670Y024150D01*
X006358Y024150D01*
X005896Y024612D01*
X005896Y024685D01*
X005852Y024790D01*
X005772Y024870D01*
X005667Y024914D01*
X005554Y024914D01*
X005449Y024870D01*
X005369Y024790D01*
X005326Y024685D01*
X005326Y024572D01*
X005369Y024467D01*
X005449Y024387D01*
X005554Y024344D01*
X005627Y024344D01*
X006070Y023901D01*
X006070Y018725D01*
X006054Y018741D01*
X005863Y018820D01*
X005656Y018820D01*
X005552Y018777D01*
X005450Y018879D01*
X005450Y023087D01*
X005501Y023139D01*
X005545Y023243D01*
X005545Y023357D01*
X005501Y023461D01*
X005421Y023542D01*
X005316Y023585D01*
X005203Y023585D01*
X005098Y023542D01*
X005018Y023461D01*
X004975Y023357D01*
X004975Y023243D01*
X005018Y023139D01*
X005070Y023087D01*
X005070Y018725D01*
X005054Y018741D01*
X004863Y018820D01*
X004656Y018820D01*
X004465Y018741D01*
X004390Y018665D01*
X004390Y026935D01*
X004465Y026859D01*
X004656Y026780D01*
X004863Y026780D01*
X005054Y026859D01*
X005200Y027005D01*
X005260Y027148D01*
X005319Y027005D01*
X005465Y026859D01*
X005656Y026780D01*
X005863Y026780D01*
X005968Y026823D01*
X006701Y026090D01*
X008501Y026090D01*
X008256Y025845D01*
X008183Y025845D01*
X008078Y025802D01*
X007998Y025721D01*
X007955Y025617D01*
X007955Y025503D01*
X007998Y025399D01*
X008078Y025318D01*
X008183Y025275D01*
X008296Y025275D01*
X008401Y025318D01*
X008481Y025399D01*
X008525Y025503D01*
X008525Y025576D01*
X008878Y025930D01*
X013781Y025930D01*
X014090Y025621D01*
X014090Y025221D01*
X014055Y025137D01*
X014055Y025023D01*
X014098Y024919D01*
X014126Y024890D01*
X013631Y024890D01*
X013601Y024961D01*
X013521Y025042D01*
X013416Y025085D01*
X013303Y025085D01*
X013198Y025042D01*
X013118Y024961D01*
X013075Y024857D01*
X013075Y024743D01*
X013118Y024639D01*
X013198Y024558D01*
X013303Y024515D01*
X013376Y024515D01*
X013381Y024510D01*
X013866Y024510D01*
X013818Y024461D01*
X013775Y024357D01*
X013775Y024243D01*
X013818Y024139D01*
X013898Y024058D01*
X014003Y024015D01*
X014116Y024015D01*
X014221Y024058D01*
X014301Y024139D01*
X014345Y024243D01*
X014345Y024310D01*
X014638Y024310D01*
X014750Y024421D01*
X014838Y024510D01*
X015681Y024510D01*
X016081Y024110D01*
X016770Y023421D01*
X016881Y023310D01*
X017838Y023310D01*
X017950Y023421D01*
X018150Y023621D01*
X018150Y024079D01*
X018038Y024190D01*
X017985Y024244D01*
X017985Y024257D01*
X017941Y024361D01*
X017861Y024442D01*
X017756Y024485D01*
X017683Y024485D01*
X017658Y024510D01*
X016698Y024510D01*
X014638Y026570D01*
X015321Y026570D01*
X015910Y025981D01*
X016021Y025870D01*
X018051Y025870D01*
X018245Y025676D01*
X018245Y025603D01*
X018288Y025499D01*
X018368Y025418D01*
X018473Y025375D01*
X018586Y025375D01*
X018691Y025418D01*
X018771Y025499D01*
X018815Y025603D01*
X018815Y025717D01*
X018771Y025821D01*
X018691Y025902D01*
X018586Y025945D01*
X018513Y025945D01*
X018208Y026250D01*
X016178Y026250D01*
X015643Y026786D01*
X015656Y026780D01*
X015863Y026780D01*
X015968Y026823D01*
X016070Y026721D01*
X016181Y026610D01*
X019081Y026610D01*
X019606Y026085D01*
X019603Y026085D01*
X019498Y026042D01*
X019418Y025961D01*
X019375Y025857D01*
X019375Y025743D01*
X019418Y025639D01*
X019498Y025558D01*
X019603Y025515D01*
X019676Y025515D01*
X019870Y025321D01*
X019870Y024289D01*
X019841Y024260D01*
X019730Y024149D01*
X019730Y023993D01*
X019678Y023941D01*
X019635Y023837D01*
X019635Y023723D01*
X019678Y023619D01*
X019758Y023538D01*
X019863Y023495D01*
X019976Y023495D01*
X020081Y023538D01*
X020161Y023619D01*
X020201Y023716D01*
X020203Y023715D01*
X020316Y023715D01*
X020421Y023758D01*
X020501Y023839D01*
X020545Y023943D01*
X020545Y024057D01*
X020501Y024161D01*
X020450Y024213D01*
X020450Y025779D01*
X020338Y025890D01*
X019238Y026990D01*
X019185Y026990D01*
X019200Y027005D01*
X019260Y027148D01*
X019319Y027005D01*
X019465Y026859D01*
X019656Y026780D01*
X019863Y026780D01*
X020054Y026859D01*
X020200Y027005D01*
X020260Y027148D01*
X020319Y027005D01*
X020465Y026859D01*
X020656Y026780D01*
X020863Y026780D01*
X021054Y026859D01*
X021200Y027005D01*
X021260Y027148D01*
X021319Y027005D01*
X021465Y026859D01*
X021656Y026780D01*
X021863Y026780D01*
X022054Y026859D01*
X022200Y027005D01*
X022260Y027148D01*
X022319Y027005D01*
X022465Y026859D01*
X022570Y026816D01*
X022570Y025721D01*
X022681Y025610D01*
X023320Y024971D01*
X023431Y024860D01*
X023819Y024860D01*
X023853Y024778D01*
X023988Y024643D01*
X024164Y024570D01*
X024201Y024570D01*
X023861Y024230D01*
X021210Y024230D01*
X021201Y024251D01*
X021121Y024332D01*
X021016Y024375D01*
X020903Y024375D01*
X020798Y024332D01*
X020718Y024251D01*
X020675Y024147D01*
X020675Y024033D01*
X020718Y023929D01*
X020756Y023890D01*
X020718Y023851D01*
X020675Y023747D01*
X020675Y023633D01*
X020692Y023590D01*
X020281Y023590D01*
X019981Y023290D01*
X019073Y023290D01*
X019021Y023342D01*
X018916Y023385D01*
X018803Y023385D01*
X018698Y023342D01*
X018618Y023261D01*
X018575Y023157D01*
X018575Y023043D01*
X018618Y022939D01*
X018698Y022858D01*
X018803Y022815D01*
X018916Y022815D01*
X019021Y022858D01*
X019073Y022910D01*
X020138Y022910D01*
X020250Y023021D01*
X020438Y023210D01*
X021681Y023210D01*
X021981Y022910D01*
X023438Y022910D01*
X023550Y023021D01*
X023738Y023210D01*
X024338Y023210D01*
X024450Y023321D01*
X024450Y023321D01*
X025070Y023941D01*
X025070Y022780D01*
X024183Y022780D01*
X024131Y022832D01*
X024026Y022875D01*
X023913Y022875D01*
X023808Y022832D01*
X023728Y022751D01*
X023685Y022647D01*
X023685Y022533D01*
X023728Y022429D01*
X023808Y022348D01*
X023913Y022305D01*
X024026Y022305D01*
X024131Y022348D01*
X024183Y022400D01*
X028691Y022400D01*
X028581Y022290D01*
X022781Y022290D01*
X022776Y022285D01*
X022703Y022285D01*
X022598Y022242D01*
X022589Y022233D02*
X020840Y022233D01*
X020845Y022331D02*
X023850Y022331D01*
X023728Y022430D02*
X020851Y022430D01*
X020991Y022528D02*
X023687Y022528D01*
X023685Y022627D02*
X021038Y022627D01*
X021045Y022725D02*
X023717Y022725D01*
X023800Y022824D02*
X021017Y022824D01*
X020941Y022922D02*
X021969Y022922D01*
X021870Y023021D02*
X020249Y023021D01*
X020347Y023119D02*
X021772Y023119D01*
X020684Y023612D02*
X020154Y023612D01*
X020199Y023710D02*
X020675Y023710D01*
X020700Y023809D02*
X020471Y023809D01*
X020529Y023907D02*
X020739Y023907D01*
X020686Y024006D02*
X020545Y024006D01*
X020525Y024104D02*
X020675Y024104D01*
X020698Y024203D02*
X020460Y024203D01*
X020450Y024301D02*
X020767Y024301D01*
X020450Y024400D02*
X024030Y024400D01*
X024129Y024498D02*
X020450Y024498D01*
X020450Y024597D02*
X024100Y024597D01*
X023936Y024695D02*
X020450Y024695D01*
X020450Y024794D02*
X023846Y024794D01*
X023399Y024892D02*
X020450Y024892D01*
X020450Y024991D02*
X023300Y024991D01*
X023202Y025089D02*
X020450Y025089D01*
X020450Y025188D02*
X023103Y025188D01*
X023005Y025286D02*
X020450Y025286D01*
X020450Y025385D02*
X022906Y025385D01*
X022808Y025483D02*
X020450Y025483D01*
X020450Y025582D02*
X022709Y025582D01*
X022611Y025680D02*
X020450Y025680D01*
X020450Y025779D02*
X022570Y025779D01*
X022570Y025877D02*
X020351Y025877D01*
X020253Y025976D02*
X022570Y025976D01*
X022570Y026074D02*
X020154Y026074D01*
X020056Y026173D02*
X022570Y026173D01*
X022570Y026271D02*
X019957Y026271D01*
X019859Y026370D02*
X022570Y026370D01*
X022570Y026468D02*
X019760Y026468D01*
X019662Y026567D02*
X022570Y026567D01*
X022570Y026665D02*
X019563Y026665D01*
X019465Y026764D02*
X022570Y026764D01*
X022462Y026862D02*
X022057Y026862D01*
X022155Y026961D02*
X022364Y026961D01*
X022296Y027059D02*
X022223Y027059D01*
X021462Y026862D02*
X021057Y026862D01*
X021155Y026961D02*
X021364Y026961D01*
X021296Y027059D02*
X021223Y027059D01*
X020462Y026862D02*
X020057Y026862D01*
X020155Y026961D02*
X020364Y026961D01*
X020296Y027059D02*
X020223Y027059D01*
X019462Y026862D02*
X019366Y026862D01*
X019364Y026961D02*
X019268Y026961D01*
X019296Y027059D02*
X019223Y027059D01*
X019124Y026567D02*
X015862Y026567D01*
X015763Y026665D02*
X016126Y026665D01*
X016027Y026764D02*
X015665Y026764D01*
X015423Y026468D02*
X014740Y026468D01*
X014642Y026567D02*
X015324Y026567D01*
X015521Y026370D02*
X014839Y026370D01*
X014937Y026271D02*
X015620Y026271D01*
X015718Y026173D02*
X015036Y026173D01*
X015134Y026074D02*
X015817Y026074D01*
X015915Y025976D02*
X015233Y025976D01*
X015331Y025877D02*
X016014Y025877D01*
X016157Y026271D02*
X019420Y026271D01*
X019518Y026173D02*
X018286Y026173D01*
X018384Y026074D02*
X019576Y026074D01*
X019432Y025976D02*
X018483Y025976D01*
X018716Y025877D02*
X019383Y025877D01*
X019375Y025779D02*
X018789Y025779D01*
X018815Y025680D02*
X019401Y025680D01*
X019475Y025582D02*
X018805Y025582D01*
X018756Y025483D02*
X019708Y025483D01*
X019806Y025385D02*
X018609Y025385D01*
X018450Y025385D02*
X015824Y025385D01*
X015725Y025483D02*
X018303Y025483D01*
X018254Y025582D02*
X015627Y025582D01*
X015528Y025680D02*
X018241Y025680D01*
X018142Y025779D02*
X015430Y025779D01*
X015922Y025286D02*
X019870Y025286D01*
X019870Y025188D02*
X016021Y025188D01*
X016119Y025089D02*
X019870Y025089D01*
X019870Y024991D02*
X016218Y024991D01*
X016316Y024892D02*
X019870Y024892D01*
X019870Y024794D02*
X016415Y024794D01*
X016513Y024695D02*
X019870Y024695D01*
X019870Y024597D02*
X016612Y024597D01*
X016087Y024104D02*
X014267Y024104D01*
X014328Y024203D02*
X015988Y024203D01*
X016081Y024110D02*
X016081Y024110D01*
X016185Y024006D02*
X015887Y024006D01*
X015954Y023907D02*
X016284Y023907D01*
X016382Y023809D02*
X015975Y023809D01*
X015961Y023710D02*
X016481Y023710D01*
X016579Y023612D02*
X015904Y023612D01*
X015951Y023513D02*
X016678Y023513D01*
X016770Y023421D02*
X016770Y023421D01*
X016776Y023415D02*
X015975Y023415D01*
X015963Y023316D02*
X016875Y023316D01*
X017402Y022922D02*
X012217Y022922D01*
X012245Y022824D02*
X017375Y022824D01*
X017382Y022725D02*
X012237Y022725D01*
X012189Y022627D02*
X017430Y022627D01*
X017571Y022528D02*
X012048Y022528D01*
X011871Y022528D02*
X007380Y022528D01*
X007399Y022430D02*
X017536Y022430D01*
X017449Y022331D02*
X007497Y022331D01*
X007596Y022233D02*
X015859Y022233D01*
X016080Y022233D02*
X017233Y022233D01*
X017135Y022134D02*
X016209Y022134D01*
X015796Y021740D02*
X014284Y021740D01*
X014220Y021642D02*
X015832Y021642D01*
X015734Y021543D02*
X014220Y021543D01*
X014220Y021445D02*
X015635Y021445D01*
X015537Y021346D02*
X014220Y021346D01*
X014220Y021248D02*
X015438Y021248D01*
X015340Y021149D02*
X014220Y021149D01*
X014220Y021051D02*
X015241Y021051D01*
X015143Y020952D02*
X014220Y020952D01*
X014220Y020854D02*
X015044Y020854D01*
X014946Y020755D02*
X014220Y020755D01*
X014220Y020657D02*
X014847Y020657D01*
X014749Y020558D02*
X014220Y020558D01*
X014220Y020460D02*
X014650Y020460D01*
X014552Y020361D02*
X014220Y020361D01*
X014220Y020263D02*
X014453Y020263D01*
X014355Y020164D02*
X014220Y020164D01*
X014194Y020066D02*
X014256Y020066D01*
X014158Y019967D02*
X014095Y019967D01*
X014059Y019869D02*
X013997Y019869D01*
X013961Y019770D02*
X013898Y019770D01*
X013862Y019672D02*
X013800Y019672D01*
X013764Y019573D02*
X006450Y019573D01*
X006450Y019475D02*
X012945Y019475D01*
X012847Y019376D02*
X006450Y019376D01*
X006450Y019278D02*
X011948Y019278D01*
X011130Y019179D02*
X006450Y019179D01*
X006450Y019081D02*
X011031Y019081D01*
X010173Y018982D02*
X006450Y018982D01*
X006450Y018884D02*
X010074Y018884D01*
X010110Y018919D02*
X010110Y018919D01*
X009976Y018785D02*
X009947Y018785D01*
X009572Y018785D02*
X008947Y018785D01*
X009108Y018687D02*
X009411Y018687D01*
X009316Y018588D02*
X009203Y018588D01*
X009244Y018490D02*
X009275Y018490D01*
X008572Y018785D02*
X007947Y018785D01*
X008108Y018687D02*
X008411Y018687D01*
X008316Y018588D02*
X008203Y018588D01*
X008244Y018490D02*
X008275Y018490D01*
X007572Y018785D02*
X006947Y018785D01*
X007108Y018687D02*
X007411Y018687D01*
X007316Y018588D02*
X007203Y018588D01*
X007244Y018490D02*
X007275Y018490D01*
X006572Y018785D02*
X006543Y018785D01*
X006070Y018785D02*
X005947Y018785D01*
X006070Y018884D02*
X005450Y018884D01*
X005450Y018982D02*
X006070Y018982D01*
X006070Y019081D02*
X005450Y019081D01*
X005450Y019179D02*
X006070Y019179D01*
X006070Y019278D02*
X005450Y019278D01*
X005450Y019376D02*
X006070Y019376D01*
X006070Y019475D02*
X005450Y019475D01*
X005450Y019573D02*
X006070Y019573D01*
X006070Y019672D02*
X005450Y019672D01*
X005450Y019770D02*
X006070Y019770D01*
X006070Y019869D02*
X005450Y019869D01*
X005450Y019967D02*
X006070Y019967D01*
X006070Y020066D02*
X005450Y020066D01*
X005450Y020164D02*
X006070Y020164D01*
X006070Y020263D02*
X005450Y020263D01*
X005450Y020361D02*
X006070Y020361D01*
X006070Y020460D02*
X005450Y020460D01*
X005450Y020558D02*
X006070Y020558D01*
X006070Y020657D02*
X005450Y020657D01*
X005450Y020755D02*
X006070Y020755D01*
X006070Y020854D02*
X005450Y020854D01*
X005450Y020952D02*
X006070Y020952D01*
X006070Y021051D02*
X005450Y021051D01*
X005450Y021149D02*
X006070Y021149D01*
X006070Y021248D02*
X005450Y021248D01*
X005450Y021346D02*
X006070Y021346D01*
X006070Y021445D02*
X005450Y021445D01*
X005450Y021543D02*
X006070Y021543D01*
X006070Y021642D02*
X005450Y021642D01*
X005450Y021740D02*
X006070Y021740D01*
X006070Y021839D02*
X005450Y021839D01*
X005450Y021937D02*
X006070Y021937D01*
X006070Y022036D02*
X005450Y022036D01*
X005450Y022134D02*
X006070Y022134D01*
X006070Y022233D02*
X005450Y022233D01*
X005450Y022331D02*
X006070Y022331D01*
X006070Y022430D02*
X005450Y022430D01*
X005450Y022528D02*
X006070Y022528D01*
X006070Y022627D02*
X005450Y022627D01*
X005450Y022725D02*
X006070Y022725D01*
X006070Y022824D02*
X005450Y022824D01*
X005450Y022922D02*
X006070Y022922D01*
X006070Y023021D02*
X005450Y023021D01*
X005482Y023119D02*
X006070Y023119D01*
X006070Y023218D02*
X005534Y023218D01*
X005545Y023316D02*
X006070Y023316D01*
X006070Y023415D02*
X005521Y023415D01*
X005450Y023513D02*
X006070Y023513D01*
X006070Y023612D02*
X004390Y023612D01*
X004390Y023710D02*
X006070Y023710D01*
X006070Y023809D02*
X004390Y023809D01*
X004390Y023907D02*
X006064Y023907D01*
X005965Y024006D02*
X004390Y024006D01*
X004390Y024104D02*
X005867Y024104D01*
X005768Y024203D02*
X004390Y024203D01*
X004390Y024301D02*
X005670Y024301D01*
X005437Y024400D02*
X004390Y024400D01*
X004390Y024498D02*
X005356Y024498D01*
X005326Y024597D02*
X004390Y024597D01*
X004390Y024695D02*
X005330Y024695D01*
X005373Y024794D02*
X004390Y024794D01*
X004390Y024892D02*
X005502Y024892D01*
X005720Y024892D02*
X013089Y024892D01*
X013075Y024794D02*
X007112Y024794D01*
X007122Y024789D02*
X007003Y024839D01*
X006874Y024839D01*
X006754Y024789D01*
X006663Y024698D01*
X006613Y024578D01*
X006613Y024449D01*
X006663Y024330D01*
X006754Y024238D01*
X006874Y024189D01*
X007003Y024189D01*
X007122Y024238D01*
X007214Y024330D01*
X007263Y024449D01*
X007263Y024578D01*
X007214Y024698D01*
X007122Y024789D01*
X007215Y024695D02*
X013095Y024695D01*
X013160Y024597D02*
X012066Y024597D01*
X012127Y024498D02*
X013854Y024498D01*
X013792Y024400D02*
X012145Y024400D01*
X012127Y024301D02*
X013775Y024301D01*
X013791Y024203D02*
X012065Y024203D01*
X011654Y024203D02*
X007036Y024203D01*
X007185Y024301D02*
X011592Y024301D01*
X011575Y024400D02*
X007243Y024400D01*
X007263Y024498D02*
X011592Y024498D01*
X011653Y024597D02*
X007256Y024597D01*
X006765Y024794D02*
X005849Y024794D01*
X005892Y024695D02*
X006662Y024695D01*
X006621Y024597D02*
X005912Y024597D01*
X006010Y024498D02*
X006613Y024498D01*
X006634Y024400D02*
X006109Y024400D01*
X006207Y024301D02*
X006691Y024301D01*
X006840Y024203D02*
X006306Y024203D01*
X006450Y023710D02*
X008301Y023710D01*
X008202Y023612D02*
X006450Y023612D01*
X006450Y023513D02*
X008104Y023513D01*
X008005Y023415D02*
X006450Y023415D01*
X006450Y023316D02*
X007907Y023316D01*
X007808Y023218D02*
X006450Y023218D01*
X006450Y023119D02*
X007575Y023119D01*
X007501Y023021D02*
X006450Y023021D01*
X006450Y022922D02*
X007475Y022922D01*
X007483Y022824D02*
X006450Y022824D01*
X006450Y022725D02*
X006995Y022725D01*
X006863Y022627D02*
X006450Y022627D01*
X006450Y022528D02*
X006819Y022528D01*
X006815Y022430D02*
X006450Y022430D01*
X006450Y022331D02*
X006844Y022331D01*
X006924Y022233D02*
X006450Y022233D01*
X006450Y022134D02*
X007157Y022134D01*
X007255Y022036D02*
X006450Y022036D01*
X006450Y021937D02*
X007354Y021937D01*
X007452Y021839D02*
X006450Y021839D01*
X006450Y021740D02*
X007551Y021740D01*
X007649Y021642D02*
X007118Y021642D01*
X007122Y021640D02*
X007003Y021689D01*
X006874Y021689D01*
X006754Y021640D01*
X006663Y021548D01*
X006613Y021429D01*
X006613Y021299D01*
X006663Y021180D01*
X006754Y021088D01*
X006874Y021039D01*
X007003Y021039D01*
X007122Y021088D01*
X007214Y021180D01*
X007263Y021299D01*
X007263Y021429D01*
X007214Y021548D01*
X007122Y021640D01*
X007216Y021543D02*
X007748Y021543D01*
X007846Y021445D02*
X007257Y021445D01*
X007263Y021346D02*
X007945Y021346D01*
X008043Y021248D02*
X007242Y021248D01*
X007183Y021149D02*
X008142Y021149D01*
X008240Y021051D02*
X007031Y021051D01*
X006846Y021051D02*
X006450Y021051D01*
X006450Y021149D02*
X006694Y021149D01*
X006635Y021248D02*
X006450Y021248D01*
X006450Y021346D02*
X006613Y021346D01*
X006620Y021445D02*
X006450Y021445D01*
X006450Y021543D02*
X006661Y021543D01*
X006759Y021642D02*
X006450Y021642D01*
X006450Y020952D02*
X008339Y020952D01*
X008320Y020971D02*
X008320Y020971D01*
X008431Y020860D02*
X008431Y020860D01*
X008437Y020854D02*
X006450Y020854D01*
X006450Y020755D02*
X008536Y020755D01*
X008570Y020657D02*
X006450Y020657D01*
X006450Y020558D02*
X008570Y020558D01*
X008517Y020460D02*
X006450Y020460D01*
X006450Y020361D02*
X008476Y020361D01*
X008475Y020263D02*
X006450Y020263D01*
X006450Y020164D02*
X008507Y020164D01*
X008591Y020066D02*
X006450Y020066D01*
X006450Y019967D02*
X008824Y019967D01*
X008922Y019869D02*
X006450Y019869D01*
X006450Y019770D02*
X009021Y019770D01*
X009119Y019672D02*
X006450Y019672D01*
X005070Y019672D02*
X004390Y019672D01*
X004390Y019770D02*
X005070Y019770D01*
X005070Y019869D02*
X004390Y019869D01*
X004390Y019967D02*
X005070Y019967D01*
X005070Y020066D02*
X004390Y020066D01*
X004390Y020164D02*
X005070Y020164D01*
X005070Y020263D02*
X004390Y020263D01*
X004390Y020361D02*
X005070Y020361D01*
X005070Y020460D02*
X004390Y020460D01*
X004390Y020558D02*
X005070Y020558D01*
X005070Y020657D02*
X004390Y020657D01*
X004390Y020755D02*
X005070Y020755D01*
X005070Y020854D02*
X004390Y020854D01*
X004390Y020952D02*
X005070Y020952D01*
X005070Y021051D02*
X004390Y021051D01*
X004390Y021149D02*
X005070Y021149D01*
X005070Y021248D02*
X004390Y021248D01*
X004390Y021346D02*
X005070Y021346D01*
X005070Y021445D02*
X004390Y021445D01*
X004390Y021543D02*
X005070Y021543D01*
X005070Y021642D02*
X004390Y021642D01*
X004390Y021740D02*
X005070Y021740D01*
X005070Y021839D02*
X004390Y021839D01*
X004390Y021937D02*
X005070Y021937D01*
X005070Y022036D02*
X004390Y022036D01*
X004390Y022134D02*
X005070Y022134D01*
X005070Y022233D02*
X004390Y022233D01*
X004390Y022331D02*
X005070Y022331D01*
X005070Y022430D02*
X004390Y022430D01*
X004390Y022528D02*
X005070Y022528D01*
X005070Y022627D02*
X004390Y022627D01*
X004390Y022725D02*
X005070Y022725D01*
X005070Y022824D02*
X004390Y022824D01*
X004390Y022922D02*
X005070Y022922D01*
X005070Y023021D02*
X004390Y023021D01*
X004390Y023119D02*
X005037Y023119D01*
X004985Y023218D02*
X004390Y023218D01*
X004390Y023316D02*
X004975Y023316D01*
X004998Y023415D02*
X004390Y023415D01*
X004390Y023513D02*
X005069Y023513D01*
X004390Y024991D02*
X013147Y024991D01*
X013572Y024991D02*
X014068Y024991D01*
X014055Y025089D02*
X004390Y025089D01*
X004390Y025188D02*
X014076Y025188D01*
X014090Y025286D02*
X008323Y025286D01*
X008156Y025286D02*
X004390Y025286D01*
X004390Y025385D02*
X008012Y025385D01*
X007963Y025483D02*
X004390Y025483D01*
X004390Y025582D02*
X007955Y025582D01*
X007981Y025680D02*
X004390Y025680D01*
X004390Y025779D02*
X008055Y025779D01*
X008288Y025877D02*
X004390Y025877D01*
X004390Y025976D02*
X008386Y025976D01*
X008485Y026074D02*
X004390Y026074D01*
X004390Y026173D02*
X006618Y026173D01*
X006520Y026271D02*
X004390Y026271D01*
X004390Y026370D02*
X006421Y026370D01*
X006323Y026468D02*
X004390Y026468D01*
X004390Y026567D02*
X006224Y026567D01*
X006126Y026665D02*
X004390Y026665D01*
X004390Y026764D02*
X006027Y026764D01*
X005462Y026862D02*
X005057Y026862D01*
X005155Y026961D02*
X005364Y026961D01*
X005296Y027059D02*
X005223Y027059D01*
X004462Y026862D02*
X004390Y026862D01*
X008530Y025582D02*
X014090Y025582D01*
X014090Y025483D02*
X008516Y025483D01*
X008467Y025385D02*
X014090Y025385D01*
X014031Y025680D02*
X008628Y025680D01*
X008727Y025779D02*
X013932Y025779D01*
X013834Y025877D02*
X008825Y025877D01*
X008641Y023513D02*
X011770Y023513D01*
X011770Y023415D02*
X008543Y023415D01*
X008444Y023316D02*
X011770Y023316D01*
X011770Y023218D02*
X008346Y023218D01*
X008247Y023119D02*
X011770Y023119D01*
X011770Y023021D02*
X008149Y023021D01*
X008050Y022922D02*
X011702Y022922D01*
X011675Y022824D02*
X008036Y022824D01*
X007988Y022725D02*
X011682Y022725D01*
X011730Y022627D02*
X007844Y022627D01*
X007675Y022627D02*
X007336Y022627D01*
X007204Y022725D02*
X007531Y022725D01*
X007694Y022134D02*
X013922Y022134D01*
X013792Y022036D02*
X007793Y022036D01*
X007891Y021937D02*
X013749Y021937D01*
X013745Y021839D02*
X010524Y021839D01*
X010610Y021740D02*
X013775Y021740D01*
X013840Y021642D02*
X010645Y021642D01*
X010644Y021543D02*
X013840Y021543D01*
X013840Y021445D02*
X010604Y021445D01*
X010491Y021346D02*
X013840Y021346D01*
X013840Y021248D02*
X008976Y021248D01*
X009074Y021346D02*
X010228Y021346D01*
X010195Y021839D02*
X007990Y021839D01*
X008088Y021740D02*
X008931Y021740D01*
X008832Y021642D02*
X008187Y021642D01*
X008285Y021543D02*
X008734Y021543D01*
X008635Y021445D02*
X008384Y021445D01*
X008482Y021346D02*
X008537Y021346D01*
X008779Y021051D02*
X013840Y021051D01*
X013840Y021149D02*
X008877Y021149D01*
X008876Y020952D02*
X013840Y020952D01*
X013840Y020854D02*
X008950Y020854D01*
X008950Y020755D02*
X013840Y020755D01*
X013840Y020657D02*
X008950Y020657D01*
X008950Y020558D02*
X013840Y020558D01*
X013840Y020460D02*
X009002Y020460D01*
X009043Y020361D02*
X013840Y020361D01*
X013840Y020263D02*
X009066Y020263D01*
X009164Y020164D02*
X013755Y020164D01*
X013656Y020066D02*
X009263Y020066D01*
X005572Y018785D02*
X005543Y018785D01*
X005070Y018785D02*
X004947Y018785D01*
X005070Y018884D02*
X004390Y018884D01*
X004390Y018982D02*
X005070Y018982D01*
X005070Y019081D02*
X004390Y019081D01*
X004390Y019179D02*
X005070Y019179D01*
X005070Y019278D02*
X004390Y019278D01*
X004390Y019376D02*
X005070Y019376D01*
X005070Y019475D02*
X004390Y019475D01*
X004390Y019573D02*
X005070Y019573D01*
X004572Y018785D02*
X004390Y018785D01*
X004390Y018687D02*
X004411Y018687D01*
X012150Y023021D02*
X017477Y023021D01*
X017842Y023021D02*
X018584Y023021D01*
X018575Y023119D02*
X015756Y023119D01*
X015623Y023119D02*
X012150Y023119D01*
X012150Y023218D02*
X013173Y023218D01*
X013075Y023316D02*
X012150Y023316D01*
X012150Y023415D02*
X012976Y023415D01*
X013070Y023321D02*
X013070Y023321D01*
X012878Y023513D02*
X012150Y023513D01*
X013124Y024104D02*
X013852Y024104D01*
X014345Y024301D02*
X015890Y024301D01*
X015791Y024400D02*
X014728Y024400D01*
X014826Y024498D02*
X015693Y024498D01*
X015492Y024006D02*
X013223Y024006D01*
X013321Y023907D02*
X015425Y023907D01*
X015910Y023218D02*
X018600Y023218D01*
X018672Y023316D02*
X017844Y023316D01*
X017943Y023415D02*
X020105Y023415D01*
X020020Y023513D02*
X020204Y023513D01*
X020007Y023316D02*
X019047Y023316D01*
X018937Y022824D02*
X020414Y022824D01*
X020316Y022725D02*
X018033Y022725D01*
X017945Y022824D02*
X018782Y022824D01*
X018634Y022922D02*
X017917Y022922D01*
X018132Y022627D02*
X020217Y022627D01*
X020119Y022528D02*
X018230Y022528D01*
X018329Y022430D02*
X020020Y022430D01*
X019922Y022331D02*
X018427Y022331D01*
X018526Y022233D02*
X019870Y022233D01*
X019870Y022134D02*
X018560Y022134D01*
X018560Y022036D02*
X019870Y022036D01*
X019870Y021937D02*
X018560Y021937D01*
X018560Y021839D02*
X019870Y021839D01*
X019870Y021740D02*
X018508Y021740D01*
X018500Y021642D02*
X019870Y021642D01*
X019870Y021543D02*
X018500Y021543D01*
X018500Y021445D02*
X019870Y021445D01*
X019870Y021346D02*
X018434Y021346D01*
X018336Y021248D02*
X019870Y021248D01*
X019942Y021149D02*
X018237Y021149D01*
X017949Y021051D02*
X020040Y021051D01*
X020070Y020952D02*
X017850Y020952D01*
X017462Y020854D02*
X020070Y020854D01*
X020070Y020755D02*
X017363Y020755D01*
X017265Y020657D02*
X020070Y020657D01*
X020070Y020558D02*
X017166Y020558D01*
X017209Y020263D02*
X016261Y020263D01*
X016359Y020361D02*
X017452Y020361D01*
X017144Y020164D02*
X016162Y020164D01*
X016064Y020066D02*
X017125Y020066D01*
X017140Y019967D02*
X015965Y019967D01*
X015867Y019869D02*
X017198Y019869D01*
X017329Y019573D02*
X015571Y019573D01*
X015473Y019475D02*
X017282Y019475D01*
X017275Y019376D02*
X015374Y019376D01*
X015276Y019278D02*
X017302Y019278D01*
X017370Y019179D02*
X015177Y019179D01*
X015079Y019081D02*
X017370Y019081D01*
X017370Y018982D02*
X014980Y018982D01*
X014950Y018884D02*
X017370Y018884D01*
X017370Y018785D02*
X016947Y018785D01*
X017108Y018687D02*
X017370Y018687D01*
X017316Y018588D02*
X017203Y018588D01*
X017244Y018490D02*
X017275Y018490D01*
X017947Y018785D02*
X018170Y018785D01*
X018170Y018687D02*
X018108Y018687D01*
X018203Y018588D02*
X018213Y018588D01*
X018244Y018490D02*
X018275Y018490D01*
X018553Y018785D02*
X018572Y018785D01*
X018550Y018884D02*
X019777Y018884D01*
X019679Y018982D02*
X018550Y018982D01*
X018550Y019081D02*
X019580Y019081D01*
X019482Y019179D02*
X018550Y019179D01*
X018550Y019278D02*
X019383Y019278D01*
X019210Y019376D02*
X018550Y019376D01*
X018550Y019475D02*
X019052Y019475D01*
X018997Y019573D02*
X018550Y019573D01*
X018550Y019672D02*
X018985Y019672D01*
X019007Y019770D02*
X018550Y019770D01*
X018550Y019869D02*
X019075Y019869D01*
X019464Y019869D02*
X019495Y019869D01*
X019844Y019869D02*
X020070Y019869D01*
X020070Y019967D02*
X018550Y019967D01*
X018550Y020066D02*
X020070Y020066D01*
X020070Y020164D02*
X018514Y020164D01*
X018416Y020263D02*
X020070Y020263D01*
X020070Y020361D02*
X018317Y020361D01*
X018170Y019967D02*
X017679Y019967D01*
X017621Y019869D02*
X018170Y019869D01*
X018170Y019770D02*
X015768Y019770D01*
X015670Y019672D02*
X017470Y019672D01*
X017649Y019672D02*
X018170Y019672D01*
X018170Y019573D02*
X017790Y019573D01*
X017837Y019475D02*
X018170Y019475D01*
X018170Y019376D02*
X017845Y019376D01*
X017817Y019278D02*
X018170Y019278D01*
X018170Y019179D02*
X017750Y019179D01*
X017750Y019081D02*
X018170Y019081D01*
X018170Y018982D02*
X017750Y018982D01*
X017750Y018884D02*
X018170Y018884D01*
X018947Y018785D02*
X019572Y018785D01*
X019411Y018687D02*
X019108Y018687D01*
X019203Y018588D02*
X019316Y018588D01*
X019275Y018490D02*
X019244Y018490D01*
X020042Y019376D02*
X020315Y019376D01*
X020413Y019278D02*
X020141Y019278D01*
X020216Y019475D02*
X019944Y019475D01*
X019950Y019573D02*
X020118Y019573D01*
X020070Y019672D02*
X019955Y019672D01*
X019924Y019770D02*
X020070Y019770D01*
X020660Y019869D02*
X020788Y019869D01*
X020758Y019770D02*
X029964Y019770D01*
X029866Y019869D02*
X021131Y019869D01*
X021213Y019967D02*
X029767Y019967D01*
X029669Y020066D02*
X026828Y020066D01*
X026491Y020066D02*
X021245Y020066D01*
X021241Y020164D02*
X026407Y020164D01*
X026375Y020263D02*
X021200Y020263D01*
X021074Y020361D02*
X026376Y020361D01*
X026417Y020460D02*
X020950Y020460D01*
X020950Y020558D02*
X026538Y020558D01*
X026781Y020558D02*
X032130Y020558D01*
X032130Y020460D02*
X029925Y020460D01*
X030024Y020361D02*
X032130Y020361D01*
X032130Y020263D02*
X030122Y020263D01*
X030221Y020164D02*
X032130Y020164D01*
X032130Y020066D02*
X030319Y020066D01*
X030418Y019967D02*
X032130Y019967D01*
X032130Y019869D02*
X030516Y019869D01*
X030615Y019770D02*
X032130Y019770D01*
X032130Y019672D02*
X030713Y019672D01*
X030812Y019573D02*
X032130Y019573D01*
X032130Y019475D02*
X030910Y019475D01*
X031009Y019376D02*
X032130Y019376D01*
X032130Y019278D02*
X031107Y019278D01*
X031206Y019179D02*
X032130Y019179D01*
X032130Y019081D02*
X031304Y019081D01*
X031403Y018982D02*
X032130Y018982D01*
X032130Y018884D02*
X031501Y018884D01*
X031947Y018785D02*
X032130Y018785D01*
X032130Y018687D02*
X032108Y018687D01*
X030949Y018785D02*
X030947Y018785D01*
X030851Y018884D02*
X028445Y018884D01*
X028410Y018919D02*
X028410Y018919D01*
X028346Y018982D02*
X030752Y018982D01*
X030654Y019081D02*
X027558Y019081D01*
X027459Y019179D02*
X030555Y019179D01*
X030457Y019278D02*
X023291Y019278D01*
X022412Y019376D02*
X030358Y019376D01*
X030260Y019475D02*
X022314Y019475D01*
X020955Y019573D02*
X030161Y019573D01*
X030063Y019672D02*
X020857Y019672D01*
X020706Y019967D02*
X020650Y019967D01*
X020650Y020066D02*
X020675Y020066D01*
X020070Y020460D02*
X016458Y020460D01*
X016572Y018785D02*
X015950Y018785D01*
X015810Y018785D02*
X015710Y018785D01*
X015710Y018687D02*
X015810Y018687D01*
X015810Y018588D02*
X015710Y018588D01*
X015710Y018490D02*
X015810Y018490D01*
X015810Y018391D02*
X015710Y018391D01*
X015569Y018785D02*
X014950Y018785D01*
X015108Y018687D02*
X015411Y018687D01*
X015326Y018588D02*
X015203Y018588D01*
X015244Y018490D02*
X015274Y018490D01*
X016108Y018687D02*
X016411Y018687D01*
X016316Y018588D02*
X016193Y018588D01*
X016245Y018490D02*
X016275Y018490D01*
X020950Y020657D02*
X032130Y020657D01*
X032130Y020755D02*
X020950Y020755D01*
X020950Y020854D02*
X032130Y020854D01*
X032130Y020952D02*
X020950Y020952D01*
X020950Y021051D02*
X021836Y021051D01*
X021779Y021149D02*
X020950Y021149D01*
X020950Y021248D02*
X021765Y021248D01*
X021785Y021346D02*
X020950Y021346D01*
X020884Y021445D02*
X021851Y021445D01*
X022013Y021642D02*
X020809Y021642D01*
X020845Y021543D02*
X022111Y021543D01*
X021975Y021740D02*
X020723Y021740D01*
X020450Y021839D02*
X021975Y021839D01*
X022012Y021937D02*
X020465Y021937D01*
X020666Y022036D02*
X022107Y022036D01*
X022412Y022036D02*
X022475Y022036D01*
X022507Y022134D02*
X020797Y022134D01*
X020578Y022922D02*
X020150Y022922D01*
X019819Y023513D02*
X018041Y023513D01*
X018140Y023612D02*
X019685Y023612D01*
X019640Y023710D02*
X018150Y023710D01*
X018150Y023809D02*
X019635Y023809D01*
X019664Y023907D02*
X018150Y023907D01*
X018150Y024006D02*
X019730Y024006D01*
X019730Y024104D02*
X018124Y024104D01*
X018026Y024203D02*
X019783Y024203D01*
X019870Y024301D02*
X017966Y024301D01*
X017903Y024400D02*
X019870Y024400D01*
X019870Y024498D02*
X017670Y024498D01*
X016059Y026370D02*
X019321Y026370D01*
X019223Y026468D02*
X015960Y026468D01*
X014124Y024892D02*
X013630Y024892D01*
X021152Y024301D02*
X023932Y024301D01*
X024641Y023513D02*
X025070Y023513D01*
X025070Y023415D02*
X024543Y023415D01*
X024444Y023316D02*
X025070Y023316D01*
X025070Y023218D02*
X024346Y023218D01*
X024139Y022824D02*
X025070Y022824D01*
X025070Y022922D02*
X023450Y022922D01*
X023549Y023021D02*
X025070Y023021D01*
X025070Y023119D02*
X023647Y023119D01*
X024089Y022331D02*
X028622Y022331D01*
X029364Y022036D02*
X032130Y022036D01*
X032130Y022134D02*
X029450Y022134D01*
X029561Y022233D02*
X032130Y022233D01*
X032130Y022331D02*
X029755Y022331D01*
X029892Y022430D02*
X032130Y022430D01*
X032130Y022528D02*
X029938Y022528D01*
X031055Y022627D02*
X032130Y022627D01*
X032130Y022725D02*
X031150Y022725D01*
X031150Y022824D02*
X032130Y022824D01*
X032130Y022922D02*
X031150Y022922D01*
X031150Y023021D02*
X032130Y023021D01*
X032130Y023119D02*
X031150Y023119D01*
X031150Y023218D02*
X032130Y023218D01*
X032130Y023316D02*
X031150Y023316D01*
X031150Y023415D02*
X032130Y023415D01*
X032130Y023513D02*
X031150Y023513D01*
X031150Y023612D02*
X032130Y023612D01*
X032130Y023710D02*
X031150Y023710D01*
X031150Y023809D02*
X032130Y023809D01*
X032130Y023907D02*
X031150Y023907D01*
X031150Y024006D02*
X032130Y024006D01*
X032130Y024104D02*
X031150Y024104D01*
X031150Y024203D02*
X032130Y024203D01*
X032130Y024301D02*
X031150Y024301D01*
X031150Y024400D02*
X032130Y024400D01*
X032130Y024498D02*
X031150Y024498D01*
X031150Y024597D02*
X032130Y024597D01*
X032130Y024695D02*
X031150Y024695D01*
X031150Y024794D02*
X032130Y024794D01*
X032130Y024892D02*
X031150Y024892D01*
X031150Y024991D02*
X032130Y024991D01*
X032130Y025089D02*
X031150Y025089D01*
X031150Y025188D02*
X032130Y025188D01*
X032130Y025286D02*
X031150Y025286D01*
X031150Y025385D02*
X032130Y025385D01*
X032130Y025483D02*
X031150Y025483D01*
X031150Y025582D02*
X032130Y025582D01*
X032130Y025680D02*
X031150Y025680D01*
X031150Y025779D02*
X032130Y025779D01*
X032130Y025877D02*
X031150Y025877D01*
X031150Y025976D02*
X032130Y025976D01*
X032130Y026074D02*
X031150Y026074D01*
X031150Y026173D02*
X032130Y026173D01*
X032130Y026271D02*
X031150Y026271D01*
X031150Y026370D02*
X032130Y026370D01*
X032130Y026468D02*
X031060Y026468D01*
X031057Y026862D02*
X031245Y026862D01*
X031240Y026961D02*
X031155Y026961D01*
X031223Y027059D02*
X031240Y027059D01*
X032130Y026764D02*
X028492Y026764D01*
X028393Y026665D02*
X032130Y026665D01*
X032130Y026567D02*
X028295Y026567D01*
X029057Y026862D02*
X029478Y026862D01*
X029364Y026961D02*
X029155Y026961D01*
X029223Y027059D02*
X029299Y027059D01*
X029710Y027059D02*
X029810Y027059D01*
X029810Y026961D02*
X029710Y026961D01*
X029710Y026862D02*
X029810Y026862D01*
X030041Y026862D02*
X030462Y026862D01*
X030364Y026961D02*
X030155Y026961D01*
X030220Y027059D02*
X030296Y027059D01*
X029810Y027158D02*
X029710Y027158D01*
X025070Y023907D02*
X025035Y023907D01*
X025070Y023809D02*
X024937Y023809D01*
X024838Y023710D02*
X025070Y023710D01*
X025070Y023612D02*
X024740Y023612D01*
X029167Y021839D02*
X032130Y021839D01*
X032130Y021937D02*
X029265Y021937D01*
X029273Y021740D02*
X032130Y021740D01*
X032130Y021642D02*
X029330Y021642D01*
X029345Y021543D02*
X032130Y021543D01*
X032130Y021445D02*
X029324Y021445D01*
X029259Y021346D02*
X032130Y021346D01*
X032130Y021248D02*
X029026Y021248D01*
X032130Y021149D02*
X022320Y021149D01*
X022263Y021051D02*
X032130Y021051D01*
X030572Y018785D02*
X029950Y018785D01*
X029810Y018785D02*
X029710Y018785D01*
X029710Y018687D02*
X029810Y018687D01*
X029810Y018588D02*
X029710Y018588D01*
X029710Y018490D02*
X029810Y018490D01*
X029810Y018391D02*
X029710Y018391D01*
X029569Y018785D02*
X028947Y018785D01*
X029108Y018687D02*
X029411Y018687D01*
X029326Y018588D02*
X029203Y018588D01*
X029244Y018490D02*
X029274Y018490D01*
X030108Y018687D02*
X030411Y018687D01*
X030316Y018588D02*
X030193Y018588D01*
X030245Y018490D02*
X030275Y018490D01*
X028572Y018785D02*
X028543Y018785D01*
D16*
X028220Y018840D02*
X027520Y018840D01*
X027370Y018990D01*
X027370Y019000D01*
X023300Y019000D01*
X023130Y019170D01*
X022350Y019170D01*
X022220Y019300D01*
X020960Y019300D01*
X020460Y019800D01*
X020460Y021200D01*
X020260Y021400D01*
X020260Y022000D01*
X020560Y022300D01*
X020560Y022700D02*
X020060Y022200D01*
X020060Y021300D01*
X020260Y021100D01*
X020260Y019700D01*
X020820Y019140D01*
X022120Y019140D01*
X022260Y019000D01*
X023050Y019000D01*
X023210Y018840D01*
X027220Y018840D01*
X027760Y018300D01*
X028220Y018840D02*
X028760Y018300D01*
X023760Y018300D02*
X023490Y018300D01*
X022950Y018840D01*
X022170Y018840D01*
X022010Y019000D01*
X020150Y019000D01*
X019670Y019480D01*
X019670Y019640D01*
X019270Y019660D02*
X020090Y018840D01*
X021940Y018840D01*
X022480Y018300D01*
X022760Y018300D01*
X020960Y020100D02*
X020760Y020300D01*
X020760Y021300D01*
X020560Y021500D01*
X022050Y021240D02*
X022150Y021340D01*
X028850Y021340D01*
X029060Y021550D01*
X028960Y021900D02*
X023060Y021900D01*
X022860Y021700D01*
X022350Y021700D01*
X022260Y021790D01*
X022760Y022000D02*
X022860Y022100D01*
X028660Y022100D01*
X029260Y022700D01*
X029293Y022935D02*
X029423Y023065D01*
X029557Y023065D01*
X029695Y023203D01*
X029695Y023397D01*
X029557Y023535D01*
X029362Y023535D01*
X029225Y023397D01*
X029225Y023263D01*
X028762Y022800D01*
X025260Y022800D01*
X025260Y024202D01*
X025438Y024380D01*
X025520Y024462D01*
X025520Y026142D01*
X025678Y026300D01*
X030960Y026300D01*
X030960Y022800D01*
X029792Y022800D01*
X029757Y022835D01*
X029562Y022835D01*
X029527Y022800D01*
X029492Y022800D01*
X029357Y022935D01*
X029293Y022935D01*
X029339Y022981D02*
X030960Y022981D01*
X030960Y022903D02*
X029389Y022903D01*
X029468Y022824D02*
X029551Y022824D01*
X029768Y022824D02*
X030960Y022824D01*
X030960Y023060D02*
X029417Y023060D01*
X029630Y023138D02*
X030960Y023138D01*
X030960Y023217D02*
X029695Y023217D01*
X029695Y023295D02*
X030960Y023295D01*
X030960Y023374D02*
X029695Y023374D01*
X029640Y023452D02*
X030960Y023452D01*
X030960Y023531D02*
X029561Y023531D01*
X029358Y023531D02*
X025260Y023531D01*
X025260Y023609D02*
X030960Y023609D01*
X030960Y023688D02*
X025260Y023688D01*
X025260Y023766D02*
X030960Y023766D01*
X030960Y023845D02*
X025260Y023845D01*
X025260Y023923D02*
X030960Y023923D01*
X030960Y024002D02*
X025260Y024002D01*
X025260Y024080D02*
X030960Y024080D01*
X030960Y024159D02*
X025260Y024159D01*
X025295Y024237D02*
X030960Y024237D01*
X030960Y024316D02*
X025373Y024316D01*
X025452Y024394D02*
X030960Y024394D01*
X030960Y024473D02*
X025520Y024473D01*
X025520Y024551D02*
X030960Y024551D01*
X030960Y024630D02*
X025520Y024630D01*
X025520Y024708D02*
X030960Y024708D01*
X030960Y024787D02*
X025520Y024787D01*
X025520Y024865D02*
X030960Y024865D01*
X030960Y024944D02*
X025520Y024944D01*
X025520Y025022D02*
X030960Y025022D01*
X030960Y025101D02*
X025520Y025101D01*
X025520Y025179D02*
X030960Y025179D01*
X030960Y025258D02*
X025520Y025258D01*
X025520Y025336D02*
X030960Y025336D01*
X030960Y025415D02*
X025520Y025415D01*
X025520Y025493D02*
X030960Y025493D01*
X030960Y025572D02*
X025520Y025572D01*
X025520Y025650D02*
X030960Y025650D01*
X030960Y025729D02*
X025520Y025729D01*
X025520Y025807D02*
X030960Y025807D01*
X030960Y025886D02*
X025520Y025886D01*
X025520Y025964D02*
X030960Y025964D01*
X030960Y026043D02*
X025520Y026043D01*
X025520Y026121D02*
X030960Y026121D01*
X030960Y026200D02*
X025577Y026200D01*
X025656Y026278D02*
X030960Y026278D01*
X028760Y027300D02*
X027940Y026480D01*
X025660Y026480D01*
X025380Y026200D01*
X025380Y024520D01*
X024260Y023400D01*
X023660Y023400D01*
X023360Y023100D01*
X022060Y023100D01*
X021760Y023400D01*
X020360Y023400D01*
X020060Y023100D01*
X018860Y023100D01*
X017960Y023700D02*
X017960Y024000D01*
X017760Y024200D01*
X017700Y024200D01*
X017580Y024320D01*
X016620Y024320D01*
X014340Y026600D01*
X008460Y026600D01*
X007760Y027300D01*
X007620Y026440D02*
X006760Y027300D01*
X005760Y027300D02*
X006780Y026280D01*
X014180Y026280D01*
X014780Y025680D01*
X014780Y025220D01*
X014780Y025120D01*
X014780Y025020D01*
X014460Y024700D01*
X013460Y024700D01*
X013360Y024800D01*
X014060Y024300D02*
X014260Y024500D01*
X014560Y024500D01*
X014760Y024700D01*
X015760Y024700D01*
X016160Y024300D01*
X016960Y023500D01*
X017760Y023500D01*
X017960Y023700D01*
X017620Y023800D02*
X016900Y023800D01*
X014260Y026440D01*
X007620Y026440D01*
X008240Y025560D02*
X008800Y026120D01*
X013860Y026120D01*
X014280Y025700D01*
X014280Y025140D01*
X014340Y025080D01*
X013000Y023960D02*
X013260Y023700D01*
X015590Y023700D01*
X015690Y023800D01*
X015690Y023400D02*
X013260Y023400D01*
X012860Y023800D01*
X011960Y023800D01*
X011960Y022800D01*
X011960Y022200D02*
X012160Y022200D01*
X010360Y021600D02*
X009060Y021600D01*
X008510Y021050D01*
X007100Y022460D01*
X007760Y022900D02*
X008660Y023800D01*
X011960Y023800D01*
X011860Y023960D02*
X011860Y024400D01*
X011860Y023960D02*
X013000Y023960D01*
X011860Y023960D02*
X006280Y023960D01*
X006260Y023940D01*
X006260Y018800D01*
X006760Y018300D01*
X005760Y018300D02*
X005260Y018800D01*
X005260Y023300D01*
X006280Y023960D02*
X005611Y024629D01*
X008510Y021050D02*
X008760Y020800D01*
X008760Y020300D01*
X009260Y019800D01*
X013660Y019800D01*
X014030Y020170D01*
X014030Y021870D01*
X014130Y021970D01*
X015970Y021970D01*
X016360Y021900D02*
X013780Y019320D01*
X013060Y019320D01*
X012900Y019160D01*
X012100Y019160D01*
X011940Y019000D01*
X011220Y019000D01*
X011060Y018840D01*
X010300Y018840D01*
X009760Y018300D01*
X010760Y018300D02*
X011300Y018840D01*
X012020Y018840D01*
X012180Y019000D01*
X012980Y019000D01*
X013140Y019160D01*
X013860Y019160D01*
X016260Y021560D01*
X016420Y021560D01*
X016360Y021900D02*
X017170Y021900D01*
X017380Y022110D01*
X017620Y022110D01*
X017700Y022190D01*
X017500Y021900D02*
X016760Y021160D01*
X016100Y021160D01*
X013940Y019000D01*
X013220Y019000D01*
X013060Y018840D01*
X012300Y018840D01*
X011760Y018300D01*
X012760Y018300D02*
X013300Y018840D01*
X014020Y018840D01*
X016180Y021000D01*
X016840Y021000D01*
X017550Y021710D01*
X017930Y021710D01*
X018020Y021620D01*
X017980Y021900D02*
X017500Y021900D01*
X017980Y021900D02*
X018080Y022000D01*
X018310Y021810D02*
X018370Y021870D01*
X018370Y022120D01*
X017690Y022800D01*
X017660Y022800D01*
X018310Y021810D02*
X018310Y021490D01*
X018140Y021320D01*
X017950Y021320D01*
X017760Y021130D01*
X017470Y021130D01*
X016990Y020650D01*
X016380Y020650D01*
X014760Y019030D01*
X014760Y018300D01*
X013760Y018300D02*
X016300Y020840D01*
X016920Y020840D01*
X017500Y021420D01*
X017640Y021420D01*
X017610Y020250D02*
X017420Y020060D01*
X017410Y020060D01*
X017610Y020250D02*
X018160Y020250D01*
X018360Y020050D01*
X018360Y018710D01*
X018760Y018310D01*
X018760Y018300D01*
X017760Y018300D02*
X017560Y018500D01*
X017560Y019400D01*
X022410Y022590D02*
X022410Y022610D01*
X023970Y022590D02*
X028750Y022590D01*
X029460Y023300D01*
X029225Y023295D02*
X025260Y023295D01*
X025260Y023217D02*
X029178Y023217D01*
X029100Y023138D02*
X025260Y023138D01*
X025260Y023060D02*
X029021Y023060D01*
X028943Y022981D02*
X025260Y022981D01*
X025260Y022903D02*
X028864Y022903D01*
X028786Y022824D02*
X025260Y022824D01*
X025260Y023374D02*
X029225Y023374D01*
X029279Y023452D02*
X025260Y023452D01*
X024180Y023560D02*
X022620Y023560D01*
X022460Y023400D01*
X022170Y023720D02*
X022050Y023600D01*
X022060Y023600D01*
X022170Y023720D02*
X024100Y023720D01*
X025060Y024680D01*
X025060Y026360D01*
X025500Y026800D01*
X026260Y026800D01*
X026760Y027300D01*
X026740Y027280D01*
X027100Y026640D02*
X027760Y027300D01*
X027100Y026640D02*
X025580Y026640D01*
X025220Y026280D01*
X025220Y024600D01*
X024180Y023560D01*
X024020Y023880D02*
X021888Y023880D01*
X021694Y023686D01*
X020964Y023686D01*
X020960Y023690D01*
X021010Y024040D02*
X020960Y024090D01*
X021010Y024040D02*
X023940Y024040D01*
X024740Y024840D01*
X024740Y027280D01*
X024760Y027300D01*
X024900Y026440D02*
X025760Y027300D01*
X024260Y026800D02*
X023760Y027300D01*
X022760Y027300D02*
X022760Y025800D01*
X023510Y025050D01*
X024260Y025050D01*
X024900Y024760D02*
X024900Y026440D01*
X024260Y026800D02*
X024260Y026050D01*
X024900Y024760D02*
X024020Y023880D01*
X020760Y022700D02*
X020560Y022700D01*
X019920Y023780D02*
X019920Y024070D01*
X020060Y024210D01*
X020060Y025400D01*
X019660Y025800D01*
X020260Y025700D02*
X020260Y024000D01*
X020260Y025700D02*
X019160Y026800D01*
X016260Y026800D01*
X015760Y027300D01*
X015400Y026760D02*
X012300Y026760D01*
X011760Y027300D01*
X015400Y026760D02*
X016100Y026060D01*
X018130Y026060D01*
X018530Y025660D01*
X028960Y021900D02*
X029260Y022200D01*
X029260Y022300D01*
X029360Y022400D01*
X029460Y022400D01*
X029660Y022600D01*
D17*
X029760Y020300D02*
X026660Y020300D01*
X029760Y020300D02*
X031760Y018300D01*
M02*
