G75*
G70*
%OFA0B0*%
%FSLAX24Y24*%
%IPPOS*%
%LPD*%
%AMOC8*
5,1,8,0,0,1.08239X$1,22.5*
%
%ADD10C,0.0000*%
%ADD11R,0.0473X0.0434*%
%ADD12R,0.0434X0.0473*%
%ADD13R,0.0355X0.0355*%
%ADD14R,0.0640X0.0340*%
%ADD15R,0.1024X0.0237*%
%ADD16R,0.1024X0.0827*%
%ADD17C,0.0394*%
%ADD18R,0.0512X0.0355*%
%ADD19R,0.0827X0.0985*%
%ADD20C,0.0700*%
%ADD21C,0.0780*%
%ADD22C,0.0906*%
%ADD23R,0.0620X0.0413*%
%ADD24R,0.0355X0.0178*%
%ADD25R,0.0367X0.0288*%
%ADD26R,0.0288X0.0367*%
D10*
X001050Y000150D02*
X001050Y007150D01*
X021050Y007150D01*
X021050Y000150D01*
X001050Y000150D01*
X018873Y002784D02*
X018875Y002810D01*
X018881Y002836D01*
X018891Y002861D01*
X018904Y002884D01*
X018920Y002904D01*
X018940Y002922D01*
X018962Y002937D01*
X018985Y002949D01*
X019011Y002957D01*
X019037Y002961D01*
X019063Y002961D01*
X019089Y002957D01*
X019115Y002949D01*
X019139Y002937D01*
X019160Y002922D01*
X019180Y002904D01*
X019196Y002884D01*
X019209Y002861D01*
X019219Y002836D01*
X019225Y002810D01*
X019227Y002784D01*
X019225Y002758D01*
X019219Y002732D01*
X019209Y002707D01*
X019196Y002684D01*
X019180Y002664D01*
X019160Y002646D01*
X019138Y002631D01*
X019115Y002619D01*
X019089Y002611D01*
X019063Y002607D01*
X019037Y002607D01*
X019011Y002611D01*
X018985Y002619D01*
X018961Y002631D01*
X018940Y002646D01*
X018920Y002664D01*
X018904Y002684D01*
X018891Y002707D01*
X018881Y002732D01*
X018875Y002758D01*
X018873Y002784D01*
X018873Y004516D02*
X018875Y004542D01*
X018881Y004568D01*
X018891Y004593D01*
X018904Y004616D01*
X018920Y004636D01*
X018940Y004654D01*
X018962Y004669D01*
X018985Y004681D01*
X019011Y004689D01*
X019037Y004693D01*
X019063Y004693D01*
X019089Y004689D01*
X019115Y004681D01*
X019139Y004669D01*
X019160Y004654D01*
X019180Y004636D01*
X019196Y004616D01*
X019209Y004593D01*
X019219Y004568D01*
X019225Y004542D01*
X019227Y004516D01*
X019225Y004490D01*
X019219Y004464D01*
X019209Y004439D01*
X019196Y004416D01*
X019180Y004396D01*
X019160Y004378D01*
X019138Y004363D01*
X019115Y004351D01*
X019089Y004343D01*
X019063Y004339D01*
X019037Y004339D01*
X019011Y004343D01*
X018985Y004351D01*
X018961Y004363D01*
X018940Y004378D01*
X018920Y004396D01*
X018904Y004416D01*
X018891Y004439D01*
X018881Y004464D01*
X018875Y004490D01*
X018873Y004516D01*
D11*
X013925Y003630D03*
X013255Y003630D03*
X013145Y002070D03*
X012475Y002070D03*
X007285Y003590D03*
X006615Y003590D03*
X005945Y003590D03*
X005275Y003590D03*
X004485Y003650D03*
X003815Y003650D03*
X003205Y003650D03*
X002535Y003650D03*
X003635Y002930D03*
X004305Y002930D03*
X004305Y001550D03*
X003635Y001550D03*
X006655Y005450D03*
X007325Y005450D03*
D12*
X013410Y004865D03*
X013410Y004195D03*
X015170Y003485D03*
X015710Y003485D03*
X016530Y003485D03*
X016530Y002815D03*
X015710Y002815D03*
X015170Y002815D03*
X008647Y002313D03*
X008647Y001644D03*
D13*
X014595Y002290D03*
X015185Y002290D03*
X013930Y004895D03*
X013930Y005485D03*
D14*
X007730Y002880D03*
X005730Y002880D03*
X005730Y001380D03*
X007730Y001380D03*
X004550Y004400D03*
X002550Y004400D03*
X002550Y005900D03*
X004550Y005900D03*
D15*
X018066Y004280D03*
X018066Y003965D03*
X018066Y003650D03*
X018066Y003335D03*
X018066Y003020D03*
D16*
X018066Y001878D03*
X020231Y001878D03*
X018066Y005382D03*
X020231Y005422D03*
D17*
X019050Y004516D03*
X019050Y002784D03*
D18*
X014590Y002776D03*
X013690Y002844D03*
X013690Y002136D03*
X014590Y003484D03*
D19*
X007277Y004450D03*
X005703Y004450D03*
D20*
X004990Y002730D03*
X004990Y001730D03*
D21*
X004550Y000650D03*
X003550Y000650D03*
X002550Y000650D03*
X001550Y000650D03*
X001550Y001650D03*
X001550Y002650D03*
X001550Y003650D03*
X001550Y004650D03*
X001550Y005650D03*
X001550Y006650D03*
X002550Y006650D03*
X003550Y006650D03*
X004550Y006650D03*
X005550Y006650D03*
X006550Y006650D03*
X007550Y006650D03*
X008550Y006650D03*
X009550Y006650D03*
X010550Y006650D03*
X011550Y006650D03*
X012550Y006650D03*
X013550Y006650D03*
X014550Y006650D03*
X015550Y006650D03*
X016550Y006650D03*
X017550Y006650D03*
X018550Y006650D03*
X019550Y006650D03*
X020550Y006650D03*
X020550Y000650D03*
X019550Y000650D03*
X018550Y000650D03*
X017550Y000650D03*
X016550Y000650D03*
X015550Y000650D03*
X014550Y000650D03*
X013550Y000650D03*
X012550Y000650D03*
X011550Y000650D03*
X010550Y000650D03*
X009550Y000650D03*
X008550Y000650D03*
X007550Y000650D03*
X006550Y000650D03*
X005550Y000650D03*
D22*
X015885Y004770D02*
X016475Y004770D01*
D23*
X015028Y004770D03*
X015028Y004179D03*
X015028Y005361D03*
D24*
G36*
X012213Y004464D02*
X011963Y004214D01*
X011837Y004340D01*
X012087Y004590D01*
X012213Y004464D01*
G37*
G36*
X012033Y004645D02*
X011783Y004395D01*
X011657Y004521D01*
X011907Y004771D01*
X012033Y004645D01*
G37*
G36*
X011852Y004826D02*
X011602Y004576D01*
X011476Y004702D01*
X011726Y004952D01*
X011852Y004826D01*
G37*
G36*
X011295Y004883D02*
X011545Y005133D01*
X011671Y005007D01*
X011421Y004757D01*
X011295Y004883D01*
G37*
G36*
X011114Y005063D02*
X011364Y005313D01*
X011490Y005187D01*
X011240Y004937D01*
X011114Y005063D01*
G37*
G36*
X010933Y005244D02*
X011183Y005494D01*
X011309Y005368D01*
X011059Y005118D01*
X010933Y005244D01*
G37*
G36*
X010752Y005425D02*
X011002Y005675D01*
X011128Y005549D01*
X010878Y005299D01*
X010752Y005425D01*
G37*
G36*
X010571Y005606D02*
X010821Y005856D01*
X010947Y005730D01*
X010697Y005480D01*
X010571Y005606D01*
G37*
G36*
X010279Y005856D02*
X010529Y005606D01*
X010403Y005480D01*
X010153Y005730D01*
X010279Y005856D01*
G37*
G36*
X010098Y005675D02*
X010348Y005425D01*
X010222Y005299D01*
X009972Y005549D01*
X010098Y005675D01*
G37*
G36*
X009917Y005494D02*
X010167Y005244D01*
X010041Y005118D01*
X009791Y005368D01*
X009917Y005494D01*
G37*
G36*
X009736Y005313D02*
X009986Y005063D01*
X009860Y004937D01*
X009610Y005187D01*
X009736Y005313D01*
G37*
G36*
X009555Y005133D02*
X009805Y004883D01*
X009679Y004757D01*
X009429Y005007D01*
X009555Y005133D01*
G37*
G36*
X009374Y004952D02*
X009624Y004702D01*
X009498Y004576D01*
X009248Y004826D01*
X009374Y004952D01*
G37*
G36*
X009317Y004395D02*
X009067Y004645D01*
X009193Y004771D01*
X009443Y004521D01*
X009317Y004395D01*
G37*
G36*
X009137Y004214D02*
X008887Y004464D01*
X009013Y004590D01*
X009263Y004340D01*
X009137Y004214D01*
G37*
G36*
X008956Y004033D02*
X008706Y004283D01*
X008832Y004409D01*
X009082Y004159D01*
X008956Y004033D01*
G37*
G36*
X008775Y003852D02*
X008525Y004102D01*
X008651Y004228D01*
X008901Y003978D01*
X008775Y003852D01*
G37*
G36*
X008594Y003671D02*
X008344Y003921D01*
X008470Y004047D01*
X008720Y003797D01*
X008594Y003671D01*
G37*
G36*
X008344Y003379D02*
X008594Y003629D01*
X008720Y003503D01*
X008470Y003253D01*
X008344Y003379D01*
G37*
G36*
X008525Y003198D02*
X008775Y003448D01*
X008901Y003322D01*
X008651Y003072D01*
X008525Y003198D01*
G37*
G36*
X008706Y003017D02*
X008956Y003267D01*
X009082Y003141D01*
X008832Y002891D01*
X008706Y003017D01*
G37*
G36*
X008887Y002836D02*
X009137Y003086D01*
X009263Y002960D01*
X009013Y002710D01*
X008887Y002836D01*
G37*
G36*
X009067Y002655D02*
X009317Y002905D01*
X009443Y002779D01*
X009193Y002529D01*
X009067Y002655D01*
G37*
G36*
X009248Y002474D02*
X009498Y002724D01*
X009624Y002598D01*
X009374Y002348D01*
X009248Y002474D01*
G37*
G36*
X009805Y002417D02*
X009555Y002167D01*
X009429Y002293D01*
X009679Y002543D01*
X009805Y002417D01*
G37*
G36*
X009986Y002237D02*
X009736Y001987D01*
X009610Y002113D01*
X009860Y002363D01*
X009986Y002237D01*
G37*
G36*
X010167Y002056D02*
X009917Y001806D01*
X009791Y001932D01*
X010041Y002182D01*
X010167Y002056D01*
G37*
G36*
X010348Y001875D02*
X010098Y001625D01*
X009972Y001751D01*
X010222Y002001D01*
X010348Y001875D01*
G37*
G36*
X010529Y001694D02*
X010279Y001444D01*
X010153Y001570D01*
X010403Y001820D01*
X010529Y001694D01*
G37*
G36*
X010821Y001444D02*
X010571Y001694D01*
X010697Y001820D01*
X010947Y001570D01*
X010821Y001444D01*
G37*
G36*
X011002Y001625D02*
X010752Y001875D01*
X010878Y002001D01*
X011128Y001751D01*
X011002Y001625D01*
G37*
G36*
X011183Y001806D02*
X010933Y002056D01*
X011059Y002182D01*
X011309Y001932D01*
X011183Y001806D01*
G37*
G36*
X011364Y001987D02*
X011114Y002237D01*
X011240Y002363D01*
X011490Y002113D01*
X011364Y001987D01*
G37*
G36*
X011545Y002167D02*
X011295Y002417D01*
X011421Y002543D01*
X011671Y002293D01*
X011545Y002167D01*
G37*
G36*
X011726Y002348D02*
X011476Y002598D01*
X011602Y002724D01*
X011852Y002474D01*
X011726Y002348D01*
G37*
G36*
X011783Y002905D02*
X012033Y002655D01*
X011907Y002529D01*
X011657Y002779D01*
X011783Y002905D01*
G37*
G36*
X011963Y003086D02*
X012213Y002836D01*
X012087Y002710D01*
X011837Y002960D01*
X011963Y003086D01*
G37*
G36*
X012144Y003267D02*
X012394Y003017D01*
X012268Y002891D01*
X012018Y003141D01*
X012144Y003267D01*
G37*
G36*
X012325Y003448D02*
X012575Y003198D01*
X012449Y003072D01*
X012199Y003322D01*
X012325Y003448D01*
G37*
G36*
X012506Y003629D02*
X012756Y003379D01*
X012630Y003253D01*
X012380Y003503D01*
X012506Y003629D01*
G37*
G36*
X012756Y003921D02*
X012506Y003671D01*
X012380Y003797D01*
X012630Y004047D01*
X012756Y003921D01*
G37*
G36*
X012575Y004102D02*
X012325Y003852D01*
X012199Y003978D01*
X012449Y004228D01*
X012575Y004102D01*
G37*
G36*
X012394Y004283D02*
X012144Y004033D01*
X012018Y004159D01*
X012268Y004409D01*
X012394Y004283D01*
G37*
D25*
X017050Y003803D03*
X017050Y002897D03*
D26*
X017023Y002050D03*
X016117Y002050D03*
M02*
