%
M48
M72
T01C0.0150
T02C0.0320
T03C0.0354
T04C0.0400
%
T01
X8370Y2990
X7950Y3310
X8930Y3670
X9270Y3890
X9550Y3630
X9830Y3290
X11170Y2630
X10450Y2430
X9130Y1710
X13010Y2930
X13130Y2550
X15710Y1970
X17050Y1150
X19050Y2090
X20330Y3070
X20330Y3490
X20330Y3890
X18910Y3490
X17330Y3330
X16190Y3990
X17130Y4290
X14490Y4010
X12810Y3650
X12010Y3610
X11750Y3990
X11150Y4610
X10270Y4710
X9910Y4510
X8110Y4710
X8690Y5210
X6610Y4230
X8130Y4030
X5690Y5190
X4550Y5450
X3230Y5230
X2590Y4850
X3870Y4230
X3290Y4150
X11770Y5350
X12610Y5530
X13090Y5530
X13510Y5370
X16190Y5550
X17050Y5350
X18950Y5870
T02
X4990Y2730
X4990Y1730
T03
X19050Y2784
X19050Y4516
T04
X1550Y650
X2550Y650
X3550Y650
X4550Y650
X5550Y650
X6550Y650
X7550Y650
X8550Y650
X9550Y650
X10550Y650
X11550Y650
X12550Y650
X13550Y650
X14550Y650
X15550Y650
X16550Y650
X17550Y650
X18550Y650
X19550Y650
X20550Y650
X20550Y6650
X19550Y6650
X18550Y6650
X17550Y6650
X16550Y6650
X15550Y6650
X14550Y6650
X13550Y6650
X12550Y6650
X11550Y6650
X10550Y6650
X9550Y6650
X8550Y6650
X7550Y6650
X6550Y6650
X5550Y6650
X4550Y6650
X3550Y6650
X2550Y6650
X1550Y6650
X1550Y5650
X1550Y4650
X1550Y3650
X1550Y2650
X1550Y1650
M30
