G75*
G70*
%OFA0B0*%
%FSLAX24Y24*%
%IPPOS*%
%LPD*%
%AMOC8*
5,1,8,0,0,1.08239X$1,22.5*
%
%ADD10C,0.0000*%
D10*
X001050Y000150D02*
X001050Y007150D01*
X021050Y007150D01*
X021050Y000150D01*
X001050Y000150D01*
X018873Y002784D02*
X018875Y002810D01*
X018881Y002836D01*
X018891Y002861D01*
X018904Y002884D01*
X018920Y002904D01*
X018940Y002922D01*
X018962Y002937D01*
X018985Y002949D01*
X019011Y002957D01*
X019037Y002961D01*
X019063Y002961D01*
X019089Y002957D01*
X019115Y002949D01*
X019139Y002937D01*
X019160Y002922D01*
X019180Y002904D01*
X019196Y002884D01*
X019209Y002861D01*
X019219Y002836D01*
X019225Y002810D01*
X019227Y002784D01*
X019225Y002758D01*
X019219Y002732D01*
X019209Y002707D01*
X019196Y002684D01*
X019180Y002664D01*
X019160Y002646D01*
X019138Y002631D01*
X019115Y002619D01*
X019089Y002611D01*
X019063Y002607D01*
X019037Y002607D01*
X019011Y002611D01*
X018985Y002619D01*
X018961Y002631D01*
X018940Y002646D01*
X018920Y002664D01*
X018904Y002684D01*
X018891Y002707D01*
X018881Y002732D01*
X018875Y002758D01*
X018873Y002784D01*
X018873Y004516D02*
X018875Y004542D01*
X018881Y004568D01*
X018891Y004593D01*
X018904Y004616D01*
X018920Y004636D01*
X018940Y004654D01*
X018962Y004669D01*
X018985Y004681D01*
X019011Y004689D01*
X019037Y004693D01*
X019063Y004693D01*
X019089Y004689D01*
X019115Y004681D01*
X019139Y004669D01*
X019160Y004654D01*
X019180Y004636D01*
X019196Y004616D01*
X019209Y004593D01*
X019219Y004568D01*
X019225Y004542D01*
X019227Y004516D01*
X019225Y004490D01*
X019219Y004464D01*
X019209Y004439D01*
X019196Y004416D01*
X019180Y004396D01*
X019160Y004378D01*
X019138Y004363D01*
X019115Y004351D01*
X019089Y004343D01*
X019063Y004339D01*
X019037Y004339D01*
X019011Y004343D01*
X018985Y004351D01*
X018961Y004363D01*
X018940Y004378D01*
X018920Y004396D01*
X018904Y004416D01*
X018891Y004439D01*
X018881Y004464D01*
X018875Y004490D01*
X018873Y004516D01*
M02*
