G75*
G70*
%OFA0B0*%
%FSLAX24Y24*%
%IPPOS*%
%LPD*%
%AMOC8*
5,1,8,0,0,1.08239X$1,22.5*
%
%ADD10C,0.0000*%
%ADD11R,0.0433X0.0394*%
%ADD12R,0.0394X0.0433*%
%ADD13R,0.0315X0.0315*%
%ADD14R,0.0600X0.0300*%
%ADD15R,0.0984X0.0197*%
%ADD16R,0.0984X0.0787*%
%ADD17R,0.0472X0.0315*%
%ADD18R,0.0787X0.0945*%
%ADD19C,0.0100*%
%ADD20C,0.0660*%
%ADD21C,0.0740*%
%ADD22R,0.0591X0.0394*%
%ADD23R,0.0787X0.0394*%
%ADD24C,0.0866*%
%ADD25R,0.0315X0.0138*%
%ADD26R,0.0327X0.0248*%
%ADD27R,0.0248X0.0327*%
%ADD28C,0.0080*%
%ADD29C,0.0270*%
%ADD30C,0.0160*%
D10*
X001050Y000150D02*
X001050Y007150D01*
X021050Y007150D01*
X021050Y000150D01*
X001050Y000150D01*
X018873Y002784D02*
X018875Y002810D01*
X018881Y002836D01*
X018891Y002861D01*
X018904Y002884D01*
X018920Y002904D01*
X018940Y002922D01*
X018962Y002937D01*
X018985Y002949D01*
X019011Y002957D01*
X019037Y002961D01*
X019063Y002961D01*
X019089Y002957D01*
X019115Y002949D01*
X019139Y002937D01*
X019160Y002922D01*
X019180Y002904D01*
X019196Y002884D01*
X019209Y002861D01*
X019219Y002836D01*
X019225Y002810D01*
X019227Y002784D01*
X019225Y002758D01*
X019219Y002732D01*
X019209Y002707D01*
X019196Y002684D01*
X019180Y002664D01*
X019160Y002646D01*
X019138Y002631D01*
X019115Y002619D01*
X019089Y002611D01*
X019063Y002607D01*
X019037Y002607D01*
X019011Y002611D01*
X018985Y002619D01*
X018961Y002631D01*
X018940Y002646D01*
X018920Y002664D01*
X018904Y002684D01*
X018891Y002707D01*
X018881Y002732D01*
X018875Y002758D01*
X018873Y002784D01*
X018873Y004516D02*
X018875Y004542D01*
X018881Y004568D01*
X018891Y004593D01*
X018904Y004616D01*
X018920Y004636D01*
X018940Y004654D01*
X018962Y004669D01*
X018985Y004681D01*
X019011Y004689D01*
X019037Y004693D01*
X019063Y004693D01*
X019089Y004689D01*
X019115Y004681D01*
X019139Y004669D01*
X019160Y004654D01*
X019180Y004636D01*
X019196Y004616D01*
X019209Y004593D01*
X019219Y004568D01*
X019225Y004542D01*
X019227Y004516D01*
X019225Y004490D01*
X019219Y004464D01*
X019209Y004439D01*
X019196Y004416D01*
X019180Y004396D01*
X019160Y004378D01*
X019138Y004363D01*
X019115Y004351D01*
X019089Y004343D01*
X019063Y004339D01*
X019037Y004339D01*
X019011Y004343D01*
X018985Y004351D01*
X018961Y004363D01*
X018940Y004378D01*
X018920Y004396D01*
X018904Y004416D01*
X018891Y004439D01*
X018881Y004464D01*
X018875Y004490D01*
X018873Y004516D01*
D11*
X013925Y003630D03*
X013255Y003630D03*
X013145Y002070D03*
X012475Y002070D03*
X007285Y003590D03*
X006615Y003590D03*
X005945Y003590D03*
X005275Y003590D03*
X004485Y003650D03*
X003815Y003650D03*
X003205Y003650D03*
X002535Y003650D03*
X003635Y002930D03*
X004305Y002930D03*
X004305Y001550D03*
X003635Y001550D03*
X006655Y005450D03*
X007325Y005450D03*
D12*
X013410Y004865D03*
X013410Y004195D03*
X015170Y003485D03*
X015710Y003485D03*
X016530Y003485D03*
X016530Y002815D03*
X015710Y002815D03*
X015170Y002815D03*
X008647Y002313D03*
X008647Y001644D03*
D13*
X014595Y002290D03*
X015185Y002290D03*
X013930Y004895D03*
X013930Y005485D03*
D14*
X007730Y002880D03*
X005730Y002880D03*
X005730Y001380D03*
X007730Y001380D03*
X004550Y004400D03*
X002550Y004400D03*
X002550Y005900D03*
X004550Y005900D03*
D15*
X018066Y004280D03*
X018066Y003965D03*
X018066Y003650D03*
X018066Y003335D03*
X018066Y003020D03*
D16*
X018066Y001878D03*
X020231Y001878D03*
X018066Y005382D03*
X020231Y005422D03*
D17*
X014590Y003484D03*
X014590Y002776D03*
X013690Y002844D03*
X013690Y002136D03*
D18*
X007277Y004450D03*
X005703Y004450D03*
D19*
X005159Y004484D02*
X005000Y004484D01*
X005000Y004386D02*
X005159Y004386D01*
X005159Y004287D02*
X005000Y004287D01*
X005000Y004189D02*
X005159Y004189D01*
X005159Y004090D02*
X004579Y004090D01*
X004569Y004100D02*
X004912Y004100D01*
X005000Y004188D01*
X005000Y004612D01*
X004912Y004700D01*
X004740Y004700D01*
X004740Y005237D01*
X004792Y005289D01*
X004835Y005393D01*
X004835Y005507D01*
X004796Y005600D01*
X004870Y005600D01*
X004908Y005610D01*
X004942Y005630D01*
X004970Y005658D01*
X004990Y005692D01*
X005000Y005730D01*
X005000Y005875D01*
X004575Y005875D01*
X004575Y005925D01*
X005000Y005925D01*
X005000Y005960D01*
X005711Y005960D01*
X005891Y005780D01*
X006369Y005780D01*
X006347Y005767D01*
X006319Y005739D01*
X006299Y005705D01*
X006289Y005667D01*
X006289Y005498D01*
X006607Y005498D01*
X006607Y005402D01*
X006289Y005402D01*
X006289Y005233D01*
X006299Y005195D01*
X006319Y005161D01*
X006347Y005133D01*
X006381Y005113D01*
X006419Y005103D01*
X006607Y005103D01*
X006607Y005402D01*
X006704Y005402D01*
X006704Y005103D01*
X006892Y005103D01*
X006930Y005113D01*
X006964Y005133D01*
X006990Y005159D01*
X007046Y005103D01*
X007603Y005103D01*
X007676Y005176D01*
X007720Y005131D01*
X007831Y005020D01*
X008477Y005020D01*
X008529Y004968D01*
X008633Y004925D01*
X008747Y004925D01*
X008851Y004968D01*
X008903Y005020D01*
X008911Y005020D01*
X009085Y004847D01*
X009038Y004800D01*
X008983Y004745D01*
X008829Y004900D01*
X008323Y004900D01*
X008271Y004952D01*
X008167Y004995D01*
X008053Y004995D01*
X007949Y004952D01*
X007868Y004871D01*
X007825Y004767D01*
X007825Y004653D01*
X007864Y004560D01*
X007821Y004560D01*
X007821Y004985D01*
X007733Y005072D01*
X006822Y005072D01*
X006734Y004985D01*
X006734Y004487D01*
X006667Y004515D01*
X006553Y004515D01*
X006449Y004472D01*
X006368Y004391D01*
X006325Y004287D01*
X006246Y004287D01*
X006325Y004287D02*
X006325Y004173D01*
X006368Y004069D01*
X006449Y003988D01*
X006553Y003945D01*
X006667Y003945D01*
X006734Y003973D01*
X006734Y003937D01*
X006664Y003937D01*
X006664Y003638D01*
X006567Y003638D01*
X006567Y003937D01*
X006379Y003937D01*
X006341Y003927D01*
X006307Y003907D01*
X006280Y003880D01*
X006246Y003915D01*
X006246Y004985D01*
X006158Y005072D01*
X005950Y005072D01*
X005975Y005133D01*
X005975Y005247D01*
X005932Y005351D01*
X005851Y005432D01*
X005747Y005475D01*
X005633Y005475D01*
X005529Y005432D01*
X005448Y005351D01*
X005405Y005247D01*
X005405Y005133D01*
X005430Y005072D01*
X005247Y005072D01*
X005159Y004985D01*
X005159Y003937D01*
X005039Y003937D01*
X005001Y003927D01*
X004967Y003907D01*
X004939Y003879D01*
X004919Y003845D01*
X004909Y003807D01*
X004909Y003638D01*
X005227Y003638D01*
X005227Y003542D01*
X004909Y003542D01*
X004909Y003373D01*
X004919Y003335D01*
X004939Y003301D01*
X004967Y003273D01*
X005001Y003253D01*
X005039Y003243D01*
X005227Y003243D01*
X005227Y003542D01*
X005324Y003542D01*
X005324Y003243D01*
X005512Y003243D01*
X005550Y003253D01*
X005584Y003273D01*
X005610Y003299D01*
X005666Y003243D01*
X006223Y003243D01*
X006280Y003300D01*
X006307Y003273D01*
X006341Y003253D01*
X006379Y003243D01*
X006567Y003243D01*
X006567Y003542D01*
X006664Y003542D01*
X006664Y003243D01*
X006852Y003243D01*
X006890Y003253D01*
X006924Y003273D01*
X006950Y003299D01*
X007006Y003243D01*
X007480Y003243D01*
X007480Y003180D01*
X007368Y003180D01*
X007280Y003092D01*
X007280Y002668D01*
X007368Y002580D01*
X008092Y002580D01*
X008180Y002668D01*
X008180Y002777D01*
X008209Y002748D01*
X008313Y002705D01*
X008427Y002705D01*
X008531Y002748D01*
X008612Y002829D01*
X008640Y002898D01*
X008764Y002774D01*
X008859Y002680D01*
X008695Y002680D01*
X008695Y002361D01*
X008993Y002361D01*
X008993Y002545D01*
X009131Y002407D01*
X009142Y002407D01*
X009156Y002382D01*
X009219Y002319D01*
X009265Y002273D01*
X009051Y002060D01*
X008954Y001962D01*
X008937Y001978D01*
X008963Y002004D01*
X008983Y002039D01*
X008993Y002077D01*
X008993Y002265D01*
X008695Y002265D01*
X008695Y002361D01*
X008598Y002361D01*
X008598Y002265D01*
X008300Y002265D01*
X008300Y002077D01*
X008310Y002039D01*
X008330Y002004D01*
X008356Y001978D01*
X008300Y001922D01*
X008300Y001365D01*
X008388Y001277D01*
X008906Y001277D01*
X008993Y001365D01*
X008993Y001454D01*
X009004Y001454D01*
X009073Y001425D01*
X009187Y001425D01*
X009291Y001468D01*
X009372Y001549D01*
X009415Y001653D01*
X009415Y001767D01*
X009380Y001851D01*
X009533Y002005D01*
X009669Y001869D01*
X009805Y001733D01*
X009411Y001340D01*
X008971Y001340D01*
X008758Y001127D01*
X008653Y001170D01*
X008447Y001170D01*
X008255Y001091D01*
X008109Y000945D01*
X008050Y000802D01*
X007991Y000945D01*
X007855Y001080D01*
X008050Y001080D01*
X008088Y001090D01*
X008122Y001110D01*
X008150Y001138D01*
X008170Y001172D01*
X008180Y001210D01*
X008180Y001355D01*
X007755Y001355D01*
X007755Y001405D01*
X007705Y001405D01*
X007705Y001680D01*
X007410Y001680D01*
X007372Y001670D01*
X007338Y001650D01*
X007310Y001622D01*
X007290Y001588D01*
X007280Y001550D01*
X007280Y001405D01*
X007705Y001405D01*
X007705Y001355D01*
X007280Y001355D01*
X007280Y001210D01*
X007290Y001172D01*
X007310Y001138D01*
X007327Y001121D01*
X007255Y001091D01*
X007109Y000945D01*
X007050Y000802D01*
X006991Y000945D01*
X006845Y001091D01*
X006653Y001170D01*
X006447Y001170D01*
X006255Y001091D01*
X006109Y000945D01*
X006050Y000802D01*
X005991Y000945D01*
X005855Y001080D01*
X006050Y001080D01*
X006088Y001090D01*
X006122Y001110D01*
X006150Y001138D01*
X006170Y001172D01*
X006180Y001210D01*
X006180Y001355D01*
X005755Y001355D01*
X005755Y001405D01*
X005705Y001405D01*
X005705Y001680D01*
X005470Y001680D01*
X005470Y001825D01*
X005397Y002002D01*
X005262Y002137D01*
X005085Y002210D01*
X004895Y002210D01*
X004718Y002137D01*
X004583Y002002D01*
X004540Y001897D01*
X004026Y001897D01*
X003970Y001841D01*
X003944Y001867D01*
X003910Y001887D01*
X003872Y001897D01*
X003684Y001897D01*
X003684Y001598D01*
X003587Y001598D01*
X003587Y001502D01*
X003269Y001502D01*
X003269Y001333D01*
X003279Y001295D01*
X003299Y001261D01*
X003327Y001233D01*
X003361Y001213D01*
X003399Y001203D01*
X003587Y001203D01*
X003587Y001502D01*
X003684Y001502D01*
X003684Y001203D01*
X003872Y001203D01*
X003910Y001213D01*
X003944Y001233D01*
X003970Y001259D01*
X004026Y001203D01*
X004583Y001203D01*
X004671Y001291D01*
X004671Y001360D01*
X004681Y001360D01*
X004718Y001323D01*
X004895Y001250D01*
X005085Y001250D01*
X005262Y001323D01*
X005280Y001341D01*
X005280Y001210D01*
X005290Y001172D01*
X005310Y001138D01*
X005327Y001121D01*
X005255Y001091D01*
X005109Y000945D01*
X005050Y000802D01*
X004991Y000945D01*
X004845Y001091D01*
X004653Y001170D01*
X004447Y001170D01*
X004255Y001091D01*
X004109Y000945D01*
X004050Y000802D01*
X003991Y000945D01*
X003845Y001091D01*
X003653Y001170D01*
X003447Y001170D01*
X003255Y001091D01*
X003109Y000945D01*
X003050Y000802D01*
X002991Y000945D01*
X002845Y001091D01*
X002653Y001170D01*
X002447Y001170D01*
X002255Y001091D01*
X002109Y000945D01*
X002050Y000802D01*
X001991Y000945D01*
X001845Y001091D01*
X001702Y001150D01*
X001845Y001209D01*
X001991Y001355D01*
X002070Y001547D01*
X002070Y001753D01*
X001991Y001945D01*
X001845Y002091D01*
X001702Y002150D01*
X001845Y002209D01*
X001991Y002355D01*
X002030Y002450D01*
X002030Y002047D01*
X002147Y001930D01*
X003313Y001930D01*
X003430Y002047D01*
X003430Y002583D01*
X003587Y002583D01*
X003587Y002882D01*
X003684Y002882D01*
X003684Y002583D01*
X003872Y002583D01*
X003910Y002593D01*
X003944Y002613D01*
X003970Y002639D01*
X004026Y002583D01*
X004531Y002583D01*
X004583Y002458D01*
X004718Y002323D01*
X004895Y002250D01*
X005085Y002250D01*
X005262Y002323D01*
X005397Y002458D01*
X005447Y002580D01*
X006092Y002580D01*
X006180Y002668D01*
X006180Y003092D01*
X006092Y003180D01*
X005368Y003180D01*
X005293Y003105D01*
X005262Y003137D01*
X005085Y003210D01*
X004895Y003210D01*
X004718Y003137D01*
X004701Y003120D01*
X004671Y003120D01*
X004671Y003189D01*
X004583Y003277D01*
X004026Y003277D01*
X003970Y003221D01*
X003944Y003247D01*
X003910Y003267D01*
X003872Y003277D01*
X003684Y003277D01*
X003684Y002978D01*
X003587Y002978D01*
X003587Y003277D01*
X003399Y003277D01*
X003361Y003267D01*
X003327Y003247D01*
X003310Y003230D01*
X003097Y003230D01*
X002980Y003113D01*
X002980Y003080D01*
X002147Y003080D01*
X002030Y002963D01*
X002030Y002850D01*
X001991Y002945D01*
X001845Y003091D01*
X001698Y003151D01*
X001750Y003168D01*
X001823Y003205D01*
X001889Y003253D01*
X001947Y003311D01*
X001995Y003377D01*
X002032Y003450D01*
X002057Y003528D01*
X002069Y003600D01*
X001600Y003600D01*
X001600Y003700D01*
X002069Y003700D01*
X002057Y003772D01*
X002032Y003850D01*
X001995Y003923D01*
X001947Y003989D01*
X001889Y004047D01*
X001823Y004095D01*
X001750Y004132D01*
X001698Y004149D01*
X001845Y004209D01*
X001983Y004348D01*
X002000Y004331D01*
X002100Y004231D01*
X002100Y004188D01*
X002188Y004100D01*
X002360Y004100D01*
X002360Y003997D01*
X002257Y003997D01*
X002169Y003909D01*
X002169Y003391D01*
X002257Y003303D01*
X002814Y003303D01*
X002870Y003359D01*
X002926Y003303D01*
X003483Y003303D01*
X003510Y003330D01*
X003537Y003303D01*
X004094Y003303D01*
X004150Y003359D01*
X004206Y003303D01*
X004763Y003303D01*
X004851Y003391D01*
X004851Y003909D01*
X004763Y003997D01*
X004660Y003997D01*
X004660Y004009D01*
X004569Y004100D01*
X004769Y003992D02*
X005159Y003992D01*
X004953Y003893D02*
X004851Y003893D01*
X004851Y003795D02*
X004909Y003795D01*
X004909Y003696D02*
X004851Y003696D01*
X004851Y003598D02*
X005227Y003598D01*
X005227Y003499D02*
X005324Y003499D01*
X005324Y003401D02*
X005227Y003401D01*
X005227Y003302D02*
X005324Y003302D01*
X005101Y003204D02*
X007480Y003204D01*
X007293Y003105D02*
X006167Y003105D01*
X006180Y003007D02*
X007280Y003007D01*
X007280Y002908D02*
X006180Y002908D01*
X006180Y002810D02*
X007280Y002810D01*
X007280Y002711D02*
X006180Y002711D01*
X006125Y002613D02*
X007335Y002613D01*
X008125Y002613D02*
X008324Y002613D01*
X008330Y002622D02*
X008310Y002587D01*
X008300Y002549D01*
X008300Y002361D01*
X008598Y002361D01*
X008598Y002680D01*
X008430Y002680D01*
X008392Y002669D01*
X008358Y002650D01*
X008330Y002622D01*
X008300Y002514D02*
X005420Y002514D01*
X005354Y002416D02*
X008300Y002416D01*
X008598Y002416D02*
X008695Y002416D01*
X008695Y002514D02*
X008598Y002514D01*
X008598Y002613D02*
X008695Y002613D01*
X008993Y002514D02*
X009024Y002514D01*
X008993Y002416D02*
X009123Y002416D01*
X009219Y002319D02*
X009436Y002536D01*
X009219Y002319D01*
X009221Y002317D02*
X008695Y002317D01*
X008598Y002317D02*
X005247Y002317D01*
X005279Y002120D02*
X008300Y002120D01*
X008300Y002219D02*
X003430Y002219D01*
X003430Y002317D02*
X004733Y002317D01*
X004626Y002416D02*
X003430Y002416D01*
X003430Y002514D02*
X004560Y002514D01*
X003997Y002613D02*
X003943Y002613D01*
X003684Y002613D02*
X003587Y002613D01*
X003230Y002630D02*
X002730Y002630D01*
X002480Y002880D01*
X002230Y002630D01*
X002230Y002130D01*
X003230Y002130D01*
X003230Y002630D01*
X003230Y002880D01*
X002480Y002880D01*
X002230Y002880D01*
X002230Y002630D01*
X002280Y002780D02*
X002330Y002830D01*
X002280Y002830D01*
X002030Y002908D02*
X002006Y002908D01*
X002074Y003007D02*
X001929Y003007D01*
X001810Y003105D02*
X002980Y003105D01*
X003071Y003204D02*
X001819Y003204D01*
X001937Y003302D02*
X004938Y003302D01*
X004909Y003401D02*
X004851Y003401D01*
X004851Y003499D02*
X004909Y003499D01*
X004879Y003204D02*
X004657Y003204D01*
X003684Y003204D02*
X003587Y003204D01*
X003587Y003105D02*
X003684Y003105D01*
X003684Y003007D02*
X003587Y003007D01*
X003230Y003030D02*
X003180Y003030D01*
X003180Y002930D01*
X003230Y002880D02*
X003230Y003030D01*
X003180Y002830D02*
X002730Y002830D01*
X002630Y002830D02*
X002730Y002730D01*
X003180Y002730D01*
X003180Y002830D01*
X003587Y002810D02*
X003684Y002810D01*
X003684Y002711D02*
X003587Y002711D01*
X003030Y002430D02*
X002930Y002430D01*
X002930Y002280D01*
X003030Y002280D01*
X003030Y002430D01*
X002530Y002430D02*
X002530Y002280D01*
X002430Y002280D01*
X002430Y002430D01*
X002530Y002430D01*
X002030Y002416D02*
X002016Y002416D01*
X002030Y002317D02*
X001952Y002317D01*
X002030Y002219D02*
X001854Y002219D01*
X001774Y002120D02*
X002030Y002120D01*
X002056Y002022D02*
X001914Y002022D01*
X002000Y001923D02*
X004550Y001923D01*
X004603Y002022D02*
X003404Y002022D01*
X003430Y002120D02*
X004701Y002120D01*
X005377Y002022D02*
X008320Y002022D01*
X008300Y001923D02*
X005430Y001923D01*
X005470Y001825D02*
X008300Y001825D01*
X008300Y001726D02*
X005470Y001726D01*
X005705Y001628D02*
X005755Y001628D01*
X005755Y001680D02*
X005755Y001405D01*
X006180Y001405D01*
X006180Y001550D01*
X006170Y001588D01*
X006150Y001622D01*
X006122Y001650D01*
X006088Y001670D01*
X006050Y001680D01*
X005755Y001680D01*
X006145Y001628D02*
X007315Y001628D01*
X007280Y001529D02*
X006180Y001529D01*
X006180Y001431D02*
X007280Y001431D01*
X007280Y001332D02*
X006180Y001332D01*
X006180Y001234D02*
X007280Y001234D01*
X007313Y001135D02*
X006738Y001135D01*
X006899Y001037D02*
X007201Y001037D01*
X007106Y000938D02*
X006994Y000938D01*
X007034Y000840D02*
X007066Y000840D01*
X006362Y001135D02*
X006147Y001135D01*
X006201Y001037D02*
X005899Y001037D01*
X005994Y000938D02*
X006106Y000938D01*
X006066Y000840D02*
X006034Y000840D01*
X005313Y001135D02*
X004738Y001135D01*
X004614Y001234D02*
X005280Y001234D01*
X005271Y001332D02*
X005280Y001332D01*
X005705Y001431D02*
X005755Y001431D01*
X005755Y001529D02*
X005705Y001529D01*
X004709Y001332D02*
X004671Y001332D01*
X004362Y001135D02*
X003738Y001135D01*
X003684Y001234D02*
X003587Y001234D01*
X003362Y001135D02*
X002738Y001135D01*
X002899Y001037D02*
X003201Y001037D01*
X003106Y000938D02*
X002994Y000938D01*
X003034Y000840D02*
X003066Y000840D01*
X002362Y001135D02*
X001738Y001135D01*
X001869Y001234D02*
X003326Y001234D01*
X003269Y001332D02*
X001967Y001332D01*
X002022Y001431D02*
X003269Y001431D01*
X003587Y001431D02*
X003684Y001431D01*
X003684Y001332D02*
X003587Y001332D01*
X003587Y001529D02*
X002063Y001529D01*
X002070Y001628D02*
X003269Y001628D01*
X003269Y001598D02*
X003587Y001598D01*
X003587Y001897D01*
X003399Y001897D01*
X003361Y001887D01*
X003327Y001867D01*
X003299Y001839D01*
X003279Y001805D01*
X003269Y001767D01*
X003269Y001598D01*
X003587Y001628D02*
X003684Y001628D01*
X003684Y001726D02*
X003587Y001726D01*
X003587Y001825D02*
X003684Y001825D01*
X003290Y001825D02*
X002041Y001825D01*
X002070Y001726D02*
X003269Y001726D01*
X003944Y001234D02*
X003996Y001234D01*
X003899Y001037D02*
X004201Y001037D01*
X004106Y000938D02*
X003994Y000938D01*
X004034Y000840D02*
X004066Y000840D01*
X004899Y001037D02*
X005201Y001037D01*
X005106Y000938D02*
X004994Y000938D01*
X005034Y000840D02*
X005066Y000840D01*
X007705Y001431D02*
X007755Y001431D01*
X007755Y001405D02*
X007755Y001680D01*
X008050Y001680D01*
X008088Y001670D01*
X008122Y001650D01*
X008150Y001622D01*
X008170Y001588D01*
X008180Y001550D01*
X008180Y001405D01*
X007755Y001405D01*
X007755Y001529D02*
X007705Y001529D01*
X007705Y001628D02*
X007755Y001628D01*
X008145Y001628D02*
X008300Y001628D01*
X008300Y001529D02*
X008180Y001529D01*
X008180Y001431D02*
X008300Y001431D01*
X008333Y001332D02*
X008180Y001332D01*
X008180Y001234D02*
X008865Y001234D01*
X008766Y001135D02*
X008738Y001135D01*
X008362Y001135D02*
X008147Y001135D01*
X008201Y001037D02*
X007899Y001037D01*
X007994Y000938D02*
X008106Y000938D01*
X008066Y000840D02*
X008034Y000840D01*
X008960Y001332D02*
X008963Y001332D01*
X008993Y001431D02*
X009060Y001431D01*
X009200Y001431D02*
X009502Y001431D01*
X009600Y001529D02*
X009352Y001529D01*
X009404Y001628D02*
X009699Y001628D01*
X009797Y001726D02*
X009415Y001726D01*
X009391Y001825D02*
X009714Y001825D01*
X009615Y001923D02*
X009452Y001923D01*
X009013Y002022D02*
X008973Y002022D01*
X008993Y002120D02*
X009111Y002120D01*
X009210Y002219D02*
X008993Y002219D01*
X009315Y002416D02*
X009316Y002416D01*
X009414Y002514D02*
X009414Y002514D01*
X009436Y002536D02*
X009436Y002536D01*
X009654Y002754D01*
X009608Y002800D01*
X009814Y003005D01*
X009887Y003005D01*
X009991Y003048D01*
X010072Y003129D01*
X010115Y003233D01*
X010115Y003347D01*
X010072Y003451D01*
X009991Y003532D01*
X009887Y003575D01*
X009835Y003575D01*
X009835Y003687D01*
X009792Y003791D01*
X009711Y003872D01*
X009607Y003915D01*
X009555Y003915D01*
X009555Y003947D01*
X009512Y004051D01*
X009431Y004132D01*
X009327Y004175D01*
X009283Y004175D01*
X009385Y004277D01*
X009385Y004288D01*
X009410Y004302D01*
X009473Y004365D01*
X009255Y004583D01*
X009038Y004800D01*
X009255Y004583D01*
X009255Y004583D01*
X009256Y004583D01*
X009256Y004583D01*
X009473Y004365D01*
X009536Y004428D01*
X009550Y004453D01*
X009561Y004453D01*
X009625Y004517D01*
X009625Y004453D01*
X009668Y004349D01*
X009749Y004268D01*
X009853Y004225D01*
X009967Y004225D01*
X010071Y004268D01*
X010152Y004349D01*
X010188Y004436D01*
X010213Y004425D01*
X010327Y004425D01*
X010431Y004468D01*
X010512Y004549D01*
X010555Y004653D01*
X010555Y004767D01*
X010538Y004809D01*
X010860Y005132D01*
X010996Y004996D01*
X011097Y004895D01*
X011093Y004895D01*
X010989Y004852D01*
X010908Y004771D01*
X010865Y004667D01*
X010865Y004553D01*
X010908Y004449D01*
X010989Y004368D01*
X011093Y004325D01*
X011207Y004325D01*
X011311Y004368D01*
X011392Y004449D01*
X011435Y004553D01*
X011435Y004557D01*
X011539Y004453D01*
X011550Y004453D01*
X011564Y004428D01*
X011627Y004365D01*
X011672Y004320D01*
X011560Y004209D01*
X011560Y004203D01*
X011508Y004151D01*
X011465Y004047D01*
X011465Y003933D01*
X011508Y003829D01*
X011589Y003748D01*
X011693Y003705D01*
X011741Y003705D01*
X011725Y003667D01*
X011725Y003553D01*
X011768Y003449D01*
X011849Y003368D01*
X011953Y003325D01*
X012017Y003325D01*
X011896Y003204D01*
X011720Y003027D01*
X011720Y003027D01*
X011534Y002842D01*
X011534Y002831D01*
X011509Y002817D01*
X011446Y002754D01*
X011664Y002536D01*
X011881Y002319D01*
X011927Y002365D01*
X011960Y002331D01*
X012071Y002220D01*
X012109Y002220D01*
X012109Y002118D01*
X012427Y002118D01*
X012427Y002022D01*
X012109Y002022D01*
X012109Y001853D01*
X012119Y001815D01*
X012139Y001781D01*
X012167Y001753D01*
X012201Y001733D01*
X012239Y001723D01*
X012427Y001723D01*
X012427Y002022D01*
X012524Y002022D01*
X012524Y001723D01*
X012712Y001723D01*
X012750Y001733D01*
X012784Y001753D01*
X012810Y001779D01*
X012866Y001723D01*
X013423Y001723D01*
X013511Y001811D01*
X013511Y001828D01*
X013988Y001828D01*
X014076Y001916D01*
X014076Y002355D01*
X013988Y002443D01*
X013394Y002443D01*
X013415Y002493D01*
X013415Y002542D01*
X013434Y002537D01*
X013661Y002537D01*
X013661Y002816D01*
X013304Y002816D01*
X013304Y002779D01*
X013291Y002792D01*
X013266Y002802D01*
X013295Y002873D01*
X013295Y002987D01*
X013254Y003085D01*
X013329Y003160D01*
X013440Y003271D01*
X013440Y003283D01*
X013534Y003283D01*
X013590Y003339D01*
X013616Y003313D01*
X013650Y003293D01*
X013688Y003283D01*
X013876Y003283D01*
X013876Y003582D01*
X013973Y003582D01*
X013973Y003283D01*
X014120Y003283D01*
X014120Y003211D01*
X014231Y003100D01*
X014829Y003100D01*
X014823Y003094D01*
X014823Y003083D01*
X014619Y003083D01*
X014619Y002804D01*
X014561Y002804D01*
X014561Y002747D01*
X014204Y002747D01*
X014204Y002598D01*
X014214Y002560D01*
X014234Y002526D01*
X014262Y002498D01*
X014291Y002481D01*
X014287Y002467D01*
X014287Y002319D01*
X014566Y002319D01*
X014566Y002597D01*
X014561Y002597D01*
X014561Y002747D01*
X014619Y002747D01*
X014619Y002468D01*
X014623Y002468D01*
X014623Y002319D01*
X014566Y002319D01*
X014566Y002261D01*
X014623Y002261D01*
X014623Y001983D01*
X014772Y001983D01*
X014810Y001993D01*
X014844Y002012D01*
X014872Y002040D01*
X014885Y002063D01*
X014966Y001983D01*
X015405Y001983D01*
X015425Y002003D01*
X015425Y001913D01*
X015468Y001809D01*
X015549Y001728D01*
X015653Y001685D01*
X015767Y001685D01*
X015871Y001728D01*
X015905Y001762D01*
X015931Y001737D01*
X016303Y001737D01*
X016391Y001824D01*
X016391Y002276D01*
X016360Y002307D01*
X016360Y002449D01*
X016482Y002449D01*
X016482Y002767D01*
X016578Y002767D01*
X016578Y002449D01*
X016747Y002449D01*
X016785Y002459D01*
X016819Y002479D01*
X016847Y002507D01*
X016867Y002541D01*
X016877Y002579D01*
X016877Y002623D01*
X017276Y002623D01*
X017332Y002680D01*
X017365Y002680D01*
X017475Y002790D01*
X017493Y002790D01*
X017511Y002772D01*
X018620Y002772D01*
X018708Y002860D01*
X018708Y002983D01*
X018711Y002980D01*
X018783Y002980D01*
X018773Y002969D01*
X018723Y002849D01*
X018723Y002719D01*
X018773Y002599D01*
X018865Y002507D01*
X018985Y002457D01*
X019115Y002457D01*
X019235Y002507D01*
X019327Y002599D01*
X019377Y002719D01*
X019377Y002849D01*
X019327Y002969D01*
X019317Y002980D01*
X020059Y002980D01*
X020088Y002909D01*
X020169Y002828D01*
X020273Y002785D01*
X020387Y002785D01*
X020491Y002828D01*
X020572Y002909D01*
X020615Y003013D01*
X020615Y003127D01*
X020572Y003231D01*
X020523Y003280D01*
X020572Y003329D01*
X020615Y003433D01*
X020615Y003547D01*
X020572Y003651D01*
X020533Y003690D01*
X020572Y003729D01*
X020615Y003833D01*
X020615Y003947D01*
X020572Y004051D01*
X020491Y004132D01*
X020387Y004175D01*
X020273Y004175D01*
X020169Y004132D01*
X020088Y004051D01*
X020051Y003960D01*
X019009Y003960D01*
X018814Y004155D01*
X018706Y004155D01*
X018708Y004162D01*
X018708Y004280D01*
X018708Y004398D01*
X018698Y004436D01*
X018678Y004470D01*
X018650Y004498D01*
X018616Y004518D01*
X018578Y004528D01*
X018066Y004528D01*
X018066Y004280D01*
X018708Y004280D01*
X018066Y004280D01*
X018066Y004280D01*
X018066Y004280D01*
X018066Y004528D01*
X017732Y004528D01*
X017732Y004540D01*
X018685Y004540D01*
X018723Y004578D01*
X018723Y004451D01*
X018773Y004331D01*
X018865Y004239D01*
X018985Y004189D01*
X019115Y004189D01*
X019235Y004239D01*
X019327Y004331D01*
X019377Y004451D01*
X019377Y004581D01*
X019327Y004701D01*
X019235Y004793D01*
X019115Y004843D01*
X018989Y004843D01*
X019000Y004855D01*
X019000Y005585D01*
X019007Y005585D01*
X019111Y005628D01*
X019192Y005709D01*
X019235Y005813D01*
X019235Y005927D01*
X019192Y006031D01*
X019111Y006112D01*
X019007Y006155D01*
X018893Y006155D01*
X018789Y006112D01*
X018708Y006031D01*
X018665Y005927D01*
X018665Y005910D01*
X018650Y005896D01*
X018616Y005916D01*
X018578Y005926D01*
X018116Y005926D01*
X018116Y005432D01*
X018016Y005432D01*
X018016Y005926D01*
X017663Y005926D01*
X017609Y005980D01*
X017608Y005980D01*
X017607Y005981D01*
X017529Y005980D01*
X015128Y005980D01*
X015127Y005981D01*
X015049Y005980D01*
X014971Y005980D01*
X014971Y005979D01*
X014970Y005979D01*
X014915Y005924D01*
X014860Y005869D01*
X014860Y005868D01*
X014859Y005867D01*
X014860Y005789D01*
X014860Y005711D01*
X014861Y005711D01*
X014861Y005707D01*
X014715Y005707D01*
X014677Y005697D01*
X014643Y005677D01*
X014615Y005649D01*
X014595Y005615D01*
X014585Y005577D01*
X014585Y005409D01*
X014864Y005409D01*
X014865Y005312D01*
X014585Y005312D01*
X014585Y005144D01*
X014595Y005105D01*
X014615Y005071D01*
X014622Y005064D01*
X014586Y005029D01*
X014586Y004511D01*
X014622Y004476D01*
X014585Y004439D01*
X014585Y004380D01*
X014371Y004380D01*
X014260Y004269D01*
X014260Y004269D01*
X014231Y004240D01*
X014120Y004129D01*
X014120Y003977D01*
X013973Y003977D01*
X013973Y003678D01*
X013876Y003678D01*
X013876Y003977D01*
X013757Y003977D01*
X013757Y004147D01*
X013458Y004147D01*
X013458Y004244D01*
X013757Y004244D01*
X013757Y004432D01*
X013747Y004470D01*
X013727Y004504D01*
X013701Y004530D01*
X013757Y004586D01*
X013757Y004587D01*
X014150Y004587D01*
X014237Y004675D01*
X014237Y005114D01*
X014162Y005190D01*
X014237Y005266D01*
X014237Y005705D01*
X014150Y005793D01*
X013710Y005793D01*
X013623Y005705D01*
X013623Y005680D01*
X013551Y005680D01*
X013526Y005655D01*
X013453Y005655D01*
X013362Y005617D01*
X013332Y005691D01*
X013251Y005772D01*
X013147Y005815D01*
X013033Y005815D01*
X012929Y005772D01*
X012850Y005693D01*
X012771Y005772D01*
X012667Y005815D01*
X012553Y005815D01*
X012449Y005772D01*
X012368Y005691D01*
X012325Y005587D01*
X012325Y005473D01*
X012340Y005437D01*
X012340Y004629D01*
X012287Y004575D01*
X012150Y004712D01*
X012139Y004712D01*
X012125Y004737D01*
X012062Y004800D01*
X011845Y004583D01*
X011845Y004583D01*
X012062Y004800D01*
X012015Y004847D01*
X012040Y004871D01*
X012040Y005257D01*
X012055Y005293D01*
X012055Y005407D01*
X012012Y005511D01*
X011931Y005592D01*
X011827Y005635D01*
X011804Y005635D01*
X012342Y006173D01*
X012447Y006130D01*
X012653Y006130D01*
X012845Y006209D01*
X012991Y006355D01*
X013050Y006498D01*
X013109Y006355D01*
X013255Y006209D01*
X013447Y006130D01*
X013653Y006130D01*
X013845Y006209D01*
X013991Y006355D01*
X014050Y006498D01*
X014109Y006355D01*
X014255Y006209D01*
X014447Y006130D01*
X014653Y006130D01*
X014845Y006209D01*
X014991Y006355D01*
X015050Y006498D01*
X015109Y006355D01*
X015255Y006209D01*
X015447Y006130D01*
X015653Y006130D01*
X015845Y006209D01*
X015991Y006355D01*
X016050Y006498D01*
X016109Y006355D01*
X016255Y006209D01*
X016447Y006130D01*
X016653Y006130D01*
X016845Y006209D01*
X016991Y006355D01*
X017050Y006498D01*
X017109Y006355D01*
X017255Y006209D01*
X017447Y006130D01*
X017653Y006130D01*
X017845Y006209D01*
X017991Y006355D01*
X018050Y006498D01*
X018109Y006355D01*
X018255Y006209D01*
X018447Y006130D01*
X018653Y006130D01*
X018845Y006209D01*
X018991Y006355D01*
X019051Y006502D01*
X019068Y006450D01*
X019105Y006377D01*
X019153Y006311D01*
X019211Y006253D01*
X019277Y006205D01*
X019350Y006168D01*
X019428Y006143D01*
X019500Y006131D01*
X019500Y006600D01*
X019600Y006600D01*
X019600Y006131D01*
X019672Y006143D01*
X019750Y006168D01*
X019823Y006205D01*
X019889Y006253D01*
X019947Y006311D01*
X019995Y006377D01*
X020032Y006450D01*
X020049Y006502D01*
X020109Y006355D01*
X020255Y006209D01*
X020447Y006130D01*
X020653Y006130D01*
X020845Y006209D01*
X020900Y006265D01*
X020900Y001035D01*
X020845Y001091D01*
X020653Y001170D01*
X020447Y001170D01*
X020255Y001091D01*
X020109Y000945D01*
X020049Y000798D01*
X020032Y000850D01*
X019995Y000923D01*
X019947Y000989D01*
X019889Y001047D01*
X019823Y001095D01*
X019750Y001132D01*
X019672Y001157D01*
X019600Y001169D01*
X019600Y000700D01*
X019500Y000700D01*
X019500Y001169D01*
X019428Y001157D01*
X019350Y001132D01*
X019280Y001096D01*
X019280Y001917D01*
X019292Y001929D01*
X019335Y002033D01*
X019335Y002147D01*
X019292Y002251D01*
X019211Y002332D01*
X019107Y002375D01*
X018993Y002375D01*
X018889Y002332D01*
X018808Y002251D01*
X018765Y002147D01*
X018765Y002033D01*
X018808Y001929D01*
X018820Y001917D01*
X018820Y001245D01*
X018718Y001143D01*
X018653Y001170D01*
X018447Y001170D01*
X018255Y001091D01*
X018109Y000945D01*
X018049Y000798D01*
X018032Y000850D01*
X017995Y000923D01*
X017947Y000989D01*
X017889Y001047D01*
X017823Y001095D01*
X017750Y001132D01*
X017672Y001157D01*
X017600Y001169D01*
X017600Y000700D01*
X017500Y000700D01*
X017500Y001169D01*
X017428Y001157D01*
X017350Y001132D01*
X017335Y001124D01*
X017335Y001207D01*
X017292Y001311D01*
X017253Y001350D01*
X017253Y001780D01*
X017297Y001824D01*
X017297Y002276D01*
X017209Y002363D01*
X016837Y002363D01*
X016749Y002276D01*
X016749Y001824D01*
X016793Y001780D01*
X016793Y001274D01*
X016765Y001207D01*
X016765Y001124D01*
X016653Y001170D01*
X016447Y001170D01*
X016255Y001091D01*
X016109Y000945D01*
X016050Y000802D01*
X015991Y000945D01*
X015845Y001091D01*
X015653Y001170D01*
X015447Y001170D01*
X015255Y001091D01*
X015109Y000945D01*
X015050Y000802D01*
X014991Y000945D01*
X014845Y001091D01*
X014653Y001170D01*
X014447Y001170D01*
X014342Y001127D01*
X013949Y001520D01*
X012969Y001520D01*
X012809Y001680D01*
X012069Y001680D01*
X011900Y001849D01*
X011900Y002209D01*
X011835Y002273D01*
X011881Y002319D01*
X011664Y002536D01*
X011664Y002536D01*
X011446Y002754D01*
X011433Y002740D01*
X011412Y002791D01*
X011331Y002872D01*
X011227Y002915D01*
X011113Y002915D01*
X011009Y002872D01*
X010928Y002791D01*
X010885Y002687D01*
X010885Y002614D01*
X010735Y002464D01*
X010735Y002487D01*
X010692Y002591D01*
X010611Y002672D01*
X010507Y002715D01*
X010393Y002715D01*
X010289Y002672D01*
X010208Y002591D01*
X010179Y002520D01*
X009888Y002520D01*
X009742Y002666D01*
X009731Y002666D01*
X009717Y002691D01*
X009654Y002754D01*
X009436Y002536D01*
X009436Y002536D01*
X009512Y002613D02*
X009513Y002613D01*
X009611Y002711D02*
X009611Y002711D01*
X009697Y002711D02*
X010384Y002711D01*
X010516Y002711D02*
X010895Y002711D01*
X010946Y002810D02*
X009618Y002810D01*
X009717Y002908D02*
X011096Y002908D01*
X011244Y002908D02*
X011600Y002908D01*
X011502Y002810D02*
X011394Y002810D01*
X011489Y002711D02*
X011489Y002711D01*
X011587Y002613D02*
X011588Y002613D01*
X011664Y002536D02*
X011664Y002536D01*
X011686Y002514D02*
X011686Y002514D01*
X011784Y002416D02*
X011785Y002416D01*
X011879Y002317D02*
X011974Y002317D01*
X011890Y002219D02*
X012109Y002219D01*
X012109Y002120D02*
X011900Y002120D01*
X011900Y002022D02*
X012109Y002022D01*
X012109Y001923D02*
X011900Y001923D01*
X011924Y001825D02*
X012117Y001825D01*
X012427Y001825D02*
X012524Y001825D01*
X012524Y001923D02*
X012427Y001923D01*
X012427Y002022D02*
X012524Y002022D01*
X012524Y001726D02*
X012427Y001726D01*
X012228Y001726D02*
X012023Y001726D01*
X012722Y001726D02*
X012863Y001726D01*
X012861Y001628D02*
X016793Y001628D01*
X016793Y001726D02*
X015866Y001726D01*
X015554Y001726D02*
X013426Y001726D01*
X013511Y001825D02*
X015462Y001825D01*
X015425Y001923D02*
X014076Y001923D01*
X014076Y002022D02*
X014336Y002022D01*
X014345Y002012D02*
X014379Y001993D01*
X014417Y001983D01*
X014566Y001983D01*
X014566Y002261D01*
X014287Y002261D01*
X014287Y002113D01*
X014297Y002075D01*
X014317Y002040D01*
X014345Y002012D01*
X014566Y002022D02*
X014623Y002022D01*
X014623Y002120D02*
X014566Y002120D01*
X014566Y002219D02*
X014623Y002219D01*
X014566Y002317D02*
X014076Y002317D01*
X014076Y002219D02*
X014287Y002219D01*
X014287Y002120D02*
X014076Y002120D01*
X014016Y002416D02*
X014287Y002416D01*
X014246Y002514D02*
X013415Y002514D01*
X013661Y002613D02*
X013719Y002613D01*
X013719Y002537D02*
X013946Y002537D01*
X013984Y002547D01*
X014018Y002567D01*
X014046Y002595D01*
X014066Y002629D01*
X014076Y002667D01*
X014076Y002816D01*
X013719Y002816D01*
X013719Y002873D01*
X014076Y002873D01*
X014076Y003022D01*
X014066Y003060D01*
X014046Y003094D01*
X014018Y003122D01*
X013984Y003142D01*
X013946Y003152D01*
X013719Y003152D01*
X013719Y002873D01*
X013661Y002873D01*
X013661Y002816D01*
X013719Y002816D01*
X013719Y002537D01*
X014057Y002613D02*
X014204Y002613D01*
X014561Y002613D02*
X014619Y002613D01*
X014619Y002514D02*
X014566Y002514D01*
X014566Y002416D02*
X014623Y002416D01*
X014619Y002711D02*
X014561Y002711D01*
X014561Y002804D02*
X014204Y002804D01*
X014204Y002953D01*
X014214Y002991D01*
X014234Y003025D01*
X014262Y003053D01*
X014296Y003073D01*
X014334Y003083D01*
X014561Y003083D01*
X014561Y002804D01*
X014561Y002810D02*
X014619Y002810D01*
X014619Y002908D02*
X014561Y002908D01*
X014561Y003007D02*
X014619Y003007D01*
X014223Y003007D02*
X014076Y003007D01*
X014035Y003105D02*
X014226Y003105D01*
X014128Y003204D02*
X013372Y003204D01*
X013396Y003142D02*
X013362Y003122D01*
X013334Y003094D01*
X013314Y003060D01*
X013304Y003022D01*
X013304Y002873D01*
X013661Y002873D01*
X013661Y003152D01*
X013434Y003152D01*
X013396Y003142D01*
X013345Y003105D02*
X013274Y003105D01*
X013287Y003007D02*
X013304Y003007D01*
X013295Y002908D02*
X013304Y002908D01*
X013304Y002810D02*
X013269Y002810D01*
X013661Y002810D02*
X013719Y002810D01*
X013719Y002908D02*
X013661Y002908D01*
X013661Y003007D02*
X013719Y003007D01*
X013719Y003105D02*
X013661Y003105D01*
X013635Y003302D02*
X013553Y003302D01*
X013876Y003302D02*
X013973Y003302D01*
X013973Y003401D02*
X013876Y003401D01*
X013876Y003499D02*
X013973Y003499D01*
X013973Y003696D02*
X013876Y003696D01*
X013876Y003795D02*
X013973Y003795D01*
X013973Y003893D02*
X013876Y003893D01*
X013757Y003992D02*
X014120Y003992D01*
X014120Y004090D02*
X013757Y004090D01*
X013458Y004189D02*
X014180Y004189D01*
X014278Y004287D02*
X013757Y004287D01*
X013757Y004386D02*
X014585Y004386D01*
X014613Y004484D02*
X013738Y004484D01*
X013753Y004583D02*
X014586Y004583D01*
X014586Y004681D02*
X014237Y004681D01*
X014237Y004780D02*
X014586Y004780D01*
X014586Y004878D02*
X014237Y004878D01*
X014237Y004977D02*
X014586Y004977D01*
X014613Y005075D02*
X014237Y005075D01*
X014178Y005174D02*
X014585Y005174D01*
X014585Y005272D02*
X014237Y005272D01*
X014237Y005371D02*
X014864Y005371D01*
X014585Y005469D02*
X014237Y005469D01*
X014237Y005568D02*
X014585Y005568D01*
X014632Y005666D02*
X014237Y005666D01*
X014178Y005765D02*
X014860Y005765D01*
X014859Y005863D02*
X012032Y005863D01*
X012130Y005962D02*
X014952Y005962D01*
X014722Y006159D02*
X015378Y006159D01*
X015208Y006257D02*
X014892Y006257D01*
X014991Y006356D02*
X015109Y006356D01*
X015068Y006454D02*
X015032Y006454D01*
X014208Y006257D02*
X013892Y006257D01*
X013722Y006159D02*
X014378Y006159D01*
X014109Y006356D02*
X013991Y006356D01*
X014032Y006454D02*
X014068Y006454D01*
X013378Y006159D02*
X012722Y006159D01*
X012892Y006257D02*
X013208Y006257D01*
X013109Y006356D02*
X012991Y006356D01*
X013032Y006454D02*
X013068Y006454D01*
X012378Y006159D02*
X012327Y006159D01*
X012229Y006060D02*
X018737Y006060D01*
X018722Y006159D02*
X019380Y006159D01*
X019500Y006159D02*
X019600Y006159D01*
X019600Y006257D02*
X019500Y006257D01*
X019208Y006257D02*
X018892Y006257D01*
X018991Y006356D02*
X019121Y006356D01*
X019067Y006454D02*
X019032Y006454D01*
X019500Y006454D02*
X019600Y006454D01*
X019600Y006356D02*
X019500Y006356D01*
X019500Y006553D02*
X019600Y006553D01*
X019979Y006356D02*
X020109Y006356D01*
X020068Y006454D02*
X020033Y006454D01*
X019892Y006257D02*
X020208Y006257D01*
X020378Y006159D02*
X019720Y006159D01*
X019719Y005965D02*
X019681Y005955D01*
X019647Y005935D01*
X019619Y005907D01*
X019599Y005873D01*
X019589Y005835D01*
X019589Y005472D01*
X020181Y005472D01*
X020181Y005965D01*
X019719Y005965D01*
X019705Y005962D02*
X019221Y005962D01*
X019235Y005863D02*
X019596Y005863D01*
X019589Y005765D02*
X019215Y005765D01*
X019149Y005666D02*
X019589Y005666D01*
X019589Y005568D02*
X019000Y005568D01*
X019000Y005469D02*
X020181Y005469D01*
X020181Y005472D02*
X020181Y005372D01*
X019589Y005372D01*
X019589Y005008D01*
X019599Y004970D01*
X019619Y004936D01*
X019647Y004908D01*
X019681Y004888D01*
X019719Y004878D01*
X019000Y004878D01*
X019249Y004780D02*
X020900Y004780D01*
X020900Y004878D02*
X020743Y004878D01*
X020781Y004888D01*
X020815Y004908D01*
X020843Y004936D01*
X020863Y004970D01*
X020873Y005008D01*
X020873Y005372D01*
X020281Y005372D01*
X020281Y005472D01*
X020181Y005472D01*
X020281Y005472D02*
X020281Y005965D01*
X020743Y005965D01*
X020781Y005955D01*
X020815Y005935D01*
X020843Y005907D01*
X020863Y005873D01*
X020873Y005835D01*
X020873Y005472D01*
X020281Y005472D01*
X020281Y005469D02*
X020900Y005469D01*
X020900Y005371D02*
X020873Y005371D01*
X020873Y005272D02*
X020900Y005272D01*
X020900Y005174D02*
X020873Y005174D01*
X020873Y005075D02*
X020900Y005075D01*
X020900Y004977D02*
X020865Y004977D01*
X020743Y004878D02*
X020281Y004878D01*
X020181Y004878D01*
X019719Y004878D01*
X019597Y004977D02*
X019000Y004977D01*
X019000Y005075D02*
X019589Y005075D01*
X019589Y005174D02*
X019000Y005174D01*
X019000Y005272D02*
X019589Y005272D01*
X019589Y005371D02*
X019000Y005371D01*
X018116Y005469D02*
X018016Y005469D01*
X018016Y005568D02*
X018116Y005568D01*
X018116Y005666D02*
X018016Y005666D01*
X018016Y005765D02*
X018116Y005765D01*
X018116Y005863D02*
X018016Y005863D01*
X017627Y005962D02*
X018679Y005962D01*
X018650Y005896D02*
X018650Y005896D01*
X019163Y006060D02*
X020900Y006060D01*
X020900Y006159D02*
X020722Y006159D01*
X020892Y006257D02*
X020900Y006257D01*
X020900Y005962D02*
X020757Y005962D01*
X020866Y005863D02*
X020900Y005863D01*
X020900Y005765D02*
X020873Y005765D01*
X020873Y005666D02*
X020900Y005666D01*
X020900Y005568D02*
X020873Y005568D01*
X020281Y005568D02*
X020181Y005568D01*
X020181Y005666D02*
X020281Y005666D01*
X020281Y005765D02*
X020181Y005765D01*
X020181Y005863D02*
X020281Y005863D01*
X020281Y005962D02*
X020181Y005962D01*
X020181Y005372D02*
X020281Y005372D01*
X020281Y004878D01*
X020181Y004878D02*
X020181Y005372D01*
X020181Y005371D02*
X020281Y005371D01*
X020281Y005272D02*
X020181Y005272D01*
X020181Y005174D02*
X020281Y005174D01*
X020281Y005075D02*
X020181Y005075D01*
X020181Y004977D02*
X020281Y004977D01*
X020900Y004681D02*
X019336Y004681D01*
X019377Y004583D02*
X020900Y004583D01*
X020900Y004484D02*
X019377Y004484D01*
X019350Y004386D02*
X020900Y004386D01*
X020900Y004287D02*
X019284Y004287D01*
X018879Y004090D02*
X020127Y004090D01*
X020064Y003992D02*
X018977Y003992D01*
X018708Y004189D02*
X020900Y004189D01*
X020900Y004090D02*
X020533Y004090D01*
X020596Y003992D02*
X020900Y003992D01*
X020900Y003893D02*
X020615Y003893D01*
X020599Y003795D02*
X020900Y003795D01*
X020900Y003696D02*
X020539Y003696D01*
X020594Y003598D02*
X020900Y003598D01*
X020900Y003499D02*
X020615Y003499D01*
X020601Y003401D02*
X020900Y003401D01*
X020900Y003302D02*
X020545Y003302D01*
X020583Y003204D02*
X020900Y003204D01*
X020900Y003105D02*
X020615Y003105D01*
X020612Y003007D02*
X020900Y003007D01*
X020900Y002908D02*
X020571Y002908D01*
X020446Y002810D02*
X020900Y002810D01*
X020900Y002711D02*
X019374Y002711D01*
X019377Y002810D02*
X020214Y002810D01*
X020089Y002908D02*
X019353Y002908D01*
X018747Y002908D02*
X018708Y002908D01*
X018723Y002810D02*
X018658Y002810D01*
X018726Y002711D02*
X017396Y002711D01*
X016877Y002613D02*
X018767Y002613D01*
X018857Y002514D02*
X016851Y002514D01*
X016578Y002514D02*
X016482Y002514D01*
X016482Y002613D02*
X016578Y002613D01*
X016578Y002711D02*
X016482Y002711D01*
X016360Y002416D02*
X017529Y002416D01*
X017516Y002412D02*
X017482Y002392D01*
X017454Y002364D01*
X017434Y002330D01*
X017424Y002292D01*
X017424Y001928D01*
X018016Y001928D01*
X018016Y001828D01*
X018116Y001828D01*
X018116Y001928D01*
X018708Y001928D01*
X018708Y002292D01*
X018698Y002330D01*
X018678Y002364D01*
X018650Y002392D01*
X018616Y002412D01*
X018578Y002422D01*
X018116Y002422D01*
X018116Y001928D01*
X018016Y001928D01*
X018016Y002422D01*
X017554Y002422D01*
X017516Y002412D01*
X017430Y002317D02*
X017255Y002317D01*
X017297Y002219D02*
X017424Y002219D01*
X017424Y002120D02*
X017297Y002120D01*
X017297Y002022D02*
X017424Y002022D01*
X017297Y001923D02*
X018016Y001923D01*
X018016Y001828D02*
X017424Y001828D01*
X017424Y001465D01*
X017434Y001427D01*
X017454Y001393D01*
X017482Y001365D01*
X017516Y001345D01*
X017554Y001335D01*
X018016Y001335D01*
X018016Y001828D01*
X018016Y001825D02*
X018116Y001825D01*
X018116Y001828D02*
X018116Y001335D01*
X018578Y001335D01*
X018616Y001345D01*
X018650Y001365D01*
X018678Y001393D01*
X018698Y001427D01*
X018708Y001465D01*
X018708Y001828D01*
X018116Y001828D01*
X018116Y001923D02*
X018814Y001923D01*
X018770Y002022D02*
X018708Y002022D01*
X018708Y002120D02*
X018765Y002120D01*
X018795Y002219D02*
X018708Y002219D01*
X018701Y002317D02*
X018874Y002317D01*
X019226Y002317D02*
X019596Y002317D01*
X019599Y002330D02*
X019589Y002292D01*
X019589Y001928D01*
X020181Y001928D01*
X020181Y001828D01*
X020281Y001828D01*
X020281Y001335D01*
X020743Y001335D01*
X020781Y001345D01*
X020815Y001365D01*
X020843Y001393D01*
X020863Y001427D01*
X020873Y001465D01*
X020873Y001828D01*
X020281Y001828D01*
X020281Y001928D01*
X020873Y001928D01*
X020873Y002292D01*
X020863Y002330D01*
X020843Y002364D01*
X020815Y002392D01*
X020781Y002412D01*
X020743Y002422D01*
X020281Y002422D01*
X020281Y001928D01*
X020181Y001928D01*
X020181Y002422D01*
X019719Y002422D01*
X019681Y002412D01*
X019647Y002392D01*
X019619Y002364D01*
X019599Y002330D01*
X019589Y002219D02*
X019305Y002219D01*
X019335Y002120D02*
X019589Y002120D01*
X019589Y002022D02*
X019330Y002022D01*
X019286Y001923D02*
X020181Y001923D01*
X020181Y001828D02*
X019589Y001828D01*
X019589Y001465D01*
X019599Y001427D01*
X019619Y001393D01*
X019647Y001365D01*
X019681Y001345D01*
X019719Y001335D01*
X020181Y001335D01*
X020181Y001828D01*
X020181Y001825D02*
X020281Y001825D01*
X020281Y001923D02*
X020900Y001923D01*
X020900Y002022D02*
X020873Y002022D01*
X020873Y002120D02*
X020900Y002120D01*
X020900Y002219D02*
X020873Y002219D01*
X020866Y002317D02*
X020900Y002317D01*
X020900Y002416D02*
X020767Y002416D01*
X020900Y002514D02*
X019243Y002514D01*
X019333Y002613D02*
X020900Y002613D01*
X020281Y002416D02*
X020181Y002416D01*
X020181Y002317D02*
X020281Y002317D01*
X020281Y002219D02*
X020181Y002219D01*
X020181Y002120D02*
X020281Y002120D01*
X020281Y002022D02*
X020181Y002022D01*
X019589Y001825D02*
X019280Y001825D01*
X019280Y001726D02*
X019589Y001726D01*
X019589Y001628D02*
X019280Y001628D01*
X019280Y001529D02*
X019589Y001529D01*
X019598Y001431D02*
X019280Y001431D01*
X019280Y001332D02*
X020900Y001332D01*
X020900Y001431D02*
X020864Y001431D01*
X020873Y001529D02*
X020900Y001529D01*
X020900Y001628D02*
X020873Y001628D01*
X020873Y001726D02*
X020900Y001726D01*
X020900Y001825D02*
X020873Y001825D01*
X020281Y001726D02*
X020181Y001726D01*
X020181Y001628D02*
X020281Y001628D01*
X020281Y001529D02*
X020181Y001529D01*
X020181Y001431D02*
X020281Y001431D01*
X020900Y001234D02*
X019280Y001234D01*
X019280Y001135D02*
X019360Y001135D01*
X019500Y001135D02*
X019600Y001135D01*
X019600Y001037D02*
X019500Y001037D01*
X019500Y000938D02*
X019600Y000938D01*
X019600Y000840D02*
X019500Y000840D01*
X019500Y000741D02*
X019600Y000741D01*
X019984Y000938D02*
X020106Y000938D01*
X020066Y000840D02*
X020035Y000840D01*
X019899Y001037D02*
X020201Y001037D01*
X020362Y001135D02*
X019740Y001135D01*
X020738Y001135D02*
X020900Y001135D01*
X020899Y001037D02*
X020900Y001037D01*
X018820Y001332D02*
X017271Y001332D01*
X017253Y001431D02*
X017433Y001431D01*
X017424Y001529D02*
X017253Y001529D01*
X017253Y001628D02*
X017424Y001628D01*
X017424Y001726D02*
X017253Y001726D01*
X017297Y001825D02*
X017424Y001825D01*
X018016Y001726D02*
X018116Y001726D01*
X018116Y001628D02*
X018016Y001628D01*
X018016Y001529D02*
X018116Y001529D01*
X018116Y001431D02*
X018016Y001431D01*
X017324Y001234D02*
X018808Y001234D01*
X018362Y001135D02*
X017740Y001135D01*
X017600Y001135D02*
X017500Y001135D01*
X017500Y001037D02*
X017600Y001037D01*
X017899Y001037D02*
X018201Y001037D01*
X018106Y000938D02*
X017984Y000938D01*
X018035Y000840D02*
X018066Y000840D01*
X017600Y000840D02*
X017500Y000840D01*
X017500Y000938D02*
X017600Y000938D01*
X017600Y000741D02*
X017500Y000741D01*
X017360Y001135D02*
X017335Y001135D01*
X016776Y001234D02*
X014235Y001234D01*
X014334Y001135D02*
X014362Y001135D01*
X014738Y001135D02*
X015362Y001135D01*
X015201Y001037D02*
X014899Y001037D01*
X014994Y000938D02*
X015106Y000938D01*
X015066Y000840D02*
X015034Y000840D01*
X015738Y001135D02*
X016362Y001135D01*
X016201Y001037D02*
X015899Y001037D01*
X015994Y000938D02*
X016106Y000938D01*
X016066Y000840D02*
X016034Y000840D01*
X016738Y001135D02*
X016765Y001135D01*
X016793Y001332D02*
X014137Y001332D01*
X014038Y001431D02*
X016793Y001431D01*
X016793Y001529D02*
X012960Y001529D01*
X014853Y002022D02*
X014927Y002022D01*
X016360Y002317D02*
X016790Y002317D01*
X016749Y002219D02*
X016391Y002219D01*
X016391Y002120D02*
X016749Y002120D01*
X016749Y002022D02*
X016391Y002022D01*
X016391Y001923D02*
X016749Y001923D01*
X016749Y001825D02*
X016391Y001825D01*
X018016Y002022D02*
X018116Y002022D01*
X018116Y002120D02*
X018016Y002120D01*
X018016Y002219D02*
X018116Y002219D01*
X018116Y002317D02*
X018016Y002317D01*
X018016Y002416D02*
X018116Y002416D01*
X018602Y002416D02*
X019695Y002416D01*
X018820Y001825D02*
X018708Y001825D01*
X018708Y001726D02*
X018820Y001726D01*
X018820Y001628D02*
X018708Y001628D01*
X018708Y001529D02*
X018820Y001529D01*
X018820Y001431D02*
X018699Y001431D01*
X014204Y002711D02*
X014076Y002711D01*
X014076Y002810D02*
X014204Y002810D01*
X014204Y002908D02*
X014076Y002908D01*
X013719Y002711D02*
X013661Y002711D01*
X011994Y003302D02*
X010115Y003302D01*
X010093Y003401D02*
X011816Y003401D01*
X011747Y003499D02*
X010024Y003499D01*
X009835Y003598D02*
X011725Y003598D01*
X011737Y003696D02*
X009831Y003696D01*
X009789Y003795D02*
X011542Y003795D01*
X011482Y003893D02*
X009660Y003893D01*
X009536Y003992D02*
X011465Y003992D01*
X011483Y004090D02*
X009473Y004090D01*
X009296Y004189D02*
X011545Y004189D01*
X011638Y004287D02*
X010090Y004287D01*
X010167Y004386D02*
X010971Y004386D01*
X010894Y004484D02*
X010447Y004484D01*
X010526Y004583D02*
X010865Y004583D01*
X010871Y004681D02*
X010555Y004681D01*
X010550Y004780D02*
X010916Y004780D01*
X011052Y004878D02*
X010607Y004878D01*
X010705Y004977D02*
X011016Y004977D01*
X010996Y004996D02*
X010996Y004996D01*
X010917Y005075D02*
X010804Y005075D01*
X011943Y004681D02*
X011943Y004681D01*
X012041Y004780D02*
X012041Y004780D01*
X012082Y004780D02*
X012340Y004780D01*
X012340Y004878D02*
X012040Y004878D01*
X012040Y004977D02*
X012340Y004977D01*
X012340Y005075D02*
X012040Y005075D01*
X012040Y005174D02*
X012340Y005174D01*
X012340Y005272D02*
X012046Y005272D01*
X012055Y005371D02*
X012340Y005371D01*
X012327Y005469D02*
X012029Y005469D01*
X011956Y005568D02*
X012325Y005568D01*
X012358Y005666D02*
X011835Y005666D01*
X011933Y005765D02*
X012441Y005765D01*
X012779Y005765D02*
X012921Y005765D01*
X013259Y005765D02*
X013682Y005765D01*
X013537Y005666D02*
X013342Y005666D01*
X015722Y006159D02*
X016378Y006159D01*
X016208Y006257D02*
X015892Y006257D01*
X015991Y006356D02*
X016109Y006356D01*
X016068Y006454D02*
X016032Y006454D01*
X016722Y006159D02*
X017378Y006159D01*
X017208Y006257D02*
X016892Y006257D01*
X016991Y006356D02*
X017109Y006356D01*
X017068Y006454D02*
X017032Y006454D01*
X017722Y006159D02*
X018378Y006159D01*
X018208Y006257D02*
X017892Y006257D01*
X017991Y006356D02*
X018109Y006356D01*
X018068Y006454D02*
X018032Y006454D01*
X018066Y004484D02*
X018066Y004484D01*
X018066Y004386D02*
X018066Y004386D01*
X018066Y004287D02*
X018066Y004287D01*
X018664Y004484D02*
X018723Y004484D01*
X018708Y004386D02*
X018750Y004386D01*
X018708Y004287D02*
X018816Y004287D01*
X012340Y004681D02*
X012181Y004681D01*
X012279Y004583D02*
X012294Y004583D01*
X011845Y004583D02*
X011627Y004365D01*
X011844Y004583D01*
X011844Y004583D01*
X011845Y004583D01*
X011746Y004484D02*
X011746Y004484D01*
X011647Y004386D02*
X011647Y004386D01*
X011607Y004386D02*
X011329Y004386D01*
X011406Y004484D02*
X011508Y004484D01*
X009730Y004287D02*
X009385Y004287D01*
X009453Y004386D02*
X009453Y004386D01*
X009493Y004386D02*
X009653Y004386D01*
X009625Y004484D02*
X009592Y004484D01*
X009354Y004484D02*
X009354Y004484D01*
X009157Y004681D02*
X009157Y004681D01*
X009059Y004780D02*
X009059Y004780D01*
X009018Y004780D02*
X008949Y004780D01*
X008851Y004878D02*
X009053Y004878D01*
X008955Y004977D02*
X008860Y004977D01*
X008520Y004977D02*
X008211Y004977D01*
X008009Y004977D02*
X007821Y004977D01*
X007776Y005075D02*
X005951Y005075D01*
X005975Y005174D02*
X006312Y005174D01*
X006289Y005272D02*
X005965Y005272D01*
X005913Y005371D02*
X006289Y005371D01*
X006607Y005371D02*
X006704Y005371D01*
X006704Y005272D02*
X006607Y005272D01*
X006607Y005174D02*
X006704Y005174D01*
X006734Y004977D02*
X006246Y004977D01*
X006246Y004878D02*
X006734Y004878D01*
X006734Y004780D02*
X006246Y004780D01*
X006246Y004681D02*
X006734Y004681D01*
X006734Y004583D02*
X006246Y004583D01*
X006246Y004484D02*
X006478Y004484D01*
X006366Y004386D02*
X006246Y004386D01*
X006246Y004189D02*
X006325Y004189D01*
X006360Y004090D02*
X006246Y004090D01*
X006246Y003992D02*
X006445Y003992D01*
X006567Y003893D02*
X006664Y003893D01*
X006664Y003795D02*
X006567Y003795D01*
X006567Y003696D02*
X006664Y003696D01*
X006664Y003499D02*
X006567Y003499D01*
X006567Y003401D02*
X006664Y003401D01*
X006664Y003302D02*
X006567Y003302D01*
X006293Y003893D02*
X006267Y003893D01*
X006246Y003915D02*
X006246Y003915D01*
X005159Y004583D02*
X005000Y004583D01*
X004931Y004681D02*
X005159Y004681D01*
X005159Y004780D02*
X004740Y004780D01*
X004740Y004878D02*
X005159Y004878D01*
X005159Y004977D02*
X004740Y004977D01*
X004740Y005075D02*
X005429Y005075D01*
X005405Y005174D02*
X004740Y005174D01*
X004775Y005272D02*
X005415Y005272D01*
X005467Y005371D02*
X004826Y005371D01*
X004835Y005469D02*
X005619Y005469D01*
X005761Y005469D02*
X006607Y005469D01*
X006289Y005568D02*
X004810Y005568D01*
X004975Y005666D02*
X006289Y005666D01*
X006344Y005765D02*
X005000Y005765D01*
X005000Y005863D02*
X005808Y005863D01*
X004525Y005875D02*
X004100Y005875D01*
X004100Y005730D01*
X004110Y005692D01*
X004130Y005658D01*
X004158Y005630D01*
X004192Y005610D01*
X004230Y005600D01*
X004304Y005600D01*
X004265Y005507D01*
X004265Y005393D01*
X004308Y005289D01*
X004360Y005237D01*
X004360Y004900D01*
X003211Y004900D01*
X003100Y004789D01*
X002962Y004650D01*
X002912Y004700D01*
X002836Y004700D01*
X002875Y004793D01*
X002875Y004907D01*
X002832Y005011D01*
X002751Y005092D01*
X002647Y005135D01*
X002574Y005135D01*
X002240Y005469D01*
X003040Y005469D01*
X003040Y005443D02*
X002988Y005391D01*
X002945Y005287D01*
X002945Y005173D01*
X002988Y005069D01*
X003069Y004988D01*
X003173Y004945D01*
X003287Y004945D01*
X003391Y004988D01*
X003472Y005069D01*
X003515Y005173D01*
X003515Y005287D01*
X003472Y005391D01*
X003420Y005443D01*
X003420Y006141D01*
X003447Y006130D01*
X003653Y006130D01*
X003845Y006209D01*
X003991Y006355D01*
X004050Y006498D01*
X004109Y006355D01*
X004255Y006209D01*
X004278Y006200D01*
X004230Y006200D01*
X004192Y006190D01*
X004158Y006170D01*
X004130Y006142D01*
X004110Y006108D01*
X004100Y006070D01*
X004100Y005925D01*
X004525Y005925D01*
X004525Y005875D01*
X004100Y005863D02*
X003420Y005863D01*
X003420Y005962D02*
X004100Y005962D01*
X004100Y006060D02*
X003420Y006060D01*
X003722Y006159D02*
X004146Y006159D01*
X004208Y006257D02*
X003892Y006257D01*
X003991Y006356D02*
X004109Y006356D01*
X004068Y006454D02*
X004032Y006454D01*
X003040Y006151D02*
X003040Y005443D01*
X002980Y005371D02*
X002338Y005371D01*
X002240Y005469D02*
X002240Y005600D01*
X002525Y005600D01*
X002525Y005875D01*
X002575Y005875D01*
X002575Y005925D01*
X003000Y005925D01*
X003000Y006070D01*
X002990Y006108D01*
X002970Y006142D01*
X002942Y006170D01*
X002908Y006190D01*
X002870Y006200D01*
X002822Y006200D01*
X002845Y006209D01*
X002913Y006278D01*
X003040Y006151D01*
X003033Y006159D02*
X002954Y006159D01*
X002934Y006257D02*
X002892Y006257D01*
X003000Y006060D02*
X003040Y006060D01*
X003040Y005962D02*
X003000Y005962D01*
X003000Y005875D02*
X002575Y005875D01*
X002575Y005600D01*
X002870Y005600D01*
X002908Y005610D01*
X002942Y005630D01*
X002970Y005658D01*
X002990Y005692D01*
X003000Y005730D01*
X003000Y005875D01*
X003000Y005863D02*
X003040Y005863D01*
X003040Y005765D02*
X003000Y005765D01*
X002975Y005666D02*
X003040Y005666D01*
X003040Y005568D02*
X002240Y005568D01*
X002525Y005666D02*
X002575Y005666D01*
X002575Y005765D02*
X002525Y005765D01*
X002525Y005863D02*
X002575Y005863D01*
X003420Y005765D02*
X004100Y005765D01*
X004125Y005666D02*
X003420Y005666D01*
X003420Y005568D02*
X004290Y005568D01*
X004265Y005469D02*
X003420Y005469D01*
X003480Y005371D02*
X004274Y005371D01*
X004325Y005272D02*
X003515Y005272D01*
X003515Y005174D02*
X004360Y005174D01*
X004360Y005075D02*
X003474Y005075D01*
X003363Y004977D02*
X004360Y004977D01*
X003189Y004878D02*
X002875Y004878D01*
X002869Y004780D02*
X003091Y004780D01*
X002992Y004681D02*
X002931Y004681D01*
X002846Y004977D02*
X003097Y004977D01*
X002986Y005075D02*
X002768Y005075D01*
X002945Y005174D02*
X002535Y005174D01*
X002437Y005272D02*
X002945Y005272D01*
X002044Y004287D02*
X001922Y004287D01*
X001795Y004189D02*
X002100Y004189D01*
X002360Y004090D02*
X001829Y004090D01*
X001944Y003992D02*
X002251Y003992D01*
X002169Y003893D02*
X002010Y003893D01*
X002050Y003795D02*
X002169Y003795D01*
X002169Y003696D02*
X001600Y003696D01*
X002068Y003598D02*
X002169Y003598D01*
X002169Y003499D02*
X002048Y003499D01*
X002006Y003401D02*
X002169Y003401D01*
X007821Y004583D02*
X007854Y004583D01*
X007825Y004681D02*
X007821Y004681D01*
X007821Y004780D02*
X007830Y004780D01*
X007821Y004878D02*
X007875Y004878D01*
X007678Y005174D02*
X007674Y005174D01*
X010103Y003204D02*
X011896Y003204D01*
X011797Y003105D02*
X010048Y003105D01*
X009890Y003007D02*
X011699Y003007D01*
X010884Y002613D02*
X010671Y002613D01*
X010724Y002514D02*
X010785Y002514D01*
X010229Y002613D02*
X009795Y002613D01*
X008827Y002711D02*
X008441Y002711D01*
X008299Y002711D02*
X008180Y002711D01*
X008593Y002810D02*
X008729Y002810D01*
X002201Y001037D02*
X001899Y001037D01*
X001994Y000938D02*
X002106Y000938D01*
X002066Y000840D02*
X002034Y000840D01*
D20*
X004990Y001730D03*
X004990Y002730D03*
D21*
X001550Y002650D03*
X001550Y001650D03*
X001550Y000650D03*
X002550Y000650D03*
X003550Y000650D03*
X004550Y000650D03*
X005550Y000650D03*
X006550Y000650D03*
X007550Y000650D03*
X008550Y000650D03*
X009550Y000650D03*
X010550Y000650D03*
X011550Y000650D03*
X012550Y000650D03*
X013550Y000650D03*
X014550Y000650D03*
X015550Y000650D03*
X016550Y000650D03*
X017550Y000650D03*
X018550Y000650D03*
X019550Y000650D03*
X020550Y000650D03*
X020550Y006650D03*
X019550Y006650D03*
X018550Y006650D03*
X017550Y006650D03*
X016550Y006650D03*
X015550Y006650D03*
X014550Y006650D03*
X013550Y006650D03*
X012550Y006650D03*
X011550Y006650D03*
X010550Y006650D03*
X009550Y006650D03*
X008550Y006650D03*
X007550Y006650D03*
X006550Y006650D03*
X005550Y006650D03*
X004550Y006650D03*
X003550Y006650D03*
X002550Y006650D03*
X001550Y006650D03*
X001550Y005650D03*
X001550Y004650D03*
X001550Y003650D03*
D22*
X015030Y004180D03*
X015030Y005360D03*
D23*
X015130Y004770D03*
D24*
X015885Y004770D02*
X016475Y004770D01*
D25*
G36*
X012727Y003921D02*
X012506Y003700D01*
X012409Y003797D01*
X012630Y004018D01*
X012727Y003921D01*
G37*
G36*
X012546Y004102D02*
X012325Y003881D01*
X012228Y003978D01*
X012449Y004199D01*
X012546Y004102D01*
G37*
G36*
X012365Y004283D02*
X012144Y004062D01*
X012047Y004159D01*
X012268Y004380D01*
X012365Y004283D01*
G37*
G36*
X012184Y004464D02*
X011963Y004243D01*
X011866Y004340D01*
X012087Y004561D01*
X012184Y004464D01*
G37*
G36*
X012004Y004645D02*
X011783Y004424D01*
X011686Y004521D01*
X011907Y004742D01*
X012004Y004645D01*
G37*
G36*
X011823Y004826D02*
X011602Y004605D01*
X011505Y004702D01*
X011726Y004923D01*
X011823Y004826D01*
G37*
G36*
X011324Y004883D02*
X011545Y005104D01*
X011642Y005007D01*
X011421Y004786D01*
X011324Y004883D01*
G37*
G36*
X011143Y005063D02*
X011364Y005284D01*
X011461Y005187D01*
X011240Y004966D01*
X011143Y005063D01*
G37*
G36*
X010962Y005244D02*
X011183Y005465D01*
X011280Y005368D01*
X011059Y005147D01*
X010962Y005244D01*
G37*
G36*
X010781Y005425D02*
X011002Y005646D01*
X011099Y005549D01*
X010878Y005328D01*
X010781Y005425D01*
G37*
G36*
X010600Y005606D02*
X010821Y005827D01*
X010918Y005730D01*
X010697Y005509D01*
X010600Y005606D01*
G37*
G36*
X010279Y005827D02*
X010500Y005606D01*
X010403Y005509D01*
X010182Y005730D01*
X010279Y005827D01*
G37*
G36*
X010098Y005646D02*
X010319Y005425D01*
X010222Y005328D01*
X010001Y005549D01*
X010098Y005646D01*
G37*
G36*
X009917Y005465D02*
X010138Y005244D01*
X010041Y005147D01*
X009820Y005368D01*
X009917Y005465D01*
G37*
G36*
X009736Y005284D02*
X009957Y005063D01*
X009860Y004966D01*
X009639Y005187D01*
X009736Y005284D01*
G37*
G36*
X009555Y005104D02*
X009776Y004883D01*
X009679Y004786D01*
X009458Y005007D01*
X009555Y005104D01*
G37*
G36*
X009374Y004923D02*
X009595Y004702D01*
X009498Y004605D01*
X009277Y004826D01*
X009374Y004923D01*
G37*
G36*
X009317Y004424D02*
X009096Y004645D01*
X009193Y004742D01*
X009414Y004521D01*
X009317Y004424D01*
G37*
G36*
X009137Y004243D02*
X008916Y004464D01*
X009013Y004561D01*
X009234Y004340D01*
X009137Y004243D01*
G37*
G36*
X008956Y004062D02*
X008735Y004283D01*
X008832Y004380D01*
X009053Y004159D01*
X008956Y004062D01*
G37*
G36*
X008775Y003881D02*
X008554Y004102D01*
X008651Y004199D01*
X008872Y003978D01*
X008775Y003881D01*
G37*
G36*
X008594Y003700D02*
X008373Y003921D01*
X008470Y004018D01*
X008691Y003797D01*
X008594Y003700D01*
G37*
G36*
X008373Y003379D02*
X008594Y003600D01*
X008691Y003503D01*
X008470Y003282D01*
X008373Y003379D01*
G37*
G36*
X008554Y003198D02*
X008775Y003419D01*
X008872Y003322D01*
X008651Y003101D01*
X008554Y003198D01*
G37*
G36*
X008735Y003017D02*
X008956Y003238D01*
X009053Y003141D01*
X008832Y002920D01*
X008735Y003017D01*
G37*
G36*
X008916Y002836D02*
X009137Y003057D01*
X009234Y002960D01*
X009013Y002739D01*
X008916Y002836D01*
G37*
G36*
X009096Y002655D02*
X009317Y002876D01*
X009414Y002779D01*
X009193Y002558D01*
X009096Y002655D01*
G37*
G36*
X009277Y002474D02*
X009498Y002695D01*
X009595Y002598D01*
X009374Y002377D01*
X009277Y002474D01*
G37*
G36*
X009776Y002417D02*
X009555Y002196D01*
X009458Y002293D01*
X009679Y002514D01*
X009776Y002417D01*
G37*
G36*
X009957Y002237D02*
X009736Y002016D01*
X009639Y002113D01*
X009860Y002334D01*
X009957Y002237D01*
G37*
G36*
X010138Y002056D02*
X009917Y001835D01*
X009820Y001932D01*
X010041Y002153D01*
X010138Y002056D01*
G37*
G36*
X010319Y001875D02*
X010098Y001654D01*
X010001Y001751D01*
X010222Y001972D01*
X010319Y001875D01*
G37*
G36*
X010500Y001694D02*
X010279Y001473D01*
X010182Y001570D01*
X010403Y001791D01*
X010500Y001694D01*
G37*
G36*
X010821Y001473D02*
X010600Y001694D01*
X010697Y001791D01*
X010918Y001570D01*
X010821Y001473D01*
G37*
G36*
X011002Y001654D02*
X010781Y001875D01*
X010878Y001972D01*
X011099Y001751D01*
X011002Y001654D01*
G37*
G36*
X011183Y001835D02*
X010962Y002056D01*
X011059Y002153D01*
X011280Y001932D01*
X011183Y001835D01*
G37*
G36*
X011364Y002016D02*
X011143Y002237D01*
X011240Y002334D01*
X011461Y002113D01*
X011364Y002016D01*
G37*
G36*
X011545Y002196D02*
X011324Y002417D01*
X011421Y002514D01*
X011642Y002293D01*
X011545Y002196D01*
G37*
G36*
X011726Y002377D02*
X011505Y002598D01*
X011602Y002695D01*
X011823Y002474D01*
X011726Y002377D01*
G37*
G36*
X011783Y002876D02*
X012004Y002655D01*
X011907Y002558D01*
X011686Y002779D01*
X011783Y002876D01*
G37*
G36*
X011963Y003057D02*
X012184Y002836D01*
X012087Y002739D01*
X011866Y002960D01*
X011963Y003057D01*
G37*
G36*
X012144Y003238D02*
X012365Y003017D01*
X012268Y002920D01*
X012047Y003141D01*
X012144Y003238D01*
G37*
G36*
X012325Y003419D02*
X012546Y003198D01*
X012449Y003101D01*
X012228Y003322D01*
X012325Y003419D01*
G37*
G36*
X012506Y003600D02*
X012727Y003379D01*
X012630Y003282D01*
X012409Y003503D01*
X012506Y003600D01*
G37*
D26*
X017050Y003803D03*
X017050Y002897D03*
D27*
X017023Y002050D03*
X016117Y002050D03*
D28*
X015710Y001970D02*
X015710Y002815D01*
X015170Y002815D02*
X015170Y002305D01*
X015185Y002290D01*
X013690Y002136D02*
X013684Y002130D01*
X013330Y002130D01*
X013295Y002095D01*
X013070Y002095D01*
X013065Y002090D01*
X012890Y002090D01*
X012830Y002150D01*
X012830Y002310D01*
X012730Y002410D01*
X012150Y002410D01*
X011845Y002715D01*
X011845Y002717D01*
X012025Y002895D02*
X012290Y002630D01*
X013050Y002630D01*
X013130Y002550D01*
X012025Y002895D02*
X012025Y002898D01*
X012221Y003079D02*
X012370Y002930D01*
X013010Y002930D01*
X012710Y003130D02*
X012830Y003250D01*
X013150Y003250D01*
X013250Y003350D01*
X013250Y003625D01*
X013255Y003630D01*
X013235Y003650D01*
X012810Y003650D01*
X012579Y003859D02*
X012970Y004250D01*
X012970Y005090D01*
X013150Y005270D01*
X013410Y005270D01*
X013510Y005370D01*
X013630Y005490D01*
X013925Y005490D01*
X013930Y005485D01*
X013090Y005530D02*
X012770Y005210D01*
X012770Y004430D01*
X012387Y004047D01*
X012387Y004040D01*
X012206Y004221D02*
X012206Y004226D01*
X012530Y004550D01*
X012530Y005450D01*
X012610Y005530D01*
X011850Y005270D02*
X011770Y005350D01*
X011850Y005270D02*
X011850Y004950D01*
X011664Y004764D01*
X011483Y004945D02*
X011150Y004612D01*
X011150Y004610D01*
X011874Y004250D02*
X012025Y004402D01*
X011874Y004250D02*
X011870Y004250D01*
X011750Y004130D01*
X011750Y003990D01*
X011170Y004130D02*
X010690Y004130D01*
X010670Y004150D01*
X009910Y004510D02*
X009910Y004820D01*
X010759Y005668D01*
X010759Y005681D01*
X009790Y006650D01*
X009550Y006650D01*
X010550Y006650D02*
X011090Y006110D01*
X011090Y005630D01*
X010947Y005487D01*
X010940Y005487D01*
X010940Y005480D01*
X010270Y004810D01*
X010270Y004710D01*
X009617Y004945D02*
X009617Y004963D01*
X009130Y005450D01*
X007970Y005450D01*
X007630Y005790D01*
X006890Y005790D01*
X006710Y005970D01*
X005970Y005970D01*
X005790Y006150D01*
X005050Y006150D01*
X004550Y006650D01*
X005550Y006650D02*
X006050Y006150D01*
X006790Y006150D01*
X006970Y005970D01*
X007710Y005970D01*
X008050Y005630D01*
X009310Y005630D01*
X009798Y005142D01*
X009798Y005125D01*
X009979Y005306D02*
X009979Y005321D01*
X009490Y005810D01*
X008130Y005810D01*
X007790Y006150D01*
X007050Y006150D01*
X006550Y006650D01*
X007550Y006650D02*
X008230Y005970D01*
X009678Y005970D01*
X010160Y005487D01*
X010341Y005668D02*
X010341Y005679D01*
X009870Y006150D01*
X009050Y006150D01*
X008550Y006650D01*
X011270Y006370D02*
X011550Y006650D01*
X011270Y006370D02*
X011270Y005450D01*
X011126Y005306D01*
X011121Y005306D01*
X011302Y005142D02*
X011450Y005290D01*
X011450Y005550D01*
X012550Y006650D01*
X015050Y005790D02*
X017474Y005790D01*
X017474Y004947D01*
X017532Y004889D01*
X017538Y004889D01*
X017542Y004478D01*
X017532Y004478D01*
X017474Y004420D01*
X017474Y004140D01*
X017491Y004122D01*
X017474Y004105D01*
X017474Y003825D01*
X017491Y003807D01*
X017474Y003790D01*
X017474Y003651D01*
X017351Y003652D01*
X017353Y003660D01*
X017353Y003781D01*
X017072Y003781D01*
X017072Y003825D01*
X017028Y003825D01*
X017028Y004067D01*
X016868Y004067D01*
X016833Y004057D01*
X016801Y004039D01*
X016775Y004013D01*
X016756Y003981D01*
X016747Y003945D01*
X016747Y003841D01*
X016745Y003841D01*
X016570Y003841D01*
X016570Y003658D01*
X016490Y003659D01*
X016490Y003841D01*
X016315Y003841D01*
X016279Y003832D01*
X016247Y003813D01*
X016221Y003787D01*
X016203Y003755D01*
X016193Y003720D01*
X016193Y003661D01*
X016007Y003662D01*
X016007Y003743D01*
X015948Y003801D01*
X015797Y003801D01*
X015730Y003868D01*
X015648Y003950D01*
X015425Y003950D01*
X015425Y004418D01*
X015410Y004433D01*
X015421Y004433D01*
X015448Y004397D01*
X015511Y004333D01*
X015584Y004280D01*
X015665Y004239D01*
X015751Y004211D01*
X015840Y004197D01*
X016140Y004197D01*
X016140Y004730D01*
X015312Y004730D01*
X015170Y004730D01*
X015170Y004810D01*
X016140Y004810D01*
X016140Y004730D01*
X016220Y004730D01*
X016220Y004197D01*
X016520Y004197D01*
X016610Y004211D01*
X016695Y004239D01*
X016776Y004280D01*
X016849Y004333D01*
X016912Y004397D01*
X016965Y004470D01*
X017006Y004550D01*
X017034Y004636D01*
X017048Y004725D01*
X017048Y004730D01*
X016220Y004730D01*
X016220Y004810D01*
X016140Y004810D01*
X016140Y005343D01*
X015840Y005343D01*
X015751Y005329D01*
X015665Y005301D01*
X015584Y005260D01*
X015511Y005207D01*
X015448Y005143D01*
X015421Y005107D01*
X015410Y005107D01*
X015425Y005122D01*
X015425Y005598D01*
X015367Y005657D01*
X015051Y005657D01*
X015050Y005790D01*
X015051Y005724D02*
X017474Y005724D01*
X017474Y005645D02*
X015379Y005645D01*
X015425Y005567D02*
X017474Y005567D01*
X017474Y005488D02*
X015425Y005488D01*
X015425Y005410D02*
X017474Y005410D01*
X017474Y005331D02*
X016597Y005331D01*
X016610Y005329D02*
X016520Y005343D01*
X016220Y005343D01*
X016220Y004810D01*
X017048Y004810D01*
X017048Y004815D01*
X017034Y004904D01*
X017006Y004990D01*
X016965Y005070D01*
X016912Y005143D01*
X016849Y005207D01*
X016776Y005260D01*
X016695Y005301D01*
X016610Y005329D01*
X016786Y005253D02*
X017474Y005253D01*
X017474Y005174D02*
X016882Y005174D01*
X016947Y005096D02*
X017474Y005096D01*
X017474Y005017D02*
X016993Y005017D01*
X017023Y004939D02*
X017482Y004939D01*
X017539Y004860D02*
X017041Y004860D01*
X017045Y004703D02*
X017540Y004703D01*
X017541Y004625D02*
X017031Y004625D01*
X017004Y004546D02*
X017542Y004546D01*
X017521Y004468D02*
X016964Y004468D01*
X016905Y004389D02*
X017474Y004389D01*
X017474Y004311D02*
X016818Y004311D01*
X016674Y004232D02*
X017474Y004232D01*
X017474Y004154D02*
X015425Y004154D01*
X015425Y004232D02*
X015686Y004232D01*
X015542Y004311D02*
X015425Y004311D01*
X015425Y004389D02*
X015455Y004389D01*
X014990Y004190D02*
X014990Y004140D01*
X014595Y004140D01*
X014595Y003965D01*
X014604Y003929D01*
X014623Y003897D01*
X014649Y003871D01*
X014681Y003853D01*
X014716Y003843D01*
X014990Y003843D01*
X014990Y004140D01*
X015060Y004140D01*
X015070Y004130D01*
X015070Y003843D01*
X015237Y003843D01*
X015239Y003841D01*
X015210Y003841D01*
X015210Y003525D01*
X015130Y003525D01*
X015130Y003841D01*
X014955Y003841D01*
X014919Y003832D01*
X014887Y003813D01*
X014861Y003787D01*
X014856Y003779D01*
X014845Y003782D01*
X014629Y003782D01*
X014629Y003523D01*
X014966Y003523D01*
X014966Y003525D01*
X015130Y003525D01*
X015130Y003445D01*
X014966Y003445D01*
X014966Y003446D01*
X014629Y003446D01*
X014629Y003523D01*
X014551Y003523D01*
X014551Y003782D01*
X014335Y003782D01*
X014310Y003775D01*
X014310Y004050D01*
X014450Y004190D01*
X014990Y004190D01*
X014990Y004154D02*
X014414Y004154D01*
X014335Y004075D02*
X014595Y004075D01*
X014595Y003997D02*
X014310Y003997D01*
X014310Y003918D02*
X014611Y003918D01*
X014310Y003840D02*
X014948Y003840D01*
X014990Y003918D02*
X015070Y003918D01*
X015070Y003997D02*
X014990Y003997D01*
X014990Y004075D02*
X015070Y004075D01*
X015425Y004075D02*
X017474Y004075D01*
X017474Y003997D02*
X017335Y003997D01*
X017325Y004013D02*
X017299Y004039D01*
X017267Y004057D01*
X017232Y004067D01*
X017072Y004067D01*
X017072Y003825D01*
X017353Y003825D01*
X017353Y003945D01*
X017344Y003981D01*
X017325Y004013D01*
X017353Y003918D02*
X017474Y003918D01*
X017474Y003840D02*
X017353Y003840D01*
X017353Y003761D02*
X017474Y003761D01*
X017474Y003683D02*
X017353Y003683D01*
X017072Y003840D02*
X017028Y003840D01*
X017028Y003918D02*
X017072Y003918D01*
X017072Y003997D02*
X017028Y003997D01*
X016765Y003997D02*
X015425Y003997D01*
X015680Y003918D02*
X016747Y003918D01*
X016570Y003840D02*
X016490Y003840D01*
X016490Y003761D02*
X016570Y003761D01*
X016570Y003683D02*
X016490Y003683D01*
X016206Y003761D02*
X015988Y003761D01*
X016007Y003683D02*
X016193Y003683D01*
X016308Y003840D02*
X015758Y003840D01*
X015210Y003840D02*
X015130Y003840D01*
X015130Y003761D02*
X015210Y003761D01*
X015210Y003683D02*
X015130Y003683D01*
X015130Y003604D02*
X015210Y003604D01*
X015210Y003526D02*
X015130Y003526D01*
X015130Y003447D02*
X014629Y003447D01*
X014629Y003526D02*
X014551Y003526D01*
X014551Y003604D02*
X014629Y003604D01*
X014629Y003683D02*
X014551Y003683D01*
X014551Y003761D02*
X014629Y003761D01*
X015210Y003525D02*
X015373Y003525D01*
X015670Y003525D01*
X015670Y003445D01*
X015210Y003445D01*
X015210Y003525D01*
X015210Y003447D02*
X015670Y003447D01*
X017330Y003330D02*
X018061Y003330D01*
X018630Y003330D01*
X018790Y003170D01*
X020230Y003170D01*
X020330Y003070D01*
X020330Y003490D02*
X018910Y003490D01*
X018750Y003650D01*
X018066Y003650D01*
X018066Y003965D02*
X018735Y003965D01*
X018930Y003770D01*
X020210Y003770D01*
X020330Y003890D01*
X018066Y003335D02*
X018061Y003330D01*
X016220Y004232D02*
X016140Y004232D01*
X016140Y004311D02*
X016220Y004311D01*
X016220Y004389D02*
X016140Y004389D01*
X016140Y004468D02*
X016220Y004468D01*
X016220Y004546D02*
X016140Y004546D01*
X016140Y004625D02*
X016220Y004625D01*
X016220Y004703D02*
X016140Y004703D01*
X016140Y004782D02*
X015170Y004782D01*
X015425Y005174D02*
X015478Y005174D01*
X015425Y005253D02*
X015574Y005253D01*
X015425Y005331D02*
X015764Y005331D01*
X016140Y005331D02*
X016220Y005331D01*
X016220Y005253D02*
X016140Y005253D01*
X016140Y005174D02*
X016220Y005174D01*
X016220Y005096D02*
X016140Y005096D01*
X016140Y005017D02*
X016220Y005017D01*
X016220Y004939D02*
X016140Y004939D01*
X016140Y004860D02*
X016220Y004860D01*
X016220Y004782D02*
X017539Y004782D01*
X013930Y004895D02*
X013900Y004865D01*
X013410Y004865D01*
X011302Y005125D02*
X011302Y005142D01*
X009436Y004764D02*
X008990Y005210D01*
X008690Y005210D01*
X007910Y005210D01*
X007670Y005450D01*
X007325Y005450D01*
X005690Y005190D02*
X005690Y004437D01*
X005703Y004450D01*
X005945Y004208D01*
X005945Y003590D01*
X007277Y003597D02*
X007285Y003590D01*
X007277Y003597D02*
X007277Y004450D01*
X007230Y004403D01*
X007230Y004370D01*
X007090Y004230D01*
X006610Y004230D01*
X007277Y004450D02*
X007357Y004370D01*
X008744Y004370D01*
X008894Y004221D01*
X008700Y004040D02*
X008550Y004190D01*
X008290Y004190D01*
X008130Y004030D01*
X007670Y003570D01*
X007670Y003150D01*
X007730Y003090D01*
X007730Y002880D01*
X008370Y002990D02*
X008370Y003270D01*
X008532Y003432D01*
X008532Y003441D01*
X008720Y003260D02*
X008930Y003470D01*
X008930Y003670D01*
X008532Y003859D02*
X008499Y003859D01*
X007950Y003310D01*
X008713Y003260D02*
X008720Y003260D01*
X008894Y003079D02*
X008899Y003079D01*
X009270Y003450D01*
X009270Y003890D01*
X008713Y004040D02*
X008700Y004040D01*
X009055Y004405D02*
X008750Y004710D01*
X008110Y004710D01*
X009055Y004405D02*
X009075Y004405D01*
X009075Y004402D01*
X009550Y003630D02*
X009550Y003370D01*
X009078Y002898D01*
X009075Y002898D01*
X009255Y002717D02*
X009257Y002717D01*
X009830Y003290D01*
X010690Y002150D02*
X011170Y002630D01*
X010450Y002430D02*
X010350Y002330D01*
X009950Y002330D01*
X009798Y002178D01*
X009798Y002175D01*
X009979Y001999D02*
X010130Y002150D01*
X010690Y002150D01*
X011121Y001994D02*
X011126Y001994D01*
X011350Y001770D01*
X011350Y001590D01*
X011790Y001150D01*
X012550Y001150D01*
X012550Y000650D01*
X013050Y001150D02*
X013550Y000650D01*
X013870Y001330D02*
X014550Y000650D01*
X013050Y001150D02*
X012810Y001150D01*
X012650Y001310D01*
X011910Y001310D01*
X011530Y001690D01*
X011530Y001950D01*
X011305Y002175D01*
X011302Y002175D01*
X011485Y002355D02*
X011710Y002130D01*
X011710Y001770D01*
X011990Y001490D01*
X012730Y001490D01*
X012890Y001330D01*
X013870Y001330D01*
X013070Y002095D02*
X012950Y002095D01*
X011485Y002355D02*
X011483Y002355D01*
X009979Y001999D02*
X009979Y001994D01*
X010140Y001800D02*
X009490Y001150D01*
X009050Y001150D01*
X008550Y000650D01*
X009550Y000650D02*
X010190Y001290D01*
X010190Y001490D01*
X010299Y001599D01*
X010341Y001599D01*
X010341Y001632D01*
X010160Y001800D02*
X010140Y001800D01*
X010160Y001800D02*
X010160Y001813D01*
X010550Y001410D02*
X010768Y001628D01*
X010768Y001632D01*
X010759Y001632D01*
X010940Y001813D02*
X010947Y001813D01*
X011130Y001630D01*
X011130Y001530D01*
X011550Y001110D01*
X011550Y000650D01*
X010550Y000650D02*
X010550Y001410D01*
X009615Y002355D02*
X009130Y001870D01*
X009130Y001710D01*
X009064Y001644D01*
X008647Y001644D01*
X009615Y002355D02*
X009617Y002355D01*
X012206Y003079D02*
X012221Y003079D01*
X012387Y003260D02*
X012400Y003260D01*
X012530Y003130D01*
X012710Y003130D01*
X012568Y003441D02*
X012559Y003441D01*
X012390Y003610D01*
X012010Y003610D01*
X012568Y003859D02*
X012579Y003859D01*
X005690Y004430D02*
X005690Y004437D01*
X004550Y004400D02*
X004550Y005450D01*
X003230Y005230D02*
X003230Y006230D01*
X002810Y006650D01*
X002550Y006650D01*
X002050Y006150D02*
X001550Y006650D01*
X002050Y006150D02*
X002050Y005390D01*
X002590Y004850D01*
X002050Y004890D02*
X002050Y004550D01*
X002190Y004410D01*
X002540Y004410D01*
X002550Y004400D01*
X002550Y003665D01*
X002535Y003650D01*
X003190Y003635D02*
X003205Y003650D01*
X003205Y004065D01*
X003290Y004150D01*
X003870Y004230D02*
X004070Y004030D01*
X004370Y004030D01*
X004470Y003930D01*
X004470Y003665D01*
X004485Y003650D01*
X003815Y003650D02*
X003205Y003650D01*
X002980Y004400D02*
X002550Y004400D01*
X002980Y004400D02*
X003290Y004710D01*
X004550Y004710D01*
X004550Y004400D01*
X002050Y004890D02*
X001550Y005390D01*
X001550Y005650D01*
X004305Y002930D02*
X004790Y002930D01*
X004990Y002730D01*
X004990Y001730D02*
X004810Y001550D01*
X004305Y001550D01*
X017023Y001197D02*
X017023Y001177D01*
X017050Y001150D01*
D29*
X017050Y001150D03*
X015710Y001970D03*
X013130Y002550D03*
X013010Y002930D03*
X012010Y003610D03*
X012810Y003650D03*
X011750Y003990D03*
X011150Y004610D03*
X010270Y004710D03*
X009910Y004510D03*
X009270Y003890D03*
X008930Y003670D03*
X009550Y003630D03*
X009830Y003290D03*
X008370Y002990D03*
X007950Y003310D03*
X008130Y004030D03*
X006610Y004230D03*
X008110Y004710D03*
X008690Y005210D03*
X005690Y005190D03*
X004550Y005450D03*
X003230Y005230D03*
X002590Y004850D03*
X003870Y004230D03*
X003290Y004150D03*
X009130Y001710D03*
X010450Y002430D03*
X011170Y002630D03*
X014490Y004010D03*
X016190Y003990D03*
X017130Y004290D03*
X018910Y003490D03*
X020330Y003490D03*
X020330Y003070D03*
X020330Y003890D03*
X017330Y003330D03*
X019050Y002090D03*
X017050Y005350D03*
X016190Y005550D03*
X013510Y005370D03*
X013090Y005530D03*
X012610Y005530D03*
X011770Y005350D03*
X018950Y005870D03*
D30*
X018770Y005690D01*
X018770Y004950D01*
X018590Y004770D01*
X017430Y004770D01*
X016130Y003750D02*
X016130Y002037D01*
X016117Y002050D01*
X017023Y002050D02*
X017023Y001197D01*
X018550Y000650D02*
X019050Y001150D01*
X019050Y002090D01*
X017380Y003020D02*
X017270Y002910D01*
X017063Y002910D01*
X017050Y002897D01*
X017380Y003020D02*
X018066Y003020D01*
M02*
