G75*
G70*
%OFA0B0*%
%FSLAX24Y24*%
%IPPOS*%
%LPD*%
%AMOC8*
5,1,8,0,0,1.08239X$1,22.5*
%
%ADD10C,0.0000*%
%ADD11C,0.0100*%
%ADD12C,0.0070*%
%ADD13C,0.0060*%
%ADD14C,0.0080*%
%ADD15C,0.0220*%
%ADD16R,0.0300X0.0180*%
%ADD17R,0.0180X0.0300*%
%ADD18C,0.0050*%
D10*
X001050Y000150D02*
X001050Y007150D01*
X021050Y007150D01*
X021050Y000150D01*
X001050Y000150D01*
X018873Y002784D02*
X018875Y002810D01*
X018881Y002836D01*
X018891Y002861D01*
X018904Y002884D01*
X018920Y002904D01*
X018940Y002922D01*
X018962Y002937D01*
X018985Y002949D01*
X019011Y002957D01*
X019037Y002961D01*
X019063Y002961D01*
X019089Y002957D01*
X019115Y002949D01*
X019139Y002937D01*
X019160Y002922D01*
X019180Y002904D01*
X019196Y002884D01*
X019209Y002861D01*
X019219Y002836D01*
X019225Y002810D01*
X019227Y002784D01*
X019225Y002758D01*
X019219Y002732D01*
X019209Y002707D01*
X019196Y002684D01*
X019180Y002664D01*
X019160Y002646D01*
X019138Y002631D01*
X019115Y002619D01*
X019089Y002611D01*
X019063Y002607D01*
X019037Y002607D01*
X019011Y002611D01*
X018985Y002619D01*
X018961Y002631D01*
X018940Y002646D01*
X018920Y002664D01*
X018904Y002684D01*
X018891Y002707D01*
X018881Y002732D01*
X018875Y002758D01*
X018873Y002784D01*
X018873Y004516D02*
X018875Y004542D01*
X018881Y004568D01*
X018891Y004593D01*
X018904Y004616D01*
X018920Y004636D01*
X018940Y004654D01*
X018962Y004669D01*
X018985Y004681D01*
X019011Y004689D01*
X019037Y004693D01*
X019063Y004693D01*
X019089Y004689D01*
X019115Y004681D01*
X019139Y004669D01*
X019160Y004654D01*
X019180Y004636D01*
X019196Y004616D01*
X019209Y004593D01*
X019219Y004568D01*
X019225Y004542D01*
X019227Y004516D01*
X019225Y004490D01*
X019219Y004464D01*
X019209Y004439D01*
X019196Y004416D01*
X019180Y004396D01*
X019160Y004378D01*
X019138Y004363D01*
X019115Y004351D01*
X019089Y004343D01*
X019063Y004339D01*
X019037Y004339D01*
X019011Y004343D01*
X018985Y004351D01*
X018961Y004363D01*
X018940Y004378D01*
X018920Y004396D01*
X018904Y004416D01*
X018891Y004439D01*
X018881Y004464D01*
X018875Y004490D01*
X018873Y004516D01*
D11*
X020470Y006150D02*
X021010Y006150D01*
X021010Y007110D01*
X020070Y007110D01*
X020070Y006390D01*
X002050Y006150D02*
X002050Y005150D01*
X001050Y005150D01*
X001050Y006150D01*
X002050Y006150D01*
X002050Y005150D02*
X002050Y001150D01*
X001050Y001150D01*
X001050Y005150D01*
D12*
X004109Y006226D02*
X004109Y006382D01*
X004109Y006226D02*
X004265Y006226D01*
X005129Y006186D02*
X005129Y006342D01*
X005129Y006186D02*
X005285Y006186D01*
X005375Y006115D02*
X005375Y005785D01*
X005265Y005785D02*
X005485Y005785D01*
X005633Y005785D02*
X005854Y006005D01*
X005854Y006060D01*
X005798Y006115D01*
X005688Y006115D01*
X005633Y006060D01*
X005375Y006115D02*
X005265Y006005D01*
X005633Y005785D02*
X005854Y005785D01*
X006265Y005785D02*
X006485Y005785D01*
X006375Y005785D02*
X006375Y006115D01*
X006265Y006005D01*
X006285Y006186D02*
X006129Y006186D01*
X006129Y006342D01*
X006633Y006005D02*
X006743Y006115D01*
X006743Y005785D01*
X006633Y005785D02*
X006854Y005785D01*
X007265Y005785D02*
X007485Y005785D01*
X007375Y005785D02*
X007375Y006115D01*
X007265Y006005D01*
X007305Y006186D02*
X007149Y006186D01*
X007149Y006342D01*
X007633Y006060D02*
X007688Y006115D01*
X007798Y006115D01*
X007854Y006060D01*
X007633Y005840D01*
X007688Y005785D01*
X007798Y005785D01*
X007854Y005840D01*
X007854Y006060D01*
X007633Y006060D02*
X007633Y005840D01*
X008425Y005840D02*
X008480Y005785D01*
X008590Y005785D01*
X008645Y005840D01*
X008645Y006060D01*
X008590Y006115D01*
X008480Y006115D01*
X008425Y006060D01*
X008425Y006005D01*
X008480Y005950D01*
X008645Y005950D01*
X008285Y006186D02*
X008129Y006186D01*
X008129Y006342D01*
X009149Y006342D02*
X009149Y006186D01*
X009305Y006186D01*
X009340Y006095D02*
X009450Y006095D01*
X009505Y006040D01*
X009505Y005985D01*
X009450Y005930D01*
X009340Y005930D01*
X009285Y005985D01*
X009285Y006040D01*
X009340Y006095D01*
X009340Y005930D02*
X009285Y005875D01*
X009285Y005820D01*
X009340Y005765D01*
X009450Y005765D01*
X009505Y005820D01*
X009505Y005875D01*
X009450Y005930D01*
X009615Y005693D02*
X009693Y005771D01*
X009771Y005771D01*
X009849Y005693D01*
X009849Y005615D01*
X009771Y005537D01*
X009693Y005537D01*
X009615Y005615D01*
X009615Y005693D01*
X009511Y005510D02*
X009627Y005393D01*
X009511Y005510D02*
X009433Y005510D01*
X009316Y005393D01*
X009472Y005238D01*
X009376Y005142D02*
X009298Y005064D01*
X009337Y005103D02*
X009181Y005259D01*
X009142Y005220D01*
X009042Y005120D02*
X009003Y005081D01*
X009003Y004925D01*
X009081Y004847D02*
X008925Y005003D01*
X008860Y004859D02*
X008976Y004742D01*
X008860Y004626D01*
X008782Y004626D01*
X008782Y004703D01*
X008898Y004820D01*
X008860Y004859D02*
X008782Y004859D01*
X008704Y004781D01*
X008599Y004599D02*
X008521Y004599D01*
X008404Y004482D01*
X008327Y004560D02*
X008560Y004326D01*
X008677Y004443D01*
X008677Y004521D01*
X008599Y004599D01*
X008300Y004377D02*
X008455Y004221D01*
X008339Y004105D01*
X008261Y004105D01*
X008144Y004221D01*
X007961Y004195D02*
X007806Y004039D01*
X008039Y003805D01*
X007923Y003922D02*
X008000Y004000D01*
X006268Y005285D02*
X006268Y005615D01*
X006158Y005615D02*
X006378Y005615D01*
X006010Y005615D02*
X005790Y005615D01*
X005790Y005285D01*
X006010Y005285D01*
X005900Y005450D02*
X005790Y005450D01*
X005642Y005395D02*
X005642Y005340D01*
X005587Y005285D01*
X005477Y005285D01*
X005422Y005340D01*
X005477Y005450D02*
X005587Y005450D01*
X005642Y005395D01*
X005477Y005450D02*
X005422Y005505D01*
X005422Y005560D01*
X005477Y005615D01*
X005587Y005615D01*
X005642Y005560D01*
X005274Y005615D02*
X005053Y005615D01*
X005053Y005285D01*
X005274Y005285D01*
X004905Y005285D02*
X004795Y005395D01*
X004850Y005395D02*
X004685Y005395D01*
X004685Y005285D02*
X004685Y005615D01*
X004850Y005615D01*
X004905Y005560D01*
X004905Y005450D01*
X004850Y005395D01*
X005053Y005450D02*
X005163Y005450D01*
X009065Y005376D02*
X009103Y005337D01*
X010625Y005825D02*
X010625Y005880D01*
X010845Y006100D01*
X010845Y006155D01*
X010625Y006155D01*
X010285Y006186D02*
X010129Y006186D01*
X010129Y006342D01*
X011149Y006342D02*
X011149Y006186D01*
X011305Y006186D01*
X011445Y005950D02*
X011555Y006060D01*
X011665Y006115D01*
X011610Y005950D02*
X011445Y005950D01*
X011445Y005840D01*
X011500Y005785D01*
X011610Y005785D01*
X011665Y005840D01*
X011665Y005895D01*
X011610Y005950D01*
X012129Y006186D02*
X012129Y006342D01*
X012129Y006186D02*
X012285Y006186D01*
X012425Y006115D02*
X012425Y005950D01*
X012535Y006005D01*
X012590Y006005D01*
X012645Y005950D01*
X012645Y005840D01*
X012590Y005785D01*
X012480Y005785D01*
X012425Y005840D01*
X012425Y006115D02*
X012645Y006115D01*
X013149Y006186D02*
X013149Y006342D01*
X013149Y006186D02*
X013305Y006186D01*
X013425Y005950D02*
X013590Y006115D01*
X013590Y005785D01*
X013645Y005950D02*
X013425Y005950D01*
X014149Y006186D02*
X014149Y006342D01*
X014149Y006186D02*
X014305Y006186D01*
X014445Y006060D02*
X014500Y006115D01*
X014610Y006115D01*
X014665Y006060D01*
X014665Y006005D01*
X014610Y005950D01*
X014665Y005895D01*
X014665Y005840D01*
X014610Y005785D01*
X014500Y005785D01*
X014445Y005840D01*
X014555Y005950D02*
X014610Y005950D01*
X015445Y006060D02*
X015500Y006115D01*
X015610Y006115D01*
X015665Y006060D01*
X015665Y006005D01*
X015445Y005785D01*
X015665Y005785D01*
X016445Y005785D02*
X016665Y005785D01*
X016555Y005785D02*
X016555Y006115D01*
X016445Y006005D01*
X017129Y006186D02*
X017129Y006342D01*
X017129Y006186D02*
X017285Y006186D01*
X017360Y006115D02*
X017470Y006115D01*
X017525Y006060D01*
X017305Y005840D01*
X017360Y005785D01*
X017470Y005785D01*
X017525Y005840D01*
X017525Y006060D01*
X017360Y006115D02*
X017305Y006060D01*
X017305Y005840D01*
X018105Y005880D02*
X018160Y005825D01*
X018270Y005825D01*
X018325Y005880D01*
X018325Y005935D01*
X018270Y005990D01*
X018215Y005990D01*
X018270Y005990D02*
X018325Y006045D01*
X018325Y006100D01*
X018270Y006155D01*
X018160Y006155D01*
X018105Y006100D01*
X018473Y006155D02*
X018473Y005935D01*
X018583Y005825D01*
X018694Y005935D01*
X018694Y006155D01*
X019125Y006100D02*
X019125Y005880D01*
X019180Y005825D01*
X019290Y005825D01*
X019345Y005880D01*
X019345Y005990D01*
X019235Y005990D01*
X019125Y006100D02*
X019180Y006155D01*
X019290Y006155D01*
X019345Y006100D01*
X019620Y004578D02*
X019675Y004578D01*
X019730Y004523D01*
X019785Y004578D01*
X019840Y004578D01*
X019895Y004523D01*
X019895Y004413D01*
X019840Y004358D01*
X019620Y004358D02*
X019565Y004413D01*
X019565Y004523D01*
X019620Y004578D01*
X019730Y004523D02*
X019730Y004468D01*
X019730Y004210D02*
X019730Y003990D01*
X019565Y004155D01*
X019895Y004155D01*
X019895Y003842D02*
X019895Y003622D01*
X019675Y003622D02*
X019565Y003732D01*
X019895Y003732D01*
X019730Y003474D02*
X019730Y003253D01*
X019565Y003418D01*
X019895Y003418D01*
X019840Y003105D02*
X019895Y003050D01*
X019895Y002940D01*
X019840Y002885D01*
X019730Y002885D02*
X019675Y002995D01*
X019675Y003050D01*
X019730Y003105D01*
X019840Y003105D01*
X019565Y003105D02*
X019565Y002885D01*
X019730Y002885D01*
X019559Y001955D02*
X019559Y001625D01*
X019339Y001955D01*
X019339Y001625D01*
X019203Y001625D02*
X019093Y001625D01*
X019148Y001625D02*
X019148Y001955D01*
X019093Y001955D02*
X019203Y001955D01*
X018945Y001955D02*
X018945Y001735D01*
X018835Y001625D01*
X018725Y001735D01*
X018725Y001955D01*
X017445Y001460D02*
X017390Y001515D01*
X017280Y001515D01*
X017225Y001460D01*
X017225Y001240D01*
X017280Y001185D01*
X017390Y001185D01*
X017445Y001240D01*
X017445Y001350D01*
X017335Y001350D01*
X016834Y001405D02*
X016834Y001460D01*
X016778Y001515D01*
X016668Y001515D01*
X016613Y001460D01*
X016465Y001460D02*
X016465Y001405D01*
X016410Y001350D01*
X016465Y001295D01*
X016465Y001240D01*
X016410Y001185D01*
X016300Y001185D01*
X016245Y001240D01*
X016355Y001350D02*
X016410Y001350D01*
X016465Y001460D02*
X016410Y001515D01*
X016300Y001515D01*
X016245Y001460D01*
X015723Y001515D02*
X015723Y001185D01*
X015613Y001185D02*
X015834Y001185D01*
X015465Y001240D02*
X015410Y001185D01*
X015300Y001185D01*
X015245Y001240D01*
X015410Y001350D02*
X015465Y001295D01*
X015465Y001240D01*
X015410Y001350D02*
X015355Y001350D01*
X015410Y001350D02*
X015465Y001405D01*
X015465Y001460D01*
X015410Y001515D01*
X015300Y001515D01*
X015245Y001460D01*
X015162Y001665D02*
X015162Y001995D01*
X015327Y001995D01*
X015382Y001940D01*
X015382Y001830D01*
X015327Y001775D01*
X015162Y001775D01*
X015272Y001775D02*
X015382Y001665D01*
X015613Y001405D02*
X015723Y001515D01*
X015014Y001665D02*
X014903Y001775D01*
X014793Y001665D01*
X014793Y001995D01*
X014645Y001940D02*
X014645Y001830D01*
X014590Y001775D01*
X014425Y001775D01*
X014425Y001665D02*
X014425Y001995D01*
X014590Y001995D01*
X014645Y001940D01*
X015014Y001995D02*
X015014Y001665D01*
X014834Y001460D02*
X014613Y001240D01*
X014668Y001185D01*
X014778Y001185D01*
X014834Y001240D01*
X014834Y001460D01*
X014778Y001515D01*
X014668Y001515D01*
X014613Y001460D01*
X014613Y001240D01*
X014465Y001240D02*
X014410Y001185D01*
X014300Y001185D01*
X014245Y001240D01*
X014410Y001350D02*
X014465Y001295D01*
X014465Y001240D01*
X014410Y001350D02*
X014355Y001350D01*
X014410Y001350D02*
X014465Y001405D01*
X014465Y001460D01*
X014410Y001515D01*
X014300Y001515D01*
X014245Y001460D01*
X013834Y001460D02*
X013778Y001515D01*
X013668Y001515D01*
X013613Y001460D01*
X013613Y001405D01*
X013668Y001350D01*
X013834Y001350D01*
X013834Y001240D02*
X013778Y001185D01*
X013668Y001185D01*
X013613Y001240D01*
X013465Y001185D02*
X013245Y001185D01*
X013465Y001405D01*
X013465Y001460D01*
X013410Y001515D01*
X013300Y001515D01*
X013245Y001460D01*
X012834Y001460D02*
X012834Y001405D01*
X012778Y001350D01*
X012668Y001350D01*
X012613Y001405D01*
X012613Y001460D01*
X012668Y001515D01*
X012778Y001515D01*
X012834Y001460D01*
X012778Y001350D02*
X012834Y001295D01*
X012834Y001240D01*
X012778Y001185D01*
X012668Y001185D01*
X012613Y001240D01*
X012613Y001295D01*
X012668Y001350D01*
X012465Y001405D02*
X012465Y001460D01*
X012410Y001515D01*
X012300Y001515D01*
X012245Y001460D01*
X012465Y001405D02*
X012245Y001185D01*
X012465Y001185D01*
X011854Y001460D02*
X011633Y001240D01*
X011633Y001185D01*
X011485Y001185D02*
X011265Y001185D01*
X011485Y001405D01*
X011485Y001460D01*
X011430Y001515D01*
X011320Y001515D01*
X011265Y001460D01*
X011633Y001515D02*
X011854Y001515D01*
X011854Y001460D01*
X011836Y001897D02*
X011758Y002131D01*
X011863Y002236D02*
X011863Y002391D01*
X012097Y002158D01*
X012174Y002236D02*
X012019Y002080D01*
X011836Y001897D02*
X011603Y001975D01*
X012240Y002379D02*
X012279Y002418D01*
X012318Y002379D01*
X012279Y002340D01*
X012240Y002379D01*
X012293Y002587D02*
X012448Y002743D01*
X012293Y002821D02*
X012293Y002587D01*
X012526Y002587D02*
X012293Y002821D01*
X013834Y001460D02*
X013834Y001240D01*
X016613Y001185D02*
X016834Y001405D01*
X016834Y001185D02*
X016613Y001185D01*
X018165Y001140D02*
X018220Y001085D01*
X018330Y001085D01*
X018385Y001140D01*
X018385Y001195D01*
X018330Y001250D01*
X018275Y001250D01*
X018330Y001250D02*
X018385Y001305D01*
X018385Y001360D01*
X018330Y001415D01*
X018220Y001415D01*
X018165Y001360D01*
X018533Y001415D02*
X018533Y001195D01*
X018643Y001085D01*
X018754Y001195D01*
X018754Y001415D01*
X019185Y001400D02*
X019185Y001180D01*
X019240Y001125D01*
X019350Y001125D01*
X019405Y001180D01*
X019405Y001290D01*
X019295Y001290D01*
X019185Y001400D02*
X019240Y001455D01*
X019350Y001455D01*
X019405Y001400D01*
X012753Y004509D02*
X012598Y004353D01*
X012559Y004392D02*
X012637Y004314D01*
X012753Y004509D02*
X012715Y004548D01*
X012831Y004587D02*
X012870Y004626D01*
X012571Y004614D02*
X012571Y004691D01*
X012454Y004808D01*
X012298Y004653D01*
X012454Y004497D02*
X012571Y004614D01*
X012203Y004748D02*
X012125Y004826D01*
X012164Y004787D02*
X012319Y004943D01*
X012280Y004982D01*
X012397Y005021D02*
X012436Y005060D01*
X012254Y005164D02*
X012020Y004931D01*
X011864Y005087D02*
X012098Y005320D01*
X012098Y005164D01*
X012254Y005164D01*
X014285Y005065D02*
X014505Y005065D01*
X014395Y005065D02*
X014395Y005395D01*
X014285Y005285D01*
X008295Y002567D02*
X008240Y002622D01*
X008130Y002622D01*
X008130Y002512D01*
X008020Y002622D02*
X007965Y002567D01*
X007965Y002457D01*
X008020Y002402D01*
X008240Y002402D01*
X008295Y002457D01*
X008295Y002567D01*
X008295Y002254D02*
X008185Y002143D01*
X008185Y002198D02*
X008185Y002033D01*
X008295Y002033D02*
X007965Y002033D01*
X007965Y002198D01*
X008020Y002254D01*
X008130Y002254D01*
X008185Y002198D01*
X008130Y001885D02*
X008020Y001885D01*
X007965Y001830D01*
X007965Y001665D01*
X008295Y001665D01*
X008185Y001665D02*
X008185Y001830D01*
X008130Y001885D01*
X008320Y001475D02*
X008265Y001420D01*
X008320Y001475D02*
X008430Y001475D01*
X008485Y001420D01*
X008485Y001365D01*
X008265Y001145D01*
X008485Y001145D01*
X008798Y001145D02*
X008798Y001475D01*
X008633Y001310D01*
X008854Y001310D01*
X009265Y001420D02*
X009320Y001475D01*
X009430Y001475D01*
X009485Y001420D01*
X009485Y001365D01*
X009265Y001145D01*
X009485Y001145D01*
X009633Y001200D02*
X009688Y001145D01*
X009798Y001145D01*
X009854Y001200D01*
X009854Y001310D01*
X009798Y001365D01*
X009743Y001365D01*
X009633Y001310D01*
X009633Y001475D01*
X009854Y001475D01*
X010085Y001380D02*
X010140Y001435D01*
X010250Y001435D01*
X010305Y001380D01*
X010305Y001325D01*
X010085Y001105D01*
X010305Y001105D01*
X010453Y001160D02*
X010508Y001105D01*
X010618Y001105D01*
X010674Y001160D01*
X010674Y001215D01*
X010618Y001270D01*
X010453Y001270D01*
X010453Y001160D01*
X010453Y001270D02*
X010563Y001380D01*
X010674Y001435D01*
X004302Y001111D02*
X004146Y001111D01*
X004146Y000955D01*
X003275Y001222D02*
X003220Y001166D01*
X003000Y001166D01*
X002945Y001222D01*
X002945Y001332D01*
X003000Y001387D01*
X003110Y001332D02*
X003110Y001166D01*
X003275Y001222D02*
X003275Y001332D01*
X003220Y001387D01*
X003165Y001387D01*
X003110Y001332D01*
X002635Y001332D02*
X002635Y001222D01*
X002580Y001166D01*
X002525Y001166D01*
X002470Y001222D01*
X002470Y001332D01*
X002525Y001387D01*
X002580Y001387D01*
X002635Y001332D01*
X002470Y001332D02*
X002415Y001387D01*
X002360Y001387D01*
X002305Y001332D01*
X002305Y001222D01*
X002360Y001166D01*
X002415Y001166D01*
X002470Y001222D01*
X002305Y001535D02*
X002305Y001755D01*
X002525Y001755D02*
X002635Y001645D01*
X002305Y001645D01*
X002945Y001645D02*
X003275Y001645D01*
X003165Y001755D01*
X002945Y001755D02*
X002945Y001535D01*
D13*
X013454Y002372D02*
X013454Y002608D01*
X013926Y002608D02*
X013926Y002372D01*
X014354Y003012D02*
X014354Y003248D01*
X014826Y003248D02*
X014826Y003012D01*
X018640Y005450D02*
X018730Y005360D01*
X018820Y005450D01*
X018820Y005630D01*
X018640Y005630D02*
X018640Y005450D01*
X018944Y005405D02*
X018989Y005360D01*
X019079Y005360D01*
X019124Y005405D01*
X019124Y005495D01*
X019079Y005540D01*
X018989Y005540D01*
X018944Y005495D01*
X018944Y005405D01*
X019248Y005405D02*
X019248Y005540D01*
X019248Y005405D02*
X019293Y005360D01*
X019428Y005360D01*
X019428Y005540D01*
X019552Y005540D02*
X019642Y005540D01*
X019597Y005585D02*
X019597Y005405D01*
X019642Y005360D01*
D14*
X019370Y005650D02*
X019750Y006030D01*
X020070Y006030D01*
X020250Y006210D01*
X020250Y006090D01*
X020250Y006210D02*
X020130Y006210D01*
X017448Y005409D02*
X017448Y005310D01*
X017342Y005289D01*
X017307Y005197D01*
X017363Y005112D01*
X017300Y005048D01*
X017215Y005105D01*
X017123Y005069D01*
X017102Y004963D01*
X017010Y004970D01*
X016995Y005069D01*
X016953Y005084D01*
X017024Y005239D01*
X016939Y005324D02*
X016783Y005253D01*
X016769Y005296D01*
X016670Y005310D01*
X016663Y005402D01*
X016769Y005423D01*
X016805Y005515D01*
X016748Y005600D01*
X016812Y005663D01*
X016904Y005600D01*
X016988Y005642D01*
X017010Y005748D01*
X017109Y005748D01*
X017123Y005635D01*
X017208Y005607D01*
X017307Y005663D01*
X017370Y005600D01*
X017307Y005508D01*
X017335Y005423D01*
X017448Y005409D01*
X017024Y005239D02*
X017045Y005236D01*
X017066Y005235D01*
X017087Y005239D01*
X017107Y005246D01*
X017125Y005257D01*
X017141Y005270D01*
X017155Y005286D01*
X017166Y005305D01*
X017173Y005324D01*
X017177Y005345D01*
X017177Y005366D01*
X017173Y005387D01*
X017166Y005407D01*
X017155Y005425D01*
X017142Y005442D01*
X017125Y005455D01*
X017107Y005466D01*
X017087Y005473D01*
X017066Y005477D01*
X017045Y005477D01*
X017024Y005473D01*
X017005Y005466D01*
X016986Y005455D01*
X016970Y005441D01*
X016957Y005425D01*
X016946Y005407D01*
X016939Y005387D01*
X016935Y005366D01*
X016936Y005345D01*
X016939Y005324D01*
X014111Y005123D02*
X013930Y005123D01*
X013838Y005245D01*
X013749Y005123D02*
X013930Y005123D01*
X013940Y005129D02*
X014016Y005245D01*
X010661Y005766D02*
X010550Y005877D01*
X010439Y005766D01*
X008434Y003761D02*
X008323Y003650D01*
X008434Y003539D01*
X007336Y003130D02*
X006124Y003130D01*
X005730Y002618D02*
X005730Y001642D01*
X006124Y001130D02*
X007336Y001130D01*
X007730Y001630D02*
X007730Y002618D01*
X006230Y002130D02*
X006232Y002174D01*
X006238Y002218D01*
X006248Y002261D01*
X006261Y002303D01*
X006278Y002344D01*
X006299Y002383D01*
X006323Y002420D01*
X006350Y002455D01*
X006380Y002487D01*
X006413Y002517D01*
X006449Y002543D01*
X006486Y002567D01*
X006526Y002586D01*
X006567Y002603D01*
X006610Y002615D01*
X006653Y002624D01*
X006697Y002629D01*
X006741Y002630D01*
X006785Y002627D01*
X006829Y002620D01*
X006872Y002609D01*
X006914Y002595D01*
X006954Y002577D01*
X006993Y002555D01*
X007029Y002531D01*
X007063Y002503D01*
X007095Y002472D01*
X007124Y002438D01*
X007150Y002402D01*
X007172Y002364D01*
X007191Y002324D01*
X007206Y002282D01*
X007218Y002240D01*
X007226Y002196D01*
X007230Y002152D01*
X007230Y002108D01*
X007226Y002064D01*
X007218Y002020D01*
X007206Y001978D01*
X007191Y001936D01*
X007172Y001896D01*
X007150Y001858D01*
X007124Y001822D01*
X007095Y001788D01*
X007063Y001757D01*
X007029Y001729D01*
X006993Y001705D01*
X006954Y001683D01*
X006914Y001665D01*
X006872Y001651D01*
X006829Y001640D01*
X006785Y001633D01*
X006741Y001630D01*
X006697Y001631D01*
X006653Y001636D01*
X006610Y001645D01*
X006567Y001657D01*
X006526Y001674D01*
X006486Y001693D01*
X006449Y001717D01*
X006413Y001743D01*
X006380Y001773D01*
X006350Y001805D01*
X006323Y001840D01*
X006299Y001877D01*
X006278Y001916D01*
X006261Y001957D01*
X006248Y001999D01*
X006238Y002042D01*
X006232Y002086D01*
X006230Y002130D01*
X003230Y002130D02*
X002780Y002130D01*
X002780Y002380D01*
X002680Y002380D01*
X002680Y002180D01*
X002780Y002130D02*
X002230Y002130D01*
X002230Y002580D01*
X002480Y002830D01*
X002730Y002580D01*
X003230Y002580D01*
X003230Y002130D01*
X003230Y002580D02*
X003230Y003030D01*
X003180Y003030D01*
X003180Y002880D01*
X002230Y002880D01*
X002230Y002580D01*
X002944Y004150D02*
X004156Y004150D01*
X004550Y004662D02*
X004550Y005638D01*
X004156Y006150D02*
X002944Y006150D01*
X002550Y005650D02*
X002550Y004662D01*
X003050Y005150D02*
X003052Y005194D01*
X003058Y005238D01*
X003068Y005281D01*
X003081Y005323D01*
X003098Y005364D01*
X003119Y005403D01*
X003143Y005440D01*
X003170Y005475D01*
X003200Y005507D01*
X003233Y005537D01*
X003269Y005563D01*
X003306Y005587D01*
X003346Y005606D01*
X003387Y005623D01*
X003430Y005635D01*
X003473Y005644D01*
X003517Y005649D01*
X003561Y005650D01*
X003605Y005647D01*
X003649Y005640D01*
X003692Y005629D01*
X003734Y005615D01*
X003774Y005597D01*
X003813Y005575D01*
X003849Y005551D01*
X003883Y005523D01*
X003915Y005492D01*
X003944Y005458D01*
X003970Y005422D01*
X003992Y005384D01*
X004011Y005344D01*
X004026Y005302D01*
X004038Y005260D01*
X004046Y005216D01*
X004050Y005172D01*
X004050Y005128D01*
X004046Y005084D01*
X004038Y005040D01*
X004026Y004998D01*
X004011Y004956D01*
X003992Y004916D01*
X003970Y004878D01*
X003944Y004842D01*
X003915Y004808D01*
X003883Y004777D01*
X003849Y004749D01*
X003813Y004725D01*
X003774Y004703D01*
X003734Y004685D01*
X003692Y004671D01*
X003649Y004660D01*
X003605Y004653D01*
X003561Y004650D01*
X003517Y004651D01*
X003473Y004656D01*
X003430Y004665D01*
X003387Y004677D01*
X003346Y004694D01*
X003306Y004713D01*
X003269Y004737D01*
X003233Y004763D01*
X003200Y004793D01*
X003170Y004825D01*
X003143Y004860D01*
X003119Y004897D01*
X003098Y004936D01*
X003081Y004977D01*
X003068Y005019D01*
X003058Y005062D01*
X003052Y005106D01*
X003050Y005150D01*
X012666Y003761D02*
X012777Y003650D01*
X012666Y003539D01*
X014823Y002471D02*
X014823Y002290D01*
X014945Y002382D01*
X014823Y002290D02*
X014823Y002109D01*
X014945Y002204D02*
X014829Y002280D01*
X016216Y002306D02*
X016373Y002306D01*
X016373Y001794D01*
X016924Y001794D01*
X016373Y001794D02*
X016216Y001794D01*
X016373Y002306D02*
X016924Y002306D01*
X016794Y002996D02*
X016794Y003547D01*
X017306Y003547D01*
X017306Y002996D01*
X017306Y003547D02*
X017306Y003704D01*
X016794Y003704D02*
X016794Y003547D01*
X019490Y001530D02*
X019690Y001330D01*
X019890Y001330D01*
X020190Y001030D01*
X020050Y001030D01*
X020190Y001030D02*
X020190Y001170D01*
X010689Y001562D02*
X010411Y001562D01*
D15*
X008659Y001978D02*
X008635Y001978D01*
X012810Y002058D02*
X012810Y002082D01*
X016518Y003150D02*
X016542Y003150D01*
X006950Y003578D02*
X006950Y003602D01*
X005610Y003602D02*
X005610Y003578D01*
X003970Y002942D02*
X003970Y002918D01*
X003970Y001562D02*
X003970Y001538D01*
X006990Y005438D02*
X006990Y005462D01*
D16*
X013410Y004530D03*
X015170Y003150D03*
X015710Y003150D03*
D17*
X004150Y003650D03*
X002870Y003650D03*
D18*
X010750Y001284D02*
X010752Y001301D01*
X010758Y001318D01*
X010767Y001333D01*
X010779Y001345D01*
X010794Y001354D01*
X010811Y001360D01*
X010828Y001362D01*
X010845Y001360D01*
X010862Y001354D01*
X010877Y001345D01*
X010889Y001333D01*
X010898Y001318D01*
X010904Y001301D01*
X010906Y001284D01*
X010904Y001267D01*
X010898Y001250D01*
X010889Y001235D01*
X010877Y001223D01*
X010862Y001214D01*
X010845Y001208D01*
X010828Y001206D01*
X010811Y001208D01*
X010794Y001214D01*
X010779Y001223D01*
X010767Y001235D01*
X010758Y001250D01*
X010752Y001267D01*
X010750Y001284D01*
X017751Y002351D02*
X017751Y002823D01*
X018696Y002154D02*
X019641Y002154D01*
X016290Y003890D02*
X015320Y003890D01*
X017751Y004477D02*
X017751Y004870D01*
X018656Y005146D02*
X019641Y005146D01*
X016290Y005650D02*
X015320Y005650D01*
M02*
