G75*
%MOIN*%
%OFA0B0*%
%FSLAX25Y25*%
%IPPOS*%
%LPD*%
%AMOC8*
5,1,8,0,0,1.08239X$1,22.5*
%
%ADD10C,0.00000*%
%ADD11R,0.04337X0.04731*%
%ADD12R,0.04731X0.04337*%
%ADD13R,0.03550X0.03550*%
%ADD14R,0.03550X0.05124*%
%ADD15C,0.07000*%
%ADD16C,0.07800*%
%ADD17R,0.03550X0.01778*%
%ADD18R,0.05124X0.03550*%
%ADD19R,0.02880X0.03668*%
%ADD20R,0.05200X0.09200*%
%ADD21R,0.14573X0.09061*%
%ADD22R,0.05715X0.01975*%
%ADD23R,0.06502X0.06306*%
%ADD24C,0.07191*%
%ADD25C,0.05746*%
%ADD26R,0.04534X0.02959*%
%ADD27R,0.11030X0.06306*%
D10*
X0027595Y0218000D02*
X0027595Y0288000D01*
X0227595Y0288000D01*
X0227595Y0218000D01*
X0027595Y0218000D01*
D11*
X0148595Y0236454D03*
X0148595Y0243146D03*
X0153895Y0249454D03*
X0160995Y0249554D03*
X0160995Y0256246D03*
X0153895Y0256146D03*
X0167295Y0261154D03*
X0167295Y0267846D03*
X0162595Y0243046D03*
X0162595Y0236354D03*
X0199495Y0235754D03*
X0199495Y0242446D03*
D12*
X0105658Y0234666D03*
X0098965Y0234666D03*
X0080242Y0255500D03*
X0073549Y0255500D03*
X0073649Y0263100D03*
X0080342Y0263100D03*
X0094149Y0271300D03*
X0100842Y0271300D03*
X0061942Y0253000D03*
X0055249Y0253000D03*
X0049142Y0253000D03*
X0042449Y0253000D03*
X0053449Y0245800D03*
X0060142Y0245800D03*
X0060142Y0234700D03*
X0053449Y0234700D03*
D13*
X0160995Y0261547D03*
X0160995Y0267453D03*
X0167295Y0255353D03*
X0167295Y0249447D03*
D14*
X0167452Y0234500D03*
X0174538Y0234500D03*
D15*
X0066995Y0233800D03*
X0066995Y0243800D03*
D16*
X0032595Y0243000D03*
X0032595Y0233000D03*
X0032595Y0223000D03*
X0042595Y0223000D03*
X0052595Y0223000D03*
X0062595Y0223000D03*
X0072595Y0223000D03*
X0082595Y0223000D03*
X0092595Y0223000D03*
X0102595Y0223000D03*
X0112595Y0223000D03*
X0122595Y0223000D03*
X0132595Y0223000D03*
X0142595Y0223000D03*
X0152595Y0223000D03*
X0162595Y0223000D03*
X0172595Y0223000D03*
X0182595Y0223000D03*
X0192595Y0223000D03*
X0202595Y0223000D03*
X0212595Y0223000D03*
X0222595Y0223000D03*
X0222595Y0283000D03*
X0212595Y0283000D03*
X0202595Y0283000D03*
X0192595Y0283000D03*
X0182595Y0283000D03*
X0172595Y0283000D03*
X0162595Y0283000D03*
X0152595Y0283000D03*
X0142595Y0283000D03*
X0132595Y0283000D03*
X0122595Y0283000D03*
X0112595Y0283000D03*
X0102595Y0283000D03*
X0092595Y0283000D03*
X0082595Y0283000D03*
X0072595Y0283000D03*
X0062595Y0283000D03*
X0052595Y0283000D03*
X0042595Y0283000D03*
X0032595Y0283000D03*
X0032595Y0273000D03*
X0032595Y0263000D03*
X0032595Y0253000D03*
D17*
G36*
X0103038Y0253205D02*
X0100529Y0255714D01*
X0101786Y0256971D01*
X0104295Y0254462D01*
X0103038Y0253205D01*
G37*
G36*
X0100529Y0250286D02*
X0103038Y0252795D01*
X0104295Y0251538D01*
X0101786Y0249029D01*
X0100529Y0250286D01*
G37*
G36*
X0102338Y0248477D02*
X0104847Y0250986D01*
X0106104Y0249729D01*
X0103595Y0247220D01*
X0102338Y0248477D01*
G37*
G36*
X0104148Y0246667D02*
X0106657Y0249176D01*
X0107914Y0247919D01*
X0105405Y0245410D01*
X0104148Y0246667D01*
G37*
G36*
X0105958Y0244858D02*
X0108467Y0247367D01*
X0109724Y0246110D01*
X0107215Y0243601D01*
X0105958Y0244858D01*
G37*
G36*
X0107767Y0243048D02*
X0110276Y0245557D01*
X0111533Y0244300D01*
X0109024Y0241791D01*
X0107767Y0243048D01*
G37*
G36*
X0109577Y0241238D02*
X0112086Y0243747D01*
X0113343Y0242490D01*
X0110834Y0239981D01*
X0109577Y0241238D01*
G37*
G36*
X0115152Y0240681D02*
X0112643Y0238172D01*
X0111386Y0239429D01*
X0113895Y0241938D01*
X0115152Y0240681D01*
G37*
G36*
X0116962Y0238871D02*
X0114453Y0236362D01*
X0113196Y0237619D01*
X0115705Y0240128D01*
X0116962Y0238871D01*
G37*
G36*
X0118771Y0237062D02*
X0116262Y0234553D01*
X0115005Y0235810D01*
X0117514Y0238319D01*
X0118771Y0237062D01*
G37*
G36*
X0120581Y0235252D02*
X0118072Y0232743D01*
X0116815Y0234000D01*
X0119324Y0236509D01*
X0120581Y0235252D01*
G37*
G36*
X0122390Y0233443D02*
X0119881Y0230934D01*
X0118624Y0232191D01*
X0121133Y0234700D01*
X0122390Y0233443D01*
G37*
G36*
X0125309Y0230934D02*
X0122800Y0233443D01*
X0124057Y0234700D01*
X0126566Y0232191D01*
X0125309Y0230934D01*
G37*
G36*
X0127119Y0232743D02*
X0124610Y0235252D01*
X0125867Y0236509D01*
X0128376Y0234000D01*
X0127119Y0232743D01*
G37*
G36*
X0128928Y0234553D02*
X0126419Y0237062D01*
X0127676Y0238319D01*
X0130185Y0235810D01*
X0128928Y0234553D01*
G37*
G36*
X0130738Y0236362D02*
X0128229Y0238871D01*
X0129486Y0240128D01*
X0131995Y0237619D01*
X0130738Y0236362D01*
G37*
G36*
X0132547Y0238172D02*
X0130038Y0240681D01*
X0131295Y0241938D01*
X0133804Y0239429D01*
X0132547Y0238172D01*
G37*
G36*
X0134357Y0239981D02*
X0131848Y0242490D01*
X0133105Y0243747D01*
X0135614Y0241238D01*
X0134357Y0239981D01*
G37*
G36*
X0134914Y0245557D02*
X0137423Y0243048D01*
X0136166Y0241791D01*
X0133657Y0244300D01*
X0134914Y0245557D01*
G37*
G36*
X0136724Y0247367D02*
X0139233Y0244858D01*
X0137976Y0243601D01*
X0135467Y0246110D01*
X0136724Y0247367D01*
G37*
G36*
X0138533Y0249176D02*
X0141042Y0246667D01*
X0139785Y0245410D01*
X0137276Y0247919D01*
X0138533Y0249176D01*
G37*
G36*
X0140343Y0250986D02*
X0142852Y0248477D01*
X0141595Y0247220D01*
X0139086Y0249729D01*
X0140343Y0250986D01*
G37*
G36*
X0142152Y0252795D02*
X0144661Y0250286D01*
X0143404Y0249029D01*
X0140895Y0251538D01*
X0142152Y0252795D01*
G37*
G36*
X0144661Y0255714D02*
X0142152Y0253205D01*
X0140895Y0254462D01*
X0143404Y0256971D01*
X0144661Y0255714D01*
G37*
G36*
X0142852Y0257523D02*
X0140343Y0255014D01*
X0139086Y0256271D01*
X0141595Y0258780D01*
X0142852Y0257523D01*
G37*
G36*
X0141042Y0259333D02*
X0138533Y0256824D01*
X0137276Y0258081D01*
X0139785Y0260590D01*
X0141042Y0259333D01*
G37*
G36*
X0139233Y0261142D02*
X0136724Y0258633D01*
X0135467Y0259890D01*
X0137976Y0262399D01*
X0139233Y0261142D01*
G37*
G36*
X0137423Y0262952D02*
X0134914Y0260443D01*
X0133657Y0261700D01*
X0136166Y0264209D01*
X0137423Y0262952D01*
G37*
G36*
X0135614Y0264762D02*
X0133105Y0262253D01*
X0131848Y0263510D01*
X0134357Y0266019D01*
X0135614Y0264762D01*
G37*
G36*
X0130038Y0265319D02*
X0132547Y0267828D01*
X0133804Y0266571D01*
X0131295Y0264062D01*
X0130038Y0265319D01*
G37*
G36*
X0128229Y0267129D02*
X0130738Y0269638D01*
X0131995Y0268381D01*
X0129486Y0265872D01*
X0128229Y0267129D01*
G37*
G36*
X0126419Y0268938D02*
X0128928Y0271447D01*
X0130185Y0270190D01*
X0127676Y0267681D01*
X0126419Y0268938D01*
G37*
G36*
X0124610Y0270748D02*
X0127119Y0273257D01*
X0128376Y0272000D01*
X0125867Y0269491D01*
X0124610Y0270748D01*
G37*
G36*
X0122800Y0272557D02*
X0125309Y0275066D01*
X0126566Y0273809D01*
X0124057Y0271300D01*
X0122800Y0272557D01*
G37*
G36*
X0119881Y0275066D02*
X0122390Y0272557D01*
X0121133Y0271300D01*
X0118624Y0273809D01*
X0119881Y0275066D01*
G37*
G36*
X0118072Y0273257D02*
X0120581Y0270748D01*
X0119324Y0269491D01*
X0116815Y0272000D01*
X0118072Y0273257D01*
G37*
G36*
X0116262Y0271447D02*
X0118771Y0268938D01*
X0117514Y0267681D01*
X0115005Y0270190D01*
X0116262Y0271447D01*
G37*
G36*
X0114453Y0269638D02*
X0116962Y0267129D01*
X0115705Y0265872D01*
X0113196Y0268381D01*
X0114453Y0269638D01*
G37*
G36*
X0112643Y0267828D02*
X0115152Y0265319D01*
X0113895Y0264062D01*
X0111386Y0266571D01*
X0112643Y0267828D01*
G37*
G36*
X0110834Y0266019D02*
X0113343Y0263510D01*
X0112086Y0262253D01*
X0109577Y0264762D01*
X0110834Y0266019D01*
G37*
G36*
X0110276Y0260443D02*
X0107767Y0262952D01*
X0109024Y0264209D01*
X0111533Y0261700D01*
X0110276Y0260443D01*
G37*
G36*
X0108467Y0258633D02*
X0105958Y0261142D01*
X0107215Y0262399D01*
X0109724Y0259890D01*
X0108467Y0258633D01*
G37*
G36*
X0106657Y0256824D02*
X0104148Y0259333D01*
X0105405Y0260590D01*
X0107914Y0258081D01*
X0106657Y0256824D01*
G37*
G36*
X0104847Y0255014D02*
X0102338Y0257523D01*
X0103595Y0258780D01*
X0106104Y0256271D01*
X0104847Y0255014D01*
G37*
D18*
X0154295Y0243543D03*
X0154295Y0236457D03*
D19*
X0204268Y0235000D03*
X0213323Y0235000D03*
X0211923Y0270600D03*
X0202868Y0270600D03*
D20*
X0193162Y0244146D03*
X0184062Y0244146D03*
X0174962Y0244146D03*
D21*
X0184062Y0268547D03*
D22*
X0208468Y0258107D03*
X0208468Y0255548D03*
X0208468Y0252989D03*
X0208468Y0250430D03*
X0208468Y0247871D03*
D23*
X0219098Y0249052D03*
X0219098Y0256926D03*
X0219098Y0264997D03*
X0219098Y0240981D03*
D24*
X0219098Y0239426D03*
X0219098Y0266552D03*
D25*
X0208468Y0262831D03*
X0208468Y0243146D03*
D26*
X0091464Y0242832D03*
X0091464Y0234368D03*
X0075126Y0234368D03*
X0075126Y0242832D03*
X0059364Y0260268D03*
X0059364Y0268732D03*
X0043026Y0268732D03*
X0043026Y0260268D03*
D27*
X0088995Y0262840D03*
X0088995Y0255360D03*
M02*
