%
M48
M72
T01C0.01181
T02C0.03200
T03C0.03346
T04C0.04000
T05C0.04528
%
T01
X49395Y272600
X42995Y268800
X49095Y260600
X57795Y260600
X66395Y275800
X96695Y264600
X99395Y261800
X103295Y268700
X105595Y273800
X116195Y265400
X119795Y267400
X128695Y262900
X134595Y260200
X137195Y256400
X143595Y249500
X140995Y247400
X128795Y246600
X116695Y247000
X120895Y253100
X111695Y255200
X109495Y257400
X107195Y255300
X114295Y257300
X99995Y252200
X96695Y252400
X112595Y238500
X153895Y264400
X149195Y275500
X146195Y275500
X143195Y275600
X133686Y275600
X178895Y261900
X183895Y261900
X188895Y261900
X203354Y255722
X203395Y252700
X199695Y253200
X184795Y241000
X170195Y243398
X166995Y239400
X167595Y231800
X207795Y235500
T02
X66995Y237600
X66995Y247600
T03
X208468Y246946
X208468Y266631
T04
X32595Y286800
X42595Y286800
X52595Y286800
X62595Y286800
X72595Y286800
X82595Y286800
X92595Y286800
X102595Y286800
X112595Y286800
X122595Y286800
X132595Y286800
X142595Y286800
X152595Y286800
X162595Y286800
X172595Y286800
X182595Y286800
X192595Y286800
X202595Y286800
X212595Y286800
X222595Y286800
X222595Y226800
X212595Y226800
X202595Y226800
X192595Y226800
X182595Y226800
X172595Y226800
X162595Y226800
X152595Y226800
X142595Y226800
X132595Y226800
X122595Y226800
X112595Y226800
X102595Y226800
X92595Y226800
X82595Y226800
X72595Y226800
X62595Y226800
X52595Y226800
X42595Y226800
X32595Y226800
X32595Y236800
X32595Y246800
X32595Y256800
X32595Y266800
X32595Y276800
T05
X219098Y270352
X219098Y243226
M30
