G75*
%MOIN*%
%OFA0B0*%
%FSLAX25Y25*%
%IPPOS*%
%LPD*%
%AMOC8*
5,1,8,0,0,1.08239X$1,22.5*
%
%ADD10C,0.00000*%
%ADD11C,0.06600*%
%ADD12C,0.07400*%
%ADD13C,0.06791*%
%ADD14C,0.05346*%
%ADD15C,0.00600*%
%ADD16C,0.02381*%
%ADD17C,0.01200*%
D10*
X0027595Y0221800D02*
X0027595Y0291800D01*
X0227595Y0291800D01*
X0227595Y0221800D01*
X0027595Y0221800D01*
D11*
X0066995Y0237600D03*
X0066995Y0247600D03*
D12*
X0032595Y0246800D03*
X0032595Y0236800D03*
X0032595Y0226800D03*
X0042595Y0226800D03*
X0052595Y0226800D03*
X0062595Y0226800D03*
X0072595Y0226800D03*
X0082595Y0226800D03*
X0092595Y0226800D03*
X0102595Y0226800D03*
X0112595Y0226800D03*
X0122595Y0226800D03*
X0132595Y0226800D03*
X0142595Y0226800D03*
X0152595Y0226800D03*
X0162595Y0226800D03*
X0172595Y0226800D03*
X0182595Y0226800D03*
X0192595Y0226800D03*
X0202595Y0226800D03*
X0212595Y0226800D03*
X0222595Y0226800D03*
X0222595Y0286800D03*
X0212595Y0286800D03*
X0202595Y0286800D03*
X0192595Y0286800D03*
X0182595Y0286800D03*
X0172595Y0286800D03*
X0162595Y0286800D03*
X0152595Y0286800D03*
X0142595Y0286800D03*
X0132595Y0286800D03*
X0122595Y0286800D03*
X0112595Y0286800D03*
X0102595Y0286800D03*
X0092595Y0286800D03*
X0082595Y0286800D03*
X0072595Y0286800D03*
X0062595Y0286800D03*
X0052595Y0286800D03*
X0042595Y0286800D03*
X0032595Y0286800D03*
X0032595Y0276800D03*
X0032595Y0266800D03*
X0032595Y0256800D03*
D13*
X0219098Y0270352D03*
X0219098Y0243226D03*
D14*
X0208468Y0246946D03*
X0208468Y0266631D03*
D15*
X0208768Y0266688D02*
X0216151Y0266688D01*
X0216038Y0266770D02*
X0216636Y0266336D01*
X0217295Y0266000D01*
X0217998Y0265772D01*
X0218728Y0265656D01*
X0218798Y0265656D01*
X0218798Y0270052D01*
X0219397Y0270052D01*
X0219397Y0265656D01*
X0219467Y0265656D01*
X0220197Y0265772D01*
X0220900Y0266000D01*
X0221559Y0266336D01*
X0222157Y0266770D01*
X0222679Y0267293D01*
X0223114Y0267891D01*
X0223449Y0268549D01*
X0223595Y0268999D01*
X0223595Y0244579D01*
X0223449Y0245028D01*
X0223114Y0245687D01*
X0222679Y0246285D01*
X0222157Y0246808D01*
X0221559Y0247242D01*
X0220900Y0247578D01*
X0220197Y0247806D01*
X0219467Y0247922D01*
X0219397Y0247922D01*
X0219397Y0243526D01*
X0218798Y0243526D01*
X0218798Y0247922D01*
X0218728Y0247922D01*
X0217998Y0247806D01*
X0217295Y0247578D01*
X0216636Y0247242D01*
X0216038Y0246808D01*
X0215516Y0246285D01*
X0215081Y0245687D01*
X0214746Y0245028D01*
X0214517Y0244326D01*
X0214402Y0243596D01*
X0214402Y0243526D01*
X0218797Y0243526D01*
X0218797Y0242926D01*
X0214402Y0242926D01*
X0214402Y0242856D01*
X0214517Y0242126D01*
X0214746Y0241423D01*
X0215081Y0240765D01*
X0215516Y0240167D01*
X0216038Y0239644D01*
X0216636Y0239210D01*
X0217295Y0238874D01*
X0217998Y0238646D01*
X0218728Y0238530D01*
X0218798Y0238530D01*
X0218798Y0242926D01*
X0219397Y0242926D01*
X0219397Y0238530D01*
X0219467Y0238530D01*
X0220197Y0238646D01*
X0220900Y0238874D01*
X0221559Y0239210D01*
X0222157Y0239644D01*
X0222679Y0240167D01*
X0223114Y0240765D01*
X0223449Y0241423D01*
X0223595Y0241873D01*
X0223595Y0240621D01*
X0219974Y0237000D01*
X0209252Y0237000D01*
X0208661Y0237591D01*
X0206929Y0237591D01*
X0205705Y0236366D01*
X0205705Y0234634D01*
X0206929Y0233409D01*
X0208661Y0233409D01*
X0209252Y0234000D01*
X0221216Y0234000D01*
X0226295Y0239079D01*
X0226295Y0229605D01*
X0225201Y0230700D01*
X0223510Y0231400D01*
X0221680Y0231400D01*
X0219989Y0230700D01*
X0218695Y0229406D01*
X0217995Y0227715D01*
X0217995Y0225885D01*
X0218695Y0224194D01*
X0219790Y0223100D01*
X0215966Y0223100D01*
X0216409Y0223543D01*
X0216872Y0224179D01*
X0217229Y0224881D01*
X0217472Y0225629D01*
X0217595Y0226406D01*
X0217595Y0226500D01*
X0212895Y0226500D01*
X0212895Y0227100D01*
X0212295Y0227100D01*
X0212295Y0226500D01*
X0207595Y0226500D01*
X0207595Y0226406D01*
X0207718Y0225629D01*
X0207961Y0224881D01*
X0208319Y0224179D01*
X0208781Y0223543D01*
X0209224Y0223100D01*
X0205400Y0223100D01*
X0206495Y0224194D01*
X0207195Y0225885D01*
X0207195Y0227715D01*
X0206495Y0229406D01*
X0205201Y0230700D01*
X0204995Y0230785D01*
X0204995Y0244992D01*
X0205381Y0244414D01*
X0205935Y0243860D01*
X0206586Y0243425D01*
X0207309Y0243126D01*
X0208076Y0242973D01*
X0208168Y0242973D01*
X0208168Y0246646D01*
X0208768Y0246646D01*
X0208768Y0247246D01*
X0212441Y0247246D01*
X0212441Y0247338D01*
X0212288Y0248105D01*
X0211989Y0248828D01*
X0211554Y0249479D01*
X0211000Y0250033D01*
X0210350Y0250467D01*
X0209627Y0250767D01*
X0208859Y0250920D01*
X0208768Y0250920D01*
X0208768Y0247247D01*
X0208168Y0247247D01*
X0208168Y0250920D01*
X0208076Y0250920D01*
X0207309Y0250767D01*
X0206586Y0250467D01*
X0205935Y0250033D01*
X0205381Y0249479D01*
X0204995Y0248901D01*
X0204995Y0249546D01*
X0206686Y0251237D01*
X0206686Y0254206D01*
X0205445Y0255447D01*
X0205445Y0256588D01*
X0204995Y0257038D01*
X0204995Y0264677D01*
X0205381Y0264099D01*
X0205935Y0263545D01*
X0206586Y0263110D01*
X0207309Y0262811D01*
X0208076Y0262658D01*
X0208168Y0262658D01*
X0208168Y0266331D01*
X0208768Y0266331D01*
X0208768Y0266931D01*
X0212441Y0266931D01*
X0212441Y0267023D01*
X0212288Y0267790D01*
X0211989Y0268514D01*
X0211554Y0269164D01*
X0211000Y0269718D01*
X0210350Y0270153D01*
X0209627Y0270452D01*
X0208859Y0270605D01*
X0208768Y0270605D01*
X0208768Y0266932D01*
X0208168Y0266932D01*
X0208168Y0270605D01*
X0208076Y0270605D01*
X0207309Y0270452D01*
X0206586Y0270153D01*
X0205935Y0269718D01*
X0205381Y0269164D01*
X0204995Y0268586D01*
X0204995Y0282815D01*
X0205201Y0282900D01*
X0206495Y0284194D01*
X0207195Y0285885D01*
X0207195Y0287715D01*
X0206495Y0289406D01*
X0205400Y0290500D01*
X0209224Y0290500D01*
X0208781Y0290057D01*
X0208319Y0289421D01*
X0207961Y0288719D01*
X0207718Y0287971D01*
X0207595Y0287194D01*
X0207595Y0287100D01*
X0212295Y0287100D01*
X0212295Y0286500D01*
X0207595Y0286500D01*
X0207595Y0286406D01*
X0207718Y0285629D01*
X0207961Y0284881D01*
X0208319Y0284179D01*
X0208781Y0283543D01*
X0209338Y0282986D01*
X0209975Y0282524D01*
X0210676Y0282166D01*
X0211424Y0281923D01*
X0212202Y0281800D01*
X0212295Y0281800D01*
X0212295Y0286500D01*
X0212895Y0286500D01*
X0212895Y0281800D01*
X0212989Y0281800D01*
X0213766Y0281923D01*
X0214514Y0282166D01*
X0215216Y0282524D01*
X0215852Y0282986D01*
X0216409Y0283543D01*
X0216872Y0284179D01*
X0217229Y0284881D01*
X0217472Y0285629D01*
X0217595Y0286406D01*
X0217595Y0286500D01*
X0212895Y0286500D01*
X0212895Y0287100D01*
X0217595Y0287100D01*
X0217595Y0287194D01*
X0217472Y0287971D01*
X0217229Y0288719D01*
X0216872Y0289421D01*
X0216409Y0290057D01*
X0215966Y0290500D01*
X0219790Y0290500D01*
X0218695Y0289406D01*
X0217995Y0287715D01*
X0217995Y0285885D01*
X0218695Y0284194D01*
X0219989Y0282900D01*
X0221680Y0282200D01*
X0223510Y0282200D01*
X0223595Y0282235D01*
X0223595Y0271705D01*
X0223449Y0272154D01*
X0223114Y0272813D01*
X0222679Y0273411D01*
X0222157Y0273934D01*
X0221559Y0274368D01*
X0220900Y0274704D01*
X0220197Y0274932D01*
X0219467Y0275048D01*
X0219397Y0275048D01*
X0219397Y0270652D01*
X0218798Y0270652D01*
X0218798Y0275048D01*
X0218728Y0275048D01*
X0217998Y0274932D01*
X0217295Y0274704D01*
X0216636Y0274368D01*
X0216038Y0273934D01*
X0215516Y0273411D01*
X0215081Y0272813D01*
X0214746Y0272154D01*
X0214517Y0271452D01*
X0214402Y0270722D01*
X0214402Y0270652D01*
X0218797Y0270652D01*
X0218797Y0270052D01*
X0214402Y0270052D01*
X0214402Y0269982D01*
X0214517Y0269252D01*
X0214746Y0268549D01*
X0215081Y0267891D01*
X0215516Y0267293D01*
X0216038Y0266770D01*
X0215522Y0267287D02*
X0212388Y0267287D01*
X0212249Y0267885D02*
X0215085Y0267885D01*
X0214779Y0268484D02*
X0212001Y0268484D01*
X0211608Y0269082D02*
X0214573Y0269082D01*
X0214450Y0269681D02*
X0211037Y0269681D01*
X0210043Y0270279D02*
X0218797Y0270279D01*
X0218798Y0269681D02*
X0219397Y0269681D01*
X0219397Y0269082D02*
X0218798Y0269082D01*
X0218798Y0268484D02*
X0219397Y0268484D01*
X0219397Y0267885D02*
X0218798Y0267885D01*
X0218798Y0267287D02*
X0219397Y0267287D01*
X0219397Y0266688D02*
X0218798Y0266688D01*
X0218798Y0266090D02*
X0219397Y0266090D01*
X0221076Y0266090D02*
X0223595Y0266090D01*
X0223595Y0266688D02*
X0222044Y0266688D01*
X0222673Y0267287D02*
X0223595Y0267287D01*
X0223595Y0267885D02*
X0223110Y0267885D01*
X0223416Y0268484D02*
X0223595Y0268484D01*
X0223595Y0265491D02*
X0212292Y0265491D01*
X0212288Y0265473D02*
X0212441Y0266240D01*
X0212441Y0266331D01*
X0208768Y0266331D01*
X0208768Y0262658D01*
X0208859Y0262658D01*
X0209627Y0262811D01*
X0210350Y0263110D01*
X0211000Y0263545D01*
X0211554Y0264099D01*
X0211989Y0264749D01*
X0212288Y0265473D01*
X0212048Y0264893D02*
X0223595Y0264893D01*
X0223595Y0264294D02*
X0211684Y0264294D01*
X0211151Y0263696D02*
X0223595Y0263696D01*
X0223595Y0263097D02*
X0210318Y0263097D01*
X0208768Y0263097D02*
X0208168Y0263097D01*
X0208168Y0263696D02*
X0208768Y0263696D01*
X0208768Y0264294D02*
X0208168Y0264294D01*
X0208168Y0264893D02*
X0208768Y0264893D01*
X0208768Y0265491D02*
X0208168Y0265491D01*
X0208168Y0266090D02*
X0208768Y0266090D01*
X0208768Y0267287D02*
X0208168Y0267287D01*
X0208168Y0267885D02*
X0208768Y0267885D01*
X0208768Y0268484D02*
X0208168Y0268484D01*
X0208168Y0269082D02*
X0208768Y0269082D01*
X0208768Y0269681D02*
X0208168Y0269681D01*
X0208168Y0270279D02*
X0208768Y0270279D01*
X0206892Y0270279D02*
X0204995Y0270279D01*
X0204995Y0269681D02*
X0205898Y0269681D01*
X0205327Y0269082D02*
X0204995Y0269082D01*
X0204995Y0270878D02*
X0214427Y0270878D01*
X0214526Y0271476D02*
X0204995Y0271476D01*
X0204995Y0272075D02*
X0214720Y0272075D01*
X0215010Y0272673D02*
X0204995Y0272673D01*
X0204995Y0273272D02*
X0215415Y0273272D01*
X0215975Y0273870D02*
X0204995Y0273870D01*
X0204995Y0274469D02*
X0216835Y0274469D01*
X0218798Y0274469D02*
X0219397Y0274469D01*
X0219397Y0273870D02*
X0218798Y0273870D01*
X0218798Y0273272D02*
X0219397Y0273272D01*
X0219397Y0272673D02*
X0218798Y0272673D01*
X0218798Y0272075D02*
X0219397Y0272075D01*
X0219397Y0271476D02*
X0218798Y0271476D01*
X0218798Y0270878D02*
X0219397Y0270878D01*
X0221360Y0274469D02*
X0223595Y0274469D01*
X0223595Y0273870D02*
X0222220Y0273870D01*
X0222780Y0273272D02*
X0223595Y0273272D01*
X0223595Y0272673D02*
X0223185Y0272673D01*
X0223475Y0272075D02*
X0223595Y0272075D01*
X0223595Y0275068D02*
X0204995Y0275068D01*
X0204995Y0275666D02*
X0223595Y0275666D01*
X0223595Y0276265D02*
X0204995Y0276265D01*
X0204995Y0276863D02*
X0223595Y0276863D01*
X0223595Y0277462D02*
X0204995Y0277462D01*
X0204995Y0278060D02*
X0223595Y0278060D01*
X0223595Y0278659D02*
X0204995Y0278659D01*
X0204995Y0279257D02*
X0223595Y0279257D01*
X0223595Y0279856D02*
X0204995Y0279856D01*
X0204995Y0280454D02*
X0223595Y0280454D01*
X0223595Y0281053D02*
X0204995Y0281053D01*
X0204995Y0281651D02*
X0223595Y0281651D01*
X0221560Y0282250D02*
X0214678Y0282250D01*
X0215662Y0282848D02*
X0220115Y0282848D01*
X0219443Y0283447D02*
X0216313Y0283447D01*
X0216774Y0284045D02*
X0218845Y0284045D01*
X0218509Y0284644D02*
X0217108Y0284644D01*
X0217346Y0285242D02*
X0218261Y0285242D01*
X0218013Y0285841D02*
X0217506Y0285841D01*
X0217595Y0286439D02*
X0217995Y0286439D01*
X0217995Y0287038D02*
X0212895Y0287038D01*
X0212895Y0286439D02*
X0212295Y0286439D01*
X0212295Y0285841D02*
X0212895Y0285841D01*
X0212895Y0285242D02*
X0212295Y0285242D01*
X0212295Y0284644D02*
X0212895Y0284644D01*
X0212895Y0284045D02*
X0212295Y0284045D01*
X0212295Y0283447D02*
X0212895Y0283447D01*
X0212895Y0282848D02*
X0212295Y0282848D01*
X0212295Y0282250D02*
X0212895Y0282250D01*
X0210512Y0282250D02*
X0204995Y0282250D01*
X0205075Y0282848D02*
X0209528Y0282848D01*
X0208877Y0283447D02*
X0205747Y0283447D01*
X0206346Y0284045D02*
X0208416Y0284045D01*
X0208082Y0284644D02*
X0206681Y0284644D01*
X0206929Y0285242D02*
X0207844Y0285242D01*
X0207685Y0285841D02*
X0207177Y0285841D01*
X0207195Y0286439D02*
X0207595Y0286439D01*
X0207195Y0287038D02*
X0212295Y0287038D01*
X0208762Y0290030D02*
X0205870Y0290030D01*
X0206469Y0289432D02*
X0208327Y0289432D01*
X0208020Y0288833D02*
X0206732Y0288833D01*
X0206980Y0288235D02*
X0207804Y0288235D01*
X0207665Y0287636D02*
X0207195Y0287636D01*
X0202895Y0286500D02*
X0202895Y0281800D01*
X0202989Y0281800D01*
X0203095Y0281817D01*
X0203095Y0258213D01*
X0202859Y0258213D01*
X0202640Y0258122D01*
X0197654Y0258122D01*
X0193032Y0253500D01*
X0145332Y0253500D01*
X0144395Y0252563D01*
X0143823Y0251991D01*
X0143100Y0251991D01*
X0142184Y0251611D01*
X0141484Y0250911D01*
X0141105Y0249995D01*
X0141105Y0249891D01*
X0140500Y0249891D01*
X0139584Y0249511D01*
X0138884Y0248811D01*
X0138522Y0247936D01*
X0138258Y0248200D01*
X0130717Y0248200D01*
X0130206Y0248711D01*
X0129291Y0249091D01*
X0128300Y0249091D01*
X0127384Y0248711D01*
X0126684Y0248011D01*
X0126305Y0247095D01*
X0126305Y0246105D01*
X0126684Y0245189D01*
X0127384Y0244489D01*
X0128300Y0244109D01*
X0129291Y0244109D01*
X0130206Y0244489D01*
X0130717Y0245000D01*
X0136932Y0245000D01*
X0137295Y0244637D01*
X0138232Y0243700D01*
X0144758Y0243700D01*
X0148958Y0247900D01*
X0195458Y0247900D01*
X0196395Y0248837D01*
X0198540Y0250983D01*
X0199200Y0250709D01*
X0199998Y0250709D01*
X0196689Y0247400D01*
X0183898Y0247400D01*
X0182961Y0246463D01*
X0179795Y0243297D01*
X0179795Y0236263D01*
X0174822Y0231290D01*
X0173590Y0231800D01*
X0171601Y0231800D01*
X0170020Y0231145D01*
X0170086Y0231305D01*
X0170086Y0232295D01*
X0169707Y0233211D01*
X0169006Y0233911D01*
X0168091Y0234291D01*
X0167100Y0234291D01*
X0166184Y0233911D01*
X0165673Y0233400D01*
X0126458Y0233400D01*
X0123658Y0236200D01*
X0166058Y0236200D01*
X0166767Y0236909D01*
X0167491Y0236909D01*
X0168406Y0237289D01*
X0169107Y0237989D01*
X0169486Y0238905D01*
X0169486Y0239895D01*
X0169107Y0240811D01*
X0168406Y0241511D01*
X0167491Y0241891D01*
X0166500Y0241891D01*
X0165584Y0241511D01*
X0164884Y0240811D01*
X0164505Y0239895D01*
X0164505Y0239400D01*
X0124658Y0239400D01*
X0123695Y0240363D01*
X0123695Y0250381D01*
X0124786Y0251471D01*
X0124786Y0254572D01*
X0123848Y0255509D01*
X0122367Y0256991D01*
X0119366Y0256991D01*
X0118429Y0256053D01*
X0118042Y0255666D01*
X0117105Y0254729D01*
X0117105Y0249672D01*
X0116923Y0249491D01*
X0116200Y0249491D01*
X0115284Y0249111D01*
X0114584Y0248411D01*
X0114205Y0247495D01*
X0114205Y0246505D01*
X0114584Y0245589D01*
X0115095Y0245078D01*
X0115095Y0237163D01*
X0111332Y0233400D01*
X0101858Y0233400D01*
X0112658Y0244200D01*
X0113595Y0245137D01*
X0113595Y0249181D01*
X0115886Y0251471D01*
X0115886Y0255368D01*
X0116407Y0255889D01*
X0116786Y0256805D01*
X0116786Y0257795D01*
X0116407Y0258711D01*
X0115706Y0259411D01*
X0114791Y0259791D01*
X0113800Y0259791D01*
X0112884Y0259411D01*
X0112184Y0258711D01*
X0111916Y0258064D01*
X0111607Y0258811D01*
X0110906Y0259511D01*
X0109991Y0259891D01*
X0109000Y0259891D01*
X0108084Y0259511D01*
X0107384Y0258811D01*
X0107005Y0257895D01*
X0107005Y0257791D01*
X0106700Y0257791D01*
X0105784Y0257411D01*
X0105084Y0256711D01*
X0104705Y0255795D01*
X0104705Y0254805D01*
X0105084Y0253889D01*
X0105595Y0253378D01*
X0105595Y0246963D01*
X0096832Y0238200D01*
X0094944Y0238200D01*
X0094007Y0237263D01*
X0093844Y0237100D01*
X0085541Y0237100D01*
X0084604Y0236163D01*
X0084604Y0236163D01*
X0084241Y0235800D01*
X0078732Y0235800D01*
X0077795Y0234863D01*
X0077795Y0234863D01*
X0077532Y0234600D01*
X0070500Y0234600D01*
X0070895Y0234994D01*
X0071595Y0236685D01*
X0071595Y0238515D01*
X0071179Y0239521D01*
X0076458Y0244800D01*
X0094858Y0244800D01*
X0099767Y0249709D01*
X0100491Y0249709D01*
X0101406Y0250089D01*
X0102107Y0250789D01*
X0102486Y0251705D01*
X0102486Y0252695D01*
X0102107Y0253611D01*
X0101406Y0254311D01*
X0100491Y0254691D01*
X0099500Y0254691D01*
X0098584Y0254311D01*
X0098445Y0254172D01*
X0098106Y0254511D01*
X0097191Y0254891D01*
X0096200Y0254891D01*
X0095284Y0254511D01*
X0094584Y0253811D01*
X0094205Y0252895D01*
X0094205Y0251905D01*
X0094566Y0251033D01*
X0092732Y0249200D01*
X0071311Y0249200D01*
X0070895Y0250206D01*
X0069601Y0251500D01*
X0067910Y0252200D01*
X0066080Y0252200D01*
X0064389Y0251500D01*
X0063095Y0250206D01*
X0062395Y0248515D01*
X0062395Y0246685D01*
X0062812Y0245679D01*
X0052932Y0235800D01*
X0047632Y0235800D01*
X0046695Y0234863D01*
X0045632Y0233800D01*
X0037332Y0233800D01*
X0036395Y0232863D01*
X0034822Y0231290D01*
X0033590Y0231800D01*
X0035427Y0232561D01*
X0036834Y0233968D01*
X0037595Y0235805D01*
X0037595Y0237795D01*
X0037085Y0239027D01*
X0053758Y0255700D01*
X0102158Y0255700D01*
X0110258Y0263800D01*
X0114273Y0263800D01*
X0114784Y0263289D01*
X0115700Y0262909D01*
X0116691Y0262909D01*
X0117606Y0263289D01*
X0118307Y0263989D01*
X0118686Y0264905D01*
X0118686Y0265164D01*
X0119300Y0264909D01*
X0120291Y0264909D01*
X0121206Y0265289D01*
X0121907Y0265989D01*
X0122286Y0266905D01*
X0122286Y0267895D01*
X0121907Y0268811D01*
X0121206Y0269511D01*
X0120291Y0269891D01*
X0119300Y0269891D01*
X0118384Y0269511D01*
X0117973Y0269100D01*
X0109232Y0269100D01*
X0101886Y0261753D01*
X0101886Y0262295D01*
X0101507Y0263211D01*
X0100806Y0263911D01*
X0099891Y0264291D01*
X0099186Y0264291D01*
X0099186Y0265095D01*
X0098807Y0266011D01*
X0098106Y0266711D01*
X0097191Y0267091D01*
X0096200Y0267091D01*
X0095284Y0266711D01*
X0094773Y0266200D01*
X0058058Y0266200D01*
X0051886Y0272372D01*
X0051886Y0273095D01*
X0051507Y0274011D01*
X0050806Y0274711D01*
X0049891Y0275091D01*
X0048900Y0275091D01*
X0047984Y0274711D01*
X0047284Y0274011D01*
X0046905Y0273095D01*
X0046905Y0272105D01*
X0047284Y0271189D01*
X0047984Y0270489D01*
X0048198Y0270400D01*
X0044917Y0270400D01*
X0044406Y0270911D01*
X0043491Y0271291D01*
X0042500Y0271291D01*
X0041584Y0270911D01*
X0040884Y0270211D01*
X0040505Y0269295D01*
X0040505Y0268305D01*
X0040884Y0267389D01*
X0041584Y0266689D01*
X0042500Y0266309D01*
X0043491Y0266309D01*
X0044406Y0266689D01*
X0044917Y0267200D01*
X0048932Y0267200D01*
X0055305Y0260828D01*
X0055305Y0260105D01*
X0036361Y0260105D01*
X0036834Y0259632D02*
X0035427Y0261039D01*
X0033590Y0261800D01*
X0031601Y0261800D01*
X0029763Y0261039D01*
X0028895Y0260171D01*
X0028895Y0263429D01*
X0029338Y0262986D01*
X0029975Y0262524D01*
X0030676Y0262166D01*
X0031424Y0261923D01*
X0032202Y0261800D01*
X0032295Y0261800D01*
X0032295Y0266500D01*
X0032895Y0266500D01*
X0032895Y0261800D01*
X0032989Y0261800D01*
X0033766Y0261923D01*
X0034514Y0262166D01*
X0035216Y0262524D01*
X0035852Y0262986D01*
X0036409Y0263543D01*
X0036872Y0264179D01*
X0037229Y0264881D01*
X0037472Y0265629D01*
X0037595Y0266406D01*
X0037595Y0266500D01*
X0032895Y0266500D01*
X0032895Y0267100D01*
X0032295Y0267100D01*
X0032295Y0271800D01*
X0032202Y0271800D01*
X0031424Y0271677D01*
X0030676Y0271434D01*
X0029975Y0271076D01*
X0029338Y0270614D01*
X0028895Y0270171D01*
X0028895Y0273429D01*
X0029763Y0272561D01*
X0031601Y0271800D01*
X0033590Y0271800D01*
X0035427Y0272561D01*
X0036834Y0273968D01*
X0037595Y0275805D01*
X0037595Y0277795D01*
X0036834Y0279632D01*
X0035427Y0281039D01*
X0033590Y0281800D01*
X0035427Y0282561D01*
X0036834Y0283968D01*
X0037595Y0285805D01*
X0038356Y0283968D01*
X0039763Y0282561D01*
X0041601Y0281800D01*
X0043590Y0281800D01*
X0045427Y0282561D01*
X0046834Y0283968D01*
X0047595Y0285805D01*
X0048356Y0283968D01*
X0049763Y0282561D01*
X0051601Y0281800D01*
X0053590Y0281800D01*
X0054822Y0282310D01*
X0055995Y0281137D01*
X0055995Y0274337D01*
X0060732Y0269600D01*
X0100132Y0269600D01*
X0100805Y0268928D01*
X0100805Y0268205D01*
X0101184Y0267289D01*
X0101884Y0266589D01*
X0102800Y0266209D01*
X0103791Y0266209D01*
X0104706Y0266589D01*
X0105407Y0267289D01*
X0105786Y0268205D01*
X0105786Y0269195D01*
X0105407Y0270111D01*
X0104706Y0270811D01*
X0103791Y0271191D01*
X0103067Y0271191D01*
X0101458Y0272800D01*
X0062058Y0272800D01*
X0059195Y0275663D01*
X0059195Y0282463D01*
X0058258Y0283400D01*
X0057085Y0284573D01*
X0057595Y0285805D01*
X0058356Y0283968D01*
X0059763Y0282561D01*
X0061601Y0281800D01*
X0063590Y0281800D01*
X0065427Y0282561D01*
X0066834Y0283968D01*
X0067595Y0285805D01*
X0068356Y0283968D01*
X0069763Y0282561D01*
X0070562Y0282230D01*
X0066623Y0278291D01*
X0065900Y0278291D01*
X0064984Y0277911D01*
X0064284Y0277211D01*
X0063905Y0276295D01*
X0063905Y0275305D01*
X0064284Y0274389D01*
X0064984Y0273689D01*
X0065900Y0273309D01*
X0066891Y0273309D01*
X0067806Y0273689D01*
X0068507Y0274389D01*
X0068886Y0275305D01*
X0068886Y0276028D01*
X0073058Y0280200D01*
X0129732Y0280200D01*
X0132086Y0277847D01*
X0132086Y0277522D01*
X0131574Y0277011D01*
X0131195Y0276095D01*
X0131195Y0275105D01*
X0131574Y0274189D01*
X0132275Y0273489D01*
X0133190Y0273109D01*
X0134181Y0273109D01*
X0135096Y0273489D01*
X0135797Y0274189D01*
X0136176Y0275105D01*
X0136176Y0276095D01*
X0135797Y0277011D01*
X0135286Y0277522D01*
X0135286Y0279172D01*
X0132658Y0281800D01*
X0133590Y0281800D01*
X0135427Y0282561D01*
X0136834Y0283968D01*
X0137595Y0285805D01*
X0138356Y0283968D01*
X0139763Y0282561D01*
X0141601Y0281800D01*
X0143590Y0281800D01*
X0145427Y0282561D01*
X0146834Y0283968D01*
X0147595Y0285805D01*
X0148106Y0284573D01*
X0143232Y0279700D01*
X0141432Y0279700D01*
X0140495Y0278763D01*
X0139932Y0278200D01*
X0138995Y0277263D01*
X0138995Y0266863D01*
X0134823Y0262691D01*
X0134100Y0262691D01*
X0133184Y0262311D01*
X0132484Y0261611D01*
X0132105Y0260695D01*
X0132105Y0259705D01*
X0132484Y0258789D01*
X0133184Y0258089D01*
X0134100Y0257709D01*
X0135042Y0257709D01*
X0134705Y0256895D01*
X0134705Y0255905D01*
X0135084Y0254989D01*
X0135784Y0254289D01*
X0136700Y0253909D01*
X0137691Y0253909D01*
X0138606Y0254289D01*
X0139307Y0254989D01*
X0139686Y0255905D01*
X0139686Y0256895D01*
X0139307Y0257811D01*
X0138795Y0258322D01*
X0138795Y0259737D01*
X0155758Y0276700D01*
X0160158Y0276700D01*
X0161258Y0277800D01*
X0169258Y0277800D01*
X0170458Y0279000D01*
X0178758Y0279000D01*
X0179958Y0280200D01*
X0188258Y0280200D01*
X0190368Y0282310D01*
X0191601Y0281800D01*
X0193590Y0281800D01*
X0195427Y0282561D01*
X0196834Y0283968D01*
X0197595Y0285805D01*
X0197595Y0287795D01*
X0196834Y0289632D01*
X0195966Y0290500D01*
X0199224Y0290500D01*
X0198781Y0290057D01*
X0198319Y0289421D01*
X0197961Y0288719D01*
X0197718Y0287971D01*
X0197595Y0287194D01*
X0197595Y0287100D01*
X0202295Y0287100D01*
X0202295Y0286500D01*
X0197595Y0286500D01*
X0197595Y0286406D01*
X0197718Y0285629D01*
X0197961Y0284881D01*
X0198319Y0284179D01*
X0198781Y0283543D01*
X0199338Y0282986D01*
X0199975Y0282524D01*
X0200676Y0282166D01*
X0201424Y0281923D01*
X0202202Y0281800D01*
X0202295Y0281800D01*
X0202295Y0286500D01*
X0202895Y0286500D01*
X0202895Y0286439D02*
X0202295Y0286439D01*
X0202295Y0285841D02*
X0202895Y0285841D01*
X0202895Y0285242D02*
X0202295Y0285242D01*
X0202295Y0284644D02*
X0202895Y0284644D01*
X0202895Y0284045D02*
X0202295Y0284045D01*
X0202295Y0283447D02*
X0202895Y0283447D01*
X0202895Y0282848D02*
X0202295Y0282848D01*
X0202295Y0282250D02*
X0202895Y0282250D01*
X0203095Y0281651D02*
X0189709Y0281651D01*
X0189110Y0281053D02*
X0203095Y0281053D01*
X0203095Y0280454D02*
X0188512Y0280454D01*
X0187595Y0281800D02*
X0192595Y0286800D01*
X0197165Y0288833D02*
X0198020Y0288833D01*
X0197804Y0288235D02*
X0197413Y0288235D01*
X0197595Y0287636D02*
X0197665Y0287636D01*
X0197595Y0287038D02*
X0202295Y0287038D01*
X0198762Y0290030D02*
X0196436Y0290030D01*
X0196917Y0289432D02*
X0198327Y0289432D01*
X0197595Y0286439D02*
X0197595Y0286439D01*
X0197595Y0285841D02*
X0197685Y0285841D01*
X0197844Y0285242D02*
X0197362Y0285242D01*
X0197114Y0284644D02*
X0198082Y0284644D01*
X0198416Y0284045D02*
X0196866Y0284045D01*
X0196313Y0283447D02*
X0198877Y0283447D01*
X0199528Y0282848D02*
X0195714Y0282848D01*
X0194675Y0282250D02*
X0200512Y0282250D01*
X0203095Y0279856D02*
X0179613Y0279856D01*
X0179015Y0279257D02*
X0203095Y0279257D01*
X0203095Y0278659D02*
X0170116Y0278659D01*
X0169518Y0278060D02*
X0203095Y0278060D01*
X0203095Y0277462D02*
X0160919Y0277462D01*
X0160321Y0276863D02*
X0203095Y0276863D01*
X0203095Y0276265D02*
X0155322Y0276265D01*
X0154724Y0275666D02*
X0203095Y0275666D01*
X0203095Y0275068D02*
X0154125Y0275068D01*
X0153527Y0274469D02*
X0203095Y0274469D01*
X0203095Y0273870D02*
X0152928Y0273870D01*
X0152330Y0273272D02*
X0203095Y0273272D01*
X0203095Y0272673D02*
X0151731Y0272673D01*
X0151133Y0272075D02*
X0203095Y0272075D01*
X0203095Y0271476D02*
X0150534Y0271476D01*
X0149936Y0270878D02*
X0203095Y0270878D01*
X0203095Y0270279D02*
X0149337Y0270279D01*
X0148739Y0269681D02*
X0203095Y0269681D01*
X0203095Y0269082D02*
X0148140Y0269082D01*
X0147542Y0268484D02*
X0203095Y0268484D01*
X0203095Y0267885D02*
X0146943Y0267885D01*
X0146345Y0267287D02*
X0203095Y0267287D01*
X0203095Y0266688D02*
X0145746Y0266688D01*
X0145148Y0266090D02*
X0203095Y0266090D01*
X0203095Y0265491D02*
X0144549Y0265491D01*
X0143951Y0264893D02*
X0203095Y0264893D01*
X0203095Y0264294D02*
X0143352Y0264294D01*
X0142754Y0263696D02*
X0203095Y0263696D01*
X0203095Y0263097D02*
X0142155Y0263097D01*
X0141557Y0262499D02*
X0203095Y0262499D01*
X0203095Y0261900D02*
X0140958Y0261900D01*
X0140360Y0261302D02*
X0203095Y0261302D01*
X0203095Y0260703D02*
X0139761Y0260703D01*
X0139163Y0260105D02*
X0203095Y0260105D01*
X0203095Y0259506D02*
X0138795Y0259506D01*
X0138795Y0258908D02*
X0203095Y0258908D01*
X0203095Y0258309D02*
X0138808Y0258309D01*
X0139348Y0257711D02*
X0197243Y0257711D01*
X0196645Y0257112D02*
X0139596Y0257112D01*
X0139686Y0256514D02*
X0196046Y0256514D01*
X0195448Y0255915D02*
X0139686Y0255915D01*
X0139442Y0255317D02*
X0194849Y0255317D01*
X0194251Y0254718D02*
X0139035Y0254718D01*
X0138198Y0254120D02*
X0193652Y0254120D01*
X0193054Y0253521D02*
X0124786Y0253521D01*
X0124786Y0252923D02*
X0144755Y0252923D01*
X0144156Y0252324D02*
X0124786Y0252324D01*
X0124786Y0251726D02*
X0142460Y0251726D01*
X0141700Y0251127D02*
X0124441Y0251127D01*
X0123843Y0250529D02*
X0141325Y0250529D01*
X0141105Y0249930D02*
X0123695Y0249930D01*
X0123695Y0249332D02*
X0139404Y0249332D01*
X0138852Y0248733D02*
X0130154Y0248733D01*
X0128795Y0246600D02*
X0137595Y0246600D01*
X0138895Y0245300D01*
X0144095Y0245300D01*
X0148295Y0249500D01*
X0194795Y0249500D01*
X0198495Y0253200D01*
X0199695Y0253200D01*
X0198829Y0255291D02*
X0200705Y0255291D01*
X0203295Y0252700D01*
X0203286Y0252691D01*
X0203286Y0251734D01*
X0197352Y0245800D01*
X0184561Y0245800D01*
X0181395Y0242634D01*
X0181395Y0235600D01*
X0172595Y0226800D01*
X0170577Y0231376D02*
X0170086Y0231376D01*
X0170086Y0231975D02*
X0175507Y0231975D01*
X0176106Y0232573D02*
X0169971Y0232573D01*
X0169723Y0233172D02*
X0176704Y0233172D01*
X0177303Y0233770D02*
X0169147Y0233770D01*
X0167595Y0231800D02*
X0156595Y0231800D01*
X0125795Y0231800D01*
X0120895Y0236700D01*
X0120895Y0253100D01*
X0122095Y0251044D02*
X0122095Y0239700D01*
X0123995Y0237800D01*
X0165395Y0237800D01*
X0166995Y0239400D01*
X0164694Y0240354D02*
X0123704Y0240354D01*
X0123695Y0240952D02*
X0165025Y0240952D01*
X0165680Y0241551D02*
X0123695Y0241551D01*
X0123695Y0242149D02*
X0179795Y0242149D01*
X0179795Y0241551D02*
X0168311Y0241551D01*
X0168965Y0240952D02*
X0179795Y0240952D01*
X0179795Y0240354D02*
X0169296Y0240354D01*
X0169486Y0239755D02*
X0179795Y0239755D01*
X0179795Y0239157D02*
X0169486Y0239157D01*
X0169342Y0238558D02*
X0179795Y0238558D01*
X0179795Y0237960D02*
X0169077Y0237960D01*
X0168479Y0237361D02*
X0179795Y0237361D01*
X0179795Y0236763D02*
X0166621Y0236763D01*
X0166043Y0233770D02*
X0126088Y0233770D01*
X0125489Y0234369D02*
X0177901Y0234369D01*
X0178500Y0234967D02*
X0124891Y0234967D01*
X0124292Y0235566D02*
X0179098Y0235566D01*
X0179697Y0236164D02*
X0123694Y0236164D01*
X0124303Y0239755D02*
X0164505Y0239755D01*
X0174613Y0231376D02*
X0174909Y0231376D01*
X0182595Y0226800D02*
X0182595Y0242137D01*
X0185047Y0244589D01*
X0197395Y0244589D01*
X0198341Y0244589D01*
X0205486Y0251734D01*
X0205486Y0253709D01*
X0203473Y0255722D01*
X0203354Y0255722D01*
X0202554Y0256522D01*
X0198317Y0256522D01*
X0193695Y0251900D01*
X0145995Y0251900D01*
X0143595Y0249500D01*
X0144495Y0247400D02*
X0147795Y0250700D01*
X0194239Y0250700D01*
X0198829Y0255291D01*
X0198086Y0250529D02*
X0199817Y0250529D01*
X0199219Y0249930D02*
X0197488Y0249930D01*
X0196889Y0249332D02*
X0198620Y0249332D01*
X0198022Y0248733D02*
X0196291Y0248733D01*
X0195692Y0248134D02*
X0197423Y0248134D01*
X0196825Y0247536D02*
X0148594Y0247536D01*
X0147995Y0246937D02*
X0183436Y0246937D01*
X0182837Y0246339D02*
X0147397Y0246339D01*
X0146798Y0245740D02*
X0182239Y0245740D01*
X0181640Y0245142D02*
X0146200Y0245142D01*
X0145601Y0244543D02*
X0181042Y0244543D01*
X0180443Y0243945D02*
X0145003Y0243945D01*
X0144495Y0247400D02*
X0140995Y0247400D01*
X0138604Y0248134D02*
X0138323Y0248134D01*
X0137389Y0244543D02*
X0130261Y0244543D01*
X0127330Y0244543D02*
X0123695Y0244543D01*
X0123695Y0243945D02*
X0137987Y0243945D01*
X0126731Y0245142D02*
X0123695Y0245142D01*
X0123695Y0245740D02*
X0126455Y0245740D01*
X0126305Y0246339D02*
X0123695Y0246339D01*
X0123695Y0246937D02*
X0126305Y0246937D01*
X0126487Y0247536D02*
X0123695Y0247536D01*
X0123695Y0248134D02*
X0126807Y0248134D01*
X0127437Y0248733D02*
X0123695Y0248733D01*
X0122095Y0251044D02*
X0123186Y0252134D01*
X0123186Y0253909D01*
X0121705Y0255391D01*
X0120029Y0255391D01*
X0118705Y0254066D01*
X0118705Y0249009D01*
X0116695Y0247000D01*
X0116695Y0236500D01*
X0111995Y0231800D01*
X0097595Y0231800D01*
X0092595Y0226800D01*
X0095998Y0231900D02*
X0087695Y0231900D01*
X0082595Y0226800D01*
X0082595Y0231800D02*
X0085898Y0231800D01*
X0087198Y0233100D01*
X0095501Y0233100D01*
X0096601Y0234200D01*
X0098698Y0234200D01*
X0110795Y0246297D01*
X0110795Y0254300D01*
X0111695Y0255200D01*
X0109495Y0257400D02*
X0109495Y0246900D01*
X0097995Y0235400D01*
X0096104Y0235400D01*
X0095004Y0234300D01*
X0086701Y0234300D01*
X0085401Y0233000D01*
X0079895Y0233000D01*
X0078695Y0231800D01*
X0070195Y0231800D01*
X0065195Y0226800D01*
X0062595Y0226800D01*
X0057595Y0231800D02*
X0052595Y0226800D01*
X0057595Y0231800D02*
X0068495Y0231800D01*
X0069695Y0233000D01*
X0078195Y0233000D01*
X0079395Y0234200D01*
X0084904Y0234200D01*
X0086204Y0235500D01*
X0094507Y0235500D01*
X0095607Y0236600D01*
X0097495Y0236600D01*
X0107195Y0246300D01*
X0107195Y0255300D01*
X0104705Y0255317D02*
X0053374Y0255317D01*
X0052776Y0254718D02*
X0095783Y0254718D01*
X0094893Y0254120D02*
X0052177Y0254120D01*
X0051579Y0253521D02*
X0094464Y0253521D01*
X0094216Y0252923D02*
X0050980Y0252923D01*
X0050382Y0252324D02*
X0094205Y0252324D01*
X0094279Y0251726D02*
X0069055Y0251726D01*
X0069973Y0251127D02*
X0094527Y0251127D01*
X0094061Y0250529D02*
X0070572Y0250529D01*
X0071009Y0249930D02*
X0093462Y0249930D01*
X0092864Y0249332D02*
X0071257Y0249332D01*
X0066995Y0247600D02*
X0093395Y0247600D01*
X0096695Y0250900D01*
X0096695Y0252400D01*
X0097607Y0254718D02*
X0104740Y0254718D01*
X0104988Y0254120D02*
X0101598Y0254120D01*
X0102144Y0253521D02*
X0105452Y0253521D01*
X0105595Y0252923D02*
X0102392Y0252923D01*
X0102486Y0252324D02*
X0105595Y0252324D01*
X0105595Y0251726D02*
X0102486Y0251726D01*
X0102246Y0251127D02*
X0105595Y0251127D01*
X0105595Y0250529D02*
X0101846Y0250529D01*
X0101023Y0249930D02*
X0105595Y0249930D01*
X0105595Y0249332D02*
X0099389Y0249332D01*
X0098791Y0248733D02*
X0105595Y0248733D01*
X0105595Y0248134D02*
X0098192Y0248134D01*
X0097594Y0247536D02*
X0105595Y0247536D01*
X0105570Y0246937D02*
X0096995Y0246937D01*
X0096397Y0246339D02*
X0104971Y0246339D01*
X0104373Y0245740D02*
X0095798Y0245740D01*
X0095200Y0245142D02*
X0103774Y0245142D01*
X0103176Y0244543D02*
X0076201Y0244543D01*
X0075603Y0243945D02*
X0102577Y0243945D01*
X0101979Y0243346D02*
X0075004Y0243346D01*
X0074406Y0242748D02*
X0101380Y0242748D01*
X0100782Y0242149D02*
X0073807Y0242149D01*
X0073209Y0241551D02*
X0100183Y0241551D01*
X0099585Y0240952D02*
X0072610Y0240952D01*
X0072012Y0240354D02*
X0098986Y0240354D01*
X0098388Y0239755D02*
X0071413Y0239755D01*
X0071329Y0239157D02*
X0097789Y0239157D01*
X0097191Y0238558D02*
X0071577Y0238558D01*
X0071595Y0237960D02*
X0094704Y0237960D01*
X0094105Y0237361D02*
X0071595Y0237361D01*
X0071595Y0236763D02*
X0085204Y0236763D01*
X0084605Y0236164D02*
X0071379Y0236164D01*
X0071132Y0235566D02*
X0078498Y0235566D01*
X0077900Y0234967D02*
X0070868Y0234967D01*
X0066995Y0237600D02*
X0075795Y0246400D01*
X0094195Y0246400D01*
X0099995Y0252200D01*
X0102373Y0255915D02*
X0104754Y0255915D01*
X0105002Y0256514D02*
X0102972Y0256514D01*
X0103570Y0257112D02*
X0105485Y0257112D01*
X0106507Y0257711D02*
X0104169Y0257711D01*
X0104767Y0258309D02*
X0107176Y0258309D01*
X0107481Y0258908D02*
X0105366Y0258908D01*
X0105964Y0259506D02*
X0108079Y0259506D01*
X0107161Y0260703D02*
X0132108Y0260703D01*
X0132105Y0260105D02*
X0106563Y0260105D01*
X0107760Y0261302D02*
X0132356Y0261302D01*
X0132773Y0261900D02*
X0108358Y0261900D01*
X0108957Y0262499D02*
X0133637Y0262499D01*
X0135230Y0263097D02*
X0117144Y0263097D01*
X0118013Y0263696D02*
X0135828Y0263696D01*
X0136427Y0264294D02*
X0118433Y0264294D01*
X0118681Y0264893D02*
X0137025Y0264893D01*
X0137624Y0265491D02*
X0121409Y0265491D01*
X0121948Y0266090D02*
X0138222Y0266090D01*
X0138821Y0266688D02*
X0122196Y0266688D01*
X0122286Y0267287D02*
X0138995Y0267287D01*
X0138995Y0267885D02*
X0122286Y0267885D01*
X0122042Y0268484D02*
X0138995Y0268484D01*
X0138995Y0269082D02*
X0121635Y0269082D01*
X0120797Y0269681D02*
X0138995Y0269681D01*
X0138995Y0270279D02*
X0105238Y0270279D01*
X0105585Y0269681D02*
X0118794Y0269681D01*
X0119695Y0267500D02*
X0109895Y0267500D01*
X0100895Y0258500D01*
X0052595Y0258500D01*
X0040895Y0246800D01*
X0032595Y0246800D01*
X0037206Y0248733D02*
X0040565Y0248733D01*
X0040232Y0248400D02*
X0037344Y0248400D01*
X0036834Y0249632D01*
X0035427Y0251039D01*
X0033590Y0251800D01*
X0035427Y0252561D01*
X0036834Y0253968D01*
X0037595Y0255805D01*
X0037595Y0257795D01*
X0036834Y0259632D01*
X0036886Y0259506D02*
X0051339Y0259506D01*
X0050995Y0259163D02*
X0040232Y0248400D01*
X0041164Y0249332D02*
X0036959Y0249332D01*
X0036536Y0249930D02*
X0041762Y0249930D01*
X0042361Y0250529D02*
X0035938Y0250529D01*
X0035214Y0251127D02*
X0042959Y0251127D01*
X0043558Y0251726D02*
X0033769Y0251726D01*
X0033590Y0251800D02*
X0031601Y0251800D01*
X0029763Y0252561D01*
X0028895Y0253429D01*
X0028895Y0250171D01*
X0029763Y0251039D01*
X0031601Y0251800D01*
X0033590Y0251800D01*
X0034855Y0252324D02*
X0044156Y0252324D01*
X0044755Y0252923D02*
X0035789Y0252923D01*
X0036387Y0253521D02*
X0045354Y0253521D01*
X0045952Y0254120D02*
X0036897Y0254120D01*
X0037145Y0254718D02*
X0046551Y0254718D01*
X0047149Y0255317D02*
X0037393Y0255317D01*
X0037595Y0255915D02*
X0047748Y0255915D01*
X0048346Y0256514D02*
X0037595Y0256514D01*
X0037595Y0257112D02*
X0048945Y0257112D01*
X0049543Y0257711D02*
X0037595Y0257711D01*
X0037382Y0258309D02*
X0050142Y0258309D01*
X0050740Y0258908D02*
X0037134Y0258908D01*
X0035763Y0260703D02*
X0055305Y0260703D01*
X0055305Y0260105D02*
X0055306Y0260100D01*
X0051932Y0260100D01*
X0050995Y0259163D01*
X0053095Y0257300D02*
X0101495Y0257300D01*
X0109595Y0265400D01*
X0116195Y0265400D01*
X0115246Y0263097D02*
X0109555Y0263097D01*
X0110154Y0263696D02*
X0114377Y0263696D01*
X0115477Y0259506D02*
X0132187Y0259506D01*
X0132435Y0258908D02*
X0116210Y0258908D01*
X0116573Y0258309D02*
X0132964Y0258309D01*
X0134097Y0257711D02*
X0116786Y0257711D01*
X0116786Y0257112D02*
X0134794Y0257112D01*
X0134705Y0256514D02*
X0122844Y0256514D01*
X0123443Y0255915D02*
X0134705Y0255915D01*
X0134948Y0255317D02*
X0124041Y0255317D01*
X0124640Y0254718D02*
X0135355Y0254718D01*
X0136192Y0254120D02*
X0124786Y0254120D01*
X0118890Y0256514D02*
X0116665Y0256514D01*
X0116417Y0255915D02*
X0118291Y0255915D01*
X0118042Y0255666D02*
X0118042Y0255666D01*
X0117693Y0255317D02*
X0115886Y0255317D01*
X0115886Y0254718D02*
X0117105Y0254718D01*
X0117105Y0254120D02*
X0115886Y0254120D01*
X0115886Y0253521D02*
X0117105Y0253521D01*
X0117105Y0252923D02*
X0115886Y0252923D01*
X0115886Y0252324D02*
X0117105Y0252324D01*
X0117105Y0251726D02*
X0115886Y0251726D01*
X0115541Y0251127D02*
X0117105Y0251127D01*
X0117105Y0250529D02*
X0114943Y0250529D01*
X0114344Y0249930D02*
X0117105Y0249930D01*
X0115816Y0249332D02*
X0113746Y0249332D01*
X0113595Y0248733D02*
X0114906Y0248733D01*
X0114469Y0248134D02*
X0113595Y0248134D01*
X0113595Y0247536D02*
X0114221Y0247536D01*
X0114205Y0246937D02*
X0113595Y0246937D01*
X0113595Y0246339D02*
X0114273Y0246339D01*
X0114521Y0245740D02*
X0113595Y0245740D01*
X0113595Y0245142D02*
X0115031Y0245142D01*
X0115095Y0244543D02*
X0113001Y0244543D01*
X0112403Y0243945D02*
X0115095Y0243945D01*
X0115095Y0243346D02*
X0111804Y0243346D01*
X0111206Y0242748D02*
X0115095Y0242748D01*
X0115095Y0242149D02*
X0110607Y0242149D01*
X0110009Y0241551D02*
X0115095Y0241551D01*
X0115095Y0240952D02*
X0109410Y0240952D01*
X0108812Y0240354D02*
X0115095Y0240354D01*
X0115095Y0239755D02*
X0108213Y0239755D01*
X0107615Y0239157D02*
X0115095Y0239157D01*
X0115095Y0238558D02*
X0107016Y0238558D01*
X0106418Y0237960D02*
X0115095Y0237960D01*
X0115095Y0237361D02*
X0105819Y0237361D01*
X0105221Y0236763D02*
X0114695Y0236763D01*
X0114097Y0236164D02*
X0104622Y0236164D01*
X0104024Y0235566D02*
X0113498Y0235566D01*
X0112900Y0234967D02*
X0103425Y0234967D01*
X0102827Y0234369D02*
X0112301Y0234369D01*
X0111703Y0233770D02*
X0102228Y0233770D01*
X0099195Y0233000D02*
X0111995Y0245800D01*
X0111995Y0249844D01*
X0114286Y0252134D01*
X0114286Y0257291D01*
X0114295Y0257300D01*
X0112017Y0258309D02*
X0111814Y0258309D01*
X0111510Y0258908D02*
X0112381Y0258908D01*
X0113113Y0259506D02*
X0110911Y0259506D01*
X0103828Y0263696D02*
X0101022Y0263696D01*
X0101554Y0263097D02*
X0103230Y0263097D01*
X0102631Y0262499D02*
X0101801Y0262499D01*
X0101886Y0261900D02*
X0102033Y0261900D01*
X0099395Y0261800D02*
X0097395Y0259800D01*
X0058595Y0259800D01*
X0057795Y0260600D01*
X0049595Y0268800D01*
X0042995Y0268800D01*
X0040678Y0267885D02*
X0037486Y0267885D01*
X0037472Y0267971D02*
X0037229Y0268719D01*
X0036872Y0269421D01*
X0036409Y0270057D01*
X0035852Y0270614D01*
X0035216Y0271076D01*
X0034514Y0271434D01*
X0033766Y0271677D01*
X0032989Y0271800D01*
X0032895Y0271800D01*
X0032895Y0267100D01*
X0037595Y0267100D01*
X0037595Y0267194D01*
X0037472Y0267971D01*
X0037305Y0268484D02*
X0040505Y0268484D01*
X0040505Y0269082D02*
X0037044Y0269082D01*
X0036682Y0269681D02*
X0040664Y0269681D01*
X0040952Y0270279D02*
X0036187Y0270279D01*
X0035489Y0270878D02*
X0041551Y0270878D01*
X0044439Y0270878D02*
X0047595Y0270878D01*
X0047165Y0271476D02*
X0034383Y0271476D01*
X0034253Y0272075D02*
X0046917Y0272075D01*
X0046905Y0272673D02*
X0035540Y0272673D01*
X0036138Y0273272D02*
X0046978Y0273272D01*
X0047226Y0273870D02*
X0036737Y0273870D01*
X0037042Y0274469D02*
X0047742Y0274469D01*
X0048844Y0275068D02*
X0037289Y0275068D01*
X0037537Y0275666D02*
X0055995Y0275666D01*
X0055995Y0275068D02*
X0049946Y0275068D01*
X0051048Y0274469D02*
X0055995Y0274469D01*
X0056462Y0273870D02*
X0051565Y0273870D01*
X0051813Y0273272D02*
X0057060Y0273272D01*
X0057659Y0272673D02*
X0051886Y0272673D01*
X0052183Y0272075D02*
X0058257Y0272075D01*
X0058856Y0271476D02*
X0052781Y0271476D01*
X0053380Y0270878D02*
X0059454Y0270878D01*
X0060053Y0270279D02*
X0053978Y0270279D01*
X0054577Y0269681D02*
X0060651Y0269681D01*
X0061395Y0271200D02*
X0057595Y0275000D01*
X0057595Y0281800D01*
X0052595Y0286800D01*
X0048025Y0288833D02*
X0047165Y0288833D01*
X0047413Y0288235D02*
X0047777Y0288235D01*
X0047595Y0287795D02*
X0047595Y0285805D01*
X0047595Y0287795D01*
X0048356Y0289632D01*
X0049224Y0290500D01*
X0045966Y0290500D01*
X0046834Y0289632D01*
X0047595Y0287795D01*
X0047595Y0287636D02*
X0047595Y0287636D01*
X0047595Y0287038D02*
X0047595Y0287038D01*
X0047595Y0286439D02*
X0047595Y0286439D01*
X0047595Y0285841D02*
X0047595Y0285841D01*
X0047362Y0285242D02*
X0047828Y0285242D01*
X0048076Y0284644D02*
X0047114Y0284644D01*
X0046866Y0284045D02*
X0048324Y0284045D01*
X0048877Y0283447D02*
X0046313Y0283447D01*
X0045714Y0282848D02*
X0049476Y0282848D01*
X0050515Y0282250D02*
X0044675Y0282250D01*
X0040515Y0282250D02*
X0034675Y0282250D01*
X0033949Y0281651D02*
X0055481Y0281651D01*
X0055995Y0281053D02*
X0035394Y0281053D01*
X0036012Y0280454D02*
X0055995Y0280454D01*
X0055995Y0279856D02*
X0036611Y0279856D01*
X0036989Y0279257D02*
X0055995Y0279257D01*
X0055995Y0278659D02*
X0037237Y0278659D01*
X0037485Y0278060D02*
X0055995Y0278060D01*
X0055995Y0277462D02*
X0037595Y0277462D01*
X0037595Y0276863D02*
X0055995Y0276863D01*
X0055995Y0276265D02*
X0037595Y0276265D01*
X0032895Y0271476D02*
X0032295Y0271476D01*
X0032295Y0270878D02*
X0032895Y0270878D01*
X0032895Y0270279D02*
X0032295Y0270279D01*
X0032295Y0269681D02*
X0032895Y0269681D01*
X0032895Y0269082D02*
X0032295Y0269082D01*
X0032295Y0268484D02*
X0032895Y0268484D01*
X0032895Y0267885D02*
X0032295Y0267885D01*
X0032295Y0267287D02*
X0032895Y0267287D01*
X0032895Y0266688D02*
X0041585Y0266688D01*
X0040986Y0267287D02*
X0037580Y0267287D01*
X0037545Y0266090D02*
X0050043Y0266090D01*
X0050641Y0265491D02*
X0037427Y0265491D01*
X0037233Y0264893D02*
X0051240Y0264893D01*
X0051838Y0264294D02*
X0036930Y0264294D01*
X0036520Y0263696D02*
X0052437Y0263696D01*
X0053035Y0263097D02*
X0035963Y0263097D01*
X0035167Y0262499D02*
X0053634Y0262499D01*
X0054232Y0261900D02*
X0033622Y0261900D01*
X0032895Y0261900D02*
X0032295Y0261900D01*
X0032295Y0262499D02*
X0032895Y0262499D01*
X0032895Y0263097D02*
X0032295Y0263097D01*
X0032295Y0263696D02*
X0032895Y0263696D01*
X0032895Y0264294D02*
X0032295Y0264294D01*
X0032295Y0264893D02*
X0032895Y0264893D01*
X0032895Y0265491D02*
X0032295Y0265491D01*
X0032295Y0266090D02*
X0032895Y0266090D01*
X0031569Y0261900D02*
X0028895Y0261900D01*
X0028895Y0261302D02*
X0030398Y0261302D01*
X0029427Y0260703D02*
X0028895Y0260703D01*
X0028895Y0262499D02*
X0030023Y0262499D01*
X0029227Y0263097D02*
X0028895Y0263097D01*
X0034793Y0261302D02*
X0054831Y0261302D01*
X0057395Y0264600D02*
X0049395Y0272600D01*
X0055175Y0269082D02*
X0100650Y0269082D01*
X0100805Y0268484D02*
X0055774Y0268484D01*
X0056372Y0267885D02*
X0100937Y0267885D01*
X0101186Y0267287D02*
X0056971Y0267287D01*
X0057570Y0266688D02*
X0095261Y0266688D01*
X0096695Y0264600D02*
X0057395Y0264600D01*
X0061395Y0271200D02*
X0074058Y0271200D01*
X0100795Y0271200D01*
X0103295Y0268700D01*
X0105653Y0267885D02*
X0108018Y0267885D01*
X0107419Y0267287D02*
X0105404Y0267287D01*
X0104806Y0266688D02*
X0106821Y0266688D01*
X0106222Y0266090D02*
X0098727Y0266090D01*
X0099022Y0265491D02*
X0105624Y0265491D01*
X0105025Y0264893D02*
X0099186Y0264893D01*
X0099186Y0264294D02*
X0104427Y0264294D01*
X0101785Y0266688D02*
X0098129Y0266688D01*
X0104545Y0270878D02*
X0138995Y0270878D01*
X0138995Y0271476D02*
X0102781Y0271476D01*
X0102183Y0272075D02*
X0138995Y0272075D01*
X0138995Y0272673D02*
X0101584Y0272673D01*
X0105786Y0269082D02*
X0109215Y0269082D01*
X0108616Y0268484D02*
X0105786Y0268484D01*
X0119695Y0267500D02*
X0119795Y0267400D01*
X0131458Y0274469D02*
X0068540Y0274469D01*
X0068787Y0275068D02*
X0131210Y0275068D01*
X0131195Y0275666D02*
X0068886Y0275666D01*
X0069122Y0276265D02*
X0131265Y0276265D01*
X0131513Y0276863D02*
X0069721Y0276863D01*
X0070319Y0277462D02*
X0132025Y0277462D01*
X0131872Y0278060D02*
X0070918Y0278060D01*
X0071516Y0278659D02*
X0131274Y0278659D01*
X0130675Y0279257D02*
X0072115Y0279257D01*
X0072713Y0279856D02*
X0130077Y0279856D01*
X0130395Y0281800D02*
X0133686Y0278509D01*
X0133686Y0275600D01*
X0135478Y0273870D02*
X0138995Y0273870D01*
X0138995Y0273272D02*
X0134573Y0273272D01*
X0132798Y0273272D02*
X0061586Y0273272D01*
X0060987Y0273870D02*
X0064802Y0273870D01*
X0064251Y0274469D02*
X0060389Y0274469D01*
X0059790Y0275068D02*
X0064003Y0275068D01*
X0063905Y0275666D02*
X0059195Y0275666D01*
X0059195Y0276265D02*
X0063905Y0276265D01*
X0064140Y0276863D02*
X0059195Y0276863D01*
X0059195Y0277462D02*
X0064535Y0277462D01*
X0065343Y0278060D02*
X0059195Y0278060D01*
X0059195Y0278659D02*
X0066991Y0278659D01*
X0067589Y0279257D02*
X0059195Y0279257D01*
X0059195Y0279856D02*
X0068188Y0279856D01*
X0068787Y0280454D02*
X0059195Y0280454D01*
X0059195Y0281053D02*
X0069385Y0281053D01*
X0069984Y0281651D02*
X0059195Y0281651D01*
X0059195Y0282250D02*
X0060515Y0282250D01*
X0059476Y0282848D02*
X0058810Y0282848D01*
X0058877Y0283447D02*
X0058211Y0283447D01*
X0058324Y0284045D02*
X0057613Y0284045D01*
X0058076Y0284644D02*
X0057114Y0284644D01*
X0057362Y0285242D02*
X0057828Y0285242D01*
X0057595Y0285805D02*
X0057595Y0287795D01*
X0058356Y0289632D01*
X0059224Y0290500D01*
X0055966Y0290500D01*
X0056834Y0289632D01*
X0057595Y0287795D01*
X0057595Y0285805D01*
X0057595Y0285841D02*
X0057595Y0285841D01*
X0057595Y0286439D02*
X0057595Y0286439D01*
X0057595Y0287038D02*
X0057595Y0287038D01*
X0057595Y0287636D02*
X0057595Y0287636D01*
X0057413Y0288235D02*
X0057777Y0288235D01*
X0058025Y0288833D02*
X0057165Y0288833D01*
X0056917Y0289432D02*
X0058273Y0289432D01*
X0058754Y0290030D02*
X0056436Y0290030D01*
X0048754Y0290030D02*
X0046436Y0290030D01*
X0046917Y0289432D02*
X0048273Y0289432D01*
X0039224Y0290500D02*
X0038356Y0289632D01*
X0037595Y0287795D01*
X0037595Y0285805D01*
X0037595Y0287795D01*
X0036834Y0289632D01*
X0035966Y0290500D01*
X0039224Y0290500D01*
X0038754Y0290030D02*
X0036436Y0290030D01*
X0036917Y0289432D02*
X0038273Y0289432D01*
X0038025Y0288833D02*
X0037165Y0288833D01*
X0037413Y0288235D02*
X0037777Y0288235D01*
X0037595Y0287636D02*
X0037595Y0287636D01*
X0037595Y0287038D02*
X0037595Y0287038D01*
X0037595Y0286439D02*
X0037595Y0286439D01*
X0037595Y0285841D02*
X0037595Y0285841D01*
X0037362Y0285242D02*
X0037828Y0285242D01*
X0038076Y0284644D02*
X0037114Y0284644D01*
X0036866Y0284045D02*
X0038324Y0284045D01*
X0038877Y0283447D02*
X0036313Y0283447D01*
X0035714Y0282848D02*
X0039476Y0282848D01*
X0033590Y0281800D02*
X0031601Y0281800D01*
X0029763Y0282561D01*
X0028895Y0283429D01*
X0028895Y0280171D01*
X0029763Y0281039D01*
X0031601Y0281800D01*
X0033590Y0281800D01*
X0031241Y0281651D02*
X0028895Y0281651D01*
X0028895Y0281053D02*
X0029796Y0281053D01*
X0029178Y0280454D02*
X0028895Y0280454D01*
X0028895Y0282250D02*
X0030515Y0282250D01*
X0029476Y0282848D02*
X0028895Y0282848D01*
X0028895Y0273272D02*
X0029052Y0273272D01*
X0028895Y0272673D02*
X0029651Y0272673D01*
X0028895Y0272075D02*
X0030937Y0272075D01*
X0030807Y0271476D02*
X0028895Y0271476D01*
X0028895Y0270878D02*
X0029701Y0270878D01*
X0029004Y0270279D02*
X0028895Y0270279D01*
X0044405Y0266688D02*
X0049444Y0266688D01*
X0053095Y0257300D02*
X0032595Y0236800D01*
X0037595Y0236763D02*
X0053895Y0236763D01*
X0054494Y0237361D02*
X0037595Y0237361D01*
X0037527Y0237960D02*
X0055092Y0237960D01*
X0055691Y0238558D02*
X0037279Y0238558D01*
X0037215Y0239157D02*
X0056289Y0239157D01*
X0056888Y0239755D02*
X0037813Y0239755D01*
X0038412Y0240354D02*
X0057486Y0240354D01*
X0058085Y0240952D02*
X0039010Y0240952D01*
X0039609Y0241551D02*
X0058683Y0241551D01*
X0059282Y0242149D02*
X0040207Y0242149D01*
X0040806Y0242748D02*
X0059880Y0242748D01*
X0060479Y0243346D02*
X0041404Y0243346D01*
X0042003Y0243945D02*
X0061077Y0243945D01*
X0061676Y0244543D02*
X0042601Y0244543D01*
X0043200Y0245142D02*
X0062274Y0245142D01*
X0062786Y0245740D02*
X0043798Y0245740D01*
X0044397Y0246339D02*
X0062538Y0246339D01*
X0062395Y0246937D02*
X0044995Y0246937D01*
X0045594Y0247536D02*
X0062395Y0247536D01*
X0062395Y0248134D02*
X0046192Y0248134D01*
X0046791Y0248733D02*
X0062485Y0248733D01*
X0062733Y0249332D02*
X0047389Y0249332D01*
X0047988Y0249930D02*
X0062981Y0249930D01*
X0063418Y0250529D02*
X0048586Y0250529D01*
X0049185Y0251127D02*
X0064017Y0251127D01*
X0064935Y0251726D02*
X0049783Y0251726D01*
X0031421Y0251726D02*
X0028895Y0251726D01*
X0028895Y0252324D02*
X0030335Y0252324D01*
X0029401Y0252923D02*
X0028895Y0252923D01*
X0028895Y0251127D02*
X0029976Y0251127D01*
X0029253Y0250529D02*
X0028895Y0250529D01*
X0037595Y0236164D02*
X0053297Y0236164D01*
X0053595Y0234200D02*
X0066995Y0247600D01*
X0066995Y0237600D02*
X0062395Y0233000D01*
X0048795Y0233000D01*
X0042595Y0226800D01*
X0046295Y0232200D02*
X0037995Y0232200D01*
X0032595Y0226800D01*
X0030577Y0231376D02*
X0028895Y0231376D01*
X0028895Y0230778D02*
X0029502Y0230778D01*
X0029763Y0231039D02*
X0028895Y0230171D01*
X0028895Y0233429D01*
X0029763Y0232561D01*
X0031601Y0231800D01*
X0033590Y0231800D01*
X0031601Y0231800D01*
X0029763Y0231039D01*
X0028903Y0230179D02*
X0028895Y0230179D01*
X0028895Y0231975D02*
X0031179Y0231975D01*
X0029751Y0232573D02*
X0028895Y0232573D01*
X0028895Y0233172D02*
X0029152Y0233172D01*
X0034011Y0231975D02*
X0035507Y0231975D01*
X0035439Y0232573D02*
X0036106Y0232573D01*
X0036038Y0233172D02*
X0036704Y0233172D01*
X0036636Y0233770D02*
X0037303Y0233770D01*
X0037000Y0234369D02*
X0046201Y0234369D01*
X0046800Y0234967D02*
X0037248Y0234967D01*
X0037496Y0235566D02*
X0047398Y0235566D01*
X0048295Y0234200D02*
X0053595Y0234200D01*
X0048295Y0234200D02*
X0046295Y0232200D01*
X0034909Y0231376D02*
X0034613Y0231376D01*
X0072595Y0226800D02*
X0075195Y0229400D01*
X0077995Y0229400D01*
X0080395Y0231800D01*
X0082595Y0231800D01*
X0095998Y0231900D02*
X0097098Y0233000D01*
X0099195Y0233000D01*
X0123695Y0242748D02*
X0179795Y0242748D01*
X0179845Y0243346D02*
X0123695Y0243346D01*
X0137195Y0256400D02*
X0137195Y0260400D01*
X0155095Y0278300D01*
X0159495Y0278300D01*
X0160595Y0279400D01*
X0168595Y0279400D01*
X0169795Y0280600D01*
X0178095Y0280600D01*
X0179295Y0281800D01*
X0187595Y0281800D01*
X0190308Y0282250D02*
X0190515Y0282250D01*
X0182595Y0286800D02*
X0177595Y0281800D01*
X0169295Y0281800D01*
X0168095Y0280600D01*
X0159795Y0280600D01*
X0158695Y0279500D01*
X0153195Y0279500D01*
X0149195Y0275500D01*
X0146195Y0275500D02*
X0151395Y0280700D01*
X0158195Y0280700D01*
X0159295Y0281800D01*
X0167595Y0281800D01*
X0172595Y0286800D01*
X0162595Y0286800D02*
X0157695Y0281900D01*
X0149495Y0281900D01*
X0143195Y0275600D01*
X0143895Y0278100D02*
X0152595Y0286800D01*
X0148025Y0288833D02*
X0147165Y0288833D01*
X0147413Y0288235D02*
X0147777Y0288235D01*
X0147595Y0287795D02*
X0147595Y0285805D01*
X0147595Y0287795D01*
X0148356Y0289632D01*
X0149224Y0290500D01*
X0145966Y0290500D01*
X0146834Y0289632D01*
X0147595Y0287795D01*
X0147595Y0287636D02*
X0147595Y0287636D01*
X0147595Y0287038D02*
X0147595Y0287038D01*
X0147595Y0286439D02*
X0147595Y0286439D01*
X0147595Y0285841D02*
X0147595Y0285841D01*
X0147362Y0285242D02*
X0147828Y0285242D01*
X0148076Y0284644D02*
X0147114Y0284644D01*
X0146866Y0284045D02*
X0147578Y0284045D01*
X0146979Y0283447D02*
X0146313Y0283447D01*
X0146381Y0282848D02*
X0145714Y0282848D01*
X0145782Y0282250D02*
X0144675Y0282250D01*
X0145184Y0281651D02*
X0132807Y0281651D01*
X0133405Y0281053D02*
X0144585Y0281053D01*
X0143987Y0280454D02*
X0134004Y0280454D01*
X0134602Y0279856D02*
X0143388Y0279856D01*
X0143895Y0278100D02*
X0142095Y0278100D01*
X0140595Y0276600D01*
X0140595Y0266200D01*
X0134595Y0260200D01*
X0131893Y0273870D02*
X0067988Y0273870D01*
X0066395Y0275800D02*
X0072395Y0281800D01*
X0130395Y0281800D01*
X0134675Y0282250D02*
X0140515Y0282250D01*
X0139476Y0282848D02*
X0135714Y0282848D01*
X0136313Y0283447D02*
X0138877Y0283447D01*
X0138324Y0284045D02*
X0136866Y0284045D01*
X0137114Y0284644D02*
X0138076Y0284644D01*
X0137828Y0285242D02*
X0137362Y0285242D01*
X0137595Y0285805D02*
X0137595Y0287795D01*
X0138356Y0289632D01*
X0139224Y0290500D01*
X0135966Y0290500D01*
X0136834Y0289632D01*
X0137595Y0287795D01*
X0137595Y0285805D01*
X0137595Y0285841D02*
X0137595Y0285841D01*
X0137595Y0286439D02*
X0137595Y0286439D01*
X0137595Y0287038D02*
X0137595Y0287038D01*
X0137595Y0287636D02*
X0137595Y0287636D01*
X0137413Y0288235D02*
X0137777Y0288235D01*
X0138025Y0288833D02*
X0137165Y0288833D01*
X0136917Y0289432D02*
X0138273Y0289432D01*
X0138754Y0290030D02*
X0136436Y0290030D01*
X0146436Y0290030D02*
X0148754Y0290030D01*
X0148273Y0289432D02*
X0146917Y0289432D01*
X0140989Y0279257D02*
X0135201Y0279257D01*
X0135286Y0278659D02*
X0140391Y0278659D01*
X0139792Y0278060D02*
X0135286Y0278060D01*
X0135346Y0277462D02*
X0139194Y0277462D01*
X0138995Y0276863D02*
X0135858Y0276863D01*
X0136106Y0276265D02*
X0138995Y0276265D01*
X0138995Y0275666D02*
X0136176Y0275666D01*
X0136161Y0275068D02*
X0138995Y0275068D01*
X0138995Y0274469D02*
X0135913Y0274469D01*
X0184195Y0241474D02*
X0185710Y0242989D01*
X0199003Y0242989D01*
X0199941Y0243926D01*
X0203095Y0247081D01*
X0203095Y0231783D01*
X0202989Y0231800D01*
X0202895Y0231800D01*
X0202895Y0227100D01*
X0202295Y0227100D01*
X0202295Y0226500D01*
X0197595Y0226500D01*
X0197595Y0226406D01*
X0197718Y0225629D01*
X0197961Y0224881D01*
X0198319Y0224179D01*
X0198781Y0223543D01*
X0199224Y0223100D01*
X0195966Y0223100D01*
X0196834Y0223968D01*
X0197595Y0225805D01*
X0197595Y0227795D01*
X0196834Y0229632D01*
X0195427Y0231039D01*
X0193590Y0231800D01*
X0191601Y0231800D01*
X0189763Y0231039D01*
X0188356Y0229632D01*
X0187595Y0227795D01*
X0186834Y0229632D01*
X0185427Y0231039D01*
X0184195Y0231549D01*
X0184195Y0241474D01*
X0184272Y0241551D02*
X0203095Y0241551D01*
X0203095Y0242149D02*
X0184870Y0242149D01*
X0185469Y0242748D02*
X0203095Y0242748D01*
X0203095Y0243346D02*
X0199361Y0243346D01*
X0199941Y0243926D02*
X0199941Y0243926D01*
X0199959Y0243945D02*
X0203095Y0243945D01*
X0203095Y0244543D02*
X0200558Y0244543D01*
X0201156Y0245142D02*
X0203095Y0245142D01*
X0203095Y0245740D02*
X0201755Y0245740D01*
X0202353Y0246339D02*
X0203095Y0246339D01*
X0203095Y0246937D02*
X0202952Y0246937D01*
X0204995Y0244543D02*
X0205295Y0244543D01*
X0204995Y0243945D02*
X0205850Y0243945D01*
X0204995Y0243346D02*
X0206776Y0243346D01*
X0208168Y0243346D02*
X0208768Y0243346D01*
X0208768Y0242973D02*
X0208859Y0242973D01*
X0209627Y0243126D01*
X0210350Y0243425D01*
X0211000Y0243860D01*
X0211554Y0244414D01*
X0211989Y0245064D01*
X0212288Y0245787D01*
X0212441Y0246555D01*
X0212441Y0246646D01*
X0208768Y0246646D01*
X0208768Y0242973D01*
X0208768Y0243945D02*
X0208168Y0243945D01*
X0208168Y0244543D02*
X0208768Y0244543D01*
X0208768Y0245142D02*
X0208168Y0245142D01*
X0208168Y0245740D02*
X0208768Y0245740D01*
X0208768Y0246339D02*
X0208168Y0246339D01*
X0208768Y0246937D02*
X0216217Y0246937D01*
X0215570Y0246339D02*
X0212398Y0246339D01*
X0212269Y0245740D02*
X0215120Y0245740D01*
X0214804Y0245142D02*
X0212021Y0245142D01*
X0211640Y0244543D02*
X0214588Y0244543D01*
X0214457Y0243945D02*
X0211085Y0243945D01*
X0210159Y0243346D02*
X0218797Y0243346D01*
X0218798Y0242748D02*
X0219397Y0242748D01*
X0219397Y0242149D02*
X0218798Y0242149D01*
X0218798Y0241551D02*
X0219397Y0241551D01*
X0219397Y0240952D02*
X0218798Y0240952D01*
X0218798Y0240354D02*
X0219397Y0240354D01*
X0219397Y0239755D02*
X0218798Y0239755D01*
X0218798Y0239157D02*
X0219397Y0239157D01*
X0219397Y0238558D02*
X0218798Y0238558D01*
X0218551Y0238558D02*
X0204995Y0238558D01*
X0204995Y0237960D02*
X0220934Y0237960D01*
X0221532Y0238558D02*
X0219644Y0238558D01*
X0220335Y0237361D02*
X0208890Y0237361D01*
X0206700Y0237361D02*
X0204995Y0237361D01*
X0204995Y0236763D02*
X0206101Y0236763D01*
X0205705Y0236164D02*
X0204995Y0236164D01*
X0204995Y0235566D02*
X0205705Y0235566D01*
X0205705Y0234967D02*
X0204995Y0234967D01*
X0204995Y0234369D02*
X0205970Y0234369D01*
X0206568Y0233770D02*
X0204995Y0233770D01*
X0204995Y0233172D02*
X0226295Y0233172D01*
X0226295Y0233770D02*
X0209022Y0233770D01*
X0210563Y0231376D02*
X0204995Y0231376D01*
X0205013Y0230778D02*
X0209563Y0230778D01*
X0209338Y0230614D02*
X0208781Y0230057D01*
X0208319Y0229421D01*
X0207961Y0228719D01*
X0207718Y0227971D01*
X0207595Y0227194D01*
X0207595Y0227100D01*
X0212295Y0227100D01*
X0212295Y0231800D01*
X0212202Y0231800D01*
X0211424Y0231677D01*
X0210676Y0231434D01*
X0209975Y0231076D01*
X0209338Y0230614D01*
X0208903Y0230179D02*
X0205721Y0230179D01*
X0206320Y0229581D02*
X0208435Y0229581D01*
X0208095Y0228982D02*
X0206670Y0228982D01*
X0206918Y0228384D02*
X0207852Y0228384D01*
X0207689Y0227785D02*
X0207166Y0227785D01*
X0207195Y0227187D02*
X0207595Y0227187D01*
X0207195Y0226588D02*
X0212295Y0226588D01*
X0212295Y0227187D02*
X0212895Y0227187D01*
X0212895Y0227100D02*
X0212895Y0231800D01*
X0212989Y0231800D01*
X0213766Y0231677D01*
X0214514Y0231434D01*
X0215216Y0231076D01*
X0215852Y0230614D01*
X0216409Y0230057D01*
X0216872Y0229421D01*
X0217229Y0228719D01*
X0217472Y0227971D01*
X0217595Y0227194D01*
X0217595Y0227100D01*
X0212895Y0227100D01*
X0212895Y0226588D02*
X0217995Y0226588D01*
X0217995Y0225990D02*
X0217529Y0225990D01*
X0217395Y0225391D02*
X0218200Y0225391D01*
X0218448Y0224793D02*
X0217184Y0224793D01*
X0216879Y0224194D02*
X0218696Y0224194D01*
X0219294Y0223596D02*
X0216447Y0223596D01*
X0217595Y0227187D02*
X0217995Y0227187D01*
X0218024Y0227785D02*
X0217501Y0227785D01*
X0217338Y0228384D02*
X0218272Y0228384D01*
X0218520Y0228982D02*
X0217095Y0228982D01*
X0216755Y0229581D02*
X0218870Y0229581D01*
X0219469Y0230179D02*
X0216287Y0230179D01*
X0215627Y0230778D02*
X0220178Y0230778D01*
X0221623Y0231376D02*
X0214627Y0231376D01*
X0212895Y0231376D02*
X0212295Y0231376D01*
X0212295Y0230778D02*
X0212895Y0230778D01*
X0212895Y0230179D02*
X0212295Y0230179D01*
X0212295Y0229581D02*
X0212895Y0229581D01*
X0212895Y0228982D02*
X0212295Y0228982D01*
X0212295Y0228384D02*
X0212895Y0228384D01*
X0212895Y0227785D02*
X0212295Y0227785D01*
X0207661Y0225990D02*
X0207195Y0225990D01*
X0206991Y0225391D02*
X0207796Y0225391D01*
X0208006Y0224793D02*
X0206743Y0224793D01*
X0206495Y0224194D02*
X0208311Y0224194D01*
X0208743Y0223596D02*
X0205896Y0223596D01*
X0202895Y0227187D02*
X0202295Y0227187D01*
X0202295Y0227100D02*
X0202295Y0231800D01*
X0202202Y0231800D01*
X0201424Y0231677D01*
X0200676Y0231434D01*
X0199975Y0231076D01*
X0199338Y0230614D01*
X0198781Y0230057D01*
X0198319Y0229421D01*
X0197961Y0228719D01*
X0197718Y0227971D01*
X0197595Y0227194D01*
X0197595Y0227100D01*
X0202295Y0227100D01*
X0202295Y0226588D02*
X0197595Y0226588D01*
X0197595Y0225990D02*
X0197661Y0225990D01*
X0197796Y0225391D02*
X0197423Y0225391D01*
X0197176Y0224793D02*
X0198006Y0224793D01*
X0198311Y0224194D02*
X0196928Y0224194D01*
X0196462Y0223596D02*
X0198743Y0223596D01*
X0197595Y0227187D02*
X0197595Y0227187D01*
X0197595Y0227785D02*
X0197689Y0227785D01*
X0197852Y0228384D02*
X0197351Y0228384D01*
X0197103Y0228982D02*
X0198095Y0228982D01*
X0198435Y0229581D02*
X0196855Y0229581D01*
X0196287Y0230179D02*
X0198903Y0230179D01*
X0199563Y0230778D02*
X0195689Y0230778D01*
X0194613Y0231376D02*
X0200563Y0231376D01*
X0202295Y0231376D02*
X0202895Y0231376D01*
X0202895Y0230778D02*
X0202295Y0230778D01*
X0202295Y0230179D02*
X0202895Y0230179D01*
X0202895Y0229581D02*
X0202295Y0229581D01*
X0202295Y0228982D02*
X0202895Y0228982D01*
X0202895Y0228384D02*
X0202295Y0228384D01*
X0202295Y0227785D02*
X0202895Y0227785D01*
X0203095Y0231975D02*
X0184195Y0231975D01*
X0184195Y0232573D02*
X0203095Y0232573D01*
X0203095Y0233172D02*
X0184195Y0233172D01*
X0184195Y0233770D02*
X0203095Y0233770D01*
X0203095Y0234369D02*
X0184195Y0234369D01*
X0184195Y0234967D02*
X0203095Y0234967D01*
X0203095Y0235566D02*
X0184195Y0235566D01*
X0184195Y0236164D02*
X0203095Y0236164D01*
X0203095Y0236763D02*
X0184195Y0236763D01*
X0184195Y0237361D02*
X0203095Y0237361D01*
X0203095Y0237960D02*
X0184195Y0237960D01*
X0184195Y0238558D02*
X0203095Y0238558D01*
X0203095Y0239157D02*
X0184195Y0239157D01*
X0184195Y0239755D02*
X0203095Y0239755D01*
X0203095Y0240354D02*
X0184195Y0240354D01*
X0184195Y0240952D02*
X0203095Y0240952D01*
X0204995Y0240952D02*
X0214986Y0240952D01*
X0214704Y0241551D02*
X0204995Y0241551D01*
X0204995Y0242149D02*
X0214514Y0242149D01*
X0214419Y0242748D02*
X0204995Y0242748D01*
X0204995Y0240354D02*
X0215380Y0240354D01*
X0215927Y0239755D02*
X0204995Y0239755D01*
X0204995Y0239157D02*
X0216741Y0239157D01*
X0221454Y0239157D02*
X0222131Y0239157D01*
X0222268Y0239755D02*
X0222729Y0239755D01*
X0222815Y0240354D02*
X0223328Y0240354D01*
X0223209Y0240952D02*
X0223595Y0240952D01*
X0223595Y0241551D02*
X0223491Y0241551D01*
X0223391Y0245142D02*
X0223595Y0245142D01*
X0223595Y0245740D02*
X0223075Y0245740D01*
X0222625Y0246339D02*
X0223595Y0246339D01*
X0223595Y0246937D02*
X0221978Y0246937D01*
X0220982Y0247536D02*
X0223595Y0247536D01*
X0223595Y0248134D02*
X0212276Y0248134D01*
X0212401Y0247536D02*
X0217213Y0247536D01*
X0218798Y0247536D02*
X0219397Y0247536D01*
X0219397Y0246937D02*
X0218798Y0246937D01*
X0218798Y0246339D02*
X0219397Y0246339D01*
X0219397Y0245740D02*
X0218798Y0245740D01*
X0218798Y0245142D02*
X0219397Y0245142D01*
X0219397Y0244543D02*
X0218798Y0244543D01*
X0218798Y0243945D02*
X0219397Y0243945D01*
X0223595Y0248733D02*
X0212028Y0248733D01*
X0211652Y0249332D02*
X0223595Y0249332D01*
X0223595Y0249930D02*
X0211103Y0249930D01*
X0210202Y0250529D02*
X0223595Y0250529D01*
X0223595Y0251127D02*
X0206576Y0251127D01*
X0206686Y0251726D02*
X0223595Y0251726D01*
X0223595Y0252324D02*
X0206686Y0252324D01*
X0206686Y0252923D02*
X0223595Y0252923D01*
X0223595Y0253521D02*
X0206686Y0253521D01*
X0206686Y0254120D02*
X0223595Y0254120D01*
X0223595Y0254718D02*
X0206174Y0254718D01*
X0205576Y0255317D02*
X0223595Y0255317D01*
X0223595Y0255915D02*
X0205445Y0255915D01*
X0205445Y0256514D02*
X0223595Y0256514D01*
X0223595Y0257112D02*
X0204995Y0257112D01*
X0204995Y0257711D02*
X0223595Y0257711D01*
X0223595Y0258309D02*
X0204995Y0258309D01*
X0204995Y0258908D02*
X0223595Y0258908D01*
X0223595Y0259506D02*
X0204995Y0259506D01*
X0204995Y0260105D02*
X0223595Y0260105D01*
X0223595Y0260703D02*
X0204995Y0260703D01*
X0204995Y0261302D02*
X0223595Y0261302D01*
X0223595Y0261900D02*
X0204995Y0261900D01*
X0204995Y0262499D02*
X0223595Y0262499D01*
X0217119Y0266090D02*
X0212411Y0266090D01*
X0206617Y0263097D02*
X0204995Y0263097D01*
X0204995Y0263696D02*
X0205784Y0263696D01*
X0205251Y0264294D02*
X0204995Y0264294D01*
X0203395Y0252700D02*
X0203345Y0252650D01*
X0203295Y0252700D01*
X0205977Y0250529D02*
X0206733Y0250529D01*
X0205832Y0249930D02*
X0205379Y0249930D01*
X0205283Y0249332D02*
X0204995Y0249332D01*
X0208168Y0249332D02*
X0208768Y0249332D01*
X0208768Y0249930D02*
X0208168Y0249930D01*
X0208168Y0250529D02*
X0208768Y0250529D01*
X0208768Y0248733D02*
X0208168Y0248733D01*
X0208168Y0248134D02*
X0208768Y0248134D01*
X0208768Y0247536D02*
X0208168Y0247536D01*
X0223979Y0236763D02*
X0226295Y0236763D01*
X0226295Y0237361D02*
X0224578Y0237361D01*
X0225176Y0237960D02*
X0226295Y0237960D01*
X0226295Y0238558D02*
X0225775Y0238558D01*
X0226295Y0236164D02*
X0223381Y0236164D01*
X0222782Y0235566D02*
X0226295Y0235566D01*
X0226295Y0234967D02*
X0222184Y0234967D01*
X0221585Y0234369D02*
X0226295Y0234369D01*
X0226295Y0232573D02*
X0204995Y0232573D01*
X0204995Y0231975D02*
X0226295Y0231975D01*
X0226295Y0231376D02*
X0223568Y0231376D01*
X0225013Y0230778D02*
X0226295Y0230778D01*
X0226295Y0230179D02*
X0225721Y0230179D01*
X0190577Y0231376D02*
X0184613Y0231376D01*
X0185689Y0230778D02*
X0189502Y0230778D01*
X0188903Y0230179D02*
X0186287Y0230179D01*
X0186855Y0229581D02*
X0188335Y0229581D01*
X0188087Y0228982D02*
X0187103Y0228982D01*
X0187351Y0228384D02*
X0187839Y0228384D01*
X0187595Y0227795D02*
X0187595Y0225805D01*
X0186834Y0223968D01*
X0185966Y0223100D01*
X0189224Y0223100D01*
X0188356Y0223968D01*
X0187595Y0225805D01*
X0187595Y0227795D01*
X0187595Y0227785D02*
X0187595Y0227785D01*
X0187595Y0227187D02*
X0187595Y0227187D01*
X0187595Y0226588D02*
X0187595Y0226588D01*
X0187595Y0225990D02*
X0187595Y0225990D01*
X0187423Y0225391D02*
X0187767Y0225391D01*
X0188015Y0224793D02*
X0187176Y0224793D01*
X0186928Y0224194D02*
X0188263Y0224194D01*
X0188729Y0223596D02*
X0186462Y0223596D01*
X0070515Y0282250D02*
X0064675Y0282250D01*
X0065714Y0282848D02*
X0069476Y0282848D01*
X0068877Y0283447D02*
X0066313Y0283447D01*
X0066866Y0284045D02*
X0068324Y0284045D01*
X0068076Y0284644D02*
X0067114Y0284644D01*
X0067362Y0285242D02*
X0067828Y0285242D01*
X0067595Y0285805D02*
X0067595Y0287795D01*
X0068356Y0289632D01*
X0069224Y0290500D01*
X0065966Y0290500D01*
X0066834Y0289632D01*
X0067595Y0287795D01*
X0067595Y0285805D01*
X0067595Y0285841D02*
X0067595Y0285841D01*
X0067595Y0286439D02*
X0067595Y0286439D01*
X0067595Y0287038D02*
X0067595Y0287038D01*
X0067595Y0287636D02*
X0067595Y0287636D01*
X0067413Y0288235D02*
X0067777Y0288235D01*
X0068025Y0288833D02*
X0067165Y0288833D01*
X0066917Y0289432D02*
X0068273Y0289432D01*
X0068754Y0290030D02*
X0066436Y0290030D01*
X0054883Y0282250D02*
X0054675Y0282250D01*
X0216429Y0290030D02*
X0219320Y0290030D01*
X0218722Y0289432D02*
X0216863Y0289432D01*
X0217171Y0288833D02*
X0218458Y0288833D01*
X0218210Y0288235D02*
X0217386Y0288235D01*
X0217525Y0287636D02*
X0217995Y0287636D01*
D16*
X0188895Y0261900D03*
X0183895Y0261900D03*
X0178895Y0261900D03*
X0199695Y0253200D03*
X0203395Y0252700D03*
X0203354Y0255722D03*
X0184795Y0241000D03*
X0170195Y0243398D03*
X0166995Y0239400D03*
X0167595Y0231800D03*
X0143595Y0249500D03*
X0140995Y0247400D03*
X0137195Y0256400D03*
X0134595Y0260200D03*
X0128695Y0262900D03*
X0119795Y0267400D03*
X0116195Y0265400D03*
X0114295Y0257300D03*
X0111695Y0255200D03*
X0109495Y0257400D03*
X0107195Y0255300D03*
X0099995Y0252200D03*
X0096695Y0252400D03*
X0099395Y0261800D03*
X0096695Y0264600D03*
X0103295Y0268700D03*
X0105595Y0273800D03*
X0133686Y0275600D03*
X0143195Y0275600D03*
X0146195Y0275500D03*
X0149195Y0275500D03*
X0153895Y0264400D03*
X0120895Y0253100D03*
X0116695Y0247000D03*
X0128795Y0246600D03*
X0112595Y0238500D03*
X0057795Y0260600D03*
X0049095Y0260600D03*
X0042995Y0268800D03*
X0049395Y0272600D03*
X0066395Y0275800D03*
X0207795Y0235500D03*
D17*
X0220595Y0235500D01*
X0225095Y0240000D01*
X0225095Y0284300D01*
X0222595Y0286800D01*
X0193595Y0263900D02*
X0193495Y0264000D01*
X0184795Y0241000D02*
X0184795Y0237100D01*
X0189795Y0232100D01*
X0197295Y0232100D01*
X0202595Y0226800D01*
M02*
