G75*
%MOIN*%
%OFA0B0*%
%FSLAX25Y25*%
%IPPOS*%
%LPD*%
%AMOC8*
5,1,8,0,0,1.08239X$1,22.5*
%
%ADD10C,0.00000*%
%ADD11C,0.00700*%
%ADD12C,0.00600*%
%ADD13C,0.01000*%
%ADD14C,0.01200*%
%ADD15C,0.00100*%
%ADD16C,0.00394*%
%ADD17R,0.11575X0.02913*%
%ADD18C,0.00039*%
%ADD19C,0.00200*%
D10*
X0027595Y0218000D02*
X0027595Y0288000D01*
X0227595Y0288000D01*
X0227595Y0218000D01*
X0027595Y0218000D01*
D11*
X0040386Y0229172D02*
X0041943Y0229172D01*
X0039608Y0231508D01*
X0040386Y0232286D02*
X0038829Y0230729D01*
X0041433Y0233333D02*
X0041823Y0232944D01*
X0044937Y0232944D01*
X0045326Y0232555D01*
X0043769Y0230998D01*
X0046845Y0230552D02*
X0046845Y0228350D01*
X0046845Y0229451D02*
X0050148Y0229451D01*
X0049047Y0228350D01*
X0052045Y0228350D02*
X0052045Y0230552D01*
X0052045Y0229451D02*
X0055348Y0229451D01*
X0054247Y0228350D01*
X0054247Y0232033D02*
X0053697Y0232584D01*
X0053697Y0234235D01*
X0054797Y0234235D02*
X0055348Y0233685D01*
X0055348Y0232584D01*
X0054797Y0232033D01*
X0054247Y0232033D01*
X0052596Y0232033D02*
X0052045Y0232584D01*
X0052045Y0233685D01*
X0052596Y0234235D01*
X0054797Y0234235D01*
X0050148Y0233685D02*
X0049597Y0234235D01*
X0049047Y0234235D01*
X0048497Y0233685D01*
X0048497Y0232584D01*
X0049047Y0232033D01*
X0049597Y0232033D01*
X0050148Y0232584D01*
X0050148Y0233685D01*
X0048497Y0233685D02*
X0047946Y0234235D01*
X0047396Y0234235D01*
X0046845Y0233685D01*
X0046845Y0232584D01*
X0047396Y0232033D01*
X0047946Y0232033D01*
X0048497Y0232584D01*
X0059645Y0233134D02*
X0062948Y0233134D01*
X0061847Y0232033D01*
X0061847Y0230552D02*
X0059645Y0230552D01*
X0059645Y0232033D02*
X0059645Y0234235D01*
X0059645Y0235716D02*
X0061847Y0237918D01*
X0062397Y0237918D01*
X0062948Y0237368D01*
X0062948Y0236267D01*
X0062397Y0235716D01*
X0059645Y0235716D02*
X0059645Y0237918D01*
X0059548Y0243645D02*
X0059548Y0244746D01*
X0059548Y0244196D02*
X0056245Y0244196D01*
X0056245Y0244746D02*
X0056245Y0243645D01*
X0056796Y0246101D02*
X0056245Y0246651D01*
X0056245Y0247752D01*
X0056796Y0248302D01*
X0056796Y0249784D02*
X0056245Y0250334D01*
X0056245Y0251435D01*
X0056796Y0251986D01*
X0057346Y0251986D01*
X0057897Y0251435D01*
X0057897Y0250334D01*
X0058447Y0249784D01*
X0058997Y0249784D01*
X0059548Y0250334D01*
X0059548Y0251435D01*
X0058997Y0251986D01*
X0059548Y0253467D02*
X0059548Y0255118D01*
X0058997Y0255669D01*
X0057897Y0255669D01*
X0057346Y0255118D01*
X0057346Y0253467D01*
X0056245Y0253467D02*
X0059548Y0253467D01*
X0058997Y0248302D02*
X0059548Y0247752D01*
X0059548Y0246651D01*
X0058997Y0246101D01*
X0056796Y0246101D01*
X0049095Y0252000D02*
X0048544Y0251450D01*
X0047443Y0251450D01*
X0046893Y0252000D01*
X0046893Y0253101D01*
X0047994Y0253101D01*
X0049095Y0254202D02*
X0049095Y0252000D01*
X0049095Y0254202D02*
X0048544Y0254753D01*
X0047443Y0254753D01*
X0046893Y0254202D01*
X0045411Y0254753D02*
X0045411Y0251450D01*
X0043210Y0251450D02*
X0043210Y0254753D01*
X0041728Y0254753D02*
X0040077Y0254753D01*
X0039526Y0254202D01*
X0039526Y0252000D01*
X0040077Y0251450D01*
X0041728Y0251450D01*
X0041728Y0254753D01*
X0043210Y0251450D02*
X0045411Y0254753D01*
X0045502Y0260750D02*
X0046603Y0260750D01*
X0047153Y0261300D01*
X0046052Y0262401D02*
X0045502Y0262401D01*
X0044951Y0261851D01*
X0044951Y0261300D01*
X0045502Y0260750D01*
X0045502Y0262401D02*
X0044951Y0262952D01*
X0044951Y0263502D01*
X0045502Y0264053D01*
X0046603Y0264053D01*
X0047153Y0263502D01*
X0048229Y0266432D02*
X0048229Y0269735D01*
X0046577Y0269735D01*
X0046027Y0269185D01*
X0046027Y0268084D01*
X0046577Y0267533D01*
X0048229Y0267533D01*
X0047128Y0267533D02*
X0046027Y0266432D01*
X0044546Y0266983D02*
X0043995Y0266432D01*
X0042894Y0266432D01*
X0042344Y0266983D01*
X0042344Y0267533D01*
X0042894Y0268084D01*
X0043995Y0268084D01*
X0044546Y0268634D01*
X0044546Y0269185D01*
X0043995Y0269735D01*
X0042894Y0269735D01*
X0042344Y0269185D01*
X0040863Y0269735D02*
X0038661Y0269735D01*
X0039762Y0269735D02*
X0039762Y0266432D01*
X0039977Y0264053D02*
X0039426Y0263502D01*
X0039426Y0262952D01*
X0039977Y0262401D01*
X0039426Y0261851D01*
X0039426Y0261300D01*
X0039977Y0260750D01*
X0041078Y0260750D01*
X0041628Y0261300D01*
X0042919Y0261300D02*
X0042919Y0260750D01*
X0043470Y0260750D01*
X0043470Y0261300D01*
X0042919Y0261300D01*
X0041628Y0263502D02*
X0041078Y0264053D01*
X0039977Y0264053D01*
X0039977Y0262401D02*
X0040527Y0262401D01*
X0068645Y0267301D02*
X0070847Y0267301D01*
X0071948Y0268402D01*
X0070847Y0269502D01*
X0068645Y0269502D01*
X0068645Y0270984D02*
X0068645Y0273186D01*
X0068645Y0272085D02*
X0071948Y0272085D01*
X0070847Y0270984D01*
X0070297Y0269502D02*
X0070297Y0267301D01*
X0069196Y0274667D02*
X0071397Y0274667D01*
X0071948Y0275217D01*
X0071948Y0276318D01*
X0071397Y0276869D01*
X0069196Y0274667D01*
X0068645Y0275217D01*
X0068645Y0276318D01*
X0069196Y0276869D01*
X0071397Y0276869D01*
X0080945Y0276318D02*
X0081496Y0276869D01*
X0083697Y0276869D01*
X0084248Y0276318D01*
X0084248Y0275217D01*
X0083697Y0274667D01*
X0083147Y0274667D01*
X0082597Y0275217D01*
X0082597Y0276869D01*
X0080945Y0276318D02*
X0080945Y0275217D01*
X0081496Y0274667D01*
X0080945Y0273186D02*
X0083147Y0273186D01*
X0084248Y0272085D01*
X0083147Y0270984D01*
X0080945Y0270984D01*
X0082597Y0270984D02*
X0082597Y0273186D01*
X0090945Y0273186D02*
X0093147Y0273186D01*
X0094248Y0272085D01*
X0093147Y0270984D01*
X0090945Y0270984D01*
X0092597Y0270984D02*
X0092597Y0273186D01*
X0093147Y0274667D02*
X0093697Y0274667D01*
X0094248Y0275217D01*
X0094248Y0276318D01*
X0093697Y0276869D01*
X0093147Y0276869D01*
X0092597Y0276318D01*
X0092597Y0275217D01*
X0093147Y0274667D01*
X0092597Y0275217D02*
X0092046Y0274667D01*
X0091496Y0274667D01*
X0090945Y0275217D01*
X0090945Y0276318D01*
X0091496Y0276869D01*
X0092046Y0276869D01*
X0092597Y0276318D01*
X0100945Y0274667D02*
X0101496Y0274667D01*
X0103697Y0276869D01*
X0104248Y0276869D01*
X0104248Y0274667D01*
X0103147Y0273186D02*
X0100945Y0273186D01*
X0102597Y0273186D02*
X0102597Y0270984D01*
X0103147Y0270984D02*
X0104248Y0272085D01*
X0103147Y0273186D01*
X0103147Y0270984D02*
X0100945Y0270984D01*
X0110945Y0270984D02*
X0113147Y0270984D01*
X0114248Y0272085D01*
X0113147Y0273186D01*
X0110945Y0273186D01*
X0111496Y0274667D02*
X0110945Y0275217D01*
X0110945Y0276318D01*
X0111496Y0276869D01*
X0112046Y0276869D01*
X0112597Y0276318D01*
X0112597Y0274667D01*
X0111496Y0274667D01*
X0112597Y0274667D02*
X0113697Y0275768D01*
X0114248Y0276869D01*
X0112597Y0273186D02*
X0112597Y0270984D01*
X0120845Y0270984D02*
X0123047Y0270984D01*
X0124148Y0272085D01*
X0123047Y0273186D01*
X0120845Y0273186D01*
X0121396Y0274667D02*
X0120845Y0275217D01*
X0120845Y0276318D01*
X0121396Y0276869D01*
X0122497Y0276869D01*
X0123047Y0276318D01*
X0123047Y0275768D01*
X0122497Y0274667D01*
X0124148Y0274667D01*
X0124148Y0276869D01*
X0122497Y0273186D02*
X0122497Y0270984D01*
X0129645Y0270984D02*
X0131847Y0270984D01*
X0132948Y0272085D01*
X0131847Y0273186D01*
X0129645Y0273186D01*
X0131297Y0273186D02*
X0131297Y0270984D01*
X0131297Y0274667D02*
X0131297Y0276869D01*
X0132948Y0276318D02*
X0131297Y0274667D01*
X0132948Y0276318D02*
X0129645Y0276318D01*
X0140845Y0276318D02*
X0140845Y0275217D01*
X0141396Y0274667D01*
X0142497Y0275768D02*
X0142497Y0276318D01*
X0141946Y0276869D01*
X0141396Y0276869D01*
X0140845Y0276318D01*
X0142497Y0276318D02*
X0143047Y0276869D01*
X0143597Y0276869D01*
X0144148Y0276318D01*
X0144148Y0275217D01*
X0143597Y0274667D01*
X0143047Y0273186D02*
X0140845Y0273186D01*
X0142497Y0273186D02*
X0142497Y0270984D01*
X0143047Y0270984D02*
X0144148Y0272085D01*
X0143047Y0273186D01*
X0143047Y0270984D02*
X0140845Y0270984D01*
X0150645Y0270884D02*
X0152847Y0270884D01*
X0153948Y0271985D01*
X0152847Y0273086D01*
X0150645Y0273086D01*
X0150645Y0274567D02*
X0152847Y0276769D01*
X0153397Y0276769D01*
X0153948Y0276218D01*
X0153948Y0275117D01*
X0153397Y0274567D01*
X0152297Y0273086D02*
X0152297Y0270884D01*
X0150645Y0274567D02*
X0150645Y0276769D01*
X0160745Y0276769D02*
X0160745Y0274567D01*
X0160745Y0275668D02*
X0164048Y0275668D01*
X0162947Y0274567D01*
X0162947Y0273086D02*
X0160745Y0273086D01*
X0162397Y0273086D02*
X0162397Y0270884D01*
X0162947Y0270884D02*
X0164048Y0271985D01*
X0162947Y0273086D01*
X0162947Y0270884D02*
X0160745Y0270884D01*
X0171345Y0274667D02*
X0173547Y0276869D01*
X0174097Y0276869D01*
X0174648Y0276318D01*
X0174648Y0275217D01*
X0174097Y0274667D01*
X0171345Y0274667D02*
X0171345Y0276869D01*
X0180945Y0276869D02*
X0180945Y0274667D01*
X0180945Y0275768D02*
X0184248Y0275768D01*
X0183147Y0274667D01*
X0190045Y0275217D02*
X0190596Y0274667D01*
X0192797Y0276869D01*
X0190596Y0276869D01*
X0190045Y0276318D01*
X0190045Y0275217D01*
X0190596Y0274667D02*
X0192797Y0274667D01*
X0193348Y0275217D01*
X0193348Y0276318D01*
X0192797Y0276869D01*
X0192247Y0273186D02*
X0190045Y0273186D01*
X0191697Y0273186D02*
X0191697Y0270984D01*
X0192247Y0270984D02*
X0190045Y0270984D01*
X0192247Y0270984D02*
X0193348Y0272085D01*
X0192247Y0273186D01*
X0200945Y0272635D02*
X0200945Y0271534D01*
X0201496Y0270984D01*
X0201496Y0269693D02*
X0200945Y0269693D01*
X0200945Y0269142D01*
X0201496Y0269142D01*
X0201496Y0269693D01*
X0201496Y0267661D02*
X0200945Y0267110D01*
X0200945Y0266009D01*
X0201496Y0265459D01*
X0202597Y0266560D02*
X0202597Y0267110D01*
X0202046Y0267661D01*
X0201496Y0267661D01*
X0202597Y0267110D02*
X0203147Y0267661D01*
X0203697Y0267661D01*
X0204248Y0267110D01*
X0204248Y0266009D01*
X0203697Y0265459D01*
X0203697Y0270984D02*
X0204248Y0271534D01*
X0204248Y0272635D01*
X0203697Y0273186D01*
X0203147Y0273186D01*
X0202597Y0272635D01*
X0202046Y0273186D01*
X0201496Y0273186D01*
X0200945Y0272635D01*
X0202597Y0272635D02*
X0202597Y0272085D01*
X0202046Y0274667D02*
X0200945Y0275768D01*
X0202046Y0276869D01*
X0204248Y0276869D01*
X0204248Y0274667D02*
X0202046Y0274667D01*
X0210945Y0274667D02*
X0210945Y0276318D01*
X0211496Y0276869D01*
X0213697Y0276869D01*
X0214248Y0276318D01*
X0214248Y0274667D01*
X0210945Y0274667D01*
X0210945Y0273186D02*
X0214248Y0273186D01*
X0214248Y0270984D02*
X0210945Y0270984D01*
X0211496Y0269502D02*
X0210945Y0268952D01*
X0210945Y0267851D01*
X0211496Y0267301D01*
X0213697Y0267301D01*
X0214248Y0267851D01*
X0214248Y0268952D01*
X0213697Y0269502D01*
X0212597Y0269502D02*
X0212597Y0268402D01*
X0212597Y0269502D02*
X0211496Y0269502D01*
X0214248Y0270984D02*
X0210945Y0273186D01*
X0223145Y0273213D02*
X0223145Y0271562D01*
X0223696Y0271011D01*
X0225347Y0271011D01*
X0224797Y0269530D02*
X0225347Y0268980D01*
X0225347Y0267879D01*
X0224797Y0267328D01*
X0223696Y0267328D01*
X0223145Y0267879D01*
X0223145Y0268980D01*
X0223696Y0269530D01*
X0224797Y0269530D01*
X0224246Y0265847D02*
X0226448Y0265847D01*
X0226448Y0263645D02*
X0224246Y0263645D01*
X0223145Y0264746D01*
X0224246Y0265847D01*
X0223145Y0273213D02*
X0225347Y0273213D01*
X0225347Y0274695D02*
X0225347Y0275795D01*
X0225897Y0275245D02*
X0223696Y0275245D01*
X0223145Y0275795D01*
X0194248Y0245284D02*
X0194248Y0243083D01*
X0194248Y0244184D02*
X0190945Y0244184D01*
X0190945Y0241601D02*
X0190945Y0239399D01*
X0194248Y0239399D01*
X0194248Y0241601D01*
X0192597Y0240500D02*
X0192597Y0239399D01*
X0192046Y0237918D02*
X0191496Y0237918D01*
X0190945Y0237368D01*
X0190945Y0236267D01*
X0191496Y0235716D01*
X0192597Y0236267D02*
X0192597Y0237368D01*
X0192046Y0237918D01*
X0193697Y0237918D02*
X0194248Y0237368D01*
X0194248Y0236267D01*
X0193697Y0235716D01*
X0193147Y0235716D01*
X0192597Y0236267D01*
X0194248Y0234235D02*
X0194248Y0232033D01*
X0190945Y0232033D01*
X0190945Y0234235D01*
X0192597Y0233134D02*
X0192597Y0232033D01*
X0192597Y0230552D02*
X0192046Y0230001D01*
X0192046Y0228350D01*
X0190945Y0228350D02*
X0194248Y0228350D01*
X0194248Y0230001D01*
X0193697Y0230552D01*
X0192597Y0230552D01*
X0192046Y0229451D02*
X0190945Y0230552D01*
X0183748Y0230001D02*
X0183197Y0230552D01*
X0182647Y0230552D01*
X0182097Y0230001D01*
X0181546Y0230552D01*
X0180996Y0230552D01*
X0180445Y0230001D01*
X0180445Y0228900D01*
X0180996Y0228350D01*
X0182097Y0229451D02*
X0182097Y0230001D01*
X0183748Y0230001D02*
X0183748Y0228900D01*
X0183197Y0228350D01*
X0183197Y0232033D02*
X0183748Y0232584D01*
X0183748Y0233685D01*
X0183197Y0234235D01*
X0182647Y0234235D01*
X0180445Y0232033D01*
X0180445Y0234235D01*
X0174748Y0233134D02*
X0171445Y0233134D01*
X0171445Y0232033D02*
X0171445Y0234235D01*
X0173647Y0232033D02*
X0174748Y0233134D01*
X0174197Y0230552D02*
X0173647Y0230552D01*
X0173097Y0230001D01*
X0172546Y0230552D01*
X0171996Y0230552D01*
X0171445Y0230001D01*
X0171445Y0228900D01*
X0171996Y0228350D01*
X0173097Y0229451D02*
X0173097Y0230001D01*
X0174197Y0230552D02*
X0174748Y0230001D01*
X0174748Y0228900D01*
X0174197Y0228350D01*
X0164748Y0228900D02*
X0164748Y0230001D01*
X0164197Y0230552D01*
X0163647Y0230552D01*
X0163097Y0230001D01*
X0162546Y0230552D01*
X0161996Y0230552D01*
X0161445Y0230001D01*
X0161445Y0228900D01*
X0161996Y0228350D01*
X0163097Y0229451D02*
X0163097Y0230001D01*
X0164197Y0228350D02*
X0164748Y0228900D01*
X0164197Y0232033D02*
X0164748Y0232584D01*
X0164748Y0233685D01*
X0164197Y0234235D01*
X0161996Y0232033D01*
X0161445Y0232584D01*
X0161445Y0233685D01*
X0161996Y0234235D01*
X0164197Y0234235D01*
X0164197Y0232033D02*
X0161996Y0232033D01*
X0154748Y0232584D02*
X0154197Y0232033D01*
X0153647Y0232033D01*
X0153097Y0232584D01*
X0153097Y0234235D01*
X0154197Y0234235D02*
X0151996Y0234235D01*
X0151445Y0233685D01*
X0151445Y0232584D01*
X0151996Y0232033D01*
X0151445Y0230552D02*
X0151445Y0228350D01*
X0153647Y0230552D01*
X0154197Y0230552D01*
X0154748Y0230001D01*
X0154748Y0228900D01*
X0154197Y0228350D01*
X0154748Y0232584D02*
X0154748Y0233685D01*
X0154197Y0234235D01*
X0144748Y0233685D02*
X0144197Y0234235D01*
X0143647Y0234235D01*
X0143097Y0233685D01*
X0143097Y0232584D01*
X0143647Y0232033D01*
X0144197Y0232033D01*
X0144748Y0232584D01*
X0144748Y0233685D01*
X0143097Y0233685D02*
X0142546Y0234235D01*
X0141996Y0234235D01*
X0141445Y0233685D01*
X0141445Y0232584D01*
X0141996Y0232033D01*
X0142546Y0232033D01*
X0143097Y0232584D01*
X0143647Y0230552D02*
X0144197Y0230552D01*
X0144748Y0230001D01*
X0144748Y0228900D01*
X0144197Y0228350D01*
X0143647Y0230552D02*
X0141445Y0228350D01*
X0141445Y0230552D01*
X0134748Y0230001D02*
X0134748Y0228900D01*
X0134197Y0228350D01*
X0134748Y0230001D02*
X0134197Y0230552D01*
X0133647Y0230552D01*
X0131445Y0228350D01*
X0131445Y0230552D01*
X0131445Y0232033D02*
X0131996Y0232033D01*
X0134197Y0234235D01*
X0134748Y0234235D01*
X0134748Y0232033D01*
X0124748Y0230001D02*
X0124748Y0228900D01*
X0124197Y0228350D01*
X0124748Y0230001D02*
X0124197Y0230552D01*
X0123647Y0230552D01*
X0121445Y0228350D01*
X0121445Y0230552D01*
X0121996Y0232033D02*
X0121445Y0232584D01*
X0121445Y0233685D01*
X0121996Y0234235D01*
X0122546Y0234235D01*
X0123097Y0233685D01*
X0123097Y0232033D01*
X0121996Y0232033D01*
X0123097Y0232033D02*
X0124197Y0233134D01*
X0124748Y0234235D01*
X0114748Y0234235D02*
X0114748Y0232033D01*
X0113097Y0232033D01*
X0113647Y0233134D01*
X0113647Y0233685D01*
X0113097Y0234235D01*
X0111996Y0234235D01*
X0111445Y0233685D01*
X0111445Y0232584D01*
X0111996Y0232033D01*
X0111445Y0230552D02*
X0111445Y0228350D01*
X0113647Y0230552D01*
X0114197Y0230552D01*
X0114748Y0230001D01*
X0114748Y0228900D01*
X0114197Y0228350D01*
X0104148Y0228900D02*
X0103597Y0228350D01*
X0104148Y0228900D02*
X0104148Y0230001D01*
X0103597Y0230552D01*
X0103047Y0230552D01*
X0100845Y0228350D01*
X0100845Y0230552D01*
X0102497Y0232033D02*
X0102497Y0234235D01*
X0104148Y0233685D02*
X0100845Y0233685D01*
X0102497Y0232033D02*
X0104148Y0233685D01*
X0094748Y0233685D02*
X0094197Y0234235D01*
X0093647Y0234235D01*
X0093097Y0233685D01*
X0092546Y0234235D01*
X0091996Y0234235D01*
X0091445Y0233685D01*
X0091445Y0232584D01*
X0091996Y0232033D01*
X0093097Y0233134D02*
X0093097Y0233685D01*
X0094748Y0233685D02*
X0094748Y0232584D01*
X0094197Y0232033D01*
X0094197Y0230552D02*
X0094748Y0230001D01*
X0094748Y0228900D01*
X0094197Y0228350D01*
X0094197Y0230552D02*
X0093647Y0230552D01*
X0091445Y0228350D01*
X0091445Y0230552D01*
X0084748Y0230001D02*
X0084748Y0228900D01*
X0084197Y0228350D01*
X0084748Y0230001D02*
X0084197Y0230552D01*
X0083647Y0230552D01*
X0081445Y0228350D01*
X0081445Y0230552D01*
X0081445Y0232033D02*
X0083647Y0234235D01*
X0084197Y0234235D01*
X0084748Y0233685D01*
X0084748Y0232584D01*
X0084197Y0232033D01*
X0081445Y0232033D02*
X0081445Y0234235D01*
X0076348Y0233134D02*
X0073045Y0233134D01*
X0073045Y0232033D02*
X0073045Y0234235D01*
X0075247Y0232033D02*
X0076348Y0233134D01*
X0075797Y0230552D02*
X0076348Y0230001D01*
X0076348Y0228900D01*
X0075797Y0228350D01*
X0075797Y0230552D02*
X0075247Y0230552D01*
X0073045Y0228350D01*
X0073045Y0230552D01*
X0062948Y0229451D02*
X0061847Y0230552D01*
X0061297Y0230552D02*
X0061297Y0228350D01*
X0061847Y0228350D02*
X0062948Y0229451D01*
X0061847Y0228350D02*
X0059645Y0228350D01*
X0200945Y0228900D02*
X0201496Y0228350D01*
X0200945Y0228900D02*
X0200945Y0230001D01*
X0201496Y0230552D01*
X0202046Y0230552D01*
X0202597Y0230001D01*
X0202597Y0229451D01*
X0202597Y0230001D02*
X0203147Y0230552D01*
X0203697Y0230552D01*
X0204248Y0230001D01*
X0204248Y0228900D01*
X0203697Y0228350D01*
X0201496Y0232033D02*
X0201496Y0232584D01*
X0200945Y0232584D01*
X0200945Y0232033D01*
X0201496Y0232033D01*
X0201496Y0233875D02*
X0200945Y0234425D01*
X0200945Y0235526D01*
X0201496Y0236077D01*
X0202046Y0236077D01*
X0202597Y0235526D01*
X0202597Y0234976D01*
X0202597Y0235526D02*
X0203147Y0236077D01*
X0203697Y0236077D01*
X0204248Y0235526D01*
X0204248Y0234425D01*
X0203697Y0233875D01*
X0204248Y0237558D02*
X0202046Y0237558D01*
X0200945Y0238659D01*
X0202046Y0239760D01*
X0204248Y0239760D01*
X0210945Y0237368D02*
X0210945Y0235716D01*
X0214248Y0235716D01*
X0214248Y0237368D01*
X0213697Y0237918D01*
X0211496Y0237918D01*
X0210945Y0237368D01*
X0210945Y0234235D02*
X0214248Y0234235D01*
X0214248Y0232033D02*
X0210945Y0232033D01*
X0211496Y0230552D02*
X0210945Y0230001D01*
X0210945Y0228900D01*
X0211496Y0228350D01*
X0213697Y0228350D01*
X0214248Y0228900D01*
X0214248Y0230001D01*
X0213697Y0230552D01*
X0212597Y0230552D02*
X0212597Y0229451D01*
X0212597Y0230552D02*
X0211496Y0230552D01*
X0214248Y0232033D02*
X0210945Y0234235D01*
X0222145Y0234389D02*
X0224347Y0234389D01*
X0224347Y0236040D01*
X0223797Y0236590D01*
X0222145Y0236590D01*
X0222145Y0233034D02*
X0222145Y0231933D01*
X0222145Y0232484D02*
X0224347Y0232484D01*
X0224347Y0231933D01*
X0225448Y0232484D02*
X0225998Y0232484D01*
X0225448Y0230452D02*
X0223246Y0230452D01*
X0222145Y0229351D01*
X0223246Y0228250D01*
X0225448Y0228250D01*
D12*
X0172964Y0238542D02*
X0172964Y0239655D01*
X0172408Y0240212D01*
X0170738Y0240212D01*
X0170738Y0241325D02*
X0170738Y0237985D01*
X0172408Y0237985D01*
X0172964Y0238542D01*
X0169339Y0238542D02*
X0169339Y0239655D01*
X0168783Y0240212D01*
X0167669Y0240212D01*
X0167113Y0239655D01*
X0167113Y0239098D01*
X0169339Y0239098D01*
X0169339Y0238542D02*
X0168783Y0237985D01*
X0167669Y0237985D01*
X0165714Y0237985D02*
X0164044Y0237985D01*
X0163488Y0238542D01*
X0164044Y0239098D01*
X0165158Y0239098D01*
X0165714Y0239655D01*
X0165158Y0240212D01*
X0163488Y0240212D01*
X0162089Y0240212D02*
X0161532Y0240212D01*
X0161532Y0237985D01*
X0160976Y0237985D02*
X0162089Y0237985D01*
X0159672Y0238542D02*
X0159116Y0237985D01*
X0157446Y0237985D01*
X0157446Y0237428D02*
X0157446Y0240212D01*
X0159116Y0240212D01*
X0159672Y0239655D01*
X0159672Y0238542D01*
X0158559Y0236872D02*
X0158002Y0236872D01*
X0157446Y0237428D01*
X0156047Y0237985D02*
X0156047Y0240212D01*
X0154377Y0240212D01*
X0153821Y0239655D01*
X0153821Y0237985D01*
X0152422Y0238542D02*
X0152422Y0239655D01*
X0151865Y0240212D01*
X0150752Y0240212D01*
X0150195Y0239655D01*
X0150195Y0239098D01*
X0152422Y0239098D01*
X0152422Y0238542D02*
X0151865Y0237985D01*
X0150752Y0237985D01*
X0148797Y0238542D02*
X0148797Y0239655D01*
X0148240Y0240212D01*
X0146570Y0240212D01*
X0146570Y0241325D02*
X0146570Y0237985D01*
X0148240Y0237985D01*
X0148797Y0238542D01*
X0141547Y0237985D02*
X0141547Y0241325D01*
X0141547Y0240212D02*
X0139877Y0240212D01*
X0139320Y0239655D01*
X0139320Y0238542D01*
X0139877Y0237985D01*
X0141547Y0237985D01*
X0137921Y0238542D02*
X0137365Y0237985D01*
X0135695Y0237985D01*
X0135695Y0237428D02*
X0136252Y0236872D01*
X0136808Y0236872D01*
X0135695Y0237428D02*
X0135695Y0240212D01*
X0134296Y0240212D02*
X0134296Y0239655D01*
X0133740Y0239655D01*
X0133740Y0240212D01*
X0134296Y0240212D01*
X0134296Y0238542D02*
X0134296Y0237985D01*
X0133740Y0237985D01*
X0133740Y0238542D01*
X0134296Y0238542D01*
X0137921Y0238542D02*
X0137921Y0240212D01*
X0138077Y0243959D02*
X0137521Y0244516D01*
X0137521Y0246186D01*
X0136122Y0246186D02*
X0136122Y0244516D01*
X0135565Y0243959D01*
X0135009Y0244516D01*
X0134452Y0243959D01*
X0133895Y0244516D01*
X0133895Y0246186D01*
X0132497Y0246186D02*
X0132497Y0244516D01*
X0131940Y0243959D01*
X0131384Y0244516D01*
X0130827Y0243959D01*
X0130270Y0244516D01*
X0130270Y0246186D01*
X0128872Y0244516D02*
X0128315Y0244516D01*
X0128315Y0243959D01*
X0128872Y0243959D01*
X0128872Y0244516D01*
X0127059Y0245629D02*
X0125946Y0245629D01*
X0126502Y0246742D02*
X0125946Y0247299D01*
X0126502Y0246742D02*
X0126502Y0243959D01*
X0124642Y0244516D02*
X0124086Y0243959D01*
X0122416Y0243959D01*
X0122416Y0246186D01*
X0121017Y0246186D02*
X0119347Y0246186D01*
X0118791Y0245629D01*
X0118791Y0244516D01*
X0119347Y0243959D01*
X0121017Y0243959D01*
X0121017Y0247299D01*
X0124642Y0246186D02*
X0124642Y0244516D01*
X0117392Y0244516D02*
X0116835Y0243959D01*
X0115166Y0243959D01*
X0115166Y0245629D01*
X0115722Y0246186D01*
X0116835Y0246186D01*
X0116835Y0245072D02*
X0115166Y0245072D01*
X0113767Y0245072D02*
X0112654Y0246186D01*
X0112097Y0246186D01*
X0110746Y0246186D02*
X0110189Y0246186D01*
X0110189Y0243959D01*
X0109633Y0243959D02*
X0110746Y0243959D01*
X0108329Y0243959D02*
X0108329Y0246186D01*
X0106659Y0246186D01*
X0106103Y0245629D01*
X0106103Y0243959D01*
X0104704Y0244516D02*
X0104147Y0243959D01*
X0103034Y0243959D01*
X0102478Y0244516D01*
X0102478Y0245629D01*
X0103034Y0246186D01*
X0104147Y0246186D01*
X0104704Y0245629D01*
X0104704Y0244516D01*
X0101079Y0244516D02*
X0101079Y0243959D01*
X0100522Y0243959D01*
X0100522Y0244516D01*
X0101079Y0244516D01*
X0099266Y0244516D02*
X0098710Y0243959D01*
X0097597Y0243959D01*
X0097040Y0244516D01*
X0097040Y0245629D01*
X0097597Y0246186D01*
X0098710Y0246186D01*
X0099266Y0245629D01*
X0099266Y0244516D01*
X0098844Y0241325D02*
X0098287Y0241325D01*
X0098287Y0237985D01*
X0098844Y0237985D02*
X0097730Y0237985D01*
X0096427Y0237985D02*
X0094200Y0237985D01*
X0092802Y0237985D02*
X0092802Y0241325D01*
X0092245Y0240212D02*
X0091132Y0240212D01*
X0090575Y0239655D01*
X0090575Y0237985D01*
X0089177Y0238542D02*
X0088620Y0239098D01*
X0086950Y0239098D01*
X0086950Y0239655D02*
X0086950Y0237985D01*
X0088620Y0237985D01*
X0089177Y0238542D01*
X0088620Y0240212D02*
X0087507Y0240212D01*
X0086950Y0239655D01*
X0085552Y0240212D02*
X0085552Y0238542D01*
X0084995Y0237985D01*
X0083325Y0237985D01*
X0083325Y0240212D01*
X0081926Y0239655D02*
X0081370Y0240212D01*
X0079700Y0240212D01*
X0080256Y0239098D02*
X0081370Y0239098D01*
X0081926Y0239655D01*
X0081926Y0237985D02*
X0080256Y0237985D01*
X0079700Y0238542D01*
X0080256Y0239098D01*
X0078301Y0238542D02*
X0077745Y0238542D01*
X0077745Y0237985D01*
X0078301Y0237985D01*
X0078301Y0238542D01*
X0076489Y0238542D02*
X0075932Y0237985D01*
X0074262Y0237985D01*
X0072864Y0238542D02*
X0072307Y0237985D01*
X0071194Y0237985D01*
X0070637Y0238542D01*
X0070637Y0239655D01*
X0071194Y0240212D01*
X0072307Y0240212D01*
X0072864Y0239655D01*
X0072864Y0238542D01*
X0074262Y0240212D02*
X0075932Y0240212D01*
X0076489Y0239655D01*
X0076489Y0238542D01*
X0077102Y0243959D02*
X0077102Y0245629D01*
X0077658Y0246186D01*
X0079328Y0246186D01*
X0079328Y0243959D01*
X0080632Y0243959D02*
X0081745Y0243959D01*
X0081188Y0243959D02*
X0081188Y0246186D01*
X0081745Y0246186D01*
X0081188Y0247299D02*
X0081188Y0247856D01*
X0083144Y0247299D02*
X0083144Y0243959D01*
X0085370Y0243959D02*
X0085370Y0247299D01*
X0084257Y0246186D01*
X0083144Y0247299D01*
X0086769Y0247299D02*
X0088995Y0243959D01*
X0090394Y0243959D02*
X0092064Y0243959D01*
X0092620Y0244516D01*
X0092620Y0245629D01*
X0092064Y0246186D01*
X0090394Y0246186D01*
X0090394Y0243402D01*
X0090950Y0242846D01*
X0091507Y0242846D01*
X0092245Y0240212D02*
X0092802Y0239655D01*
X0094200Y0240212D02*
X0096427Y0237985D01*
X0096427Y0240212D02*
X0094200Y0240212D01*
X0095641Y0243959D02*
X0095641Y0246186D01*
X0094528Y0246186D02*
X0093971Y0246186D01*
X0094528Y0246186D02*
X0095641Y0245072D01*
X0100799Y0240212D02*
X0100242Y0239655D01*
X0100242Y0237985D01*
X0101912Y0237985D01*
X0102469Y0238542D01*
X0101912Y0239098D01*
X0100242Y0239098D01*
X0100799Y0240212D02*
X0101912Y0240212D01*
X0103867Y0239655D02*
X0103867Y0237985D01*
X0104981Y0237985D02*
X0104981Y0239655D01*
X0104424Y0240212D01*
X0103867Y0239655D01*
X0104981Y0239655D02*
X0105537Y0240212D01*
X0106094Y0240212D01*
X0106094Y0237985D01*
X0107493Y0237985D02*
X0107493Y0239655D01*
X0108049Y0240212D01*
X0109162Y0240212D01*
X0109719Y0239655D01*
X0111118Y0240212D02*
X0112788Y0240212D01*
X0113344Y0239655D01*
X0113344Y0238542D01*
X0112788Y0237985D01*
X0111118Y0237985D01*
X0109719Y0237985D02*
X0109719Y0241325D01*
X0113767Y0243959D02*
X0113767Y0246186D01*
X0116835Y0245072D02*
X0117392Y0244516D01*
X0110189Y0247299D02*
X0110189Y0247856D01*
X0114743Y0240212D02*
X0116413Y0240212D01*
X0116969Y0239655D01*
X0116413Y0239098D01*
X0115299Y0239098D01*
X0114743Y0238542D01*
X0115299Y0237985D01*
X0116969Y0237985D01*
X0118225Y0237985D02*
X0118782Y0237985D01*
X0118782Y0238542D01*
X0118225Y0238542D01*
X0118225Y0237985D01*
X0120180Y0238542D02*
X0120180Y0240212D01*
X0120180Y0238542D02*
X0120737Y0237985D01*
X0121294Y0238542D01*
X0121850Y0237985D01*
X0122407Y0238542D01*
X0122407Y0240212D01*
X0123806Y0240212D02*
X0123806Y0238542D01*
X0124362Y0237985D01*
X0124919Y0238542D01*
X0125476Y0237985D01*
X0126032Y0238542D01*
X0126032Y0240212D01*
X0127431Y0240212D02*
X0127431Y0238542D01*
X0127987Y0237985D01*
X0128544Y0238542D01*
X0129101Y0237985D01*
X0129657Y0238542D01*
X0129657Y0240212D01*
X0138077Y0243959D02*
X0138634Y0244516D01*
X0139190Y0243959D01*
X0139747Y0244516D01*
X0139747Y0246186D01*
X0161532Y0241882D02*
X0161532Y0241325D01*
X0075703Y0243959D02*
X0074590Y0243959D01*
X0075146Y0243959D02*
X0075146Y0246186D01*
X0075703Y0246186D01*
X0075146Y0247299D02*
X0075146Y0247856D01*
X0069238Y0240212D02*
X0068682Y0240212D01*
X0068125Y0239655D01*
X0067569Y0240212D01*
X0067012Y0239655D01*
X0067012Y0237985D01*
X0068125Y0237985D02*
X0068125Y0239655D01*
X0069238Y0240212D02*
X0069238Y0237985D01*
X0054069Y0238001D02*
X0052568Y0238001D01*
X0052068Y0238501D01*
X0052068Y0239502D01*
X0052568Y0240003D01*
X0054069Y0240003D01*
X0054069Y0237000D01*
X0050754Y0237500D02*
X0050254Y0237000D01*
X0049253Y0237000D01*
X0048753Y0237500D01*
X0048753Y0238501D01*
X0049754Y0238501D01*
X0050754Y0239502D02*
X0050754Y0237500D01*
X0050754Y0239502D02*
X0050254Y0240003D01*
X0049253Y0240003D01*
X0048753Y0239502D01*
X0047440Y0240003D02*
X0047440Y0237000D01*
X0045438Y0237000D01*
X0044125Y0237500D02*
X0043624Y0237000D01*
X0042624Y0237000D01*
X0042123Y0237500D01*
X0040810Y0237000D02*
X0038808Y0237000D01*
X0039809Y0237000D02*
X0039809Y0240003D01*
X0040810Y0239002D01*
X0042123Y0239502D02*
X0042624Y0240003D01*
X0043624Y0240003D01*
X0044125Y0239502D01*
X0044125Y0237500D01*
X0046439Y0238501D02*
X0047440Y0238501D01*
X0047440Y0240003D02*
X0045438Y0240003D01*
X0045238Y0242400D02*
X0047240Y0242400D01*
X0047240Y0245403D01*
X0045238Y0245403D01*
X0043925Y0245403D02*
X0043925Y0242400D01*
X0042424Y0242400D01*
X0041923Y0242900D01*
X0041923Y0244902D01*
X0042424Y0245403D01*
X0043925Y0245403D01*
X0046239Y0243901D02*
X0047240Y0243901D01*
X0048553Y0243901D02*
X0049554Y0243901D01*
X0048553Y0243901D02*
X0048553Y0242900D01*
X0049053Y0242400D01*
X0050054Y0242400D01*
X0050554Y0242900D01*
X0050554Y0244902D01*
X0050054Y0245403D01*
X0049053Y0245403D01*
X0048553Y0244902D01*
X0051868Y0244902D02*
X0051868Y0243901D01*
X0052368Y0243401D01*
X0053869Y0243401D01*
X0053869Y0242400D02*
X0053869Y0245403D01*
X0052368Y0245403D01*
X0051868Y0244902D01*
X0040610Y0244402D02*
X0039609Y0245403D01*
X0039609Y0242400D01*
X0040610Y0242400D02*
X0038608Y0242400D01*
X0042149Y0271120D02*
X0040734Y0272535D01*
X0041442Y0271828D02*
X0043565Y0273951D01*
X0043565Y0272535D01*
X0044785Y0272681D02*
X0047787Y0272681D01*
X0046787Y0271680D01*
X0044785Y0271680D02*
X0044785Y0273682D01*
X0045285Y0274995D02*
X0044785Y0275495D01*
X0044785Y0276496D01*
X0045285Y0276997D01*
X0046286Y0276997D01*
X0046787Y0276496D01*
X0046787Y0275996D01*
X0046286Y0274995D01*
X0047787Y0274995D01*
X0047787Y0276997D01*
X0050995Y0276486D02*
X0053998Y0276486D01*
X0052496Y0274985D01*
X0052496Y0276987D01*
X0050995Y0273672D02*
X0050995Y0271670D01*
X0050995Y0272671D02*
X0053998Y0272671D01*
X0052997Y0271670D01*
X0058395Y0271670D02*
X0058395Y0273672D01*
X0058395Y0272671D02*
X0061398Y0272671D01*
X0060397Y0271670D01*
X0060397Y0270357D02*
X0058395Y0270357D01*
X0059896Y0270357D02*
X0059896Y0268356D01*
X0060397Y0268356D02*
X0061398Y0269356D01*
X0060397Y0270357D01*
X0060397Y0268356D02*
X0058395Y0268356D01*
X0058395Y0274985D02*
X0058395Y0276987D01*
X0058395Y0275986D02*
X0061398Y0275986D01*
X0060397Y0274985D01*
X0040867Y0274525D02*
X0039805Y0275587D01*
X0039098Y0275587D01*
X0038744Y0275233D01*
X0038744Y0274525D01*
X0039451Y0273818D01*
X0040159Y0273818D01*
X0040867Y0274525D01*
X0040867Y0275941D01*
X0040513Y0277002D01*
D13*
X0037595Y0278000D02*
X0037595Y0268000D01*
X0037595Y0228000D01*
X0028195Y0228000D01*
X0028195Y0268000D01*
X0028195Y0278000D01*
X0037595Y0278000D01*
X0037595Y0268000D02*
X0028195Y0268000D01*
X0027995Y0268000D01*
X0049995Y0267600D02*
X0050195Y0267600D01*
X0058395Y0259400D01*
X0058395Y0257200D01*
X0057995Y0242400D02*
X0057995Y0240600D01*
X0055595Y0238200D01*
X0028195Y0228000D02*
X0027995Y0228000D01*
X0217595Y0278000D02*
X0217595Y0287600D01*
X0227195Y0287600D01*
X0227195Y0278000D01*
X0217595Y0278000D01*
D14*
X0162066Y0267202D02*
X0162066Y0260522D01*
X0162066Y0263862D02*
X0159839Y0263862D01*
X0157613Y0267202D02*
X0162066Y0267202D01*
X0154816Y0264975D02*
X0154816Y0261635D01*
X0153702Y0260522D01*
X0150363Y0260522D01*
X0150363Y0264975D01*
X0147565Y0264975D02*
X0144226Y0264975D01*
X0143112Y0263862D01*
X0143112Y0261635D01*
X0144226Y0260522D01*
X0147565Y0260522D01*
X0147565Y0267202D01*
X0139202Y0264975D02*
X0136975Y0264975D01*
X0135862Y0263862D01*
X0135862Y0260522D01*
X0139202Y0260522D01*
X0140315Y0261635D01*
X0139202Y0262749D01*
X0135862Y0262749D01*
X0133065Y0262749D02*
X0130838Y0264975D01*
X0129725Y0264975D01*
X0127023Y0264975D02*
X0125910Y0264975D01*
X0125910Y0260522D01*
X0127023Y0260522D02*
X0124796Y0260522D01*
X0122189Y0260522D02*
X0122189Y0264975D01*
X0118850Y0264975D01*
X0117736Y0263862D01*
X0117736Y0260522D01*
X0114939Y0261635D02*
X0113826Y0260522D01*
X0111599Y0260522D01*
X0110486Y0261635D01*
X0110486Y0263862D01*
X0111599Y0264975D01*
X0113826Y0264975D01*
X0114939Y0263862D01*
X0114939Y0261635D01*
X0125910Y0267202D02*
X0125910Y0268315D01*
X0133065Y0264975D02*
X0133065Y0260522D01*
X0100439Y0260522D02*
X0100439Y0267202D01*
X0098212Y0264975D01*
X0095985Y0267202D01*
X0095985Y0260522D01*
X0093188Y0260522D02*
X0090962Y0260522D01*
X0092075Y0260522D02*
X0092075Y0264975D01*
X0093188Y0264975D01*
X0092075Y0267202D02*
X0092075Y0268315D01*
X0088355Y0264975D02*
X0085015Y0264975D01*
X0083902Y0263862D01*
X0083902Y0260522D01*
X0081105Y0260522D02*
X0078878Y0260522D01*
X0079991Y0260522D02*
X0079991Y0264975D01*
X0081105Y0264975D01*
X0079991Y0267202D02*
X0079991Y0268315D01*
X0088355Y0264975D02*
X0088355Y0260522D01*
D15*
X0195483Y0260557D02*
X0202010Y0260557D01*
X0202018Y0260553D02*
X0201250Y0260966D01*
X0200857Y0261143D01*
X0200463Y0261301D01*
X0200109Y0261439D01*
X0199498Y0261616D01*
X0198947Y0261734D01*
X0198278Y0261832D01*
X0197392Y0261891D01*
X0195483Y0261891D01*
X0195483Y0258742D01*
X0197313Y0258742D01*
X0198081Y0258683D01*
X0198672Y0258565D01*
X0199321Y0258368D01*
X0200049Y0258013D01*
X0200817Y0257502D01*
X0201349Y0257029D01*
X0202097Y0256104D01*
X0202648Y0254982D01*
X0202805Y0254411D01*
X0197471Y0254411D01*
X0197471Y0251655D01*
X0202825Y0251655D01*
X0202490Y0250730D01*
X0202195Y0250159D01*
X0201782Y0249529D01*
X0200837Y0248565D01*
X0200168Y0248092D01*
X0199420Y0247738D01*
X0198475Y0247462D01*
X0197923Y0247364D01*
X0197392Y0247324D01*
X0195502Y0247324D01*
X0195502Y0243761D01*
X0197392Y0243761D01*
X0198258Y0243820D01*
X0199085Y0243958D01*
X0199853Y0244155D01*
X0200699Y0244431D01*
X0201723Y0244943D01*
X0202727Y0245572D01*
X0203534Y0246281D01*
X0204144Y0246931D01*
X0204597Y0247502D01*
X0205148Y0248348D01*
X0205620Y0249313D01*
X0206034Y0250533D01*
X0206250Y0251635D01*
X0206329Y0252757D01*
X0206290Y0253820D01*
X0206112Y0254864D01*
X0205916Y0255553D01*
X0205699Y0256163D01*
X0205246Y0257128D01*
X0204794Y0257895D01*
X0204341Y0258506D01*
X0203691Y0259234D01*
X0203238Y0259647D01*
X0202786Y0260021D01*
X0202018Y0260553D01*
X0202154Y0260458D02*
X0195483Y0260458D01*
X0195483Y0260360D02*
X0202297Y0260360D01*
X0202439Y0260261D02*
X0195483Y0260261D01*
X0195483Y0260163D02*
X0202581Y0260163D01*
X0202723Y0260064D02*
X0195483Y0260064D01*
X0195483Y0259966D02*
X0202853Y0259966D01*
X0202972Y0259867D02*
X0195483Y0259867D01*
X0195483Y0259769D02*
X0203091Y0259769D01*
X0203211Y0259670D02*
X0195483Y0259670D01*
X0195483Y0259572D02*
X0203321Y0259572D01*
X0203429Y0259473D02*
X0195483Y0259473D01*
X0195483Y0259375D02*
X0203537Y0259375D01*
X0203645Y0259276D02*
X0195483Y0259276D01*
X0195483Y0259178D02*
X0203741Y0259178D01*
X0203829Y0259079D02*
X0195483Y0259079D01*
X0195483Y0258981D02*
X0203917Y0258981D01*
X0204005Y0258882D02*
X0195483Y0258882D01*
X0195483Y0258784D02*
X0204093Y0258784D01*
X0204181Y0258685D02*
X0198048Y0258685D01*
X0198561Y0258587D02*
X0204268Y0258587D01*
X0204354Y0258488D02*
X0198924Y0258488D01*
X0199249Y0258390D02*
X0204427Y0258390D01*
X0204500Y0258291D02*
X0199479Y0258291D01*
X0199681Y0258193D02*
X0204573Y0258193D01*
X0204646Y0258094D02*
X0199884Y0258094D01*
X0200076Y0257996D02*
X0204719Y0257996D01*
X0204792Y0257897D02*
X0200224Y0257897D01*
X0200372Y0257799D02*
X0204851Y0257799D01*
X0204909Y0257700D02*
X0200519Y0257700D01*
X0200667Y0257602D02*
X0204967Y0257602D01*
X0205025Y0257503D02*
X0200815Y0257503D01*
X0200926Y0257405D02*
X0205083Y0257405D01*
X0205141Y0257306D02*
X0201037Y0257306D01*
X0201148Y0257208D02*
X0205199Y0257208D01*
X0205255Y0257109D02*
X0201259Y0257109D01*
X0201364Y0257010D02*
X0205301Y0257010D01*
X0205348Y0256912D02*
X0201443Y0256912D01*
X0201523Y0256813D02*
X0205394Y0256813D01*
X0205440Y0256715D02*
X0201603Y0256715D01*
X0201682Y0256616D02*
X0205486Y0256616D01*
X0205532Y0256518D02*
X0201762Y0256518D01*
X0201842Y0256419D02*
X0205579Y0256419D01*
X0205625Y0256321D02*
X0201921Y0256321D01*
X0202001Y0256222D02*
X0205671Y0256222D01*
X0205713Y0256124D02*
X0202081Y0256124D01*
X0202135Y0256025D02*
X0205748Y0256025D01*
X0205783Y0255927D02*
X0202184Y0255927D01*
X0202232Y0255828D02*
X0205818Y0255828D01*
X0205853Y0255730D02*
X0202280Y0255730D01*
X0202329Y0255631D02*
X0205888Y0255631D01*
X0205921Y0255533D02*
X0202377Y0255533D01*
X0202426Y0255434D02*
X0205949Y0255434D01*
X0205978Y0255336D02*
X0202474Y0255336D01*
X0202522Y0255237D02*
X0206006Y0255237D01*
X0206034Y0255139D02*
X0202571Y0255139D01*
X0202619Y0255040D02*
X0206062Y0255040D01*
X0206090Y0254942D02*
X0202659Y0254942D01*
X0202686Y0254843D02*
X0206116Y0254843D01*
X0206133Y0254745D02*
X0202713Y0254745D01*
X0202740Y0254646D02*
X0206149Y0254646D01*
X0206166Y0254548D02*
X0202768Y0254548D01*
X0202795Y0254449D02*
X0206183Y0254449D01*
X0206200Y0254351D02*
X0197471Y0254351D01*
X0197471Y0254252D02*
X0206216Y0254252D01*
X0206233Y0254154D02*
X0197471Y0254154D01*
X0197471Y0254055D02*
X0206250Y0254055D01*
X0206267Y0253957D02*
X0197471Y0253957D01*
X0197471Y0253858D02*
X0206283Y0253858D01*
X0206292Y0253760D02*
X0197471Y0253760D01*
X0197471Y0253661D02*
X0206296Y0253661D01*
X0206299Y0253563D02*
X0197471Y0253563D01*
X0197471Y0253464D02*
X0206303Y0253464D01*
X0206306Y0253366D02*
X0197471Y0253366D01*
X0197471Y0253267D02*
X0206310Y0253267D01*
X0206314Y0253169D02*
X0197471Y0253169D01*
X0197471Y0253070D02*
X0206317Y0253070D01*
X0206321Y0252972D02*
X0197471Y0252972D01*
X0197471Y0252873D02*
X0206325Y0252873D01*
X0206328Y0252774D02*
X0197471Y0252774D01*
X0197471Y0252676D02*
X0206323Y0252676D01*
X0206316Y0252577D02*
X0197471Y0252577D01*
X0197471Y0252479D02*
X0206309Y0252479D01*
X0206303Y0252380D02*
X0197471Y0252380D01*
X0197471Y0252282D02*
X0206296Y0252282D01*
X0206289Y0252183D02*
X0197471Y0252183D01*
X0197471Y0252085D02*
X0206282Y0252085D01*
X0206275Y0251986D02*
X0197471Y0251986D01*
X0197471Y0251888D02*
X0206268Y0251888D01*
X0206261Y0251789D02*
X0197471Y0251789D01*
X0197471Y0251691D02*
X0206254Y0251691D01*
X0206242Y0251592D02*
X0202802Y0251592D01*
X0202767Y0251494D02*
X0206222Y0251494D01*
X0206203Y0251395D02*
X0202731Y0251395D01*
X0202695Y0251297D02*
X0206184Y0251297D01*
X0206164Y0251198D02*
X0202660Y0251198D01*
X0202624Y0251100D02*
X0206145Y0251100D01*
X0206126Y0251001D02*
X0202589Y0251001D01*
X0202553Y0250903D02*
X0206106Y0250903D01*
X0206087Y0250804D02*
X0202517Y0250804D01*
X0202478Y0250706D02*
X0206068Y0250706D01*
X0206048Y0250607D02*
X0202427Y0250607D01*
X0202376Y0250509D02*
X0206025Y0250509D01*
X0205992Y0250410D02*
X0202325Y0250410D01*
X0202274Y0250312D02*
X0205959Y0250312D01*
X0205925Y0250213D02*
X0202223Y0250213D01*
X0202166Y0250115D02*
X0205892Y0250115D01*
X0205859Y0250016D02*
X0202101Y0250016D01*
X0202037Y0249918D02*
X0205825Y0249918D01*
X0205792Y0249819D02*
X0201972Y0249819D01*
X0201907Y0249721D02*
X0205759Y0249721D01*
X0205725Y0249622D02*
X0201843Y0249622D01*
X0201776Y0249524D02*
X0205692Y0249524D01*
X0205658Y0249425D02*
X0201680Y0249425D01*
X0201583Y0249327D02*
X0205625Y0249327D01*
X0205579Y0249228D02*
X0201487Y0249228D01*
X0201390Y0249130D02*
X0205531Y0249130D01*
X0205482Y0249031D02*
X0201294Y0249031D01*
X0201197Y0248933D02*
X0205434Y0248933D01*
X0205386Y0248834D02*
X0201101Y0248834D01*
X0201004Y0248736D02*
X0205338Y0248736D01*
X0205289Y0248637D02*
X0200908Y0248637D01*
X0200800Y0248539D02*
X0205241Y0248539D01*
X0205193Y0248440D02*
X0200660Y0248440D01*
X0200521Y0248341D02*
X0205144Y0248341D01*
X0205079Y0248243D02*
X0200381Y0248243D01*
X0200242Y0248144D02*
X0205015Y0248144D01*
X0204951Y0248046D02*
X0200070Y0248046D01*
X0199862Y0247947D02*
X0204887Y0247947D01*
X0204823Y0247849D02*
X0199654Y0247849D01*
X0199446Y0247750D02*
X0204759Y0247750D01*
X0204695Y0247652D02*
X0199125Y0247652D01*
X0198787Y0247553D02*
X0204630Y0247553D01*
X0204560Y0247455D02*
X0198434Y0247455D01*
X0197823Y0247356D02*
X0204482Y0247356D01*
X0204403Y0247258D02*
X0195502Y0247258D01*
X0195502Y0247159D02*
X0204325Y0247159D01*
X0204247Y0247061D02*
X0195502Y0247061D01*
X0195502Y0246962D02*
X0204169Y0246962D01*
X0204081Y0246864D02*
X0195502Y0246864D01*
X0195502Y0246765D02*
X0203989Y0246765D01*
X0203896Y0246667D02*
X0195502Y0246667D01*
X0195502Y0246568D02*
X0203803Y0246568D01*
X0203711Y0246470D02*
X0195502Y0246470D01*
X0195502Y0246371D02*
X0203618Y0246371D01*
X0203524Y0246273D02*
X0195502Y0246273D01*
X0195502Y0246174D02*
X0203412Y0246174D01*
X0203300Y0246076D02*
X0195502Y0246076D01*
X0195502Y0245977D02*
X0203188Y0245977D01*
X0203075Y0245879D02*
X0195502Y0245879D01*
X0195502Y0245780D02*
X0202963Y0245780D01*
X0202851Y0245682D02*
X0195502Y0245682D01*
X0195502Y0245583D02*
X0202739Y0245583D01*
X0202587Y0245485D02*
X0195502Y0245485D01*
X0195502Y0245386D02*
X0202430Y0245386D01*
X0202273Y0245288D02*
X0195502Y0245288D01*
X0195502Y0245189D02*
X0202116Y0245189D01*
X0201959Y0245091D02*
X0195502Y0245091D01*
X0195502Y0244992D02*
X0201802Y0244992D01*
X0201625Y0244894D02*
X0195502Y0244894D01*
X0195502Y0244795D02*
X0201428Y0244795D01*
X0201231Y0244697D02*
X0195502Y0244697D01*
X0195502Y0244598D02*
X0201034Y0244598D01*
X0200837Y0244500D02*
X0195502Y0244500D01*
X0195502Y0244401D02*
X0200608Y0244401D01*
X0200305Y0244303D02*
X0195502Y0244303D01*
X0195502Y0244204D02*
X0200003Y0244204D01*
X0199659Y0244105D02*
X0195502Y0244105D01*
X0195502Y0244007D02*
X0199275Y0244007D01*
X0198786Y0243908D02*
X0195502Y0243908D01*
X0195502Y0243810D02*
X0198104Y0243810D01*
X0210837Y0243810D02*
X0213027Y0243810D01*
X0213160Y0243820D02*
X0213888Y0243939D01*
X0214656Y0244116D01*
X0215286Y0244313D01*
X0215738Y0244490D01*
X0216270Y0244726D01*
X0216762Y0244982D01*
X0217372Y0245376D01*
X0217845Y0245710D01*
X0218298Y0246104D01*
X0218652Y0246439D01*
X0219105Y0246931D01*
X0219439Y0247324D01*
X0219754Y0247797D01*
X0220089Y0248309D01*
X0220443Y0248978D01*
X0220660Y0249509D01*
X0220857Y0250080D01*
X0221073Y0250868D01*
X0221191Y0251478D01*
X0221270Y0252187D01*
X0221290Y0252757D01*
X0221270Y0253348D01*
X0221250Y0253604D01*
X0221211Y0253998D01*
X0221152Y0254431D01*
X0221014Y0255080D01*
X0220857Y0255592D01*
X0220719Y0255986D01*
X0220581Y0256360D01*
X0220345Y0256852D01*
X0220187Y0257187D01*
X0219853Y0257738D01*
X0219656Y0258013D01*
X0219498Y0258250D01*
X0219341Y0258466D01*
X0218927Y0258939D01*
X0218691Y0259194D01*
X0218376Y0259490D01*
X0218101Y0259726D01*
X0217727Y0260041D01*
X0217215Y0260415D01*
X0216526Y0260809D01*
X0215719Y0261202D01*
X0214872Y0261498D01*
X0214046Y0261714D01*
X0213258Y0261832D01*
X0212372Y0261911D01*
X0210837Y0261911D01*
X0210837Y0258742D01*
X0212313Y0258742D01*
X0212845Y0258702D01*
X0213357Y0258624D01*
X0213711Y0258545D01*
X0214065Y0258446D01*
X0214853Y0258112D01*
X0215522Y0257698D01*
X0216073Y0257246D01*
X0216526Y0256793D01*
X0216959Y0256242D01*
X0217274Y0255691D01*
X0217569Y0255041D01*
X0217805Y0254332D01*
X0217923Y0253584D01*
X0217943Y0252836D01*
X0217884Y0252265D01*
X0217746Y0251576D01*
X0217549Y0250946D01*
X0217235Y0250257D01*
X0216801Y0249608D01*
X0216329Y0249057D01*
X0215837Y0248604D01*
X0215286Y0248250D01*
X0214715Y0247895D01*
X0214282Y0247698D01*
X0213672Y0247502D01*
X0213120Y0247383D01*
X0212707Y0247324D01*
X0210837Y0247324D01*
X0210837Y0243761D01*
X0212412Y0243761D01*
X0213160Y0243820D01*
X0213702Y0243908D02*
X0210837Y0243908D01*
X0210837Y0244007D02*
X0214184Y0244007D01*
X0214611Y0244105D02*
X0210837Y0244105D01*
X0210837Y0244204D02*
X0214938Y0244204D01*
X0215253Y0244303D02*
X0210837Y0244303D01*
X0210837Y0244401D02*
X0215512Y0244401D01*
X0215760Y0244500D02*
X0210837Y0244500D01*
X0210837Y0244598D02*
X0215982Y0244598D01*
X0216204Y0244697D02*
X0210837Y0244697D01*
X0210837Y0244795D02*
X0216403Y0244795D01*
X0216592Y0244894D02*
X0210837Y0244894D01*
X0210837Y0244992D02*
X0216778Y0244992D01*
X0216931Y0245091D02*
X0210837Y0245091D01*
X0210837Y0245189D02*
X0217083Y0245189D01*
X0217236Y0245288D02*
X0210837Y0245288D01*
X0210837Y0245386D02*
X0217387Y0245386D01*
X0217526Y0245485D02*
X0210837Y0245485D01*
X0210837Y0245583D02*
X0217665Y0245583D01*
X0217804Y0245682D02*
X0210837Y0245682D01*
X0210837Y0245780D02*
X0217925Y0245780D01*
X0218038Y0245879D02*
X0210837Y0245879D01*
X0210837Y0245977D02*
X0218152Y0245977D01*
X0218265Y0246076D02*
X0210837Y0246076D01*
X0210837Y0246174D02*
X0218372Y0246174D01*
X0218476Y0246273D02*
X0210837Y0246273D01*
X0210837Y0246371D02*
X0218581Y0246371D01*
X0218681Y0246470D02*
X0210837Y0246470D01*
X0210837Y0246568D02*
X0218771Y0246568D01*
X0218862Y0246667D02*
X0210837Y0246667D01*
X0210837Y0246765D02*
X0218952Y0246765D01*
X0219043Y0246864D02*
X0210837Y0246864D01*
X0210837Y0246962D02*
X0219131Y0246962D01*
X0219215Y0247061D02*
X0210837Y0247061D01*
X0210837Y0247159D02*
X0219299Y0247159D01*
X0219383Y0247258D02*
X0210837Y0247258D01*
X0212931Y0247356D02*
X0219461Y0247356D01*
X0219526Y0247455D02*
X0213454Y0247455D01*
X0213832Y0247553D02*
X0219592Y0247553D01*
X0219658Y0247652D02*
X0214138Y0247652D01*
X0214396Y0247750D02*
X0219723Y0247750D01*
X0219788Y0247849D02*
X0214613Y0247849D01*
X0214799Y0247947D02*
X0219853Y0247947D01*
X0219917Y0248046D02*
X0214958Y0248046D01*
X0215116Y0248144D02*
X0219981Y0248144D01*
X0220046Y0248243D02*
X0215275Y0248243D01*
X0215429Y0248341D02*
X0220106Y0248341D01*
X0220158Y0248440D02*
X0215582Y0248440D01*
X0215735Y0248539D02*
X0220211Y0248539D01*
X0220263Y0248637D02*
X0215873Y0248637D01*
X0215980Y0248736D02*
X0220315Y0248736D01*
X0220367Y0248834D02*
X0216087Y0248834D01*
X0216194Y0248933D02*
X0220419Y0248933D01*
X0220465Y0249031D02*
X0216301Y0249031D01*
X0216391Y0249130D02*
X0220505Y0249130D01*
X0220545Y0249228D02*
X0216476Y0249228D01*
X0216560Y0249327D02*
X0220585Y0249327D01*
X0220625Y0249425D02*
X0216645Y0249425D01*
X0216729Y0249524D02*
X0220665Y0249524D01*
X0220699Y0249622D02*
X0216811Y0249622D01*
X0216877Y0249721D02*
X0220733Y0249721D01*
X0220766Y0249819D02*
X0216942Y0249819D01*
X0217008Y0249918D02*
X0220800Y0249918D01*
X0220834Y0250016D02*
X0217074Y0250016D01*
X0217139Y0250115D02*
X0220866Y0250115D01*
X0220893Y0250213D02*
X0217205Y0250213D01*
X0217259Y0250312D02*
X0220920Y0250312D01*
X0220947Y0250410D02*
X0217304Y0250410D01*
X0217349Y0250509D02*
X0220974Y0250509D01*
X0221001Y0250607D02*
X0217394Y0250607D01*
X0217439Y0250706D02*
X0221029Y0250706D01*
X0221056Y0250804D02*
X0217484Y0250804D01*
X0217530Y0250903D02*
X0221080Y0250903D01*
X0221099Y0251001D02*
X0217567Y0251001D01*
X0217597Y0251100D02*
X0221118Y0251100D01*
X0221137Y0251198D02*
X0217628Y0251198D01*
X0217659Y0251297D02*
X0221156Y0251297D01*
X0221175Y0251395D02*
X0217690Y0251395D01*
X0217721Y0251494D02*
X0221193Y0251494D01*
X0221204Y0251592D02*
X0217750Y0251592D01*
X0217769Y0251691D02*
X0221215Y0251691D01*
X0221226Y0251789D02*
X0217789Y0251789D01*
X0217809Y0251888D02*
X0221237Y0251888D01*
X0221248Y0251986D02*
X0217828Y0251986D01*
X0217848Y0252085D02*
X0221259Y0252085D01*
X0221270Y0252183D02*
X0217868Y0252183D01*
X0217886Y0252282D02*
X0221273Y0252282D01*
X0221277Y0252380D02*
X0217896Y0252380D01*
X0217906Y0252479D02*
X0221280Y0252479D01*
X0221283Y0252577D02*
X0217916Y0252577D01*
X0217927Y0252676D02*
X0221287Y0252676D01*
X0221289Y0252774D02*
X0217937Y0252774D01*
X0217942Y0252873D02*
X0221286Y0252873D01*
X0221283Y0252972D02*
X0217940Y0252972D01*
X0217937Y0253070D02*
X0221279Y0253070D01*
X0221276Y0253169D02*
X0217934Y0253169D01*
X0217932Y0253267D02*
X0221273Y0253267D01*
X0221269Y0253366D02*
X0217929Y0253366D01*
X0217927Y0253464D02*
X0221261Y0253464D01*
X0221253Y0253563D02*
X0217924Y0253563D01*
X0217911Y0253661D02*
X0221245Y0253661D01*
X0221235Y0253760D02*
X0217896Y0253760D01*
X0217880Y0253858D02*
X0221225Y0253858D01*
X0221215Y0253957D02*
X0217865Y0253957D01*
X0217849Y0254055D02*
X0221203Y0254055D01*
X0221190Y0254154D02*
X0217834Y0254154D01*
X0217818Y0254252D02*
X0221176Y0254252D01*
X0221163Y0254351D02*
X0217799Y0254351D01*
X0217766Y0254449D02*
X0221148Y0254449D01*
X0221127Y0254548D02*
X0217734Y0254548D01*
X0217701Y0254646D02*
X0221106Y0254646D01*
X0221085Y0254745D02*
X0217668Y0254745D01*
X0217635Y0254843D02*
X0221064Y0254843D01*
X0221043Y0254942D02*
X0217602Y0254942D01*
X0217569Y0255040D02*
X0221023Y0255040D01*
X0220996Y0255139D02*
X0217525Y0255139D01*
X0217480Y0255237D02*
X0220966Y0255237D01*
X0220935Y0255336D02*
X0217435Y0255336D01*
X0217390Y0255434D02*
X0220905Y0255434D01*
X0220875Y0255533D02*
X0217346Y0255533D01*
X0217301Y0255631D02*
X0220843Y0255631D01*
X0220808Y0255730D02*
X0217251Y0255730D01*
X0217195Y0255828D02*
X0220774Y0255828D01*
X0220739Y0255927D02*
X0217139Y0255927D01*
X0217083Y0256025D02*
X0220704Y0256025D01*
X0220668Y0256124D02*
X0217026Y0256124D01*
X0216970Y0256222D02*
X0220632Y0256222D01*
X0220595Y0256321D02*
X0216897Y0256321D01*
X0216819Y0256419D02*
X0220552Y0256419D01*
X0220505Y0256518D02*
X0216742Y0256518D01*
X0216665Y0256616D02*
X0220458Y0256616D01*
X0220411Y0256715D02*
X0216587Y0256715D01*
X0216505Y0256813D02*
X0220363Y0256813D01*
X0220317Y0256912D02*
X0216407Y0256912D01*
X0216308Y0257010D02*
X0220270Y0257010D01*
X0220224Y0257109D02*
X0216210Y0257109D01*
X0216111Y0257208D02*
X0220175Y0257208D01*
X0220115Y0257306D02*
X0216000Y0257306D01*
X0215880Y0257405D02*
X0220055Y0257405D01*
X0219995Y0257503D02*
X0215760Y0257503D01*
X0215640Y0257602D02*
X0219935Y0257602D01*
X0219876Y0257700D02*
X0215519Y0257700D01*
X0215360Y0257799D02*
X0219809Y0257799D01*
X0219739Y0257897D02*
X0215200Y0257897D01*
X0215041Y0257996D02*
X0219668Y0257996D01*
X0219602Y0258094D02*
X0214881Y0258094D01*
X0214662Y0258193D02*
X0219536Y0258193D01*
X0219468Y0258291D02*
X0214431Y0258291D01*
X0214199Y0258390D02*
X0219396Y0258390D01*
X0219322Y0258488D02*
X0213915Y0258488D01*
X0213523Y0258587D02*
X0219235Y0258587D01*
X0219149Y0258685D02*
X0212956Y0258685D01*
X0210837Y0258784D02*
X0219063Y0258784D01*
X0218977Y0258882D02*
X0210837Y0258882D01*
X0210837Y0258981D02*
X0218889Y0258981D01*
X0218798Y0259079D02*
X0210837Y0259079D01*
X0210837Y0259178D02*
X0218707Y0259178D01*
X0218604Y0259276D02*
X0210837Y0259276D01*
X0210837Y0259375D02*
X0218499Y0259375D01*
X0218394Y0259473D02*
X0210837Y0259473D01*
X0210837Y0259572D02*
X0218281Y0259572D01*
X0218166Y0259670D02*
X0210837Y0259670D01*
X0210837Y0259769D02*
X0218050Y0259769D01*
X0217933Y0259867D02*
X0210837Y0259867D01*
X0210837Y0259966D02*
X0217816Y0259966D01*
X0217695Y0260064D02*
X0210837Y0260064D01*
X0210837Y0260163D02*
X0217560Y0260163D01*
X0217425Y0260261D02*
X0210837Y0260261D01*
X0210837Y0260360D02*
X0217290Y0260360D01*
X0217139Y0260458D02*
X0210837Y0260458D01*
X0210837Y0260557D02*
X0216966Y0260557D01*
X0216794Y0260655D02*
X0210837Y0260655D01*
X0210837Y0260754D02*
X0216622Y0260754D01*
X0216436Y0260852D02*
X0210837Y0260852D01*
X0210837Y0260951D02*
X0216234Y0260951D01*
X0216032Y0261049D02*
X0210837Y0261049D01*
X0210837Y0261148D02*
X0215830Y0261148D01*
X0215592Y0261246D02*
X0210837Y0261246D01*
X0210837Y0261345D02*
X0215310Y0261345D01*
X0215028Y0261443D02*
X0210837Y0261443D01*
X0210837Y0261542D02*
X0214703Y0261542D01*
X0214327Y0261641D02*
X0210837Y0261641D01*
X0210837Y0261739D02*
X0213880Y0261739D01*
X0213199Y0261838D02*
X0210837Y0261838D01*
X0201827Y0260655D02*
X0195483Y0260655D01*
X0195483Y0260754D02*
X0201644Y0260754D01*
X0201461Y0260852D02*
X0195483Y0260852D01*
X0195483Y0260951D02*
X0201279Y0260951D01*
X0201065Y0261049D02*
X0195483Y0261049D01*
X0195483Y0261148D02*
X0200845Y0261148D01*
X0200599Y0261246D02*
X0195483Y0261246D01*
X0195483Y0261345D02*
X0200349Y0261345D01*
X0200092Y0261443D02*
X0195483Y0261443D01*
X0195483Y0261542D02*
X0199752Y0261542D01*
X0199383Y0261641D02*
X0195483Y0261641D01*
X0195483Y0261739D02*
X0198912Y0261739D01*
X0198199Y0261838D02*
X0195483Y0261838D01*
D16*
X0190190Y0262457D02*
X0177592Y0249465D01*
X0180466Y0251079D02*
X0180427Y0251433D01*
X0180466Y0251787D01*
X0180623Y0252063D01*
X0180860Y0252220D01*
X0180938Y0252339D02*
X0181293Y0252378D01*
X0181686Y0252339D01*
X0182080Y0252102D01*
X0182198Y0251866D01*
X0182316Y0251591D01*
X0182316Y0251276D01*
X0182159Y0250921D01*
X0181962Y0250685D01*
X0181686Y0250528D01*
X0181332Y0250488D01*
X0180938Y0250567D01*
X0180663Y0250764D01*
X0180466Y0251079D01*
X0181135Y0251354D02*
X0181214Y0251236D01*
X0181332Y0251197D01*
X0181450Y0251197D01*
X0181568Y0251276D01*
X0181608Y0251394D01*
X0181608Y0251512D01*
X0181529Y0251630D01*
X0181411Y0251669D01*
X0181372Y0251472D01*
X0181332Y0251669D02*
X0181214Y0251630D01*
X0181135Y0251512D01*
X0181135Y0251354D01*
X0180938Y0252339D02*
X0180387Y0258638D01*
X0179521Y0258638D01*
X0179521Y0259780D01*
X0180269Y0259780D01*
X0180663Y0259780D01*
X0180663Y0258638D01*
X0180387Y0258638D01*
X0180269Y0259780D02*
X0180269Y0260488D01*
X0180427Y0260921D01*
X0180702Y0261276D01*
X0180978Y0261512D01*
X0181332Y0261669D01*
X0181844Y0261787D01*
X0182316Y0261866D01*
X0182356Y0261591D02*
X0182356Y0262181D01*
X0184088Y0262181D01*
X0184088Y0261709D01*
X0184127Y0261591D02*
X0182356Y0261591D01*
X0184127Y0261591D02*
X0184127Y0261866D01*
X0184364Y0261866D01*
X0184679Y0261827D01*
X0185033Y0261787D01*
X0185505Y0261630D01*
X0185899Y0261472D01*
X0186214Y0261236D01*
X0186450Y0260921D01*
X0186568Y0260409D01*
X0185781Y0251236D01*
X0185269Y0251236D01*
X0185269Y0250370D01*
X0184994Y0250252D02*
X0184994Y0251236D01*
X0185269Y0251236D01*
X0184994Y0251236D02*
X0182277Y0251236D01*
X0184994Y0250252D02*
X0185584Y0250252D01*
X0185584Y0251197D01*
X0190190Y0249071D02*
X0177198Y0262457D01*
X0179600Y0261079D02*
X0179560Y0260882D01*
X0179600Y0260724D01*
X0179679Y0260646D01*
X0179875Y0260567D01*
X0179954Y0260567D01*
X0187198Y0260606D01*
X0187198Y0260370D01*
X0179954Y0260331D01*
X0179954Y0260567D01*
X0180112Y0260567D01*
X0180151Y0260724D01*
X0179915Y0260882D01*
X0180190Y0261118D02*
X0180033Y0261236D01*
X0179836Y0261236D01*
X0179718Y0261197D01*
X0179600Y0261079D01*
X0180190Y0261118D02*
X0180269Y0260961D01*
X0181923Y0258283D02*
X0184127Y0258283D01*
X0184127Y0257929D01*
X0182120Y0257929D01*
X0181923Y0257575D02*
X0181923Y0258283D01*
X0181923Y0257575D02*
X0184127Y0257575D01*
X0184127Y0257929D01*
X0185545Y0260646D02*
X0185545Y0261906D01*
X0185860Y0261906D01*
X0185860Y0261866D02*
X0185860Y0260646D01*
X0185545Y0260646D01*
D17*
X0183340Y0244976D03*
D18*
X0174172Y0247939D02*
X0173935Y0247584D01*
X0173738Y0247387D01*
X0173305Y0247112D01*
X0172912Y0247033D01*
X0172124Y0247033D01*
X0171809Y0247112D01*
X0171612Y0247191D01*
X0171691Y0247663D01*
X0171770Y0247663D01*
X0172164Y0247584D01*
X0172754Y0247545D01*
X0172951Y0247663D01*
X0173266Y0247820D01*
X0173423Y0248017D01*
X0173542Y0248214D01*
X0173660Y0248490D01*
X0173660Y0249080D01*
X0173542Y0249356D01*
X0173423Y0249553D01*
X0173266Y0249710D01*
X0173030Y0249868D01*
X0172754Y0249986D01*
X0172124Y0249986D01*
X0171731Y0249907D01*
X0171612Y0250380D01*
X0171612Y0250419D01*
X0171770Y0250498D01*
X0172085Y0250576D01*
X0172833Y0250576D01*
X0173109Y0250498D01*
X0173345Y0250380D01*
X0173542Y0250301D01*
X0173817Y0250104D01*
X0173975Y0249868D01*
X0174172Y0249553D01*
X0174290Y0249238D01*
X0174290Y0248372D01*
X0174172Y0247939D01*
X0174163Y0247926D02*
X0173351Y0247926D01*
X0173320Y0247888D02*
X0174138Y0247888D01*
X0174113Y0247851D02*
X0173290Y0247851D01*
X0173250Y0247813D02*
X0174088Y0247813D01*
X0174062Y0247775D02*
X0173175Y0247775D01*
X0173099Y0247737D02*
X0174037Y0247737D01*
X0174012Y0247699D02*
X0173023Y0247699D01*
X0172948Y0247661D02*
X0173987Y0247661D01*
X0173961Y0247623D02*
X0172885Y0247623D01*
X0172822Y0247585D02*
X0173936Y0247585D01*
X0173899Y0247547D02*
X0172759Y0247547D01*
X0172715Y0247547D02*
X0171672Y0247547D01*
X0171666Y0247510D02*
X0173861Y0247510D01*
X0173823Y0247472D02*
X0171659Y0247472D01*
X0171653Y0247434D02*
X0173785Y0247434D01*
X0173747Y0247396D02*
X0171647Y0247396D01*
X0171640Y0247358D02*
X0173692Y0247358D01*
X0173633Y0247320D02*
X0171634Y0247320D01*
X0171628Y0247282D02*
X0173573Y0247282D01*
X0173514Y0247244D02*
X0171621Y0247244D01*
X0171615Y0247207D02*
X0173454Y0247207D01*
X0173395Y0247169D02*
X0171667Y0247169D01*
X0171762Y0247131D02*
X0173335Y0247131D01*
X0173211Y0247093D02*
X0171885Y0247093D01*
X0172036Y0247055D02*
X0173021Y0247055D01*
X0173381Y0247964D02*
X0174179Y0247964D01*
X0174189Y0248002D02*
X0173411Y0248002D01*
X0173437Y0248040D02*
X0174199Y0248040D01*
X0174209Y0248078D02*
X0173460Y0248078D01*
X0173483Y0248116D02*
X0174220Y0248116D01*
X0174230Y0248154D02*
X0173505Y0248154D01*
X0173528Y0248191D02*
X0174240Y0248191D01*
X0174251Y0248229D02*
X0173548Y0248229D01*
X0173564Y0248267D02*
X0174261Y0248267D01*
X0174271Y0248305D02*
X0173581Y0248305D01*
X0173597Y0248343D02*
X0174282Y0248343D01*
X0174290Y0248381D02*
X0173613Y0248381D01*
X0173629Y0248419D02*
X0174290Y0248419D01*
X0174290Y0248457D02*
X0173646Y0248457D01*
X0173660Y0248495D02*
X0174290Y0248495D01*
X0174290Y0248532D02*
X0173660Y0248532D01*
X0173660Y0248570D02*
X0174290Y0248570D01*
X0174290Y0248608D02*
X0173660Y0248608D01*
X0173660Y0248646D02*
X0174290Y0248646D01*
X0174290Y0248684D02*
X0173660Y0248684D01*
X0173660Y0248722D02*
X0174290Y0248722D01*
X0174290Y0248760D02*
X0173660Y0248760D01*
X0173660Y0248798D02*
X0174290Y0248798D01*
X0174290Y0248835D02*
X0173660Y0248835D01*
X0173660Y0248873D02*
X0174290Y0248873D01*
X0174290Y0248911D02*
X0173660Y0248911D01*
X0173660Y0248949D02*
X0174290Y0248949D01*
X0174290Y0248987D02*
X0173660Y0248987D01*
X0173660Y0249025D02*
X0174290Y0249025D01*
X0174290Y0249063D02*
X0173660Y0249063D01*
X0173651Y0249101D02*
X0174290Y0249101D01*
X0174290Y0249139D02*
X0173635Y0249139D01*
X0173619Y0249176D02*
X0174290Y0249176D01*
X0174290Y0249214D02*
X0173602Y0249214D01*
X0173586Y0249252D02*
X0174284Y0249252D01*
X0174270Y0249290D02*
X0173570Y0249290D01*
X0173554Y0249328D02*
X0174256Y0249328D01*
X0174242Y0249366D02*
X0173536Y0249366D01*
X0173513Y0249404D02*
X0174227Y0249404D01*
X0174213Y0249442D02*
X0173490Y0249442D01*
X0173467Y0249479D02*
X0174199Y0249479D01*
X0174185Y0249517D02*
X0173445Y0249517D01*
X0173421Y0249555D02*
X0174170Y0249555D01*
X0174146Y0249593D02*
X0173383Y0249593D01*
X0173345Y0249631D02*
X0174123Y0249631D01*
X0174099Y0249669D02*
X0173307Y0249669D01*
X0173270Y0249707D02*
X0174075Y0249707D01*
X0174052Y0249745D02*
X0173214Y0249745D01*
X0173158Y0249782D02*
X0174028Y0249782D01*
X0174004Y0249820D02*
X0173101Y0249820D01*
X0173044Y0249858D02*
X0173981Y0249858D01*
X0173956Y0249896D02*
X0172963Y0249896D01*
X0172875Y0249934D02*
X0173930Y0249934D01*
X0173905Y0249972D02*
X0172787Y0249972D01*
X0172960Y0250540D02*
X0171940Y0250540D01*
X0171788Y0250502D02*
X0173092Y0250502D01*
X0173175Y0250464D02*
X0171703Y0250464D01*
X0171628Y0250426D02*
X0173251Y0250426D01*
X0173327Y0250389D02*
X0171612Y0250389D01*
X0171620Y0250351D02*
X0173417Y0250351D01*
X0173511Y0250313D02*
X0171629Y0250313D01*
X0171639Y0250275D02*
X0173578Y0250275D01*
X0173631Y0250237D02*
X0171648Y0250237D01*
X0171658Y0250199D02*
X0173684Y0250199D01*
X0173737Y0250161D02*
X0171667Y0250161D01*
X0171676Y0250123D02*
X0173790Y0250123D01*
X0173829Y0250086D02*
X0171686Y0250086D01*
X0171695Y0250048D02*
X0173855Y0250048D01*
X0173880Y0250010D02*
X0171705Y0250010D01*
X0171714Y0249972D02*
X0172055Y0249972D01*
X0171865Y0249934D02*
X0171724Y0249934D01*
X0170983Y0249934D02*
X0169760Y0249934D01*
X0169723Y0249946D02*
X0169172Y0249946D01*
X0168935Y0249828D01*
X0168778Y0249592D01*
X0168699Y0249435D01*
X0168699Y0247112D01*
X0168069Y0247112D01*
X0168069Y0249631D01*
X0168804Y0249631D01*
X0168829Y0249669D02*
X0168082Y0249669D01*
X0168069Y0249631D02*
X0168148Y0249868D01*
X0168227Y0250025D01*
X0168305Y0250143D01*
X0168463Y0250301D01*
X0168581Y0250380D01*
X0168738Y0250458D01*
X0168935Y0250537D01*
X0169053Y0250576D01*
X0169447Y0250576D01*
X0169723Y0250498D01*
X0170038Y0250340D01*
X0170195Y0250183D01*
X0170313Y0250025D01*
X0170353Y0250025D01*
X0170353Y0252072D01*
X0170983Y0252072D01*
X0170983Y0247112D01*
X0170353Y0247112D01*
X0170353Y0249317D01*
X0170195Y0249631D01*
X0170983Y0249631D01*
X0170983Y0249669D02*
X0170158Y0249669D01*
X0170195Y0249631D02*
X0169959Y0249868D01*
X0169723Y0249946D01*
X0169874Y0249896D02*
X0170983Y0249896D01*
X0170983Y0249858D02*
X0169968Y0249858D01*
X0170006Y0249820D02*
X0170983Y0249820D01*
X0170983Y0249782D02*
X0170044Y0249782D01*
X0170082Y0249745D02*
X0170983Y0249745D01*
X0170983Y0249707D02*
X0170120Y0249707D01*
X0170214Y0249593D02*
X0170983Y0249593D01*
X0170983Y0249555D02*
X0170233Y0249555D01*
X0170252Y0249517D02*
X0170983Y0249517D01*
X0170983Y0249479D02*
X0170271Y0249479D01*
X0170290Y0249442D02*
X0170983Y0249442D01*
X0170983Y0249404D02*
X0170309Y0249404D01*
X0170328Y0249366D02*
X0170983Y0249366D01*
X0170983Y0249328D02*
X0170347Y0249328D01*
X0170353Y0249290D02*
X0170983Y0249290D01*
X0170983Y0249252D02*
X0170353Y0249252D01*
X0170353Y0249214D02*
X0170983Y0249214D01*
X0170983Y0249176D02*
X0170353Y0249176D01*
X0170353Y0249139D02*
X0170983Y0249139D01*
X0170983Y0249101D02*
X0170353Y0249101D01*
X0170353Y0249063D02*
X0170983Y0249063D01*
X0170983Y0249025D02*
X0170353Y0249025D01*
X0170353Y0248987D02*
X0170983Y0248987D01*
X0170983Y0248949D02*
X0170353Y0248949D01*
X0170353Y0248911D02*
X0170983Y0248911D01*
X0170983Y0248873D02*
X0170353Y0248873D01*
X0170353Y0248835D02*
X0170983Y0248835D01*
X0170983Y0248798D02*
X0170353Y0248798D01*
X0170353Y0248760D02*
X0170983Y0248760D01*
X0170983Y0248722D02*
X0170353Y0248722D01*
X0170353Y0248684D02*
X0170983Y0248684D01*
X0170983Y0248646D02*
X0170353Y0248646D01*
X0170353Y0248608D02*
X0170983Y0248608D01*
X0170983Y0248570D02*
X0170353Y0248570D01*
X0170353Y0248532D02*
X0170983Y0248532D01*
X0170983Y0248495D02*
X0170353Y0248495D01*
X0170353Y0248457D02*
X0170983Y0248457D01*
X0170983Y0248419D02*
X0170353Y0248419D01*
X0170353Y0248381D02*
X0170983Y0248381D01*
X0170983Y0248343D02*
X0170353Y0248343D01*
X0170353Y0248305D02*
X0170983Y0248305D01*
X0170983Y0248267D02*
X0170353Y0248267D01*
X0170353Y0248229D02*
X0170983Y0248229D01*
X0170983Y0248191D02*
X0170353Y0248191D01*
X0170353Y0248154D02*
X0170983Y0248154D01*
X0170983Y0248116D02*
X0170353Y0248116D01*
X0170353Y0248078D02*
X0170983Y0248078D01*
X0170983Y0248040D02*
X0170353Y0248040D01*
X0170353Y0248002D02*
X0170983Y0248002D01*
X0170983Y0247964D02*
X0170353Y0247964D01*
X0170353Y0247926D02*
X0170983Y0247926D01*
X0170983Y0247888D02*
X0170353Y0247888D01*
X0170353Y0247851D02*
X0170983Y0247851D01*
X0170983Y0247813D02*
X0170353Y0247813D01*
X0170353Y0247775D02*
X0170983Y0247775D01*
X0170983Y0247737D02*
X0170353Y0247737D01*
X0170353Y0247699D02*
X0170983Y0247699D01*
X0170983Y0247661D02*
X0170353Y0247661D01*
X0170353Y0247623D02*
X0170983Y0247623D01*
X0170983Y0247585D02*
X0170353Y0247585D01*
X0170353Y0247547D02*
X0170983Y0247547D01*
X0170983Y0247510D02*
X0170353Y0247510D01*
X0170353Y0247472D02*
X0170983Y0247472D01*
X0170983Y0247434D02*
X0170353Y0247434D01*
X0170353Y0247396D02*
X0170983Y0247396D01*
X0170983Y0247358D02*
X0170353Y0247358D01*
X0170353Y0247320D02*
X0170983Y0247320D01*
X0170983Y0247282D02*
X0170353Y0247282D01*
X0170353Y0247244D02*
X0170983Y0247244D01*
X0170983Y0247207D02*
X0170353Y0247207D01*
X0170353Y0247169D02*
X0170983Y0247169D01*
X0170983Y0247131D02*
X0170353Y0247131D01*
X0171678Y0247585D02*
X0172158Y0247585D01*
X0171969Y0247623D02*
X0171685Y0247623D01*
X0171691Y0247661D02*
X0171779Y0247661D01*
X0170983Y0249972D02*
X0168200Y0249972D01*
X0168219Y0250010D02*
X0170983Y0250010D01*
X0170983Y0250048D02*
X0170353Y0250048D01*
X0170353Y0250086D02*
X0170983Y0250086D01*
X0170983Y0250123D02*
X0170353Y0250123D01*
X0170353Y0250161D02*
X0170983Y0250161D01*
X0170983Y0250199D02*
X0170353Y0250199D01*
X0170353Y0250237D02*
X0170983Y0250237D01*
X0170983Y0250275D02*
X0170353Y0250275D01*
X0170353Y0250313D02*
X0170983Y0250313D01*
X0170983Y0250351D02*
X0170353Y0250351D01*
X0170353Y0250389D02*
X0170983Y0250389D01*
X0170983Y0250426D02*
X0170353Y0250426D01*
X0170353Y0250464D02*
X0170983Y0250464D01*
X0170983Y0250502D02*
X0170353Y0250502D01*
X0170353Y0250540D02*
X0170983Y0250540D01*
X0170983Y0250578D02*
X0170353Y0250578D01*
X0170353Y0250616D02*
X0170983Y0250616D01*
X0170983Y0250654D02*
X0170353Y0250654D01*
X0170353Y0250692D02*
X0170983Y0250692D01*
X0170983Y0250730D02*
X0170353Y0250730D01*
X0170353Y0250767D02*
X0170983Y0250767D01*
X0170983Y0250805D02*
X0170353Y0250805D01*
X0170353Y0250843D02*
X0170983Y0250843D01*
X0170983Y0250881D02*
X0170353Y0250881D01*
X0170353Y0250919D02*
X0170983Y0250919D01*
X0170983Y0250957D02*
X0170353Y0250957D01*
X0170353Y0250995D02*
X0170983Y0250995D01*
X0170983Y0251033D02*
X0170353Y0251033D01*
X0170353Y0251070D02*
X0170983Y0251070D01*
X0170983Y0251108D02*
X0170353Y0251108D01*
X0170353Y0251146D02*
X0170983Y0251146D01*
X0170983Y0251184D02*
X0170353Y0251184D01*
X0170353Y0251222D02*
X0170983Y0251222D01*
X0170983Y0251260D02*
X0170353Y0251260D01*
X0170353Y0251298D02*
X0170983Y0251298D01*
X0170983Y0251336D02*
X0170353Y0251336D01*
X0170353Y0251374D02*
X0170983Y0251374D01*
X0170983Y0251411D02*
X0170353Y0251411D01*
X0170353Y0251449D02*
X0170983Y0251449D01*
X0170983Y0251487D02*
X0170353Y0251487D01*
X0170353Y0251525D02*
X0170983Y0251525D01*
X0170983Y0251563D02*
X0170353Y0251563D01*
X0170353Y0251601D02*
X0170983Y0251601D01*
X0170983Y0251639D02*
X0170353Y0251639D01*
X0170353Y0251677D02*
X0170983Y0251677D01*
X0170983Y0251714D02*
X0170353Y0251714D01*
X0170353Y0251752D02*
X0170983Y0251752D01*
X0170983Y0251790D02*
X0170353Y0251790D01*
X0170353Y0251828D02*
X0170983Y0251828D01*
X0170983Y0251866D02*
X0170353Y0251866D01*
X0170353Y0251904D02*
X0170983Y0251904D01*
X0170983Y0251942D02*
X0170353Y0251942D01*
X0170353Y0251980D02*
X0170983Y0251980D01*
X0170983Y0252017D02*
X0170353Y0252017D01*
X0170353Y0252055D02*
X0170983Y0252055D01*
X0170017Y0250351D02*
X0168538Y0250351D01*
X0168481Y0250313D02*
X0170065Y0250313D01*
X0170103Y0250275D02*
X0168437Y0250275D01*
X0168399Y0250237D02*
X0170141Y0250237D01*
X0170179Y0250199D02*
X0168361Y0250199D01*
X0168323Y0250161D02*
X0170211Y0250161D01*
X0170240Y0250123D02*
X0168292Y0250123D01*
X0168267Y0250086D02*
X0170268Y0250086D01*
X0170296Y0250048D02*
X0168242Y0250048D01*
X0168181Y0249934D02*
X0169147Y0249934D01*
X0169071Y0249896D02*
X0168162Y0249896D01*
X0168145Y0249858D02*
X0168995Y0249858D01*
X0168930Y0249820D02*
X0168132Y0249820D01*
X0168119Y0249782D02*
X0168905Y0249782D01*
X0168879Y0249745D02*
X0168107Y0249745D01*
X0168094Y0249707D02*
X0168854Y0249707D01*
X0168778Y0249593D02*
X0168069Y0249593D01*
X0168069Y0249555D02*
X0168759Y0249555D01*
X0168740Y0249517D02*
X0168069Y0249517D01*
X0168069Y0249479D02*
X0168721Y0249479D01*
X0168703Y0249442D02*
X0168069Y0249442D01*
X0168069Y0249404D02*
X0168699Y0249404D01*
X0168699Y0249366D02*
X0168069Y0249366D01*
X0168069Y0249328D02*
X0168699Y0249328D01*
X0168699Y0249290D02*
X0168069Y0249290D01*
X0168069Y0249252D02*
X0168699Y0249252D01*
X0168699Y0249214D02*
X0168069Y0249214D01*
X0168069Y0249176D02*
X0168699Y0249176D01*
X0168699Y0249139D02*
X0168069Y0249139D01*
X0168069Y0249101D02*
X0168699Y0249101D01*
X0168699Y0249063D02*
X0168069Y0249063D01*
X0168069Y0249025D02*
X0168699Y0249025D01*
X0168699Y0248987D02*
X0168069Y0248987D01*
X0168069Y0248949D02*
X0168699Y0248949D01*
X0168699Y0248911D02*
X0168069Y0248911D01*
X0168069Y0248873D02*
X0168699Y0248873D01*
X0168699Y0248835D02*
X0168069Y0248835D01*
X0168069Y0248798D02*
X0168699Y0248798D01*
X0168699Y0248760D02*
X0168069Y0248760D01*
X0168069Y0248722D02*
X0168699Y0248722D01*
X0168699Y0248684D02*
X0168069Y0248684D01*
X0168069Y0248646D02*
X0168699Y0248646D01*
X0168699Y0248608D02*
X0168069Y0248608D01*
X0168069Y0248570D02*
X0168699Y0248570D01*
X0168699Y0248532D02*
X0168069Y0248532D01*
X0168069Y0248495D02*
X0168699Y0248495D01*
X0168699Y0248457D02*
X0168069Y0248457D01*
X0168069Y0248419D02*
X0168699Y0248419D01*
X0168699Y0248381D02*
X0168069Y0248381D01*
X0168069Y0248343D02*
X0168699Y0248343D01*
X0168699Y0248305D02*
X0168069Y0248305D01*
X0168069Y0248267D02*
X0168699Y0248267D01*
X0168699Y0248229D02*
X0168069Y0248229D01*
X0168069Y0248191D02*
X0168699Y0248191D01*
X0168699Y0248154D02*
X0168069Y0248154D01*
X0168069Y0248116D02*
X0168699Y0248116D01*
X0168699Y0248078D02*
X0168069Y0248078D01*
X0168069Y0248040D02*
X0168699Y0248040D01*
X0168699Y0248002D02*
X0168069Y0248002D01*
X0168069Y0247964D02*
X0168699Y0247964D01*
X0168699Y0247926D02*
X0168069Y0247926D01*
X0168069Y0247888D02*
X0168699Y0247888D01*
X0168699Y0247851D02*
X0168069Y0247851D01*
X0168069Y0247813D02*
X0168699Y0247813D01*
X0168699Y0247775D02*
X0168069Y0247775D01*
X0168069Y0247737D02*
X0168699Y0247737D01*
X0168699Y0247699D02*
X0168069Y0247699D01*
X0168069Y0247661D02*
X0168699Y0247661D01*
X0168699Y0247623D02*
X0168069Y0247623D01*
X0168069Y0247585D02*
X0168699Y0247585D01*
X0168699Y0247547D02*
X0168069Y0247547D01*
X0168069Y0247510D02*
X0168699Y0247510D01*
X0168699Y0247472D02*
X0168069Y0247472D01*
X0168069Y0247434D02*
X0168699Y0247434D01*
X0168699Y0247396D02*
X0168069Y0247396D01*
X0168069Y0247358D02*
X0168699Y0247358D01*
X0168699Y0247320D02*
X0168069Y0247320D01*
X0168069Y0247282D02*
X0168699Y0247282D01*
X0168699Y0247244D02*
X0168069Y0247244D01*
X0168069Y0247207D02*
X0168699Y0247207D01*
X0168699Y0247169D02*
X0168069Y0247169D01*
X0168069Y0247131D02*
X0168699Y0247131D01*
X0167124Y0247131D02*
X0166494Y0247131D01*
X0166494Y0247112D02*
X0167124Y0247112D01*
X0167124Y0250498D01*
X0166494Y0250498D01*
X0166494Y0247112D01*
X0166494Y0247169D02*
X0167124Y0247169D01*
X0167124Y0247207D02*
X0166494Y0247207D01*
X0166494Y0247244D02*
X0167124Y0247244D01*
X0167124Y0247282D02*
X0166494Y0247282D01*
X0166494Y0247320D02*
X0167124Y0247320D01*
X0167124Y0247358D02*
X0166494Y0247358D01*
X0166494Y0247396D02*
X0167124Y0247396D01*
X0167124Y0247434D02*
X0166494Y0247434D01*
X0166494Y0247472D02*
X0167124Y0247472D01*
X0167124Y0247510D02*
X0166494Y0247510D01*
X0166494Y0247547D02*
X0167124Y0247547D01*
X0167124Y0247585D02*
X0166494Y0247585D01*
X0166494Y0247623D02*
X0167124Y0247623D01*
X0167124Y0247661D02*
X0166494Y0247661D01*
X0166494Y0247699D02*
X0167124Y0247699D01*
X0167124Y0247737D02*
X0166494Y0247737D01*
X0166494Y0247775D02*
X0167124Y0247775D01*
X0167124Y0247813D02*
X0166494Y0247813D01*
X0166494Y0247851D02*
X0167124Y0247851D01*
X0167124Y0247888D02*
X0166494Y0247888D01*
X0166494Y0247926D02*
X0167124Y0247926D01*
X0167124Y0247964D02*
X0166494Y0247964D01*
X0166494Y0248002D02*
X0167124Y0248002D01*
X0167124Y0248040D02*
X0166494Y0248040D01*
X0166494Y0248078D02*
X0167124Y0248078D01*
X0167124Y0248116D02*
X0166494Y0248116D01*
X0166494Y0248154D02*
X0167124Y0248154D01*
X0167124Y0248191D02*
X0166494Y0248191D01*
X0166494Y0248229D02*
X0167124Y0248229D01*
X0167124Y0248267D02*
X0166494Y0248267D01*
X0166494Y0248305D02*
X0167124Y0248305D01*
X0167124Y0248343D02*
X0166494Y0248343D01*
X0166494Y0248381D02*
X0167124Y0248381D01*
X0167124Y0248419D02*
X0166494Y0248419D01*
X0166494Y0248457D02*
X0167124Y0248457D01*
X0167124Y0248495D02*
X0166494Y0248495D01*
X0166494Y0248532D02*
X0167124Y0248532D01*
X0167124Y0248570D02*
X0166494Y0248570D01*
X0166494Y0248608D02*
X0167124Y0248608D01*
X0167124Y0248646D02*
X0166494Y0248646D01*
X0166494Y0248684D02*
X0167124Y0248684D01*
X0167124Y0248722D02*
X0166494Y0248722D01*
X0166494Y0248760D02*
X0167124Y0248760D01*
X0167124Y0248798D02*
X0166494Y0248798D01*
X0166494Y0248835D02*
X0167124Y0248835D01*
X0167124Y0248873D02*
X0166494Y0248873D01*
X0166494Y0248911D02*
X0167124Y0248911D01*
X0167124Y0248949D02*
X0166494Y0248949D01*
X0166494Y0248987D02*
X0167124Y0248987D01*
X0167124Y0249025D02*
X0166494Y0249025D01*
X0166494Y0249063D02*
X0167124Y0249063D01*
X0167124Y0249101D02*
X0166494Y0249101D01*
X0166494Y0249139D02*
X0167124Y0249139D01*
X0167124Y0249176D02*
X0166494Y0249176D01*
X0166494Y0249214D02*
X0167124Y0249214D01*
X0167124Y0249252D02*
X0166494Y0249252D01*
X0166494Y0249290D02*
X0167124Y0249290D01*
X0167124Y0249328D02*
X0166494Y0249328D01*
X0166494Y0249366D02*
X0167124Y0249366D01*
X0167124Y0249404D02*
X0166494Y0249404D01*
X0166494Y0249442D02*
X0167124Y0249442D01*
X0167124Y0249479D02*
X0166494Y0249479D01*
X0166494Y0249517D02*
X0167124Y0249517D01*
X0167124Y0249555D02*
X0166494Y0249555D01*
X0166494Y0249593D02*
X0167124Y0249593D01*
X0167124Y0249631D02*
X0166494Y0249631D01*
X0166494Y0249669D02*
X0167124Y0249669D01*
X0167124Y0249707D02*
X0166494Y0249707D01*
X0166494Y0249745D02*
X0167124Y0249745D01*
X0167124Y0249782D02*
X0166494Y0249782D01*
X0166494Y0249820D02*
X0167124Y0249820D01*
X0167124Y0249858D02*
X0166494Y0249858D01*
X0166494Y0249896D02*
X0167124Y0249896D01*
X0167124Y0249934D02*
X0166494Y0249934D01*
X0166494Y0249972D02*
X0167124Y0249972D01*
X0167124Y0250010D02*
X0166494Y0250010D01*
X0166494Y0250048D02*
X0167124Y0250048D01*
X0167124Y0250086D02*
X0166494Y0250086D01*
X0166494Y0250123D02*
X0167124Y0250123D01*
X0167124Y0250161D02*
X0166494Y0250161D01*
X0166494Y0250199D02*
X0167124Y0250199D01*
X0167124Y0250237D02*
X0166494Y0250237D01*
X0166494Y0250275D02*
X0167124Y0250275D01*
X0167124Y0250313D02*
X0166494Y0250313D01*
X0166494Y0250351D02*
X0167124Y0250351D01*
X0167124Y0250389D02*
X0166494Y0250389D01*
X0166494Y0250426D02*
X0167124Y0250426D01*
X0167124Y0250464D02*
X0166494Y0250464D01*
X0166652Y0251049D02*
X0166927Y0251049D01*
X0167085Y0251128D01*
X0167203Y0251285D01*
X0167223Y0251521D01*
X0167164Y0251679D01*
X0167006Y0251797D01*
X0166927Y0251836D01*
X0166691Y0251836D01*
X0166514Y0251718D01*
X0166416Y0251521D01*
X0166416Y0251324D01*
X0166494Y0251167D01*
X0166652Y0251049D01*
X0166623Y0251070D02*
X0166971Y0251070D01*
X0167046Y0251108D02*
X0166572Y0251108D01*
X0166522Y0251146D02*
X0167099Y0251146D01*
X0167127Y0251184D02*
X0166486Y0251184D01*
X0166467Y0251222D02*
X0167156Y0251222D01*
X0167184Y0251260D02*
X0166448Y0251260D01*
X0166429Y0251298D02*
X0167204Y0251298D01*
X0167207Y0251336D02*
X0166416Y0251336D01*
X0166416Y0251374D02*
X0167210Y0251374D01*
X0167214Y0251411D02*
X0166416Y0251411D01*
X0166416Y0251449D02*
X0167217Y0251449D01*
X0167220Y0251487D02*
X0166416Y0251487D01*
X0166418Y0251525D02*
X0167221Y0251525D01*
X0167207Y0251563D02*
X0166436Y0251563D01*
X0166455Y0251601D02*
X0167193Y0251601D01*
X0167179Y0251639D02*
X0166474Y0251639D01*
X0166493Y0251677D02*
X0167164Y0251677D01*
X0167116Y0251714D02*
X0166512Y0251714D01*
X0166565Y0251752D02*
X0167066Y0251752D01*
X0167015Y0251790D02*
X0166622Y0251790D01*
X0166679Y0251828D02*
X0166944Y0251828D01*
X0165549Y0250498D02*
X0164998Y0250498D01*
X0164998Y0249868D01*
X0164526Y0249868D01*
X0164605Y0249789D01*
X0164920Y0249317D01*
X0164920Y0248332D01*
X0164841Y0248096D01*
X0164723Y0247860D01*
X0164565Y0247702D01*
X0164290Y0247545D01*
X0163738Y0247545D01*
X0163463Y0247663D01*
X0163345Y0247781D01*
X0163187Y0247978D01*
X0163030Y0248529D01*
X0163030Y0249080D01*
X0163187Y0249553D01*
X0163345Y0249789D01*
X0163660Y0250025D01*
X0164290Y0250025D01*
X0164526Y0249868D01*
X0164998Y0249868D01*
X0164998Y0249946D01*
X0164920Y0249946D01*
X0164821Y0250183D01*
X0164664Y0250340D01*
X0164368Y0250498D01*
X0164132Y0250576D01*
X0163502Y0250576D01*
X0163266Y0250498D01*
X0162951Y0250340D01*
X0162636Y0250025D01*
X0162479Y0249710D01*
X0162321Y0249238D01*
X0162321Y0248372D01*
X0162479Y0247899D01*
X0162636Y0247584D01*
X0162951Y0247269D01*
X0163109Y0247191D01*
X0163187Y0247112D01*
X0163423Y0247033D01*
X0164368Y0247033D01*
X0164683Y0247191D01*
X0164762Y0247269D01*
X0164841Y0247427D01*
X0164920Y0247427D01*
X0164920Y0245655D01*
X0165549Y0245655D01*
X0165549Y0250498D01*
X0165549Y0250464D02*
X0164998Y0250464D01*
X0164998Y0250426D02*
X0165549Y0250426D01*
X0165549Y0250389D02*
X0164998Y0250389D01*
X0164998Y0250351D02*
X0165549Y0250351D01*
X0165549Y0250313D02*
X0164998Y0250313D01*
X0164998Y0250275D02*
X0165549Y0250275D01*
X0165549Y0250237D02*
X0164998Y0250237D01*
X0164998Y0250199D02*
X0165549Y0250199D01*
X0165549Y0250161D02*
X0164998Y0250161D01*
X0164998Y0250123D02*
X0165549Y0250123D01*
X0165549Y0250086D02*
X0164998Y0250086D01*
X0164998Y0250048D02*
X0165549Y0250048D01*
X0165549Y0250010D02*
X0164998Y0250010D01*
X0164998Y0249972D02*
X0165549Y0249972D01*
X0165549Y0249934D02*
X0164998Y0249934D01*
X0164426Y0249934D01*
X0164370Y0249972D02*
X0164909Y0249972D01*
X0164893Y0250010D02*
X0164313Y0250010D01*
X0164483Y0249896D02*
X0164998Y0249896D01*
X0165549Y0249896D01*
X0165549Y0249858D02*
X0164535Y0249858D01*
X0164573Y0249820D02*
X0165549Y0249820D01*
X0165549Y0249782D02*
X0164609Y0249782D01*
X0164634Y0249745D02*
X0165549Y0249745D01*
X0165549Y0249707D02*
X0164659Y0249707D01*
X0164685Y0249669D02*
X0165549Y0249669D01*
X0165549Y0249631D02*
X0164710Y0249631D01*
X0164735Y0249593D02*
X0165549Y0249593D01*
X0165549Y0249555D02*
X0164760Y0249555D01*
X0164786Y0249517D02*
X0165549Y0249517D01*
X0165549Y0249479D02*
X0164811Y0249479D01*
X0164836Y0249442D02*
X0165549Y0249442D01*
X0165549Y0249404D02*
X0164861Y0249404D01*
X0164887Y0249366D02*
X0165549Y0249366D01*
X0165549Y0249328D02*
X0164912Y0249328D01*
X0164920Y0249290D02*
X0165549Y0249290D01*
X0165549Y0249252D02*
X0164920Y0249252D01*
X0164920Y0249214D02*
X0165549Y0249214D01*
X0165549Y0249176D02*
X0164920Y0249176D01*
X0164920Y0249139D02*
X0165549Y0249139D01*
X0165549Y0249101D02*
X0164920Y0249101D01*
X0164920Y0249063D02*
X0165549Y0249063D01*
X0165549Y0249025D02*
X0164920Y0249025D01*
X0164920Y0248987D02*
X0165549Y0248987D01*
X0165549Y0248949D02*
X0164920Y0248949D01*
X0164920Y0248911D02*
X0165549Y0248911D01*
X0165549Y0248873D02*
X0164920Y0248873D01*
X0164920Y0248835D02*
X0165549Y0248835D01*
X0165549Y0248798D02*
X0164920Y0248798D01*
X0164920Y0248760D02*
X0165549Y0248760D01*
X0165549Y0248722D02*
X0164920Y0248722D01*
X0164920Y0248684D02*
X0165549Y0248684D01*
X0165549Y0248646D02*
X0164920Y0248646D01*
X0164920Y0248608D02*
X0165549Y0248608D01*
X0165549Y0248570D02*
X0164920Y0248570D01*
X0164920Y0248532D02*
X0165549Y0248532D01*
X0165549Y0248495D02*
X0164920Y0248495D01*
X0164920Y0248457D02*
X0165549Y0248457D01*
X0165549Y0248419D02*
X0164920Y0248419D01*
X0164920Y0248381D02*
X0165549Y0248381D01*
X0165549Y0248343D02*
X0164920Y0248343D01*
X0164910Y0248305D02*
X0165549Y0248305D01*
X0165549Y0248267D02*
X0164898Y0248267D01*
X0164885Y0248229D02*
X0165549Y0248229D01*
X0165549Y0248191D02*
X0164873Y0248191D01*
X0164860Y0248154D02*
X0165549Y0248154D01*
X0165549Y0248116D02*
X0164847Y0248116D01*
X0164832Y0248078D02*
X0165549Y0248078D01*
X0165549Y0248040D02*
X0164813Y0248040D01*
X0164794Y0248002D02*
X0165549Y0248002D01*
X0165549Y0247964D02*
X0164775Y0247964D01*
X0164756Y0247926D02*
X0165549Y0247926D01*
X0165549Y0247888D02*
X0164737Y0247888D01*
X0164713Y0247851D02*
X0165549Y0247851D01*
X0165549Y0247813D02*
X0164676Y0247813D01*
X0164638Y0247775D02*
X0165549Y0247775D01*
X0165549Y0247737D02*
X0164600Y0247737D01*
X0164559Y0247699D02*
X0165549Y0247699D01*
X0165549Y0247661D02*
X0164493Y0247661D01*
X0164427Y0247623D02*
X0165549Y0247623D01*
X0165549Y0247585D02*
X0164360Y0247585D01*
X0164294Y0247547D02*
X0165549Y0247547D01*
X0165549Y0247510D02*
X0162711Y0247510D01*
X0162673Y0247547D02*
X0163732Y0247547D01*
X0163644Y0247585D02*
X0162636Y0247585D01*
X0162617Y0247623D02*
X0163556Y0247623D01*
X0163467Y0247661D02*
X0162598Y0247661D01*
X0162579Y0247699D02*
X0163427Y0247699D01*
X0163389Y0247737D02*
X0162560Y0247737D01*
X0162541Y0247775D02*
X0163351Y0247775D01*
X0163320Y0247813D02*
X0162522Y0247813D01*
X0162503Y0247851D02*
X0163289Y0247851D01*
X0163259Y0247888D02*
X0162484Y0247888D01*
X0162470Y0247926D02*
X0163229Y0247926D01*
X0163198Y0247964D02*
X0162457Y0247964D01*
X0162444Y0248002D02*
X0163180Y0248002D01*
X0163170Y0248040D02*
X0162432Y0248040D01*
X0162419Y0248078D02*
X0163159Y0248078D01*
X0163148Y0248116D02*
X0162406Y0248116D01*
X0162394Y0248154D02*
X0163137Y0248154D01*
X0163126Y0248191D02*
X0162381Y0248191D01*
X0162369Y0248229D02*
X0163115Y0248229D01*
X0163105Y0248267D02*
X0162356Y0248267D01*
X0162343Y0248305D02*
X0163094Y0248305D01*
X0163083Y0248343D02*
X0162331Y0248343D01*
X0162321Y0248381D02*
X0163072Y0248381D01*
X0163061Y0248419D02*
X0162321Y0248419D01*
X0162321Y0248457D02*
X0163050Y0248457D01*
X0163040Y0248495D02*
X0162321Y0248495D01*
X0162321Y0248532D02*
X0163030Y0248532D01*
X0163030Y0248570D02*
X0162321Y0248570D01*
X0162321Y0248608D02*
X0163030Y0248608D01*
X0163030Y0248646D02*
X0162321Y0248646D01*
X0162321Y0248684D02*
X0163030Y0248684D01*
X0163030Y0248722D02*
X0162321Y0248722D01*
X0162321Y0248760D02*
X0163030Y0248760D01*
X0163030Y0248798D02*
X0162321Y0248798D01*
X0162321Y0248835D02*
X0163030Y0248835D01*
X0163030Y0248873D02*
X0162321Y0248873D01*
X0162321Y0248911D02*
X0163030Y0248911D01*
X0163030Y0248949D02*
X0162321Y0248949D01*
X0162321Y0248987D02*
X0163030Y0248987D01*
X0163030Y0249025D02*
X0162321Y0249025D01*
X0162321Y0249063D02*
X0163030Y0249063D01*
X0163037Y0249101D02*
X0162321Y0249101D01*
X0162321Y0249139D02*
X0163049Y0249139D01*
X0163062Y0249176D02*
X0162321Y0249176D01*
X0162321Y0249214D02*
X0163074Y0249214D01*
X0163087Y0249252D02*
X0162326Y0249252D01*
X0162339Y0249290D02*
X0163100Y0249290D01*
X0163112Y0249328D02*
X0162351Y0249328D01*
X0162364Y0249366D02*
X0163125Y0249366D01*
X0163138Y0249404D02*
X0162376Y0249404D01*
X0162389Y0249442D02*
X0163150Y0249442D01*
X0163163Y0249479D02*
X0162402Y0249479D01*
X0162414Y0249517D02*
X0163175Y0249517D01*
X0163189Y0249555D02*
X0162427Y0249555D01*
X0162440Y0249593D02*
X0163214Y0249593D01*
X0163239Y0249631D02*
X0162452Y0249631D01*
X0162465Y0249669D02*
X0163265Y0249669D01*
X0163290Y0249707D02*
X0162477Y0249707D01*
X0162496Y0249745D02*
X0163315Y0249745D01*
X0163340Y0249782D02*
X0162515Y0249782D01*
X0162534Y0249820D02*
X0163387Y0249820D01*
X0163437Y0249858D02*
X0162553Y0249858D01*
X0162572Y0249896D02*
X0163488Y0249896D01*
X0163538Y0249934D02*
X0162590Y0249934D01*
X0162609Y0249972D02*
X0163589Y0249972D01*
X0163639Y0250010D02*
X0162628Y0250010D01*
X0162659Y0250048D02*
X0164877Y0250048D01*
X0164862Y0250086D02*
X0162696Y0250086D01*
X0162734Y0250123D02*
X0164846Y0250123D01*
X0164830Y0250161D02*
X0162772Y0250161D01*
X0162810Y0250199D02*
X0164805Y0250199D01*
X0164767Y0250237D02*
X0162848Y0250237D01*
X0162886Y0250275D02*
X0164729Y0250275D01*
X0164691Y0250313D02*
X0162924Y0250313D01*
X0162972Y0250351D02*
X0164644Y0250351D01*
X0164573Y0250389D02*
X0163048Y0250389D01*
X0163124Y0250426D02*
X0164502Y0250426D01*
X0164431Y0250464D02*
X0163199Y0250464D01*
X0163280Y0250502D02*
X0164355Y0250502D01*
X0164241Y0250540D02*
X0163393Y0250540D01*
X0161691Y0250540D02*
X0160274Y0250540D01*
X0160274Y0250502D02*
X0161691Y0250502D01*
X0161691Y0250464D02*
X0160274Y0250464D01*
X0160274Y0250426D02*
X0161691Y0250426D01*
X0161691Y0250389D02*
X0160274Y0250389D01*
X0160274Y0250351D02*
X0161691Y0250351D01*
X0161691Y0250313D02*
X0160274Y0250313D01*
X0160274Y0250275D02*
X0161691Y0250275D01*
X0161691Y0250237D02*
X0160274Y0250237D01*
X0160274Y0250199D02*
X0161691Y0250199D01*
X0161691Y0250161D02*
X0160274Y0250161D01*
X0160274Y0250123D02*
X0161691Y0250123D01*
X0161691Y0250086D02*
X0160274Y0250086D01*
X0160274Y0250048D02*
X0161691Y0250048D01*
X0161691Y0250010D02*
X0160274Y0250010D01*
X0160274Y0249972D02*
X0161691Y0249972D01*
X0161691Y0249934D02*
X0160274Y0249934D01*
X0160274Y0249896D02*
X0161691Y0249896D01*
X0161691Y0249858D02*
X0160274Y0249858D01*
X0160256Y0249858D02*
X0158735Y0249858D01*
X0158758Y0249820D02*
X0160274Y0249820D01*
X0161691Y0249820D01*
X0161691Y0249782D02*
X0160274Y0249782D01*
X0158778Y0249782D01*
X0158778Y0249789D02*
X0157557Y0251757D01*
X0159093Y0251757D01*
X0160274Y0249828D01*
X0160274Y0249435D01*
X0159172Y0247033D01*
X0157557Y0247033D01*
X0158778Y0249474D01*
X0158778Y0249789D01*
X0158778Y0249745D02*
X0160274Y0249745D01*
X0161691Y0249745D01*
X0161691Y0249707D02*
X0160274Y0249707D01*
X0158778Y0249707D01*
X0158778Y0249669D02*
X0160274Y0249669D01*
X0161691Y0249669D01*
X0161691Y0249631D02*
X0160274Y0249631D01*
X0158778Y0249631D01*
X0158778Y0249593D02*
X0160274Y0249593D01*
X0161691Y0249593D01*
X0161691Y0249555D02*
X0160274Y0249555D01*
X0158778Y0249555D01*
X0158778Y0249517D02*
X0160274Y0249517D01*
X0161691Y0249517D01*
X0161691Y0249479D02*
X0160274Y0249479D01*
X0158778Y0249479D01*
X0158762Y0249442D02*
X0160274Y0249442D01*
X0161691Y0249442D01*
X0161691Y0249404D02*
X0160274Y0249404D01*
X0160260Y0249404D02*
X0158743Y0249404D01*
X0158724Y0249366D02*
X0160242Y0249366D01*
X0160274Y0249366D02*
X0161691Y0249366D01*
X0161691Y0249328D02*
X0160274Y0249328D01*
X0160274Y0249290D02*
X0161691Y0249290D01*
X0161691Y0249252D02*
X0160274Y0249252D01*
X0160274Y0249214D02*
X0161691Y0249214D01*
X0161691Y0249176D02*
X0160274Y0249176D01*
X0160274Y0249139D02*
X0161691Y0249139D01*
X0161691Y0249101D02*
X0160274Y0249101D01*
X0160274Y0249063D02*
X0161691Y0249063D01*
X0161691Y0249025D02*
X0160274Y0249025D01*
X0160274Y0248987D02*
X0161691Y0248987D01*
X0161691Y0248949D02*
X0160274Y0248949D01*
X0160274Y0248911D02*
X0161691Y0248911D01*
X0161691Y0248873D02*
X0160274Y0248873D01*
X0160274Y0248835D02*
X0161691Y0248835D01*
X0161691Y0248798D02*
X0160274Y0248798D01*
X0160274Y0248760D02*
X0161691Y0248760D01*
X0161691Y0248722D02*
X0160274Y0248722D01*
X0160274Y0248684D02*
X0161691Y0248684D01*
X0161691Y0248646D02*
X0160274Y0248646D01*
X0160274Y0248608D02*
X0161691Y0248608D01*
X0161691Y0248570D02*
X0160274Y0248570D01*
X0160274Y0248532D02*
X0161691Y0248532D01*
X0161691Y0248495D02*
X0160274Y0248495D01*
X0160274Y0248457D02*
X0161691Y0248457D01*
X0161691Y0248419D02*
X0160274Y0248419D01*
X0160274Y0248381D02*
X0161691Y0248381D01*
X0161691Y0248343D02*
X0160274Y0248343D01*
X0160274Y0248305D02*
X0161691Y0248305D01*
X0161691Y0248267D02*
X0160274Y0248267D01*
X0160274Y0248229D02*
X0161691Y0248229D01*
X0161691Y0248191D02*
X0160274Y0248191D01*
X0160274Y0248154D02*
X0161691Y0248154D01*
X0161691Y0248116D02*
X0160274Y0248116D01*
X0160274Y0248078D02*
X0161691Y0248078D01*
X0161691Y0248040D02*
X0160274Y0248040D01*
X0160274Y0248002D02*
X0161691Y0248002D01*
X0161691Y0247964D02*
X0160274Y0247964D01*
X0160274Y0247926D02*
X0161691Y0247926D01*
X0161691Y0247888D02*
X0160274Y0247888D01*
X0160274Y0247851D02*
X0161691Y0247851D01*
X0161691Y0247813D02*
X0160274Y0247813D01*
X0160274Y0247775D02*
X0161691Y0247775D01*
X0161691Y0247737D02*
X0160274Y0247737D01*
X0160274Y0247699D02*
X0161691Y0247699D01*
X0161691Y0247661D02*
X0160274Y0247661D01*
X0160274Y0247623D02*
X0161691Y0247623D01*
X0161691Y0247585D02*
X0160274Y0247585D01*
X0160274Y0247547D02*
X0161691Y0247547D01*
X0161691Y0247510D02*
X0160274Y0247510D01*
X0160274Y0247472D02*
X0161691Y0247472D01*
X0161691Y0247434D02*
X0160274Y0247434D01*
X0160274Y0247396D02*
X0161691Y0247396D01*
X0161691Y0247358D02*
X0160274Y0247358D01*
X0160274Y0247320D02*
X0161691Y0247320D01*
X0161691Y0247282D02*
X0160274Y0247282D01*
X0160274Y0247244D02*
X0161691Y0247244D01*
X0161691Y0247207D02*
X0160274Y0247207D01*
X0160274Y0247169D02*
X0161691Y0247169D01*
X0161691Y0247131D02*
X0160274Y0247131D01*
X0160274Y0247093D02*
X0161691Y0247093D01*
X0161691Y0247055D02*
X0160274Y0247055D01*
X0160274Y0247033D02*
X0160274Y0251757D01*
X0161691Y0251757D01*
X0161691Y0247033D01*
X0160274Y0247033D01*
X0159355Y0247434D02*
X0157758Y0247434D01*
X0157777Y0247472D02*
X0159373Y0247472D01*
X0159390Y0247510D02*
X0157796Y0247510D01*
X0157815Y0247547D02*
X0159408Y0247547D01*
X0159425Y0247585D02*
X0157833Y0247585D01*
X0157852Y0247623D02*
X0159442Y0247623D01*
X0159460Y0247661D02*
X0157871Y0247661D01*
X0157890Y0247699D02*
X0159477Y0247699D01*
X0159495Y0247737D02*
X0157909Y0247737D01*
X0157928Y0247775D02*
X0159512Y0247775D01*
X0159529Y0247813D02*
X0157947Y0247813D01*
X0157966Y0247851D02*
X0159547Y0247851D01*
X0159564Y0247888D02*
X0157985Y0247888D01*
X0158004Y0247926D02*
X0159582Y0247926D01*
X0159599Y0247964D02*
X0158023Y0247964D01*
X0158042Y0248002D02*
X0159616Y0248002D01*
X0159634Y0248040D02*
X0158061Y0248040D01*
X0158080Y0248078D02*
X0159651Y0248078D01*
X0159668Y0248116D02*
X0158099Y0248116D01*
X0158118Y0248154D02*
X0159686Y0248154D01*
X0159703Y0248191D02*
X0158137Y0248191D01*
X0158155Y0248229D02*
X0159721Y0248229D01*
X0159738Y0248267D02*
X0158174Y0248267D01*
X0158193Y0248305D02*
X0159755Y0248305D01*
X0159773Y0248343D02*
X0158212Y0248343D01*
X0158231Y0248381D02*
X0159790Y0248381D01*
X0159808Y0248419D02*
X0158250Y0248419D01*
X0158269Y0248457D02*
X0159825Y0248457D01*
X0159842Y0248495D02*
X0158288Y0248495D01*
X0158307Y0248532D02*
X0159860Y0248532D01*
X0159877Y0248570D02*
X0158326Y0248570D01*
X0158345Y0248608D02*
X0159895Y0248608D01*
X0159912Y0248646D02*
X0158364Y0248646D01*
X0158383Y0248684D02*
X0159929Y0248684D01*
X0159947Y0248722D02*
X0158402Y0248722D01*
X0158421Y0248760D02*
X0159964Y0248760D01*
X0159981Y0248798D02*
X0158440Y0248798D01*
X0158459Y0248835D02*
X0159999Y0248835D01*
X0160016Y0248873D02*
X0158477Y0248873D01*
X0158496Y0248911D02*
X0160034Y0248911D01*
X0160051Y0248949D02*
X0158515Y0248949D01*
X0158534Y0248987D02*
X0160068Y0248987D01*
X0160086Y0249025D02*
X0158553Y0249025D01*
X0158572Y0249063D02*
X0160103Y0249063D01*
X0160121Y0249101D02*
X0158591Y0249101D01*
X0158610Y0249139D02*
X0160138Y0249139D01*
X0160155Y0249176D02*
X0158629Y0249176D01*
X0158648Y0249214D02*
X0160173Y0249214D01*
X0160190Y0249252D02*
X0158667Y0249252D01*
X0158686Y0249290D02*
X0160208Y0249290D01*
X0160225Y0249328D02*
X0158705Y0249328D01*
X0158711Y0249896D02*
X0160232Y0249896D01*
X0160209Y0249934D02*
X0158688Y0249934D01*
X0158664Y0249972D02*
X0160186Y0249972D01*
X0160163Y0250010D02*
X0158641Y0250010D01*
X0158617Y0250048D02*
X0160140Y0250048D01*
X0160116Y0250086D02*
X0158594Y0250086D01*
X0158570Y0250123D02*
X0160093Y0250123D01*
X0160070Y0250161D02*
X0158547Y0250161D01*
X0158523Y0250199D02*
X0160047Y0250199D01*
X0160024Y0250237D02*
X0158500Y0250237D01*
X0158477Y0250275D02*
X0160000Y0250275D01*
X0159977Y0250313D02*
X0158453Y0250313D01*
X0158430Y0250351D02*
X0159954Y0250351D01*
X0159931Y0250389D02*
X0158406Y0250389D01*
X0158383Y0250426D02*
X0159908Y0250426D01*
X0159884Y0250464D02*
X0158359Y0250464D01*
X0158336Y0250502D02*
X0159861Y0250502D01*
X0159838Y0250540D02*
X0158312Y0250540D01*
X0158289Y0250578D02*
X0159815Y0250578D01*
X0159792Y0250616D02*
X0158265Y0250616D01*
X0158242Y0250654D02*
X0159769Y0250654D01*
X0159745Y0250692D02*
X0158218Y0250692D01*
X0158195Y0250730D02*
X0159722Y0250730D01*
X0159699Y0250767D02*
X0158171Y0250767D01*
X0158148Y0250805D02*
X0159676Y0250805D01*
X0159653Y0250843D02*
X0158124Y0250843D01*
X0158101Y0250881D02*
X0159629Y0250881D01*
X0159606Y0250919D02*
X0158077Y0250919D01*
X0158054Y0250957D02*
X0159583Y0250957D01*
X0159560Y0250995D02*
X0158030Y0250995D01*
X0158007Y0251033D02*
X0159537Y0251033D01*
X0159513Y0251070D02*
X0157983Y0251070D01*
X0157960Y0251108D02*
X0159490Y0251108D01*
X0159467Y0251146D02*
X0157936Y0251146D01*
X0157913Y0251184D02*
X0159444Y0251184D01*
X0159421Y0251222D02*
X0157889Y0251222D01*
X0157866Y0251260D02*
X0159397Y0251260D01*
X0159374Y0251298D02*
X0157842Y0251298D01*
X0157819Y0251336D02*
X0159351Y0251336D01*
X0159328Y0251374D02*
X0157795Y0251374D01*
X0157772Y0251411D02*
X0159305Y0251411D01*
X0159281Y0251449D02*
X0157748Y0251449D01*
X0157725Y0251487D02*
X0159258Y0251487D01*
X0159235Y0251525D02*
X0157701Y0251525D01*
X0157678Y0251563D02*
X0159212Y0251563D01*
X0159189Y0251601D02*
X0157654Y0251601D01*
X0157631Y0251639D02*
X0159166Y0251639D01*
X0159142Y0251677D02*
X0157608Y0251677D01*
X0157584Y0251714D02*
X0159119Y0251714D01*
X0159096Y0251752D02*
X0157561Y0251752D01*
X0157124Y0251752D02*
X0155707Y0251752D01*
X0155707Y0251757D02*
X0157124Y0251757D01*
X0157124Y0247033D01*
X0155707Y0247033D01*
X0155707Y0251757D01*
X0155707Y0251714D02*
X0157124Y0251714D01*
X0157124Y0251677D02*
X0155707Y0251677D01*
X0155707Y0251639D02*
X0157124Y0251639D01*
X0157124Y0251601D02*
X0155707Y0251601D01*
X0155707Y0251563D02*
X0157124Y0251563D01*
X0157124Y0251525D02*
X0155707Y0251525D01*
X0155707Y0251487D02*
X0157124Y0251487D01*
X0157124Y0251449D02*
X0155707Y0251449D01*
X0155707Y0251411D02*
X0157124Y0251411D01*
X0157124Y0251374D02*
X0155707Y0251374D01*
X0155707Y0251336D02*
X0157124Y0251336D01*
X0157124Y0251298D02*
X0155707Y0251298D01*
X0155707Y0251260D02*
X0157124Y0251260D01*
X0157124Y0251222D02*
X0155707Y0251222D01*
X0155707Y0251184D02*
X0157124Y0251184D01*
X0157124Y0251146D02*
X0155707Y0251146D01*
X0155707Y0251108D02*
X0157124Y0251108D01*
X0157124Y0251070D02*
X0155707Y0251070D01*
X0155707Y0251033D02*
X0157124Y0251033D01*
X0157124Y0250995D02*
X0155707Y0250995D01*
X0155707Y0250957D02*
X0157124Y0250957D01*
X0157124Y0250919D02*
X0155707Y0250919D01*
X0155707Y0250881D02*
X0157124Y0250881D01*
X0157124Y0250843D02*
X0155707Y0250843D01*
X0155707Y0250805D02*
X0157124Y0250805D01*
X0157124Y0250767D02*
X0155707Y0250767D01*
X0155707Y0250730D02*
X0157124Y0250730D01*
X0157124Y0250692D02*
X0155707Y0250692D01*
X0155707Y0250654D02*
X0157124Y0250654D01*
X0157124Y0250616D02*
X0155707Y0250616D01*
X0155707Y0250578D02*
X0157124Y0250578D01*
X0157124Y0250540D02*
X0155707Y0250540D01*
X0155707Y0250502D02*
X0157124Y0250502D01*
X0157124Y0250464D02*
X0155707Y0250464D01*
X0155707Y0250426D02*
X0157124Y0250426D01*
X0157124Y0250389D02*
X0155707Y0250389D01*
X0155707Y0250351D02*
X0157124Y0250351D01*
X0157124Y0250313D02*
X0155707Y0250313D01*
X0155707Y0250275D02*
X0157124Y0250275D01*
X0157124Y0250237D02*
X0155707Y0250237D01*
X0155707Y0250199D02*
X0157124Y0250199D01*
X0157124Y0250161D02*
X0155707Y0250161D01*
X0155707Y0250123D02*
X0157124Y0250123D01*
X0157124Y0250086D02*
X0155707Y0250086D01*
X0155707Y0250048D02*
X0157124Y0250048D01*
X0157124Y0250010D02*
X0155707Y0250010D01*
X0155707Y0249972D02*
X0157124Y0249972D01*
X0157124Y0249934D02*
X0155707Y0249934D01*
X0155707Y0249896D02*
X0157124Y0249896D01*
X0157124Y0249858D02*
X0155707Y0249858D01*
X0155707Y0249820D02*
X0157124Y0249820D01*
X0157124Y0249782D02*
X0155707Y0249782D01*
X0155707Y0249745D02*
X0157124Y0249745D01*
X0157124Y0249707D02*
X0155707Y0249707D01*
X0155707Y0249669D02*
X0157124Y0249669D01*
X0157124Y0249631D02*
X0155707Y0249631D01*
X0155707Y0249593D02*
X0157124Y0249593D01*
X0157124Y0249555D02*
X0155707Y0249555D01*
X0155707Y0249517D02*
X0157124Y0249517D01*
X0157124Y0249479D02*
X0155707Y0249479D01*
X0155707Y0249442D02*
X0157124Y0249442D01*
X0157124Y0249404D02*
X0155707Y0249404D01*
X0155707Y0249366D02*
X0157124Y0249366D01*
X0157124Y0249328D02*
X0155707Y0249328D01*
X0155707Y0249290D02*
X0157124Y0249290D01*
X0157124Y0249252D02*
X0155707Y0249252D01*
X0155707Y0249214D02*
X0157124Y0249214D01*
X0157124Y0249176D02*
X0155707Y0249176D01*
X0155707Y0249139D02*
X0157124Y0249139D01*
X0157124Y0249101D02*
X0155707Y0249101D01*
X0155707Y0249063D02*
X0157124Y0249063D01*
X0157124Y0249025D02*
X0155707Y0249025D01*
X0155707Y0248987D02*
X0157124Y0248987D01*
X0157124Y0248949D02*
X0155707Y0248949D01*
X0155707Y0248911D02*
X0157124Y0248911D01*
X0157124Y0248873D02*
X0155707Y0248873D01*
X0155707Y0248835D02*
X0157124Y0248835D01*
X0157124Y0248798D02*
X0155707Y0248798D01*
X0155707Y0248760D02*
X0157124Y0248760D01*
X0157124Y0248722D02*
X0155707Y0248722D01*
X0155707Y0248684D02*
X0157124Y0248684D01*
X0157124Y0248646D02*
X0155707Y0248646D01*
X0155707Y0248608D02*
X0157124Y0248608D01*
X0157124Y0248570D02*
X0155707Y0248570D01*
X0155707Y0248532D02*
X0157124Y0248532D01*
X0157124Y0248495D02*
X0155707Y0248495D01*
X0155707Y0248457D02*
X0157124Y0248457D01*
X0157124Y0248419D02*
X0155707Y0248419D01*
X0155707Y0248381D02*
X0157124Y0248381D01*
X0157124Y0248343D02*
X0155707Y0248343D01*
X0155707Y0248305D02*
X0157124Y0248305D01*
X0157124Y0248267D02*
X0155707Y0248267D01*
X0155707Y0248229D02*
X0157124Y0248229D01*
X0157124Y0248191D02*
X0155707Y0248191D01*
X0155707Y0248154D02*
X0157124Y0248154D01*
X0157124Y0248116D02*
X0155707Y0248116D01*
X0155707Y0248078D02*
X0157124Y0248078D01*
X0157124Y0248040D02*
X0155707Y0248040D01*
X0155707Y0248002D02*
X0157124Y0248002D01*
X0157124Y0247964D02*
X0155707Y0247964D01*
X0155707Y0247926D02*
X0157124Y0247926D01*
X0157124Y0247888D02*
X0155707Y0247888D01*
X0155707Y0247851D02*
X0157124Y0247851D01*
X0157124Y0247813D02*
X0155707Y0247813D01*
X0155707Y0247775D02*
X0157124Y0247775D01*
X0157124Y0247737D02*
X0155707Y0247737D01*
X0155707Y0247699D02*
X0157124Y0247699D01*
X0157124Y0247661D02*
X0155707Y0247661D01*
X0155707Y0247623D02*
X0157124Y0247623D01*
X0157124Y0247585D02*
X0155707Y0247585D01*
X0155707Y0247547D02*
X0157124Y0247547D01*
X0157124Y0247510D02*
X0155707Y0247510D01*
X0155707Y0247472D02*
X0157124Y0247472D01*
X0157124Y0247434D02*
X0155707Y0247434D01*
X0155707Y0247396D02*
X0157124Y0247396D01*
X0157124Y0247358D02*
X0155707Y0247358D01*
X0155707Y0247320D02*
X0157124Y0247320D01*
X0157124Y0247282D02*
X0155707Y0247282D01*
X0155707Y0247244D02*
X0157124Y0247244D01*
X0157124Y0247207D02*
X0155707Y0247207D01*
X0155707Y0247169D02*
X0157124Y0247169D01*
X0157124Y0247131D02*
X0155707Y0247131D01*
X0155707Y0247093D02*
X0157124Y0247093D01*
X0157124Y0247055D02*
X0155707Y0247055D01*
X0154211Y0247055D02*
X0152715Y0247055D01*
X0152715Y0247033D02*
X0152715Y0250419D01*
X0151691Y0250419D01*
X0151691Y0251757D01*
X0155235Y0251757D01*
X0155235Y0250419D01*
X0154211Y0250419D01*
X0154211Y0247033D01*
X0152715Y0247033D01*
X0152715Y0247093D02*
X0154211Y0247093D01*
X0154211Y0247131D02*
X0152715Y0247131D01*
X0152715Y0247169D02*
X0154211Y0247169D01*
X0154211Y0247207D02*
X0152715Y0247207D01*
X0152715Y0247244D02*
X0154211Y0247244D01*
X0154211Y0247282D02*
X0152715Y0247282D01*
X0152715Y0247320D02*
X0154211Y0247320D01*
X0154211Y0247358D02*
X0152715Y0247358D01*
X0152715Y0247396D02*
X0154211Y0247396D01*
X0154211Y0247434D02*
X0152715Y0247434D01*
X0152715Y0247472D02*
X0154211Y0247472D01*
X0154211Y0247510D02*
X0152715Y0247510D01*
X0152715Y0247547D02*
X0154211Y0247547D01*
X0154211Y0247585D02*
X0152715Y0247585D01*
X0152715Y0247623D02*
X0154211Y0247623D01*
X0154211Y0247661D02*
X0152715Y0247661D01*
X0152715Y0247699D02*
X0154211Y0247699D01*
X0154211Y0247737D02*
X0152715Y0247737D01*
X0152715Y0247775D02*
X0154211Y0247775D01*
X0154211Y0247813D02*
X0152715Y0247813D01*
X0152715Y0247851D02*
X0154211Y0247851D01*
X0154211Y0247888D02*
X0152715Y0247888D01*
X0152715Y0247926D02*
X0154211Y0247926D01*
X0154211Y0247964D02*
X0152715Y0247964D01*
X0152715Y0248002D02*
X0154211Y0248002D01*
X0154211Y0248040D02*
X0152715Y0248040D01*
X0152715Y0248078D02*
X0154211Y0248078D01*
X0154211Y0248116D02*
X0152715Y0248116D01*
X0152715Y0248154D02*
X0154211Y0248154D01*
X0154211Y0248191D02*
X0152715Y0248191D01*
X0152715Y0248229D02*
X0154211Y0248229D01*
X0154211Y0248267D02*
X0152715Y0248267D01*
X0152715Y0248305D02*
X0154211Y0248305D01*
X0154211Y0248343D02*
X0152715Y0248343D01*
X0152715Y0248381D02*
X0154211Y0248381D01*
X0154211Y0248419D02*
X0152715Y0248419D01*
X0152715Y0248457D02*
X0154211Y0248457D01*
X0154211Y0248495D02*
X0152715Y0248495D01*
X0152715Y0248532D02*
X0154211Y0248532D01*
X0154211Y0248570D02*
X0152715Y0248570D01*
X0152715Y0248608D02*
X0154211Y0248608D01*
X0154211Y0248646D02*
X0152715Y0248646D01*
X0152715Y0248684D02*
X0154211Y0248684D01*
X0154211Y0248722D02*
X0152715Y0248722D01*
X0152715Y0248760D02*
X0154211Y0248760D01*
X0154211Y0248798D02*
X0152715Y0248798D01*
X0152715Y0248835D02*
X0154211Y0248835D01*
X0154211Y0248873D02*
X0152715Y0248873D01*
X0152715Y0248911D02*
X0154211Y0248911D01*
X0154211Y0248949D02*
X0152715Y0248949D01*
X0152715Y0248987D02*
X0154211Y0248987D01*
X0154211Y0249025D02*
X0152715Y0249025D01*
X0152715Y0249063D02*
X0154211Y0249063D01*
X0154211Y0249101D02*
X0152715Y0249101D01*
X0152715Y0249139D02*
X0154211Y0249139D01*
X0154211Y0249176D02*
X0152715Y0249176D01*
X0152715Y0249214D02*
X0154211Y0249214D01*
X0154211Y0249252D02*
X0152715Y0249252D01*
X0152715Y0249290D02*
X0154211Y0249290D01*
X0154211Y0249328D02*
X0152715Y0249328D01*
X0152715Y0249366D02*
X0154211Y0249366D01*
X0154211Y0249404D02*
X0152715Y0249404D01*
X0152715Y0249442D02*
X0154211Y0249442D01*
X0154211Y0249479D02*
X0152715Y0249479D01*
X0152715Y0249517D02*
X0154211Y0249517D01*
X0154211Y0249555D02*
X0152715Y0249555D01*
X0152715Y0249593D02*
X0154211Y0249593D01*
X0154211Y0249631D02*
X0152715Y0249631D01*
X0152715Y0249669D02*
X0154211Y0249669D01*
X0154211Y0249707D02*
X0152715Y0249707D01*
X0152715Y0249745D02*
X0154211Y0249745D01*
X0154211Y0249782D02*
X0152715Y0249782D01*
X0152715Y0249820D02*
X0154211Y0249820D01*
X0154211Y0249858D02*
X0152715Y0249858D01*
X0152715Y0249896D02*
X0154211Y0249896D01*
X0154211Y0249934D02*
X0152715Y0249934D01*
X0152715Y0249972D02*
X0154211Y0249972D01*
X0154211Y0250010D02*
X0152715Y0250010D01*
X0152715Y0250048D02*
X0154211Y0250048D01*
X0154211Y0250086D02*
X0152715Y0250086D01*
X0152715Y0250123D02*
X0154211Y0250123D01*
X0154211Y0250161D02*
X0152715Y0250161D01*
X0152715Y0250199D02*
X0154211Y0250199D01*
X0154211Y0250237D02*
X0152715Y0250237D01*
X0152715Y0250275D02*
X0154211Y0250275D01*
X0154211Y0250313D02*
X0152715Y0250313D01*
X0152715Y0250351D02*
X0154211Y0250351D01*
X0154211Y0250389D02*
X0152715Y0250389D01*
X0151691Y0250426D02*
X0155235Y0250426D01*
X0155235Y0250464D02*
X0151691Y0250464D01*
X0151691Y0250502D02*
X0155235Y0250502D01*
X0155235Y0250540D02*
X0151691Y0250540D01*
X0151691Y0250578D02*
X0155235Y0250578D01*
X0155235Y0250616D02*
X0151691Y0250616D01*
X0151691Y0250654D02*
X0155235Y0250654D01*
X0155235Y0250692D02*
X0151691Y0250692D01*
X0151691Y0250730D02*
X0155235Y0250730D01*
X0155235Y0250767D02*
X0151691Y0250767D01*
X0151691Y0250805D02*
X0155235Y0250805D01*
X0155235Y0250843D02*
X0151691Y0250843D01*
X0151691Y0250881D02*
X0155235Y0250881D01*
X0155235Y0250919D02*
X0151691Y0250919D01*
X0151691Y0250957D02*
X0155235Y0250957D01*
X0155235Y0250995D02*
X0151691Y0250995D01*
X0151691Y0251033D02*
X0155235Y0251033D01*
X0155235Y0251070D02*
X0151691Y0251070D01*
X0151691Y0251108D02*
X0155235Y0251108D01*
X0155235Y0251146D02*
X0151691Y0251146D01*
X0151691Y0251184D02*
X0155235Y0251184D01*
X0155235Y0251222D02*
X0151691Y0251222D01*
X0151691Y0251260D02*
X0155235Y0251260D01*
X0155235Y0251298D02*
X0151691Y0251298D01*
X0151691Y0251336D02*
X0155235Y0251336D01*
X0155235Y0251374D02*
X0151691Y0251374D01*
X0151691Y0251411D02*
X0155235Y0251411D01*
X0155235Y0251449D02*
X0151691Y0251449D01*
X0151691Y0251487D02*
X0155235Y0251487D01*
X0155235Y0251525D02*
X0151691Y0251525D01*
X0151691Y0251563D02*
X0155235Y0251563D01*
X0155235Y0251601D02*
X0151691Y0251601D01*
X0151691Y0251639D02*
X0155235Y0251639D01*
X0155235Y0251677D02*
X0151691Y0251677D01*
X0151691Y0251714D02*
X0155235Y0251714D01*
X0155235Y0251752D02*
X0151691Y0251752D01*
X0157739Y0247396D02*
X0159338Y0247396D01*
X0159321Y0247358D02*
X0157720Y0247358D01*
X0157701Y0247320D02*
X0159303Y0247320D01*
X0159286Y0247282D02*
X0157682Y0247282D01*
X0157663Y0247244D02*
X0159269Y0247244D01*
X0159251Y0247207D02*
X0157644Y0247207D01*
X0157625Y0247169D02*
X0159234Y0247169D01*
X0159216Y0247131D02*
X0157606Y0247131D01*
X0157587Y0247093D02*
X0159199Y0247093D01*
X0159182Y0247055D02*
X0157568Y0247055D01*
X0160274Y0250578D02*
X0161691Y0250578D01*
X0161691Y0250616D02*
X0160274Y0250616D01*
X0160274Y0250654D02*
X0161691Y0250654D01*
X0161691Y0250692D02*
X0160274Y0250692D01*
X0160274Y0250730D02*
X0161691Y0250730D01*
X0161691Y0250767D02*
X0160274Y0250767D01*
X0160274Y0250805D02*
X0161691Y0250805D01*
X0161691Y0250843D02*
X0160274Y0250843D01*
X0160274Y0250881D02*
X0161691Y0250881D01*
X0161691Y0250919D02*
X0160274Y0250919D01*
X0160274Y0250957D02*
X0161691Y0250957D01*
X0161691Y0250995D02*
X0160274Y0250995D01*
X0160274Y0251033D02*
X0161691Y0251033D01*
X0161691Y0251070D02*
X0160274Y0251070D01*
X0160274Y0251108D02*
X0161691Y0251108D01*
X0161691Y0251146D02*
X0160274Y0251146D01*
X0160274Y0251184D02*
X0161691Y0251184D01*
X0161691Y0251222D02*
X0160274Y0251222D01*
X0160274Y0251260D02*
X0161691Y0251260D01*
X0161691Y0251298D02*
X0160274Y0251298D01*
X0160274Y0251336D02*
X0161691Y0251336D01*
X0161691Y0251374D02*
X0160274Y0251374D01*
X0160274Y0251411D02*
X0161691Y0251411D01*
X0161691Y0251449D02*
X0160274Y0251449D01*
X0160274Y0251487D02*
X0161691Y0251487D01*
X0161691Y0251525D02*
X0160274Y0251525D01*
X0160274Y0251563D02*
X0161691Y0251563D01*
X0161691Y0251601D02*
X0160274Y0251601D01*
X0160274Y0251639D02*
X0161691Y0251639D01*
X0161691Y0251677D02*
X0160274Y0251677D01*
X0160274Y0251714D02*
X0161691Y0251714D01*
X0161691Y0251752D02*
X0160274Y0251752D01*
X0168599Y0250389D02*
X0169941Y0250389D01*
X0169865Y0250426D02*
X0168675Y0250426D01*
X0168754Y0250464D02*
X0169789Y0250464D01*
X0169707Y0250502D02*
X0168848Y0250502D01*
X0168945Y0250540D02*
X0169574Y0250540D01*
X0165549Y0247472D02*
X0162749Y0247472D01*
X0162786Y0247434D02*
X0165549Y0247434D01*
X0165549Y0247396D02*
X0164920Y0247396D01*
X0164920Y0247358D02*
X0165549Y0247358D01*
X0165549Y0247320D02*
X0164920Y0247320D01*
X0164920Y0247282D02*
X0165549Y0247282D01*
X0165549Y0247244D02*
X0164920Y0247244D01*
X0164920Y0247207D02*
X0165549Y0247207D01*
X0165549Y0247169D02*
X0164920Y0247169D01*
X0164920Y0247131D02*
X0165549Y0247131D01*
X0165549Y0247093D02*
X0164920Y0247093D01*
X0164920Y0247055D02*
X0165549Y0247055D01*
X0165549Y0247017D02*
X0164920Y0247017D01*
X0164920Y0246979D02*
X0165549Y0246979D01*
X0165549Y0246941D02*
X0164920Y0246941D01*
X0164920Y0246904D02*
X0165549Y0246904D01*
X0165549Y0246866D02*
X0164920Y0246866D01*
X0164920Y0246828D02*
X0165549Y0246828D01*
X0165549Y0246790D02*
X0164920Y0246790D01*
X0164920Y0246752D02*
X0165549Y0246752D01*
X0165549Y0246714D02*
X0164920Y0246714D01*
X0164920Y0246676D02*
X0165549Y0246676D01*
X0165549Y0246638D02*
X0164920Y0246638D01*
X0164920Y0246600D02*
X0165549Y0246600D01*
X0165549Y0246563D02*
X0164920Y0246563D01*
X0164920Y0246525D02*
X0165549Y0246525D01*
X0165549Y0246487D02*
X0164920Y0246487D01*
X0164920Y0246449D02*
X0165549Y0246449D01*
X0165549Y0246411D02*
X0164920Y0246411D01*
X0164920Y0246373D02*
X0165549Y0246373D01*
X0165549Y0246335D02*
X0164920Y0246335D01*
X0164920Y0246297D02*
X0165549Y0246297D01*
X0165549Y0246260D02*
X0164920Y0246260D01*
X0164920Y0246222D02*
X0165549Y0246222D01*
X0165549Y0246184D02*
X0164920Y0246184D01*
X0164920Y0246146D02*
X0165549Y0246146D01*
X0165549Y0246108D02*
X0164920Y0246108D01*
X0164920Y0246070D02*
X0165549Y0246070D01*
X0165549Y0246032D02*
X0164920Y0246032D01*
X0164920Y0245994D02*
X0165549Y0245994D01*
X0165549Y0245956D02*
X0164920Y0245956D01*
X0164920Y0245919D02*
X0165549Y0245919D01*
X0165549Y0245881D02*
X0164920Y0245881D01*
X0164920Y0245843D02*
X0165549Y0245843D01*
X0165549Y0245805D02*
X0164920Y0245805D01*
X0164920Y0245767D02*
X0165549Y0245767D01*
X0165549Y0245729D02*
X0164920Y0245729D01*
X0164920Y0245691D02*
X0165549Y0245691D01*
X0164640Y0247169D02*
X0163130Y0247169D01*
X0163168Y0247131D02*
X0164564Y0247131D01*
X0164488Y0247093D02*
X0163244Y0247093D01*
X0163358Y0247055D02*
X0164412Y0247055D01*
X0164699Y0247207D02*
X0163077Y0247207D01*
X0163001Y0247244D02*
X0164737Y0247244D01*
X0164769Y0247282D02*
X0162938Y0247282D01*
X0162900Y0247320D02*
X0164788Y0247320D01*
X0164806Y0247358D02*
X0162862Y0247358D01*
X0162824Y0247396D02*
X0164825Y0247396D01*
D19*
X0151158Y0252111D02*
X0150504Y0252111D01*
X0150831Y0252111D02*
X0150831Y0251129D01*
X0150071Y0251129D02*
X0150071Y0252111D01*
X0149743Y0251784D01*
X0149416Y0252111D01*
X0149416Y0251129D01*
M02*
