%
M48
M72
T01C0.0120
T02C0.0276
T03C0.0320
T04C0.0394
T05C0.0400
T06C0.0472
T07C0.1260
T08C0.1300
%
T01
X4150Y10833
X4150Y11833
X7150Y14133
X8150Y13633
X8650Y13633
X9150Y13633
X9650Y13483
X10150Y13483
X10400Y13233
X10650Y13483
X11150Y13483
X11450Y13233
X12650Y12833
X13150Y12833
X13650Y12833
X14150Y12833
X15150Y12833
X16150Y12833
X17150Y12833
X17650Y12833
X18150Y12833
X19150Y12833
X20150Y12833
X21150Y12833
X18650Y15083
X18150Y15083
X18150Y11033
X17650Y11033
X13650Y14683
X12650Y13933
X11450Y14683
X10400Y14683
X9650Y14683
X8650Y14683
X15300Y6833
X15600Y6183
X15250Y5933
X16150Y6733
X16650Y6633
X16650Y5683
X28150Y16333
X29650Y14333
X29650Y13833
X29650Y13333
X30650Y13333
X30650Y14333
X31150Y18333
X29700Y19833
X28650Y18833
X31150Y9383
X30200Y7083
X30200Y6583
X29600Y6883
X28650Y7833
T02
X32650Y2833
X33650Y2833
X36650Y4833
X37650Y4833
X37650Y6333
X36650Y6333
X36650Y7833
X37650Y7833
X37650Y9333
X36650Y9333
X36650Y10833
X36650Y11833
X36650Y13333
X37650Y13333
X37650Y14833
X36650Y14833
X36650Y16333
X37650Y16333
X37650Y17833
X36650Y17833
X36650Y19333
X36650Y20333
X29150Y12833
X28150Y12833
X27150Y19783
X27150Y20783
X16150Y3333
X16150Y2333
X14150Y2633
X14150Y3633
X11150Y3633
X11150Y2633
T03
X31650Y3833
X31650Y4833
X31650Y5833
X31650Y6833
X31650Y7833
X31650Y8833
X31650Y9833
X31650Y10833
X31650Y12833
X31650Y13833
X31650Y14833
X31650Y15833
X31650Y16833
X31650Y17833
X31650Y18833
X31650Y19833
X34650Y19833
X34650Y18833
X34650Y17833
X34650Y16833
X34650Y15833
X34650Y14833
X34650Y13833
X34650Y12833
X34650Y10833
X34650Y9833
X34650Y8833
X34650Y7833
X34650Y6833
X34650Y5833
X34650Y4833
X34650Y3833
T04
X29150Y8333
X28150Y8333
X27150Y8333
X26150Y8333
X25150Y8333
X24150Y8333
X23150Y8333
X22150Y8333
X21150Y8333
X20150Y8333
X19150Y8333
X18150Y8333
X17150Y8333
X16150Y8333
X15150Y8333
X14150Y8333
X13150Y8333
X12150Y8333
X11150Y8333
X10150Y8333
X9150Y8333
X8150Y8333
X7150Y8333
X6150Y8333
X5150Y8333
X4150Y8333
X3150Y8333
X2150Y8333
X2150Y9833
X3150Y9833
X4150Y9833
X5150Y9833
X6150Y9833
X7150Y9833
X8150Y9833
X9150Y9833
X10150Y9833
X11150Y9833
X12150Y9833
X13150Y9833
X14150Y9833
X15150Y9833
X16150Y9833
X17150Y9833
X18150Y9833
X19150Y9833
X20150Y9833
X21150Y9833
X21150Y15833
X20150Y15833
X19150Y15833
X18150Y15833
X17150Y15833
X16150Y15833
X15150Y15833
X14150Y15833
X13150Y15833
X12150Y15833
X11150Y15833
X10150Y15833
X9150Y15833
X8150Y15833
X7150Y15833
X6150Y15833
X5150Y15833
X4150Y15833
X3150Y15833
X2150Y15833
X2150Y17333
X3150Y17333
X4150Y17333
X5150Y17333
X6150Y17333
X7150Y17333
X8150Y17333
X9150Y17333
X10150Y17333
X11150Y17333
X12150Y17333
X13150Y17333
X14150Y17333
X15150Y17333
X16150Y17333
X17150Y17333
X18150Y17333
X19150Y17333
X20150Y17333
X21150Y17333
X22150Y17333
X23150Y17333
X24150Y17333
X25150Y17333
X26150Y17333
X27150Y17333
X28150Y17333
X29150Y17333
X11150Y5833
X10150Y5833
X9150Y5833
T05
X13150Y5833
X13150Y6833
X13150Y4833
X17150Y4383
X17150Y3383
X18150Y3383
X18150Y4383
X19150Y4383
X19150Y3383
X20150Y3383
X20150Y4383
X21150Y4383
X21150Y3383
X22150Y3383
X22150Y4383
X23150Y4383
X23150Y3383
X24150Y3383
X25150Y3383
X25150Y4383
X24150Y4383
X24150Y2383
X23150Y2383
X22150Y2383
X21150Y2383
X20150Y2383
X19150Y2383
X18150Y2383
X17150Y2383
X25150Y2383
X26150Y2383
X27150Y2383
X28150Y2383
X28150Y3383
X28150Y4383
X27150Y4383
X27150Y3383
X26150Y3383
X26150Y4383
X30650Y3333
X36150Y3333
X26150Y18783
X26150Y19783
X25150Y19783
X25150Y18783
X24150Y18783
X23150Y18783
X23150Y19783
X24150Y19783
X24150Y20783
X23150Y20783
X22150Y20783
X22150Y19783
X22150Y18783
X21150Y18683
X20150Y18783
X19150Y18683
X18150Y18783
X17150Y18683
X16150Y18783
X15150Y18783
X14150Y18783
X14150Y19783
X15150Y19783
X15150Y20783
X14150Y20783
X13150Y20783
X12150Y20783
X12150Y19783
X12150Y18783
X13150Y18783
X13150Y19783
X11150Y19783
X11150Y18783
X10150Y18783
X9150Y18783
X9150Y19783
X10150Y19783
X10150Y20783
X9150Y20783
X8150Y20783
X7150Y20783
X7150Y19783
X7150Y18783
X8150Y18783
X8150Y19783
X6150Y19783
X6150Y18783
X6150Y20783
X11150Y20783
X25150Y20783
X26150Y20783
T06
X39650Y17537
X39650Y16019
X39650Y14781
X39650Y13263
X39650Y10037
X39650Y8519
X39650Y7281
X39650Y5763
X9028Y3233
X7650Y3233
T07
X3256Y3402
X3150Y19833
X39650Y19833
X39650Y3333
T08
X6650Y6303
X5470Y4333
X4290Y6303
M30
