G75*
G70*
%OFA0B0*%
%FSLAX24Y24*%
%IPPOS*%
%LPD*%
%AMOC8*
5,1,8,0,0,1.08239X$1,22.5*
%
%ADD10C,0.0100*%
%ADD11C,0.0000*%
%ADD12C,0.0070*%
D10*
X001650Y001833D02*
X001650Y021333D01*
X041150Y021333D01*
X041150Y001833D01*
X001650Y001833D01*
D11*
X002626Y003402D02*
X002628Y003452D01*
X002634Y003502D01*
X002644Y003551D01*
X002658Y003599D01*
X002675Y003646D01*
X002696Y003691D01*
X002721Y003735D01*
X002749Y003776D01*
X002781Y003815D01*
X002815Y003852D01*
X002852Y003886D01*
X002892Y003916D01*
X002934Y003943D01*
X002978Y003967D01*
X003024Y003988D01*
X003071Y004004D01*
X003119Y004017D01*
X003169Y004026D01*
X003218Y004031D01*
X003269Y004032D01*
X003319Y004029D01*
X003368Y004022D01*
X003417Y004011D01*
X003465Y003996D01*
X003511Y003978D01*
X003556Y003956D01*
X003599Y003930D01*
X003640Y003901D01*
X003679Y003869D01*
X003715Y003834D01*
X003747Y003796D01*
X003777Y003756D01*
X003804Y003713D01*
X003827Y003669D01*
X003846Y003623D01*
X003862Y003575D01*
X003874Y003526D01*
X003882Y003477D01*
X003886Y003427D01*
X003886Y003377D01*
X003882Y003327D01*
X003874Y003278D01*
X003862Y003229D01*
X003846Y003181D01*
X003827Y003135D01*
X003804Y003091D01*
X003777Y003048D01*
X003747Y003008D01*
X003715Y002970D01*
X003679Y002935D01*
X003640Y002903D01*
X003599Y002874D01*
X003556Y002848D01*
X003511Y002826D01*
X003465Y002808D01*
X003417Y002793D01*
X003368Y002782D01*
X003319Y002775D01*
X003269Y002772D01*
X003218Y002773D01*
X003169Y002778D01*
X003119Y002787D01*
X003071Y002800D01*
X003024Y002816D01*
X002978Y002837D01*
X002934Y002861D01*
X002892Y002888D01*
X002852Y002918D01*
X002815Y002952D01*
X002781Y002989D01*
X002749Y003028D01*
X002721Y003069D01*
X002696Y003113D01*
X002675Y003158D01*
X002658Y003205D01*
X002644Y003253D01*
X002634Y003302D01*
X002628Y003352D01*
X002626Y003402D01*
X002520Y019833D02*
X002522Y019883D01*
X002528Y019933D01*
X002538Y019982D01*
X002552Y020030D01*
X002569Y020077D01*
X002590Y020122D01*
X002615Y020166D01*
X002643Y020207D01*
X002675Y020246D01*
X002709Y020283D01*
X002746Y020317D01*
X002786Y020347D01*
X002828Y020374D01*
X002872Y020398D01*
X002918Y020419D01*
X002965Y020435D01*
X003013Y020448D01*
X003063Y020457D01*
X003112Y020462D01*
X003163Y020463D01*
X003213Y020460D01*
X003262Y020453D01*
X003311Y020442D01*
X003359Y020427D01*
X003405Y020409D01*
X003450Y020387D01*
X003493Y020361D01*
X003534Y020332D01*
X003573Y020300D01*
X003609Y020265D01*
X003641Y020227D01*
X003671Y020187D01*
X003698Y020144D01*
X003721Y020100D01*
X003740Y020054D01*
X003756Y020006D01*
X003768Y019957D01*
X003776Y019908D01*
X003780Y019858D01*
X003780Y019808D01*
X003776Y019758D01*
X003768Y019709D01*
X003756Y019660D01*
X003740Y019612D01*
X003721Y019566D01*
X003698Y019522D01*
X003671Y019479D01*
X003641Y019439D01*
X003609Y019401D01*
X003573Y019366D01*
X003534Y019334D01*
X003493Y019305D01*
X003450Y019279D01*
X003405Y019257D01*
X003359Y019239D01*
X003311Y019224D01*
X003262Y019213D01*
X003213Y019206D01*
X003163Y019203D01*
X003112Y019204D01*
X003063Y019209D01*
X003013Y019218D01*
X002965Y019231D01*
X002918Y019247D01*
X002872Y019268D01*
X002828Y019292D01*
X002786Y019319D01*
X002746Y019349D01*
X002709Y019383D01*
X002675Y019420D01*
X002643Y019459D01*
X002615Y019500D01*
X002590Y019544D01*
X002569Y019589D01*
X002552Y019636D01*
X002538Y019684D01*
X002528Y019733D01*
X002522Y019783D01*
X002520Y019833D01*
X039020Y019833D02*
X039022Y019883D01*
X039028Y019933D01*
X039038Y019982D01*
X039052Y020030D01*
X039069Y020077D01*
X039090Y020122D01*
X039115Y020166D01*
X039143Y020207D01*
X039175Y020246D01*
X039209Y020283D01*
X039246Y020317D01*
X039286Y020347D01*
X039328Y020374D01*
X039372Y020398D01*
X039418Y020419D01*
X039465Y020435D01*
X039513Y020448D01*
X039563Y020457D01*
X039612Y020462D01*
X039663Y020463D01*
X039713Y020460D01*
X039762Y020453D01*
X039811Y020442D01*
X039859Y020427D01*
X039905Y020409D01*
X039950Y020387D01*
X039993Y020361D01*
X040034Y020332D01*
X040073Y020300D01*
X040109Y020265D01*
X040141Y020227D01*
X040171Y020187D01*
X040198Y020144D01*
X040221Y020100D01*
X040240Y020054D01*
X040256Y020006D01*
X040268Y019957D01*
X040276Y019908D01*
X040280Y019858D01*
X040280Y019808D01*
X040276Y019758D01*
X040268Y019709D01*
X040256Y019660D01*
X040240Y019612D01*
X040221Y019566D01*
X040198Y019522D01*
X040171Y019479D01*
X040141Y019439D01*
X040109Y019401D01*
X040073Y019366D01*
X040034Y019334D01*
X039993Y019305D01*
X039950Y019279D01*
X039905Y019257D01*
X039859Y019239D01*
X039811Y019224D01*
X039762Y019213D01*
X039713Y019206D01*
X039663Y019203D01*
X039612Y019204D01*
X039563Y019209D01*
X039513Y019218D01*
X039465Y019231D01*
X039418Y019247D01*
X039372Y019268D01*
X039328Y019292D01*
X039286Y019319D01*
X039246Y019349D01*
X039209Y019383D01*
X039175Y019420D01*
X039143Y019459D01*
X039115Y019500D01*
X039090Y019544D01*
X039069Y019589D01*
X039052Y019636D01*
X039038Y019684D01*
X039028Y019733D01*
X039022Y019783D01*
X039020Y019833D01*
X039020Y003333D02*
X039022Y003383D01*
X039028Y003433D01*
X039038Y003482D01*
X039052Y003530D01*
X039069Y003577D01*
X039090Y003622D01*
X039115Y003666D01*
X039143Y003707D01*
X039175Y003746D01*
X039209Y003783D01*
X039246Y003817D01*
X039286Y003847D01*
X039328Y003874D01*
X039372Y003898D01*
X039418Y003919D01*
X039465Y003935D01*
X039513Y003948D01*
X039563Y003957D01*
X039612Y003962D01*
X039663Y003963D01*
X039713Y003960D01*
X039762Y003953D01*
X039811Y003942D01*
X039859Y003927D01*
X039905Y003909D01*
X039950Y003887D01*
X039993Y003861D01*
X040034Y003832D01*
X040073Y003800D01*
X040109Y003765D01*
X040141Y003727D01*
X040171Y003687D01*
X040198Y003644D01*
X040221Y003600D01*
X040240Y003554D01*
X040256Y003506D01*
X040268Y003457D01*
X040276Y003408D01*
X040280Y003358D01*
X040280Y003308D01*
X040276Y003258D01*
X040268Y003209D01*
X040256Y003160D01*
X040240Y003112D01*
X040221Y003066D01*
X040198Y003022D01*
X040171Y002979D01*
X040141Y002939D01*
X040109Y002901D01*
X040073Y002866D01*
X040034Y002834D01*
X039993Y002805D01*
X039950Y002779D01*
X039905Y002757D01*
X039859Y002739D01*
X039811Y002724D01*
X039762Y002713D01*
X039713Y002706D01*
X039663Y002703D01*
X039612Y002704D01*
X039563Y002709D01*
X039513Y002718D01*
X039465Y002731D01*
X039418Y002747D01*
X039372Y002768D01*
X039328Y002792D01*
X039286Y002819D01*
X039246Y002849D01*
X039209Y002883D01*
X039175Y002920D01*
X039143Y002959D01*
X039115Y003000D01*
X039090Y003044D01*
X039069Y003089D01*
X039052Y003136D01*
X039038Y003184D01*
X039028Y003233D01*
X039022Y003283D01*
X039020Y003333D01*
D12*
X027315Y010573D02*
X027210Y010468D01*
X027105Y010573D01*
X027000Y010468D01*
X026895Y010573D01*
X026895Y010889D01*
X026670Y010889D02*
X026670Y010573D01*
X026565Y010468D01*
X026460Y010573D01*
X026355Y010468D01*
X026250Y010573D01*
X026250Y010889D01*
X026026Y010889D02*
X026026Y010573D01*
X025921Y010468D01*
X025816Y010573D01*
X025711Y010468D01*
X025606Y010573D01*
X025606Y010889D01*
X025381Y010573D02*
X025276Y010573D01*
X025276Y010468D01*
X025381Y010468D01*
X025381Y010573D01*
X025059Y010784D02*
X024849Y010784D01*
X024954Y010994D02*
X024849Y011099D01*
X024954Y010994D02*
X024954Y010468D01*
X024629Y010573D02*
X024629Y010889D01*
X024629Y010573D02*
X024524Y010468D01*
X024209Y010468D01*
X024209Y010889D01*
X023985Y010889D02*
X023670Y010889D01*
X023564Y010784D01*
X023564Y010573D01*
X023670Y010468D01*
X023985Y010468D01*
X023985Y011099D01*
X023994Y011518D02*
X024309Y011518D01*
X024415Y011623D01*
X024415Y011834D01*
X024309Y011939D01*
X023994Y011939D01*
X023770Y011834D02*
X023665Y011939D01*
X023455Y011939D01*
X023350Y011834D01*
X023350Y011518D01*
X023125Y011518D02*
X023125Y011939D01*
X023020Y011939D01*
X022915Y011834D01*
X022810Y011939D01*
X022705Y011834D01*
X022705Y011518D01*
X022915Y011518D02*
X022915Y011834D01*
X022481Y011623D02*
X022376Y011518D01*
X022061Y011518D01*
X022061Y011834D01*
X022166Y011939D01*
X022376Y011939D01*
X022376Y011729D02*
X022061Y011729D01*
X021836Y011518D02*
X021626Y011518D01*
X021731Y011518D02*
X021731Y012149D01*
X021836Y012149D01*
X021948Y012568D02*
X022159Y012568D01*
X022054Y012568D02*
X022054Y013199D01*
X022159Y013199D01*
X022380Y012989D02*
X022486Y012989D01*
X022696Y012779D01*
X022696Y012989D02*
X022696Y012568D01*
X022920Y012568D02*
X022920Y012884D01*
X023025Y012989D01*
X023235Y012989D01*
X023235Y012779D02*
X022920Y012779D01*
X022920Y012568D02*
X023235Y012568D01*
X023340Y012673D01*
X023235Y012779D01*
X023564Y012884D02*
X023670Y012989D01*
X023985Y012989D01*
X023985Y013199D02*
X023985Y012568D01*
X023670Y012568D01*
X023564Y012673D01*
X023564Y012884D01*
X024209Y012989D02*
X024209Y012568D01*
X024524Y012568D01*
X024629Y012673D01*
X024629Y012989D01*
X024849Y012884D02*
X025059Y012884D01*
X024954Y013094D02*
X024849Y013199D01*
X024954Y013094D02*
X024954Y012568D01*
X025276Y012568D02*
X025381Y012568D01*
X025381Y012673D01*
X025276Y012673D01*
X025276Y012568D01*
X025606Y012673D02*
X025606Y012989D01*
X025606Y012673D02*
X025711Y012568D01*
X025816Y012673D01*
X025921Y012568D01*
X026026Y012673D01*
X026026Y012989D01*
X026250Y012989D02*
X026250Y012673D01*
X026355Y012568D01*
X026460Y012673D01*
X026565Y012568D01*
X026670Y012673D01*
X026670Y012989D01*
X026895Y012989D02*
X026895Y012673D01*
X027000Y012568D01*
X027105Y012673D01*
X027210Y012568D01*
X027315Y012673D01*
X027315Y012989D01*
X027210Y013618D02*
X027000Y013618D01*
X026895Y013723D01*
X026670Y013618D02*
X026670Y014039D01*
X026460Y014039D02*
X026355Y014039D01*
X026460Y014039D02*
X026670Y013829D01*
X026895Y014144D02*
X027000Y014249D01*
X027210Y014249D01*
X027315Y014144D01*
X027315Y013723D01*
X027210Y013618D01*
X026133Y013723D02*
X026028Y013618D01*
X025818Y013618D01*
X025713Y013829D02*
X026133Y013829D01*
X026133Y013934D02*
X026028Y014039D01*
X025818Y014039D01*
X025713Y013934D01*
X025713Y013829D01*
X025489Y013723D02*
X025384Y013618D01*
X025068Y013618D01*
X025068Y013934D01*
X025174Y014039D01*
X025384Y014039D01*
X025384Y013829D02*
X025068Y013829D01*
X024844Y014039D02*
X024634Y014039D01*
X024739Y014144D02*
X024739Y013723D01*
X024634Y013618D01*
X024415Y013723D02*
X024415Y013934D01*
X024309Y014039D01*
X023994Y014039D01*
X023994Y014249D02*
X023994Y013618D01*
X024309Y013618D01*
X024415Y013723D01*
X023770Y013723D02*
X023665Y013618D01*
X023455Y013618D01*
X023350Y013829D02*
X023770Y013829D01*
X023770Y013934D02*
X023665Y014039D01*
X023455Y014039D01*
X023350Y013934D01*
X023350Y013829D01*
X023125Y013934D02*
X023020Y014039D01*
X022705Y014039D01*
X022705Y014249D02*
X022705Y013618D01*
X023020Y013618D01*
X023125Y013723D01*
X023125Y013934D01*
X023770Y013934D02*
X023770Y013723D01*
X023777Y014668D02*
X023987Y014668D01*
X024092Y014773D01*
X023987Y014984D02*
X023777Y014984D01*
X023672Y014879D01*
X023672Y014773D01*
X023777Y014668D01*
X023987Y014984D02*
X024092Y015089D01*
X024092Y015194D01*
X023987Y015299D01*
X023777Y015299D01*
X023672Y015194D01*
X023448Y015089D02*
X023238Y015089D01*
X023343Y015194D02*
X023343Y014773D01*
X023238Y014668D01*
X023018Y014773D02*
X023018Y014984D01*
X022913Y015089D01*
X022703Y015089D01*
X022598Y014984D01*
X022598Y014879D01*
X023018Y014879D01*
X023018Y014773D02*
X022913Y014668D01*
X022703Y014668D01*
X022373Y014668D02*
X022058Y014668D01*
X021953Y014773D01*
X021953Y014984D01*
X022058Y015089D01*
X022373Y015089D01*
X022373Y014458D01*
X021836Y014249D02*
X021836Y013618D01*
X021521Y013618D01*
X021416Y013723D01*
X021416Y013934D01*
X021521Y014039D01*
X021836Y014039D01*
X021192Y014039D02*
X021192Y013723D01*
X021087Y013618D01*
X020771Y013618D01*
X020771Y013513D02*
X020877Y013408D01*
X020982Y013408D01*
X021084Y013199D02*
X021084Y012568D01*
X020769Y012568D01*
X020664Y012673D01*
X020664Y012884D01*
X020769Y012989D01*
X021084Y012989D01*
X021309Y012884D02*
X021309Y012568D01*
X021624Y012568D01*
X021729Y012673D01*
X021624Y012779D01*
X021309Y012779D01*
X021309Y012884D02*
X021414Y012989D01*
X021624Y012989D01*
X020771Y013513D02*
X020771Y014039D01*
X020874Y014668D02*
X020664Y015089D01*
X020440Y015089D02*
X020230Y015299D01*
X020230Y014668D01*
X020440Y014668D02*
X020019Y014668D01*
X019795Y014668D02*
X019690Y014668D01*
X019690Y014773D01*
X019795Y014773D01*
X019795Y014668D01*
X019473Y014773D02*
X019053Y015194D01*
X019053Y014773D01*
X019158Y014668D01*
X019368Y014668D01*
X019473Y014773D01*
X019473Y015194D01*
X019368Y015299D01*
X019158Y015299D01*
X019053Y015194D01*
X019258Y014249D02*
X019258Y013723D01*
X019153Y013618D01*
X018943Y013618D01*
X018838Y013723D01*
X018838Y014249D01*
X018614Y014249D02*
X018298Y014249D01*
X018193Y014144D01*
X018193Y014039D01*
X018298Y013934D01*
X018614Y013934D01*
X018614Y014249D02*
X018614Y013618D01*
X018298Y013618D01*
X018193Y013723D01*
X018193Y013829D01*
X018298Y013934D01*
X017969Y013934D02*
X017549Y013934D01*
X017549Y014039D02*
X017549Y013618D01*
X017324Y013618D02*
X017324Y014249D01*
X017009Y014249D01*
X016904Y014144D01*
X016904Y013934D01*
X017009Y013829D01*
X017324Y013829D01*
X017114Y013829D02*
X016904Y013618D01*
X016680Y013618D02*
X016260Y013618D01*
X016035Y013723D02*
X015930Y013829D01*
X015615Y013829D01*
X015615Y013934D02*
X015615Y013618D01*
X015930Y013618D01*
X016035Y013723D01*
X015930Y014039D02*
X015720Y014039D01*
X015615Y013934D01*
X015391Y014039D02*
X015076Y014039D01*
X014970Y013934D01*
X014970Y013723D01*
X015076Y013618D01*
X015391Y013618D01*
X015391Y014249D01*
X014746Y013934D02*
X014641Y014039D01*
X014326Y014039D01*
X014431Y013829D02*
X014641Y013829D01*
X014746Y013934D01*
X014746Y013618D02*
X014431Y013618D01*
X014326Y013723D01*
X014431Y013829D01*
X013457Y013723D02*
X013352Y013618D01*
X013037Y013618D01*
X013037Y013934D01*
X013142Y014039D01*
X013352Y014039D01*
X013352Y013829D02*
X013037Y013829D01*
X012813Y014039D02*
X012497Y014039D01*
X012392Y013934D01*
X012392Y013618D01*
X012168Y013723D02*
X012168Y013934D01*
X012063Y014039D01*
X011748Y014039D01*
X011748Y014249D02*
X011748Y013618D01*
X012063Y013618D01*
X012168Y013723D01*
X012813Y013618D02*
X012813Y014039D01*
X013352Y013829D02*
X013457Y013723D01*
X010879Y013723D02*
X010774Y013618D01*
X010564Y013618D01*
X010459Y013723D01*
X010459Y013829D01*
X010564Y013934D01*
X010774Y013934D01*
X010879Y014039D01*
X010879Y014144D01*
X010774Y014249D01*
X010564Y014249D01*
X010459Y014144D01*
X010234Y013934D02*
X010234Y013723D01*
X010129Y013618D01*
X009814Y013618D01*
X009590Y013618D02*
X009590Y014249D01*
X009485Y014039D02*
X009275Y014039D01*
X009170Y013934D01*
X009170Y013618D01*
X008945Y013618D02*
X008945Y014039D01*
X008840Y014039D01*
X008735Y013934D01*
X008630Y014039D01*
X008525Y013934D01*
X008525Y013618D01*
X008735Y013618D02*
X008735Y013934D01*
X008301Y013723D02*
X008196Y013829D01*
X007880Y013829D01*
X007880Y013934D02*
X007880Y013618D01*
X008196Y013618D01*
X008301Y013723D01*
X008196Y014039D02*
X007986Y014039D01*
X007880Y013934D01*
X007656Y014249D02*
X007551Y014249D01*
X007551Y013618D01*
X007656Y013618D02*
X007446Y013618D01*
X007227Y013618D02*
X006806Y013618D01*
X006806Y014039D02*
X007227Y013618D01*
X007227Y014039D02*
X006806Y014039D01*
X005937Y013934D02*
X005517Y013934D01*
X005293Y013723D02*
X005188Y013618D01*
X004873Y013618D01*
X004873Y013934D01*
X004978Y014039D01*
X005188Y014039D01*
X005188Y013829D02*
X004873Y013829D01*
X004648Y013723D02*
X004543Y013618D01*
X004228Y013618D01*
X004228Y014039D01*
X004004Y013934D02*
X003899Y014039D01*
X003583Y014039D01*
X003689Y013829D02*
X003899Y013829D01*
X004004Y013934D01*
X004004Y013618D02*
X003689Y013618D01*
X003583Y013723D01*
X003689Y013829D01*
X004648Y013723D02*
X004648Y014039D01*
X005188Y013829D02*
X005293Y013723D01*
X005517Y013618D02*
X005517Y014249D01*
X005937Y014249D02*
X005937Y013618D01*
X009485Y014039D02*
X009590Y013934D01*
X009814Y014039D02*
X010129Y014039D01*
X010234Y013934D01*
X016152Y011834D02*
X016152Y011518D01*
X016362Y011518D02*
X016362Y011834D01*
X016257Y011939D01*
X016152Y011834D01*
X016362Y011834D02*
X016467Y011939D01*
X016573Y011939D01*
X016573Y011518D01*
X016797Y011623D02*
X016902Y011518D01*
X017112Y011518D01*
X017217Y011623D01*
X017217Y011834D01*
X017112Y011939D01*
X016902Y011939D01*
X016797Y011834D01*
X016797Y011623D01*
X017441Y011518D02*
X017757Y011518D01*
X017862Y011623D01*
X017862Y011834D01*
X017757Y011939D01*
X017441Y011939D01*
X017871Y012463D02*
X017976Y012358D01*
X018081Y012358D01*
X017871Y012463D02*
X017871Y012989D01*
X018186Y012989D01*
X018291Y012884D01*
X018291Y012673D01*
X018186Y012568D01*
X017871Y012568D01*
X018513Y012989D02*
X018618Y012989D01*
X018828Y012779D01*
X018828Y012989D02*
X018828Y012568D01*
X019053Y012673D02*
X019053Y012884D01*
X019158Y012989D01*
X019368Y012989D01*
X019473Y012884D01*
X019473Y012673D01*
X019368Y012568D01*
X019158Y012568D01*
X019053Y012673D01*
X019690Y012673D02*
X019690Y012568D01*
X019795Y012568D01*
X019795Y012673D01*
X019690Y012673D01*
X020019Y012673D02*
X020125Y012779D01*
X020335Y012779D01*
X020440Y012884D01*
X020335Y012989D01*
X020019Y012989D01*
X020019Y012673D02*
X020125Y012568D01*
X020440Y012568D01*
X020762Y012149D02*
X020762Y011518D01*
X020986Y011518D02*
X021407Y011518D01*
X020986Y011939D01*
X021407Y011939D01*
X020762Y011834D02*
X020657Y011939D01*
X020447Y011939D01*
X020342Y011834D01*
X020342Y011518D01*
X020118Y011623D02*
X020012Y011729D01*
X019697Y011729D01*
X019697Y011834D02*
X019697Y011518D01*
X020012Y011518D01*
X020118Y011623D01*
X020012Y011939D02*
X019802Y011939D01*
X019697Y011834D01*
X019473Y011939D02*
X019473Y011623D01*
X019368Y011518D01*
X019053Y011518D01*
X019053Y011939D01*
X018828Y011834D02*
X018723Y011939D01*
X018408Y011939D01*
X018513Y011729D02*
X018723Y011729D01*
X018828Y011834D01*
X018828Y011518D02*
X018513Y011518D01*
X018408Y011623D01*
X018513Y011729D01*
X018184Y011623D02*
X018079Y011623D01*
X018079Y011518D01*
X018184Y011518D01*
X018184Y011623D01*
X018515Y010889D02*
X018831Y010889D01*
X018936Y010784D01*
X018936Y010573D01*
X018831Y010468D01*
X018515Y010468D01*
X018515Y010363D02*
X018515Y010889D01*
X018515Y010363D02*
X018621Y010258D01*
X018726Y010258D01*
X019158Y010889D02*
X019263Y010889D01*
X019473Y010679D01*
X019473Y010889D02*
X019473Y010468D01*
X019697Y010573D02*
X019697Y010784D01*
X019802Y010889D01*
X020012Y010889D01*
X020118Y010784D01*
X020118Y010573D01*
X020012Y010468D01*
X019802Y010468D01*
X019697Y010573D01*
X020335Y010573D02*
X020335Y010468D01*
X020440Y010468D01*
X020440Y010573D01*
X020335Y010573D01*
X020664Y010573D02*
X020664Y010784D01*
X020769Y010889D01*
X020979Y010889D01*
X021084Y010784D01*
X021084Y010573D01*
X020979Y010468D01*
X020769Y010468D01*
X020664Y010573D01*
X021309Y010468D02*
X021309Y010784D01*
X021414Y010889D01*
X021729Y010889D01*
X021729Y010468D01*
X021948Y010468D02*
X022159Y010468D01*
X022054Y010468D02*
X022054Y010889D01*
X022159Y010889D01*
X022380Y010889D02*
X022486Y010889D01*
X022696Y010679D01*
X022696Y010889D02*
X022696Y010468D01*
X022920Y010468D02*
X022920Y010784D01*
X023025Y010889D01*
X023235Y010889D01*
X023235Y010679D02*
X022920Y010679D01*
X022920Y010468D02*
X023235Y010468D01*
X023340Y010573D01*
X023235Y010679D01*
X023770Y011518D02*
X023770Y012149D01*
X024639Y011939D02*
X024954Y011939D01*
X025059Y011834D01*
X024954Y011729D01*
X024744Y011729D01*
X024639Y011623D01*
X024744Y011518D01*
X025059Y011518D01*
X025276Y011518D02*
X025276Y011623D01*
X025381Y011623D01*
X025381Y011518D01*
X025276Y011518D01*
X025606Y011623D02*
X025606Y011939D01*
X025606Y011623D02*
X025711Y011518D01*
X025816Y011623D01*
X025921Y011518D01*
X026026Y011623D01*
X026026Y011939D01*
X026250Y011939D02*
X026250Y011623D01*
X026355Y011518D01*
X026460Y011623D01*
X026565Y011518D01*
X026670Y011623D01*
X026670Y011939D01*
X026895Y011939D02*
X026895Y011623D01*
X027000Y011518D01*
X027105Y011623D01*
X027210Y011518D01*
X027315Y011623D01*
X027315Y011939D01*
X027315Y010889D02*
X027315Y010573D01*
X026133Y013723D02*
X026133Y013934D01*
X025489Y013723D02*
X025384Y013829D01*
X025381Y014668D02*
X025381Y015089D01*
X025171Y015299D01*
X024961Y015089D01*
X024961Y014668D01*
X024737Y014668D02*
X024737Y015299D01*
X024422Y015299D01*
X024316Y015194D01*
X024316Y014984D01*
X024422Y014879D01*
X024737Y014879D01*
X024527Y014879D02*
X024316Y014668D01*
X024961Y014984D02*
X025381Y014984D01*
X025606Y015089D02*
X025711Y014984D01*
X026026Y014984D01*
X026250Y014773D02*
X026250Y015299D01*
X026026Y015299D02*
X025711Y015299D01*
X025606Y015194D01*
X025606Y015089D01*
X025711Y014984D02*
X025606Y014879D01*
X025606Y014773D01*
X025711Y014668D01*
X026026Y014668D01*
X026026Y015299D01*
X026670Y015299D02*
X026670Y014773D01*
X026565Y014668D01*
X026355Y014668D01*
X026250Y014773D01*
X026895Y015299D02*
X027315Y015299D01*
X027315Y014668D01*
X027315Y014984D02*
X027105Y014984D01*
X022481Y011623D02*
X022376Y011729D01*
X022054Y011204D02*
X022054Y011099D01*
X019903Y013618D02*
X019903Y014249D01*
X019482Y014249D01*
X019692Y013934D02*
X019903Y013934D01*
X020874Y014668D02*
X021084Y015089D01*
X017969Y014039D02*
X017969Y013618D01*
X017969Y014039D02*
X017759Y014249D01*
X017549Y014039D01*
X016680Y014249D02*
X016680Y013618D01*
M02*
