G75*
G70*
%OFA0B0*%
%FSLAX24Y24*%
%IPPOS*%
%LPD*%
%AMOC8*
5,1,8,0,0,1.08239X$1,22.5*
%
%ADD10C,0.0100*%
%ADD11C,0.0000*%
%ADD12C,0.0040*%
%ADD13C,0.0160*%
%ADD14C,0.0070*%
%ADD15C,0.0120*%
%ADD16C,0.0050*%
%ADD17C,0.0060*%
%ADD18C,0.0080*%
%ADD19C,0.0059*%
D10*
X001650Y001833D02*
X001650Y021333D01*
X041150Y021333D01*
X041150Y001833D01*
X001650Y001833D01*
X001650Y007833D02*
X001650Y008833D01*
X002650Y008833D01*
X002650Y007833D01*
X029650Y007833D01*
X029650Y017833D01*
X001650Y017833D01*
X001650Y008833D01*
X001650Y009333D02*
X001650Y010333D01*
X002650Y010333D01*
X002650Y009333D01*
X021650Y009333D01*
X021650Y016333D01*
X001650Y016333D01*
X001650Y010333D01*
X001650Y009333D02*
X002650Y009333D01*
X002650Y007833D02*
X001650Y007833D01*
D11*
X002626Y003402D02*
X002628Y003452D01*
X002634Y003502D01*
X002644Y003551D01*
X002658Y003599D01*
X002675Y003646D01*
X002696Y003691D01*
X002721Y003735D01*
X002749Y003776D01*
X002781Y003815D01*
X002815Y003852D01*
X002852Y003886D01*
X002892Y003916D01*
X002934Y003943D01*
X002978Y003967D01*
X003024Y003988D01*
X003071Y004004D01*
X003119Y004017D01*
X003169Y004026D01*
X003218Y004031D01*
X003269Y004032D01*
X003319Y004029D01*
X003368Y004022D01*
X003417Y004011D01*
X003465Y003996D01*
X003511Y003978D01*
X003556Y003956D01*
X003599Y003930D01*
X003640Y003901D01*
X003679Y003869D01*
X003715Y003834D01*
X003747Y003796D01*
X003777Y003756D01*
X003804Y003713D01*
X003827Y003669D01*
X003846Y003623D01*
X003862Y003575D01*
X003874Y003526D01*
X003882Y003477D01*
X003886Y003427D01*
X003886Y003377D01*
X003882Y003327D01*
X003874Y003278D01*
X003862Y003229D01*
X003846Y003181D01*
X003827Y003135D01*
X003804Y003091D01*
X003777Y003048D01*
X003747Y003008D01*
X003715Y002970D01*
X003679Y002935D01*
X003640Y002903D01*
X003599Y002874D01*
X003556Y002848D01*
X003511Y002826D01*
X003465Y002808D01*
X003417Y002793D01*
X003368Y002782D01*
X003319Y002775D01*
X003269Y002772D01*
X003218Y002773D01*
X003169Y002778D01*
X003119Y002787D01*
X003071Y002800D01*
X003024Y002816D01*
X002978Y002837D01*
X002934Y002861D01*
X002892Y002888D01*
X002852Y002918D01*
X002815Y002952D01*
X002781Y002989D01*
X002749Y003028D01*
X002721Y003069D01*
X002696Y003113D01*
X002675Y003158D01*
X002658Y003205D01*
X002644Y003253D01*
X002634Y003302D01*
X002628Y003352D01*
X002626Y003402D01*
X002520Y019833D02*
X002522Y019883D01*
X002528Y019933D01*
X002538Y019982D01*
X002552Y020030D01*
X002569Y020077D01*
X002590Y020122D01*
X002615Y020166D01*
X002643Y020207D01*
X002675Y020246D01*
X002709Y020283D01*
X002746Y020317D01*
X002786Y020347D01*
X002828Y020374D01*
X002872Y020398D01*
X002918Y020419D01*
X002965Y020435D01*
X003013Y020448D01*
X003063Y020457D01*
X003112Y020462D01*
X003163Y020463D01*
X003213Y020460D01*
X003262Y020453D01*
X003311Y020442D01*
X003359Y020427D01*
X003405Y020409D01*
X003450Y020387D01*
X003493Y020361D01*
X003534Y020332D01*
X003573Y020300D01*
X003609Y020265D01*
X003641Y020227D01*
X003671Y020187D01*
X003698Y020144D01*
X003721Y020100D01*
X003740Y020054D01*
X003756Y020006D01*
X003768Y019957D01*
X003776Y019908D01*
X003780Y019858D01*
X003780Y019808D01*
X003776Y019758D01*
X003768Y019709D01*
X003756Y019660D01*
X003740Y019612D01*
X003721Y019566D01*
X003698Y019522D01*
X003671Y019479D01*
X003641Y019439D01*
X003609Y019401D01*
X003573Y019366D01*
X003534Y019334D01*
X003493Y019305D01*
X003450Y019279D01*
X003405Y019257D01*
X003359Y019239D01*
X003311Y019224D01*
X003262Y019213D01*
X003213Y019206D01*
X003163Y019203D01*
X003112Y019204D01*
X003063Y019209D01*
X003013Y019218D01*
X002965Y019231D01*
X002918Y019247D01*
X002872Y019268D01*
X002828Y019292D01*
X002786Y019319D01*
X002746Y019349D01*
X002709Y019383D01*
X002675Y019420D01*
X002643Y019459D01*
X002615Y019500D01*
X002590Y019544D01*
X002569Y019589D01*
X002552Y019636D01*
X002538Y019684D01*
X002528Y019733D01*
X002522Y019783D01*
X002520Y019833D01*
X039020Y019833D02*
X039022Y019883D01*
X039028Y019933D01*
X039038Y019982D01*
X039052Y020030D01*
X039069Y020077D01*
X039090Y020122D01*
X039115Y020166D01*
X039143Y020207D01*
X039175Y020246D01*
X039209Y020283D01*
X039246Y020317D01*
X039286Y020347D01*
X039328Y020374D01*
X039372Y020398D01*
X039418Y020419D01*
X039465Y020435D01*
X039513Y020448D01*
X039563Y020457D01*
X039612Y020462D01*
X039663Y020463D01*
X039713Y020460D01*
X039762Y020453D01*
X039811Y020442D01*
X039859Y020427D01*
X039905Y020409D01*
X039950Y020387D01*
X039993Y020361D01*
X040034Y020332D01*
X040073Y020300D01*
X040109Y020265D01*
X040141Y020227D01*
X040171Y020187D01*
X040198Y020144D01*
X040221Y020100D01*
X040240Y020054D01*
X040256Y020006D01*
X040268Y019957D01*
X040276Y019908D01*
X040280Y019858D01*
X040280Y019808D01*
X040276Y019758D01*
X040268Y019709D01*
X040256Y019660D01*
X040240Y019612D01*
X040221Y019566D01*
X040198Y019522D01*
X040171Y019479D01*
X040141Y019439D01*
X040109Y019401D01*
X040073Y019366D01*
X040034Y019334D01*
X039993Y019305D01*
X039950Y019279D01*
X039905Y019257D01*
X039859Y019239D01*
X039811Y019224D01*
X039762Y019213D01*
X039713Y019206D01*
X039663Y019203D01*
X039612Y019204D01*
X039563Y019209D01*
X039513Y019218D01*
X039465Y019231D01*
X039418Y019247D01*
X039372Y019268D01*
X039328Y019292D01*
X039286Y019319D01*
X039246Y019349D01*
X039209Y019383D01*
X039175Y019420D01*
X039143Y019459D01*
X039115Y019500D01*
X039090Y019544D01*
X039069Y019589D01*
X039052Y019636D01*
X039038Y019684D01*
X039028Y019733D01*
X039022Y019783D01*
X039020Y019833D01*
X039020Y003333D02*
X039022Y003383D01*
X039028Y003433D01*
X039038Y003482D01*
X039052Y003530D01*
X039069Y003577D01*
X039090Y003622D01*
X039115Y003666D01*
X039143Y003707D01*
X039175Y003746D01*
X039209Y003783D01*
X039246Y003817D01*
X039286Y003847D01*
X039328Y003874D01*
X039372Y003898D01*
X039418Y003919D01*
X039465Y003935D01*
X039513Y003948D01*
X039563Y003957D01*
X039612Y003962D01*
X039663Y003963D01*
X039713Y003960D01*
X039762Y003953D01*
X039811Y003942D01*
X039859Y003927D01*
X039905Y003909D01*
X039950Y003887D01*
X039993Y003861D01*
X040034Y003832D01*
X040073Y003800D01*
X040109Y003765D01*
X040141Y003727D01*
X040171Y003687D01*
X040198Y003644D01*
X040221Y003600D01*
X040240Y003554D01*
X040256Y003506D01*
X040268Y003457D01*
X040276Y003408D01*
X040280Y003358D01*
X040280Y003308D01*
X040276Y003258D01*
X040268Y003209D01*
X040256Y003160D01*
X040240Y003112D01*
X040221Y003066D01*
X040198Y003022D01*
X040171Y002979D01*
X040141Y002939D01*
X040109Y002901D01*
X040073Y002866D01*
X040034Y002834D01*
X039993Y002805D01*
X039950Y002779D01*
X039905Y002757D01*
X039859Y002739D01*
X039811Y002724D01*
X039762Y002713D01*
X039713Y002706D01*
X039663Y002703D01*
X039612Y002704D01*
X039563Y002709D01*
X039513Y002718D01*
X039465Y002731D01*
X039418Y002747D01*
X039372Y002768D01*
X039328Y002792D01*
X039286Y002819D01*
X039246Y002849D01*
X039209Y002883D01*
X039175Y002920D01*
X039143Y002959D01*
X039115Y003000D01*
X039090Y003044D01*
X039069Y003089D01*
X039052Y003136D01*
X039038Y003184D01*
X039028Y003233D01*
X039022Y003283D01*
X039020Y003333D01*
D12*
X037661Y004183D02*
X037541Y004183D01*
X037413Y004244D02*
X037413Y004003D01*
X037233Y004003D01*
X037172Y004063D01*
X037172Y004244D01*
X037044Y004003D02*
X036804Y004003D01*
X036924Y004003D02*
X036924Y004364D01*
X036804Y004244D01*
X036680Y004063D02*
X036680Y004003D01*
X036620Y004003D01*
X036620Y004063D01*
X036680Y004063D01*
X037541Y004003D02*
X037541Y004364D01*
X037781Y004364D01*
X037541Y005503D02*
X037541Y005864D01*
X037781Y005864D01*
X037661Y005683D02*
X037541Y005683D01*
X037413Y005744D02*
X037413Y005503D01*
X037233Y005503D01*
X037172Y005563D01*
X037172Y005744D01*
X037044Y005503D02*
X036804Y005503D01*
X036924Y005503D02*
X036924Y005864D01*
X036804Y005744D01*
X036680Y005563D02*
X036680Y005503D01*
X036620Y005503D01*
X036620Y005563D01*
X036680Y005563D01*
X036680Y007003D02*
X036620Y007003D01*
X036620Y007063D01*
X036680Y007063D01*
X036680Y007003D01*
X036804Y007003D02*
X037044Y007003D01*
X036924Y007003D02*
X036924Y007364D01*
X036804Y007244D01*
X037172Y007244D02*
X037172Y007063D01*
X037233Y007003D01*
X037413Y007003D01*
X037413Y007244D01*
X037541Y007183D02*
X037661Y007183D01*
X037541Y007003D02*
X037541Y007364D01*
X037781Y007364D01*
X037541Y008503D02*
X037541Y008864D01*
X037781Y008864D01*
X037661Y008683D02*
X037541Y008683D01*
X037413Y008744D02*
X037413Y008503D01*
X037233Y008503D01*
X037172Y008563D01*
X037172Y008744D01*
X037044Y008503D02*
X036804Y008503D01*
X036924Y008503D02*
X036924Y008864D01*
X036804Y008744D01*
X036680Y008563D02*
X036680Y008503D01*
X036620Y008503D01*
X036620Y008563D01*
X036680Y008563D01*
X037340Y010503D02*
X037220Y010623D01*
X037580Y010623D01*
X037580Y010503D02*
X037580Y010744D01*
X037520Y010872D02*
X037280Y011112D01*
X037520Y011112D01*
X037580Y011052D01*
X037580Y010932D01*
X037520Y010872D01*
X037280Y010872D01*
X037220Y010932D01*
X037220Y011052D01*
X037280Y011112D01*
X037280Y011240D02*
X037220Y011300D01*
X037220Y011420D01*
X037280Y011480D01*
X037520Y011240D01*
X037580Y011300D01*
X037580Y011420D01*
X037520Y011480D01*
X037280Y011480D01*
X037340Y011608D02*
X037520Y011608D01*
X037580Y011668D01*
X037580Y011848D01*
X037340Y011848D01*
X037400Y011977D02*
X037400Y012097D01*
X037220Y011977D02*
X037220Y012217D01*
X037220Y011977D02*
X037580Y011977D01*
X037520Y011240D02*
X037280Y011240D01*
X038770Y011153D02*
X038770Y011514D01*
X038890Y011394D01*
X039010Y011514D01*
X039010Y011153D01*
X039138Y011213D02*
X039198Y011153D01*
X039318Y011153D01*
X039379Y011213D01*
X039379Y011333D01*
X039318Y011394D01*
X039198Y011394D01*
X039138Y011333D01*
X039138Y011213D01*
X039507Y011394D02*
X039627Y011394D01*
X039567Y011454D02*
X039567Y011213D01*
X039627Y011153D01*
X039752Y011213D02*
X039812Y011153D01*
X039932Y011153D01*
X039992Y011213D01*
X039992Y011333D01*
X039932Y011394D01*
X039812Y011394D01*
X039752Y011333D01*
X039752Y011213D01*
X040120Y011153D02*
X040120Y011394D01*
X040120Y011273D02*
X040241Y011394D01*
X040301Y011394D01*
X040427Y011454D02*
X040487Y011514D01*
X040608Y011514D01*
X040668Y011454D01*
X040668Y011394D01*
X040427Y011153D01*
X040668Y011153D01*
X040668Y011853D02*
X040427Y011853D01*
X040548Y011853D02*
X040548Y012214D01*
X040427Y012094D01*
X040301Y012094D02*
X040241Y012094D01*
X040120Y011973D01*
X040120Y011853D02*
X040120Y012094D01*
X039992Y012033D02*
X039992Y011913D01*
X039932Y011853D01*
X039812Y011853D01*
X039752Y011913D01*
X039752Y012033D01*
X039812Y012094D01*
X039932Y012094D01*
X039992Y012033D01*
X039627Y012094D02*
X039507Y012094D01*
X039567Y012154D02*
X039567Y011913D01*
X039627Y011853D01*
X039379Y011913D02*
X039379Y012033D01*
X039318Y012094D01*
X039198Y012094D01*
X039138Y012033D01*
X039138Y011913D01*
X039198Y011853D01*
X039318Y011853D01*
X039379Y011913D01*
X039010Y011853D02*
X039010Y012214D01*
X038890Y012094D01*
X038770Y012214D01*
X038770Y011853D01*
X037541Y013853D02*
X037541Y014214D01*
X037781Y014214D01*
X037661Y014033D02*
X037541Y014033D01*
X037413Y014094D02*
X037413Y013853D01*
X037233Y013853D01*
X037172Y013913D01*
X037172Y014094D01*
X037044Y013853D02*
X036804Y013853D01*
X036924Y013853D02*
X036924Y014214D01*
X036804Y014094D01*
X036680Y013913D02*
X036680Y013853D01*
X036620Y013853D01*
X036620Y013913D01*
X036680Y013913D01*
X036630Y015403D02*
X036570Y015403D01*
X036570Y015463D01*
X036630Y015463D01*
X036630Y015403D01*
X036754Y015403D02*
X036994Y015403D01*
X036874Y015403D02*
X036874Y015764D01*
X036754Y015644D01*
X037122Y015644D02*
X037122Y015463D01*
X037183Y015403D01*
X037363Y015403D01*
X037363Y015644D01*
X037491Y015583D02*
X037611Y015583D01*
X037491Y015403D02*
X037491Y015764D01*
X037731Y015764D01*
X037491Y016903D02*
X037491Y017264D01*
X037731Y017264D01*
X037611Y017083D02*
X037491Y017083D01*
X037363Y017144D02*
X037363Y016903D01*
X037183Y016903D01*
X037122Y016963D01*
X037122Y017144D01*
X036994Y016903D02*
X036754Y016903D01*
X036874Y016903D02*
X036874Y017264D01*
X036754Y017144D01*
X036630Y016963D02*
X036630Y016903D01*
X036570Y016903D01*
X036570Y016963D01*
X036630Y016963D01*
X037120Y018303D02*
X037180Y018303D01*
X037180Y018363D01*
X037120Y018363D01*
X037120Y018303D01*
X037304Y018303D02*
X037544Y018303D01*
X037424Y018303D02*
X037424Y018664D01*
X037304Y018544D01*
X037672Y018544D02*
X037672Y018363D01*
X037733Y018303D01*
X037913Y018303D01*
X037913Y018544D01*
X038041Y018483D02*
X038161Y018483D01*
X038041Y018303D02*
X038041Y018664D01*
X038281Y018664D01*
X037530Y019003D02*
X037530Y019244D01*
X037530Y019123D02*
X037170Y019123D01*
X037290Y019003D01*
X037230Y019372D02*
X037170Y019432D01*
X037170Y019552D01*
X037230Y019612D01*
X037470Y019372D01*
X037530Y019432D01*
X037530Y019552D01*
X037470Y019612D01*
X037230Y019612D01*
X037230Y019740D02*
X037170Y019800D01*
X037170Y019920D01*
X037230Y019980D01*
X037470Y019740D01*
X037530Y019800D01*
X037530Y019920D01*
X037470Y019980D01*
X037230Y019980D01*
X037290Y020108D02*
X037470Y020108D01*
X037530Y020168D01*
X037530Y020348D01*
X037290Y020348D01*
X037350Y020477D02*
X037350Y020597D01*
X037170Y020477D02*
X037170Y020717D01*
X037170Y020477D02*
X037530Y020477D01*
X037470Y019740D02*
X037230Y019740D01*
X037230Y019372D02*
X037470Y019372D01*
X033530Y018258D02*
X033530Y018018D01*
X033170Y018018D01*
X033170Y018258D01*
X033350Y018138D02*
X033350Y018018D01*
X033530Y017890D02*
X033170Y017890D01*
X033170Y017650D02*
X033530Y017890D01*
X033530Y017650D02*
X033170Y017650D01*
X033230Y017522D02*
X033470Y017282D01*
X033530Y017342D01*
X033530Y017462D01*
X033470Y017522D01*
X033230Y017522D01*
X033170Y017462D01*
X033170Y017342D01*
X033230Y017282D01*
X033470Y017282D01*
X033530Y017153D02*
X033530Y016913D01*
X033530Y017033D02*
X033170Y017033D01*
X033290Y016913D01*
X033350Y016785D02*
X033350Y016545D01*
X033170Y016725D01*
X033530Y016725D01*
X033350Y016417D02*
X033350Y016177D01*
X033170Y016357D01*
X033530Y016357D01*
X033470Y016048D02*
X033350Y016048D01*
X033290Y015988D01*
X033290Y015928D01*
X033350Y015808D01*
X033170Y015808D01*
X033170Y016048D01*
X033470Y016048D02*
X033530Y015988D01*
X033530Y015868D01*
X033470Y015808D01*
X033230Y015680D02*
X033470Y015440D01*
X033530Y015440D01*
X033530Y015312D02*
X033170Y015312D01*
X033170Y015440D02*
X033170Y015680D01*
X033230Y015680D01*
X033530Y015312D02*
X033170Y015072D01*
X033530Y015072D01*
X033470Y014944D02*
X033530Y014883D01*
X033530Y014763D01*
X033470Y014703D01*
X033350Y014763D02*
X033350Y014883D01*
X033410Y014944D01*
X033470Y014944D01*
X033350Y014763D02*
X033290Y014703D01*
X033230Y014703D01*
X033170Y014763D01*
X033170Y014883D01*
X033230Y014944D01*
X029537Y016330D02*
X029537Y016637D01*
X029461Y016714D01*
X029307Y016714D01*
X029230Y016637D01*
X029230Y016560D01*
X029307Y016484D01*
X029537Y016484D01*
X029537Y016330D02*
X029461Y016253D01*
X029307Y016253D01*
X029230Y016330D01*
X029077Y016253D02*
X028770Y016253D01*
X029077Y016560D01*
X029077Y016637D01*
X029000Y016714D01*
X028847Y016714D01*
X028770Y016637D01*
X027837Y018653D02*
X027837Y019014D01*
X027657Y018833D01*
X027897Y018833D01*
X027529Y018653D02*
X027288Y018653D01*
X027408Y018653D02*
X027408Y019014D01*
X027288Y018894D01*
X027160Y018894D02*
X027040Y019014D01*
X026920Y018894D01*
X026920Y018653D01*
X026920Y018833D02*
X027160Y018833D01*
X027160Y018894D02*
X027160Y018653D01*
X027970Y019703D02*
X027970Y019763D01*
X028030Y019763D01*
X028030Y019703D01*
X027970Y019703D01*
X028030Y019887D02*
X028030Y020128D01*
X028030Y020008D02*
X027670Y020008D01*
X027790Y019887D01*
X027790Y020256D02*
X027970Y020256D01*
X028030Y020316D01*
X028030Y020496D01*
X027790Y020496D01*
X027850Y020624D02*
X027850Y020744D01*
X028030Y020624D02*
X027670Y020624D01*
X027670Y020864D01*
X021537Y016553D02*
X021230Y016553D01*
X021077Y016553D02*
X020770Y016553D01*
X021077Y016860D01*
X021077Y016937D01*
X021000Y017014D01*
X020847Y017014D01*
X020770Y016937D01*
X021230Y016860D02*
X021384Y017014D01*
X021384Y016553D01*
X020280Y019453D02*
X019920Y019453D01*
X019920Y019633D01*
X019980Y019694D01*
X020100Y019694D01*
X020160Y019633D01*
X020160Y019453D01*
X020160Y019573D02*
X020280Y019694D01*
X020280Y019822D02*
X019920Y020062D01*
X020100Y020190D02*
X020280Y020430D01*
X020100Y020558D02*
X020100Y020798D01*
X019920Y020430D02*
X020100Y020190D01*
X020280Y020062D02*
X019920Y019822D01*
X019330Y019822D02*
X018970Y020062D01*
X019150Y020190D02*
X019150Y020430D01*
X019330Y020558D02*
X019150Y020798D01*
X018970Y020558D01*
X018395Y020403D02*
X018275Y020403D01*
X018335Y020403D02*
X018335Y020764D01*
X018275Y020764D02*
X018395Y020764D01*
X018147Y020704D02*
X018147Y020463D01*
X018087Y020403D01*
X017907Y020403D01*
X017907Y020764D01*
X018087Y020764D01*
X018147Y020704D01*
X017779Y020764D02*
X017538Y020764D01*
X017658Y020764D02*
X017658Y020403D01*
X017290Y020583D02*
X017170Y020583D01*
X017170Y020403D02*
X017170Y020764D01*
X017410Y020764D01*
X016330Y020420D02*
X016270Y020480D01*
X016030Y020480D01*
X015970Y020420D01*
X015970Y020240D01*
X016330Y020240D01*
X016330Y020420D01*
X016330Y020112D02*
X015970Y020112D01*
X015970Y019872D02*
X016330Y020112D01*
X016330Y019872D02*
X015970Y019872D01*
X016030Y019744D02*
X015970Y019683D01*
X015970Y019563D01*
X016030Y019503D01*
X016270Y019503D01*
X016330Y019563D01*
X016330Y019683D01*
X016270Y019744D01*
X016150Y019744D01*
X016150Y019623D01*
X018970Y019573D02*
X019330Y019573D01*
X018970Y019453D02*
X018970Y019694D01*
X018970Y019822D02*
X019330Y020062D01*
X026320Y012060D02*
X026397Y012060D01*
X026473Y011984D01*
X026550Y012060D01*
X026627Y011984D01*
X026627Y011753D01*
X026780Y011753D02*
X026934Y011753D01*
X026857Y011753D02*
X026857Y012060D01*
X026780Y012060D01*
X026857Y012214D02*
X026857Y012290D01*
X027087Y011984D02*
X027087Y011830D01*
X027164Y011753D01*
X027394Y011753D01*
X027548Y011753D02*
X027548Y012060D01*
X027548Y011907D02*
X027701Y012060D01*
X027778Y012060D01*
X027931Y011984D02*
X027931Y011830D01*
X028008Y011753D01*
X028162Y011753D01*
X028238Y011830D01*
X028238Y011984D01*
X028162Y012060D01*
X028008Y012060D01*
X027931Y011984D01*
X028392Y012060D02*
X028468Y011984D01*
X028622Y011984D01*
X028699Y011907D01*
X028699Y011830D01*
X028622Y011753D01*
X028468Y011753D01*
X028392Y011830D01*
X028392Y012060D02*
X028392Y012137D01*
X028468Y012214D01*
X028622Y012214D01*
X028699Y012137D01*
X028852Y012214D02*
X029082Y012214D01*
X029159Y012137D01*
X029159Y011830D01*
X029082Y011753D01*
X028852Y011753D01*
X028852Y012214D01*
X028913Y013303D02*
X028733Y013303D01*
X028672Y013363D01*
X028672Y013544D01*
X028913Y013544D02*
X028913Y013303D01*
X029041Y013303D02*
X029041Y013664D01*
X029281Y013664D01*
X029161Y013483D02*
X029041Y013483D01*
X028544Y013303D02*
X028304Y013303D01*
X028424Y013303D02*
X028424Y013664D01*
X028304Y013544D01*
X028180Y013363D02*
X028180Y013303D01*
X028120Y013303D01*
X028120Y013363D01*
X028180Y013363D01*
X027394Y012060D02*
X027164Y012060D01*
X027087Y011984D01*
X026473Y011984D02*
X026473Y011753D01*
X026320Y011753D02*
X026320Y012060D01*
X028847Y009364D02*
X028770Y009287D01*
X028847Y009364D02*
X029000Y009364D01*
X029077Y009287D01*
X029077Y009210D01*
X028770Y008903D01*
X029077Y008903D01*
X029230Y008980D02*
X029230Y009057D01*
X029307Y009134D01*
X029461Y009134D01*
X029537Y009057D01*
X029537Y008980D01*
X029461Y008903D01*
X029307Y008903D01*
X029230Y008980D01*
X029307Y009134D02*
X029230Y009210D01*
X029230Y009287D01*
X029307Y009364D01*
X029461Y009364D01*
X029537Y009287D01*
X029537Y009210D01*
X029461Y009134D01*
X028220Y006694D02*
X028280Y006634D01*
X028280Y006514D01*
X028220Y006454D01*
X028280Y006326D02*
X028280Y006086D01*
X028040Y006326D01*
X027980Y006326D01*
X027920Y006266D01*
X027920Y006146D01*
X027980Y006086D01*
X027920Y005957D02*
X028280Y005957D01*
X027920Y005717D01*
X028280Y005717D01*
X028280Y005592D02*
X028280Y005472D01*
X028280Y005532D02*
X027920Y005532D01*
X027920Y005472D02*
X027920Y005592D01*
X027980Y005344D02*
X028100Y005344D01*
X028160Y005283D01*
X028160Y005103D01*
X028280Y005103D02*
X027920Y005103D01*
X027920Y005283D01*
X027980Y005344D01*
X027280Y005472D02*
X027280Y005592D01*
X027280Y005532D02*
X026920Y005532D01*
X026920Y005472D02*
X026920Y005592D01*
X026920Y005717D02*
X027280Y005957D01*
X026920Y005957D01*
X026980Y006086D02*
X026920Y006146D01*
X026920Y006266D01*
X026980Y006326D01*
X027040Y006326D01*
X027280Y006086D01*
X027280Y006326D01*
X027280Y006454D02*
X027040Y006694D01*
X026980Y006694D01*
X026920Y006634D01*
X026920Y006514D01*
X026980Y006454D01*
X027280Y006454D02*
X027280Y006694D01*
X027920Y006634D02*
X027920Y006514D01*
X027980Y006454D01*
X028100Y006574D02*
X028100Y006634D01*
X028160Y006694D01*
X028220Y006694D01*
X028100Y006634D02*
X028040Y006694D01*
X027980Y006694D01*
X027920Y006634D01*
X027280Y005717D02*
X026920Y005717D01*
X026980Y005344D02*
X027100Y005344D01*
X027160Y005283D01*
X027160Y005103D01*
X027280Y005103D02*
X026920Y005103D01*
X026920Y005283D01*
X026980Y005344D01*
X026280Y005472D02*
X026280Y005592D01*
X026280Y005532D02*
X025920Y005532D01*
X025920Y005472D02*
X025920Y005592D01*
X025920Y005717D02*
X026280Y005957D01*
X025920Y005957D01*
X025980Y006086D02*
X025920Y006146D01*
X025920Y006266D01*
X025980Y006326D01*
X026040Y006326D01*
X026280Y006086D01*
X026280Y006326D01*
X026280Y006454D02*
X026280Y006694D01*
X026280Y006574D02*
X025920Y006574D01*
X026040Y006454D01*
X025920Y005717D02*
X026280Y005717D01*
X026100Y005344D02*
X025980Y005344D01*
X025920Y005283D01*
X025920Y005103D01*
X026280Y005103D01*
X026160Y005103D02*
X026160Y005283D01*
X026100Y005344D01*
X025280Y005472D02*
X025280Y005592D01*
X025280Y005532D02*
X024920Y005532D01*
X024920Y005472D02*
X024920Y005592D01*
X024920Y005717D02*
X025280Y005957D01*
X024920Y005957D01*
X024980Y006086D02*
X024920Y006146D01*
X024920Y006266D01*
X024980Y006326D01*
X025040Y006326D01*
X025280Y006086D01*
X025280Y006326D01*
X025220Y006454D02*
X024980Y006694D01*
X025220Y006694D01*
X025280Y006634D01*
X025280Y006514D01*
X025220Y006454D01*
X024980Y006454D01*
X024920Y006514D01*
X024920Y006634D01*
X024980Y006694D01*
X024280Y006634D02*
X024280Y006514D01*
X024220Y006454D01*
X024100Y006514D02*
X024100Y006694D01*
X024220Y006694D02*
X023980Y006694D01*
X023920Y006634D01*
X023920Y006514D01*
X023980Y006454D01*
X024040Y006454D01*
X024100Y006514D01*
X024280Y006634D02*
X024220Y006694D01*
X024280Y006326D02*
X024280Y006086D01*
X024280Y006206D02*
X023920Y006206D01*
X024040Y006086D01*
X023920Y005957D02*
X024280Y005957D01*
X023920Y005717D01*
X024280Y005717D01*
X024280Y005592D02*
X024280Y005472D01*
X024280Y005532D02*
X023920Y005532D01*
X023920Y005472D02*
X023920Y005592D01*
X023980Y005344D02*
X023920Y005283D01*
X023920Y005103D01*
X024280Y005103D01*
X024160Y005103D02*
X024160Y005283D01*
X024100Y005344D01*
X023980Y005344D01*
X023280Y005472D02*
X023280Y005592D01*
X023280Y005532D02*
X022920Y005532D01*
X022920Y005472D02*
X022920Y005592D01*
X022920Y005717D02*
X023280Y005957D01*
X022920Y005957D01*
X023040Y006086D02*
X022920Y006206D01*
X023280Y006206D01*
X023280Y006086D02*
X023280Y006326D01*
X023220Y006454D02*
X023160Y006454D01*
X023100Y006514D01*
X023100Y006634D01*
X023160Y006694D01*
X023220Y006694D01*
X023280Y006634D01*
X023280Y006514D01*
X023220Y006454D01*
X023100Y006514D02*
X023040Y006454D01*
X022980Y006454D01*
X022920Y006514D01*
X022920Y006634D01*
X022980Y006694D01*
X023040Y006694D01*
X023100Y006634D01*
X022280Y006454D02*
X022220Y006454D01*
X021980Y006694D01*
X021920Y006694D01*
X021920Y006454D01*
X021920Y006206D02*
X022280Y006206D01*
X022280Y006086D02*
X022280Y006326D01*
X022040Y006086D02*
X021920Y006206D01*
X021920Y005957D02*
X022280Y005957D01*
X021920Y005717D01*
X022280Y005717D01*
X022280Y005592D02*
X022280Y005472D01*
X022280Y005532D02*
X021920Y005532D01*
X021920Y005472D02*
X021920Y005592D01*
X021980Y005344D02*
X022100Y005344D01*
X022160Y005283D01*
X022160Y005103D01*
X022280Y005103D02*
X021920Y005103D01*
X021920Y005283D01*
X021980Y005344D01*
X021280Y005472D02*
X021280Y005592D01*
X021280Y005532D02*
X020920Y005532D01*
X020920Y005472D02*
X020920Y005592D01*
X020920Y005717D02*
X021280Y005957D01*
X020920Y005957D01*
X021040Y006086D02*
X020920Y006206D01*
X021280Y006206D01*
X021280Y006086D02*
X021280Y006326D01*
X021220Y006454D02*
X021280Y006514D01*
X021280Y006634D01*
X021220Y006694D01*
X021160Y006694D01*
X021100Y006634D01*
X021100Y006454D01*
X021220Y006454D01*
X021100Y006454D02*
X020980Y006574D01*
X020920Y006694D01*
X020280Y006634D02*
X020280Y006514D01*
X020220Y006454D01*
X020100Y006454D02*
X020040Y006574D01*
X020040Y006634D01*
X020100Y006694D01*
X020220Y006694D01*
X020280Y006634D01*
X020100Y006454D02*
X019920Y006454D01*
X019920Y006694D01*
X019920Y006206D02*
X020280Y006206D01*
X020280Y006086D02*
X020280Y006326D01*
X020040Y006086D02*
X019920Y006206D01*
X019920Y005957D02*
X020280Y005957D01*
X019920Y005717D01*
X020280Y005717D01*
X020280Y005592D02*
X020280Y005472D01*
X020280Y005532D02*
X019920Y005532D01*
X019920Y005472D02*
X019920Y005592D01*
X019980Y005344D02*
X020100Y005344D01*
X020160Y005283D01*
X020160Y005103D01*
X020280Y005103D02*
X019920Y005103D01*
X019920Y005283D01*
X019980Y005344D01*
X019280Y005472D02*
X019280Y005592D01*
X019280Y005532D02*
X018920Y005532D01*
X018920Y005472D02*
X018920Y005592D01*
X018920Y005717D02*
X019280Y005957D01*
X018920Y005957D01*
X019040Y006086D02*
X018920Y006206D01*
X019280Y006206D01*
X019280Y006086D02*
X019280Y006326D01*
X019100Y006454D02*
X019100Y006694D01*
X019280Y006634D02*
X018920Y006634D01*
X019100Y006454D01*
X019280Y005717D02*
X018920Y005717D01*
X018980Y005344D02*
X019100Y005344D01*
X019160Y005283D01*
X019160Y005103D01*
X019280Y005103D02*
X018920Y005103D01*
X018920Y005283D01*
X018980Y005344D01*
X018280Y005472D02*
X018280Y005592D01*
X018280Y005532D02*
X017920Y005532D01*
X017920Y005472D02*
X017920Y005592D01*
X017920Y005717D02*
X018280Y005957D01*
X017920Y005957D01*
X018040Y006086D02*
X017920Y006206D01*
X018280Y006206D01*
X018280Y006086D02*
X018280Y006326D01*
X018220Y006454D02*
X018280Y006514D01*
X018280Y006634D01*
X018220Y006694D01*
X018160Y006694D01*
X018100Y006634D01*
X018100Y006574D01*
X018100Y006634D02*
X018040Y006694D01*
X017980Y006694D01*
X017920Y006634D01*
X017920Y006514D01*
X017980Y006454D01*
X017280Y006454D02*
X017040Y006694D01*
X016980Y006694D01*
X016920Y006634D01*
X016920Y006514D01*
X016980Y006454D01*
X016920Y006206D02*
X017280Y006206D01*
X017280Y006086D02*
X017280Y006326D01*
X017280Y006454D02*
X017280Y006694D01*
X016920Y006206D02*
X017040Y006086D01*
X016920Y005957D02*
X017280Y005957D01*
X016920Y005717D01*
X017280Y005717D01*
X017280Y005592D02*
X017280Y005472D01*
X017280Y005532D02*
X016920Y005532D01*
X016920Y005472D02*
X016920Y005592D01*
X016980Y005344D02*
X016920Y005283D01*
X016920Y005103D01*
X017280Y005103D01*
X017160Y005103D02*
X017160Y005283D01*
X017100Y005344D01*
X016980Y005344D01*
X016280Y004774D02*
X015920Y004774D01*
X015920Y005014D01*
X016100Y004894D02*
X016100Y004774D01*
X016040Y004646D02*
X016280Y004646D01*
X016280Y004466D01*
X016220Y004406D01*
X016040Y004406D01*
X016280Y004278D02*
X016280Y004037D01*
X016280Y004158D02*
X015920Y004158D01*
X016040Y004037D01*
X016220Y003913D02*
X016280Y003913D01*
X016280Y003853D01*
X016220Y003853D01*
X016220Y003913D01*
X015080Y003898D02*
X014840Y003898D01*
X014900Y004027D02*
X014900Y004147D01*
X014720Y004027D02*
X014720Y004267D01*
X014720Y004027D02*
X015080Y004027D01*
X015080Y003898D02*
X015080Y003718D01*
X015020Y003658D01*
X014840Y003658D01*
X014780Y003530D02*
X015020Y003290D01*
X015080Y003350D01*
X015080Y003470D01*
X015020Y003530D01*
X014780Y003530D01*
X014720Y003470D01*
X014720Y003350D01*
X014780Y003290D01*
X015020Y003290D01*
X015020Y003162D02*
X015080Y003102D01*
X015080Y002982D01*
X015020Y002922D01*
X014780Y003162D01*
X015020Y003162D01*
X014780Y003162D02*
X014720Y003102D01*
X014720Y002982D01*
X014780Y002922D01*
X015020Y002922D01*
X015080Y002794D02*
X015080Y002553D01*
X015080Y002673D02*
X014720Y002673D01*
X014840Y002553D01*
X014779Y005153D02*
X014538Y005153D01*
X014779Y005394D01*
X014779Y005454D01*
X014718Y005514D01*
X014598Y005514D01*
X014538Y005454D01*
X014290Y005514D02*
X014290Y005153D01*
X014170Y005153D02*
X014410Y005153D01*
X014170Y005394D02*
X014290Y005514D01*
X014230Y006153D02*
X014170Y006213D01*
X014230Y006153D02*
X014350Y006153D01*
X014410Y006213D01*
X014410Y006333D01*
X014350Y006394D01*
X014290Y006394D01*
X014170Y006333D01*
X014170Y006514D01*
X014410Y006514D01*
X014538Y006514D02*
X014538Y006273D01*
X014658Y006153D01*
X014779Y006273D01*
X014779Y006514D01*
X014747Y007253D02*
X014627Y007373D01*
X014687Y007373D02*
X014507Y007373D01*
X014507Y007253D02*
X014507Y007614D01*
X014687Y007614D01*
X014747Y007554D01*
X014747Y007433D01*
X014687Y007373D01*
X014875Y007313D02*
X014935Y007253D01*
X015055Y007253D01*
X015115Y007313D01*
X015115Y007373D01*
X015055Y007433D01*
X014935Y007433D01*
X014875Y007494D01*
X014875Y007554D01*
X014935Y007614D01*
X015055Y007614D01*
X015115Y007554D01*
X015243Y007614D02*
X015243Y007253D01*
X015483Y007253D01*
X015612Y007253D02*
X015852Y007253D01*
X015612Y007253D02*
X015612Y007614D01*
X015483Y007614D02*
X015243Y007614D01*
X015243Y007433D02*
X015363Y007433D01*
X014379Y007253D02*
X014379Y007614D01*
X014138Y007614D02*
X014138Y007253D01*
X014258Y007373D01*
X014379Y007253D01*
X014010Y007433D02*
X014010Y007554D01*
X013950Y007614D01*
X013770Y007614D01*
X013770Y007253D01*
X013770Y007373D02*
X013950Y007373D01*
X014010Y007433D01*
X012302Y007464D02*
X012062Y007464D01*
X012062Y007283D01*
X012182Y007344D01*
X012242Y007344D01*
X012302Y007283D01*
X012302Y007163D01*
X012242Y007103D01*
X012122Y007103D01*
X012062Y007163D01*
X011934Y007283D02*
X011694Y007283D01*
X011566Y007283D02*
X011506Y007223D01*
X011325Y007223D01*
X011325Y007103D02*
X011325Y007464D01*
X011506Y007464D01*
X011566Y007404D01*
X011566Y007283D01*
X011446Y007223D02*
X011566Y007103D01*
X011197Y007163D02*
X011137Y007103D01*
X011017Y007103D01*
X010957Y007163D01*
X010829Y007163D02*
X010769Y007103D01*
X010649Y007103D01*
X010589Y007163D01*
X010589Y007223D01*
X010649Y007283D01*
X010769Y007283D01*
X010829Y007223D01*
X010829Y007163D01*
X010769Y007283D02*
X010829Y007344D01*
X010829Y007404D01*
X010769Y007464D01*
X010649Y007464D01*
X010589Y007404D01*
X010589Y007344D01*
X010649Y007283D01*
X010461Y007404D02*
X010220Y007163D01*
X010220Y007103D01*
X010092Y007283D02*
X009852Y007283D01*
X009727Y007103D02*
X009607Y007103D01*
X009667Y007103D02*
X009667Y007464D01*
X009607Y007464D02*
X009727Y007464D01*
X009479Y007464D02*
X009238Y007223D01*
X009298Y007283D02*
X009479Y007103D01*
X009238Y007103D02*
X009238Y007464D01*
X009110Y007404D02*
X009050Y007464D01*
X008930Y007464D01*
X008870Y007404D01*
X008870Y007163D01*
X008930Y007103D01*
X009050Y007103D01*
X009110Y007163D01*
X009110Y007404D01*
X010220Y007464D02*
X010461Y007464D01*
X010461Y007404D01*
X010957Y007404D02*
X011017Y007464D01*
X011137Y007464D01*
X011197Y007404D01*
X011137Y007283D02*
X011197Y007223D01*
X011197Y007163D01*
X011137Y007283D02*
X011017Y007283D01*
X010957Y007344D01*
X010957Y007404D01*
X008990Y004954D02*
X008990Y004713D01*
X008870Y004833D02*
X009110Y004833D01*
X007760Y004833D02*
X007520Y004833D01*
X006797Y002664D02*
X006677Y002664D01*
X006617Y002604D01*
X006617Y002363D01*
X006677Y002303D01*
X006797Y002303D01*
X006857Y002363D01*
X006857Y002604D02*
X006797Y002664D01*
X006488Y002604D02*
X006488Y002363D01*
X006428Y002303D01*
X006248Y002303D01*
X006248Y002664D01*
X006428Y002664D01*
X006488Y002604D01*
X005752Y002664D02*
X005752Y002423D01*
X005632Y002303D01*
X005512Y002423D01*
X005512Y002664D01*
X005383Y002604D02*
X005323Y002664D01*
X005203Y002664D01*
X005143Y002604D01*
X005383Y002604D02*
X005383Y002544D01*
X005143Y002303D01*
X005383Y002303D01*
X005015Y002303D02*
X004775Y002303D01*
X004895Y002303D02*
X004895Y002664D01*
X004775Y002544D01*
X004647Y002664D02*
X004407Y002303D01*
X004279Y002423D02*
X004279Y002664D01*
X004279Y002423D02*
X004158Y002303D01*
X004038Y002423D01*
X004038Y002664D01*
X003910Y002664D02*
X003670Y002664D01*
X003670Y002483D01*
X003790Y002544D01*
X003850Y002544D01*
X003910Y002483D01*
X003910Y002363D01*
X003850Y002303D01*
X003730Y002303D01*
X003670Y002363D01*
X002277Y008653D02*
X001970Y008653D01*
X002123Y008653D02*
X002123Y009114D01*
X001970Y008960D01*
X002120Y009153D02*
X002427Y009153D01*
X002273Y009153D02*
X002273Y009614D01*
X002120Y009460D01*
X002397Y012753D02*
X002550Y012753D01*
X002627Y012830D01*
X002627Y013214D01*
X002780Y013137D02*
X002780Y013060D01*
X002857Y012984D01*
X003011Y012984D01*
X003087Y012907D01*
X003087Y012830D01*
X003011Y012753D01*
X002857Y012753D01*
X002780Y012830D01*
X002780Y013137D02*
X002857Y013214D01*
X003011Y013214D01*
X003087Y013137D01*
X003241Y013214D02*
X003471Y013214D01*
X003548Y013137D01*
X003548Y013060D01*
X003471Y012984D01*
X003241Y012984D01*
X003241Y013214D02*
X003241Y012753D01*
X003471Y012753D01*
X003548Y012830D01*
X003548Y012907D01*
X003471Y012984D01*
X002397Y012753D02*
X002320Y012830D01*
X002320Y013214D01*
X002357Y016253D02*
X002511Y016253D01*
X002587Y016330D01*
X002587Y016407D01*
X002511Y016484D01*
X002280Y016484D01*
X002280Y016330D01*
X002357Y016253D01*
X002127Y016330D02*
X002050Y016253D01*
X001897Y016253D01*
X001820Y016330D01*
X001820Y016484D02*
X001973Y016560D01*
X002050Y016560D01*
X002127Y016484D01*
X002127Y016330D01*
X002280Y016484D02*
X002434Y016637D01*
X002587Y016714D01*
X002537Y016630D02*
X002461Y016553D01*
X002307Y016553D01*
X002230Y016630D01*
X002537Y016937D01*
X002537Y016630D01*
X002230Y016630D02*
X002230Y016937D01*
X002307Y017014D01*
X002461Y017014D01*
X002537Y016937D01*
X002127Y016714D02*
X001820Y016714D01*
X001820Y016484D01*
X002000Y016553D02*
X002000Y017014D01*
X001770Y016784D01*
X002077Y016784D01*
X004820Y018603D02*
X004820Y018844D01*
X004940Y018964D01*
X005060Y018844D01*
X005060Y018603D01*
X005188Y018663D02*
X005429Y018904D01*
X005429Y018663D01*
X005368Y018603D01*
X005248Y018603D01*
X005188Y018663D01*
X005188Y018904D01*
X005248Y018964D01*
X005368Y018964D01*
X005429Y018904D01*
X005060Y018783D02*
X004820Y018783D01*
X004898Y019653D02*
X004838Y019713D01*
X004898Y019653D02*
X005018Y019653D01*
X005079Y019713D01*
X005079Y019833D01*
X005018Y019894D01*
X004958Y019894D01*
X004838Y019833D01*
X004838Y020014D01*
X005079Y020014D01*
X005207Y020014D02*
X005207Y019773D01*
X005327Y019653D01*
X005447Y019773D01*
X005447Y020014D01*
X005387Y020653D02*
X005207Y020653D01*
X005207Y021014D01*
X005387Y021014D01*
X005447Y020954D01*
X005447Y020713D01*
X005387Y020653D01*
X005079Y020653D02*
X005079Y021014D01*
X004838Y021014D02*
X005079Y020653D01*
X004838Y020653D02*
X004838Y021014D01*
X004710Y020954D02*
X004650Y021014D01*
X004530Y021014D01*
X004470Y020954D01*
X004470Y020713D01*
X004530Y020653D01*
X004650Y020653D01*
X004710Y020713D01*
X004710Y020833D01*
X004590Y020833D01*
X004590Y019954D02*
X004590Y019713D01*
X004470Y019833D02*
X004710Y019833D01*
X014907Y005514D02*
X014907Y005273D01*
X015027Y005153D01*
X015147Y005273D01*
X015147Y005514D01*
X017920Y005717D02*
X018280Y005717D01*
X018100Y005344D02*
X018160Y005283D01*
X018160Y005103D01*
X018280Y005103D02*
X017920Y005103D01*
X017920Y005283D01*
X017980Y005344D01*
X018100Y005344D01*
X020920Y005283D02*
X020980Y005344D01*
X021100Y005344D01*
X021160Y005283D01*
X021160Y005103D01*
X021280Y005103D02*
X020920Y005103D01*
X020920Y005283D01*
X020920Y005717D02*
X021280Y005717D01*
X022920Y005717D02*
X023280Y005717D01*
X023100Y005344D02*
X023160Y005283D01*
X023160Y005103D01*
X023280Y005103D02*
X022920Y005103D01*
X022920Y005283D01*
X022980Y005344D01*
X023100Y005344D01*
X024920Y005283D02*
X024980Y005344D01*
X025100Y005344D01*
X025160Y005283D01*
X025160Y005103D01*
X025280Y005103D02*
X024920Y005103D01*
X024920Y005283D01*
X024920Y005717D02*
X025280Y005717D01*
X028820Y004554D02*
X028820Y004494D01*
X028880Y004433D01*
X029000Y004433D01*
X029060Y004373D01*
X029060Y004313D01*
X029000Y004253D01*
X028880Y004253D01*
X028820Y004313D01*
X028820Y004554D02*
X028880Y004614D01*
X029000Y004614D01*
X029060Y004554D01*
X029188Y004494D02*
X029248Y004494D01*
X029248Y004253D01*
X029188Y004253D02*
X029308Y004253D01*
X029434Y004313D02*
X029494Y004253D01*
X029674Y004253D01*
X029674Y004193D02*
X029674Y004494D01*
X029494Y004494D01*
X029434Y004433D01*
X029434Y004313D01*
X029554Y004133D02*
X029614Y004133D01*
X029674Y004193D01*
X029248Y004614D02*
X029248Y004674D01*
X029138Y003564D02*
X029138Y003383D01*
X029258Y003444D01*
X029318Y003444D01*
X029379Y003383D01*
X029379Y003263D01*
X029318Y003203D01*
X029198Y003203D01*
X029138Y003263D01*
X029010Y003383D02*
X028770Y003383D01*
X028890Y003263D02*
X028890Y003504D01*
X029138Y003564D02*
X029379Y003564D01*
X029507Y003564D02*
X029507Y003323D01*
X029627Y003203D01*
X029747Y003323D01*
X029747Y003564D01*
X029737Y002614D02*
X029557Y002614D01*
X029557Y002253D01*
X029737Y002253D01*
X029797Y002313D01*
X029797Y002554D01*
X029737Y002614D01*
X029429Y002614D02*
X029429Y002253D01*
X029188Y002614D01*
X029188Y002253D01*
X029060Y002313D02*
X029060Y002433D01*
X028940Y002433D01*
X028820Y002313D02*
X028820Y002554D01*
X028880Y002614D01*
X029000Y002614D01*
X029060Y002554D01*
X029060Y002313D02*
X029000Y002253D01*
X028880Y002253D01*
X028820Y002313D01*
X030170Y002363D02*
X030230Y002303D01*
X030350Y002303D01*
X030410Y002363D01*
X030410Y002483D01*
X030290Y002483D01*
X030170Y002363D02*
X030170Y002604D01*
X030230Y002664D01*
X030350Y002664D01*
X030410Y002604D01*
X030538Y002664D02*
X030779Y002303D01*
X030779Y002664D01*
X030907Y002664D02*
X031087Y002664D01*
X031147Y002604D01*
X031147Y002363D01*
X031087Y002303D01*
X030907Y002303D01*
X030907Y002664D01*
X030538Y002664D02*
X030538Y002303D01*
X032520Y002063D02*
X032580Y002063D01*
X032580Y002003D01*
X032520Y002003D01*
X032520Y002063D01*
X032704Y002003D02*
X032944Y002003D01*
X032824Y002003D02*
X032824Y002364D01*
X032704Y002244D01*
X033072Y002244D02*
X033072Y002063D01*
X033133Y002003D01*
X033313Y002003D01*
X033313Y002244D01*
X033441Y002183D02*
X033561Y002183D01*
X033441Y002003D02*
X033441Y002364D01*
X033681Y002364D01*
X035670Y002363D02*
X035730Y002303D01*
X035850Y002303D01*
X035910Y002363D01*
X035910Y002483D01*
X035790Y002483D01*
X035670Y002363D02*
X035670Y002604D01*
X035730Y002664D01*
X035850Y002664D01*
X035910Y002604D01*
X036038Y002664D02*
X036279Y002303D01*
X036279Y002664D01*
X036407Y002664D02*
X036407Y002303D01*
X036587Y002303D01*
X036647Y002363D01*
X036647Y002604D01*
X036587Y002664D01*
X036407Y002664D01*
X036038Y002664D02*
X036038Y002303D01*
X033470Y005703D02*
X033530Y005763D01*
X033530Y005883D01*
X033470Y005944D01*
X033410Y005944D01*
X033350Y005883D01*
X033350Y005763D01*
X033290Y005703D01*
X033230Y005703D01*
X033170Y005763D01*
X033170Y005883D01*
X033230Y005944D01*
X033170Y006072D02*
X033530Y006312D01*
X033170Y006312D01*
X033170Y006440D02*
X033170Y006680D01*
X033230Y006680D01*
X033470Y006440D01*
X033530Y006440D01*
X033530Y006072D02*
X033170Y006072D01*
X033170Y006808D02*
X033350Y006808D01*
X033290Y006928D01*
X033290Y006988D01*
X033350Y007048D01*
X033470Y007048D01*
X033530Y006988D01*
X033530Y006868D01*
X033470Y006808D01*
X033170Y006808D02*
X033170Y007048D01*
X033350Y007177D02*
X033350Y007417D01*
X033350Y007545D02*
X033350Y007785D01*
X033290Y007913D02*
X033170Y008033D01*
X033530Y008033D01*
X033530Y007913D02*
X033530Y008153D01*
X033470Y008282D02*
X033230Y008522D01*
X033470Y008522D01*
X033530Y008462D01*
X033530Y008342D01*
X033470Y008282D01*
X033230Y008282D01*
X033170Y008342D01*
X033170Y008462D01*
X033230Y008522D01*
X033170Y008650D02*
X033530Y008890D01*
X033170Y008890D01*
X033170Y009018D02*
X033530Y009018D01*
X033530Y009258D01*
X033350Y009138D02*
X033350Y009018D01*
X033170Y009018D02*
X033170Y009258D01*
X033170Y008650D02*
X033530Y008650D01*
X033530Y007725D02*
X033170Y007725D01*
X033350Y007545D01*
X033530Y007357D02*
X033170Y007357D01*
X033350Y007177D01*
X021537Y008730D02*
X021461Y008653D01*
X021307Y008653D01*
X021230Y008730D01*
X021537Y009037D01*
X021537Y008730D01*
X021230Y008730D02*
X021230Y009037D01*
X021307Y009114D01*
X021461Y009114D01*
X021537Y009037D01*
X021077Y009037D02*
X021000Y009114D01*
X020847Y009114D01*
X020770Y009037D01*
X021077Y009037D02*
X021077Y008960D01*
X020770Y008653D01*
X021077Y008653D01*
X011980Y004077D02*
X011620Y004077D01*
X011620Y004317D01*
X011800Y004197D02*
X011800Y004077D01*
X011740Y003948D02*
X011980Y003948D01*
X011980Y003768D01*
X011920Y003708D01*
X011740Y003708D01*
X011680Y003580D02*
X011920Y003340D01*
X011980Y003400D01*
X011980Y003520D01*
X011920Y003580D01*
X011680Y003580D01*
X011620Y003520D01*
X011620Y003400D01*
X011680Y003340D01*
X011920Y003340D01*
X011920Y003212D02*
X011980Y003152D01*
X011980Y003032D01*
X011920Y002972D01*
X011680Y003212D01*
X011920Y003212D01*
X011680Y003212D02*
X011620Y003152D01*
X011620Y003032D01*
X011680Y002972D01*
X011920Y002972D01*
X011980Y002844D02*
X011980Y002603D01*
X011980Y002723D02*
X011620Y002723D01*
X011740Y002603D01*
D13*
X034629Y003233D02*
X034631Y003249D01*
X034637Y003265D01*
X034646Y003279D01*
X034658Y003290D01*
X034672Y003298D01*
X034688Y003303D01*
X034704Y003304D01*
X034720Y003301D01*
X034735Y003294D01*
X034749Y003285D01*
X034759Y003272D01*
X034767Y003257D01*
X034771Y003241D01*
X034771Y003225D01*
X034767Y003209D01*
X034759Y003194D01*
X034749Y003181D01*
X034736Y003172D01*
X034720Y003165D01*
X034704Y003162D01*
X034688Y003163D01*
X034672Y003168D01*
X034658Y003176D01*
X034646Y003187D01*
X034637Y003201D01*
X034631Y003217D01*
X034629Y003233D01*
X034629Y012233D02*
X034631Y012249D01*
X034637Y012265D01*
X034646Y012279D01*
X034658Y012290D01*
X034672Y012298D01*
X034688Y012303D01*
X034704Y012304D01*
X034720Y012301D01*
X034735Y012294D01*
X034749Y012285D01*
X034759Y012272D01*
X034767Y012257D01*
X034771Y012241D01*
X034771Y012225D01*
X034767Y012209D01*
X034759Y012194D01*
X034749Y012181D01*
X034736Y012172D01*
X034720Y012165D01*
X034704Y012162D01*
X034688Y012163D01*
X034672Y012168D01*
X034658Y012176D01*
X034646Y012187D01*
X034637Y012201D01*
X034631Y012217D01*
X034629Y012233D01*
D14*
X031025Y014160D02*
X030395Y014160D01*
X030395Y014475D01*
X030500Y014580D01*
X030710Y014580D01*
X030815Y014475D01*
X030815Y014160D01*
X030605Y013936D02*
X030500Y013936D01*
X030395Y013831D01*
X030395Y013620D01*
X030500Y013515D01*
X030710Y013515D01*
X030815Y013620D01*
X030815Y013831D01*
X030605Y013936D02*
X030605Y013515D01*
X030815Y013296D02*
X030710Y013191D01*
X030290Y013191D01*
X030395Y013086D02*
X030395Y013296D01*
X030290Y012861D02*
X030184Y012756D01*
X030184Y012546D01*
X030290Y012441D01*
X030395Y012441D01*
X030500Y012546D01*
X030500Y012756D01*
X030605Y012861D01*
X030710Y012861D01*
X030815Y012756D01*
X030815Y012546D01*
X030710Y012441D01*
X030815Y012217D02*
X030605Y012007D01*
X030605Y012112D02*
X030605Y011797D01*
X030815Y011797D02*
X030184Y011797D01*
X030184Y012112D01*
X030290Y012217D01*
X030500Y012217D01*
X030605Y012112D01*
X030500Y011572D02*
X030500Y011152D01*
X030395Y011152D02*
X030184Y011362D01*
X030395Y011572D01*
X030815Y011572D01*
X030815Y011152D02*
X030395Y011152D01*
X030395Y010928D02*
X030500Y010823D01*
X030500Y010507D01*
X030710Y010283D02*
X030184Y010283D01*
X030184Y010507D02*
X030184Y010823D01*
X030290Y010928D01*
X030395Y010928D01*
X030500Y010823D02*
X030605Y010928D01*
X030710Y010928D01*
X030815Y010823D01*
X030815Y010507D01*
X030184Y010507D01*
X030710Y010283D02*
X030815Y010178D01*
X030815Y009968D01*
X030710Y009863D01*
X030184Y009863D01*
X030184Y009639D02*
X030184Y009218D01*
X030815Y009218D01*
X030500Y009218D02*
X030500Y009429D01*
X030395Y015449D02*
X030815Y015659D01*
X030395Y015869D01*
X030395Y016094D02*
X030184Y016304D01*
X030815Y016304D01*
X030815Y016094D02*
X030815Y016514D01*
X030815Y016738D02*
X030815Y016843D01*
X030710Y016843D01*
X030710Y016738D01*
X030815Y016738D01*
X030710Y017060D02*
X030290Y017060D01*
X030184Y017165D01*
X030184Y017376D01*
X030290Y017481D01*
X030710Y017060D01*
X030815Y017165D01*
X030815Y017376D01*
X030710Y017481D01*
X030290Y017481D01*
D15*
X013900Y006833D02*
X013900Y005983D01*
X013900Y005683D02*
X013900Y004833D01*
D16*
X006650Y005208D02*
X006650Y004333D01*
X006525Y004333D01*
X004400Y004333D02*
X001340Y004333D01*
X001340Y007873D01*
X002710Y007873D01*
X002710Y004343D01*
X002710Y007873D02*
X006650Y007873D01*
X006650Y007333D01*
D17*
X013180Y012363D02*
X013180Y013004D01*
X013607Y013004D01*
X013825Y012790D02*
X013825Y012470D01*
X013931Y012363D01*
X014252Y012363D01*
X014252Y012790D01*
X014469Y012790D02*
X014789Y012790D01*
X014896Y012684D01*
X014896Y012470D01*
X014789Y012363D01*
X014469Y012363D01*
X014469Y013004D01*
X015220Y012790D02*
X015434Y012790D01*
X015541Y012684D01*
X015541Y012363D01*
X015220Y012363D01*
X015114Y012470D01*
X015220Y012577D01*
X015541Y012577D01*
X015758Y012577D02*
X015972Y012790D01*
X016078Y012790D01*
X016295Y012790D02*
X016402Y012790D01*
X016402Y012363D01*
X016295Y012363D02*
X016509Y012363D01*
X016725Y012363D02*
X016725Y012790D01*
X017045Y012790D01*
X017152Y012684D01*
X017152Y012363D01*
X017370Y012470D02*
X017476Y012363D01*
X017690Y012363D01*
X017797Y012470D01*
X017797Y012684D01*
X017690Y012790D01*
X017476Y012790D01*
X017370Y012684D01*
X017370Y012470D01*
X016402Y013004D02*
X016402Y013111D01*
X015758Y012790D02*
X015758Y012363D01*
X013394Y012684D02*
X013180Y012684D01*
X018659Y012790D02*
X018765Y012684D01*
X018979Y012684D01*
X019086Y012577D01*
X019086Y012470D01*
X018979Y012363D01*
X018765Y012363D01*
X018659Y012470D01*
X018659Y012790D02*
X018659Y012897D01*
X018765Y013004D01*
X018979Y013004D01*
X019086Y012897D01*
X019303Y013004D02*
X019623Y013004D01*
X019730Y012897D01*
X019730Y012470D01*
X019623Y012363D01*
X019303Y012363D01*
X019303Y013004D01*
X032000Y012333D02*
X032750Y012333D01*
X032752Y012372D01*
X032758Y012411D01*
X032767Y012449D01*
X032780Y012486D01*
X032797Y012522D01*
X032817Y012555D01*
X032841Y012587D01*
X032867Y012616D01*
X032896Y012642D01*
X032928Y012666D01*
X032961Y012686D01*
X032997Y012703D01*
X033034Y012716D01*
X033072Y012725D01*
X033111Y012731D01*
X033150Y012733D01*
X033189Y012731D01*
X033228Y012725D01*
X033266Y012716D01*
X033303Y012703D01*
X033339Y012686D01*
X033372Y012666D01*
X033404Y012642D01*
X033433Y012616D01*
X033459Y012587D01*
X033483Y012555D01*
X033503Y012522D01*
X033520Y012486D01*
X033533Y012449D01*
X033542Y012411D01*
X033548Y012372D01*
X033550Y012333D01*
X034300Y012333D01*
X034300Y020333D01*
X032000Y020333D01*
X032000Y012333D01*
X032000Y011333D02*
X034300Y011333D01*
X034300Y003333D01*
X033550Y003333D01*
X033548Y003372D01*
X033542Y003411D01*
X033533Y003449D01*
X033520Y003486D01*
X033503Y003522D01*
X033483Y003555D01*
X033459Y003587D01*
X033433Y003616D01*
X033404Y003642D01*
X033372Y003666D01*
X033339Y003686D01*
X033303Y003703D01*
X033266Y003716D01*
X033228Y003725D01*
X033189Y003731D01*
X033150Y003733D01*
X033111Y003731D01*
X033072Y003725D01*
X033034Y003716D01*
X032997Y003703D01*
X032961Y003686D01*
X032928Y003666D01*
X032896Y003642D01*
X032867Y003616D01*
X032841Y003587D01*
X032817Y003555D01*
X032797Y003522D01*
X032780Y003486D01*
X032767Y003449D01*
X032758Y003411D01*
X032752Y003372D01*
X032750Y003333D01*
X032000Y003333D01*
X032000Y011333D01*
D18*
X028650Y012583D02*
X028650Y013083D01*
X026400Y018283D02*
X025900Y018283D01*
X025650Y018533D01*
X025650Y019033D01*
X025900Y019283D01*
X025650Y019533D01*
X025650Y020033D01*
X025900Y020283D01*
X025650Y020533D01*
X025650Y021033D01*
X025900Y021283D01*
X026400Y021283D01*
X026650Y021033D01*
X026650Y020533D01*
X026400Y020283D01*
X026650Y020033D01*
X026650Y019533D01*
X026400Y019283D01*
X026650Y019033D01*
X026650Y018533D01*
X026400Y018283D01*
X025650Y018533D02*
X025650Y019033D01*
X025400Y019283D01*
X025650Y019533D01*
X025650Y020033D01*
X025400Y020283D01*
X025650Y020533D01*
X025650Y021033D01*
X025400Y021283D01*
X024900Y021283D01*
X024650Y021033D01*
X024650Y020533D01*
X024900Y020283D01*
X024650Y020033D01*
X024650Y019533D01*
X024900Y019283D01*
X024650Y019033D01*
X024650Y018533D01*
X024900Y018283D01*
X025400Y018283D01*
X025650Y018533D01*
X024650Y018533D02*
X024650Y019033D01*
X024400Y019283D01*
X024650Y019533D01*
X024650Y020033D01*
X024400Y020283D01*
X024650Y020533D01*
X024650Y021033D01*
X024400Y021283D01*
X023900Y021283D01*
X023650Y021033D01*
X023650Y020533D01*
X023400Y020283D01*
X023650Y020033D01*
X023650Y019533D01*
X023400Y019283D01*
X023650Y019033D01*
X023650Y018533D01*
X023400Y018283D01*
X022900Y018283D01*
X022650Y018533D01*
X022650Y019033D01*
X022900Y019283D01*
X022650Y019533D01*
X022650Y020033D01*
X022900Y020283D01*
X022650Y020533D01*
X022650Y021033D01*
X022900Y021283D01*
X023400Y021283D01*
X023650Y021033D01*
X023650Y020533D01*
X023900Y020283D01*
X023650Y020033D01*
X023650Y019533D01*
X023900Y019283D01*
X023650Y019033D01*
X023650Y018533D01*
X023900Y018283D01*
X024400Y018283D01*
X024650Y018533D01*
X022650Y018533D02*
X022650Y019033D01*
X022400Y019283D01*
X022650Y019533D01*
X022650Y020033D01*
X022400Y020283D01*
X022650Y020533D01*
X022650Y021033D01*
X022400Y021283D01*
X021900Y021283D01*
X021650Y021033D01*
X021650Y020533D01*
X021900Y020283D01*
X021650Y020033D01*
X021650Y019533D01*
X021900Y019283D01*
X021650Y019033D01*
X021650Y018533D01*
X021900Y018283D01*
X022400Y018283D01*
X022650Y018533D01*
X021650Y018483D02*
X021400Y018233D01*
X020900Y018233D01*
X020650Y018483D01*
X020650Y018983D01*
X020900Y019233D01*
X021400Y019233D01*
X021650Y018983D01*
X021650Y018483D01*
X020650Y018483D02*
X020400Y018233D01*
X019900Y018233D01*
X019650Y018483D01*
X019650Y018983D01*
X019900Y019233D01*
X020400Y019233D01*
X020650Y018983D01*
X019650Y018983D02*
X019400Y019233D01*
X018900Y019233D01*
X018650Y018983D01*
X018650Y018483D01*
X018400Y018233D01*
X017900Y018233D01*
X017650Y018483D01*
X017650Y018983D01*
X017900Y019233D01*
X018400Y019233D01*
X018650Y018983D01*
X018650Y018483D02*
X018900Y018233D01*
X019400Y018233D01*
X019650Y018483D01*
X017650Y018483D02*
X017400Y018233D01*
X016900Y018233D01*
X016650Y018483D01*
X016650Y018983D01*
X016900Y019233D01*
X017400Y019233D01*
X017650Y018983D01*
X016650Y018983D02*
X016400Y019233D01*
X015900Y019233D01*
X015650Y018983D01*
X015650Y018483D01*
X015900Y018233D01*
X016400Y018233D01*
X016650Y018483D01*
X015650Y018533D02*
X015650Y019033D01*
X015400Y019283D01*
X015650Y019533D01*
X015650Y020033D01*
X015400Y020283D01*
X015650Y020533D01*
X015650Y021033D01*
X015400Y021283D01*
X014900Y021283D01*
X014650Y021033D01*
X014650Y020533D01*
X014900Y020283D01*
X014650Y020033D01*
X014650Y019533D01*
X014900Y019283D01*
X014650Y019033D01*
X014650Y018533D01*
X014900Y018283D01*
X015400Y018283D01*
X015650Y018533D01*
X014650Y018533D02*
X014650Y019033D01*
X014400Y019283D01*
X014650Y019533D01*
X014650Y020033D01*
X014400Y020283D01*
X014650Y020533D01*
X014650Y021033D01*
X014400Y021283D01*
X013900Y021283D01*
X013650Y021033D01*
X013650Y020533D01*
X013900Y020283D01*
X013650Y020033D01*
X013650Y019533D01*
X013900Y019283D01*
X013650Y019033D01*
X013650Y018533D01*
X013900Y018283D01*
X014400Y018283D01*
X014650Y018533D01*
X013650Y018533D02*
X013650Y019033D01*
X013400Y019283D01*
X013650Y019533D01*
X013650Y020033D01*
X013400Y020283D01*
X013650Y020533D01*
X013650Y021033D01*
X013400Y021283D01*
X012900Y021283D01*
X012650Y021033D01*
X012650Y020533D01*
X012900Y020283D01*
X012650Y020033D01*
X012650Y019533D01*
X012900Y019283D01*
X012650Y019033D01*
X012650Y018533D01*
X012900Y018283D01*
X013400Y018283D01*
X013650Y018533D01*
X012650Y018533D02*
X012650Y019033D01*
X012400Y019283D01*
X012650Y019533D01*
X012650Y020033D01*
X012400Y020283D01*
X012650Y020533D01*
X012650Y021033D01*
X012400Y021283D01*
X011900Y021283D01*
X011650Y021033D01*
X011650Y020533D01*
X011400Y020283D01*
X011650Y020033D01*
X011650Y019533D01*
X011400Y019283D01*
X011650Y019033D01*
X011650Y018533D01*
X011400Y018283D01*
X010900Y018283D01*
X010650Y018533D01*
X010650Y019033D01*
X010900Y019283D01*
X010650Y019533D01*
X010650Y020033D01*
X010900Y020283D01*
X010650Y020533D01*
X010650Y021033D01*
X010900Y021283D01*
X011400Y021283D01*
X011650Y021033D01*
X011650Y020533D01*
X011900Y020283D01*
X011650Y020033D01*
X011650Y019533D01*
X011900Y019283D01*
X011650Y019033D01*
X011650Y018533D01*
X011900Y018283D01*
X012400Y018283D01*
X012650Y018533D01*
X010650Y018533D02*
X010650Y019033D01*
X010400Y019283D01*
X010650Y019533D01*
X010650Y020033D01*
X010400Y020283D01*
X010650Y020533D01*
X010650Y021033D01*
X010400Y021283D01*
X009900Y021283D01*
X009650Y021033D01*
X009650Y020533D01*
X009900Y020283D01*
X009650Y020033D01*
X009650Y019533D01*
X009900Y019283D01*
X009650Y019033D01*
X009650Y018533D01*
X009900Y018283D01*
X010400Y018283D01*
X010650Y018533D01*
X009650Y018533D02*
X009650Y019033D01*
X009400Y019283D01*
X009650Y019533D01*
X009650Y020033D01*
X009400Y020283D01*
X009650Y020533D01*
X009650Y021033D01*
X009400Y021283D01*
X008900Y021283D01*
X008650Y021033D01*
X008650Y020533D01*
X008900Y020283D01*
X008650Y020033D01*
X008650Y019533D01*
X008900Y019283D01*
X008650Y019033D01*
X008650Y018533D01*
X008900Y018283D01*
X009400Y018283D01*
X009650Y018533D01*
X008650Y018533D02*
X008650Y019033D01*
X008400Y019283D01*
X008650Y019533D01*
X008650Y020033D01*
X008400Y020283D01*
X008650Y020533D01*
X008650Y021033D01*
X008400Y021283D01*
X007900Y021283D01*
X007650Y021033D01*
X007650Y020533D01*
X007900Y020283D01*
X007650Y020033D01*
X007650Y019533D01*
X007900Y019283D01*
X007650Y019033D01*
X007650Y018533D01*
X007900Y018283D01*
X008400Y018283D01*
X008650Y018533D01*
X007650Y018533D02*
X007650Y019033D01*
X007400Y019283D01*
X007650Y019533D01*
X007650Y020033D01*
X007400Y020283D01*
X007650Y020533D01*
X007650Y021033D01*
X007400Y021283D01*
X006900Y021283D01*
X006650Y021033D01*
X006650Y020533D01*
X006900Y020283D01*
X006650Y020033D01*
X006650Y019533D01*
X006900Y019283D01*
X006650Y019033D01*
X006650Y018533D01*
X006900Y018283D01*
X007400Y018283D01*
X007650Y018533D01*
X006650Y018533D02*
X006650Y019033D01*
X006400Y019283D01*
X006650Y019533D01*
X006650Y020033D01*
X006400Y020283D01*
X006650Y020533D01*
X006650Y021033D01*
X006400Y021283D01*
X005900Y021283D01*
X005650Y021033D01*
X005650Y020533D01*
X005900Y020283D01*
X005650Y020033D01*
X005650Y019533D01*
X005900Y019283D01*
X005650Y019033D01*
X005650Y018533D01*
X005900Y018283D01*
X006400Y018283D01*
X006650Y018533D01*
X012900Y007333D02*
X012650Y007083D01*
X012650Y006583D01*
X012900Y006333D01*
X012650Y006083D01*
X012650Y005583D01*
X012900Y005333D01*
X012650Y005083D01*
X012650Y004583D01*
X012900Y004333D01*
X013400Y004333D01*
X013650Y004583D01*
X013650Y005083D01*
X013400Y005333D01*
X013650Y005583D01*
X013650Y006083D01*
X013400Y006333D01*
X013650Y006583D01*
X013650Y007083D01*
X013400Y007333D01*
X012900Y007333D01*
X012150Y006833D02*
X012150Y006583D01*
X008150Y006583D01*
X008150Y006833D01*
X012150Y006833D01*
X012150Y006583D02*
X012150Y005083D01*
X008150Y005083D01*
X008150Y006583D01*
X006961Y004572D02*
X006961Y002131D01*
X009717Y002131D01*
X009717Y001816D01*
X006961Y001816D01*
X006961Y002131D01*
X006961Y004572D02*
X009717Y004572D01*
X009717Y002131D01*
X010650Y002383D02*
X010650Y002883D01*
X009870Y003133D02*
X009872Y003204D01*
X009878Y003275D01*
X009888Y003346D01*
X009902Y003415D01*
X009919Y003484D01*
X009941Y003552D01*
X009966Y003619D01*
X009995Y003684D01*
X010027Y003747D01*
X010063Y003809D01*
X010102Y003868D01*
X010145Y003925D01*
X010190Y003980D01*
X010239Y004032D01*
X010290Y004081D01*
X010344Y004127D01*
X010401Y004171D01*
X010459Y004211D01*
X010520Y004247D01*
X010583Y004281D01*
X010648Y004310D01*
X010714Y004336D01*
X010782Y004359D01*
X010850Y004377D01*
X010920Y004392D01*
X010990Y004403D01*
X011061Y004410D01*
X011132Y004413D01*
X011203Y004412D01*
X011274Y004407D01*
X011345Y004398D01*
X011415Y004385D01*
X011484Y004369D01*
X011552Y004348D01*
X011619Y004324D01*
X011685Y004296D01*
X011748Y004264D01*
X011810Y004229D01*
X011870Y004191D01*
X011928Y004149D01*
X011983Y004105D01*
X012036Y004057D01*
X012086Y004006D01*
X012133Y003953D01*
X012177Y003897D01*
X012218Y003839D01*
X012256Y003778D01*
X012290Y003716D01*
X012320Y003651D01*
X012347Y003586D01*
X012371Y003518D01*
X012390Y003450D01*
X012406Y003381D01*
X012418Y003310D01*
X012426Y003240D01*
X012430Y003169D01*
X012430Y003097D01*
X012426Y003026D01*
X012418Y002956D01*
X012406Y002885D01*
X012390Y002816D01*
X012371Y002748D01*
X012347Y002680D01*
X012320Y002615D01*
X012290Y002550D01*
X012256Y002488D01*
X012218Y002427D01*
X012177Y002369D01*
X012133Y002313D01*
X012086Y002260D01*
X012036Y002209D01*
X011983Y002161D01*
X011928Y002117D01*
X011870Y002075D01*
X011810Y002037D01*
X011748Y002002D01*
X011685Y001970D01*
X011619Y001942D01*
X011552Y001918D01*
X011484Y001897D01*
X011415Y001881D01*
X011345Y001868D01*
X011274Y001859D01*
X011203Y001854D01*
X011132Y001853D01*
X011061Y001856D01*
X010990Y001863D01*
X010920Y001874D01*
X010850Y001889D01*
X010782Y001907D01*
X010714Y001930D01*
X010648Y001956D01*
X010583Y001985D01*
X010520Y002019D01*
X010459Y002055D01*
X010401Y002095D01*
X010344Y002139D01*
X010290Y002185D01*
X010239Y002234D01*
X010190Y002286D01*
X010145Y002341D01*
X010102Y002398D01*
X010063Y002457D01*
X010027Y002519D01*
X009995Y002582D01*
X009966Y002647D01*
X009941Y002714D01*
X009919Y002782D01*
X009902Y002851D01*
X009888Y002920D01*
X009878Y002991D01*
X009872Y003062D01*
X009870Y003133D01*
X013650Y002883D02*
X013650Y002383D01*
X012870Y003133D02*
X012872Y003204D01*
X012878Y003275D01*
X012888Y003346D01*
X012902Y003415D01*
X012919Y003484D01*
X012941Y003552D01*
X012966Y003619D01*
X012995Y003684D01*
X013027Y003747D01*
X013063Y003809D01*
X013102Y003868D01*
X013145Y003925D01*
X013190Y003980D01*
X013239Y004032D01*
X013290Y004081D01*
X013344Y004127D01*
X013401Y004171D01*
X013459Y004211D01*
X013520Y004247D01*
X013583Y004281D01*
X013648Y004310D01*
X013714Y004336D01*
X013782Y004359D01*
X013850Y004377D01*
X013920Y004392D01*
X013990Y004403D01*
X014061Y004410D01*
X014132Y004413D01*
X014203Y004412D01*
X014274Y004407D01*
X014345Y004398D01*
X014415Y004385D01*
X014484Y004369D01*
X014552Y004348D01*
X014619Y004324D01*
X014685Y004296D01*
X014748Y004264D01*
X014810Y004229D01*
X014870Y004191D01*
X014928Y004149D01*
X014983Y004105D01*
X015036Y004057D01*
X015086Y004006D01*
X015133Y003953D01*
X015177Y003897D01*
X015218Y003839D01*
X015256Y003778D01*
X015290Y003716D01*
X015320Y003651D01*
X015347Y003586D01*
X015371Y003518D01*
X015390Y003450D01*
X015406Y003381D01*
X015418Y003310D01*
X015426Y003240D01*
X015430Y003169D01*
X015430Y003097D01*
X015426Y003026D01*
X015418Y002956D01*
X015406Y002885D01*
X015390Y002816D01*
X015371Y002748D01*
X015347Y002680D01*
X015320Y002615D01*
X015290Y002550D01*
X015256Y002488D01*
X015218Y002427D01*
X015177Y002369D01*
X015133Y002313D01*
X015086Y002260D01*
X015036Y002209D01*
X014983Y002161D01*
X014928Y002117D01*
X014870Y002075D01*
X014810Y002037D01*
X014748Y002002D01*
X014685Y001970D01*
X014619Y001942D01*
X014552Y001918D01*
X014484Y001897D01*
X014415Y001881D01*
X014345Y001868D01*
X014274Y001859D01*
X014203Y001854D01*
X014132Y001853D01*
X014061Y001856D01*
X013990Y001863D01*
X013920Y001874D01*
X013850Y001889D01*
X013782Y001907D01*
X013714Y001930D01*
X013648Y001956D01*
X013583Y001985D01*
X013520Y002019D01*
X013459Y002055D01*
X013401Y002095D01*
X013344Y002139D01*
X013290Y002185D01*
X013239Y002234D01*
X013190Y002286D01*
X013145Y002341D01*
X013102Y002398D01*
X013063Y002457D01*
X013027Y002519D01*
X012995Y002582D01*
X012966Y002647D01*
X012941Y002714D01*
X012919Y002782D01*
X012902Y002851D01*
X012888Y002920D01*
X012878Y002991D01*
X012872Y003062D01*
X012870Y003133D01*
X015900Y002833D02*
X016400Y002833D01*
X016650Y002633D02*
X016650Y002133D01*
X016900Y001883D01*
X017400Y001883D01*
X017650Y002133D01*
X017650Y002633D01*
X017900Y002883D01*
X017650Y003133D01*
X017650Y003633D01*
X017900Y003883D01*
X017650Y004133D01*
X017650Y004633D01*
X017900Y004883D01*
X018400Y004883D01*
X018650Y004633D01*
X018650Y004133D01*
X018900Y003883D01*
X018650Y003633D01*
X018650Y003133D01*
X018900Y002883D01*
X018650Y002633D01*
X018650Y002133D01*
X018900Y001883D01*
X019400Y001883D01*
X019650Y002133D01*
X019650Y002633D01*
X019900Y002883D01*
X019650Y003133D01*
X019650Y003633D01*
X019900Y003883D01*
X019650Y004133D01*
X019650Y004633D01*
X019900Y004883D01*
X020400Y004883D01*
X020650Y004633D01*
X020650Y004133D01*
X020900Y003883D01*
X020650Y003633D01*
X020650Y003133D01*
X020900Y002883D01*
X020650Y002633D01*
X020650Y002133D01*
X020900Y001883D01*
X021400Y001883D01*
X021650Y002133D01*
X021650Y002633D01*
X021400Y002883D01*
X021650Y003133D01*
X021650Y003633D01*
X021400Y003883D01*
X021650Y004133D01*
X021650Y004633D01*
X021400Y004883D01*
X020900Y004883D01*
X020650Y004633D01*
X020650Y004133D01*
X020400Y003883D01*
X020650Y003633D01*
X020650Y003133D01*
X020400Y002883D01*
X020650Y002633D01*
X020650Y002133D01*
X020400Y001883D01*
X019900Y001883D01*
X019650Y002133D01*
X019650Y002633D01*
X019400Y002883D01*
X019650Y003133D01*
X019650Y003633D01*
X019400Y003883D01*
X019650Y004133D01*
X019650Y004633D01*
X019400Y004883D01*
X018900Y004883D01*
X018650Y004633D01*
X018650Y004133D01*
X018400Y003883D01*
X018650Y003633D01*
X018650Y003133D01*
X018400Y002883D01*
X018650Y002633D01*
X018650Y002133D01*
X018400Y001883D01*
X017900Y001883D01*
X017650Y002133D01*
X017650Y002633D01*
X017400Y002883D01*
X017650Y003133D01*
X017650Y003633D01*
X017400Y003883D01*
X017650Y004133D01*
X017650Y004633D01*
X017400Y004883D01*
X016900Y004883D01*
X016650Y004633D01*
X016650Y004133D01*
X016900Y003883D01*
X016650Y003633D01*
X016650Y003133D01*
X016900Y002883D01*
X016650Y002633D01*
X021650Y002633D02*
X021650Y002133D01*
X021900Y001883D01*
X022400Y001883D01*
X022650Y002133D01*
X022650Y002633D01*
X022900Y002883D01*
X022650Y003133D01*
X022650Y003633D01*
X022900Y003883D01*
X022650Y004133D01*
X022650Y004633D01*
X022900Y004883D01*
X023400Y004883D01*
X023650Y004633D01*
X023650Y004133D01*
X023900Y003883D01*
X023650Y003633D01*
X023650Y003133D01*
X023900Y002883D01*
X023650Y002633D01*
X023650Y002133D01*
X023900Y001883D01*
X024400Y001883D01*
X024650Y002133D01*
X024650Y002633D01*
X024900Y002883D01*
X024650Y003133D01*
X024650Y003633D01*
X024900Y003883D01*
X024650Y004133D01*
X024650Y004633D01*
X024900Y004883D01*
X025400Y004883D01*
X025650Y004633D01*
X025650Y004133D01*
X025900Y003883D01*
X025650Y003633D01*
X025650Y003133D01*
X025900Y002883D01*
X025650Y002633D01*
X025650Y002133D01*
X025900Y001883D01*
X026400Y001883D01*
X026650Y002133D01*
X026650Y002633D01*
X026900Y002883D01*
X026650Y003133D01*
X026650Y003633D01*
X026900Y003883D01*
X026650Y004133D01*
X026650Y004633D01*
X026900Y004883D01*
X027400Y004883D01*
X027650Y004633D01*
X027650Y004133D01*
X027900Y003883D01*
X027650Y003633D01*
X027650Y003133D01*
X027900Y002883D01*
X027650Y002633D01*
X027650Y002133D01*
X027900Y001883D01*
X028400Y001883D01*
X028650Y002133D01*
X028650Y002633D01*
X028400Y002883D01*
X028650Y003133D01*
X028650Y003633D01*
X028400Y003883D01*
X028650Y004133D01*
X028650Y004633D01*
X028400Y004883D01*
X027900Y004883D01*
X027650Y004633D01*
X027650Y004133D01*
X027400Y003883D01*
X027650Y003633D01*
X027650Y003133D01*
X027400Y002883D01*
X027650Y002633D01*
X027650Y002133D01*
X027400Y001883D01*
X026900Y001883D01*
X026650Y002133D01*
X026650Y002633D01*
X026400Y002883D01*
X026650Y003133D01*
X026650Y003633D01*
X026400Y003883D01*
X026650Y004133D01*
X026650Y004633D01*
X026400Y004883D01*
X025900Y004883D01*
X025650Y004633D01*
X025650Y004133D01*
X025400Y003883D01*
X025650Y003633D01*
X025650Y003133D01*
X025400Y002883D01*
X025650Y002633D01*
X025650Y002133D01*
X025400Y001883D01*
X024900Y001883D01*
X024650Y002133D01*
X024650Y002633D01*
X024400Y002883D01*
X024650Y003133D01*
X024650Y003633D01*
X024400Y003883D01*
X024650Y004133D01*
X024650Y004633D01*
X024400Y004883D01*
X023900Y004883D01*
X023650Y004633D01*
X023650Y004133D01*
X023400Y003883D01*
X023650Y003633D01*
X023650Y003133D01*
X023400Y002883D01*
X023650Y002633D01*
X023650Y002133D01*
X023400Y001883D01*
X022900Y001883D01*
X022650Y002133D01*
X022650Y002633D01*
X022400Y002883D01*
X022650Y003133D01*
X022650Y003633D01*
X022400Y003883D01*
X022650Y004133D01*
X022650Y004633D01*
X022400Y004883D01*
X021900Y004883D01*
X021650Y004633D01*
X021650Y004133D01*
X021900Y003883D01*
X021650Y003633D01*
X021650Y003133D01*
X021900Y002883D01*
X021650Y002633D01*
X030150Y003083D02*
X030400Y002833D01*
X030900Y002833D01*
X031150Y003083D01*
X031150Y003583D01*
X030900Y003833D01*
X030400Y003833D01*
X030150Y003583D01*
X030150Y003083D01*
X033150Y003083D02*
X033150Y002583D01*
X035650Y003083D02*
X035900Y002833D01*
X036400Y002833D01*
X036650Y003083D01*
X036650Y003583D01*
X036400Y003833D01*
X035900Y003833D01*
X035650Y003583D01*
X035650Y003083D01*
X037150Y003283D02*
X037150Y002833D01*
X037700Y002833D01*
X037700Y003083D01*
X037600Y003083D01*
X037600Y002883D01*
X037700Y002833D02*
X038150Y002833D01*
X038150Y003283D01*
X037650Y003283D01*
X037400Y003533D01*
X037150Y003283D01*
X037150Y003583D01*
X038100Y003583D01*
X038100Y003733D01*
X038150Y003733D01*
X038150Y003283D01*
X037150Y004583D02*
X037150Y005083D01*
X037150Y006083D02*
X037150Y006583D01*
X037150Y007583D02*
X037150Y008083D01*
X037150Y009083D02*
X037150Y009583D01*
X036150Y010583D02*
X036150Y011083D01*
X035370Y011333D02*
X035372Y011404D01*
X035378Y011475D01*
X035388Y011546D01*
X035402Y011615D01*
X035419Y011684D01*
X035441Y011752D01*
X035466Y011819D01*
X035495Y011884D01*
X035527Y011947D01*
X035563Y012009D01*
X035602Y012068D01*
X035645Y012125D01*
X035690Y012180D01*
X035739Y012232D01*
X035790Y012281D01*
X035844Y012327D01*
X035901Y012371D01*
X035959Y012411D01*
X036020Y012447D01*
X036083Y012481D01*
X036148Y012510D01*
X036214Y012536D01*
X036282Y012559D01*
X036350Y012577D01*
X036420Y012592D01*
X036490Y012603D01*
X036561Y012610D01*
X036632Y012613D01*
X036703Y012612D01*
X036774Y012607D01*
X036845Y012598D01*
X036915Y012585D01*
X036984Y012569D01*
X037052Y012548D01*
X037119Y012524D01*
X037185Y012496D01*
X037248Y012464D01*
X037310Y012429D01*
X037370Y012391D01*
X037428Y012349D01*
X037483Y012305D01*
X037536Y012257D01*
X037586Y012206D01*
X037633Y012153D01*
X037677Y012097D01*
X037718Y012039D01*
X037756Y011978D01*
X037790Y011916D01*
X037820Y011851D01*
X037847Y011786D01*
X037871Y011718D01*
X037890Y011650D01*
X037906Y011581D01*
X037918Y011510D01*
X037926Y011440D01*
X037930Y011369D01*
X037930Y011297D01*
X037926Y011226D01*
X037918Y011156D01*
X037906Y011085D01*
X037890Y011016D01*
X037871Y010948D01*
X037847Y010880D01*
X037820Y010815D01*
X037790Y010750D01*
X037756Y010688D01*
X037718Y010627D01*
X037677Y010569D01*
X037633Y010513D01*
X037586Y010460D01*
X037536Y010409D01*
X037483Y010361D01*
X037428Y010317D01*
X037370Y010275D01*
X037310Y010237D01*
X037248Y010202D01*
X037185Y010170D01*
X037119Y010142D01*
X037052Y010118D01*
X036984Y010097D01*
X036915Y010081D01*
X036845Y010068D01*
X036774Y010059D01*
X036703Y010054D01*
X036632Y010053D01*
X036561Y010056D01*
X036490Y010063D01*
X036420Y010074D01*
X036350Y010089D01*
X036282Y010107D01*
X036214Y010130D01*
X036148Y010156D01*
X036083Y010185D01*
X036020Y010219D01*
X035959Y010255D01*
X035901Y010295D01*
X035844Y010339D01*
X035790Y010385D01*
X035739Y010434D01*
X035690Y010486D01*
X035645Y010541D01*
X035602Y010598D01*
X035563Y010657D01*
X035527Y010719D01*
X035495Y010782D01*
X035466Y010847D01*
X035441Y010914D01*
X035419Y010982D01*
X035402Y011051D01*
X035388Y011120D01*
X035378Y011191D01*
X035372Y011262D01*
X035370Y011333D01*
X037150Y013083D02*
X037150Y013583D01*
X037150Y014583D02*
X037150Y015083D01*
X037150Y016083D02*
X037150Y016583D01*
X037150Y017583D02*
X037150Y018083D01*
X038311Y018373D02*
X040752Y018373D01*
X040752Y012428D01*
X038311Y012428D01*
X038311Y018373D01*
X035370Y019833D02*
X035372Y019904D01*
X035378Y019975D01*
X035388Y020046D01*
X035402Y020115D01*
X035419Y020184D01*
X035441Y020252D01*
X035466Y020319D01*
X035495Y020384D01*
X035527Y020447D01*
X035563Y020509D01*
X035602Y020568D01*
X035645Y020625D01*
X035690Y020680D01*
X035739Y020732D01*
X035790Y020781D01*
X035844Y020827D01*
X035901Y020871D01*
X035959Y020911D01*
X036020Y020947D01*
X036083Y020981D01*
X036148Y021010D01*
X036214Y021036D01*
X036282Y021059D01*
X036350Y021077D01*
X036420Y021092D01*
X036490Y021103D01*
X036561Y021110D01*
X036632Y021113D01*
X036703Y021112D01*
X036774Y021107D01*
X036845Y021098D01*
X036915Y021085D01*
X036984Y021069D01*
X037052Y021048D01*
X037119Y021024D01*
X037185Y020996D01*
X037248Y020964D01*
X037310Y020929D01*
X037370Y020891D01*
X037428Y020849D01*
X037483Y020805D01*
X037536Y020757D01*
X037586Y020706D01*
X037633Y020653D01*
X037677Y020597D01*
X037718Y020539D01*
X037756Y020478D01*
X037790Y020416D01*
X037820Y020351D01*
X037847Y020286D01*
X037871Y020218D01*
X037890Y020150D01*
X037906Y020081D01*
X037918Y020010D01*
X037926Y019940D01*
X037930Y019869D01*
X037930Y019797D01*
X037926Y019726D01*
X037918Y019656D01*
X037906Y019585D01*
X037890Y019516D01*
X037871Y019448D01*
X037847Y019380D01*
X037820Y019315D01*
X037790Y019250D01*
X037756Y019188D01*
X037718Y019127D01*
X037677Y019069D01*
X037633Y019013D01*
X037586Y018960D01*
X037536Y018909D01*
X037483Y018861D01*
X037428Y018817D01*
X037370Y018775D01*
X037310Y018737D01*
X037248Y018702D01*
X037185Y018670D01*
X037119Y018642D01*
X037052Y018618D01*
X036984Y018597D01*
X036915Y018581D01*
X036845Y018568D01*
X036774Y018559D01*
X036703Y018554D01*
X036632Y018553D01*
X036561Y018556D01*
X036490Y018563D01*
X036420Y018574D01*
X036350Y018589D01*
X036282Y018607D01*
X036214Y018630D01*
X036148Y018656D01*
X036083Y018685D01*
X036020Y018719D01*
X035959Y018755D01*
X035901Y018795D01*
X035844Y018839D01*
X035790Y018885D01*
X035739Y018934D01*
X035690Y018986D01*
X035645Y019041D01*
X035602Y019098D01*
X035563Y019157D01*
X035527Y019219D01*
X035495Y019282D01*
X035466Y019347D01*
X035441Y019414D01*
X035419Y019482D01*
X035402Y019551D01*
X035388Y019620D01*
X035378Y019691D01*
X035372Y019762D01*
X035370Y019833D01*
X036150Y019583D02*
X036150Y019083D01*
X040752Y018373D02*
X041067Y018373D01*
X041067Y012428D01*
X040752Y012428D01*
X040752Y010873D02*
X040752Y004928D01*
X038311Y004928D01*
X038311Y010873D01*
X040752Y010873D01*
X041067Y010873D01*
X041067Y004928D01*
X040752Y004928D01*
X027400Y020283D02*
X026900Y020283D01*
D19*
X028673Y019953D02*
X028673Y019713D01*
X028991Y019681D01*
X029025Y019574D01*
X029076Y019475D01*
X028874Y019227D01*
X029044Y019058D01*
X029291Y019259D01*
X029391Y019208D01*
X029532Y019549D01*
X029479Y019578D01*
X029432Y019616D01*
X029394Y019662D01*
X029366Y019716D01*
X029348Y019773D01*
X029342Y019833D01*
X029349Y019896D01*
X029368Y019956D01*
X029399Y020011D01*
X029441Y020059D01*
X029491Y020097D01*
X029548Y020124D01*
X029610Y020138D01*
X029673Y020140D01*
X029735Y020129D01*
X029794Y020105D01*
X029846Y020070D01*
X029890Y020025D01*
X029925Y019972D01*
X029947Y019913D01*
X029957Y019851D01*
X029954Y019787D01*
X029938Y019726D01*
X029910Y019670D01*
X029872Y019620D01*
X029823Y019579D01*
X029768Y019549D01*
X029909Y019208D01*
X030009Y019259D01*
X030256Y019058D01*
X030426Y019227D01*
X030224Y019475D01*
X030275Y019574D01*
X030309Y019681D01*
X030627Y019713D01*
X030627Y019953D01*
X030309Y019986D01*
X030275Y020092D01*
X030224Y020192D01*
X030426Y020439D01*
X030256Y020609D01*
X030009Y020407D01*
X029909Y020459D01*
X029802Y020493D01*
X029770Y020810D01*
X029530Y020810D01*
X029498Y020493D01*
X029391Y020459D01*
X029291Y020407D01*
X029044Y020609D01*
X028874Y020439D01*
X029076Y020192D01*
X029025Y020092D01*
X028991Y019986D01*
X028673Y019953D01*
X028673Y019906D02*
X029352Y019906D01*
X029344Y019848D02*
X028673Y019848D01*
X028673Y019791D02*
X029347Y019791D01*
X029361Y019733D02*
X028673Y019733D01*
X028771Y019963D02*
X029372Y019963D01*
X029407Y020021D02*
X029002Y020021D01*
X029020Y020078D02*
X029467Y020078D01*
X029600Y020136D02*
X029047Y020136D01*
X029075Y020193D02*
X030225Y020193D01*
X030253Y020136D02*
X029696Y020136D01*
X029834Y020078D02*
X030280Y020078D01*
X030298Y020021D02*
X029893Y020021D01*
X029928Y019963D02*
X030529Y019963D01*
X030627Y019906D02*
X029948Y019906D01*
X029957Y019848D02*
X030627Y019848D01*
X030627Y019791D02*
X029954Y019791D01*
X029940Y019733D02*
X030627Y019733D01*
X030308Y019675D02*
X029913Y019675D01*
X029869Y019618D02*
X030289Y019618D01*
X030268Y019560D02*
X029788Y019560D01*
X029787Y019503D02*
X030238Y019503D01*
X030248Y019445D02*
X029811Y019445D01*
X029835Y019388D02*
X030295Y019388D01*
X030342Y019330D02*
X029858Y019330D01*
X029882Y019273D02*
X030389Y019273D01*
X030413Y019215D02*
X030063Y019215D01*
X030134Y019157D02*
X030356Y019157D01*
X030298Y019100D02*
X030204Y019100D01*
X029922Y019215D02*
X029906Y019215D01*
X029465Y019388D02*
X029005Y019388D01*
X029052Y019445D02*
X029489Y019445D01*
X029513Y019503D02*
X029062Y019503D01*
X029032Y019560D02*
X029511Y019560D01*
X029431Y019618D02*
X029011Y019618D01*
X028992Y019675D02*
X029387Y019675D01*
X029442Y019330D02*
X028958Y019330D01*
X028911Y019273D02*
X029418Y019273D01*
X029394Y019215D02*
X029378Y019215D01*
X029237Y019215D02*
X028887Y019215D01*
X028944Y019157D02*
X029166Y019157D01*
X029096Y019100D02*
X029002Y019100D01*
X029028Y020251D02*
X030272Y020251D01*
X030319Y020309D02*
X028981Y020309D01*
X028934Y020366D02*
X030366Y020366D01*
X030413Y020424D02*
X030029Y020424D01*
X029976Y020424D02*
X029324Y020424D01*
X029271Y020424D02*
X028887Y020424D01*
X028916Y020481D02*
X029201Y020481D01*
X029130Y020539D02*
X028974Y020539D01*
X029031Y020596D02*
X029059Y020596D01*
X029462Y020481D02*
X029838Y020481D01*
X029798Y020539D02*
X029502Y020539D01*
X029508Y020596D02*
X029792Y020596D01*
X029786Y020654D02*
X029514Y020654D01*
X029520Y020711D02*
X029780Y020711D01*
X029774Y020769D02*
X029526Y020769D01*
X030099Y020481D02*
X030384Y020481D01*
X030326Y020539D02*
X030170Y020539D01*
X030241Y020596D02*
X030269Y020596D01*
M02*
