G75*
G70*
%OFA0B0*%
%FSLAX24Y24*%
%IPPOS*%
%LPD*%
%AMOC8*
5,1,8,0,0,1.08239X$1,22.5*
%
%ADD10C,0.0100*%
%ADD11C,0.0000*%
%ADD12C,0.1300*%
%ADD13OC8,0.1940*%
%ADD14R,0.1940X0.1940*%
%ADD15C,0.0740*%
%ADD16R,0.0780X0.0780*%
%ADD17C,0.0780*%
%ADD18C,0.0690*%
%ADD19R,0.0690X0.0690*%
%ADD20C,0.0560*%
%ADD21R,0.0840X0.0840*%
%ADD22C,0.0840*%
D10*
X001650Y001833D02*
X001650Y021333D01*
X041150Y021333D01*
X041150Y001833D01*
X001650Y001833D01*
D11*
X002626Y003402D02*
X002628Y003452D01*
X002634Y003502D01*
X002644Y003551D01*
X002658Y003599D01*
X002675Y003646D01*
X002696Y003691D01*
X002721Y003735D01*
X002749Y003776D01*
X002781Y003815D01*
X002815Y003852D01*
X002852Y003886D01*
X002892Y003916D01*
X002934Y003943D01*
X002978Y003967D01*
X003024Y003988D01*
X003071Y004004D01*
X003119Y004017D01*
X003169Y004026D01*
X003218Y004031D01*
X003269Y004032D01*
X003319Y004029D01*
X003368Y004022D01*
X003417Y004011D01*
X003465Y003996D01*
X003511Y003978D01*
X003556Y003956D01*
X003599Y003930D01*
X003640Y003901D01*
X003679Y003869D01*
X003715Y003834D01*
X003747Y003796D01*
X003777Y003756D01*
X003804Y003713D01*
X003827Y003669D01*
X003846Y003623D01*
X003862Y003575D01*
X003874Y003526D01*
X003882Y003477D01*
X003886Y003427D01*
X003886Y003377D01*
X003882Y003327D01*
X003874Y003278D01*
X003862Y003229D01*
X003846Y003181D01*
X003827Y003135D01*
X003804Y003091D01*
X003777Y003048D01*
X003747Y003008D01*
X003715Y002970D01*
X003679Y002935D01*
X003640Y002903D01*
X003599Y002874D01*
X003556Y002848D01*
X003511Y002826D01*
X003465Y002808D01*
X003417Y002793D01*
X003368Y002782D01*
X003319Y002775D01*
X003269Y002772D01*
X003218Y002773D01*
X003169Y002778D01*
X003119Y002787D01*
X003071Y002800D01*
X003024Y002816D01*
X002978Y002837D01*
X002934Y002861D01*
X002892Y002888D01*
X002852Y002918D01*
X002815Y002952D01*
X002781Y002989D01*
X002749Y003028D01*
X002721Y003069D01*
X002696Y003113D01*
X002675Y003158D01*
X002658Y003205D01*
X002644Y003253D01*
X002634Y003302D01*
X002628Y003352D01*
X002626Y003402D01*
X002520Y019833D02*
X002522Y019883D01*
X002528Y019933D01*
X002538Y019982D01*
X002552Y020030D01*
X002569Y020077D01*
X002590Y020122D01*
X002615Y020166D01*
X002643Y020207D01*
X002675Y020246D01*
X002709Y020283D01*
X002746Y020317D01*
X002786Y020347D01*
X002828Y020374D01*
X002872Y020398D01*
X002918Y020419D01*
X002965Y020435D01*
X003013Y020448D01*
X003063Y020457D01*
X003112Y020462D01*
X003163Y020463D01*
X003213Y020460D01*
X003262Y020453D01*
X003311Y020442D01*
X003359Y020427D01*
X003405Y020409D01*
X003450Y020387D01*
X003493Y020361D01*
X003534Y020332D01*
X003573Y020300D01*
X003609Y020265D01*
X003641Y020227D01*
X003671Y020187D01*
X003698Y020144D01*
X003721Y020100D01*
X003740Y020054D01*
X003756Y020006D01*
X003768Y019957D01*
X003776Y019908D01*
X003780Y019858D01*
X003780Y019808D01*
X003776Y019758D01*
X003768Y019709D01*
X003756Y019660D01*
X003740Y019612D01*
X003721Y019566D01*
X003698Y019522D01*
X003671Y019479D01*
X003641Y019439D01*
X003609Y019401D01*
X003573Y019366D01*
X003534Y019334D01*
X003493Y019305D01*
X003450Y019279D01*
X003405Y019257D01*
X003359Y019239D01*
X003311Y019224D01*
X003262Y019213D01*
X003213Y019206D01*
X003163Y019203D01*
X003112Y019204D01*
X003063Y019209D01*
X003013Y019218D01*
X002965Y019231D01*
X002918Y019247D01*
X002872Y019268D01*
X002828Y019292D01*
X002786Y019319D01*
X002746Y019349D01*
X002709Y019383D01*
X002675Y019420D01*
X002643Y019459D01*
X002615Y019500D01*
X002590Y019544D01*
X002569Y019589D01*
X002552Y019636D01*
X002538Y019684D01*
X002528Y019733D01*
X002522Y019783D01*
X002520Y019833D01*
X039020Y019833D02*
X039022Y019883D01*
X039028Y019933D01*
X039038Y019982D01*
X039052Y020030D01*
X039069Y020077D01*
X039090Y020122D01*
X039115Y020166D01*
X039143Y020207D01*
X039175Y020246D01*
X039209Y020283D01*
X039246Y020317D01*
X039286Y020347D01*
X039328Y020374D01*
X039372Y020398D01*
X039418Y020419D01*
X039465Y020435D01*
X039513Y020448D01*
X039563Y020457D01*
X039612Y020462D01*
X039663Y020463D01*
X039713Y020460D01*
X039762Y020453D01*
X039811Y020442D01*
X039859Y020427D01*
X039905Y020409D01*
X039950Y020387D01*
X039993Y020361D01*
X040034Y020332D01*
X040073Y020300D01*
X040109Y020265D01*
X040141Y020227D01*
X040171Y020187D01*
X040198Y020144D01*
X040221Y020100D01*
X040240Y020054D01*
X040256Y020006D01*
X040268Y019957D01*
X040276Y019908D01*
X040280Y019858D01*
X040280Y019808D01*
X040276Y019758D01*
X040268Y019709D01*
X040256Y019660D01*
X040240Y019612D01*
X040221Y019566D01*
X040198Y019522D01*
X040171Y019479D01*
X040141Y019439D01*
X040109Y019401D01*
X040073Y019366D01*
X040034Y019334D01*
X039993Y019305D01*
X039950Y019279D01*
X039905Y019257D01*
X039859Y019239D01*
X039811Y019224D01*
X039762Y019213D01*
X039713Y019206D01*
X039663Y019203D01*
X039612Y019204D01*
X039563Y019209D01*
X039513Y019218D01*
X039465Y019231D01*
X039418Y019247D01*
X039372Y019268D01*
X039328Y019292D01*
X039286Y019319D01*
X039246Y019349D01*
X039209Y019383D01*
X039175Y019420D01*
X039143Y019459D01*
X039115Y019500D01*
X039090Y019544D01*
X039069Y019589D01*
X039052Y019636D01*
X039038Y019684D01*
X039028Y019733D01*
X039022Y019783D01*
X039020Y019833D01*
X039020Y003333D02*
X039022Y003383D01*
X039028Y003433D01*
X039038Y003482D01*
X039052Y003530D01*
X039069Y003577D01*
X039090Y003622D01*
X039115Y003666D01*
X039143Y003707D01*
X039175Y003746D01*
X039209Y003783D01*
X039246Y003817D01*
X039286Y003847D01*
X039328Y003874D01*
X039372Y003898D01*
X039418Y003919D01*
X039465Y003935D01*
X039513Y003948D01*
X039563Y003957D01*
X039612Y003962D01*
X039663Y003963D01*
X039713Y003960D01*
X039762Y003953D01*
X039811Y003942D01*
X039859Y003927D01*
X039905Y003909D01*
X039950Y003887D01*
X039993Y003861D01*
X040034Y003832D01*
X040073Y003800D01*
X040109Y003765D01*
X040141Y003727D01*
X040171Y003687D01*
X040198Y003644D01*
X040221Y003600D01*
X040240Y003554D01*
X040256Y003506D01*
X040268Y003457D01*
X040276Y003408D01*
X040280Y003358D01*
X040280Y003308D01*
X040276Y003258D01*
X040268Y003209D01*
X040256Y003160D01*
X040240Y003112D01*
X040221Y003066D01*
X040198Y003022D01*
X040171Y002979D01*
X040141Y002939D01*
X040109Y002901D01*
X040073Y002866D01*
X040034Y002834D01*
X039993Y002805D01*
X039950Y002779D01*
X039905Y002757D01*
X039859Y002739D01*
X039811Y002724D01*
X039762Y002713D01*
X039713Y002706D01*
X039663Y002703D01*
X039612Y002704D01*
X039563Y002709D01*
X039513Y002718D01*
X039465Y002731D01*
X039418Y002747D01*
X039372Y002768D01*
X039328Y002792D01*
X039286Y002819D01*
X039246Y002849D01*
X039209Y002883D01*
X039175Y002920D01*
X039143Y002959D01*
X039115Y003000D01*
X039090Y003044D01*
X039069Y003089D01*
X039052Y003136D01*
X039038Y003184D01*
X039028Y003233D01*
X039022Y003283D01*
X039020Y003333D01*
D12*
X039650Y003333D03*
X039650Y019833D03*
X003150Y019833D03*
X003256Y003402D03*
D13*
X005470Y004333D03*
X006650Y006303D03*
D14*
X004290Y006303D03*
D15*
X004150Y008333D03*
X005150Y008333D03*
X006150Y008333D03*
X007150Y008333D03*
X008150Y008333D03*
X009150Y008333D03*
X010150Y008333D03*
X011150Y008333D03*
X012150Y008333D03*
X013150Y008333D03*
X014150Y008333D03*
X015150Y008333D03*
X016150Y008333D03*
X017150Y008333D03*
X018150Y008333D03*
X019150Y008333D03*
X020150Y008333D03*
X021150Y008333D03*
X022150Y008333D03*
X023150Y008333D03*
X024150Y008333D03*
X025150Y008333D03*
X026150Y008333D03*
X027150Y008333D03*
X028150Y008333D03*
X029150Y008333D03*
X021150Y009833D03*
X020150Y009833D03*
X019150Y009833D03*
X018150Y009833D03*
X017150Y009833D03*
X016150Y009833D03*
X015150Y009833D03*
X014150Y009833D03*
X013150Y009833D03*
X012150Y009833D03*
X011150Y009833D03*
X010150Y009833D03*
X009150Y009833D03*
X008150Y009833D03*
X007150Y009833D03*
X006150Y009833D03*
X005150Y009833D03*
X004150Y009833D03*
X003150Y009833D03*
X002150Y009833D03*
X002150Y008333D03*
X003150Y008333D03*
X003150Y015833D03*
X002150Y015833D03*
X002150Y017333D03*
X003150Y017333D03*
X004150Y017333D03*
X005150Y017333D03*
X006150Y017333D03*
X007150Y017333D03*
X008150Y017333D03*
X009150Y017333D03*
X010150Y017333D03*
X011150Y017333D03*
X012150Y017333D03*
X013150Y017333D03*
X014150Y017333D03*
X015150Y017333D03*
X016150Y017333D03*
X017150Y017333D03*
X018150Y017333D03*
X019150Y017333D03*
X020150Y017333D03*
X021150Y017333D03*
X022150Y017333D03*
X023150Y017333D03*
X024150Y017333D03*
X025150Y017333D03*
X026150Y017333D03*
X027150Y017333D03*
X028150Y017333D03*
X029150Y017333D03*
X021150Y015833D03*
X020150Y015833D03*
X019150Y015833D03*
X018150Y015833D03*
X017150Y015833D03*
X016150Y015833D03*
X015150Y015833D03*
X014150Y015833D03*
X013150Y015833D03*
X012150Y015833D03*
X011150Y015833D03*
X010150Y015833D03*
X009150Y015833D03*
X008150Y015833D03*
X007150Y015833D03*
X006150Y015833D03*
X005150Y015833D03*
X004150Y015833D03*
D16*
X009150Y005833D03*
D17*
X010150Y005833D03*
X011150Y005833D03*
X013150Y005833D03*
X013150Y006833D03*
X013150Y004833D03*
X017150Y004383D03*
X017150Y003383D03*
X018150Y003383D03*
X018150Y004383D03*
X019150Y004383D03*
X019150Y003383D03*
X020150Y003383D03*
X020150Y004383D03*
X021150Y004383D03*
X021150Y003383D03*
X022150Y003383D03*
X022150Y004383D03*
X023150Y004383D03*
X023150Y003383D03*
X024150Y003383D03*
X025150Y003383D03*
X025150Y004383D03*
X024150Y004383D03*
X024150Y002383D03*
X023150Y002383D03*
X022150Y002383D03*
X021150Y002383D03*
X020150Y002383D03*
X019150Y002383D03*
X018150Y002383D03*
X017150Y002383D03*
X025150Y002383D03*
X026150Y002383D03*
X027150Y002383D03*
X028150Y002383D03*
X028150Y003383D03*
X028150Y004383D03*
X027150Y004383D03*
X027150Y003383D03*
X026150Y003383D03*
X026150Y004383D03*
X030650Y003333D03*
X036150Y003333D03*
X026150Y018783D03*
X026150Y019783D03*
X025150Y019783D03*
X025150Y018783D03*
X024150Y018783D03*
X023150Y018783D03*
X023150Y019783D03*
X024150Y019783D03*
X024150Y020783D03*
X023150Y020783D03*
X022150Y020783D03*
X022150Y019783D03*
X022150Y018783D03*
X021150Y018683D03*
X020150Y018783D03*
X019150Y018683D03*
X018150Y018783D03*
X017150Y018683D03*
X016150Y018783D03*
X015150Y018783D03*
X014150Y018783D03*
X014150Y019783D03*
X015150Y019783D03*
X015150Y020783D03*
X014150Y020783D03*
X013150Y020783D03*
X012150Y020783D03*
X012150Y019783D03*
X012150Y018783D03*
X013150Y018783D03*
X013150Y019783D03*
X011150Y019783D03*
X011150Y018783D03*
X010150Y018783D03*
X009150Y018783D03*
X009150Y019783D03*
X010150Y019783D03*
X010150Y020783D03*
X009150Y020783D03*
X008150Y020783D03*
X007150Y020783D03*
X007150Y019783D03*
X007150Y018783D03*
X008150Y018783D03*
X008150Y019783D03*
X006150Y019783D03*
X006150Y018783D03*
X006150Y020783D03*
X011150Y020783D03*
X025150Y020783D03*
X026150Y020783D03*
D18*
X027150Y020783D03*
X027150Y019783D03*
X028150Y012833D03*
X029150Y012833D03*
X036650Y013333D03*
X037650Y013333D03*
X037650Y014833D03*
X036650Y014833D03*
X036650Y016333D03*
X037650Y016333D03*
X037650Y017833D03*
X036650Y017833D03*
X036650Y019333D03*
X036650Y010833D03*
X036650Y009333D03*
X037650Y009333D03*
X037650Y007833D03*
X036650Y007833D03*
X036650Y006333D03*
X037650Y006333D03*
X037650Y004833D03*
X036650Y004833D03*
X033650Y002833D03*
X032650Y002833D03*
X016150Y002333D03*
X016150Y003333D03*
X014150Y002633D03*
X011150Y002633D03*
D19*
X011150Y003633D03*
X014150Y003633D03*
X036650Y011833D03*
X036650Y020333D03*
D20*
X034910Y019833D02*
X034390Y019833D01*
X034390Y018833D02*
X034910Y018833D01*
X034910Y017833D02*
X034390Y017833D01*
X034390Y016833D02*
X034910Y016833D01*
X034910Y015833D02*
X034390Y015833D01*
X034390Y014833D02*
X034910Y014833D01*
X034910Y013833D02*
X034390Y013833D01*
X034390Y012833D02*
X034910Y012833D01*
X034910Y010833D02*
X034390Y010833D01*
X034390Y009833D02*
X034910Y009833D01*
X034910Y008833D02*
X034390Y008833D01*
X034390Y007833D02*
X034910Y007833D01*
X034910Y006833D02*
X034390Y006833D01*
X034390Y005833D02*
X034910Y005833D01*
X034910Y004833D02*
X034390Y004833D01*
X034390Y003833D02*
X034910Y003833D01*
X031910Y003833D02*
X031390Y003833D01*
X031390Y004833D02*
X031910Y004833D01*
X031910Y005833D02*
X031390Y005833D01*
X031390Y006833D02*
X031910Y006833D01*
X031910Y007833D02*
X031390Y007833D01*
X031390Y008833D02*
X031910Y008833D01*
X031910Y009833D02*
X031390Y009833D01*
X031390Y010833D02*
X031910Y010833D01*
X031910Y012833D02*
X031390Y012833D01*
X031390Y013833D02*
X031910Y013833D01*
X031910Y014833D02*
X031390Y014833D01*
X031390Y015833D02*
X031910Y015833D01*
X031910Y016833D02*
X031390Y016833D01*
X031390Y017833D02*
X031910Y017833D01*
X031910Y018833D02*
X031390Y018833D01*
X031390Y019833D02*
X031910Y019833D01*
D21*
X039650Y013263D03*
X039650Y005763D03*
X007650Y003233D03*
D22*
X009028Y003233D03*
X039650Y007281D03*
X039650Y008519D03*
X039650Y010037D03*
X039650Y014781D03*
X039650Y016019D03*
X039650Y017537D03*
M02*
