G75*
%MOIN*%
%OFA0B0*%
%FSLAX25Y25*%
%IPPOS*%
%LPD*%
%AMOC8*
5,1,8,0,0,1.08239X$1,22.5*
%
%ADD10C,0.00000*%
%ADD11C,0.00700*%
%ADD12C,0.00600*%
%ADD13C,0.01000*%
%ADD14C,0.01200*%
%ADD15C,0.00100*%
%ADD16C,0.00394*%
%ADD17R,0.11575X0.02913*%
%ADD18C,0.00039*%
%ADD19C,0.00200*%
D10*
X0027595Y0221800D02*
X0027595Y0291800D01*
X0227595Y0291800D01*
X0227595Y0221800D01*
X0027595Y0221800D01*
D11*
X0046845Y0232150D02*
X0046845Y0234352D01*
X0046845Y0233251D02*
X0050148Y0233251D01*
X0049047Y0232150D01*
X0052045Y0232150D02*
X0052045Y0234352D01*
X0052045Y0233251D02*
X0055348Y0233251D01*
X0054247Y0232150D01*
X0054247Y0235833D02*
X0053697Y0236384D01*
X0053697Y0238035D01*
X0054797Y0238035D02*
X0055348Y0237485D01*
X0055348Y0236384D01*
X0054797Y0235833D01*
X0054247Y0235833D01*
X0052596Y0235833D02*
X0052045Y0236384D01*
X0052045Y0237485D01*
X0052596Y0238035D01*
X0054797Y0238035D01*
X0050148Y0237485D02*
X0050148Y0236384D01*
X0049597Y0235833D01*
X0049047Y0235833D01*
X0048497Y0236384D01*
X0048497Y0237485D01*
X0047946Y0238035D01*
X0047396Y0238035D01*
X0046845Y0237485D01*
X0046845Y0236384D01*
X0047396Y0235833D01*
X0047946Y0235833D01*
X0048497Y0236384D01*
X0048497Y0237485D02*
X0049047Y0238035D01*
X0049597Y0238035D01*
X0050148Y0237485D01*
X0045326Y0236355D02*
X0044937Y0236744D01*
X0041823Y0236744D01*
X0041433Y0237133D01*
X0040386Y0236086D02*
X0038829Y0234529D01*
X0039608Y0235308D02*
X0041943Y0232972D01*
X0040386Y0232972D01*
X0043769Y0234798D02*
X0045326Y0236355D01*
X0059645Y0235833D02*
X0059645Y0238035D01*
X0059645Y0236934D02*
X0062948Y0236934D01*
X0061847Y0235833D01*
X0061847Y0234352D02*
X0059645Y0234352D01*
X0061297Y0234352D02*
X0061297Y0232150D01*
X0061847Y0232150D02*
X0062948Y0233251D01*
X0061847Y0234352D01*
X0061847Y0232150D02*
X0059645Y0232150D01*
X0059645Y0239516D02*
X0061847Y0241718D01*
X0062397Y0241718D01*
X0062948Y0241168D01*
X0062948Y0240067D01*
X0062397Y0239516D01*
X0059645Y0239516D02*
X0059645Y0241718D01*
X0059548Y0247445D02*
X0059548Y0248546D01*
X0059548Y0247996D02*
X0056245Y0247996D01*
X0056245Y0248546D02*
X0056245Y0247445D01*
X0056796Y0249901D02*
X0056245Y0250451D01*
X0056245Y0251552D01*
X0056796Y0252102D01*
X0056796Y0253584D02*
X0056245Y0254134D01*
X0056245Y0255235D01*
X0056796Y0255786D01*
X0057346Y0255786D01*
X0057897Y0255235D01*
X0057897Y0254134D01*
X0058447Y0253584D01*
X0058997Y0253584D01*
X0059548Y0254134D01*
X0059548Y0255235D01*
X0058997Y0255786D01*
X0059548Y0257267D02*
X0059548Y0258918D01*
X0058997Y0259469D01*
X0057897Y0259469D01*
X0057346Y0258918D01*
X0057346Y0257267D01*
X0056245Y0257267D02*
X0059548Y0257267D01*
X0058997Y0252102D02*
X0059548Y0251552D01*
X0059548Y0250451D01*
X0058997Y0249901D01*
X0056796Y0249901D01*
X0049095Y0255800D02*
X0048544Y0255250D01*
X0047443Y0255250D01*
X0046893Y0255800D01*
X0046893Y0256901D01*
X0047994Y0256901D01*
X0049095Y0258002D02*
X0049095Y0255800D01*
X0049095Y0258002D02*
X0048544Y0258553D01*
X0047443Y0258553D01*
X0046893Y0258002D01*
X0045411Y0258553D02*
X0043210Y0255250D01*
X0043210Y0258553D01*
X0041728Y0258553D02*
X0040077Y0258553D01*
X0039526Y0258002D01*
X0039526Y0255800D01*
X0040077Y0255250D01*
X0041728Y0255250D01*
X0041728Y0258553D01*
X0045411Y0258553D02*
X0045411Y0255250D01*
X0045502Y0264550D02*
X0046603Y0264550D01*
X0047153Y0265100D01*
X0046052Y0266201D02*
X0045502Y0266201D01*
X0044951Y0265651D01*
X0044951Y0265100D01*
X0045502Y0264550D01*
X0045502Y0266201D02*
X0044951Y0266752D01*
X0044951Y0267302D01*
X0045502Y0267853D01*
X0046603Y0267853D01*
X0047153Y0267302D01*
X0048229Y0270232D02*
X0048229Y0273535D01*
X0046577Y0273535D01*
X0046027Y0272985D01*
X0046027Y0271884D01*
X0046577Y0271333D01*
X0048229Y0271333D01*
X0047128Y0271333D02*
X0046027Y0270232D01*
X0044546Y0270783D02*
X0043995Y0270232D01*
X0042894Y0270232D01*
X0042344Y0270783D01*
X0042344Y0271333D01*
X0042894Y0271884D01*
X0043995Y0271884D01*
X0044546Y0272434D01*
X0044546Y0272985D01*
X0043995Y0273535D01*
X0042894Y0273535D01*
X0042344Y0272985D01*
X0040863Y0273535D02*
X0038661Y0273535D01*
X0039762Y0273535D02*
X0039762Y0270232D01*
X0039977Y0267853D02*
X0039426Y0267302D01*
X0039426Y0266752D01*
X0039977Y0266201D01*
X0039426Y0265651D01*
X0039426Y0265100D01*
X0039977Y0264550D01*
X0041078Y0264550D01*
X0041628Y0265100D01*
X0042919Y0265100D02*
X0042919Y0264550D01*
X0043470Y0264550D01*
X0043470Y0265100D01*
X0042919Y0265100D01*
X0041628Y0267302D02*
X0041078Y0267853D01*
X0039977Y0267853D01*
X0039977Y0266201D02*
X0040527Y0266201D01*
X0068645Y0271101D02*
X0070847Y0271101D01*
X0071948Y0272202D01*
X0070847Y0273302D01*
X0068645Y0273302D01*
X0068645Y0274784D02*
X0068645Y0276986D01*
X0068645Y0275885D02*
X0071948Y0275885D01*
X0070847Y0274784D01*
X0070297Y0273302D02*
X0070297Y0271101D01*
X0080945Y0274784D02*
X0083147Y0274784D01*
X0084248Y0275885D01*
X0083147Y0276986D01*
X0080945Y0276986D01*
X0081496Y0278467D02*
X0080945Y0279017D01*
X0080945Y0280118D01*
X0081496Y0280669D01*
X0083697Y0280669D01*
X0084248Y0280118D01*
X0084248Y0279017D01*
X0083697Y0278467D01*
X0083147Y0278467D01*
X0082597Y0279017D01*
X0082597Y0280669D01*
X0082597Y0276986D02*
X0082597Y0274784D01*
X0090945Y0274784D02*
X0093147Y0274784D01*
X0094248Y0275885D01*
X0093147Y0276986D01*
X0090945Y0276986D01*
X0091496Y0278467D02*
X0092046Y0278467D01*
X0092597Y0279017D01*
X0092597Y0280118D01*
X0092046Y0280669D01*
X0091496Y0280669D01*
X0090945Y0280118D01*
X0090945Y0279017D01*
X0091496Y0278467D01*
X0092597Y0279017D02*
X0093147Y0278467D01*
X0093697Y0278467D01*
X0094248Y0279017D01*
X0094248Y0280118D01*
X0093697Y0280669D01*
X0093147Y0280669D01*
X0092597Y0280118D01*
X0092597Y0276986D02*
X0092597Y0274784D01*
X0100945Y0274784D02*
X0103147Y0274784D01*
X0104248Y0275885D01*
X0103147Y0276986D01*
X0100945Y0276986D01*
X0100945Y0278467D02*
X0101496Y0278467D01*
X0103697Y0280669D01*
X0104248Y0280669D01*
X0104248Y0278467D01*
X0102597Y0276986D02*
X0102597Y0274784D01*
X0110945Y0274784D02*
X0113147Y0274784D01*
X0114248Y0275885D01*
X0113147Y0276986D01*
X0110945Y0276986D01*
X0111496Y0278467D02*
X0110945Y0279017D01*
X0110945Y0280118D01*
X0111496Y0280669D01*
X0112046Y0280669D01*
X0112597Y0280118D01*
X0112597Y0278467D01*
X0111496Y0278467D01*
X0112597Y0278467D02*
X0113697Y0279568D01*
X0114248Y0280669D01*
X0112597Y0276986D02*
X0112597Y0274784D01*
X0120845Y0274784D02*
X0123047Y0274784D01*
X0124148Y0275885D01*
X0123047Y0276986D01*
X0120845Y0276986D01*
X0121396Y0278467D02*
X0120845Y0279017D01*
X0120845Y0280118D01*
X0121396Y0280669D01*
X0122497Y0280669D01*
X0123047Y0280118D01*
X0123047Y0279568D01*
X0122497Y0278467D01*
X0124148Y0278467D01*
X0124148Y0280669D01*
X0122497Y0276986D02*
X0122497Y0274784D01*
X0129645Y0274784D02*
X0131847Y0274784D01*
X0132948Y0275885D01*
X0131847Y0276986D01*
X0129645Y0276986D01*
X0131297Y0276986D02*
X0131297Y0274784D01*
X0131297Y0278467D02*
X0131297Y0280669D01*
X0132948Y0280118D02*
X0131297Y0278467D01*
X0132948Y0280118D02*
X0129645Y0280118D01*
X0140845Y0280118D02*
X0140845Y0279017D01*
X0141396Y0278467D01*
X0142497Y0279568D02*
X0142497Y0280118D01*
X0141946Y0280669D01*
X0141396Y0280669D01*
X0140845Y0280118D01*
X0142497Y0280118D02*
X0143047Y0280669D01*
X0143597Y0280669D01*
X0144148Y0280118D01*
X0144148Y0279017D01*
X0143597Y0278467D01*
X0143047Y0276986D02*
X0140845Y0276986D01*
X0142497Y0276986D02*
X0142497Y0274784D01*
X0143047Y0274784D02*
X0144148Y0275885D01*
X0143047Y0276986D01*
X0143047Y0274784D02*
X0140845Y0274784D01*
X0150645Y0274684D02*
X0152847Y0274684D01*
X0153948Y0275785D01*
X0152847Y0276886D01*
X0150645Y0276886D01*
X0150645Y0278367D02*
X0152847Y0280569D01*
X0153397Y0280569D01*
X0153948Y0280018D01*
X0153948Y0278917D01*
X0153397Y0278367D01*
X0152297Y0276886D02*
X0152297Y0274684D01*
X0150645Y0278367D02*
X0150645Y0280569D01*
X0160745Y0280569D02*
X0160745Y0278367D01*
X0160745Y0279468D02*
X0164048Y0279468D01*
X0162947Y0278367D01*
X0162947Y0276886D02*
X0160745Y0276886D01*
X0162397Y0276886D02*
X0162397Y0274684D01*
X0162947Y0274684D02*
X0164048Y0275785D01*
X0162947Y0276886D01*
X0162947Y0274684D02*
X0160745Y0274684D01*
X0171345Y0278467D02*
X0173547Y0280669D01*
X0174097Y0280669D01*
X0174648Y0280118D01*
X0174648Y0279017D01*
X0174097Y0278467D01*
X0171345Y0278467D02*
X0171345Y0280669D01*
X0180945Y0280669D02*
X0180945Y0278467D01*
X0180945Y0279568D02*
X0184248Y0279568D01*
X0183147Y0278467D01*
X0190045Y0279017D02*
X0190596Y0278467D01*
X0192797Y0280669D01*
X0190596Y0280669D01*
X0190045Y0280118D01*
X0190045Y0279017D01*
X0190596Y0278467D02*
X0192797Y0278467D01*
X0193348Y0279017D01*
X0193348Y0280118D01*
X0192797Y0280669D01*
X0192247Y0276986D02*
X0190045Y0276986D01*
X0191697Y0276986D02*
X0191697Y0274784D01*
X0192247Y0274784D02*
X0193348Y0275885D01*
X0192247Y0276986D01*
X0192247Y0274784D02*
X0190045Y0274784D01*
X0200945Y0275334D02*
X0201496Y0274784D01*
X0200945Y0275334D02*
X0200945Y0276435D01*
X0201496Y0276986D01*
X0202046Y0276986D01*
X0202597Y0276435D01*
X0202597Y0275885D01*
X0202597Y0276435D02*
X0203147Y0276986D01*
X0203697Y0276986D01*
X0204248Y0276435D01*
X0204248Y0275334D01*
X0203697Y0274784D01*
X0201496Y0273493D02*
X0200945Y0273493D01*
X0200945Y0272942D01*
X0201496Y0272942D01*
X0201496Y0273493D01*
X0201496Y0271461D02*
X0200945Y0270910D01*
X0200945Y0269809D01*
X0201496Y0269259D01*
X0202597Y0270360D02*
X0202597Y0270910D01*
X0202046Y0271461D01*
X0201496Y0271461D01*
X0202597Y0270910D02*
X0203147Y0271461D01*
X0203697Y0271461D01*
X0204248Y0270910D01*
X0204248Y0269809D01*
X0203697Y0269259D01*
X0210945Y0271651D02*
X0210945Y0272752D01*
X0211496Y0273302D01*
X0212597Y0273302D01*
X0212597Y0272202D01*
X0213697Y0273302D02*
X0214248Y0272752D01*
X0214248Y0271651D01*
X0213697Y0271101D01*
X0211496Y0271101D01*
X0210945Y0271651D01*
X0210945Y0274784D02*
X0214248Y0274784D01*
X0210945Y0276986D01*
X0214248Y0276986D01*
X0214248Y0278467D02*
X0214248Y0280118D01*
X0213697Y0280669D01*
X0211496Y0280669D01*
X0210945Y0280118D01*
X0210945Y0278467D01*
X0214248Y0278467D01*
X0223145Y0279595D02*
X0223696Y0279045D01*
X0225897Y0279045D01*
X0225347Y0278495D02*
X0225347Y0279595D01*
X0225347Y0277013D02*
X0223145Y0277013D01*
X0223145Y0275362D01*
X0223696Y0274811D01*
X0225347Y0274811D01*
X0224797Y0273330D02*
X0223696Y0273330D01*
X0223145Y0272780D01*
X0223145Y0271679D01*
X0223696Y0271128D01*
X0224797Y0271128D01*
X0225347Y0271679D01*
X0225347Y0272780D01*
X0224797Y0273330D01*
X0224246Y0269647D02*
X0226448Y0269647D01*
X0226448Y0267445D02*
X0224246Y0267445D01*
X0223145Y0268546D01*
X0224246Y0269647D01*
X0204248Y0278467D02*
X0202046Y0278467D01*
X0200945Y0279568D01*
X0202046Y0280669D01*
X0204248Y0280669D01*
X0194248Y0249084D02*
X0194248Y0246883D01*
X0194248Y0247984D02*
X0190945Y0247984D01*
X0190945Y0245401D02*
X0190945Y0243199D01*
X0194248Y0243199D01*
X0194248Y0245401D01*
X0192597Y0244300D02*
X0192597Y0243199D01*
X0192046Y0241718D02*
X0191496Y0241718D01*
X0190945Y0241168D01*
X0190945Y0240067D01*
X0191496Y0239516D01*
X0192597Y0240067D02*
X0193147Y0239516D01*
X0193697Y0239516D01*
X0194248Y0240067D01*
X0194248Y0241168D01*
X0193697Y0241718D01*
X0192597Y0241168D02*
X0192046Y0241718D01*
X0192597Y0241168D02*
X0192597Y0240067D01*
X0194248Y0238035D02*
X0194248Y0235833D01*
X0190945Y0235833D01*
X0190945Y0238035D01*
X0192597Y0236934D02*
X0192597Y0235833D01*
X0192597Y0234352D02*
X0192046Y0233801D01*
X0192046Y0232150D01*
X0190945Y0232150D02*
X0194248Y0232150D01*
X0194248Y0233801D01*
X0193697Y0234352D01*
X0192597Y0234352D01*
X0192046Y0233251D02*
X0190945Y0234352D01*
X0183748Y0233801D02*
X0183748Y0232700D01*
X0183197Y0232150D01*
X0182097Y0233251D02*
X0182097Y0233801D01*
X0181546Y0234352D01*
X0180996Y0234352D01*
X0180445Y0233801D01*
X0180445Y0232700D01*
X0180996Y0232150D01*
X0182097Y0233801D02*
X0182647Y0234352D01*
X0183197Y0234352D01*
X0183748Y0233801D01*
X0183197Y0235833D02*
X0183748Y0236384D01*
X0183748Y0237485D01*
X0183197Y0238035D01*
X0182647Y0238035D01*
X0180445Y0235833D01*
X0180445Y0238035D01*
X0174748Y0236934D02*
X0171445Y0236934D01*
X0171445Y0235833D02*
X0171445Y0238035D01*
X0173647Y0235833D02*
X0174748Y0236934D01*
X0174197Y0234352D02*
X0173647Y0234352D01*
X0173097Y0233801D01*
X0172546Y0234352D01*
X0171996Y0234352D01*
X0171445Y0233801D01*
X0171445Y0232700D01*
X0171996Y0232150D01*
X0173097Y0233251D02*
X0173097Y0233801D01*
X0174197Y0234352D02*
X0174748Y0233801D01*
X0174748Y0232700D01*
X0174197Y0232150D01*
X0164748Y0232700D02*
X0164748Y0233801D01*
X0164197Y0234352D01*
X0163647Y0234352D01*
X0163097Y0233801D01*
X0162546Y0234352D01*
X0161996Y0234352D01*
X0161445Y0233801D01*
X0161445Y0232700D01*
X0161996Y0232150D01*
X0163097Y0233251D02*
X0163097Y0233801D01*
X0164197Y0232150D02*
X0164748Y0232700D01*
X0164197Y0235833D02*
X0164748Y0236384D01*
X0164748Y0237485D01*
X0164197Y0238035D01*
X0161996Y0235833D01*
X0161445Y0236384D01*
X0161445Y0237485D01*
X0161996Y0238035D01*
X0164197Y0238035D01*
X0164197Y0235833D02*
X0161996Y0235833D01*
X0154748Y0236384D02*
X0154748Y0237485D01*
X0154197Y0238035D01*
X0151996Y0238035D01*
X0151445Y0237485D01*
X0151445Y0236384D01*
X0151996Y0235833D01*
X0153097Y0236384D02*
X0153097Y0238035D01*
X0153097Y0236384D02*
X0153647Y0235833D01*
X0154197Y0235833D01*
X0154748Y0236384D01*
X0154197Y0234352D02*
X0154748Y0233801D01*
X0154748Y0232700D01*
X0154197Y0232150D01*
X0154197Y0234352D02*
X0153647Y0234352D01*
X0151445Y0232150D01*
X0151445Y0234352D01*
X0144748Y0233801D02*
X0144748Y0232700D01*
X0144197Y0232150D01*
X0144748Y0233801D02*
X0144197Y0234352D01*
X0143647Y0234352D01*
X0141445Y0232150D01*
X0141445Y0234352D01*
X0141996Y0235833D02*
X0142546Y0235833D01*
X0143097Y0236384D01*
X0143097Y0237485D01*
X0142546Y0238035D01*
X0141996Y0238035D01*
X0141445Y0237485D01*
X0141445Y0236384D01*
X0141996Y0235833D01*
X0143097Y0236384D02*
X0143647Y0235833D01*
X0144197Y0235833D01*
X0144748Y0236384D01*
X0144748Y0237485D01*
X0144197Y0238035D01*
X0143647Y0238035D01*
X0143097Y0237485D01*
X0134748Y0238035D02*
X0134748Y0235833D01*
X0134197Y0234352D02*
X0134748Y0233801D01*
X0134748Y0232700D01*
X0134197Y0232150D01*
X0134197Y0234352D02*
X0133647Y0234352D01*
X0131445Y0232150D01*
X0131445Y0234352D01*
X0131445Y0235833D02*
X0131996Y0235833D01*
X0134197Y0238035D01*
X0134748Y0238035D01*
X0124748Y0238035D02*
X0124197Y0236934D01*
X0123097Y0235833D01*
X0123097Y0237485D01*
X0122546Y0238035D01*
X0121996Y0238035D01*
X0121445Y0237485D01*
X0121445Y0236384D01*
X0121996Y0235833D01*
X0123097Y0235833D01*
X0123647Y0234352D02*
X0124197Y0234352D01*
X0124748Y0233801D01*
X0124748Y0232700D01*
X0124197Y0232150D01*
X0123647Y0234352D02*
X0121445Y0232150D01*
X0121445Y0234352D01*
X0114748Y0233801D02*
X0114748Y0232700D01*
X0114197Y0232150D01*
X0114748Y0233801D02*
X0114197Y0234352D01*
X0113647Y0234352D01*
X0111445Y0232150D01*
X0111445Y0234352D01*
X0111996Y0235833D02*
X0111445Y0236384D01*
X0111445Y0237485D01*
X0111996Y0238035D01*
X0113097Y0238035D01*
X0113647Y0237485D01*
X0113647Y0236934D01*
X0113097Y0235833D01*
X0114748Y0235833D01*
X0114748Y0238035D01*
X0104148Y0237485D02*
X0102497Y0235833D01*
X0102497Y0238035D01*
X0104148Y0237485D02*
X0100845Y0237485D01*
X0100845Y0234352D02*
X0100845Y0232150D01*
X0103047Y0234352D01*
X0103597Y0234352D01*
X0104148Y0233801D01*
X0104148Y0232700D01*
X0103597Y0232150D01*
X0094748Y0232700D02*
X0094748Y0233801D01*
X0094197Y0234352D01*
X0093647Y0234352D01*
X0091445Y0232150D01*
X0091445Y0234352D01*
X0091996Y0235833D02*
X0091445Y0236384D01*
X0091445Y0237485D01*
X0091996Y0238035D01*
X0092546Y0238035D01*
X0093097Y0237485D01*
X0093097Y0236934D01*
X0093097Y0237485D02*
X0093647Y0238035D01*
X0094197Y0238035D01*
X0094748Y0237485D01*
X0094748Y0236384D01*
X0094197Y0235833D01*
X0094748Y0232700D02*
X0094197Y0232150D01*
X0084748Y0232700D02*
X0084197Y0232150D01*
X0084748Y0232700D02*
X0084748Y0233801D01*
X0084197Y0234352D01*
X0083647Y0234352D01*
X0081445Y0232150D01*
X0081445Y0234352D01*
X0081445Y0235833D02*
X0083647Y0238035D01*
X0084197Y0238035D01*
X0084748Y0237485D01*
X0084748Y0236384D01*
X0084197Y0235833D01*
X0081445Y0235833D02*
X0081445Y0238035D01*
X0076348Y0236934D02*
X0075247Y0235833D01*
X0075247Y0234352D02*
X0075797Y0234352D01*
X0076348Y0233801D01*
X0076348Y0232700D01*
X0075797Y0232150D01*
X0075247Y0234352D02*
X0073045Y0232150D01*
X0073045Y0234352D01*
X0073045Y0235833D02*
X0073045Y0238035D01*
X0073045Y0236934D02*
X0076348Y0236934D01*
X0071397Y0278467D02*
X0071948Y0279017D01*
X0071948Y0280118D01*
X0071397Y0280669D01*
X0069196Y0278467D01*
X0068645Y0279017D01*
X0068645Y0280118D01*
X0069196Y0280669D01*
X0071397Y0280669D01*
X0071397Y0278467D02*
X0069196Y0278467D01*
X0200945Y0242459D02*
X0202046Y0243560D01*
X0204248Y0243560D01*
X0204248Y0241358D02*
X0202046Y0241358D01*
X0200945Y0242459D01*
X0201496Y0239877D02*
X0200945Y0239326D01*
X0200945Y0238225D01*
X0201496Y0237675D01*
X0201496Y0236384D02*
X0200945Y0236384D01*
X0200945Y0235833D01*
X0201496Y0235833D01*
X0201496Y0236384D01*
X0201496Y0234352D02*
X0200945Y0233801D01*
X0200945Y0232700D01*
X0201496Y0232150D01*
X0202597Y0233251D02*
X0202597Y0233801D01*
X0202046Y0234352D01*
X0201496Y0234352D01*
X0202597Y0233801D02*
X0203147Y0234352D01*
X0203697Y0234352D01*
X0204248Y0233801D01*
X0204248Y0232700D01*
X0203697Y0232150D01*
X0210945Y0232700D02*
X0210945Y0233801D01*
X0211496Y0234352D01*
X0212597Y0234352D01*
X0212597Y0233251D01*
X0213697Y0234352D02*
X0214248Y0233801D01*
X0214248Y0232700D01*
X0213697Y0232150D01*
X0211496Y0232150D01*
X0210945Y0232700D01*
X0210945Y0235833D02*
X0214248Y0235833D01*
X0210945Y0238035D01*
X0214248Y0238035D01*
X0214248Y0239516D02*
X0214248Y0241168D01*
X0213697Y0241718D01*
X0211496Y0241718D01*
X0210945Y0241168D01*
X0210945Y0239516D01*
X0214248Y0239516D01*
X0222145Y0240390D02*
X0223797Y0240390D01*
X0224347Y0239840D01*
X0224347Y0238189D01*
X0222145Y0238189D01*
X0222145Y0236834D02*
X0222145Y0235733D01*
X0222145Y0236284D02*
X0224347Y0236284D01*
X0224347Y0235733D01*
X0225448Y0236284D02*
X0225998Y0236284D01*
X0225448Y0234252D02*
X0223246Y0234252D01*
X0222145Y0233151D01*
X0223246Y0232050D01*
X0225448Y0232050D01*
X0204248Y0238225D02*
X0204248Y0239326D01*
X0203697Y0239877D01*
X0203147Y0239877D01*
X0202597Y0239326D01*
X0202046Y0239877D01*
X0201496Y0239877D01*
X0202597Y0239326D02*
X0202597Y0238776D01*
X0203697Y0237675D02*
X0204248Y0238225D01*
D12*
X0172964Y0242342D02*
X0172964Y0243455D01*
X0172408Y0244012D01*
X0170738Y0244012D01*
X0170738Y0245125D02*
X0170738Y0241785D01*
X0172408Y0241785D01*
X0172964Y0242342D01*
X0169339Y0242342D02*
X0169339Y0243455D01*
X0168783Y0244012D01*
X0167669Y0244012D01*
X0167113Y0243455D01*
X0167113Y0242898D01*
X0169339Y0242898D01*
X0169339Y0242342D02*
X0168783Y0241785D01*
X0167669Y0241785D01*
X0165714Y0241785D02*
X0164044Y0241785D01*
X0163488Y0242342D01*
X0164044Y0242898D01*
X0165158Y0242898D01*
X0165714Y0243455D01*
X0165158Y0244012D01*
X0163488Y0244012D01*
X0162089Y0244012D02*
X0161532Y0244012D01*
X0161532Y0241785D01*
X0160976Y0241785D02*
X0162089Y0241785D01*
X0159672Y0242342D02*
X0159116Y0241785D01*
X0157446Y0241785D01*
X0157446Y0241228D02*
X0157446Y0244012D01*
X0159116Y0244012D01*
X0159672Y0243455D01*
X0159672Y0242342D01*
X0158559Y0240672D02*
X0158002Y0240672D01*
X0157446Y0241228D01*
X0156047Y0241785D02*
X0156047Y0244012D01*
X0154377Y0244012D01*
X0153821Y0243455D01*
X0153821Y0241785D01*
X0152422Y0242342D02*
X0152422Y0243455D01*
X0151865Y0244012D01*
X0150752Y0244012D01*
X0150195Y0243455D01*
X0150195Y0242898D01*
X0152422Y0242898D01*
X0152422Y0242342D02*
X0151865Y0241785D01*
X0150752Y0241785D01*
X0148797Y0242342D02*
X0148797Y0243455D01*
X0148240Y0244012D01*
X0146570Y0244012D01*
X0146570Y0245125D02*
X0146570Y0241785D01*
X0148240Y0241785D01*
X0148797Y0242342D01*
X0141547Y0241785D02*
X0141547Y0245125D01*
X0141547Y0244012D02*
X0139877Y0244012D01*
X0139320Y0243455D01*
X0139320Y0242342D01*
X0139877Y0241785D01*
X0141547Y0241785D01*
X0137921Y0242342D02*
X0137365Y0241785D01*
X0135695Y0241785D01*
X0135695Y0241228D02*
X0136252Y0240672D01*
X0136808Y0240672D01*
X0135695Y0241228D02*
X0135695Y0244012D01*
X0134296Y0244012D02*
X0134296Y0243455D01*
X0133740Y0243455D01*
X0133740Y0244012D01*
X0134296Y0244012D01*
X0134296Y0242342D02*
X0134296Y0241785D01*
X0133740Y0241785D01*
X0133740Y0242342D01*
X0134296Y0242342D01*
X0137921Y0242342D02*
X0137921Y0244012D01*
X0138077Y0247759D02*
X0137521Y0248316D01*
X0137521Y0249986D01*
X0136122Y0249986D02*
X0136122Y0248316D01*
X0135565Y0247759D01*
X0135009Y0248316D01*
X0134452Y0247759D01*
X0133895Y0248316D01*
X0133895Y0249986D01*
X0132497Y0249986D02*
X0132497Y0248316D01*
X0131940Y0247759D01*
X0131384Y0248316D01*
X0130827Y0247759D01*
X0130270Y0248316D01*
X0130270Y0249986D01*
X0128872Y0248316D02*
X0128315Y0248316D01*
X0128315Y0247759D01*
X0128872Y0247759D01*
X0128872Y0248316D01*
X0127059Y0249429D02*
X0125946Y0249429D01*
X0126502Y0250542D02*
X0126502Y0247759D01*
X0124642Y0248316D02*
X0124086Y0247759D01*
X0122416Y0247759D01*
X0122416Y0249986D01*
X0121017Y0249986D02*
X0119347Y0249986D01*
X0118791Y0249429D01*
X0118791Y0248316D01*
X0119347Y0247759D01*
X0121017Y0247759D01*
X0121017Y0251099D01*
X0124642Y0249986D02*
X0124642Y0248316D01*
X0126502Y0250542D02*
X0125946Y0251099D01*
X0117392Y0248316D02*
X0116835Y0248872D01*
X0115166Y0248872D01*
X0115166Y0249429D02*
X0115166Y0247759D01*
X0116835Y0247759D01*
X0117392Y0248316D01*
X0116835Y0249986D02*
X0115722Y0249986D01*
X0115166Y0249429D01*
X0113767Y0249986D02*
X0113767Y0247759D01*
X0113767Y0248872D02*
X0112654Y0249986D01*
X0112097Y0249986D01*
X0110746Y0249986D02*
X0110189Y0249986D01*
X0110189Y0247759D01*
X0109633Y0247759D02*
X0110746Y0247759D01*
X0108329Y0247759D02*
X0108329Y0249986D01*
X0106659Y0249986D01*
X0106103Y0249429D01*
X0106103Y0247759D01*
X0104704Y0248316D02*
X0104147Y0247759D01*
X0103034Y0247759D01*
X0102478Y0248316D01*
X0102478Y0249429D01*
X0103034Y0249986D01*
X0104147Y0249986D01*
X0104704Y0249429D01*
X0104704Y0248316D01*
X0101079Y0248316D02*
X0100522Y0248316D01*
X0100522Y0247759D01*
X0101079Y0247759D01*
X0101079Y0248316D01*
X0099266Y0248316D02*
X0098710Y0247759D01*
X0097597Y0247759D01*
X0097040Y0248316D01*
X0097040Y0249429D01*
X0097597Y0249986D01*
X0098710Y0249986D01*
X0099266Y0249429D01*
X0099266Y0248316D01*
X0098844Y0245125D02*
X0098287Y0245125D01*
X0098287Y0241785D01*
X0098844Y0241785D02*
X0097730Y0241785D01*
X0096427Y0241785D02*
X0094200Y0241785D01*
X0092802Y0241785D02*
X0092802Y0245125D01*
X0092245Y0244012D02*
X0091132Y0244012D01*
X0090575Y0243455D01*
X0090575Y0241785D01*
X0089177Y0242342D02*
X0088620Y0242898D01*
X0086950Y0242898D01*
X0086950Y0243455D02*
X0086950Y0241785D01*
X0088620Y0241785D01*
X0089177Y0242342D01*
X0088620Y0244012D02*
X0087507Y0244012D01*
X0086950Y0243455D01*
X0085552Y0244012D02*
X0085552Y0242342D01*
X0084995Y0241785D01*
X0083325Y0241785D01*
X0083325Y0244012D01*
X0081926Y0243455D02*
X0081370Y0244012D01*
X0079700Y0244012D01*
X0080256Y0242898D02*
X0081370Y0242898D01*
X0081926Y0243455D01*
X0081926Y0241785D02*
X0080256Y0241785D01*
X0079700Y0242342D01*
X0080256Y0242898D01*
X0078301Y0242342D02*
X0077745Y0242342D01*
X0077745Y0241785D01*
X0078301Y0241785D01*
X0078301Y0242342D01*
X0076489Y0242342D02*
X0075932Y0241785D01*
X0074262Y0241785D01*
X0072864Y0242342D02*
X0072307Y0241785D01*
X0071194Y0241785D01*
X0070637Y0242342D01*
X0070637Y0243455D01*
X0071194Y0244012D01*
X0072307Y0244012D01*
X0072864Y0243455D01*
X0072864Y0242342D01*
X0074262Y0244012D02*
X0075932Y0244012D01*
X0076489Y0243455D01*
X0076489Y0242342D01*
X0069238Y0241785D02*
X0069238Y0244012D01*
X0068682Y0244012D01*
X0068125Y0243455D01*
X0067569Y0244012D01*
X0067012Y0243455D01*
X0067012Y0241785D01*
X0068125Y0241785D02*
X0068125Y0243455D01*
X0074590Y0247759D02*
X0075703Y0247759D01*
X0075146Y0247759D02*
X0075146Y0249986D01*
X0075703Y0249986D01*
X0075146Y0251099D02*
X0075146Y0251656D01*
X0077102Y0249429D02*
X0077102Y0247759D01*
X0077102Y0249429D02*
X0077658Y0249986D01*
X0079328Y0249986D01*
X0079328Y0247759D01*
X0080632Y0247759D02*
X0081745Y0247759D01*
X0081188Y0247759D02*
X0081188Y0249986D01*
X0081745Y0249986D01*
X0081188Y0251099D02*
X0081188Y0251656D01*
X0083144Y0251099D02*
X0083144Y0247759D01*
X0085370Y0247759D02*
X0085370Y0251099D01*
X0084257Y0249986D01*
X0083144Y0251099D01*
X0086769Y0251099D02*
X0088995Y0247759D01*
X0090394Y0247759D02*
X0092064Y0247759D01*
X0092620Y0248316D01*
X0092620Y0249429D01*
X0092064Y0249986D01*
X0090394Y0249986D01*
X0090394Y0247202D01*
X0090950Y0246646D01*
X0091507Y0246646D01*
X0092245Y0244012D02*
X0092802Y0243455D01*
X0094200Y0244012D02*
X0096427Y0241785D01*
X0096427Y0244012D02*
X0094200Y0244012D01*
X0095641Y0247759D02*
X0095641Y0249986D01*
X0094528Y0249986D02*
X0093971Y0249986D01*
X0094528Y0249986D02*
X0095641Y0248872D01*
X0100799Y0244012D02*
X0100242Y0243455D01*
X0100242Y0241785D01*
X0101912Y0241785D01*
X0102469Y0242342D01*
X0101912Y0242898D01*
X0100242Y0242898D01*
X0100799Y0244012D02*
X0101912Y0244012D01*
X0103867Y0243455D02*
X0103867Y0241785D01*
X0104981Y0241785D02*
X0104981Y0243455D01*
X0104424Y0244012D01*
X0103867Y0243455D01*
X0104981Y0243455D02*
X0105537Y0244012D01*
X0106094Y0244012D01*
X0106094Y0241785D01*
X0107493Y0241785D02*
X0107493Y0243455D01*
X0108049Y0244012D01*
X0109162Y0244012D01*
X0109719Y0243455D01*
X0111118Y0244012D02*
X0112788Y0244012D01*
X0113344Y0243455D01*
X0113344Y0242342D01*
X0112788Y0241785D01*
X0111118Y0241785D01*
X0109719Y0241785D02*
X0109719Y0245125D01*
X0114743Y0244012D02*
X0116413Y0244012D01*
X0116969Y0243455D01*
X0116413Y0242898D01*
X0115299Y0242898D01*
X0114743Y0242342D01*
X0115299Y0241785D01*
X0116969Y0241785D01*
X0118225Y0241785D02*
X0118782Y0241785D01*
X0118782Y0242342D01*
X0118225Y0242342D01*
X0118225Y0241785D01*
X0120180Y0242342D02*
X0120180Y0244012D01*
X0120180Y0242342D02*
X0120737Y0241785D01*
X0121294Y0242342D01*
X0121850Y0241785D01*
X0122407Y0242342D01*
X0122407Y0244012D01*
X0123806Y0244012D02*
X0123806Y0242342D01*
X0124362Y0241785D01*
X0124919Y0242342D01*
X0125476Y0241785D01*
X0126032Y0242342D01*
X0126032Y0244012D01*
X0127431Y0244012D02*
X0127431Y0242342D01*
X0127987Y0241785D01*
X0128544Y0242342D01*
X0129101Y0241785D01*
X0129657Y0242342D01*
X0129657Y0244012D01*
X0138077Y0247759D02*
X0138634Y0248316D01*
X0139190Y0247759D01*
X0139747Y0248316D01*
X0139747Y0249986D01*
X0161532Y0245682D02*
X0161532Y0245125D01*
X0110189Y0251099D02*
X0110189Y0251656D01*
X0061398Y0273156D02*
X0060397Y0274157D01*
X0058395Y0274157D01*
X0058395Y0275470D02*
X0058395Y0277472D01*
X0058395Y0276471D02*
X0061398Y0276471D01*
X0060397Y0275470D01*
X0059896Y0274157D02*
X0059896Y0272156D01*
X0060397Y0272156D02*
X0061398Y0273156D01*
X0060397Y0272156D02*
X0058395Y0272156D01*
X0053998Y0276471D02*
X0050995Y0276471D01*
X0050995Y0275470D02*
X0050995Y0277472D01*
X0052496Y0278785D02*
X0052496Y0280787D01*
X0050995Y0280286D02*
X0053998Y0280286D01*
X0052496Y0278785D01*
X0053998Y0276471D02*
X0052997Y0275470D01*
X0047787Y0276481D02*
X0044785Y0276481D01*
X0044785Y0275480D02*
X0044785Y0277482D01*
X0043565Y0277751D02*
X0041442Y0275628D01*
X0042149Y0274920D02*
X0040734Y0276335D01*
X0040159Y0277618D02*
X0039451Y0277618D01*
X0038744Y0278325D01*
X0038744Y0279033D01*
X0039098Y0279387D01*
X0039805Y0279387D01*
X0040867Y0278325D01*
X0040159Y0277618D01*
X0040867Y0278325D02*
X0040867Y0279741D01*
X0040513Y0280802D01*
X0044785Y0280296D02*
X0044785Y0279295D01*
X0045285Y0278795D01*
X0046286Y0278795D02*
X0046787Y0279796D01*
X0046787Y0280296D01*
X0046286Y0280797D01*
X0045285Y0280797D01*
X0044785Y0280296D01*
X0046286Y0278795D02*
X0047787Y0278795D01*
X0047787Y0280797D01*
X0047787Y0276481D02*
X0046787Y0275480D01*
X0043565Y0276335D02*
X0043565Y0277751D01*
X0058395Y0278785D02*
X0058395Y0280787D01*
X0058395Y0279786D02*
X0061398Y0279786D01*
X0060397Y0278785D01*
X0053869Y0249203D02*
X0052368Y0249203D01*
X0051868Y0248702D01*
X0051868Y0247701D01*
X0052368Y0247201D01*
X0053869Y0247201D01*
X0053869Y0246200D02*
X0053869Y0249203D01*
X0050554Y0248702D02*
X0050554Y0246700D01*
X0050054Y0246200D01*
X0049053Y0246200D01*
X0048553Y0246700D01*
X0048553Y0247701D01*
X0049554Y0247701D01*
X0050554Y0248702D02*
X0050054Y0249203D01*
X0049053Y0249203D01*
X0048553Y0248702D01*
X0047240Y0249203D02*
X0047240Y0246200D01*
X0045238Y0246200D01*
X0043925Y0246200D02*
X0042424Y0246200D01*
X0041923Y0246700D01*
X0041923Y0248702D01*
X0042424Y0249203D01*
X0043925Y0249203D01*
X0043925Y0246200D01*
X0043624Y0243803D02*
X0044125Y0243302D01*
X0044125Y0241300D01*
X0043624Y0240800D01*
X0042624Y0240800D01*
X0042123Y0241300D01*
X0040810Y0240800D02*
X0038808Y0240800D01*
X0039809Y0240800D02*
X0039809Y0243803D01*
X0040810Y0242802D01*
X0042123Y0243302D02*
X0042624Y0243803D01*
X0043624Y0243803D01*
X0045438Y0243803D02*
X0047440Y0243803D01*
X0047440Y0240800D01*
X0045438Y0240800D01*
X0046439Y0242301D02*
X0047440Y0242301D01*
X0048753Y0242301D02*
X0049754Y0242301D01*
X0048753Y0242301D02*
X0048753Y0241300D01*
X0049253Y0240800D01*
X0050254Y0240800D01*
X0050754Y0241300D01*
X0050754Y0243302D01*
X0050254Y0243803D01*
X0049253Y0243803D01*
X0048753Y0243302D01*
X0052068Y0243302D02*
X0052568Y0243803D01*
X0054069Y0243803D01*
X0054069Y0240800D01*
X0054069Y0241801D02*
X0052568Y0241801D01*
X0052068Y0242301D01*
X0052068Y0243302D01*
X0047240Y0247701D02*
X0046239Y0247701D01*
X0045238Y0249203D02*
X0047240Y0249203D01*
X0040610Y0248202D02*
X0039609Y0249203D01*
X0039609Y0246200D01*
X0040610Y0246200D02*
X0038608Y0246200D01*
D13*
X0055595Y0242000D02*
X0057995Y0244400D01*
X0057995Y0246200D01*
X0037595Y0231800D02*
X0028195Y0231800D01*
X0028195Y0271800D01*
X0028195Y0281800D01*
X0037595Y0281800D01*
X0037595Y0271800D01*
X0037595Y0231800D01*
X0028195Y0231800D02*
X0027995Y0231800D01*
X0058395Y0261000D02*
X0058395Y0263200D01*
X0050195Y0271400D01*
X0049995Y0271400D01*
X0037595Y0271800D02*
X0028195Y0271800D01*
X0027995Y0271800D01*
X0217595Y0281800D02*
X0217595Y0291400D01*
X0227195Y0291400D01*
X0227195Y0281800D01*
X0217595Y0281800D01*
D14*
X0162066Y0271002D02*
X0162066Y0264322D01*
X0162066Y0267662D02*
X0159839Y0267662D01*
X0157613Y0271002D02*
X0162066Y0271002D01*
X0154816Y0268775D02*
X0154816Y0265435D01*
X0153702Y0264322D01*
X0150363Y0264322D01*
X0150363Y0268775D01*
X0147565Y0268775D02*
X0144226Y0268775D01*
X0143112Y0267662D01*
X0143112Y0265435D01*
X0144226Y0264322D01*
X0147565Y0264322D01*
X0147565Y0271002D01*
X0139202Y0268775D02*
X0136975Y0268775D01*
X0135862Y0267662D01*
X0135862Y0264322D01*
X0139202Y0264322D01*
X0140315Y0265435D01*
X0139202Y0266549D01*
X0135862Y0266549D01*
X0133065Y0266549D02*
X0130838Y0268775D01*
X0129725Y0268775D01*
X0127023Y0268775D02*
X0125910Y0268775D01*
X0125910Y0264322D01*
X0127023Y0264322D02*
X0124796Y0264322D01*
X0122189Y0264322D02*
X0122189Y0268775D01*
X0118850Y0268775D01*
X0117736Y0267662D01*
X0117736Y0264322D01*
X0114939Y0265435D02*
X0113826Y0264322D01*
X0111599Y0264322D01*
X0110486Y0265435D01*
X0110486Y0267662D01*
X0111599Y0268775D01*
X0113826Y0268775D01*
X0114939Y0267662D01*
X0114939Y0265435D01*
X0125910Y0271002D02*
X0125910Y0272115D01*
X0133065Y0268775D02*
X0133065Y0264322D01*
X0100439Y0264322D02*
X0100439Y0271002D01*
X0098212Y0268775D01*
X0095985Y0271002D01*
X0095985Y0264322D01*
X0093188Y0264322D02*
X0090962Y0264322D01*
X0092075Y0264322D02*
X0092075Y0268775D01*
X0093188Y0268775D01*
X0092075Y0271002D02*
X0092075Y0272115D01*
X0088355Y0268775D02*
X0085015Y0268775D01*
X0083902Y0267662D01*
X0083902Y0264322D01*
X0081105Y0264322D02*
X0078878Y0264322D01*
X0079991Y0264322D02*
X0079991Y0268775D01*
X0081105Y0268775D01*
X0079991Y0271002D02*
X0079991Y0272115D01*
X0088355Y0268775D02*
X0088355Y0264322D01*
D15*
X0195483Y0264357D02*
X0202010Y0264357D01*
X0202018Y0264353D02*
X0201250Y0264766D01*
X0200857Y0264943D01*
X0200463Y0265101D01*
X0200109Y0265239D01*
X0199498Y0265416D01*
X0198947Y0265534D01*
X0198278Y0265632D01*
X0197392Y0265691D01*
X0195483Y0265691D01*
X0195483Y0262542D01*
X0197313Y0262542D01*
X0198081Y0262483D01*
X0198672Y0262365D01*
X0199321Y0262168D01*
X0200049Y0261813D01*
X0200817Y0261302D01*
X0201349Y0260829D01*
X0202097Y0259904D01*
X0202648Y0258782D01*
X0202805Y0258211D01*
X0197471Y0258211D01*
X0197471Y0255455D01*
X0202825Y0255455D01*
X0202490Y0254530D01*
X0202195Y0253959D01*
X0201782Y0253329D01*
X0200837Y0252365D01*
X0200168Y0251892D01*
X0199420Y0251538D01*
X0198475Y0251262D01*
X0197923Y0251164D01*
X0197392Y0251124D01*
X0195502Y0251124D01*
X0195502Y0247561D01*
X0197392Y0247561D01*
X0198258Y0247620D01*
X0199085Y0247758D01*
X0199853Y0247955D01*
X0200699Y0248231D01*
X0201723Y0248743D01*
X0202727Y0249372D01*
X0203534Y0250081D01*
X0204144Y0250731D01*
X0204597Y0251302D01*
X0205148Y0252148D01*
X0205620Y0253113D01*
X0206034Y0254333D01*
X0206250Y0255435D01*
X0206329Y0256557D01*
X0206290Y0257620D01*
X0206112Y0258664D01*
X0205916Y0259353D01*
X0205699Y0259963D01*
X0205246Y0260928D01*
X0204794Y0261695D01*
X0204341Y0262306D01*
X0203691Y0263034D01*
X0203238Y0263447D01*
X0202786Y0263821D01*
X0202018Y0264353D01*
X0202154Y0264258D02*
X0195483Y0264258D01*
X0195483Y0264160D02*
X0202297Y0264160D01*
X0202439Y0264061D02*
X0195483Y0264061D01*
X0195483Y0263963D02*
X0202581Y0263963D01*
X0202723Y0263864D02*
X0195483Y0263864D01*
X0195483Y0263766D02*
X0202853Y0263766D01*
X0202972Y0263667D02*
X0195483Y0263667D01*
X0195483Y0263569D02*
X0203091Y0263569D01*
X0203211Y0263470D02*
X0195483Y0263470D01*
X0195483Y0263372D02*
X0203321Y0263372D01*
X0203429Y0263273D02*
X0195483Y0263273D01*
X0195483Y0263175D02*
X0203537Y0263175D01*
X0203645Y0263076D02*
X0195483Y0263076D01*
X0195483Y0262978D02*
X0203741Y0262978D01*
X0203829Y0262879D02*
X0195483Y0262879D01*
X0195483Y0262781D02*
X0203917Y0262781D01*
X0204005Y0262682D02*
X0195483Y0262682D01*
X0195483Y0262584D02*
X0204093Y0262584D01*
X0204181Y0262485D02*
X0198048Y0262485D01*
X0198561Y0262387D02*
X0204268Y0262387D01*
X0204354Y0262288D02*
X0198924Y0262288D01*
X0199249Y0262190D02*
X0204427Y0262190D01*
X0204500Y0262091D02*
X0199479Y0262091D01*
X0199681Y0261993D02*
X0204573Y0261993D01*
X0204646Y0261894D02*
X0199884Y0261894D01*
X0200076Y0261796D02*
X0204719Y0261796D01*
X0204792Y0261697D02*
X0200224Y0261697D01*
X0200372Y0261599D02*
X0204851Y0261599D01*
X0204909Y0261500D02*
X0200519Y0261500D01*
X0200667Y0261402D02*
X0204967Y0261402D01*
X0205025Y0261303D02*
X0200815Y0261303D01*
X0200926Y0261205D02*
X0205083Y0261205D01*
X0205141Y0261106D02*
X0201037Y0261106D01*
X0201148Y0261008D02*
X0205199Y0261008D01*
X0205255Y0260909D02*
X0201259Y0260909D01*
X0201364Y0260810D02*
X0205301Y0260810D01*
X0205348Y0260712D02*
X0201443Y0260712D01*
X0201523Y0260613D02*
X0205394Y0260613D01*
X0205440Y0260515D02*
X0201603Y0260515D01*
X0201682Y0260416D02*
X0205486Y0260416D01*
X0205532Y0260318D02*
X0201762Y0260318D01*
X0201842Y0260219D02*
X0205579Y0260219D01*
X0205625Y0260121D02*
X0201921Y0260121D01*
X0202001Y0260022D02*
X0205671Y0260022D01*
X0205713Y0259924D02*
X0202081Y0259924D01*
X0202135Y0259825D02*
X0205748Y0259825D01*
X0205783Y0259727D02*
X0202184Y0259727D01*
X0202232Y0259628D02*
X0205818Y0259628D01*
X0205853Y0259530D02*
X0202280Y0259530D01*
X0202329Y0259431D02*
X0205888Y0259431D01*
X0205921Y0259333D02*
X0202377Y0259333D01*
X0202426Y0259234D02*
X0205949Y0259234D01*
X0205978Y0259136D02*
X0202474Y0259136D01*
X0202522Y0259037D02*
X0206006Y0259037D01*
X0206034Y0258939D02*
X0202571Y0258939D01*
X0202619Y0258840D02*
X0206062Y0258840D01*
X0206090Y0258742D02*
X0202659Y0258742D01*
X0202686Y0258643D02*
X0206116Y0258643D01*
X0206133Y0258545D02*
X0202713Y0258545D01*
X0202740Y0258446D02*
X0206149Y0258446D01*
X0206166Y0258348D02*
X0202768Y0258348D01*
X0202795Y0258249D02*
X0206183Y0258249D01*
X0206200Y0258151D02*
X0197471Y0258151D01*
X0197471Y0258052D02*
X0206216Y0258052D01*
X0206233Y0257954D02*
X0197471Y0257954D01*
X0197471Y0257855D02*
X0206250Y0257855D01*
X0206267Y0257757D02*
X0197471Y0257757D01*
X0197471Y0257658D02*
X0206283Y0257658D01*
X0206292Y0257560D02*
X0197471Y0257560D01*
X0197471Y0257461D02*
X0206296Y0257461D01*
X0206299Y0257363D02*
X0197471Y0257363D01*
X0197471Y0257264D02*
X0206303Y0257264D01*
X0206306Y0257166D02*
X0197471Y0257166D01*
X0197471Y0257067D02*
X0206310Y0257067D01*
X0206314Y0256969D02*
X0197471Y0256969D01*
X0197471Y0256870D02*
X0206317Y0256870D01*
X0206321Y0256772D02*
X0197471Y0256772D01*
X0197471Y0256673D02*
X0206325Y0256673D01*
X0206328Y0256574D02*
X0197471Y0256574D01*
X0197471Y0256476D02*
X0206323Y0256476D01*
X0206316Y0256377D02*
X0197471Y0256377D01*
X0197471Y0256279D02*
X0206309Y0256279D01*
X0206303Y0256180D02*
X0197471Y0256180D01*
X0197471Y0256082D02*
X0206296Y0256082D01*
X0206289Y0255983D02*
X0197471Y0255983D01*
X0197471Y0255885D02*
X0206282Y0255885D01*
X0206275Y0255786D02*
X0197471Y0255786D01*
X0197471Y0255688D02*
X0206268Y0255688D01*
X0206261Y0255589D02*
X0197471Y0255589D01*
X0197471Y0255491D02*
X0206254Y0255491D01*
X0206242Y0255392D02*
X0202802Y0255392D01*
X0202767Y0255294D02*
X0206222Y0255294D01*
X0206203Y0255195D02*
X0202731Y0255195D01*
X0202695Y0255097D02*
X0206184Y0255097D01*
X0206164Y0254998D02*
X0202660Y0254998D01*
X0202624Y0254900D02*
X0206145Y0254900D01*
X0206126Y0254801D02*
X0202589Y0254801D01*
X0202553Y0254703D02*
X0206106Y0254703D01*
X0206087Y0254604D02*
X0202517Y0254604D01*
X0202478Y0254506D02*
X0206068Y0254506D01*
X0206048Y0254407D02*
X0202427Y0254407D01*
X0202376Y0254309D02*
X0206025Y0254309D01*
X0205992Y0254210D02*
X0202325Y0254210D01*
X0202274Y0254112D02*
X0205959Y0254112D01*
X0205925Y0254013D02*
X0202223Y0254013D01*
X0202166Y0253915D02*
X0205892Y0253915D01*
X0205859Y0253816D02*
X0202101Y0253816D01*
X0202037Y0253718D02*
X0205825Y0253718D01*
X0205792Y0253619D02*
X0201972Y0253619D01*
X0201907Y0253521D02*
X0205759Y0253521D01*
X0205725Y0253422D02*
X0201843Y0253422D01*
X0201776Y0253324D02*
X0205692Y0253324D01*
X0205658Y0253225D02*
X0201680Y0253225D01*
X0201583Y0253127D02*
X0205625Y0253127D01*
X0205579Y0253028D02*
X0201487Y0253028D01*
X0201390Y0252930D02*
X0205531Y0252930D01*
X0205482Y0252831D02*
X0201294Y0252831D01*
X0201197Y0252733D02*
X0205434Y0252733D01*
X0205386Y0252634D02*
X0201101Y0252634D01*
X0201004Y0252536D02*
X0205338Y0252536D01*
X0205289Y0252437D02*
X0200908Y0252437D01*
X0200800Y0252339D02*
X0205241Y0252339D01*
X0205193Y0252240D02*
X0200660Y0252240D01*
X0200521Y0252141D02*
X0205144Y0252141D01*
X0205079Y0252043D02*
X0200381Y0252043D01*
X0200242Y0251944D02*
X0205015Y0251944D01*
X0204951Y0251846D02*
X0200070Y0251846D01*
X0199862Y0251747D02*
X0204887Y0251747D01*
X0204823Y0251649D02*
X0199654Y0251649D01*
X0199446Y0251550D02*
X0204759Y0251550D01*
X0204695Y0251452D02*
X0199125Y0251452D01*
X0198787Y0251353D02*
X0204630Y0251353D01*
X0204560Y0251255D02*
X0198434Y0251255D01*
X0197823Y0251156D02*
X0204482Y0251156D01*
X0204403Y0251058D02*
X0195502Y0251058D01*
X0195502Y0250959D02*
X0204325Y0250959D01*
X0204247Y0250861D02*
X0195502Y0250861D01*
X0195502Y0250762D02*
X0204169Y0250762D01*
X0204081Y0250664D02*
X0195502Y0250664D01*
X0195502Y0250565D02*
X0203989Y0250565D01*
X0203896Y0250467D02*
X0195502Y0250467D01*
X0195502Y0250368D02*
X0203803Y0250368D01*
X0203711Y0250270D02*
X0195502Y0250270D01*
X0195502Y0250171D02*
X0203618Y0250171D01*
X0203524Y0250073D02*
X0195502Y0250073D01*
X0195502Y0249974D02*
X0203412Y0249974D01*
X0203300Y0249876D02*
X0195502Y0249876D01*
X0195502Y0249777D02*
X0203188Y0249777D01*
X0203075Y0249679D02*
X0195502Y0249679D01*
X0195502Y0249580D02*
X0202963Y0249580D01*
X0202851Y0249482D02*
X0195502Y0249482D01*
X0195502Y0249383D02*
X0202739Y0249383D01*
X0202587Y0249285D02*
X0195502Y0249285D01*
X0195502Y0249186D02*
X0202430Y0249186D01*
X0202273Y0249088D02*
X0195502Y0249088D01*
X0195502Y0248989D02*
X0202116Y0248989D01*
X0201959Y0248891D02*
X0195502Y0248891D01*
X0195502Y0248792D02*
X0201802Y0248792D01*
X0201625Y0248694D02*
X0195502Y0248694D01*
X0195502Y0248595D02*
X0201428Y0248595D01*
X0201231Y0248497D02*
X0195502Y0248497D01*
X0195502Y0248398D02*
X0201034Y0248398D01*
X0200837Y0248300D02*
X0195502Y0248300D01*
X0195502Y0248201D02*
X0200608Y0248201D01*
X0200305Y0248103D02*
X0195502Y0248103D01*
X0195502Y0248004D02*
X0200003Y0248004D01*
X0199659Y0247905D02*
X0195502Y0247905D01*
X0195502Y0247807D02*
X0199275Y0247807D01*
X0198786Y0247708D02*
X0195502Y0247708D01*
X0195502Y0247610D02*
X0198104Y0247610D01*
X0210837Y0247610D02*
X0213027Y0247610D01*
X0213160Y0247620D02*
X0213888Y0247739D01*
X0214656Y0247916D01*
X0215286Y0248113D01*
X0215738Y0248290D01*
X0216270Y0248526D01*
X0216762Y0248782D01*
X0217372Y0249176D01*
X0217845Y0249510D01*
X0218298Y0249904D01*
X0218652Y0250239D01*
X0219105Y0250731D01*
X0219439Y0251124D01*
X0219754Y0251597D01*
X0220089Y0252109D01*
X0220443Y0252778D01*
X0220660Y0253309D01*
X0220857Y0253880D01*
X0221073Y0254668D01*
X0221191Y0255278D01*
X0221270Y0255987D01*
X0221290Y0256557D01*
X0221270Y0257148D01*
X0221250Y0257404D01*
X0221211Y0257798D01*
X0221152Y0258231D01*
X0221014Y0258880D01*
X0220857Y0259392D01*
X0220719Y0259786D01*
X0220581Y0260160D01*
X0220345Y0260652D01*
X0220187Y0260987D01*
X0219853Y0261538D01*
X0219656Y0261813D01*
X0219498Y0262050D01*
X0219341Y0262266D01*
X0218927Y0262739D01*
X0218691Y0262994D01*
X0218376Y0263290D01*
X0218101Y0263526D01*
X0217727Y0263841D01*
X0217215Y0264215D01*
X0216526Y0264609D01*
X0215719Y0265002D01*
X0214872Y0265298D01*
X0214046Y0265514D01*
X0213258Y0265632D01*
X0212372Y0265711D01*
X0210837Y0265711D01*
X0210837Y0262542D01*
X0212313Y0262542D01*
X0212845Y0262502D01*
X0213357Y0262424D01*
X0213711Y0262345D01*
X0214065Y0262246D01*
X0214853Y0261912D01*
X0215522Y0261498D01*
X0216073Y0261046D01*
X0216526Y0260593D01*
X0216959Y0260042D01*
X0217274Y0259491D01*
X0217569Y0258841D01*
X0217805Y0258132D01*
X0217923Y0257384D01*
X0217943Y0256636D01*
X0217884Y0256065D01*
X0217746Y0255376D01*
X0217549Y0254746D01*
X0217235Y0254057D01*
X0216801Y0253408D01*
X0216329Y0252857D01*
X0215837Y0252404D01*
X0215286Y0252050D01*
X0214715Y0251695D01*
X0214282Y0251498D01*
X0213672Y0251302D01*
X0213120Y0251183D01*
X0212707Y0251124D01*
X0210837Y0251124D01*
X0210837Y0247561D01*
X0212412Y0247561D01*
X0213160Y0247620D01*
X0213702Y0247708D02*
X0210837Y0247708D01*
X0210837Y0247807D02*
X0214184Y0247807D01*
X0214611Y0247905D02*
X0210837Y0247905D01*
X0210837Y0248004D02*
X0214938Y0248004D01*
X0215253Y0248103D02*
X0210837Y0248103D01*
X0210837Y0248201D02*
X0215512Y0248201D01*
X0215760Y0248300D02*
X0210837Y0248300D01*
X0210837Y0248398D02*
X0215982Y0248398D01*
X0216204Y0248497D02*
X0210837Y0248497D01*
X0210837Y0248595D02*
X0216403Y0248595D01*
X0216592Y0248694D02*
X0210837Y0248694D01*
X0210837Y0248792D02*
X0216778Y0248792D01*
X0216931Y0248891D02*
X0210837Y0248891D01*
X0210837Y0248989D02*
X0217083Y0248989D01*
X0217236Y0249088D02*
X0210837Y0249088D01*
X0210837Y0249186D02*
X0217387Y0249186D01*
X0217526Y0249285D02*
X0210837Y0249285D01*
X0210837Y0249383D02*
X0217665Y0249383D01*
X0217804Y0249482D02*
X0210837Y0249482D01*
X0210837Y0249580D02*
X0217925Y0249580D01*
X0218038Y0249679D02*
X0210837Y0249679D01*
X0210837Y0249777D02*
X0218152Y0249777D01*
X0218265Y0249876D02*
X0210837Y0249876D01*
X0210837Y0249974D02*
X0218372Y0249974D01*
X0218476Y0250073D02*
X0210837Y0250073D01*
X0210837Y0250171D02*
X0218581Y0250171D01*
X0218681Y0250270D02*
X0210837Y0250270D01*
X0210837Y0250368D02*
X0218771Y0250368D01*
X0218862Y0250467D02*
X0210837Y0250467D01*
X0210837Y0250565D02*
X0218952Y0250565D01*
X0219043Y0250664D02*
X0210837Y0250664D01*
X0210837Y0250762D02*
X0219131Y0250762D01*
X0219215Y0250861D02*
X0210837Y0250861D01*
X0210837Y0250959D02*
X0219299Y0250959D01*
X0219383Y0251058D02*
X0210837Y0251058D01*
X0212931Y0251156D02*
X0219461Y0251156D01*
X0219526Y0251255D02*
X0213454Y0251255D01*
X0213832Y0251353D02*
X0219592Y0251353D01*
X0219658Y0251452D02*
X0214138Y0251452D01*
X0214396Y0251550D02*
X0219723Y0251550D01*
X0219788Y0251649D02*
X0214613Y0251649D01*
X0214799Y0251747D02*
X0219853Y0251747D01*
X0219917Y0251846D02*
X0214958Y0251846D01*
X0215116Y0251944D02*
X0219981Y0251944D01*
X0220046Y0252043D02*
X0215275Y0252043D01*
X0215429Y0252141D02*
X0220106Y0252141D01*
X0220158Y0252240D02*
X0215582Y0252240D01*
X0215735Y0252339D02*
X0220211Y0252339D01*
X0220263Y0252437D02*
X0215873Y0252437D01*
X0215980Y0252536D02*
X0220315Y0252536D01*
X0220367Y0252634D02*
X0216087Y0252634D01*
X0216194Y0252733D02*
X0220419Y0252733D01*
X0220465Y0252831D02*
X0216301Y0252831D01*
X0216391Y0252930D02*
X0220505Y0252930D01*
X0220545Y0253028D02*
X0216476Y0253028D01*
X0216560Y0253127D02*
X0220585Y0253127D01*
X0220625Y0253225D02*
X0216645Y0253225D01*
X0216729Y0253324D02*
X0220665Y0253324D01*
X0220699Y0253422D02*
X0216811Y0253422D01*
X0216877Y0253521D02*
X0220733Y0253521D01*
X0220766Y0253619D02*
X0216942Y0253619D01*
X0217008Y0253718D02*
X0220800Y0253718D01*
X0220834Y0253816D02*
X0217074Y0253816D01*
X0217139Y0253915D02*
X0220866Y0253915D01*
X0220893Y0254013D02*
X0217205Y0254013D01*
X0217259Y0254112D02*
X0220920Y0254112D01*
X0220947Y0254210D02*
X0217304Y0254210D01*
X0217349Y0254309D02*
X0220974Y0254309D01*
X0221001Y0254407D02*
X0217394Y0254407D01*
X0217439Y0254506D02*
X0221029Y0254506D01*
X0221056Y0254604D02*
X0217484Y0254604D01*
X0217530Y0254703D02*
X0221080Y0254703D01*
X0221099Y0254801D02*
X0217567Y0254801D01*
X0217597Y0254900D02*
X0221118Y0254900D01*
X0221137Y0254998D02*
X0217628Y0254998D01*
X0217659Y0255097D02*
X0221156Y0255097D01*
X0221175Y0255195D02*
X0217690Y0255195D01*
X0217721Y0255294D02*
X0221193Y0255294D01*
X0221204Y0255392D02*
X0217750Y0255392D01*
X0217769Y0255491D02*
X0221215Y0255491D01*
X0221226Y0255589D02*
X0217789Y0255589D01*
X0217809Y0255688D02*
X0221237Y0255688D01*
X0221248Y0255786D02*
X0217828Y0255786D01*
X0217848Y0255885D02*
X0221259Y0255885D01*
X0221270Y0255983D02*
X0217868Y0255983D01*
X0217886Y0256082D02*
X0221273Y0256082D01*
X0221277Y0256180D02*
X0217896Y0256180D01*
X0217906Y0256279D02*
X0221280Y0256279D01*
X0221283Y0256377D02*
X0217916Y0256377D01*
X0217927Y0256476D02*
X0221287Y0256476D01*
X0221289Y0256574D02*
X0217937Y0256574D01*
X0217942Y0256673D02*
X0221286Y0256673D01*
X0221283Y0256772D02*
X0217940Y0256772D01*
X0217937Y0256870D02*
X0221279Y0256870D01*
X0221276Y0256969D02*
X0217934Y0256969D01*
X0217932Y0257067D02*
X0221273Y0257067D01*
X0221269Y0257166D02*
X0217929Y0257166D01*
X0217927Y0257264D02*
X0221261Y0257264D01*
X0221253Y0257363D02*
X0217924Y0257363D01*
X0217911Y0257461D02*
X0221245Y0257461D01*
X0221235Y0257560D02*
X0217896Y0257560D01*
X0217880Y0257658D02*
X0221225Y0257658D01*
X0221215Y0257757D02*
X0217865Y0257757D01*
X0217849Y0257855D02*
X0221203Y0257855D01*
X0221190Y0257954D02*
X0217834Y0257954D01*
X0217818Y0258052D02*
X0221176Y0258052D01*
X0221163Y0258151D02*
X0217799Y0258151D01*
X0217766Y0258249D02*
X0221148Y0258249D01*
X0221127Y0258348D02*
X0217734Y0258348D01*
X0217701Y0258446D02*
X0221106Y0258446D01*
X0221085Y0258545D02*
X0217668Y0258545D01*
X0217635Y0258643D02*
X0221064Y0258643D01*
X0221043Y0258742D02*
X0217602Y0258742D01*
X0217569Y0258840D02*
X0221023Y0258840D01*
X0220996Y0258939D02*
X0217525Y0258939D01*
X0217480Y0259037D02*
X0220966Y0259037D01*
X0220935Y0259136D02*
X0217435Y0259136D01*
X0217390Y0259234D02*
X0220905Y0259234D01*
X0220875Y0259333D02*
X0217346Y0259333D01*
X0217301Y0259431D02*
X0220843Y0259431D01*
X0220808Y0259530D02*
X0217251Y0259530D01*
X0217195Y0259628D02*
X0220774Y0259628D01*
X0220739Y0259727D02*
X0217139Y0259727D01*
X0217083Y0259825D02*
X0220704Y0259825D01*
X0220668Y0259924D02*
X0217026Y0259924D01*
X0216970Y0260022D02*
X0220632Y0260022D01*
X0220595Y0260121D02*
X0216897Y0260121D01*
X0216819Y0260219D02*
X0220552Y0260219D01*
X0220505Y0260318D02*
X0216742Y0260318D01*
X0216665Y0260416D02*
X0220458Y0260416D01*
X0220411Y0260515D02*
X0216587Y0260515D01*
X0216505Y0260613D02*
X0220363Y0260613D01*
X0220317Y0260712D02*
X0216407Y0260712D01*
X0216308Y0260810D02*
X0220270Y0260810D01*
X0220224Y0260909D02*
X0216210Y0260909D01*
X0216111Y0261008D02*
X0220175Y0261008D01*
X0220115Y0261106D02*
X0216000Y0261106D01*
X0215880Y0261205D02*
X0220055Y0261205D01*
X0219995Y0261303D02*
X0215760Y0261303D01*
X0215640Y0261402D02*
X0219935Y0261402D01*
X0219876Y0261500D02*
X0215519Y0261500D01*
X0215360Y0261599D02*
X0219809Y0261599D01*
X0219739Y0261697D02*
X0215200Y0261697D01*
X0215041Y0261796D02*
X0219668Y0261796D01*
X0219602Y0261894D02*
X0214881Y0261894D01*
X0214662Y0261993D02*
X0219536Y0261993D01*
X0219468Y0262091D02*
X0214431Y0262091D01*
X0214199Y0262190D02*
X0219396Y0262190D01*
X0219322Y0262288D02*
X0213915Y0262288D01*
X0213523Y0262387D02*
X0219235Y0262387D01*
X0219149Y0262485D02*
X0212956Y0262485D01*
X0210837Y0262584D02*
X0219063Y0262584D01*
X0218977Y0262682D02*
X0210837Y0262682D01*
X0210837Y0262781D02*
X0218889Y0262781D01*
X0218798Y0262879D02*
X0210837Y0262879D01*
X0210837Y0262978D02*
X0218707Y0262978D01*
X0218604Y0263076D02*
X0210837Y0263076D01*
X0210837Y0263175D02*
X0218499Y0263175D01*
X0218394Y0263273D02*
X0210837Y0263273D01*
X0210837Y0263372D02*
X0218281Y0263372D01*
X0218166Y0263470D02*
X0210837Y0263470D01*
X0210837Y0263569D02*
X0218050Y0263569D01*
X0217933Y0263667D02*
X0210837Y0263667D01*
X0210837Y0263766D02*
X0217816Y0263766D01*
X0217695Y0263864D02*
X0210837Y0263864D01*
X0210837Y0263963D02*
X0217560Y0263963D01*
X0217425Y0264061D02*
X0210837Y0264061D01*
X0210837Y0264160D02*
X0217290Y0264160D01*
X0217139Y0264258D02*
X0210837Y0264258D01*
X0210837Y0264357D02*
X0216966Y0264357D01*
X0216794Y0264455D02*
X0210837Y0264455D01*
X0210837Y0264554D02*
X0216622Y0264554D01*
X0216436Y0264652D02*
X0210837Y0264652D01*
X0210837Y0264751D02*
X0216234Y0264751D01*
X0216032Y0264849D02*
X0210837Y0264849D01*
X0210837Y0264948D02*
X0215830Y0264948D01*
X0215592Y0265046D02*
X0210837Y0265046D01*
X0210837Y0265145D02*
X0215310Y0265145D01*
X0215028Y0265243D02*
X0210837Y0265243D01*
X0210837Y0265342D02*
X0214703Y0265342D01*
X0214327Y0265441D02*
X0210837Y0265441D01*
X0210837Y0265539D02*
X0213880Y0265539D01*
X0213199Y0265638D02*
X0210837Y0265638D01*
X0201827Y0264455D02*
X0195483Y0264455D01*
X0195483Y0264554D02*
X0201644Y0264554D01*
X0201461Y0264652D02*
X0195483Y0264652D01*
X0195483Y0264751D02*
X0201279Y0264751D01*
X0201065Y0264849D02*
X0195483Y0264849D01*
X0195483Y0264948D02*
X0200845Y0264948D01*
X0200599Y0265046D02*
X0195483Y0265046D01*
X0195483Y0265145D02*
X0200349Y0265145D01*
X0200092Y0265243D02*
X0195483Y0265243D01*
X0195483Y0265342D02*
X0199752Y0265342D01*
X0199383Y0265441D02*
X0195483Y0265441D01*
X0195483Y0265539D02*
X0198912Y0265539D01*
X0198199Y0265638D02*
X0195483Y0265638D01*
D16*
X0190190Y0266257D02*
X0177592Y0253265D01*
X0180466Y0254879D02*
X0180427Y0255233D01*
X0180466Y0255587D01*
X0180623Y0255863D01*
X0180860Y0256020D01*
X0180938Y0256139D02*
X0181293Y0256178D01*
X0181686Y0256139D01*
X0182080Y0255902D01*
X0182198Y0255666D01*
X0182316Y0255391D01*
X0182316Y0255076D01*
X0182159Y0254721D01*
X0181962Y0254485D01*
X0181686Y0254328D01*
X0181332Y0254288D01*
X0180938Y0254367D01*
X0180663Y0254564D01*
X0180466Y0254879D01*
X0181135Y0255154D02*
X0181214Y0255036D01*
X0181332Y0254997D01*
X0181450Y0254997D01*
X0181568Y0255076D01*
X0181608Y0255194D01*
X0181608Y0255312D01*
X0181529Y0255430D01*
X0181411Y0255469D01*
X0181372Y0255272D01*
X0181332Y0255469D02*
X0181214Y0255430D01*
X0181135Y0255312D01*
X0181135Y0255154D01*
X0180938Y0256139D02*
X0180387Y0262438D01*
X0179521Y0262438D01*
X0179521Y0263580D01*
X0180269Y0263580D01*
X0180663Y0263580D01*
X0180663Y0262438D01*
X0180387Y0262438D01*
X0180269Y0263580D02*
X0180269Y0264288D01*
X0180427Y0264721D01*
X0180702Y0265076D01*
X0180978Y0265312D01*
X0181332Y0265469D01*
X0181844Y0265587D01*
X0182316Y0265666D01*
X0182356Y0265391D02*
X0182356Y0265981D01*
X0184088Y0265981D01*
X0184088Y0265509D01*
X0184127Y0265391D02*
X0182356Y0265391D01*
X0184127Y0265391D02*
X0184127Y0265666D01*
X0184364Y0265666D01*
X0184679Y0265627D01*
X0185033Y0265587D01*
X0185505Y0265430D01*
X0185899Y0265272D01*
X0186214Y0265036D01*
X0186450Y0264721D01*
X0186568Y0264209D01*
X0185781Y0255036D01*
X0185269Y0255036D01*
X0185269Y0254170D01*
X0184994Y0254052D02*
X0184994Y0255036D01*
X0185269Y0255036D01*
X0184994Y0255036D02*
X0182277Y0255036D01*
X0184994Y0254052D02*
X0185584Y0254052D01*
X0185584Y0254997D01*
X0190190Y0252871D02*
X0177198Y0266257D01*
X0179600Y0264879D02*
X0179560Y0264682D01*
X0179600Y0264524D01*
X0179679Y0264446D01*
X0179875Y0264367D01*
X0179954Y0264367D01*
X0187198Y0264406D01*
X0187198Y0264170D01*
X0179954Y0264131D01*
X0179954Y0264367D01*
X0180112Y0264367D01*
X0180151Y0264524D01*
X0179915Y0264682D01*
X0180190Y0264918D02*
X0180033Y0265036D01*
X0179836Y0265036D01*
X0179718Y0264997D01*
X0179600Y0264879D01*
X0180190Y0264918D02*
X0180269Y0264761D01*
X0181923Y0262083D02*
X0184127Y0262083D01*
X0184127Y0261729D01*
X0182120Y0261729D01*
X0181923Y0261375D02*
X0181923Y0262083D01*
X0181923Y0261375D02*
X0184127Y0261375D01*
X0184127Y0261729D01*
X0185545Y0264446D02*
X0185545Y0265706D01*
X0185860Y0265706D01*
X0185860Y0265666D02*
X0185860Y0264446D01*
X0185545Y0264446D01*
D17*
X0183340Y0248776D03*
D18*
X0174172Y0251739D02*
X0173935Y0251384D01*
X0173738Y0251187D01*
X0173305Y0250912D01*
X0172912Y0250833D01*
X0172124Y0250833D01*
X0171809Y0250912D01*
X0171612Y0250991D01*
X0171691Y0251463D01*
X0171770Y0251463D01*
X0172164Y0251384D01*
X0172754Y0251345D01*
X0172951Y0251463D01*
X0173266Y0251620D01*
X0173423Y0251817D01*
X0173542Y0252014D01*
X0173660Y0252290D01*
X0173660Y0252880D01*
X0173542Y0253156D01*
X0173423Y0253353D01*
X0173266Y0253510D01*
X0173030Y0253668D01*
X0172754Y0253786D01*
X0172124Y0253786D01*
X0171731Y0253707D01*
X0171612Y0254180D01*
X0171612Y0254219D01*
X0171770Y0254298D01*
X0172085Y0254376D01*
X0172833Y0254376D01*
X0173109Y0254298D01*
X0173345Y0254180D01*
X0173542Y0254101D01*
X0173817Y0253904D01*
X0173975Y0253668D01*
X0174172Y0253353D01*
X0174290Y0253038D01*
X0174290Y0252172D01*
X0174172Y0251739D01*
X0174163Y0251726D02*
X0173351Y0251726D01*
X0173320Y0251688D02*
X0174138Y0251688D01*
X0174113Y0251651D02*
X0173290Y0251651D01*
X0173250Y0251613D02*
X0174088Y0251613D01*
X0174062Y0251575D02*
X0173175Y0251575D01*
X0173099Y0251537D02*
X0174037Y0251537D01*
X0174012Y0251499D02*
X0173023Y0251499D01*
X0172948Y0251461D02*
X0173987Y0251461D01*
X0173961Y0251423D02*
X0172885Y0251423D01*
X0172822Y0251385D02*
X0173936Y0251385D01*
X0173899Y0251347D02*
X0172759Y0251347D01*
X0172715Y0251347D02*
X0171672Y0251347D01*
X0171666Y0251310D02*
X0173861Y0251310D01*
X0173823Y0251272D02*
X0171659Y0251272D01*
X0171653Y0251234D02*
X0173785Y0251234D01*
X0173747Y0251196D02*
X0171647Y0251196D01*
X0171640Y0251158D02*
X0173692Y0251158D01*
X0173633Y0251120D02*
X0171634Y0251120D01*
X0171628Y0251082D02*
X0173573Y0251082D01*
X0173514Y0251044D02*
X0171621Y0251044D01*
X0171615Y0251007D02*
X0173454Y0251007D01*
X0173395Y0250969D02*
X0171667Y0250969D01*
X0171762Y0250931D02*
X0173335Y0250931D01*
X0173211Y0250893D02*
X0171885Y0250893D01*
X0172036Y0250855D02*
X0173021Y0250855D01*
X0173381Y0251764D02*
X0174179Y0251764D01*
X0174189Y0251802D02*
X0173411Y0251802D01*
X0173437Y0251840D02*
X0174199Y0251840D01*
X0174209Y0251878D02*
X0173460Y0251878D01*
X0173483Y0251916D02*
X0174220Y0251916D01*
X0174230Y0251954D02*
X0173505Y0251954D01*
X0173528Y0251991D02*
X0174240Y0251991D01*
X0174251Y0252029D02*
X0173548Y0252029D01*
X0173564Y0252067D02*
X0174261Y0252067D01*
X0174271Y0252105D02*
X0173581Y0252105D01*
X0173597Y0252143D02*
X0174282Y0252143D01*
X0174290Y0252181D02*
X0173613Y0252181D01*
X0173629Y0252219D02*
X0174290Y0252219D01*
X0174290Y0252257D02*
X0173646Y0252257D01*
X0173660Y0252295D02*
X0174290Y0252295D01*
X0174290Y0252332D02*
X0173660Y0252332D01*
X0173660Y0252370D02*
X0174290Y0252370D01*
X0174290Y0252408D02*
X0173660Y0252408D01*
X0173660Y0252446D02*
X0174290Y0252446D01*
X0174290Y0252484D02*
X0173660Y0252484D01*
X0173660Y0252522D02*
X0174290Y0252522D01*
X0174290Y0252560D02*
X0173660Y0252560D01*
X0173660Y0252598D02*
X0174290Y0252598D01*
X0174290Y0252635D02*
X0173660Y0252635D01*
X0173660Y0252673D02*
X0174290Y0252673D01*
X0174290Y0252711D02*
X0173660Y0252711D01*
X0173660Y0252749D02*
X0174290Y0252749D01*
X0174290Y0252787D02*
X0173660Y0252787D01*
X0173660Y0252825D02*
X0174290Y0252825D01*
X0174290Y0252863D02*
X0173660Y0252863D01*
X0173651Y0252901D02*
X0174290Y0252901D01*
X0174290Y0252939D02*
X0173635Y0252939D01*
X0173619Y0252976D02*
X0174290Y0252976D01*
X0174290Y0253014D02*
X0173602Y0253014D01*
X0173586Y0253052D02*
X0174284Y0253052D01*
X0174270Y0253090D02*
X0173570Y0253090D01*
X0173554Y0253128D02*
X0174256Y0253128D01*
X0174242Y0253166D02*
X0173536Y0253166D01*
X0173513Y0253204D02*
X0174227Y0253204D01*
X0174213Y0253242D02*
X0173490Y0253242D01*
X0173467Y0253279D02*
X0174199Y0253279D01*
X0174185Y0253317D02*
X0173445Y0253317D01*
X0173421Y0253355D02*
X0174170Y0253355D01*
X0174146Y0253393D02*
X0173383Y0253393D01*
X0173345Y0253431D02*
X0174123Y0253431D01*
X0174099Y0253469D02*
X0173307Y0253469D01*
X0173270Y0253507D02*
X0174075Y0253507D01*
X0174052Y0253545D02*
X0173214Y0253545D01*
X0173158Y0253582D02*
X0174028Y0253582D01*
X0174004Y0253620D02*
X0173101Y0253620D01*
X0173044Y0253658D02*
X0173981Y0253658D01*
X0173956Y0253696D02*
X0172963Y0253696D01*
X0172875Y0253734D02*
X0173930Y0253734D01*
X0173905Y0253772D02*
X0172787Y0253772D01*
X0172960Y0254340D02*
X0171940Y0254340D01*
X0171788Y0254302D02*
X0173092Y0254302D01*
X0173175Y0254264D02*
X0171703Y0254264D01*
X0171628Y0254226D02*
X0173251Y0254226D01*
X0173327Y0254189D02*
X0171612Y0254189D01*
X0171620Y0254151D02*
X0173417Y0254151D01*
X0173511Y0254113D02*
X0171629Y0254113D01*
X0171639Y0254075D02*
X0173578Y0254075D01*
X0173631Y0254037D02*
X0171648Y0254037D01*
X0171658Y0253999D02*
X0173684Y0253999D01*
X0173737Y0253961D02*
X0171667Y0253961D01*
X0171676Y0253923D02*
X0173790Y0253923D01*
X0173829Y0253886D02*
X0171686Y0253886D01*
X0171695Y0253848D02*
X0173855Y0253848D01*
X0173880Y0253810D02*
X0171705Y0253810D01*
X0171714Y0253772D02*
X0172055Y0253772D01*
X0171865Y0253734D02*
X0171724Y0253734D01*
X0170983Y0253734D02*
X0169760Y0253734D01*
X0169723Y0253746D02*
X0169172Y0253746D01*
X0168935Y0253628D01*
X0168778Y0253392D01*
X0168699Y0253235D01*
X0168699Y0250912D01*
X0168069Y0250912D01*
X0168069Y0253431D01*
X0168804Y0253431D01*
X0168829Y0253469D02*
X0168082Y0253469D01*
X0168069Y0253431D02*
X0168148Y0253668D01*
X0168227Y0253825D01*
X0168305Y0253943D01*
X0168463Y0254101D01*
X0168581Y0254180D01*
X0168738Y0254258D01*
X0168935Y0254337D01*
X0169053Y0254376D01*
X0169447Y0254376D01*
X0169723Y0254298D01*
X0170038Y0254140D01*
X0170195Y0253983D01*
X0170313Y0253825D01*
X0170353Y0253825D01*
X0170353Y0255872D01*
X0170983Y0255872D01*
X0170983Y0250912D01*
X0170353Y0250912D01*
X0170353Y0253117D01*
X0170195Y0253431D01*
X0170983Y0253431D01*
X0170983Y0253469D02*
X0170158Y0253469D01*
X0170195Y0253431D02*
X0169959Y0253668D01*
X0169723Y0253746D01*
X0169874Y0253696D02*
X0170983Y0253696D01*
X0170983Y0253658D02*
X0169968Y0253658D01*
X0170006Y0253620D02*
X0170983Y0253620D01*
X0170983Y0253582D02*
X0170044Y0253582D01*
X0170082Y0253545D02*
X0170983Y0253545D01*
X0170983Y0253507D02*
X0170120Y0253507D01*
X0170214Y0253393D02*
X0170983Y0253393D01*
X0170983Y0253355D02*
X0170233Y0253355D01*
X0170252Y0253317D02*
X0170983Y0253317D01*
X0170983Y0253279D02*
X0170271Y0253279D01*
X0170290Y0253242D02*
X0170983Y0253242D01*
X0170983Y0253204D02*
X0170309Y0253204D01*
X0170328Y0253166D02*
X0170983Y0253166D01*
X0170983Y0253128D02*
X0170347Y0253128D01*
X0170353Y0253090D02*
X0170983Y0253090D01*
X0170983Y0253052D02*
X0170353Y0253052D01*
X0170353Y0253014D02*
X0170983Y0253014D01*
X0170983Y0252976D02*
X0170353Y0252976D01*
X0170353Y0252939D02*
X0170983Y0252939D01*
X0170983Y0252901D02*
X0170353Y0252901D01*
X0170353Y0252863D02*
X0170983Y0252863D01*
X0170983Y0252825D02*
X0170353Y0252825D01*
X0170353Y0252787D02*
X0170983Y0252787D01*
X0170983Y0252749D02*
X0170353Y0252749D01*
X0170353Y0252711D02*
X0170983Y0252711D01*
X0170983Y0252673D02*
X0170353Y0252673D01*
X0170353Y0252635D02*
X0170983Y0252635D01*
X0170983Y0252598D02*
X0170353Y0252598D01*
X0170353Y0252560D02*
X0170983Y0252560D01*
X0170983Y0252522D02*
X0170353Y0252522D01*
X0170353Y0252484D02*
X0170983Y0252484D01*
X0170983Y0252446D02*
X0170353Y0252446D01*
X0170353Y0252408D02*
X0170983Y0252408D01*
X0170983Y0252370D02*
X0170353Y0252370D01*
X0170353Y0252332D02*
X0170983Y0252332D01*
X0170983Y0252295D02*
X0170353Y0252295D01*
X0170353Y0252257D02*
X0170983Y0252257D01*
X0170983Y0252219D02*
X0170353Y0252219D01*
X0170353Y0252181D02*
X0170983Y0252181D01*
X0170983Y0252143D02*
X0170353Y0252143D01*
X0170353Y0252105D02*
X0170983Y0252105D01*
X0170983Y0252067D02*
X0170353Y0252067D01*
X0170353Y0252029D02*
X0170983Y0252029D01*
X0170983Y0251991D02*
X0170353Y0251991D01*
X0170353Y0251954D02*
X0170983Y0251954D01*
X0170983Y0251916D02*
X0170353Y0251916D01*
X0170353Y0251878D02*
X0170983Y0251878D01*
X0170983Y0251840D02*
X0170353Y0251840D01*
X0170353Y0251802D02*
X0170983Y0251802D01*
X0170983Y0251764D02*
X0170353Y0251764D01*
X0170353Y0251726D02*
X0170983Y0251726D01*
X0170983Y0251688D02*
X0170353Y0251688D01*
X0170353Y0251651D02*
X0170983Y0251651D01*
X0170983Y0251613D02*
X0170353Y0251613D01*
X0170353Y0251575D02*
X0170983Y0251575D01*
X0170983Y0251537D02*
X0170353Y0251537D01*
X0170353Y0251499D02*
X0170983Y0251499D01*
X0170983Y0251461D02*
X0170353Y0251461D01*
X0170353Y0251423D02*
X0170983Y0251423D01*
X0170983Y0251385D02*
X0170353Y0251385D01*
X0170353Y0251347D02*
X0170983Y0251347D01*
X0170983Y0251310D02*
X0170353Y0251310D01*
X0170353Y0251272D02*
X0170983Y0251272D01*
X0170983Y0251234D02*
X0170353Y0251234D01*
X0170353Y0251196D02*
X0170983Y0251196D01*
X0170983Y0251158D02*
X0170353Y0251158D01*
X0170353Y0251120D02*
X0170983Y0251120D01*
X0170983Y0251082D02*
X0170353Y0251082D01*
X0170353Y0251044D02*
X0170983Y0251044D01*
X0170983Y0251007D02*
X0170353Y0251007D01*
X0170353Y0250969D02*
X0170983Y0250969D01*
X0170983Y0250931D02*
X0170353Y0250931D01*
X0171678Y0251385D02*
X0172158Y0251385D01*
X0171969Y0251423D02*
X0171685Y0251423D01*
X0171691Y0251461D02*
X0171779Y0251461D01*
X0170983Y0253772D02*
X0168200Y0253772D01*
X0168219Y0253810D02*
X0170983Y0253810D01*
X0170983Y0253848D02*
X0170353Y0253848D01*
X0170353Y0253886D02*
X0170983Y0253886D01*
X0170983Y0253923D02*
X0170353Y0253923D01*
X0170353Y0253961D02*
X0170983Y0253961D01*
X0170983Y0253999D02*
X0170353Y0253999D01*
X0170353Y0254037D02*
X0170983Y0254037D01*
X0170983Y0254075D02*
X0170353Y0254075D01*
X0170353Y0254113D02*
X0170983Y0254113D01*
X0170983Y0254151D02*
X0170353Y0254151D01*
X0170353Y0254189D02*
X0170983Y0254189D01*
X0170983Y0254226D02*
X0170353Y0254226D01*
X0170353Y0254264D02*
X0170983Y0254264D01*
X0170983Y0254302D02*
X0170353Y0254302D01*
X0170353Y0254340D02*
X0170983Y0254340D01*
X0170983Y0254378D02*
X0170353Y0254378D01*
X0170353Y0254416D02*
X0170983Y0254416D01*
X0170983Y0254454D02*
X0170353Y0254454D01*
X0170353Y0254492D02*
X0170983Y0254492D01*
X0170983Y0254530D02*
X0170353Y0254530D01*
X0170353Y0254567D02*
X0170983Y0254567D01*
X0170983Y0254605D02*
X0170353Y0254605D01*
X0170353Y0254643D02*
X0170983Y0254643D01*
X0170983Y0254681D02*
X0170353Y0254681D01*
X0170353Y0254719D02*
X0170983Y0254719D01*
X0170983Y0254757D02*
X0170353Y0254757D01*
X0170353Y0254795D02*
X0170983Y0254795D01*
X0170983Y0254833D02*
X0170353Y0254833D01*
X0170353Y0254870D02*
X0170983Y0254870D01*
X0170983Y0254908D02*
X0170353Y0254908D01*
X0170353Y0254946D02*
X0170983Y0254946D01*
X0170983Y0254984D02*
X0170353Y0254984D01*
X0170353Y0255022D02*
X0170983Y0255022D01*
X0170983Y0255060D02*
X0170353Y0255060D01*
X0170353Y0255098D02*
X0170983Y0255098D01*
X0170983Y0255136D02*
X0170353Y0255136D01*
X0170353Y0255174D02*
X0170983Y0255174D01*
X0170983Y0255211D02*
X0170353Y0255211D01*
X0170353Y0255249D02*
X0170983Y0255249D01*
X0170983Y0255287D02*
X0170353Y0255287D01*
X0170353Y0255325D02*
X0170983Y0255325D01*
X0170983Y0255363D02*
X0170353Y0255363D01*
X0170353Y0255401D02*
X0170983Y0255401D01*
X0170983Y0255439D02*
X0170353Y0255439D01*
X0170353Y0255477D02*
X0170983Y0255477D01*
X0170983Y0255514D02*
X0170353Y0255514D01*
X0170353Y0255552D02*
X0170983Y0255552D01*
X0170983Y0255590D02*
X0170353Y0255590D01*
X0170353Y0255628D02*
X0170983Y0255628D01*
X0170983Y0255666D02*
X0170353Y0255666D01*
X0170353Y0255704D02*
X0170983Y0255704D01*
X0170983Y0255742D02*
X0170353Y0255742D01*
X0170353Y0255780D02*
X0170983Y0255780D01*
X0170983Y0255817D02*
X0170353Y0255817D01*
X0170353Y0255855D02*
X0170983Y0255855D01*
X0170017Y0254151D02*
X0168538Y0254151D01*
X0168481Y0254113D02*
X0170065Y0254113D01*
X0170103Y0254075D02*
X0168437Y0254075D01*
X0168399Y0254037D02*
X0170141Y0254037D01*
X0170179Y0253999D02*
X0168361Y0253999D01*
X0168323Y0253961D02*
X0170211Y0253961D01*
X0170240Y0253923D02*
X0168292Y0253923D01*
X0168267Y0253886D02*
X0170268Y0253886D01*
X0170296Y0253848D02*
X0168242Y0253848D01*
X0168181Y0253734D02*
X0169147Y0253734D01*
X0169071Y0253696D02*
X0168162Y0253696D01*
X0168145Y0253658D02*
X0168995Y0253658D01*
X0168930Y0253620D02*
X0168132Y0253620D01*
X0168119Y0253582D02*
X0168905Y0253582D01*
X0168879Y0253545D02*
X0168107Y0253545D01*
X0168094Y0253507D02*
X0168854Y0253507D01*
X0168778Y0253393D02*
X0168069Y0253393D01*
X0168069Y0253355D02*
X0168759Y0253355D01*
X0168740Y0253317D02*
X0168069Y0253317D01*
X0168069Y0253279D02*
X0168721Y0253279D01*
X0168703Y0253242D02*
X0168069Y0253242D01*
X0168069Y0253204D02*
X0168699Y0253204D01*
X0168699Y0253166D02*
X0168069Y0253166D01*
X0168069Y0253128D02*
X0168699Y0253128D01*
X0168699Y0253090D02*
X0168069Y0253090D01*
X0168069Y0253052D02*
X0168699Y0253052D01*
X0168699Y0253014D02*
X0168069Y0253014D01*
X0168069Y0252976D02*
X0168699Y0252976D01*
X0168699Y0252939D02*
X0168069Y0252939D01*
X0168069Y0252901D02*
X0168699Y0252901D01*
X0168699Y0252863D02*
X0168069Y0252863D01*
X0168069Y0252825D02*
X0168699Y0252825D01*
X0168699Y0252787D02*
X0168069Y0252787D01*
X0168069Y0252749D02*
X0168699Y0252749D01*
X0168699Y0252711D02*
X0168069Y0252711D01*
X0168069Y0252673D02*
X0168699Y0252673D01*
X0168699Y0252635D02*
X0168069Y0252635D01*
X0168069Y0252598D02*
X0168699Y0252598D01*
X0168699Y0252560D02*
X0168069Y0252560D01*
X0168069Y0252522D02*
X0168699Y0252522D01*
X0168699Y0252484D02*
X0168069Y0252484D01*
X0168069Y0252446D02*
X0168699Y0252446D01*
X0168699Y0252408D02*
X0168069Y0252408D01*
X0168069Y0252370D02*
X0168699Y0252370D01*
X0168699Y0252332D02*
X0168069Y0252332D01*
X0168069Y0252295D02*
X0168699Y0252295D01*
X0168699Y0252257D02*
X0168069Y0252257D01*
X0168069Y0252219D02*
X0168699Y0252219D01*
X0168699Y0252181D02*
X0168069Y0252181D01*
X0168069Y0252143D02*
X0168699Y0252143D01*
X0168699Y0252105D02*
X0168069Y0252105D01*
X0168069Y0252067D02*
X0168699Y0252067D01*
X0168699Y0252029D02*
X0168069Y0252029D01*
X0168069Y0251991D02*
X0168699Y0251991D01*
X0168699Y0251954D02*
X0168069Y0251954D01*
X0168069Y0251916D02*
X0168699Y0251916D01*
X0168699Y0251878D02*
X0168069Y0251878D01*
X0168069Y0251840D02*
X0168699Y0251840D01*
X0168699Y0251802D02*
X0168069Y0251802D01*
X0168069Y0251764D02*
X0168699Y0251764D01*
X0168699Y0251726D02*
X0168069Y0251726D01*
X0168069Y0251688D02*
X0168699Y0251688D01*
X0168699Y0251651D02*
X0168069Y0251651D01*
X0168069Y0251613D02*
X0168699Y0251613D01*
X0168699Y0251575D02*
X0168069Y0251575D01*
X0168069Y0251537D02*
X0168699Y0251537D01*
X0168699Y0251499D02*
X0168069Y0251499D01*
X0168069Y0251461D02*
X0168699Y0251461D01*
X0168699Y0251423D02*
X0168069Y0251423D01*
X0168069Y0251385D02*
X0168699Y0251385D01*
X0168699Y0251347D02*
X0168069Y0251347D01*
X0168069Y0251310D02*
X0168699Y0251310D01*
X0168699Y0251272D02*
X0168069Y0251272D01*
X0168069Y0251234D02*
X0168699Y0251234D01*
X0168699Y0251196D02*
X0168069Y0251196D01*
X0168069Y0251158D02*
X0168699Y0251158D01*
X0168699Y0251120D02*
X0168069Y0251120D01*
X0168069Y0251082D02*
X0168699Y0251082D01*
X0168699Y0251044D02*
X0168069Y0251044D01*
X0168069Y0251007D02*
X0168699Y0251007D01*
X0168699Y0250969D02*
X0168069Y0250969D01*
X0168069Y0250931D02*
X0168699Y0250931D01*
X0167124Y0250931D02*
X0166494Y0250931D01*
X0166494Y0250912D02*
X0167124Y0250912D01*
X0167124Y0254298D01*
X0166494Y0254298D01*
X0166494Y0250912D01*
X0166494Y0250969D02*
X0167124Y0250969D01*
X0167124Y0251007D02*
X0166494Y0251007D01*
X0166494Y0251044D02*
X0167124Y0251044D01*
X0167124Y0251082D02*
X0166494Y0251082D01*
X0166494Y0251120D02*
X0167124Y0251120D01*
X0167124Y0251158D02*
X0166494Y0251158D01*
X0166494Y0251196D02*
X0167124Y0251196D01*
X0167124Y0251234D02*
X0166494Y0251234D01*
X0166494Y0251272D02*
X0167124Y0251272D01*
X0167124Y0251310D02*
X0166494Y0251310D01*
X0166494Y0251347D02*
X0167124Y0251347D01*
X0167124Y0251385D02*
X0166494Y0251385D01*
X0166494Y0251423D02*
X0167124Y0251423D01*
X0167124Y0251461D02*
X0166494Y0251461D01*
X0166494Y0251499D02*
X0167124Y0251499D01*
X0167124Y0251537D02*
X0166494Y0251537D01*
X0166494Y0251575D02*
X0167124Y0251575D01*
X0167124Y0251613D02*
X0166494Y0251613D01*
X0166494Y0251651D02*
X0167124Y0251651D01*
X0167124Y0251688D02*
X0166494Y0251688D01*
X0166494Y0251726D02*
X0167124Y0251726D01*
X0167124Y0251764D02*
X0166494Y0251764D01*
X0166494Y0251802D02*
X0167124Y0251802D01*
X0167124Y0251840D02*
X0166494Y0251840D01*
X0166494Y0251878D02*
X0167124Y0251878D01*
X0167124Y0251916D02*
X0166494Y0251916D01*
X0166494Y0251954D02*
X0167124Y0251954D01*
X0167124Y0251991D02*
X0166494Y0251991D01*
X0166494Y0252029D02*
X0167124Y0252029D01*
X0167124Y0252067D02*
X0166494Y0252067D01*
X0166494Y0252105D02*
X0167124Y0252105D01*
X0167124Y0252143D02*
X0166494Y0252143D01*
X0166494Y0252181D02*
X0167124Y0252181D01*
X0167124Y0252219D02*
X0166494Y0252219D01*
X0166494Y0252257D02*
X0167124Y0252257D01*
X0167124Y0252295D02*
X0166494Y0252295D01*
X0166494Y0252332D02*
X0167124Y0252332D01*
X0167124Y0252370D02*
X0166494Y0252370D01*
X0166494Y0252408D02*
X0167124Y0252408D01*
X0167124Y0252446D02*
X0166494Y0252446D01*
X0166494Y0252484D02*
X0167124Y0252484D01*
X0167124Y0252522D02*
X0166494Y0252522D01*
X0166494Y0252560D02*
X0167124Y0252560D01*
X0167124Y0252598D02*
X0166494Y0252598D01*
X0166494Y0252635D02*
X0167124Y0252635D01*
X0167124Y0252673D02*
X0166494Y0252673D01*
X0166494Y0252711D02*
X0167124Y0252711D01*
X0167124Y0252749D02*
X0166494Y0252749D01*
X0166494Y0252787D02*
X0167124Y0252787D01*
X0167124Y0252825D02*
X0166494Y0252825D01*
X0166494Y0252863D02*
X0167124Y0252863D01*
X0167124Y0252901D02*
X0166494Y0252901D01*
X0166494Y0252939D02*
X0167124Y0252939D01*
X0167124Y0252976D02*
X0166494Y0252976D01*
X0166494Y0253014D02*
X0167124Y0253014D01*
X0167124Y0253052D02*
X0166494Y0253052D01*
X0166494Y0253090D02*
X0167124Y0253090D01*
X0167124Y0253128D02*
X0166494Y0253128D01*
X0166494Y0253166D02*
X0167124Y0253166D01*
X0167124Y0253204D02*
X0166494Y0253204D01*
X0166494Y0253242D02*
X0167124Y0253242D01*
X0167124Y0253279D02*
X0166494Y0253279D01*
X0166494Y0253317D02*
X0167124Y0253317D01*
X0167124Y0253355D02*
X0166494Y0253355D01*
X0166494Y0253393D02*
X0167124Y0253393D01*
X0167124Y0253431D02*
X0166494Y0253431D01*
X0166494Y0253469D02*
X0167124Y0253469D01*
X0167124Y0253507D02*
X0166494Y0253507D01*
X0166494Y0253545D02*
X0167124Y0253545D01*
X0167124Y0253582D02*
X0166494Y0253582D01*
X0166494Y0253620D02*
X0167124Y0253620D01*
X0167124Y0253658D02*
X0166494Y0253658D01*
X0166494Y0253696D02*
X0167124Y0253696D01*
X0167124Y0253734D02*
X0166494Y0253734D01*
X0166494Y0253772D02*
X0167124Y0253772D01*
X0167124Y0253810D02*
X0166494Y0253810D01*
X0166494Y0253848D02*
X0167124Y0253848D01*
X0167124Y0253886D02*
X0166494Y0253886D01*
X0166494Y0253923D02*
X0167124Y0253923D01*
X0167124Y0253961D02*
X0166494Y0253961D01*
X0166494Y0253999D02*
X0167124Y0253999D01*
X0167124Y0254037D02*
X0166494Y0254037D01*
X0166494Y0254075D02*
X0167124Y0254075D01*
X0167124Y0254113D02*
X0166494Y0254113D01*
X0166494Y0254151D02*
X0167124Y0254151D01*
X0167124Y0254189D02*
X0166494Y0254189D01*
X0166494Y0254226D02*
X0167124Y0254226D01*
X0167124Y0254264D02*
X0166494Y0254264D01*
X0166652Y0254849D02*
X0166927Y0254849D01*
X0167085Y0254928D01*
X0167203Y0255085D01*
X0167223Y0255321D01*
X0167164Y0255479D01*
X0167006Y0255597D01*
X0166927Y0255636D01*
X0166691Y0255636D01*
X0166514Y0255518D01*
X0166416Y0255321D01*
X0166416Y0255124D01*
X0166494Y0254967D01*
X0166652Y0254849D01*
X0166623Y0254870D02*
X0166971Y0254870D01*
X0167046Y0254908D02*
X0166572Y0254908D01*
X0166522Y0254946D02*
X0167099Y0254946D01*
X0167127Y0254984D02*
X0166486Y0254984D01*
X0166467Y0255022D02*
X0167156Y0255022D01*
X0167184Y0255060D02*
X0166448Y0255060D01*
X0166429Y0255098D02*
X0167204Y0255098D01*
X0167207Y0255136D02*
X0166416Y0255136D01*
X0166416Y0255174D02*
X0167210Y0255174D01*
X0167214Y0255211D02*
X0166416Y0255211D01*
X0166416Y0255249D02*
X0167217Y0255249D01*
X0167220Y0255287D02*
X0166416Y0255287D01*
X0166418Y0255325D02*
X0167221Y0255325D01*
X0167207Y0255363D02*
X0166436Y0255363D01*
X0166455Y0255401D02*
X0167193Y0255401D01*
X0167179Y0255439D02*
X0166474Y0255439D01*
X0166493Y0255477D02*
X0167164Y0255477D01*
X0167116Y0255514D02*
X0166512Y0255514D01*
X0166565Y0255552D02*
X0167066Y0255552D01*
X0167015Y0255590D02*
X0166622Y0255590D01*
X0166679Y0255628D02*
X0166944Y0255628D01*
X0165549Y0254298D02*
X0164998Y0254298D01*
X0164998Y0253668D01*
X0164526Y0253668D01*
X0164605Y0253589D01*
X0164920Y0253117D01*
X0164920Y0252132D01*
X0164841Y0251896D01*
X0164723Y0251660D01*
X0164565Y0251502D01*
X0164290Y0251345D01*
X0163738Y0251345D01*
X0163463Y0251463D01*
X0163345Y0251581D01*
X0163187Y0251778D01*
X0163030Y0252329D01*
X0163030Y0252880D01*
X0163187Y0253353D01*
X0163345Y0253589D01*
X0163660Y0253825D01*
X0164290Y0253825D01*
X0164526Y0253668D01*
X0164998Y0253668D01*
X0164998Y0253746D01*
X0164920Y0253746D01*
X0164821Y0253983D01*
X0164664Y0254140D01*
X0164368Y0254298D01*
X0164132Y0254376D01*
X0163502Y0254376D01*
X0163266Y0254298D01*
X0162951Y0254140D01*
X0162636Y0253825D01*
X0162479Y0253510D01*
X0162321Y0253038D01*
X0162321Y0252172D01*
X0162479Y0251699D01*
X0162636Y0251384D01*
X0162951Y0251069D01*
X0163109Y0250991D01*
X0163187Y0250912D01*
X0163423Y0250833D01*
X0164368Y0250833D01*
X0164683Y0250991D01*
X0164762Y0251069D01*
X0164841Y0251227D01*
X0164920Y0251227D01*
X0164920Y0249455D01*
X0165549Y0249455D01*
X0165549Y0254298D01*
X0165549Y0254264D02*
X0164998Y0254264D01*
X0164998Y0254226D02*
X0165549Y0254226D01*
X0165549Y0254189D02*
X0164998Y0254189D01*
X0164998Y0254151D02*
X0165549Y0254151D01*
X0165549Y0254113D02*
X0164998Y0254113D01*
X0164998Y0254075D02*
X0165549Y0254075D01*
X0165549Y0254037D02*
X0164998Y0254037D01*
X0164998Y0253999D02*
X0165549Y0253999D01*
X0165549Y0253961D02*
X0164998Y0253961D01*
X0164998Y0253923D02*
X0165549Y0253923D01*
X0165549Y0253886D02*
X0164998Y0253886D01*
X0164998Y0253848D02*
X0165549Y0253848D01*
X0165549Y0253810D02*
X0164998Y0253810D01*
X0164998Y0253772D02*
X0165549Y0253772D01*
X0165549Y0253734D02*
X0164998Y0253734D01*
X0164426Y0253734D01*
X0164370Y0253772D02*
X0164909Y0253772D01*
X0164893Y0253810D02*
X0164313Y0253810D01*
X0164483Y0253696D02*
X0164998Y0253696D01*
X0165549Y0253696D01*
X0165549Y0253658D02*
X0164535Y0253658D01*
X0164573Y0253620D02*
X0165549Y0253620D01*
X0165549Y0253582D02*
X0164609Y0253582D01*
X0164634Y0253545D02*
X0165549Y0253545D01*
X0165549Y0253507D02*
X0164659Y0253507D01*
X0164685Y0253469D02*
X0165549Y0253469D01*
X0165549Y0253431D02*
X0164710Y0253431D01*
X0164735Y0253393D02*
X0165549Y0253393D01*
X0165549Y0253355D02*
X0164760Y0253355D01*
X0164786Y0253317D02*
X0165549Y0253317D01*
X0165549Y0253279D02*
X0164811Y0253279D01*
X0164836Y0253242D02*
X0165549Y0253242D01*
X0165549Y0253204D02*
X0164861Y0253204D01*
X0164887Y0253166D02*
X0165549Y0253166D01*
X0165549Y0253128D02*
X0164912Y0253128D01*
X0164920Y0253090D02*
X0165549Y0253090D01*
X0165549Y0253052D02*
X0164920Y0253052D01*
X0164920Y0253014D02*
X0165549Y0253014D01*
X0165549Y0252976D02*
X0164920Y0252976D01*
X0164920Y0252939D02*
X0165549Y0252939D01*
X0165549Y0252901D02*
X0164920Y0252901D01*
X0164920Y0252863D02*
X0165549Y0252863D01*
X0165549Y0252825D02*
X0164920Y0252825D01*
X0164920Y0252787D02*
X0165549Y0252787D01*
X0165549Y0252749D02*
X0164920Y0252749D01*
X0164920Y0252711D02*
X0165549Y0252711D01*
X0165549Y0252673D02*
X0164920Y0252673D01*
X0164920Y0252635D02*
X0165549Y0252635D01*
X0165549Y0252598D02*
X0164920Y0252598D01*
X0164920Y0252560D02*
X0165549Y0252560D01*
X0165549Y0252522D02*
X0164920Y0252522D01*
X0164920Y0252484D02*
X0165549Y0252484D01*
X0165549Y0252446D02*
X0164920Y0252446D01*
X0164920Y0252408D02*
X0165549Y0252408D01*
X0165549Y0252370D02*
X0164920Y0252370D01*
X0164920Y0252332D02*
X0165549Y0252332D01*
X0165549Y0252295D02*
X0164920Y0252295D01*
X0164920Y0252257D02*
X0165549Y0252257D01*
X0165549Y0252219D02*
X0164920Y0252219D01*
X0164920Y0252181D02*
X0165549Y0252181D01*
X0165549Y0252143D02*
X0164920Y0252143D01*
X0164910Y0252105D02*
X0165549Y0252105D01*
X0165549Y0252067D02*
X0164898Y0252067D01*
X0164885Y0252029D02*
X0165549Y0252029D01*
X0165549Y0251991D02*
X0164873Y0251991D01*
X0164860Y0251954D02*
X0165549Y0251954D01*
X0165549Y0251916D02*
X0164847Y0251916D01*
X0164832Y0251878D02*
X0165549Y0251878D01*
X0165549Y0251840D02*
X0164813Y0251840D01*
X0164794Y0251802D02*
X0165549Y0251802D01*
X0165549Y0251764D02*
X0164775Y0251764D01*
X0164756Y0251726D02*
X0165549Y0251726D01*
X0165549Y0251688D02*
X0164737Y0251688D01*
X0164713Y0251651D02*
X0165549Y0251651D01*
X0165549Y0251613D02*
X0164676Y0251613D01*
X0164638Y0251575D02*
X0165549Y0251575D01*
X0165549Y0251537D02*
X0164600Y0251537D01*
X0164559Y0251499D02*
X0165549Y0251499D01*
X0165549Y0251461D02*
X0164493Y0251461D01*
X0164427Y0251423D02*
X0165549Y0251423D01*
X0165549Y0251385D02*
X0164360Y0251385D01*
X0164294Y0251347D02*
X0165549Y0251347D01*
X0165549Y0251310D02*
X0162711Y0251310D01*
X0162673Y0251347D02*
X0163732Y0251347D01*
X0163644Y0251385D02*
X0162636Y0251385D01*
X0162617Y0251423D02*
X0163556Y0251423D01*
X0163467Y0251461D02*
X0162598Y0251461D01*
X0162579Y0251499D02*
X0163427Y0251499D01*
X0163389Y0251537D02*
X0162560Y0251537D01*
X0162541Y0251575D02*
X0163351Y0251575D01*
X0163320Y0251613D02*
X0162522Y0251613D01*
X0162503Y0251651D02*
X0163289Y0251651D01*
X0163259Y0251688D02*
X0162484Y0251688D01*
X0162470Y0251726D02*
X0163229Y0251726D01*
X0163198Y0251764D02*
X0162457Y0251764D01*
X0162444Y0251802D02*
X0163180Y0251802D01*
X0163170Y0251840D02*
X0162432Y0251840D01*
X0162419Y0251878D02*
X0163159Y0251878D01*
X0163148Y0251916D02*
X0162406Y0251916D01*
X0162394Y0251954D02*
X0163137Y0251954D01*
X0163126Y0251991D02*
X0162381Y0251991D01*
X0162369Y0252029D02*
X0163115Y0252029D01*
X0163105Y0252067D02*
X0162356Y0252067D01*
X0162343Y0252105D02*
X0163094Y0252105D01*
X0163083Y0252143D02*
X0162331Y0252143D01*
X0162321Y0252181D02*
X0163072Y0252181D01*
X0163061Y0252219D02*
X0162321Y0252219D01*
X0162321Y0252257D02*
X0163050Y0252257D01*
X0163040Y0252295D02*
X0162321Y0252295D01*
X0162321Y0252332D02*
X0163030Y0252332D01*
X0163030Y0252370D02*
X0162321Y0252370D01*
X0162321Y0252408D02*
X0163030Y0252408D01*
X0163030Y0252446D02*
X0162321Y0252446D01*
X0162321Y0252484D02*
X0163030Y0252484D01*
X0163030Y0252522D02*
X0162321Y0252522D01*
X0162321Y0252560D02*
X0163030Y0252560D01*
X0163030Y0252598D02*
X0162321Y0252598D01*
X0162321Y0252635D02*
X0163030Y0252635D01*
X0163030Y0252673D02*
X0162321Y0252673D01*
X0162321Y0252711D02*
X0163030Y0252711D01*
X0163030Y0252749D02*
X0162321Y0252749D01*
X0162321Y0252787D02*
X0163030Y0252787D01*
X0163030Y0252825D02*
X0162321Y0252825D01*
X0162321Y0252863D02*
X0163030Y0252863D01*
X0163037Y0252901D02*
X0162321Y0252901D01*
X0162321Y0252939D02*
X0163049Y0252939D01*
X0163062Y0252976D02*
X0162321Y0252976D01*
X0162321Y0253014D02*
X0163074Y0253014D01*
X0163087Y0253052D02*
X0162326Y0253052D01*
X0162339Y0253090D02*
X0163100Y0253090D01*
X0163112Y0253128D02*
X0162351Y0253128D01*
X0162364Y0253166D02*
X0163125Y0253166D01*
X0163138Y0253204D02*
X0162376Y0253204D01*
X0162389Y0253242D02*
X0163150Y0253242D01*
X0163163Y0253279D02*
X0162402Y0253279D01*
X0162414Y0253317D02*
X0163175Y0253317D01*
X0163189Y0253355D02*
X0162427Y0253355D01*
X0162440Y0253393D02*
X0163214Y0253393D01*
X0163239Y0253431D02*
X0162452Y0253431D01*
X0162465Y0253469D02*
X0163265Y0253469D01*
X0163290Y0253507D02*
X0162477Y0253507D01*
X0162496Y0253545D02*
X0163315Y0253545D01*
X0163340Y0253582D02*
X0162515Y0253582D01*
X0162534Y0253620D02*
X0163387Y0253620D01*
X0163437Y0253658D02*
X0162553Y0253658D01*
X0162572Y0253696D02*
X0163488Y0253696D01*
X0163538Y0253734D02*
X0162590Y0253734D01*
X0162609Y0253772D02*
X0163589Y0253772D01*
X0163639Y0253810D02*
X0162628Y0253810D01*
X0162659Y0253848D02*
X0164877Y0253848D01*
X0164862Y0253886D02*
X0162696Y0253886D01*
X0162734Y0253923D02*
X0164846Y0253923D01*
X0164830Y0253961D02*
X0162772Y0253961D01*
X0162810Y0253999D02*
X0164805Y0253999D01*
X0164767Y0254037D02*
X0162848Y0254037D01*
X0162886Y0254075D02*
X0164729Y0254075D01*
X0164691Y0254113D02*
X0162924Y0254113D01*
X0162972Y0254151D02*
X0164644Y0254151D01*
X0164573Y0254189D02*
X0163048Y0254189D01*
X0163124Y0254226D02*
X0164502Y0254226D01*
X0164431Y0254264D02*
X0163199Y0254264D01*
X0163280Y0254302D02*
X0164355Y0254302D01*
X0164241Y0254340D02*
X0163393Y0254340D01*
X0161691Y0254340D02*
X0160274Y0254340D01*
X0160274Y0254302D02*
X0161691Y0254302D01*
X0161691Y0254264D02*
X0160274Y0254264D01*
X0160274Y0254226D02*
X0161691Y0254226D01*
X0161691Y0254189D02*
X0160274Y0254189D01*
X0160274Y0254151D02*
X0161691Y0254151D01*
X0161691Y0254113D02*
X0160274Y0254113D01*
X0160274Y0254075D02*
X0161691Y0254075D01*
X0161691Y0254037D02*
X0160274Y0254037D01*
X0160274Y0253999D02*
X0161691Y0253999D01*
X0161691Y0253961D02*
X0160274Y0253961D01*
X0160274Y0253923D02*
X0161691Y0253923D01*
X0161691Y0253886D02*
X0160274Y0253886D01*
X0160274Y0253848D02*
X0161691Y0253848D01*
X0161691Y0253810D02*
X0160274Y0253810D01*
X0160274Y0253772D02*
X0161691Y0253772D01*
X0161691Y0253734D02*
X0160274Y0253734D01*
X0160274Y0253696D02*
X0161691Y0253696D01*
X0161691Y0253658D02*
X0160274Y0253658D01*
X0160256Y0253658D02*
X0158735Y0253658D01*
X0158758Y0253620D02*
X0160274Y0253620D01*
X0161691Y0253620D01*
X0161691Y0253582D02*
X0160274Y0253582D01*
X0158778Y0253582D01*
X0158778Y0253589D02*
X0157557Y0255557D01*
X0159093Y0255557D01*
X0160274Y0253628D01*
X0160274Y0253235D01*
X0159172Y0250833D01*
X0157557Y0250833D01*
X0158778Y0253274D01*
X0158778Y0253589D01*
X0158778Y0253545D02*
X0160274Y0253545D01*
X0161691Y0253545D01*
X0161691Y0253507D02*
X0160274Y0253507D01*
X0158778Y0253507D01*
X0158778Y0253469D02*
X0160274Y0253469D01*
X0161691Y0253469D01*
X0161691Y0253431D02*
X0160274Y0253431D01*
X0158778Y0253431D01*
X0158778Y0253393D02*
X0160274Y0253393D01*
X0161691Y0253393D01*
X0161691Y0253355D02*
X0160274Y0253355D01*
X0158778Y0253355D01*
X0158778Y0253317D02*
X0160274Y0253317D01*
X0161691Y0253317D01*
X0161691Y0253279D02*
X0160274Y0253279D01*
X0158778Y0253279D01*
X0158762Y0253242D02*
X0160274Y0253242D01*
X0161691Y0253242D01*
X0161691Y0253204D02*
X0160274Y0253204D01*
X0160260Y0253204D02*
X0158743Y0253204D01*
X0158724Y0253166D02*
X0160242Y0253166D01*
X0160274Y0253166D02*
X0161691Y0253166D01*
X0161691Y0253128D02*
X0160274Y0253128D01*
X0160274Y0253090D02*
X0161691Y0253090D01*
X0161691Y0253052D02*
X0160274Y0253052D01*
X0160274Y0253014D02*
X0161691Y0253014D01*
X0161691Y0252976D02*
X0160274Y0252976D01*
X0160274Y0252939D02*
X0161691Y0252939D01*
X0161691Y0252901D02*
X0160274Y0252901D01*
X0160274Y0252863D02*
X0161691Y0252863D01*
X0161691Y0252825D02*
X0160274Y0252825D01*
X0160274Y0252787D02*
X0161691Y0252787D01*
X0161691Y0252749D02*
X0160274Y0252749D01*
X0160274Y0252711D02*
X0161691Y0252711D01*
X0161691Y0252673D02*
X0160274Y0252673D01*
X0160274Y0252635D02*
X0161691Y0252635D01*
X0161691Y0252598D02*
X0160274Y0252598D01*
X0160274Y0252560D02*
X0161691Y0252560D01*
X0161691Y0252522D02*
X0160274Y0252522D01*
X0160274Y0252484D02*
X0161691Y0252484D01*
X0161691Y0252446D02*
X0160274Y0252446D01*
X0160274Y0252408D02*
X0161691Y0252408D01*
X0161691Y0252370D02*
X0160274Y0252370D01*
X0160274Y0252332D02*
X0161691Y0252332D01*
X0161691Y0252295D02*
X0160274Y0252295D01*
X0160274Y0252257D02*
X0161691Y0252257D01*
X0161691Y0252219D02*
X0160274Y0252219D01*
X0160274Y0252181D02*
X0161691Y0252181D01*
X0161691Y0252143D02*
X0160274Y0252143D01*
X0160274Y0252105D02*
X0161691Y0252105D01*
X0161691Y0252067D02*
X0160274Y0252067D01*
X0160274Y0252029D02*
X0161691Y0252029D01*
X0161691Y0251991D02*
X0160274Y0251991D01*
X0160274Y0251954D02*
X0161691Y0251954D01*
X0161691Y0251916D02*
X0160274Y0251916D01*
X0160274Y0251878D02*
X0161691Y0251878D01*
X0161691Y0251840D02*
X0160274Y0251840D01*
X0160274Y0251802D02*
X0161691Y0251802D01*
X0161691Y0251764D02*
X0160274Y0251764D01*
X0160274Y0251726D02*
X0161691Y0251726D01*
X0161691Y0251688D02*
X0160274Y0251688D01*
X0160274Y0251651D02*
X0161691Y0251651D01*
X0161691Y0251613D02*
X0160274Y0251613D01*
X0160274Y0251575D02*
X0161691Y0251575D01*
X0161691Y0251537D02*
X0160274Y0251537D01*
X0160274Y0251499D02*
X0161691Y0251499D01*
X0161691Y0251461D02*
X0160274Y0251461D01*
X0160274Y0251423D02*
X0161691Y0251423D01*
X0161691Y0251385D02*
X0160274Y0251385D01*
X0160274Y0251347D02*
X0161691Y0251347D01*
X0161691Y0251310D02*
X0160274Y0251310D01*
X0160274Y0251272D02*
X0161691Y0251272D01*
X0161691Y0251234D02*
X0160274Y0251234D01*
X0160274Y0251196D02*
X0161691Y0251196D01*
X0161691Y0251158D02*
X0160274Y0251158D01*
X0160274Y0251120D02*
X0161691Y0251120D01*
X0161691Y0251082D02*
X0160274Y0251082D01*
X0160274Y0251044D02*
X0161691Y0251044D01*
X0161691Y0251007D02*
X0160274Y0251007D01*
X0160274Y0250969D02*
X0161691Y0250969D01*
X0161691Y0250931D02*
X0160274Y0250931D01*
X0160274Y0250893D02*
X0161691Y0250893D01*
X0161691Y0250855D02*
X0160274Y0250855D01*
X0160274Y0250833D02*
X0160274Y0255557D01*
X0161691Y0255557D01*
X0161691Y0250833D01*
X0160274Y0250833D01*
X0159355Y0251234D02*
X0157758Y0251234D01*
X0157777Y0251272D02*
X0159373Y0251272D01*
X0159390Y0251310D02*
X0157796Y0251310D01*
X0157815Y0251347D02*
X0159408Y0251347D01*
X0159425Y0251385D02*
X0157833Y0251385D01*
X0157852Y0251423D02*
X0159442Y0251423D01*
X0159460Y0251461D02*
X0157871Y0251461D01*
X0157890Y0251499D02*
X0159477Y0251499D01*
X0159495Y0251537D02*
X0157909Y0251537D01*
X0157928Y0251575D02*
X0159512Y0251575D01*
X0159529Y0251613D02*
X0157947Y0251613D01*
X0157966Y0251651D02*
X0159547Y0251651D01*
X0159564Y0251688D02*
X0157985Y0251688D01*
X0158004Y0251726D02*
X0159582Y0251726D01*
X0159599Y0251764D02*
X0158023Y0251764D01*
X0158042Y0251802D02*
X0159616Y0251802D01*
X0159634Y0251840D02*
X0158061Y0251840D01*
X0158080Y0251878D02*
X0159651Y0251878D01*
X0159668Y0251916D02*
X0158099Y0251916D01*
X0158118Y0251954D02*
X0159686Y0251954D01*
X0159703Y0251991D02*
X0158137Y0251991D01*
X0158155Y0252029D02*
X0159721Y0252029D01*
X0159738Y0252067D02*
X0158174Y0252067D01*
X0158193Y0252105D02*
X0159755Y0252105D01*
X0159773Y0252143D02*
X0158212Y0252143D01*
X0158231Y0252181D02*
X0159790Y0252181D01*
X0159808Y0252219D02*
X0158250Y0252219D01*
X0158269Y0252257D02*
X0159825Y0252257D01*
X0159842Y0252295D02*
X0158288Y0252295D01*
X0158307Y0252332D02*
X0159860Y0252332D01*
X0159877Y0252370D02*
X0158326Y0252370D01*
X0158345Y0252408D02*
X0159895Y0252408D01*
X0159912Y0252446D02*
X0158364Y0252446D01*
X0158383Y0252484D02*
X0159929Y0252484D01*
X0159947Y0252522D02*
X0158402Y0252522D01*
X0158421Y0252560D02*
X0159964Y0252560D01*
X0159981Y0252598D02*
X0158440Y0252598D01*
X0158459Y0252635D02*
X0159999Y0252635D01*
X0160016Y0252673D02*
X0158477Y0252673D01*
X0158496Y0252711D02*
X0160034Y0252711D01*
X0160051Y0252749D02*
X0158515Y0252749D01*
X0158534Y0252787D02*
X0160068Y0252787D01*
X0160086Y0252825D02*
X0158553Y0252825D01*
X0158572Y0252863D02*
X0160103Y0252863D01*
X0160121Y0252901D02*
X0158591Y0252901D01*
X0158610Y0252939D02*
X0160138Y0252939D01*
X0160155Y0252976D02*
X0158629Y0252976D01*
X0158648Y0253014D02*
X0160173Y0253014D01*
X0160190Y0253052D02*
X0158667Y0253052D01*
X0158686Y0253090D02*
X0160208Y0253090D01*
X0160225Y0253128D02*
X0158705Y0253128D01*
X0158711Y0253696D02*
X0160232Y0253696D01*
X0160209Y0253734D02*
X0158688Y0253734D01*
X0158664Y0253772D02*
X0160186Y0253772D01*
X0160163Y0253810D02*
X0158641Y0253810D01*
X0158617Y0253848D02*
X0160140Y0253848D01*
X0160116Y0253886D02*
X0158594Y0253886D01*
X0158570Y0253923D02*
X0160093Y0253923D01*
X0160070Y0253961D02*
X0158547Y0253961D01*
X0158523Y0253999D02*
X0160047Y0253999D01*
X0160024Y0254037D02*
X0158500Y0254037D01*
X0158477Y0254075D02*
X0160000Y0254075D01*
X0159977Y0254113D02*
X0158453Y0254113D01*
X0158430Y0254151D02*
X0159954Y0254151D01*
X0159931Y0254189D02*
X0158406Y0254189D01*
X0158383Y0254226D02*
X0159908Y0254226D01*
X0159884Y0254264D02*
X0158359Y0254264D01*
X0158336Y0254302D02*
X0159861Y0254302D01*
X0159838Y0254340D02*
X0158312Y0254340D01*
X0158289Y0254378D02*
X0159815Y0254378D01*
X0159792Y0254416D02*
X0158265Y0254416D01*
X0158242Y0254454D02*
X0159769Y0254454D01*
X0159745Y0254492D02*
X0158218Y0254492D01*
X0158195Y0254530D02*
X0159722Y0254530D01*
X0159699Y0254567D02*
X0158171Y0254567D01*
X0158148Y0254605D02*
X0159676Y0254605D01*
X0159653Y0254643D02*
X0158124Y0254643D01*
X0158101Y0254681D02*
X0159629Y0254681D01*
X0159606Y0254719D02*
X0158077Y0254719D01*
X0158054Y0254757D02*
X0159583Y0254757D01*
X0159560Y0254795D02*
X0158030Y0254795D01*
X0158007Y0254833D02*
X0159537Y0254833D01*
X0159513Y0254870D02*
X0157983Y0254870D01*
X0157960Y0254908D02*
X0159490Y0254908D01*
X0159467Y0254946D02*
X0157936Y0254946D01*
X0157913Y0254984D02*
X0159444Y0254984D01*
X0159421Y0255022D02*
X0157889Y0255022D01*
X0157866Y0255060D02*
X0159397Y0255060D01*
X0159374Y0255098D02*
X0157842Y0255098D01*
X0157819Y0255136D02*
X0159351Y0255136D01*
X0159328Y0255174D02*
X0157795Y0255174D01*
X0157772Y0255211D02*
X0159305Y0255211D01*
X0159281Y0255249D02*
X0157748Y0255249D01*
X0157725Y0255287D02*
X0159258Y0255287D01*
X0159235Y0255325D02*
X0157701Y0255325D01*
X0157678Y0255363D02*
X0159212Y0255363D01*
X0159189Y0255401D02*
X0157654Y0255401D01*
X0157631Y0255439D02*
X0159166Y0255439D01*
X0159142Y0255477D02*
X0157608Y0255477D01*
X0157584Y0255514D02*
X0159119Y0255514D01*
X0159096Y0255552D02*
X0157561Y0255552D01*
X0157124Y0255552D02*
X0155707Y0255552D01*
X0155707Y0255557D02*
X0157124Y0255557D01*
X0157124Y0250833D01*
X0155707Y0250833D01*
X0155707Y0255557D01*
X0155707Y0255514D02*
X0157124Y0255514D01*
X0157124Y0255477D02*
X0155707Y0255477D01*
X0155707Y0255439D02*
X0157124Y0255439D01*
X0157124Y0255401D02*
X0155707Y0255401D01*
X0155707Y0255363D02*
X0157124Y0255363D01*
X0157124Y0255325D02*
X0155707Y0255325D01*
X0155707Y0255287D02*
X0157124Y0255287D01*
X0157124Y0255249D02*
X0155707Y0255249D01*
X0155707Y0255211D02*
X0157124Y0255211D01*
X0157124Y0255174D02*
X0155707Y0255174D01*
X0155707Y0255136D02*
X0157124Y0255136D01*
X0157124Y0255098D02*
X0155707Y0255098D01*
X0155707Y0255060D02*
X0157124Y0255060D01*
X0157124Y0255022D02*
X0155707Y0255022D01*
X0155707Y0254984D02*
X0157124Y0254984D01*
X0157124Y0254946D02*
X0155707Y0254946D01*
X0155707Y0254908D02*
X0157124Y0254908D01*
X0157124Y0254870D02*
X0155707Y0254870D01*
X0155707Y0254833D02*
X0157124Y0254833D01*
X0157124Y0254795D02*
X0155707Y0254795D01*
X0155707Y0254757D02*
X0157124Y0254757D01*
X0157124Y0254719D02*
X0155707Y0254719D01*
X0155707Y0254681D02*
X0157124Y0254681D01*
X0157124Y0254643D02*
X0155707Y0254643D01*
X0155707Y0254605D02*
X0157124Y0254605D01*
X0157124Y0254567D02*
X0155707Y0254567D01*
X0155707Y0254530D02*
X0157124Y0254530D01*
X0157124Y0254492D02*
X0155707Y0254492D01*
X0155707Y0254454D02*
X0157124Y0254454D01*
X0157124Y0254416D02*
X0155707Y0254416D01*
X0155707Y0254378D02*
X0157124Y0254378D01*
X0157124Y0254340D02*
X0155707Y0254340D01*
X0155707Y0254302D02*
X0157124Y0254302D01*
X0157124Y0254264D02*
X0155707Y0254264D01*
X0155707Y0254226D02*
X0157124Y0254226D01*
X0157124Y0254189D02*
X0155707Y0254189D01*
X0155707Y0254151D02*
X0157124Y0254151D01*
X0157124Y0254113D02*
X0155707Y0254113D01*
X0155707Y0254075D02*
X0157124Y0254075D01*
X0157124Y0254037D02*
X0155707Y0254037D01*
X0155707Y0253999D02*
X0157124Y0253999D01*
X0157124Y0253961D02*
X0155707Y0253961D01*
X0155707Y0253923D02*
X0157124Y0253923D01*
X0157124Y0253886D02*
X0155707Y0253886D01*
X0155707Y0253848D02*
X0157124Y0253848D01*
X0157124Y0253810D02*
X0155707Y0253810D01*
X0155707Y0253772D02*
X0157124Y0253772D01*
X0157124Y0253734D02*
X0155707Y0253734D01*
X0155707Y0253696D02*
X0157124Y0253696D01*
X0157124Y0253658D02*
X0155707Y0253658D01*
X0155707Y0253620D02*
X0157124Y0253620D01*
X0157124Y0253582D02*
X0155707Y0253582D01*
X0155707Y0253545D02*
X0157124Y0253545D01*
X0157124Y0253507D02*
X0155707Y0253507D01*
X0155707Y0253469D02*
X0157124Y0253469D01*
X0157124Y0253431D02*
X0155707Y0253431D01*
X0155707Y0253393D02*
X0157124Y0253393D01*
X0157124Y0253355D02*
X0155707Y0253355D01*
X0155707Y0253317D02*
X0157124Y0253317D01*
X0157124Y0253279D02*
X0155707Y0253279D01*
X0155707Y0253242D02*
X0157124Y0253242D01*
X0157124Y0253204D02*
X0155707Y0253204D01*
X0155707Y0253166D02*
X0157124Y0253166D01*
X0157124Y0253128D02*
X0155707Y0253128D01*
X0155707Y0253090D02*
X0157124Y0253090D01*
X0157124Y0253052D02*
X0155707Y0253052D01*
X0155707Y0253014D02*
X0157124Y0253014D01*
X0157124Y0252976D02*
X0155707Y0252976D01*
X0155707Y0252939D02*
X0157124Y0252939D01*
X0157124Y0252901D02*
X0155707Y0252901D01*
X0155707Y0252863D02*
X0157124Y0252863D01*
X0157124Y0252825D02*
X0155707Y0252825D01*
X0155707Y0252787D02*
X0157124Y0252787D01*
X0157124Y0252749D02*
X0155707Y0252749D01*
X0155707Y0252711D02*
X0157124Y0252711D01*
X0157124Y0252673D02*
X0155707Y0252673D01*
X0155707Y0252635D02*
X0157124Y0252635D01*
X0157124Y0252598D02*
X0155707Y0252598D01*
X0155707Y0252560D02*
X0157124Y0252560D01*
X0157124Y0252522D02*
X0155707Y0252522D01*
X0155707Y0252484D02*
X0157124Y0252484D01*
X0157124Y0252446D02*
X0155707Y0252446D01*
X0155707Y0252408D02*
X0157124Y0252408D01*
X0157124Y0252370D02*
X0155707Y0252370D01*
X0155707Y0252332D02*
X0157124Y0252332D01*
X0157124Y0252295D02*
X0155707Y0252295D01*
X0155707Y0252257D02*
X0157124Y0252257D01*
X0157124Y0252219D02*
X0155707Y0252219D01*
X0155707Y0252181D02*
X0157124Y0252181D01*
X0157124Y0252143D02*
X0155707Y0252143D01*
X0155707Y0252105D02*
X0157124Y0252105D01*
X0157124Y0252067D02*
X0155707Y0252067D01*
X0155707Y0252029D02*
X0157124Y0252029D01*
X0157124Y0251991D02*
X0155707Y0251991D01*
X0155707Y0251954D02*
X0157124Y0251954D01*
X0157124Y0251916D02*
X0155707Y0251916D01*
X0155707Y0251878D02*
X0157124Y0251878D01*
X0157124Y0251840D02*
X0155707Y0251840D01*
X0155707Y0251802D02*
X0157124Y0251802D01*
X0157124Y0251764D02*
X0155707Y0251764D01*
X0155707Y0251726D02*
X0157124Y0251726D01*
X0157124Y0251688D02*
X0155707Y0251688D01*
X0155707Y0251651D02*
X0157124Y0251651D01*
X0157124Y0251613D02*
X0155707Y0251613D01*
X0155707Y0251575D02*
X0157124Y0251575D01*
X0157124Y0251537D02*
X0155707Y0251537D01*
X0155707Y0251499D02*
X0157124Y0251499D01*
X0157124Y0251461D02*
X0155707Y0251461D01*
X0155707Y0251423D02*
X0157124Y0251423D01*
X0157124Y0251385D02*
X0155707Y0251385D01*
X0155707Y0251347D02*
X0157124Y0251347D01*
X0157124Y0251310D02*
X0155707Y0251310D01*
X0155707Y0251272D02*
X0157124Y0251272D01*
X0157124Y0251234D02*
X0155707Y0251234D01*
X0155707Y0251196D02*
X0157124Y0251196D01*
X0157124Y0251158D02*
X0155707Y0251158D01*
X0155707Y0251120D02*
X0157124Y0251120D01*
X0157124Y0251082D02*
X0155707Y0251082D01*
X0155707Y0251044D02*
X0157124Y0251044D01*
X0157124Y0251007D02*
X0155707Y0251007D01*
X0155707Y0250969D02*
X0157124Y0250969D01*
X0157124Y0250931D02*
X0155707Y0250931D01*
X0155707Y0250893D02*
X0157124Y0250893D01*
X0157124Y0250855D02*
X0155707Y0250855D01*
X0154211Y0250855D02*
X0152715Y0250855D01*
X0152715Y0250833D02*
X0152715Y0254219D01*
X0151691Y0254219D01*
X0151691Y0255557D01*
X0155235Y0255557D01*
X0155235Y0254219D01*
X0154211Y0254219D01*
X0154211Y0250833D01*
X0152715Y0250833D01*
X0152715Y0250893D02*
X0154211Y0250893D01*
X0154211Y0250931D02*
X0152715Y0250931D01*
X0152715Y0250969D02*
X0154211Y0250969D01*
X0154211Y0251007D02*
X0152715Y0251007D01*
X0152715Y0251044D02*
X0154211Y0251044D01*
X0154211Y0251082D02*
X0152715Y0251082D01*
X0152715Y0251120D02*
X0154211Y0251120D01*
X0154211Y0251158D02*
X0152715Y0251158D01*
X0152715Y0251196D02*
X0154211Y0251196D01*
X0154211Y0251234D02*
X0152715Y0251234D01*
X0152715Y0251272D02*
X0154211Y0251272D01*
X0154211Y0251310D02*
X0152715Y0251310D01*
X0152715Y0251347D02*
X0154211Y0251347D01*
X0154211Y0251385D02*
X0152715Y0251385D01*
X0152715Y0251423D02*
X0154211Y0251423D01*
X0154211Y0251461D02*
X0152715Y0251461D01*
X0152715Y0251499D02*
X0154211Y0251499D01*
X0154211Y0251537D02*
X0152715Y0251537D01*
X0152715Y0251575D02*
X0154211Y0251575D01*
X0154211Y0251613D02*
X0152715Y0251613D01*
X0152715Y0251651D02*
X0154211Y0251651D01*
X0154211Y0251688D02*
X0152715Y0251688D01*
X0152715Y0251726D02*
X0154211Y0251726D01*
X0154211Y0251764D02*
X0152715Y0251764D01*
X0152715Y0251802D02*
X0154211Y0251802D01*
X0154211Y0251840D02*
X0152715Y0251840D01*
X0152715Y0251878D02*
X0154211Y0251878D01*
X0154211Y0251916D02*
X0152715Y0251916D01*
X0152715Y0251954D02*
X0154211Y0251954D01*
X0154211Y0251991D02*
X0152715Y0251991D01*
X0152715Y0252029D02*
X0154211Y0252029D01*
X0154211Y0252067D02*
X0152715Y0252067D01*
X0152715Y0252105D02*
X0154211Y0252105D01*
X0154211Y0252143D02*
X0152715Y0252143D01*
X0152715Y0252181D02*
X0154211Y0252181D01*
X0154211Y0252219D02*
X0152715Y0252219D01*
X0152715Y0252257D02*
X0154211Y0252257D01*
X0154211Y0252295D02*
X0152715Y0252295D01*
X0152715Y0252332D02*
X0154211Y0252332D01*
X0154211Y0252370D02*
X0152715Y0252370D01*
X0152715Y0252408D02*
X0154211Y0252408D01*
X0154211Y0252446D02*
X0152715Y0252446D01*
X0152715Y0252484D02*
X0154211Y0252484D01*
X0154211Y0252522D02*
X0152715Y0252522D01*
X0152715Y0252560D02*
X0154211Y0252560D01*
X0154211Y0252598D02*
X0152715Y0252598D01*
X0152715Y0252635D02*
X0154211Y0252635D01*
X0154211Y0252673D02*
X0152715Y0252673D01*
X0152715Y0252711D02*
X0154211Y0252711D01*
X0154211Y0252749D02*
X0152715Y0252749D01*
X0152715Y0252787D02*
X0154211Y0252787D01*
X0154211Y0252825D02*
X0152715Y0252825D01*
X0152715Y0252863D02*
X0154211Y0252863D01*
X0154211Y0252901D02*
X0152715Y0252901D01*
X0152715Y0252939D02*
X0154211Y0252939D01*
X0154211Y0252976D02*
X0152715Y0252976D01*
X0152715Y0253014D02*
X0154211Y0253014D01*
X0154211Y0253052D02*
X0152715Y0253052D01*
X0152715Y0253090D02*
X0154211Y0253090D01*
X0154211Y0253128D02*
X0152715Y0253128D01*
X0152715Y0253166D02*
X0154211Y0253166D01*
X0154211Y0253204D02*
X0152715Y0253204D01*
X0152715Y0253242D02*
X0154211Y0253242D01*
X0154211Y0253279D02*
X0152715Y0253279D01*
X0152715Y0253317D02*
X0154211Y0253317D01*
X0154211Y0253355D02*
X0152715Y0253355D01*
X0152715Y0253393D02*
X0154211Y0253393D01*
X0154211Y0253431D02*
X0152715Y0253431D01*
X0152715Y0253469D02*
X0154211Y0253469D01*
X0154211Y0253507D02*
X0152715Y0253507D01*
X0152715Y0253545D02*
X0154211Y0253545D01*
X0154211Y0253582D02*
X0152715Y0253582D01*
X0152715Y0253620D02*
X0154211Y0253620D01*
X0154211Y0253658D02*
X0152715Y0253658D01*
X0152715Y0253696D02*
X0154211Y0253696D01*
X0154211Y0253734D02*
X0152715Y0253734D01*
X0152715Y0253772D02*
X0154211Y0253772D01*
X0154211Y0253810D02*
X0152715Y0253810D01*
X0152715Y0253848D02*
X0154211Y0253848D01*
X0154211Y0253886D02*
X0152715Y0253886D01*
X0152715Y0253923D02*
X0154211Y0253923D01*
X0154211Y0253961D02*
X0152715Y0253961D01*
X0152715Y0253999D02*
X0154211Y0253999D01*
X0154211Y0254037D02*
X0152715Y0254037D01*
X0152715Y0254075D02*
X0154211Y0254075D01*
X0154211Y0254113D02*
X0152715Y0254113D01*
X0152715Y0254151D02*
X0154211Y0254151D01*
X0154211Y0254189D02*
X0152715Y0254189D01*
X0151691Y0254226D02*
X0155235Y0254226D01*
X0155235Y0254264D02*
X0151691Y0254264D01*
X0151691Y0254302D02*
X0155235Y0254302D01*
X0155235Y0254340D02*
X0151691Y0254340D01*
X0151691Y0254378D02*
X0155235Y0254378D01*
X0155235Y0254416D02*
X0151691Y0254416D01*
X0151691Y0254454D02*
X0155235Y0254454D01*
X0155235Y0254492D02*
X0151691Y0254492D01*
X0151691Y0254530D02*
X0155235Y0254530D01*
X0155235Y0254567D02*
X0151691Y0254567D01*
X0151691Y0254605D02*
X0155235Y0254605D01*
X0155235Y0254643D02*
X0151691Y0254643D01*
X0151691Y0254681D02*
X0155235Y0254681D01*
X0155235Y0254719D02*
X0151691Y0254719D01*
X0151691Y0254757D02*
X0155235Y0254757D01*
X0155235Y0254795D02*
X0151691Y0254795D01*
X0151691Y0254833D02*
X0155235Y0254833D01*
X0155235Y0254870D02*
X0151691Y0254870D01*
X0151691Y0254908D02*
X0155235Y0254908D01*
X0155235Y0254946D02*
X0151691Y0254946D01*
X0151691Y0254984D02*
X0155235Y0254984D01*
X0155235Y0255022D02*
X0151691Y0255022D01*
X0151691Y0255060D02*
X0155235Y0255060D01*
X0155235Y0255098D02*
X0151691Y0255098D01*
X0151691Y0255136D02*
X0155235Y0255136D01*
X0155235Y0255174D02*
X0151691Y0255174D01*
X0151691Y0255211D02*
X0155235Y0255211D01*
X0155235Y0255249D02*
X0151691Y0255249D01*
X0151691Y0255287D02*
X0155235Y0255287D01*
X0155235Y0255325D02*
X0151691Y0255325D01*
X0151691Y0255363D02*
X0155235Y0255363D01*
X0155235Y0255401D02*
X0151691Y0255401D01*
X0151691Y0255439D02*
X0155235Y0255439D01*
X0155235Y0255477D02*
X0151691Y0255477D01*
X0151691Y0255514D02*
X0155235Y0255514D01*
X0155235Y0255552D02*
X0151691Y0255552D01*
X0157739Y0251196D02*
X0159338Y0251196D01*
X0159321Y0251158D02*
X0157720Y0251158D01*
X0157701Y0251120D02*
X0159303Y0251120D01*
X0159286Y0251082D02*
X0157682Y0251082D01*
X0157663Y0251044D02*
X0159269Y0251044D01*
X0159251Y0251007D02*
X0157644Y0251007D01*
X0157625Y0250969D02*
X0159234Y0250969D01*
X0159216Y0250931D02*
X0157606Y0250931D01*
X0157587Y0250893D02*
X0159199Y0250893D01*
X0159182Y0250855D02*
X0157568Y0250855D01*
X0160274Y0254378D02*
X0161691Y0254378D01*
X0161691Y0254416D02*
X0160274Y0254416D01*
X0160274Y0254454D02*
X0161691Y0254454D01*
X0161691Y0254492D02*
X0160274Y0254492D01*
X0160274Y0254530D02*
X0161691Y0254530D01*
X0161691Y0254567D02*
X0160274Y0254567D01*
X0160274Y0254605D02*
X0161691Y0254605D01*
X0161691Y0254643D02*
X0160274Y0254643D01*
X0160274Y0254681D02*
X0161691Y0254681D01*
X0161691Y0254719D02*
X0160274Y0254719D01*
X0160274Y0254757D02*
X0161691Y0254757D01*
X0161691Y0254795D02*
X0160274Y0254795D01*
X0160274Y0254833D02*
X0161691Y0254833D01*
X0161691Y0254870D02*
X0160274Y0254870D01*
X0160274Y0254908D02*
X0161691Y0254908D01*
X0161691Y0254946D02*
X0160274Y0254946D01*
X0160274Y0254984D02*
X0161691Y0254984D01*
X0161691Y0255022D02*
X0160274Y0255022D01*
X0160274Y0255060D02*
X0161691Y0255060D01*
X0161691Y0255098D02*
X0160274Y0255098D01*
X0160274Y0255136D02*
X0161691Y0255136D01*
X0161691Y0255174D02*
X0160274Y0255174D01*
X0160274Y0255211D02*
X0161691Y0255211D01*
X0161691Y0255249D02*
X0160274Y0255249D01*
X0160274Y0255287D02*
X0161691Y0255287D01*
X0161691Y0255325D02*
X0160274Y0255325D01*
X0160274Y0255363D02*
X0161691Y0255363D01*
X0161691Y0255401D02*
X0160274Y0255401D01*
X0160274Y0255439D02*
X0161691Y0255439D01*
X0161691Y0255477D02*
X0160274Y0255477D01*
X0160274Y0255514D02*
X0161691Y0255514D01*
X0161691Y0255552D02*
X0160274Y0255552D01*
X0162749Y0251272D02*
X0165549Y0251272D01*
X0165549Y0251234D02*
X0162786Y0251234D01*
X0162824Y0251196D02*
X0164825Y0251196D01*
X0164806Y0251158D02*
X0162862Y0251158D01*
X0162900Y0251120D02*
X0164788Y0251120D01*
X0164769Y0251082D02*
X0162938Y0251082D01*
X0163001Y0251044D02*
X0164737Y0251044D01*
X0164699Y0251007D02*
X0163077Y0251007D01*
X0163130Y0250969D02*
X0164640Y0250969D01*
X0164564Y0250931D02*
X0163168Y0250931D01*
X0163244Y0250893D02*
X0164488Y0250893D01*
X0164412Y0250855D02*
X0163358Y0250855D01*
X0164920Y0250855D02*
X0165549Y0250855D01*
X0165549Y0250817D02*
X0164920Y0250817D01*
X0164920Y0250779D02*
X0165549Y0250779D01*
X0165549Y0250741D02*
X0164920Y0250741D01*
X0164920Y0250704D02*
X0165549Y0250704D01*
X0165549Y0250666D02*
X0164920Y0250666D01*
X0164920Y0250628D02*
X0165549Y0250628D01*
X0165549Y0250590D02*
X0164920Y0250590D01*
X0164920Y0250552D02*
X0165549Y0250552D01*
X0165549Y0250514D02*
X0164920Y0250514D01*
X0164920Y0250476D02*
X0165549Y0250476D01*
X0165549Y0250438D02*
X0164920Y0250438D01*
X0164920Y0250400D02*
X0165549Y0250400D01*
X0165549Y0250363D02*
X0164920Y0250363D01*
X0164920Y0250325D02*
X0165549Y0250325D01*
X0165549Y0250287D02*
X0164920Y0250287D01*
X0164920Y0250249D02*
X0165549Y0250249D01*
X0165549Y0250211D02*
X0164920Y0250211D01*
X0164920Y0250173D02*
X0165549Y0250173D01*
X0165549Y0250135D02*
X0164920Y0250135D01*
X0164920Y0250097D02*
X0165549Y0250097D01*
X0165549Y0250060D02*
X0164920Y0250060D01*
X0164920Y0250022D02*
X0165549Y0250022D01*
X0165549Y0249984D02*
X0164920Y0249984D01*
X0164920Y0249946D02*
X0165549Y0249946D01*
X0165549Y0249908D02*
X0164920Y0249908D01*
X0164920Y0249870D02*
X0165549Y0249870D01*
X0165549Y0249832D02*
X0164920Y0249832D01*
X0164920Y0249794D02*
X0165549Y0249794D01*
X0165549Y0249756D02*
X0164920Y0249756D01*
X0164920Y0249719D02*
X0165549Y0249719D01*
X0165549Y0249681D02*
X0164920Y0249681D01*
X0164920Y0249643D02*
X0165549Y0249643D01*
X0165549Y0249605D02*
X0164920Y0249605D01*
X0164920Y0249567D02*
X0165549Y0249567D01*
X0165549Y0249529D02*
X0164920Y0249529D01*
X0164920Y0249491D02*
X0165549Y0249491D01*
X0165549Y0250893D02*
X0164920Y0250893D01*
X0164920Y0250931D02*
X0165549Y0250931D01*
X0165549Y0250969D02*
X0164920Y0250969D01*
X0164920Y0251007D02*
X0165549Y0251007D01*
X0165549Y0251044D02*
X0164920Y0251044D01*
X0164920Y0251082D02*
X0165549Y0251082D01*
X0165549Y0251120D02*
X0164920Y0251120D01*
X0164920Y0251158D02*
X0165549Y0251158D01*
X0165549Y0251196D02*
X0164920Y0251196D01*
X0168599Y0254189D02*
X0169941Y0254189D01*
X0169865Y0254226D02*
X0168675Y0254226D01*
X0168754Y0254264D02*
X0169789Y0254264D01*
X0169707Y0254302D02*
X0168848Y0254302D01*
X0168945Y0254340D02*
X0169574Y0254340D01*
D19*
X0151158Y0255911D02*
X0150504Y0255911D01*
X0150831Y0255911D02*
X0150831Y0254929D01*
X0150071Y0254929D02*
X0150071Y0255911D01*
X0149743Y0255584D01*
X0149416Y0255911D01*
X0149416Y0254929D01*
M02*
