G75*
%MOIN*%
%OFA0B0*%
%FSLAX25Y25*%
%IPPOS*%
%LPD*%
%AMOC8*
5,1,8,0,0,1.08239X$1,22.5*
%
%ADD10C,0.00000*%
%ADD11R,0.03937X0.04331*%
%ADD12R,0.04331X0.03937*%
%ADD13R,0.03150X0.03150*%
%ADD14R,0.03150X0.04724*%
%ADD15R,0.03150X0.01378*%
%ADD16R,0.04724X0.03150*%
%ADD17R,0.02480X0.03268*%
%ADD18R,0.04800X0.08800*%
%ADD19R,0.14173X0.08661*%
%ADD20R,0.05315X0.01575*%
%ADD21R,0.06102X0.05906*%
%ADD22R,0.04134X0.02559*%
%ADD23R,0.10630X0.05906*%
D10*
X0027595Y0221800D02*
X0027595Y0291800D01*
X0227595Y0291800D01*
X0227595Y0221800D01*
X0027595Y0221800D01*
D11*
X0147495Y0240254D03*
X0147495Y0246946D03*
X0153895Y0253254D03*
X0160995Y0253354D03*
X0160995Y0260046D03*
X0153895Y0259946D03*
X0167295Y0264954D03*
X0167295Y0271646D03*
X0162595Y0246846D03*
X0162595Y0240154D03*
D12*
X0192249Y0238900D03*
X0198942Y0238900D03*
X0105658Y0238466D03*
X0098965Y0238466D03*
X0060142Y0238500D03*
X0053449Y0238500D03*
X0053449Y0249600D03*
X0060142Y0249600D03*
X0061942Y0256800D03*
X0055249Y0256800D03*
X0049142Y0256800D03*
X0042449Y0256800D03*
X0073549Y0259300D03*
X0080242Y0259300D03*
X0080342Y0266900D03*
X0073649Y0266900D03*
X0094149Y0275100D03*
X0100842Y0275100D03*
D13*
X0160995Y0271253D03*
X0160995Y0265347D03*
X0167295Y0259153D03*
X0167295Y0253247D03*
D14*
X0171152Y0238500D03*
X0178238Y0238500D03*
D15*
G36*
X0142152Y0256312D02*
X0144378Y0254086D01*
X0143404Y0253112D01*
X0141178Y0255338D01*
X0142152Y0256312D01*
G37*
G36*
X0144378Y0259514D02*
X0142152Y0257288D01*
X0141178Y0258262D01*
X0143404Y0260488D01*
X0144378Y0259514D01*
G37*
G36*
X0142569Y0261323D02*
X0140343Y0259097D01*
X0139369Y0260071D01*
X0141595Y0262297D01*
X0142569Y0261323D01*
G37*
G36*
X0140759Y0263133D02*
X0138533Y0260907D01*
X0137559Y0261881D01*
X0139785Y0264107D01*
X0140759Y0263133D01*
G37*
G36*
X0138950Y0264942D02*
X0136724Y0262716D01*
X0135750Y0263690D01*
X0137976Y0265916D01*
X0138950Y0264942D01*
G37*
G36*
X0137140Y0266752D02*
X0134914Y0264526D01*
X0133940Y0265500D01*
X0136166Y0267726D01*
X0137140Y0266752D01*
G37*
G36*
X0135331Y0268562D02*
X0133105Y0266336D01*
X0132131Y0267310D01*
X0134357Y0269536D01*
X0135331Y0268562D01*
G37*
G36*
X0130321Y0269119D02*
X0132547Y0271345D01*
X0133521Y0270371D01*
X0131295Y0268145D01*
X0130321Y0269119D01*
G37*
G36*
X0128512Y0270929D02*
X0130738Y0273155D01*
X0131712Y0272181D01*
X0129486Y0269955D01*
X0128512Y0270929D01*
G37*
G36*
X0126702Y0272738D02*
X0128928Y0274964D01*
X0129902Y0273990D01*
X0127676Y0271764D01*
X0126702Y0272738D01*
G37*
G36*
X0124893Y0274548D02*
X0127119Y0276774D01*
X0128093Y0275800D01*
X0125867Y0273574D01*
X0124893Y0274548D01*
G37*
G36*
X0123083Y0276357D02*
X0125309Y0278583D01*
X0126283Y0277609D01*
X0124057Y0275383D01*
X0123083Y0276357D01*
G37*
G36*
X0119881Y0278583D02*
X0122107Y0276357D01*
X0121133Y0275383D01*
X0118907Y0277609D01*
X0119881Y0278583D01*
G37*
G36*
X0118072Y0276774D02*
X0120298Y0274548D01*
X0119324Y0273574D01*
X0117098Y0275800D01*
X0118072Y0276774D01*
G37*
G36*
X0116262Y0274964D02*
X0118488Y0272738D01*
X0117514Y0271764D01*
X0115288Y0273990D01*
X0116262Y0274964D01*
G37*
G36*
X0114453Y0273155D02*
X0116679Y0270929D01*
X0115705Y0269955D01*
X0113479Y0272181D01*
X0114453Y0273155D01*
G37*
G36*
X0112643Y0271345D02*
X0114869Y0269119D01*
X0113895Y0268145D01*
X0111669Y0270371D01*
X0112643Y0271345D01*
G37*
G36*
X0110834Y0269536D02*
X0113060Y0267310D01*
X0112086Y0266336D01*
X0109860Y0268562D01*
X0110834Y0269536D01*
G37*
G36*
X0110276Y0264526D02*
X0108050Y0266752D01*
X0109024Y0267726D01*
X0111250Y0265500D01*
X0110276Y0264526D01*
G37*
G36*
X0108467Y0262716D02*
X0106241Y0264942D01*
X0107215Y0265916D01*
X0109441Y0263690D01*
X0108467Y0262716D01*
G37*
G36*
X0106657Y0260907D02*
X0104431Y0263133D01*
X0105405Y0264107D01*
X0107631Y0261881D01*
X0106657Y0260907D01*
G37*
G36*
X0104847Y0259097D02*
X0102621Y0261323D01*
X0103595Y0262297D01*
X0105821Y0260071D01*
X0104847Y0259097D01*
G37*
G36*
X0103038Y0257288D02*
X0100812Y0259514D01*
X0101786Y0260488D01*
X0104012Y0258262D01*
X0103038Y0257288D01*
G37*
G36*
X0100812Y0254086D02*
X0103038Y0256312D01*
X0104012Y0255338D01*
X0101786Y0253112D01*
X0100812Y0254086D01*
G37*
G36*
X0102621Y0252277D02*
X0104847Y0254503D01*
X0105821Y0253529D01*
X0103595Y0251303D01*
X0102621Y0252277D01*
G37*
G36*
X0104431Y0250467D02*
X0106657Y0252693D01*
X0107631Y0251719D01*
X0105405Y0249493D01*
X0104431Y0250467D01*
G37*
G36*
X0106241Y0248658D02*
X0108467Y0250884D01*
X0109441Y0249910D01*
X0107215Y0247684D01*
X0106241Y0248658D01*
G37*
G36*
X0108050Y0246848D02*
X0110276Y0249074D01*
X0111250Y0248100D01*
X0109024Y0245874D01*
X0108050Y0246848D01*
G37*
G36*
X0109860Y0245038D02*
X0112086Y0247264D01*
X0113060Y0246290D01*
X0110834Y0244064D01*
X0109860Y0245038D01*
G37*
G36*
X0114869Y0244481D02*
X0112643Y0242255D01*
X0111669Y0243229D01*
X0113895Y0245455D01*
X0114869Y0244481D01*
G37*
G36*
X0116679Y0242671D02*
X0114453Y0240445D01*
X0113479Y0241419D01*
X0115705Y0243645D01*
X0116679Y0242671D01*
G37*
G36*
X0118488Y0240862D02*
X0116262Y0238636D01*
X0115288Y0239610D01*
X0117514Y0241836D01*
X0118488Y0240862D01*
G37*
G36*
X0120298Y0239052D02*
X0118072Y0236826D01*
X0117098Y0237800D01*
X0119324Y0240026D01*
X0120298Y0239052D01*
G37*
G36*
X0122107Y0237243D02*
X0119881Y0235017D01*
X0118907Y0235991D01*
X0121133Y0238217D01*
X0122107Y0237243D01*
G37*
G36*
X0125309Y0235017D02*
X0123083Y0237243D01*
X0124057Y0238217D01*
X0126283Y0235991D01*
X0125309Y0235017D01*
G37*
G36*
X0127119Y0236826D02*
X0124893Y0239052D01*
X0125867Y0240026D01*
X0128093Y0237800D01*
X0127119Y0236826D01*
G37*
G36*
X0128928Y0238636D02*
X0126702Y0240862D01*
X0127676Y0241836D01*
X0129902Y0239610D01*
X0128928Y0238636D01*
G37*
G36*
X0130738Y0240445D02*
X0128512Y0242671D01*
X0129486Y0243645D01*
X0131712Y0241419D01*
X0130738Y0240445D01*
G37*
G36*
X0132547Y0242255D02*
X0130321Y0244481D01*
X0131295Y0245455D01*
X0133521Y0243229D01*
X0132547Y0242255D01*
G37*
G36*
X0134357Y0244064D02*
X0132131Y0246290D01*
X0133105Y0247264D01*
X0135331Y0245038D01*
X0134357Y0244064D01*
G37*
G36*
X0134914Y0249074D02*
X0137140Y0246848D01*
X0136166Y0245874D01*
X0133940Y0248100D01*
X0134914Y0249074D01*
G37*
G36*
X0136724Y0250884D02*
X0138950Y0248658D01*
X0137976Y0247684D01*
X0135750Y0249910D01*
X0136724Y0250884D01*
G37*
G36*
X0138533Y0252693D02*
X0140759Y0250467D01*
X0139785Y0249493D01*
X0137559Y0251719D01*
X0138533Y0252693D01*
G37*
G36*
X0140343Y0254503D02*
X0142569Y0252277D01*
X0141595Y0251303D01*
X0139369Y0253529D01*
X0140343Y0254503D01*
G37*
D16*
X0154295Y0247343D03*
X0154295Y0240257D03*
D17*
X0204268Y0238800D03*
X0213323Y0238800D03*
X0211923Y0274400D03*
X0202868Y0274400D03*
D18*
X0193162Y0247946D03*
X0184062Y0247946D03*
X0174962Y0247946D03*
D19*
X0184062Y0272347D03*
D20*
X0208468Y0261907D03*
X0208468Y0259348D03*
X0208468Y0256789D03*
X0208468Y0254230D03*
X0208468Y0251671D03*
D21*
X0219098Y0252852D03*
X0219098Y0260726D03*
X0219098Y0268797D03*
X0219098Y0244781D03*
D22*
X0091464Y0246632D03*
X0091464Y0238168D03*
X0075126Y0238168D03*
X0075126Y0246632D03*
X0059364Y0264068D03*
X0059364Y0272532D03*
X0043026Y0272532D03*
X0043026Y0264068D03*
D23*
X0088995Y0266640D03*
X0088995Y0259160D03*
M02*
