G75*
%MOIN*%
%OFA0B0*%
%FSLAX25Y25*%
%IPPOS*%
%LPD*%
%AMOC8*
5,1,8,0,0,1.08239X$1,22.5*
%
%ADD10C,0.01000*%
%ADD11C,0.00000*%
%ADD12C,0.00700*%
%ADD13R,0.33000X0.21500*%
%ADD14C,0.00800*%
%ADD15C,0.00394*%
%ADD16R,0.11575X0.02913*%
%ADD17C,0.00100*%
D10*
X0010350Y0018333D02*
X0010350Y0213333D01*
X0465350Y0213333D01*
X0465350Y0018333D01*
X0010350Y0018333D01*
X0440350Y0051833D02*
X0442850Y0049333D01*
X0445350Y0049333D01*
X0440350Y0051833D02*
X0440350Y0055833D01*
X0440350Y0066833D02*
X0440350Y0070333D01*
X0442350Y0072333D01*
X0445350Y0072333D01*
X0445350Y0091333D02*
X0442850Y0091333D01*
X0440350Y0093833D01*
X0440350Y0094833D01*
X0440350Y0105333D02*
X0440350Y0110333D01*
X0442350Y0112333D01*
X0445350Y0112333D01*
X0445350Y0118333D02*
X0443350Y0118333D01*
X0440350Y0121333D01*
X0440350Y0124833D01*
X0440350Y0135833D02*
X0440350Y0138333D01*
X0442850Y0140833D01*
X0445350Y0140833D01*
X0445350Y0160333D02*
X0442850Y0160333D01*
X0440350Y0162833D01*
X0440350Y0165833D01*
X0440350Y0176333D02*
X0440350Y0179333D01*
X0442850Y0181833D01*
X0445350Y0181833D01*
D11*
X0443551Y0203333D02*
X0443553Y0203491D01*
X0443559Y0203649D01*
X0443569Y0203807D01*
X0443583Y0203965D01*
X0443601Y0204122D01*
X0443622Y0204279D01*
X0443648Y0204435D01*
X0443678Y0204591D01*
X0443711Y0204746D01*
X0443749Y0204899D01*
X0443790Y0205052D01*
X0443835Y0205204D01*
X0443884Y0205355D01*
X0443937Y0205504D01*
X0443993Y0205652D01*
X0444053Y0205798D01*
X0444117Y0205943D01*
X0444185Y0206086D01*
X0444256Y0206228D01*
X0444330Y0206368D01*
X0444408Y0206505D01*
X0444490Y0206641D01*
X0444574Y0206775D01*
X0444663Y0206906D01*
X0444754Y0207035D01*
X0444849Y0207162D01*
X0444946Y0207287D01*
X0445047Y0207409D01*
X0445151Y0207528D01*
X0445258Y0207645D01*
X0445368Y0207759D01*
X0445481Y0207870D01*
X0445596Y0207979D01*
X0445714Y0208084D01*
X0445835Y0208186D01*
X0445958Y0208286D01*
X0446084Y0208382D01*
X0446212Y0208475D01*
X0446342Y0208565D01*
X0446475Y0208651D01*
X0446610Y0208735D01*
X0446746Y0208814D01*
X0446885Y0208891D01*
X0447026Y0208963D01*
X0447168Y0209033D01*
X0447312Y0209098D01*
X0447458Y0209160D01*
X0447605Y0209218D01*
X0447754Y0209273D01*
X0447904Y0209324D01*
X0448055Y0209371D01*
X0448207Y0209414D01*
X0448360Y0209453D01*
X0448515Y0209489D01*
X0448670Y0209520D01*
X0448826Y0209548D01*
X0448982Y0209572D01*
X0449139Y0209592D01*
X0449297Y0209608D01*
X0449454Y0209620D01*
X0449613Y0209628D01*
X0449771Y0209632D01*
X0449929Y0209632D01*
X0450087Y0209628D01*
X0450246Y0209620D01*
X0450403Y0209608D01*
X0450561Y0209592D01*
X0450718Y0209572D01*
X0450874Y0209548D01*
X0451030Y0209520D01*
X0451185Y0209489D01*
X0451340Y0209453D01*
X0451493Y0209414D01*
X0451645Y0209371D01*
X0451796Y0209324D01*
X0451946Y0209273D01*
X0452095Y0209218D01*
X0452242Y0209160D01*
X0452388Y0209098D01*
X0452532Y0209033D01*
X0452674Y0208963D01*
X0452815Y0208891D01*
X0452954Y0208814D01*
X0453090Y0208735D01*
X0453225Y0208651D01*
X0453358Y0208565D01*
X0453488Y0208475D01*
X0453616Y0208382D01*
X0453742Y0208286D01*
X0453865Y0208186D01*
X0453986Y0208084D01*
X0454104Y0207979D01*
X0454219Y0207870D01*
X0454332Y0207759D01*
X0454442Y0207645D01*
X0454549Y0207528D01*
X0454653Y0207409D01*
X0454754Y0207287D01*
X0454851Y0207162D01*
X0454946Y0207035D01*
X0455037Y0206906D01*
X0455126Y0206775D01*
X0455210Y0206641D01*
X0455292Y0206505D01*
X0455370Y0206368D01*
X0455444Y0206228D01*
X0455515Y0206086D01*
X0455583Y0205943D01*
X0455647Y0205798D01*
X0455707Y0205652D01*
X0455763Y0205504D01*
X0455816Y0205355D01*
X0455865Y0205204D01*
X0455910Y0205052D01*
X0455951Y0204899D01*
X0455989Y0204746D01*
X0456022Y0204591D01*
X0456052Y0204435D01*
X0456078Y0204279D01*
X0456099Y0204122D01*
X0456117Y0203965D01*
X0456131Y0203807D01*
X0456141Y0203649D01*
X0456147Y0203491D01*
X0456149Y0203333D01*
X0456147Y0203175D01*
X0456141Y0203017D01*
X0456131Y0202859D01*
X0456117Y0202701D01*
X0456099Y0202544D01*
X0456078Y0202387D01*
X0456052Y0202231D01*
X0456022Y0202075D01*
X0455989Y0201920D01*
X0455951Y0201767D01*
X0455910Y0201614D01*
X0455865Y0201462D01*
X0455816Y0201311D01*
X0455763Y0201162D01*
X0455707Y0201014D01*
X0455647Y0200868D01*
X0455583Y0200723D01*
X0455515Y0200580D01*
X0455444Y0200438D01*
X0455370Y0200298D01*
X0455292Y0200161D01*
X0455210Y0200025D01*
X0455126Y0199891D01*
X0455037Y0199760D01*
X0454946Y0199631D01*
X0454851Y0199504D01*
X0454754Y0199379D01*
X0454653Y0199257D01*
X0454549Y0199138D01*
X0454442Y0199021D01*
X0454332Y0198907D01*
X0454219Y0198796D01*
X0454104Y0198687D01*
X0453986Y0198582D01*
X0453865Y0198480D01*
X0453742Y0198380D01*
X0453616Y0198284D01*
X0453488Y0198191D01*
X0453358Y0198101D01*
X0453225Y0198015D01*
X0453090Y0197931D01*
X0452954Y0197852D01*
X0452815Y0197775D01*
X0452674Y0197703D01*
X0452532Y0197633D01*
X0452388Y0197568D01*
X0452242Y0197506D01*
X0452095Y0197448D01*
X0451946Y0197393D01*
X0451796Y0197342D01*
X0451645Y0197295D01*
X0451493Y0197252D01*
X0451340Y0197213D01*
X0451185Y0197177D01*
X0451030Y0197146D01*
X0450874Y0197118D01*
X0450718Y0197094D01*
X0450561Y0197074D01*
X0450403Y0197058D01*
X0450246Y0197046D01*
X0450087Y0197038D01*
X0449929Y0197034D01*
X0449771Y0197034D01*
X0449613Y0197038D01*
X0449454Y0197046D01*
X0449297Y0197058D01*
X0449139Y0197074D01*
X0448982Y0197094D01*
X0448826Y0197118D01*
X0448670Y0197146D01*
X0448515Y0197177D01*
X0448360Y0197213D01*
X0448207Y0197252D01*
X0448055Y0197295D01*
X0447904Y0197342D01*
X0447754Y0197393D01*
X0447605Y0197448D01*
X0447458Y0197506D01*
X0447312Y0197568D01*
X0447168Y0197633D01*
X0447026Y0197703D01*
X0446885Y0197775D01*
X0446746Y0197852D01*
X0446610Y0197931D01*
X0446475Y0198015D01*
X0446342Y0198101D01*
X0446212Y0198191D01*
X0446084Y0198284D01*
X0445958Y0198380D01*
X0445835Y0198480D01*
X0445714Y0198582D01*
X0445596Y0198687D01*
X0445481Y0198796D01*
X0445368Y0198907D01*
X0445258Y0199021D01*
X0445151Y0199138D01*
X0445047Y0199257D01*
X0444946Y0199379D01*
X0444849Y0199504D01*
X0444754Y0199631D01*
X0444663Y0199760D01*
X0444574Y0199891D01*
X0444490Y0200025D01*
X0444408Y0200161D01*
X0444330Y0200298D01*
X0444256Y0200438D01*
X0444185Y0200580D01*
X0444117Y0200723D01*
X0444053Y0200868D01*
X0443993Y0201014D01*
X0443937Y0201162D01*
X0443884Y0201311D01*
X0443835Y0201462D01*
X0443790Y0201614D01*
X0443749Y0201767D01*
X0443711Y0201920D01*
X0443678Y0202075D01*
X0443648Y0202231D01*
X0443622Y0202387D01*
X0443601Y0202544D01*
X0443583Y0202701D01*
X0443569Y0202859D01*
X0443559Y0203017D01*
X0443553Y0203175D01*
X0443551Y0203333D01*
X0443551Y0028333D02*
X0443553Y0028491D01*
X0443559Y0028649D01*
X0443569Y0028807D01*
X0443583Y0028965D01*
X0443601Y0029122D01*
X0443622Y0029279D01*
X0443648Y0029435D01*
X0443678Y0029591D01*
X0443711Y0029746D01*
X0443749Y0029899D01*
X0443790Y0030052D01*
X0443835Y0030204D01*
X0443884Y0030355D01*
X0443937Y0030504D01*
X0443993Y0030652D01*
X0444053Y0030798D01*
X0444117Y0030943D01*
X0444185Y0031086D01*
X0444256Y0031228D01*
X0444330Y0031368D01*
X0444408Y0031505D01*
X0444490Y0031641D01*
X0444574Y0031775D01*
X0444663Y0031906D01*
X0444754Y0032035D01*
X0444849Y0032162D01*
X0444946Y0032287D01*
X0445047Y0032409D01*
X0445151Y0032528D01*
X0445258Y0032645D01*
X0445368Y0032759D01*
X0445481Y0032870D01*
X0445596Y0032979D01*
X0445714Y0033084D01*
X0445835Y0033186D01*
X0445958Y0033286D01*
X0446084Y0033382D01*
X0446212Y0033475D01*
X0446342Y0033565D01*
X0446475Y0033651D01*
X0446610Y0033735D01*
X0446746Y0033814D01*
X0446885Y0033891D01*
X0447026Y0033963D01*
X0447168Y0034033D01*
X0447312Y0034098D01*
X0447458Y0034160D01*
X0447605Y0034218D01*
X0447754Y0034273D01*
X0447904Y0034324D01*
X0448055Y0034371D01*
X0448207Y0034414D01*
X0448360Y0034453D01*
X0448515Y0034489D01*
X0448670Y0034520D01*
X0448826Y0034548D01*
X0448982Y0034572D01*
X0449139Y0034592D01*
X0449297Y0034608D01*
X0449454Y0034620D01*
X0449613Y0034628D01*
X0449771Y0034632D01*
X0449929Y0034632D01*
X0450087Y0034628D01*
X0450246Y0034620D01*
X0450403Y0034608D01*
X0450561Y0034592D01*
X0450718Y0034572D01*
X0450874Y0034548D01*
X0451030Y0034520D01*
X0451185Y0034489D01*
X0451340Y0034453D01*
X0451493Y0034414D01*
X0451645Y0034371D01*
X0451796Y0034324D01*
X0451946Y0034273D01*
X0452095Y0034218D01*
X0452242Y0034160D01*
X0452388Y0034098D01*
X0452532Y0034033D01*
X0452674Y0033963D01*
X0452815Y0033891D01*
X0452954Y0033814D01*
X0453090Y0033735D01*
X0453225Y0033651D01*
X0453358Y0033565D01*
X0453488Y0033475D01*
X0453616Y0033382D01*
X0453742Y0033286D01*
X0453865Y0033186D01*
X0453986Y0033084D01*
X0454104Y0032979D01*
X0454219Y0032870D01*
X0454332Y0032759D01*
X0454442Y0032645D01*
X0454549Y0032528D01*
X0454653Y0032409D01*
X0454754Y0032287D01*
X0454851Y0032162D01*
X0454946Y0032035D01*
X0455037Y0031906D01*
X0455126Y0031775D01*
X0455210Y0031641D01*
X0455292Y0031505D01*
X0455370Y0031368D01*
X0455444Y0031228D01*
X0455515Y0031086D01*
X0455583Y0030943D01*
X0455647Y0030798D01*
X0455707Y0030652D01*
X0455763Y0030504D01*
X0455816Y0030355D01*
X0455865Y0030204D01*
X0455910Y0030052D01*
X0455951Y0029899D01*
X0455989Y0029746D01*
X0456022Y0029591D01*
X0456052Y0029435D01*
X0456078Y0029279D01*
X0456099Y0029122D01*
X0456117Y0028965D01*
X0456131Y0028807D01*
X0456141Y0028649D01*
X0456147Y0028491D01*
X0456149Y0028333D01*
X0456147Y0028175D01*
X0456141Y0028017D01*
X0456131Y0027859D01*
X0456117Y0027701D01*
X0456099Y0027544D01*
X0456078Y0027387D01*
X0456052Y0027231D01*
X0456022Y0027075D01*
X0455989Y0026920D01*
X0455951Y0026767D01*
X0455910Y0026614D01*
X0455865Y0026462D01*
X0455816Y0026311D01*
X0455763Y0026162D01*
X0455707Y0026014D01*
X0455647Y0025868D01*
X0455583Y0025723D01*
X0455515Y0025580D01*
X0455444Y0025438D01*
X0455370Y0025298D01*
X0455292Y0025161D01*
X0455210Y0025025D01*
X0455126Y0024891D01*
X0455037Y0024760D01*
X0454946Y0024631D01*
X0454851Y0024504D01*
X0454754Y0024379D01*
X0454653Y0024257D01*
X0454549Y0024138D01*
X0454442Y0024021D01*
X0454332Y0023907D01*
X0454219Y0023796D01*
X0454104Y0023687D01*
X0453986Y0023582D01*
X0453865Y0023480D01*
X0453742Y0023380D01*
X0453616Y0023284D01*
X0453488Y0023191D01*
X0453358Y0023101D01*
X0453225Y0023015D01*
X0453090Y0022931D01*
X0452954Y0022852D01*
X0452815Y0022775D01*
X0452674Y0022703D01*
X0452532Y0022633D01*
X0452388Y0022568D01*
X0452242Y0022506D01*
X0452095Y0022448D01*
X0451946Y0022393D01*
X0451796Y0022342D01*
X0451645Y0022295D01*
X0451493Y0022252D01*
X0451340Y0022213D01*
X0451185Y0022177D01*
X0451030Y0022146D01*
X0450874Y0022118D01*
X0450718Y0022094D01*
X0450561Y0022074D01*
X0450403Y0022058D01*
X0450246Y0022046D01*
X0450087Y0022038D01*
X0449929Y0022034D01*
X0449771Y0022034D01*
X0449613Y0022038D01*
X0449454Y0022046D01*
X0449297Y0022058D01*
X0449139Y0022074D01*
X0448982Y0022094D01*
X0448826Y0022118D01*
X0448670Y0022146D01*
X0448515Y0022177D01*
X0448360Y0022213D01*
X0448207Y0022252D01*
X0448055Y0022295D01*
X0447904Y0022342D01*
X0447754Y0022393D01*
X0447605Y0022448D01*
X0447458Y0022506D01*
X0447312Y0022568D01*
X0447168Y0022633D01*
X0447026Y0022703D01*
X0446885Y0022775D01*
X0446746Y0022852D01*
X0446610Y0022931D01*
X0446475Y0023015D01*
X0446342Y0023101D01*
X0446212Y0023191D01*
X0446084Y0023284D01*
X0445958Y0023380D01*
X0445835Y0023480D01*
X0445714Y0023582D01*
X0445596Y0023687D01*
X0445481Y0023796D01*
X0445368Y0023907D01*
X0445258Y0024021D01*
X0445151Y0024138D01*
X0445047Y0024257D01*
X0444946Y0024379D01*
X0444849Y0024504D01*
X0444754Y0024631D01*
X0444663Y0024760D01*
X0444574Y0024891D01*
X0444490Y0025025D01*
X0444408Y0025161D01*
X0444330Y0025298D01*
X0444256Y0025438D01*
X0444185Y0025580D01*
X0444117Y0025723D01*
X0444053Y0025868D01*
X0443993Y0026014D01*
X0443937Y0026162D01*
X0443884Y0026311D01*
X0443835Y0026462D01*
X0443790Y0026614D01*
X0443749Y0026767D01*
X0443711Y0026920D01*
X0443678Y0027075D01*
X0443648Y0027231D01*
X0443622Y0027387D01*
X0443601Y0027544D01*
X0443583Y0027701D01*
X0443569Y0027859D01*
X0443559Y0028017D01*
X0443553Y0028175D01*
X0443551Y0028333D01*
X0019051Y0028333D02*
X0019053Y0028491D01*
X0019059Y0028649D01*
X0019069Y0028807D01*
X0019083Y0028965D01*
X0019101Y0029122D01*
X0019122Y0029279D01*
X0019148Y0029435D01*
X0019178Y0029591D01*
X0019211Y0029746D01*
X0019249Y0029899D01*
X0019290Y0030052D01*
X0019335Y0030204D01*
X0019384Y0030355D01*
X0019437Y0030504D01*
X0019493Y0030652D01*
X0019553Y0030798D01*
X0019617Y0030943D01*
X0019685Y0031086D01*
X0019756Y0031228D01*
X0019830Y0031368D01*
X0019908Y0031505D01*
X0019990Y0031641D01*
X0020074Y0031775D01*
X0020163Y0031906D01*
X0020254Y0032035D01*
X0020349Y0032162D01*
X0020446Y0032287D01*
X0020547Y0032409D01*
X0020651Y0032528D01*
X0020758Y0032645D01*
X0020868Y0032759D01*
X0020981Y0032870D01*
X0021096Y0032979D01*
X0021214Y0033084D01*
X0021335Y0033186D01*
X0021458Y0033286D01*
X0021584Y0033382D01*
X0021712Y0033475D01*
X0021842Y0033565D01*
X0021975Y0033651D01*
X0022110Y0033735D01*
X0022246Y0033814D01*
X0022385Y0033891D01*
X0022526Y0033963D01*
X0022668Y0034033D01*
X0022812Y0034098D01*
X0022958Y0034160D01*
X0023105Y0034218D01*
X0023254Y0034273D01*
X0023404Y0034324D01*
X0023555Y0034371D01*
X0023707Y0034414D01*
X0023860Y0034453D01*
X0024015Y0034489D01*
X0024170Y0034520D01*
X0024326Y0034548D01*
X0024482Y0034572D01*
X0024639Y0034592D01*
X0024797Y0034608D01*
X0024954Y0034620D01*
X0025113Y0034628D01*
X0025271Y0034632D01*
X0025429Y0034632D01*
X0025587Y0034628D01*
X0025746Y0034620D01*
X0025903Y0034608D01*
X0026061Y0034592D01*
X0026218Y0034572D01*
X0026374Y0034548D01*
X0026530Y0034520D01*
X0026685Y0034489D01*
X0026840Y0034453D01*
X0026993Y0034414D01*
X0027145Y0034371D01*
X0027296Y0034324D01*
X0027446Y0034273D01*
X0027595Y0034218D01*
X0027742Y0034160D01*
X0027888Y0034098D01*
X0028032Y0034033D01*
X0028174Y0033963D01*
X0028315Y0033891D01*
X0028454Y0033814D01*
X0028590Y0033735D01*
X0028725Y0033651D01*
X0028858Y0033565D01*
X0028988Y0033475D01*
X0029116Y0033382D01*
X0029242Y0033286D01*
X0029365Y0033186D01*
X0029486Y0033084D01*
X0029604Y0032979D01*
X0029719Y0032870D01*
X0029832Y0032759D01*
X0029942Y0032645D01*
X0030049Y0032528D01*
X0030153Y0032409D01*
X0030254Y0032287D01*
X0030351Y0032162D01*
X0030446Y0032035D01*
X0030537Y0031906D01*
X0030626Y0031775D01*
X0030710Y0031641D01*
X0030792Y0031505D01*
X0030870Y0031368D01*
X0030944Y0031228D01*
X0031015Y0031086D01*
X0031083Y0030943D01*
X0031147Y0030798D01*
X0031207Y0030652D01*
X0031263Y0030504D01*
X0031316Y0030355D01*
X0031365Y0030204D01*
X0031410Y0030052D01*
X0031451Y0029899D01*
X0031489Y0029746D01*
X0031522Y0029591D01*
X0031552Y0029435D01*
X0031578Y0029279D01*
X0031599Y0029122D01*
X0031617Y0028965D01*
X0031631Y0028807D01*
X0031641Y0028649D01*
X0031647Y0028491D01*
X0031649Y0028333D01*
X0031647Y0028175D01*
X0031641Y0028017D01*
X0031631Y0027859D01*
X0031617Y0027701D01*
X0031599Y0027544D01*
X0031578Y0027387D01*
X0031552Y0027231D01*
X0031522Y0027075D01*
X0031489Y0026920D01*
X0031451Y0026767D01*
X0031410Y0026614D01*
X0031365Y0026462D01*
X0031316Y0026311D01*
X0031263Y0026162D01*
X0031207Y0026014D01*
X0031147Y0025868D01*
X0031083Y0025723D01*
X0031015Y0025580D01*
X0030944Y0025438D01*
X0030870Y0025298D01*
X0030792Y0025161D01*
X0030710Y0025025D01*
X0030626Y0024891D01*
X0030537Y0024760D01*
X0030446Y0024631D01*
X0030351Y0024504D01*
X0030254Y0024379D01*
X0030153Y0024257D01*
X0030049Y0024138D01*
X0029942Y0024021D01*
X0029832Y0023907D01*
X0029719Y0023796D01*
X0029604Y0023687D01*
X0029486Y0023582D01*
X0029365Y0023480D01*
X0029242Y0023380D01*
X0029116Y0023284D01*
X0028988Y0023191D01*
X0028858Y0023101D01*
X0028725Y0023015D01*
X0028590Y0022931D01*
X0028454Y0022852D01*
X0028315Y0022775D01*
X0028174Y0022703D01*
X0028032Y0022633D01*
X0027888Y0022568D01*
X0027742Y0022506D01*
X0027595Y0022448D01*
X0027446Y0022393D01*
X0027296Y0022342D01*
X0027145Y0022295D01*
X0026993Y0022252D01*
X0026840Y0022213D01*
X0026685Y0022177D01*
X0026530Y0022146D01*
X0026374Y0022118D01*
X0026218Y0022094D01*
X0026061Y0022074D01*
X0025903Y0022058D01*
X0025746Y0022046D01*
X0025587Y0022038D01*
X0025429Y0022034D01*
X0025271Y0022034D01*
X0025113Y0022038D01*
X0024954Y0022046D01*
X0024797Y0022058D01*
X0024639Y0022074D01*
X0024482Y0022094D01*
X0024326Y0022118D01*
X0024170Y0022146D01*
X0024015Y0022177D01*
X0023860Y0022213D01*
X0023707Y0022252D01*
X0023555Y0022295D01*
X0023404Y0022342D01*
X0023254Y0022393D01*
X0023105Y0022448D01*
X0022958Y0022506D01*
X0022812Y0022568D01*
X0022668Y0022633D01*
X0022526Y0022703D01*
X0022385Y0022775D01*
X0022246Y0022852D01*
X0022110Y0022931D01*
X0021975Y0023015D01*
X0021842Y0023101D01*
X0021712Y0023191D01*
X0021584Y0023284D01*
X0021458Y0023380D01*
X0021335Y0023480D01*
X0021214Y0023582D01*
X0021096Y0023687D01*
X0020981Y0023796D01*
X0020868Y0023907D01*
X0020758Y0024021D01*
X0020651Y0024138D01*
X0020547Y0024257D01*
X0020446Y0024379D01*
X0020349Y0024504D01*
X0020254Y0024631D01*
X0020163Y0024760D01*
X0020074Y0024891D01*
X0019990Y0025025D01*
X0019908Y0025161D01*
X0019830Y0025298D01*
X0019756Y0025438D01*
X0019685Y0025580D01*
X0019617Y0025723D01*
X0019553Y0025868D01*
X0019493Y0026014D01*
X0019437Y0026162D01*
X0019384Y0026311D01*
X0019335Y0026462D01*
X0019290Y0026614D01*
X0019249Y0026767D01*
X0019211Y0026920D01*
X0019178Y0027075D01*
X0019148Y0027231D01*
X0019122Y0027387D01*
X0019101Y0027544D01*
X0019083Y0027701D01*
X0019069Y0027859D01*
X0019059Y0028017D01*
X0019053Y0028175D01*
X0019051Y0028333D01*
X0018551Y0203333D02*
X0018553Y0203491D01*
X0018559Y0203649D01*
X0018569Y0203807D01*
X0018583Y0203965D01*
X0018601Y0204122D01*
X0018622Y0204279D01*
X0018648Y0204435D01*
X0018678Y0204591D01*
X0018711Y0204746D01*
X0018749Y0204899D01*
X0018790Y0205052D01*
X0018835Y0205204D01*
X0018884Y0205355D01*
X0018937Y0205504D01*
X0018993Y0205652D01*
X0019053Y0205798D01*
X0019117Y0205943D01*
X0019185Y0206086D01*
X0019256Y0206228D01*
X0019330Y0206368D01*
X0019408Y0206505D01*
X0019490Y0206641D01*
X0019574Y0206775D01*
X0019663Y0206906D01*
X0019754Y0207035D01*
X0019849Y0207162D01*
X0019946Y0207287D01*
X0020047Y0207409D01*
X0020151Y0207528D01*
X0020258Y0207645D01*
X0020368Y0207759D01*
X0020481Y0207870D01*
X0020596Y0207979D01*
X0020714Y0208084D01*
X0020835Y0208186D01*
X0020958Y0208286D01*
X0021084Y0208382D01*
X0021212Y0208475D01*
X0021342Y0208565D01*
X0021475Y0208651D01*
X0021610Y0208735D01*
X0021746Y0208814D01*
X0021885Y0208891D01*
X0022026Y0208963D01*
X0022168Y0209033D01*
X0022312Y0209098D01*
X0022458Y0209160D01*
X0022605Y0209218D01*
X0022754Y0209273D01*
X0022904Y0209324D01*
X0023055Y0209371D01*
X0023207Y0209414D01*
X0023360Y0209453D01*
X0023515Y0209489D01*
X0023670Y0209520D01*
X0023826Y0209548D01*
X0023982Y0209572D01*
X0024139Y0209592D01*
X0024297Y0209608D01*
X0024454Y0209620D01*
X0024613Y0209628D01*
X0024771Y0209632D01*
X0024929Y0209632D01*
X0025087Y0209628D01*
X0025246Y0209620D01*
X0025403Y0209608D01*
X0025561Y0209592D01*
X0025718Y0209572D01*
X0025874Y0209548D01*
X0026030Y0209520D01*
X0026185Y0209489D01*
X0026340Y0209453D01*
X0026493Y0209414D01*
X0026645Y0209371D01*
X0026796Y0209324D01*
X0026946Y0209273D01*
X0027095Y0209218D01*
X0027242Y0209160D01*
X0027388Y0209098D01*
X0027532Y0209033D01*
X0027674Y0208963D01*
X0027815Y0208891D01*
X0027954Y0208814D01*
X0028090Y0208735D01*
X0028225Y0208651D01*
X0028358Y0208565D01*
X0028488Y0208475D01*
X0028616Y0208382D01*
X0028742Y0208286D01*
X0028865Y0208186D01*
X0028986Y0208084D01*
X0029104Y0207979D01*
X0029219Y0207870D01*
X0029332Y0207759D01*
X0029442Y0207645D01*
X0029549Y0207528D01*
X0029653Y0207409D01*
X0029754Y0207287D01*
X0029851Y0207162D01*
X0029946Y0207035D01*
X0030037Y0206906D01*
X0030126Y0206775D01*
X0030210Y0206641D01*
X0030292Y0206505D01*
X0030370Y0206368D01*
X0030444Y0206228D01*
X0030515Y0206086D01*
X0030583Y0205943D01*
X0030647Y0205798D01*
X0030707Y0205652D01*
X0030763Y0205504D01*
X0030816Y0205355D01*
X0030865Y0205204D01*
X0030910Y0205052D01*
X0030951Y0204899D01*
X0030989Y0204746D01*
X0031022Y0204591D01*
X0031052Y0204435D01*
X0031078Y0204279D01*
X0031099Y0204122D01*
X0031117Y0203965D01*
X0031131Y0203807D01*
X0031141Y0203649D01*
X0031147Y0203491D01*
X0031149Y0203333D01*
X0031147Y0203175D01*
X0031141Y0203017D01*
X0031131Y0202859D01*
X0031117Y0202701D01*
X0031099Y0202544D01*
X0031078Y0202387D01*
X0031052Y0202231D01*
X0031022Y0202075D01*
X0030989Y0201920D01*
X0030951Y0201767D01*
X0030910Y0201614D01*
X0030865Y0201462D01*
X0030816Y0201311D01*
X0030763Y0201162D01*
X0030707Y0201014D01*
X0030647Y0200868D01*
X0030583Y0200723D01*
X0030515Y0200580D01*
X0030444Y0200438D01*
X0030370Y0200298D01*
X0030292Y0200161D01*
X0030210Y0200025D01*
X0030126Y0199891D01*
X0030037Y0199760D01*
X0029946Y0199631D01*
X0029851Y0199504D01*
X0029754Y0199379D01*
X0029653Y0199257D01*
X0029549Y0199138D01*
X0029442Y0199021D01*
X0029332Y0198907D01*
X0029219Y0198796D01*
X0029104Y0198687D01*
X0028986Y0198582D01*
X0028865Y0198480D01*
X0028742Y0198380D01*
X0028616Y0198284D01*
X0028488Y0198191D01*
X0028358Y0198101D01*
X0028225Y0198015D01*
X0028090Y0197931D01*
X0027954Y0197852D01*
X0027815Y0197775D01*
X0027674Y0197703D01*
X0027532Y0197633D01*
X0027388Y0197568D01*
X0027242Y0197506D01*
X0027095Y0197448D01*
X0026946Y0197393D01*
X0026796Y0197342D01*
X0026645Y0197295D01*
X0026493Y0197252D01*
X0026340Y0197213D01*
X0026185Y0197177D01*
X0026030Y0197146D01*
X0025874Y0197118D01*
X0025718Y0197094D01*
X0025561Y0197074D01*
X0025403Y0197058D01*
X0025246Y0197046D01*
X0025087Y0197038D01*
X0024929Y0197034D01*
X0024771Y0197034D01*
X0024613Y0197038D01*
X0024454Y0197046D01*
X0024297Y0197058D01*
X0024139Y0197074D01*
X0023982Y0197094D01*
X0023826Y0197118D01*
X0023670Y0197146D01*
X0023515Y0197177D01*
X0023360Y0197213D01*
X0023207Y0197252D01*
X0023055Y0197295D01*
X0022904Y0197342D01*
X0022754Y0197393D01*
X0022605Y0197448D01*
X0022458Y0197506D01*
X0022312Y0197568D01*
X0022168Y0197633D01*
X0022026Y0197703D01*
X0021885Y0197775D01*
X0021746Y0197852D01*
X0021610Y0197931D01*
X0021475Y0198015D01*
X0021342Y0198101D01*
X0021212Y0198191D01*
X0021084Y0198284D01*
X0020958Y0198380D01*
X0020835Y0198480D01*
X0020714Y0198582D01*
X0020596Y0198687D01*
X0020481Y0198796D01*
X0020368Y0198907D01*
X0020258Y0199021D01*
X0020151Y0199138D01*
X0020047Y0199257D01*
X0019946Y0199379D01*
X0019849Y0199504D01*
X0019754Y0199631D01*
X0019663Y0199760D01*
X0019574Y0199891D01*
X0019490Y0200025D01*
X0019408Y0200161D01*
X0019330Y0200298D01*
X0019256Y0200438D01*
X0019185Y0200580D01*
X0019117Y0200723D01*
X0019053Y0200868D01*
X0018993Y0201014D01*
X0018937Y0201162D01*
X0018884Y0201311D01*
X0018835Y0201462D01*
X0018790Y0201614D01*
X0018749Y0201767D01*
X0018711Y0201920D01*
X0018678Y0202075D01*
X0018648Y0202231D01*
X0018622Y0202387D01*
X0018601Y0202544D01*
X0018583Y0202701D01*
X0018569Y0202859D01*
X0018559Y0203017D01*
X0018553Y0203175D01*
X0018551Y0203333D01*
D12*
X0108521Y0141989D02*
X0108521Y0135683D01*
X0106279Y0136734D02*
X0105228Y0137785D01*
X0102075Y0137785D01*
X0102075Y0138836D02*
X0102075Y0135683D01*
X0105228Y0135683D01*
X0106279Y0136734D01*
X0108521Y0138836D02*
X0112724Y0138836D01*
X0112724Y0135683D02*
X0112724Y0141989D01*
X0105228Y0139887D02*
X0103126Y0139887D01*
X0102075Y0138836D01*
X0099833Y0139887D02*
X0099833Y0136734D01*
X0098782Y0135683D01*
X0095630Y0135683D01*
X0095630Y0139887D01*
X0093388Y0138836D02*
X0092337Y0139887D01*
X0089184Y0139887D01*
X0090235Y0137785D02*
X0092337Y0137785D01*
X0093388Y0138836D01*
X0093388Y0135683D02*
X0090235Y0135683D01*
X0089184Y0136734D01*
X0090235Y0137785D01*
X0121412Y0135683D02*
X0125615Y0135683D01*
X0121412Y0139887D01*
X0125615Y0139887D01*
X0128861Y0141989D02*
X0128861Y0135683D01*
X0127811Y0135683D02*
X0129912Y0135683D01*
X0132154Y0135683D02*
X0132154Y0138836D01*
X0133205Y0139887D01*
X0135307Y0139887D01*
X0135307Y0137785D02*
X0132154Y0137785D01*
X0132154Y0135683D02*
X0135307Y0135683D01*
X0136358Y0136734D01*
X0135307Y0137785D01*
X0138600Y0138836D02*
X0138600Y0135683D01*
X0140702Y0135683D02*
X0140702Y0138836D01*
X0139651Y0139887D01*
X0138600Y0138836D01*
X0140702Y0138836D02*
X0141752Y0139887D01*
X0142803Y0139887D01*
X0142803Y0135683D01*
X0145045Y0135683D02*
X0145045Y0138836D01*
X0146096Y0139887D01*
X0148198Y0139887D01*
X0149249Y0138836D01*
X0151491Y0139887D02*
X0154643Y0139887D01*
X0155694Y0138836D01*
X0155694Y0136734D01*
X0154643Y0135683D01*
X0151491Y0135683D01*
X0149249Y0135683D02*
X0149249Y0141989D01*
X0157936Y0140938D02*
X0158987Y0141989D01*
X0161089Y0141989D01*
X0162140Y0140938D01*
X0162140Y0139887D01*
X0161089Y0138836D01*
X0158987Y0138836D01*
X0157936Y0137785D01*
X0157936Y0136734D01*
X0158987Y0135683D01*
X0161089Y0135683D01*
X0162140Y0136734D01*
X0170827Y0135683D02*
X0170827Y0141989D01*
X0170827Y0139887D02*
X0173980Y0139887D01*
X0175031Y0138836D01*
X0175031Y0136734D01*
X0173980Y0135683D01*
X0170827Y0135683D01*
X0177273Y0135683D02*
X0177273Y0138836D01*
X0178324Y0139887D01*
X0181476Y0139887D01*
X0181476Y0135683D01*
X0183718Y0135683D02*
X0183718Y0138836D01*
X0184769Y0139887D01*
X0186871Y0139887D01*
X0186871Y0137785D02*
X0183718Y0137785D01*
X0183718Y0135683D02*
X0186871Y0135683D01*
X0187922Y0136734D01*
X0186871Y0137785D01*
X0196609Y0136734D02*
X0197660Y0137785D01*
X0199762Y0137785D01*
X0200813Y0138836D01*
X0199762Y0139887D01*
X0196609Y0139887D01*
X0196609Y0136734D02*
X0197660Y0135683D01*
X0200813Y0135683D01*
X0203055Y0136734D02*
X0203055Y0138836D01*
X0204106Y0139887D01*
X0207258Y0139887D01*
X0207258Y0141989D02*
X0207258Y0135683D01*
X0204106Y0135683D01*
X0203055Y0136734D01*
X0209500Y0135683D02*
X0209500Y0138836D01*
X0210551Y0139887D01*
X0212653Y0139887D01*
X0212653Y0137785D02*
X0209500Y0137785D01*
X0209500Y0135683D02*
X0212653Y0135683D01*
X0213704Y0136734D01*
X0212653Y0137785D01*
X0215946Y0135683D02*
X0220149Y0135683D01*
X0220149Y0141989D01*
X0222391Y0140938D02*
X0222391Y0138836D01*
X0223442Y0137785D01*
X0226595Y0137785D01*
X0226595Y0135683D02*
X0226595Y0141989D01*
X0223442Y0141989D01*
X0222391Y0140938D01*
X0224493Y0137785D02*
X0222391Y0135683D01*
X0228837Y0135683D02*
X0228837Y0139887D01*
X0230938Y0141989D01*
X0233040Y0139887D01*
X0233040Y0135683D01*
X0235282Y0136734D02*
X0236333Y0135683D01*
X0239486Y0135683D01*
X0239486Y0141989D01*
X0236333Y0141989D01*
X0235282Y0140938D01*
X0235282Y0139887D01*
X0236333Y0138836D01*
X0239486Y0138836D01*
X0241728Y0136734D02*
X0241728Y0141989D01*
X0245931Y0141989D02*
X0245931Y0136734D01*
X0244880Y0135683D01*
X0242779Y0135683D01*
X0241728Y0136734D01*
X0236333Y0138836D02*
X0235282Y0137785D01*
X0235282Y0136734D01*
X0233040Y0138836D02*
X0228837Y0138836D01*
X0243876Y0146183D02*
X0248080Y0146183D01*
X0243876Y0150387D01*
X0243876Y0151438D01*
X0244927Y0152489D01*
X0247029Y0152489D01*
X0248080Y0151438D01*
X0250252Y0147234D02*
X0250252Y0146183D01*
X0251303Y0146183D01*
X0251303Y0147234D01*
X0250252Y0147234D01*
X0253544Y0146183D02*
X0257748Y0146183D01*
X0255646Y0146183D02*
X0255646Y0152489D01*
X0257748Y0150387D01*
X0259990Y0150387D02*
X0262092Y0146183D01*
X0264194Y0150387D01*
X0272881Y0149336D02*
X0272881Y0147234D01*
X0273932Y0146183D01*
X0277085Y0146183D01*
X0277085Y0144082D02*
X0277085Y0150387D01*
X0273932Y0150387D01*
X0272881Y0149336D01*
X0279326Y0149336D02*
X0279326Y0148285D01*
X0283530Y0148285D01*
X0283530Y0147234D02*
X0283530Y0149336D01*
X0282479Y0150387D01*
X0280377Y0150387D01*
X0279326Y0149336D01*
X0280377Y0146183D02*
X0282479Y0146183D01*
X0283530Y0147234D01*
X0285725Y0146183D02*
X0286776Y0147234D01*
X0286776Y0151438D01*
X0287827Y0150387D02*
X0285725Y0150387D01*
X0290069Y0151438D02*
X0291120Y0152489D01*
X0293222Y0152489D01*
X0294273Y0151438D01*
X0294273Y0150387D01*
X0293222Y0149336D01*
X0291120Y0149336D01*
X0290069Y0148285D01*
X0290069Y0147234D01*
X0291120Y0146183D01*
X0293222Y0146183D01*
X0294273Y0147234D01*
X0296514Y0146183D02*
X0298616Y0148285D01*
X0297565Y0148285D02*
X0300718Y0148285D01*
X0300718Y0146183D02*
X0300718Y0152489D01*
X0297565Y0152489D01*
X0296514Y0151438D01*
X0296514Y0149336D01*
X0297565Y0148285D01*
X0302960Y0149336D02*
X0307164Y0149336D01*
X0307164Y0150387D02*
X0307164Y0146183D01*
X0309405Y0147234D02*
X0310456Y0146183D01*
X0313609Y0146183D01*
X0313609Y0152489D01*
X0310456Y0152489D01*
X0309405Y0151438D01*
X0309405Y0150387D01*
X0310456Y0149336D01*
X0313609Y0149336D01*
X0315851Y0147234D02*
X0315851Y0152489D01*
X0320055Y0152489D02*
X0320055Y0147234D01*
X0319004Y0146183D01*
X0316902Y0146183D01*
X0315851Y0147234D01*
X0310456Y0149336D02*
X0309405Y0148285D01*
X0309405Y0147234D01*
X0307164Y0150387D02*
X0305062Y0152489D01*
X0302960Y0150387D01*
X0302960Y0146183D01*
X0300741Y0140938D02*
X0300741Y0136734D01*
X0299690Y0135683D01*
X0297495Y0136734D02*
X0297495Y0138836D01*
X0296444Y0139887D01*
X0293292Y0139887D01*
X0293292Y0141989D02*
X0293292Y0135683D01*
X0296444Y0135683D01*
X0297495Y0136734D01*
X0299690Y0139887D02*
X0301792Y0139887D01*
X0304034Y0138836D02*
X0304034Y0135683D01*
X0307187Y0135683D01*
X0308238Y0136734D01*
X0307187Y0137785D01*
X0304034Y0137785D01*
X0304034Y0138836D02*
X0305085Y0139887D01*
X0307187Y0139887D01*
X0310480Y0138836D02*
X0310480Y0137785D01*
X0314683Y0137785D01*
X0314683Y0136734D02*
X0314683Y0138836D01*
X0313632Y0139887D01*
X0311531Y0139887D01*
X0310480Y0138836D01*
X0311531Y0135683D02*
X0313632Y0135683D01*
X0314683Y0136734D01*
X0316902Y0139887D02*
X0317953Y0139887D01*
X0320055Y0137785D01*
X0320055Y0135683D02*
X0320055Y0139887D01*
X0322296Y0140938D02*
X0323347Y0141989D01*
X0325449Y0141989D01*
X0326500Y0140938D01*
X0326500Y0136734D01*
X0325449Y0135683D01*
X0323347Y0135683D01*
X0322296Y0136734D01*
X0322296Y0129387D02*
X0322296Y0126234D01*
X0323347Y0125183D01*
X0324398Y0126234D01*
X0325449Y0125183D01*
X0326500Y0126234D01*
X0326500Y0129387D01*
X0320055Y0129387D02*
X0320055Y0126234D01*
X0319004Y0125183D01*
X0317953Y0126234D01*
X0316902Y0125183D01*
X0315851Y0126234D01*
X0315851Y0129387D01*
X0313609Y0129387D02*
X0313609Y0126234D01*
X0312558Y0125183D01*
X0311507Y0126234D01*
X0310456Y0125183D01*
X0309405Y0126234D01*
X0309405Y0129387D01*
X0307164Y0126234D02*
X0306113Y0126234D01*
X0306113Y0125183D01*
X0307164Y0125183D01*
X0307164Y0126234D01*
X0303941Y0128336D02*
X0301839Y0128336D01*
X0302890Y0130438D02*
X0302890Y0125183D01*
X0299644Y0126234D02*
X0298593Y0125183D01*
X0295440Y0125183D01*
X0295440Y0129387D01*
X0293198Y0129387D02*
X0290046Y0129387D01*
X0288995Y0128336D01*
X0288995Y0126234D01*
X0290046Y0125183D01*
X0293198Y0125183D01*
X0293198Y0131489D01*
X0285702Y0129387D02*
X0283600Y0129387D01*
X0282549Y0128336D01*
X0282549Y0125183D01*
X0285702Y0125183D01*
X0286753Y0126234D01*
X0285702Y0127285D01*
X0282549Y0127285D01*
X0280307Y0127285D02*
X0278205Y0129387D01*
X0277155Y0129387D01*
X0274936Y0131489D02*
X0273885Y0131489D01*
X0273885Y0125183D01*
X0274936Y0125183D02*
X0272834Y0125183D01*
X0270639Y0126234D02*
X0269588Y0127285D01*
X0266435Y0127285D01*
X0266435Y0128336D02*
X0266435Y0125183D01*
X0269588Y0125183D01*
X0270639Y0126234D01*
X0269588Y0129387D02*
X0267486Y0129387D01*
X0266435Y0128336D01*
X0264194Y0129387D02*
X0261041Y0129387D01*
X0259990Y0128336D01*
X0259990Y0126234D01*
X0261041Y0125183D01*
X0264194Y0125183D01*
X0264194Y0131489D01*
X0263166Y0133582D02*
X0262115Y0133582D01*
X0261064Y0134632D01*
X0261064Y0139887D01*
X0261064Y0135683D02*
X0264217Y0135683D01*
X0265268Y0136734D01*
X0265268Y0139887D01*
X0267510Y0138836D02*
X0267510Y0136734D01*
X0268561Y0135683D01*
X0271713Y0135683D01*
X0271713Y0141989D01*
X0271713Y0139887D02*
X0268561Y0139887D01*
X0267510Y0138836D01*
X0280401Y0139887D02*
X0283553Y0139887D01*
X0284604Y0138836D01*
X0284604Y0136734D01*
X0283553Y0135683D01*
X0280401Y0135683D01*
X0280401Y0141989D01*
X0286846Y0138836D02*
X0286846Y0137785D01*
X0291050Y0137785D01*
X0291050Y0136734D02*
X0291050Y0138836D01*
X0289999Y0139887D01*
X0287897Y0139887D01*
X0286846Y0138836D01*
X0287897Y0135683D02*
X0289999Y0135683D01*
X0291050Y0136734D01*
X0301839Y0131489D02*
X0302890Y0130438D01*
X0299644Y0129387D02*
X0299644Y0126234D01*
X0291050Y0120989D02*
X0291050Y0114683D01*
X0293292Y0114683D02*
X0296444Y0114683D01*
X0297495Y0115734D01*
X0297495Y0117836D01*
X0296444Y0118887D01*
X0293292Y0118887D01*
X0291050Y0117836D02*
X0289999Y0118887D01*
X0287897Y0118887D01*
X0286846Y0117836D01*
X0286846Y0114683D01*
X0284604Y0114683D02*
X0284604Y0118887D01*
X0283553Y0118887D01*
X0282502Y0117836D01*
X0281452Y0118887D01*
X0280401Y0117836D01*
X0280401Y0114683D01*
X0282502Y0114683D02*
X0282502Y0117836D01*
X0278159Y0115734D02*
X0277108Y0116785D01*
X0273955Y0116785D01*
X0273955Y0117836D02*
X0273955Y0114683D01*
X0277108Y0114683D01*
X0278159Y0115734D01*
X0277108Y0118887D02*
X0275006Y0118887D01*
X0273955Y0117836D01*
X0271713Y0114683D02*
X0269611Y0114683D01*
X0270662Y0114683D02*
X0270662Y0120989D01*
X0271713Y0120989D01*
X0267416Y0118887D02*
X0263213Y0118887D01*
X0267416Y0114683D01*
X0263213Y0114683D01*
X0260971Y0114683D02*
X0260971Y0120989D01*
X0259920Y0118887D02*
X0257818Y0118887D01*
X0256767Y0117836D01*
X0256767Y0114683D01*
X0254525Y0115734D02*
X0253474Y0116785D01*
X0250322Y0116785D01*
X0250322Y0117836D02*
X0250322Y0114683D01*
X0253474Y0114683D01*
X0254525Y0115734D01*
X0253474Y0118887D02*
X0251373Y0118887D01*
X0250322Y0117836D01*
X0248080Y0118887D02*
X0248080Y0115734D01*
X0247029Y0114683D01*
X0243876Y0114683D01*
X0243876Y0118887D01*
X0241634Y0117836D02*
X0240583Y0116785D01*
X0238482Y0116785D01*
X0237431Y0115734D01*
X0238482Y0114683D01*
X0241634Y0114683D01*
X0241634Y0117836D02*
X0240583Y0118887D01*
X0237431Y0118887D01*
X0235189Y0115734D02*
X0234138Y0115734D01*
X0234138Y0114683D01*
X0235189Y0114683D01*
X0235189Y0115734D01*
X0231966Y0115734D02*
X0231966Y0117836D01*
X0230915Y0118887D01*
X0227762Y0118887D01*
X0225521Y0117836D02*
X0225521Y0115734D01*
X0224470Y0114683D01*
X0222368Y0114683D01*
X0221317Y0115734D01*
X0221317Y0117836D01*
X0222368Y0118887D01*
X0224470Y0118887D01*
X0225521Y0117836D01*
X0227762Y0114683D02*
X0230915Y0114683D01*
X0231966Y0115734D01*
X0233110Y0123082D02*
X0232059Y0124132D01*
X0232059Y0129387D01*
X0235212Y0129387D01*
X0236263Y0128336D01*
X0236263Y0126234D01*
X0235212Y0125183D01*
X0232059Y0125183D01*
X0233110Y0123082D02*
X0234161Y0123082D01*
X0241634Y0125183D02*
X0241634Y0129387D01*
X0239532Y0129387D02*
X0238482Y0129387D01*
X0239532Y0129387D02*
X0241634Y0127285D01*
X0243876Y0126234D02*
X0244927Y0125183D01*
X0247029Y0125183D01*
X0248080Y0126234D01*
X0248080Y0128336D01*
X0247029Y0129387D01*
X0244927Y0129387D01*
X0243876Y0128336D01*
X0243876Y0126234D01*
X0250252Y0126234D02*
X0250252Y0125183D01*
X0251303Y0125183D01*
X0251303Y0126234D01*
X0250252Y0126234D01*
X0253544Y0126234D02*
X0254595Y0125183D01*
X0257748Y0125183D01*
X0256697Y0127285D02*
X0257748Y0128336D01*
X0256697Y0129387D01*
X0253544Y0129387D01*
X0254595Y0127285D02*
X0256697Y0127285D01*
X0254595Y0127285D02*
X0253544Y0126234D01*
X0252377Y0135683D02*
X0252377Y0141989D01*
X0248173Y0141989D01*
X0250275Y0138836D02*
X0252377Y0138836D01*
X0280307Y0129387D02*
X0280307Y0125183D01*
X0299737Y0118887D02*
X0302890Y0118887D01*
X0303941Y0117836D01*
X0302890Y0116785D01*
X0300788Y0116785D01*
X0299737Y0115734D01*
X0300788Y0114683D01*
X0303941Y0114683D01*
X0306113Y0114683D02*
X0307164Y0114683D01*
X0307164Y0115734D01*
X0306113Y0115734D01*
X0306113Y0114683D01*
X0309405Y0115734D02*
X0309405Y0118887D01*
X0309405Y0115734D02*
X0310456Y0114683D01*
X0311507Y0115734D01*
X0312558Y0114683D01*
X0313609Y0115734D01*
X0313609Y0118887D01*
X0315851Y0118887D02*
X0315851Y0115734D01*
X0316902Y0114683D01*
X0317953Y0115734D01*
X0319004Y0114683D01*
X0320055Y0115734D01*
X0320055Y0118887D01*
X0322296Y0118887D02*
X0322296Y0115734D01*
X0323347Y0114683D01*
X0324398Y0115734D01*
X0325449Y0114683D01*
X0326500Y0115734D01*
X0326500Y0118887D01*
X0326500Y0108387D02*
X0326500Y0105234D01*
X0325449Y0104183D01*
X0324398Y0105234D01*
X0323347Y0104183D01*
X0322296Y0105234D01*
X0322296Y0108387D01*
X0320055Y0108387D02*
X0320055Y0105234D01*
X0319004Y0104183D01*
X0317953Y0105234D01*
X0316902Y0104183D01*
X0315851Y0105234D01*
X0315851Y0108387D01*
X0313609Y0108387D02*
X0313609Y0105234D01*
X0312558Y0104183D01*
X0311507Y0105234D01*
X0310456Y0104183D01*
X0309405Y0105234D01*
X0309405Y0108387D01*
X0307164Y0105234D02*
X0306113Y0105234D01*
X0306113Y0104183D01*
X0307164Y0104183D01*
X0307164Y0105234D01*
X0303941Y0107336D02*
X0301839Y0107336D01*
X0302890Y0109438D02*
X0302890Y0104183D01*
X0299644Y0105234D02*
X0298593Y0104183D01*
X0295440Y0104183D01*
X0295440Y0108387D01*
X0293198Y0108387D02*
X0290046Y0108387D01*
X0288995Y0107336D01*
X0288995Y0105234D01*
X0290046Y0104183D01*
X0293198Y0104183D01*
X0293198Y0110489D01*
X0285702Y0108387D02*
X0283600Y0108387D01*
X0282549Y0107336D01*
X0282549Y0104183D01*
X0285702Y0104183D01*
X0286753Y0105234D01*
X0285702Y0106285D01*
X0282549Y0106285D01*
X0280307Y0106285D02*
X0278205Y0108387D01*
X0277155Y0108387D01*
X0274936Y0108387D02*
X0273885Y0108387D01*
X0273885Y0104183D01*
X0274936Y0104183D02*
X0272834Y0104183D01*
X0270639Y0104183D02*
X0270639Y0108387D01*
X0267486Y0108387D01*
X0266435Y0107336D01*
X0266435Y0104183D01*
X0264194Y0105234D02*
X0263143Y0104183D01*
X0261041Y0104183D01*
X0259990Y0105234D01*
X0259990Y0107336D01*
X0261041Y0108387D01*
X0263143Y0108387D01*
X0264194Y0107336D01*
X0264194Y0105234D01*
X0257748Y0105234D02*
X0257748Y0104183D01*
X0256697Y0104183D01*
X0256697Y0105234D01*
X0257748Y0105234D01*
X0254525Y0105234D02*
X0253474Y0104183D01*
X0251373Y0104183D01*
X0250322Y0105234D01*
X0250322Y0107336D01*
X0251373Y0108387D01*
X0253474Y0108387D01*
X0254525Y0107336D01*
X0254525Y0105234D01*
X0248080Y0104183D02*
X0248080Y0108387D01*
X0248080Y0106285D02*
X0245978Y0108387D01*
X0244927Y0108387D01*
X0242709Y0107336D02*
X0242709Y0105234D01*
X0241658Y0104183D01*
X0238505Y0104183D01*
X0238505Y0103132D02*
X0238505Y0108387D01*
X0241658Y0108387D01*
X0242709Y0107336D01*
X0238505Y0103132D02*
X0239556Y0102082D01*
X0240607Y0102082D01*
X0219075Y0114683D02*
X0219075Y0118887D01*
X0218024Y0118887D01*
X0216973Y0117836D01*
X0215922Y0118887D01*
X0214871Y0117836D01*
X0214871Y0114683D01*
X0216973Y0114683D02*
X0216973Y0117836D01*
X0259920Y0118887D02*
X0260971Y0117836D01*
X0273885Y0111540D02*
X0273885Y0110489D01*
X0280307Y0108387D02*
X0280307Y0104183D01*
X0299644Y0105234D02*
X0299644Y0108387D01*
X0301839Y0110489D02*
X0302890Y0109438D01*
X0326500Y0146183D02*
X0326500Y0152489D01*
X0322296Y0152489D01*
X0324398Y0149336D02*
X0326500Y0149336D01*
X0129912Y0141989D02*
X0128861Y0141989D01*
D13*
X0178350Y0113583D03*
D14*
X0438246Y0103933D02*
X0439648Y0102532D01*
X0438246Y0101131D01*
X0442450Y0101131D01*
X0441749Y0099329D02*
X0442450Y0098629D01*
X0442450Y0097228D01*
X0441749Y0096527D01*
X0441049Y0096527D01*
X0440348Y0097228D01*
X0440348Y0097928D01*
X0440348Y0097228D02*
X0439648Y0096527D01*
X0438947Y0096527D01*
X0438246Y0097228D01*
X0438246Y0098629D01*
X0438947Y0099329D01*
X0438246Y0103933D02*
X0442450Y0103933D01*
X0442249Y0087433D02*
X0442950Y0086733D01*
X0442950Y0085332D01*
X0442249Y0084631D01*
X0440848Y0084631D01*
X0440848Y0086032D01*
X0439447Y0084631D02*
X0438746Y0085332D01*
X0438746Y0086733D01*
X0439447Y0087433D01*
X0442249Y0087433D01*
X0442950Y0082829D02*
X0438746Y0082829D01*
X0442950Y0080027D01*
X0438746Y0080027D01*
X0438746Y0078225D02*
X0438746Y0076124D01*
X0439447Y0075423D01*
X0442249Y0075423D01*
X0442950Y0076124D01*
X0442950Y0078225D01*
X0438746Y0078225D01*
X0438746Y0064933D02*
X0440148Y0063532D01*
X0438746Y0062131D01*
X0442950Y0062131D01*
X0440848Y0060329D02*
X0440848Y0057527D01*
X0442950Y0058228D02*
X0438746Y0058228D01*
X0440848Y0060329D01*
X0442950Y0064933D02*
X0438746Y0064933D01*
X0438947Y0126527D02*
X0438246Y0127228D01*
X0438246Y0128629D01*
X0438947Y0129329D01*
X0438246Y0131131D02*
X0442450Y0131131D01*
X0442450Y0129329D02*
X0439648Y0126527D01*
X0438947Y0126527D01*
X0442450Y0126527D02*
X0442450Y0129329D01*
X0439648Y0132532D02*
X0438246Y0131131D01*
X0439648Y0132532D02*
X0438246Y0133933D01*
X0442450Y0133933D01*
X0441749Y0145423D02*
X0438947Y0145423D01*
X0438246Y0146124D01*
X0438246Y0148225D01*
X0442450Y0148225D01*
X0442450Y0146124D01*
X0441749Y0145423D01*
X0442450Y0150027D02*
X0438246Y0150027D01*
X0438246Y0152829D02*
X0442450Y0150027D01*
X0442450Y0152829D02*
X0438246Y0152829D01*
X0438947Y0154631D02*
X0438246Y0155332D01*
X0438246Y0156733D01*
X0438947Y0157433D01*
X0441749Y0157433D01*
X0442450Y0156733D01*
X0442450Y0155332D01*
X0441749Y0154631D01*
X0440348Y0154631D01*
X0440348Y0156032D01*
X0441950Y0166527D02*
X0441950Y0169329D01*
X0441950Y0167928D02*
X0437746Y0167928D01*
X0439148Y0169329D01*
X0437746Y0171131D02*
X0441950Y0171131D01*
X0441950Y0173933D02*
X0437746Y0173933D01*
X0439148Y0172532D01*
X0437746Y0171131D01*
D15*
X0154850Y0122731D02*
X0142252Y0109739D01*
X0145126Y0111353D02*
X0145086Y0111707D01*
X0145126Y0112062D01*
X0145283Y0112337D01*
X0145519Y0112495D01*
X0145598Y0112613D02*
X0145952Y0112652D01*
X0146346Y0112613D01*
X0146740Y0112377D01*
X0146858Y0112140D01*
X0146976Y0111865D01*
X0146976Y0111550D01*
X0146819Y0111196D01*
X0146622Y0110959D01*
X0146346Y0110802D01*
X0145992Y0110762D01*
X0145598Y0110841D01*
X0145322Y0111038D01*
X0145126Y0111353D01*
X0145795Y0111629D02*
X0145874Y0111510D01*
X0145992Y0111471D01*
X0146110Y0111471D01*
X0146228Y0111550D01*
X0146267Y0111668D01*
X0146267Y0111786D01*
X0146189Y0111904D01*
X0146070Y0111944D01*
X0146031Y0111747D01*
X0145992Y0111944D02*
X0145874Y0111904D01*
X0145795Y0111786D01*
X0145795Y0111629D01*
X0145598Y0112613D02*
X0145047Y0118912D01*
X0144181Y0118912D01*
X0144181Y0120054D01*
X0144929Y0120054D01*
X0145322Y0120054D01*
X0145322Y0118912D01*
X0145047Y0118912D01*
X0144929Y0120054D02*
X0144929Y0120762D01*
X0145086Y0121196D01*
X0145362Y0121550D01*
X0145637Y0121786D01*
X0145992Y0121944D01*
X0146504Y0122062D01*
X0146976Y0122140D01*
X0147015Y0121865D02*
X0147015Y0122455D01*
X0148748Y0122455D01*
X0148748Y0121983D01*
X0148787Y0121865D02*
X0147015Y0121865D01*
X0148787Y0121865D02*
X0148787Y0122140D01*
X0149023Y0122140D01*
X0149338Y0122101D01*
X0149693Y0122062D01*
X0150165Y0121904D01*
X0150559Y0121747D01*
X0150874Y0121510D01*
X0151110Y0121196D01*
X0151228Y0120684D01*
X0150441Y0111510D01*
X0149929Y0111510D01*
X0149929Y0110644D01*
X0149653Y0110526D02*
X0149653Y0111510D01*
X0149929Y0111510D01*
X0149653Y0111510D02*
X0146937Y0111510D01*
X0149653Y0110526D02*
X0150244Y0110526D01*
X0150244Y0111471D01*
X0154850Y0109345D02*
X0141858Y0122731D01*
X0144259Y0121353D02*
X0144220Y0121156D01*
X0144259Y0120999D01*
X0144338Y0120920D01*
X0144535Y0120841D01*
X0144614Y0120841D01*
X0151858Y0120881D01*
X0151858Y0120644D01*
X0144614Y0120605D01*
X0144614Y0120841D01*
X0144771Y0120841D01*
X0144811Y0120999D01*
X0144574Y0121156D01*
X0144496Y0121510D02*
X0144378Y0121471D01*
X0144259Y0121353D01*
X0144496Y0121510D02*
X0144693Y0121510D01*
X0144850Y0121392D01*
X0144929Y0121235D01*
X0146582Y0118558D02*
X0148787Y0118558D01*
X0148787Y0118203D01*
X0146779Y0118203D01*
X0146582Y0117849D02*
X0146582Y0118558D01*
X0146582Y0117849D02*
X0148787Y0117849D01*
X0148787Y0118203D01*
X0150204Y0120920D02*
X0150204Y0122180D01*
X0150519Y0122180D01*
X0150519Y0122140D02*
X0150519Y0120920D01*
X0150204Y0120920D01*
D16*
X0148000Y0105251D03*
D17*
X0166055Y0105220D02*
X0171219Y0105220D01*
X0171252Y0105231D02*
X0172275Y0105743D01*
X0173279Y0106373D01*
X0174086Y0107081D01*
X0174696Y0107731D01*
X0175149Y0108302D01*
X0175700Y0109148D01*
X0176173Y0110113D01*
X0176586Y0111333D01*
X0176803Y0112436D01*
X0176881Y0113558D01*
X0176842Y0114621D01*
X0176665Y0115664D01*
X0176468Y0116353D01*
X0176252Y0116963D01*
X0175799Y0117928D01*
X0175346Y0118696D01*
X0174893Y0119306D01*
X0174244Y0120034D01*
X0173791Y0120448D01*
X0173338Y0120822D01*
X0172570Y0121353D01*
X0171803Y0121766D01*
X0171409Y0121944D01*
X0171015Y0122101D01*
X0170661Y0122239D01*
X0170051Y0122416D01*
X0169500Y0122534D01*
X0168830Y0122633D01*
X0167944Y0122692D01*
X0166035Y0122692D01*
X0166035Y0119542D01*
X0167866Y0119542D01*
X0168633Y0119483D01*
X0169224Y0119365D01*
X0169874Y0119168D01*
X0170602Y0118814D01*
X0171370Y0118302D01*
X0171901Y0117829D01*
X0172649Y0116904D01*
X0173200Y0115782D01*
X0173358Y0115211D01*
X0168023Y0115211D01*
X0168023Y0112455D01*
X0173378Y0112455D01*
X0173043Y0111530D01*
X0172748Y0110959D01*
X0172334Y0110329D01*
X0171389Y0109365D01*
X0170720Y0108892D01*
X0169972Y0108538D01*
X0169027Y0108262D01*
X0168476Y0108164D01*
X0167944Y0108125D01*
X0166055Y0108125D01*
X0166055Y0104562D01*
X0167944Y0104562D01*
X0168811Y0104621D01*
X0169637Y0104759D01*
X0170405Y0104955D01*
X0171252Y0105231D01*
X0171427Y0105319D02*
X0166055Y0105319D01*
X0166055Y0105417D02*
X0171624Y0105417D01*
X0171821Y0105516D02*
X0166055Y0105516D01*
X0166055Y0105614D02*
X0172018Y0105614D01*
X0172215Y0105713D02*
X0166055Y0105713D01*
X0166055Y0105811D02*
X0172385Y0105811D01*
X0172542Y0105910D02*
X0166055Y0105910D01*
X0166055Y0106008D02*
X0172699Y0106008D01*
X0172856Y0106107D02*
X0166055Y0106107D01*
X0166055Y0106205D02*
X0173013Y0106205D01*
X0173170Y0106304D02*
X0166055Y0106304D01*
X0166055Y0106402D02*
X0173313Y0106402D01*
X0173425Y0106501D02*
X0166055Y0106501D01*
X0166055Y0106599D02*
X0173537Y0106599D01*
X0173650Y0106698D02*
X0166055Y0106698D01*
X0166055Y0106796D02*
X0173762Y0106796D01*
X0173874Y0106895D02*
X0166055Y0106895D01*
X0166055Y0106994D02*
X0173986Y0106994D01*
X0174096Y0107092D02*
X0166055Y0107092D01*
X0166055Y0107191D02*
X0174189Y0107191D01*
X0174281Y0107289D02*
X0166055Y0107289D01*
X0166055Y0107388D02*
X0174374Y0107388D01*
X0174466Y0107486D02*
X0166055Y0107486D01*
X0166055Y0107585D02*
X0174559Y0107585D01*
X0174651Y0107683D02*
X0166055Y0107683D01*
X0166055Y0107782D02*
X0174737Y0107782D01*
X0174815Y0107880D02*
X0166055Y0107880D01*
X0166055Y0107979D02*
X0174893Y0107979D01*
X0174971Y0108077D02*
X0166055Y0108077D01*
X0168541Y0108176D02*
X0175049Y0108176D01*
X0175127Y0108274D02*
X0169067Y0108274D01*
X0169405Y0108373D02*
X0175195Y0108373D01*
X0175259Y0108471D02*
X0169743Y0108471D01*
X0170039Y0108570D02*
X0175324Y0108570D01*
X0175388Y0108668D02*
X0170247Y0108668D01*
X0170455Y0108767D02*
X0175452Y0108767D01*
X0175516Y0108865D02*
X0170663Y0108865D01*
X0170821Y0108964D02*
X0175580Y0108964D01*
X0175644Y0109062D02*
X0170961Y0109062D01*
X0171100Y0109161D02*
X0175706Y0109161D01*
X0175755Y0109259D02*
X0171240Y0109259D01*
X0171379Y0109358D02*
X0175803Y0109358D01*
X0175851Y0109456D02*
X0171479Y0109456D01*
X0171575Y0109555D02*
X0175899Y0109555D01*
X0175948Y0109653D02*
X0171672Y0109653D01*
X0171768Y0109752D02*
X0175996Y0109752D01*
X0176044Y0109850D02*
X0171865Y0109850D01*
X0171961Y0109949D02*
X0176093Y0109949D01*
X0176141Y0110047D02*
X0172058Y0110047D01*
X0172154Y0110146D02*
X0176184Y0110146D01*
X0176217Y0110244D02*
X0172251Y0110244D01*
X0172343Y0110343D02*
X0176251Y0110343D01*
X0176284Y0110441D02*
X0172408Y0110441D01*
X0172472Y0110540D02*
X0176317Y0110540D01*
X0176351Y0110638D02*
X0172537Y0110638D01*
X0172602Y0110737D02*
X0176384Y0110737D01*
X0176418Y0110835D02*
X0172666Y0110835D01*
X0172731Y0110934D02*
X0176451Y0110934D01*
X0176484Y0111032D02*
X0172785Y0111032D01*
X0172836Y0111131D02*
X0176518Y0111131D01*
X0176551Y0111230D02*
X0172887Y0111230D01*
X0172938Y0111328D02*
X0176584Y0111328D01*
X0176605Y0111427D02*
X0172989Y0111427D01*
X0173040Y0111525D02*
X0176624Y0111525D01*
X0176643Y0111624D02*
X0173077Y0111624D01*
X0173112Y0111722D02*
X0176663Y0111722D01*
X0176682Y0111821D02*
X0173148Y0111821D01*
X0173184Y0111919D02*
X0176701Y0111919D01*
X0176721Y0112018D02*
X0173219Y0112018D01*
X0173255Y0112116D02*
X0176740Y0112116D01*
X0176759Y0112215D02*
X0173290Y0112215D01*
X0173326Y0112313D02*
X0176779Y0112313D01*
X0176798Y0112412D02*
X0173362Y0112412D01*
X0173342Y0115268D02*
X0176732Y0115268D01*
X0176749Y0115170D02*
X0168023Y0115170D01*
X0168023Y0115071D02*
X0176766Y0115071D01*
X0176782Y0114973D02*
X0168023Y0114973D01*
X0168023Y0114874D02*
X0176799Y0114874D01*
X0176816Y0114776D02*
X0168023Y0114776D01*
X0168023Y0114677D02*
X0176833Y0114677D01*
X0176844Y0114579D02*
X0168023Y0114579D01*
X0168023Y0114480D02*
X0176847Y0114480D01*
X0176851Y0114382D02*
X0168023Y0114382D01*
X0168023Y0114283D02*
X0176855Y0114283D01*
X0176858Y0114185D02*
X0168023Y0114185D01*
X0168023Y0114086D02*
X0176862Y0114086D01*
X0176866Y0113988D02*
X0168023Y0113988D01*
X0168023Y0113889D02*
X0176869Y0113889D01*
X0176873Y0113791D02*
X0168023Y0113791D01*
X0168023Y0113692D02*
X0176877Y0113692D01*
X0176880Y0113594D02*
X0168023Y0113594D01*
X0168023Y0113495D02*
X0176877Y0113495D01*
X0176870Y0113397D02*
X0168023Y0113397D01*
X0168023Y0113298D02*
X0176863Y0113298D01*
X0176856Y0113200D02*
X0168023Y0113200D01*
X0168023Y0113101D02*
X0176849Y0113101D01*
X0176843Y0113003D02*
X0168023Y0113003D01*
X0168023Y0112904D02*
X0176836Y0112904D01*
X0176829Y0112806D02*
X0168023Y0112806D01*
X0168023Y0112707D02*
X0176822Y0112707D01*
X0176815Y0112609D02*
X0168023Y0112609D01*
X0168023Y0112510D02*
X0176808Y0112510D01*
X0176715Y0115367D02*
X0173315Y0115367D01*
X0173288Y0115465D02*
X0176699Y0115465D01*
X0176682Y0115564D02*
X0173261Y0115564D01*
X0173233Y0115663D02*
X0176665Y0115663D01*
X0176637Y0115761D02*
X0173206Y0115761D01*
X0173162Y0115860D02*
X0176609Y0115860D01*
X0176581Y0115958D02*
X0173114Y0115958D01*
X0173066Y0116057D02*
X0176553Y0116057D01*
X0176525Y0116155D02*
X0173017Y0116155D01*
X0172969Y0116254D02*
X0176497Y0116254D01*
X0176468Y0116352D02*
X0172920Y0116352D01*
X0172872Y0116451D02*
X0176433Y0116451D01*
X0176399Y0116549D02*
X0172824Y0116549D01*
X0172775Y0116648D02*
X0176364Y0116648D01*
X0176329Y0116746D02*
X0172727Y0116746D01*
X0172678Y0116845D02*
X0176294Y0116845D01*
X0176259Y0116943D02*
X0172618Y0116943D01*
X0172538Y0117042D02*
X0176215Y0117042D01*
X0176169Y0117140D02*
X0172458Y0117140D01*
X0172379Y0117239D02*
X0176122Y0117239D01*
X0176076Y0117337D02*
X0172299Y0117337D01*
X0172219Y0117436D02*
X0176030Y0117436D01*
X0175984Y0117534D02*
X0172140Y0117534D01*
X0172060Y0117633D02*
X0175937Y0117633D01*
X0175891Y0117731D02*
X0171981Y0117731D01*
X0171901Y0117830D02*
X0175845Y0117830D01*
X0175799Y0117928D02*
X0171790Y0117928D01*
X0171679Y0118027D02*
X0175740Y0118027D01*
X0175682Y0118125D02*
X0171568Y0118125D01*
X0171457Y0118224D02*
X0175624Y0118224D01*
X0175566Y0118322D02*
X0171339Y0118322D01*
X0171191Y0118421D02*
X0175508Y0118421D01*
X0175450Y0118519D02*
X0171043Y0118519D01*
X0170896Y0118618D02*
X0175392Y0118618D01*
X0175331Y0118716D02*
X0170748Y0118716D01*
X0170599Y0118815D02*
X0175258Y0118815D01*
X0175184Y0118913D02*
X0170397Y0118913D01*
X0170194Y0119012D02*
X0175111Y0119012D01*
X0175038Y0119110D02*
X0169992Y0119110D01*
X0169738Y0119209D02*
X0174965Y0119209D01*
X0174892Y0119307D02*
X0169413Y0119307D01*
X0169018Y0119406D02*
X0174804Y0119406D01*
X0174716Y0119504D02*
X0168354Y0119504D01*
X0166035Y0119603D02*
X0174628Y0119603D01*
X0174540Y0119701D02*
X0166035Y0119701D01*
X0166035Y0119800D02*
X0174453Y0119800D01*
X0174365Y0119898D02*
X0166035Y0119898D01*
X0166035Y0119997D02*
X0174277Y0119997D01*
X0174176Y0120096D02*
X0166035Y0120096D01*
X0166035Y0120194D02*
X0174069Y0120194D01*
X0173961Y0120293D02*
X0166035Y0120293D01*
X0166035Y0120391D02*
X0173853Y0120391D01*
X0173740Y0120490D02*
X0166035Y0120490D01*
X0166035Y0120588D02*
X0173621Y0120588D01*
X0173502Y0120687D02*
X0166035Y0120687D01*
X0166035Y0120785D02*
X0173382Y0120785D01*
X0173248Y0120884D02*
X0166035Y0120884D01*
X0166035Y0120982D02*
X0173106Y0120982D01*
X0172964Y0121081D02*
X0166035Y0121081D01*
X0166035Y0121179D02*
X0172822Y0121179D01*
X0172679Y0121278D02*
X0166035Y0121278D01*
X0166035Y0121376D02*
X0172527Y0121376D01*
X0172345Y0121475D02*
X0166035Y0121475D01*
X0166035Y0121573D02*
X0172162Y0121573D01*
X0171979Y0121672D02*
X0166035Y0121672D01*
X0166035Y0121770D02*
X0171794Y0121770D01*
X0171575Y0121869D02*
X0166035Y0121869D01*
X0166035Y0121967D02*
X0171350Y0121967D01*
X0171104Y0122066D02*
X0166035Y0122066D01*
X0166035Y0122164D02*
X0170853Y0122164D01*
X0170579Y0122263D02*
X0166035Y0122263D01*
X0166035Y0122361D02*
X0170239Y0122361D01*
X0169846Y0122460D02*
X0166035Y0122460D01*
X0166035Y0122558D02*
X0169335Y0122558D01*
X0168466Y0122657D02*
X0166035Y0122657D01*
X0181389Y0122657D02*
X0183538Y0122657D01*
X0183811Y0122633D02*
X0182925Y0122711D01*
X0181389Y0122711D01*
X0181389Y0119542D01*
X0182866Y0119542D01*
X0183397Y0119503D01*
X0183909Y0119424D01*
X0184263Y0119345D01*
X0184618Y0119247D01*
X0185405Y0118912D01*
X0186074Y0118499D01*
X0186626Y0118046D01*
X0187078Y0117593D01*
X0187511Y0117042D01*
X0187826Y0116491D01*
X0188122Y0115841D01*
X0188358Y0115133D01*
X0188476Y0114385D01*
X0188496Y0113636D01*
X0188437Y0113066D01*
X0188299Y0112377D01*
X0188102Y0111747D01*
X0187787Y0111058D01*
X0187354Y0110408D01*
X0186881Y0109857D01*
X0186389Y0109404D01*
X0185838Y0109050D01*
X0185267Y0108696D01*
X0184834Y0108499D01*
X0184224Y0108302D01*
X0183673Y0108184D01*
X0183259Y0108125D01*
X0181389Y0108125D01*
X0181389Y0104562D01*
X0182964Y0104562D01*
X0183712Y0104621D01*
X0184441Y0104739D01*
X0185208Y0104916D01*
X0185838Y0105113D01*
X0186291Y0105290D01*
X0186822Y0105526D01*
X0187315Y0105782D01*
X0187925Y0106176D01*
X0188397Y0106510D01*
X0188850Y0106904D01*
X0189204Y0107239D01*
X0189657Y0107731D01*
X0189992Y0108125D01*
X0190307Y0108597D01*
X0190641Y0109109D01*
X0190996Y0109778D01*
X0191212Y0110310D01*
X0191409Y0110881D01*
X0191626Y0111668D01*
X0191744Y0112278D01*
X0191822Y0112987D01*
X0191842Y0113558D01*
X0191822Y0114148D01*
X0191803Y0114404D01*
X0191763Y0114798D01*
X0191704Y0115231D01*
X0191567Y0115881D01*
X0191409Y0116392D01*
X0191271Y0116786D01*
X0191133Y0117160D01*
X0190897Y0117652D01*
X0190740Y0117987D01*
X0190405Y0118538D01*
X0190208Y0118814D01*
X0190051Y0119050D01*
X0189893Y0119266D01*
X0189480Y0119739D01*
X0189244Y0119995D01*
X0188929Y0120290D01*
X0188653Y0120526D01*
X0188279Y0120841D01*
X0187767Y0121215D01*
X0187078Y0121609D01*
X0186271Y0122003D01*
X0185425Y0122298D01*
X0184598Y0122514D01*
X0183811Y0122633D01*
X0184306Y0122558D02*
X0181389Y0122558D01*
X0181389Y0122460D02*
X0184807Y0122460D01*
X0185183Y0122361D02*
X0181389Y0122361D01*
X0181389Y0122263D02*
X0185526Y0122263D01*
X0185808Y0122164D02*
X0181389Y0122164D01*
X0181389Y0122066D02*
X0186090Y0122066D01*
X0186344Y0121967D02*
X0181389Y0121967D01*
X0181389Y0121869D02*
X0186546Y0121869D01*
X0186748Y0121770D02*
X0181389Y0121770D01*
X0181389Y0121672D02*
X0186950Y0121672D01*
X0187141Y0121573D02*
X0181389Y0121573D01*
X0181389Y0121475D02*
X0187313Y0121475D01*
X0187486Y0121376D02*
X0181389Y0121376D01*
X0181389Y0121278D02*
X0187658Y0121278D01*
X0187817Y0121179D02*
X0181389Y0121179D01*
X0181389Y0121081D02*
X0187952Y0121081D01*
X0188086Y0120982D02*
X0181389Y0120982D01*
X0181389Y0120884D02*
X0188221Y0120884D01*
X0188346Y0120785D02*
X0181389Y0120785D01*
X0181389Y0120687D02*
X0188463Y0120687D01*
X0188580Y0120588D02*
X0181389Y0120588D01*
X0181389Y0120490D02*
X0188696Y0120490D01*
X0188811Y0120391D02*
X0181389Y0120391D01*
X0181389Y0120293D02*
X0188926Y0120293D01*
X0189031Y0120194D02*
X0181389Y0120194D01*
X0181389Y0120096D02*
X0189136Y0120096D01*
X0189241Y0119997D02*
X0181389Y0119997D01*
X0181389Y0119898D02*
X0189333Y0119898D01*
X0189423Y0119800D02*
X0181389Y0119800D01*
X0181389Y0119701D02*
X0189513Y0119701D01*
X0189599Y0119603D02*
X0181389Y0119603D01*
X0183372Y0119504D02*
X0189685Y0119504D01*
X0189771Y0119406D02*
X0183990Y0119406D01*
X0184399Y0119307D02*
X0189857Y0119307D01*
X0189935Y0119209D02*
X0184707Y0119209D01*
X0184938Y0119110D02*
X0190007Y0119110D01*
X0190076Y0119012D02*
X0185170Y0119012D01*
X0185402Y0118913D02*
X0190142Y0118913D01*
X0190207Y0118815D02*
X0185562Y0118815D01*
X0185722Y0118716D02*
X0190278Y0118716D01*
X0190348Y0118618D02*
X0185881Y0118618D01*
X0186041Y0118519D02*
X0190416Y0118519D01*
X0190476Y0118421D02*
X0186169Y0118421D01*
X0186289Y0118322D02*
X0190536Y0118322D01*
X0190596Y0118224D02*
X0186409Y0118224D01*
X0186529Y0118125D02*
X0190656Y0118125D01*
X0190716Y0118027D02*
X0186645Y0118027D01*
X0186743Y0117928D02*
X0190767Y0117928D01*
X0190814Y0117830D02*
X0186842Y0117830D01*
X0186940Y0117731D02*
X0190860Y0117731D01*
X0190907Y0117633D02*
X0187039Y0117633D01*
X0187125Y0117534D02*
X0190954Y0117534D01*
X0191001Y0117436D02*
X0187202Y0117436D01*
X0187279Y0117337D02*
X0191048Y0117337D01*
X0191096Y0117239D02*
X0187357Y0117239D01*
X0187434Y0117140D02*
X0191141Y0117140D01*
X0191177Y0117042D02*
X0187512Y0117042D01*
X0187568Y0116943D02*
X0191213Y0116943D01*
X0191250Y0116845D02*
X0187624Y0116845D01*
X0187680Y0116746D02*
X0191285Y0116746D01*
X0191320Y0116648D02*
X0187737Y0116648D01*
X0187793Y0116549D02*
X0191354Y0116549D01*
X0191389Y0116451D02*
X0187845Y0116451D01*
X0187889Y0116352D02*
X0191421Y0116352D01*
X0191452Y0116254D02*
X0187934Y0116254D01*
X0187979Y0116155D02*
X0191482Y0116155D01*
X0191512Y0116057D02*
X0188024Y0116057D01*
X0188069Y0115958D02*
X0191543Y0115958D01*
X0191571Y0115860D02*
X0188113Y0115860D01*
X0188148Y0115761D02*
X0191592Y0115761D01*
X0191613Y0115663D02*
X0188181Y0115663D01*
X0188214Y0115564D02*
X0191634Y0115564D01*
X0191655Y0115465D02*
X0188247Y0115465D01*
X0188280Y0115367D02*
X0191675Y0115367D01*
X0191696Y0115268D02*
X0188313Y0115268D01*
X0188345Y0115170D02*
X0191713Y0115170D01*
X0191726Y0115071D02*
X0188368Y0115071D01*
X0188383Y0114973D02*
X0191740Y0114973D01*
X0191753Y0114874D02*
X0188399Y0114874D01*
X0188414Y0114776D02*
X0191766Y0114776D01*
X0191775Y0114677D02*
X0188430Y0114677D01*
X0188445Y0114579D02*
X0191785Y0114579D01*
X0191795Y0114480D02*
X0188461Y0114480D01*
X0188476Y0114382D02*
X0191804Y0114382D01*
X0191812Y0114283D02*
X0188479Y0114283D01*
X0188481Y0114185D02*
X0191820Y0114185D01*
X0191825Y0114086D02*
X0188484Y0114086D01*
X0188486Y0113988D02*
X0191828Y0113988D01*
X0191831Y0113889D02*
X0188489Y0113889D01*
X0188492Y0113791D02*
X0191834Y0113791D01*
X0191838Y0113692D02*
X0188494Y0113692D01*
X0188491Y0113594D02*
X0191841Y0113594D01*
X0191840Y0113495D02*
X0188481Y0113495D01*
X0188471Y0113397D02*
X0191837Y0113397D01*
X0191833Y0113298D02*
X0188461Y0113298D01*
X0188450Y0113200D02*
X0191830Y0113200D01*
X0191826Y0113101D02*
X0188440Y0113101D01*
X0188424Y0113003D02*
X0191823Y0113003D01*
X0191813Y0112904D02*
X0188404Y0112904D01*
X0188385Y0112806D02*
X0191802Y0112806D01*
X0191791Y0112707D02*
X0188365Y0112707D01*
X0188345Y0112609D02*
X0191780Y0112609D01*
X0191769Y0112510D02*
X0188326Y0112510D01*
X0188306Y0112412D02*
X0191759Y0112412D01*
X0191748Y0112313D02*
X0188279Y0112313D01*
X0188248Y0112215D02*
X0191731Y0112215D01*
X0191712Y0112116D02*
X0188217Y0112116D01*
X0188187Y0112018D02*
X0191693Y0112018D01*
X0191674Y0111919D02*
X0188156Y0111919D01*
X0188125Y0111821D02*
X0191655Y0111821D01*
X0191636Y0111722D02*
X0188091Y0111722D01*
X0188046Y0111624D02*
X0191613Y0111624D01*
X0191586Y0111525D02*
X0188001Y0111525D01*
X0187956Y0111427D02*
X0191559Y0111427D01*
X0191532Y0111328D02*
X0187911Y0111328D01*
X0187866Y0111230D02*
X0191505Y0111230D01*
X0191478Y0111131D02*
X0187820Y0111131D01*
X0187770Y0111032D02*
X0191451Y0111032D01*
X0191424Y0110934D02*
X0187705Y0110934D01*
X0187639Y0110835D02*
X0191393Y0110835D01*
X0191360Y0110737D02*
X0187573Y0110737D01*
X0187507Y0110638D02*
X0191326Y0110638D01*
X0191292Y0110540D02*
X0187442Y0110540D01*
X0187376Y0110441D02*
X0191258Y0110441D01*
X0191224Y0110343D02*
X0187298Y0110343D01*
X0187214Y0110244D02*
X0191186Y0110244D01*
X0191145Y0110146D02*
X0187129Y0110146D01*
X0187045Y0110047D02*
X0191105Y0110047D01*
X0191065Y0109949D02*
X0186960Y0109949D01*
X0186874Y0109850D02*
X0191025Y0109850D01*
X0190982Y0109752D02*
X0186767Y0109752D01*
X0186660Y0109653D02*
X0190930Y0109653D01*
X0190877Y0109555D02*
X0186553Y0109555D01*
X0186446Y0109456D02*
X0190825Y0109456D01*
X0190773Y0109358D02*
X0186317Y0109358D01*
X0186164Y0109259D02*
X0190721Y0109259D01*
X0190669Y0109161D02*
X0186011Y0109161D01*
X0185857Y0109062D02*
X0190611Y0109062D01*
X0190546Y0108964D02*
X0185699Y0108964D01*
X0185541Y0108865D02*
X0190482Y0108865D01*
X0190418Y0108767D02*
X0185382Y0108767D01*
X0185207Y0108668D02*
X0190353Y0108668D01*
X0190288Y0108570D02*
X0184990Y0108570D01*
X0184749Y0108471D02*
X0190223Y0108471D01*
X0190157Y0108373D02*
X0184444Y0108373D01*
X0184095Y0108274D02*
X0190091Y0108274D01*
X0190026Y0108176D02*
X0183616Y0108176D01*
X0181389Y0108077D02*
X0189951Y0108077D01*
X0189868Y0107979D02*
X0181389Y0107979D01*
X0181389Y0107880D02*
X0189784Y0107880D01*
X0189700Y0107782D02*
X0181389Y0107782D01*
X0181389Y0107683D02*
X0189613Y0107683D01*
X0189522Y0107585D02*
X0181389Y0107585D01*
X0181389Y0107486D02*
X0189432Y0107486D01*
X0189341Y0107388D02*
X0181389Y0107388D01*
X0181389Y0107289D02*
X0189251Y0107289D01*
X0189153Y0107191D02*
X0181389Y0107191D01*
X0181389Y0107092D02*
X0189049Y0107092D01*
X0188945Y0106994D02*
X0181389Y0106994D01*
X0181389Y0106895D02*
X0188839Y0106895D01*
X0188726Y0106796D02*
X0181389Y0106796D01*
X0181389Y0106698D02*
X0188613Y0106698D01*
X0188500Y0106599D02*
X0181389Y0106599D01*
X0181389Y0106501D02*
X0188384Y0106501D01*
X0188245Y0106402D02*
X0181389Y0106402D01*
X0181389Y0106304D02*
X0188106Y0106304D01*
X0187967Y0106205D02*
X0181389Y0106205D01*
X0181389Y0106107D02*
X0187818Y0106107D01*
X0187665Y0106008D02*
X0181389Y0106008D01*
X0181389Y0105910D02*
X0187513Y0105910D01*
X0187360Y0105811D02*
X0181389Y0105811D01*
X0181389Y0105713D02*
X0187181Y0105713D01*
X0186992Y0105614D02*
X0181389Y0105614D01*
X0181389Y0105516D02*
X0186799Y0105516D01*
X0186577Y0105417D02*
X0181389Y0105417D01*
X0181389Y0105319D02*
X0186356Y0105319D01*
X0186113Y0105220D02*
X0181389Y0105220D01*
X0181389Y0105122D02*
X0185861Y0105122D01*
X0185552Y0105023D02*
X0181389Y0105023D01*
X0181389Y0104925D02*
X0185236Y0104925D01*
X0184819Y0104826D02*
X0181389Y0104826D01*
X0181389Y0104728D02*
X0184372Y0104728D01*
X0183765Y0104629D02*
X0181389Y0104629D01*
X0170916Y0105122D02*
X0166055Y0105122D01*
X0166055Y0105023D02*
X0170614Y0105023D01*
X0170286Y0104925D02*
X0166055Y0104925D01*
X0166055Y0104826D02*
X0169902Y0104826D01*
X0169453Y0104728D02*
X0166055Y0104728D01*
X0166055Y0104629D02*
X0168862Y0104629D01*
M02*
