%
M48
M72
T01C0.01300
T02C0.01500
T03C0.02756
T04C0.03150
T05C0.03200
T06C0.03543
T07C0.03937
T08C0.04000
T09C0.04724
T10C0.12598
T11C0.13000
%
T01
X155350Y57833
X165350Y59333
X205350Y62333
X215350Y62333
X245350Y115833
X240350Y117333
X240350Y128333
X245350Y128333
X230350Y128333
X225350Y128333
X215350Y128333
X205350Y128333
X195350Y128333
X190350Y128333
X185350Y128333
X175350Y131333
X170350Y131333
X165350Y131333
X160350Y131333
X155350Y131333
X150350Y131333
X145350Y131333
X140350Y131333
X135350Y131333
X125350Y138333
X250350Y172333
X260350Y175333
X335350Y160333
X361350Y143333
X349350Y139833
X342850Y140833
X349350Y135333
X349350Y131333
X342850Y130333
X361350Y133333
X359850Y103333
X359850Y93333
X345350Y89333
X352850Y47333
X380350Y183333
X348850Y195833
X343350Y184833
T02
X235350Y65833
X225350Y65833
T03
X335350Y123333
X345350Y123333
X413350Y133333
X423350Y133333
X423350Y148333
X413350Y148333
X413350Y163333
X423350Y163333
X423350Y178333
X413350Y178333
X355350Y207333
X345350Y207333
X413850Y93333
X423850Y93333
X423850Y78333
X413850Y78333
X413850Y63333
X423850Y63333
X423850Y48333
X413850Y48333
X390350Y28333
X380350Y28333
X85350Y34833
X75350Y34833
T04
X95350Y88333
X105350Y88333
X115350Y88333
X125350Y88333
X135350Y88333
X145350Y88333
X155350Y88333
X165350Y88333
X175350Y88333
X185350Y88333
X195350Y88333
X205350Y88333
X215350Y88333
X225350Y88333
X235350Y88333
X245350Y88333
X255350Y88333
X265350Y88333
T05
X367850Y88333
X367850Y78333
X367850Y68333
X367850Y58333
X367850Y48333
X367850Y38333
X397850Y38333
X397850Y48333
X397850Y58333
X397850Y68333
X397850Y78333
X397850Y88333
X397850Y98333
X397850Y108333
X367850Y108333
X367850Y98333
X367850Y128333
X367850Y138333
X367850Y148333
X367850Y158333
X367850Y168333
X367850Y178333
X367850Y188333
X367850Y198333
X397850Y198333
X397850Y188333
X397850Y178333
X397850Y168333
X397850Y158333
X397850Y148333
X397850Y138333
X397850Y128333
T06
X417350Y118333
X417350Y108333
X348850Y153333
X325350Y153333
X419350Y191833
X419350Y201833
X120350Y146833
X89350Y56833
X79350Y56833
T07
X75350Y78333
X85350Y78333
X95350Y78333
X105350Y78333
X115350Y78333
X125350Y78333
X135350Y78333
X145350Y78333
X155350Y78333
X165350Y78333
X175350Y78333
X185350Y78333
X195350Y78333
X205350Y78333
X215350Y78333
X225350Y78333
X235350Y78333
X245350Y78333
X255350Y78333
X265350Y78333
X275350Y78333
X285350Y78333
X295350Y78333
X305350Y78333
X315350Y78333
X325350Y78333
X335350Y78333
X345350Y78333
X265350Y98333
X255350Y98333
X245350Y98333
X235350Y98333
X225350Y98333
X215350Y98333
X205350Y98333
X195350Y98333
X185350Y98333
X175350Y98333
X165350Y98333
X155350Y98333
X145350Y98333
X135350Y98333
X125350Y98333
X115350Y98333
X105350Y98333
X95350Y98333
X85350Y98333
X75350Y98333
X75350Y158333
X85350Y158333
X95350Y158333
X105350Y158333
X115350Y158333
X125350Y158333
X135350Y158333
X145350Y158333
X155350Y158333
X165350Y158333
X175350Y158333
X185350Y158333
X195350Y158333
X205350Y158333
X215350Y158333
X225350Y158333
X235350Y158333
X245350Y158333
X255350Y158333
X265350Y158333
X265350Y168333
X255350Y168333
X245350Y168333
X235350Y168333
X225350Y168333
X215350Y168333
X205350Y168333
X195350Y168333
X185350Y168333
X175350Y168333
X165350Y168333
X155350Y168333
X145350Y168333
X135350Y168333
X125350Y168333
X115350Y168333
X105350Y168333
X95350Y168333
X85350Y168333
X75350Y168333
X50350Y168333
X40350Y168333
X30350Y168333
X275350Y168333
X285350Y168333
X295350Y168333
X305350Y168333
X315350Y168333
X325350Y168333
X335350Y168333
X345350Y168333
T08
X335350Y180333
X325350Y180333
X315350Y180333
X305350Y180333
X295350Y180333
X285350Y180333
X275350Y180333
X265350Y180333
X255350Y180333
X245350Y180333
X235350Y180333
X225350Y180333
X215350Y180333
X205350Y180333
X195350Y180333
X185350Y180333
X175350Y180333
X165350Y180333
X155350Y180333
X145350Y180333
X135350Y180333
X125350Y180333
X115350Y180333
X105350Y180333
X105350Y190333
X115350Y190333
X125350Y190333
X135350Y190333
X145350Y190333
X155350Y190333
X165350Y190333
X175350Y190333
X185350Y190333
X195350Y190333
X205350Y190333
X215350Y190333
X225350Y190333
X235350Y190333
X245350Y190333
X255350Y190333
X265350Y190333
X275350Y190333
X285350Y190333
X295350Y190333
X305350Y190333
X315350Y190333
X325350Y190333
X335350Y190333
X335350Y200333
X325350Y200333
X315350Y200333
X305350Y200333
X295350Y200333
X285350Y200333
X275350Y200333
X265350Y200333
X255350Y200333
X245350Y200333
X235350Y200333
X225350Y200333
X215350Y200333
X205350Y200333
X195350Y200333
X185350Y200333
X175350Y200333
X165350Y200333
X155350Y200333
X145350Y200333
X135350Y200333
X125350Y200333
X115350Y200333
X105350Y200333
X95350Y199833
X85350Y200833
X75350Y199833
X65350Y200833
X55350Y199833
X45350Y200833
X40350Y148333
X30350Y148333
X50350Y148333
X105350Y50333
X115350Y50333
X125350Y50333
X135350Y50333
X145350Y50333
X155350Y50333
X165350Y50333
X175350Y50333
X185350Y50333
X195350Y50333
X205350Y50333
X215350Y50333
X226850Y50333
X236850Y50333
X246850Y50333
X256850Y50333
X268350Y50333
X278350Y50333
X288350Y50333
X298350Y50333
X309850Y50333
X319850Y50333
X329850Y50333
X339850Y50333
X339850Y40333
X329850Y40333
X319850Y40333
X309850Y40333
X298350Y40333
X288350Y40333
X278350Y40333
X268350Y40333
X256850Y40333
X246850Y40333
X236850Y40333
X226850Y40333
X215350Y40333
X205350Y40333
X195350Y40333
X185350Y40333
X175350Y40333
X165350Y40333
X155350Y40333
X145350Y40333
X135350Y40333
X125350Y40333
X115350Y40333
X105350Y40333
X105350Y30333
X115350Y30333
X125350Y30333
X135350Y30333
X145350Y30333
X155350Y30333
X165350Y30333
X175350Y30333
X185350Y30333
X195350Y30333
X205350Y30333
X215350Y30333
X226850Y30333
X236850Y30333
X246850Y30333
X256850Y30333
X268350Y30333
X278350Y30333
X288350Y30333
X298350Y30333
X309850Y30333
X319850Y30333
X329850Y30333
X339850Y30333
X365350Y28333
X415350Y28333
T09
X450350Y53802
X450350Y67581
X450350Y81361
X450350Y95105
X450350Y108885
X450350Y122664
X450350Y136444
X450350Y150223
X450350Y164003
X450350Y177782
X64130Y32333
X50350Y32333
T10
X25350Y28333
X24850Y203333
X449850Y203333
X449850Y28333
T11
X54350Y77533
X30750Y77533
X42550Y57833
M30
