G75*
%MOIN*%
%OFA0B0*%
%FSLAX25Y25*%
%IPPOS*%
%LPD*%
%AMOC8*
5,1,8,0,0,1.08239X$1,22.5*
%
%ADD10C,0.01000*%
%ADD11C,0.00000*%
%ADD12C,0.00600*%
%ADD13C,0.01600*%
%ADD14C,0.01100*%
%ADD15C,0.00800*%
%ADD16C,0.00500*%
%ADD17C,0.00400*%
%ADD18C,0.00591*%
D10*
X0010350Y0018333D02*
X0010350Y0213333D01*
X0465350Y0213333D01*
X0465350Y0018333D01*
X0010350Y0018333D01*
X0098350Y0022333D02*
X0101850Y0022333D01*
X0100350Y0020833D01*
X0101850Y0022333D02*
X0100350Y0023833D01*
X0109850Y0062333D02*
X0111850Y0063333D01*
X0110850Y0065333D01*
X0111850Y0063333D02*
X0102350Y0066333D01*
X0080350Y0073333D02*
X0080350Y0083333D01*
X0070350Y0083333D01*
X0070350Y0073333D01*
X0080350Y0073333D01*
X0350350Y0073333D01*
X0350350Y0173333D01*
X0070350Y0173333D01*
X0070350Y0083333D01*
X0070350Y0093333D02*
X0070350Y0103333D01*
X0080350Y0103333D01*
X0080350Y0093333D01*
X0270350Y0093333D01*
X0270350Y0163333D01*
X0070350Y0163333D01*
X0070350Y0103333D01*
X0070350Y0093333D02*
X0080350Y0093333D01*
X0018350Y0124833D02*
X0018350Y0148333D01*
X0023350Y0148333D01*
X0021350Y0146333D01*
X0023350Y0148333D02*
X0021350Y0150333D01*
X0018350Y0148333D02*
X0018350Y0187833D01*
X0040350Y0205833D02*
X0043850Y0209333D01*
X0061350Y0209333D01*
X0078350Y0209333D02*
X0096850Y0209333D01*
X0100350Y0205833D01*
X0087350Y0191333D02*
X0085350Y0193333D01*
X0083350Y0191333D01*
X0085350Y0193333D02*
X0085350Y0189333D01*
X0077350Y0191333D02*
X0075350Y0189333D01*
X0073350Y0191333D01*
X0075350Y0193333D02*
X0075350Y0189333D01*
X0294350Y0063833D02*
X0299850Y0069333D01*
X0330350Y0069333D01*
X0335850Y0063833D01*
X0341350Y0063833D01*
X0345350Y0059833D01*
X0345350Y0055333D01*
X0294350Y0063833D02*
X0225850Y0063833D01*
X0221350Y0059333D01*
X0221350Y0018333D01*
X0430350Y0051833D02*
X0432850Y0049333D01*
X0435350Y0049333D01*
X0430350Y0051833D02*
X0430350Y0055833D01*
X0430350Y0066833D02*
X0430350Y0070333D01*
X0432350Y0072333D01*
X0435350Y0072333D01*
X0435350Y0091333D02*
X0432850Y0091333D01*
X0430350Y0093833D01*
X0430350Y0094833D01*
X0431350Y0105833D02*
X0431350Y0108833D01*
X0434850Y0112333D01*
X0435350Y0112333D01*
X0435350Y0118333D02*
X0433350Y0118333D01*
X0430350Y0121333D01*
X0430350Y0124833D01*
X0430350Y0135833D02*
X0430350Y0138333D01*
X0432850Y0140833D01*
X0435350Y0140833D01*
X0435350Y0160333D02*
X0432850Y0160333D01*
X0430350Y0162833D01*
X0430350Y0165833D01*
X0430350Y0176333D02*
X0430350Y0179333D01*
X0432850Y0181833D01*
X0435350Y0181833D01*
X0359350Y0177333D02*
X0359350Y0170333D01*
X0359350Y0177333D02*
X0356350Y0180333D01*
X0352850Y0180333D01*
X0354350Y0178833D01*
X0352850Y0180333D02*
X0354350Y0181833D01*
D11*
X0443551Y0203333D02*
X0443553Y0203491D01*
X0443559Y0203649D01*
X0443569Y0203807D01*
X0443583Y0203965D01*
X0443601Y0204122D01*
X0443622Y0204279D01*
X0443648Y0204435D01*
X0443678Y0204591D01*
X0443711Y0204746D01*
X0443749Y0204899D01*
X0443790Y0205052D01*
X0443835Y0205204D01*
X0443884Y0205355D01*
X0443937Y0205504D01*
X0443993Y0205652D01*
X0444053Y0205798D01*
X0444117Y0205943D01*
X0444185Y0206086D01*
X0444256Y0206228D01*
X0444330Y0206368D01*
X0444408Y0206505D01*
X0444490Y0206641D01*
X0444574Y0206775D01*
X0444663Y0206906D01*
X0444754Y0207035D01*
X0444849Y0207162D01*
X0444946Y0207287D01*
X0445047Y0207409D01*
X0445151Y0207528D01*
X0445258Y0207645D01*
X0445368Y0207759D01*
X0445481Y0207870D01*
X0445596Y0207979D01*
X0445714Y0208084D01*
X0445835Y0208186D01*
X0445958Y0208286D01*
X0446084Y0208382D01*
X0446212Y0208475D01*
X0446342Y0208565D01*
X0446475Y0208651D01*
X0446610Y0208735D01*
X0446746Y0208814D01*
X0446885Y0208891D01*
X0447026Y0208963D01*
X0447168Y0209033D01*
X0447312Y0209098D01*
X0447458Y0209160D01*
X0447605Y0209218D01*
X0447754Y0209273D01*
X0447904Y0209324D01*
X0448055Y0209371D01*
X0448207Y0209414D01*
X0448360Y0209453D01*
X0448515Y0209489D01*
X0448670Y0209520D01*
X0448826Y0209548D01*
X0448982Y0209572D01*
X0449139Y0209592D01*
X0449297Y0209608D01*
X0449454Y0209620D01*
X0449613Y0209628D01*
X0449771Y0209632D01*
X0449929Y0209632D01*
X0450087Y0209628D01*
X0450246Y0209620D01*
X0450403Y0209608D01*
X0450561Y0209592D01*
X0450718Y0209572D01*
X0450874Y0209548D01*
X0451030Y0209520D01*
X0451185Y0209489D01*
X0451340Y0209453D01*
X0451493Y0209414D01*
X0451645Y0209371D01*
X0451796Y0209324D01*
X0451946Y0209273D01*
X0452095Y0209218D01*
X0452242Y0209160D01*
X0452388Y0209098D01*
X0452532Y0209033D01*
X0452674Y0208963D01*
X0452815Y0208891D01*
X0452954Y0208814D01*
X0453090Y0208735D01*
X0453225Y0208651D01*
X0453358Y0208565D01*
X0453488Y0208475D01*
X0453616Y0208382D01*
X0453742Y0208286D01*
X0453865Y0208186D01*
X0453986Y0208084D01*
X0454104Y0207979D01*
X0454219Y0207870D01*
X0454332Y0207759D01*
X0454442Y0207645D01*
X0454549Y0207528D01*
X0454653Y0207409D01*
X0454754Y0207287D01*
X0454851Y0207162D01*
X0454946Y0207035D01*
X0455037Y0206906D01*
X0455126Y0206775D01*
X0455210Y0206641D01*
X0455292Y0206505D01*
X0455370Y0206368D01*
X0455444Y0206228D01*
X0455515Y0206086D01*
X0455583Y0205943D01*
X0455647Y0205798D01*
X0455707Y0205652D01*
X0455763Y0205504D01*
X0455816Y0205355D01*
X0455865Y0205204D01*
X0455910Y0205052D01*
X0455951Y0204899D01*
X0455989Y0204746D01*
X0456022Y0204591D01*
X0456052Y0204435D01*
X0456078Y0204279D01*
X0456099Y0204122D01*
X0456117Y0203965D01*
X0456131Y0203807D01*
X0456141Y0203649D01*
X0456147Y0203491D01*
X0456149Y0203333D01*
X0456147Y0203175D01*
X0456141Y0203017D01*
X0456131Y0202859D01*
X0456117Y0202701D01*
X0456099Y0202544D01*
X0456078Y0202387D01*
X0456052Y0202231D01*
X0456022Y0202075D01*
X0455989Y0201920D01*
X0455951Y0201767D01*
X0455910Y0201614D01*
X0455865Y0201462D01*
X0455816Y0201311D01*
X0455763Y0201162D01*
X0455707Y0201014D01*
X0455647Y0200868D01*
X0455583Y0200723D01*
X0455515Y0200580D01*
X0455444Y0200438D01*
X0455370Y0200298D01*
X0455292Y0200161D01*
X0455210Y0200025D01*
X0455126Y0199891D01*
X0455037Y0199760D01*
X0454946Y0199631D01*
X0454851Y0199504D01*
X0454754Y0199379D01*
X0454653Y0199257D01*
X0454549Y0199138D01*
X0454442Y0199021D01*
X0454332Y0198907D01*
X0454219Y0198796D01*
X0454104Y0198687D01*
X0453986Y0198582D01*
X0453865Y0198480D01*
X0453742Y0198380D01*
X0453616Y0198284D01*
X0453488Y0198191D01*
X0453358Y0198101D01*
X0453225Y0198015D01*
X0453090Y0197931D01*
X0452954Y0197852D01*
X0452815Y0197775D01*
X0452674Y0197703D01*
X0452532Y0197633D01*
X0452388Y0197568D01*
X0452242Y0197506D01*
X0452095Y0197448D01*
X0451946Y0197393D01*
X0451796Y0197342D01*
X0451645Y0197295D01*
X0451493Y0197252D01*
X0451340Y0197213D01*
X0451185Y0197177D01*
X0451030Y0197146D01*
X0450874Y0197118D01*
X0450718Y0197094D01*
X0450561Y0197074D01*
X0450403Y0197058D01*
X0450246Y0197046D01*
X0450087Y0197038D01*
X0449929Y0197034D01*
X0449771Y0197034D01*
X0449613Y0197038D01*
X0449454Y0197046D01*
X0449297Y0197058D01*
X0449139Y0197074D01*
X0448982Y0197094D01*
X0448826Y0197118D01*
X0448670Y0197146D01*
X0448515Y0197177D01*
X0448360Y0197213D01*
X0448207Y0197252D01*
X0448055Y0197295D01*
X0447904Y0197342D01*
X0447754Y0197393D01*
X0447605Y0197448D01*
X0447458Y0197506D01*
X0447312Y0197568D01*
X0447168Y0197633D01*
X0447026Y0197703D01*
X0446885Y0197775D01*
X0446746Y0197852D01*
X0446610Y0197931D01*
X0446475Y0198015D01*
X0446342Y0198101D01*
X0446212Y0198191D01*
X0446084Y0198284D01*
X0445958Y0198380D01*
X0445835Y0198480D01*
X0445714Y0198582D01*
X0445596Y0198687D01*
X0445481Y0198796D01*
X0445368Y0198907D01*
X0445258Y0199021D01*
X0445151Y0199138D01*
X0445047Y0199257D01*
X0444946Y0199379D01*
X0444849Y0199504D01*
X0444754Y0199631D01*
X0444663Y0199760D01*
X0444574Y0199891D01*
X0444490Y0200025D01*
X0444408Y0200161D01*
X0444330Y0200298D01*
X0444256Y0200438D01*
X0444185Y0200580D01*
X0444117Y0200723D01*
X0444053Y0200868D01*
X0443993Y0201014D01*
X0443937Y0201162D01*
X0443884Y0201311D01*
X0443835Y0201462D01*
X0443790Y0201614D01*
X0443749Y0201767D01*
X0443711Y0201920D01*
X0443678Y0202075D01*
X0443648Y0202231D01*
X0443622Y0202387D01*
X0443601Y0202544D01*
X0443583Y0202701D01*
X0443569Y0202859D01*
X0443559Y0203017D01*
X0443553Y0203175D01*
X0443551Y0203333D01*
X0443551Y0028333D02*
X0443553Y0028491D01*
X0443559Y0028649D01*
X0443569Y0028807D01*
X0443583Y0028965D01*
X0443601Y0029122D01*
X0443622Y0029279D01*
X0443648Y0029435D01*
X0443678Y0029591D01*
X0443711Y0029746D01*
X0443749Y0029899D01*
X0443790Y0030052D01*
X0443835Y0030204D01*
X0443884Y0030355D01*
X0443937Y0030504D01*
X0443993Y0030652D01*
X0444053Y0030798D01*
X0444117Y0030943D01*
X0444185Y0031086D01*
X0444256Y0031228D01*
X0444330Y0031368D01*
X0444408Y0031505D01*
X0444490Y0031641D01*
X0444574Y0031775D01*
X0444663Y0031906D01*
X0444754Y0032035D01*
X0444849Y0032162D01*
X0444946Y0032287D01*
X0445047Y0032409D01*
X0445151Y0032528D01*
X0445258Y0032645D01*
X0445368Y0032759D01*
X0445481Y0032870D01*
X0445596Y0032979D01*
X0445714Y0033084D01*
X0445835Y0033186D01*
X0445958Y0033286D01*
X0446084Y0033382D01*
X0446212Y0033475D01*
X0446342Y0033565D01*
X0446475Y0033651D01*
X0446610Y0033735D01*
X0446746Y0033814D01*
X0446885Y0033891D01*
X0447026Y0033963D01*
X0447168Y0034033D01*
X0447312Y0034098D01*
X0447458Y0034160D01*
X0447605Y0034218D01*
X0447754Y0034273D01*
X0447904Y0034324D01*
X0448055Y0034371D01*
X0448207Y0034414D01*
X0448360Y0034453D01*
X0448515Y0034489D01*
X0448670Y0034520D01*
X0448826Y0034548D01*
X0448982Y0034572D01*
X0449139Y0034592D01*
X0449297Y0034608D01*
X0449454Y0034620D01*
X0449613Y0034628D01*
X0449771Y0034632D01*
X0449929Y0034632D01*
X0450087Y0034628D01*
X0450246Y0034620D01*
X0450403Y0034608D01*
X0450561Y0034592D01*
X0450718Y0034572D01*
X0450874Y0034548D01*
X0451030Y0034520D01*
X0451185Y0034489D01*
X0451340Y0034453D01*
X0451493Y0034414D01*
X0451645Y0034371D01*
X0451796Y0034324D01*
X0451946Y0034273D01*
X0452095Y0034218D01*
X0452242Y0034160D01*
X0452388Y0034098D01*
X0452532Y0034033D01*
X0452674Y0033963D01*
X0452815Y0033891D01*
X0452954Y0033814D01*
X0453090Y0033735D01*
X0453225Y0033651D01*
X0453358Y0033565D01*
X0453488Y0033475D01*
X0453616Y0033382D01*
X0453742Y0033286D01*
X0453865Y0033186D01*
X0453986Y0033084D01*
X0454104Y0032979D01*
X0454219Y0032870D01*
X0454332Y0032759D01*
X0454442Y0032645D01*
X0454549Y0032528D01*
X0454653Y0032409D01*
X0454754Y0032287D01*
X0454851Y0032162D01*
X0454946Y0032035D01*
X0455037Y0031906D01*
X0455126Y0031775D01*
X0455210Y0031641D01*
X0455292Y0031505D01*
X0455370Y0031368D01*
X0455444Y0031228D01*
X0455515Y0031086D01*
X0455583Y0030943D01*
X0455647Y0030798D01*
X0455707Y0030652D01*
X0455763Y0030504D01*
X0455816Y0030355D01*
X0455865Y0030204D01*
X0455910Y0030052D01*
X0455951Y0029899D01*
X0455989Y0029746D01*
X0456022Y0029591D01*
X0456052Y0029435D01*
X0456078Y0029279D01*
X0456099Y0029122D01*
X0456117Y0028965D01*
X0456131Y0028807D01*
X0456141Y0028649D01*
X0456147Y0028491D01*
X0456149Y0028333D01*
X0456147Y0028175D01*
X0456141Y0028017D01*
X0456131Y0027859D01*
X0456117Y0027701D01*
X0456099Y0027544D01*
X0456078Y0027387D01*
X0456052Y0027231D01*
X0456022Y0027075D01*
X0455989Y0026920D01*
X0455951Y0026767D01*
X0455910Y0026614D01*
X0455865Y0026462D01*
X0455816Y0026311D01*
X0455763Y0026162D01*
X0455707Y0026014D01*
X0455647Y0025868D01*
X0455583Y0025723D01*
X0455515Y0025580D01*
X0455444Y0025438D01*
X0455370Y0025298D01*
X0455292Y0025161D01*
X0455210Y0025025D01*
X0455126Y0024891D01*
X0455037Y0024760D01*
X0454946Y0024631D01*
X0454851Y0024504D01*
X0454754Y0024379D01*
X0454653Y0024257D01*
X0454549Y0024138D01*
X0454442Y0024021D01*
X0454332Y0023907D01*
X0454219Y0023796D01*
X0454104Y0023687D01*
X0453986Y0023582D01*
X0453865Y0023480D01*
X0453742Y0023380D01*
X0453616Y0023284D01*
X0453488Y0023191D01*
X0453358Y0023101D01*
X0453225Y0023015D01*
X0453090Y0022931D01*
X0452954Y0022852D01*
X0452815Y0022775D01*
X0452674Y0022703D01*
X0452532Y0022633D01*
X0452388Y0022568D01*
X0452242Y0022506D01*
X0452095Y0022448D01*
X0451946Y0022393D01*
X0451796Y0022342D01*
X0451645Y0022295D01*
X0451493Y0022252D01*
X0451340Y0022213D01*
X0451185Y0022177D01*
X0451030Y0022146D01*
X0450874Y0022118D01*
X0450718Y0022094D01*
X0450561Y0022074D01*
X0450403Y0022058D01*
X0450246Y0022046D01*
X0450087Y0022038D01*
X0449929Y0022034D01*
X0449771Y0022034D01*
X0449613Y0022038D01*
X0449454Y0022046D01*
X0449297Y0022058D01*
X0449139Y0022074D01*
X0448982Y0022094D01*
X0448826Y0022118D01*
X0448670Y0022146D01*
X0448515Y0022177D01*
X0448360Y0022213D01*
X0448207Y0022252D01*
X0448055Y0022295D01*
X0447904Y0022342D01*
X0447754Y0022393D01*
X0447605Y0022448D01*
X0447458Y0022506D01*
X0447312Y0022568D01*
X0447168Y0022633D01*
X0447026Y0022703D01*
X0446885Y0022775D01*
X0446746Y0022852D01*
X0446610Y0022931D01*
X0446475Y0023015D01*
X0446342Y0023101D01*
X0446212Y0023191D01*
X0446084Y0023284D01*
X0445958Y0023380D01*
X0445835Y0023480D01*
X0445714Y0023582D01*
X0445596Y0023687D01*
X0445481Y0023796D01*
X0445368Y0023907D01*
X0445258Y0024021D01*
X0445151Y0024138D01*
X0445047Y0024257D01*
X0444946Y0024379D01*
X0444849Y0024504D01*
X0444754Y0024631D01*
X0444663Y0024760D01*
X0444574Y0024891D01*
X0444490Y0025025D01*
X0444408Y0025161D01*
X0444330Y0025298D01*
X0444256Y0025438D01*
X0444185Y0025580D01*
X0444117Y0025723D01*
X0444053Y0025868D01*
X0443993Y0026014D01*
X0443937Y0026162D01*
X0443884Y0026311D01*
X0443835Y0026462D01*
X0443790Y0026614D01*
X0443749Y0026767D01*
X0443711Y0026920D01*
X0443678Y0027075D01*
X0443648Y0027231D01*
X0443622Y0027387D01*
X0443601Y0027544D01*
X0443583Y0027701D01*
X0443569Y0027859D01*
X0443559Y0028017D01*
X0443553Y0028175D01*
X0443551Y0028333D01*
X0019051Y0028333D02*
X0019053Y0028491D01*
X0019059Y0028649D01*
X0019069Y0028807D01*
X0019083Y0028965D01*
X0019101Y0029122D01*
X0019122Y0029279D01*
X0019148Y0029435D01*
X0019178Y0029591D01*
X0019211Y0029746D01*
X0019249Y0029899D01*
X0019290Y0030052D01*
X0019335Y0030204D01*
X0019384Y0030355D01*
X0019437Y0030504D01*
X0019493Y0030652D01*
X0019553Y0030798D01*
X0019617Y0030943D01*
X0019685Y0031086D01*
X0019756Y0031228D01*
X0019830Y0031368D01*
X0019908Y0031505D01*
X0019990Y0031641D01*
X0020074Y0031775D01*
X0020163Y0031906D01*
X0020254Y0032035D01*
X0020349Y0032162D01*
X0020446Y0032287D01*
X0020547Y0032409D01*
X0020651Y0032528D01*
X0020758Y0032645D01*
X0020868Y0032759D01*
X0020981Y0032870D01*
X0021096Y0032979D01*
X0021214Y0033084D01*
X0021335Y0033186D01*
X0021458Y0033286D01*
X0021584Y0033382D01*
X0021712Y0033475D01*
X0021842Y0033565D01*
X0021975Y0033651D01*
X0022110Y0033735D01*
X0022246Y0033814D01*
X0022385Y0033891D01*
X0022526Y0033963D01*
X0022668Y0034033D01*
X0022812Y0034098D01*
X0022958Y0034160D01*
X0023105Y0034218D01*
X0023254Y0034273D01*
X0023404Y0034324D01*
X0023555Y0034371D01*
X0023707Y0034414D01*
X0023860Y0034453D01*
X0024015Y0034489D01*
X0024170Y0034520D01*
X0024326Y0034548D01*
X0024482Y0034572D01*
X0024639Y0034592D01*
X0024797Y0034608D01*
X0024954Y0034620D01*
X0025113Y0034628D01*
X0025271Y0034632D01*
X0025429Y0034632D01*
X0025587Y0034628D01*
X0025746Y0034620D01*
X0025903Y0034608D01*
X0026061Y0034592D01*
X0026218Y0034572D01*
X0026374Y0034548D01*
X0026530Y0034520D01*
X0026685Y0034489D01*
X0026840Y0034453D01*
X0026993Y0034414D01*
X0027145Y0034371D01*
X0027296Y0034324D01*
X0027446Y0034273D01*
X0027595Y0034218D01*
X0027742Y0034160D01*
X0027888Y0034098D01*
X0028032Y0034033D01*
X0028174Y0033963D01*
X0028315Y0033891D01*
X0028454Y0033814D01*
X0028590Y0033735D01*
X0028725Y0033651D01*
X0028858Y0033565D01*
X0028988Y0033475D01*
X0029116Y0033382D01*
X0029242Y0033286D01*
X0029365Y0033186D01*
X0029486Y0033084D01*
X0029604Y0032979D01*
X0029719Y0032870D01*
X0029832Y0032759D01*
X0029942Y0032645D01*
X0030049Y0032528D01*
X0030153Y0032409D01*
X0030254Y0032287D01*
X0030351Y0032162D01*
X0030446Y0032035D01*
X0030537Y0031906D01*
X0030626Y0031775D01*
X0030710Y0031641D01*
X0030792Y0031505D01*
X0030870Y0031368D01*
X0030944Y0031228D01*
X0031015Y0031086D01*
X0031083Y0030943D01*
X0031147Y0030798D01*
X0031207Y0030652D01*
X0031263Y0030504D01*
X0031316Y0030355D01*
X0031365Y0030204D01*
X0031410Y0030052D01*
X0031451Y0029899D01*
X0031489Y0029746D01*
X0031522Y0029591D01*
X0031552Y0029435D01*
X0031578Y0029279D01*
X0031599Y0029122D01*
X0031617Y0028965D01*
X0031631Y0028807D01*
X0031641Y0028649D01*
X0031647Y0028491D01*
X0031649Y0028333D01*
X0031647Y0028175D01*
X0031641Y0028017D01*
X0031631Y0027859D01*
X0031617Y0027701D01*
X0031599Y0027544D01*
X0031578Y0027387D01*
X0031552Y0027231D01*
X0031522Y0027075D01*
X0031489Y0026920D01*
X0031451Y0026767D01*
X0031410Y0026614D01*
X0031365Y0026462D01*
X0031316Y0026311D01*
X0031263Y0026162D01*
X0031207Y0026014D01*
X0031147Y0025868D01*
X0031083Y0025723D01*
X0031015Y0025580D01*
X0030944Y0025438D01*
X0030870Y0025298D01*
X0030792Y0025161D01*
X0030710Y0025025D01*
X0030626Y0024891D01*
X0030537Y0024760D01*
X0030446Y0024631D01*
X0030351Y0024504D01*
X0030254Y0024379D01*
X0030153Y0024257D01*
X0030049Y0024138D01*
X0029942Y0024021D01*
X0029832Y0023907D01*
X0029719Y0023796D01*
X0029604Y0023687D01*
X0029486Y0023582D01*
X0029365Y0023480D01*
X0029242Y0023380D01*
X0029116Y0023284D01*
X0028988Y0023191D01*
X0028858Y0023101D01*
X0028725Y0023015D01*
X0028590Y0022931D01*
X0028454Y0022852D01*
X0028315Y0022775D01*
X0028174Y0022703D01*
X0028032Y0022633D01*
X0027888Y0022568D01*
X0027742Y0022506D01*
X0027595Y0022448D01*
X0027446Y0022393D01*
X0027296Y0022342D01*
X0027145Y0022295D01*
X0026993Y0022252D01*
X0026840Y0022213D01*
X0026685Y0022177D01*
X0026530Y0022146D01*
X0026374Y0022118D01*
X0026218Y0022094D01*
X0026061Y0022074D01*
X0025903Y0022058D01*
X0025746Y0022046D01*
X0025587Y0022038D01*
X0025429Y0022034D01*
X0025271Y0022034D01*
X0025113Y0022038D01*
X0024954Y0022046D01*
X0024797Y0022058D01*
X0024639Y0022074D01*
X0024482Y0022094D01*
X0024326Y0022118D01*
X0024170Y0022146D01*
X0024015Y0022177D01*
X0023860Y0022213D01*
X0023707Y0022252D01*
X0023555Y0022295D01*
X0023404Y0022342D01*
X0023254Y0022393D01*
X0023105Y0022448D01*
X0022958Y0022506D01*
X0022812Y0022568D01*
X0022668Y0022633D01*
X0022526Y0022703D01*
X0022385Y0022775D01*
X0022246Y0022852D01*
X0022110Y0022931D01*
X0021975Y0023015D01*
X0021842Y0023101D01*
X0021712Y0023191D01*
X0021584Y0023284D01*
X0021458Y0023380D01*
X0021335Y0023480D01*
X0021214Y0023582D01*
X0021096Y0023687D01*
X0020981Y0023796D01*
X0020868Y0023907D01*
X0020758Y0024021D01*
X0020651Y0024138D01*
X0020547Y0024257D01*
X0020446Y0024379D01*
X0020349Y0024504D01*
X0020254Y0024631D01*
X0020163Y0024760D01*
X0020074Y0024891D01*
X0019990Y0025025D01*
X0019908Y0025161D01*
X0019830Y0025298D01*
X0019756Y0025438D01*
X0019685Y0025580D01*
X0019617Y0025723D01*
X0019553Y0025868D01*
X0019493Y0026014D01*
X0019437Y0026162D01*
X0019384Y0026311D01*
X0019335Y0026462D01*
X0019290Y0026614D01*
X0019249Y0026767D01*
X0019211Y0026920D01*
X0019178Y0027075D01*
X0019148Y0027231D01*
X0019122Y0027387D01*
X0019101Y0027544D01*
X0019083Y0027701D01*
X0019069Y0027859D01*
X0019059Y0028017D01*
X0019053Y0028175D01*
X0019051Y0028333D01*
X0018551Y0203333D02*
X0018553Y0203491D01*
X0018559Y0203649D01*
X0018569Y0203807D01*
X0018583Y0203965D01*
X0018601Y0204122D01*
X0018622Y0204279D01*
X0018648Y0204435D01*
X0018678Y0204591D01*
X0018711Y0204746D01*
X0018749Y0204899D01*
X0018790Y0205052D01*
X0018835Y0205204D01*
X0018884Y0205355D01*
X0018937Y0205504D01*
X0018993Y0205652D01*
X0019053Y0205798D01*
X0019117Y0205943D01*
X0019185Y0206086D01*
X0019256Y0206228D01*
X0019330Y0206368D01*
X0019408Y0206505D01*
X0019490Y0206641D01*
X0019574Y0206775D01*
X0019663Y0206906D01*
X0019754Y0207035D01*
X0019849Y0207162D01*
X0019946Y0207287D01*
X0020047Y0207409D01*
X0020151Y0207528D01*
X0020258Y0207645D01*
X0020368Y0207759D01*
X0020481Y0207870D01*
X0020596Y0207979D01*
X0020714Y0208084D01*
X0020835Y0208186D01*
X0020958Y0208286D01*
X0021084Y0208382D01*
X0021212Y0208475D01*
X0021342Y0208565D01*
X0021475Y0208651D01*
X0021610Y0208735D01*
X0021746Y0208814D01*
X0021885Y0208891D01*
X0022026Y0208963D01*
X0022168Y0209033D01*
X0022312Y0209098D01*
X0022458Y0209160D01*
X0022605Y0209218D01*
X0022754Y0209273D01*
X0022904Y0209324D01*
X0023055Y0209371D01*
X0023207Y0209414D01*
X0023360Y0209453D01*
X0023515Y0209489D01*
X0023670Y0209520D01*
X0023826Y0209548D01*
X0023982Y0209572D01*
X0024139Y0209592D01*
X0024297Y0209608D01*
X0024454Y0209620D01*
X0024613Y0209628D01*
X0024771Y0209632D01*
X0024929Y0209632D01*
X0025087Y0209628D01*
X0025246Y0209620D01*
X0025403Y0209608D01*
X0025561Y0209592D01*
X0025718Y0209572D01*
X0025874Y0209548D01*
X0026030Y0209520D01*
X0026185Y0209489D01*
X0026340Y0209453D01*
X0026493Y0209414D01*
X0026645Y0209371D01*
X0026796Y0209324D01*
X0026946Y0209273D01*
X0027095Y0209218D01*
X0027242Y0209160D01*
X0027388Y0209098D01*
X0027532Y0209033D01*
X0027674Y0208963D01*
X0027815Y0208891D01*
X0027954Y0208814D01*
X0028090Y0208735D01*
X0028225Y0208651D01*
X0028358Y0208565D01*
X0028488Y0208475D01*
X0028616Y0208382D01*
X0028742Y0208286D01*
X0028865Y0208186D01*
X0028986Y0208084D01*
X0029104Y0207979D01*
X0029219Y0207870D01*
X0029332Y0207759D01*
X0029442Y0207645D01*
X0029549Y0207528D01*
X0029653Y0207409D01*
X0029754Y0207287D01*
X0029851Y0207162D01*
X0029946Y0207035D01*
X0030037Y0206906D01*
X0030126Y0206775D01*
X0030210Y0206641D01*
X0030292Y0206505D01*
X0030370Y0206368D01*
X0030444Y0206228D01*
X0030515Y0206086D01*
X0030583Y0205943D01*
X0030647Y0205798D01*
X0030707Y0205652D01*
X0030763Y0205504D01*
X0030816Y0205355D01*
X0030865Y0205204D01*
X0030910Y0205052D01*
X0030951Y0204899D01*
X0030989Y0204746D01*
X0031022Y0204591D01*
X0031052Y0204435D01*
X0031078Y0204279D01*
X0031099Y0204122D01*
X0031117Y0203965D01*
X0031131Y0203807D01*
X0031141Y0203649D01*
X0031147Y0203491D01*
X0031149Y0203333D01*
X0031147Y0203175D01*
X0031141Y0203017D01*
X0031131Y0202859D01*
X0031117Y0202701D01*
X0031099Y0202544D01*
X0031078Y0202387D01*
X0031052Y0202231D01*
X0031022Y0202075D01*
X0030989Y0201920D01*
X0030951Y0201767D01*
X0030910Y0201614D01*
X0030865Y0201462D01*
X0030816Y0201311D01*
X0030763Y0201162D01*
X0030707Y0201014D01*
X0030647Y0200868D01*
X0030583Y0200723D01*
X0030515Y0200580D01*
X0030444Y0200438D01*
X0030370Y0200298D01*
X0030292Y0200161D01*
X0030210Y0200025D01*
X0030126Y0199891D01*
X0030037Y0199760D01*
X0029946Y0199631D01*
X0029851Y0199504D01*
X0029754Y0199379D01*
X0029653Y0199257D01*
X0029549Y0199138D01*
X0029442Y0199021D01*
X0029332Y0198907D01*
X0029219Y0198796D01*
X0029104Y0198687D01*
X0028986Y0198582D01*
X0028865Y0198480D01*
X0028742Y0198380D01*
X0028616Y0198284D01*
X0028488Y0198191D01*
X0028358Y0198101D01*
X0028225Y0198015D01*
X0028090Y0197931D01*
X0027954Y0197852D01*
X0027815Y0197775D01*
X0027674Y0197703D01*
X0027532Y0197633D01*
X0027388Y0197568D01*
X0027242Y0197506D01*
X0027095Y0197448D01*
X0026946Y0197393D01*
X0026796Y0197342D01*
X0026645Y0197295D01*
X0026493Y0197252D01*
X0026340Y0197213D01*
X0026185Y0197177D01*
X0026030Y0197146D01*
X0025874Y0197118D01*
X0025718Y0197094D01*
X0025561Y0197074D01*
X0025403Y0197058D01*
X0025246Y0197046D01*
X0025087Y0197038D01*
X0024929Y0197034D01*
X0024771Y0197034D01*
X0024613Y0197038D01*
X0024454Y0197046D01*
X0024297Y0197058D01*
X0024139Y0197074D01*
X0023982Y0197094D01*
X0023826Y0197118D01*
X0023670Y0197146D01*
X0023515Y0197177D01*
X0023360Y0197213D01*
X0023207Y0197252D01*
X0023055Y0197295D01*
X0022904Y0197342D01*
X0022754Y0197393D01*
X0022605Y0197448D01*
X0022458Y0197506D01*
X0022312Y0197568D01*
X0022168Y0197633D01*
X0022026Y0197703D01*
X0021885Y0197775D01*
X0021746Y0197852D01*
X0021610Y0197931D01*
X0021475Y0198015D01*
X0021342Y0198101D01*
X0021212Y0198191D01*
X0021084Y0198284D01*
X0020958Y0198380D01*
X0020835Y0198480D01*
X0020714Y0198582D01*
X0020596Y0198687D01*
X0020481Y0198796D01*
X0020368Y0198907D01*
X0020258Y0199021D01*
X0020151Y0199138D01*
X0020047Y0199257D01*
X0019946Y0199379D01*
X0019849Y0199504D01*
X0019754Y0199631D01*
X0019663Y0199760D01*
X0019574Y0199891D01*
X0019490Y0200025D01*
X0019408Y0200161D01*
X0019330Y0200298D01*
X0019256Y0200438D01*
X0019185Y0200580D01*
X0019117Y0200723D01*
X0019053Y0200868D01*
X0018993Y0201014D01*
X0018937Y0201162D01*
X0018884Y0201311D01*
X0018835Y0201462D01*
X0018790Y0201614D01*
X0018749Y0201767D01*
X0018711Y0201920D01*
X0018678Y0202075D01*
X0018648Y0202231D01*
X0018622Y0202387D01*
X0018601Y0202544D01*
X0018583Y0202701D01*
X0018569Y0202859D01*
X0018559Y0203017D01*
X0018553Y0203175D01*
X0018551Y0203333D01*
D12*
X0040415Y0193466D02*
X0040415Y0191198D01*
X0040982Y0190630D01*
X0042684Y0190630D01*
X0042684Y0194033D01*
X0040982Y0194033D01*
X0040415Y0193466D01*
X0044098Y0194033D02*
X0044098Y0190630D01*
X0046367Y0190630D02*
X0044098Y0194033D01*
X0046367Y0194033D02*
X0046367Y0190630D01*
X0047781Y0191198D02*
X0048349Y0190630D01*
X0049483Y0190630D01*
X0050050Y0191198D01*
X0050050Y0193466D01*
X0049483Y0194033D01*
X0048349Y0194033D01*
X0047781Y0193466D01*
X0047781Y0192332D01*
X0048916Y0192332D01*
X0048349Y0188033D02*
X0050050Y0188033D01*
X0050050Y0184630D01*
X0048349Y0184630D01*
X0047781Y0185198D01*
X0047781Y0185765D01*
X0048349Y0186332D01*
X0050050Y0186332D01*
X0048349Y0186332D02*
X0047781Y0186899D01*
X0047781Y0187466D01*
X0048349Y0188033D01*
X0046367Y0188033D02*
X0046367Y0184630D01*
X0046367Y0188033D02*
X0044098Y0188033D01*
X0042684Y0188033D02*
X0042684Y0184630D01*
X0042117Y0186332D02*
X0040415Y0188033D01*
X0042684Y0186899D02*
X0040415Y0184630D01*
X0041405Y0180536D02*
X0042539Y0180536D01*
X0043107Y0179969D01*
X0043107Y0179402D01*
X0042539Y0178835D01*
X0041405Y0178835D01*
X0040838Y0179402D01*
X0040838Y0179969D01*
X0041405Y0180536D01*
X0041405Y0178835D02*
X0040838Y0178268D01*
X0040838Y0177700D01*
X0041405Y0177133D01*
X0042539Y0177133D01*
X0043107Y0177700D01*
X0043107Y0178268D01*
X0042539Y0178835D01*
X0044521Y0179402D02*
X0045088Y0178835D01*
X0046223Y0178835D01*
X0046790Y0178268D01*
X0046790Y0177700D01*
X0046223Y0177133D01*
X0045088Y0177133D01*
X0044521Y0177700D01*
X0044521Y0179402D02*
X0044521Y0179969D01*
X0045088Y0180536D01*
X0046223Y0180536D01*
X0046790Y0179969D01*
X0048204Y0180536D02*
X0049906Y0180536D01*
X0050473Y0179969D01*
X0050473Y0178835D01*
X0049906Y0178268D01*
X0048204Y0178268D01*
X0049339Y0178268D02*
X0050473Y0177133D01*
X0051887Y0178835D02*
X0054156Y0178835D01*
X0055571Y0178835D02*
X0056705Y0179402D01*
X0057272Y0179402D01*
X0057839Y0178835D01*
X0057839Y0177700D01*
X0057272Y0177133D01*
X0056138Y0177133D01*
X0055571Y0177700D01*
X0055571Y0178835D02*
X0055571Y0180536D01*
X0057839Y0180536D01*
X0048204Y0180536D02*
X0048204Y0177133D01*
X0039423Y0179969D02*
X0037155Y0177700D01*
X0037155Y0177133D01*
X0035740Y0178835D02*
X0033472Y0178835D01*
X0032151Y0180536D02*
X0031016Y0180536D01*
X0031583Y0180536D02*
X0031583Y0177133D01*
X0031016Y0177133D02*
X0032151Y0177133D01*
X0029602Y0177133D02*
X0027900Y0178835D01*
X0027333Y0178268D02*
X0029602Y0180536D01*
X0027333Y0180536D02*
X0027333Y0177133D01*
X0025919Y0177700D02*
X0025351Y0177133D01*
X0024217Y0177133D01*
X0023650Y0177700D01*
X0023650Y0179969D01*
X0024217Y0180536D01*
X0025351Y0180536D01*
X0025919Y0179969D01*
X0025919Y0177700D01*
X0016550Y0177878D02*
X0013147Y0177878D01*
X0013147Y0177311D01*
X0014849Y0175897D02*
X0015416Y0175897D01*
X0015416Y0173628D01*
X0015983Y0173628D02*
X0014849Y0173628D01*
X0014281Y0174195D01*
X0014281Y0175330D01*
X0014849Y0175897D01*
X0016550Y0175330D02*
X0016550Y0174195D01*
X0015983Y0173628D01*
X0015983Y0172214D02*
X0016550Y0171646D01*
X0016550Y0170512D01*
X0015983Y0169945D01*
X0014849Y0170512D02*
X0014849Y0171646D01*
X0015416Y0172214D01*
X0015983Y0172214D01*
X0014849Y0170512D02*
X0014281Y0169945D01*
X0013714Y0169945D01*
X0013147Y0170512D01*
X0013147Y0171646D01*
X0013714Y0172214D01*
X0016550Y0177311D02*
X0016550Y0178445D01*
X0015983Y0179767D02*
X0014849Y0179767D01*
X0014281Y0180334D01*
X0014281Y0181468D01*
X0014849Y0182035D01*
X0015416Y0182035D01*
X0015416Y0179767D01*
X0015983Y0179767D02*
X0016550Y0180334D01*
X0016550Y0181468D01*
X0015983Y0183450D02*
X0016550Y0184017D01*
X0016550Y0185718D01*
X0015983Y0187700D02*
X0013714Y0187700D01*
X0014281Y0187133D02*
X0014281Y0188267D01*
X0015983Y0187700D02*
X0016550Y0188267D01*
X0014281Y0185718D02*
X0014281Y0184017D01*
X0014849Y0183450D01*
X0015983Y0183450D01*
X0037155Y0180536D02*
X0039423Y0180536D01*
X0039423Y0179969D01*
X0015416Y0163192D02*
X0014281Y0164327D01*
X0014281Y0164894D01*
X0014281Y0163192D02*
X0016550Y0163192D01*
X0015416Y0161778D02*
X0015416Y0159509D01*
X0015983Y0159509D02*
X0014849Y0159509D01*
X0014281Y0160076D01*
X0014281Y0161211D01*
X0014849Y0161778D01*
X0015416Y0161778D01*
X0016550Y0161211D02*
X0016550Y0160076D01*
X0015983Y0159509D01*
X0015983Y0158095D02*
X0014281Y0158095D01*
X0015983Y0158095D02*
X0016550Y0157528D01*
X0015983Y0156960D01*
X0016550Y0156393D01*
X0015983Y0155826D01*
X0014281Y0155826D01*
X0014849Y0154412D02*
X0014281Y0153845D01*
X0014281Y0152710D01*
X0014849Y0152143D01*
X0015983Y0152143D01*
X0016550Y0152710D01*
X0016550Y0153845D01*
X0015983Y0154412D01*
X0014849Y0154412D01*
X0014849Y0150729D02*
X0013714Y0150729D01*
X0013147Y0150161D01*
X0013147Y0148460D01*
X0016550Y0148460D01*
X0015416Y0148460D02*
X0015416Y0150161D01*
X0014849Y0150729D01*
X0014281Y0139772D02*
X0014281Y0138638D01*
X0013714Y0139205D02*
X0015983Y0139205D01*
X0016550Y0139772D01*
X0016550Y0137224D02*
X0014281Y0137224D01*
X0014281Y0134955D02*
X0015983Y0134955D01*
X0016550Y0135522D01*
X0016550Y0137224D01*
X0015983Y0133541D02*
X0016550Y0132973D01*
X0016550Y0131272D01*
X0017684Y0131272D02*
X0014281Y0131272D01*
X0014281Y0132973D01*
X0014849Y0133541D01*
X0015983Y0133541D01*
X0021650Y0131902D02*
X0022784Y0133036D01*
X0024105Y0133036D02*
X0024105Y0129633D01*
X0024105Y0130768D02*
X0025807Y0130768D01*
X0026374Y0131335D01*
X0026374Y0132469D01*
X0025807Y0133036D01*
X0024105Y0133036D01*
X0025240Y0130768D02*
X0026374Y0129633D01*
X0027789Y0129633D02*
X0030057Y0129633D01*
X0031472Y0130200D02*
X0032039Y0129633D01*
X0033173Y0129633D01*
X0033740Y0130200D01*
X0033740Y0131335D01*
X0032606Y0131335D01*
X0031472Y0132469D02*
X0031472Y0130200D01*
X0031472Y0132469D02*
X0032039Y0133036D01*
X0033173Y0133036D01*
X0033740Y0132469D01*
X0035155Y0133036D02*
X0036289Y0131902D01*
X0036289Y0130768D01*
X0035155Y0129633D01*
X0030057Y0133036D02*
X0027789Y0133036D01*
X0027789Y0129633D01*
X0027789Y0131335D02*
X0028923Y0131335D01*
X0029016Y0135633D02*
X0031285Y0135633D01*
X0030151Y0135633D02*
X0030151Y0139036D01*
X0029016Y0137902D01*
X0027602Y0137335D02*
X0025333Y0137335D01*
X0023919Y0136768D02*
X0023351Y0137335D01*
X0021650Y0137335D01*
X0021650Y0136200D01*
X0022217Y0135633D01*
X0023351Y0135633D01*
X0023919Y0136200D01*
X0023919Y0136768D01*
X0022784Y0138469D02*
X0021650Y0137335D01*
X0022784Y0138469D02*
X0023919Y0139036D01*
X0032699Y0138469D02*
X0033267Y0139036D01*
X0034401Y0139036D01*
X0034968Y0138469D01*
X0034968Y0137902D01*
X0032699Y0135633D01*
X0034968Y0135633D01*
X0036383Y0136768D02*
X0037517Y0135633D01*
X0038651Y0136768D01*
X0038651Y0139036D01*
X0036383Y0139036D02*
X0036383Y0136768D01*
X0043650Y0137335D02*
X0044784Y0137902D01*
X0045351Y0137902D01*
X0045919Y0137335D01*
X0045919Y0136200D01*
X0045351Y0135633D01*
X0044217Y0135633D01*
X0043650Y0136200D01*
X0043650Y0137335D02*
X0043650Y0139036D01*
X0045919Y0139036D01*
X0047333Y0139036D02*
X0047333Y0136768D01*
X0048467Y0135633D01*
X0049602Y0136768D01*
X0049602Y0139036D01*
X0054699Y0139036D02*
X0055834Y0139036D01*
X0055267Y0139036D02*
X0055267Y0135633D01*
X0055834Y0135633D02*
X0054699Y0135633D01*
X0057155Y0135633D02*
X0057155Y0139036D01*
X0059423Y0135633D01*
X0059423Y0139036D01*
X0057155Y0133036D02*
X0058289Y0131902D01*
X0058289Y0130768D01*
X0057155Y0129633D01*
X0055740Y0129633D02*
X0055740Y0133036D01*
X0053472Y0133036D02*
X0053472Y0129633D01*
X0054606Y0130768D01*
X0055740Y0129633D01*
X0052057Y0129633D02*
X0052057Y0131902D01*
X0050923Y0133036D01*
X0049789Y0131902D01*
X0049789Y0129633D01*
X0048374Y0129633D02*
X0047240Y0130768D01*
X0047807Y0130768D02*
X0046105Y0130768D01*
X0046105Y0129633D02*
X0046105Y0133036D01*
X0047807Y0133036D01*
X0048374Y0132469D01*
X0048374Y0131335D01*
X0047807Y0130768D01*
X0049789Y0131335D02*
X0052057Y0131335D01*
X0044784Y0133036D02*
X0043650Y0131902D01*
X0043650Y0130768D01*
X0044784Y0129633D01*
X0022784Y0129633D02*
X0021650Y0130768D01*
X0021650Y0131902D01*
X0016550Y0129857D02*
X0014849Y0129857D01*
X0014281Y0129290D01*
X0014281Y0127589D01*
X0016550Y0127589D01*
X0016550Y0126268D02*
X0016550Y0125133D01*
X0016550Y0125700D02*
X0013147Y0125700D01*
X0013147Y0125133D02*
X0013147Y0126268D01*
X0089643Y0179198D02*
X0090210Y0178630D01*
X0091344Y0178630D01*
X0091911Y0179198D01*
X0091911Y0181466D01*
X0091344Y0182033D01*
X0090210Y0182033D01*
X0089643Y0181466D01*
X0089643Y0180332D01*
X0090777Y0180332D01*
X0093233Y0182033D02*
X0094367Y0182033D01*
X0093800Y0182033D02*
X0093800Y0178630D01*
X0094367Y0178630D02*
X0093233Y0178630D01*
X0095781Y0179198D02*
X0096349Y0178630D01*
X0097483Y0178630D01*
X0098050Y0179198D01*
X0098050Y0179765D01*
X0097483Y0180332D01*
X0096349Y0180332D01*
X0095781Y0180899D01*
X0095781Y0181466D01*
X0096349Y0182033D01*
X0097483Y0182033D01*
X0098050Y0181466D01*
X0097983Y0188630D02*
X0096849Y0188630D01*
X0096281Y0189198D01*
X0096281Y0189765D01*
X0096849Y0190332D01*
X0096281Y0190899D01*
X0096281Y0191466D01*
X0096849Y0192033D01*
X0097983Y0192033D01*
X0098550Y0191466D01*
X0097416Y0190332D02*
X0096849Y0190332D01*
X0098550Y0189198D02*
X0097983Y0188630D01*
X0094867Y0188630D02*
X0094867Y0190899D01*
X0093733Y0192033D01*
X0092598Y0190899D01*
X0092598Y0188630D01*
X0091184Y0189198D02*
X0090617Y0188630D01*
X0089482Y0188630D01*
X0088915Y0189198D01*
X0088915Y0189765D01*
X0089482Y0190332D01*
X0088915Y0190899D01*
X0088915Y0191466D01*
X0089482Y0192033D01*
X0090617Y0192033D01*
X0091184Y0191466D01*
X0090049Y0190332D02*
X0089482Y0190332D01*
X0087050Y0187585D02*
X0083647Y0185316D01*
X0083647Y0183902D02*
X0083647Y0181633D01*
X0083647Y0182768D02*
X0087050Y0182768D01*
X0087050Y0185316D02*
X0083647Y0187585D01*
X0077050Y0187585D02*
X0073647Y0185316D01*
X0074214Y0183902D02*
X0075349Y0183902D01*
X0075916Y0183335D01*
X0075916Y0181633D01*
X0077050Y0181633D02*
X0073647Y0181633D01*
X0073647Y0183335D01*
X0074214Y0183902D01*
X0075916Y0182768D02*
X0077050Y0183902D01*
X0077050Y0185316D02*
X0073647Y0187585D01*
X0073781Y0207130D02*
X0076050Y0207130D01*
X0076050Y0210533D01*
X0076050Y0208832D02*
X0074916Y0208832D01*
X0072367Y0207130D02*
X0070098Y0207130D01*
X0071233Y0207130D02*
X0071233Y0210533D01*
X0068684Y0210533D02*
X0066982Y0210533D01*
X0066415Y0209966D01*
X0066415Y0207698D01*
X0066982Y0207130D01*
X0068684Y0207130D01*
X0068684Y0210533D01*
X0065001Y0210533D02*
X0063866Y0210533D01*
X0064433Y0210533D02*
X0064433Y0207130D01*
X0063866Y0207130D02*
X0065001Y0207130D01*
X0102098Y0207198D02*
X0102665Y0206630D01*
X0103800Y0206630D01*
X0104367Y0207198D01*
X0104367Y0207765D01*
X0103800Y0208332D01*
X0102098Y0208332D01*
X0102098Y0209466D02*
X0102098Y0207198D01*
X0102098Y0209466D02*
X0102665Y0210033D01*
X0103800Y0210033D01*
X0104367Y0209466D01*
X0105781Y0210033D02*
X0108050Y0210033D01*
X0105781Y0207765D01*
X0105781Y0207198D01*
X0106349Y0206630D01*
X0107483Y0206630D01*
X0108050Y0207198D01*
X0112098Y0207198D02*
X0112098Y0207765D01*
X0112665Y0208332D01*
X0113800Y0208332D01*
X0114367Y0207765D01*
X0114367Y0207198D01*
X0113800Y0206630D01*
X0112665Y0206630D01*
X0112098Y0207198D01*
X0112665Y0208332D02*
X0112098Y0208899D01*
X0112098Y0209466D01*
X0112665Y0210033D01*
X0113800Y0210033D01*
X0114367Y0209466D01*
X0114367Y0208899D01*
X0113800Y0208332D01*
X0115781Y0207765D02*
X0115781Y0207198D01*
X0116349Y0206630D01*
X0117483Y0206630D01*
X0118050Y0207198D01*
X0115781Y0207765D02*
X0118050Y0210033D01*
X0115781Y0210033D01*
X0122098Y0209466D02*
X0122098Y0207198D01*
X0124367Y0209466D01*
X0123800Y0210033D01*
X0122665Y0210033D01*
X0122098Y0209466D01*
X0122098Y0207198D02*
X0122665Y0206630D01*
X0123800Y0206630D01*
X0124367Y0207198D01*
X0124367Y0209466D01*
X0125781Y0210033D02*
X0125781Y0207765D01*
X0126916Y0206630D01*
X0128050Y0207765D01*
X0128050Y0210033D01*
X0128050Y0208332D02*
X0125781Y0208332D01*
X0132098Y0210033D02*
X0134367Y0210033D01*
X0133233Y0210033D02*
X0133233Y0206630D01*
X0134367Y0207765D01*
X0135781Y0207765D02*
X0135781Y0210033D01*
X0135781Y0208332D02*
X0138050Y0208332D01*
X0138050Y0207765D02*
X0138050Y0210033D01*
X0138050Y0207765D02*
X0136916Y0206630D01*
X0135781Y0207765D01*
X0142098Y0207765D02*
X0144367Y0210033D01*
X0142098Y0210033D01*
X0142098Y0207765D02*
X0142098Y0207198D01*
X0142665Y0206630D01*
X0143800Y0206630D01*
X0144367Y0207198D01*
X0145781Y0207765D02*
X0145781Y0210033D01*
X0145781Y0208332D02*
X0148050Y0208332D01*
X0148050Y0207765D02*
X0148050Y0210033D01*
X0148050Y0207765D02*
X0146916Y0206630D01*
X0145781Y0207765D01*
X0152098Y0207765D02*
X0152665Y0208332D01*
X0152098Y0208899D01*
X0152098Y0209466D01*
X0152665Y0210033D01*
X0153800Y0210033D01*
X0154367Y0209466D01*
X0155781Y0210033D02*
X0155781Y0207765D01*
X0156916Y0206630D01*
X0158050Y0207765D01*
X0158050Y0210033D01*
X0158050Y0208332D02*
X0155781Y0208332D01*
X0154367Y0207198D02*
X0153800Y0206630D01*
X0152665Y0206630D01*
X0152098Y0207198D01*
X0152098Y0207765D01*
X0152665Y0208332D02*
X0153233Y0208332D01*
X0162098Y0208332D02*
X0164367Y0208332D01*
X0162665Y0206630D01*
X0162665Y0210033D01*
X0165781Y0210033D02*
X0165781Y0207765D01*
X0166916Y0206630D01*
X0168050Y0207765D01*
X0168050Y0210033D01*
X0168050Y0208332D02*
X0165781Y0208332D01*
X0172098Y0208332D02*
X0172665Y0207765D01*
X0173233Y0207765D01*
X0174367Y0208332D01*
X0174367Y0206630D01*
X0172098Y0206630D01*
X0172098Y0208332D02*
X0172098Y0209466D01*
X0172665Y0210033D01*
X0173800Y0210033D01*
X0174367Y0209466D01*
X0175781Y0210033D02*
X0175781Y0207765D01*
X0176916Y0206630D01*
X0178050Y0207765D01*
X0178050Y0210033D01*
X0178050Y0208332D02*
X0175781Y0208332D01*
X0182098Y0208899D02*
X0182665Y0208332D01*
X0184367Y0208332D01*
X0184367Y0209466D01*
X0183800Y0210033D01*
X0182665Y0210033D01*
X0182098Y0209466D01*
X0182098Y0208899D01*
X0183233Y0207198D02*
X0184367Y0208332D01*
X0185781Y0208332D02*
X0188050Y0208332D01*
X0188050Y0207765D02*
X0188050Y0210033D01*
X0188050Y0207765D02*
X0186916Y0206630D01*
X0185781Y0207765D01*
X0185781Y0210033D01*
X0183233Y0207198D02*
X0182098Y0206630D01*
X0192098Y0206630D02*
X0192098Y0207198D01*
X0194367Y0209466D01*
X0194367Y0210033D01*
X0195781Y0210033D02*
X0195781Y0207765D01*
X0196916Y0206630D01*
X0198050Y0207765D01*
X0198050Y0210033D01*
X0198050Y0208332D02*
X0195781Y0208332D01*
X0194367Y0206630D02*
X0192098Y0206630D01*
X0202098Y0207198D02*
X0202098Y0207765D01*
X0202665Y0208332D01*
X0203800Y0208332D01*
X0204367Y0207765D01*
X0204367Y0207198D01*
X0203800Y0206630D01*
X0202665Y0206630D01*
X0202098Y0207198D01*
X0202665Y0208332D02*
X0202098Y0208899D01*
X0202098Y0209466D01*
X0202665Y0210033D01*
X0203800Y0210033D01*
X0204367Y0209466D01*
X0204367Y0208899D01*
X0203800Y0208332D01*
X0205781Y0208332D02*
X0208050Y0208332D01*
X0208050Y0207765D02*
X0208050Y0210033D01*
X0208050Y0207765D02*
X0206916Y0206630D01*
X0205781Y0207765D01*
X0205781Y0210033D01*
X0212098Y0209466D02*
X0212098Y0207198D01*
X0212665Y0206630D01*
X0213800Y0206630D01*
X0214367Y0207198D01*
X0214367Y0207765D01*
X0213800Y0208332D01*
X0212098Y0208332D01*
X0212098Y0209466D02*
X0212665Y0210033D01*
X0213800Y0210033D01*
X0214367Y0209466D01*
X0215781Y0210033D02*
X0215781Y0207765D01*
X0216916Y0206630D01*
X0218050Y0207765D01*
X0218050Y0210033D01*
X0218050Y0208332D02*
X0215781Y0208332D01*
X0221422Y0209100D02*
X0221422Y0207365D01*
X0221856Y0206931D01*
X0223157Y0206931D01*
X0223157Y0209533D01*
X0221856Y0209533D01*
X0221422Y0209100D01*
X0224369Y0209533D02*
X0224369Y0206931D01*
X0226103Y0206931D02*
X0224369Y0209533D01*
X0226103Y0209533D02*
X0226103Y0206931D01*
X0227315Y0207365D02*
X0227749Y0206931D01*
X0228616Y0206931D01*
X0229050Y0207365D01*
X0229050Y0209100D01*
X0228616Y0209533D01*
X0227749Y0209533D01*
X0227315Y0209100D01*
X0227315Y0208232D01*
X0228183Y0208232D01*
X0231422Y0207799D02*
X0231856Y0208232D01*
X0231422Y0208666D01*
X0231422Y0209100D01*
X0231856Y0209533D01*
X0232723Y0209533D01*
X0233157Y0209100D01*
X0232290Y0208232D02*
X0231856Y0208232D01*
X0231422Y0207799D02*
X0231422Y0207365D01*
X0231856Y0206931D01*
X0232723Y0206931D01*
X0233157Y0207365D01*
X0234369Y0206931D02*
X0234369Y0208666D01*
X0235236Y0209533D01*
X0236103Y0208666D01*
X0236103Y0206931D01*
X0237315Y0207365D02*
X0237315Y0207799D01*
X0237749Y0208232D01*
X0237315Y0208666D01*
X0237315Y0209100D01*
X0237749Y0209533D01*
X0238616Y0209533D01*
X0239050Y0209100D01*
X0238183Y0208232D02*
X0237749Y0208232D01*
X0237315Y0207365D02*
X0237749Y0206931D01*
X0238616Y0206931D01*
X0239050Y0207365D01*
X0241422Y0206931D02*
X0243157Y0206931D01*
X0242290Y0206931D02*
X0242290Y0209533D01*
X0244369Y0209100D02*
X0244802Y0209533D01*
X0245670Y0209533D01*
X0246103Y0209100D01*
X0245670Y0208232D02*
X0244802Y0208232D01*
X0244369Y0208666D01*
X0244369Y0209100D01*
X0245670Y0208232D02*
X0246103Y0207799D01*
X0246103Y0207365D01*
X0245670Y0206931D01*
X0244802Y0206931D01*
X0244369Y0207365D01*
X0247315Y0207365D02*
X0247315Y0208232D01*
X0247749Y0208666D01*
X0249050Y0208666D01*
X0249050Y0209533D02*
X0249050Y0206931D01*
X0247749Y0206931D01*
X0247315Y0207365D01*
X0248183Y0208666D02*
X0247315Y0209533D01*
X0251422Y0209100D02*
X0251422Y0207365D01*
X0253157Y0209100D01*
X0252723Y0209533D01*
X0251856Y0209533D01*
X0251422Y0209100D01*
X0253157Y0209100D02*
X0253157Y0207365D01*
X0252723Y0206931D01*
X0251856Y0206931D01*
X0251422Y0207365D01*
X0254369Y0209533D02*
X0256103Y0209533D01*
X0255236Y0209533D02*
X0255236Y0206931D01*
X0256103Y0207799D01*
X0257315Y0207799D02*
X0257315Y0209533D01*
X0257315Y0208232D02*
X0259050Y0208232D01*
X0259050Y0207799D02*
X0259050Y0209533D01*
X0259050Y0207799D02*
X0258183Y0206931D01*
X0257315Y0207799D01*
X0261422Y0209533D02*
X0263157Y0209533D01*
X0262290Y0209533D02*
X0262290Y0206931D01*
X0263157Y0207799D01*
X0264369Y0209533D02*
X0266103Y0209533D01*
X0265236Y0209533D02*
X0265236Y0206931D01*
X0266103Y0207799D01*
X0267315Y0207799D02*
X0267315Y0209533D01*
X0267315Y0208232D02*
X0269050Y0208232D01*
X0269050Y0207799D02*
X0269050Y0209533D01*
X0269050Y0207799D02*
X0268183Y0206931D01*
X0267315Y0207799D01*
X0271422Y0207799D02*
X0273157Y0209533D01*
X0271422Y0209533D01*
X0271422Y0207799D02*
X0271422Y0207365D01*
X0271856Y0206931D01*
X0272723Y0206931D01*
X0273157Y0207365D01*
X0275236Y0206931D02*
X0275236Y0209533D01*
X0276103Y0209533D02*
X0274369Y0209533D01*
X0276103Y0207799D02*
X0275236Y0206931D01*
X0277315Y0207799D02*
X0277315Y0209533D01*
X0277315Y0208232D02*
X0279050Y0208232D01*
X0279050Y0207799D02*
X0279050Y0209533D01*
X0279050Y0207799D02*
X0278183Y0206931D01*
X0277315Y0207799D01*
X0281422Y0207799D02*
X0281856Y0208232D01*
X0281422Y0208666D01*
X0281422Y0209100D01*
X0281856Y0209533D01*
X0282723Y0209533D01*
X0283157Y0209100D01*
X0282290Y0208232D02*
X0281856Y0208232D01*
X0281422Y0207799D02*
X0281422Y0207365D01*
X0281856Y0206931D01*
X0282723Y0206931D01*
X0283157Y0207365D01*
X0285236Y0206931D02*
X0285236Y0209533D01*
X0286103Y0209533D02*
X0284369Y0209533D01*
X0286103Y0207799D02*
X0285236Y0206931D01*
X0287315Y0207799D02*
X0287315Y0209533D01*
X0287315Y0208232D02*
X0289050Y0208232D01*
X0289050Y0207799D02*
X0289050Y0209533D01*
X0289050Y0207799D02*
X0288183Y0206931D01*
X0287315Y0207799D01*
X0291422Y0208232D02*
X0293157Y0208232D01*
X0291856Y0206931D01*
X0291856Y0209533D01*
X0294369Y0209533D02*
X0296103Y0209533D01*
X0295236Y0209533D02*
X0295236Y0206931D01*
X0296103Y0207799D01*
X0297315Y0207799D02*
X0297315Y0209533D01*
X0297315Y0208232D02*
X0299050Y0208232D01*
X0299050Y0207799D02*
X0299050Y0209533D01*
X0299050Y0207799D02*
X0298183Y0206931D01*
X0297315Y0207799D01*
X0302098Y0207198D02*
X0304367Y0209466D01*
X0304367Y0210033D01*
X0305781Y0210033D02*
X0308050Y0210033D01*
X0305781Y0207765D01*
X0305781Y0207198D01*
X0306349Y0206630D01*
X0307483Y0206630D01*
X0308050Y0207198D01*
X0304367Y0206630D02*
X0302098Y0206630D01*
X0302098Y0207198D01*
X0312098Y0206630D02*
X0313233Y0207198D01*
X0314367Y0208332D01*
X0312665Y0208332D01*
X0312098Y0208899D01*
X0312098Y0209466D01*
X0312665Y0210033D01*
X0313800Y0210033D01*
X0314367Y0209466D01*
X0314367Y0208332D01*
X0315781Y0207765D02*
X0315781Y0207198D01*
X0316349Y0206630D01*
X0317483Y0206630D01*
X0318050Y0207198D01*
X0315781Y0207765D02*
X0318050Y0210033D01*
X0315781Y0210033D01*
X0322098Y0209466D02*
X0322665Y0210033D01*
X0323800Y0210033D01*
X0324367Y0209466D01*
X0324367Y0208332D02*
X0323233Y0207765D01*
X0322665Y0207765D01*
X0322098Y0208332D01*
X0322098Y0209466D01*
X0324367Y0208332D02*
X0324367Y0206630D01*
X0322098Y0206630D01*
X0325781Y0207198D02*
X0326349Y0206630D01*
X0327483Y0206630D01*
X0328050Y0207198D01*
X0325781Y0207198D02*
X0325781Y0207765D01*
X0328050Y0210033D01*
X0325781Y0210033D01*
X0332098Y0208332D02*
X0334367Y0208332D01*
X0332665Y0206630D01*
X0332665Y0210033D01*
X0335781Y0210033D02*
X0338050Y0210033D01*
X0335781Y0207765D01*
X0335781Y0207198D01*
X0336349Y0206630D01*
X0337483Y0206630D01*
X0338050Y0207198D01*
X0342982Y0202033D02*
X0342415Y0201466D01*
X0342415Y0199198D01*
X0342982Y0198630D01*
X0344684Y0198630D01*
X0344684Y0202033D01*
X0342982Y0202033D01*
X0346098Y0202033D02*
X0346098Y0198630D01*
X0348367Y0198630D02*
X0346098Y0202033D01*
X0348367Y0202033D02*
X0348367Y0198630D01*
X0349781Y0199198D02*
X0350349Y0198630D01*
X0351483Y0198630D01*
X0352050Y0199198D01*
X0352050Y0201466D01*
X0351483Y0202033D01*
X0350349Y0202033D01*
X0349781Y0201466D01*
X0349781Y0200332D01*
X0350916Y0200332D01*
X0351300Y0192033D02*
X0351867Y0191466D01*
X0351300Y0192033D02*
X0350165Y0192033D01*
X0349598Y0191466D01*
X0349598Y0190899D01*
X0350165Y0190332D01*
X0350733Y0190332D01*
X0350165Y0190332D02*
X0349598Y0189765D01*
X0349598Y0189198D01*
X0350165Y0188630D01*
X0351300Y0188630D01*
X0351867Y0189198D01*
X0353281Y0190332D02*
X0355550Y0190332D01*
X0354416Y0189198D02*
X0354416Y0191466D01*
X0348184Y0190899D02*
X0348184Y0188630D01*
X0345915Y0188630D02*
X0345915Y0190899D01*
X0347049Y0192033D01*
X0348184Y0190899D01*
X0344501Y0191466D02*
X0343933Y0192033D01*
X0342799Y0192033D01*
X0342232Y0191466D01*
X0342232Y0190899D01*
X0342799Y0190332D01*
X0343366Y0190332D01*
X0342799Y0190332D02*
X0342232Y0189765D01*
X0342232Y0189198D01*
X0342799Y0188630D01*
X0343933Y0188630D01*
X0344501Y0189198D01*
X0344344Y0182033D02*
X0343210Y0182033D01*
X0342643Y0181466D01*
X0342643Y0180332D01*
X0343777Y0180332D01*
X0344911Y0181466D02*
X0344344Y0182033D01*
X0344911Y0181466D02*
X0344911Y0179198D01*
X0344344Y0178630D01*
X0343210Y0178630D01*
X0342643Y0179198D01*
X0346233Y0178630D02*
X0347367Y0178630D01*
X0346800Y0178630D02*
X0346800Y0182033D01*
X0347367Y0182033D02*
X0346233Y0182033D01*
X0348781Y0181466D02*
X0349349Y0182033D01*
X0350483Y0182033D01*
X0351050Y0181466D01*
X0350483Y0180332D02*
X0349349Y0180332D01*
X0348781Y0180899D01*
X0348781Y0181466D01*
X0350483Y0180332D02*
X0351050Y0179765D01*
X0351050Y0179198D01*
X0350483Y0178630D01*
X0349349Y0178630D01*
X0348781Y0179198D01*
X0351647Y0170139D02*
X0355050Y0167871D01*
X0355050Y0166456D02*
X0355050Y0164755D01*
X0354483Y0164188D01*
X0353349Y0164188D01*
X0352781Y0164755D01*
X0352781Y0166456D01*
X0355617Y0166456D01*
X0356184Y0165889D01*
X0356184Y0165322D01*
X0357647Y0164708D02*
X0357647Y0163574D01*
X0357647Y0164141D02*
X0361050Y0164141D01*
X0361050Y0163574D02*
X0361050Y0164708D01*
X0360483Y0166029D02*
X0358214Y0166029D01*
X0357647Y0166596D01*
X0357647Y0167731D01*
X0358214Y0168298D01*
X0360483Y0168298D01*
X0361050Y0167731D01*
X0361050Y0166596D01*
X0360483Y0166029D01*
X0359349Y0162159D02*
X0359916Y0161592D01*
X0359916Y0159891D01*
X0361050Y0159891D02*
X0357647Y0159891D01*
X0357647Y0161592D01*
X0358214Y0162159D01*
X0359349Y0162159D01*
X0355050Y0162206D02*
X0354483Y0162773D01*
X0353349Y0162773D01*
X0352781Y0162206D01*
X0352781Y0161072D01*
X0353349Y0160504D01*
X0354483Y0160504D01*
X0355050Y0161072D01*
X0355050Y0162206D01*
X0355050Y0159183D02*
X0355050Y0158049D01*
X0355050Y0158616D02*
X0351647Y0158616D01*
X0351647Y0158049D01*
X0353349Y0156635D02*
X0355050Y0156635D01*
X0355050Y0154933D01*
X0354483Y0154366D01*
X0353916Y0154933D01*
X0353916Y0156635D01*
X0353349Y0156635D02*
X0352781Y0156067D01*
X0352781Y0154933D01*
X0353349Y0152951D02*
X0355050Y0152951D01*
X0353349Y0152951D02*
X0352781Y0152384D01*
X0352781Y0150683D01*
X0355050Y0150683D01*
X0355050Y0149268D02*
X0352781Y0149268D01*
X0351647Y0148134D01*
X0352781Y0147000D01*
X0355050Y0147000D01*
X0353349Y0147000D02*
X0353349Y0149268D01*
X0357647Y0148841D02*
X0359916Y0148841D01*
X0361050Y0149975D01*
X0359916Y0151110D01*
X0357647Y0151110D01*
X0358214Y0147427D02*
X0358781Y0147427D01*
X0359349Y0146859D01*
X0359916Y0147427D01*
X0360483Y0147427D01*
X0361050Y0146859D01*
X0361050Y0145725D01*
X0360483Y0145158D01*
X0360483Y0143884D02*
X0361050Y0143884D01*
X0361050Y0143316D01*
X0360483Y0143316D01*
X0360483Y0143884D01*
X0360483Y0141902D02*
X0361050Y0141335D01*
X0361050Y0140200D01*
X0360483Y0139633D01*
X0359349Y0140768D02*
X0359349Y0141335D01*
X0359916Y0141902D01*
X0360483Y0141902D01*
X0359349Y0141335D02*
X0358781Y0141902D01*
X0358214Y0141902D01*
X0357647Y0141335D01*
X0357647Y0140200D01*
X0358214Y0139633D01*
X0358214Y0145158D02*
X0357647Y0145725D01*
X0357647Y0146859D01*
X0358214Y0147427D01*
X0359349Y0146859D02*
X0359349Y0146292D01*
X0358214Y0156207D02*
X0360483Y0156207D01*
X0361050Y0156775D01*
X0361050Y0157909D01*
X0360483Y0158476D01*
X0359349Y0158476D01*
X0359349Y0157342D01*
X0358214Y0158476D02*
X0357647Y0157909D01*
X0357647Y0156775D01*
X0358214Y0156207D01*
X0381147Y0156683D02*
X0382849Y0156683D01*
X0382281Y0157817D01*
X0382281Y0158384D01*
X0382849Y0158951D01*
X0383983Y0158951D01*
X0384550Y0158384D01*
X0384550Y0157250D01*
X0383983Y0156683D01*
X0381714Y0155268D02*
X0383983Y0153000D01*
X0384550Y0153000D01*
X0384550Y0151585D02*
X0381147Y0151585D01*
X0381147Y0153000D02*
X0381147Y0155268D01*
X0381714Y0155268D01*
X0381147Y0156683D02*
X0381147Y0158951D01*
X0382849Y0160366D02*
X0381147Y0162067D01*
X0384550Y0162067D01*
X0382849Y0162635D02*
X0382849Y0160366D01*
X0382849Y0164049D02*
X0381147Y0165751D01*
X0384550Y0165751D01*
X0382849Y0166318D02*
X0382849Y0164049D01*
X0382281Y0167732D02*
X0381147Y0168866D01*
X0384550Y0168866D01*
X0384550Y0167732D02*
X0384550Y0170001D01*
X0383983Y0171415D02*
X0381714Y0171415D01*
X0381147Y0171982D01*
X0381147Y0173117D01*
X0381714Y0173684D01*
X0383983Y0171415D01*
X0384550Y0171982D01*
X0384550Y0173117D01*
X0383983Y0173684D01*
X0381714Y0173684D01*
X0381147Y0175098D02*
X0384550Y0177367D01*
X0381147Y0177367D01*
X0381147Y0178782D02*
X0384550Y0178782D01*
X0384550Y0181050D01*
X0382849Y0179916D02*
X0382849Y0178782D01*
X0381147Y0178782D02*
X0381147Y0181050D01*
X0381147Y0175098D02*
X0384550Y0175098D01*
X0409150Y0170700D02*
X0409150Y0170133D01*
X0409717Y0170133D01*
X0409717Y0170700D01*
X0409150Y0170700D01*
X0410992Y0170133D02*
X0413260Y0170133D01*
X0412126Y0170133D02*
X0412126Y0173536D01*
X0410992Y0172402D01*
X0414675Y0172402D02*
X0414675Y0170700D01*
X0415242Y0170133D01*
X0416943Y0170133D01*
X0416943Y0172402D01*
X0418358Y0171835D02*
X0419492Y0171835D01*
X0418358Y0173536D02*
X0418358Y0170133D01*
X0418358Y0173536D02*
X0420626Y0173536D01*
X0420626Y0158536D02*
X0418358Y0158536D01*
X0418358Y0155133D01*
X0416943Y0155133D02*
X0416943Y0157402D01*
X0418358Y0156835D02*
X0419492Y0156835D01*
X0416943Y0155133D02*
X0415242Y0155133D01*
X0414675Y0155700D01*
X0414675Y0157402D01*
X0413260Y0155133D02*
X0410992Y0155133D01*
X0412126Y0155133D02*
X0412126Y0158536D01*
X0410992Y0157402D01*
X0409717Y0155700D02*
X0409717Y0155133D01*
X0409150Y0155133D01*
X0409150Y0155700D01*
X0409717Y0155700D01*
X0412126Y0143036D02*
X0412126Y0139633D01*
X0410992Y0139633D02*
X0413260Y0139633D01*
X0414675Y0140200D02*
X0415242Y0139633D01*
X0416943Y0139633D01*
X0416943Y0141902D01*
X0418358Y0141335D02*
X0419492Y0141335D01*
X0418358Y0143036D02*
X0418358Y0139633D01*
X0414675Y0140200D02*
X0414675Y0141902D01*
X0412126Y0143036D02*
X0410992Y0141902D01*
X0409717Y0140200D02*
X0409717Y0139633D01*
X0409150Y0139633D01*
X0409150Y0140200D01*
X0409717Y0140200D01*
X0404647Y0138610D02*
X0404647Y0136341D01*
X0408050Y0136341D01*
X0408050Y0134927D02*
X0405781Y0134927D01*
X0406349Y0136341D02*
X0406349Y0137475D01*
X0408050Y0134927D02*
X0408050Y0133225D01*
X0407483Y0132658D01*
X0405781Y0132658D01*
X0408050Y0131244D02*
X0408050Y0128975D01*
X0408050Y0130109D02*
X0404647Y0130109D01*
X0405781Y0128975D01*
X0407483Y0127700D02*
X0408050Y0127700D01*
X0408050Y0127133D01*
X0407483Y0127133D01*
X0407483Y0127700D01*
X0394350Y0123333D02*
X0386850Y0123333D01*
X0386848Y0123459D01*
X0386842Y0123584D01*
X0386832Y0123709D01*
X0386818Y0123834D01*
X0386801Y0123959D01*
X0386779Y0124083D01*
X0386754Y0124206D01*
X0386724Y0124328D01*
X0386691Y0124449D01*
X0386654Y0124569D01*
X0386614Y0124688D01*
X0386569Y0124805D01*
X0386521Y0124922D01*
X0386469Y0125036D01*
X0386414Y0125149D01*
X0386355Y0125260D01*
X0386293Y0125369D01*
X0386227Y0125476D01*
X0386158Y0125581D01*
X0386086Y0125684D01*
X0386011Y0125785D01*
X0385932Y0125883D01*
X0385850Y0125978D01*
X0385766Y0126071D01*
X0385678Y0126161D01*
X0385588Y0126249D01*
X0385495Y0126333D01*
X0385400Y0126415D01*
X0385302Y0126494D01*
X0385201Y0126569D01*
X0385098Y0126641D01*
X0384993Y0126710D01*
X0384886Y0126776D01*
X0384777Y0126838D01*
X0384666Y0126897D01*
X0384553Y0126952D01*
X0384439Y0127004D01*
X0384322Y0127052D01*
X0384205Y0127097D01*
X0384086Y0127137D01*
X0383966Y0127174D01*
X0383845Y0127207D01*
X0383723Y0127237D01*
X0383600Y0127262D01*
X0383476Y0127284D01*
X0383351Y0127301D01*
X0383226Y0127315D01*
X0383101Y0127325D01*
X0382976Y0127331D01*
X0382850Y0127333D01*
X0382724Y0127331D01*
X0382599Y0127325D01*
X0382474Y0127315D01*
X0382349Y0127301D01*
X0382224Y0127284D01*
X0382100Y0127262D01*
X0381977Y0127237D01*
X0381855Y0127207D01*
X0381734Y0127174D01*
X0381614Y0127137D01*
X0381495Y0127097D01*
X0381378Y0127052D01*
X0381261Y0127004D01*
X0381147Y0126952D01*
X0381034Y0126897D01*
X0380923Y0126838D01*
X0380814Y0126776D01*
X0380707Y0126710D01*
X0380602Y0126641D01*
X0380499Y0126569D01*
X0380398Y0126494D01*
X0380300Y0126415D01*
X0380205Y0126333D01*
X0380112Y0126249D01*
X0380022Y0126161D01*
X0379934Y0126071D01*
X0379850Y0125978D01*
X0379768Y0125883D01*
X0379689Y0125785D01*
X0379614Y0125684D01*
X0379542Y0125581D01*
X0379473Y0125476D01*
X0379407Y0125369D01*
X0379345Y0125260D01*
X0379286Y0125149D01*
X0379231Y0125036D01*
X0379179Y0124922D01*
X0379131Y0124805D01*
X0379086Y0124688D01*
X0379046Y0124569D01*
X0379009Y0124449D01*
X0378976Y0124328D01*
X0378946Y0124206D01*
X0378921Y0124083D01*
X0378899Y0123959D01*
X0378882Y0123834D01*
X0378868Y0123709D01*
X0378858Y0123584D01*
X0378852Y0123459D01*
X0378850Y0123333D01*
X0371350Y0123333D01*
X0371350Y0203333D01*
X0394350Y0203333D01*
X0394350Y0123333D01*
X0394583Y0118536D02*
X0395718Y0118536D01*
X0396285Y0117969D01*
X0394016Y0115700D01*
X0394583Y0115133D01*
X0395718Y0115133D01*
X0396285Y0115700D01*
X0396285Y0117969D01*
X0397699Y0117402D02*
X0397699Y0115700D01*
X0398267Y0115133D01*
X0399968Y0115133D01*
X0399968Y0117402D01*
X0401383Y0116835D02*
X0402517Y0116835D01*
X0401383Y0118536D02*
X0403651Y0118536D01*
X0401383Y0118536D02*
X0401383Y0115133D01*
X0394350Y0113333D02*
X0371350Y0113333D01*
X0371350Y0033333D01*
X0378850Y0033333D01*
X0378852Y0033459D01*
X0378858Y0033584D01*
X0378868Y0033709D01*
X0378882Y0033834D01*
X0378899Y0033959D01*
X0378921Y0034083D01*
X0378946Y0034206D01*
X0378976Y0034328D01*
X0379009Y0034449D01*
X0379046Y0034569D01*
X0379086Y0034688D01*
X0379131Y0034805D01*
X0379179Y0034922D01*
X0379231Y0035036D01*
X0379286Y0035149D01*
X0379345Y0035260D01*
X0379407Y0035369D01*
X0379473Y0035476D01*
X0379542Y0035581D01*
X0379614Y0035684D01*
X0379689Y0035785D01*
X0379768Y0035883D01*
X0379850Y0035978D01*
X0379934Y0036071D01*
X0380022Y0036161D01*
X0380112Y0036249D01*
X0380205Y0036333D01*
X0380300Y0036415D01*
X0380398Y0036494D01*
X0380499Y0036569D01*
X0380602Y0036641D01*
X0380707Y0036710D01*
X0380814Y0036776D01*
X0380923Y0036838D01*
X0381034Y0036897D01*
X0381147Y0036952D01*
X0381261Y0037004D01*
X0381378Y0037052D01*
X0381495Y0037097D01*
X0381614Y0037137D01*
X0381734Y0037174D01*
X0381855Y0037207D01*
X0381977Y0037237D01*
X0382100Y0037262D01*
X0382224Y0037284D01*
X0382349Y0037301D01*
X0382474Y0037315D01*
X0382599Y0037325D01*
X0382724Y0037331D01*
X0382850Y0037333D01*
X0382976Y0037331D01*
X0383101Y0037325D01*
X0383226Y0037315D01*
X0383351Y0037301D01*
X0383476Y0037284D01*
X0383600Y0037262D01*
X0383723Y0037237D01*
X0383845Y0037207D01*
X0383966Y0037174D01*
X0384086Y0037137D01*
X0384205Y0037097D01*
X0384322Y0037052D01*
X0384439Y0037004D01*
X0384553Y0036952D01*
X0384666Y0036897D01*
X0384777Y0036838D01*
X0384886Y0036776D01*
X0384993Y0036710D01*
X0385098Y0036641D01*
X0385201Y0036569D01*
X0385302Y0036494D01*
X0385400Y0036415D01*
X0385495Y0036333D01*
X0385588Y0036249D01*
X0385678Y0036161D01*
X0385766Y0036071D01*
X0385850Y0035978D01*
X0385932Y0035883D01*
X0386011Y0035785D01*
X0386086Y0035684D01*
X0386158Y0035581D01*
X0386227Y0035476D01*
X0386293Y0035369D01*
X0386355Y0035260D01*
X0386414Y0035149D01*
X0386469Y0035036D01*
X0386521Y0034922D01*
X0386569Y0034805D01*
X0386614Y0034688D01*
X0386654Y0034569D01*
X0386691Y0034449D01*
X0386724Y0034328D01*
X0386754Y0034206D01*
X0386779Y0034083D01*
X0386801Y0033959D01*
X0386818Y0033834D01*
X0386832Y0033709D01*
X0386842Y0033584D01*
X0386848Y0033459D01*
X0386850Y0033333D01*
X0394350Y0033333D01*
X0394350Y0113333D01*
X0394016Y0115700D02*
X0394016Y0117969D01*
X0394583Y0118536D01*
X0392602Y0117969D02*
X0390333Y0115700D01*
X0390900Y0115133D01*
X0392035Y0115133D01*
X0392602Y0115700D01*
X0392602Y0117969D01*
X0392035Y0118536D01*
X0390900Y0118536D01*
X0390333Y0117969D01*
X0390333Y0115700D01*
X0388919Y0115133D02*
X0386650Y0115133D01*
X0387784Y0115133D02*
X0387784Y0118536D01*
X0386650Y0117402D01*
X0347626Y0131536D02*
X0345358Y0131536D01*
X0345358Y0128133D01*
X0343943Y0128133D02*
X0343943Y0130402D01*
X0345358Y0129835D02*
X0346492Y0129835D01*
X0343943Y0128133D02*
X0342242Y0128133D01*
X0341675Y0128700D01*
X0341675Y0130402D01*
X0340260Y0128133D02*
X0337992Y0128133D01*
X0339126Y0128133D02*
X0339126Y0131536D01*
X0337992Y0130402D01*
X0336717Y0128700D02*
X0336717Y0128133D01*
X0336150Y0128133D01*
X0336150Y0128700D01*
X0336717Y0128700D01*
X0381147Y0146200D02*
X0381714Y0145633D01*
X0382281Y0145633D01*
X0382849Y0146200D01*
X0382849Y0147335D01*
X0383416Y0147902D01*
X0383983Y0147902D01*
X0384550Y0147335D01*
X0384550Y0146200D01*
X0383983Y0145633D01*
X0381147Y0146200D02*
X0381147Y0147335D01*
X0381714Y0147902D01*
X0381147Y0149316D02*
X0384550Y0151585D01*
X0384550Y0149316D02*
X0381147Y0149316D01*
X0418358Y0143036D02*
X0420626Y0143036D01*
X0435781Y0193133D02*
X0434647Y0194268D01*
X0438050Y0194268D01*
X0438050Y0195402D02*
X0438050Y0193133D01*
X0437483Y0196816D02*
X0435214Y0199085D01*
X0437483Y0199085D01*
X0438050Y0198518D01*
X0438050Y0197384D01*
X0437483Y0196816D01*
X0435214Y0196816D01*
X0434647Y0197384D01*
X0434647Y0198518D01*
X0435214Y0199085D01*
X0435214Y0200500D02*
X0434647Y0201067D01*
X0434647Y0202201D01*
X0435214Y0202768D01*
X0437483Y0200500D01*
X0438050Y0201067D01*
X0438050Y0202201D01*
X0437483Y0202768D01*
X0435214Y0202768D01*
X0435781Y0204183D02*
X0437483Y0204183D01*
X0438050Y0204750D01*
X0438050Y0206451D01*
X0435781Y0206451D01*
X0436349Y0207866D02*
X0436349Y0209000D01*
X0438050Y0207866D02*
X0434647Y0207866D01*
X0434647Y0210135D01*
X0435214Y0200500D02*
X0437483Y0200500D01*
X0372050Y0208466D02*
X0371483Y0208466D01*
X0371483Y0209033D01*
X0372050Y0209033D01*
X0372050Y0208466D01*
X0370208Y0209033D02*
X0367940Y0209033D01*
X0369074Y0209033D02*
X0369074Y0205630D01*
X0370208Y0206765D01*
X0366525Y0206765D02*
X0366525Y0208466D01*
X0365958Y0209033D01*
X0364257Y0209033D01*
X0364257Y0206765D01*
X0362842Y0207332D02*
X0361708Y0207332D01*
X0362842Y0209033D02*
X0362842Y0205630D01*
X0360574Y0205630D01*
X0251153Y0123971D02*
X0250085Y0125039D01*
X0246882Y0125039D01*
X0246882Y0118633D01*
X0250085Y0118633D01*
X0251153Y0119701D01*
X0251153Y0123971D01*
X0244707Y0123971D02*
X0243639Y0125039D01*
X0241504Y0125039D01*
X0240437Y0123971D01*
X0240437Y0122904D01*
X0241504Y0121836D01*
X0243639Y0121836D01*
X0244707Y0120768D01*
X0244707Y0119701D01*
X0243639Y0118633D01*
X0241504Y0118633D01*
X0240437Y0119701D01*
X0239437Y0115539D02*
X0241572Y0113404D01*
X0243707Y0115539D01*
X0243707Y0109133D01*
X0245882Y0109133D02*
X0248017Y0109133D01*
X0246950Y0109133D02*
X0246950Y0113404D01*
X0245882Y0113404D01*
X0246950Y0115539D02*
X0246950Y0116606D01*
X0250179Y0113404D02*
X0253382Y0113404D01*
X0254450Y0112336D01*
X0254450Y0109133D01*
X0256625Y0109133D02*
X0258760Y0109133D01*
X0257692Y0109133D02*
X0257692Y0113404D01*
X0256625Y0113404D01*
X0257692Y0115539D02*
X0257692Y0116606D01*
X0250179Y0113404D02*
X0250179Y0109133D01*
X0239437Y0109133D02*
X0239437Y0115539D01*
X0231816Y0119701D02*
X0231816Y0121836D01*
X0230748Y0122904D01*
X0228613Y0122904D01*
X0227546Y0121836D01*
X0227546Y0119701D01*
X0228613Y0118633D01*
X0230748Y0118633D01*
X0231816Y0119701D01*
X0225371Y0118633D02*
X0225371Y0121836D01*
X0224303Y0122904D01*
X0221100Y0122904D01*
X0221100Y0118633D01*
X0218938Y0118633D02*
X0216803Y0118633D01*
X0217871Y0118633D02*
X0217871Y0122904D01*
X0216803Y0122904D01*
X0214635Y0122904D02*
X0213567Y0122904D01*
X0211432Y0120768D01*
X0211432Y0118633D02*
X0211432Y0122904D01*
X0209257Y0121836D02*
X0209257Y0118633D01*
X0206054Y0118633D01*
X0204986Y0119701D01*
X0206054Y0120768D01*
X0209257Y0120768D01*
X0209257Y0121836D02*
X0208189Y0122904D01*
X0206054Y0122904D01*
X0202811Y0121836D02*
X0202811Y0119701D01*
X0201744Y0118633D01*
X0198541Y0118633D01*
X0198541Y0125039D01*
X0198541Y0122904D02*
X0201744Y0122904D01*
X0202811Y0121836D01*
X0196366Y0122904D02*
X0196366Y0118633D01*
X0193163Y0118633D01*
X0192095Y0119701D01*
X0192095Y0122904D01*
X0189920Y0125039D02*
X0185650Y0125039D01*
X0185650Y0118633D01*
X0184650Y0115539D02*
X0188920Y0115539D01*
X0191095Y0113404D02*
X0191095Y0110201D01*
X0192163Y0109133D01*
X0195366Y0109133D01*
X0195366Y0113404D01*
X0197541Y0113404D02*
X0200744Y0113404D01*
X0201811Y0112336D01*
X0201811Y0110201D01*
X0200744Y0109133D01*
X0197541Y0109133D01*
X0197541Y0115539D01*
X0205054Y0113404D02*
X0207189Y0113404D01*
X0208257Y0112336D01*
X0208257Y0109133D01*
X0205054Y0109133D01*
X0203986Y0110201D01*
X0205054Y0111268D01*
X0208257Y0111268D01*
X0210432Y0111268D02*
X0212567Y0113404D01*
X0213635Y0113404D01*
X0215803Y0113404D02*
X0216871Y0113404D01*
X0216871Y0109133D01*
X0217938Y0109133D02*
X0215803Y0109133D01*
X0220100Y0109133D02*
X0220100Y0113404D01*
X0223303Y0113404D01*
X0224371Y0112336D01*
X0224371Y0109133D01*
X0226546Y0110201D02*
X0227613Y0109133D01*
X0229748Y0109133D01*
X0230816Y0110201D01*
X0230816Y0112336D01*
X0229748Y0113404D01*
X0227613Y0113404D01*
X0226546Y0112336D01*
X0226546Y0110201D01*
X0216871Y0115539D02*
X0216871Y0116606D01*
X0210432Y0113404D02*
X0210432Y0109133D01*
X0186785Y0112336D02*
X0184650Y0112336D01*
X0184650Y0109133D02*
X0184650Y0115539D01*
X0185650Y0121836D02*
X0187785Y0121836D01*
X0217871Y0125039D02*
X0217871Y0126106D01*
X0220160Y0071036D02*
X0221295Y0069902D01*
X0221295Y0067633D01*
X0222709Y0067633D02*
X0224978Y0067633D01*
X0226392Y0067633D02*
X0228661Y0067633D01*
X0226392Y0067633D02*
X0226392Y0071036D01*
X0222709Y0071036D02*
X0222709Y0067633D01*
X0221295Y0069335D02*
X0219026Y0069335D01*
X0219026Y0069902D02*
X0220160Y0071036D01*
X0219026Y0069902D02*
X0219026Y0067633D01*
X0213928Y0067633D02*
X0211660Y0067633D01*
X0211660Y0071036D01*
X0213928Y0071036D01*
X0212794Y0069335D02*
X0211660Y0069335D01*
X0210245Y0068200D02*
X0210245Y0070469D01*
X0209678Y0071036D01*
X0207977Y0071036D01*
X0207977Y0067633D01*
X0209678Y0067633D01*
X0210245Y0068200D01*
X0206655Y0067633D02*
X0205521Y0067633D01*
X0206088Y0067633D02*
X0206088Y0071036D01*
X0205521Y0071036D02*
X0206655Y0071036D01*
X0204107Y0070469D02*
X0203539Y0071036D01*
X0202405Y0071036D01*
X0201838Y0070469D01*
X0201838Y0069902D01*
X0202405Y0069335D01*
X0203539Y0069335D01*
X0204107Y0068768D01*
X0204107Y0068200D01*
X0203539Y0067633D01*
X0202405Y0067633D01*
X0201838Y0068200D01*
X0196740Y0068200D02*
X0196173Y0067633D01*
X0195039Y0067633D01*
X0194472Y0068200D01*
X0195039Y0069335D02*
X0196173Y0069335D01*
X0196740Y0068768D01*
X0196740Y0068200D01*
X0195039Y0069335D02*
X0194472Y0069902D01*
X0194472Y0070469D01*
X0195039Y0071036D01*
X0196173Y0071036D01*
X0196740Y0070469D01*
X0193151Y0071036D02*
X0192016Y0071036D01*
X0192583Y0071036D02*
X0192583Y0067633D01*
X0192016Y0067633D02*
X0193151Y0067633D01*
X0190602Y0067633D02*
X0190602Y0071036D01*
X0190602Y0069335D02*
X0188333Y0069335D01*
X0188333Y0071036D02*
X0188333Y0067633D01*
X0185784Y0067633D02*
X0185784Y0071036D01*
X0184650Y0071036D02*
X0186919Y0071036D01*
X0185851Y0061036D02*
X0186419Y0060469D01*
X0186419Y0059902D01*
X0185851Y0059335D01*
X0184717Y0059335D01*
X0184150Y0059902D01*
X0184150Y0060469D01*
X0184717Y0061036D01*
X0185851Y0061036D01*
X0185851Y0059335D02*
X0186419Y0058768D01*
X0186419Y0058200D01*
X0185851Y0057633D01*
X0184717Y0057633D01*
X0184150Y0058200D01*
X0184150Y0058768D01*
X0184717Y0059335D01*
X0176419Y0060469D02*
X0174150Y0058200D01*
X0174150Y0057633D01*
X0176419Y0060469D02*
X0176419Y0061036D01*
X0174150Y0061036D01*
X0168102Y0061700D02*
X0168102Y0062268D01*
X0167535Y0062835D01*
X0165833Y0062835D01*
X0165833Y0061700D01*
X0166400Y0061133D01*
X0167535Y0061133D01*
X0168102Y0061700D01*
X0166967Y0063969D02*
X0165833Y0062835D01*
X0164419Y0063402D02*
X0164419Y0063969D01*
X0163851Y0064536D01*
X0162717Y0064536D01*
X0162150Y0063969D01*
X0164419Y0063402D02*
X0162150Y0061133D01*
X0164419Y0061133D01*
X0166967Y0063969D02*
X0168102Y0064536D01*
X0158102Y0063036D02*
X0158102Y0062469D01*
X0155833Y0060200D01*
X0155833Y0059633D01*
X0154419Y0059633D02*
X0152150Y0059633D01*
X0154419Y0061902D01*
X0154419Y0062469D01*
X0153851Y0063036D01*
X0152717Y0063036D01*
X0152150Y0062469D01*
X0155833Y0063036D02*
X0158102Y0063036D01*
X0148102Y0060469D02*
X0148102Y0059902D01*
X0147535Y0059335D01*
X0146400Y0059335D01*
X0145833Y0059902D01*
X0145833Y0060469D01*
X0146400Y0061036D01*
X0147535Y0061036D01*
X0148102Y0060469D01*
X0147535Y0059335D02*
X0148102Y0058768D01*
X0148102Y0058200D01*
X0147535Y0057633D01*
X0146400Y0057633D01*
X0145833Y0058200D01*
X0145833Y0058768D01*
X0146400Y0059335D01*
X0144419Y0059902D02*
X0142150Y0057633D01*
X0144419Y0057633D01*
X0144419Y0059902D02*
X0144419Y0060469D01*
X0143851Y0061036D01*
X0142717Y0061036D01*
X0142150Y0060469D01*
X0138102Y0060469D02*
X0138102Y0058200D01*
X0137535Y0057633D01*
X0136400Y0057633D01*
X0135833Y0058200D01*
X0136400Y0059335D02*
X0138102Y0059335D01*
X0138102Y0060469D02*
X0137535Y0061036D01*
X0136400Y0061036D01*
X0135833Y0060469D01*
X0135833Y0059902D01*
X0136400Y0059335D01*
X0134419Y0059902D02*
X0132150Y0057633D01*
X0134419Y0057633D01*
X0134419Y0059902D02*
X0134419Y0060469D01*
X0133851Y0061036D01*
X0132717Y0061036D01*
X0132150Y0060469D01*
X0128102Y0060469D02*
X0128102Y0058200D01*
X0127535Y0057633D01*
X0126400Y0057633D01*
X0125833Y0058200D01*
X0128102Y0060469D01*
X0127535Y0061036D01*
X0126400Y0061036D01*
X0125833Y0060469D01*
X0125833Y0058200D01*
X0124419Y0058200D02*
X0123851Y0057633D01*
X0122717Y0057633D01*
X0122150Y0058200D01*
X0123284Y0059335D02*
X0123851Y0059335D01*
X0124419Y0058768D01*
X0124419Y0058200D01*
X0123851Y0059335D02*
X0124419Y0059902D01*
X0124419Y0060469D01*
X0123851Y0061036D01*
X0122717Y0061036D01*
X0122150Y0060469D01*
X0118102Y0057633D02*
X0115833Y0057633D01*
X0116967Y0057633D02*
X0116967Y0061036D01*
X0115833Y0059902D01*
X0114419Y0059902D02*
X0113851Y0059335D01*
X0114419Y0058768D01*
X0114419Y0058200D01*
X0113851Y0057633D01*
X0112717Y0057633D01*
X0112150Y0058200D01*
X0113284Y0059335D02*
X0113851Y0059335D01*
X0114419Y0059902D02*
X0114419Y0060469D01*
X0113851Y0061036D01*
X0112717Y0061036D01*
X0112150Y0060469D01*
X0108102Y0060469D02*
X0107535Y0061036D01*
X0106400Y0061036D01*
X0105833Y0060469D01*
X0104419Y0060469D02*
X0104419Y0059902D01*
X0103851Y0059335D01*
X0104419Y0058768D01*
X0104419Y0058200D01*
X0103851Y0057633D01*
X0102717Y0057633D01*
X0102150Y0058200D01*
X0103284Y0059335D02*
X0103851Y0059335D01*
X0104419Y0060469D02*
X0103851Y0061036D01*
X0102717Y0061036D01*
X0102150Y0060469D01*
X0105833Y0057633D02*
X0108102Y0059902D01*
X0108102Y0060469D01*
X0108102Y0057633D02*
X0105833Y0057633D01*
X0103035Y0067633D02*
X0101333Y0067633D01*
X0101333Y0071036D01*
X0103035Y0071036D01*
X0103602Y0070469D01*
X0103602Y0069902D01*
X0103035Y0069335D01*
X0101333Y0069335D01*
X0103035Y0069335D02*
X0103602Y0068768D01*
X0103602Y0068200D01*
X0103035Y0067633D01*
X0098784Y0069335D02*
X0097650Y0069335D01*
X0097650Y0071036D02*
X0097650Y0067633D01*
X0097650Y0071036D02*
X0099919Y0071036D01*
X0108699Y0071036D02*
X0108699Y0067633D01*
X0110968Y0067633D02*
X0110968Y0071036D01*
X0109834Y0069902D01*
X0108699Y0071036D01*
X0112383Y0071036D02*
X0113517Y0071036D01*
X0112950Y0071036D02*
X0112950Y0067633D01*
X0112383Y0067633D02*
X0113517Y0067633D01*
X0114838Y0067633D02*
X0114838Y0071036D01*
X0117107Y0067633D01*
X0117107Y0071036D01*
X0118521Y0071036D02*
X0119655Y0071036D01*
X0119088Y0071036D02*
X0119088Y0067633D01*
X0118521Y0067633D02*
X0119655Y0067633D01*
X0124660Y0067633D02*
X0124660Y0071036D01*
X0126361Y0071036D01*
X0126928Y0070469D01*
X0126928Y0069335D01*
X0126361Y0068768D01*
X0124660Y0068768D01*
X0128343Y0067633D02*
X0129477Y0067633D01*
X0128910Y0067633D02*
X0128910Y0071036D01*
X0128343Y0071036D02*
X0129477Y0071036D01*
X0130798Y0071036D02*
X0133067Y0067633D01*
X0133067Y0071036D01*
X0130798Y0071036D02*
X0130798Y0067633D01*
X0138165Y0068768D02*
X0140433Y0068768D01*
X0140433Y0069902D02*
X0139866Y0069902D01*
X0138165Y0069902D01*
X0138732Y0071036D02*
X0138732Y0067633D01*
X0139866Y0067633D02*
X0139866Y0071036D01*
X0194150Y0060469D02*
X0194150Y0059902D01*
X0194717Y0059335D01*
X0196419Y0059335D01*
X0196419Y0060469D02*
X0195851Y0061036D01*
X0194717Y0061036D01*
X0194150Y0060469D01*
X0194150Y0058200D02*
X0194717Y0057633D01*
X0195851Y0057633D01*
X0196419Y0058200D01*
X0196419Y0060469D01*
X0202150Y0059902D02*
X0203284Y0061036D01*
X0203284Y0057633D01*
X0202150Y0057633D02*
X0204419Y0057633D01*
X0205833Y0058200D02*
X0208102Y0060469D01*
X0208102Y0058200D01*
X0207535Y0057633D01*
X0206400Y0057633D01*
X0205833Y0058200D01*
X0205833Y0060469D01*
X0206400Y0061036D01*
X0207535Y0061036D01*
X0208102Y0060469D01*
X0212150Y0060469D02*
X0212717Y0061036D01*
X0213851Y0061036D01*
X0214419Y0060469D01*
X0214419Y0059902D01*
X0212150Y0057633D01*
X0214419Y0057633D01*
X0215833Y0058200D02*
X0216400Y0057633D01*
X0217535Y0057633D01*
X0218102Y0058200D01*
X0218102Y0059335D01*
X0217535Y0059902D01*
X0216967Y0059902D01*
X0215833Y0059335D01*
X0215833Y0061036D01*
X0218102Y0061036D01*
X0225650Y0059902D02*
X0226784Y0061036D01*
X0226784Y0057633D01*
X0225650Y0057633D02*
X0227919Y0057633D01*
X0235650Y0057633D02*
X0237919Y0059902D01*
X0237919Y0060469D01*
X0237351Y0061036D01*
X0236217Y0061036D01*
X0235650Y0060469D01*
X0235650Y0057633D02*
X0237919Y0057633D01*
X0243650Y0057633D02*
X0245919Y0057633D01*
X0244784Y0057633D02*
X0244784Y0061036D01*
X0243650Y0059902D01*
X0247333Y0059335D02*
X0249602Y0059335D01*
X0249035Y0057633D02*
X0249035Y0061036D01*
X0247333Y0059335D01*
X0253650Y0059902D02*
X0254784Y0061036D01*
X0254784Y0057633D01*
X0253650Y0057633D02*
X0255919Y0057633D01*
X0257333Y0058200D02*
X0257900Y0057633D01*
X0259035Y0057633D01*
X0259602Y0058200D01*
X0259602Y0059335D01*
X0259035Y0059902D01*
X0258467Y0059902D01*
X0257333Y0059335D01*
X0257333Y0061036D01*
X0259602Y0061036D01*
X0265150Y0059902D02*
X0266284Y0061036D01*
X0266284Y0057633D01*
X0265150Y0057633D02*
X0267419Y0057633D01*
X0268833Y0058200D02*
X0269400Y0057633D01*
X0270535Y0057633D01*
X0271102Y0058200D01*
X0271102Y0058768D01*
X0270535Y0059335D01*
X0268833Y0059335D01*
X0268833Y0058200D01*
X0268833Y0059335D02*
X0269967Y0060469D01*
X0271102Y0061036D01*
X0275150Y0060469D02*
X0275717Y0061036D01*
X0276851Y0061036D01*
X0277419Y0060469D01*
X0277419Y0059902D01*
X0275150Y0057633D01*
X0277419Y0057633D01*
X0278833Y0059335D02*
X0281102Y0059335D01*
X0280535Y0057633D02*
X0280535Y0061036D01*
X0278833Y0059335D01*
X0285150Y0060469D02*
X0285717Y0061036D01*
X0286851Y0061036D01*
X0287419Y0060469D01*
X0287419Y0059902D01*
X0285150Y0057633D01*
X0287419Y0057633D01*
X0288833Y0058200D02*
X0289400Y0057633D01*
X0290535Y0057633D01*
X0291102Y0058200D01*
X0291102Y0058768D01*
X0290535Y0059335D01*
X0289967Y0059335D01*
X0290535Y0059335D02*
X0291102Y0059902D01*
X0291102Y0060469D01*
X0290535Y0061036D01*
X0289400Y0061036D01*
X0288833Y0060469D01*
X0295150Y0060469D02*
X0295717Y0061036D01*
X0296851Y0061036D01*
X0297419Y0060469D01*
X0297419Y0059902D01*
X0295150Y0057633D01*
X0297419Y0057633D01*
X0298833Y0057633D02*
X0301102Y0059902D01*
X0301102Y0060469D01*
X0300535Y0061036D01*
X0299400Y0061036D01*
X0298833Y0060469D01*
X0298833Y0057633D02*
X0301102Y0057633D01*
X0307150Y0057633D02*
X0309419Y0059902D01*
X0309419Y0060469D01*
X0308851Y0061036D01*
X0307717Y0061036D01*
X0307150Y0060469D01*
X0307150Y0057633D02*
X0309419Y0057633D01*
X0310833Y0057633D02*
X0313102Y0057633D01*
X0311967Y0057633D02*
X0311967Y0061036D01*
X0310833Y0059902D01*
X0317150Y0059902D02*
X0318284Y0061036D01*
X0318284Y0057633D01*
X0317150Y0057633D02*
X0319419Y0057633D01*
X0320833Y0058200D02*
X0321400Y0057633D01*
X0322535Y0057633D01*
X0323102Y0058200D01*
X0323102Y0060469D01*
X0322535Y0061036D01*
X0321400Y0061036D01*
X0320833Y0060469D01*
X0320833Y0059902D01*
X0321400Y0059335D01*
X0323102Y0059335D01*
X0324133Y0063633D02*
X0323566Y0064200D01*
X0324133Y0063633D02*
X0325267Y0063633D01*
X0325834Y0064200D01*
X0325834Y0064768D01*
X0325267Y0065335D01*
X0324133Y0065335D01*
X0323566Y0065902D01*
X0323566Y0066469D01*
X0324133Y0067036D01*
X0325267Y0067036D01*
X0325834Y0066469D01*
X0322151Y0066469D02*
X0321584Y0067036D01*
X0320450Y0067036D01*
X0319883Y0066469D01*
X0319883Y0064200D01*
X0320450Y0063633D01*
X0321584Y0063633D01*
X0322151Y0064200D01*
X0322151Y0066469D01*
X0318468Y0067036D02*
X0318468Y0064768D01*
X0317334Y0063633D01*
X0316199Y0064768D01*
X0316199Y0067036D01*
X0314785Y0066469D02*
X0314785Y0065335D01*
X0314218Y0064768D01*
X0312516Y0064768D01*
X0313651Y0064768D02*
X0314785Y0063633D01*
X0312516Y0063633D02*
X0312516Y0067036D01*
X0314218Y0067036D01*
X0314785Y0066469D01*
X0311102Y0067036D02*
X0308833Y0067036D01*
X0308833Y0063633D01*
X0311102Y0063633D01*
X0309967Y0065335D02*
X0308833Y0065335D01*
X0307419Y0064768D02*
X0307419Y0064200D01*
X0306851Y0063633D01*
X0305717Y0063633D01*
X0305150Y0064200D01*
X0305717Y0065335D02*
X0306851Y0065335D01*
X0307419Y0064768D01*
X0307419Y0066469D02*
X0306851Y0067036D01*
X0305717Y0067036D01*
X0305150Y0066469D01*
X0305150Y0065902D01*
X0305717Y0065335D01*
X0347150Y0051969D02*
X0347150Y0051402D01*
X0347717Y0050835D01*
X0348851Y0050835D01*
X0349419Y0050268D01*
X0349419Y0049700D01*
X0348851Y0049133D01*
X0347717Y0049133D01*
X0347150Y0049700D01*
X0347150Y0051969D02*
X0347717Y0052536D01*
X0348851Y0052536D01*
X0349419Y0051969D01*
X0350833Y0052536D02*
X0351967Y0052536D01*
X0351400Y0052536D02*
X0351400Y0049133D01*
X0350833Y0049133D02*
X0351967Y0049133D01*
X0353289Y0049700D02*
X0353856Y0049133D01*
X0354990Y0049133D01*
X0355557Y0049700D01*
X0355557Y0050835D01*
X0354423Y0050835D01*
X0355557Y0051969D02*
X0354990Y0052536D01*
X0353856Y0052536D01*
X0353289Y0051969D01*
X0353289Y0049700D01*
X0352602Y0042036D02*
X0350333Y0042036D01*
X0350333Y0040335D01*
X0351467Y0040902D01*
X0352035Y0040902D01*
X0352602Y0040335D01*
X0352602Y0039200D01*
X0352035Y0038633D01*
X0350900Y0038633D01*
X0350333Y0039200D01*
X0348919Y0040335D02*
X0346650Y0040335D01*
X0347784Y0041469D02*
X0347784Y0039200D01*
X0354016Y0039768D02*
X0355151Y0038633D01*
X0356285Y0039768D01*
X0356285Y0042036D01*
X0354016Y0042036D02*
X0354016Y0039768D01*
X0354016Y0032036D02*
X0355718Y0032036D01*
X0356285Y0031469D01*
X0356285Y0029200D01*
X0355718Y0028633D01*
X0354016Y0028633D01*
X0354016Y0032036D01*
X0352602Y0032036D02*
X0352602Y0028633D01*
X0350333Y0032036D01*
X0350333Y0028633D01*
X0348919Y0029200D02*
X0348919Y0030335D01*
X0347784Y0030335D01*
X0346650Y0031469D02*
X0346650Y0029200D01*
X0347217Y0028633D01*
X0348351Y0028633D01*
X0348919Y0029200D01*
X0348919Y0031469D02*
X0348351Y0032036D01*
X0347217Y0032036D01*
X0346650Y0031469D01*
X0342035Y0024036D02*
X0342602Y0023469D01*
X0342602Y0022902D01*
X0342035Y0022335D01*
X0342602Y0021768D01*
X0342602Y0021200D01*
X0342035Y0020633D01*
X0340900Y0020633D01*
X0340333Y0021200D01*
X0338919Y0020633D02*
X0336650Y0020633D01*
X0338919Y0022902D01*
X0338919Y0023469D01*
X0338351Y0024036D01*
X0337217Y0024036D01*
X0336650Y0023469D01*
X0340333Y0023469D02*
X0340900Y0024036D01*
X0342035Y0024036D01*
X0342035Y0022335D02*
X0341467Y0022335D01*
X0332602Y0022902D02*
X0332602Y0023469D01*
X0332035Y0024036D01*
X0330900Y0024036D01*
X0330333Y0023469D01*
X0328919Y0023469D02*
X0328351Y0024036D01*
X0327217Y0024036D01*
X0326650Y0023469D01*
X0328919Y0023469D02*
X0328919Y0022902D01*
X0326650Y0020633D01*
X0328919Y0020633D01*
X0330333Y0020633D02*
X0332602Y0022902D01*
X0332602Y0020633D02*
X0330333Y0020633D01*
X0322602Y0020633D02*
X0320333Y0020633D01*
X0321467Y0020633D02*
X0321467Y0024036D01*
X0320333Y0022902D01*
X0318919Y0022902D02*
X0318919Y0023469D01*
X0318351Y0024036D01*
X0317217Y0024036D01*
X0316650Y0023469D01*
X0318919Y0022902D02*
X0316650Y0020633D01*
X0318919Y0020633D01*
X0312602Y0021200D02*
X0312602Y0023469D01*
X0310333Y0021200D01*
X0310900Y0020633D01*
X0312035Y0020633D01*
X0312602Y0021200D01*
X0310333Y0021200D02*
X0310333Y0023469D01*
X0310900Y0024036D01*
X0312035Y0024036D01*
X0312602Y0023469D01*
X0308919Y0023469D02*
X0308351Y0024036D01*
X0307217Y0024036D01*
X0306650Y0023469D01*
X0308919Y0023469D02*
X0308919Y0022902D01*
X0306650Y0020633D01*
X0308919Y0020633D01*
X0301602Y0021200D02*
X0301602Y0023469D01*
X0301035Y0024036D01*
X0299900Y0024036D01*
X0299333Y0023469D01*
X0299333Y0022902D01*
X0299900Y0022335D01*
X0301602Y0022335D01*
X0301602Y0021200D02*
X0301035Y0020633D01*
X0299900Y0020633D01*
X0299333Y0021200D01*
X0297919Y0020633D02*
X0295650Y0020633D01*
X0296784Y0020633D02*
X0296784Y0024036D01*
X0295650Y0022902D01*
X0291602Y0022902D02*
X0291602Y0023469D01*
X0291035Y0024036D01*
X0289900Y0024036D01*
X0289333Y0023469D01*
X0289333Y0022902D01*
X0289900Y0022335D01*
X0291035Y0022335D01*
X0291602Y0021768D01*
X0291602Y0021200D01*
X0291035Y0020633D01*
X0289900Y0020633D01*
X0289333Y0021200D01*
X0289333Y0021768D01*
X0289900Y0022335D01*
X0291035Y0022335D02*
X0291602Y0022902D01*
X0287919Y0020633D02*
X0285650Y0020633D01*
X0286784Y0020633D02*
X0286784Y0024036D01*
X0285650Y0022902D01*
X0281602Y0023469D02*
X0279333Y0021200D01*
X0279333Y0020633D01*
X0277919Y0020633D02*
X0275650Y0020633D01*
X0276784Y0020633D02*
X0276784Y0024036D01*
X0275650Y0022902D01*
X0279333Y0024036D02*
X0281602Y0024036D01*
X0281602Y0023469D01*
X0271602Y0024036D02*
X0270467Y0023469D01*
X0269333Y0022335D01*
X0271035Y0022335D01*
X0271602Y0021768D01*
X0271602Y0021200D01*
X0271035Y0020633D01*
X0269900Y0020633D01*
X0269333Y0021200D01*
X0269333Y0022335D01*
X0267919Y0020633D02*
X0265650Y0020633D01*
X0266784Y0020633D02*
X0266784Y0024036D01*
X0265650Y0022902D01*
X0260102Y0022335D02*
X0260102Y0021200D01*
X0259535Y0020633D01*
X0258400Y0020633D01*
X0257833Y0021200D01*
X0257833Y0022335D02*
X0258967Y0022902D01*
X0259535Y0022902D01*
X0260102Y0022335D01*
X0260102Y0024036D02*
X0257833Y0024036D01*
X0257833Y0022335D01*
X0256419Y0020633D02*
X0254150Y0020633D01*
X0255284Y0020633D02*
X0255284Y0024036D01*
X0254150Y0022902D01*
X0250102Y0022335D02*
X0247833Y0022335D01*
X0249535Y0024036D01*
X0249535Y0020633D01*
X0246419Y0020633D02*
X0244150Y0020633D01*
X0245284Y0020633D02*
X0245284Y0024036D01*
X0244150Y0022902D01*
X0240102Y0022902D02*
X0240102Y0023469D01*
X0239535Y0024036D01*
X0238400Y0024036D01*
X0237833Y0023469D01*
X0238967Y0022335D02*
X0239535Y0022335D01*
X0240102Y0021768D01*
X0240102Y0021200D01*
X0239535Y0020633D01*
X0238400Y0020633D01*
X0237833Y0021200D01*
X0236419Y0020633D02*
X0234150Y0020633D01*
X0235284Y0020633D02*
X0235284Y0024036D01*
X0234150Y0022902D01*
X0230102Y0022902D02*
X0230102Y0023469D01*
X0229535Y0024036D01*
X0228400Y0024036D01*
X0227833Y0023469D01*
X0230102Y0022902D02*
X0227833Y0020633D01*
X0230102Y0020633D01*
X0226419Y0020633D02*
X0224150Y0020633D01*
X0225284Y0020633D02*
X0225284Y0024036D01*
X0224150Y0022902D01*
X0218602Y0020633D02*
X0216333Y0020633D01*
X0217467Y0020633D02*
X0217467Y0024036D01*
X0216333Y0022902D01*
X0214919Y0020633D02*
X0212650Y0020633D01*
X0213784Y0020633D02*
X0213784Y0024036D01*
X0212650Y0022902D01*
X0208602Y0023469D02*
X0206333Y0021200D01*
X0206900Y0020633D01*
X0208035Y0020633D01*
X0208602Y0021200D01*
X0208602Y0023469D01*
X0208035Y0024036D01*
X0206900Y0024036D01*
X0206333Y0023469D01*
X0206333Y0021200D01*
X0204919Y0020633D02*
X0202650Y0020633D01*
X0203784Y0020633D02*
X0203784Y0024036D01*
X0202650Y0022902D01*
X0196419Y0023469D02*
X0195851Y0024036D01*
X0194717Y0024036D01*
X0194150Y0023469D01*
X0194150Y0022902D01*
X0194717Y0022335D01*
X0196419Y0022335D01*
X0196419Y0023469D02*
X0196419Y0021200D01*
X0195851Y0020633D01*
X0194717Y0020633D01*
X0194150Y0021200D01*
X0186419Y0021200D02*
X0185851Y0020633D01*
X0184717Y0020633D01*
X0184150Y0021200D01*
X0184150Y0021768D01*
X0184717Y0022335D01*
X0185851Y0022335D01*
X0186419Y0021768D01*
X0186419Y0021200D01*
X0185851Y0022335D02*
X0186419Y0022902D01*
X0186419Y0023469D01*
X0185851Y0024036D01*
X0184717Y0024036D01*
X0184150Y0023469D01*
X0184150Y0022902D01*
X0184717Y0022335D01*
X0176419Y0023469D02*
X0174150Y0021200D01*
X0174150Y0020633D01*
X0174150Y0024036D02*
X0176419Y0024036D01*
X0176419Y0023469D01*
X0166419Y0024036D02*
X0165284Y0023469D01*
X0164150Y0022335D01*
X0165851Y0022335D01*
X0166419Y0021768D01*
X0166419Y0021200D01*
X0165851Y0020633D01*
X0164717Y0020633D01*
X0164150Y0021200D01*
X0164150Y0022335D01*
X0156419Y0022335D02*
X0156419Y0021200D01*
X0155851Y0020633D01*
X0154717Y0020633D01*
X0154150Y0021200D01*
X0154150Y0022335D02*
X0155284Y0022902D01*
X0155851Y0022902D01*
X0156419Y0022335D01*
X0156419Y0024036D02*
X0154150Y0024036D01*
X0154150Y0022335D01*
X0146419Y0022335D02*
X0144150Y0022335D01*
X0145851Y0024036D01*
X0145851Y0020633D01*
X0136419Y0021200D02*
X0135851Y0020633D01*
X0134717Y0020633D01*
X0134150Y0021200D01*
X0135284Y0022335D02*
X0135851Y0022335D01*
X0136419Y0021768D01*
X0136419Y0021200D01*
X0135851Y0022335D02*
X0136419Y0022902D01*
X0136419Y0023469D01*
X0135851Y0024036D01*
X0134717Y0024036D01*
X0134150Y0023469D01*
X0126419Y0023469D02*
X0126419Y0022902D01*
X0124150Y0020633D01*
X0126419Y0020633D01*
X0126419Y0023469D02*
X0125851Y0024036D01*
X0124717Y0024036D01*
X0124150Y0023469D01*
X0116419Y0020633D02*
X0114150Y0020633D01*
X0115284Y0020633D02*
X0115284Y0024036D01*
X0114150Y0022902D01*
X0106419Y0023469D02*
X0104150Y0021200D01*
X0104717Y0020633D01*
X0105851Y0020633D01*
X0106419Y0021200D01*
X0106419Y0023469D01*
X0105851Y0024036D01*
X0104717Y0024036D01*
X0104150Y0023469D01*
X0104150Y0021200D01*
X0096968Y0021200D02*
X0096401Y0020633D01*
X0094699Y0020633D01*
X0094699Y0024036D01*
X0096401Y0024036D01*
X0096968Y0023469D01*
X0096968Y0021200D01*
X0093285Y0021200D02*
X0092718Y0020633D01*
X0091583Y0020633D01*
X0091016Y0021200D01*
X0091583Y0022335D02*
X0092718Y0022335D01*
X0093285Y0021768D01*
X0093285Y0021200D01*
X0091583Y0022335D02*
X0091016Y0022902D01*
X0091016Y0023469D01*
X0091583Y0024036D01*
X0092718Y0024036D01*
X0093285Y0023469D01*
X0089602Y0023469D02*
X0089602Y0022902D01*
X0089035Y0022335D01*
X0087333Y0022335D01*
X0087333Y0024036D02*
X0087333Y0020633D01*
X0089035Y0020633D01*
X0089602Y0021200D01*
X0089602Y0021768D01*
X0089035Y0022335D01*
X0089602Y0023469D02*
X0089035Y0024036D01*
X0087333Y0024036D01*
X0085919Y0024036D02*
X0083650Y0024036D01*
X0083650Y0020633D01*
X0083650Y0022335D02*
X0084784Y0022335D01*
X0089217Y0028633D02*
X0088650Y0029200D01*
X0088650Y0031469D01*
X0089217Y0032036D01*
X0090351Y0032036D01*
X0090919Y0031469D01*
X0090919Y0030335D02*
X0089784Y0030335D01*
X0090919Y0030335D02*
X0090919Y0029200D01*
X0090351Y0028633D01*
X0089217Y0028633D01*
X0092333Y0028633D02*
X0092333Y0032036D01*
X0094602Y0028633D01*
X0094602Y0032036D01*
X0096016Y0032036D02*
X0097718Y0032036D01*
X0098285Y0031469D01*
X0098285Y0029200D01*
X0097718Y0028633D01*
X0096016Y0028633D01*
X0096016Y0032036D01*
X0097151Y0038633D02*
X0098285Y0039768D01*
X0098285Y0042036D01*
X0096016Y0042036D02*
X0096016Y0039768D01*
X0097151Y0038633D01*
X0094602Y0039200D02*
X0094035Y0038633D01*
X0092900Y0038633D01*
X0092333Y0039200D01*
X0092333Y0040335D02*
X0093467Y0040902D01*
X0094035Y0040902D01*
X0094602Y0040335D01*
X0094602Y0039200D01*
X0092333Y0040335D02*
X0092333Y0042036D01*
X0094602Y0042036D01*
X0090919Y0040335D02*
X0088650Y0040335D01*
X0089784Y0041469D02*
X0089784Y0039200D01*
X0084126Y0043036D02*
X0081858Y0043036D01*
X0081858Y0039633D01*
X0080443Y0039633D02*
X0080443Y0041902D01*
X0081858Y0041335D02*
X0082992Y0041335D01*
X0080443Y0039633D02*
X0078742Y0039633D01*
X0078175Y0040200D01*
X0078175Y0041902D01*
X0076760Y0039633D02*
X0074492Y0039633D01*
X0075626Y0039633D02*
X0075626Y0043036D01*
X0074492Y0041902D01*
X0073217Y0040200D02*
X0073217Y0039633D01*
X0072650Y0039633D01*
X0072650Y0040200D01*
X0073217Y0040200D01*
X0070383Y0062633D02*
X0070383Y0066036D01*
X0072651Y0066036D01*
X0071517Y0064335D02*
X0070383Y0064335D01*
X0068968Y0064902D02*
X0068968Y0062633D01*
X0067267Y0062633D01*
X0066699Y0063200D01*
X0066699Y0064902D01*
X0065285Y0065469D02*
X0063016Y0063200D01*
X0063583Y0062633D01*
X0064718Y0062633D01*
X0065285Y0063200D01*
X0065285Y0065469D01*
X0064718Y0066036D01*
X0063583Y0066036D01*
X0063016Y0065469D01*
X0063016Y0063200D01*
X0061602Y0063200D02*
X0061035Y0062633D01*
X0059900Y0062633D01*
X0059333Y0063200D01*
X0061602Y0065469D01*
X0061602Y0063200D01*
X0059333Y0063200D02*
X0059333Y0065469D01*
X0059900Y0066036D01*
X0061035Y0066036D01*
X0061602Y0065469D01*
X0056784Y0066036D02*
X0056784Y0062633D01*
X0055650Y0062633D02*
X0057919Y0062633D01*
X0055650Y0064902D02*
X0056784Y0066036D01*
X0029084Y0051902D02*
X0028517Y0051902D01*
X0027383Y0050768D01*
X0027383Y0051902D02*
X0027383Y0049633D01*
X0025968Y0050200D02*
X0025968Y0051335D01*
X0025401Y0051902D01*
X0024267Y0051902D01*
X0023699Y0051335D01*
X0023699Y0050200D01*
X0024267Y0049633D01*
X0025401Y0049633D01*
X0025968Y0050200D01*
X0025401Y0047036D02*
X0024267Y0047036D01*
X0023699Y0046469D01*
X0025401Y0047036D02*
X0025968Y0046469D01*
X0025968Y0045902D01*
X0023699Y0043633D01*
X0025968Y0043633D01*
X0027383Y0044768D02*
X0028517Y0043633D01*
X0029651Y0044768D01*
X0029651Y0047036D01*
X0027383Y0047036D02*
X0027383Y0044768D01*
X0022285Y0043633D02*
X0020016Y0043633D01*
X0021151Y0043633D02*
X0021151Y0047036D01*
X0020016Y0045902D01*
X0018602Y0045335D02*
X0016333Y0045335D01*
X0014919Y0044768D02*
X0014351Y0045335D01*
X0012650Y0045335D01*
X0012650Y0044200D01*
X0013217Y0043633D01*
X0014351Y0043633D01*
X0014919Y0044200D01*
X0014919Y0044768D01*
X0013784Y0046469D02*
X0014919Y0047036D01*
X0013784Y0046469D02*
X0012650Y0045335D01*
X0013217Y0049633D02*
X0012650Y0050200D01*
X0013217Y0049633D02*
X0014351Y0049633D01*
X0014919Y0050200D01*
X0014919Y0051335D01*
X0014351Y0051902D01*
X0013784Y0051902D01*
X0012650Y0051335D01*
X0012650Y0053036D01*
X0014919Y0053036D01*
X0016333Y0053036D02*
X0016333Y0050768D01*
X0017467Y0049633D01*
X0018602Y0050768D01*
X0018602Y0053036D01*
X0233759Y0068200D02*
X0234326Y0067633D01*
X0235460Y0067633D01*
X0236027Y0068200D01*
X0236027Y0069335D01*
X0235460Y0069902D01*
X0234893Y0069902D01*
X0233759Y0069335D01*
X0233759Y0071036D01*
X0236027Y0071036D01*
X0237442Y0071036D02*
X0237442Y0068768D01*
X0238576Y0067633D01*
X0239710Y0068768D01*
X0239710Y0071036D01*
X0244808Y0071036D02*
X0246509Y0071036D01*
X0247077Y0070469D01*
X0247077Y0069335D01*
X0246509Y0068768D01*
X0244808Y0068768D01*
X0244808Y0067633D02*
X0244808Y0071036D01*
X0248491Y0071036D02*
X0248491Y0067633D01*
X0249625Y0068768D01*
X0250760Y0067633D01*
X0250760Y0071036D01*
X0252174Y0071036D02*
X0253876Y0071036D01*
X0254443Y0070469D01*
X0254443Y0069335D01*
X0253876Y0068768D01*
X0252174Y0068768D01*
X0253309Y0068768D02*
X0254443Y0067633D01*
X0252174Y0067633D02*
X0252174Y0071036D01*
X0240102Y0022902D02*
X0239535Y0022335D01*
X0369650Y0023469D02*
X0369650Y0021200D01*
X0370217Y0020633D01*
X0371351Y0020633D01*
X0371919Y0021200D01*
X0371919Y0022335D01*
X0370784Y0022335D01*
X0369650Y0023469D02*
X0370217Y0024036D01*
X0371351Y0024036D01*
X0371919Y0023469D01*
X0373333Y0024036D02*
X0375602Y0020633D01*
X0375602Y0024036D01*
X0377016Y0024036D02*
X0378718Y0024036D01*
X0379285Y0023469D01*
X0379285Y0021200D01*
X0378718Y0020633D01*
X0377016Y0020633D01*
X0377016Y0024036D01*
X0373333Y0024036D02*
X0373333Y0020633D01*
X0393150Y0023133D02*
X0393717Y0023133D01*
X0393717Y0023700D01*
X0393150Y0023700D01*
X0393150Y0023133D01*
X0394992Y0023133D02*
X0397260Y0023133D01*
X0396126Y0023133D02*
X0396126Y0026536D01*
X0394992Y0025402D01*
X0398675Y0025402D02*
X0398675Y0023700D01*
X0399242Y0023133D01*
X0400943Y0023133D01*
X0400943Y0025402D01*
X0402358Y0024835D02*
X0403492Y0024835D01*
X0402358Y0026536D02*
X0402358Y0023133D01*
X0402358Y0026536D02*
X0404626Y0026536D01*
X0419650Y0023469D02*
X0419650Y0021200D01*
X0420217Y0020633D01*
X0421351Y0020633D01*
X0421919Y0021200D01*
X0421919Y0022335D01*
X0420784Y0022335D01*
X0419650Y0023469D02*
X0420217Y0024036D01*
X0421351Y0024036D01*
X0421919Y0023469D01*
X0423333Y0024036D02*
X0425602Y0020633D01*
X0425602Y0024036D01*
X0427016Y0024036D02*
X0428718Y0024036D01*
X0429285Y0023469D01*
X0429285Y0021200D01*
X0428718Y0020633D01*
X0427016Y0020633D01*
X0427016Y0024036D01*
X0423333Y0024036D02*
X0423333Y0020633D01*
X0418358Y0039633D02*
X0418358Y0043036D01*
X0420626Y0043036D01*
X0419492Y0041335D02*
X0418358Y0041335D01*
X0416943Y0041902D02*
X0416943Y0039633D01*
X0415242Y0039633D01*
X0414675Y0040200D01*
X0414675Y0041902D01*
X0413260Y0039633D02*
X0410992Y0039633D01*
X0412126Y0039633D02*
X0412126Y0043036D01*
X0410992Y0041902D01*
X0409717Y0040200D02*
X0409717Y0039633D01*
X0409150Y0039633D01*
X0409150Y0040200D01*
X0409717Y0040200D01*
X0409717Y0054633D02*
X0409150Y0054633D01*
X0409150Y0055200D01*
X0409717Y0055200D01*
X0409717Y0054633D01*
X0410992Y0054633D02*
X0413260Y0054633D01*
X0412126Y0054633D02*
X0412126Y0058036D01*
X0410992Y0056902D01*
X0414675Y0056902D02*
X0414675Y0055200D01*
X0415242Y0054633D01*
X0416943Y0054633D01*
X0416943Y0056902D01*
X0418358Y0056335D02*
X0419492Y0056335D01*
X0418358Y0058036D02*
X0420626Y0058036D01*
X0418358Y0058036D02*
X0418358Y0054633D01*
X0418358Y0069633D02*
X0418358Y0073036D01*
X0420626Y0073036D01*
X0419492Y0071335D02*
X0418358Y0071335D01*
X0416943Y0071902D02*
X0416943Y0069633D01*
X0415242Y0069633D01*
X0414675Y0070200D01*
X0414675Y0071902D01*
X0413260Y0069633D02*
X0410992Y0069633D01*
X0412126Y0069633D02*
X0412126Y0073036D01*
X0410992Y0071902D01*
X0409717Y0070200D02*
X0409717Y0069633D01*
X0409150Y0069633D01*
X0409150Y0070200D01*
X0409717Y0070200D01*
X0384550Y0068384D02*
X0384550Y0067250D01*
X0383983Y0066683D01*
X0382849Y0066683D02*
X0382281Y0067817D01*
X0382281Y0068384D01*
X0382849Y0068951D01*
X0383983Y0068951D01*
X0384550Y0068384D01*
X0382849Y0066683D02*
X0381147Y0066683D01*
X0381147Y0068951D01*
X0382849Y0070366D02*
X0381147Y0072067D01*
X0384550Y0072067D01*
X0382849Y0072635D02*
X0382849Y0070366D01*
X0382849Y0074049D02*
X0382849Y0076318D01*
X0382281Y0077732D02*
X0381147Y0078866D01*
X0384550Y0078866D01*
X0384550Y0077732D02*
X0384550Y0080001D01*
X0383983Y0081415D02*
X0381714Y0083684D01*
X0383983Y0083684D01*
X0384550Y0083117D01*
X0384550Y0081982D01*
X0383983Y0081415D01*
X0381714Y0081415D01*
X0381147Y0081982D01*
X0381147Y0083117D01*
X0381714Y0083684D01*
X0381147Y0085098D02*
X0384550Y0087367D01*
X0381147Y0087367D01*
X0381147Y0088782D02*
X0384550Y0088782D01*
X0384550Y0091050D01*
X0382849Y0089916D02*
X0382849Y0088782D01*
X0381147Y0088782D02*
X0381147Y0091050D01*
X0381147Y0085098D02*
X0384550Y0085098D01*
X0384550Y0075751D02*
X0381147Y0075751D01*
X0382849Y0074049D01*
X0381714Y0065268D02*
X0383983Y0063000D01*
X0384550Y0063000D01*
X0384550Y0061585D02*
X0381147Y0061585D01*
X0381147Y0063000D02*
X0381147Y0065268D01*
X0381714Y0065268D01*
X0384550Y0061585D02*
X0381147Y0059316D01*
X0384550Y0059316D01*
X0383983Y0057902D02*
X0384550Y0057335D01*
X0384550Y0056200D01*
X0383983Y0055633D01*
X0382849Y0056200D02*
X0382849Y0057335D01*
X0383416Y0057902D01*
X0383983Y0057902D01*
X0382849Y0056200D02*
X0382281Y0055633D01*
X0381714Y0055633D01*
X0381147Y0056200D01*
X0381147Y0057335D01*
X0381714Y0057902D01*
X0409150Y0084633D02*
X0409717Y0084633D01*
X0409717Y0085200D01*
X0409150Y0085200D01*
X0409150Y0084633D01*
X0410992Y0084633D02*
X0413260Y0084633D01*
X0412126Y0084633D02*
X0412126Y0088036D01*
X0410992Y0086902D01*
X0414675Y0086902D02*
X0414675Y0085200D01*
X0415242Y0084633D01*
X0416943Y0084633D01*
X0416943Y0086902D01*
X0418358Y0086335D02*
X0419492Y0086335D01*
X0418358Y0088036D02*
X0418358Y0084633D01*
X0418358Y0088036D02*
X0420626Y0088036D01*
D13*
X0398143Y0120833D02*
X0398145Y0120886D01*
X0398151Y0120938D01*
X0398161Y0120990D01*
X0398174Y0121041D01*
X0398192Y0121091D01*
X0398213Y0121140D01*
X0398238Y0121187D01*
X0398266Y0121231D01*
X0398297Y0121274D01*
X0398332Y0121314D01*
X0398369Y0121351D01*
X0398409Y0121386D01*
X0398452Y0121417D01*
X0398497Y0121445D01*
X0398543Y0121470D01*
X0398592Y0121491D01*
X0398642Y0121509D01*
X0398693Y0121522D01*
X0398745Y0121532D01*
X0398797Y0121538D01*
X0398850Y0121540D01*
X0398903Y0121538D01*
X0398955Y0121532D01*
X0399007Y0121522D01*
X0399058Y0121509D01*
X0399108Y0121491D01*
X0399157Y0121470D01*
X0399204Y0121445D01*
X0399248Y0121417D01*
X0399291Y0121386D01*
X0399331Y0121351D01*
X0399368Y0121314D01*
X0399403Y0121274D01*
X0399434Y0121231D01*
X0399462Y0121186D01*
X0399487Y0121140D01*
X0399508Y0121091D01*
X0399526Y0121041D01*
X0399539Y0120990D01*
X0399549Y0120938D01*
X0399555Y0120886D01*
X0399557Y0120833D01*
X0399555Y0120780D01*
X0399549Y0120728D01*
X0399539Y0120676D01*
X0399526Y0120625D01*
X0399508Y0120575D01*
X0399487Y0120526D01*
X0399462Y0120479D01*
X0399434Y0120435D01*
X0399403Y0120392D01*
X0399368Y0120352D01*
X0399331Y0120315D01*
X0399291Y0120280D01*
X0399248Y0120249D01*
X0399203Y0120221D01*
X0399157Y0120196D01*
X0399108Y0120175D01*
X0399058Y0120157D01*
X0399007Y0120144D01*
X0398955Y0120134D01*
X0398903Y0120128D01*
X0398850Y0120126D01*
X0398797Y0120128D01*
X0398745Y0120134D01*
X0398693Y0120144D01*
X0398642Y0120157D01*
X0398592Y0120175D01*
X0398543Y0120196D01*
X0398496Y0120221D01*
X0398452Y0120249D01*
X0398409Y0120280D01*
X0398369Y0120315D01*
X0398332Y0120352D01*
X0398297Y0120392D01*
X0398266Y0120435D01*
X0398238Y0120480D01*
X0398213Y0120526D01*
X0398192Y0120575D01*
X0398174Y0120625D01*
X0398161Y0120676D01*
X0398151Y0120728D01*
X0398145Y0120780D01*
X0398143Y0120833D01*
X0398643Y0030833D02*
X0398645Y0030886D01*
X0398651Y0030938D01*
X0398661Y0030990D01*
X0398674Y0031041D01*
X0398692Y0031091D01*
X0398713Y0031140D01*
X0398738Y0031187D01*
X0398766Y0031231D01*
X0398797Y0031274D01*
X0398832Y0031314D01*
X0398869Y0031351D01*
X0398909Y0031386D01*
X0398952Y0031417D01*
X0398997Y0031445D01*
X0399043Y0031470D01*
X0399092Y0031491D01*
X0399142Y0031509D01*
X0399193Y0031522D01*
X0399245Y0031532D01*
X0399297Y0031538D01*
X0399350Y0031540D01*
X0399403Y0031538D01*
X0399455Y0031532D01*
X0399507Y0031522D01*
X0399558Y0031509D01*
X0399608Y0031491D01*
X0399657Y0031470D01*
X0399704Y0031445D01*
X0399748Y0031417D01*
X0399791Y0031386D01*
X0399831Y0031351D01*
X0399868Y0031314D01*
X0399903Y0031274D01*
X0399934Y0031231D01*
X0399962Y0031186D01*
X0399987Y0031140D01*
X0400008Y0031091D01*
X0400026Y0031041D01*
X0400039Y0030990D01*
X0400049Y0030938D01*
X0400055Y0030886D01*
X0400057Y0030833D01*
X0400055Y0030780D01*
X0400049Y0030728D01*
X0400039Y0030676D01*
X0400026Y0030625D01*
X0400008Y0030575D01*
X0399987Y0030526D01*
X0399962Y0030479D01*
X0399934Y0030435D01*
X0399903Y0030392D01*
X0399868Y0030352D01*
X0399831Y0030315D01*
X0399791Y0030280D01*
X0399748Y0030249D01*
X0399703Y0030221D01*
X0399657Y0030196D01*
X0399608Y0030175D01*
X0399558Y0030157D01*
X0399507Y0030144D01*
X0399455Y0030134D01*
X0399403Y0030128D01*
X0399350Y0030126D01*
X0399297Y0030128D01*
X0399245Y0030134D01*
X0399193Y0030144D01*
X0399142Y0030157D01*
X0399092Y0030175D01*
X0399043Y0030196D01*
X0398996Y0030221D01*
X0398952Y0030249D01*
X0398909Y0030280D01*
X0398869Y0030315D01*
X0398832Y0030352D01*
X0398797Y0030392D01*
X0398766Y0030435D01*
X0398738Y0030480D01*
X0398713Y0030526D01*
X0398692Y0030575D01*
X0398674Y0030625D01*
X0398661Y0030676D01*
X0398651Y0030728D01*
X0398645Y0030780D01*
X0398643Y0030833D01*
X0056143Y0172333D02*
X0056145Y0172386D01*
X0056151Y0172438D01*
X0056161Y0172490D01*
X0056174Y0172541D01*
X0056192Y0172591D01*
X0056213Y0172640D01*
X0056238Y0172687D01*
X0056266Y0172731D01*
X0056297Y0172774D01*
X0056332Y0172814D01*
X0056369Y0172851D01*
X0056409Y0172886D01*
X0056452Y0172917D01*
X0056497Y0172945D01*
X0056543Y0172970D01*
X0056592Y0172991D01*
X0056642Y0173009D01*
X0056693Y0173022D01*
X0056745Y0173032D01*
X0056797Y0173038D01*
X0056850Y0173040D01*
X0056903Y0173038D01*
X0056955Y0173032D01*
X0057007Y0173022D01*
X0057058Y0173009D01*
X0057108Y0172991D01*
X0057157Y0172970D01*
X0057204Y0172945D01*
X0057248Y0172917D01*
X0057291Y0172886D01*
X0057331Y0172851D01*
X0057368Y0172814D01*
X0057403Y0172774D01*
X0057434Y0172731D01*
X0057462Y0172686D01*
X0057487Y0172640D01*
X0057508Y0172591D01*
X0057526Y0172541D01*
X0057539Y0172490D01*
X0057549Y0172438D01*
X0057555Y0172386D01*
X0057557Y0172333D01*
X0057555Y0172280D01*
X0057549Y0172228D01*
X0057539Y0172176D01*
X0057526Y0172125D01*
X0057508Y0172075D01*
X0057487Y0172026D01*
X0057462Y0171979D01*
X0057434Y0171935D01*
X0057403Y0171892D01*
X0057368Y0171852D01*
X0057331Y0171815D01*
X0057291Y0171780D01*
X0057248Y0171749D01*
X0057203Y0171721D01*
X0057157Y0171696D01*
X0057108Y0171675D01*
X0057058Y0171657D01*
X0057007Y0171644D01*
X0056955Y0171634D01*
X0056903Y0171628D01*
X0056850Y0171626D01*
X0056797Y0171628D01*
X0056745Y0171634D01*
X0056693Y0171644D01*
X0056642Y0171657D01*
X0056592Y0171675D01*
X0056543Y0171696D01*
X0056496Y0171721D01*
X0056452Y0171749D01*
X0056409Y0171780D01*
X0056369Y0171815D01*
X0056332Y0171852D01*
X0056297Y0171892D01*
X0056266Y0171935D01*
X0056238Y0171980D01*
X0056213Y0172026D01*
X0056192Y0172075D01*
X0056174Y0172125D01*
X0056161Y0172176D01*
X0056151Y0172228D01*
X0056145Y0172280D01*
X0056143Y0172333D01*
X0050350Y0141333D02*
X0041850Y0141333D01*
X0038350Y0141333D02*
X0030850Y0141333D01*
X0036643Y0201333D02*
X0036645Y0201386D01*
X0036651Y0201438D01*
X0036661Y0201490D01*
X0036674Y0201541D01*
X0036692Y0201591D01*
X0036713Y0201640D01*
X0036738Y0201687D01*
X0036766Y0201731D01*
X0036797Y0201774D01*
X0036832Y0201814D01*
X0036869Y0201851D01*
X0036909Y0201886D01*
X0036952Y0201917D01*
X0036997Y0201945D01*
X0037043Y0201970D01*
X0037092Y0201991D01*
X0037142Y0202009D01*
X0037193Y0202022D01*
X0037245Y0202032D01*
X0037297Y0202038D01*
X0037350Y0202040D01*
X0037403Y0202038D01*
X0037455Y0202032D01*
X0037507Y0202022D01*
X0037558Y0202009D01*
X0037608Y0201991D01*
X0037657Y0201970D01*
X0037704Y0201945D01*
X0037748Y0201917D01*
X0037791Y0201886D01*
X0037831Y0201851D01*
X0037868Y0201814D01*
X0037903Y0201774D01*
X0037934Y0201731D01*
X0037962Y0201686D01*
X0037987Y0201640D01*
X0038008Y0201591D01*
X0038026Y0201541D01*
X0038039Y0201490D01*
X0038049Y0201438D01*
X0038055Y0201386D01*
X0038057Y0201333D01*
X0038055Y0201280D01*
X0038049Y0201228D01*
X0038039Y0201176D01*
X0038026Y0201125D01*
X0038008Y0201075D01*
X0037987Y0201026D01*
X0037962Y0200979D01*
X0037934Y0200935D01*
X0037903Y0200892D01*
X0037868Y0200852D01*
X0037831Y0200815D01*
X0037791Y0200780D01*
X0037748Y0200749D01*
X0037703Y0200721D01*
X0037657Y0200696D01*
X0037608Y0200675D01*
X0037558Y0200657D01*
X0037507Y0200644D01*
X0037455Y0200634D01*
X0037403Y0200628D01*
X0037350Y0200626D01*
X0037297Y0200628D01*
X0037245Y0200634D01*
X0037193Y0200644D01*
X0037142Y0200657D01*
X0037092Y0200675D01*
X0037043Y0200696D01*
X0036996Y0200721D01*
X0036952Y0200749D01*
X0036909Y0200780D01*
X0036869Y0200815D01*
X0036832Y0200852D01*
X0036797Y0200892D01*
X0036766Y0200935D01*
X0036738Y0200980D01*
X0036713Y0201026D01*
X0036692Y0201075D01*
X0036674Y0201125D01*
X0036661Y0201176D01*
X0036651Y0201228D01*
X0036645Y0201280D01*
X0036643Y0201333D01*
D14*
X0036026Y0109787D02*
X0038278Y0109787D01*
X0039028Y0109037D01*
X0039028Y0107535D01*
X0038278Y0106785D01*
X0036026Y0106785D01*
X0037527Y0106785D02*
X0039028Y0105283D01*
X0041182Y0106034D02*
X0041933Y0105283D01*
X0043434Y0105283D01*
X0044185Y0106034D01*
X0044185Y0106785D01*
X0043434Y0107535D01*
X0041933Y0107535D01*
X0041182Y0108286D01*
X0041182Y0109037D01*
X0041933Y0109787D01*
X0043434Y0109787D01*
X0044185Y0109037D01*
X0046338Y0108286D02*
X0047840Y0108286D01*
X0047089Y0109037D02*
X0047089Y0106034D01*
X0047840Y0105283D01*
X0049776Y0106034D02*
X0049776Y0107535D01*
X0050527Y0108286D01*
X0052028Y0108286D01*
X0052779Y0107535D01*
X0052779Y0106785D01*
X0049776Y0106785D01*
X0049776Y0106034D02*
X0050527Y0105283D01*
X0052028Y0105283D01*
X0054932Y0105283D02*
X0057184Y0105283D01*
X0057935Y0106034D01*
X0057935Y0107535D01*
X0057184Y0108286D01*
X0054932Y0108286D01*
X0054932Y0103782D01*
X0046763Y0100637D02*
X0046763Y0099886D01*
X0046012Y0099135D01*
X0046763Y0098385D01*
X0046763Y0097634D01*
X0046012Y0096883D01*
X0044511Y0096883D01*
X0043760Y0097634D01*
X0041933Y0097634D02*
X0041933Y0096883D01*
X0041182Y0096883D01*
X0041182Y0097634D01*
X0041933Y0097634D01*
X0039028Y0096883D02*
X0036026Y0096883D01*
X0037527Y0096883D02*
X0037527Y0101387D01*
X0036026Y0099886D01*
X0033872Y0099886D02*
X0032370Y0096883D01*
X0030869Y0099886D01*
X0030869Y0105283D02*
X0030869Y0108286D01*
X0032370Y0109787D01*
X0033872Y0108286D01*
X0033872Y0105283D01*
X0036026Y0105283D02*
X0036026Y0109787D01*
X0033872Y0107535D02*
X0030869Y0107535D01*
X0028715Y0106785D02*
X0028715Y0106034D01*
X0027965Y0105283D01*
X0025713Y0105283D01*
X0025713Y0109787D01*
X0027965Y0109787D01*
X0028715Y0109037D01*
X0028715Y0108286D01*
X0027965Y0107535D01*
X0025713Y0107535D01*
X0027965Y0107535D02*
X0028715Y0106785D01*
X0023559Y0106034D02*
X0023559Y0109787D01*
X0020556Y0109787D02*
X0020556Y0106034D01*
X0021307Y0105283D01*
X0022808Y0105283D01*
X0023559Y0106034D01*
X0018403Y0109787D02*
X0015400Y0109787D01*
X0015400Y0105283D01*
X0015400Y0107535D02*
X0016901Y0107535D01*
X0043760Y0100637D02*
X0044511Y0101387D01*
X0046012Y0101387D01*
X0046763Y0100637D01*
X0046012Y0099135D02*
X0045261Y0099135D01*
D15*
X0025850Y0113833D02*
X0021350Y0113833D01*
X0021350Y0116333D01*
X0020350Y0116333D01*
X0020350Y0114333D01*
X0021350Y0113833D02*
X0015850Y0113833D01*
X0015850Y0118333D01*
X0018350Y0120833D01*
X0020850Y0118333D01*
X0025850Y0118333D01*
X0025850Y0113833D01*
X0025850Y0118333D02*
X0025850Y0122833D01*
X0025350Y0122833D01*
X0025350Y0121333D01*
X0015850Y0121333D01*
X0015850Y0118333D01*
X0027850Y0143333D02*
X0032850Y0143333D01*
X0035350Y0145833D01*
X0037850Y0143333D01*
X0042850Y0143333D01*
X0045350Y0145833D01*
X0047850Y0143333D01*
X0052850Y0143333D01*
X0055350Y0145833D01*
X0055350Y0150833D01*
X0052850Y0153333D01*
X0047850Y0153333D01*
X0045350Y0150833D01*
X0042850Y0153333D01*
X0037850Y0153333D01*
X0035350Y0150833D01*
X0032850Y0153333D01*
X0027850Y0153333D01*
X0025350Y0150833D01*
X0025350Y0145833D01*
X0027850Y0143333D01*
X0020350Y0158333D02*
X0020350Y0160833D01*
X0060350Y0160833D01*
X0060350Y0158333D01*
X0020350Y0158333D01*
X0020350Y0160833D02*
X0020350Y0175833D01*
X0060350Y0175833D01*
X0060350Y0160833D01*
X0100350Y0177833D02*
X0102850Y0175333D01*
X0107850Y0175333D01*
X0110350Y0177833D01*
X0110350Y0182833D01*
X0107850Y0185333D01*
X0110350Y0187833D01*
X0110350Y0192833D01*
X0107850Y0195333D01*
X0110350Y0197833D01*
X0110350Y0202833D01*
X0107850Y0205333D01*
X0102850Y0205333D01*
X0100350Y0202833D01*
X0100350Y0197833D01*
X0102850Y0195333D01*
X0100350Y0192833D01*
X0100350Y0187833D01*
X0102850Y0185333D01*
X0100350Y0182833D01*
X0100350Y0177833D01*
X0110350Y0177833D02*
X0110350Y0182833D01*
X0112850Y0185333D01*
X0110350Y0187833D01*
X0110350Y0192833D01*
X0112850Y0195333D01*
X0110350Y0197833D01*
X0110350Y0202833D01*
X0112850Y0205333D01*
X0117850Y0205333D01*
X0120350Y0202833D01*
X0120350Y0197833D01*
X0117850Y0195333D01*
X0120350Y0192833D01*
X0120350Y0187833D01*
X0117850Y0185333D01*
X0120350Y0182833D01*
X0120350Y0177833D01*
X0117850Y0175333D01*
X0112850Y0175333D01*
X0110350Y0177833D01*
X0120350Y0177833D02*
X0120350Y0182833D01*
X0122850Y0185333D01*
X0120350Y0187833D01*
X0120350Y0192833D01*
X0122850Y0195333D01*
X0120350Y0197833D01*
X0120350Y0202833D01*
X0122850Y0205333D01*
X0127850Y0205333D01*
X0130350Y0202833D01*
X0132850Y0205333D01*
X0137850Y0205333D01*
X0140350Y0202833D01*
X0142850Y0205333D01*
X0147850Y0205333D01*
X0150350Y0202833D01*
X0152850Y0205333D01*
X0157850Y0205333D01*
X0160350Y0202833D01*
X0162850Y0205333D01*
X0167850Y0205333D01*
X0170350Y0202833D01*
X0172850Y0205333D01*
X0177850Y0205333D01*
X0180350Y0202833D01*
X0180350Y0197833D01*
X0177850Y0195333D01*
X0180350Y0192833D01*
X0180350Y0187833D01*
X0177850Y0185333D01*
X0180350Y0182833D01*
X0180350Y0177833D01*
X0177850Y0175333D01*
X0172850Y0175333D01*
X0170350Y0177833D01*
X0170350Y0182833D01*
X0172850Y0185333D01*
X0170350Y0187833D01*
X0170350Y0192833D01*
X0172850Y0195333D01*
X0170350Y0197833D01*
X0170350Y0202833D01*
X0170350Y0197833D01*
X0167850Y0195333D01*
X0170350Y0192833D01*
X0170350Y0187833D01*
X0167850Y0185333D01*
X0170350Y0182833D01*
X0170350Y0177833D01*
X0167850Y0175333D01*
X0162850Y0175333D01*
X0160350Y0177833D01*
X0160350Y0182833D01*
X0162850Y0185333D01*
X0160350Y0187833D01*
X0160350Y0192833D01*
X0162850Y0195333D01*
X0160350Y0197833D01*
X0160350Y0202833D01*
X0160350Y0197833D01*
X0157850Y0195333D01*
X0160350Y0192833D01*
X0160350Y0187833D01*
X0157850Y0185333D01*
X0160350Y0182833D01*
X0160350Y0177833D01*
X0157850Y0175333D01*
X0152850Y0175333D01*
X0150350Y0177833D01*
X0150350Y0182833D01*
X0152850Y0185333D01*
X0150350Y0187833D01*
X0150350Y0192833D01*
X0152850Y0195333D01*
X0150350Y0197833D01*
X0150350Y0202833D01*
X0150350Y0197833D01*
X0147850Y0195333D01*
X0150350Y0192833D01*
X0150350Y0187833D01*
X0147850Y0185333D01*
X0150350Y0182833D01*
X0150350Y0177833D01*
X0147850Y0175333D01*
X0142850Y0175333D01*
X0140350Y0177833D01*
X0140350Y0182833D01*
X0142850Y0185333D01*
X0140350Y0187833D01*
X0140350Y0192833D01*
X0142850Y0195333D01*
X0140350Y0197833D01*
X0140350Y0202833D01*
X0140350Y0197833D01*
X0137850Y0195333D01*
X0140350Y0192833D01*
X0140350Y0187833D01*
X0137850Y0185333D01*
X0140350Y0182833D01*
X0140350Y0177833D01*
X0137850Y0175333D01*
X0132850Y0175333D01*
X0130350Y0177833D01*
X0130350Y0182833D01*
X0132850Y0185333D01*
X0130350Y0187833D01*
X0130350Y0192833D01*
X0132850Y0195333D01*
X0130350Y0197833D01*
X0130350Y0202833D01*
X0130350Y0197833D01*
X0127850Y0195333D01*
X0130350Y0192833D01*
X0130350Y0187833D01*
X0127850Y0185333D01*
X0130350Y0182833D01*
X0130350Y0177833D01*
X0127850Y0175333D01*
X0122850Y0175333D01*
X0120350Y0177833D01*
X0100350Y0197833D02*
X0097850Y0195333D01*
X0092850Y0195333D01*
X0090350Y0197833D01*
X0090350Y0202833D01*
X0092850Y0205333D01*
X0097850Y0205333D01*
X0100350Y0202833D01*
X0100350Y0197833D01*
X0090350Y0197833D02*
X0087850Y0195333D01*
X0082850Y0195333D01*
X0080350Y0197833D01*
X0080350Y0202833D01*
X0082850Y0205333D01*
X0087850Y0205333D01*
X0090350Y0202833D01*
X0080350Y0202833D02*
X0077850Y0205333D01*
X0072850Y0205333D01*
X0070350Y0202833D01*
X0070350Y0197833D01*
X0067850Y0195333D01*
X0062850Y0195333D01*
X0060350Y0197833D01*
X0060350Y0202833D01*
X0062850Y0205333D01*
X0067850Y0205333D01*
X0070350Y0202833D01*
X0070350Y0197833D02*
X0072850Y0195333D01*
X0077850Y0195333D01*
X0080350Y0197833D01*
X0060350Y0197833D02*
X0057850Y0195333D01*
X0052850Y0195333D01*
X0050350Y0197833D01*
X0050350Y0202833D01*
X0052850Y0205333D01*
X0057850Y0205333D01*
X0060350Y0202833D01*
X0050350Y0202833D02*
X0047850Y0205333D01*
X0042850Y0205333D01*
X0040350Y0202833D01*
X0040350Y0197833D01*
X0042850Y0195333D01*
X0047850Y0195333D01*
X0050350Y0197833D01*
X0180350Y0197833D02*
X0180350Y0202833D01*
X0182850Y0205333D01*
X0187850Y0205333D01*
X0190350Y0202833D01*
X0192850Y0205333D01*
X0197850Y0205333D01*
X0200350Y0202833D01*
X0202850Y0205333D01*
X0207850Y0205333D01*
X0210350Y0202833D01*
X0212850Y0205333D01*
X0217850Y0205333D01*
X0220350Y0202833D01*
X0222850Y0205333D01*
X0227850Y0205333D01*
X0230350Y0202833D01*
X0232850Y0205333D01*
X0237850Y0205333D01*
X0240350Y0202833D01*
X0242850Y0205333D01*
X0247850Y0205333D01*
X0250350Y0202833D01*
X0250350Y0197833D01*
X0247850Y0195333D01*
X0250350Y0192833D01*
X0250350Y0187833D01*
X0247850Y0185333D01*
X0250350Y0182833D01*
X0250350Y0177833D01*
X0247850Y0175333D01*
X0242850Y0175333D01*
X0240350Y0177833D01*
X0240350Y0182833D01*
X0242850Y0185333D01*
X0240350Y0187833D01*
X0240350Y0192833D01*
X0242850Y0195333D01*
X0240350Y0197833D01*
X0240350Y0202833D01*
X0240350Y0197833D01*
X0237850Y0195333D01*
X0240350Y0192833D01*
X0240350Y0187833D01*
X0237850Y0185333D01*
X0240350Y0182833D01*
X0240350Y0177833D01*
X0237850Y0175333D01*
X0232850Y0175333D01*
X0230350Y0177833D01*
X0230350Y0182833D01*
X0232850Y0185333D01*
X0230350Y0187833D01*
X0230350Y0192833D01*
X0232850Y0195333D01*
X0230350Y0197833D01*
X0230350Y0202833D01*
X0230350Y0197833D01*
X0227850Y0195333D01*
X0230350Y0192833D01*
X0230350Y0187833D01*
X0227850Y0185333D01*
X0230350Y0182833D01*
X0230350Y0177833D01*
X0227850Y0175333D01*
X0222850Y0175333D01*
X0220350Y0177833D01*
X0220350Y0182833D01*
X0222850Y0185333D01*
X0220350Y0187833D01*
X0220350Y0192833D01*
X0222850Y0195333D01*
X0220350Y0197833D01*
X0220350Y0202833D01*
X0220350Y0197833D01*
X0217850Y0195333D01*
X0220350Y0192833D01*
X0220350Y0187833D01*
X0217850Y0185333D01*
X0220350Y0182833D01*
X0220350Y0177833D01*
X0217850Y0175333D01*
X0212850Y0175333D01*
X0210350Y0177833D01*
X0210350Y0182833D01*
X0212850Y0185333D01*
X0210350Y0187833D01*
X0210350Y0192833D01*
X0212850Y0195333D01*
X0210350Y0197833D01*
X0210350Y0202833D01*
X0210350Y0197833D01*
X0207850Y0195333D01*
X0210350Y0192833D01*
X0210350Y0187833D01*
X0207850Y0185333D01*
X0210350Y0182833D01*
X0210350Y0177833D01*
X0207850Y0175333D01*
X0202850Y0175333D01*
X0200350Y0177833D01*
X0200350Y0182833D01*
X0202850Y0185333D01*
X0200350Y0187833D01*
X0200350Y0192833D01*
X0202850Y0195333D01*
X0200350Y0197833D01*
X0200350Y0202833D01*
X0200350Y0197833D01*
X0197850Y0195333D01*
X0200350Y0192833D01*
X0200350Y0187833D01*
X0197850Y0185333D01*
X0200350Y0182833D01*
X0200350Y0177833D01*
X0197850Y0175333D01*
X0192850Y0175333D01*
X0190350Y0177833D01*
X0190350Y0182833D01*
X0192850Y0185333D01*
X0190350Y0187833D01*
X0190350Y0192833D01*
X0192850Y0195333D01*
X0190350Y0197833D01*
X0190350Y0202833D01*
X0190350Y0197833D01*
X0187850Y0195333D01*
X0190350Y0192833D01*
X0190350Y0187833D01*
X0187850Y0185333D01*
X0190350Y0182833D01*
X0190350Y0177833D01*
X0187850Y0175333D01*
X0182850Y0175333D01*
X0180350Y0177833D01*
X0180350Y0182833D01*
X0182850Y0185333D01*
X0180350Y0187833D01*
X0180350Y0192833D01*
X0182850Y0195333D01*
X0180350Y0197833D01*
X0250350Y0197833D02*
X0250350Y0202833D01*
X0252850Y0205333D01*
X0257850Y0205333D01*
X0260350Y0202833D01*
X0262850Y0205333D01*
X0267850Y0205333D01*
X0270350Y0202833D01*
X0270350Y0197833D01*
X0267850Y0195333D01*
X0270350Y0192833D01*
X0270350Y0187833D01*
X0267850Y0185333D01*
X0270350Y0182833D01*
X0270350Y0177833D01*
X0267850Y0175333D01*
X0262850Y0175333D01*
X0260350Y0177833D01*
X0260350Y0182833D01*
X0262850Y0185333D01*
X0260350Y0187833D01*
X0260350Y0192833D01*
X0262850Y0195333D01*
X0260350Y0197833D01*
X0260350Y0202833D01*
X0260350Y0197833D01*
X0257850Y0195333D01*
X0260350Y0192833D01*
X0260350Y0187833D01*
X0257850Y0185333D01*
X0260350Y0182833D01*
X0260350Y0177833D01*
X0257850Y0175333D01*
X0252850Y0175333D01*
X0250350Y0177833D01*
X0250350Y0182833D01*
X0252850Y0185333D01*
X0250350Y0187833D01*
X0250350Y0192833D01*
X0252850Y0195333D01*
X0250350Y0197833D01*
X0270350Y0197833D02*
X0270350Y0202833D01*
X0272850Y0205333D01*
X0277850Y0205333D01*
X0280350Y0202833D01*
X0282850Y0205333D01*
X0287850Y0205333D01*
X0290350Y0202833D01*
X0292850Y0205333D01*
X0297850Y0205333D01*
X0300350Y0202833D01*
X0302850Y0205333D01*
X0307850Y0205333D01*
X0310350Y0202833D01*
X0312850Y0205333D01*
X0317850Y0205333D01*
X0320350Y0202833D01*
X0322850Y0205333D01*
X0327850Y0205333D01*
X0330350Y0202833D01*
X0332850Y0205333D01*
X0337850Y0205333D01*
X0340350Y0202833D01*
X0340350Y0197833D01*
X0337850Y0195333D01*
X0340350Y0192833D01*
X0340350Y0187833D01*
X0337850Y0185333D01*
X0340350Y0182833D01*
X0340350Y0177833D01*
X0337850Y0175333D01*
X0332850Y0175333D01*
X0330350Y0177833D01*
X0330350Y0182833D01*
X0332850Y0185333D01*
X0330350Y0187833D01*
X0330350Y0192833D01*
X0332850Y0195333D01*
X0330350Y0197833D01*
X0330350Y0202833D01*
X0330350Y0197833D01*
X0327850Y0195333D01*
X0330350Y0192833D01*
X0330350Y0187833D01*
X0327850Y0185333D01*
X0330350Y0182833D01*
X0330350Y0177833D01*
X0327850Y0175333D01*
X0322850Y0175333D01*
X0320350Y0177833D01*
X0320350Y0182833D01*
X0322850Y0185333D01*
X0320350Y0187833D01*
X0320350Y0192833D01*
X0322850Y0195333D01*
X0320350Y0197833D01*
X0320350Y0202833D01*
X0320350Y0197833D01*
X0317850Y0195333D01*
X0320350Y0192833D01*
X0320350Y0187833D01*
X0317850Y0185333D01*
X0320350Y0182833D01*
X0320350Y0177833D01*
X0317850Y0175333D01*
X0312850Y0175333D01*
X0310350Y0177833D01*
X0310350Y0182833D01*
X0312850Y0185333D01*
X0310350Y0187833D01*
X0310350Y0192833D01*
X0312850Y0195333D01*
X0310350Y0197833D01*
X0310350Y0202833D01*
X0310350Y0197833D01*
X0307850Y0195333D01*
X0310350Y0192833D01*
X0310350Y0187833D01*
X0307850Y0185333D01*
X0310350Y0182833D01*
X0310350Y0177833D01*
X0307850Y0175333D01*
X0302850Y0175333D01*
X0300350Y0177833D01*
X0300350Y0182833D01*
X0302850Y0185333D01*
X0300350Y0187833D01*
X0300350Y0192833D01*
X0302850Y0195333D01*
X0300350Y0197833D01*
X0300350Y0202833D01*
X0300350Y0197833D01*
X0297850Y0195333D01*
X0300350Y0192833D01*
X0300350Y0187833D01*
X0297850Y0185333D01*
X0300350Y0182833D01*
X0300350Y0177833D01*
X0297850Y0175333D01*
X0292850Y0175333D01*
X0290350Y0177833D01*
X0290350Y0182833D01*
X0292850Y0185333D01*
X0290350Y0187833D01*
X0290350Y0192833D01*
X0292850Y0195333D01*
X0290350Y0197833D01*
X0290350Y0202833D01*
X0290350Y0197833D01*
X0287850Y0195333D01*
X0290350Y0192833D01*
X0290350Y0187833D01*
X0287850Y0185333D01*
X0290350Y0182833D01*
X0290350Y0177833D01*
X0287850Y0175333D01*
X0282850Y0175333D01*
X0280350Y0177833D01*
X0280350Y0182833D01*
X0282850Y0185333D01*
X0280350Y0187833D01*
X0280350Y0192833D01*
X0282850Y0195333D01*
X0280350Y0197833D01*
X0280350Y0202833D01*
X0280350Y0197833D01*
X0277850Y0195333D01*
X0280350Y0192833D01*
X0280350Y0187833D01*
X0277850Y0185333D01*
X0280350Y0182833D01*
X0280350Y0177833D01*
X0277850Y0175333D01*
X0272850Y0175333D01*
X0270350Y0177833D01*
X0270350Y0182833D01*
X0272850Y0185333D01*
X0270350Y0187833D01*
X0270350Y0192833D01*
X0272850Y0195333D01*
X0270350Y0197833D01*
X0350350Y0204833D02*
X0350350Y0209833D01*
X0414350Y0194333D02*
X0414350Y0189333D01*
X0405850Y0196833D02*
X0405854Y0197164D01*
X0405866Y0197495D01*
X0405887Y0197826D01*
X0405915Y0198156D01*
X0405952Y0198486D01*
X0405996Y0198814D01*
X0406049Y0199141D01*
X0406109Y0199467D01*
X0406178Y0199791D01*
X0406255Y0200113D01*
X0406339Y0200434D01*
X0406431Y0200752D01*
X0406531Y0201068D01*
X0406639Y0201381D01*
X0406755Y0201692D01*
X0406878Y0201999D01*
X0407008Y0202304D01*
X0407146Y0202605D01*
X0407291Y0202903D01*
X0407444Y0203197D01*
X0407604Y0203487D01*
X0407771Y0203773D01*
X0407944Y0204055D01*
X0408125Y0204333D01*
X0408313Y0204606D01*
X0408507Y0204875D01*
X0408707Y0205139D01*
X0408914Y0205397D01*
X0409128Y0205651D01*
X0409347Y0205899D01*
X0409573Y0206142D01*
X0409804Y0206379D01*
X0410041Y0206610D01*
X0410284Y0206836D01*
X0410532Y0207055D01*
X0410786Y0207269D01*
X0411044Y0207476D01*
X0411308Y0207676D01*
X0411577Y0207870D01*
X0411850Y0208058D01*
X0412128Y0208239D01*
X0412410Y0208412D01*
X0412696Y0208579D01*
X0412986Y0208739D01*
X0413280Y0208892D01*
X0413578Y0209037D01*
X0413879Y0209175D01*
X0414184Y0209305D01*
X0414491Y0209428D01*
X0414802Y0209544D01*
X0415115Y0209652D01*
X0415431Y0209752D01*
X0415749Y0209844D01*
X0416070Y0209928D01*
X0416392Y0210005D01*
X0416716Y0210074D01*
X0417042Y0210134D01*
X0417369Y0210187D01*
X0417697Y0210231D01*
X0418027Y0210268D01*
X0418357Y0210296D01*
X0418688Y0210317D01*
X0419019Y0210329D01*
X0419350Y0210333D01*
X0419681Y0210329D01*
X0420012Y0210317D01*
X0420343Y0210296D01*
X0420673Y0210268D01*
X0421003Y0210231D01*
X0421331Y0210187D01*
X0421658Y0210134D01*
X0421984Y0210074D01*
X0422308Y0210005D01*
X0422630Y0209928D01*
X0422951Y0209844D01*
X0423269Y0209752D01*
X0423585Y0209652D01*
X0423898Y0209544D01*
X0424209Y0209428D01*
X0424516Y0209305D01*
X0424821Y0209175D01*
X0425122Y0209037D01*
X0425420Y0208892D01*
X0425714Y0208739D01*
X0426004Y0208579D01*
X0426290Y0208412D01*
X0426572Y0208239D01*
X0426850Y0208058D01*
X0427123Y0207870D01*
X0427392Y0207676D01*
X0427656Y0207476D01*
X0427914Y0207269D01*
X0428168Y0207055D01*
X0428416Y0206836D01*
X0428659Y0206610D01*
X0428896Y0206379D01*
X0429127Y0206142D01*
X0429353Y0205899D01*
X0429572Y0205651D01*
X0429786Y0205397D01*
X0429993Y0205139D01*
X0430193Y0204875D01*
X0430387Y0204606D01*
X0430575Y0204333D01*
X0430756Y0204055D01*
X0430929Y0203773D01*
X0431096Y0203487D01*
X0431256Y0203197D01*
X0431409Y0202903D01*
X0431554Y0202605D01*
X0431692Y0202304D01*
X0431822Y0201999D01*
X0431945Y0201692D01*
X0432061Y0201381D01*
X0432169Y0201068D01*
X0432269Y0200752D01*
X0432361Y0200434D01*
X0432445Y0200113D01*
X0432522Y0199791D01*
X0432591Y0199467D01*
X0432651Y0199141D01*
X0432704Y0198814D01*
X0432748Y0198486D01*
X0432785Y0198156D01*
X0432813Y0197826D01*
X0432834Y0197495D01*
X0432846Y0197164D01*
X0432850Y0196833D01*
X0432846Y0196502D01*
X0432834Y0196171D01*
X0432813Y0195840D01*
X0432785Y0195510D01*
X0432748Y0195180D01*
X0432704Y0194852D01*
X0432651Y0194525D01*
X0432591Y0194199D01*
X0432522Y0193875D01*
X0432445Y0193553D01*
X0432361Y0193232D01*
X0432269Y0192914D01*
X0432169Y0192598D01*
X0432061Y0192285D01*
X0431945Y0191974D01*
X0431822Y0191667D01*
X0431692Y0191362D01*
X0431554Y0191061D01*
X0431409Y0190763D01*
X0431256Y0190469D01*
X0431096Y0190179D01*
X0430929Y0189893D01*
X0430756Y0189611D01*
X0430575Y0189333D01*
X0430387Y0189060D01*
X0430193Y0188791D01*
X0429993Y0188527D01*
X0429786Y0188269D01*
X0429572Y0188015D01*
X0429353Y0187767D01*
X0429127Y0187524D01*
X0428896Y0187287D01*
X0428659Y0187056D01*
X0428416Y0186830D01*
X0428168Y0186611D01*
X0427914Y0186397D01*
X0427656Y0186190D01*
X0427392Y0185990D01*
X0427123Y0185796D01*
X0426850Y0185608D01*
X0426572Y0185427D01*
X0426290Y0185254D01*
X0426004Y0185087D01*
X0425714Y0184927D01*
X0425420Y0184774D01*
X0425122Y0184629D01*
X0424821Y0184491D01*
X0424516Y0184361D01*
X0424209Y0184238D01*
X0423898Y0184122D01*
X0423585Y0184014D01*
X0423269Y0183914D01*
X0422951Y0183822D01*
X0422630Y0183738D01*
X0422308Y0183661D01*
X0421984Y0183592D01*
X0421658Y0183532D01*
X0421331Y0183479D01*
X0421003Y0183435D01*
X0420673Y0183398D01*
X0420343Y0183370D01*
X0420012Y0183349D01*
X0419681Y0183337D01*
X0419350Y0183333D01*
X0419019Y0183337D01*
X0418688Y0183349D01*
X0418357Y0183370D01*
X0418027Y0183398D01*
X0417697Y0183435D01*
X0417369Y0183479D01*
X0417042Y0183532D01*
X0416716Y0183592D01*
X0416392Y0183661D01*
X0416070Y0183738D01*
X0415749Y0183822D01*
X0415431Y0183914D01*
X0415115Y0184014D01*
X0414802Y0184122D01*
X0414491Y0184238D01*
X0414184Y0184361D01*
X0413879Y0184491D01*
X0413578Y0184629D01*
X0413280Y0184774D01*
X0412986Y0184927D01*
X0412696Y0185087D01*
X0412410Y0185254D01*
X0412128Y0185427D01*
X0411850Y0185608D01*
X0411577Y0185796D01*
X0411308Y0185990D01*
X0411044Y0186190D01*
X0410786Y0186397D01*
X0410532Y0186611D01*
X0410284Y0186830D01*
X0410041Y0187056D01*
X0409804Y0187287D01*
X0409573Y0187524D01*
X0409347Y0187767D01*
X0409128Y0188015D01*
X0408914Y0188269D01*
X0408707Y0188527D01*
X0408507Y0188791D01*
X0408313Y0189060D01*
X0408125Y0189333D01*
X0407944Y0189611D01*
X0407771Y0189893D01*
X0407604Y0190179D01*
X0407444Y0190469D01*
X0407291Y0190763D01*
X0407146Y0191061D01*
X0407008Y0191362D01*
X0406878Y0191667D01*
X0406755Y0191974D01*
X0406639Y0192285D01*
X0406531Y0192598D01*
X0406431Y0192914D01*
X0406339Y0193232D01*
X0406255Y0193553D01*
X0406178Y0193875D01*
X0406109Y0194199D01*
X0406049Y0194525D01*
X0405996Y0194852D01*
X0405952Y0195180D01*
X0405915Y0195510D01*
X0405887Y0195840D01*
X0405866Y0196171D01*
X0405854Y0196502D01*
X0405850Y0196833D01*
X0418350Y0180833D02*
X0418350Y0175833D01*
X0427746Y0173738D02*
X0429148Y0172337D01*
X0427746Y0173738D02*
X0431950Y0173738D01*
X0431950Y0172337D02*
X0431950Y0175140D01*
X0431950Y0170536D02*
X0427746Y0170536D01*
X0429148Y0169135D01*
X0427746Y0167733D01*
X0431950Y0167733D01*
X0436964Y0159278D02*
X0461374Y0159278D01*
X0461374Y0113609D01*
X0436964Y0113609D01*
X0436964Y0159278D01*
X0436964Y0157113D02*
X0461374Y0157113D01*
X0461374Y0184672D01*
X0464523Y0184672D01*
X0464523Y0157113D01*
X0461374Y0157113D01*
X0461374Y0159278D02*
X0464523Y0159278D01*
X0464523Y0113609D01*
X0461374Y0113609D01*
X0461374Y0115774D02*
X0461374Y0088215D01*
X0436964Y0088215D01*
X0436964Y0115774D01*
X0461374Y0115774D01*
X0464523Y0115774D01*
X0464523Y0088215D01*
X0461374Y0088215D01*
X0461374Y0090416D02*
X0461374Y0044747D01*
X0436964Y0044747D01*
X0436964Y0090416D01*
X0461374Y0090416D01*
X0464523Y0090416D01*
X0464523Y0044747D01*
X0461374Y0044747D01*
X0432950Y0057733D02*
X0428746Y0057733D01*
X0430148Y0059135D01*
X0428746Y0060536D01*
X0432950Y0060536D01*
X0430848Y0062337D02*
X0430848Y0065140D01*
X0432950Y0064439D02*
X0428746Y0064439D01*
X0430848Y0062337D01*
X0418850Y0060833D02*
X0418850Y0065833D01*
X0418850Y0075833D02*
X0418850Y0080833D01*
X0428746Y0080337D02*
X0432950Y0083140D01*
X0428746Y0083140D01*
X0428746Y0084941D02*
X0428746Y0087043D01*
X0429447Y0087744D01*
X0432249Y0087744D01*
X0432950Y0087043D01*
X0432950Y0084941D01*
X0428746Y0084941D01*
X0428746Y0080337D02*
X0432950Y0080337D01*
X0432249Y0078536D02*
X0430848Y0078536D01*
X0430848Y0077135D01*
X0429447Y0078536D02*
X0428746Y0077835D01*
X0428746Y0076434D01*
X0429447Y0075733D01*
X0432249Y0075733D01*
X0432950Y0076434D01*
X0432950Y0077835D01*
X0432249Y0078536D01*
X0418850Y0090833D02*
X0418850Y0095833D01*
X0428246Y0096733D02*
X0429648Y0098135D01*
X0428246Y0099536D01*
X0432450Y0099536D01*
X0431749Y0101337D02*
X0432450Y0102038D01*
X0432450Y0103439D01*
X0431749Y0104140D01*
X0431049Y0104140D01*
X0430348Y0103439D01*
X0430348Y0102738D01*
X0430348Y0103439D02*
X0429648Y0104140D01*
X0428947Y0104140D01*
X0428246Y0103439D01*
X0428246Y0102038D01*
X0428947Y0101337D01*
X0428246Y0096733D02*
X0432450Y0096733D01*
X0412350Y0105833D02*
X0412350Y0110833D01*
X0403850Y0113333D02*
X0403854Y0113664D01*
X0403866Y0113995D01*
X0403887Y0114326D01*
X0403915Y0114656D01*
X0403952Y0114986D01*
X0403996Y0115314D01*
X0404049Y0115641D01*
X0404109Y0115967D01*
X0404178Y0116291D01*
X0404255Y0116613D01*
X0404339Y0116934D01*
X0404431Y0117252D01*
X0404531Y0117568D01*
X0404639Y0117881D01*
X0404755Y0118192D01*
X0404878Y0118499D01*
X0405008Y0118804D01*
X0405146Y0119105D01*
X0405291Y0119403D01*
X0405444Y0119697D01*
X0405604Y0119987D01*
X0405771Y0120273D01*
X0405944Y0120555D01*
X0406125Y0120833D01*
X0406313Y0121106D01*
X0406507Y0121375D01*
X0406707Y0121639D01*
X0406914Y0121897D01*
X0407128Y0122151D01*
X0407347Y0122399D01*
X0407573Y0122642D01*
X0407804Y0122879D01*
X0408041Y0123110D01*
X0408284Y0123336D01*
X0408532Y0123555D01*
X0408786Y0123769D01*
X0409044Y0123976D01*
X0409308Y0124176D01*
X0409577Y0124370D01*
X0409850Y0124558D01*
X0410128Y0124739D01*
X0410410Y0124912D01*
X0410696Y0125079D01*
X0410986Y0125239D01*
X0411280Y0125392D01*
X0411578Y0125537D01*
X0411879Y0125675D01*
X0412184Y0125805D01*
X0412491Y0125928D01*
X0412802Y0126044D01*
X0413115Y0126152D01*
X0413431Y0126252D01*
X0413749Y0126344D01*
X0414070Y0126428D01*
X0414392Y0126505D01*
X0414716Y0126574D01*
X0415042Y0126634D01*
X0415369Y0126687D01*
X0415697Y0126731D01*
X0416027Y0126768D01*
X0416357Y0126796D01*
X0416688Y0126817D01*
X0417019Y0126829D01*
X0417350Y0126833D01*
X0417681Y0126829D01*
X0418012Y0126817D01*
X0418343Y0126796D01*
X0418673Y0126768D01*
X0419003Y0126731D01*
X0419331Y0126687D01*
X0419658Y0126634D01*
X0419984Y0126574D01*
X0420308Y0126505D01*
X0420630Y0126428D01*
X0420951Y0126344D01*
X0421269Y0126252D01*
X0421585Y0126152D01*
X0421898Y0126044D01*
X0422209Y0125928D01*
X0422516Y0125805D01*
X0422821Y0125675D01*
X0423122Y0125537D01*
X0423420Y0125392D01*
X0423714Y0125239D01*
X0424004Y0125079D01*
X0424290Y0124912D01*
X0424572Y0124739D01*
X0424850Y0124558D01*
X0425123Y0124370D01*
X0425392Y0124176D01*
X0425656Y0123976D01*
X0425914Y0123769D01*
X0426168Y0123555D01*
X0426416Y0123336D01*
X0426659Y0123110D01*
X0426896Y0122879D01*
X0427127Y0122642D01*
X0427353Y0122399D01*
X0427572Y0122151D01*
X0427786Y0121897D01*
X0427993Y0121639D01*
X0428193Y0121375D01*
X0428387Y0121106D01*
X0428575Y0120833D01*
X0428756Y0120555D01*
X0428929Y0120273D01*
X0429096Y0119987D01*
X0429256Y0119697D01*
X0429409Y0119403D01*
X0429554Y0119105D01*
X0429692Y0118804D01*
X0429822Y0118499D01*
X0429945Y0118192D01*
X0430061Y0117881D01*
X0430169Y0117568D01*
X0430269Y0117252D01*
X0430361Y0116934D01*
X0430445Y0116613D01*
X0430522Y0116291D01*
X0430591Y0115967D01*
X0430651Y0115641D01*
X0430704Y0115314D01*
X0430748Y0114986D01*
X0430785Y0114656D01*
X0430813Y0114326D01*
X0430834Y0113995D01*
X0430846Y0113664D01*
X0430850Y0113333D01*
X0430846Y0113002D01*
X0430834Y0112671D01*
X0430813Y0112340D01*
X0430785Y0112010D01*
X0430748Y0111680D01*
X0430704Y0111352D01*
X0430651Y0111025D01*
X0430591Y0110699D01*
X0430522Y0110375D01*
X0430445Y0110053D01*
X0430361Y0109732D01*
X0430269Y0109414D01*
X0430169Y0109098D01*
X0430061Y0108785D01*
X0429945Y0108474D01*
X0429822Y0108167D01*
X0429692Y0107862D01*
X0429554Y0107561D01*
X0429409Y0107263D01*
X0429256Y0106969D01*
X0429096Y0106679D01*
X0428929Y0106393D01*
X0428756Y0106111D01*
X0428575Y0105833D01*
X0428387Y0105560D01*
X0428193Y0105291D01*
X0427993Y0105027D01*
X0427786Y0104769D01*
X0427572Y0104515D01*
X0427353Y0104267D01*
X0427127Y0104024D01*
X0426896Y0103787D01*
X0426659Y0103556D01*
X0426416Y0103330D01*
X0426168Y0103111D01*
X0425914Y0102897D01*
X0425656Y0102690D01*
X0425392Y0102490D01*
X0425123Y0102296D01*
X0424850Y0102108D01*
X0424572Y0101927D01*
X0424290Y0101754D01*
X0424004Y0101587D01*
X0423714Y0101427D01*
X0423420Y0101274D01*
X0423122Y0101129D01*
X0422821Y0100991D01*
X0422516Y0100861D01*
X0422209Y0100738D01*
X0421898Y0100622D01*
X0421585Y0100514D01*
X0421269Y0100414D01*
X0420951Y0100322D01*
X0420630Y0100238D01*
X0420308Y0100161D01*
X0419984Y0100092D01*
X0419658Y0100032D01*
X0419331Y0099979D01*
X0419003Y0099935D01*
X0418673Y0099898D01*
X0418343Y0099870D01*
X0418012Y0099849D01*
X0417681Y0099837D01*
X0417350Y0099833D01*
X0417019Y0099837D01*
X0416688Y0099849D01*
X0416357Y0099870D01*
X0416027Y0099898D01*
X0415697Y0099935D01*
X0415369Y0099979D01*
X0415042Y0100032D01*
X0414716Y0100092D01*
X0414392Y0100161D01*
X0414070Y0100238D01*
X0413749Y0100322D01*
X0413431Y0100414D01*
X0413115Y0100514D01*
X0412802Y0100622D01*
X0412491Y0100738D01*
X0412184Y0100861D01*
X0411879Y0100991D01*
X0411578Y0101129D01*
X0411280Y0101274D01*
X0410986Y0101427D01*
X0410696Y0101587D01*
X0410410Y0101754D01*
X0410128Y0101927D01*
X0409850Y0102108D01*
X0409577Y0102296D01*
X0409308Y0102490D01*
X0409044Y0102690D01*
X0408786Y0102897D01*
X0408532Y0103111D01*
X0408284Y0103330D01*
X0408041Y0103556D01*
X0407804Y0103787D01*
X0407573Y0104024D01*
X0407347Y0104267D01*
X0407128Y0104515D01*
X0406914Y0104769D01*
X0406707Y0105027D01*
X0406507Y0105291D01*
X0406313Y0105560D01*
X0406125Y0105833D01*
X0405944Y0106111D01*
X0405771Y0106393D01*
X0405604Y0106679D01*
X0405444Y0106969D01*
X0405291Y0107263D01*
X0405146Y0107561D01*
X0405008Y0107862D01*
X0404878Y0108167D01*
X0404755Y0108474D01*
X0404639Y0108785D01*
X0404531Y0109098D01*
X0404431Y0109414D01*
X0404339Y0109732D01*
X0404255Y0110053D01*
X0404178Y0110375D01*
X0404109Y0110699D01*
X0404049Y0111025D01*
X0403996Y0111352D01*
X0403952Y0111680D01*
X0403915Y0112010D01*
X0403887Y0112340D01*
X0403866Y0112671D01*
X0403854Y0113002D01*
X0403850Y0113333D01*
X0428246Y0126733D02*
X0429648Y0128135D01*
X0428246Y0129536D01*
X0432450Y0129536D01*
X0432450Y0131337D02*
X0429648Y0134140D01*
X0428947Y0134140D01*
X0428246Y0133439D01*
X0428246Y0132038D01*
X0428947Y0131337D01*
X0432450Y0131337D02*
X0432450Y0134140D01*
X0432450Y0126733D02*
X0428246Y0126733D01*
X0418350Y0130833D02*
X0418350Y0135833D01*
X0428246Y0144934D02*
X0428947Y0144233D01*
X0431749Y0144233D01*
X0432450Y0144934D01*
X0432450Y0146335D01*
X0431749Y0147036D01*
X0430348Y0147036D01*
X0430348Y0145635D01*
X0428947Y0147036D02*
X0428246Y0146335D01*
X0428246Y0144934D01*
X0428246Y0148837D02*
X0432450Y0151640D01*
X0428246Y0151640D01*
X0428246Y0153441D02*
X0428246Y0155543D01*
X0428947Y0156244D01*
X0431749Y0156244D01*
X0432450Y0155543D01*
X0432450Y0153441D01*
X0428246Y0153441D01*
X0428246Y0148837D02*
X0432450Y0148837D01*
X0418350Y0150833D02*
X0418350Y0145833D01*
X0436964Y0157113D02*
X0436964Y0184672D01*
X0461374Y0184672D01*
X0418350Y0165833D02*
X0418350Y0160833D01*
X0340350Y0125833D02*
X0340350Y0120833D01*
X0265350Y0093333D02*
X0260350Y0093333D01*
X0260350Y0083333D01*
X0265350Y0083333D01*
X0260350Y0083333D02*
X0215350Y0083333D01*
X0215210Y0083335D01*
X0215070Y0083341D01*
X0214930Y0083351D01*
X0214790Y0083364D01*
X0214651Y0083382D01*
X0214512Y0083404D01*
X0214375Y0083429D01*
X0214237Y0083458D01*
X0214101Y0083491D01*
X0213966Y0083528D01*
X0213832Y0083569D01*
X0213699Y0083614D01*
X0213567Y0083662D01*
X0213437Y0083714D01*
X0213308Y0083769D01*
X0213181Y0083828D01*
X0213055Y0083891D01*
X0212931Y0083957D01*
X0212810Y0084026D01*
X0212690Y0084099D01*
X0212572Y0084176D01*
X0212457Y0084255D01*
X0212343Y0084338D01*
X0212233Y0084424D01*
X0212124Y0084513D01*
X0212018Y0084605D01*
X0211915Y0084700D01*
X0211814Y0084797D01*
X0211717Y0084898D01*
X0211622Y0085001D01*
X0211530Y0085107D01*
X0211441Y0085216D01*
X0211355Y0085326D01*
X0211272Y0085440D01*
X0211193Y0085555D01*
X0211116Y0085673D01*
X0211043Y0085793D01*
X0210974Y0085914D01*
X0210908Y0086038D01*
X0210845Y0086164D01*
X0210786Y0086291D01*
X0210731Y0086420D01*
X0210679Y0086550D01*
X0210631Y0086682D01*
X0210586Y0086815D01*
X0210545Y0086949D01*
X0210508Y0087084D01*
X0210475Y0087220D01*
X0210446Y0087358D01*
X0210421Y0087495D01*
X0210399Y0087634D01*
X0210381Y0087773D01*
X0210368Y0087913D01*
X0210358Y0088053D01*
X0210352Y0088193D01*
X0210350Y0088333D01*
X0210352Y0088473D01*
X0210358Y0088613D01*
X0210368Y0088753D01*
X0210381Y0088893D01*
X0210399Y0089032D01*
X0210421Y0089171D01*
X0210446Y0089308D01*
X0210475Y0089446D01*
X0210508Y0089582D01*
X0210545Y0089717D01*
X0210586Y0089851D01*
X0210631Y0089984D01*
X0210679Y0090116D01*
X0210731Y0090246D01*
X0210786Y0090375D01*
X0210845Y0090502D01*
X0210908Y0090628D01*
X0210974Y0090752D01*
X0211043Y0090873D01*
X0211116Y0090993D01*
X0211193Y0091111D01*
X0211272Y0091226D01*
X0211355Y0091340D01*
X0211441Y0091450D01*
X0211530Y0091559D01*
X0211622Y0091665D01*
X0211717Y0091768D01*
X0211814Y0091869D01*
X0211915Y0091966D01*
X0212018Y0092061D01*
X0212124Y0092153D01*
X0212233Y0092242D01*
X0212343Y0092328D01*
X0212457Y0092411D01*
X0212572Y0092490D01*
X0212690Y0092567D01*
X0212810Y0092640D01*
X0212931Y0092709D01*
X0213055Y0092775D01*
X0213181Y0092838D01*
X0213308Y0092897D01*
X0213437Y0092952D01*
X0213567Y0093004D01*
X0213699Y0093052D01*
X0213832Y0093097D01*
X0213966Y0093138D01*
X0214101Y0093175D01*
X0214237Y0093208D01*
X0214375Y0093237D01*
X0214512Y0093262D01*
X0214651Y0093284D01*
X0214790Y0093302D01*
X0214930Y0093315D01*
X0215070Y0093325D01*
X0215210Y0093331D01*
X0215350Y0093333D01*
X0260350Y0093333D01*
X0265350Y0093333D02*
X0265490Y0093331D01*
X0265630Y0093325D01*
X0265770Y0093315D01*
X0265910Y0093302D01*
X0266049Y0093284D01*
X0266188Y0093262D01*
X0266325Y0093237D01*
X0266463Y0093208D01*
X0266599Y0093175D01*
X0266734Y0093138D01*
X0266868Y0093097D01*
X0267001Y0093052D01*
X0267133Y0093004D01*
X0267263Y0092952D01*
X0267392Y0092897D01*
X0267519Y0092838D01*
X0267645Y0092775D01*
X0267769Y0092709D01*
X0267890Y0092640D01*
X0268010Y0092567D01*
X0268128Y0092490D01*
X0268243Y0092411D01*
X0268357Y0092328D01*
X0268467Y0092242D01*
X0268576Y0092153D01*
X0268682Y0092061D01*
X0268785Y0091966D01*
X0268886Y0091869D01*
X0268983Y0091768D01*
X0269078Y0091665D01*
X0269170Y0091559D01*
X0269259Y0091450D01*
X0269345Y0091340D01*
X0269428Y0091226D01*
X0269507Y0091111D01*
X0269584Y0090993D01*
X0269657Y0090873D01*
X0269726Y0090752D01*
X0269792Y0090628D01*
X0269855Y0090502D01*
X0269914Y0090375D01*
X0269969Y0090246D01*
X0270021Y0090116D01*
X0270069Y0089984D01*
X0270114Y0089851D01*
X0270155Y0089717D01*
X0270192Y0089582D01*
X0270225Y0089446D01*
X0270254Y0089308D01*
X0270279Y0089171D01*
X0270301Y0089032D01*
X0270319Y0088893D01*
X0270332Y0088753D01*
X0270342Y0088613D01*
X0270348Y0088473D01*
X0270350Y0088333D01*
X0270348Y0088193D01*
X0270342Y0088053D01*
X0270332Y0087913D01*
X0270319Y0087773D01*
X0270301Y0087634D01*
X0270279Y0087495D01*
X0270254Y0087358D01*
X0270225Y0087220D01*
X0270192Y0087084D01*
X0270155Y0086949D01*
X0270114Y0086815D01*
X0270069Y0086682D01*
X0270021Y0086550D01*
X0269969Y0086420D01*
X0269914Y0086291D01*
X0269855Y0086164D01*
X0269792Y0086038D01*
X0269726Y0085914D01*
X0269657Y0085793D01*
X0269584Y0085673D01*
X0269507Y0085555D01*
X0269428Y0085440D01*
X0269345Y0085326D01*
X0269259Y0085216D01*
X0269170Y0085107D01*
X0269078Y0085001D01*
X0268983Y0084898D01*
X0268886Y0084797D01*
X0268785Y0084700D01*
X0268682Y0084605D01*
X0268576Y0084513D01*
X0268467Y0084424D01*
X0268357Y0084338D01*
X0268243Y0084255D01*
X0268128Y0084176D01*
X0268010Y0084099D01*
X0267890Y0084026D01*
X0267769Y0083957D01*
X0267645Y0083891D01*
X0267519Y0083828D01*
X0267392Y0083769D01*
X0267263Y0083714D01*
X0267133Y0083662D01*
X0267001Y0083614D01*
X0266868Y0083569D01*
X0266734Y0083528D01*
X0266599Y0083491D01*
X0266463Y0083458D01*
X0266325Y0083429D01*
X0266188Y0083404D01*
X0266049Y0083382D01*
X0265910Y0083364D01*
X0265770Y0083351D01*
X0265630Y0083341D01*
X0265490Y0083335D01*
X0265350Y0083333D01*
X0265850Y0055333D02*
X0263350Y0052833D01*
X0263350Y0047833D01*
X0265850Y0045333D01*
X0263350Y0042833D01*
X0263350Y0037833D01*
X0265850Y0035333D01*
X0263350Y0032833D01*
X0263350Y0027833D01*
X0265850Y0025333D01*
X0270850Y0025333D01*
X0273350Y0027833D01*
X0273350Y0032833D01*
X0270850Y0035333D01*
X0273350Y0037833D01*
X0273350Y0042833D01*
X0270850Y0045333D01*
X0273350Y0047833D01*
X0273350Y0052833D01*
X0270850Y0055333D01*
X0265850Y0055333D01*
X0261850Y0052833D02*
X0259350Y0055333D01*
X0254350Y0055333D01*
X0251850Y0052833D01*
X0251850Y0047833D01*
X0254350Y0045333D01*
X0251850Y0042833D01*
X0251850Y0037833D01*
X0254350Y0035333D01*
X0251850Y0032833D01*
X0251850Y0027833D01*
X0254350Y0025333D01*
X0259350Y0025333D01*
X0261850Y0027833D01*
X0261850Y0032833D01*
X0259350Y0035333D01*
X0261850Y0037833D01*
X0261850Y0042833D01*
X0259350Y0045333D01*
X0261850Y0047833D01*
X0261850Y0052833D01*
X0273350Y0052833D02*
X0273350Y0047833D01*
X0275850Y0045333D01*
X0273350Y0042833D01*
X0273350Y0037833D01*
X0275850Y0035333D01*
X0273350Y0032833D01*
X0273350Y0027833D01*
X0275850Y0025333D01*
X0280850Y0025333D01*
X0283350Y0027833D01*
X0283350Y0032833D01*
X0285850Y0035333D01*
X0283350Y0037833D01*
X0283350Y0042833D01*
X0285850Y0045333D01*
X0283350Y0047833D01*
X0283350Y0052833D01*
X0285850Y0055333D01*
X0290850Y0055333D01*
X0293350Y0052833D01*
X0293350Y0047833D01*
X0295850Y0045333D01*
X0293350Y0042833D01*
X0293350Y0037833D01*
X0295850Y0035333D01*
X0293350Y0032833D01*
X0293350Y0027833D01*
X0295850Y0025333D01*
X0300850Y0025333D01*
X0303350Y0027833D01*
X0303350Y0032833D01*
X0300850Y0035333D01*
X0303350Y0037833D01*
X0303350Y0042833D01*
X0300850Y0045333D01*
X0303350Y0047833D01*
X0303350Y0052833D01*
X0300850Y0055333D01*
X0295850Y0055333D01*
X0293350Y0052833D01*
X0293350Y0047833D01*
X0290850Y0045333D01*
X0293350Y0042833D01*
X0293350Y0037833D01*
X0290850Y0035333D01*
X0293350Y0032833D01*
X0293350Y0027833D01*
X0290850Y0025333D01*
X0285850Y0025333D01*
X0283350Y0027833D01*
X0283350Y0032833D01*
X0280850Y0035333D01*
X0283350Y0037833D01*
X0283350Y0042833D01*
X0280850Y0045333D01*
X0283350Y0047833D01*
X0283350Y0052833D01*
X0280850Y0055333D01*
X0275850Y0055333D01*
X0273350Y0052833D01*
X0251850Y0052833D02*
X0251850Y0047833D01*
X0249350Y0045333D01*
X0251850Y0042833D01*
X0251850Y0037833D01*
X0249350Y0035333D01*
X0251850Y0032833D01*
X0251850Y0027833D01*
X0249350Y0025333D01*
X0244350Y0025333D01*
X0241850Y0027833D01*
X0241850Y0032833D01*
X0244350Y0035333D01*
X0241850Y0037833D01*
X0241850Y0042833D01*
X0244350Y0045333D01*
X0241850Y0047833D01*
X0241850Y0052833D01*
X0244350Y0055333D01*
X0249350Y0055333D01*
X0251850Y0052833D01*
X0241850Y0052833D02*
X0241850Y0047833D01*
X0239350Y0045333D01*
X0241850Y0042833D01*
X0241850Y0037833D01*
X0239350Y0035333D01*
X0241850Y0032833D01*
X0241850Y0027833D01*
X0239350Y0025333D01*
X0234350Y0025333D01*
X0231850Y0027833D01*
X0231850Y0032833D01*
X0234350Y0035333D01*
X0231850Y0037833D01*
X0231850Y0042833D01*
X0234350Y0045333D01*
X0231850Y0047833D01*
X0231850Y0052833D01*
X0234350Y0055333D01*
X0239350Y0055333D01*
X0241850Y0052833D01*
X0231850Y0052833D02*
X0231850Y0047833D01*
X0229350Y0045333D01*
X0231850Y0042833D01*
X0231850Y0037833D01*
X0229350Y0035333D01*
X0231850Y0032833D01*
X0231850Y0027833D01*
X0229350Y0025333D01*
X0224350Y0025333D01*
X0221850Y0027833D01*
X0221850Y0032833D01*
X0224350Y0035333D01*
X0221850Y0037833D01*
X0221850Y0042833D01*
X0224350Y0045333D01*
X0221850Y0047833D01*
X0221850Y0052833D01*
X0224350Y0055333D01*
X0229350Y0055333D01*
X0231850Y0052833D01*
X0220350Y0052833D02*
X0220350Y0047833D01*
X0217850Y0045333D01*
X0220350Y0042833D01*
X0220350Y0037833D01*
X0217850Y0035333D01*
X0220350Y0032833D01*
X0220350Y0027833D01*
X0217850Y0025333D01*
X0212850Y0025333D01*
X0210350Y0027833D01*
X0207850Y0025333D01*
X0202850Y0025333D01*
X0200350Y0027833D01*
X0197850Y0025333D01*
X0192850Y0025333D01*
X0190350Y0027833D01*
X0187850Y0025333D01*
X0182850Y0025333D01*
X0180350Y0027833D01*
X0177850Y0025333D01*
X0172850Y0025333D01*
X0170350Y0027833D01*
X0167850Y0025333D01*
X0162850Y0025333D01*
X0160350Y0027833D01*
X0157850Y0025333D01*
X0152850Y0025333D01*
X0150350Y0027833D01*
X0147850Y0025333D01*
X0142850Y0025333D01*
X0140350Y0027833D01*
X0137850Y0025333D01*
X0132850Y0025333D01*
X0130350Y0027833D01*
X0127850Y0025333D01*
X0122850Y0025333D01*
X0120350Y0027833D01*
X0117850Y0025333D01*
X0112850Y0025333D01*
X0110350Y0027833D01*
X0107850Y0025333D01*
X0102850Y0025333D01*
X0100350Y0027833D01*
X0100350Y0032833D01*
X0102850Y0035333D01*
X0100350Y0037833D01*
X0100350Y0042833D01*
X0102850Y0045333D01*
X0100350Y0047833D01*
X0100350Y0052833D01*
X0102850Y0055333D01*
X0107850Y0055333D01*
X0110350Y0052833D01*
X0110350Y0047833D01*
X0107850Y0045333D01*
X0110350Y0042833D01*
X0110350Y0037833D01*
X0107850Y0035333D01*
X0110350Y0032833D01*
X0110350Y0027833D01*
X0110350Y0032833D01*
X0112850Y0035333D01*
X0110350Y0037833D01*
X0110350Y0042833D01*
X0112850Y0045333D01*
X0110350Y0047833D01*
X0110350Y0052833D01*
X0112850Y0055333D01*
X0117850Y0055333D01*
X0120350Y0052833D01*
X0120350Y0047833D01*
X0117850Y0045333D01*
X0120350Y0042833D01*
X0120350Y0037833D01*
X0117850Y0035333D01*
X0120350Y0032833D01*
X0120350Y0027833D01*
X0120350Y0032833D01*
X0122850Y0035333D01*
X0120350Y0037833D01*
X0120350Y0042833D01*
X0122850Y0045333D01*
X0120350Y0047833D01*
X0120350Y0052833D01*
X0122850Y0055333D01*
X0127850Y0055333D01*
X0130350Y0052833D01*
X0130350Y0047833D01*
X0127850Y0045333D01*
X0130350Y0042833D01*
X0130350Y0037833D01*
X0127850Y0035333D01*
X0130350Y0032833D01*
X0130350Y0027833D01*
X0130350Y0032833D01*
X0132850Y0035333D01*
X0130350Y0037833D01*
X0130350Y0042833D01*
X0132850Y0045333D01*
X0130350Y0047833D01*
X0130350Y0052833D01*
X0132850Y0055333D01*
X0137850Y0055333D01*
X0140350Y0052833D01*
X0140350Y0047833D01*
X0137850Y0045333D01*
X0140350Y0042833D01*
X0140350Y0037833D01*
X0137850Y0035333D01*
X0140350Y0032833D01*
X0140350Y0027833D01*
X0140350Y0032833D01*
X0142850Y0035333D01*
X0140350Y0037833D01*
X0140350Y0042833D01*
X0142850Y0045333D01*
X0140350Y0047833D01*
X0140350Y0052833D01*
X0142850Y0055333D01*
X0147850Y0055333D01*
X0150350Y0052833D01*
X0150350Y0047833D01*
X0147850Y0045333D01*
X0150350Y0042833D01*
X0150350Y0037833D01*
X0147850Y0035333D01*
X0150350Y0032833D01*
X0150350Y0027833D01*
X0150350Y0032833D01*
X0152850Y0035333D01*
X0150350Y0037833D01*
X0150350Y0042833D01*
X0152850Y0045333D01*
X0150350Y0047833D01*
X0150350Y0052833D01*
X0152850Y0055333D01*
X0157850Y0055333D01*
X0160350Y0052833D01*
X0160350Y0047833D01*
X0157850Y0045333D01*
X0160350Y0042833D01*
X0160350Y0037833D01*
X0157850Y0035333D01*
X0160350Y0032833D01*
X0160350Y0027833D01*
X0160350Y0032833D01*
X0162850Y0035333D01*
X0160350Y0037833D01*
X0160350Y0042833D01*
X0162850Y0045333D01*
X0160350Y0047833D01*
X0160350Y0052833D01*
X0162850Y0055333D01*
X0167850Y0055333D01*
X0170350Y0052833D01*
X0170350Y0047833D01*
X0167850Y0045333D01*
X0170350Y0042833D01*
X0170350Y0037833D01*
X0167850Y0035333D01*
X0170350Y0032833D01*
X0170350Y0027833D01*
X0170350Y0032833D01*
X0172850Y0035333D01*
X0170350Y0037833D01*
X0170350Y0042833D01*
X0172850Y0045333D01*
X0170350Y0047833D01*
X0170350Y0052833D01*
X0172850Y0055333D01*
X0177850Y0055333D01*
X0180350Y0052833D01*
X0180350Y0047833D01*
X0177850Y0045333D01*
X0180350Y0042833D01*
X0180350Y0037833D01*
X0177850Y0035333D01*
X0180350Y0032833D01*
X0180350Y0027833D01*
X0180350Y0032833D01*
X0182850Y0035333D01*
X0180350Y0037833D01*
X0180350Y0042833D01*
X0182850Y0045333D01*
X0180350Y0047833D01*
X0180350Y0052833D01*
X0182850Y0055333D01*
X0187850Y0055333D01*
X0190350Y0052833D01*
X0190350Y0047833D01*
X0187850Y0045333D01*
X0190350Y0042833D01*
X0190350Y0037833D01*
X0187850Y0035333D01*
X0190350Y0032833D01*
X0190350Y0027833D01*
X0190350Y0032833D01*
X0192850Y0035333D01*
X0190350Y0037833D01*
X0190350Y0042833D01*
X0192850Y0045333D01*
X0190350Y0047833D01*
X0190350Y0052833D01*
X0192850Y0055333D01*
X0197850Y0055333D01*
X0200350Y0052833D01*
X0200350Y0047833D01*
X0197850Y0045333D01*
X0200350Y0042833D01*
X0200350Y0037833D01*
X0197850Y0035333D01*
X0200350Y0032833D01*
X0200350Y0027833D01*
X0200350Y0032833D01*
X0202850Y0035333D01*
X0200350Y0037833D01*
X0200350Y0042833D01*
X0202850Y0045333D01*
X0200350Y0047833D01*
X0200350Y0052833D01*
X0202850Y0055333D01*
X0207850Y0055333D01*
X0210350Y0052833D01*
X0210350Y0047833D01*
X0207850Y0045333D01*
X0210350Y0042833D01*
X0210350Y0037833D01*
X0207850Y0035333D01*
X0210350Y0032833D01*
X0210350Y0027833D01*
X0210350Y0032833D01*
X0212850Y0035333D01*
X0210350Y0037833D01*
X0210350Y0042833D01*
X0212850Y0045333D01*
X0210350Y0047833D01*
X0210350Y0052833D01*
X0212850Y0055333D01*
X0217850Y0055333D01*
X0220350Y0052833D01*
X0204450Y0065333D02*
X0204452Y0065392D01*
X0204458Y0065452D01*
X0204468Y0065510D01*
X0204481Y0065568D01*
X0204499Y0065625D01*
X0204520Y0065681D01*
X0204545Y0065735D01*
X0204573Y0065787D01*
X0204605Y0065838D01*
X0204640Y0065886D01*
X0204678Y0065932D01*
X0204719Y0065975D01*
X0204763Y0066015D01*
X0204809Y0066052D01*
X0204858Y0066086D01*
X0204909Y0066117D01*
X0204961Y0066145D01*
X0205016Y0066169D01*
X0205072Y0066189D01*
X0205129Y0066205D01*
X0205187Y0066218D01*
X0205246Y0066227D01*
X0205305Y0066232D01*
X0205365Y0066233D01*
X0205424Y0066230D01*
X0205483Y0066223D01*
X0205542Y0066212D01*
X0205600Y0066198D01*
X0205656Y0066179D01*
X0205712Y0066157D01*
X0205765Y0066132D01*
X0205817Y0066102D01*
X0205867Y0066070D01*
X0205914Y0066034D01*
X0205960Y0065995D01*
X0206002Y0065953D01*
X0206042Y0065909D01*
X0206078Y0065862D01*
X0206111Y0065813D01*
X0206142Y0065761D01*
X0206168Y0065708D01*
X0206191Y0065653D01*
X0206210Y0065597D01*
X0206226Y0065539D01*
X0206238Y0065481D01*
X0206246Y0065422D01*
X0206250Y0065363D01*
X0206250Y0065303D01*
X0206246Y0065244D01*
X0206238Y0065185D01*
X0206226Y0065127D01*
X0206210Y0065069D01*
X0206191Y0065013D01*
X0206168Y0064958D01*
X0206142Y0064905D01*
X0206111Y0064853D01*
X0206078Y0064804D01*
X0206042Y0064757D01*
X0206002Y0064713D01*
X0205960Y0064671D01*
X0205914Y0064632D01*
X0205867Y0064596D01*
X0205817Y0064564D01*
X0205765Y0064534D01*
X0205712Y0064509D01*
X0205656Y0064487D01*
X0205600Y0064468D01*
X0205542Y0064454D01*
X0205483Y0064443D01*
X0205424Y0064436D01*
X0205365Y0064433D01*
X0205305Y0064434D01*
X0205246Y0064439D01*
X0205187Y0064448D01*
X0205129Y0064461D01*
X0205072Y0064477D01*
X0205016Y0064497D01*
X0204961Y0064521D01*
X0204909Y0064549D01*
X0204858Y0064580D01*
X0204809Y0064614D01*
X0204763Y0064651D01*
X0204719Y0064691D01*
X0204678Y0064734D01*
X0204640Y0064780D01*
X0204605Y0064828D01*
X0204573Y0064879D01*
X0204545Y0064931D01*
X0204520Y0064985D01*
X0204499Y0065041D01*
X0204481Y0065098D01*
X0204468Y0065156D01*
X0204458Y0065214D01*
X0204452Y0065274D01*
X0204450Y0065333D01*
X0194450Y0063833D02*
X0194452Y0063892D01*
X0194458Y0063952D01*
X0194468Y0064010D01*
X0194481Y0064068D01*
X0194499Y0064125D01*
X0194520Y0064181D01*
X0194545Y0064235D01*
X0194573Y0064287D01*
X0194605Y0064338D01*
X0194640Y0064386D01*
X0194678Y0064432D01*
X0194719Y0064475D01*
X0194763Y0064515D01*
X0194809Y0064552D01*
X0194858Y0064586D01*
X0194909Y0064617D01*
X0194961Y0064645D01*
X0195016Y0064669D01*
X0195072Y0064689D01*
X0195129Y0064705D01*
X0195187Y0064718D01*
X0195246Y0064727D01*
X0195305Y0064732D01*
X0195365Y0064733D01*
X0195424Y0064730D01*
X0195483Y0064723D01*
X0195542Y0064712D01*
X0195600Y0064698D01*
X0195656Y0064679D01*
X0195712Y0064657D01*
X0195765Y0064632D01*
X0195817Y0064602D01*
X0195867Y0064570D01*
X0195914Y0064534D01*
X0195960Y0064495D01*
X0196002Y0064453D01*
X0196042Y0064409D01*
X0196078Y0064362D01*
X0196111Y0064313D01*
X0196142Y0064261D01*
X0196168Y0064208D01*
X0196191Y0064153D01*
X0196210Y0064097D01*
X0196226Y0064039D01*
X0196238Y0063981D01*
X0196246Y0063922D01*
X0196250Y0063863D01*
X0196250Y0063803D01*
X0196246Y0063744D01*
X0196238Y0063685D01*
X0196226Y0063627D01*
X0196210Y0063569D01*
X0196191Y0063513D01*
X0196168Y0063458D01*
X0196142Y0063405D01*
X0196111Y0063353D01*
X0196078Y0063304D01*
X0196042Y0063257D01*
X0196002Y0063213D01*
X0195960Y0063171D01*
X0195914Y0063132D01*
X0195867Y0063096D01*
X0195817Y0063064D01*
X0195765Y0063034D01*
X0195712Y0063009D01*
X0195656Y0062987D01*
X0195600Y0062968D01*
X0195542Y0062954D01*
X0195483Y0062943D01*
X0195424Y0062936D01*
X0195365Y0062933D01*
X0195305Y0062934D01*
X0195246Y0062939D01*
X0195187Y0062948D01*
X0195129Y0062961D01*
X0195072Y0062977D01*
X0195016Y0062997D01*
X0194961Y0063021D01*
X0194909Y0063049D01*
X0194858Y0063080D01*
X0194809Y0063114D01*
X0194763Y0063151D01*
X0194719Y0063191D01*
X0194678Y0063234D01*
X0194640Y0063280D01*
X0194605Y0063328D01*
X0194573Y0063379D01*
X0194545Y0063431D01*
X0194520Y0063485D01*
X0194499Y0063541D01*
X0194481Y0063598D01*
X0194468Y0063656D01*
X0194458Y0063714D01*
X0194452Y0063774D01*
X0194450Y0063833D01*
X0184450Y0063833D02*
X0184452Y0063892D01*
X0184458Y0063952D01*
X0184468Y0064010D01*
X0184481Y0064068D01*
X0184499Y0064125D01*
X0184520Y0064181D01*
X0184545Y0064235D01*
X0184573Y0064287D01*
X0184605Y0064338D01*
X0184640Y0064386D01*
X0184678Y0064432D01*
X0184719Y0064475D01*
X0184763Y0064515D01*
X0184809Y0064552D01*
X0184858Y0064586D01*
X0184909Y0064617D01*
X0184961Y0064645D01*
X0185016Y0064669D01*
X0185072Y0064689D01*
X0185129Y0064705D01*
X0185187Y0064718D01*
X0185246Y0064727D01*
X0185305Y0064732D01*
X0185365Y0064733D01*
X0185424Y0064730D01*
X0185483Y0064723D01*
X0185542Y0064712D01*
X0185600Y0064698D01*
X0185656Y0064679D01*
X0185712Y0064657D01*
X0185765Y0064632D01*
X0185817Y0064602D01*
X0185867Y0064570D01*
X0185914Y0064534D01*
X0185960Y0064495D01*
X0186002Y0064453D01*
X0186042Y0064409D01*
X0186078Y0064362D01*
X0186111Y0064313D01*
X0186142Y0064261D01*
X0186168Y0064208D01*
X0186191Y0064153D01*
X0186210Y0064097D01*
X0186226Y0064039D01*
X0186238Y0063981D01*
X0186246Y0063922D01*
X0186250Y0063863D01*
X0186250Y0063803D01*
X0186246Y0063744D01*
X0186238Y0063685D01*
X0186226Y0063627D01*
X0186210Y0063569D01*
X0186191Y0063513D01*
X0186168Y0063458D01*
X0186142Y0063405D01*
X0186111Y0063353D01*
X0186078Y0063304D01*
X0186042Y0063257D01*
X0186002Y0063213D01*
X0185960Y0063171D01*
X0185914Y0063132D01*
X0185867Y0063096D01*
X0185817Y0063064D01*
X0185765Y0063034D01*
X0185712Y0063009D01*
X0185656Y0062987D01*
X0185600Y0062968D01*
X0185542Y0062954D01*
X0185483Y0062943D01*
X0185424Y0062936D01*
X0185365Y0062933D01*
X0185305Y0062934D01*
X0185246Y0062939D01*
X0185187Y0062948D01*
X0185129Y0062961D01*
X0185072Y0062977D01*
X0185016Y0062997D01*
X0184961Y0063021D01*
X0184909Y0063049D01*
X0184858Y0063080D01*
X0184809Y0063114D01*
X0184763Y0063151D01*
X0184719Y0063191D01*
X0184678Y0063234D01*
X0184640Y0063280D01*
X0184605Y0063328D01*
X0184573Y0063379D01*
X0184545Y0063431D01*
X0184520Y0063485D01*
X0184499Y0063541D01*
X0184481Y0063598D01*
X0184468Y0063656D01*
X0184458Y0063714D01*
X0184452Y0063774D01*
X0184450Y0063833D01*
X0174450Y0063833D02*
X0174452Y0063892D01*
X0174458Y0063952D01*
X0174468Y0064010D01*
X0174481Y0064068D01*
X0174499Y0064125D01*
X0174520Y0064181D01*
X0174545Y0064235D01*
X0174573Y0064287D01*
X0174605Y0064338D01*
X0174640Y0064386D01*
X0174678Y0064432D01*
X0174719Y0064475D01*
X0174763Y0064515D01*
X0174809Y0064552D01*
X0174858Y0064586D01*
X0174909Y0064617D01*
X0174961Y0064645D01*
X0175016Y0064669D01*
X0175072Y0064689D01*
X0175129Y0064705D01*
X0175187Y0064718D01*
X0175246Y0064727D01*
X0175305Y0064732D01*
X0175365Y0064733D01*
X0175424Y0064730D01*
X0175483Y0064723D01*
X0175542Y0064712D01*
X0175600Y0064698D01*
X0175656Y0064679D01*
X0175712Y0064657D01*
X0175765Y0064632D01*
X0175817Y0064602D01*
X0175867Y0064570D01*
X0175914Y0064534D01*
X0175960Y0064495D01*
X0176002Y0064453D01*
X0176042Y0064409D01*
X0176078Y0064362D01*
X0176111Y0064313D01*
X0176142Y0064261D01*
X0176168Y0064208D01*
X0176191Y0064153D01*
X0176210Y0064097D01*
X0176226Y0064039D01*
X0176238Y0063981D01*
X0176246Y0063922D01*
X0176250Y0063863D01*
X0176250Y0063803D01*
X0176246Y0063744D01*
X0176238Y0063685D01*
X0176226Y0063627D01*
X0176210Y0063569D01*
X0176191Y0063513D01*
X0176168Y0063458D01*
X0176142Y0063405D01*
X0176111Y0063353D01*
X0176078Y0063304D01*
X0176042Y0063257D01*
X0176002Y0063213D01*
X0175960Y0063171D01*
X0175914Y0063132D01*
X0175867Y0063096D01*
X0175817Y0063064D01*
X0175765Y0063034D01*
X0175712Y0063009D01*
X0175656Y0062987D01*
X0175600Y0062968D01*
X0175542Y0062954D01*
X0175483Y0062943D01*
X0175424Y0062936D01*
X0175365Y0062933D01*
X0175305Y0062934D01*
X0175246Y0062939D01*
X0175187Y0062948D01*
X0175129Y0062961D01*
X0175072Y0062977D01*
X0175016Y0062997D01*
X0174961Y0063021D01*
X0174909Y0063049D01*
X0174858Y0063080D01*
X0174809Y0063114D01*
X0174763Y0063151D01*
X0174719Y0063191D01*
X0174678Y0063234D01*
X0174640Y0063280D01*
X0174605Y0063328D01*
X0174573Y0063379D01*
X0174545Y0063431D01*
X0174520Y0063485D01*
X0174499Y0063541D01*
X0174481Y0063598D01*
X0174468Y0063656D01*
X0174458Y0063714D01*
X0174452Y0063774D01*
X0174450Y0063833D01*
X0155350Y0083333D02*
X0200350Y0083333D01*
X0200350Y0093333D01*
X0155350Y0093333D01*
X0155210Y0093331D01*
X0155070Y0093325D01*
X0154930Y0093315D01*
X0154790Y0093302D01*
X0154651Y0093284D01*
X0154512Y0093262D01*
X0154375Y0093237D01*
X0154237Y0093208D01*
X0154101Y0093175D01*
X0153966Y0093138D01*
X0153832Y0093097D01*
X0153699Y0093052D01*
X0153567Y0093004D01*
X0153437Y0092952D01*
X0153308Y0092897D01*
X0153181Y0092838D01*
X0153055Y0092775D01*
X0152931Y0092709D01*
X0152810Y0092640D01*
X0152690Y0092567D01*
X0152572Y0092490D01*
X0152457Y0092411D01*
X0152343Y0092328D01*
X0152233Y0092242D01*
X0152124Y0092153D01*
X0152018Y0092061D01*
X0151915Y0091966D01*
X0151814Y0091869D01*
X0151717Y0091768D01*
X0151622Y0091665D01*
X0151530Y0091559D01*
X0151441Y0091450D01*
X0151355Y0091340D01*
X0151272Y0091226D01*
X0151193Y0091111D01*
X0151116Y0090993D01*
X0151043Y0090873D01*
X0150974Y0090752D01*
X0150908Y0090628D01*
X0150845Y0090502D01*
X0150786Y0090375D01*
X0150731Y0090246D01*
X0150679Y0090116D01*
X0150631Y0089984D01*
X0150586Y0089851D01*
X0150545Y0089717D01*
X0150508Y0089582D01*
X0150475Y0089446D01*
X0150446Y0089308D01*
X0150421Y0089171D01*
X0150399Y0089032D01*
X0150381Y0088893D01*
X0150368Y0088753D01*
X0150358Y0088613D01*
X0150352Y0088473D01*
X0150350Y0088333D01*
X0150352Y0088193D01*
X0150358Y0088053D01*
X0150368Y0087913D01*
X0150381Y0087773D01*
X0150399Y0087634D01*
X0150421Y0087495D01*
X0150446Y0087358D01*
X0150475Y0087220D01*
X0150508Y0087084D01*
X0150545Y0086949D01*
X0150586Y0086815D01*
X0150631Y0086682D01*
X0150679Y0086550D01*
X0150731Y0086420D01*
X0150786Y0086291D01*
X0150845Y0086164D01*
X0150908Y0086038D01*
X0150974Y0085914D01*
X0151043Y0085793D01*
X0151116Y0085673D01*
X0151193Y0085555D01*
X0151272Y0085440D01*
X0151355Y0085326D01*
X0151441Y0085216D01*
X0151530Y0085107D01*
X0151622Y0085001D01*
X0151717Y0084898D01*
X0151814Y0084797D01*
X0151915Y0084700D01*
X0152018Y0084605D01*
X0152124Y0084513D01*
X0152233Y0084424D01*
X0152343Y0084338D01*
X0152457Y0084255D01*
X0152572Y0084176D01*
X0152690Y0084099D01*
X0152810Y0084026D01*
X0152931Y0083957D01*
X0153055Y0083891D01*
X0153181Y0083828D01*
X0153308Y0083769D01*
X0153437Y0083714D01*
X0153567Y0083662D01*
X0153699Y0083614D01*
X0153832Y0083569D01*
X0153966Y0083528D01*
X0154101Y0083491D01*
X0154237Y0083458D01*
X0154375Y0083429D01*
X0154512Y0083404D01*
X0154651Y0083382D01*
X0154790Y0083364D01*
X0154930Y0083351D01*
X0155070Y0083341D01*
X0155210Y0083335D01*
X0155350Y0083333D01*
X0145350Y0083333D02*
X0100350Y0083333D01*
X0100350Y0093333D01*
X0095350Y0093333D01*
X0100350Y0093333D02*
X0145350Y0093333D01*
X0145490Y0093331D01*
X0145630Y0093325D01*
X0145770Y0093315D01*
X0145910Y0093302D01*
X0146049Y0093284D01*
X0146188Y0093262D01*
X0146325Y0093237D01*
X0146463Y0093208D01*
X0146599Y0093175D01*
X0146734Y0093138D01*
X0146868Y0093097D01*
X0147001Y0093052D01*
X0147133Y0093004D01*
X0147263Y0092952D01*
X0147392Y0092897D01*
X0147519Y0092838D01*
X0147645Y0092775D01*
X0147769Y0092709D01*
X0147890Y0092640D01*
X0148010Y0092567D01*
X0148128Y0092490D01*
X0148243Y0092411D01*
X0148357Y0092328D01*
X0148467Y0092242D01*
X0148576Y0092153D01*
X0148682Y0092061D01*
X0148785Y0091966D01*
X0148886Y0091869D01*
X0148983Y0091768D01*
X0149078Y0091665D01*
X0149170Y0091559D01*
X0149259Y0091450D01*
X0149345Y0091340D01*
X0149428Y0091226D01*
X0149507Y0091111D01*
X0149584Y0090993D01*
X0149657Y0090873D01*
X0149726Y0090752D01*
X0149792Y0090628D01*
X0149855Y0090502D01*
X0149914Y0090375D01*
X0149969Y0090246D01*
X0150021Y0090116D01*
X0150069Y0089984D01*
X0150114Y0089851D01*
X0150155Y0089717D01*
X0150192Y0089582D01*
X0150225Y0089446D01*
X0150254Y0089308D01*
X0150279Y0089171D01*
X0150301Y0089032D01*
X0150319Y0088893D01*
X0150332Y0088753D01*
X0150342Y0088613D01*
X0150348Y0088473D01*
X0150350Y0088333D01*
X0150348Y0088193D01*
X0150342Y0088053D01*
X0150332Y0087913D01*
X0150319Y0087773D01*
X0150301Y0087634D01*
X0150279Y0087495D01*
X0150254Y0087358D01*
X0150225Y0087220D01*
X0150192Y0087084D01*
X0150155Y0086949D01*
X0150114Y0086815D01*
X0150069Y0086682D01*
X0150021Y0086550D01*
X0149969Y0086420D01*
X0149914Y0086291D01*
X0149855Y0086164D01*
X0149792Y0086038D01*
X0149726Y0085914D01*
X0149657Y0085793D01*
X0149584Y0085673D01*
X0149507Y0085555D01*
X0149428Y0085440D01*
X0149345Y0085326D01*
X0149259Y0085216D01*
X0149170Y0085107D01*
X0149078Y0085001D01*
X0148983Y0084898D01*
X0148886Y0084797D01*
X0148785Y0084700D01*
X0148682Y0084605D01*
X0148576Y0084513D01*
X0148467Y0084424D01*
X0148357Y0084338D01*
X0148243Y0084255D01*
X0148128Y0084176D01*
X0148010Y0084099D01*
X0147890Y0084026D01*
X0147769Y0083957D01*
X0147645Y0083891D01*
X0147519Y0083828D01*
X0147392Y0083769D01*
X0147263Y0083714D01*
X0147133Y0083662D01*
X0147001Y0083614D01*
X0146868Y0083569D01*
X0146734Y0083528D01*
X0146599Y0083491D01*
X0146463Y0083458D01*
X0146325Y0083429D01*
X0146188Y0083404D01*
X0146049Y0083382D01*
X0145910Y0083364D01*
X0145770Y0083351D01*
X0145630Y0083341D01*
X0145490Y0083335D01*
X0145350Y0083333D01*
X0100350Y0083333D02*
X0095350Y0083333D01*
X0095210Y0083335D01*
X0095070Y0083341D01*
X0094930Y0083351D01*
X0094790Y0083364D01*
X0094651Y0083382D01*
X0094512Y0083404D01*
X0094375Y0083429D01*
X0094237Y0083458D01*
X0094101Y0083491D01*
X0093966Y0083528D01*
X0093832Y0083569D01*
X0093699Y0083614D01*
X0093567Y0083662D01*
X0093437Y0083714D01*
X0093308Y0083769D01*
X0093181Y0083828D01*
X0093055Y0083891D01*
X0092931Y0083957D01*
X0092810Y0084026D01*
X0092690Y0084099D01*
X0092572Y0084176D01*
X0092457Y0084255D01*
X0092343Y0084338D01*
X0092233Y0084424D01*
X0092124Y0084513D01*
X0092018Y0084605D01*
X0091915Y0084700D01*
X0091814Y0084797D01*
X0091717Y0084898D01*
X0091622Y0085001D01*
X0091530Y0085107D01*
X0091441Y0085216D01*
X0091355Y0085326D01*
X0091272Y0085440D01*
X0091193Y0085555D01*
X0091116Y0085673D01*
X0091043Y0085793D01*
X0090974Y0085914D01*
X0090908Y0086038D01*
X0090845Y0086164D01*
X0090786Y0086291D01*
X0090731Y0086420D01*
X0090679Y0086550D01*
X0090631Y0086682D01*
X0090586Y0086815D01*
X0090545Y0086949D01*
X0090508Y0087084D01*
X0090475Y0087220D01*
X0090446Y0087358D01*
X0090421Y0087495D01*
X0090399Y0087634D01*
X0090381Y0087773D01*
X0090368Y0087913D01*
X0090358Y0088053D01*
X0090352Y0088193D01*
X0090350Y0088333D01*
X0090352Y0088473D01*
X0090358Y0088613D01*
X0090368Y0088753D01*
X0090381Y0088893D01*
X0090399Y0089032D01*
X0090421Y0089171D01*
X0090446Y0089308D01*
X0090475Y0089446D01*
X0090508Y0089582D01*
X0090545Y0089717D01*
X0090586Y0089851D01*
X0090631Y0089984D01*
X0090679Y0090116D01*
X0090731Y0090246D01*
X0090786Y0090375D01*
X0090845Y0090502D01*
X0090908Y0090628D01*
X0090974Y0090752D01*
X0091043Y0090873D01*
X0091116Y0090993D01*
X0091193Y0091111D01*
X0091272Y0091226D01*
X0091355Y0091340D01*
X0091441Y0091450D01*
X0091530Y0091559D01*
X0091622Y0091665D01*
X0091717Y0091768D01*
X0091814Y0091869D01*
X0091915Y0091966D01*
X0092018Y0092061D01*
X0092124Y0092153D01*
X0092233Y0092242D01*
X0092343Y0092328D01*
X0092457Y0092411D01*
X0092572Y0092490D01*
X0092690Y0092567D01*
X0092810Y0092640D01*
X0092931Y0092709D01*
X0093055Y0092775D01*
X0093181Y0092838D01*
X0093308Y0092897D01*
X0093437Y0092952D01*
X0093567Y0093004D01*
X0093699Y0093052D01*
X0093832Y0093097D01*
X0093966Y0093138D01*
X0094101Y0093175D01*
X0094237Y0093208D01*
X0094375Y0093237D01*
X0094512Y0093262D01*
X0094651Y0093284D01*
X0094790Y0093302D01*
X0094930Y0093315D01*
X0095070Y0093325D01*
X0095210Y0093331D01*
X0095350Y0093333D01*
X0070850Y0056833D02*
X0070854Y0057164D01*
X0070866Y0057495D01*
X0070887Y0057826D01*
X0070915Y0058156D01*
X0070952Y0058486D01*
X0070996Y0058814D01*
X0071049Y0059141D01*
X0071109Y0059467D01*
X0071178Y0059791D01*
X0071255Y0060113D01*
X0071339Y0060434D01*
X0071431Y0060752D01*
X0071531Y0061068D01*
X0071639Y0061381D01*
X0071755Y0061692D01*
X0071878Y0061999D01*
X0072008Y0062304D01*
X0072146Y0062605D01*
X0072291Y0062903D01*
X0072444Y0063197D01*
X0072604Y0063487D01*
X0072771Y0063773D01*
X0072944Y0064055D01*
X0073125Y0064333D01*
X0073313Y0064606D01*
X0073507Y0064875D01*
X0073707Y0065139D01*
X0073914Y0065397D01*
X0074128Y0065651D01*
X0074347Y0065899D01*
X0074573Y0066142D01*
X0074804Y0066379D01*
X0075041Y0066610D01*
X0075284Y0066836D01*
X0075532Y0067055D01*
X0075786Y0067269D01*
X0076044Y0067476D01*
X0076308Y0067676D01*
X0076577Y0067870D01*
X0076850Y0068058D01*
X0077128Y0068239D01*
X0077410Y0068412D01*
X0077696Y0068579D01*
X0077986Y0068739D01*
X0078280Y0068892D01*
X0078578Y0069037D01*
X0078879Y0069175D01*
X0079184Y0069305D01*
X0079491Y0069428D01*
X0079802Y0069544D01*
X0080115Y0069652D01*
X0080431Y0069752D01*
X0080749Y0069844D01*
X0081070Y0069928D01*
X0081392Y0070005D01*
X0081716Y0070074D01*
X0082042Y0070134D01*
X0082369Y0070187D01*
X0082697Y0070231D01*
X0083027Y0070268D01*
X0083357Y0070296D01*
X0083688Y0070317D01*
X0084019Y0070329D01*
X0084350Y0070333D01*
X0084681Y0070329D01*
X0085012Y0070317D01*
X0085343Y0070296D01*
X0085673Y0070268D01*
X0086003Y0070231D01*
X0086331Y0070187D01*
X0086658Y0070134D01*
X0086984Y0070074D01*
X0087308Y0070005D01*
X0087630Y0069928D01*
X0087951Y0069844D01*
X0088269Y0069752D01*
X0088585Y0069652D01*
X0088898Y0069544D01*
X0089209Y0069428D01*
X0089516Y0069305D01*
X0089821Y0069175D01*
X0090122Y0069037D01*
X0090420Y0068892D01*
X0090714Y0068739D01*
X0091004Y0068579D01*
X0091290Y0068412D01*
X0091572Y0068239D01*
X0091850Y0068058D01*
X0092123Y0067870D01*
X0092392Y0067676D01*
X0092656Y0067476D01*
X0092914Y0067269D01*
X0093168Y0067055D01*
X0093416Y0066836D01*
X0093659Y0066610D01*
X0093896Y0066379D01*
X0094127Y0066142D01*
X0094353Y0065899D01*
X0094572Y0065651D01*
X0094786Y0065397D01*
X0094993Y0065139D01*
X0095193Y0064875D01*
X0095387Y0064606D01*
X0095575Y0064333D01*
X0095756Y0064055D01*
X0095929Y0063773D01*
X0096096Y0063487D01*
X0096256Y0063197D01*
X0096409Y0062903D01*
X0096554Y0062605D01*
X0096692Y0062304D01*
X0096822Y0061999D01*
X0096945Y0061692D01*
X0097061Y0061381D01*
X0097169Y0061068D01*
X0097269Y0060752D01*
X0097361Y0060434D01*
X0097445Y0060113D01*
X0097522Y0059791D01*
X0097591Y0059467D01*
X0097651Y0059141D01*
X0097704Y0058814D01*
X0097748Y0058486D01*
X0097785Y0058156D01*
X0097813Y0057826D01*
X0097834Y0057495D01*
X0097846Y0057164D01*
X0097850Y0056833D01*
X0097846Y0056502D01*
X0097834Y0056171D01*
X0097813Y0055840D01*
X0097785Y0055510D01*
X0097748Y0055180D01*
X0097704Y0054852D01*
X0097651Y0054525D01*
X0097591Y0054199D01*
X0097522Y0053875D01*
X0097445Y0053553D01*
X0097361Y0053232D01*
X0097269Y0052914D01*
X0097169Y0052598D01*
X0097061Y0052285D01*
X0096945Y0051974D01*
X0096822Y0051667D01*
X0096692Y0051362D01*
X0096554Y0051061D01*
X0096409Y0050763D01*
X0096256Y0050469D01*
X0096096Y0050179D01*
X0095929Y0049893D01*
X0095756Y0049611D01*
X0095575Y0049333D01*
X0095387Y0049060D01*
X0095193Y0048791D01*
X0094993Y0048527D01*
X0094786Y0048269D01*
X0094572Y0048015D01*
X0094353Y0047767D01*
X0094127Y0047524D01*
X0093896Y0047287D01*
X0093659Y0047056D01*
X0093416Y0046830D01*
X0093168Y0046611D01*
X0092914Y0046397D01*
X0092656Y0046190D01*
X0092392Y0045990D01*
X0092123Y0045796D01*
X0091850Y0045608D01*
X0091572Y0045427D01*
X0091290Y0045254D01*
X0091004Y0045087D01*
X0090714Y0044927D01*
X0090420Y0044774D01*
X0090122Y0044629D01*
X0089821Y0044491D01*
X0089516Y0044361D01*
X0089209Y0044238D01*
X0088898Y0044122D01*
X0088585Y0044014D01*
X0088269Y0043914D01*
X0087951Y0043822D01*
X0087630Y0043738D01*
X0087308Y0043661D01*
X0086984Y0043592D01*
X0086658Y0043532D01*
X0086331Y0043479D01*
X0086003Y0043435D01*
X0085673Y0043398D01*
X0085343Y0043370D01*
X0085012Y0043349D01*
X0084681Y0043337D01*
X0084350Y0043333D01*
X0084019Y0043337D01*
X0083688Y0043349D01*
X0083357Y0043370D01*
X0083027Y0043398D01*
X0082697Y0043435D01*
X0082369Y0043479D01*
X0082042Y0043532D01*
X0081716Y0043592D01*
X0081392Y0043661D01*
X0081070Y0043738D01*
X0080749Y0043822D01*
X0080431Y0043914D01*
X0080115Y0044014D01*
X0079802Y0044122D01*
X0079491Y0044238D01*
X0079184Y0044361D01*
X0078879Y0044491D01*
X0078578Y0044629D01*
X0078280Y0044774D01*
X0077986Y0044927D01*
X0077696Y0045087D01*
X0077410Y0045254D01*
X0077128Y0045427D01*
X0076850Y0045608D01*
X0076577Y0045796D01*
X0076308Y0045990D01*
X0076044Y0046190D01*
X0075786Y0046397D01*
X0075532Y0046611D01*
X0075284Y0046830D01*
X0075041Y0047056D01*
X0074804Y0047287D01*
X0074573Y0047524D01*
X0074347Y0047767D01*
X0074128Y0048015D01*
X0073914Y0048269D01*
X0073707Y0048527D01*
X0073507Y0048791D01*
X0073313Y0049060D01*
X0073125Y0049333D01*
X0072944Y0049611D01*
X0072771Y0049893D01*
X0072604Y0050179D01*
X0072444Y0050469D01*
X0072291Y0050763D01*
X0072146Y0051061D01*
X0072008Y0051362D01*
X0071878Y0051667D01*
X0071755Y0051974D01*
X0071639Y0052285D01*
X0071531Y0052598D01*
X0071431Y0052914D01*
X0071339Y0053232D01*
X0071255Y0053553D01*
X0071178Y0053875D01*
X0071109Y0054199D01*
X0071049Y0054525D01*
X0070996Y0054852D01*
X0070952Y0055180D01*
X0070915Y0055510D01*
X0070887Y0055840D01*
X0070866Y0056171D01*
X0070854Y0056502D01*
X0070850Y0056833D01*
X0065052Y0049835D02*
X0062250Y0049835D01*
X0063651Y0051236D02*
X0063651Y0048434D01*
X0071019Y0045719D02*
X0071019Y0021310D01*
X0043460Y0021310D01*
X0043460Y0045719D01*
X0071019Y0045719D01*
X0086850Y0051833D02*
X0091850Y0051833D01*
X0080350Y0037333D02*
X0080350Y0032333D01*
X0076151Y0024736D02*
X0076151Y0021934D01*
X0074750Y0023335D02*
X0077552Y0023335D01*
X0071019Y0021310D02*
X0071019Y0018160D01*
X0043460Y0018160D01*
X0043460Y0021310D01*
X0040052Y0022835D02*
X0037250Y0022835D01*
X0039850Y0031833D02*
X0041350Y0033333D01*
X0039850Y0034833D01*
X0041350Y0033333D02*
X0036350Y0033333D01*
X0028850Y0041333D01*
X0031850Y0044333D01*
X0031850Y0051333D01*
X0033350Y0049833D01*
X0031850Y0051333D02*
X0030350Y0049833D01*
X0028850Y0041333D02*
X0012850Y0041333D01*
X0049750Y0049335D02*
X0052552Y0049335D01*
X0200350Y0083333D02*
X0205350Y0083333D01*
X0205490Y0083335D01*
X0205630Y0083341D01*
X0205770Y0083351D01*
X0205910Y0083364D01*
X0206049Y0083382D01*
X0206188Y0083404D01*
X0206325Y0083429D01*
X0206463Y0083458D01*
X0206599Y0083491D01*
X0206734Y0083528D01*
X0206868Y0083569D01*
X0207001Y0083614D01*
X0207133Y0083662D01*
X0207263Y0083714D01*
X0207392Y0083769D01*
X0207519Y0083828D01*
X0207645Y0083891D01*
X0207769Y0083957D01*
X0207890Y0084026D01*
X0208010Y0084099D01*
X0208128Y0084176D01*
X0208243Y0084255D01*
X0208357Y0084338D01*
X0208467Y0084424D01*
X0208576Y0084513D01*
X0208682Y0084605D01*
X0208785Y0084700D01*
X0208886Y0084797D01*
X0208983Y0084898D01*
X0209078Y0085001D01*
X0209170Y0085107D01*
X0209259Y0085216D01*
X0209345Y0085326D01*
X0209428Y0085440D01*
X0209507Y0085555D01*
X0209584Y0085673D01*
X0209657Y0085793D01*
X0209726Y0085914D01*
X0209792Y0086038D01*
X0209855Y0086164D01*
X0209914Y0086291D01*
X0209969Y0086420D01*
X0210021Y0086550D01*
X0210069Y0086682D01*
X0210114Y0086815D01*
X0210155Y0086949D01*
X0210192Y0087084D01*
X0210225Y0087220D01*
X0210254Y0087358D01*
X0210279Y0087495D01*
X0210301Y0087634D01*
X0210319Y0087773D01*
X0210332Y0087913D01*
X0210342Y0088053D01*
X0210348Y0088193D01*
X0210350Y0088333D01*
X0210348Y0088473D01*
X0210342Y0088613D01*
X0210332Y0088753D01*
X0210319Y0088893D01*
X0210301Y0089032D01*
X0210279Y0089171D01*
X0210254Y0089308D01*
X0210225Y0089446D01*
X0210192Y0089582D01*
X0210155Y0089717D01*
X0210114Y0089851D01*
X0210069Y0089984D01*
X0210021Y0090116D01*
X0209969Y0090246D01*
X0209914Y0090375D01*
X0209855Y0090502D01*
X0209792Y0090628D01*
X0209726Y0090752D01*
X0209657Y0090873D01*
X0209584Y0090993D01*
X0209507Y0091111D01*
X0209428Y0091226D01*
X0209345Y0091340D01*
X0209259Y0091450D01*
X0209170Y0091559D01*
X0209078Y0091665D01*
X0208983Y0091768D01*
X0208886Y0091869D01*
X0208785Y0091966D01*
X0208682Y0092061D01*
X0208576Y0092153D01*
X0208467Y0092242D01*
X0208357Y0092328D01*
X0208243Y0092411D01*
X0208128Y0092490D01*
X0208010Y0092567D01*
X0207890Y0092640D01*
X0207769Y0092709D01*
X0207645Y0092775D01*
X0207519Y0092838D01*
X0207392Y0092897D01*
X0207263Y0092952D01*
X0207133Y0093004D01*
X0207001Y0093052D01*
X0206868Y0093097D01*
X0206734Y0093138D01*
X0206599Y0093175D01*
X0206463Y0093208D01*
X0206325Y0093237D01*
X0206188Y0093262D01*
X0206049Y0093284D01*
X0205910Y0093302D01*
X0205770Y0093315D01*
X0205630Y0093325D01*
X0205490Y0093331D01*
X0205350Y0093333D01*
X0200350Y0093333D01*
X0304850Y0052833D02*
X0304850Y0047833D01*
X0307350Y0045333D01*
X0304850Y0042833D01*
X0304850Y0037833D01*
X0307350Y0035333D01*
X0304850Y0032833D01*
X0304850Y0027833D01*
X0307350Y0025333D01*
X0312350Y0025333D01*
X0314850Y0027833D01*
X0314850Y0032833D01*
X0317350Y0035333D01*
X0314850Y0037833D01*
X0314850Y0042833D01*
X0317350Y0045333D01*
X0314850Y0047833D01*
X0314850Y0052833D01*
X0317350Y0055333D01*
X0322350Y0055333D01*
X0324850Y0052833D01*
X0324850Y0047833D01*
X0327350Y0045333D01*
X0324850Y0042833D01*
X0324850Y0037833D01*
X0327350Y0035333D01*
X0324850Y0032833D01*
X0324850Y0027833D01*
X0327350Y0025333D01*
X0332350Y0025333D01*
X0334850Y0027833D01*
X0334850Y0032833D01*
X0337350Y0035333D01*
X0334850Y0037833D01*
X0334850Y0042833D01*
X0337350Y0045333D01*
X0334850Y0047833D01*
X0334850Y0052833D01*
X0337350Y0055333D01*
X0342350Y0055333D01*
X0344850Y0052833D01*
X0344850Y0047833D01*
X0342350Y0045333D01*
X0344850Y0042833D01*
X0344850Y0037833D01*
X0342350Y0035333D01*
X0344850Y0032833D01*
X0344850Y0027833D01*
X0342350Y0025333D01*
X0337350Y0025333D01*
X0334850Y0027833D01*
X0334850Y0032833D01*
X0332350Y0035333D01*
X0334850Y0037833D01*
X0334850Y0042833D01*
X0332350Y0045333D01*
X0334850Y0047833D01*
X0334850Y0052833D01*
X0332350Y0055333D01*
X0327350Y0055333D01*
X0324850Y0052833D01*
X0324850Y0047833D01*
X0322350Y0045333D01*
X0324850Y0042833D01*
X0324850Y0037833D01*
X0322350Y0035333D01*
X0324850Y0032833D01*
X0324850Y0027833D01*
X0322350Y0025333D01*
X0317350Y0025333D01*
X0314850Y0027833D01*
X0314850Y0032833D01*
X0312350Y0035333D01*
X0314850Y0037833D01*
X0314850Y0042833D01*
X0312350Y0045333D01*
X0314850Y0047833D01*
X0314850Y0052833D01*
X0312350Y0055333D01*
X0307350Y0055333D01*
X0304850Y0052833D01*
X0360350Y0030833D02*
X0360350Y0025833D01*
X0362850Y0023333D01*
X0367850Y0023333D01*
X0370350Y0025833D01*
X0370350Y0030833D01*
X0367850Y0033333D01*
X0362850Y0033333D01*
X0360350Y0030833D01*
X0385350Y0030833D02*
X0385350Y0025833D01*
X0410350Y0025833D02*
X0412850Y0023333D01*
X0417850Y0023333D01*
X0420350Y0025833D01*
X0420350Y0030833D01*
X0417850Y0033333D01*
X0412850Y0033333D01*
X0410350Y0030833D01*
X0410350Y0025833D01*
X0418850Y0045833D02*
X0418850Y0050833D01*
D16*
X0054350Y0057833D02*
X0053100Y0057833D01*
X0054350Y0057833D02*
X0054350Y0066583D01*
X0031850Y0057833D02*
X0001250Y0057833D01*
X0001250Y0093233D01*
X0014950Y0093233D01*
X0014950Y0057933D01*
X0054350Y0087833D02*
X0054350Y0093233D01*
X0014950Y0093233D01*
D17*
X0073550Y0089603D02*
X0075085Y0091137D01*
X0075085Y0086533D01*
X0075050Y0086533D02*
X0078119Y0086533D01*
X0076619Y0086533D02*
X0073550Y0086533D01*
X0076585Y0086533D02*
X0076585Y0091137D01*
X0075050Y0089603D01*
X0077817Y0122533D02*
X0079352Y0122533D01*
X0080119Y0123301D01*
X0080119Y0127137D01*
X0081654Y0126370D02*
X0081654Y0125603D01*
X0082421Y0124835D01*
X0083956Y0124835D01*
X0084723Y0124068D01*
X0084723Y0123301D01*
X0083956Y0122533D01*
X0082421Y0122533D01*
X0081654Y0123301D01*
X0077817Y0122533D02*
X0077050Y0123301D01*
X0077050Y0127137D01*
X0081654Y0126370D02*
X0082421Y0127137D01*
X0083956Y0127137D01*
X0084723Y0126370D01*
X0086258Y0127137D02*
X0088560Y0127137D01*
X0089327Y0126370D01*
X0089327Y0125603D01*
X0088560Y0124835D01*
X0086258Y0124835D01*
X0086258Y0122533D02*
X0088560Y0122533D01*
X0089327Y0123301D01*
X0089327Y0124068D01*
X0088560Y0124835D01*
X0086258Y0122533D02*
X0086258Y0127137D01*
X0078956Y0157533D02*
X0079723Y0158301D01*
X0079723Y0159068D01*
X0078956Y0159835D01*
X0076654Y0159835D01*
X0076654Y0158301D01*
X0077421Y0157533D01*
X0078956Y0157533D01*
X0076654Y0159835D02*
X0078189Y0161370D01*
X0079723Y0162137D01*
X0078456Y0165533D02*
X0076921Y0165533D01*
X0076154Y0166301D01*
X0079223Y0169370D01*
X0079223Y0166301D01*
X0078456Y0165533D01*
X0076154Y0166301D02*
X0076154Y0169370D01*
X0076921Y0170137D01*
X0078456Y0170137D01*
X0079223Y0169370D01*
X0074619Y0167835D02*
X0071550Y0167835D01*
X0073852Y0170137D01*
X0073852Y0165533D01*
X0075119Y0162137D02*
X0072050Y0162137D01*
X0072050Y0159835D01*
X0073585Y0160603D01*
X0074352Y0160603D01*
X0075119Y0159835D01*
X0075119Y0158301D01*
X0074352Y0157533D01*
X0072817Y0157533D01*
X0072050Y0158301D01*
X0261550Y0165533D02*
X0264619Y0168603D01*
X0264619Y0169370D01*
X0263852Y0170137D01*
X0262317Y0170137D01*
X0261550Y0169370D01*
X0266154Y0168603D02*
X0267689Y0170137D01*
X0267689Y0165533D01*
X0269223Y0165533D02*
X0266154Y0165533D01*
X0264619Y0165533D02*
X0261550Y0165533D01*
X0341550Y0161370D02*
X0342317Y0162137D01*
X0343852Y0162137D01*
X0344619Y0161370D01*
X0344619Y0160603D01*
X0341550Y0157533D01*
X0344619Y0157533D01*
X0346154Y0158301D02*
X0346921Y0157533D01*
X0348456Y0157533D01*
X0349223Y0158301D01*
X0349223Y0161370D01*
X0348456Y0162137D01*
X0346921Y0162137D01*
X0346154Y0161370D01*
X0346154Y0160603D01*
X0346921Y0159835D01*
X0349223Y0159835D01*
X0344674Y0117137D02*
X0342372Y0117137D01*
X0342372Y0112533D01*
X0344674Y0112533D01*
X0345441Y0113301D01*
X0345441Y0116370D01*
X0344674Y0117137D01*
X0340837Y0116370D02*
X0340070Y0117137D01*
X0338535Y0117137D01*
X0337768Y0116370D01*
X0337768Y0115603D01*
X0338535Y0114835D01*
X0340070Y0114835D01*
X0340837Y0114068D01*
X0340837Y0113301D01*
X0340070Y0112533D01*
X0338535Y0112533D01*
X0337768Y0113301D01*
X0336233Y0113301D02*
X0336233Y0114835D01*
X0335466Y0115603D01*
X0333931Y0115603D01*
X0333164Y0114835D01*
X0333164Y0113301D01*
X0333931Y0112533D01*
X0335466Y0112533D01*
X0336233Y0113301D01*
X0331629Y0115603D02*
X0330862Y0115603D01*
X0329327Y0114068D01*
X0329327Y0112533D02*
X0329327Y0115603D01*
X0327792Y0115603D02*
X0325491Y0115603D01*
X0324723Y0114835D01*
X0324723Y0113301D01*
X0325491Y0112533D01*
X0327792Y0112533D01*
X0323189Y0112533D02*
X0321654Y0112533D01*
X0322421Y0112533D02*
X0322421Y0115603D01*
X0321654Y0115603D01*
X0322421Y0117137D02*
X0322421Y0117905D01*
X0319352Y0115603D02*
X0320119Y0114835D01*
X0320119Y0112533D01*
X0318585Y0112533D02*
X0318585Y0114835D01*
X0319352Y0115603D01*
X0318585Y0114835D02*
X0317817Y0115603D01*
X0317050Y0115603D01*
X0317050Y0112533D01*
X0269223Y0090370D02*
X0266154Y0087301D01*
X0266921Y0086533D01*
X0268456Y0086533D01*
X0269223Y0087301D01*
X0269223Y0090370D01*
X0268456Y0091137D01*
X0266921Y0091137D01*
X0266154Y0090370D01*
X0266154Y0087301D01*
X0264619Y0086533D02*
X0261550Y0086533D01*
X0264619Y0089603D01*
X0264619Y0090370D01*
X0263852Y0091137D01*
X0262317Y0091137D01*
X0261550Y0090370D01*
X0341550Y0087870D02*
X0342317Y0088637D01*
X0343852Y0088637D01*
X0344619Y0087870D01*
X0344619Y0087103D01*
X0341550Y0084033D01*
X0344619Y0084033D01*
X0346154Y0084801D02*
X0346154Y0085568D01*
X0346921Y0086335D01*
X0348456Y0086335D01*
X0349223Y0085568D01*
X0349223Y0084801D01*
X0348456Y0084033D01*
X0346921Y0084033D01*
X0346154Y0084801D01*
X0346921Y0086335D02*
X0346154Y0087103D01*
X0346154Y0087870D01*
X0346921Y0088637D01*
X0348456Y0088637D01*
X0349223Y0087870D01*
X0349223Y0087103D01*
X0348456Y0086335D01*
D18*
X0067619Y0117134D02*
X0067619Y0119533D01*
X0064443Y0119855D01*
X0064102Y0120923D01*
X0063589Y0121919D01*
X0065606Y0124393D01*
X0063910Y0126089D01*
X0061436Y0124072D01*
X0060439Y0124585D01*
X0059372Y0124927D01*
X0059050Y0128103D01*
X0056650Y0128103D01*
X0056328Y0124927D01*
X0055261Y0124585D01*
X0054264Y0124072D01*
X0051790Y0126089D01*
X0050094Y0124393D01*
X0052111Y0121919D01*
X0051598Y0120923D01*
X0051257Y0119855D01*
X0048081Y0119533D01*
X0048081Y0117134D01*
X0051257Y0116811D01*
X0051598Y0115744D01*
X0052111Y0114748D01*
X0050094Y0112273D01*
X0051790Y0110577D01*
X0054264Y0112595D01*
X0055260Y0112081D01*
X0056673Y0115492D01*
X0056141Y0115776D01*
X0055675Y0116158D01*
X0055292Y0116624D01*
X0055008Y0117156D01*
X0054833Y0117733D01*
X0054774Y0118333D01*
X0054839Y0118962D01*
X0055031Y0119563D01*
X0055341Y0120113D01*
X0055758Y0120588D01*
X0056262Y0120968D01*
X0056834Y0121237D01*
X0057448Y0121383D01*
X0058080Y0121401D01*
X0058701Y0121289D01*
X0059287Y0121053D01*
X0059812Y0120702D01*
X0060255Y0120251D01*
X0060596Y0119720D01*
X0060821Y0119130D01*
X0060921Y0118506D01*
X0060892Y0117875D01*
X0060734Y0117263D01*
X0060454Y0116697D01*
X0060065Y0116199D01*
X0059583Y0115792D01*
X0059027Y0115492D01*
X0060440Y0112081D01*
X0061436Y0112595D01*
X0063910Y0110577D01*
X0065606Y0112273D01*
X0063589Y0114748D01*
X0064102Y0115744D01*
X0064443Y0116811D01*
X0067619Y0117134D01*
X0067619Y0117296D02*
X0060742Y0117296D01*
X0060892Y0117885D02*
X0067619Y0117885D01*
X0067619Y0118474D02*
X0060920Y0118474D01*
X0060832Y0119063D02*
X0067619Y0119063D01*
X0066446Y0119652D02*
X0060622Y0119652D01*
X0060261Y0120241D02*
X0064320Y0120241D01*
X0064131Y0120830D02*
X0059620Y0120830D01*
X0056079Y0120830D02*
X0051569Y0120830D01*
X0051380Y0120241D02*
X0055453Y0120241D01*
X0055081Y0119652D02*
X0049254Y0119652D01*
X0048081Y0119063D02*
X0054871Y0119063D01*
X0054789Y0118474D02*
X0048081Y0118474D01*
X0048081Y0117885D02*
X0054818Y0117885D01*
X0054966Y0117296D02*
X0048081Y0117296D01*
X0051290Y0116707D02*
X0055248Y0116707D01*
X0055724Y0116118D02*
X0051479Y0116118D01*
X0051709Y0115529D02*
X0056604Y0115529D01*
X0056444Y0114940D02*
X0052012Y0114940D01*
X0051788Y0114351D02*
X0056200Y0114351D01*
X0055956Y0113761D02*
X0051307Y0113761D01*
X0050827Y0113172D02*
X0055712Y0113172D01*
X0055468Y0112583D02*
X0054286Y0112583D01*
X0054250Y0112583D02*
X0050347Y0112583D01*
X0050373Y0111994D02*
X0053528Y0111994D01*
X0052805Y0111405D02*
X0050962Y0111405D01*
X0051551Y0110816D02*
X0052083Y0110816D01*
X0059744Y0113761D02*
X0064393Y0113761D01*
X0064873Y0113172D02*
X0059988Y0113172D01*
X0060232Y0112583D02*
X0061414Y0112583D01*
X0061450Y0112583D02*
X0065353Y0112583D01*
X0065327Y0111994D02*
X0062172Y0111994D01*
X0062895Y0111405D02*
X0064738Y0111405D01*
X0064149Y0110816D02*
X0063617Y0110816D01*
X0063912Y0114351D02*
X0059500Y0114351D01*
X0059256Y0114940D02*
X0063687Y0114940D01*
X0063991Y0115529D02*
X0059096Y0115529D01*
X0059969Y0116118D02*
X0064221Y0116118D01*
X0064410Y0116707D02*
X0060459Y0116707D01*
X0063846Y0121419D02*
X0051854Y0121419D01*
X0052039Y0122008D02*
X0063661Y0122008D01*
X0064142Y0122597D02*
X0051558Y0122597D01*
X0051078Y0123186D02*
X0064622Y0123186D01*
X0065102Y0123776D02*
X0050598Y0123776D01*
X0050117Y0124365D02*
X0053905Y0124365D01*
X0054832Y0124365D02*
X0060868Y0124365D01*
X0061795Y0124365D02*
X0065583Y0124365D01*
X0065045Y0124954D02*
X0062517Y0124954D01*
X0063240Y0125543D02*
X0064456Y0125543D01*
X0059369Y0124954D02*
X0056331Y0124954D01*
X0056391Y0125543D02*
X0059310Y0125543D01*
X0059250Y0126132D02*
X0056450Y0126132D01*
X0056510Y0126721D02*
X0059190Y0126721D01*
X0059130Y0127310D02*
X0056570Y0127310D01*
X0056630Y0127899D02*
X0059070Y0127899D01*
X0053183Y0124954D02*
X0050655Y0124954D01*
X0051244Y0125543D02*
X0052460Y0125543D01*
M02*
